<?xml version="1.0" encoding="UTF-8"?>
<svg id="Calque_2" data-name="Calque 2" xmlns="http://www.w3.org/2000/svg" viewBox="0 0 231.41 106.61">
  <g id="FR_-_copie" data-name="FR - copie">
    <g>
      <path d="m3.04,105.93c4.13-4.19,8.09-8.24,11.88-12.13s7.2-7.65,10.23-11.28c3.03-3.63,5.42-7.14,7.19-10.53,1.76-3.39,2.65-6.69,2.65-9.88,0-1.4-.25-2.66-.75-3.79-.5-1.13-1.2-2.1-2.1-2.9-.9-.8-1.96-1.41-3.19-1.85-1.23-.43-2.61-.65-4.14-.65s-2.9.22-4.09.65c-1.2.43-2.2,1.02-2.99,1.75-.8.73-1.42,1.53-1.85,2.4-.43.87-.65,1.76-.65,2.7,0,2.13.35,4.01,1.05,5.64.7,1.63,1.65,3.08,2.85,4.34l-8.88,8.09c-1.93-.93-3.58-2.5-4.94-4.69-1.36-2.2-2.4-4.51-3.09-6.94-.7-2.43-1.05-4.44-1.05-6.04,0-3.66,1.01-7.15,3.04-10.48,2.03-3.33,4.99-6.06,8.88-8.19,3.89-2.13,8.63-3.19,14.23-3.19,4.59,0,8.59,1.03,11.98,3.09,3.39,2.06,6.04,4.78,7.94,8.14,1.9,3.36,2.85,6.94,2.85,10.73,0,2.99-.47,5.89-1.4,8.68-.93,2.79-2.21,5.54-3.84,8.24-1.63,2.7-3.48,5.36-5.54,7.99-2.06,2.63-4.19,5.31-6.39,8.04l-6.59-1.9h24.56v13.98H3.04Z" fill="#fff"/>
      <path d="m56.85,91.45v-.1l42.23-52.41h.1v41.53h7.89v10.98h-7.89v14.47h-14.57v-14.47h-27.75Zm28.45-20.66l-7.69,10.28-1.4-.6h8.39v-10.38l.7.7Z" fill="#fff"/>
      <path d="m142.4,106.03c-3.79,0-7.37-.66-10.73-2-3.36-1.33-6.32-3.38-8.88-6.14-2.56-2.76-4.58-6.25-6.04-10.48-1.46-4.23-2.2-9.2-2.2-14.92,0-6.39.7-11.73,2.1-16.02,1.4-4.29,3.34-7.74,5.84-10.33,2.5-2.6,5.44-4.44,8.83-5.54,3.39-1.1,7.09-1.65,11.08-1.65s7.37.67,10.73,2c3.36,1.33,6.32,3.38,8.88,6.14,2.56,2.76,4.58,6.26,6.04,10.48,1.46,4.23,2.2,9.2,2.2,14.92s-.73,11.02-2.2,15.27c-1.46,4.26-3.49,7.74-6.09,10.43-2.6,2.7-5.56,4.68-8.88,5.94-3.33,1.26-6.89,1.9-10.68,1.9Zm-.1-13.88c3.33,0,5.92-.88,7.79-2.65,1.86-1.76,3.18-4.17,3.94-7.24.76-3.06,1.15-6.45,1.15-10.18s-.38-6.92-1.15-9.78c-.77-2.86-2.08-5.14-3.94-6.84-1.86-1.7-4.46-2.55-7.79-2.55s-5.82.87-7.69,2.6c-1.86,1.73-3.16,4.06-3.89,6.99-.73,2.93-1.1,6.22-1.1,9.88s.36,6.99,1.1,9.98c.73,3,2.03,5.38,3.89,7.14,1.86,1.76,4.43,2.65,7.69,2.65Z" fill="#fff"/>
    </g>
    <path d="m211.78,89.97c-2.76,0-5.42-.65-7.97-1.94-2.55-1.29-4.53-3.02-5.94-5.19l.53-2.55v26.33h-8.1v-54.5h7.04l1.14,9.33-.88-2.55c1.76-2.23,3.99-4.08,6.69-5.55,2.7-1.47,5.72-2.2,9.07-2.2s6.47.82,9.2,2.47c2.73,1.64,4.89,3.93,6.47,6.87,1.58,2.94,2.38,6.37,2.38,10.3s-.85,7.34-2.55,10.21c-1.7,2.88-4.04,5.09-7,6.65-2.96,1.55-6.33,2.33-10.08,2.33Zm-1.58-6.52c2.35,0,4.5-.54,6.47-1.63,1.97-1.08,3.54-2.58,4.71-4.49,1.17-1.91,1.76-4.06,1.76-6.47s-.56-4.65-1.67-6.56c-1.12-1.91-2.6-3.42-4.45-4.53-1.85-1.11-3.92-1.67-6.21-1.67-2.11,0-4.02.41-5.72,1.23-1.7.82-3.11,1.95-4.23,3.39-1.12,1.44-1.91,3.1-2.38,4.97v6.08c.29,1.88,1,3.55,2.11,5.02,1.11,1.47,2.51,2.61,4.18,3.43,1.67.82,3.48,1.23,5.42,1.23Z" fill="#fff"/>
    <g>
      <path d="m0,0h19.23v1.38h-8.95v28.14h-1.42V1.38H0V0Z" fill="#fff"/>
      <path d="m35.83,29.81c-1.62,0-3.06-.37-4.33-1.11-1.27-.74-2.27-1.74-3.01-3.01-.74-1.27-1.11-2.68-1.11-4.24s.38-2.98,1.13-4.26c.75-1.28,1.77-2.3,3.05-3.05,1.28-.75,2.7-1.13,4.26-1.13,1.87,0,3.44.54,4.7,1.61,1.27,1.07,2.2,2.45,2.78,4.12l-14.3,5.69-.42-1.04,13.51-5.35-.33.5c-.53-1.17-1.3-2.19-2.32-3.05s-2.25-1.3-3.7-1.3c-1.31,0-2.5.32-3.55.96-1.06.64-1.9,1.51-2.53,2.61-.63,1.1-.94,2.32-.94,3.66,0,1.25.3,2.43.9,3.53.6,1.1,1.43,1.99,2.49,2.65,1.06.67,2.3,1,3.72,1,.95,0,1.85-.17,2.7-.52.85-.35,1.6-.8,2.24-1.36l.79.96c-.78.64-1.67,1.16-2.66,1.55-.99.39-2.01.59-3.07.59Z" fill="#fff"/>
      <path d="m60.84,29.85c-.86,0-1.78-.16-2.76-.48-.98-.32-1.78-.86-2.43-1.61l.71-.92c.47.56,1.1,1.01,1.88,1.36.78.35,1.62.52,2.51.52.67,0,1.3-.1,1.9-.31.6-.21,1.09-.56,1.48-1.04.39-.49.59-1.15.59-1.99s-.22-1.44-.65-1.9c-.43-.46-.99-.82-1.67-1.09-.68-.26-1.39-.52-2.11-.77-1.12-.36-2.06-.85-2.82-1.46-.77-.61-1.15-1.53-1.15-2.76,0-.89.21-1.65.63-2.28.42-.63.98-1.11,1.67-1.44.7-.33,1.46-.5,2.3-.5.75,0,1.55.14,2.38.42.84.28,1.57.75,2.22,1.42l-.67.92c-.45-.59-1.05-1-1.8-1.23-.75-.24-1.41-.37-1.97-.4-.47,0-.98.1-1.51.31-.53.21-.98.53-1.36.96-.38.43-.56.98-.56,1.65s.17,1.21.52,1.63c.35.42.8.75,1.36,1,.56.25,1.14.49,1.76.71.78.28,1.54.58,2.28.9.74.32,1.34.76,1.82,1.32.47.56.71,1.31.71,2.26s-.2,1.78-.61,2.51c-.4.72-.99,1.29-1.76,1.69-.77.4-1.74.61-2.91.61Z" fill="#fff"/>
      <path d="m82.2,6.4h1.38v7.32h5.18v1.13h-5.18v14.68h-1.38v-14.68h-3.6v-1.13h3.6v-7.32Z" fill="#fff"/>
      <path d="m126.65,29.85c-.86,0-1.78-.16-2.76-.48-.98-.32-1.78-.86-2.43-1.61l.71-.92c.47.56,1.1,1.01,1.88,1.36.78.35,1.62.52,2.51.52.67,0,1.3-.1,1.9-.31.6-.21,1.09-.56,1.48-1.04.39-.49.59-1.15.59-1.99s-.22-1.44-.65-1.9c-.43-.46-.99-.82-1.67-1.09-.68-.26-1.39-.52-2.11-.77-1.12-.36-2.06-.85-2.82-1.46-.77-.61-1.15-1.53-1.15-2.76,0-.89.21-1.65.63-2.28.42-.63.98-1.11,1.67-1.44.7-.33,1.46-.5,2.3-.5.75,0,1.55.14,2.38.42.84.28,1.57.75,2.22,1.42l-.67.92c-.45-.59-1.05-1-1.8-1.23-.75-.24-1.41-.37-1.97-.4-.47,0-.98.1-1.51.31-.53.21-.98.53-1.36.96-.38.43-.56.98-.56,1.65s.17,1.21.52,1.63c.35.42.8.75,1.36,1,.56.25,1.14.49,1.76.71.78.28,1.54.58,2.28.9.74.32,1.34.76,1.82,1.32.47.56.71,1.31.71,2.26s-.2,1.78-.61,2.51c-.4.72-.99,1.29-1.76,1.69-.77.4-1.74.61-2.91.61Z" fill="#fff"/>
      <path d="m151.36,29.9c-1.48,0-2.66-.45-3.55-1.34-.89-.89-1.37-2.03-1.42-3.43v-11.67h1.38v11.29c.03,1.12.38,2.04,1.05,2.76s1.66,1.12,2.97,1.17c1.09,0,2.12-.27,3.09-.82.98-.54,1.76-1.3,2.36-2.26.6-.96.9-2.04.9-3.24v-8.91h1.38v16.06h-1.21l-.12-4.98.17.71c-.25.86-.73,1.65-1.44,2.36-.71.71-1.55,1.27-2.51,1.67-.96.4-1.97.61-3.03.61Z" fill="#fff"/>
      <path d="m175.11,7.94c0-.31.12-.57.36-.79.24-.22.51-.33.82-.33.33,0,.61.11.84.33.22.22.33.5.33.84s-.11.61-.33.84-.5.33-.84.33c-.31,0-.58-.12-.82-.36s-.36-.52-.36-.86Zm.46,5.52h1.38v16.06h-1.38V13.46Z" fill="#fff"/>
      <path d="m194.59,6.4h1.38v7.32h5.19v1.13h-5.19v14.68h-1.38v-14.68h-3.6v-1.13h3.6v-7.32Z" fill="#fff"/>
      <path d="m221.27,29.81c-1.62,0-3.06-.37-4.33-1.11-1.27-.74-2.27-1.74-3.01-3.01-.74-1.27-1.11-2.68-1.11-4.24s.38-2.98,1.13-4.26c.75-1.28,1.77-2.3,3.05-3.05,1.28-.75,2.7-1.13,4.26-1.13,1.87,0,3.44.54,4.7,1.61,1.27,1.07,2.2,2.45,2.78,4.12l-14.3,5.69-.42-1.04,13.51-5.35-.33.5c-.53-1.17-1.3-2.19-2.32-3.05-1.02-.86-2.25-1.3-3.7-1.3-1.31,0-2.49.32-3.55.96-1.06.64-1.9,1.51-2.53,2.61-.63,1.1-.94,2.32-.94,3.66,0,1.25.3,2.43.9,3.53.6,1.1,1.43,1.99,2.49,2.65,1.06.67,2.3,1,3.72,1,.95,0,1.85-.17,2.7-.52.85-.35,1.59-.8,2.24-1.36l.79.96c-.78.64-1.67,1.16-2.66,1.55-.99.39-2.01.59-3.07.59Z" fill="#fff"/>
    </g>
  </g>
</svg>