<?xml version="1.0" encoding="UTF-8"?>
<svg id="Calque_2" data-name="Calque 2" xmlns="http://www.w3.org/2000/svg" xmlns:xlink="http://www.w3.org/1999/xlink" viewBox="0 0 265.56 89.5">
  <defs>
    <radialGradient id="Dégradé_sans_nom" data-name="Dégradé sans nom" cx="316.38" cy="-219.56" fx="316.38" fy="-219.56" r="1" gradientTransform="translate(-4645.4 3294.64) scale(14.74 14.73)" gradientUnits="userSpaceOnUse">
      <stop offset=".52" stop-color="#fff"/>
      <stop offset=".89" stop-color="#757576"/>
      <stop offset="1" stop-color="#4e4d4d"/>
    </radialGradient>
  </defs>
  <g id="Calque_1-2" data-name="Calque 1">
    <g id="Layer_2" data-name="Layer 2">
      <g id="Layer_1-2" data-name="Layer 1-2">
        <g>
          <path d="m85.3,41.32v.21c9.15.17,15.91,1.99,20.28,5.46,4.37,3.47,6.55,7.66,6.55,12.58,0,5.49-2.49,10.02-7.46,13.59s-11.58,5.36-19.81,5.37c-7.13,0-12.64-1.42-16.53-4.27-3.89-2.85-5.84-6.09-5.85-9.72-.07-2.25.89-4.41,2.62-5.86,1.75-1.48,3.99-2.27,6.28-2.21,2.13-.05,4.21.64,5.89,1.95,1.6,1.21,2.51,3.12,2.45,5.13,0,2.83-1.89,5.2-5.7,7.12-.74.37-1.12.8-1.12,1.27,0,.87,1.06,1.63,3.2,2.3,2.12.66,4.32,1,6.54,1,7.33,0,11-5.38,11-16.13s-4.39-16-13.18-16l-7.3.29c-1.47,0-2.21-.54-2.21-1.62,0-1.25.77-1.88,2.32-1.88l5.29.22c5.42,0,9.05-1.21,10.89-3.63s2.76-5.85,2.77-10.28c0-4.58-.7-7.95-2.09-10.1-1.39-2.16-3.79-3.23-7.17-3.23-1.78-.02-3.54.3-5.2.93-1.62.62-2.44,1.23-2.44,1.83s.53,1.15,1.6,1.76c2.79,1.78,4.19,3.7,4.19,5.78.07,1.91-.81,3.73-2.34,4.87-1.5,1.18-3.37,1.82-5.28,1.81-2.18.01-4.29-.71-6-2.06-1.67-1.18-2.67-3.1-2.67-5.14,0-3.5,2-6.52,5.91-9.06s9-3.83,15.17-3.83c6.82,0,12.57,1.44,17.26,4.33,4.69,2.89,7.02,6.59,7,11.1.01,8.9-8.27,14.27-24.86,16.12Z" style="fill: #fff; stroke-width: 0px;"/>
          <path d="m143.98,13.08v61.2h6c9.17,0,14.71-2.4,16.61-7.21,1.9-4.81,2.85-13.02,2.85-24.65,0-9.1-.59-15.64-1.76-19.62-1.16-4-2.94-6.59-5.31-7.84-2.82-1.34-5.93-1.98-9.05-1.87h-9.34Zm-18.52,61.2V13.08h-9.6v-3.31h38.48c11.13,0,19.94,3.15,26.43,9.46s9.74,14.26,9.73,23.87c.02,4.84-1,9.64-3,14.05-2.14,4.62-5.26,8.71-9.14,12-3.59,3.3-7.93,5.68-12.65,6.93-5.23,1.12-10.58,1.64-15.93,1.54h-33.92v-3.34h9.6Z" style="fill: #fff; stroke-width: 0px;"/>
          <path d="m244.49,43.96c0-10.39-.21-17.23-.64-20.54-.26-2.94-1.41-5.73-3.29-8-1.79-2-4.74-3-8.84-3-2.95-.15-5.87.71-8.27,2.44-2.06,1.64-3.33,4.26-3.85,7.87s-.75,10.66-.75,21.14.21,17.25.65,20.61c.26,2.97,1.47,5.77,3.44,8,1.87,2,4.79,3,8.78,3,2.89.13,5.75-.71,8.11-2.39,2.09-1.61,3.39-4.21,3.92-7.82s.74-10.73.74-21.31Zm-46.74-.29c0-10.15,3.35-18.45,10.05-24.91,6.41-6.33,15.1-9.82,24.11-9.67,8.65-.02,16.99,3.23,23.35,9.1,6.87,6.06,10.3,14.69,10.3,25.88,0,10.49-3.24,18.9-9.73,25.22-6.32,6.25-14.91,9.67-23.8,9.48-10.13,0-18.37-3.36-24.74-10.07s-9.55-15.06-9.54-25.03h0Z" style="fill: #fff; stroke-width: 0px;"/>
          <path d="m0,86.98c0-1.39,6.43-2.52,14.36-2.52s14.36,1.13,14.36,2.52-6.43,2.52-14.36,2.52-14.36-1.08-14.36-2.52Z" style="fill: #b9b9b9; stroke-width: 0px;"/>
          <path d="m2.16,63.24c.02-6.74,5.49-12.19,12.23-12.17s12.19,5.49,12.17,12.23c-.02,6.73-5.47,12.17-12.2,12.17-6.75-.01-12.21-5.48-12.2-12.23Z" style="fill: url(#Dégradé_sans_nom); stroke-width: 0px;"/>
          <path d="m2.99,31.35c-1.79,1.2-2.27,8.15-2.27,8.15,0,0,.48,7,2.27,8.15s11.37,1.92,11.37,1.92c0,0,9.57-.72,11.37-1.92s2.27-8.15,2.27-8.15c0,0-.48-6.95-2.27-8.15s-11.37-1.93-11.37-1.93c0,0-9.57.73-11.37,1.93Z" style="fill: #a2a1a1; stroke-width: 0px;"/>
          <path d="m14.36,0l14.3,14.32-14.3,14.33L.07,14.32,14.36,0Z" style="fill: #fff; stroke-width: 0px;"/>
        </g>
      </g>
    </g>
  </g>
</svg>