<?xml version="1.0" encoding="UTF-8"?>
<svg id="Calque_1" data-name="Calque 1" xmlns="http://www.w3.org/2000/svg" viewBox="0 0 252.8 110.44">
  <g>
    <path d="m42.37,66.88c-3.34,0-6.99,1.98-6.99,8.89s3.12,11.31,7.83,11.31,6.46-5.38,6.46-10.78-2.28-9.43-7.3-9.43Z" style="fill: #fff; stroke-width: 0px;"/>
    <polygon points="91.4 69.76 91.4 50.43 80.79 69.76 91.4 69.76" style="fill: #fff; stroke-width: 0px;"/>
    <path d="m0,20.58v89.86h252.8V20.58H0Zm236.74,76.89h-1.14v3.74h-.86v-3.74h-1.14v-.74h3.15v.74Zm-34.55,2.55h-25.84v-19.59c-5.62,11.57-17.5,19.59-31.17,19.59h-25.84v-15.58h-9.92v15.58h-18.02v-15.58h-24.29c-2.23,7.66-8.33,16.72-24.81,16.72-24.48,0-26.3-22.5-26.3-30.25,0-10.87,2.66-21.59,14.29-31.92s32.23-9.2,32.23-9.2v15.2s-10.64-.68-17.71,3.19c-3.66,2.01-7.22,5.47-8.55,9.39,3.1-2.19,7.74-4.13,14.48-4.13,9.6,0,14.07,6.26,16.08,12.38l20.25-35.05h22.35v38.99h9.92V30.77h25.84c13.66,0,25.54,8.02,31.16,19.59v-19.59h25.84,0c19.04,0,34.62,15.58,34.62,34.62s-15.58,34.62-34.62,34.62Zm38.97,1.2h-.85v-2.66l-.85,1.79h-.57l-.86-1.81v2.68h-.85v-4.48h.85l1.15,2.48,1.14-2.48h.85v4.48Z" style="fill: #fff; stroke-width: 0px;"/>
    <path d="m198.66,44.62h-4.31v41.55h4.31c8.61,0,15.66-9.35,15.66-20.77s-7.05-20.77-15.66-20.77Z" style="fill: #fff; stroke-width: 0px;"/>
    <path d="m141.65,44.62h-4.31v41.55h4.31c8.61,0,15.66-9.35,15.66-20.77s-7.05-20.77-15.66-20.77Z" style="fill: #fff; stroke-width: 0px;"/>
  </g>
  <g>
    <path d="m80.84,10.38c0-3.54-1.44-6.13-6.02-6.13h-5.36v12.05h5.64c3.48,0,5.75-2.27,5.75-5.91Zm-6.96,3.2v-6.63h.44c.72,0,1.22.22,1.49.72.28.5.33,1.44.33,2.6s-.06,2.1-.33,2.6c-.28.5-.77.72-1.49.72h-.44Zm14.04,3.04c3.98,0,5.91-2.6,5.91-6.35s-1.99-6.36-5.91-6.36-5.91,2.6-5.91,6.36c0,3.76,1.99,6.35,5.91,6.35Zm0-9.73c.72,0,1.22.44,1.22,3.32s-.5,3.32-1.22,3.32-1.22-.39-1.22-3.32c0-2.93.5-3.32,1.22-3.32ZM11.82,4.25h-3.65v6.91h-.06l-2.43-6.91H.27v12.05h3.65v-6.96h.06l2.43,6.96h5.41V4.25Zm12.54,5.08h.06l2.43,6.96h5.42V4.25h-3.65v6.91h-.06l-2.43-6.91h-5.42v12.05h3.65v-6.96Zm35.2,0h.06l2.43,6.96h5.42V4.25h-3.65v6.91h-.06l-2.43-6.91h-5.42v12.05h3.65v-6.96ZM14.03,4.25h4.53v12.05h-4.53V4.25Zm22.44,12.05h4.53V7.51h2.87v-3.26h-10.28v3.26h2.87v8.79Zm17.85-3.15h-4.64v-1.33h4.15v-3.09h-4.15v-1.27h4.53v-3.2h-8.95v12.05h9.06v-3.15Z" style="fill: #fff; stroke-width: 0px;"/>
    <path d="m69.45,4.25h5.36c4.59,0,6.02,2.6,6.02,6.13s-2.27,5.91-5.75,5.91h-5.64V4.25Zm4.42,9.34h.44c.72,0,1.22-.22,1.49-.72s.33-1.44.33-2.6-.06-2.1-.33-2.6c-.28-.5-.77-.72-1.49-.72h-.44v6.63Zm14.04-9.67c3.92,0,5.91,2.6,5.91,6.36s-1.93,6.35-5.91,6.35-5.91-2.6-5.91-6.35c0-3.76,1.93-6.36,5.91-6.36Zm0,9.61c.72,0,1.22-.33,1.22-3.31s-.5-3.32-1.22-3.32-1.22.39-1.22,3.32c0,2.93.5,3.32,1.22,3.31ZM8.17,4.25v6.91h-.06l-2.43-6.91H.27v12.05h3.65v-6.96h.06l2.43,6.96h5.41V4.25h-3.65Zm20.45,0v6.91h-.06l-2.43-6.91h-5.42v12.05h3.65v-6.96h.06l2.43,6.96h5.42V4.25h-3.65Zm35.2,0v6.91h-.06l-2.43-6.91h-5.42v12.05h3.65v-6.96h.06l2.43,6.96h5.41V4.25s-3.65,0-3.65,0Zm-45.26,0v12.05h-4.53V4.25h4.53Zm17.9,12.05V7.51h-2.87v-3.26h10.28v3.26h-2.87v8.79s-4.53,0-4.53,0Zm13.21-8.84v1.27h4.14v3.09h-4.14v1.33h4.64v3.15h-9.06V4.25h8.95v3.2s-4.53,0-4.53,0Z" style="fill: #fff; stroke-width: 0px;"/>
  </g>
  <g>
    <path d="m100.07,3.26c-.77,0-1.33.17-1.82.61h-.06c.28-.94,1-1.71,2.93-1.82h.77V0h-.88c-1.55.05-2.82.5-3.81,1.44-1.05.94-1.66,2.49-1.66,4.26,0,2.21,1.16,4.26,3.87,4.26,2.04,0,3.54-1.55,3.54-3.54s-1.38-3.15-2.87-3.15Zm-.66,4.75c-.83,0-1.22-.83-1.27-1.6,0-.28,0-.44.06-.55.17-.39.55-.72,1.05-.72.83,0,1.16.77,1.16,1.44,0,.83-.39,1.44-1,1.44Zm10.67-2.32V.17h-3.21l-3.21,5.75v1.71h4.03v2.15l-.06.06h2.43v-2.16h1v-1.99s-1,0-.99,0Zm-2.38-1.71v1.66h-1.66v-.06l.77-1.6c.33-.66.61-1.27.88-1.93h.06c0,.66-.06,1.33-.06,1.93Z" style="fill: #fff; stroke-width: 0px;"/>
    <path d="m101.95,2.05h-.83c-1.93.11-2.65.88-2.93,1.82h.06c.5-.44,1.05-.61,1.82-.61,1.49,0,2.87,1.1,2.87,3.15s-1.49,3.54-3.54,3.54c-2.71,0-3.87-2.05-3.87-4.26,0-1.77.61-3.32,1.66-4.26,1-.94,2.27-1.38,3.81-1.44h.88v2.05h.06Zm-2.54,5.97c.61,0,1-.61,1-1.44,0-.66-.33-1.44-1.16-1.44-.5,0-.88.33-1.05.72-.06.11-.06.28-.06.55.06.77.44,1.6,1.27,1.6Zm8.29,1.77v-2.16h-4.03v-1.71l3.21-5.75h3.21v5.53h1v1.99h-1v2.15h-2.43s.06-.06.05-.05Zm0-4.14v-1.66c0-.61.06-1.27.06-1.93h-.06c-.27.66-.57,1.3-.88,1.93l-.77,1.6v.05h1.66Z" style="fill: #fff; stroke-width: 0px;"/>
  </g>
</svg>