<?xml version="1.0" encoding="UTF-8"?>
<svg id="Calque_2" data-name="Calque 2" xmlns="http://www.w3.org/2000/svg" viewBox="0 0 636.84 99.71">
  <g id="Calque_1-2" data-name="Calque 1">
    <g>
      <path d="m636.84,45.8c-2-.08-1.81,1.43-2.07,2.71-1.95,9.73-3.79,19.48-5.94,29.16-2.97,13.34-11.5,20.17-25.15,19.98-7.44-.1-14.99,1.21-22.31-.96-9.86-2.91-13.65-9.6-11.74-19.77,2.2-11.69,4.09-23.45,7.05-34.99,2.73-10.62,11.82-17.81,22.79-18.05,6.65-.15,13.3-.05,19.95-.03,8.34.03,17.69,5.51,16.45,16.36-.14,1.21-.51,2.71.96,3.6v2Zm-39.33,40.91s0,.06,0,.09c2.16,0,4.33.03,6.49,0,9.27-.14,11.22-1.86,12.96-10.88,2.07-10.73,4.26-21.43,6.44-32.14,1.24-6.12-.78-8.8-7.07-8.93-5.16-.11-10.32-.06-15.49-.01-8.27.07-11.39,2.71-12.95,10.74-2.15,11.05-4.33,22.09-6.52,33.14-.92,4.66.95,7.54,5.65,7.94,3.47.29,6.99.06,10.48.06Z" style="fill: #fff; stroke-width: 0px;"/>
      <path d="m70.13,78.72c.33.04.68.02.99.12q11.01,3.64,16.42-6.9c1.06-2.07,2.16-4.13,3.05-6.28,1-2.41,2.64-2,4.5-1.35,2.24.78,1.87,2.13,1.29,3.95-1.72,5.36-5.21,9.6-8.49,13.99-.6.81-1.58,1.74-2.52,1.24-4.6-2.46-6.38,1.6-9.24,3.58-6.5,4.5-11.45,11.5-20.07,12.65h-6c.6-2.66,2.83-1.66,4.45-1.93,2.45-.41,4.8-1.05,6.96-2.36-.19-2.5-3.37-1.16-3.97-3.58,3.96-4.1,9.51-7.21,11.82-13.11,0,0,.41,0,.41,0h.41Z" style="fill: #fff; stroke-width: 0px;"/>
      <path d="m545.08,23.84c2.49,0,4.99,0,7.48,0,14.15.05,20.56,7.35,18.12,21.25-1.97,11.24-4.32,22.43-6.82,33.57-2.68,11.94-11.79,19-24,19.05-5.99.03-11.98.13-17.96-.03-11.96-.31-18.86-8.19-16.99-19.97,1.84-11.59,3.94-23.17,6.56-34.6,2.73-11.93,12.37-19.11,24.63-19.27,2.99-.04,5.99,0,8.98,0Zm-12.44,62.9s0,.01,0,.02c3.16,0,6.32.13,9.47-.03,4.28-.22,8.24-1.78,9.21-6.23,2.79-12.76,5.2-25.61,7.55-38.46.84-4.6-1.95-6.84-6.22-7.13-3.81-.26-7.64-.08-11.47-.08-15.12,0-15.72.36-18.78,14.92-2.07,9.86-4.02,19.76-5.51,29.72-.8,5.35.81,6.81,6.27,7.23,3.14.24,6.31.04,9.47.04Z" style="fill: #fff; stroke-width: 0px;"/>
      <path d="m465.97,97.72c-7.33,0-14.66-.18-21.98.07-3.85.13-4.62-1.47-3.93-4.77,1.29-6.16,2.37-12.36,3.77-18.49,2.42-10.62,10.88-17.42,21.82-17.64,4.99-.1,9.99.03,14.99-.04,5.83-.08,8.05-1.98,9.17-7.69.51-2.6.78-5.26,1.46-7.81,1.2-4.49-1.08-6.38-5.02-6.53-5.82-.23-11.65-.06-17.48,0-3.81.04-5.46,2.68-6.63,5.79-.97,2.6-10.26,4.74-12.3,2.83-.78-.73-.3-1.51-.15-2.28,1.03-5.05,3.38-9.26,7.55-12.47,8.79-6.78,18.93-6.17,29.1-5.46.81.06,1.6.46,2.41.56,13.41,1.68,17.03,6.67,14.32,19.76-.47,2.27-.85,4.56-1.26,6.84-1.8,9.94-10.49,17.23-20.7,17.32-5.16.05-10.33-.07-15.48.05-6.06.14-8.84,2.64-9.73,8.48q-1.61,10.6,9.17,10.6c8.16,0,16.32-.02,24.48.01,2.09,0,4.99-.49,4.23,2.98-.64,2.93,1.13,7.7-4.33,7.84-7.82.19-15.65.05-23.48.05Z" style="fill: #fff; stroke-width: 0px;"/>
      <path d="m174.97,35.89c0,18.22.05,36.44-.08,54.66-.01,1.98,1.45,5.61-1.63,5.61-2.36,0-1.2-3.6-1.21-5.55-.1-17.12-.23-34.25.05-51.37.07-4.49-1.25-6.02-5.6-5.46-1.28.16-3.67.82-3.79-1.02-.15-2.28,2.29-1.78,3.82-1.79,5.49-.06,11,.16,16.48-.09,3.48-.16,5.07,1.26,6.01,4.47,3.47,11.77,7.12,23.48,10.73,35.21.38,1.23.91,2.42,1.78,4.67,2.34-7.25,4.39-13.47,6.35-19.72,2.08-6.64,4.21-13.28,6.04-20,.95-3.51,2.78-4.72,6.4-4.63,12.37.32,10.48-1.38,10.55,10.66.09,15.46.14,30.92-.06,46.38-.05,4.21.57,6.81,5.58,6,1.17-.19,3.21-.51,3.26,1.26.06,2.35-2.18,1.46-3.46,1.49-4.32.12-8.67-.21-12.98.12-4.08.31-5.43-.93-5.37-5.19.24-16.95.1-33.91.1-50.87,0-1.6,0-3.21,0-4.81-.27-.06-.55-.12-.82-.18-2.71,8.62-5.45,17.22-8.14,25.85-3.25,10.45-6.44,20.92-9.68,31.37-.52,1.69-.67,3.76-3.25,3.69-2.42-.07-2.28-2.23-2.71-3.62-5.43-17.59-10.74-35.2-16.1-52.81-.46-1.51-1-3-1.5-4.5-.26.05-.53.11-.79.16Z" style="fill: #fff; stroke-width: 0px;"/>
      <path d="m70.13,78.72h-.41s-.41.01-.41.01c-.74-.33-1.46-.73-2.24-.97-4.1-1.23-8.98-4.33-12.12-3.09-3.17,1.25-4.37,7.02-6.91,10.45-2.48,3.35-1.07,4.65,2.09,5.41,1.61.39,3.26.56,5.07,2.35-5.88,3.21-11.26,6.69-18.47,4.71.39-.5.53-.84.78-.99,2.95-1.65,6.78-3.74,6.57-6.84-.19-2.88-4.78-2.4-7.44-3.36-1.87-.67-3.78-1.25-5.67-1.87-.29-.26-.59-.52-.88-.78.53-4.76,1.03-9.52,1.62-14.27.28-2.28,1.33-3.04,3.77-2.17,4.83,1.71,9.86,2.9,14.66,4.69,2.95,1.1,4.56.82,5.65-2.37,1.38-4.07,3.12-8.03,4.78-12.01,1.23-2.94.42-4.57-2.72-5.51-5.25-1.56-10.34-3.69-15.62-5.08-3.81-1.01-4.25-2.77-2.78-6.01,1.58-3.47,3.18-6.99,4.21-10.65,1.06-3.77,3.42-4.19,6.45-3.28,5.71,1.72,11.52,3.16,16.94,5.75,0,.34,0,.67.01,1.01-.38,5.5-2.16,10.68-3.82,15.87-.84,2.63-.52,4.37,2.61,4.94,2.1.38,4.18,1.02,6.2,1.74,7.9,2.78,7.95,2.82,9.68-5.22.62-2.9,1.23-5.87,1.22-8.81,0-3.4,1.53-3.93,4.35-3.4,5.85,1.1,6.91-.09,5.23-6-.77-2.7-1.87-5.31-2.82-7.96-.37-1.03-1.35-2.21.29-2.93,1.05-.46,1.95.16,2.51,1.09,3.05,5,5.24,10.34,6.41,16.09.19.96.14,2.46-1.05,2.39-5.25-.27-3.5,3.54-3.79,6.16-.22,1.97-.18,3.99-.55,5.93-1.7,8.9-1.77,9-10.49,6.56-2.5-.7-3.59-.26-4.39,2.2-1.91,5.87-5.01,11.17-8.52,16.24Z" style="fill: #fff; stroke-width: 0px;"/>
      <path d="m295.01,65.68c.15,4.33-.58,10.67.94,16.9,2.9,11.91,10.16,13.84,20.83,11.61,4.69-.98,5.1-5.67,6.02-9.53.26-1.11.03-2.33.18-3.48.63-4.57-.35-7.52-5.95-6.5-1.09.2-3.19.78-3.35-.99-.19-2.16,1.97-1.77,3.35-1.79,5.5-.06,11,.09,16.49-.07,3.03-.09,3.51,1.37,3.55,3.97.14,11.71-9.07,20.85-21.41,21.98-23.24,2.13-35.07-16.53-34.92-32.64.12-12.78,3.25-23.71,14.4-31.01,10.5-6.87,26.24-7.17,36.13,3.28,1.39,1.47,2.62,9.84,1.44,11.25-1.26,1.5-2.03.33-2.54-.74-1-2.1-1.69-4.35-2.8-6.38-4.62-8.45-14.95-12.08-23.57-8.09-7.58,3.51-8.06,10.84-8.73,17.79-.39,4.12-.07,8.31-.07,14.44Z" style="fill: #fff; stroke-width: 0px;"/>
      <path d="m427.97,39.73c-5.21,3.91-9.61,7.15-13.93,10.49-5.42,4.19-5.64-2.41-8.06-4.06-2.48-1.69-.42-3.26,1.33-4.53,7-5.06,14.09-10.03,20.86-15.39,4.04-3.2,8.46-2.44,12.86-2.28,2.54.09,1.95,2.32,1.65,3.85-3.36,17.23-6.79,34.44-10.19,51.66-.96,4.88-1.82,9.78-2.93,14.62-.33,1.43-.27,3.66-2.68,3.57-3.12-.12-6.42.91-9.3-.62-1.23-.65-.27-2.4-.02-3.69,3.43-17.52,6.82-35.05,10.42-53.62Z" style="fill: #fff; stroke-width: 0px;"/>
      <path d="m388.23,96.72c-12.33-.3-9.01,2.09-13.21-9.43-4.6-12.66-1.46-10.35-14.61-10.41-11.87-.05-9.07-1.84-13.27,9.52-.86,2.33-1.48,4.76-2.37,7.08-.49,1.28-.67,3.52-2.64,2.93-2.22-.66-.7-2.46-.28-3.69,3.32-9.74,6.68-19.46,10.09-29.16,3.52-10.02,7.1-20.01,10.66-30.02.6-1.68.77-3.75,3.34-3.62,2.36.12,2.23,2.27,2.73,3.66,6.5,17.94,12.94,35.9,19.31,53.88,1.38,3.91,2.61,7.62,8.02,6.47.98-.21,2.26.27,2.31,1.4.08,1.81-1.55,1.33-2.58,1.36-2.49.08-4.99.03-7.49.03Zm-26.73-48.58c-.37.01-.75.03-1.12.04-2.72,7.75-5.47,15.5-8.15,23.27-.69,1.99-.07,3.23,2.28,3.21,4.33-.03,8.66-.02,12.99,0,1.98,0,2.88-.99,2.26-2.83-2.69-7.92-5.49-15.8-8.25-23.69Z" style="fill: #fff; stroke-width: 0px;"/>
      <path d="m131.45,76.83q-10.77,0-14.35,10.18c-.82,2.35-1.49,4.76-2.38,7.08-.44,1.15-.78,2.98-2.57,2.37-2.01-.69-.68-2.21-.29-3.32,4.65-13.32,9.34-26.62,14.04-39.92,2.32-6.57,4.69-13.13,7.06-19.68.54-1.5.65-3.42,2.84-3.6,2.44-.19,2.43,2.01,2.93,3.39,6.74,18.39,13.47,36.78,19.98,55.25,1.22,3.45,2.28,6.14,6.68,5.35,1.23-.22,3.07-.12,3.02,1.66-.04,1.63-1.78,1.1-2.82,1.1-5.33.02-11.31,1.45-15.79-.51-4.57-2-4.61-8.77-5.78-13.57-1.91-7.88-7.69-5.44-12.58-5.79Zm.48-28.37c-.47-.07-.94-.14-1.41-.2-2.75,8.06-5.55,16.1-8.22,24.19-.63,1.89.82,2.21,2.28,2.22,4.47.01,8.95-.05,13.42.04,2.29.04,2.94-.68,2.12-2.93-2.8-7.75-5.48-15.54-8.2-23.31Z" style="fill: #fff; stroke-width: 0px;"/>
      <path d="m258.78,96.72c-4.33,0-8.66.01-12.98-.02-.94,0-2.28.18-2.28-1.21,0-1.16,1.15-1.41,2.18-1.59,2.24-.38,5.19,1.06,6.61-.93,1.64-2.31.6-5.48.61-8.27.07-16.29.17-32.59-.06-48.88-.06-4.08,1.3-5.19,5.14-4.95,4.64.29,9.32.06,13.98.08,1.13,0,2.66-.18,2.76,1.37.11,1.68-1.52,1.66-2.56,1.47-6.18-1.11-6.44,2.37-6.37,7.17.24,15.79.25,31.59-.01,47.38-.07,4.36,1.06,6.21,5.54,5.56,1.18-.17,3.19-.56,3.3,1.21.15,2.41-2.12,1.51-3.38,1.55-4.16.13-8.32.05-12.48.04Z" style="fill: #fff; stroke-width: 0px;"/>
      <path d="m16.17,60.82c1.24-5.29.84-10.82,2.69-16.06,1.17-3.33,2.51-4.94,6.04-3.13.58.3,1.26.39,1.89.6q11.09,3.75,7.75,15.32-2.59,8.97-11.45,6.06c-2.04-.67-4.08-1.36-6.12-2.04-.27-.24-.54-.49-.8-.74Z" style="fill: #fff; stroke-width: 0px;"/>
      <path d="m18.47,17.4q-4.85-3.05.08-6.77c3.84-2.93,7.75-5.73,12.46-7.15.97-.29,2.11-.76,2.7.3.86,1.53-.63,1.98-1.6,2.5-3.86,2.06-7.08,4.9-10.2,7.93-2.39,2.32-1.91,3.29,1.11,4.23,6.01,1.86,7.08,1.36,2.76,8.22-1.75,2.78-3.05,5.92-4.12,9.04-.94,2.77-2.27,3.53-5.15,2.84-8.47-2.04-9.01-2.91-4.74-10.71,1.98-3.61,4.44-6.96,6.69-10.43Z" style="fill: #fff; stroke-width: 0px;"/>
      <path d="m67.06,33.85c0-.34,0-.67-.01-1.01,1.43-4.06,1.94-8.33,1.91-12.56-.03-4.26,1.41-5.38,5.36-3.85,1.6.62,3.27,1.61,5.46,1.08-.88-4.27-3.86-7.02-6.12-10.48,3.97-.27,6.19,2.38,8.1,4.86.94,1.22,1.59,2.82,2.7,4.04.78.85,1.86,1.8,1.28,3.01-.75,1.57-2.33.64-3.56.73-.22-.11-.45-.22-.67-.33l.3.7c.55,3.91,1.02,7.84,1.69,11.73.99,5.76.22,6.42-5.47,4.59-3.58-1.15-6.97-3.21-10.97-2.52Z" style="fill: #fff; stroke-width: 0px;"/>
      <path d="m37.56,3.63c6.36-1.78,11.5-5.33,18.69-2.69-4.49,1.75-8.64,2.25-11.62,5.53.55.34,1.02.76,1.57.96q8.05,3.03,3.6,10.21-4.73,7.64-13.13,4.88c-6.55-2.15-6.6-2.19-2.55-7.53,1.29-1.7,2.78-3.31,4.4-4.69,3.81-3.23,3.87-3.16-.96-6.68Z" style="fill: #fff; stroke-width: 0px;"/>
      <path d="m258.14,21.7c-2.17.29-3.02-.35-3.44-1.61-.26-.78-.49-1.58-.71-2.37-3.49-12.64-3.48-12.59,9.45-15.58,2.79-.65,4.42-.16,5.07,2.83.53,2.42,1.04,4.93,2.11,7.13,2.28,4.68.31,6.52-4.14,7.38-3.08.6-6.08,1.61-8.34,2.22Z" style="fill: #fff; stroke-width: 0px;"/>
      <path d="m16.17,60.82c.27.25.54.49.8.74.12,4.27-.37,8.55.77,12.8,1.49,5.55,1.39,5.57-4.23,5.02-.6,1.54,1.9,2.36.78,4.33-2.22-1.58-4.33-2.45-3.78-6.24.68-4.61-3.43-8.4-3.57-13.13-.06-1.92-1.94-4.32-.42-5.61,1.65-1.41,3.88.55,5.84,1.13,1.25.37,2.53.65,3.8.97Z" style="fill: #fff; stroke-width: 0px;"/>
      <path d="m4.15,34.89c1.44.72,4.54.08,3.51,3.67-1.43,4.98-1.87,10.07-1.69,15.24.06,1.55,0,3.15-2.25,2.98-1.74-.13-3.47-.49-3.58-2.66-.28-5.8-.33-11.61,1.19-17.28.31-1.16,1.07-2.08,2.81-1.95Z" style="fill: #fff; stroke-width: 0px;"/>
      <path d="m69.14,11.09c-.42,1.1,1,3.96-1.9,3.14-4.03-1.15-8.57-1.57-11.7-4.63-1.04-1.01,5.94-7.59,8.27-7.73,3.35-.19,5.28,3.08,5.34,9.22Z" style="fill: #fff; stroke-width: 0px;"/>
      <path d="m30.1,83.75c.29.26.59.52.88.78-.1,3.46-.23,6.93.88,10.35-4.2,1.32-4.56-2.7-6.54-4.4-2.21-1.9-3.6-4.33-4.71-6.95-.83-1.95-.57-2.94,1.88-2.11,2.51.85,5.07,1.55,7.61,2.32Z" style="fill: #fff; stroke-width: 0px;"/>
      <path d="m18.01,86.79c-.43-.12-.86-.24-1.29-.36.12-.19.23-.38.35-.57.34.28.68.56,1.02.84,0,0-.08.08-.08.08Z" style="fill: #fff; stroke-width: 0px;"/>
      <path d="m18.1,86.71c.33.34.66.67.99,1.01l-.04.04c-.34-.32-.69-.64-1.03-.97,0,0,.08-.08.08-.08Z" style="fill: #fff; stroke-width: 0px;"/>
      <path d="m19.08,87.71c.14.18.29.36.43.54-.12-.02-.28,0-.34-.08-.09-.11-.1-.28-.14-.42,0,0,.04-.04.04-.04Z" style="fill: #fff; stroke-width: 0px;"/>
      <path d="m81.82,20.05l-.3-.7c.22.11.45.22.67.33-.12.13-.24.25-.37.37Z" style="fill: #fff; stroke-width: 0px;"/>
    </g>
  </g>
</svg>