<?xml version="1.0" encoding="UTF-8"?>
<svg id="Calque_2" data-name="Calque 2" xmlns="http://www.w3.org/2000/svg" viewBox="0 0 792.16 172.9">
  <g id="Calque_1-2" data-name="Calque 1">
    <g id="Layer_1" data-name="Layer 1">
      <g id="svg_1" data-name="svg 1">
        <path d="m86.45,0C38.62,0,0,38.79,0,86.45s38.79,86.45,86.45,86.45c9.2,0,18.08-1.48,26.3-4.11v-43.22c-7.23,4.11-15.61,6.57-24.49,6.57-26.3,0-47.5-20.54-47.5-45.69s21.37-45.69,47.5-45.69c9.04,0,17.42,2.47,24.49,6.57V4.11C104.53,1.48,95.65,0,86.45,0h0Zm27.12,53.58h64.42l-28.93,30.08h-35.5" style="fill: #fff; stroke-width: 0px;"/>
        <path d="m113.57,119.65h64.42l-28.93-29.91h-35.5" style="fill: #fff; stroke-width: 0px;"/>
        <path d="m286.95,76.09c8.22,0,14.79-2.3,20.05-6.57,5.26-4.44,7.89-10.52,8.05-18.57-.16-8.05-2.79-14.3-8.05-18.74-5.26-4.44-11.83-6.57-20.05-6.57s-14.79,2.3-20.05,6.57c-5.26,4.27-7.89,10.68-8.05,18.74.16,8.05,2.79,14.3,8.05,18.57,5.26,4.27,11.83,6.57,20.05,6.57Zm0-11.67c-3.78-.16-6.57-1.48-8.38-4.11-1.81-2.63-2.63-5.75-2.47-9.53,0-3.78.82-6.9,2.47-9.53s4.44-3.94,8.38-4.11c3.78.16,6.57,1.48,8.38,4.11,1.81,2.63,2.63,5.75,2.47,9.53,0,3.62-.82,6.9-2.47,9.53-1.81,2.63-4.6,3.94-8.38,4.11Zm34.84,10.52h16.76v-20.38c0-5.09.82-9.04,2.47-11.5,1.64-2.47,3.94-3.62,6.9-3.62,2.3,0,4.11.99,5.09,2.79.99,1.81,1.64,4.11,1.64,6.9v25.97h16.76v-20.38c0-5.09.82-9.04,2.47-11.5,1.64-2.47,3.94-3.62,6.9-3.62,2.3,0,4.11.99,5.09,2.79.99,1.81,1.64,4.11,1.64,6.9v25.97h16.76v-28.43c.16-6.57-.99-11.67-3.29-15.45-2.3-3.62-6.9-5.59-13.81-5.59-3.45,0-6.74.66-9.7,2.14-2.96,1.48-5.42,3.78-7.4,7.07-1.31-3.12-3.29-5.42-5.92-7.07-2.63-1.48-5.75-2.3-9.2-2.3-3.78,0-7.4.82-10.35,2.47-3.12,1.64-5.42,4.11-7.23,7.56h-.16v-8.87h-15.28l-.16,48.15h0Zm91.54,0h16.76v-20.38c0-5.09.82-9.04,2.47-11.5,1.64-2.47,3.94-3.62,6.9-3.62,2.3,0,4.11.99,5.09,2.79.99,1.81,1.64,4.11,1.64,6.9v25.97h16.76v-20.38c0-5.09.82-9.04,2.47-11.5,1.64-2.47,3.94-3.62,6.9-3.62,2.3,0,4.11.99,5.09,2.79.99,1.81,1.64,4.11,1.64,6.9v25.97h16.76v-28.43c.16-6.57-.99-11.67-3.29-15.45-2.3-3.62-6.9-5.59-13.81-5.59-3.45,0-6.74.66-9.7,2.14-2.96,1.48-5.42,3.78-7.4,7.07-1.31-3.12-3.29-5.42-5.92-7.07-2.63-1.48-5.75-2.3-9.2-2.3-3.94,0-7.4.82-10.35,2.47-3.12,1.64-5.42,4.11-7.23,7.56h-.16v-8.87h-15.28l-.16,48.15h0Zm117.18,1.15c8.22,0,14.79-2.3,20.05-6.57,5.26-4.44,7.89-10.52,8.05-18.57-.16-8.05-2.79-14.3-8.05-18.74-5.26-4.44-11.83-6.57-20.05-6.57s-14.79,2.3-20.05,6.57c-5.26,4.27-7.89,10.68-8.05,18.74.16,8.05,2.79,14.3,8.05,18.57,5.26,4.27,12,6.57,20.05,6.57Zm0-11.67c-3.78-.16-6.57-1.48-8.38-4.11-1.81-2.63-2.63-5.75-2.47-9.53,0-3.78.82-6.9,2.47-9.53,1.64-2.63,4.44-3.94,8.38-4.11,3.78.16,6.57,1.48,8.38,4.11,1.81,2.63,2.63,5.75,2.63,9.53s-.82,6.9-2.63,9.53-4.44,3.94-8.38,4.11Zm86.94-59h-16.76v27.45h-.16c-2.14-2.79-4.6-4.6-7.4-5.75-2.79-1.15-5.92-1.64-9.2-1.64-6.74.33-11.83,2.79-15.28,7.72-3.45,4.93-5.26,10.52-5.26,16.6,0,7.4,1.97,13.48,5.59,18.41,3.78,4.93,9.2,7.56,16.43,7.72,3.94,0,7.4-.99,10.35-2.79,2.96-1.81,5.09-4.11,6.25-6.9h.16v8.71h15.45l-.16-69.52h0Zm-37.14,44.87c0-3.29.82-6.08,2.63-8.38,1.81-2.3,4.27-3.45,7.56-3.62,3.12,0,5.59,1.31,7.4,3.62,1.81,2.3,2.79,5.26,2.79,9.04s-1.15,6.57-2.96,8.87c-1.97,2.3-4.27,3.45-7.23,3.45-3.12,0-5.59-1.31-7.4-3.62-1.81-2.3-2.79-5.42-2.79-9.37Zm71.49,25.8c8.22,0,14.79-2.3,20.05-6.57,5.26-4.44,7.89-10.52,8.05-18.57-.16-8.05-2.79-14.3-8.05-18.74-5.26-4.44-11.83-6.57-20.05-6.57s-14.79,2.3-20.05,6.57c-5.26,4.44-7.89,10.68-8.05,18.74.16,8.05,2.79,14.3,8.05,18.57s12,6.57,20.05,6.57Zm0-11.67c-3.78-.16-6.57-1.48-8.38-4.11-1.64-2.63-2.63-5.75-2.47-9.53,0-3.78.82-6.9,2.47-9.53s4.44-3.94,8.38-4.11c3.78.16,6.57,1.48,8.38,4.11,1.64,2.63,2.63,5.75,2.47,9.53,0,3.62-.82,6.9-2.47,9.53-1.64,2.63-4.44,3.94-8.38,4.11Zm70.34-38.29c-.82-.16-1.81-.33-2.79-.33-.99-.16-1.97-.16-2.96-.16-3.62,0-6.57.99-8.71,2.79-2.3,1.81-4.11,4.27-5.59,7.23h-.16v-8.87h-15.28v48.32h16.76v-20.38c0-4.77.99-8.55,3.12-11.18,2.14-2.63,5.09-3.94,9.04-3.94h2.79c.99,0,1.81.16,2.79.49l.99-13.97h0s0,0,0,0Zm52.43,29.58v-3.12c.16-7.4-1.81-13.81-5.42-18.9-3.78-5.26-10.03-7.89-18.9-8.22-7.72,0-13.81,2.3-18.57,6.57-4.77,4.44-7.23,10.52-7.23,18.57.16,8.05,2.79,14.3,8.05,18.57,5.26,4.44,11.83,6.57,20.05,6.74,3.12,0,6.25-.16,9.2-.66,2.96-.49,5.92-1.31,8.55-2.3v-11.83c-2.47,1.31-5.09,2.3-7.56,2.79-2.47.66-4.93.82-7.23.82-4.11,0-7.4-.66-9.86-2.14-2.47-1.48-3.94-3.78-4.44-7.07l33.36.16h0s0,0,0,0Zm-33.69-9.53c.16-2.79.99-5.26,2.47-7.07,1.48-1.97,3.78-2.96,6.74-2.96,3.29,0,5.75.99,7.07,2.96,1.48,1.97,2.14,4.27,2.14,7.07h-18.41Zm-517.7,29.25c-7.23-1.97-12.82-5.26-17.42-10.35-4.6-5.09-6.74-9.7-8.05-17.91-2.47-16.11,4.44-30.9,17.75-37.31,6.74-3.29,15.78-4.93,24.82-4.93,5.59,0,10.52.99,15.12,1.81l-1.48,14.46s-1.15-.33-4.44-1.15c-3.12-.82-6.25-1.15-9.37-1.15-6.25,0-12.33,1.64-16.27,4.77-9.37,7.23-9.37,26.13.33,34.02,5.92,4.93,16.6,6.57,26.13,4.11l4.44-1.15,1.31,14.63c-2.79.66-8.71,1.81-15.94,1.81-9.53,0-12.49-.33-16.93-1.64h0Zm-37.47,8.38h606.45v4.93H185.71v-4.93h0Z" style="fill: #fff; stroke-width: 0px;"/>
        <path d="m285.47,162.87c0-.82-.16-1.48-.66-1.64-.49-.33-.99-.49-1.81-.49-2.63-.49-4.11-1.48-4.6-2.96-.49-1.64-.66-3.62-.66-6.08l-2.63-50.62c0-1.81-.16-3.29-.49-4.6-.33-1.15-1.48-1.81-3.62-1.97-1.81,0-3.12.66-3.94,1.64-.82.99-1.64,2.3-2.63,3.62l-32.54,45.69-5.42,7.72c-1.15,1.64-2.3,3.12-3.45,4.6-1.31,1.48-2.96,2.3-4.93,2.63-1.15.16-2.14.33-3.12.66s-1.48,1.15-1.64,2.47c0,.82.33,1.31.82,1.48s1.15.33,1.81.33c1.81,0,3.78-.16,5.75-.33,1.97-.16,3.78-.33,5.75-.33,1.81,0,3.45.16,5.09.33,1.64.16,3.45.16,5.09.33.82,0,1.48-.16,2.14-.49.66-.33.99-.99.99-1.81-.16-1.31-.82-1.97-2.3-2.14-1.48-.16-2.79-.49-4.27-.82-1.48-.33-2.14-1.31-2.3-3.12.33-1.81,1.48-4.44,3.62-7.72,2.14-3.29,3.62-5.75,4.6-7.07h20.21c.16,2.14.16,4.27.33,6.41.16,2.14.16,4.27.16,6.41-.16,2.96-.82,4.77-2.3,5.26-1.48.49-2.96.82-4.27.82-1.48,0-2.3.99-2.3,2.47,0,.66.16,1.15.66,1.48.49.33.99.33,1.64.33,2.79,0,5.59-.16,8.38-.33,2.79-.16,5.59-.33,8.38-.33,1.81,0,3.78.16,5.59.16,1.81.16,3.78.16,5.59.16.82,0,1.64-.16,2.14-.33.82-.33,1.15-.99,1.15-1.81h0Zm-24.98-25.97h-16.93l16.11-23.5.82,23.5Zm171.91-38.46c0-.66-.16-.99-.66-1.31-.33-.33-.82-.49-1.48-.49-.99,0-1.81,0-2.63.16-.82,0-1.81.16-2.63.33-2.3.16-4.44.33-6.74.49-2.3,0-4.6.16-6.9,0-1.64,0-3.29-.16-5.09-.16-1.64-.16-3.29-.16-5.09-.16-.82,0-1.48.16-2.14.66-.66.49-.99,1.15-.99,1.97.33,1.48,1.48,2.3,3.45,2.14,1.97-.16,3.12.82,3.45,2.63,0,.49,0,.99-.16,1.64-.16.49-.33.99-.49,1.64l-12.82,44.37c-.49,2.14-.99,3.94-1.64,5.42-.66,1.48-1.97,2.47-4.11,2.96-.99.16-2.14.33-3.45.66-1.31.33-2.14,1.15-2.14,2.3,0,.66.33,1.15.82,1.48s1.15.49,1.81.49c2.14,0,4.44-.16,6.57-.33,2.3-.16,4.44-.33,6.74-.33,2.47,0,4.77.16,7.23.33,2.47.16,4.77.16,7.23.16.99,0,2.14,0,3.45-.16,1.31-.16,1.97-.82,2.14-2.14-.16-1.31-.82-1.97-1.97-2.14-1.15-.16-2.47-.33-3.62-.66s-1.81-1.48-1.97-3.45c0-.82.16-1.64.33-2.47.16-.82.49-1.64.66-2.47l12.82-44.54c.49-1.81.99-3.12,1.64-3.94.66-.82,1.97-1.48,3.78-1.81.99-.16,1.97-.33,3.12-.82.82-.66,1.31-1.48,1.48-2.47h0s0,0,0,0Zm66.73.49c-.16-1.15-1.31-1.81-3.29-2.3-2.14-.49-4.27-.66-6.57-.82-2.3-.16-3.78-.16-4.6-.16-8.55,0-17.42,1.81-26.62,5.09-9.2,3.45-17.09,8.38-23.67,14.96-6.57,6.57-10.03,14.63-10.19,24.16.16,6.08,1.81,11.01,5.26,14.96,3.45,3.94,7.56,6.9,12.82,8.87,5.09,1.97,10.35,2.96,15.94,2.96,3.29,0,6.57-.16,10.03-.66,3.29-.33,6.57-.99,9.86-1.81,1.15-.16,2.3-.49,3.12-.99.82-.33,1.48-1.15,1.97-2.47.82-2.47,1.64-5.09,2.47-7.72.66-2.63,1.48-5.26,2.14-7.72,1.15-3.62,2.63-5.92,4.27-6.57,1.64-.66,3.12-.99,4.44-.99s1.97-.82,1.97-2.47c0-.66-.33-1.15-.82-1.48-.49-.33-1.15-.49-1.64-.49-2.47,0-5.09.16-7.56.33-2.63.16-5.09.33-7.72.33-2.47,0-4.93-.16-7.23-.33-2.47-.16-4.93-.33-7.23-.33-.82,0-1.64.16-2.3.49-.82.33-1.15.99-1.15,1.81.16,1.15.82,1.81,1.97,1.97,1.31.16,2.47.33,3.78.82,1.31.33,1.97,1.48,1.97,3.29-.16,1.97-.66,4.44-1.81,7.89-.99,3.29-1.97,5.92-2.63,8.05-.33,1.48-.99,2.63-1.64,3.29-.66.66-1.81.99-3.45.99-5.92-.16-10.52-1.97-13.48-5.75-3.12-3.78-4.6-8.38-4.6-14.13,0-5.26,1.15-10.52,3.29-15.45s5.09-9.37,8.71-13.15c3.62-3.62,8.22-6.74,13.48-9.37,5.42-2.63,10.68-3.94,15.94-4.11,2.47,0,3.94.49,4.6,1.48.49.99.82,2.63.66,4.93,0,.66,0,1.15-.16,1.81,0,.66-.16,1.15-.16,1.81,0,.99.16,1.97.49,2.79.33.82,1.15,1.31,2.3,1.31,1.31-.16,2.14-.66,2.79-1.81s.99-2.3,1.31-3.29c.33-.82.82-2.47,1.64-5.09.66-2.63,1.15-4.27,1.31-4.93h0s0,0,0,0Zm58.18,63.93c0-.82-.16-1.48-.66-1.64-.49-.33-.99-.49-1.81-.49-2.63-.49-4.11-1.48-4.6-2.96-.49-1.64-.66-3.62-.66-6.08l-2.63-50.62c0-1.81-.16-3.29-.49-4.6-.33-1.15-1.48-1.81-3.62-1.97-1.81,0-3.12.66-3.94,1.64-.82.99-1.64,2.3-2.63,3.62l-32.54,45.69-5.42,7.72c-1.15,1.64-2.3,3.12-3.45,4.6-1.31,1.48-2.96,2.3-4.93,2.63-1.15.16-2.14.33-3.12.66-.99.33-1.48,1.15-1.64,2.47,0,.82.33,1.31.82,1.48s1.15.33,1.81.33c1.81,0,3.78-.16,5.75-.33,1.97-.16,3.78-.33,5.75-.33,1.81,0,3.45.16,5.09.33,1.81.16,3.45.16,5.09.33.82,0,1.48-.16,2.14-.49.66-.33.99-.99.99-1.81-.16-1.31-.82-1.97-2.3-2.14-1.48-.16-2.79-.49-4.27-.82s-2.14-1.31-2.3-3.12c.33-1.81,1.48-4.44,3.62-7.72s3.62-5.75,4.6-7.07h20.38c.16,2.14.16,4.27.33,6.41s.16,4.27.16,6.41c-.16,2.96-.82,4.77-2.3,5.26-1.48.49-2.96.82-4.27.82-1.48,0-2.3.99-2.3,2.47,0,.66.16,1.15.66,1.48s.99.33,1.64.33c2.79,0,5.59-.16,8.38-.33,2.79-.16,5.59-.33,8.38-.33,1.81,0,3.78.16,5.59.16,1.81.16,3.78.16,5.59.16.82,0,1.64-.16,2.14-.33.66-.33.99-.99.99-1.81h0s0,0,0,0Zm-25.15-25.97h-16.93l16.11-23.5.82,23.5h0Zm-142.82-38.13c0-.66-.16-1.15-.66-1.48-.33-.33-.82-.49-1.48-.49-2.14,0-4.27,0-6.41.16s-4.27.16-6.41.16c-1.15,0-2.79-.16-5.09-.16s-3.78.16-4.6.82c-.16.16-.33.49-.33.66-.16.33-.33.49-.33.66l-27.94,42.24-1.15-41.58c0-.82,0-1.48-.16-1.97-.16-.66-.66-.82-1.48-.99-2.3,0-4.77,0-7.07.16h-7.07c-1.31,0-2.63-.16-3.94-.16-1.31-.16-2.63-.16-3.94-.16-.82,0-1.64.16-2.47.33-.82.33-1.15.82-1.31,1.81.33,1.64,1.64,2.47,3.78,2.3,2.3,0,3.45.82,3.78,2.3,0,1.15-.33,2.3-.66,3.45-.49,1.15-.82,2.3-1.15,3.29-2.47,6.9-4.93,13.64-7.4,20.54-2.47,6.9-4.93,13.64-7.56,20.54-.99,2.96-1.97,4.93-2.96,6.08s-2.96,1.97-6.08,2.47c-.82.16-1.64.33-2.3.82-.66.33-.99.99-.99,1.97,0,.82.33,1.31.82,1.64.49.16,1.15.33,1.97.33,1.81,0,3.62,0,5.42-.16s3.62-.16,5.42-.16c1.64,0,3.29.16,4.93.33,1.64.16,3.29.16,4.93.33.82,0,1.48-.16,2.14-.66.66-.33.99-.99,1.15-1.81-.16-1.48-.82-2.14-2.3-2.3-1.48-.16-2.96-.33-4.44-.66-1.48-.33-2.3-1.64-2.3-3.94.16-3.12,1.31-7.89,3.45-14.3,2.14-6.25,4.27-12.49,6.74-18.41,2.3-5.92,3.94-9.86,4.77-12l1.15,48.32c0,1.48.16,2.63.49,3.62.33.82,1.31,1.31,2.96,1.31s2.96-.66,3.94-1.81c.99-1.15,1.81-2.3,2.63-3.62l32.54-47.83-10.68,40.43c-.33,1.81-.82,3.45-1.48,5.26-.66,1.81-1.97,2.79-3.78,3.29-1.15,0-2.3.33-3.62.49-1.31.33-2.14,1.15-2.3,2.47,0,.82.33,1.31.82,1.64s1.15.49,1.81.49c2.3,0,4.77-.16,7.07-.33,2.3-.16,4.77-.33,7.07-.33,2.47,0,4.93.16,7.23.33,2.47.16,4.93.33,7.23.33.99,0,1.64-.16,2.47-.49.66-.33,1.15-.99,1.15-1.97-.16-1.15-.66-1.97-1.81-2.14-1.15-.16-2.3-.49-3.45-.82s-1.81-1.31-1.81-3.12c0-1.15.16-2.47.49-3.78.33-1.31.49-2.47.82-3.62l10.35-41.58c.33-1.81.82-3.29,1.48-4.27.66-.99,1.81-1.64,3.78-1.97.99,0,1.97-.33,2.96-.66.49.33,1.15-.49,1.15-1.64h0s0,0,0,0Z" style="fill: #fff; stroke-width: 0px;"/>
        <path d="m722.31,106.83c-16.76-.49-13.97,32.38-9.37,41.09,1.97,3.78,4.77,5.75,9.37,5.75s7.89-1.81,10.03-5.59c4.77-8.38,6.9-40.76-10.03-41.25h0Zm10.85,32.54c-.33,2.3-1.15,5.59-2.3,7.72-1.81,3.29-4.6,4.6-8.38,4.6s-5.92-1.48-7.72-4.77c-1.15-2.14-1.81-5.26-2.3-7.56-.66-3.62-.99-7.4-.99-11.01,0-5.59.99-14.79,6.08-18.24,1.48-.99,3.12-1.31,4.93-1.31,9.2.16,11.18,12.16,11.5,19.39,0,3.62-.33,7.4-.82,11.18Z" style="fill: #fff; stroke-width: 0px;"/>
        <path d="m740.89,105.35c-4.44-6.41-10.68-9.53-18.41-9.53s-13.81,3.12-18.24,9.53c-5.09,7.07-6.41,16.27-6.41,24.98s1.48,17.75,6.41,24.98c4.44,6.25,10.68,9.53,18.24,9.53s13.81-3.12,18.24-9.37c5.09-7.07,6.41-16.11,6.41-24.49.16-8.87-1.15-18.41-6.25-25.64Zm-1.64,48.81c-4.11,5.75-9.7,8.55-16.76,8.55s-12.65-2.96-16.76-8.71-6.08-13.81-6.08-23.83,1.97-18.08,6.08-23.83c4.11-5.75,9.7-8.71,16.76-8.71s12.82,2.96,16.76,8.71,5.92,13.97,5.92,24.32c.16,10.03-1.81,17.91-5.92,23.5h0Z" style="fill: #fff; stroke-width: 0px;"/>
        <path d="m742.53,104.2c-4.77-6.9-11.5-10.35-19.89-10.35s-15.12,3.45-19.89,10.19c-5.26,7.4-6.74,17.09-6.74,25.97s1.48,18.57,6.74,26.13c4.77,6.74,11.5,10.35,19.89,10.35s14.96-3.45,19.72-10.19c5.26-7.4,6.74-16.76,6.74-25.64s-1.31-18.9-6.57-26.46h0Zm-1.81,51.11c-4.44,6.25-10.68,9.37-18.24,9.37s-13.81-3.12-18.24-9.53c-5.09-7.23-6.41-16.43-6.41-24.98s1.48-17.75,6.41-24.98c4.44-6.25,10.68-9.53,18.24-9.53s13.97,3.12,18.41,9.53c5.09,7.23,6.41,16.76,6.41,25.47s-1.48,17.59-6.57,24.65h0Z" style="fill: #fff; stroke-width: 0px;"/>
        <path d="m722.31,108.63c-1.81,0-3.45.33-4.93,1.31-5.09,3.45-6.08,12.65-6.08,18.24,0,3.62.33,7.4.99,11.01.49,2.3,1.15,5.42,2.3,7.56,1.81,3.29,3.94,4.77,7.72,4.77s6.57-1.31,8.38-4.6c1.15-2.14,1.97-5.26,2.3-7.72.66-3.78.82-7.56.66-11.34-.16-7.07-2.14-18.9-11.34-19.23h0Zm6.9,36.32c-1.64,3.45-4.27,4.44-6.74,4.44-2.63,0-4.93-.49-6.57-4.27-1.48-3.45-2.47-9.86-2.47-14.96,0-6.25.66-12.33,2.79-15.78,1.48-2.47,4.11-3.45,6.08-3.45,2.14,0,4.6,1.48,6.08,4.11,1.97,3.45,2.79,9.04,2.79,15.12.16,5.42-.33,11.34-1.97,14.79h0Z" style="fill: #fff; stroke-width: 0px;"/>
        <path d="m739.41,106.33c-3.94-5.75-9.53-8.71-16.76-8.71s-12.65,2.96-16.76,8.71-6.08,13.64-6.08,23.83,1.97,18.08,6.08,23.83c4.11,5.75,9.7,8.71,16.76,8.71s12.65-2.79,16.76-8.55,6.08-13.48,6.08-23.5c-.16-10.35-2.14-18.57-6.08-24.32h0Zm-6.9,41.58c-2.14,3.78-5.42,5.59-10.03,5.59s-7.4-1.97-9.37-5.75c-4.6-8.55-7.4-41.42,9.37-41.09,16.76.66,14.63,33.03,10.03,41.25Z" style="fill: #fff; stroke-width: 0px;"/>
        <path d="m662.33,106.83c-16.76-.49-13.97,32.38-9.37,41.09,1.97,3.78,4.77,5.75,9.37,5.75s7.89-1.81,10.03-5.59c4.77-8.38,6.74-40.76-10.03-41.25h0Zm10.68,32.54c-.33,2.3-1.15,5.59-2.3,7.72-1.81,3.29-4.6,4.6-8.38,4.6h-.66c-3.29-.16-5.26-1.64-6.9-4.77-1.15-2.14-1.81-5.26-2.3-7.56-.66-3.62-.99-7.4-.99-11.01,0-5.59.99-14.79,6.08-18.24,1.48-.99,3.12-1.31,4.93-1.31,9.2.33,11.18,12.16,11.5,19.39,0,3.62-.33,7.4-.99,11.18Z" style="fill: #fff; stroke-width: 0px;"/>
        <path d="m680.9,105.35c-4.44-6.41-10.68-9.53-18.41-9.53s-13.81,3.12-18.24,9.53c-5.09,7.07-6.41,16.27-6.41,24.98s1.48,17.75,6.41,24.98c4.44,6.25,10.68,9.53,18.24,9.53s13.81-3.12,18.24-9.37c5.09-7.07,6.41-16.11,6.41-24.49,0-8.87-1.31-18.41-6.25-25.64h0Zm-1.64,48.81c-4.11,5.75-9.7,8.55-16.76,8.55s-12.65-2.96-16.76-8.71-6.08-13.81-6.08-23.83,1.97-18.08,6.08-23.83c4.11-5.75,9.7-8.71,16.76-8.71s12.82,2.96,16.76,8.71,5.92,13.97,5.92,24.32c.16,10.03-1.97,17.91-5.92,23.5h0Z" style="fill: #fff; stroke-width: 0px;"/>
        <path d="m662.33,108.63c-1.81,0-3.45.33-4.93,1.31-5.09,3.45-6.08,12.65-6.08,18.24,0,3.62.33,7.4.99,11.01.49,2.3,1.15,5.42,2.3,7.56,1.64,3.12,3.62,4.6,6.9,4.77h.66c3.78,0,6.57-1.31,8.38-4.6,1.15-2.14,1.97-5.26,2.3-7.72.66-3.78.82-7.56.66-11.34,0-7.07-1.97-18.9-11.18-19.23h0Zm7.07,36.32c-1.64,3.45-4.27,4.44-6.74,4.44-2.63,0-4.93-.49-6.57-4.27-1.48-3.45-2.47-9.86-2.47-14.96,0-6.25.66-12.33,2.79-15.78,1.48-2.47,4.11-3.45,6.08-3.45,2.14,0,4.6,1.48,6.08,4.11,1.97,3.45,2.79,9.04,2.79,15.12.16,5.42-.33,11.34-1.97,14.79h0Z" style="fill: #fff; stroke-width: 0px;"/>
        <path d="m682.38,104.2c-4.77-6.9-11.5-10.35-19.89-10.35s-15.12,3.45-19.89,10.19c-5.26,7.4-6.74,17.09-6.74,25.97s1.48,18.57,6.74,26.13c4.77,6.74,11.5,10.35,19.89,10.35s14.96-3.45,19.72-10.19c5.26-7.4,6.74-16.76,6.74-25.64.16-8.87-1.31-18.9-6.57-26.46Zm-1.64,51.11c-4.44,6.25-10.68,9.37-18.24,9.37s-13.81-3.12-18.24-9.53c-5.09-7.23-6.41-16.43-6.41-24.98s1.48-17.75,6.41-24.98c4.44-6.25,10.68-9.53,18.24-9.53s13.97,3.12,18.41,9.53c5.09,7.23,6.41,16.76,6.41,25.47-.16,8.55-1.48,17.59-6.57,24.65h0Z" style="fill: #fff; stroke-width: 0px;"/>
        <path d="m679.26,106.33c-3.94-5.75-9.53-8.71-16.76-8.71s-12.65,2.96-16.76,8.71-6.08,13.64-6.08,23.83,1.97,18.08,6.08,23.83c4.11,5.75,9.7,8.71,16.76,8.71s12.65-2.79,16.76-8.55,6.08-13.48,6.08-23.5-1.97-18.57-6.08-24.32h0Zm-6.9,41.58c-2.14,3.78-5.42,5.59-10.03,5.59s-7.4-1.97-9.37-5.75c-4.6-8.55-7.4-41.42,9.37-41.09,16.76.66,14.79,33.03,10.03,41.25Z" style="fill: #fff; stroke-width: 0px;"/>
        <path d="m603.98,129.18c-6.9-.33-12.65,5.09-12.98,12-.33,6.9,5.09,12.65,12,12.98,6.9.33,12.65-5.09,12.98-12,.16-6.9-5.09-12.65-12-12.98Zm-.99,23.34c-5.92-.16-10.52-5.26-10.35-11.18.16-5.92,5.26-10.52,11.18-10.35,5.92.16,10.52,5.26,10.35,11.18s-5.26,10.52-11.18,10.35h0Z" style="fill: #fff; stroke-width: 0px;"/>
        <path d="m619.43,124.74c-2.63-2.3-5.75-4.11-9.04-5.09-1.97-.66-4.11-.99-6.25-1.15h-3.29c1.15-2.47,2.63-4.93,3.94-7.23,1.31-2.14,2.63-4.11,3.94-6.08,1.15-1.64,2.3-3.12,3.62-4.6l2.14-2.3-12.98-2.14-.66.66c-2.47,2.63-4.77,5.75-6.74,8.71-2.63,3.94-4.93,8.05-7.07,12.33-3.29,6.57-7.72,17.09-7.07,24.49.33,12.16,10.03,22.02,22.19,22.52,3.12.16,6.25-.33,9.04-1.48,2.79-.99,5.42-2.63,7.56-4.6,4.44-4.11,7.07-9.7,7.4-15.78,0-.66.16-1.15.16-1.81.16-3.45-.49-6.74-1.97-9.7-.99-2.47-2.79-4.77-4.93-6.74h0Zm5.26,18.08c-.66,11.67-10.52,20.87-22.35,20.38-11.34-.49-20.38-9.7-20.54-20.87-1.15-12.16,12.98-36.65,20.38-44.21l9.04,1.48c-4.11,4.6-10.52,14.96-13.31,21.37,1.15-.33,2.3-.49,3.45-.66.99-.16,1.81-.16,2.79,0,1.97.16,3.94.49,5.75.99,3.12.99,6.08,2.63,8.38,4.77,4.27,3.78,6.74,9.2,6.57,15.12,0,.66,0,1.15-.16,1.64h0Z" style="fill: #fff; stroke-width: 0px;"/>
        <path d="m626.17,130.66c-1.31-2.79-3.29-5.26-5.59-7.4-2.79-2.47-6.08-4.44-9.7-5.59-2.14-.66-4.44-1.15-6.74-1.15h-.33c.82-1.48,1.64-2.96,2.47-4.27,1.15-1.97,2.47-3.94,3.94-5.92,1.15-1.48,2.14-3.12,3.45-4.44l4.27-4.93-17.42-2.79-1.31,1.31c-2.63,2.63-4.93,5.92-6.9,9.04-2.63,3.94-5.09,8.22-7.23,12.49-3.45,7.07-7.89,17.59-7.23,25.47.49,13.15,10.85,23.67,23.99,24.16,3.29.16,6.74-.33,9.86-1.64,2.96-1.15,5.75-2.79,8.22-5.09,4.77-4.44,7.72-10.52,8.05-16.93,0-.66.16-1.31.16-1.81.49-3.45-.33-7.07-1.97-10.52h0Zm.33,12.33c-.33,6.08-2.96,11.67-7.4,15.78-2.14,1.97-4.77,3.62-7.56,4.6-2.96,1.15-5.92,1.64-9.04,1.48-12.16-.49-21.86-10.35-22.19-22.52-.66-7.56,3.78-17.91,7.07-24.49,2.14-4.27,4.44-8.38,7.07-12.33,1.97-2.96,4.27-6.25,6.74-8.71l.66-.66,12.98,2.14-2.14,2.3c-1.31,1.48-2.47,3.12-3.62,4.6-1.31,1.97-2.63,3.94-3.94,6.08-1.48,2.3-2.79,4.77-3.94,7.23h.33c.99-.16,1.97-.16,2.96,0,2.14.16,4.27.49,6.25,1.15,3.29.99,6.41,2.79,9.04,5.09,2.14,1.97,3.78,4.27,5.09,6.74,1.48,2.96,2.14,6.41,1.97,9.7-.33.66-.33,1.31-.33,1.81h0Z" style="fill: #fff; stroke-width: 0px;"/>
        <path d="m609.9,121.29c-1.81-.66-3.78-.99-5.75-.99h-2.79c-1.15.16-2.3.33-3.45.66,2.63-6.57,9.2-16.76,13.31-21.37l-9.04-1.48c-7.4,7.72-21.53,32.05-20.38,44.21.33,11.18,9.2,20.38,20.54,20.87,11.83.49,21.69-8.55,22.35-20.38,0-.49.16-1.15.16-1.64.16-5.92-2.3-11.34-6.57-15.12-2.3-2.14-5.09-3.78-8.38-4.77h0Zm-7.07,32.87c-6.9-.33-12.33-6.08-12-12.98.33-6.9,6.08-12.33,12.98-12,6.9.33,12.33,6.08,12,12.98-.16,6.9-6.08,12.33-12.98,12Z" style="fill: #fff; stroke-width: 0px;"/>
        <path d="m603.82,130.99c-5.92-.16-11.01,4.44-11.18,10.35s4.44,11.01,10.35,11.18c5.92.16,11.01-4.44,11.18-10.35.33-5.92-4.44-11.01-10.35-11.18h0Zm-.49,19.39c-4.77,0-8.55-3.78-8.55-8.55s3.78-8.55,8.55-8.55,8.55,3.78,8.55,8.55-3.94,8.55-8.55,8.55Z" style="fill: #fff; stroke-width: 0px;"/>
      </g>
    </g>
  </g>
</svg>