<?xml version="1.0" encoding="UTF-8"?>
<svg id="Calque_2" data-name="Calque 2" xmlns="http://www.w3.org/2000/svg" viewBox="0 0 632.78 186.69">
  <g id="Calque_1-2" data-name="Calque 1">
    <g>
      <path d="m0,89.77c3.01-5.4,3.43-11.63,5.8-17.3,10.22-24.42,38.59-36.87,61.27-25.28,9.44,4.83,18.84,4.78,28.65-.13,17.62-8.82,40.12-3.76,53.3,11.03,1.95,2.19,1.23,3.19-.47,4.75-5.06,4.63-9.3,9.91-12.68,15.92-8.96,15.94-4.4,32.36,6.33,44.63,3.51,4.02,7.46,7.59,12.16,10.24,1.83,1.03,3.42,2.22,2.18,4.72-5.8,11.78-10.94,23.96-19.75,33.96-5.84,6.63-12.69,11.67-21.9,12.69-1.29.14-3.08.07-3.93,1.68h-2c-.13-.46-.2-1.3-.4-1.34-6.65-1.04-12.38-4.67-18.68-6.59-8.43-2.57-16.3-.34-23.97,3.5-11.76,5.88-25.98,3.74-33.15-4.48-14.62-16.78-25.92-35.3-30.67-57.33-.27-1.24-.05-2.84-2.09-2.7v-2c1.4-.67,1.04-1.33,0-2v-23.98Z" style="fill: #fff; stroke-width: 0px;"/>
      <path d="m0,113.75c1.04.67,1.4,1.33,0,2v-2Z" style="fill: #fff; stroke-width: 0px;"/>
      <path d="m514.38,144.65c-8.33,0-16.65.02-24.98-.02-1.24,0-3.12.49-3.27-1.32-.16-1.98,1.8-1.41,3.01-1.61,3.95-.64,5.74-3.12,5.74-6.95.03-23.64.04-47.27,0-70.91,0-3.73-2.06-5.8-5.78-6.2-1.23-.13-3.08.36-3.01-1.63.07-2.02,1.93-1.98,3.42-2.01,2.66-.05,5.33-.02,7.99-.02,13.49,0,26.98,0,40.47,0,1.33,0,2.67.03,3.97.24,1.05.17,1.86.86,1.7,2.06-.13.97-.95,1.32-1.84,1.3-6.43-.1-7.06,4.29-7.06,9.13,0,22.14.04,44.27-.03,66.41-.01,4.77,1.34,8.2,6.74,8.61,1.01.08,2.23.13,2.13,1.48-.12,1.64-1.61,1.4-2.71,1.41-8.83.03-17.65.02-26.48.02Zm9.48-44.95c0-11.32,0-22.64,0-33.96,0-3.34-.59-6.51-4.14-7.79-8.66-3.13-13.87.42-13.9,9.49-.07,21.48-.05,42.95,0,64.43.02,7.33,2.32,9.83,8.73,9.87,7.37.05,9.24-1.79,9.3-9.58.08-10.82.02-21.64,0-32.47Z" style="fill: #fff; stroke-width: 0px;"/>
      <path d="m359.77,87.84c2.63-3.22,4.31-5.71,6.41-7.78,5.92-5.85,14.55-5.14,19.5,1.56,6.88,9.33,8.13,20.06,7.62,31.24-.41,8.8-2.61,17-7.3,24.53-4.34,6.97-14.69,12.75-23.54,6.48-1.95-1.38-2.67-.78-2.67,1.37.01,7.33-.07,14.66.11,21.98.09,3.52,2.32,5.33,5.82,5.58,1.06.07,2.06.39,1.82,1.74-.18,1.01-1.12,1.13-1.96,1.13-7.16.01-14.33.02-21.49,0-1.01,0-2.09-.17-2.01-1.57.06-1.08.99-1.24,1.82-1.28,5.07-.21,5.85-4,5.87-7.72.12-24.31.15-48.62-.04-72.93-.03-3.23-.24-7.68-5.92-5.96-.71.22-1.33.14-1.65-.59-.39-.9-.05-1.75.72-2.15,4.73-2.44,9.43-4.97,14.29-7.12,1.98-.88,2.52,1,2.56,2.6.07,2.64.02,5.28.02,8.9Zm23.13,27.03c.29-7.6-.95-14.9-4.39-21.72-2.07-4.11-5.28-6.35-10.11-5.39-3.47.69-8.48,5.85-8.53,9.51-.15,11.14-.22,22.29.14,33.42.17,5.16,4.56,9.53,8.92,10.08,4.89.63,8.39-1.52,10.85-6.92,2.74-6.02,3.24-12.46,3.11-18.98Z" style="fill: #fff; stroke-width: 0px;"/>
      <path d="m306.81,87.75c2.5-2.49,3.74-5.21,5.95-7.35,6.39-6.21,14.93-5.6,20.19,1.57,6.42,8.76,8.1,18.92,7.64,29.32-.41,9.29-2.13,18.46-7.71,26.41-6.6,9.39-15.86,11.24-25.9,4.48,0,8.9-.17,17.41.1,25.92.09,2.68,2.23,4.34,5.08,4.64,1.13.12,2.6,0,2.46,1.69-.11,1.27-1.37,1.25-2.36,1.25-6.99.01-13.98.02-20.97,0-.98,0-2.18-.04-2.18-1.41,0-1.35,1.16-1.38,2.16-1.47,4.57-.44,5.6-3.66,5.61-7.43.04-24.46.04-48.92,0-73.38,0-3.65-.9-6.76-5.69-6.18-.84.1-1.79-.06-1.88-1.12-.07-.93.74-1.41,1.49-1.79,4.16-2.1,8.32-4.2,12.5-6.25,2.43-1.19,3.45,0,3.5,2.34.07,2.93.02,5.86.02,8.78Zm.01,25.89h.04c0,4.82-.1,9.64.02,14.45.18,6.87,3.9,11.97,9.02,12.68,5.65.78,9.66-2.26,11.99-9.6,2.82-8.87,2.67-17.97,1.27-27.06-.73-4.79-2.07-9.39-5.19-13.28-2.68-3.35-7.21-4.6-10.62-2.16-3.49,2.5-6.55,5.65-6.54,10.52.01,4.82,0,9.64,0,14.45Z" style="fill: #fff; stroke-width: 0px;"/>
      <path d="m280.17,144.63c-3.5,0-6.99,0-10.49,0-.99,0-2.18.06-2.46-1.16-.3-1.31.82-1.56,1.8-1.88,4.07-1.3,5.01-3.85,4.23-8.09-1.07-5.75-3.27-11.14-4.5-16.81-.45-2.06-1.71-2.97-3.93-2.93-5.99.11-11.98.06-17.98.02-2.04-.01-3.39.5-4,2.79-1.36,5.13-3.07,10.17-4.49,15.28-1.24,4.48-.87,8.36,4.58,9.75,1.01.26,2.07.6,1.73,1.9-.31,1.22-1.5,1.13-2.48,1.13-5.16.02-10.32.01-15.48,0-.99,0-2.13.07-2.5-1.13-.28-.92.32-1.59,1.17-1.93,5.43-2.12,6.59-7.27,8.03-11.93,7.55-24.41,14.88-48.9,22.37-73.33.58-1.89.21-5.18,2.83-5.11,2.4.07,2.31,3.3,2.89,5.24,7.51,24.94,14.92,49.92,22.37,74.88,1.36,4.55,2.93,8.94,8.25,10.37.63.17,1.34.44,1.21,1.3-.18,1.23-1.15,1.57-2.18,1.58-3.66.04-7.32.02-10.98.02,0,.01,0,.02,0,.03Zm-23.65-69.45c-.39.02-.77.03-1.16.05-2.97,9.79-5.9,19.59-8.92,29.37-.63,2.03-.44,3.24,2.02,3.23,4.98-.02,9.97-.01,14.95,0,1.99,0,2.68-.82,2.08-2.8-3.01-9.94-5.98-19.89-8.97-29.84Z" style="fill: #fff; stroke-width: 0px;"/>
      <path d="m447.61,102.85c-4.66,0-9.32.02-13.98,0-2.05-.01-3.89.46-3.63,2.95.84,7.96,1.92,15.89,7.59,22.19,7.65,8.5,17.93,7,22.89-3.32.65-1.34,1.07-2.79,1.68-4.15.41-.9.91-1.92,2.21-1.33.83.38,1.14,1.13,1.04,2.05-.99,9.78-8.9,23.5-17.86,24.86-7.38,1.12-15.1-2.11-20.26-9.78-9.03-13.41-8.16-39.22,1.46-52.08,5.55-7.42,12.81-9.81,21.49-8.05,7.08,1.44,13.44,9.7,14.55,17.97q1.17,8.69-7.68,8.69c-3.16,0-6.33,0-9.49,0Zm-6.4-5.07c1.66,0,3.32,0,4.98,0,7.62,0,7.69-.07,5.74-7.55-.37-1.42-.8-2.91-1.58-4.14-4.51-7.13-12.51-6.94-16.81.36-.67,1.14-1.26,2.34-1.77,3.56-3.02,7.23-2.66,7.77,4.97,7.77,1.49,0,2.99,0,4.48,0Z" style="fill: #fff; stroke-width: 0px;"/>
      <path d="m583.03,72.06c.25,7.61,2.45,14.67.52,22.16-.99-2.96-1.78-6.01-3.02-8.86-2.29-5.28-5.59-9.43-12.04-9.71-6.4-.28-10.54,3.12-12.81,8.53-6.91,16.45-7.05,32.99.94,49.12,4.04,8.16,11.37,10.63,18.14,7.07,2.14-1.13,3.21-2.52,3.16-5.07-.15-6.99-.02-13.98-.1-20.97-.03-3.08-.31-6.13-4.3-6.78-.86-.14-1.69-.63-1.29-1.64.18-.46.99-.94,1.53-.95,4.66-.08,9.32-.07,13.99-.05.85,0,1.72.22,1.83,1.25.08.75-.49,1.14-1.16,1.4-3.58,1.37-3.44,4.64-3.51,7.53-.17,6.82-.2,13.65-.02,20.47.08,3.06-1.04,4.9-3.66,6.41-12.32,7.13-25.35,3.78-32.55-8.53-9.49-16.21-7.29-42.33,4.61-54.72,7.19-7.48,13.84-8.83,23.36-4.41,2.87,1.33,5.05,1.98,6.38-2.26Z" style="fill: #fff; stroke-width: 0px;"/>
      <path d="m597.17,146.3v-26.18c2.6,4.06,2.62,7.54,3.51,10.69,1.28,4.49,4.23,7.59,8.06,9.72,4.96,2.75,11.01,1.51,14.09-2.37,3.3-4.16,2.95-12.46-.78-16.76-4.08-4.7-9.43-7.87-14.24-11.7-5.41-4.3-10.39-8.84-11.28-16.34-.84-7.09.99-13.22,6.34-17.94,4.87-4.3,10.45-4.38,16.35-1.99,3.04,1.23,6.52,4.52,9.32-2.46v25.29c-2.43-3.02-1.8-5.83-2.53-8.17-1.13-3.61-2.74-6.73-5.53-9.28-4.21-3.84-10.69-4.33-14.03-1.01-4.49,4.47-4.74,11.08-.57,15.74,4.36,4.88,9.68,8.57,14.94,12.4,6.8,4.94,12.09,10.85,11.96,20.11-.22,14.92-12.08,23.06-25.93,17.61q-6.33-2.49-9.68,2.64Z" style="fill: #fff; stroke-width: 0px;"/>
      <path d="m114.95,4.81c-.47,19.64-12.32,34.61-31.28,39.52-6.16,1.59-6.99.59-6.17-5.63,1.7-12.94,6.55-23.97,17.72-31.53,4.46-3.02,9.34-5.07,14.52-6.41,5.3-1.38,5.35-1.32,5.22,4.06Z" style="fill: #fff; stroke-width: 0px;"/>
      <path d="m394.13,57.68c5.57-2.77,10.22-5.19,14.96-7.4,1.87-.87,2.79.17,2.79,2.12,0,1.16.01,2.33.01,3.49,0,25.11-.04,50.21.05,75.32.02,4.73-.61,10.16,6.54,10.69.77.06,1.23.77,1.05,1.4-.15.5-.84,1.19-1.3,1.2-6.98.07-13.96.06-20.95.02-.7,0-1.21-.53-1.23-1.3-.02-.77.43-1.26,1.16-1.36,5.69-.73,5.43-5.45,5.47-9.16.22-21.61.12-43.23.06-64.84,0-1.97-.65-3.92-.79-5.9-.33-4.54-4.36-2.35-7.8-4.28Z" style="fill: #fff; stroke-width: 0px;"/>
    </g>
  </g>
</svg>