<?xml version="1.0" encoding="UTF-8"?>
<svg id="Calque_2" data-name="Calque 2" xmlns="http://www.w3.org/2000/svg" viewBox="0 0 218.13 338.52">
  <g id="Calque_1-2" data-name="Calque 1">
    <g>
      <path d="m19.01,288.57c.56-.8.46-1.72.46-2.61,0-16.85-.04-33.7,0-50.54,0-1.92-.53-2.96-2.44-3.83-4.41-2-7.8-5.35-10.38-9.43-6.22-9.85-7.58-20.68-6.08-31.99.25-1.88,1.09-3.7,1.82-5.49,2.03-4.98,4.13-9.94,6.23-14.9,1.47-3.47,3.92-6.03,7.44-7.38,1.62-.62,2.1-1.62,2.26-3.29,2-20.58,4.15-41.14,6.1-61.72.72-7.55-.08-14.98-2.72-22.19-1.56-4.26-4.22-7.76-7.31-10.9-5.02-5.09-7.26-10.99-6.8-18.17.35-5.46.11-10.96.06-16.43-.04-3.66,1.13-6.73,4-9.07,1.58-1.29,2.13-2.93,2.14-4.94.02-2.5-.48-5.06.37-7.5C16.08,2.59,19.77,0,25.76,0c24.13,0,48.25.02,72.38.02,31.24,0,62.48-.01,93.73,0,8.17,0,12.7,4.4,12.59,12.54-.05,3.78.44,6.94,3.58,9.57,2.36,1.98,2.82,5.05,2.81,8.09-.02,5.64-.24,11.3.05,16.93.35,6.77-2,12.35-6.7,16.98-7.4,7.28-10.22,16.22-10.37,26.36-.12,7.8,1.03,15.49,1.68,23.22.99,11.64,2.19,23.27,3.3,34.9.22,2.36.5,4.72.62,7.08.18,3.57.36,6.75,4.82,8.11,2.6.8,4.13,3.59,5.25,6.21,2.33,5.48,4.64,10.96,6.97,16.44,2.1,4.93,1.71,10.11,1.45,15.23-.43,8.34-2.99,15.99-8.1,22.7-2.58,3.39-5.8,6.02-9.7,7.63-1.65.68-1.93,1.56-1.93,3.07.02,17.5,0,35,0,52.51,0,4.01.07,8.02.02,12.02-.01,1.22.3,2.05,1.53,2.38-.53.48-1.01.99-.94,1.79-.63,3.02-1.46,6.05.49,8.93-.43.64-.43,1.27,0,1.91-.97.15-1.03.86-1.03,1.64,0,4.9,0,9.79-.03,14.69,0,1.06.32,1.85,1.47,1.74,3.38-.32,6.58.68,9.86,1.12,1.68,3.08.99,4.31-2.5,4.35-9.32.11-18.64.26-27.95.28-27.39.06-54.77.11-82.16.06-28.53-.05-57.06-.23-85.59-.36-3.91-.02-4.77-1.33-2.99-4.46,2.98-.32,5.88-1.26,8.94-1.02,1.67.13,2.24-.78,2.22-2.4-.06-4.49-.03-8.98-.01-13.47,0-1.02-.01-1.99-1.3-2.24.48-.6.47-1.2,0-1.8.78-.47,1.45-1,1.3-2.07-.33-2.3.92-4.78-.82-6.91,0-.75.01-1.51.02-2.26,1.12-3.64,1.51-7.28-.11-10.9.14-.68.27-1.36.41-2.03ZM156.6,23.56c-.06-.36-.29-.47-.62-.45,0,0-.11-.05-.11-.05-4.8-3.47-10.92-1.31-13.45,4.74-2.03,4.33-.67,9.3,3.15,11.58,4.41,2.63,10.77,1.61,13.57-2.17,2.94-3.97,2.66-9.47-.61-12.15h.02c-.04-.36-.26-.53-.61-.55-.12-.11-.23-.1-.34.03h0c.12-.12.13-.25.04-.39-.08-.35-.29-.55-.65-.59-.13-.07-.25-.07-.38.01h-.01Zm-76.68,156.28c.18.13.35.26.53.39,2.29,3.15,1.21,5.67-3.05,7.26-6.61,2.46-13.45,2.68-20.37,2.18-.36-.04-.72-.08-1.09-.12-1.45-.21-2.9-.43-4.35-.64.22-.46,1.56-.94.02-1.38-.76-.21-1.52-.35-1.97-1.1.72.12,1.44.24,2.16.38,7.46,1.4,14.92,1.52,22.28-.47,1.99-.54,5.12-.84,4.93-3.5-.19-2.66-3.33-2.87-5.52-3.6-.12-.04-.29.1-.44.16,1.77,2.54,1.53,3.43-1.5,4.52-5.37,1.94-10.9,1.5-16.41.8-1.6-.2-3.19-.57-4.49-1.65,2.98.21,5.84,1.38,8.9,1.06,1.02-.11,2.68,1.17,2.96-.2.32-1.57-1.98-.22-2.6-1.29,1.06-.02,2.13.01,3.18-.09,1.06-.1,1.22-.93,1.24-1.8,0-.66.01-1.26-.82-1.56-2.62-.93-4.14.1-4.17,2.89-1.44-.16-.6-2.5-2.27-2.39-2.04.13-3.48-.8-4.54-2.45.43-.17.97-.25.9-.91-.06-.51-.5-.55-.88-.65-.32-1.17-1.32-1.91-1.9-2.92-.96-2.09-1.55-4.28-1.27-6.59.14-1.14-.4-1.19-1.24-1.17-7.67.21-15.35-.21-23.02.33-2.71,0-5.49-.62-7.97,1.06-.28.05-.59.06-.54.47v-.16c-1.71.45-2.92,1.52-3.59,3.09-3.06,7.11-6.38,14.1-8.82,21.46-.31.92-.44,1.71.24,2.47-1.07,4.5-.33,8.98.54,13.36,2.84,14.15,11.11,23.97,27.64,23.67,13.16-.24,26.32-.03,39.49-.03,38.42-.01,76.85.06,115.27-.1,9.03-.04,16.51-3.64,21.29-11.73,2.7-4.57,4.26-9.53,4.87-14.79.4-3.45,1.01-6.92,0-10.38.62-1.76,0-3.39-.64-4.95-2.31-5.7-4.67-11.37-7.1-17.02-.86-2.01-1.94-3.94-4.15-4.86-.68-.77-1.66-1.07-2.57-1.22-3.99-.68-8.01-.81-12.05-.52-.49-.03-.98-.09-1.47-.09-37.02-.01-74.04-.02-111.07-.03-.24-.09-.36-.02-.32.25-.05,1.52-.1,3.05-.15,4.57l-.09.11.07.12c-.28.88-.56,1.76-.85,2.64-.66.72-1.43,1.36-1.53,2.43-.82.36-1.47.87-1.89,1.94,3.31.19,6.28,1.04,9.19,2.14l.03.02c.16.39.51.48.88.53l.05.05Zm104.23-28.06c0,.27.01.53.02.8l-.03,1.33c.17,1.55.35,3.11.52,4.66l-.03,1.91c.21.95.99,1,1.72,1,2.53-.02,5.06.27,7.58-.16.52.04,1.04.04,1.44-.38.99-.63.67-1.68.46-2.4-.45-1.51-.38-3.03-.49-4.55-.05-.46-.09-.92-.14-1.39l-.36-1.39c0-.83-.01-1.65-.02-2.48.04-.53.14-1.08-.3-1.52-1.13-15.89-2.83-31.73-4.57-47.57-.56-7.14-.35-14.23,1.31-21.23,1.62-5.71,4.13-10.99,8.45-15.12,5.06-4.85,7.93-10.41,7.01-17.56,0-4.41-.28-8.84.08-13.22.37-4.62-.95-8.12-4.96-10.51-1.35-2.74-1.35-5.69-1.37-8.64-.04-6.75-2.38-9.12-9.14-9.28-.74-.02-1.47,0-2.21,0-15.95.07-31.9.21-47.85.21-37.95,0-75.9-.07-113.85-.09-7.81,0-9.67,1.89-9.73,9.64-.02,2.76.06,5.53-1.12,8.13-2.36,2.25-5.39,3.96-5.17,8.02.28,5.28.25,10.58.35,15.86-.42,5.03.18,9.79,3.82,13.67,5.17,5.52,9.65,11.44,11.43,19,.02.17.03.34.05.51.09.34.17.68.26,1.01,1.25,6.66,1.54,13.36.8,20.1-.62,6.24-1.25,12.47-1.85,18.71-.9,9.48-1.77,18.95-2.65,28.43-.06.19-.12.38-.19.57-.43,1.11-.17,2.26-.22,3.39-.07.33-.14.66-.21.99-.37.45-.39.94-.21,1.46.08.42.16.85.25,1.27-.56,1.14-.24,2.38-.42,3.56-1.02,2.13-.02,2.84,2,2.85,2.04,0,4.09-.09,6.12.06,2.25.17,2.96-.82,2.65-2.88.13-1.33.26-2.67.39-4,.03-.29.07-.59.1-.88.05-.8.11-1.61.16-2.41.46-.79.35-1.65.31-2.51.02-.51.05-1.02.07-1.53.15-.71.39-1.42.45-2.14,1.44-16.23,2.93-32.46,4.25-48.7.5-6.1.16-12.21-.9-18.26-.02-2.62-.64-5.15-1.18-7.69-1.81-8.62-5-16.86-7.19-25.37-.7-4.62-.93-9.26-.57-13.93.62-8.1,6.84-14.69,15.9-14.65,42.85.19,85.69.14,128.54.07,9.28-.02,14.48,7.18,15.39,13.59.69,4.84.16,9.62-.25,14.43-1.64,5.35-3.3,10.7-4.9,16.07-1.76,5.91-3.62,11.8-4.13,18-1.01,5.33-1.26,10.7-.85,16.09.7,9.2,1.4,18.4,2.22,27.58.74,8.37,1.64,16.73,2.47,25.09.01.41.03.83.04,1.24.14.89.27,1.78.41,2.67-.07.16-.05.32.05.46Zm-117.89-57.47c.61-3.19-.02-6.3-.47-9.43-1.27,2.89-.92,5.91-.96,8.88-.58-.49-.57-1.19-.48-1.82.26-1.74-.85-2.51-2.13-3.17-.65-.34-1.4-.74-2.02-.06-.52.57-.19,1.2.16,1.8.69,1.2,1.05,2.59-.08,3.55-.86.74-.85,1.49-.85,2.37,0,17.09.02,34.18-.02,51.27,0,2.26,1.01,2.91,3.13,3.02,3.82.21,7.62.01,11.43,0,26.74-.1,53.48-.06,80.22-.06.74,0,1.48.05,2.21-.02,2.21-.2,2.96-1.12,2.46-3.22-.25-1.06-.27-2.1-.27-3.16,0-14.88,0-29.77,0-44.65q0-5.44-5.42-5.39c-1.96-.1-1.46,1.38-1.46,2.4-.03,14.63-.01,29.26-.03,43.89,0,4.87.6,4.23-4.34,4.24-17.41.06-34.81.09-52.22.12-.28-.06-.56-.12-.84-.18-.15-.23-.31-.24-.48-.01-3.27,0-6.55-.01-9.82-.02-2.49-.99-5.17.07-7.68-.73,1.04-.16,2.08-.14,3.12-.17.52-.02,1.34.17,1.3-.66-.03-.65-.76-.76-1.34-.76-2.36-.01-4.71,0-7.07-.03-.76-.01-1.69.29-2.06-.79,3.25.1,6.49.24,9.73-.04,5.53.29,11.06.46,16.6-.08.22-.03.45-.07.67-.1,4.72.73,9.45.73,14.19.13,2.52,0,5.05-.01,7.57-.01,8.88,0,17.75.02,26.63.03,1.46,0,2.94.02,2.56-2.16.03-14.22.06-28.43.09-42.65,0-.32,0-.64,0-.95,0-.35,0-.69,0-1.04.15-1.65.1-3.27-.45-4.85,1.2-3.63.92-7.38.93-11.11,0-2.6-1.75-4.54-4.35-4.58-4.17-.06-8.34.05-12.5.09-1.3-.04-2.61-.11-3.91-.11-16.98,0-33.95,0-50.93,0-.98,0-1.96-.03-2.94.03-2.71.16-4.24,1.65-4.28,4.33-.04,3.02.07,6.03.11,9.05-.06,3.01-.24,6.02-.15,9.03.11,3.71-.48,7.44.35,11.13-.47.84-.25,1.75-.25,2.63-.02,10.33-.02,20.66-.02,30.98-1.07-.69-.63-1.77-.64-2.69-.03-14.46-.01-28.92-.04-43.38,0-.89.37-1.92-.53-2.77-1.25,1.3-1.4,2.78-1.4,4.37.02,14.38.01,28.76,0,43.14q0,3.82,3.78,4.4c.22.03.42.23.63.35-.73.03-1.47-.03-2.19.1-2.55.44-3.22-.58-3.17-3.11.14-7.31-.03-14.63-.08-21.95.23-2.78.23-5.57,0-8.35.26-5.07.21-10.15.01-15.22,0-.31.01-.63.02-.95-.01-.31-.02-.63-.03-.94Zm62.66-54.29c4.49.55,8.98.12,13.82.25-1.06-1.88-1.92-3.4-2.78-4.92-.99-4.6-.01-8.7,3.11-12.26,1.21-.4,1.8-1.48,3.09-2.37-.8-.06-1.11-.09-1.42-.1-17.9-.21-35.8.27-53.7-.36-10.03-.36-20.09.4-30.14.25-5.05-.07-10.11-.42-15.17-.34-6.9.12-11.25,3.37-12.2,9.31-.44,2.8-.71,5.66-.65,8.53.04,1.69.53,2.29,2.26,2.26,5.48-.09,10.96-.03,16.44-.04.72,0,1.5.15,2.04-.55,4.93,1.3,9.94.47,14.91.49,9.42,0,18.83-.01,28.25-.02,9.16.01,18.33.03,27.49.04.93,0,1.87,0,2.81-.01.61-.06,1.22-.12,1.83-.18Zm-94.47,5.54l-.08.14c.01.9.07,1.77.35,2.65,1.96,6.31,3.86,12.63,5.83,18.94.17.53-.05,1.35.93,1.63.42-.76.23-1.58.29-2.35.32-3.81.54-7.63,1.01-11.42.36-2.88,2.74-5.33,5.1-5.55,3-.29,6-.5,9.02-.5,34.56.04,69.13.02,103.69.03,2.85,0,5.68-.04,8.54.38,4.35.63,6.39,2.81,6.63,7.26.23,4.14.72,8.26,1.16,13.04.43-.99.64-1.34.73-1.71,1.58-6.42,3.55-12.72,5.71-18.97.37-1.08.85-2.13.79-3.31,1.3-1.56.94-2.3-1.1-2.24-.65.02-1.31,0-1.96,0-27.81-.03-55.61-.07-83.42-.07-20.53,0-41.06.02-61.6.08-.87,0-1.98-.55-2.61.63-.04.15,0,.28.09.4.18.43.24.97.9.96Zm128.06,41.35c.01,2.29.03,4.58.04,6.86-.03,1.06-.08,2.12-.08,3.18,0,16.84.04,33.68.03,50.52,0,4.59-2.54,7.02-7.08,7.02-29.19,0-58.37.02-87.56.04-.57,0-1.14.11-2.31.24,3.92,1.15,5.62,3.85,7.47,6.37,2.98.74,5.99.27,8.99.22,23.76,0,47.52,0,71.28-.01,4.98,0,9.96-.07,14.94-.03,1.86.01,2.66-.7,2.53-2.6-.15-2.2-.16-4.4-.23-6.6.57-1.95-.02-4.25,1.74-5.85.14,1.15.28,2.3.42,3.45-.41.35-.32.66.07.95.14.99.27,1.98.41,2.97-.39.35-.31.66.07.95.18.96.12,1.92.11,2.9-.04,3.15,1.36,3.98,5.4,3.86,2.96-.09,1.9-2.15,1.78-3.49-1.9-21.37-3.88-42.72-5.84-64.09-.18-2.37.45-4.83-.87-7.06,0-.53.01-1.06.02-1.59.4-3.35-.17-6.63-.63-9.93-.46-5.84-.99-11.67-1.34-17.51-.23-3.92-.89-4.68-4.84-4.68-35.45,0-70.91,0-106.36.01-3.43,0-6.86,0-10.29,0-2.1,0-3.5.86-3.68,3.06-.53,6.32-1,12.65-1.5,18.98-.9,2.98-.84,6.07-1.02,9.13-.05.91.51,1.1,1.24,1.1,2.94,0,5.88-.02,8.82-.03,1.05,0,1.41-.55,1.39-1.55-.07-2.85-.1-5.71-.14-8.56.03-2.62,0-5.23.11-7.85.18-4.43,2.56-7.05,7.2-7.03,28.29.14,56.58.07,84.87.06,1.79,0,3.57-.07,5.37-.33,5.51-.78,10.09,2.06,9.52,8.31-.21,2.27.02,4.57.04,6.86-.03,3.27-.06,6.54-.1,9.8.02.65.03,1.29.05,1.94Zm-109.98,81.47c.38,4.95,4.19,8.38,9.33,8.42,4.91.04,8.77-3.5,9.25-8.48.03-.89.15-1.8.08-2.68-.45-5.75-5.47-9.94-10.87-9.13-5.31.8-8.93,6.32-7.79,11.88ZM160.41,23.64c2.81,3.67,3.38,7.78,2.45,12.2-.6.97-1.21,1.93-1.79,2.91-.55.91-.53,1.53.79,1.52,7.36-.02,14.71-.02,22.07-.03,1.14,0,1.59-.65,1.6-1.72.04-3.26.2-6.53-.61-9.74-1.13-4.46-5.83-8.42-10.05-8.3-2.49.07-5.01.13-7.52.12-3.4-.02-6.79,0-10.71,0,1.55,1.25,2.66,2.15,3.78,3.05ZM23.58,262.09c-.24,21.25.29,42.5-.42,63.75-.24,7.08-.76,6.39,6.66,6.48,2.08.02,2.67-.8,2.66-2.76-.05-22.49-.05-44.98-.06-67.46,0-8.09,0-16.19,0-24.28,0-2.89-.28-3.15-3.26-3.19-.98-.01-2.03.21-2.93-.06-2.55-.79-2.69.58-2.68,2.52.05,8.34.02,16.68.02,25.01Zm161.5.03c-.01,21.35-.05,42.69-.03,64.04,0,6.46-1.3,6.12,6.43,6.15,2.09,0,2.92-.81,2.92-2.92-.05-22.41-.05-44.82-.06-67.23.02-7.84.04-15.68.05-23.52q0-4.5-4.53-4.04c-.49.05-.98.02-1.47.03-2.88.05-3.31.44-3.32,3.24-.01,8.09,0,16.17,0,24.26ZM44.11,160.96c.63-.37.52-.98.52-1.56-.01-.13.01-.25.09-.36.57-.36.39-1.6,1.47-1.33.91.22.96,1,.98,1.76.02.57,0,1.16.61,1.49,1.07-.14,2.51.69,3.17-.47,1.96-3.46,5.05-5.29,8.95-6.51-2.49-.93-3.66-2.6-4.3-4.72.02-16.05.04-32.11.05-48.16,0-2.28-.1-4.55-.15-6.83,0-.17.01-.34.02-.51.05-.4.13-.8.14-1.21q.12-5.74-5.63-5.72-6.78.02-6.62,7.01c-.23,2.68-.45,5.36-.69,8.04-1.23,13.81-2.47,27.62-3.69,41.43-.47,5.28-.91,10.56-1.41,15.84-.16,1.69.46,2.45,2.18,2.32,1.45-.11,2.95.23,4.32-.49Zm-7.26,93.3c-.37,8.04-.63,16.09-.19,24.13-.04,16.98-.07,33.97-.11,50.95-.21.54-.24,1.06.18,1.53.44,1.89,1.99,1.38,3.19,1.38,28.68,0,57.36-.02,86.04-.03,17.32,0,34.64,0,51.97.06,2,0,3.26-.3,3.25-2.76-.08-17.08-.08-34.15-.1-51.23,0-7.99-.02-15.98-.03-23.96.03-5.23.06-10.46.08-15.69.01-3.85-.18-4.03-4-4.03-29.43,0-58.85,0-88.28,0-16.27,0-32.53,0-48.8.01-2.97,0-3.24.29-3.24,3.2,0,5.48.02,10.95.03,16.43Z" style="fill: #1d1941; stroke-width: 0px;"/>
      <path d="m181.08,278.31c.02,17.08.02,34.15.1,51.23.01,2.45-1.25,2.76-3.25,2.76-17.32-.05-34.64-.06-51.97-.06-28.68,0-57.36.03-86.04.03-1.21,0-2.75.52-3.19-1.38.14-.54.18-1.06-.19-1.53.04-16.98.07-33.97.11-50.95,6.25-.32,12.53.15,18.77-.57.06.97.16,1.95.16,2.92.01,7.42-.03,14.85.02,22.27.03,6.04,3.44,9.72,9.46,9.82,8.56.14,17.13.08,25.69-.09,5.08-.1,8.03-2.88,8.99-7.95.56-.8.54-1.63.07-2.46,0-3.59.02-7.17.03-10.76.69-3.46.28-6.96.25-10.44-.02-2.16.49-2.93,2.82-2.94,7.39-.01,14.8.46,22.18-.37.02,8.66.04,17.32.08,25.98.02,6.02,3,9.08,9,9.1,6.54.02,13.07-.06,19.61-.11,5.74-.04,8.74-3.06,8.74-8.76,0-8.58.03-17.16.05-25.74,5.29-.25,10.61.31,15.9-.44.89-.13,1.8-.06,2.62.43Z" style="fill: #fa5658; stroke-width: 0px;"/>
      <path d="m36.85,254.27c-.01-5.48-.03-10.95-.03-16.43,0-2.91.27-3.2,3.24-3.2,16.27-.01,32.53-.01,48.8-.01,29.43,0,58.85,0,88.28,0,3.82,0,4.01.18,4,4.03-.02,5.23-.05,10.46-.08,15.69-.98-.02-1.96-.06-2.94-.06-47.09,0-94.18-.01-141.26-.02Z" style="fill: #582148; stroke-width: 0px;"/>
      <path d="m213.57,193.74c1,3.46.4,6.93,0,10.38-.61,5.25-2.17,10.22-4.87,14.79-4.79,8.1-12.27,11.7-21.29,11.73-38.42.16-76.85.09-115.27.1-13.16,0-26.33-.2-39.49.03-16.53.3-24.8-9.52-27.64-23.67-.88-4.37-1.61-8.86-.54-13.36,1.32,1.5,2.64,3,3.97,4.49.05.65.01,1.31.16,1.93,2.67,11.34,11.86,18.72,23.52,18.73,51.41.02,102.81,0,154.22.01,3.4,0,6.67-.71,9.72-2.12,8.09-3.75,12.78-10.1,14.03-18.95,1.16-1.37,2.33-2.73,3.49-4.1Z" style="fill: #b43250; stroke-width: 0px;"/>
      <path d="m188.83,44.57c.41-4.8.94-9.58.25-14.43-.91-6.41-6.11-13.61-15.39-13.59-42.85.07-85.69.12-128.54-.07-9.07-.04-15.28,6.55-15.9,14.65-.36,4.67-.13,9.31.57,13.93-.8.74-1.8.6-2.76.61-3.47.02-6.94.04-10.41.05v-.02c.08-7.92.28-15.84-.08-23.75,1.18-2.6,1.09-5.37,1.12-8.13.06-7.75,1.93-9.64,9.73-9.64,37.95.02,75.9.09,113.85.09,15.95,0,31.9-.13,47.85-.21.74,0,1.47-.01,2.21,0,6.76.16,9.1,2.54,9.14,9.28.02,2.95.02,5.9,1.37,8.64-.03,7.16-.11,14.32-.07,21.47.01,1.71-.55,2.29-2.25,2.23-2.84-.11-5.69-.04-8.54-.03-.92,0-1.83.03-2.15-1.11ZM111.91,8.77v-.04c-23.71,0-47.41.08-71.12-.06-5.83-.03-9.76,2.57-12.7,7.24-.66,1.05-1.18,2.17.19,2.95,1.31.75,1.92-.38,2.44-1.31,2.29-4.1,5.66-5.9,10.44-5.89,47.66.09,95.32.07,142.98.04,1.37,0,3.69.85,3.67-1.53-.02-2.14-2.24-1.37-3.54-1.37-24.12-.04-48.23-.03-72.35-.03Z" style="fill: #fa5658; stroke-width: 0px;"/>
      <path d="m36.85,254.27c47.09,0,94.18.01,141.26.02.98,0,1.96.04,2.94.06,0,7.99.02,15.98.03,23.96-.82-.49-1.73-.55-2.62-.43-5.28.76-10.6.2-15.9.44-.03-2.78-.02-5.55-.08-8.33-.08-4.1-2.87-6.96-6.92-6.98-7.68-.05-15.36-.06-23.04,0-4.3.03-7.19,2.97-7.31,7.25-.07,2.53-.09,5.06-.13,7.59-7.38.83-14.79.36-22.18.37-2.33,0-2.84.78-2.82,2.94.03,3.48.44,6.98-.25,10.44-.06-.97-.17-1.95-.16-2.92.01-6.78.1-13.57.06-20.35-.03-5.38-3.96-9.21-9.33-9.22-8.42-.01-16.84,0-25.25.01-5.96.01-9.53,3.64-9.6,9.66-.03,3.02-.09,6.04-.13,9.06-6.24.72-12.51.25-18.77.57-.44-8.05-.18-16.09.19-24.13Z" style="fill: #b43250; stroke-width: 0px;"/>
      <path d="m172.67,149.73c-.14-1.15-.28-2.3-.42-3.45-.84-7.36-1.69-14.71-2.53-22.07-.19-1.53-.37-3.06-.56-4.59-.22,1.55-.45,3.08-.09,4.6.48,9.3.97,18.6,1.45,27.91.07,2.2.08,4.41.23,6.6.13,1.9-.67,2.61-2.53,2.6-4.98-.04-9.96.03-14.94.03-23.76,0-47.52.01-71.28.01-2.98-.68-6-.14-8.99-.22-1.85-2.52-3.55-5.22-7.47-6.37,1.17-.12,1.74-.24,2.31-.24,29.19-.02,58.37-.04,87.56-.04,4.54,0,7.08-2.43,7.08-7.02,0-16.84-.02-33.68-.03-50.52,0-1.06.05-2.12.08-3.18.92.43,1.9.35,2.88.38,3.09.11,6.14-.7,9.24-.38,1.96,21.36,3.94,42.72,5.84,64.09.12,1.34,1.18,3.4-1.78,3.49-4.04.13-5.43-.7-5.4-3.86.01-.98.07-1.94-.11-2.9-.02-.32-.05-.64-.07-.95-.14-.99-.27-1.98-.41-2.97-.02-.32-.05-.63-.07-.95Z" style="fill: #faeebd; stroke-width: 0px;"/>
      <path d="m148.26,95.74c0,.32,0,.64,0,.95-.7.66-.49,1.52-.49,2.31,0,12.74,0,25.49,0,38.23,0,.72-.17,1.49.39,2.11.38,2.18-1.1,2.16-2.56,2.16-8.88,0-17.75-.02-26.63-.03-2.52,0-5.05,0-7.57.01.16-.28.29-.58.47-.84.41-.58,1.44-1,1.19-1.71-.34-.94-1.43-.46-2.18-.47-3.58-.05-7.16-.03-10.75-.04,3.15-4.05,6.29-8.11,9.46-12.15,9.5-12.14,19.01-24.27,28.53-36.39.98-1.25,1.48-2.18-.68-2.5-.61-2.79-3.18-4.02-4.78-6.03-1.17-1.47-2.64-1.87-4.5-1.86-15.99.06-31.99.04-47.98.04-3.89,0-4.94.82-6.19,4.53-.38,1.12-.24,2.26-.49,3.37-1.19.04-2.38.08-3.57.12-.04-3.02-.15-6.03-.11-9.05.03-2.69,1.57-4.18,4.28-4.33.98-.06,1.96-.03,2.94-.03,16.98,0,33.95,0,50.93,0,1.3,0,2.61.07,3.91.11,2.87,2.89,5.74,5.77,8.61,8.66,1.12,5.06,4.47,9.48,3.79,15.14,1.84-.68,1.76-2.72,3.4-2.86l.57.54Zm-3.8,3.09c-10.21,13.23-20.26,26.25-30.57,39.61,9.56,0,18.54,0,27.52,0,1.62,0,2.66-.9,2.89-2.44.3-2.01.5-4.05.51-6.07.05-9.48.03-18.95.02-28.43,0-.78.23-1.6-.37-2.66Z" style="fill: #477994; stroke-width: 0px;"/>
      <path d="m162.56,75.19c-.03-2.29-.25-4.59-.04-6.86.58-6.24-4.01-9.09-9.52-8.31-1.8.25-3.57.33-5.37.33-28.29,0-56.58.08-84.87-.06-4.63-.02-7.01,2.59-7.2,7.03-.11,2.61-.08,5.23-.11,7.85-3.43-.03-6.86-.06-10.29-.08.5-6.33.97-12.65,1.5-18.98.18-2.2,1.59-3.07,3.68-3.06,3.43.01,6.86,0,10.29,0,35.45,0,70.91,0,106.36-.01,3.95,0,4.61.76,4.84,4.68.35,5.84.88,11.67,1.34,17.51-3.54-.01-7.09-.02-10.63-.03Z" style="fill: #584062; stroke-width: 0px;"/>
      <path d="m187.05,165.17c4.04-.29,8.06-.16,12.05.52.92.16,1.89.45,2.57,1.22-.32.35-.22.71-.12,1.13,1.31,5.77,3.73,11.11,6.21,16.44,3.12,6.71,1.99,10.39-4.35,13.7-4.55,2.38-9.52,3.52-14.62,3.53-53.14.06-106.27.07-159.41-.02-5.38,0-10.8-.89-15.57-3.64-4.08-2.35-6.88-5.96-4.59-11.17,1.84-4.18,3.42-8.47,5.04-12.75.92-2.42,2.29-4.71,2.34-7.41,0,0,.01.16.01.16.18-.16.36-.31.54-.47,2.48-1.68,5.27-1.06,7.97-1.06-.77,1.38-2.37,1.32-3.53,2.04-5.41,3.36-5.67,9.43-7.65,14.57-.32.83.62,1.62,1.56,1.92.98.31,1.62-.26,1.99-1.02.63-1.32,1.2-2.68,1.66-4.07,1.66-4.95,4.86-7.94,10.19-8.6,6.03-.75,12.08-.19,18.12-.41.51-.02,1.13-.15,1.53.71-.94.55-1.92.31-2.84.34-5.86.18-11.76-.5-17.56.97-2.14.54-3.8,1.73-4.49,3.77-1.8,5.33-3.39,10.74-5.11,16.1-.77,2.4.27,4,2.17,5.15,2.55,1.54,5.34,2.44,8.36,2.45,9.81.02,19.63.05,29.44.05,42.44,0,84.88-.02,127.32-.05,3.38,0,6.66-.57,9.67-2.24,2.72-1.51,3.45-3.05,2.59-6.08-1.41-4.94-2.92-9.85-4.48-14.75-.8-2.53-2.63-4.23-5.19-4.75-4.99-1.01-10.04-.78-15.07-.22-.69-.44-1.38-.87-2.07-1.31,4.73-.02,9.47-.15,14.2-.04,6.33.14,10.9,2.86,12.81,9.24.35,1.16.92,2.27,1.47,3.36.44.87.93,1.82,2.23,1.24,1.1-.49,1.27-1.23.96-2.38-.94-3.55-2.01-7.05-3.74-10.31-1.07-2.01-2.7-3.29-4.8-4.3-2.54-1.23-5.23-1.01-7.83-1.56Z" style="fill: #f1bb7c; stroke-width: 0px;"/>
      <path d="m153.15,94.26q5.41-.05,5.42,5.39c0,14.88,0,29.77,0,44.65,0,1.06.02,2.1.27,3.16.5,2.1-.25,3.02-2.46,3.22-.73.07-1.47.02-2.21.02-26.74,0-53.48-.04-80.22.06-3.81.01-7.61.21-11.43,0-2.12-.12-3.14-.77-3.13-3.02.04-17.09.02-34.18.02-51.27,0-.88,0-1.63.85-2.37,1.13-.97.77-2.36.08-3.55-.34-.59-.67-1.23-.16-1.8.62-.68,1.37-.28,2.02.06,1.28.66,2.39,1.43,2.13,3.17-.09.63-.1,1.32.48,1.81.06.26.13.52.19.77,0,.12-.07.19-.19.19-.75.74-.48,1.68-.48,2.55-.01,15.48-.01,30.95,0,46.43,0,.87-.27,1.81.46,2.56l.49.14c.18.23.35.2.51-.02,8.6,0,17.2,0,25.8-.03.92,0,1.97.39,2.71-.55h.22s.22-.02.22-.02c.74.76,1.69.48,2.56.48,17.73.02,35.46-.03,53.2.07,2.23.01,2.71-.71,2.7-2.8-.08-16.42-.05-32.85-.05-49.27Z" style="fill: #2d2d55; stroke-width: 0px;"/>
      <path d="m44.72,159.04c-.07.11-.1.23-.09.36-.71.34-.35,1.04-.52,1.56-1.38.72-2.88.38-4.32.49-1.72.13-2.34-.62-2.18-2.32.5-5.28.94-10.56,1.41-15.84,1.23-13.81,2.47-27.62,3.69-41.43.24-2.68.46-5.36.69-8.04,4.04-.03,8.08-.05,12.12-.08,0,.17-.01.34-.02.51-.7.65-.48,1.52-.48,2.31-.01,16.73-.01,33.46,0,50.19,0,.86-.29,1.83.58,2.5.65,2.12,1.81,3.79,4.3,4.72-3.9,1.21-6.99,3.05-8.95,6.51-.66,1.17-2.1.34-3.17.47-.42-5.56.39-11.1.27-16.65l.89-18.64c-.21-.02-.42-.04-.63-.05-.68,5.42-1.36,10.83-2.04,16.25,0,.34.02.68.03,1.01-.08,1.15-.15,2.31-.23,3.46-.32.44-.36.93-.26,1.45-.04.81-.09,1.62-.13,2.42-.61,2.91-.89,5.86-.97,8.83Zm4.34-40.55c-.45,2.26-.66,4.56-.75,6.87.25.02.5.04.75.06v-6.93Z" style="fill: #faeebd; stroke-width: 0px;"/>
      <path d="m16.61,166.72c-.05,2.7-1.42,4.99-2.34,7.41-1.62,4.27-3.2,8.57-5.04,12.75-2.29,5.22.5,8.82,4.59,11.17,4.77,2.75,10.19,3.63,15.57,3.64,53.14.09,106.27.08,159.41.02,5.1,0,10.07-1.15,14.62-3.53,6.34-3.31,7.47-7,4.35-13.7-2.48-5.32-4.91-10.67-6.21-16.44-.09-.42-.2-.78.12-1.13,2.2.92,3.28,2.84,4.15,4.86,2.43,5.65,4.79,11.33,7.1,17.02.63,1.56,1.26,3.19.64,4.95-1.16,1.36-2.33,2.73-3.49,4.1-6.75,4.74-14.25,7.18-22.51,7.18-52.09,0-104.18,0-156.28-.01-2.86,0-5.71-.17-8.54-.69-5.23-.95-9.92-3.19-14.33-6.07-1.32-1.5-2.64-2.99-3.97-4.49-.69-.77-.55-1.55-.24-2.47,2.44-7.36,5.76-14.36,8.82-21.46.68-1.57,1.89-2.64,3.58-3.09Z" style="fill: #faeebd; stroke-width: 0px;"/>
      <path d="m55.94,189.55l1.09.12c.49,1.17,1.53.72,2.35.73,18.12.04,36.24.06,54.36.07.87,0,1.81.23,2.6-.4,3.13.56,6.25.48,9.38,0,.38.12.76.34,1.14.34,18.72.03,37.43.05,56.15.05,1.96,0,2.94-1.09,3.07-3.06.22-3.4-1.26-6.38-2.38-9.41-.45-1.22-.31-1.76.82-2.17,2.03-.15,3.25.89,3.81,2.73,1.1,3.59,2.05,7.22,3.23,10.78.74,2.24-.17,3.39-2.1,4.19-2.87,1.19-5.93,1.2-8.93,1.2-48,.05-96.01.05-144.01.03-2.04,0-4.09-.16-6.1-.46-3.79-.56-4.96-2.57-3.82-6.2.99-3.11,2.05-6.2,2.91-9.35.65-2.37,1.91-3.52,4.41-3,.65.91.41,1.8.11,2.78-.84,2.8-1.8,5.58-2.07,8.51-.25,2.64.48,3.42,3.11,3.43,4.81.02,9.62-.02,14.43-.01,2.2,0,4.36-.19,6.45-.9Z" style="fill: #6dc1cb; stroke-width: 0px;"/>
      <path d="m173.82,171.23c5.03-.56,10.08-.79,15.07.22,2.56.52,4.39,2.22,5.19,4.75,1.55,4.9,3.07,9.81,4.48,14.75.86,3.03.13,4.57-2.59,6.08-3.01,1.67-6.29,2.24-9.67,2.24-42.44.03-84.88.04-127.32.05-9.81,0-19.63-.03-29.44-.05-3.03,0-5.81-.91-8.36-2.45-1.9-1.15-2.94-2.75-2.17-5.15,1.73-5.36,3.31-10.77,5.11-16.1.69-2.04,2.35-3.23,4.49-3.77,5.8-1.47,11.7-.78,17.56-.97.92-.03,1.89.21,2.84-.34-.4-.86-1.02-.72-1.53-.71-6.04.22-12.08-.35-18.12.41-5.33.67-8.53,3.65-10.19,8.6-.47,1.39-1.03,2.75-1.66,4.07-.36.76-1.01,1.33-1.99,1.02-.94-.3-1.88-1.09-1.56-1.92,1.98-5.14,2.25-11.2,7.65-14.57,1.16-.72,2.76-.66,3.53-2.04,7.67-.54,15.35-.12,23.02-.33.84-.02,1.38.03,1.24,1.17-.28,2.31.3,4.5,1.27,6.59-5.39.01-10.79-.07-16.18.05-5.26.12-6.95,1.48-8.48,6.4-.99,3.19-2.01,6.37-2.91,9.59-1.03,3.69-.13,5.39,3.38,6.95,2.21.98,4.61.94,6.91,1.45.93,1.02,2.15.57,3.24.57,47.79.03,95.58.02,143.36.03,2.21,0,4.41.01,6.62,0,.79,0,1.72.19,1.89-1.01.89-.33,1.79-.65,2.68-.99,3.24-1.24,4.53-3.56,3.65-6.9-.95-3.61-2.05-7.18-3.08-10.77-.83-2.91-2.8-4.44-5.74-4.9-3.73-.59-7.47-.41-11.21-.35-.18-.07-.36-.14-.54-.21l-.43-1.44Z" style="fill: #faeebd; stroke-width: 0px;"/>
      <path d="m184.15,45.83c.07,1.18-.42,2.24-.79,3.31-2.15,6.25-4.13,12.55-5.71,18.97-.09.37-.3.72-.73,1.71-.44-4.79-.93-8.91-1.16-13.04-.24-4.45-2.28-6.63-6.63-7.26-2.86-.41-5.69-.38-8.54-.38-34.56-.01-69.13,0-103.69-.03-3.03,0-6.02.21-9.02.5-2.36.23-4.75,2.67-5.1,5.55-.47,3.79-.69,7.61-1.01,11.42-.07.77.13,1.59-.29,2.35-.98-.28-.76-1.1-.93-1.63-1.97-6.3-3.87-12.63-5.83-18.94-.27-.88-.34-1.75-.35-2.65,8.01-1.06,16.03.26,24.04-.15,1.66.22,3.32.22,4.99-.02,1.12,0,2.24,0,3.36.01,1.82.23,3.65.22,5.47.02,1.29,0,2.57,0,3.86,0,1.06.04,2.12.12,3.18.12,33.83,0,67.65-.01,101.48-.01,1.14,0,2.28.1,3.42.15Z" style="fill: #582148; stroke-width: 0px;"/>
      <path d="m187.05,165.17c2.6.55,5.29.33,7.83,1.56,2.09,1.01,3.72,2.29,4.8,4.3,1.73,3.26,2.8,6.76,3.74,10.31.31,1.15.14,1.89-.96,2.38-1.3.58-1.79-.36-2.23-1.24-.55-1.09-1.12-2.19-1.47-3.36-1.91-6.38-6.48-9.1-12.81-9.24-4.73-.11-9.46.02-14.2.04-3.22-1.1-6.43-.64-9.64.01-4-.22-7.99-.21-11.97.41-3.5-1.4-7.06-1.54-10.67-.47h-11.93c0,.34,0,.67-.01,1.01h10.76c-.12.55-.24,1.11-.36,1.66-.21.1-.42.19-.63.29-3.22.02-6.43.03-9.65.05-.12-.1-.25-.15-.41-.13-.61-4.28-3.15-6.46-6.91-5.92-1.98.29-3.3,1.54-4.47,3.02-13.94,0-27.88,0-41.82.01.05-1.52.1-3.05.15-4.57.16-.01.27-.09.32-.25,37.02,0,74.04.02,111.07.03.49,0,.98.06,1.47.09Z" style="fill: #faeebd; stroke-width: 0px;"/>
      <path d="m183.64,147.41c-.83-8.36-1.72-16.72-2.47-25.1-.82-9.19-1.52-18.39-2.22-27.58-.41-5.39-.16-10.77.85-16.09,1.51.96,3-.29,4.52-.07.94.14,1.82,0,1.46,1.48-1.17,4.79-.72,9.69-.73,14.55,0,5.71-.47,4.96,4.89,5.06,1.74,15.83,3.44,31.67,4.57,47.57-3.62.06-7.25.13-10.87.19Z" style="fill: #fa5658; stroke-width: 0px;"/>
      <path d="m194.34,262.16c.01,22.41.01,44.82.06,67.23,0,2.11-.83,2.93-2.92,2.92-7.73-.02-6.42.31-6.43-6.15-.02-21.35.02-42.69.03-64.04,3.09.01,6.17.03,9.26.04Z" style="fill: #2e5077; stroke-width: 0px;"/>
      <path d="m33.38,197.22c-2.3-.5-4.7-.46-6.91-1.45-3.51-1.56-4.41-3.27-3.38-6.95.9-3.22,1.92-6.4,2.91-9.59,1.53-4.93,3.22-6.29,8.48-6.4,5.39-.12,10.79-.04,16.18-.05.58,1.01,1.57,1.75,1.9,2.92-1.96-.08-3.92-.41-5.88-.02-4.26-.32-8.52-.06-12.77.07-2.51-.52-3.77.63-4.41,3-.86,3.15-1.92,6.23-2.91,9.35-1.15,3.63.03,5.64,3.82,6.2,2.01.3,4.07.46,6.1.46,48,.02,96.01.02,144.01-.03,3,0,6.05-.01,8.93-1.2,1.94-.8,2.84-1.96,2.1-4.19-1.18-3.56-2.13-7.19-3.23-10.78-.56-1.84-1.78-2.88-3.81-2.73-3.26-.27-6.51-.53-9.78-.16-.16-.15-.33-.31-.49-.46.19-.77.37-1.54.56-2.31,3.74-.06,7.49-.25,11.21.35,2.94.47,4.9,2,5.74,4.9,1.03,3.59,2.13,7.16,3.08,10.77.88,3.34-.41,5.66-3.65,6.9-.89.34-1.79.66-2.68.99-2.01.02-3.97.45-6.01.45-29.76-.07-59.51-.04-89.27-.03-19.94,0-39.89,0-59.83,0Z" style="fill: #2e5077; stroke-width: 0px;"/>
      <path d="m23.6,147.28c.88-9.48,1.75-18.96,2.65-28.43.59-6.24,1.23-12.47,1.85-18.71.63-.45,1.35-.58,2.09-.5,1.94.2,2.6-.57,2.83-2.6.6-5.46.59-10.85-.5-16.24-.3-1.48.09-2.33,1.84-2.26,1.27.05,2.62.31,3.83-.42,1.07,6.05,1.4,12.16.9,18.26-1.32,16.24-2.81,32.47-4.25,48.7-.06.72-.3,1.43-.45,2.14-3.6.02-7.19.03-10.79.05Z" style="fill: #fa5658; stroke-width: 0px;"/>
      <path d="m32.43,262.1c.01,22.49,0,44.98.06,67.46,0,1.97-.58,2.79-2.66,2.76-7.42-.09-6.9.6-6.66-6.48.71-21.25.18-42.5.42-63.75,2.95,0,5.9,0,8.84,0Z" style="fill: #2e5077; stroke-width: 0px;"/>
      <path d="m189.95,99.65c-5.36-.1-4.9.65-4.89-5.06,0-4.86-.44-9.75.73-14.55.36-1.47-.53-1.34-1.46-1.48-1.52-.22-3,1.02-4.52.07.51-6.2,2.36-12.09,4.13-18,1.6-5.37,3.27-10.71,4.9-16.07.32,1.14,1.22,1.11,2.15,1.11,2.85,0,5.7-.08,8.54.03,1.7.07,2.26-.51,2.25-2.23-.05-7.16.03-14.31.07-21.47,4.01,2.4,5.33,5.9,4.96,10.51-.35,4.38-.08,8.81-.08,13.22-.49,0-.99.05-1.47-.03-2.31-.36-3.58.52-4.25,2.86-.61,2.1-1.91,3.95-3.16,5.77-4.17,6.07-7.9,12.36-10.1,19.46-1.53,4.93-1.6,4.91,3.53,4.61-1.66,7-1.88,14.09-1.31,21.23Z" style="fill: #b43250; stroke-width: 0px;"/>
      <path d="m116.33,190.07c-.79.63-1.72.4-2.6.4-18.12,0-36.24-.03-54.36-.07-.82,0-1.86.44-2.35-.73,6.92.5,13.76.28,20.37-2.18,4.25-1.58,5.34-4.11,3.05-7.26-.18-.13-.35-.26-.53-.39,0,0-.05-.05-.05-.05-.15-.42-.47-.55-.88-.53,0,0-.03-.02-.03-.02q-1.76-2.61.66-3.77c10.58,0,21.17,0,31.75-.01,1.14.85,3.31.89,2.53,3.23-1.39.98-1.94,2.07-.42,3.4-2.86,3.14-2.51,5.61,1.05,7.31.57.27,1.19.44,1.79.66Z" style="fill: #95f5f7; stroke-width: 0px;"/>
      <path d="m53.63,39.71c-.54.7-1.32.55-2.04.55-5.48.01-10.96-.05-16.44.04-1.73.03-2.22-.57-2.26-2.26-.06-2.88.21-5.73.65-8.53.94-5.94,5.3-9.2,12.2-9.31,5.06-.08,10.12.27,15.17.34,10.04.14,20.11-.61,30.14-.25,17.9.63,35.8.15,53.7.36.31,0,.62.04,1.42.1-1.3.88-1.89,1.97-3.1,2.37-4.32.02-8.65-.29-12.95.44-.51-.12-1.02-.25-1.53-.37-8.31-.06-16.62-.11-24.94-.17-.54-.37-1.08-.37-1.63-.02-.62,0-1.24-.01-1.86-.02-1.54-.7-2.95.08-4.39.41-.51-1.14-1.56-.82-2.34-.65-1.53.34-3.06.31-4.6.32-5.68.02-11.37.02-17.05.05-.87,0-1.8-.23-2.58.41-5.22-1.04-10.45-1.48-15.68-.05-2.95-.84-5.97-.22-8.95-.35-1.16-.05-2.19.46-3.21,1.02-3.76,2.07-3.59,5.61-3.62,9.17-.01,1.9.65,2.61,2.56,2.57,3.91-.08,7.82.02,11.72.05.13,1.43.83,2.62,1.58,3.8Z" style="fill: #2e5077; stroke-width: 0px;"/>
      <path d="m38.19,78.13c-1.21.73-2.55.47-3.83.42-1.76-.08-2.14.78-1.84,2.26,1.09,5.39,1.1,10.78.5,16.24-.22,2.03-.88,2.8-2.83,2.6-.74-.08-1.46.05-2.09.5.74-6.74.45-13.44-.8-20.1.18-.41.05-.73-.26-1.01-.02-.17-.03-.34-.05-.51.73,0,1.47,0,2.2-.01,2.82-.01,2.74,0,2.07-2.63-1.75-6.88-4.77-13.13-8.87-18.92-2.44-3.44-4.99-6.88-5.74-11.22,3.47-.02,6.94-.03,10.41-.05.96,0,1.96.13,2.76-.61,2.2,8.51,5.39,16.75,7.19,25.37.53,2.54,1.16,5.07,1.18,7.69Z" style="fill: #b43250; stroke-width: 0px;"/>
      <path d="m194.34,262.16c-3.09-.01-6.17-.03-9.26-.04,0-8.09-.02-16.17,0-24.26,0-2.8.43-3.19,3.32-3.24.49,0,.98.02,1.47-.03q4.53-.45,4.53,4.04c-.01,7.84-.03,15.68-.05,23.52Z" style="fill: #2d2d55; stroke-width: 0px;"/>
      <path d="m32.43,262.1c-2.95,0-5.9,0-8.84,0,0-8.34.03-16.68-.02-25.01-.01-1.94.13-3.31,2.68-2.52.9.28,1.95.05,2.93.06,2.99.04,3.26.3,3.26,3.19,0,8.09,0,16.19,0,24.28Z" style="fill: #2d2d55; stroke-width: 0px;"/>
      <path d="m184.15,45.83c-1.14-.05-2.28-.15-3.42-.15-33.83,0-67.65.01-101.48.01-1.06,0-2.12-.08-3.18-.12.25-.3.76-.66.71-.89-.18-.75-.92-.5-1.43-.5-13.96,0-27.92.02-41.88.03.63-1.18,1.74-.63,2.61-.63,20.53-.05,41.06-.08,61.6-.08,27.81,0,55.61.05,83.42.07.65,0,1.31.03,1.96,0,2.04-.07,2.4.67,1.1,2.24Z" style="fill: #b43250; stroke-width: 0px;"/>
      <path d="m160.41,23.64c-1.11-.9-2.23-1.8-3.78-3.05,3.92,0,7.31-.01,10.71,0,2.51.01,5.03-.04,7.52-.12,4.22-.12,8.92,3.84,10.05,8.3.81,3.21.65,6.48.61,9.74-.01,1.07-.46,1.72-1.6,1.72-7.36,0-14.71,0-22.07.03-1.32,0-1.34-.61-.79-1.52.58-.98,1.19-1.94,1.79-2.91,4.33,0,8.65,0,12.98,0,5.32-.02,4.83.51,4.83-4.9,0-3.87-2.2-6.62-6.02-7.48-3.7-.83-7.47-.24-11.21-.36-1.02-.03-2.14-.34-3.02.55Z" style="fill: #2e5077; stroke-width: 0px;"/>
      <path d="m16.66,45.74c.74,4.34,3.3,7.78,5.74,11.22,4.1,5.79,7.12,12.04,8.87,18.92.67,2.64.75,2.62-2.07,2.63-.73,0-1.47,0-2.2.01-1.78-7.56-6.26-13.48-11.43-19-3.63-3.88-4.23-8.64-3.82-13.67,1.63-.04,3.27-.09,4.9-.13v.02Z" style="fill: #582148; stroke-width: 0px;"/>
      <path d="m160.41,23.64c.88-.89,2-.58,3.02-.55,3.74.11,7.51-.48,11.21.36,3.82.86,6.02,3.62,6.02,7.48,0,5.41.49,4.88-4.83,4.9-4.32.02-8.65,0-12.98,0,.93-4.42.36-8.53-2.45-12.2Z" style="fill: #477994; stroke-width: 0px;"/>
      <path d="m191.26,78.43c-5.13.29-5.06.31-3.53-4.61,2.2-7.1,5.93-13.4,10.1-19.46,1.25-1.82,2.55-3.68,3.16-5.77.68-2.33,1.94-3.21,4.25-2.86.48.07.98.02,1.47.03.92,7.16-1.95,12.72-7.01,17.56-4.32,4.13-6.83,9.41-8.45,15.12Z" style="fill: #582148; stroke-width: 0px;"/>
      <path d="m33.91,175.74c4.26-.12,8.51-.39,12.77-.07-.06.87-.02,1.72.49,2.47-.91.5-1.85.94-2.72,1.5-2.89,1.88-2.98,4.37-.24,6.44.57.43,1.28.67,1.93,1,1.65,1.1,3.51,1.6,5.45,1.82,1.45.21,2.9.43,4.35.64-2.09.71-4.25.9-6.45.9-4.81,0-9.62.04-14.43.01-2.63-.01-3.36-.79-3.11-3.43.28-2.93,1.23-5.71,2.07-8.51.3-.98.54-1.88-.11-2.78Z" style="fill: #95f5f7; stroke-width: 0px;"/>
      <path d="m153.15,94.26c0,16.42-.03,32.85.05,49.27.01,2.09-.47,2.81-2.7,2.8-17.73-.09-35.46-.05-53.2-.07-.87,0-1.82.27-2.56-.48.05-.15.05-.3.01-.46.11-.14.22-.28.33-.41,17.41-.04,34.81-.07,52.22-.12,4.94-.02,4.33.63,4.34-4.24.02-14.63,0-29.26.03-43.89,0-1.02-.49-2.5,1.46-2.4Z" style="fill: #584062; stroke-width: 0px;"/>
      <path d="m52.53,168.4c-1.14-5.56,2.49-11.08,7.79-11.88,5.4-.81,10.41,3.39,10.87,9.13.07.89-.05,1.79-.07,2.68-6.19.02-12.39.04-18.59.06Zm9.25-10.12c-1.72.06-2.46.88-2.4,2.48.06,1.63.8,2.61,2.49,2.65,1.81.05,2.72-1.1,2.8-2.7.1-1.96-1.57-2.16-2.88-2.43Z" style="fill: #fa5658; stroke-width: 0px;"/>
      <path d="m140.5,82.91c-2.87-2.89-5.74-5.77-8.61-8.66,4.17-.04,8.34-.15,12.5-.09,2.59.04,4.35,1.98,4.35,4.58,0,3.73.27,7.48-.93,11.11-.73-.64-1.43-1.29-2.18-1.91-1.86-1.53-3.06-3.72-5.13-5.03Z" style="fill: #2d2d55; stroke-width: 0px;"/>
      <path d="m70.22,141.57c.37,1.08,1.3.78,2.06.79,2.35.03,4.71.01,7.07.03.59,0,1.31.11,1.34.76.04.83-.77.64-1.3.66-1.04.03-2.08,0-3.12.17,2.52.8,5.19-.26,7.68.73-4.09.01-8.18.03-12.27.04-.21-.12-.41-.32-.63-.35q-3.78-.58-3.78-4.4c0-14.38.01-28.76,0-43.14,0-1.59.15-3.08,1.4-4.37.9.85.53,1.88.53,2.77.03,14.46.01,28.92.04,43.38,0,.91-.43,2,.64,2.69.19-.02.3.07.34.25Z" style="fill: #2d2d55; stroke-width: 0px;"/>
      <path d="m50.66,183.08c1.3,1.08,2.89,1.45,4.49,1.65,5.51.7,11.04,1.14,16.41-.8,3.03-1.1,3.27-1.98,1.5-4.53.15-.06.32-.2.44-.16,2.19.73,5.33.94,5.52,3.6.19,2.66-2.95,2.96-4.93,3.5-7.36,2-14.82,1.87-22.28.47-.72-.13-1.44-.25-2.16-.38,0,0,.02.05.02.05-.41-.57-.83-.4-1.25-.01-.18,0-.36-.01-.53-.02-.54-.47-1.06-.98-1.63-1.41-2.48-1.85-2.42-2.9.24-4.48,1.27-.75,2.6-1.26,4.09-1.32,0,.21,0,.42-.01.62-.76,1.06-1.06,2.12.04,3.16l.06.04Z" style="fill: #fa5658; stroke-width: 0px;"/>
      <path d="m52.53,168.4c6.2-.02,12.39-.04,18.59-.06-.48,4.98-4.34,8.51-9.25,8.48-5.15-.04-8.95-3.47-9.33-8.42Z" style="fill: #b43250; stroke-width: 0px;"/>
      <path d="m162.56,75.19c3.54.01,7.09.02,10.63.03.46,3.29,1.03,6.58.63,9.93-3.79.09-7.58.4-11.36-.16.03-3.27.06-6.54.1-9.8Z" style="fill: #c0a19b; stroke-width: 0px;"/>
      <path d="m45.17,75.07c3.43.03,6.86.06,10.29.08.04,2.85.07,5.71.14,8.56.02,1-.34,1.55-1.39,1.55-2.94,0-5.88.03-8.82.03-.73,0-1.3-.19-1.24-1.1.18-3.06.13-6.15,1.02-9.13Z" style="fill: #c0a19b; stroke-width: 0px;"/>
      <path d="m53.63,39.71c-.75-1.18-1.45-2.37-1.58-3.8,0-2.18.05-4.36-.02-6.53-.06-2.14.04-4.2,1.51-5.93,5.23-1.44,10.46-1,15.68.05,1.43,1.43,1.7,3.18,1.6,5.13-.12,2.59-.04,5.19-.04,7.78-.39,1.48-1.12,2.75-2.24,3.8-4.97-.02-9.98.81-14.91-.49Zm15.23-4.16c.56-2.73.38-5.5.3-8.25-.06-2.1-1.53-2.84-3.73-2.15-2.5-.03-5.01-.06-7.51-.1-1.38-.02-2.53.43-3.41,1.51-.13.16-.25.32-.38.49-.35,2.75-.13,5.51-.07,8.27.04,1.94,1.16,3.09,2.97,3.25,2.98.27,5.99.44,8.97-.19.95-.2,1.94-.37,2.36-1.44.45-.35.43-.88.5-1.37Z" style="fill: #c0a19b; stroke-width: 0px;"/>
      <path d="m130.13,23.54c4.3-.72,8.63-.42,12.95-.44-3.12,3.56-4.1,7.66-3.11,12.26-2.76.19-5.53.38-8.29.58-.04-2.37-.09-4.73-.1-7.1,0-1.9-.13-3.76-1.44-5.3Z" style="fill: #477994; stroke-width: 0px;"/>
      <path d="m111.37,175.47c-10.58,0-21.17,0-31.75.01-2.66-.1-5.31-.21-7.97-.31.1-1.07.87-1.72,1.53-2.43,13.41.04,26.81.08,40.22.13-.17.33-1.13.8.13.89.61.04,1.22-.01,1.83-.02,0,.36,0,.71,0,1.06-.96.07-1.98-.34-2.86.37-.38.1-.76.2-1.14.3Z" style="fill: #2e5077; stroke-width: 0px;"/>
      <path d="m16.65,45.72c-1.63.04-3.27.08-4.9.13-.1-5.29-.07-10.58-.35-15.86-.22-4.06,2.81-5.76,5.17-8.02.37,7.92.16,15.84.08,23.75Z" style="fill: #b43250; stroke-width: 0px;"/>
      <path d="m69.94,87.55c1.19-.04,2.38-.08,3.57-.12,0,0,.09.19.09.19-1.59,11.71-.8,23.45-.51,35.19-.04.59-.08,1.18-.11,1.76-1.7.37-2.35-.26-2.3-2.04.1-4,.04-8.01.03-12.02,0-.97.13-1.98-.57-2.81-.83-3.68-.24-7.42-.35-11.13-.09-3.01.09-6.02.15-9.03Z" style="fill: #c0a19b; stroke-width: 0px;"/>
      <path d="m155.87,23.06s.11.05.11.05c.21.15.41.3.62.45,0,0,.01,0,.01,0,.12.18.24.35.36.53,0,0,.08.09.08.09.18.12.36.23.55.35,0,0,0,0,0,0,.5,2.57.81,5.05-1.01,7.38-1.6,2.05-4.8,3.1-7.45,2.1-2.88-1.08-4.24-3.64-3.77-7.1.41-3.06,1.21-3.72,4.9-4.04-.2.35-.38.71-.59,1.05-.83,1.3-.15,2.33.62,3.31.56.71,1.37.95,2.18.48,1.05-.61,1.63-1.61,1.6-2.83-.01-.54-.3-1.08-.47-1.63.76-.07,1.51-.15,2.27-.22Z" style="fill: #faeebd; stroke-width: 0px;"/>
      <path d="m68.54,40.2c1.12-1.04,1.85-2.32,2.24-3.8,2.5-1.1,5.3,0,7.81-1.05h-.02c.16.16.31.32.47.49,4.67,3.57,7.57,3.54,10.41-.07.14-.14.28-.28.41-.43,0,0-.03,0-.03,0,1.36-.03,2.71-.06,4.07-.09.65,1.83.67,4.02,2.9,4.92l-28.25.02Z" style="fill: #2e5077; stroke-width: 0px;"/>
      <path d="m70.14,107.71c.7.84.57,1.84.57,2.81,0,4.01.07,8.01-.03,12.02-.05,1.79.6,2.41,2.3,2.04.06,2.85.15,5.69.17,8.54.04,5.7.22,5.91,5.96,6.39-1.11,1.26.79,1.25.85,2.02-3.24.29-6.49.15-9.73.04-.04-.18-.16-.26-.34-.25,0-10.33,0-20.66.02-30.98,0-.88-.22-1.79.25-2.63Z" style="fill: #f0ebd9; stroke-width: 0px;"/>
      <path d="m158.53,25.06c3.27,2.68,3.55,8.18.61,12.15-2.79,3.78-9.16,4.8-13.57,2.17-3.83-2.28-5.18-7.26-3.16-11.58.56.71.31,1.57.43,2.36.54,3.38,2.41,5.72,5.68,6.71,3.26.99,6.36.54,8.82-2.03,2.23-2.33,2.77-5.09,1.58-8.15-.2-.52-.27-1.09-.4-1.64Z" style="fill: #b43250; stroke-width: 0px;"/>
      <path d="m158.53,25.06c.13.55.2,1.12.4,1.64,1.19,3.06.65,5.82-1.58,8.15-2.46,2.56-5.55,3.02-8.82,2.03-3.27-.99-5.14-3.33-5.68-6.71-.13-.79.13-1.65-.43-2.36,2.53-6.05,8.65-8.21,13.45-4.74-.76.07-1.51.15-2.27.22-1.11-.13-2.22-.26-3.33-.39-3.69.31-4.49.97-4.9,4.04-.46,3.46.9,6.01,3.77,7.1,2.66,1,5.85-.04,7.45-2.1,1.82-2.33,1.51-4.81,1.01-7.38.1-.13.21-.14.34-.03.21.19.41.37.61.56,0,0-.02-.01-.02-.01Z" style="fill: #f1bb7c; stroke-width: 0px;"/>
      <path d="m174.67,93.8c-3.1-.32-6.15.48-9.24.38-.98-.03-1.96.05-2.88-.38-.01-2.29-.03-4.58-.04-6.86,3.77-.06,7.53-.13,11.3-.19,1.32,2.23.69,4.69.87,7.06Z" style="fill: #c0a19b; stroke-width: 0px;"/>
      <path d="m55.51,93.75c-4.04.03-8.08.05-12.12.08q-.16-6.99,6.62-7.01,5.75-.02,5.63,5.72c0,.4-.09.8-.14,1.21Z" style="fill: #c0a19b; stroke-width: 0px;"/>
      <path d="m130.13,23.54c1.32,1.54,1.43,3.4,1.44,5.3.01,2.37.07,4.73.1,7.1-.71,1.24-1.01,2.77-2.51,3.43-.81,0-1.73-.29-2.08.84-.93,0-1.87,0-2.8,0-.05-.58-.11-1.17-.16-1.75,1.33-.33,2.81.1,4.03-.79,1.86-1.96,2.49-9.28.95-11.35-.17-.23-.55-.31-.83-.46-2.49-.86-5.04-.33-7.57-.29-6.93,0-13.86,0-20.79-.01-.64-.14-1.19.06-1.7.43-.21.01-.42.02-.63.03-.02-.13,0-.25.08-.35.17-.21.34-.41.51-.62,0,0,.02-.01.02-.01,9.99,0,19.97,0,29.96,0,0-.25,0-.49,0-.74h-18.72c1.02-.62,2.16-.6,3.29-.6,4.45,0,8.9,0,13.35-.04.85,0,1.8.3,2.51-.5.51.12,1.02.25,1.53.37Z" style="fill: #c0a19b; stroke-width: 0px;"/>
      <path d="m124.12,38.47c.05.58.11,1.17.16,1.75-9.16-.01-18.33-.03-27.49-.04-2.23-.89-2.26-3.09-2.9-4.92.53-2.04.31-4.13.41-6.2.86,1.86.33,3.83.38,5.74.05,1.72.66,2.61,2.44,2.51.19.01.39.03.58.04l-.02-.02c.73,1.43,2.11,1,3.24,1.01,7.73.08,15.47.09,23.21.13Z" style="fill: #6dc1cb; stroke-width: 0px;"/>
      <path d="m71.69,144.75c4.09-.01,8.18-.03,12.27-.04,3.27,0,6.55.01,9.82.02.16,0,.32,0,.48.01.28.06.56.12.84.18-.11.14-.22.28-.33.41-9.13,0-18.25,0-27.38,0,0,.16,0,.31,0,.47h26.93c-.74.95-1.79.55-2.71.55-8.6.03-17.2.03-25.8.03-.17,0-.34.01-.51.02-.16-.05-.33-.09-.49-.14.05-6.05.09-12.1.14-18.15,1.21-.39.75-1.42.85-2.22.24-2.03-.5-4.14.45-6.12.05,7.32.22,14.64.08,21.95-.05,2.54.62,3.55,3.17,3.11.71-.12,1.46-.07,2.19-.1Z" style="fill: #f0ebd9; stroke-width: 0px;"/>
      <path d="m79.95,141.52c-.06-.77-1.96-.76-.85-2.02.43-.19.85-.37,1.28-.56,6.29.05,12.58.09,18.86.14-.38.9-.97,1.56-1.96,1.79-.25.19-.5.38-.75.57-5.53.53-11.06.37-16.59.08Z" style="fill: #c0a19b; stroke-width: 0px;"/>
      <path d="m33.46,44.21c13.96-.02,27.92-.03,41.88-.03.52,0,1.25-.25,1.43.5.06.22-.46.59-.71.89-1.29,0-2.57,0-3.86,0-1.82-.63-3.64-.62-5.47-.02-1.12,0-2.24,0-3.36-.01-1.66-.58-3.33-.59-4.99.02-8.01.41-16.03-.91-24.04.15,0,0,.08-.14.08-.14-.09-.51-.38-.85-.9-.96-.09-.12-.12-.26-.09-.4Z" style="fill: #fa5658; stroke-width: 0px;"/>
      <path d="m129.16,39.36c1.5-.65,1.8-2.19,2.51-3.43,2.76-.19,5.53-.38,8.29-.58.86,1.52,1.72,3.05,2.78,4.92-4.84-.13-9.33.3-13.82-.25.08-.22.16-.45.24-.67Z" style="fill: #2e5077; stroke-width: 0px;"/>
      <path d="m195.33,154c.11,1.52.04,3.04.49,4.55.22.73.53,1.77-.46,2.4.34-1.96-.52-2.55-2.43-2.45-2.75.15-5.51.07-8.27.08-.17-1.55-.35-3.11-.52-4.66,3.73.35,7.46.15,11.19.08Z" style="fill: #b43250; stroke-width: 0px;"/>
      <path d="m97.29,140.88c.99-.23,1.58-.9,1.96-1.79.3-.22.6-.44.89-.66,3.58,0,7.17-.01,10.75.04.75.01,1.84-.47,2.18.47.25.71-.78,1.13-1.19,1.71-.18.26-.32.56-.47.84-4.74.6-9.47.6-14.19-.13.02-.16.05-.32.07-.47Z" style="fill: #2e5077; stroke-width: 0px;"/>
      <path d="m140.5,82.91c2.07,1.31,3.27,3.5,5.13,5.03.74.61,1.45,1.27,2.18,1.91.56,1.58.61,3.21.46,4.85-.19.16-.38.33-.57.49-1.64.14-1.57,2.17-3.4,2.86.68-5.65-2.67-10.07-3.79-15.14Z" style="fill: #2e5077; stroke-width: 0px;"/>
      <path d="m50.56,179.87c0-.21,0-.42.01-.62.15-.42.3-.84.45-1.25-.03-1.34.99-.55,1.53-.74,1.06,1.66,2.5,2.58,4.54,2.45,1.67-.1.83,2.23,2.27,2.39l.09.08c.13.13.26.26.39.38l.09.09c.62,1.06,2.92-.29,2.6,1.28-.28,1.37-1.94.09-2.96.2-3.06.32-5.92-.85-8.9-1.06,0,0-.06-.04-.06-.04-.01-1.05-.03-2.1-.04-3.16Z" style="fill: #2d2d55; stroke-width: 0px;"/>
      <path d="m74.05,169.87c13.94,0,27.88,0,41.82-.01-.15.34-.3.67-.45,1.01-.17.01-.33.03-.5.04-13.27.02-26.54.04-39.82.06-.47-.14-.9-.34-1.07-.87l-.07-.12.09-.11Z" style="fill: #f1bb7c; stroke-width: 0px;"/>
      <path d="m170.51,152.13c-.48-9.3-.97-18.6-1.45-27.91.22,0,.44,0,.65,0,.84,7.36,1.69,14.71,2.53,22.07-1.76,1.6-1.17,3.9-1.74,5.85Z" style="fill: #2d2d55; stroke-width: 0px;"/>
      <path d="m22.59,158.53c.19-1.18-.13-2.43.42-3.56,3.58-.07,7.19.51,10.73-.41-.13,1.33-.26,2.67-.39,4-3.59-.01-7.18-.02-10.76-.03Z" style="fill: #b43250; stroke-width: 0px;"/>
      <path d="m44.72,159.04c.08-2.97.36-5.92.97-8.83.75-.77.6-1.59.13-2.42-.1-.52-.06-1.01.26-1.45.99-1.1.73-2.27.23-3.46,0-.34-.02-.68-.03-1.01,1.63-.35.33-2.05,1.25-2.78.41,1.76-.37,3.57.52,5.22.12,5.55-.7,11.09-.27,16.65-.62-.33-.59-.92-.61-1.49-.02-.76-.07-1.54-.98-1.76-1.08-.26-.9.97-1.47,1.33Z" style="fill: #2d2d55; stroke-width: 0px;"/>
      <path d="m66.25,119.78c-.96,1.98-.22,4.08-.45,6.12-.09.81.36,1.84-.85,2.22,0-10.96,0-21.91,0-32.87.45,0,.89,0,1.34.01,0,.31-.01.63-.02.95-.95,1.83-.46,3.79-.42,5.67.08,3.18-.6,6.41.4,9.55.23,2.78.23,5.57,0,8.35Z" style="fill: #faeebd; stroke-width: 0px;"/>
      <path d="m22.59,158.53c3.59.01,7.18.02,10.76.03.31,2.05-.4,3.05-2.65,2.88-2.03-.16-4.08-.06-6.12-.06-2.01,0-3.01-.72-2-2.85Z" style="fill: #fa5658; stroke-width: 0px;"/>
      <path d="m34.32,148.77c.04.85.14,1.71-.31,2.5-3.61-.01-7.21-.02-10.82-.03.05-1.13-.21-2.29.22-3.4.32,1.27,1.37.89,2.18.9,2.91.04,5.82.02,8.72.02Z" style="fill: #fa5658; stroke-width: 0px;"/>
      <path d="m194.81,148.74c0,.83.01,1.65.02,2.48-.31.04-.62.08-.94.11-2.45-.15-4.9-.25-7.35.1-.33,0-.66,0-.98,0-.49-.04-.98-.07-1.47-.11-.14-.89-.27-1.78-.41-2.68,3.71.03,7.42.06,11.13.09Z" style="fill: #fa5658; stroke-width: 0px;"/>
      <path d="m55.6,149.25c-.87-.67-.58-1.64-.58-2.5-.01-16.73-.01-33.46,0-50.19,0-.79-.23-1.65.48-2.31.05,2.28.15,4.55.15,6.83,0,16.05-.03,32.11-.05,48.16Z" style="fill: #f0ebd9; stroke-width: 0px;"/>
      <path d="m184.66,158.58c2.76-.01,5.52.07,8.27-.08,1.91-.11,2.77.48,2.43,2.45-.4.42-.92.42-1.44.38-.89-.57-1.88-.27-2.83-.32-2.16-.12-4.36.33-6.46-.52l.03-1.91Z" style="fill: #fa5658; stroke-width: 0px;"/>
      <path d="m74.03,170.1c.17.52.6.72,1.07.87.98,1.43,2.63,1.26,3.94,1.27,11.36.11,22.72.06,34.07.07,1.01,0,1.81-.14,1.8-1.4.17-.01.33-.03.5-.04-.02.62-.04,1.25-.06,1.87-.65.04-1.3.08-1.95.12-13.41-.04-26.81-.08-40.22-.13.28-.88.56-1.76.85-2.64Z" style="fill: #f0ebd9; stroke-width: 0px;"/>
      <path d="m148.17,139.34c-.56-.62-.39-1.39-.39-2.11-.01-12.74-.01-25.49,0-38.23,0-.79-.21-1.66.49-2.31-.03,14.22-.06,28.43-.09,42.65Z" style="fill: #5da8b3; stroke-width: 0px;"/>
      <path d="m71.65,175.17c2.66.1,5.31.21,7.97.31q-2.42,1.16-.66,3.77c-2.91-1.1-5.88-1.96-9.19-2.14.42-1.06,1.07-1.58,1.89-1.94Z" style="fill: #6dc1cb; stroke-width: 0px;"/>
      <path d="m23.19,151.24c3.61,0,7.21.02,10.82.03-.05.8-.11,1.61-.16,2.41-.16.02-.32,0-.48-.05-2.08-1-4.31-.96-6.53-.92-.83.02-1.83-.35-2.35.73-.42.04-.83.07-1.25.11-.09-.44-.17-.88-.26-1.32l.21-.99Z" style="fill: #faeebd; stroke-width: 0px;"/>
      <path d="m173.8,86.74c-3.77.06-7.53.13-11.3.19-.02-.65-.03-1.29-.05-1.94,3.78.55,7.57.25,11.36.16,0,.53-.01,1.06-.02,1.59Z" style="fill: #2d2d55; stroke-width: 0px;"/>
      <path d="m195.33,154c-3.73.07-7.46.27-11.19-.08,0-.45.02-.89.03-1.33,3.68,0,7.35.02,11.03.03.05.46.09.92.14,1.39Z" style="fill: #f1bb7c; stroke-width: 0px;"/>
      <path d="m194.81,148.74c-3.71-.03-7.42-.06-11.13-.09-.01-.41-.03-.83-.04-1.24,3.62-.06,7.25-.13,10.87-.19.43.44.34.98.3,1.52Z" style="fill: #f0ebd9; stroke-width: 0px;"/>
      <path d="m59.36,182.1c.03-2.8,1.55-3.83,4.17-2.89.84.3.83.9.82,1.56-.01.87-.18,1.7-1.24,1.8-1.05.1-2.12.06-3.18.09,0,0-.09-.09-.09-.08-.13-.13-.26-.26-.39-.38l-.09-.08Z" style="fill: #582148; stroke-width: 0px;"/>
      <path d="m23.24,153.56c.42-.04.83-.07,1.25-.11,2.95.44,5.92.25,8.88.19.15.06.31.08.48.05-.03.29-.07.59-.1.88-3.55.92-7.15.34-10.73.41-.08-.43-.16-.85-.25-1.27.16-.05.32-.09.47-.14Z" style="fill: #fa5658; stroke-width: 0px;"/>
      <path d="m52.55,177.25c-.54.19-1.55-.6-1.53.74-1.31-.67-2.56.23-3.85.15-.51-.75-.55-1.6-.49-2.47,1.96-.39,3.92-.06,5.88.02.38.09.82.14.88.65.08.66-.46.74-.9.91Z" style="fill: #cefafd; stroke-width: 0px;"/>
      <path d="m34.32,148.77c-2.91,0-5.82.02-8.72-.02-.82-.01-1.86.37-2.18-.9.06-.19.12-.38.19-.56,3.6-.02,7.19-.03,10.79-.05-.02.51-.05,1.02-.07,1.53Z" style="fill: #f0ebd9; stroke-width: 0px;"/>
      <path d="m65.02,94.54c-.06-.26-.13-.52-.19-.77.04-2.98-.31-5.99.96-8.88.45,3.13,1.07,6.24.47,9.43-.41.08-.82.15-1.24.23Z" style="fill: #584062; stroke-width: 0px;"/>
      <path d="m195.19,152.61c-3.68,0-7.35-.02-11.03-.03,0-.27-.01-.53-.02-.8.47-.12.94-.23,1.41-.35.33,0,.66,0,.98,0,2.46.39,4.91.42,7.35-.1.31-.04.62-.08.94-.11.12.46.24.93.36,1.39Z" style="fill: #faeebd; stroke-width: 0px;"/>
      <path d="m47.87,186.46c.18,0,.36.01.53.02.42,0,.83,0,1.25.01,0,0-.02-.05-.02-.05.45.75,1.21.88,1.97,1.1,1.55.44.2.92-.02,1.38-1.94-.23-3.8-.73-5.45-1.82.42-.64,1.11-.55,1.73-.63Z" style="fill: #2d2d55; stroke-width: 0px;"/>
      <path d="m66.25,111.43c-1-3.14-.32-6.37-.4-9.55-.05-1.88-.53-3.85.42-5.67.19,5.07.25,10.15-.01,15.22Z" style="fill: #f0ebd9; stroke-width: 0px;"/>
      <path d="m184.62,160.49c2.1.84,4.3.4,6.46.52.95.05,1.94-.25,2.83.32-2.52.43-5.05.14-7.58.16-.73,0-1.51-.04-1.72-1Z" style="fill: #b43250; stroke-width: 0px;"/>
      <path d="m73.01,161.16c3,.08,6.01-.46,8.99.22-3,.05-6.01.52-8.99-.22Z" style="fill: #c0a19b; stroke-width: 0px;"/>
      <path d="m129.16,39.36c-.08.22-.16.45-.24.67-.61.06-1.22.12-1.83.18.35-1.13,1.27-.85,2.08-.84Z" style="fill: #6dc1cb; stroke-width: 0px;"/>
      <path d="m65.02,94.54c.41-.08.82-.15,1.24-.23.01.31.02.63.03.94-.45,0-.89,0-1.34-.01-.04-.17-.08-.34-.12-.52.12,0,.19-.06.19-.19Z" style="fill: #f0ebd9; stroke-width: 0px;"/>
      <path d="m185.56,151.44c-.47.11-.94.23-1.41.35-.11-.14-.13-.3-.05-.46.49.04.98.08,1.47.11Z" style="fill: #f1bb7c; stroke-width: 0px;"/>
      <path d="m44.11,160.96c.17-.52-.19-1.22.52-1.56,0,.58.12,1.19-.52,1.56Z" style="fill: #2d2d55; stroke-width: 0px;"/>
      <path d="m33.55,44.62c.52.11.8.45.9.96-.65.01-.72-.53-.9-.96Z" style="fill: #b43250; stroke-width: 0px;"/>
      <path d="m23.24,153.56c-.16.05-.32.09-.47.14-.18-.52-.16-1.02.21-1.46.09.44.17.88.26,1.32Z" style="fill: #b43250; stroke-width: 0px;"/>
      <path d="m36.55,329.35c.36.47.33,1,.19,1.53-.42-.47-.4-.99-.19-1.53Z" style="fill: #b43250; stroke-width: 0px;"/>
      <path d="m27.04,79.02c.31.28.44.61.26,1.01-.09-.34-.18-.68-.26-1.01Z" style="fill: #582148; stroke-width: 0px;"/>
      <path d="m173.15,153.66c.02.32.05.64.07.95-.38-.29-.47-.6-.07-.95Z" style="fill: #2d2d55; stroke-width: 0px;"/>
      <path d="m172.67,149.73c.02.32.05.64.07.95-.39-.29-.47-.6-.07-.95Z" style="fill: #2d2d55; stroke-width: 0px;"/>
      <path d="m147.69,95.19c.19-.16.38-.33.57-.49,0,.35,0,.69,0,1.04-.19-.18-.38-.36-.57-.54Z" style="fill: #5da8b3; stroke-width: 0px;"/>
      <path d="m78.99,179.27c.41-.02.73.11.88.53-.37-.05-.71-.14-.88-.53Z" style="fill: #6dc1cb; stroke-width: 0px;"/>
      <path d="m79.92,179.84c.18.13.35.26.53.39-.18-.13-.35-.26-.53-.39Z" style="fill: #6dc1cb; stroke-width: 0px;"/>
      <path d="m74.52,165.05c-.05.16-.16.24-.32.25-.04-.27.08-.34.32-.25Z" style="fill: #f1bb7c; stroke-width: 0px;"/>
      <path d="m17.17,166.4c-.18.16-.36.31-.54.47-.04-.41.27-.42.54-.47Z" style="fill: #faeebd; stroke-width: 0px;"/>
      <path d="m158.55,25.07c-.2-.19-.41-.37-.61-.56.35.02.57.2.61.56Z" style="fill: #b43250; stroke-width: 0px;"/>
      <path d="m157.6,24.54c-.18-.12-.36-.23-.55-.35.19-.01.39-.03.58-.04.1.14.08.27-.04.39Z" style="fill: #f1bb7c; stroke-width: 0px;"/>
      <path d="m157.64,24.15c-.19.01-.39.03-.58.04,0,0-.08-.09-.08-.09,0-.18.01-.36.02-.54.35.04.57.24.65.59Z" style="fill: #b43250; stroke-width: 0px;"/>
      <path d="m156.99,23.56c0,.18-.01.36-.02.54-.12-.18-.24-.35-.36-.53.12-.08.25-.08.38-.01Z" style="fill: #f1bb7c; stroke-width: 0px;"/>
      <path d="m156.6,23.56c-.21-.15-.41-.3-.62-.45.33-.02.56.09.62.45Z" style="fill: #f1bb7c; stroke-width: 0px;"/>
      <path d="m94.26,144.73c-.16,0-.32,0-.48-.01.16-.23.32-.22.48.01Z" style="fill: #2d2d55; stroke-width: 0px;"/>
      <path d="m97.29,140.88c-.02.16-.05.32-.07.47-.22.03-.45.07-.67.1.25-.19.5-.38.75-.57Z" style="fill: #f0ebd9; stroke-width: 0px;"/>
      <path d="m55.43,277.83c.04-3.02.1-6.04.13-9.06.06-6.02,3.64-9.64,9.6-9.66,8.42-.02,16.84-.03,25.25-.01,5.37,0,9.3,3.84,9.33,9.22.04,6.78-.05,13.57-.06,20.35,0,.97.11,1.95.16,2.92,0,3.59-.02,7.17-.03,10.76-.02.82-.05,1.64-.07,2.46-.97,5.07-3.92,7.85-8.99,7.95-8.56.16-17.13.23-25.69.09-6.02-.1-9.42-3.79-9.46-9.82-.04-7.42,0-14.85-.02-22.27,0-.97-.11-1.95-.16-2.92Zm40.71-6.37c.03-1.14.13-2.29.08-3.42-.14-2.92-2.62-5.44-5.56-5.46-8.66-.06-17.32-.07-25.98,0-3.25.03-5.25,2.19-5.33,5.46-.03.97.08,1.95.12,2.93-.04,10.96-.15,21.92-.09,32.87.02,3.28,2.41,5.35,5.79,5.37,8.18.05,16.36.06,24.54.03,4.06-.01,6.43-2.31,6.45-6.38.04-10.47,0-20.94-.02-31.41Z" style="fill: #1d1941; stroke-width: 0px;"/>
      <path d="m125.09,277.85c.04-2.53.05-5.06.13-7.59.12-4.28,3.02-7.22,7.31-7.25,7.68-.06,15.36-.05,23.04,0,4.05.03,6.84,2.88,6.92,6.98.06,2.78.06,5.55.08,8.33-.02,8.58-.04,17.16-.05,25.74,0,5.7-3,8.72-8.74,8.76-6.54.05-13.07.13-19.61.11-6-.02-8.97-3.08-9-9.1-.04-8.66-.05-17.32-.08-25.98Zm3.97,14.1c-.71.66-.42,1.53-.42,2.31.02,3.17.07,6.35.16,9.52.11,3.69,1.99,5.51,5.69,5.51,6.2,0,12.39-.03,18.59-.08,4.02-.03,5.67-1.56,5.77-5.57.1-3.83.02-7.66.02-11.49.05-7.25.14-14.49.12-21.74,0-2.41-1.42-3.7-3.84-3.87-.87-.61-1.88-.44-2.83-.44-5.28.01-10.55.04-15.83.09-1.29.01-2.61-.17-3.84.41-2.94.39-3.55,1.02-3.56,3.82-.02,7.18-.02,14.35-.03,21.53Z" style="fill: #1d1941; stroke-width: 0px;"/>
      <path d="m99.74,304.81c.02-.82.05-1.64.07-2.46.48.83.49,1.65-.07,2.46Z" style="fill: #b43250; stroke-width: 0px;"/>
      <path d="m8.42,198.24c4.41,2.88,9.1,5.12,14.33,6.07,2.82.51,5.68.68,8.54.69,52.09.02,104.18.02,156.28.01,8.25,0,15.75-2.44,22.51-7.18-1.25,8.86-5.94,15.2-14.03,18.95-3.05,1.41-6.32,2.12-9.72,2.12-51.41,0-102.81.01-154.22-.01-11.66,0-20.85-7.39-23.52-18.73-.15-.62-.11-1.29-.16-1.93Zm158.98,18.37s0-.03,0-.04c3.83,0,7.66.07,11.49-.03,2.6-.07,4.24-1.56,4.19-3.5-.06-1.88-1.64-3.29-4.11-3.31-7.58-.06-15.16-.03-22.74-.01-1.08,0-2.13.22-2.9,1.07-.88.97-1.28,2.06-.76,3.37.65,1.62,1.87,2.44,3.58,2.46,3.75.03,7.5.01,11.25.01Z" style="fill: #fa5658; stroke-width: 0px;"/>
      <path d="m111.91,8.77c24.12,0,48.23-.01,72.35.03,1.3,0,3.52-.77,3.54,1.37.02,2.37-2.3,1.53-3.67,1.53-47.66.03-95.32.05-142.98-.04-4.79,0-8.16,1.79-10.44,5.89-.52.93-1.13,2.06-2.44,1.31-1.36-.78-.85-1.9-.19-2.95,2.95-4.68,6.87-7.28,12.7-7.24,23.71.14,47.41.06,71.12.06v.04Z" style="fill: #faeebd; stroke-width: 0px;"/>
      <path d="m169.72,124.22c-.22,0-.44,0-.65,0-.36-1.52-.12-3.05.09-4.6.19,1.53.37,3.06.56,4.59Z" style="fill: #584062; stroke-width: 0px;"/>
      <path d="m100.14,138.42c-.3.22-.6.44-.89.66-6.29-.04-12.58-.09-18.86-.14.58-.79,1.11-1.61,1.73-2.36,4.84-5.82,9.7-11.63,14.54-17.45,5.01-6,10.08-11.96,15-18.04,3.57-4.42,7.44-8.61,10.51-13.43,5.1-.1,10.19-.19,15.29-.29,2.16.31,1.66,1.25.68,2.5-9.53,12.12-19.03,24.25-28.53,36.39-3.16,4.04-6.31,8.1-9.46,12.15Z" style="fill: #95f5f7; stroke-width: 0px;"/>
      <path d="m144.45,98.83c.6,1.06.37,1.88.37,2.66.02,9.48.04,18.95-.02,28.43-.01,2.03-.22,4.06-.51,6.07-.23,1.54-1.28,2.44-2.89,2.44-8.98.01-17.96,0-27.52,0,10.32-13.37,20.36-26.38,30.57-39.61Z" style="fill: #5da8b3; stroke-width: 0px;"/>
      <path d="m137.46,87.39c-5.1.1-10.19.19-15.29.29-6.69-.44-13.37.11-20.05.14-.22-.1-.44-.28-.66-.28-9.28.02-18.57.06-27.85.09,0,0-.09-.19-.09-.19.25-1.11.11-2.25.49-3.37,1.25-3.7,2.29-4.52,6.19-4.53,15.99,0,31.99.03,47.98-.04,1.86,0,3.33.4,4.5,1.86,1.6,2,4.17,3.23,4.78,6.03Z" style="fill: #5da8b3; stroke-width: 0px;"/>
      <path d="m162.11,169.94c3.21-.65,6.43-1.12,9.64-.01.69.44,1.38.87,2.07,1.31.14.48.29.96.43,1.44-.23.33-.48.66-.69,1-1.71,2.81-4.53,3.08-7.31,2.86-2.64-.21-4.92-1.33-5.43-4.4.03-.43.05-.87.08-1.3.4-.3.8-.59,1.2-.89Zm5.23,4.26c1-.17,2.25-.3,2.26-1.44,0-1.41-1.39-1.68-2.51-1.73-.99-.04-2.11.36-2.06,1.57.05,1.34,1.27,1.46,2.32,1.6Z" style="fill: #fa5658; stroke-width: 0px;"/>
      <path d="m64.83,94.73c.04.17.08.34.12.52,0,10.96,0,21.91,0,32.87-.05,6.05-.09,12.1-.14,18.15-.73-.75-.46-1.69-.46-2.56-.02-15.48-.02-30.95,0-46.43,0-.87-.27-1.81.48-2.55Z" style="fill: #1d1941; stroke-width: 0px;"/>
      <path d="m94.32,145.8h-26.93c0-.16,0-.31,0-.47,9.13,0,18.25,0,27.38,0,.04.15.04.3-.01.46,0,0-.22.02-.22.02h-.22Z" style="fill: #c0a19b; stroke-width: 0px;"/>
      <path d="m65.3,146.41c.17,0,.34-.01.51-.02-.16.23-.33.25-.51.02Z" style="fill: #584062; stroke-width: 0px;"/>
      <path d="m48.05,144.3c-.9-1.65-.12-3.46-.52-5.22-.92.73.38,2.43-1.25,2.78.68-5.42,1.36-10.83,2.04-16.25.21.02.42.04.63.05l-.89,18.64Z" style="fill: #1d1941; stroke-width: 0px;"/>
      <path d="m49.06,118.49v6.93c-.25-.02-.5-.04-.75-.06.09-2.31.3-4.61.75-6.87Z" style="fill: #584062; stroke-width: 0px;"/>
      <path d="m46.3,142.87c.5,1.19.77,2.37-.23,3.46.08-1.15.15-2.31.23-3.46Z" style="fill: #1d1941; stroke-width: 0px;"/>
      <path d="m45.82,147.78c.47.83.62,1.65-.13,2.42.04-.81.09-1.62.13-2.42Z" style="fill: #1d1941; stroke-width: 0px;"/>
      <path d="m174.73,175.66c3.27-.37,6.53-.11,9.78.16-1.13.4-1.28.95-.82,2.17,1.13,3.04,2.6,6.01,2.38,9.41-.13,1.97-1.11,3.06-3.07,3.06-18.72,0-37.43-.01-56.15-.05-.38,0-.76-.22-1.14-.34,5.33-1.88,6.03-3.31,3.84-7.93-.27-1.16,1.53-3.32-1.52-3.12-.07-.43-.15-.85-.22-1.28.38-.72-.28-1.28-.34-2.15h6.99c.56.21,1.1.24,1.6-.15.91.8.02,1.87.4,2.75-.42.9-.92,1.73-1.95,2.06-.83.17-2.07-.14-2.32.8-.29,1.1.7,1.91,1.55,2.56,1.18.89,2.54,1.43,3.93,1.89,6.35,2.11,12.94,2.41,19.55,2.41,5.11,0,10.23-.15,15.16-1.82,1.94-.27,3.76-.97,5.32-2.12,1.18-.87,2.13-2.6.53-3.32-2.38-1.07-2.88-2.95-3.49-4.98Z" style="fill: #95f5f7; stroke-width: 0px;"/>
      <path d="m129.55,182.14c2.19,4.62,1.5,6.05-3.84,7.93-3.13.48-6.25.56-9.38,0-.6-.22-1.22-.39-1.79-.66-3.56-1.7-3.91-4.16-1.05-7.31.47-.18.94-.72,1.41,0-2,2.58-2.02,3.71.33,4.86,3.93,1.93,8.02,1.99,11.97.04,2.24-1.11,2.29-2.64.43-4.28.02-.4.03-.8.05-1.2.63.21,1.25.41,1.88.62Z" style="fill: #1d1941; stroke-width: 0px;"/>
      <path d="m33.38,197.22c19.94,0,39.89,0,59.83,0,29.76,0,59.51-.04,89.27.03,2.04,0,4-.43,6.01-.45-.17,1.2-1.1,1-1.89,1.01-2.21.02-4.41,0-6.62,0-47.79,0-95.58,0-143.36-.03-1.09,0-2.31.45-3.24-.57Z" style="fill: #f0ebd9; stroke-width: 0px;"/>
      <path d="m160.83,172.13c.51,3.07,2.79,4.19,5.43,4.4,2.78.22,5.6-.05,7.31-2.86.21-.34.46-.67.69-1,.18.07.36.14.54.21-.19.77-.37,1.54-.56,2.31q-2.14,1.6-.93,2.56c-3.03,2.18-6.29,2.21-9.74,1.2-.82-.24-1.68-1.21-2.65-.25-.52-1.61,1.58-3.67-.85-4.96-.32-.31-.63-.62-.95-.93.57-.23,1.14-.46,1.71-.69Z" style="fill: #582148; stroke-width: 0px;"/>
      <path d="m66.74,45.55c1.83-.6,3.65-.62,5.47.02-1.82.21-3.65.22-5.47-.02Z" style="fill: #b43250; stroke-width: 0px;"/>
      <path d="m58.4,45.56c1.66-.61,3.32-.6,4.99-.02-1.66.24-3.32.24-4.99.02Z" style="fill: #b43250; stroke-width: 0px;"/>
      <path d="m139.48,169.87c3.61-1.07,7.17-.92,10.67.47.19.32.38.63.56.95.17.49.35.97.52,1.46-.04.13-.09.26-.14.39-.85,1.97-2.44,2.78-4.48,3.2-2.03.42-4.04.2-6.05.24l-.08-.02c-.23-.37-.61-.41-.99-.42v.02c-.15-.17-.32-.35-.48-.52-.16-.31-.32-.62-.48-.93-.2-.72-.39-1.44-.59-2.16.12-.55.24-1.11.36-1.66.4-.34.79-.67,1.19-1.01Zm4.73,3.95c.91-.1,2.3.23,2.5-1.16.21-1.44-1.23-1.57-2.2-1.7-.99-.13-2.03.18-2.17,1.43-.14,1.28.82,1.39,1.87,1.42Z" style="fill: #fa5658; stroke-width: 0px;"/>
      <path d="m115.35,172.74c.02-.63.04-1.25.06-1.87.15-.34.3-.67.45-1.01,1.17-1.48,2.5-2.74,4.47-3.02,3.76-.54,6.3,1.64,6.91,5.92-.76-.57-1.14-3.28-2.49-.43-.18-.81-.18-1.71-1.07-2.17-.26-.26-.52-.52-.78-.79-.46-.61-1.09-.6-1.75-.45-.6-.07-1.21-.18-1.69.35-1.44.6-1.7,1.82-1.7,3.19,0,2.85-.04,5.7-.02,8.54.02,2.9.62,3.4,3.7,3.22.21,0,.42,0,.63-.01.45-.05.91-.1,1.36-.15,0,0,.17-.12.17-.12.15-.15.31-.3.46-.44,1.08-.07,1.56-2.51,3.1-.8-.41.59-.73,1.28-1.25,1.75-2.23,2.02-4.91,1.83-7.57,1.27-1.84-.39-2.96-1.59-3.06-3.57.75.55,1.56,1.27,1.54-.51-.01-1.53,0-3.05,0-4.58,0-1-.32-1.74-1.47-1.8l-.02-.03c.02-.15.03-.29.02-.44,0-.36,0-.71,0-1.06,0-.33-.01-.66-.02-.99Z" style="fill: #1d1941; stroke-width: 0px;"/>
      <path d="m134.45,175.58h-6.99c.07.87.73,1.44.34,2.15-1.06-.08-2.2,0-2.1-1.64.07-1.12-.27-2.4,1.57-2.35.6.02.52-.46.38-.87,3.22-.02,6.43-.03,9.65-.05.18.64.36,1.28.54,1.92,0,1.12,0,2.23.01,3.35-.47.03-.94.05-1.4.08-.38-.88.51-1.95-.4-2.75-.55-.13-1.09-.14-1.6.15Z" style="fill: #2e5077; stroke-width: 0px;"/>
      <path d="m127.65,172.88c.15.41.23.88-.38.87-1.84-.05-1.5,1.23-1.57,2.35-.1,1.63,1.04,1.56,2.1,1.64.07.43.15.85.22,1.28-1.39.66-.39,1.65-.36,2.51-.02.4-.03.8-.05,1.2-.14-.04-.29-.05-.44-.03-1.54-1.71-2.01.73-3.1.8.22-3.72.45-7.45.67-11.17,1.35-2.85,1.73-.14,2.49.43.15-.01.29.03.41.13Zm-2,6.4c-.13-.01-.27-.03-.4-.04,0,.39-.03.78.01,1.16.03.24.26.27.31.05.08-.38.06-.78.08-1.17Z" style="fill: #2d2d55; stroke-width: 0px;"/>
      <path d="m139.48,169.87c-.4.34-.79.67-1.19,1.01-3.59,0-7.17,0-10.76,0,0-.34,0-.67.01-1.01,3.98,0,7.95,0,11.93,0Z" style="fill: #f1bb7c; stroke-width: 0px;"/>
      <path d="m150.71,171.29c-.19-.32-.38-.63-.56-.95,3.97-.61,7.96-.63,11.97-.41-.4.3-.8.59-1.2.89-3.39.31-6.83-.42-10.2.47Z" style="fill: #f1bb7c; stroke-width: 0px;"/>
      <path d="m137.84,174.76c-.18-.64-.36-1.28-.54-1.92.21-.1.42-.19.63-.29.2.72.39,1.44.59,2.16-.22.02-.45.03-.67.05Z" style="fill: #582148; stroke-width: 0px;"/>
      <path d="m160.07,173.74c2.43,1.29.33,3.35.85,4.96,4.17,3.1,10.26,2.86,12.93-.51.43-.08.79-.26.76-.75,0-.16-.26-.31-.4-.47-.17.25-.33.49-.5.74-.14,0-.28,0-.41.04q-1.21-.96.93-2.56c.16.15.33.31.49.46.62,2.03,1.11,3.91,3.49,4.98,1.6.72.65,2.46-.53,3.32-1.56,1.15-3.37,1.85-5.32,2.12-4.07-.18-8.14-.37-12.21-.54-.66-.03-1.35.05-1.56-.82,3,.43,6.02.45,9.02.24,3-.21,6.02-.57,8.68-2.18.53-.32,1.25-.77.71-1.53-.41-.58-1.11-.65-1.75-.24-5.45,3.55-10.92,3.01-16.4.07-.69-.89-.36-1.73,0-2.66.39-1.01,1.01-2,.68-3.18.55-.37.45-.97.53-1.5Z" style="fill: #1d1941; stroke-width: 0px;"/>
      <path d="m115.37,175.26c1.15.07,1.47.81,1.47,1.8,0,1.53,0,3.05,0,4.58.01,1.78-.79,1.06-1.54.51-.14,0-.28-.02-.41-.05-.47-.72-.94-.18-1.41,0-1.52-1.34-.98-2.42.42-3.4,1.81-.58.77-2.38,1.47-3.44Z" style="fill: #2d2d55; stroke-width: 0px;"/>
      <path d="m115.37,175.26c-.7,1.06.34,2.86-1.47,3.44.78-2.35-1.39-2.39-2.53-3.23.38-.1.76-.2,1.14-.3.95.02,1.89.05,2.84.07l.02.03Z" style="fill: #6dc1cb; stroke-width: 0px;"/>
      <path d="m94.29,29.06c-.09,2.07.13,4.16-.41,6.2-1.36.03-2.71.06-4.07.09.44-2.1,1.67-4.1.56-6.38-1.65-3.4-5.48-4.72-9.12-3.03-3.89,1.8-4.79,4.97-2.68,9.41-2.51,1.05-5.3-.05-7.81,1.05,0-2.6-.08-5.19.04-7.78.09-1.95-.17-3.7-1.6-5.13.78-.64,1.71-.41,2.58-.41,5.68-.03,11.37-.03,17.05-.05,1.54,0,3.07.02,4.6-.32.78-.17,1.82-.5,2.34.65-.5.47-.99.96-1.11,1.69-.02.17-.04.34-.06.51l-.32,3.51Z" style="fill: #477994; stroke-width: 0px;"/>
      <path d="m53.54,23.44c-1.47,1.73-1.57,3.79-1.51,5.93.07,2.18.02,4.36.02,6.53-3.91-.03-7.82-.12-11.72-.05-1.92.04-2.58-.67-2.56-2.57.03-3.56-.14-7.1,3.62-9.17,1.02-.56,2.05-1.07,3.21-1.02,2.98.13,6-.49,8.95.35Z" style="fill: #477994; stroke-width: 0px;"/>
      <path d="m94.67,25.05c.12-.73.61-1.21,1.11-1.69,1.45-.33,2.85-1.11,4.39-.41.53,1.08,1.54.67,2.36.72,2.01.13,4.05-.18,5.99.63-1.98.45-4,.03-5.98.21-1.45.13-3.01-.61-4.34.52,0,0-.02.01-.02.01-.16-.03-.31-.06-.47-.08-.73.22-1.05.78-1.11,1.46-.31,3.65-.74,7.3.52,10.87-1.78.1-2.4-.78-2.44-2.51-.05-1.91.47-3.88-.38-5.74.11-1.17.21-2.34.32-3.51.02-.17.04-.34.06-.51Z" style="fill: #c0a19b; stroke-width: 0px;"/>
      <path d="m108.53,24.31c-1.93-.81-3.98-.5-5.99-.63-.83-.05-1.84.36-2.36-.72.62,0,1.24.01,1.86.02.54,0,1.09.02,1.63.02,8.31.06,16.62.11,24.94.17-.71.8-1.66.49-2.51.5-4.45.04-8.9.03-13.35.04-1.13,0-2.27-.02-3.29.6-.31,0-.62,0-.93,0Z" style="fill: #f0ebd9; stroke-width: 0px;"/>
      <path d="m103.66,22.99c-.54,0-1.09-.02-1.63-.02.55-.35,1.09-.35,1.63.02Z" style="fill: #c0a19b; stroke-width: 0px;"/>
      <path d="m47.87,186.46c-.63.07-1.31,0-1.73.63-.65-.33-1.36-.57-1.93-1-2.74-2.08-2.65-4.56.24-6.44.86-.56,1.81-1,2.72-1.5,1.29.09,2.54-.81,3.85-.15-.15.42-.3.84-.45,1.25-1.49.05-2.82.57-4.09,1.32-2.66,1.58-2.72,2.63-.24,4.48.57.43,1.09.94,1.63,1.41Z" style="fill: #1d1941; stroke-width: 0px;"/>
      <path d="m61.77,158.28c1.32.28,2.98.47,2.88,2.43-.08,1.59-.99,2.74-2.8,2.7-1.68-.05-2.43-1.02-2.49-2.65-.06-1.6.68-2.42,2.4-2.48Z" style="fill: #faeebd; stroke-width: 0px;"/>
      <path d="m50.56,179.87c.01,1.05.03,2.1.04,3.16-1.1-1.04-.8-2.09-.04-3.16Z" style="fill: #1d1941; stroke-width: 0px;"/>
      <path d="m49.66,186.49c-.42,0-.83,0-1.25-.01.42-.39.84-.56,1.25.01Z" style="fill: #1d1941; stroke-width: 0px;"/>
      <path d="m68.36,36.92c-.43,1.07-1.41,1.24-2.36,1.44-2.97.63-5.98.45-8.97.19-1.82-.16-2.93-1.31-2.97-3.25-.06-2.76-.27-5.51.07-8.27.11,0,.23,0,.34,0,0,2.09,0,4.18,0,6.27.71-2.39.64-4.63.07-6.33,0-.15,0-.3-.03-.44.88-1.09,2.03-1.54,3.41-1.51,2.5.04,5.01.07,7.51.1.75.29,1.49.59,2.24.88.3,3.11.2,6.22.08,9.33-2.07,1.81-9.05,2.04-12.15.39-.07-.28-.13-.57-.22-.85,0-.02-.29,0-.3.04-.11.39-.01.73.3,1,.08.96.71,1.52,1.55,1.6,3.73.36,7.51,1.08,11.04-.96.13.12.26.23.38.35Zm-2.23-8.81c-.87-1.69-8.62-2.53-9.8-1.07-.9,1.11-.35,6.95.77,8.17.73.05,1.47.16,2.2.14,6.92-.16,7.06-.31,6.83-7.23Z" style="fill: #582148; stroke-width: 0px;"/>
      <path d="m67.67,26.02c-.75-.29-1.5-.59-2.24-.88,2.2-.68,3.67.05,3.73,2.15.08,2.75.26,5.52-.3,8.25-.22-.73.06-1.58-.54-2.21-.03-.89-.01-1.8-.11-2.68-.18-1.54.65-3.2-.53-4.63Z" style="fill: #584062; stroke-width: 0px;"/>
      <path d="m68.31,33.33c.61.63.32,1.48.54,2.21-.07.49-.05,1.02-.5,1.38-.13-.12-.26-.23-.38-.35.07-.4.14-.8.21-1.21.04-.68.08-1.35.13-2.03Z" style="fill: #582148; stroke-width: 0px;"/>
      <path d="m54.47,27.04c-.11,0-.23,0-.34,0,.13-.16.25-.32.38-.49.02.15.03.29.03.44l-.07.05Z" style="fill: #584062; stroke-width: 0px;"/>
      <path d="m115.35,172.74c0,.33.01.66.02.99-.61,0-1.23.06-1.83.02-1.26-.09-.31-.56-.13-.89.65-.04,1.3-.08,1.95-.12Z" style="fill: #2d2d55; stroke-width: 0px;"/>
      <path d="m115.35,175.24c-.95-.02-1.89-.05-2.84-.07.88-.71,1.9-.3,2.86-.37.01.15,0,.3-.02.44Z" style="fill: #2d2d55; stroke-width: 0px;"/>
      <path d="m102.12,87.81c6.68-.04,13.37-.58,20.05-.14-3.07,4.81-6.94,9.01-10.51,13.43-4.91,6.08-9.99,12.03-15,18.04-4.85,5.82-9.71,11.63-14.54,17.45-.62.75-1.16,1.57-1.73,2.36-.43.19-.85.37-1.28.56-5.73-.48-5.91-.69-5.96-6.39-.02-2.85-.11-5.69-.17-8.54.04-.59.07-1.18.11-1.77,1.26-.17,1.94-1.16,2.65-2.02,6.76-8.19,13.56-16.34,20.2-24.63,2.16-2.69,4.77-5.09,6.17-8.35Z" style="fill: #cefafd; stroke-width: 0px;"/>
      <path d="m102.12,87.81c-1.4,3.26-4.01,5.66-6.17,8.35-6.64,8.29-13.44,16.44-20.2,24.63-.71.86-1.39,1.85-2.65,2.02-.29-11.74-1.08-23.48.51-35.19,9.28-.03,18.57-.07,27.85-.09.22,0,.44.18.66.28Z" style="fill: #95f5f7; stroke-width: 0px;"/>
      <path d="m150.27,22.89c1.11.13,2.22.26,3.33.39.16.54.46,1.08.47,1.63.03,1.22-.55,2.21-1.6,2.83-.81.47-1.61.23-2.18-.48-.77-.97-1.45-2.01-.62-3.31.22-.34.4-.7.59-1.05Z" style="fill: #f0ebd9; stroke-width: 0px;"/>
      <path d="m78.58,35.35c-2.11-4.44-1.21-7.61,2.68-9.41,3.64-1.69,7.47-.37,9.12,3.03,1.11,2.29-.12,4.28-.56,6.38,0,0,.03,0,.03,0-.14.14-.28.28-.41.43-2.84,3.62-5.73,3.64-10.41.07-.16-.17-.31-.34-.47-.51h.02Zm2.46-7.85c-2.35,1.98-2.77,4.89-1.02,6.97,2.18,2.58,4.74,3,7.02,1.15,2.3-1.87,2.85-5.26,1.2-7.39-1.86-2.39-4.73-2.67-7.24-.71l.04-.02Z" style="fill: #2d2d55; stroke-width: 0px;"/>
      <path d="m89.43,35.77c.14-.14.28-.28.41-.43-.14.14-.28.28-.41.43Z" style="fill: #477994; stroke-width: 0px;"/>
      <path d="m78.56,35.33c.16.17.31.34.47.51-.16-.17-.31-.34-.47-.51Z" style="fill: #477994; stroke-width: 0px;"/>
      <path d="m99.92,25.57c6.93,0,13.86,0,20.79.01-.16.3-.32.59-.48.89-2.1.27-4.27-.43-6.33.43-.98,0-1.97,0-2.95-.01-2.95-.63-5.89-.67-8.83.06l-1.44.22c-.93-.21-1.32-.68-.77-1.6Z" style="fill: #1d1941; stroke-width: 0px;"/>
      <path d="m99.92,25.57c-.56.92-.17,1.39.77,1.6,0,0,.04.14.04.14-.95.17-.99.88-.98,1.63.02,1.44.04,2.88.06,4.32.13.61.26,1.22.39,1.83-.53.27-1.07.54-1.6.81-1.57-3.25-.44-6.6-.37-9.92.51-.37,1.06-.57,1.7-.43Z" style="fill: #b43250; stroke-width: 0px;"/>
      <path d="m124.12,38.47c-7.74-.03-15.47-.04-23.21-.13-1.13-.01-2.51.42-3.24-1.01,1.62.06,3.24.11,4.86.17.72.1,1.44.27,2.16.27,6.44.03,12.89.01,19.33.07,1.41.01,2.76-.17,4.06-.69.02.18.04.36.06.53-1.22.89-2.7.46-4.03.79Z" style="fill: #2d2d55; stroke-width: 0px;"/>
      <path d="m108.53,24.31c.31,0,.62,0,.93,0,6.24,0,12.48,0,18.72,0,0,.25,0,.49,0,.74-9.99,0-19.97,0-29.96,0,1.33-1.13,2.89-.39,4.34-.52,1.99-.18,4,.24,5.98-.21Z" style="fill: #b43250; stroke-width: 0px;"/>
      <path d="m128.15,37.68c-.02-.18-.04-.36-.06-.53,1.45-3.67,1.2-7.34-.07-11,.08-.09.17-.18.25-.28.28.15.66.23.83.46,1.54,2.06.91,9.39-.95,11.35Z" style="fill: #582148; stroke-width: 0px;"/>
      <path d="m102.54,37.49c-1.62-.06-3.24-.11-4.86-.17,0,0,.02.02.02.02-.71-3.77-.64-7.54-.1-11.32.21,0,.42-.02.63-.03-.08,3.31-1.2,6.66.37,9.92,1.06,1.42,2.63.72,3.98.96-.01.21-.02.42-.03.63Z" style="fill: #fa5658; stroke-width: 0px;"/>
      <path d="m97.59,26.02c-.54,3.78-.6,7.55.1,11.32-.19-.01-.39-.03-.58-.04-1.26-3.57-.83-7.23-.51-10.87.06-.69.38-1.25,1.11-1.46-.01.23-.03.47-.04.7-.08.11-.1.22-.08.35Z" style="fill: #2d2d55; stroke-width: 0px;"/>
      <path d="m120.23,26.47c.16-.3.32-.59.48-.89,2.53-.04,5.07-.57,7.57.29-.08.09-.17.18-.25.27-2.5.59-5.06.38-7.59.54-.07-.07-.14-.15-.21-.22Z" style="fill: #582148; stroke-width: 0px;"/>
      <path d="m97.67,25.67c.01-.23.03-.47.04-.7.16.03.31.06.47.08-.17.21-.34.41-.51.62Z" style="fill: #b43250; stroke-width: 0px;"/>
      <path d="m59.45,182.18c.13.13.26.26.39.38-.13-.13-.26-.26-.39-.38Z" style="fill: #1d1941; stroke-width: 0px;"/>
      <path d="m114.91,170.91c.01,1.26-.79,1.4-1.8,1.4-11.36-.02-22.72.03-34.07-.07-1.31-.01-2.96.16-3.94-1.27,13.27-.02,26.54-.04,39.82-.06Z" style="fill: #faeebd; stroke-width: 0px;"/>
      <path d="m193.89,151.33c-2.44.52-4.89.49-7.35.1,2.45-.36,4.9-.25,7.35-.1Z" style="fill: #f1bb7c; stroke-width: 0px;"/>
      <path d="m33.37,153.63c-2.96.07-5.93.26-8.88-.19.52-1.09,1.52-.71,2.35-.73,2.22-.05,4.45-.09,6.53.92Z" style="fill: #f1bb7c; stroke-width: 0px;"/>
      <path d="m96.14,271.47c.01,10.47.06,20.94.02,31.41-.02,4.07-2.38,6.36-6.45,6.38-8.18.03-16.36.02-24.54-.03-3.37-.02-5.77-2.08-5.79-5.37-.06-10.96.05-21.92.09-32.87.98.57,2.06.41,3.11.42,11.18.03,22.37.05,33.55.07Zm-23.96,7.48c-5.3.01-5.4.11-5.18,5.2.02.41.05.81.09,1.22.07.84.54,1.43,1.34,1.53,2.19.27,4.39.3,6.58-.06.48-.08,1-.31,1.1-.86.37-2.02.67-4.15-.12-6.02-.71-1.69-2.6-.79-3.8-1Z" style="fill: #fa5658; stroke-width: 0px;"/>
      <path d="m96.14,271.47c-11.18-.02-22.37-.04-33.55-.07-1.05,0-2.13.15-3.11-.42-.04-.98-.14-1.95-.12-2.93.09-3.27,2.08-5.43,5.33-5.46,8.66-.07,17.32-.06,25.98,0,2.93.02,5.41,2.54,5.56,5.46.06,1.14-.05,2.28-.08,3.42Z" style="fill: #b43250; stroke-width: 0px;"/>
      <path d="m155.16,266.54c2.41.17,3.83,1.46,3.84,3.87.02,7.25-.07,14.49-.12,21.74-.98-.04-1.95-.09-2.93-.11-8.96-.11-17.93.31-26.89-.1,0-7.18,0-14.35.03-21.53,0-2.8.62-3.43,3.56-3.82-.14,1.25.63,1.54,1.65,1.54,6.26,0,12.53,0,18.79-.02,1.07,0,1.93-.34,2.07-1.58Zm-5.55,17.16c-.15.02-.29.01-.44-.01.04-.4.1-.81.11-1.21.05-3.23-.4-3.68-3.6-3.69q-4.11-.01-4.39,4.33c-.02.24-.07.48-.1.73-2.63-.68-4.82.36-6.84,1.84-.88.64-2.06,1.33-1.5,2.75.52,1.33,1.69,1.64,3.01,1.63,4.91-.02,9.81-.02,14.72-.02.81-.02,1.62.04,2.41-.09,1.2-.19,2.11-.88,2.4-2.11.3-1.28-.62-1.94-1.56-2.43-1.35-.7-2.61-1.64-4.22-1.7Z" style="fill: #2e5077; stroke-width: 0px;"/>
      <path d="m129.06,291.95c8.96.41,17.93-.01,26.89.1.98.01,1.95.07,2.93.11,0,3.83.07,7.66-.02,11.49-.1,4-1.75,5.54-5.77,5.57-6.2.04-12.39.07-18.59.08-3.7,0-5.58-1.82-5.69-5.51-.1-3.17-.14-6.35-.16-9.52,0-.78-.29-1.65.42-2.31Zm16.77,2.61c-.75,0-1.08,0-1.41,0-1.87,0-3.71-.02-3.79,2.62-.13,4.78.23,5.47,3.64,5.49,6.58.04,5.37.05,5.55-5.79.05-1.46-.65-2.09-1.99-2.2-.81-.07-1.63-.1-2.01-.12Z" style="fill: #fa5658; stroke-width: 0px;"/>
      <path d="m155.16,266.54c-.14,1.24-1,1.58-2.07,1.58-6.26.01-12.53.01-18.79.02-1.02,0-1.79-.29-1.65-1.54,1.23-.58,2.55-.4,3.84-.41,5.28-.04,10.55-.07,15.83-.09.96,0,1.96-.18,2.83.44Z" style="fill: #cefafd; stroke-width: 0px;"/>
      <path d="m167.4,216.61c-3.75,0-7.5.02-11.25-.01-1.71-.01-2.93-.84-3.58-2.46-.52-1.3-.12-2.4.76-3.37.77-.85,1.82-1.06,2.9-1.07,7.58-.02,15.16-.05,22.74.01,2.47.02,4.05,1.43,4.11,3.31.06,1.94-1.59,3.44-4.19,3.5-3.83.1-7.66.03-11.49.03,0,.01,0,.03,0,.04Zm-.01-4.89s0-.08,0-.11c-3.59,0-7.17-.02-10.76.01-.88,0-1.98-.02-2.06,1.2-.08,1.22.86,1.64,1.92,1.77.48.06.98.08,1.46.08,6.77-.03,13.53-.06,20.3-.11,1.01,0,2.41.26,2.44-1.28.03-1.65-1.46-1.52-2.55-1.53-3.59-.05-7.18-.02-10.76-.02Z" style="fill: #1d1941; stroke-width: 0px;"/>
      <path d="m150.71,171.29c3.37-.88,6.81-.16,10.2-.47-.03.43-.05.87-.08,1.3-.57.23-1.14.46-1.71.69-2.63-.02-5.26-.04-7.89-.06-.17-.49-.35-.97-.52-1.46Z" style="fill: #faeebd; stroke-width: 0px;"/>
      <path d="m167.34,174.2c-1.04-.14-2.26-.26-2.32-1.6-.05-1.21,1.08-1.61,2.06-1.57,1.11.05,2.51.32,2.51,1.73,0,1.15-1.26,1.28-2.26,1.44Z" style="fill: #faeebd; stroke-width: 0px;"/>
      <path d="m158.6,184.72c.2.87.9.79,1.56.82,4.07.18,8.14.36,12.21.54-4.93,1.67-10.05,1.82-15.16,1.82-6.6,0-13.19-.3-19.55-2.41-1.39-.46-2.75-1-3.93-1.89-.86-.65-1.84-1.46-1.55-2.56.25-.94,1.49-.64,2.32-.8-.3.75-1.04,1.63.53,1.84h-.01c.17.18.34.35.51.52v-.03c.37,2.28,2.16,1.29,3.43,1.49l-.03-.02c.59.79,1.44.46,2.2.5.25,0,.49.01.74.02,1.25.82,2.53.7,3.82.11.35-.03.7-.05,1.06-.08,1.48-.22,3.07.56,4.47-.46,2.14.83,4.24-.64,6.38-.09.24.16.47.32.71.48.13.02.23.09.29.2Z" style="fill: #2d2d55; stroke-width: 0px;"/>
      <path d="m135.03,182.07c-1.57-.21-.83-1.09-.53-1.84,1.02-.33,1.53-1.15,1.95-2.06.47-.03.94-.05,1.4-.08,0,0,.17.15.17.15-.26,1.58.93,2.08,2.01,2.21,3.56.46,7.17.89,10.17-1.85.47,1.33-.26,2.68.04,4.02,0,0,.05.1.05.1-1.01-.29-1.86.37-2.81.45-3.85.65-7.56.47-10.82-2.02-1.27-.97-1.48-.1-1.64.91Z" style="fill: #1d1941; stroke-width: 0px;"/>
      <path d="m127.67,181.52c-.03-.86-1.03-1.85.36-2.51,3.05-.2,1.26,1.96,1.52,3.12-.63-.2-1.25-.41-1.88-.62Z" style="fill: #2e5077; stroke-width: 0px;"/>
      <path d="m134.45,175.58c.51-.3,1.05-.28,1.6-.15-.5.4-1.04.36-1.6.15Z" style="fill: #5da8b3; stroke-width: 0px;"/>
      <path d="m114.89,182.1c.13.03.27.05.41.05.1,1.98,1.22,3.18,3.06,3.57,2.66.56,5.34.75,7.57-1.27.52-.47.84-1.16,1.25-1.75.15-.02.3-.01.44.03,1.86,1.63,1.81,3.17-.43,4.28-3.95,1.95-8.04,1.89-11.97-.04-2.36-1.16-2.33-2.28-.33-4.86Z" style="fill: #b43250; stroke-width: 0px;"/>
      <path d="m151.23,172.75c2.63.02,5.26.04,7.89.06.32.31.63.62.95.93-.08.54.01,1.13-.53,1.5-2.27.02-4.53.04-6.8.06-.37-.51-.74-1.02-1.11-1.53-.18-.22-.36-.43-.55-.65.05-.13.1-.26.14-.39Z" style="fill: #2e5077; stroke-width: 0px;"/>
      <path d="m173.31,177.75c.14-.03.27-.04.41-.04.04.16.09.32.13.48-2.68,3.37-8.77,3.6-12.93.51.97-.96,1.83.01,2.65.25,3.45,1.01,6.71.98,9.74-1.2Z" style="fill: #b43250; stroke-width: 0px;"/>
      <path d="m151.09,173.14c.18.22.36.43.55.65-.67,1.11-.82,2.38-1.12,3.6-.12.08-.22.18-.29.31h0c-3.87,1.53-7.76,2.42-11.77.51.54-.75,1.99-.32,2.09-1.63,2.02-.04,4.02.18,6.05-.24,2.04-.42,3.63-1.23,4.48-3.2Z" style="fill: #582148; stroke-width: 0px;"/>
      <path d="m144.2,173.82c-1.05-.03-2.01-.14-1.87-1.42.14-1.25,1.18-1.57,2.17-1.43.97.13,2.41.25,2.2,1.7-.2,1.39-1.59,1.06-2.5,1.16Z" style="fill: #f0ebd9; stroke-width: 0px;"/>
      <path d="m140.55,176.58c-.11,1.3-1.55.88-2.09,1.63-.14.02-.28.03-.43.05,0,0-.17-.15-.17-.15,0-1.12-.01-2.23-.02-3.35.22-.02.45-.03.67-.05.16.31.32.62.48.93.17.17.33.35.5.52,0,0-.01-.02-.01-.02.19.47.54.57.99.42l.08.02Z" style="fill: #1d1941; stroke-width: 0px;"/>
      <path d="m140.47,176.56c-.45.15-.8.05-.99-.42.39,0,.76.05.99.42Z" style="fill: #582148; stroke-width: 0px;"/>
      <path d="m139.49,176.16c-.17-.17-.33-.35-.5-.52.17.17.33.35.5.52Z" style="fill: #582148; stroke-width: 0px;"/>
      <path d="m121.46,184.22c-3.09.18-3.69-.32-3.7-3.22-.02-2.85.02-5.7.02-8.54,0-1.37.26-2.59,1.7-3.19,1.89,3.16,1.15,6.64,1.28,10.03.06,1.66-.41,3.41.71,4.92Z" style="fill: #fa5658; stroke-width: 0px;"/>
      <path d="m124.75,172.32c-.22,3.72-.45,7.45-.67,11.17-.15.15-.31.3-.46.44,0,0-.14-.05-.14-.05,0,0-.03.17-.03.17-.45.05-.91.1-1.36.15.03-3.49.05-6.98.09-10.47.02-1.39.04-2.79,1.51-3.58.89.46.89,1.36,1.07,2.17Z" style="fill: #fa5658; stroke-width: 0px;"/>
      <path d="m123.69,170.15c-1.46.79-1.49,2.2-1.51,3.58-.04,3.49-.06,6.98-.09,10.47-.21,0-.42.01-.63.02-1.12-1.51-.64-3.27-.71-4.92-.13-3.38.61-6.87-1.28-10.03.48-.54,1.09-.42,1.69-.35.5.47,1.11.51,1.74.45.26.26.52.52.78.79Z" style="fill: #f1bb7c; stroke-width: 0px;"/>
      <path d="m122.91,169.36c-.64.06-1.25.02-1.74-.45.66-.15,1.28-.16,1.74.45Z" style="fill: #fa5658; stroke-width: 0px;"/>
      <polygon points="123.45 184.05 123.48 183.89 123.62 183.94 123.45 184.05" style="fill: #2d2d55; stroke-width: 0px;"/>
      <path d="m125.65,179.29c-.02.39,0,.79-.08,1.17-.05.22-.28.2-.31-.05-.05-.38-.01-.78-.01-1.16.13.01.27.03.4.04Z" style="fill: #1d1941; stroke-width: 0px;"/>
      <path d="m152.74,175.31c2.27-.02,4.53-.04,6.8-.06.33,1.18-.28,2.17-.68,3.18-.36.92-.68,1.77,0,2.66-.17,1.04.03,2.15-.6,3.1-.22-.05-.45-.1-.67-.15-2.13-.55-4.24.92-6.38.09-.73-.18-.94-.7-.92-1.38,0,0-.05-.1-.05-.1,1.52-.81,3.19-1.66,2.73-3.72-.27-1.23-.23-2.4-.24-3.61Z" style="fill: #95f5f7; stroke-width: 0px;"/>
      <path d="m158.27,184.18c.63-.95.42-2.06.6-3.1,5.48,2.94,10.94,3.47,16.39-.07.64-.41,1.34-.34,1.75.24.54.76-.18,1.21-.71,1.53-2.66,1.62-5.68,1.97-8.68,2.18-3,.21-6.02.19-9.02-.24-.07-.11-.17-.18-.29-.2.04-.12.03-.23-.04-.34Z" style="fill: #b43250; stroke-width: 0px;"/>
      <path d="m173.85,178.19c-.04-.16-.09-.32-.13-.48.16-.25.33-.49.5-.74.14.16.39.3.4.47.03.49-.34.67-.76.75Z" style="fill: #582148; stroke-width: 0px;"/>
      <path d="m94.67,25.05c-.02.17-.04.34-.06.51.02-.17.04-.34.06-.51Z" style="fill: #6dc1cb; stroke-width: 0px;"/>
      <path d="m66.13,28.11c.22,6.92.09,7.07-6.83,7.23-.73.02-1.47-.09-2.2-.14-.04-1.99-.1-3.99-.12-5.99,0-.77-.16-1.73,1.16-1.53.6,3.19.6,3.18,2.74,3.19.16,0,.31.29.47.45,1.08,1.07,1.51.51,1.56-.67.04-.88-.07-1.77-.11-2.66,1.14-.99,2.22-.24,3.32.12Z" style="fill: #fa5658; stroke-width: 0px;"/>
      <path d="m58.14,27.68c-1.32-.2-1.17.76-1.16,1.53.01,2,.07,3.99.12,5.99-1.11-1.21-1.66-7.06-.76-8.17,1.18-1.46,8.93-.61,9.8,1.07-1.1-.36-2.18-1.1-3.32-.11-.31-.03-.62-.06-.93-.1-.45-.42-.93-.47-1.43-.09-.77-.04-1.54-.08-2.3-.12Z" style="fill: #b43250; stroke-width: 0px;"/>
      <path d="m68.19,35.36c-.07.4-.14.81-.21,1.21-3.53,2.04-7.31,1.31-11.04.96-.84-.08-1.47-.64-1.55-1.6.08-.06.15-.13.23-.19,3.09,1.65,10.08,1.42,12.14-.39,0,0,.21.04.21.04l.22-.03Z" style="fill: #b43250; stroke-width: 0px;"/>
      <path d="m68.19,35.36l-.22.03s-.21-.04-.21-.04c.12-3.11.21-6.23-.08-9.33,1.17,1.43.35,3.09.53,4.63.1.89.08,1.79.11,2.68-.04.68-.08,1.35-.13,2.03Z" style="fill: #f1bb7c; stroke-width: 0px;"/>
      <path d="m54.54,26.99c.57,1.7.64,3.94-.07,6.33,0-2.09,0-4.18,0-6.27,0,0,.07-.05.07-.05Z" style="fill: #584062; stroke-width: 0px;"/>
      <path d="m55.39,35.93c-.31-.27-.41-.61-.3-1,.01-.04.3-.06.3-.04.09.28.15.57.22.85-.07.06-.15.12-.22.19Z" style="fill: #b43250; stroke-width: 0px;"/>
      <path d="m81,27.52c2.52-1.96,5.39-1.67,7.24.71,1.65,2.12,1.1,5.52-1.2,7.39-2.28,1.85-4.84,1.43-7.02-1.15-1.76-2.08-1.33-4.99,1.02-6.97-.66,1.66-.97,3.33-.11,5.02,1.33,2.52,3.35,2.71,5.58.54,1.47-2.46.86-4.73-1.51-5.81-1.41-.65-2.68.05-4,.27Z" style="fill: #fa5658; stroke-width: 0px;"/>
      <path d="m100.2,35.1c-.13-.61-.26-1.22-.39-1.83,2.56-1.74,2.97-4.41.92-5.95,0,0-.04-.14-.04-.14.48-.07.96-.15,1.44-.22,2.94-.02,5.89-.04,8.83-.06.98,0,1.97,0,2.95.01,2.12.09,4.24.18,6.36.26-.02.12-.03.24-.03.37-1.39-.04-2.65.3-2.05,2.01.52,1.49,1.77,2.5,3.4,2.78.72.12,1.5.07,1.9-.71.38-.75.14-1.45-.46-1.96-.73-.61-1.53-1.12-2.31-1.67.98.01,1.96.02,2.94.04.67.01,1.43.04,1.47.91.09,2.14.99,4.34-.4,6.39-4.29.02-8.59.1-12.88.04-3.88-.05-7.78.45-11.64-.26Z" style="fill: #fa5658; stroke-width: 0px;"/>
      <path d="m110.95,26.89c-2.94.02-5.89.04-8.83.06,2.94-.73,5.88-.69,8.83-.06Z" style="fill: #582148; stroke-width: 0px;"/>
      <path d="m120.26,27.16c-2.12-.09-4.24-.18-6.36-.26,2.06-.86,4.23-.16,6.33-.43.07.07.14.15.2.22-.06.16-.12.31-.17.47Z" style="fill: #582148; stroke-width: 0px;"/>
      <path d="m100.2,35.1c3.87.71,7.76.21,11.64.26,4.29.06,8.59-.02,12.88-.04,1.02,1.01,2.14-.33,3.36.12-.33.38-.56.91-.84.94-8.2.99-16.45-.07-24.66.49-1.35-.24-2.92.46-3.98-.96.53-.27,1.07-.54,1.6-.81Z" style="fill: #582148; stroke-width: 0px;"/>
      <path d="m100.73,27.31c2.05,1.55,1.64,4.21-.92,5.95-.02-1.44-.04-2.88-.06-4.32-.01-.75.03-1.46.98-1.63Z" style="fill: #f1bb7c; stroke-width: 0px;"/>
      <path d="m102.57,36.87c8.21-.56,16.46.5,24.66-.49.28-.03.51-.55.84-.94-1.22-.45-2.33.89-3.36-.12,1.4-2.05.49-4.25.4-6.39-.04-.87-.8-.9-1.47-.91-.98-.02-1.96-.03-2.94-.04-.16-.15-.32-.3-.48-.45,0-.12,0-.24.03-.37.06-.16.12-.32.17-.47,2.53-.16,5.09.05,7.59-.54,1.27,3.66,1.52,7.32.07,11-1.3.52-2.65.7-4.06.69-6.44-.05-12.89-.03-19.33-.07-.72,0-1.44-.18-2.16-.27.01-.21.02-.42.03-.63Z" style="fill: #b43250; stroke-width: 0px;"/>
      <path d="m72.19,278.95c1.2.21,3.09-.69,3.8,1,.79,1.88.49,4.01.12,6.02-.1.55-.62.78-1.1.86-2.19.36-4.39.33-6.58.06-.8-.1-1.27-.69-1.34-1.53-.03-.41-.07-.81-.09-1.22-.22-5.09-.13-5.19,5.18-5.2Z" style="fill: #1d1941; stroke-width: 0px;"/>
      <path d="m150.57,290.03c-4.91,0-9.81,0-14.72.02-1.32,0-2.49-.3-3.01-1.63-.55-1.42.63-2.11,1.5-2.75,2.02-1.47,4.22-2.51,6.84-1.84,0,0,.06,0,.06,0,.11,3.27.11,3.29,3.37,3.28,1.36,0,2.75.2,4.09-.24-.07,1.46.56,2.51,1.87,3.16Z" style="fill: #c0a19b; stroke-width: 0px;"/>
      <path d="m141.19,283.84c.03-.24.09-.48.1-.73q.28-4.34,4.39-4.33c3.2,0,3.65.46,3.6,3.69,0,.41-.07.81-.11,1.22-2.64.05-5.28.1-7.92.15h-.06Z" style="fill: #1d1941; stroke-width: 0px;"/>
      <path d="m150.57,290.03c-1.31-.65-1.94-1.69-1.87-3.16.73-.94.83-2.05.9-3.18,1.61.06,2.87,1,4.22,1.7.94.49,1.86,1.15,1.56,2.43-.29,1.23-1.2,1.91-2.4,2.11-.79.13-1.61.07-2.41.09Z" style="fill: #6dc1cb; stroke-width: 0px;"/>
      <path d="m149.61,283.7c-.07,1.12-.17,2.24-.9,3.18-1.34.44-2.72.23-4.09.24-3.26.01-3.26,0-3.37-3.28,2.64-.05,5.28-.1,7.92-.15.15.03.29.03.44.01Z" style="fill: #2d2d55; stroke-width: 0px;"/>
      <path d="m145.83,294.56c.39.02,1.2.05,2.01.12,1.34.11,2.03.74,1.99,2.2-.19,5.84,1.02,5.83-5.55,5.79-3.41-.02-3.77-.71-3.64-5.49.07-2.64,1.92-2.63,3.79-2.62.33,0,.65,0,1.41,0Z" style="fill: #1d1941; stroke-width: 0px;"/>
      <path d="m167.39,211.73c3.59,0,7.18-.03,10.76.02,1.09.02,2.58-.12,2.55,1.53-.03,1.55-1.43,1.28-2.44,1.28-6.77.06-13.53.08-20.3.11-.49,0-.98-.02-1.46-.08-1.06-.13-2-.54-1.92-1.77.08-1.22,1.18-1.19,2.06-1.2,3.59-.03,7.17-.01,10.76-.01,0,.04,0,.08,0,.11Z" style="fill: #fa5658; stroke-width: 0px;"/>
      <path d="m135.03,182.07c.16-1,.37-1.87,1.64-.91,3.26,2.49,6.97,2.67,10.82,2.03-.25.46-.49.92-.74,1.38-.35.03-.7.05-1.05.08-1.27-.04-2.55-.07-3.82-.11-.25,0-.49-.01-.74-.02-.66-.5-1.43-.48-2.2-.5,0,0,.03.02.03.02-1.15-.5-2.3-.99-3.45-1.49,0,0,.01.03.01.03-.17-.17-.34-.34-.51-.51h.01Z" style="fill: #b43250; stroke-width: 0px;"/>
      <path d="m146.75,184.58c.24-.46.49-.92.74-1.38.95-.08,1.81-.74,2.81-.45-.02.68.19,1.2.92,1.38-1.4,1.02-2.99.23-4.47.46Z" style="fill: #477994; stroke-width: 0px;"/>
      <path d="m135.52,182.56c1.15.5,2.3.99,3.45,1.49-1.28-.2-3.07.79-3.45-1.49Z" style="fill: #1d1941; stroke-width: 0px;"/>
      <path d="m141.88,184.55c1.27.04,2.55.07,3.82.11-1.29.59-2.57.71-3.82-.11Z" style="fill: #1d1941; stroke-width: 0px;"/>
      <path d="m138.94,184.03c.77.02,1.54,0,2.2.5-.76-.03-1.61.29-2.2-.5Z" style="fill: #1d1941; stroke-width: 0px;"/>
      <path d="m158.27,184.18c.07.11.08.22.04.34-.24-.16-.47-.32-.71-.48.22.05.45.1.67.15Z" style="fill: #1d1941; stroke-width: 0px;"/>
      <path d="m135.02,182.08c.17.17.34.34.51.51-.17-.17-.34-.34-.51-.51Z" style="fill: #1d1941; stroke-width: 0px;"/>
      <path d="m138.03,178.26c.14-.02.28-.03.43-.05,4.01,1.91,7.91,1.02,11.77-.51,0,.31-.01.61-.02.92-3,2.75-6.61,2.31-10.17,1.85-1.07-.14-2.27-.63-2.01-2.21Z" style="fill: #b43250; stroke-width: 0px;"/>
      <path d="m150.21,178.62c0-.31.01-.61.02-.92,0,0,0,0,0,0,.16-.04.26-.15.29-.31.31-1.22.45-2.5,1.12-3.6.37.51.74,1.02,1.11,1.53,0,1.21-.03,2.38.24,3.61.46,2.06-1.22,2.91-2.73,3.72-.31-1.34.42-2.68-.04-4.02Z" style="fill: #2d2d55; stroke-width: 0px;"/>
      <path d="m150.51,177.39c-.03.16-.13.26-.29.31.07-.13.17-.23.29-.31Z" style="fill: #b43250; stroke-width: 0px;"/>
      <path d="m58.14,27.68c.77.04,1.54.08,2.3.12.48.03.96.06,1.43.09.31.03.62.06.93.1.04.89.15,1.78.11,2.66-.06,1.18-.49,1.74-1.56.67-.16-.16-.31-.45-.47-.45-2.14,0-2.14,0-2.74-3.19Z" style="fill: #f1bb7c; stroke-width: 0px;"/>
      <path d="m61.88,27.9c-.48-.03-.96-.06-1.43-.09.5-.38.98-.33,1.43.09Z" style="fill: #fa5658; stroke-width: 0px;"/>
      <path d="m81,27.52c1.32-.22,2.59-.91,4-.27,2.37,1.08,2.98,3.35,1.51,5.81-.18-.36-.47-.71-.5-1.08-.1-1.15-.4-2.25-1.67-2.37-1.31-.13-2.33.52-2.7,1.94-.1.36-.46.65-.7.98-.86-1.69-.55-3.36.11-5.02,0,0-.04.02-.04.02Z" style="fill: #faeebd; stroke-width: 0px;"/>
      <path d="m80.93,32.52c.24-.32.61-.62.7-.98.38-1.42,1.4-2.06,2.7-1.94,1.26.12,1.57,1.22,1.67,2.37.03.37.33.72.5,1.08-2.23,2.17-4.25,1.98-5.58-.54Z" style="fill: #f1bb7c; stroke-width: 0px;"/>
      <path d="m120.23,27.53c.16.15.32.3.48.45.77.55,1.58,1.06,2.3,1.67.6.5.84,1.21.46,1.96-.4.78-1.18.83-1.9.71-1.64-.28-2.89-1.29-3.4-2.78-.59-1.71.67-2.04,2.05-2.01Z" style="fill: #f1bb7c; stroke-width: 0px;"/>
    </g>
  </g>
</svg>