<svg xmlns="http://www.w3.org/2000/svg" viewBox="0 0 362.54 105.12">
  <g id="Calque_2" data-name="Calque 2">
    <g id="arcade-fr">
      <g>
        <path d="M0,104,36.42,17.19h.69L73.41,104H60.62L33.42,34.7l7.95-5.18L11,104ZM21.32,72.39h31L56,82.07H18.09Z" fill="#fff"/>
        <path d="M96,56.25l1,13.83-.57-1.84a19.82,19.82,0,0,1,5.35-7.43,28.65,28.65,0,0,1,7.38-4.73,17.46,17.46,0,0,1,6.74-1.67L115.35,65a16.14,16.14,0,0,0-9.5,2.08,17.91,17.91,0,0,0-6.46,6.45A16.86,16.86,0,0,0,97,82.18V104H86.43V56.25Z" fill="#fff"/>
        <path d="M166.41,99.58a25.56,25.56,0,0,1-7.72,4A30,30,0,0,1,136,102a22.66,22.66,0,0,1-9.16-8.7,25.54,25.54,0,0,1-3.28-13.19,24.57,24.57,0,0,1,3.51-13.25,24.15,24.15,0,0,1,9.22-8.71,25.68,25.68,0,0,1,12.27-3,31,31,0,0,1,10.32,1.61,24.47,24.47,0,0,1,7.78,4.38L161.34,68a22.48,22.48,0,0,0-5.07-2.88,17.25,17.25,0,0,0-6.8-1.27A14.54,14.54,0,0,0,141.8,66a15.18,15.18,0,0,0-5.53,5.82,17.08,17.08,0,0,0-2,8.3,16.49,16.49,0,0,0,2.08,8.12,15.07,15.07,0,0,0,5.76,5.88,16.51,16.51,0,0,0,8.41,2.13,16.81,16.81,0,0,0,5.71-.92,16.48,16.48,0,0,0,4.67-2.54Z" fill="#fff"/>
        <path d="M200.06,105.12a25.71,25.71,0,0,1-12.16-2.89,21,21,0,0,1-8.64-8.47,27.18,27.18,0,0,1-3.17-13.65,27.17,27.17,0,0,1,3.34-13.77,23.15,23.15,0,0,1,8.93-8.93,24.74,24.74,0,0,1,12.27-3.12,20,20,0,0,1,11.3,3.06,22.07,22.07,0,0,1,7,7.2l-.7,1.84,1-10.14h9.91V104H218.5V91.52l1.15,2.76a11.43,11.43,0,0,1-2,2.94,23.84,23.84,0,0,1-4.15,3.63,24.92,24.92,0,0,1-5.93,3.06A22.08,22.08,0,0,1,200.06,105.12Zm2.88-8.88a17,17,0,0,0,7.26-1.5,14.49,14.49,0,0,0,5.36-4.2A15.68,15.68,0,0,0,218.5,84V74.69a14.84,14.84,0,0,0-3.23-6,16.08,16.08,0,0,0-5.53-4,17.4,17.4,0,0,0-7.15-1.44A15.4,15.4,0,0,0,189.05,71a17,17,0,0,0-2.13,8.65,16.57,16.57,0,0,0,2.19,8.41,16.32,16.32,0,0,0,5.88,6A15.26,15.26,0,0,0,202.94,96.24Z" fill="#fff"/>
        <path d="M267.13,105.12A23,23,0,0,1,255.2,102a22.55,22.55,0,0,1-8.47-9,28,28,0,0,1-3.11-13.43,26.62,26.62,0,0,1,3.28-13.6,22.28,22.28,0,0,1,8.93-8.64,26.61,26.61,0,0,1,12.68-3,25,25,0,0,1,10.77,2.42,19.47,19.47,0,0,1,8,6.69l-.46,3.8V14.77h10.6V104H286.72V92.09l1.15,3a26.14,26.14,0,0,1-8.64,7.2A25.39,25.39,0,0,1,267.13,105.12ZM270.47,96a17.92,17.92,0,0,0,7.6-1.55,15.1,15.1,0,0,0,5.54-4.33,17,17,0,0,0,3.11-6.56v-9a14.26,14.26,0,0,0-3.29-6,18,18,0,0,0-5.64-4.15,16.85,16.85,0,0,0-7.32-1.56,15.54,15.54,0,0,0-8,2.13,17.05,17.05,0,0,0-5.82,22.82,16.79,16.79,0,0,0,5.88,6A15,15,0,0,0,270.47,96Z" fill="#fff"/>
        <path d="M338.23,105.12a28.38,28.38,0,0,1-14.06-3.29,22.82,22.82,0,0,1-9.05-9A26.49,26.49,0,0,1,312,79.76,23.73,23.73,0,0,1,315.53,67a26.91,26.91,0,0,1,9.56-9.22,26.3,26.3,0,0,1,13.37-3.46q9.45,0,15.67,5.54T362.54,75L323.25,88.87l-2.54-6.34L353,70.77l-2.31,1.5a16,16,0,0,0-4.61-6.62,12.26,12.26,0,0,0-8.41-2.83A14.6,14.6,0,0,0,329.82,65a15,15,0,0,0-5.42,5.82,19.19,19.19,0,0,0,.11,17.12,15.34,15.34,0,0,0,5.71,5.87,15.87,15.87,0,0,0,8.24,2.14,16.43,16.43,0,0,0,6.05-1.16,24,24,0,0,0,5.47-3l5,8a33.15,33.15,0,0,1-8,3.92A27.36,27.36,0,0,1,338.23,105.12Z" fill="#fff"/>
      </g>
      <g>
        <path d="M96.84,32.36a15.55,15.55,0,0,1-1.44,7,10.44,10.44,0,0,1-3.9,4.38,11.17,11.17,0,0,1-5.5,1.6V43.63a9,9,0,0,0,6.49-3.15q2.6-2.94,2.59-8.28V0h1.76Z" fill="#fff"/>
        <path d="M119.91,0h22.86V1.76h-21V17.84h19v1.71h-19V35.94h21.79V37.7H119.91Z" fill="#fff"/>
        <path d="M166.22,25.15a12.37,12.37,0,0,0,1.38,6A9.6,9.6,0,0,0,171.42,35,11.31,11.31,0,0,0,177,36.37,11.57,11.57,0,0,0,182.56,35a9.72,9.72,0,0,0,3.87-3.84,12.15,12.15,0,0,0,1.41-6V0h1.77V25.31a13.4,13.4,0,0,1-1.69,7,11.24,11.24,0,0,1-4.53,4.36A13.8,13.8,0,0,1,177,38.13a13.59,13.59,0,0,1-6.41-1.49,11.05,11.05,0,0,1-4.48-4.36,13.6,13.6,0,0,1-1.66-7V0h1.82Z" fill="#fff"/>
        <path d="M208.83,37.7,221.44,18l1.06,1.44L211,37.7ZM209.37,0h2.24l24.51,37.7h-2.24Zm12.87,17.41L233.24,0h2.14l-12,18.8Z" fill="#fff"/>
      </g>
    </g>
  </g>
</svg>
