<svg xmlns="http://www.w3.org/2000/svg" viewBox="0 0 284.97 109.87"><path d="M1.12,69.83,29.63,1.89h.54L58.59,69.83h-10L27.28,15.61l6.23-4.06L9.69,69.83ZM17.81,45.11H42.08L45,52.69H15.28Z" fill="#fff"/><path d="M76.27,32.48l.82,10.83-.45-1.45a15.63,15.63,0,0,1,4.19-5.81,22.17,22.17,0,0,1,5.78-3.7A13.46,13.46,0,0,1,91.88,31l-.45,8.3A12.7,12.7,0,0,0,84,41a14,14,0,0,0-5,5.06,13.08,13.08,0,0,0-1.85,6.76v17h-8.3V32.48Z" fill="#fff"/><path d="M131.4,66.41a19.85,19.85,0,0,1-6,3.15,21.94,21.94,0,0,1-7,1.18,22.69,22.69,0,0,1-10.74-2.44,17.76,17.76,0,0,1-7.17-6.81,20.07,20.07,0,0,1-2.57-10.33,19.29,19.29,0,0,1,2.75-10.38A18.94,18.94,0,0,1,107.81,34a20.1,20.1,0,0,1,9.61-2.39,24.07,24.07,0,0,1,8.07,1.26,19.13,19.13,0,0,1,6.09,3.43l-4.15,5.41a17.45,17.45,0,0,0-4-2.25,13.53,13.53,0,0,0-5.32-1,11.29,11.29,0,0,0-6,1.67,11.84,11.84,0,0,0-4.33,4.55,13.36,13.36,0,0,0-1.58,6.5,13,13,0,0,0,1.62,6.36,11.89,11.89,0,0,0,4.52,4.6A12.93,12.93,0,0,0,119,63.79a13.26,13.26,0,0,0,4.47-.72,12.77,12.77,0,0,0,3.65-2Z" fill="#fff"/><path d="M157.75,70.74a20.18,20.18,0,0,1-9.52-2.26,16.49,16.49,0,0,1-6.77-6.63A21.42,21.42,0,0,1,139,51.16a21.2,21.2,0,0,1,2.62-10.78,18.15,18.15,0,0,1,7-7A19.47,19.47,0,0,1,158.2,31,15.66,15.66,0,0,1,167,33.34,17.18,17.18,0,0,1,172.55,39L172,40.42l.82-7.94h7.76V69.83h-8.39V60.09l.9,2.17a9.17,9.17,0,0,1-1.58,2.3,18.62,18.62,0,0,1-3.25,2.84,19.2,19.2,0,0,1-4.65,2.39A17.15,17.15,0,0,1,157.75,70.74ZM160,63.79a13.4,13.4,0,0,0,5.69-1.17,11.36,11.36,0,0,0,4.2-3.3,12.32,12.32,0,0,0,2.3-5.09V46.92a11.57,11.57,0,0,0-2.53-4.74A12.75,12.75,0,0,0,165.33,39a13.63,13.63,0,0,0-5.6-1.12A12.08,12.08,0,0,0,149.13,44a13.33,13.33,0,0,0-1.67,6.77,12.88,12.88,0,0,0,1.72,6.58,12.73,12.73,0,0,0,4.6,4.7A12,12,0,0,0,160,63.79Z" fill="#fff"/><path d="M210.26,70.74a18,18,0,0,1-9.34-2.48,17.67,17.67,0,0,1-6.63-7,22,22,0,0,1-2.44-10.51,20.8,20.8,0,0,1,2.58-10.65,17.37,17.37,0,0,1,7-6.77A20.84,20.84,0,0,1,211.34,31a19.59,19.59,0,0,1,8.44,1.89,15.17,15.17,0,0,1,6.27,5.24l-.36,3V0H234V69.83H225.6V60.54l.9,2.35a20.54,20.54,0,0,1-6.77,5.64A19.85,19.85,0,0,1,210.26,70.74Zm2.62-7.13a14,14,0,0,0,6-1.22A11.7,11.7,0,0,0,223.16,59a13.09,13.09,0,0,0,2.44-5.15v-7A11.19,11.19,0,0,0,223,42.09a14.19,14.19,0,0,0-4.42-3.25,13.28,13.28,0,0,0-5.73-1.22,12.16,12.16,0,0,0-6.27,1.67,12.63,12.63,0,0,0-6.27,11.24,12.94,12.94,0,0,0,1.71,6.63,13.25,13.25,0,0,0,4.6,4.69A11.8,11.8,0,0,0,212.88,63.61Z" fill="#fff"/><path d="M265.93,70.74a22.29,22.29,0,0,1-11-2.57,17.89,17.89,0,0,1-7.08-7,20.67,20.67,0,0,1-2.48-10.24,18.68,18.68,0,0,1,2.79-10,21.25,21.25,0,0,1,7.49-7.22A20.62,20.62,0,0,1,266.11,31a17.78,17.78,0,0,1,12.27,4.33A21.91,21.91,0,0,1,285,47.19L254.2,58l-2-5,25.27-9.2L275.67,45a12.51,12.51,0,0,0-3.61-5.19,9.63,9.63,0,0,0-6.58-2.21,11.49,11.49,0,0,0-6.14,1.67,11.79,11.79,0,0,0-4.24,4.56,13.87,13.87,0,0,0-1.53,6.59,13.88,13.88,0,0,0,1.62,6.81,11.91,11.91,0,0,0,4.47,4.6,12.5,12.5,0,0,0,6.45,1.67,13,13,0,0,0,4.74-.9,19.15,19.15,0,0,0,4.28-2.35L279,66.5a25.73,25.73,0,0,1-6.27,3.06A21,21,0,0,1,265.93,70.74Z" fill="#fff"/><path d="M23.92,107.61a14.41,14.41,0,0,1-1.84.88,17.81,17.81,0,0,1-2.24.73,22.19,22.19,0,0,1-2.4.49,17.12,17.12,0,0,1-2.3.16,16.16,16.16,0,0,1-6.23-1.15,13.76,13.76,0,0,1-4.79-3.2,14.09,14.09,0,0,1-3-4.74A15.74,15.74,0,0,1,0,95a15.3,15.3,0,0,1,4.45-10.9,15.22,15.22,0,0,1,14.87-3.78A15.62,15.62,0,0,1,23,81.86l-.59,1.25a11.68,11.68,0,0,0-2.19-1.06,14.81,14.81,0,0,0-2.47-.69,13.09,13.09,0,0,0-2.57-.25,13.51,13.51,0,0,0-12.67,8.4,13.81,13.81,0,0,0-1,5.39,14.23,14.23,0,0,0,1,5.33,13.07,13.07,0,0,0,2.73,4.31,12.64,12.64,0,0,0,4.29,2.91,14.55,14.55,0,0,0,5.6,1,17.52,17.52,0,0,0,3.89-.46,13.4,13.4,0,0,0,3.56-1.29V97.79H15.6V96.45h8.32Z" fill="#fff"/><path d="M38.63,109.54,51,78.72h.13l12.33,30.82H61.88L50.63,81l1-.46-11.54,29ZM44.2,97.79H58l.34,1.34H43.9Z" fill="#fff"/><path d="M79.07,109.54V79.43h0L93.37,99.67l-.63,0L107,79.43h0v30.11h-1.38V82.82l.12.67L93,101.34H93L80.24,83.49l.25-.63v26.68Z" fill="#fff"/><path d="M125.06,80H143V81.4H126.48V94h14.85v1.34H126.48v12.84h17.06v1.38H125.06Z" fill="#fff"/><path d="M174.23,82.74a19.15,19.15,0,0,0-3.09-1.11,14.11,14.11,0,0,0-3.81-.52,7.42,7.42,0,0,0-4.93,1.54,4.86,4.86,0,0,0-1.84,3.89,4.23,4.23,0,0,0,1,2.91,8.59,8.59,0,0,0,2.7,1.94c1.12.53,2.3,1,3.55,1.55,1,.36,2,.77,2.95,1.21a13.49,13.49,0,0,1,2.64,1.61,7,7,0,0,1,1.9,2.36,7.78,7.78,0,0,1,.71,3.47,8,8,0,0,1-1.17,4.37,7.85,7.85,0,0,1-3.22,2.89,10.39,10.39,0,0,1-4.68,1,13.58,13.58,0,0,1-4.14-.58,17.26,17.26,0,0,1-3.12-1.3c-.85-.47-1.5-.85-1.94-1.13l.67-1.21a16.8,16.8,0,0,0,2.23,1.34,18.38,18.38,0,0,0,2.91,1.15,11,11,0,0,0,3.18.48,9.26,9.26,0,0,0,3.72-.78,7,7,0,0,0,2.95-2.32,6.36,6.36,0,0,0,1.15-3.88,5.87,5.87,0,0,0-1.11-3.75,8.25,8.25,0,0,0-2.84-2.25A35.65,35.65,0,0,0,167,94.07c-1-.36-1.89-.75-2.83-1.15a14.86,14.86,0,0,1-2.55-1.42,6.23,6.23,0,0,1-1.81-2,5.5,5.5,0,0,1-.67-2.8,6.1,6.1,0,0,1,1.06-3.58,7.16,7.16,0,0,1,2.89-2.38,10,10,0,0,1,4.12-.9,17.67,17.67,0,0,1,4,.5,16.43,16.43,0,0,1,3.68,1.3Z" fill="#fff"/></svg>