<?xml version="1.0" encoding="UTF-8"?>
<svg id="Calque_1" data-name="Calque 1" xmlns="http://www.w3.org/2000/svg" width="383.1" height="54.6" viewBox="0 0 383.1 54.6">
  <defs>
    <style>
      .cls-1 {
        fill: #fff;
      }

      .cls-2 {
        fill: #f6f6f6;
      }

      .cls-3 {
        fill: #c6a235;
      }

      .cls-4 {
        fill: none;
        stroke: #c6a236;
        stroke-linecap: round;
        stroke-linejoin: round;
        stroke-width: 8px;
      }
    </style>
  </defs>
  <g>
    <polyline class="cls-4" points="64.3 50.6 64.3 20.8 79.8 5.4 95.1 21.5 95.1 50.6"/>
    <polyline class="cls-4" points="111.5 50.6 111.5 5.4 134.5 5.4 141.4 12.6 141.4 28.7 133.9 36.3 112.7 36.3"/>
    <polygon class="cls-4" points="159.6 5.4 181.9 5.4 189.2 12.6 189.2 43.5 182.4 50.6 159.6 50.6 159.6 5.4"/>
    <polyline class="cls-4" points="206.6 4.7 206.6 43.8 214.4 50.6 229 50.6 237.1 43 237.1 4.7"/>
    <polygon class="cls-4" points="254.7 4.7 277.1 4.7 284.1 11.6 284.1 18.6 276.2 28 284.1 34.8 284.1 43.7 277.1 50.6 254.7 50.6 254.7 4.7"/>
    <line class="cls-4" x1="255.9" y1="27.6" x2="276.2" y2="28"/>
    <line class="cls-4" x1="142.9" y1="50.6" x2="128.9" y2="36.3"/>
    <line class="cls-4" x1="66.5" y1="28" x2="93" y2="28"/>
    <polygon class="cls-4" points="301.4 11.7 301.4 42.7 309.3 50.6 323.8 50.6 331.9 42.5 331.9 12.7 324 4.7 309.5 4.7 301.4 11.7"/>
    <polyline class="cls-4" points="348.8 4.7 348.8 12.6 363.8 26.7 379.1 12.2 379.1 4"/>
    <line class="cls-4" x1="363.9" y1="50.6" x2="363.8" y2="26.7"/>
  </g>
  <polygon class="cls-3" points="53 35.7 53 20.3 51.5 20.3 51.5 18.6 1.6 18.6 1.6 20.3 0 20.3 0 35.7 1.6 35.7 1.6 37.4 51.5 37.4 51.5 35.7 53 35.7"/>
  <polygon class="cls-3" points="34.2 1.5 18.9 1.5 18.9 3.1 17.1 3.1 17.1 52.9 18.9 52.9 18.9 54.5 34.2 54.5 34.2 52.9 35.9 52.9 35.9 3.1 34.2 3.1 34.2 1.5"/>
  <g>
    <polygon class="cls-3" points="25.1 22.7 25.1 21 23.3 21 23.3 19.3 21.4 19.3 21.4 17.6 19.7 17.6 19.7 5.6 21.4 5.6 21.4 4 31.6 4 31.6 5.6 33.3 5.6 33.3 17.6 31.6 17.6 31.6 19.3 29.9 19.3 29.9 21 28.3 21 28.3 22.7 25.1 22.7"/>
    <path class="cls-2" d="M30.6,5v1.6h1.7v9.9h-1.7v1.7h-1.6v1.7h-1.7v1.7h-1.1v-1.7h-1.9v-1.7h-1.9v-1.7h-1.7V6.6h1.7v-1.6h8.1m2-2h-12.1v1.6h-1.7v13.9h1.7v1.7h1.9v1.7h1.9v1.7h1.7v1.7h1.7v-1.7h1.7v-1.7h1.7v-1.7h1.6v-1.7h1.7V4.6h-1.7v-1.6h0Z"/>
  </g>
  <g>
    <polygon class="cls-3" points="21.4 51.9 21.4 50.3 19.7 50.3 19.7 38.3 21.4 38.3 21.4 36.6 23.3 36.6 23.3 34.9 25.1 34.9 25.1 33.2 28.3 33.2 28.3 34.9 29.9 34.9 29.9 36.6 31.6 36.6 31.6 38.3 33.3 38.3 33.3 50.3 31.6 50.3 31.6 51.9 21.4 51.9"/>
    <path class="cls-2" d="M27.3,34.2v1.7h1.7v1.7h1.6v1.7h1.7v9.9h-1.7v1.6h-8.1v-1.6h-1.7v-9.9h1.7v-1.7h1.9v-1.7h1.9v-1.7h1.1m.3-3.7h-1.7v1.7h-1.7v1.7h-1.9v1.7h-1.9v1.7h-1.7v13.9h1.7v1.6h12.1v-1.6h1.7v-13.9h-1.7v-1.7h-1.6v-1.7h-1.7v-1.7h-1.7v-1.7h0Z"/>
  </g>
  <g>
    <polygon class="cls-3" points="4.2 34.7 4.2 33 2.5 33 2.5 22.9 4.2 22.9 4.2 21.1 16.1 21.1 16.1 22.9 17.8 22.9 17.8 24.7 19.6 24.7 19.6 26.6 21.2 26.6 21.2 29.7 19.6 29.7 19.6 31.4 17.9 31.4 17.9 33 16.1 33 16.1 34.7 4.2 34.7"/>
    <path class="cls-2" d="M15.1,22.1v1.7h1.7v1.9h1.7v1.9h1.7v1.1h-1.7v1.7h-1.7v1.6h-1.7v1.7H5.2v-1.7h-1.6v-8.1h1.6v-1.7H15.1m2-2H3.2v1.7H1.5v12.1h1.6v1.7h13.9v-1.7h1.7v-1.6h1.7v-1.7h1.7v-1.7h1.7v-1.7h-1.7v-1.7h-1.7v-1.9h-1.7v-1.9h-1.7v-1.7h0Z"/>
  </g>
  <g>
    <polygon class="cls-3" points="36.9 34.7 36.9 33 35.1 33 35.1 31.4 33.4 31.4 33.4 29.7 31.8 29.7 31.8 26.6 33.4 26.6 33.4 24.7 35.2 24.7 35.2 22.9 36.9 22.9 36.9 21.1 48.8 21.1 48.8 22.9 50.5 22.9 50.5 33 48.8 33 48.8 34.7 36.9 34.7"/>
    <path class="cls-2" d="M47.8,22.1v1.7h1.6v8.1h-1.6v1.7h-9.9v-1.7h-1.7v-1.6h-1.7v-1.7h-1.7v-1.1h1.7v-1.9h1.7v-1.9h1.7v-1.7h9.9m2-2h-13.9v1.7h-1.7v1.9h-1.7v1.9h-1.7v1.7h-1.7v1.7h1.7v1.7h1.7v1.7h1.7v1.6h1.7v1.7h13.9v-1.7h1.6v-12.1h-1.6v-1.7h0Z"/>
  </g>
  <g id="reflets">
    <rect class="cls-1" x="15" y="26.2" width="1.7" height="1.7"/>
    <rect class="cls-1" x="5" y="24.5" width="10" height="1.7"/>
    <rect class="cls-1" x="39.3" y="25.1" width="6.5" height="1.7" transform="translate(85.1 52) rotate(-180)"/>
    <rect class="cls-1" x="45.9" y="26.9" width="1.6" height="1.7" transform="translate(93.4 55.6) rotate(-180)"/>
  </g>
</svg>