<svg xmlns="http://www.w3.org/2000/svg" viewBox="0 0 187.79 114.11">
  <g id="Calque_2" data-name="Calque 2">
    <g id="allgames-fr">
      <g>
        <path d="M20.33,92.05a24.57,24.57,0,0,1-2.64,11.82,18.22,18.22,0,0,1-7.21,7.44A23,23,0,0,1,0,114.11V106.7a13.47,13.47,0,0,0,9.1-3.9q3.59-3.58,3.59-11V45.39h7.64Z" fill="#fff"/>
        <path d="M36.72,45.39h37v7.33H44.37V70.06H70.61v7.33H44.37V95H74.86v7.33H36.72Z" fill="#fff"/>
        <path d="M95,82.2a13,13,0,0,0,1.85,6.89,13.42,13.42,0,0,0,4.93,4.77,13.79,13.79,0,0,0,6.93,1.73,14.57,14.57,0,0,0,7.17-1.73,13,13,0,0,0,5-4.77,13.25,13.25,0,0,0,1.81-6.89V45.39h7.49v37a20.25,20.25,0,0,1-2.88,10.88,19.52,19.52,0,0,1-7.72,7.17A23.18,23.18,0,0,1,108.67,103a22.93,22.93,0,0,1-10.8-2.52,19.3,19.3,0,0,1-7.64-7.17,20.5,20.5,0,0,1-2.84-10.88v-37H95Z" fill="#fff"/>
        <path d="M140.19,102.37,160,71.4l3.7,7.41-14,23.56Zm.79-57h9.69l37.12,57H178Zm22.93,23.25,13.87-23.25H187L168,75Z" fill="#fff"/>
      </g>
      <g>
        <path d="M2.48,2.57H26.11V4.26h-11V38.82H13.37V4.26H2.48Z" fill="#fff"/>
        <path d="M29.7,28.86a10,10,0,0,1,1.39-5.19,10.37,10.37,0,0,1,3.75-3.75,10.17,10.17,0,0,1,5.23-1.38,10.43,10.43,0,0,1,5.35,1.38A10.52,10.52,0,0,1,49.14,34.1a10,10,0,0,1-3.75,3.72,11.08,11.08,0,0,1-10.58,0,10.05,10.05,0,0,1-5.11-9Zm1.7.05a8.59,8.59,0,0,0,1.15,4.44,9.1,9.1,0,0,0,3.13,3.19,8.3,8.3,0,0,0,4.39,1.2,8.41,8.41,0,0,0,4.4-1.18A9.07,9.07,0,0,0,47.6,24.44a9.08,9.08,0,0,0-3.13-3.21,8.33,8.33,0,0,0-4.4-1.2,8,8,0,0,0-4.46,1.26,9,9,0,0,0-3.08,3.31A8.76,8.76,0,0,0,31.4,28.91Z" fill="#fff"/>
        <path d="M67.91,39.29a5.9,5.9,0,0,1-4.37-1.65,6,6,0,0,1-1.74-4.21V19.1h1.69V33a5,5,0,0,0,1.28,3.39,5.06,5.06,0,0,0,3.65,1.44,7.67,7.67,0,0,0,3.8-1A7.78,7.78,0,0,0,75.12,34a7.34,7.34,0,0,0,1.11-4V19.1h1.69V38.82H76.43l-.15-6.11.2.87a6.8,6.8,0,0,1-1.77,2.91,9.6,9.6,0,0,1-3.08,2A9.44,9.44,0,0,1,67.91,39.29Z" fill="#fff"/>
        <path d="M95.53,39.23a10.61,10.61,0,0,1-3.38-.59,6.44,6.44,0,0,1-3-2L90,35.54a6.44,6.44,0,0,0,2.31,1.67,7.62,7.62,0,0,0,3.08.64,7,7,0,0,0,2.34-.39,3.92,3.92,0,0,0,1.82-1.28,3.79,3.79,0,0,0,.72-2.44,3.3,3.3,0,0,0-.8-2.34,5.44,5.44,0,0,0-2.05-1.33c-.84-.33-1.7-.64-2.59-.95a11,11,0,0,1-3.47-1.8A4.08,4.08,0,0,1,90,23.93a4.87,4.87,0,0,1,.77-2.8,5,5,0,0,1,2-1.77,6.48,6.48,0,0,1,2.83-.62,9.29,9.29,0,0,1,2.92.52A6.64,6.64,0,0,1,101.29,21l-.83,1.13a4.27,4.27,0,0,0-2.2-1.51,10.26,10.26,0,0,0-2.42-.49,5,5,0,0,0-1.85.39,4.25,4.25,0,0,0-1.67,1.18,3,3,0,0,0-.69,2,3,3,0,0,0,.64,2A4.69,4.69,0,0,0,93.94,27q1,.46,2.16.87c1,.35,1.89.71,2.8,1.11a6,6,0,0,1,2.23,1.62,4.12,4.12,0,0,1,.87,2.77,6.19,6.19,0,0,1-.74,3.08,5.22,5.22,0,0,1-2.16,2.08A7.68,7.68,0,0,1,95.53,39.23Z" fill="#fff"/>
        <path d="M132.81,0h1.7V38.82h-1.7Z" fill="#fff"/>
        <path d="M156.13,39.18a10.35,10.35,0,0,1-5.32-1.36,10.15,10.15,0,0,1-5.05-8.91,10.21,10.21,0,0,1,1.38-5.24,10.53,10.53,0,0,1,3.75-3.75,10.18,10.18,0,0,1,5.24-1.38,8.65,8.65,0,0,1,5.78,2,11.43,11.43,0,0,1,3.41,5.05l-17.56,7-.52-1.29,16.59-6.57-.41.62a10.58,10.58,0,0,0-2.85-3.75A6.78,6.78,0,0,0,156,20a8.25,8.25,0,0,0-4.37,1.18,8.79,8.79,0,0,0-3.11,3.21,8.91,8.91,0,0,0-1.15,4.49,9,9,0,0,0,1.1,4.34,8.79,8.79,0,0,0,3.06,3.26,8.38,8.38,0,0,0,4.57,1.23,8.6,8.6,0,0,0,3.31-.64,9.87,9.87,0,0,0,2.75-1.67l1,1.18a11.83,11.83,0,0,1-3.26,1.9A10.15,10.15,0,0,1,156.13,39.18Z" fill="#fff"/>
        <path d="M180.42,39.23a10.71,10.71,0,0,1-3.39-.59,6.49,6.49,0,0,1-3-2l.87-1.13a6.53,6.53,0,0,0,2.31,1.67,7.63,7.63,0,0,0,3.09.64,6.91,6.91,0,0,0,2.33-.39,3.62,3.62,0,0,0,2.54-3.72,3.3,3.3,0,0,0-.79-2.34,5.48,5.48,0,0,0-2.06-1.33c-.84-.33-1.7-.64-2.59-.95a11.14,11.14,0,0,1-3.47-1.8,4.08,4.08,0,0,1-1.41-3.39,5,5,0,0,1,.77-2.8,5.06,5.06,0,0,1,2.06-1.77,6.41,6.41,0,0,1,2.82-.62,9.4,9.4,0,0,1,2.93.52A6.68,6.68,0,0,1,186.17,21l-.82,1.13a4.34,4.34,0,0,0-2.21-1.51,10.19,10.19,0,0,0-2.41-.49,5,5,0,0,0-1.85.39,4.18,4.18,0,0,0-1.67,1.18,3,3,0,0,0-.69,2,3,3,0,0,0,.64,2A4.52,4.52,0,0,0,178.83,27c.68.31,1.4.6,2.15.87,1,.35,1.89.71,2.8,1.11A6,6,0,0,1,186,30.56a4.12,4.12,0,0,1,.87,2.77,6.19,6.19,0,0,1-.75,3.08A5.14,5.14,0,0,1,184,38.49,7.71,7.71,0,0,1,180.42,39.23Z" fill="#fff"/>
      </g>
    </g>
  </g>
</svg>
