<?xml version="1.0" encoding="UTF-8"?>
<svg id="Calque_2" data-name="Calque 2" xmlns="http://www.w3.org/2000/svg" xmlns:xlink="http://www.w3.org/1999/xlink" viewBox="0 0 580.69 294.69">
  <defs>
    <style>
      .cls-1 {
        clip-path: url(#clippath-2);
      }

      .cls-2 {
        fill: none;
      }

      .cls-2, .cls-3, .cls-4, .cls-5 {
        stroke-width: 0px;
      }

      .cls-6 {
        clip-path: url(#clippath-1);
      }

      .cls-3 {
        fill: #4c4c4c;
      }

      .cls-7 {
        clip-path: url(#clippath);
      }

      .cls-4 {
        fill: #fff;
      }

      .cls-5 {
        fill: #fefefe;
      }
    </style>
    <clipPath id="clippath">
      <rect class="cls-2" y="29.46" width="432.19" height="265.23"/>
    </clipPath>
    <clipPath id="clippath-1">
      <rect class="cls-2" x="-3320.12" y="-294.68" width="4127.15" height="2917.77"/>
    </clipPath>
    <clipPath id="clippath-2">
      <polygon class="cls-2" points="-1226.64 -94.49 557.91 -94.49 557.91 2428.17 -1226.64 2428.17 -1226.64 -94.49 -1226.64 -94.49"/>
    </clipPath>
  </defs>
  <g id="Calque_2-2" data-name="Calque 2">
    <g id="Calque_2-2" data-name="Calque 2-2">
      <g>
        <path class="cls-3" d="M493.85,68.42v-33.95c0-2.29.04-4.58-.02-6.87-.03-1.02.3-1.36,1.33-1.35,5.18.04,10.36.04,15.53,0,.93,0,1.27.24,1.22,1.2-.07,1.37.03,2.75-.04,4.12-.05.97.19,1.41,1.28,1.4,1.42,0,3.3-.66,4.15.3.9,1.01.28,2.88.28,4.37.01,31.8,0,63.6.05,95.4,0,1.67-.3,2.23-2.11,2.18-4.65-.15-9.31-.1-13.96-.02-1.2.02-1.78-.36-2.11-1.46-.3-.99-.8-1.93-1.16-2.91-.52-1.46-1.04-2.81-3.07-2.36-1.13.25-1.17-.83-1.44-1.49-4.47-10.85-8.93-21.71-13.39-32.57-.22-.53-.45-1.06-.91-2.14-.08.98-.15,1.43-.15,1.87,0,13.02-.04,26.04.04,39.06,0,1.66-.44,2.05-2.05,2.01-4.78-.12-9.57-.09-14.35-.01-1.27.02-1.84-.31-1.61-1.62.01-.06,0-.13,0-.2-.05-1.56.45-3.52-.31-4.56-.73-1-2.81-.28-4.29-.31-.82-.02-1.24-.22-1.13-1.1.05-.39,0-.78,0-1.18,0-32.58.01-65.17-.04-97.75,0-1.75.37-2.31,2.21-2.25,4.65.14,9.31.08,13.96.02,1.1-.01,1.67.31,1.99,1.35.35,1.12.95,2.15,1.31,3.27.46,1.45,1.11,2.45,2.88,2.1,1.23-.24,1.29.89,1.59,1.61,4.48,10.85,8.93,21.71,13.39,32.57.19.46.38.92.56,1.39.12-.04.24-.07.36-.11h.01Z"/>
        <path class="cls-3" d="M380.79,110.86h15.87c2.1,0,4.2.06,6.29-.02,1.06-.04,1.44.33,1.28,1.33v.2c.03,1.63-.51,3.64.26,4.78.77,1.14,2.91.31,4.45.36.95.04,1.03.46,1.02,1.21-.02,5.1-.04,10.21.01,15.31,0,1.03-.42,1.15-1.29,1.15-16.85-.02-33.69-.02-50.54,0-.91,0-1.37-.23-1.23-1.2.03-.19,0-.39,0-.59-.03-1.56.49-3.52-.26-4.57-.72-1-2.8-.29-4.28-.31-.89-.01-1.09-.34-1.09-1.15.03-4.91.02-9.82,0-14.72,0-.84.44-1.49.78-2.18,9.63-19.33,19.26-38.66,28.88-57.99.28-.56.53-1.14.91-1.97h-10.01c-4,0-8-.04-12,.03-1.09.02-1.61-.23-1.41-1.38.02-.13,0-.26,0-.39-.03-1.56.49-3.52-.26-4.58-.73-1.02-2.81-.29-4.29-.32-.89-.02-1.09-.34-1.08-1.16.03-5.1.04-10.21,0-15.31-.01-1.07.5-1.13,1.32-1.12,3.02.03,6.03.01,9.05.01,13.57,0,27.14.02,40.71-.03,1.33,0,2.06.12,1.9,1.74-.15,1.54-.51,3.5.23,4.58.75,1.08,2.81.32,4.29.35,1.01.02,1.18.45,1.17,1.32-.03,4.78-.03,9.55,0,14.33,0,.92-.46,1.62-.83,2.37-9.66,19.39-19.32,38.77-28.99,58.16-.25.51-.5,1.02-.87,1.76h.01Z"/>
        <path class="cls-3" d="M328.61.32v14.13c1.9-2.73,3.55-5.11,5.45-7.86v33.85c.16.05.31.1.47.14,2.95-4.62,5.9-9.24,8.85-13.86.12.03.24.06.36.08v14.1c.14.04.27.08.41.12,1.63-2.54,3.26-5.09,4.91-7.64.64.26.33.79.33,1.16.02,33.44.02,66.88.02,100.32,0,.8-.08,1.52-.52,2.23-5.35,8.45-10.67,16.91-16,25.37-.1.16-.21.32-.59.88v-14.67c-.15-.06-.3-.13-.45-.19-1.65,2.6-3.31,5.21-5.21,8.21v-51.24c-.12-.05-.24-.11-.36-.16-3.34,5.3-6.69,10.6-10.32,16.35v-14.74c-.15-.05-.3-.1-.45-.15-1.67,2.62-3.33,5.25-5,7.87-.12-.04-.24-.09-.36-.13v-1.87c0-28.07,0-56.15-.03-84.22,0-1.38.33-2.49,1.12-3.62,5.34-7.67,10.62-15.39,15.93-23.09.36-.52.73-1.02,1.09-1.53.12.05.24.1.36.14v.02Z"/>
        <path class="cls-3" d="M429.73,105.31c-3.34,5.3-6.69,10.61-10.34,16.4v-14.82c-.14-.04-.27-.09-.41-.13-1.65,2.6-3.31,5.21-4.97,7.83-.71-.39-.38-.97-.38-1.4-.02-28.4-.02-56.79-.02-85.19,0-.85.03-1.64.57-2.41,5.77-8.33,11.5-16.68,17.25-25.02.09-.13.24-.23.6-.57v14.55c1.96-2.83,3.61-5.21,5.49-7.93v33.77c.15.07.31.14.46.2l8.9-13.89c.12.04.24.08.36.13v14.15c.11.03.22.07.33.1,1.66-2.58,3.32-5.16,5.29-8.22v2.39c0,33.04,0,66.08.02,99.12,0,1.3-.31,2.37-1.01,3.47-4.98,7.83-9.89,15.7-14.85,23.54-.32.5-.45,1.22-1.37,1.49v-14.24c-.12-.04-.24-.07-.35-.11-1.65,2.59-3.29,5.18-5.2,8.17v-51.28c-.12-.04-.24-.08-.36-.11h-.01Z"/>
        <path class="cls-3" d="M573.91,35.89c-.34-.24-.5-.75-.72-1.14-2.87-5.06-7.32-7.92-13.01-8.26-8.5-.51-17.03-.5-25.53-.02-8.62.49-14.86,7.39-14.87,16-.03,23.08-.04,46.16-.01,69.25,0,4.99,1.96,9.14,5.87,12.29.73.59,1.29,1.24,1.75,2.06,2.54,4.51,6.46,7.41,11.53,7.88,8.03.76,16.14,1.38,24.22-1.17-.52,2.54,1.05,2.44,2.81,2.41,4.91-.07,9.82,0,14.74,0v-57.33c-1.41-.39-2.86-.17-4.29-.16-1,0-1.34-.27-1.37-1.32-.1-3.48-.15-3.47,3.32-3.48.78,0,1.56-.09,2.34-.14v-26.31c-1.07-4.28-3.04-7.98-6.78-10.56h0ZM557.52,108.69c.03,1.04-.16,1.48-1.36,1.46-3.93-.08-7.86-.07-11.8,0-1.1.02-1.46-.27-1.43-1.41.08-3.2.03-6.41.03-9.62s.07-6.15-.03-9.22c-.04-1.31.36-1.64,1.64-1.62,3.52.04,3.52-.02,3.52,3.41,0,2.17,1.1,3.25,3.3,3.26,1.96,0,4.62-.73,5.71.26,1.25,1.13.33,3.82.38,5.83.06,2.55-.03,5.1.03,7.65h.01ZM560.65,71.04c-5.36-.14-10.73-.09-16.1-.02-1.3.02-1.67-.35-1.62-1.64.09-2.87.03-5.75.03-8.62s.04-5.88-.02-8.82c-.02-1.07.22-1.49,1.39-1.47,3.93.07,7.85.07,11.78,0,1.14-.02,1.43.34,1.41,1.44-.06,4.18.04,8.36-.06,12.54-.03,1.41.25,2.1,1.79,1.85.57-.09,1.19.07,1.76-.03,1.89-.33,2.16.56,2.24,2.25.11,2.12-.62,2.56-2.61,2.51h.01Z"/>
        <path class="cls-3" d="M307.9,48.89c0-5.07-2.04-9.24-6.06-12.4-.52-.41-.97-.83-1.3-1.44-3.05-5.62-7.95-8.45-14.19-8.65-7-.23-14.03-.28-21.03,0-9.71.39-15.86,7.08-15.87,16.82v83.8c0,.78-.18,1.54,1.11,1.51,1.47-.03,3.5-.71,4.28.32.73.96.3,2.89.19,4.38-.11,1.47.26,2.03,1.89,1.98,4.26-.13,8.52-.13,12.78,0,1.68.05,2.02-.45,2.01-2.05-.07-11.58-.01-23.16-.07-34.74,0-1.45.33-1.92,1.83-1.86,3.01.12,6.03.12,9.04,0,1.4-.05,1.72.36,1.71,1.73-.06,9.42,0,18.84-.06,28.26,0,1.46.24,2.21,1.89,1.96.9-.13,1.83.02,2.75-.03.84-.05,1.17.25,1.13,1.12-.06,1.31.05,2.62-.03,3.92-.08,1.19.15,1.71,1.56,1.69,4.98-.1,9.96-.08,14.94,0,1.22.02,1.54-.32,1.54-1.53-.03-28.26-.01-56.52-.04-84.78h0ZM282.14,79.28c-1.05-.02-2.29.4-2.15-1.52.11-1.61.73-3.73-.25-4.74-1.07-1.1-3.22-.33-4.9-.36-3.16-.06-3.16-.02-3.16-3.24,0-5.76.03-11.51-.03-17.27-.01-1.24.26-1.73,1.62-1.69,3.14.1,6.29.09,9.43,0,1.25-.04,1.54.38,1.52,1.56-.06,4.32-.03,8.63-.03,12.95s-.1,8.51.04,12.75c.06,1.87-1.03,1.56-2.11,1.55h.02Z"/>
        <path class="cls-3" d="M233.01,96.19c8.5-4.06,13.34-10.72,13.47-20.35.09-6.74.03-13.48.01-20.21-.01-5.17-1.66-9.8-5.06-13.66-2.07-2.35-4.02-4.8-6.09-7.14-5.57-6.34-12.92-8.56-21.12-8.56s-16.25.05-24.38-.04c-1.65-.02-2.16.28-2.15,2.07.07,32.71.05,65.42.05,98.12,0,.33.03.66,0,.98-.11.87.26,1.09,1.11,1.11,1.48.03,3.51-.7,4.3.33.73.95.3,2.89.19,4.38-.1,1.47.24,2.04,1.89,1.99,4.39-.13,8.78-.11,13.17,0,1.46.03,1.84-.32,1.83-1.81-.07-12.1-.04-24.2-.03-36.31,0-.53.04-1.05.09-2.08.5,1.17.79,1.82,1.06,2.48,3.95,9.8,7.88,19.6,11.85,29.39.26.65.24,1.81,1.36,1.59,2.2-.43,2.79.94,3.31,2.59.33,1.05.84,2.05,1.2,3.1.27.81.75,1.05,1.59,1.04,5.17-.04,10.35-.02,15.56-.02.24-.62-.06-.94-.2-1.3-4.67-11.61-9.31-23.24-14.04-34.83-.59-1.45-.67-2.03,1.03-2.85h0ZM223.07,66.35c-.89,4.95-3.35,6.79-8.53,6.73-2.09-.02-4.87.88-6.08-.39-1.03-1.09-.33-3.69-.36-5.63-.03-2.09,0-4.19,0-6.28,0-3.61.06-7.22-.03-10.83-.03-1.35.26-1.9,1.84-1.86,3.93.11,7.88.06,11.81.02,1.08-.01,1.77.19,1.75,1.38-.1,5.62.6,11.27-.4,16.85h0Z"/>
        <path class="cls-5" d="M472.14,71.12v3.47c0,16.82-.02,33.63.03,50.45,0,1.45-.23,2.01-1.86,1.95-3.73-.14-7.47-.11-11.21-.01-1.47.04-1.97-.27-1.95-1.87.1-7.85.04-15.7.04-23.55,0-23.88.02-47.76-.04-71.65,0-1.68.32-2.23,2.1-2.15,3.6.16,7.21.13,10.81.01,1.53-.05,2.27.38,2.88,1.86,7.13,17.52,14.34,35,21.53,52.49.19.46.38.92.93,1.37v-1.99c0-17.14.04-34.29-.05-51.43-.01-1.97.56-2.38,2.4-2.31,3.6.15,7.21.12,10.81,0,1.49-.05,1.82.38,1.82,1.83-.05,21.33-.03,42.66-.03,63.99,0,10.53-.04,21.07.04,31.6.01,1.5-.39,1.83-1.83,1.79-3.86-.11-7.73-.09-11.6,0-1.16.02-1.67-.35-2.11-1.43-7.27-17.81-14.6-35.6-21.91-53.39-.15-.36-.31-.71-.46-1.07-.11.01-.22.02-.33.03h0Z"/>
        <path class="cls-5" d="M369.29,112.42c10.76,0,21.18.03,31.6-.03,1.4,0,1.91.23,1.86,1.77-.13,3.79-.08,7.59-.02,11.38.02,1.09-.25,1.43-1.39,1.43-15.73-.04-31.46-.04-47.2,0-1.03,0-1.32-.28-1.31-1.31.06-4.12.04-8.24,0-12.37,0-.91.37-1.63.75-2.39,11.06-22.19,22.12-44.38,33.18-66.56.29-.57.54-1.16.82-1.76-.72-.53-1.45-.28-2.13-.28-9.77-.02-19.53-.05-29.3.02-1.47.01-1.88-.36-1.84-1.84.11-3.73.09-7.46,0-11.19-.03-1.24.38-1.52,1.56-1.52,15.6.04,31.2.04,46.8,0,1.23,0,1.54.35,1.52,1.54-.07,3.99-.05,7.98-.01,11.97,0,.97-.36,1.76-.77,2.58-11.09,22.24-22.17,44.49-33.26,66.74-.25.51-.51,1.02-.9,1.8l.04.02Z"/>
        <path class="cls-4" d="M327,4.72v49.97c.11.03.23.07.34.1,4.82-7.57,9.64-15.14,14.48-22.74.65.5.38,1.06.38,1.53.02,31.27.01,62.54.02,93.82,0,.92-.05,1.77-.59,2.61-4.28,6.73-8.5,13.49-12.75,20.25-.12.2-.29.37-.66.83v-66.58c-.15-.07-.29-.14-.44-.2-5.25,8.32-10.49,16.65-15.74,24.97-.12-.02-.23-.04-.35-.06v-1.84c0-26.17,0-52.34-.03-78.51,0-1.38.35-2.49,1.13-3.62,4.35-6.22,8.63-12.48,12.93-18.73.32-.46.64-.91,1.27-1.8h.01Z"/>
        <path class="cls-4" d="M430.48,5.29v49.38c.11.05.21.09.32.14,4.82-7.56,9.63-15.12,14.46-22.7.74.39.41.98.41,1.41.02,31.34.02,62.68.02,94.03,0,.86-.07,1.64-.56,2.42-4.35,6.84-8.65,13.71-12.96,20.58-.1.16-.12.36-.58.3v-66.38c-.12-.04-.24-.08-.36-.13-5.24,8.31-10.47,16.63-15.77,25.05-.53-.58-.3-1.17-.3-1.68-.02-26.37-.01-52.74-.01-79.11,0-.77-.09-1.54.4-2.26,4.87-7.04,9.71-14.09,14.56-21.14.12.03.25.06.37.09h0Z"/>
        <path class="cls-5" d="M223.51,89.47c5.02,12.47,10,24.85,15.09,37.48-4.5,0-8.79-.02-13.08.02-.73,0-.84-.5-1.02-.96-4.85-12.03-9.7-24.07-14.53-36.11-.21-.52-.23-1.15-.23-1.73-.02-3.99.03-7.98-.04-11.97-.02-1.15.19-1.64,1.48-1.55,1.83.12,3.67-.03,5.5.04,3.55.14,5.8-1.67,7.2-4.72,1.78-3.89,1.76-19.14-.01-23.01-1.41-3.07-3.71-4.77-7.23-4.7-3.86.08-7.74.11-11.6-.02-1.66-.06-2.04.43-2.03,2.04.05,22.9.04,45.8.04,68.69,0,4.19-.03,8.37.02,12.56.02,1.08-.26,1.46-1.4,1.44-3.73-.07-7.47-.06-11.21,0-.97.01-1.25-.29-1.19-1.22.07-1.11.02-2.22.02-3.34,0-30.81.02-61.63-.04-92.44,0-1.79.44-2.25,2.22-2.21,8.84.19,17.71-.4,26.53.29,8.15.64,14.76,4.28,18.9,11.61,1.6,2.83,2.4,5.92,2.4,9.19,0,6.54.01,13.08,0,19.63-.02,9.44-5.08,16.82-13.9,20.29-.6.23-1.2.45-1.89.7h0Z"/>
        <path class="cls-5" d="M251.01,83.25c0-13.15.23-26.31-.07-39.46-.24-10.22,6.99-15.78,14.89-15.92,7.01-.13,14.03-.36,21.03.11,8.36.55,13.81,6.52,13.81,14.86.02,27.49,0,54.97.04,82.46,0,1.41-.38,1.72-1.73,1.69-3.8-.1-7.61-.13-11.4.01-1.64.06-1.88-.52-1.87-1.97.04-26.77,0-53.53.09-80.3,0-2.14-.64-2.53-2.59-2.49-5.7.13-11.41.08-17.11.02-1.27-.01-1.65.31-1.64,1.63.06,9.55.06,19.11,0,28.66,0,1.27.3,1.69,1.62,1.66,3.6-.09,7.21.03,10.82-.06,1.32-.03,1.67.38,1.64,1.66-.08,3.66-.08,7.33,0,10.99.03,1.31-.38,1.66-1.67,1.63-3.6-.09-7.21.03-10.82-.06-1.34-.04-1.59.42-1.59,1.65.04,11.71,0,23.43.06,35.14,0,1.44-.29,1.88-1.8,1.83-3.34-.13-6.69-.11-10.03,0-1.38.04-1.71-.34-1.71-1.71.06-14,.03-28.01.03-42.01v-.02Z"/>
        <path class="cls-5" d="M559.06,123.05c-4.13,2.95-8.59,3.31-13.15,3.13-4.18-.16-8.39.39-12.55-.39-7.39-1.39-12.03-6.96-12.04-14.49-.01-22.71-.02-45.41,0-68.12,0-8.72,5.41-14.74,14.1-15.21,8.11-.44,16.26-.46,24.37.03,8.21.5,13.68,6.57,13.73,14.78.04,6.74-.03,13.48.04,20.22.01,1.32-.27,1.83-1.71,1.79-3.73-.1-7.47-.09-11.21,0-1.33.03-1.62-.39-1.61-1.65.06-6.41,0-12.83.06-19.24.01-1.27-.29-1.66-1.61-1.65-6.69.07-13.37.06-20.06,0-1.27-.01-1.65.3-1.65,1.62.04,22.12.04,44.24,0,66.35,0,1.3.45,1.46,1.57,1.45,6.75-.05,13.5-.06,20.26,0,1.25.01,1.5-.34,1.49-1.53-.06-7.26-.06-14.53,0-21.79,0-1.24-.26-1.67-1.59-1.64-3.93.1-7.87,0-11.8.06-1.18.02-1.76-.15-1.71-1.57.11-3.73.08-7.46,0-11.19-.02-1.2.3-1.56,1.53-1.55,8.85.05,17.7.04,26.55,0,1.08,0,1.47.27,1.47,1.42-.03,17.21-.03,34.42,0,51.63,0,1.12-.31,1.44-1.43,1.42-3.74-.06-7.48-.11-11.21.02-1.57.05-2.1-.42-1.87-1.92.08-.55.01-1.12.01-2.01l.02.03Z"/>
      </g>
      <g id="layer1">
        <g id="g10075">
          <g class="cls-7">
            <g id="g10077">
              <g class="cls-6">
                <g id="g10083">
                  <g class="cls-1">
                    <g id="g10089">
                      <path id="path10097" class="cls-4" d="M75.9,174.84c-2.1.54-4.31.83-6.58.83-14.43,0-26.12-11.7-26.12-26.12,0-13.06,9.6-23.89,22.12-25.81l2.34-.39,1.55-.11c13.04-1.65,23.13-12.78,23.13-26.27s-10.17-21.4-23.52-22.76l.03-31.98c27.85,0,50.42,18.98,50.42,46.83,0,13.24-5.1,25.29-13.45,34.28l-.08.18c16.56,10.09,27.62,28.33,27.62,49.13,0,31.76-25.75,57.51-57.5,57.51l.04-55.31h0Z"/>
                      <path id="path10099" class="cls-4" d="M79.19,101.47c0-10.68-9.17-19.33-19.84-19.33l-.1-36.83c-24.6,0-44.53,19.94-44.53,44.53,0,12.52,5.17,23.84,13.49,31.93l.09-.06.8.73c-15.81,11.14-26.15,29.54-26.15,50.35,0,34,27.56,61.55,61.55,61.55,1.06,0,2.1-.02,3.15-.07v-46.99c-.55.03-1.1.04-1.64.04-18.47,0-33.44-14.98-33.44-33.45,0-17.46,13.38-31.79,30.45-33.32l-.88.1c9.6-1.13,17.04-9.29,17.04-19.2h0v.02Z"/>
                      <path id="path10103" class="cls-4" d="M147.04,131.21h54.38v91.84h-54.38v-91.84h0Z"/>
                      <path id="path10105" class="cls-4" d="M259.53,173.26c8.87,0,16.05,3.59,16.05,12.46l-.02,37.33h46.69l-.03-45.47c0-25.6-20.74-46.35-46.34-46.35l-63.18-.02v91.84h46.69l.13-49.79"/>
                      <path id="path10107" class="cls-4" d="M429.35,131.18h-54.9c-25.43,0-46.04,20.55-46.04,45.91s20.61,45.91,46.04,45.91h10.79s-.64,11.22-9.5,11.22h-45.28v41.94h49s49.77,3.59,49.77-48.74l.12-96.24"/>
                      <path id="path10109" class="cls-4" d="M42.85,259.48v4.58h-8.28v2.12h7.5v5.52h-7.5v2.16h8.74v4.43h-14.8v-18.81h14.33"/>
                      <path id="path10111" class="cls-4" d="M80.17,259.48h5.62v6.53h6.68v-6.53h5.49v18.81h-5.49v-7.84h-6.68v7.84h-5.62v-18.81"/>
                      <path id="path10113" class="cls-4" d="M117.21,259.48v6.51h-4.79v12.3h-5.91v-12.3h-5.16v-6.51h15.86"/>
                      <path id="path10115" class="cls-4" d="M139.86,259.48l6.17,9.57v-9.57h5.63v18.81h-5.58l-6.18-9.47v9.47h-5.91v-18.81h5.86"/>
                      <path id="path10117" class="cls-4" d="M237.91,274.53h4.08v3.76h-4.08v-3.76Z"/>
                      <path id="path10119" class="cls-4" d="M247.14,274.53h4.07v3.66c.06.77,0,2.78-1.63,3.71-.76.56-1.8.77-2.44.87v-1.44c.98-.06,1.73-.93,2.01-1.48s.43-1.06.24-1.57h-2.25v-3.76"/>
                      <path id="path10121" class="cls-4" d="M265.21,259.48v14.65h7.35v4.16h-13.55v-18.81h6.2"/>
                      <path id="path10123" class="cls-4" d="M292.91,259.48h9.21c2.03,0,4.58.94,6.33,4.39.4.77.87,2.24.87,4.18,0,3.27-.9,5.6-1.82,6.94-1.36,2.01-3.59,3.3-5.65,3.3h-8.93v-18.81M297.94,273.42h2.35c1.35,0,2.42-.48,3.07-1.82.33-.65.53-1.76.51-2.89,0-1.13-.21-2.26-.72-2.95-.75-1.04-1.5-1.24-2.56-1.24h-2.64v8.89"/>
                      <path id="path10125" class="cls-4" d="M121.88,259.48h7.05v18.81h-7.05v-18.81Z"/>
                      <path id="path10129" class="cls-4" d="M203.94,265.67c-1.09-1.32-2.85-2.03-4.67-2.03-3.25,0-5.45,2.25-5.45,5.11s2.22,5.03,5.54,5.03c1.74,0,3.47-.76,4.59-1.96v5.76c-1.76.49-3.04.86-4.7.86-2.85,0-5.57-.98-7.68-2.72-2.26-1.84-3.29-4.24-3.29-6.99,0-2.52,1.06-4.94,3.01-6.77,2.01-1.85,4.91-2.98,7.79-2.98,1.71,0,3.29.34,4.86.93v5.76"/>
                      <path id="path10131" class="cls-4" d="M229.59,268.38c0,5.97-4.75,10.18-11.32,10.18s-11.32-4.21-11.32-10.18c0-5.59,5.43-9.51,11.32-9.51s11.32,3.92,11.32,9.51M212.93,268.66c0,3.19,2.48,5.52,5.5,5.52s5.5-2.33,5.5-5.52c0-2.55-2.48-4.87-5.5-4.87s-5.5,2.32-5.5,4.87"/>
                      <path id="path10133" class="cls-4" d="M69.98,277.89v.64h5.15v-11.43h-6.15v4.73h1.06s.1,1.12-1.17,1.37c-1.27.26-5.66.26-3.39-6.5,0,0,2.82-4.47,9.61-1.4l-.07-5.4s-9.72-3.49-14.92,3.86c-5.23,7.41,2.53,16.55,9.88,14.12"/>
                      <path id="path10135" class="cls-4" d="M288.93,259.48v4.98h-4.8v13.83h-5.91v-13.83h-5.15v-4.98h15.86"/>
                      <path id="path10137" class="cls-4" d="M167.11,277.89v.64h5.15v-11.43h-6.15v4.73h1.06s.1,1.12-1.17,1.37c-1.28.26-5.66.26-3.4-6.5,0,0,2.83-4.47,9.62-1.4l-.07-5.4s-9.72-3.49-14.92,3.86c-5.24,7.41,2.53,16.55,9.88,14.12"/>
                      <path id="path10139" class="cls-4" d="M314.55,274.53h4.07v3.76h-4.07v-3.76Z"/>
                      <path id="path10141" class="cls-4" d="M48.5,259.48h7.06v18.81h-7.06v-18.81Z"/>
                    </g>
                  </g>
                </g>
              </g>
            </g>
          </g>
        </g>
      </g>
    </g>
  </g>
</svg>