<?xml version="1.0" encoding="UTF-8"?>
<svg id="Calque_2" data-name="Calque 2" xmlns="http://www.w3.org/2000/svg" viewBox="0 0 339.78 83.14">
  <g id="svg19">
    <g>
      <g>
        <path d="m125.45,30.84c0,2.35-.43,4.37-1.3,6.03-.86,1.67-2.02,2.94-3.46,3.82-1.45.88-3.08,1.35-4.89,1.41v-2.1c2.15-.12,3.93-.97,5.34-2.55,1.41-1.58,2.12-3.83,2.12-6.75V3.89h2.19v26.95Z" style="fill: #fff; stroke-width: 0px;"/>
        <path d="m142.08,35.98c-1.82,0-3.43-.4-4.83-1.21-1.4-.8-2.5-1.9-3.29-3.29-.79-1.39-1.18-2.94-1.18-4.67s.42-3.25,1.25-4.65c.83-1.4,1.96-2.52,3.37-3.35,1.42-.83,2.99-1.25,4.72-1.25,2.09,0,3.84.61,5.25,1.83,1.42,1.22,2.44,2.82,3.06,4.78l-15.29,5.9-.63-1.52,13.99-5.45-.45.62c-.51-1.19-1.27-2.22-2.3-3.08-1.03-.86-2.29-1.3-3.78-1.3-1.34,0-2.55.33-3.62.98-1.07.66-1.93,1.54-2.57,2.64-.64,1.1-.96,2.36-.96,3.75,0,1.31.31,2.53.92,3.67.61,1.13,1.47,2.04,2.57,2.73,1.1.69,2.37,1.03,3.8,1.03.95,0,1.87-.18,2.75-.54.88-.36,1.66-.82,2.35-1.39l1.07,1.52c-.83.66-1.8,1.19-2.88,1.61-1.09.42-2.2.63-3.33.63Z" style="fill: #fff; stroke-width: 0px;"/>
        <path d="m161.75,36.11c-1.64,0-2.95-.49-3.93-1.45-.98-.97-1.5-2.23-1.56-3.78v-12.74h2.1v12.11c.06,1.13.42,2.07,1.1,2.82.67.75,1.68,1.15,3.02,1.21,1.13,0,2.19-.3,3.17-.89.98-.6,1.78-1.41,2.39-2.44.61-1.03.92-2.2.92-3.51v-9.3h2.1v17.48h-1.88l-.22-5.5.31,1.21c-.3.89-.83,1.71-1.59,2.44-.76.73-1.65,1.3-2.68,1.72-1.03.42-2.11.63-3.24.63Z" style="fill: #fff; stroke-width: 0px;"/>
        <path d="m191.87,35.62h-2.5l-13.1-17.48h2.64l12.96,17.48Zm-7.78-7.51l-5.36,7.51h-2.24l6.44-8.9,1.16,1.39Zm.04-2.41l5.18-7.55h2.19l-6.48,9.12-.89-1.56Z" style="fill: #fff; stroke-width: 0px;"/>
        <path d="m217.98,35.98c-1.64,0-3.13-.39-4.47-1.18s-2.41-1.88-3.2-3.29c-.79-1.4-1.18-2.98-1.18-4.74,0-1.88.4-3.5,1.21-4.87.8-1.37,1.9-2.43,3.29-3.17,1.39-.74,2.91-1.12,4.58-1.12s3.25.43,4.76,1.3,2.6,2,3.29,3.4l-.36.98V1.65h2.1v33.97h-2.15v-5.36l.45.98c-.75,1.4-1.86,2.54-3.35,3.42s-3.14,1.32-4.96,1.32Zm.54-1.83c1.34,0,2.55-.29,3.62-.87,1.07-.58,1.94-1.37,2.59-2.37.66-1,1.03-2.12,1.12-3.37v-2.24c-.21-1.13-.67-2.14-1.39-3.04-.71-.89-1.58-1.6-2.59-2.12-1.01-.52-2.13-.78-3.35-.78-1.34,0-2.56.31-3.67.94-1.1.63-1.98,1.49-2.64,2.59s-.98,2.38-.98,3.84c0,1.37.33,2.62.98,3.73.66,1.12,1.54,2.01,2.66,2.68,1.12.67,2.33,1,3.64,1Z" style="fill: #fff; stroke-width: 0px;"/>
        <path d="m243.54,35.98c-1.82,0-3.43-.4-4.83-1.21s-2.5-1.9-3.29-3.29c-.79-1.39-1.18-2.94-1.18-4.67s.42-3.25,1.25-4.65c.83-1.4,1.96-2.52,3.37-3.35s2.99-1.25,4.72-1.25c2.09,0,3.84.61,5.25,1.83s2.44,2.82,3.06,4.78l-15.29,5.9-.63-1.52,13.99-5.45-.45.62c-.51-1.19-1.27-2.22-2.3-3.08-1.03-.86-2.29-1.3-3.78-1.3-1.34,0-2.55.33-3.62.98-1.07.66-1.93,1.54-2.57,2.64-.64,1.1-.96,2.36-.96,3.75,0,1.31.3,2.53.92,3.67.61,1.13,1.47,2.04,2.57,2.73,1.1.69,2.37,1.03,3.8,1.03.95,0,1.87-.18,2.75-.54s1.66-.82,2.35-1.39l1.07,1.52c-.83.66-1.8,1.19-2.88,1.61s-2.2.63-3.33.63Z" style="fill: #fff; stroke-width: 0px;"/>
      </g>
      <g>
        <path d="m148.93,78.38c-.42.35-1.19.82-2.33,1.41-1.13.59-2.52,1.12-4.16,1.57-1.64.45-3.45.66-5.44.63-3.03-.07-5.75-.62-8.13-1.65-2.39-1.03-4.41-2.43-6.07-4.21-1.66-1.78-2.92-3.82-3.79-6.12-.87-2.3-1.31-4.76-1.31-7.38,0-2.93.44-5.61,1.33-8.05.89-2.44,2.16-4.55,3.82-6.33,1.66-1.78,3.63-3.16,5.94-4.13,2.3-.97,4.85-1.46,7.64-1.46,2.58,0,4.86.35,6.85,1.05,1.99.7,3.61,1.45,4.86,2.25l-2.98,7.17c-.87-.66-2.03-1.35-3.48-2.07-1.45-.71-3.11-1.07-4.99-1.07-1.46,0-2.87.31-4.21.92-1.34.61-2.53,1.47-3.56,2.59-1.03,1.12-1.84,2.41-2.43,3.9-.59,1.48-.89,3.09-.89,4.84,0,1.85.27,3.54.81,5.07.54,1.54,1.32,2.85,2.33,3.95,1.01,1.1,2.22,1.94,3.64,2.54,1.41.59,3.01.89,4.79.89,2.06,0,3.82-.33,5.28-.99,1.46-.66,2.58-1.36,3.35-2.09l3.14,6.8Z" style="fill: #fff; stroke-width: 0px;"/>
        <path d="m154.16,62.38c0-2.65.5-5.16,1.52-7.53,1.01-2.37,2.41-4.47,4.21-6.3,1.8-1.83,3.88-3.27,6.25-4.31,2.37-1.05,4.92-1.57,7.64-1.57s5.21.52,7.58,1.57c2.37,1.05,4.47,2.48,6.3,4.31,1.83,1.83,3.26,3.93,4.29,6.3,1.03,2.37,1.54,4.88,1.54,7.53s-.52,5.27-1.54,7.64c-1.03,2.37-2.46,4.46-4.29,6.25-1.83,1.8-3.93,3.2-6.3,4.21s-4.9,1.52-7.58,1.52-5.26-.5-7.64-1.52c-2.37-1.01-4.45-2.41-6.25-4.21-1.8-1.79-3.2-3.88-4.21-6.25-1.01-2.37-1.52-4.92-1.52-7.64Zm7.85,0c0,1.71.3,3.3.92,4.79.61,1.48,1.46,2.79,2.56,3.92,1.1,1.13,2.37,2.01,3.82,2.64,1.45.63,3.02.94,4.73.94s3.16-.31,4.58-.94c1.41-.63,2.64-1.51,3.69-2.64s1.87-2.44,2.46-3.92c.59-1.48.89-3.08.89-4.79s-.31-3.36-.92-4.86c-.61-1.5-1.45-2.82-2.51-3.95-1.06-1.13-2.31-2.01-3.74-2.64s-2.98-.94-4.65-.94-3.23.31-4.65.94c-1.43.63-2.69,1.51-3.77,2.64-1.08,1.13-1.92,2.45-2.51,3.95-.59,1.5-.89,3.12-.89,4.86Z" style="fill: #fff; stroke-width: 0px;"/>
        <path d="m201.08,81.57v-40.06h.05l21.39,30.33-3.24-.73,21.34-29.6h.1v40.06h-7.58v-22.96l.47,3.92-13.02,18.51h-.1l-13.39-18.51,1.31-3.61v22.65h-7.32Z" style="fill: #fff; stroke-width: 0px;"/>
        <path d="m261.96,43.08c4.01,0,7.2.81,9.57,2.43,2.37,1.62,3.56,4.04,3.56,7.24,0,2.37-.58,4.35-1.75,5.94-1.17,1.59-2.75,2.77-4.76,3.56-2.01.79-4.3,1.18-6.88,1.18l-1.2-4.08c3.17,0,5.99.44,8.45,1.31,2.46.87,4.4,2.12,5.83,3.74s2.14,3.57,2.14,5.83c0,2.09-.38,3.86-1.12,5.31-.75,1.45-1.76,2.62-3.03,3.5-1.27.89-2.71,1.54-4.31,1.94-1.6.4-3.26.6-4.97.6h-12.81v-38.49h11.3Zm.89,15.74c1.5,0,2.61-.45,3.32-1.36.71-.91,1.07-1.94,1.07-3.09,0-1.32-.44-2.32-1.33-2.98-.89-.66-2.08-.99-3.58-.99h-4.08v8.42h4.6Zm.26,15.69c1.12,0,2.13-.15,3.03-.45.91-.29,1.62-.77,2.14-1.41.52-.64.78-1.46.78-2.43,0-1.12-.31-1.96-.94-2.54-.63-.57-1.44-.98-2.43-1.2-.99-.23-2.03-.34-3.11-.34h-4.34v8.37h4.86Z" style="fill: #fff; stroke-width: 0px;"/>
        <path d="m278.85,81.57l17.36-40.01h.42l17.37,40.01h-8.79l-11.09-28.14,5.49-3.77-13.29,31.9h-7.48Zm11.87-13.91h11.56l2.67,6.38h-16.58l2.35-6.38Z" style="fill: #fff; stroke-width: 0px;"/>
        <path d="m313.84,43.08h25.94v7.32h-9.36v31.17h-7.58v-31.17h-9v-7.32Z" style="fill: #fff; stroke-width: 0px;"/>
      </g>
      <path id="path7" d="m64.76,83.07s-.05-.17-.09-.34c-.26-1.3-.98-3.63-1.57-5.07-.04-.1-.15-.37-.24-.6-.64-1.56-1.68-3.73-2.81-5.86-.63-1.19-.84-1.48-1.17-1.65l-.14-.07-.1.04c-.28.09-.46.49-.94,2.1-.3.98-.44,1.39-.65,1.84l-.15.32-.09.05c-.26.14-.26.12-.17-.78.04-.41.08-.78.08-.82v-.06s-.09.03-.09.03l-.09.03-.04-.05-.04-.05.07-.69c.11-1.06.15-1.68.16-2.46l.02-.72-.08-.5c-.28-1.7-.66-2.56-1.25-2.89l-.17-.1h-.21s-.21-.03-.21-.03l-.07.07-.07.07-.16.99c-.15.94-.18,1.04-.26,1.04-.06,0-.87.2-1.61.39-2.7.71-5.77,1.78-8.8,3.06-.39.17-.73.3-.74.3h-.03v-.79c0-.43-.01-1.38-.02-2.11l-.02-1.32-.04-.03s-.06-.04-.09-.04l-.06-.02-.46.19c-.55.22-1.78.74-2.4,1.01-.24.11-.44.19-.45.19s-.01-.06-.01-.13v-.13l-.08.03-.08.03-.06-.03-.06-.03v-.32c0-1.63-.4-2.43-1.39-2.78l-.2-.07h-.37s-.37,0-.37,0l-.23.07c-1.16.33-3.46,1.82-5.63,3.67-.45.38-2.09,1.84-2.14,1.9,0,0-.08.08-.16.15-.23.21-.24.22-.55.52-.16.15-.48.45-.7.66s-.63.58-.91.81c-.9.75-2.34,2.05-2.74,2.46-.21.22-.45.46-.52.52l-.13.12v-.07c0-.19.89-1.63,1.68-2.73.43-.6,1.64-2.16,1.81-2.33.02-.02.11-.13.21-.26.37-.46.73-.9,1.14-1.38.66-.8,1.38-1.69,1.78-2.21.2-.26.55-.7.77-.98.54-.66.59-.72.81-1.04.45-.63.72-1.2.72-1.54v-.13l-.05-.08c-.31-.45-1.61-.22-4.5.78-1.07.37-1.08.37-1.01.15l.03-.08.41-.22c.22-.12.64-.34.92-.48.52-.27.6-.32.37-.24-.25.09-.36.03-.26-.13.06-.09,0-.06,1.52-.85,3.57-1.86,5.71-3.26,5.97-3.91.15-.36-.03-.81-.5-1.24l-.19-.17-.28-.06c-.15-.04-.43-.12-.61-.19l-.33-.12-.47-.27c-2.76-1.57-4.38-4.7-4.09-7.93l.02-.22-.03-.03c-.06-.05-.36-.12-.66-.16l-.31-.03-.45.04c-.58.05-1.11.17-2.33.55-3.46,1.07-6.42,2.41-17.22,7.75-4.73,2.34-5.27,2.6-5.29,2.58-.02-.02,1.45-.9,3.79-2.27.37-.22.69-.41.71-.42.01-.01-1.21.59-2.73,1.34C1.8,57.96.11,58.79.03,58.82c-.21.08.48-.33,4.09-2.46,3.88-2.29,5.13-3.03,5.79-3.46.15-.1,1.03-.63,1.95-1.19,1.91-1.16,1.98-1.2,2.26-1.38.11-.07.21-.13.22-.13s.09-.05.19-.12c.31-.2,2.13-1.29,3.27-1.95.6-.35,1.32-.78,1.6-.95.29-.18.7-.42.93-.54,2.02-1.11,3.36-2.28,3.78-3.28l.08-.18v-.15s0-.15,0-.15l-.11-.12c-.06-.07-.16-.14-.22-.16l-.11-.04-.5.1c-.6.12-1.37.32-2.13.55-.65.19-.58.18-.58.08v-.09l.1-.1c.06-.06.15-.13.2-.17.06-.04.1-.07.1-.08,0-.02-1.42.37-1.96.54-.29.09-.28.09-.28,0,0-.13.04-.18.37-.43.49-.38.58-.51.42-.65l-.08-.06h-.22c-.12.01-1.3.12-2.61.24-2.28.22-4.23.38-4.93.42l-.32.02.09-.06c.05-.03.08-.06.07-.06-.01,0-.44.03-.95.07s-1.06.08-1.23.09l-.31.02.59-.32c.73-.4.56-.33,1.64-.6,3.16-.77,4.99-1.17,10.17-2.26,3.01-.63,5.32-1.12,5.4-1.15l.05-.02-.22-.11c-1.93-.97-3.48-4.14-3.26-6.62.37-4.01,3.73-7.21,8.19-7.77l.4-.05h.6c1.26,0,2.39.26,3.56.83.34.17.34.19.06-.23-.59-.88-1.15-1.57-3.52-4.3-2.07-2.38-3.01-3.5-3.01-3.59,0-.02.01-.06.02-.08l.02-.04.22.24c.45.48.98,1,1.81,1.76.24.22.65.6.9.85,1.19,1.15,1.93,1.7,2.67,1.99l.14.05.08-.03.08-.03.15.04.15.04.07-.03s.09-.07.12-.12l.05-.08v-.27s0-.27,0-.27l-.07-.37c-.09-.49-.25-1.02-.62-2.14-.41-1.24-.52-1.63-1-3.61-.12-.49-.28-1.13-.37-1.43l-.15-.54-.32-.86c-.18-.47-.34-.9-.35-.95-.02-.05-.12-.31-.21-.57-.17-.47-.24-.66-.47-1.25-.63-1.67-1.8-4.87-1.83-4.99-.03-.12.54,1.18,1.28,2.93.38.89.79,1.87.92,2.18.13.3.24.56.24.56s.14.32.3.71c.17.39.4.93.51,1.2s.22.5.22.49c0,0-.16-.46-.37-1.01-1.36-3.64-1.93-5.2-1.91-5.24.02-.06.39.81,1.9,4.39,1.01,2.39,1.66,3.92,2.16,5.08l.36.84.24-.17c.69-.5,1.21-.87,1.75-1.24l.61-.41.18-.3c1.5-2.53,3.99-4.08,7.82-4.87,2.86-.59,5.44.13,8.4,2.34l.37.28.62-.27c.34-.15.95-.4,1.36-.55l.74-.29v-.24c.05-2.69.25-5.97.45-7.39.04-.26.08-.67.11-.92.08-.87.2-1.65.31-2.02l.05-.18v.23c-.02.12-.04.79-.06,1.49l-.03,1.26.03,1.66c.03,1.7.05,2.3.12,3.61.04.75.11,1.71.14,1.97l.02.14.26-.09c1.2-.41,2.56-.79,4.2-1.18,1.08-.26.96-.28.83.12-.31.94-1.37,4.26-1.7,5.32l-.06.2.03-.02s.18-.15.36-.32c3.1-2.8,6.54-4.26,10.45-4.45l.65-.03.69.03c7.91.36,12.91,5.54,11.01,11.42-.04.11-.06.21-.06.21,0,0,.03.01.07.03l.06.02.38-.42c1.85-2.02,3.22-3.34,6.4-6.15,1.56-1.38,1.69-1.5,2.21-2.05.21-.23.42-.44.45-.47l.07-.05-.08.12c-.13.2-.52.73-.8,1.1-.15.19-.29.37-.31.4-.02.03.13-.1.35-.28,1.09-.96,1.3-1.15,1.68-1.5.23-.21.59-.57.82-.81.22-.24.44-.46.49-.5.12-.09-.47.71-1.2,1.65-.56.72-.8,1.04-1.46,1.95-.1.13-.58.68-1.08,1.22-2.45,2.63-3.6,4.01-4.37,5.26-.05.08-.16.25-.24.39-.7,1.13-.83,1.5-.56,1.66l.09.05.18-.02c.19-.02.75-.18,1.23-.34.3-.11.56-.21,1.75-.71,1.24-.52,2.23-.79,2.23-.61,0,.3-1.8,1.53-3.26,2.23-.2.1-.42.2-.49.24-.07.04-.3.15-.49.25-.81.41-1.49.87-1.74,1.16l-.12.14.07-.02s.28-.04.53-.07l.47-.05h.78c3.95,0,7.37,2.12,7.89,4.91,0,.04.02.1.04.14.01.04.05.26.08.47l.06.4v.62s0,.62,0,.62l-.04.33c-.18,1.35-.62,2.6-1.29,3.7-.11.18-.2.33-.2.35,0,.01-.1.15-.23.29-.81.96-.2,1.55,1.91,1.82l.47.06.32-.02c.18,0,.99-.1,1.82-.21,3.2-.42,3.6-.47,4.22-.54.35-.04.75-.08.89-.09l.24-.02-.04.03s-.23.07-.46.13c-.23.05-.42.1-.41.11,0,0,.42-.04.93-.11,1.33-.17,2.14-.27,2.44-.29l.27-.02-.23.06c-.12.03-.95.23-1.83.44-6.49,1.52-8.6,2.17-9,2.79l-.08.12v.22l.08.13c.13.21.24.32.4.43.08.05.2.14.27.21.37.34,1,.67,2.21,1.14.31.12.71.29.88.37,2.05.94,4.28,1.91,5.85,2.54.11.05.2.09.2.09,0,0-.21-.03-.45-.08-.42-.08-2.67-.39-2.69-.37,0,0,.09.05.2.09.11.05.22.1.24.11l.03.03-.07-.02c-.52-.14-3.62-.55-5.59-.74-.35-.03-1.07-.12-1.6-.2l-.98-.14-.52.02c-.5.02-.65.03-1.16.13-.36.07-.87.28-.87.35,0,.02.03.1.06.18.08.19.19.57.25.89l.05.25v.56s0,.56,0,.56l-.06.31c-.48,2.5-2.37,4.52-5.3,5.67-1.09.43-1.71,1.06-1.9,1.93l-.06.27.02.35.02.35.07.31c.1.44.3,1.01.6,1.66.87,1.92.94,2.09,1.12,2.69,0,.02,0,.05-.02.07l-.02.04-.18-.13c-.27-.19-.47-.33-.99-.68-.26-.18-.51-.34-.54-.37l-.06-.04v.06c.04.13-.05.09-.52-.23l-.49-.33-.23-.04-.23-.04-.17.03c-.4.08-.56.39-.48.94.19,1.35.59,2.59,1.52,4.8.09.22.25.61.35.88.26.69.52,1.35,1.2,3.03.65,1.62,3.06,7.55,3.11,7.64l.03.06-.03-.02c-.16-.11-1.36-2.34-3.54-6.55-.57-1.1-1.04-2-1.05-2-.01.01.07.21,1.56,3.88.57,1.39,1.06,2.6,1.09,2.69l.06.16-.04-.04c-.2-.19-1.2-2.02-3.17-5.82-2.58-4.99-3.31-6.24-4.42-7.63-.1-.12-.34-.44-.53-.69-.19-.26-.51-.65-.7-.86l-.35-.4h-.06s-.11.03-.18.07l-.12.07-.05.11-.05.11.05.15c.13.4.39,1.55.39,1.71v.08l-.09.04c-.14.07-.17.04-.5-.45-.43-.63-.75-1.06-.76-1.02,0,.02,0,.08.02.15l.03.11-.08.08c-.05.05-.11.08-.14.08h-.06s-.4-.58-.4-.58c-.46-.67-.81-1.1-.97-1.2l-.11-.08-.2.08-.2.08-.15.31c-1.06,2.26-3.43,3.96-6.05,4.36l-.34.05h-.76s-.76,0-.76,0l-.33-.05-.33-.05-.21.07c-.37.13-.49.15-.84.15h-.34v.24c0,.59.13,1.12.76,3.12l.15.48-.29-.31c-.78-.85-1.61-1.41-2.16-1.46l-.19-.02-.14.04c-.2.05-.35.15-.58.35-.52.47-.56.69-.59,2.93v1.31s.02.83.02.83c.05,1.39.21,3,.46,4.73l.05.35-.04.23c-.02.13-.05.42-.07.65l-.03.42.03.51c.04.63.12,1.29.31,2.41.28,1.69.3,1.86.15,1.66h0Zm-1.4-6.63c-.33-1.72-.5-2.99-.56-4.28-.02-.31-.05-.94-.09-1.41l-.06-.86v-1.07s0-1.07,0-1.07l.05-.38c.17-1.35.48-2.08,1.03-2.44.57-.37,1.54-.12,2.2.58l.18.19-.11-.34c-.06-.19-.14-.5-.19-.7l-.08-.36-.02-.35-.02-.35.03-.22.03-.22.1-.22.1-.22-.08-.03s-.08-.03-.09-.03c0,0-.08.25-.17.55l-.17.55-1.36.46c-.75.26-1.37.46-1.37.45,0,0,.11-.76.25-1.68.14-.92.27-1.72.28-1.78l.02-.11-.14-.13c-.08-.07-.2-.21-.27-.32-.07-.11-.14-.19-.15-.18-.14.06-3.68,1.25-3.7,1.25-.01,0,.09-.68.21-1.5.89-5.65,1.69-11.17,2.12-14.67l.1-.81.48-.19c1.52-.6,4.27-1.81,4.27-1.88,0-.01,0-.11,0-.22v-.2s-.39,0-.39,0h-.39s-.27-.06-.27-.06c-2.44-.47-3.11-3.18-2-8.12,1.84-8.18,5.54-14.29,11.08-18.25.84-.6,1.81-1.01,2.99-1.26l.31-.06.49-.02.49-.02.24.04c.13.02.35.07.49.11l.26.07.32.18.32.18.22.2c.62.56,1.08,1.47,1.29,2.56.03.14.05.26.06.27,0,.01,1.6-.5,1.62-.51.02-.02-.15-.33-.32-.62-1.46-2.44-4.19-3.9-8.26-4.39l-.52-.06-.98-.02-.98-.02-.43.04c-1.7.14-4.1.82-4.84,1.36l-.06.04-.13.4c-4.72,14.66-8.21,28.61-11.09,44.3-.22,1.21-.64,3.61-.63,3.62.02.02.47-.77.61-1.06l.14-.3.28-.35c.29-.36.34-.41.31-.31,0,.03-.04.15-.07.27-.21.77-.61,1.64-1.08,2.35l-.24.37h.19s.19.03.19.03l.12.07c.06.04.14.09.17.13.03.03.06.06.07.06s.08.08.15.19c.58.82.93,2.29,1.02,4.27l.03.67-.03.79c-.02.43-.05,1.02-.07,1.3-.05.72-.05.82.03.32.93-6.44,3.45-4.45,6.19,4.89.21.71.38,1.3.39,1.29,0,0-.05-.32-.13-.7h0Zm-35.18-6.76c2.61-2.75,4.5-4.41,6.48-5.69,1.52-.98,2.55-1.51,3.27-1.68l.23-.05h.7l.16.05c.09.03.21.08.26.11.06.03.11.06.11.05.02-.04-.16-7.63-.18-7.66,0,0-.19.06-.4.14-.41.15-.85.27-1.23.34l-.22.04v.05c.34,1.26-2.4,3.53-7.2,5.97-.29.15-.52.27-.52.28,0,0,.26-.11.58-.25,1.12-.5,1.66-.67,2.31-.73l.32-.03.24.03c.53.07.8.29.85.7l.02.13-.06.25c-.24,1.08-1.4,2.7-4.55,6.38-.86,1.01-1.45,1.71-1.84,2.2-.48.59-.49.6.67-.62h0Zm13.34-4.29c2.91-1.19,5.83-2.17,8.54-2.86.83-.21.69-.03.86-1.1,2.8-17.18,6.79-33.98,11.77-49.64.18-.55.31-1,.31-1-.1,0-2.23.64-3.02.91-1.54.52-3.77,1.43-4.8,1.95l-.18.09-.07.24c-1.22,4.19-2.98,10.96-4.13,15.97-1.34,5.78-2.15,9.89-3.37,17.03-.31,1.82-.57,3.34-.59,3.38l-.02.08-.02-.29c0-.16-.07-1.54-.12-3.08-.48-12.6-1.01-21.82-1.82-31.69-.23-2.82-.12-2.47-.7-2.21-1.56.67-3.23,1.6-4.93,2.72-.36.24-1.6,1.11-1.71,1.19l-.05.04.19,1.42c1.78,13.12,2.78,28.33,3.02,45.83.01.75.02,1.36.02,1.36,0,0,.37-.15.82-.33h0Zm42.61-1.83c-1.12-2.67-1.15-4.69-.07-5.02l.17-.05h.33s.33.03.33.03l.21.08c.42.16.85.46,1.34.95l.27.27-.42-.94c-1.14-2.54-1.24-3.73-.42-4.67l.18-.2-.08.02s-.23.04-.41.07l-.33.05h-1.68l-.37-.07c-.65-.12-1.24-.3-1.8-.57-.14-.06-.24-.12-.24-.13,0,0,.2.02.43.05.8.11.99.13,2.06.14l1.08.02.31-.04c1.8-.2,4.12-1.27,5.22-2.41,3.07-3.16,1.19-7.77-3.54-8.68-.21-.04-.46-.1-.56-.13-.1-.03-.32-.09-.48-.13-.39-.1-.38-.11.05-.11,2.74,0,5.24,1.13,6.34,2.86l.09.14.26-.14c.28-.16.62-.26,1.07-.34l.29-.05.81-.02.81-.02.52.04c1.31.09,3.94.47,6.26.9.44.08.8.15.81.14,0,0-.09-.04-.2-.08-.11-.04-.63-.21-1.14-.38-.51-.17-1.24-.4-1.62-.51-3.1-.91-4.77-1.73-5.12-2.52l-.06-.14v-.31l.06-.12c.23-.51,1.23-1.11,2.48-1.48l.33-.1h-.85s-.85,0-.85,0l-.35-.05c-1.19-.17-2.22-.67-2.37-1.17,0-.02-.1.05-.22.15-.44.39-1.19.92-1.8,1.27-.55.31-1.68.83-1.75.81-.06-.02.58-.51.95-.73,2.72-1.58,4.3-4.05,4.57-7.16l.03-.39-.03-.38c-.3-3.57-4.05-5.91-8.7-5.42l-.34.04-.03.12c-.12.49-.52,2.34-.61,2.83l-.12.61-.23.02c-.38.03-1.51.32-1.59.4-.01.01,0,.16.02.32.02.16.05.52.06.8l.02.5.21.04c1.13.2,1.82,1.05,2.06,2.57l.06.37v.93s0,.93,0,.93l-.05.42c-.73,6.45-3.98,13.27-9.22,19.35l-.32.37-.06.27c-.04.15-.08.33-.11.4-.02.07-.04.13-.04.14,0,0,.06,0,.13.01.63.03,1.75,1,2.56,2.22l.06.09-.09-.23c-.05-.13-.12-.35-.15-.5l-.06-.26v-.41s.02-.41.02-.41l.06-.11.06-.11.14-.08c.08-.04.21-.08.3-.09l.16-.02.19.05c1.06.25,2.9,2.28,4.64,5.13.11.19.21.34.22.34s-.06-.17-.15-.38h0Zm-18.11-1.53c0-.11.02-.25.03-.31,0-.06-.02.02-.05.16-.06.26-.07.35-.02.35.01,0,.03-.09.04-.2h0Zm7.26-1.23c.28-.24.85-.78.87-.83,0-.01.07-.1.15-.2.08-.1.2-.26.27-.36l.13-.18-.47.48c-.26.26-.68.68-.93.93-.26.25-.51.49-.55.54l-.08.08.17-.11c.09-.06.3-.22.45-.36h0Zm-8.43-.92c.96-.32,2.56-1.38,3.8-2.53,5.21-4.81,9.13-10.16,11.35-15.49,1.46-3.5,2.3-7.1,2.24-9.6v-.62s-.06-.29-.06-.29c-.18-1.12-.56-1.69-1.31-1.93l-.21-.07h-.49s-.49,0-.49,0l-.25.05c-1.35.28-2.67.89-4.99,2.31-1.12.69-2.04,1.12-2.67,1.25l-.24.05h-.29s-.29-.03-.29-.03l-.2-.11-.2-.11-.13-.17c-.08-.1-.16-.24-.2-.34l-.06-.17v-.33s0-.33,0-.33l.06-.26c.31-1.31,1.35-3.16,3.49-6.2l.54-.77.23-.24c.56-.58.99-.92,1.34-1.05l.18-.07h.39l.15.06c.29.12.53.46.61.86l.03.17-.02.38-.02.38-.08.44c-.1.55-.32,1.39-.56,2.19-.1.34-.19.63-.19.64,0,.01.13-.04.29-.12,2.17-1.03,4.05-1.76,4.92-1.91l.21-.04.07-.38c.17-.87.78-3.54,1.33-5.8.09-.38.16-.7.15-.7,0,0-.23.07-.5.16l-.48.16-.09.41c-.12.56-.3,1.58-.44,2.47-.06.41-.13.74-.14.73-.01,0-.29-.05-.62-.1l-.59-.1v-.05s.02-.28.05-.56c.37-3.64-.15-5.72-1.55-6.18l-.2-.07-.4-.02c-1.22-.05-2.52.43-3.81,1.4-4.6,3.44-7.88,8.6-9.65,15.14-1.52,5.61-1.31,8.15.69,8.4l.29.03.35-.03c1.46-.14,3.88-1.21,5.97-2.63.31-.21.81-.52,1.11-.69l.55-.31.37-.14c1.67-.63,2.58.14,2.35,2-.42,3.39-2.24,6.82-5.69,10.69-1.21,1.36-1.49,1.62-1.95,1.82l-.16.07h-.24s-.24,0-.24,0l-.18-.1-.18-.1-.13-.15c-.65-.78-.41-3.04.82-7.67.21-.78.28-.73-.51-.32-1.56.81-3.46,1.68-5.14,2.35l-.35.14v.09c-.02.05-.08.47-.14.94-.37,2.91-1.12,8.07-1.79,12.36-.04.28-.08.51-.07.52.02.02,1.36-.45,1.4-.49.07-.07.44-1.53.6-2.32l.06-.3h.04s.3.08.61.16l.57.13v.11c-.02.06-.06.31-.1.56l-.07.45v.65s0,.65,0,.65l.06.21c.07.24.14.36.26.42l.08.04h.28s.28-.03.28-.03l.19-.07Zm-26.78-5.21c.45-.09,1.11-.27,1.12-.32.02-.06-.11-3.63-.23-6.33-.34-7.35-.88-14.77-1.52-20.91-.06-.55-.11-1.01-.11-1.02,0,0-.02,0-.04,0s-.16-.04-.31-.09c-.15-.05-.41-.12-.58-.16-.17-.04-.45-.11-.63-.16s-.45-.11-.6-.14l-.28-.05-.71-.02-.71-.02-.44.04c-2.74.22-4.69,1.28-6.12,3.31-.73,1.04-1.16,2.12-1.28,3.2l-.03.3.02.51.02.51.07.33c.29,1.49,1.18,3.1,2.21,4.04.42.38,1.2.97,1.8,1.37.24.15.44.3.46.32.03.03-.31-.05-.73-.17l-.13-.04-.27.07c-1.06.27-3.96.86-8.53,1.74-3.32.64-6.99,1.38-6.95,1.42.01.01,1.72-.15,2.85-.28.52-.06,1.38-.15,1.9-.21.52-.06,1.16-.12,1.43-.14l.48-.04.66.02.66.02.35.06c.45.08.57.11.62.17l.04.05-.03.09c-.04.1-.21.27-.5.47-.11.08-.19.14-.19.15,0,0,.32-.07.71-.15,1.21-.28,2.04-.4,2.67-.4h.36l.21.05c1,.23.64,1.42-.8,2.63-1.46,1.23-3,2.26-5.97,3.99-1.53.89-5.19,3.13-5.16,3.16,0,0,.83-.38,1.84-.85,8.2-3.85,12.54-5.31,14.57-4.9.27.05.23.08.31-.25.12-.5.26-.9.49-1.44l.24-.54.27-.45c1.13-1.9,2.85-3.54,5.39-5.11.41-.25.47-.28.47-.23,0,.03,0,.03-.43.32-3.24,2.14-5.32,5-5.68,7.78l-.04.34.02.24c0,.13.02.31.03.4l.02.16-.03.11-.03.11.03.28c.17,1.56.86,3.21,1.81,4.33.12.14.26.31.31.38.72.97,1.95,1.69,3.33,1.97l.29.06h.38s.38,0,.38,0l.32-.06Zm31.63-7.58c.85-.42,1.63-.83,2.25-1.17l.48-.27.23-.35c.27-.41.86-1.37.84-1.38,0,0-.21.09-.46.22-.89.46-1.9.88-2.62,1.08-.38.11-.92.22-.95.2-.03-.02-.25.89-.46,1.92-.02.11-.05.12.7-.24h0Zm-19.97-18.08c.17-.72.41-1.74.54-2.27.13-.53.23-.96.22-.97-.04-.04-1.48-.2-1.5-.16,0,0,.02.4.05.87.03.47.1,1.51.16,2.3.05.79.1,1.57.11,1.71l.02.27.05-.23c.03-.12.19-.81.35-1.53Zm36.85-3.07c.26-.21.57-.38,1.19-.68,1.81-.86,4.53-2.47,4.18-2.47-.08,0-.59.26-1.46.75-2.17,1.21-3.19,1.55-3.84,1.27l-.14-.06v.06c-.02.06-.34,1.43-.37,1.54,0,.04.04,0,.13-.11.08-.09.22-.23.32-.3Zm-2.44-.17s-.01-.01-.01.04c0,.05,0,.07.01.05,0-.02,0-.06,0-.09h0Zm.36-1.96l.04-.19-.06.02s-.1.03-.16.04l-.1.02v.18c0,.19-.04,1.12-.07,1.58v.26s.14-.86.14-.86c.09-.47.18-.94.2-1.05h0Zm-47.33.81c-.03-.23-.07-.59-.09-.8l-.04-.38h-.18c-.45,0-.92-.26-1.58-.88l-.23-.21.17.21c.1.12.49.6.89,1.08.39.48.8.98.91,1.13.11.14.2.26.2.26,0,0-.02-.18-.05-.41h0Zm13.67-.26c.52-2.08,1.44-5.61,2.06-7.84.29-1.05,1.04-3.7,1.07-3.8v-.04s-.46-.25-.46-.25c-1.43-.75-2.45-1.09-3.66-1.21l-.37-.04-.49.02c-.59.02-1.16.1-1.79.25-.39.09-1.34.36-1.36.38,0,0,.03.48.08,1.06.05.58.14,1.66.2,2.41.06.74.11,1.36.12,1.36,0,0,.2-.08.45-.19.5-.22,1.42-.59,1.48-.59h.03l.07.85c.14,1.62.42,5.07.51,6.4.05.74.1,1.37.11,1.4v.06s.33.02.33.02c.39.02,1,.12,1.25.19.1.03.2.06.21.06.01,0,.08-.23.16-.52h0Zm36.62-2.55c.86-1.17,1.97-2.43,3.89-4.4.82-.85,2.61-2.81,2.5-2.74-.1.06-2.55,2.26-3.22,2.89-1.2,1.12-2.75,2.74-4.05,4.21l-.39.44.2-.06c.11-.03.33-.11.49-.16.33-.11.33-.11.27.11-.02.09-.04.17-.04.18,0,.02.04-.03.35-.45h0Zm-3.36-.35c.06-.49.04-.54-.05-.15l-.07.32.02.08c.04.21.05.18.1-.26h0Z" style="fill: #fff; stroke-width: 0px;"/>
    </g>
  </g>
</svg>