<?xml version="1.0" encoding="UTF-8"?>
<svg id="Calque_2" data-name="Calque 2" xmlns="http://www.w3.org/2000/svg" viewBox="0 0 231.16 81.89">
  <g id="svg19">
    <g>
      <g style="isolation: isolate;">
        <path d="m109.7,35.51V.14h.05l17.05,24.21-1.02-.15L142.78.14h.05v35.37h-2.34V5.64l.19,1.17-14.42,20.32h-.1l-14.52-20.32.39-1.07v29.77h-2.34Z" style="fill: #fff; stroke-width: 0px;"/>
        <path d="m153.84,35.51V.14h.05l17.05,24.21-1.02-.15L186.92.14h.05v35.37h-2.34V5.64l.2,1.17-14.42,20.32h-.1l-14.52-20.32.39-1.07v29.77h-2.34Z" style="fill: #fff; stroke-width: 0px;"/>
        <path d="m195.79,18.26c0-2.44.46-4.72,1.36-6.84.91-2.13,2.18-4.01,3.8-5.65,1.62-1.64,3.5-2.92,5.63-3.85s4.41-1.39,6.85-1.39,4.73.46,6.87,1.39,4.03,2.21,5.65,3.85c1.62,1.64,2.9,3.52,3.82,5.65.93,2.13,1.39,4.41,1.39,6.84s-.46,4.72-1.39,6.85c-.93,2.13-2.2,4-3.82,5.63s-3.51,2.89-5.65,3.8c-2.14.91-4.43,1.36-6.87,1.36s-4.72-.44-6.85-1.32-4-2.11-5.63-3.7-2.89-3.46-3.8-5.6c-.91-2.14-1.36-4.48-1.36-7.02Zm2.44.05c0,2.11.39,4.09,1.17,5.94s1.87,3.48,3.26,4.87,3.01,2.49,4.85,3.29,3.79,1.19,5.87,1.19,4.14-.4,5.99-1.19,3.48-1.89,4.87-3.29,2.49-3.02,3.29-4.87c.79-1.85,1.19-3.85,1.19-5.99s-.4-4.1-1.19-5.97c-.8-1.87-1.89-3.51-3.29-4.92-1.4-1.41-3.02-2.52-4.87-3.34-1.85-.81-3.83-1.22-5.94-1.22s-4.14.41-5.99,1.24c-1.85.83-3.47,1.96-4.85,3.39-1.38,1.43-2.45,3.08-3.22,4.95-.76,1.87-1.14,3.84-1.14,5.92Z" style="fill: #fff; stroke-width: 0px;"/>
      </g>
      <path id="text21" d="m123.26,39.14c2.64,0,5,.34,7.07,1.03,2.07.65,3.79,1.61,5.17,2.87,1.42,1.23,2.49,2.72,3.22,4.48.73,1.72,1.09,3.68,1.09,5.86,0,1.72-.27,3.45-.8,5.17-.5,1.72-1.34,3.29-2.53,4.71-1.15,1.42-2.68,2.57-4.6,3.45-1.91.84-4.29,1.26-7.12,1.26h-5.97v13.44h-8.33v-42.28h12.81Zm1.44,20.8c1.26,0,2.32-.21,3.16-.63s1.49-.96,1.95-1.61c.5-.65.84-1.32,1.03-2.01.23-.73.34-1.4.34-2.01,0-.46-.08-1.03-.23-1.72-.11-.73-.38-1.46-.8-2.18s-1.07-1.34-1.95-1.84c-.84-.5-1.99-.75-3.45-.75h-5.97v12.75h5.92Zm7.81,5.17l10.46,16.32h-9.71l-10.69-16.09,9.94-.23Zm30.16-25.97c3.49,0,6.43.59,8.85,1.78,2.41,1.15,4.25,2.8,5.52,4.94,1.26,2.11,1.9,4.62,1.9,7.53,0,1.72-.27,3.47-.8,5.23-.5,1.72-1.32,3.29-2.47,4.71-1.11,1.42-2.62,2.57-4.54,3.45-1.88.84-4.19,1.26-6.95,1.26h-5.97v13.39h-8.33v-42.28h12.81Zm1.44,20.8c1.26,0,2.32-.21,3.16-.63.84-.46,1.49-1.01,1.95-1.67.5-.69.84-1.4,1.03-2.13.23-.73.34-1.36.34-1.9,0-.42-.08-.98-.23-1.67-.11-.73-.38-1.46-.8-2.18-.42-.73-1.07-1.34-1.95-1.84-.84-.5-1.99-.75-3.45-.75h-5.97v12.75h5.92Zm56.59,17.23c-.5.54-1.28,1.09-2.36,1.67-1.07.54-2.32,1.03-3.73,1.49-1.38.46-2.8.82-4.25,1.09-1.46.31-2.83.46-4.14.46-3.45,0-6.55-.5-9.31-1.49-2.76-1.03-5.11-2.45-7.07-4.25-1.95-1.84-3.45-4-4.48-6.49-1.03-2.49-1.55-5.21-1.55-8.16,0-3.87.57-7.22,1.72-10.05,1.19-2.87,2.78-5.25,4.77-7.12,2.03-1.91,4.35-3.33,6.95-4.25,2.64-.92,5.4-1.38,8.27-1.38,2.72,0,5.21.31,7.47.92,2.26.57,4.17,1.3,5.74,2.18l-2.7,7.76c-.69-.38-1.61-.77-2.76-1.15-1.15-.38-2.32-.69-3.5-.92-1.19-.27-2.24-.4-3.16-.4-2.3,0-4.33.29-6.09.86-1.76.57-3.26,1.44-4.48,2.59-1.19,1.15-2.09,2.59-2.7,4.31-.61,1.69-.92,3.66-.92,5.92,0,1.99.34,3.79,1.03,5.4.69,1.57,1.65,2.91,2.87,4.02,1.26,1.11,2.74,1.95,4.42,2.53,1.72.57,3.62.86,5.69.86,1.19,0,2.28-.08,3.27-.23,1-.19,1.84-.48,2.53-.86v-5.11h-7.3v-8.04h15.74v17.87Z" style="fill: #fff; stroke-width: 0px;"/>
      <path id="path5" d="m32.45,54.49l-1.01-.31v-2.59s-.03-2.59-.03-2.59l-5.06-1.12c-2.78-.61-5.29-1.13-5.56-1.14l-.51-.02v2.76c0,1.6-.22,3.06-.52,3.47l-.52.71-3.07-.64c-5.82-1.2-12.14-3.8-14.89-6.11l-1.28-1.07v-1.08c.02-1.81,1.52-6.98,2.27-7.81.39-.43,1.21-2.01,1.82-3.51.61-1.5,1.3-2.69,1.53-2.64l.42.09-.58-1.92c-.32-1.06-.58-2.25-.59-2.65,0-.4-.47-1.41-1.03-2.23-1.38-2.02-2.63-6.18-2.63-8.77C1.22,11.12,2.89,2.26,4,.54l.35-.54.9,1.15c.97,1.23,4.46,8.34,5.25,10.68.73,2.19,3.73,6.33,5.39,7.45l1.49,1,.7-.78.7-.78h1.92c1.06,0,3.13.37,4.6.83l2.67.83,1.36,1.41c2.07,2.13,5.48.12,9.05-5.32l.67-1.03.43.43c.23.23.76.43,1.16.43h.73v.81c0,2.76,1.51-.51,1.86-4.03l.23-2.26-.57.7c-.32.39-.68.6-.81.47-.13-.13-.73.51-1.33,1.43-1.42,2.14-1.64,2.12-.54-.06,4.73-9.34,6.86-8.75,6.89,1.91.03,9.39-2.06,13.91-8.08,17.51-.07.04.33,1.53.89,3.32,1.77,5.6,2.29,12.67,1.22,16.61l-.25.91-1.47.4c-2.18.58-5.79.84-6.95.48h0Zm6.69-33.73l.81-.35h-3.65l.81.35c.45.19.9.35,1.01.35s.57-.16,1.01-.35Zm-31.29-3.14c-.6-2.5-2.62-5.48-3.27-4.83-.44.44.66,3.41,1.74,4.71,1.29,1.53,1.88,1.58,1.53.12Zm38.76.45c.41-.35-1.45-.09-1.99.28l-.61.41,1.22-.27c.67-.15,1.29-.34,1.39-.42Zm-1.83-8.62l1.12-1.17-.46-.29c-.5-.31-1.87.75-2.49,1.92l-.38.71h.55c.3,0,1.05-.53,1.67-1.17h0Z" style="fill: #fff; stroke-width: 0px;"/>
      <path id="path6" d="m35.86,76.62c-.26-3.17.41-8.52,1.17-9.46l.6-.74,2.1.86,2.1.86,2-2.46,2-2.46-1.41-1.14-1.41-1.14-.72-2.66c-.92-3.41-.38-6.05,1.77-8.71l1.71-2.11,2.38-1.04c2.68-1.17,2.47-1.2,3.49.55l.76,1.31-1.1.46c-.61.26-1.5.95-1.98,1.55l-.88,1.08,1.39,1.08c.77.59,1.9,1.24,2.51,1.43l1.11.35.56,3.48c.82,5.13,2.88,7.68,7.87,9.74l2.75,1.14.2.99c.12.59-.44,1.78-1.37,2.95l-1.57,1.96,1.64-.32c2.08-.41,1.77-.03-.96,1.18-1.18.53-3.16.83-4.4.67l-2.26-.29-1.39-1.49c-.77-.82-1.69-1.83-2.05-2.25l-.65-.77-2.31,1.33-2.31,1.33.11,2.31c.24,5.02-11.03,5.46-11.44.44h0Zm7.92.54c-.19-.35-.76-.81-1.25-1.04-.5-.23-.34.06.35.63.69.57,1.1.76.9.41h0Zm14.62-5.51l1.33-.67,1.06.86c1.22.98,1.59.73,1.67-1.13l.05-1.31-1.71-.31-1.71-.31-1.4,1.46c-1.61,1.68-1.26,2.39.69,1.41h0Zm-11.19-9.17c2.52-.14,2.76-1.29.39-1.9l-1.48-.38-.5-1.95-.5-1.95-.54.66c-1.55,1.92.23,5.64,2.64,5.51Zm4.05-4.29l.71-1.88-.84-1.12-.84-1.12-1.22.13-1.22.13-.4,1.62-.4,1.62,1.2-.6c1.69-.84,2.51.08,1.86,2.06-.75,2.26.26,1.53,1.15-.84h0Zm5.74-2.2l-2.13-3.26,3.3-3.96c1.82-2.18,4.16-4.84,5.21-5.91l1.91-1.95,3.36-7.05,3.36-7.05,2.51-.43c1.38-.24,3.32-.27,4.31-.07l1.8.37,2.93-1.33,2.93-1.33,7.49-.8c4.12-.44,7.5-.71,7.51-.59.01.11-1.95,1.94-4.36,4.06l-4.38,3.86-1.84,5.03c-1.74,4.75-2.24,6.22-3.39,9.89l-.48,1.53,2.02,1.64,2.02,1.64.64-.35.64-.35-.48.66c-.27.36-1.81.95-3.42,1.31-1.62.36-3.33.91-3.8,1.22-.47.31-1.23.45-1.67.31-.44-.14-1.05.03-1.33.39s-2.7,1.8-5.35,3.2c-2.65,1.4-6.28,3.65-8.06,4.99l-3.23,2.44-2.94-2.41-2.94-2.41-2.13-3.26Zm37.05-13.47c.85-2.59,1.78-4.86,2.07-5.04s-.29,1.92-1.29,4.68c-2.29,6.34-2.83,6.59-.78.36h0Z" style="fill: #fff; stroke-width: 0px;"/>
    </g>
  </g>
</svg>