<?xml version="1.0" encoding="UTF-8"?>
<svg id="Calque_2" data-name="Calque 2" xmlns="http://www.w3.org/2000/svg" viewBox="0 0 372.22 82.48">
  <g id="svg19">
    <g>
      <path id="path1" d="m26.71,80.83c0-.74.37-1.11,1.11-1.11s1.11-.37,1.11-1.11-.37-1.11-1.11-1.11c-1.05,0-1.11-.37-1.11-6.12,0-5.07-.14-6.12-.83-6.12s-.83-.83-.83-4.17v-4.17h-2.23c-1.86,0-2.23-.19-2.23-1.11,0-.74-.37-1.11-1.11-1.11-.9,0-1.11-.37-1.11-1.95v-1.95h-3.06c-2.69,0-3.06-.13-3.06-1.11,0-.9-.37-1.11-1.95-1.11s-1.95-.21-1.95-1.11c0-.75-.37-1.11-1.13-1.11-.62,0-1.29-.44-1.49-.97-.2-.54-.69-1.17-1.1-1.42-.41-.24-.74-.81-.74-1.25s-.38-.81-.83-.81c-.51,0-.83-.52-.83-1.32,0-2.51-.7-4.8-1.46-4.8-.56,0-.77-.83-.77-3.06,0-2.35.19-3.06.83-3.06.6,0,.83-.62.83-2.23,0-1.86.19-2.23,1.11-2.23.61,0,1.11-.36,1.11-.8s.5-.96,1.11-1.15c.61-.19,1.11-.68,1.11-1.09s.5-.86,1.11-1.02c1.03-.27,1.11-.76,1.11-6.47v-6.17h-1.95c-1.98,0-4.18-1.55-4.16-2.92.01-.78,2.38-3.2,3.14-3.2.27,0,.8-.5,1.18-1.11,1-1.61,5.44-1.61,5.86,0,.26,1.01.76,1.11,5.29,1.11,3.93,0,5.07.18,5.32.83.18.46.78.83,1.35.83s1.57.63,2.24,1.39c.67.77,1.46,1.39,1.77,1.39.34,0,.56,2.38.56,6.12v6.12h1.95c1.27,0,1.95.26,1.95.75,0,.53,1.17.86,3.93,1.12,4.2.39,6.65,1.54,6.65,3.13,0,.54.5,1.12,1.11,1.28.61.16,1.11.69,1.11,1.18,0,.91,2.38,1.07,17.05,1.14,3.51.02,4.77.24,5.61,1,1.43,1.29,2.38,1.23,2.38-.14,0-.76.37-1.11,1.18-1.11.93,0,1.12-.26.91-1.25-.52-2.42-.7-2.93-1.21-3.29-.28-.2-.48-3.02-.44-6.26.08-6.04,0-6.23-2.16-5.99-.18.02-.36-.83-.4-1.88-.06-1.56.13-1.92,1.02-1.92.73,0,1.1-.38,1.1-1.11,0-.91.37-1.11,2-1.11,1.53,0,2.07-.26,2.29-1.11.26-1.01.76-1.11,5.24-1.11s4.94.08,4.94,1.11c0,.93.37,1.11,2.23,1.11s2.23.19,2.23,1.11c0,.74.37,1.11,1.11,1.11s1.11.37,1.11,1.1c0,.92.27,1.05,1.67.77,1.64-.33,1.67-.29,1.67,1.96,0,1.67-.23,2.3-.83,2.3-.46,0-.83.49-.83,1.11,0,.88-.37,1.12-1.81,1.12-1.97.01-4.31,1.96-4.31,3.6,0,.52,1.25,2.35,2.78,4.07,2.66,2.99,2.78,3.26,2.78,6.35,0,1.78-.25,3.23-.56,3.23s-.56.77-.56,1.72c0,1.25-.3,1.8-1.11,2.01-.61.16-1.11.65-1.11,1.08s-.44.95-.97,1.15c-.54.2-1.17.69-1.42,1.1s-.81.74-1.25.74-.81.29-.81.65-.44,1.14-.97,1.73c-.83.92-1,2.49-1.17,10.76-.19,9.52-.18,9.68.97,9.68.99,0,1.17.34,1.17,2.19,0,1.7.25,2.27,1.11,2.54.78.25,1.11.84,1.11,1.99,0,1.26.25,1.63,1.11,1.63,1.03,0,1.11.37,1.11,5.29v5.29h-10.57v-1.96c0-1.49-.42-2.33-1.74-3.51-1.41-1.26-1.79-2.1-2.02-4.44-.17-1.81-.54-2.89-.98-2.89-.39,0-.86-.85-1.06-1.89-.23-1.23-.74-1.99-1.45-2.17-.84-.22-1.1-.76-1.1-2.29,0-1.63-.21-2-1.11-2-.74,0-1.11.37-1.11,1.11s-.37,1.11-1.14,1.11c-1.1,0-1.14.28-1.05,8.21.07,7.13-.03,8.23-.81,8.39-.49.1-.89.66-.89,1.25,0,1-.45,1.07-6.4,1.07s-6.4-.06-6.4-1.11c0-.74.37-1.11,1.11-1.11s1.11-.37,1.11-1.11-.37-1.11-1.13-1.11c-1.07,0-1.13-.29-.97-5.15.14-4.51.28-5.14,1.13-5.07.83.07.97-.42.97-3.2s.13-3.28,1.11-3.28c.86,0,1.11-.37,1.11-1.65,0-1.08.38-1.86,1.11-2.25.61-.33,1.11-.96,1.11-1.41s.38-.82.83-.82.83-.49.83-1.11c0-.76-.37-1.11-1.18-1.11-1.04,0-1.14-.22-.82-1.81.2-.99,1.1-2.85,2.02-4.13.91-1.27,1.66-2.73,1.66-3.23s.56-1.49,1.25-2.2c2.67-2.75,3.32-4.78,1.53-4.78-.62,0-1.55-.5-2.07-1.11-1.16-1.36-4.6-1.57-4.6-.28,0,.57-.57.83-1.81.83s-2.05.37-2.51,1.11c-.38.61-1.19,1.11-1.78,1.11s-1.35.48-1.66,1.07c-.31.59-2.06,1.78-3.88,2.64-1.82.87-3.42,2.01-3.57,2.54-.14.53-1.04,1.41-1.98,1.95-1.27.72-1.72,1.38-1.72,2.53,0,.86-.37,1.69-.84,1.87-.67.26-.83,1.51-.83,6.38,0,5.69.07,6.06,1.11,6.06s1.11.37,1.11,8.35-.05,8.35-1.11,8.35c-.74,0-1.11.37-1.11,1.11,0,1.03-.37,1.11-5.29,1.11s-5.29-.08-5.29-1.11h0Z" style="fill: #fff; stroke-width: 0px;"/>
      <path id="text19" d="m113.09,1.51c3.35,0,5.93.7,7.75,2.09,1.85,1.36,2.78,3.59,2.78,6.67,0,1.53-.29,2.92-.88,4.19-.58,1.27-1.46,2.31-2.63,3.12-1.14.81-2.57,1.33-4.29,1.56l-.24-1.17c1.79.13,3.41.58,4.87,1.36,1.49.75,2.68,1.77,3.56,3.07.91,1.27,1.36,2.76,1.36,4.48,0,1.56-.31,2.92-.93,4.09-.58,1.14-1.4,2.09-2.44,2.87-1.01.75-2.16,1.32-3.46,1.71-1.3.36-2.66.54-4.09.54h-9.01V1.51h7.65Zm1.12,16.17c2.47,0,4.24-.67,5.31-2,1.1-1.33,1.66-2.99,1.66-4.97,0-2.47-.73-4.24-2.19-5.31-1.43-1.07-3.36-1.61-5.8-1.61h-5.36v13.88h6.38Zm.15,16.22c1.56,0,2.99-.24,4.29-.73,1.3-.52,2.34-1.3,3.12-2.34.78-1.04,1.17-2.32,1.17-3.85,0-1.69-.44-3.04-1.32-4.04-.88-1.04-1.98-1.79-3.31-2.24-1.33-.49-2.7-.73-4.09-.73h-6.38v13.93h6.53ZM134.19,1.51h21.34v2.29h-18.95v13.74h17.05v2.29h-17.05v13.98h19.63v2.29h-22.02V1.51Zm28.11,34.59L176.91,0h.19l14.62,36.1h-2.68l-12.72-32.3,1.66-.93-13.3,33.23h-2.39Zm7.06-13.69h15.35l.68,2.24h-16.61l.58-2.24ZM194.35,1.51h22.65v2.29h-10.18v32.3h-2.39V3.8h-10.08V1.51Z" style="fill: #fff; stroke-width: 0px;"/>
      <path id="text21" d="m105.31,39.74h28.49v8.04h-10.28v34.24h-8.33v-34.24h-9.88v-8.04Zm72.1,0v42.28h-8.33v-17.18h-18.9v17.18h-8.33v-42.28h8.33v17.06h18.9v-17.06h8.33Zm10.92,0h28.84v8.04h-20.51v9.02h18.15v8.04h-18.15v9.13h21.31v8.04h-29.64v-42.28Zm38.26,42.28v-44.01h.06l23.5,33.32-3.56-.8,23.44-32.52h.11v44.01h-8.33v-25.22l.52,4.31-14.3,20.34h-.11l-14.71-20.34,1.44-3.96v24.88h-8.04Zm80.6-15.63c0,1.34.4,2.62,1.21,3.85.8,1.23,1.86,2.22,3.16,2.99,1.34.77,2.8,1.15,4.37,1.15,1.72,0,3.26-.38,4.6-1.15,1.34-.77,2.39-1.76,3.16-2.99.8-1.23,1.21-2.51,1.21-3.85v-26.66h8.22v26.83c0,3.1-.77,5.86-2.3,8.27-1.53,2.37-3.6,4.25-6.2,5.63-2.6,1.34-5.5,2.01-8.67,2.01h0c-3.14,0-6.01-.67-8.62-2.01-2.57-1.38-4.62-3.26-6.15-5.63-1.53-2.41-2.3-5.17-2.3-8.27v-26.83h8.33v26.66Zm48.77-26.66c3.49,0,6.43.59,8.85,1.78,2.41,1.15,4.25,2.8,5.52,4.94,1.26,2.11,1.9,4.62,1.9,7.53,0,1.72-.27,3.47-.8,5.23-.5,1.72-1.32,3.29-2.47,4.71-1.11,1.42-2.62,2.57-4.54,3.45-1.88.84-4.19,1.26-6.95,1.26h-5.97v13.39h-8.33v-42.28h12.81Zm1.44,20.8c1.26,0,2.32-.21,3.16-.63.84-.46,1.49-1.01,1.95-1.67.5-.69.84-1.4,1.03-2.13.23-.73.34-1.36.34-1.9,0-.42-.08-.98-.23-1.67-.11-.73-.38-1.46-.8-2.18-.42-.73-1.07-1.34-1.95-1.84-.84-.5-1.99-.75-3.45-.75h-5.97v12.75h5.92Z" style="fill: #fff; stroke-width: 0px;"/>
    </g>
  </g>
</svg>