<?xml version="1.0" encoding="UTF-8"?>
<svg id="Calque_2" data-name="Calque 2" xmlns="http://www.w3.org/2000/svg" viewBox="0 0 285.14 80.37">
  <g id="svg19">
    <g>
      <g>
        <path d="m134.02,4.38c-.92-.45-2.06-.86-3.4-1.25-1.34-.39-2.68-.58-4.02-.58-2.09,0-3.75.52-5.01,1.56-1.25,1.04-1.88,2.35-1.88,3.93,0,1.19.36,2.18,1.07,2.97.72.79,1.65,1.46,2.82,2.01,1.16.55,2.4,1.08,3.71,1.59,1.04.39,2.08.82,3.11,1.3,1.03.48,1.96,1.06,2.79,1.74.83.69,1.5,1.54,1.99,2.55.49,1.01.74,2.26.74,3.75,0,1.76-.42,3.32-1.25,4.67-.83,1.36-2,2.41-3.49,3.15-1.49.75-3.22,1.12-5.19,1.12-1.58,0-3.02-.19-4.31-.58-1.3-.39-2.43-.84-3.4-1.36-.97-.52-1.74-.96-2.3-1.32l1.03-1.79c.65.48,1.45.95,2.39,1.43s1.96.88,3.06,1.21c1.1.33,2.21.49,3.31.49,1.28,0,2.53-.25,3.73-.76s2.21-1.27,3-2.3c.79-1.03,1.18-2.33,1.18-3.91s-.37-2.75-1.12-3.69c-.75-.94-1.7-1.71-2.86-2.3-1.16-.6-2.4-1.13-3.71-1.61-1.01-.39-2.03-.8-3.04-1.23-1.01-.43-1.94-.95-2.77-1.56-.83-.61-1.5-1.35-1.99-2.21-.49-.86-.74-1.91-.74-3.13,0-1.52.39-2.85,1.16-3.98.77-1.13,1.83-2.02,3.15-2.66,1.33-.64,2.84-.98,4.54-1.01,1.49,0,3,.19,4.54.58,1.54.39,2.87.88,4,1.47l-.85,1.7Z" style="fill: #fff; stroke-width: 0px;"/>
        <path d="m144.79,7.37h2.15v7.91h5.41v1.7h-5.41v15.55h-2.15v-15.55h-3.71v-1.7h3.71v-7.91Z" style="fill: #fff; stroke-width: 0px;"/>
        <path d="m159.41,15.06l.22,5.36-.27-.67c.39-1.07,1-2,1.83-2.77.83-.77,1.77-1.37,2.79-1.79,1.03-.42,2.02-.63,2.97-.63l-.09,2.06c-1.34,0-2.56.3-3.64.89-1.09.6-1.95,1.39-2.59,2.39s-.96,2.12-.96,3.37v9.25h-2.1V15.06h1.83Z" style="fill: #fff; stroke-width: 0px;"/>
        <path d="m179.88,32.9c-1.67,0-3.18-.38-4.54-1.14-1.36-.76-2.43-1.83-3.22-3.2-.79-1.37-1.18-2.96-1.18-4.78,0-1.94.42-3.6,1.25-4.98.83-1.38,1.97-2.44,3.4-3.17s3.05-1.1,4.87-1.1c1.55,0,3.02.46,4.4,1.39,1.39.92,2.38,2.09,2.97,3.49l-.31.63.27-4.96h1.88v17.48h-2.1v-5.41l.45.8c-.21.6-.57,1.18-1.07,1.77-.51.58-1.12,1.12-1.86,1.61-.73.49-1.54.88-2.41,1.16-.88.28-1.81.42-2.79.42Zm.45-1.79c1.31,0,2.5-.28,3.55-.83,1.06-.55,1.92-1.32,2.57-2.3s1.03-2.12,1.12-3.4v-2.5c-.24-1.1-.71-2.09-1.41-2.95-.7-.86-1.56-1.55-2.57-2.06-1.01-.51-2.12-.76-3.31-.76-1.31,0-2.52.31-3.62.92-1.1.61-1.98,1.47-2.64,2.57-.66,1.1-.98,2.4-.98,3.89,0,1.37.33,2.62.98,3.73s1.54,2.01,2.66,2.68c1.12.67,2.33,1.01,3.64,1.01Z" style="fill: #fff; stroke-width: 0px;"/>
        <path d="m199.37,7.37h2.15v7.91h5.41v1.7h-5.41v15.55h-2.15v-15.55h-3.71v-1.7h3.71v-7.91Z" style="fill: #fff; stroke-width: 0px;"/>
        <path d="m219.75,32.9c-1.82,0-3.43-.4-4.83-1.21s-2.5-1.9-3.29-3.29c-.79-1.39-1.18-2.94-1.18-4.67s.42-3.25,1.25-4.65c.83-1.4,1.96-2.52,3.37-3.35,1.42-.83,2.99-1.25,4.72-1.25,2.09,0,3.84.61,5.25,1.83,1.42,1.22,2.44,2.82,3.06,4.78l-15.29,5.9-.63-1.52,13.99-5.45-.45.63c-.51-1.19-1.27-2.22-2.3-3.08-1.03-.86-2.29-1.3-3.78-1.3-1.34,0-2.55.33-3.62.98-1.07.66-1.93,1.54-2.57,2.64-.64,1.1-.96,2.35-.96,3.75,0,1.31.3,2.53.92,3.67.61,1.13,1.47,2.04,2.57,2.73,1.1.69,2.37,1.03,3.8,1.03.95,0,1.87-.18,2.75-.54s1.66-.82,2.35-1.39l1.07,1.52c-.83.66-1.8,1.19-2.88,1.61s-2.2.63-3.33.63Zm3.08-27.44l-4.74,5.94h-1.52l3.89-5.94h2.37Z" style="fill: #fff; stroke-width: 0px;"/>
        <path d="m241.7,41.08c-.98,0-1.92-.11-2.82-.34-.89-.22-1.77-.6-2.64-1.14-.87-.54-1.76-1.24-2.68-2.1l1.25-1.43c1.28,1.22,2.47,2.05,3.58,2.48,1.1.43,2.17.65,3.22.65,1.82,0,3.26-.29,4.34-.87,1.07-.58,1.85-1.36,2.32-2.32.48-.97.73-2.05.76-3.24l.04-5.68.49.54c-.6,1.55-1.66,2.82-3.2,3.8-1.54.98-3.27,1.48-5.21,1.48-1.64,0-3.14-.41-4.49-1.23-1.36-.82-2.44-1.92-3.24-3.31s-1.21-2.93-1.21-4.63c0-1.82.42-3.41,1.25-4.78.83-1.37,1.97-2.45,3.4-3.24,1.43-.79,3.01-1.18,4.74-1.18,1.61,0,3.14.42,4.58,1.25,1.45.83,2.5,1.94,3.15,3.31l-.27.98.22-5.01h1.88v17.74c0,1.43-.32,2.78-.96,4.05-.64,1.27-1.65,2.29-3.04,3.06-1.38.77-3.21,1.16-5.47,1.16Zm-7.38-17.39c0,1.37.33,2.62.98,3.73s1.54,2.01,2.66,2.68c1.12.67,2.36,1.01,3.73,1.01s2.5-.29,3.58-.87c1.07-.58,1.95-1.36,2.64-2.35.68-.98,1.07-2.04,1.16-3.17v-2.59c-.24-1.13-.71-2.13-1.41-2.99-.7-.86-1.56-1.55-2.59-2.06-1.03-.51-2.15-.76-3.37-.76-1.37,0-2.62.31-3.73.94-1.12.63-2,1.49-2.66,2.59s-.98,2.38-.98,3.84Z" style="fill: #fff; stroke-width: 0px;"/>
        <path d="m258.68,8.63c0-.42.16-.77.49-1.05s.69-.42,1.07-.42c.42,0,.77.14,1.07.42s.45.63.45,1.05c0,.45-.15.81-.45,1.09s-.66.42-1.07.42c-.39,0-.75-.15-1.07-.45-.33-.3-.49-.66-.49-1.07Zm.45,6.44h2.1v17.48h-2.1V15.06Z" style="fill: #fff; stroke-width: 0px;"/>
        <path d="m276.78,32.9c-1.82,0-3.43-.4-4.83-1.21s-2.5-1.9-3.29-3.29c-.79-1.39-1.18-2.94-1.18-4.67s.42-3.25,1.25-4.65c.83-1.4,1.96-2.52,3.37-3.35,1.42-.83,2.99-1.25,4.72-1.25,2.09,0,3.84.61,5.25,1.83,1.42,1.22,2.44,2.82,3.06,4.78l-15.29,5.9-.63-1.52,13.99-5.45-.45.63c-.51-1.19-1.27-2.22-2.3-3.08-1.03-.86-2.29-1.3-3.78-1.3-1.34,0-2.55.33-3.62.98-1.07.66-1.93,1.54-2.57,2.64-.64,1.1-.96,2.35-.96,3.75,0,1.31.3,2.53.92,3.67.61,1.13,1.47,2.04,2.57,2.73,1.1.69,2.37,1.03,3.8,1.03.95,0,1.87-.18,2.75-.54s1.66-.82,2.35-1.39l1.07,1.52c-.83.66-1.8,1.19-2.88,1.61s-2.2.63-3.33.63Z" style="fill: #fff; stroke-width: 0px;"/>
      </g>
      <g>
        <path d="m116.8,80v-35.12h.05l18.75,26.6-2.84-.64,18.71-25.95h.09v35.12h-6.65v-20.13l.41,3.44-11.42,16.23h-.09l-11.74-16.23,1.15-3.16v19.85h-6.42Z" style="fill: #fff; stroke-width: 0px;"/>
        <path d="m158.2,63.17c0-2.32.44-4.52,1.33-6.6s2.12-3.92,3.69-5.53c1.57-1.61,3.4-2.87,5.48-3.78,2.08-.92,4.31-1.38,6.69-1.38s4.57.46,6.65,1.38,3.92,2.18,5.53,3.78c1.61,1.6,2.86,3.45,3.76,5.53.9,2.08,1.35,4.28,1.35,6.6s-.45,4.62-1.35,6.69c-.9,2.08-2.16,3.91-3.76,5.48-1.6,1.58-3.45,2.8-5.53,3.69s-4.29,1.33-6.65,1.33-4.62-.44-6.69-1.33c-2.08-.89-3.91-2.12-5.48-3.69-1.58-1.57-2.8-3.4-3.69-5.48-.89-2.08-1.33-4.31-1.33-6.69Zm6.88,0c0,1.5.27,2.9.8,4.2.54,1.3,1.28,2.45,2.25,3.44s2.08,1.76,3.35,2.32c1.27.55,2.65.83,4.15.83s2.77-.28,4.01-.83c1.24-.55,2.32-1.32,3.23-2.32s1.63-2.14,2.15-3.44c.52-1.3.78-2.7.78-4.2s-.27-2.95-.8-4.26c-.54-1.31-1.27-2.47-2.2-3.46-.93-.99-2.03-1.77-3.28-2.32-1.25-.55-2.61-.83-4.08-.83s-2.83.28-4.08.83c-1.25.55-2.35,1.32-3.3,2.32-.95.99-1.68,2.15-2.2,3.46-.52,1.31-.78,2.74-.78,4.26Z" style="fill: #fff; stroke-width: 0px;"/>
        <path d="m209.24,46.25c3.51,0,6.31.71,8.39,2.13,2.08,1.42,3.12,3.54,3.12,6.35,0,2.08-.51,3.81-1.54,5.21s-2.42,2.43-4.17,3.12c-1.76.69-3.77,1.03-6.03,1.03l-1.05-3.58c2.78,0,5.25.38,7.41,1.15,2.16.76,3.86,1.86,5.11,3.28,1.25,1.42,1.88,3.13,1.88,5.11,0,1.83-.33,3.39-.99,4.65-.66,1.27-1.54,2.29-2.66,3.07-1.12.78-2.38,1.35-3.78,1.7-1.41.35-2.86.53-4.36.53h-11.23v-33.75h9.9Zm.78,13.8c1.31,0,2.29-.4,2.91-1.19.63-.79.94-1.7.94-2.71,0-1.16-.39-2.03-1.17-2.61-.78-.58-1.83-.87-3.14-.87h-3.58v7.38h4.04Zm.23,13.76c.98,0,1.86-.13,2.66-.39.79-.26,1.42-.67,1.88-1.24.46-.56.69-1.28.69-2.13,0-.98-.27-1.72-.83-2.22-.55-.5-1.26-.86-2.13-1.05-.87-.2-1.78-.3-2.73-.3h-3.81v7.34h4.26Z" style="fill: #fff; stroke-width: 0px;"/>
        <path d="m224.05,80l15.22-35.08h.37l15.22,35.08h-7.7l-9.72-24.67,4.81-3.3-11.65,27.97h-6.56Zm10.41-12.2h10.13l2.34,5.59h-14.54l2.06-5.59Z" style="fill: #fff; stroke-width: 0px;"/>
      </g>
      <path d="m29.55,0C18.46,3.57,8.56,10.31,3.83,19.34c3.04-.2,2.38,3.27,2.38,6.74h-3.03c.07,4.5,1.01,5.06,1.01,5.06,1.98,0,1.98,3.6,1.98,7.2h-3.79L0,74.78c0,.62.79,1.18,2.22,1.7.05-5.77.33-10.69,1.97-10.69,1.73,0,1.95,5.5,1.98,11.7,1.53.29,3.31.56,5.3.81.04-6.16.34-11.61,2.64-11.61s2.61,5.78,2.64,12.16c2.08.19,4.28.35,6.62.5.03-6.4.31-12.21,3.08-12.21s3.06,6.02,3.08,12.55c1.87.09,3.78.16,5.74.22.03-6.44.34-12.32,3.52-12.32s3.88,1.8,3.91,8.31c6.21,4.54,5.4,3.23,6.23,4.27.03-6.54.33-12.58,3.96-12.58s3.93,6.04,3.96,12.58c2.22-.02,4.43-.04,6.62-.08.03-6.51.31-12.5,3.52-12.5s3.49,5.88,3.52,12.32c1.54-.05,3.09-.11,4.63-.17l-7.76-17.38-6.86-.58-5.52-25.42-7.93.67-2.93-11.85-3.59-.52L29.55,0Zm-3.08,10.33c3.08,0,3.08,3.6,3.08,7.2l-6.17,1.8c0-3.6,0-9,3.08-9Zm-12.33,3.6c2.64,0,2.64,3.6,2.64,7.2l-5.29.9c0-3.6,0-8.1,2.64-8.1Zm24.62,13.61c3.52,0,3.52,3.6,3.52,7.2l-7.05.45c0-3.6,0-7.65,3.52-7.65h0Zm-12.33.9c3.08,0,3.08,3.6,3.08,7.2l-6.17.45c0-3.6,0-7.65,3.08-7.65Zm-12.33,1.35c2.64,0,2.64,3.6,2.64,7.2l-5.29.9c0-3.6,0-8.1,2.64-8.1Zm44.84,6.11l4.5,20.73c0-5.35.03-10.64,3.52-10.64s3.52,5.4,3.52,10.8c-.32,1.29-.35,1.39-.49,1.72l6.45,14.45c.32-3.42,1.07-5.83,2.85-5.83,2.77,0,3.05,5.81,3.08,12.21,2.17-.14,4.23-.29,6.18-.46.02-6.39.27-12.2,2.64-12.2s2.6,5.48,2.64,11.66c2.36-.28,4.45-.6,6.18-.95.03-6.16.25-11.61,1.98-11.61,1.62,0,1.91,4.83,1.97,10.53,1.15-.47,1.78-.98,1.78-1.53l-2.03-31.06c-2.45-2.25-5.87-3.8-9.93-4.88l-4.47,3.15-6.81-.63-4.66-4.76c-6.09-.39-12.57-.49-18.9-.71h0Zm-20.17,10.09c3.52,0,3.52,5.4,3.52,10.8h-7.05c0-5.4,0-10.8,3.52-10.8Zm14.1,0c3.96,0,3.96,5.4,3.96,10.8h-7.93c0-5.4,0-10.8,3.96-10.8Zm-26.43.45c3.08,0,3.08,5.4,3.08,10.8h-6.17c0-5.4,0-10.8,3.08-10.8Zm52.86,0c3.08,0,3.08,5.4,3.08,10.8h-6.17c0-5.4,0-10.8,3.08-10.8Zm-65.19.45c2.64,0,2.64,4.95,2.64,10.35l-5.29.45c0-5.4,0-10.8,2.64-10.8Zm77.09,0c2.64,0,2.64,5.4,2.64,10.8l-5.29-.45c0-5.4,0-10.35,2.64-10.35Zm-86.1.45c1.98,0,1.98,4.95,1.98,10.35l-3.96.45c0-5.4,0-10.8,1.98-10.8h0Zm95.99,0c1.98,0,1.98,5.4,1.98,10.8l-3.96-.45c0-5.4,0-10.35,1.98-10.35h0Z" style="fill: #fff; stroke-width: 0px;"/>
    </g>
  </g>
</svg>