<?xml version="1.0" encoding="UTF-8"?>
<svg id="Calque_2" data-name="Calque 2" xmlns="http://www.w3.org/2000/svg" viewBox="0 0 353.07 81.86">
  <g id="svg19">
    <g>
      <g>
        <path d="m95.08,2.68c2.1,0,3.94.36,5.51,1.07,1.57.72,2.8,1.78,3.67,3.2.88,1.42,1.31,3.19,1.31,5.32,0,1.27-.2,2.51-.6,3.7-.4,1.19-1.04,2.27-1.91,3.22-.88.95-1.99,1.72-3.34,2.29-1.35.57-2.98.86-4.89.86h-5.25v14.22h-2.34V2.68h7.83Zm-.24,17.42c1.65,0,3.03-.26,4.13-.79,1.1-.53,1.96-1.19,2.58-2,.62-.81,1.07-1.66,1.34-2.55.27-.89.41-1.72.41-2.48,0-1.08-.17-2.07-.52-2.96-.35-.89-.87-1.66-1.55-2.31-.68-.65-1.52-1.16-2.5-1.53-.99-.37-2.12-.55-3.39-.55h-5.73v15.17h5.25Z" style="fill: #fff; stroke-width: 0px;"/>
        <path d="m112.54.3h2.24v36.27h-2.24V.3Z" style="fill: #fff; stroke-width: 0px;"/>
        <path d="m131.01,36.94c-1.78,0-3.4-.41-4.84-1.22-1.45-.81-2.59-1.95-3.44-3.41-.84-1.46-1.27-3.17-1.27-5.11,0-2.07.45-3.84,1.34-5.32.89-1.48,2.1-2.61,3.63-3.39,1.53-.78,3.26-1.17,5.2-1.17,1.65,0,3.22.49,4.7,1.48,1.48.99,2.54,2.23,3.17,3.72l-.33.67.29-5.3h2v18.66h-2.24v-5.77l.48.86c-.22.64-.6,1.26-1.14,1.88-.54.62-1.2,1.19-1.98,1.72-.78.53-1.64.94-2.58,1.24-.94.3-1.93.45-2.98.45Zm.48-1.91c1.4,0,2.66-.29,3.79-.88,1.13-.59,2.04-1.41,2.74-2.46s1.1-2.26,1.19-3.63v-2.67c-.25-1.18-.76-2.23-1.5-3.15-.75-.92-1.66-1.65-2.74-2.2-1.08-.54-2.26-.81-3.53-.81-1.4,0-2.69.33-3.87.98-1.18.65-2.12,1.57-2.82,2.74s-1.05,2.56-1.05,4.15c0,1.46.35,2.79,1.05,3.98.7,1.19,1.65,2.15,2.84,2.86s2.49,1.07,3.89,1.07Z" style="fill: #fff; stroke-width: 0px;"/>
        <path d="m151.82,9.7h2.29v8.45h5.77v1.81h-5.77v16.61h-2.29v-16.61h-3.96v-1.81h3.96v-8.45Z" style="fill: #fff; stroke-width: 0px;"/>
        <path d="m173.58,36.94c-1.94,0-3.66-.43-5.15-1.29-1.5-.86-2.66-2.03-3.51-3.51-.84-1.48-1.26-3.14-1.26-4.99s.45-3.47,1.34-4.96c.89-1.5,2.09-2.69,3.6-3.58,1.51-.89,3.19-1.34,5.03-1.34,2.23,0,4.1.65,5.61,1.96,1.51,1.3,2.6,3.01,3.27,5.11l-16.32,6.3-.67-1.62,14.94-5.82-.48.67c-.54-1.27-1.36-2.37-2.46-3.29s-2.44-1.38-4.03-1.38c-1.43,0-2.72.35-3.87,1.05-1.15.7-2.06,1.64-2.74,2.82s-1.03,2.51-1.03,4.01c0,1.4.33,2.7.98,3.91.65,1.21,1.57,2.18,2.74,2.91,1.18.73,2.53,1.1,4.06,1.1,1.02,0,2-.19,2.94-.57.94-.38,1.77-.87,2.5-1.48l1.15,1.62c-.89.7-1.92,1.27-3.08,1.72-1.16.45-2.35.67-3.55.67Z" style="fill: #fff; stroke-width: 0px;"/>
        <path d="m189.94,36.56v-16.56h-3.24v-2.05h3.24v-9.4c0-2.99.52-5.15,1.55-6.47s2.57-1.98,4.61-1.98c.45,0,.92.06,1.43.17.51.11.97.29,1.38.55l-.95,1.62c-.22-.16-.47-.28-.74-.36-.27-.08-.58-.12-.93-.12-1.37,0-2.39.48-3.08,1.43-.69.95-1.03,2.66-1.03,5.11v9.45h6.25v2.05h-6.25v16.56h-2.24Z" style="fill: #fff; stroke-width: 0px;"/>
        <path d="m201.63,27.11c0-1.81.44-3.47,1.31-4.96.87-1.5,2.07-2.68,3.58-3.55s3.21-1.31,5.08-1.31,3.61.44,5.11,1.31c1.5.88,2.67,2.06,3.53,3.55.86,1.5,1.29,3.15,1.29,4.96s-.43,3.47-1.29,4.96c-.86,1.5-2.04,2.68-3.55,3.55-1.51.88-3.21,1.31-5.08,1.31s-3.61-.42-5.11-1.26c-1.5-.84-2.68-2-3.55-3.48-.88-1.48-1.31-3.17-1.31-5.08Zm2.24.05c0,1.46.34,2.79,1.03,3.98.68,1.19,1.61,2.14,2.77,2.84,1.16.7,2.46,1.05,3.89,1.05s2.73-.35,3.89-1.05c1.16-.7,2.08-1.65,2.77-2.84.68-1.19,1.03-2.52,1.03-3.98s-.34-2.79-1.03-3.98c-.68-1.19-1.61-2.15-2.77-2.86-1.16-.72-2.46-1.07-3.89-1.07s-2.78.37-3.94,1.12c-1.16.75-2.08,1.73-2.74,2.93s-1,2.5-1,3.87Z" style="fill: #fff; stroke-width: 0px;"/>
        <path d="m230.17,17.9l.24,5.73-.29-.72c.41-1.15,1.07-2.13,1.96-2.96.89-.83,1.88-1.46,2.98-1.91s2.15-.67,3.17-.67l-.09,2.2c-1.43,0-2.73.32-3.89.95-1.16.64-2.08,1.49-2.77,2.55-.68,1.07-1.03,2.27-1.03,3.6v9.88h-2.24v-18.66h1.96Z" style="fill: #fff; stroke-width: 0px;"/>
        <path d="m246.49,17.9l.24,5.2-.33-.48c.64-1.62,1.69-2.9,3.17-3.84,1.48-.94,3.09-1.41,4.84-1.41,1.05,0,2,.2,2.84.6.84.4,1.53.94,2.05,1.62.53.68.84,1.47.93,2.36l-.29.29c.67-1.59,1.72-2.8,3.15-3.63,1.43-.83,2.97-1.24,4.63-1.24,1.78,0,3.2.52,4.25,1.55,1.05,1.03,1.59,2.38,1.62,4.03v13.6h-2.24v-13.12c-.03-1.11-.38-2.06-1.05-2.84-.67-.78-1.69-1.2-3.05-1.26-1.24,0-2.39.32-3.44.96-1.05.64-1.9,1.48-2.55,2.53-.65,1.05-1.01,2.23-1.07,3.53v10.21h-2.24v-13.12c-.03-1.11-.39-2.06-1.07-2.84-.69-.78-1.71-1.2-3.08-1.26-1.27,0-2.44.32-3.51.96s-1.92,1.5-2.55,2.6-.95,2.31-.95,3.65v10.02h-2.24v-18.66h1.96Z" style="fill: #fff; stroke-width: 0px;"/>
        <path d="m290.2,36.94c-1.94,0-3.66-.43-5.15-1.29-1.5-.86-2.67-2.03-3.51-3.51-.84-1.48-1.27-3.14-1.27-4.99s.45-3.47,1.34-4.96c.89-1.5,2.09-2.69,3.6-3.58,1.51-.89,3.19-1.34,5.04-1.34,2.23,0,4.1.65,5.61,1.96,1.51,1.3,2.6,3.01,3.27,5.11l-16.32,6.3-.67-1.62,14.94-5.82-.48.67c-.54-1.27-1.36-2.37-2.46-3.29s-2.44-1.38-4.03-1.38c-1.43,0-2.72.35-3.87,1.05-1.14.7-2.06,1.64-2.74,2.82-.68,1.18-1.03,2.51-1.03,4.01,0,1.4.33,2.7.98,3.91.65,1.21,1.57,2.18,2.74,2.91,1.18.73,2.53,1.1,4.06,1.1,1.02,0,2-.19,2.93-.57s1.77-.87,2.51-1.48l1.14,1.62c-.89.7-1.92,1.27-3.08,1.72-1.16.45-2.35.67-3.55.67Z" style="fill: #fff; stroke-width: 0px;"/>
      </g>
      <g>
        <path d="m106.01,50.76c-1.54-.84-3.1-1.54-4.7-2.09-1.59-.55-3.09-.82-4.48-.82-1.72,0-3.08.35-4.07,1.04s-1.48,1.74-1.48,3.13c0,.95.38,1.8,1.13,2.56.75.75,1.72,1.42,2.91,2,1.19.59,2.43,1.12,3.71,1.59,1.17.44,2.34.96,3.49,1.57s2.19,1.36,3.1,2.25c.92.9,1.65,2.01,2.2,3.35.55,1.34.82,2.98.82,4.92,0,2.05-.53,3.96-1.59,5.71-1.06,1.76-2.62,3.18-4.67,4.26-2.05,1.08-4.58,1.62-7.58,1.62-1.54,0-3.11-.16-4.7-.47-1.59-.31-3.16-.79-4.7-1.43-1.54-.64-3.02-1.46-4.45-2.45l3.52-6.21c.95.7,1.99,1.31,3.1,1.84,1.12.53,2.24.94,3.38,1.24s2.18.44,3.13.44,1.91-.14,2.88-.41c.97-.28,1.78-.74,2.42-1.4s.96-1.58.96-2.75c0-.8-.27-1.54-.8-2.2-.53-.66-1.25-1.26-2.14-1.81-.9-.55-1.88-1.03-2.94-1.43-1.25-.48-2.53-1.03-3.85-1.65-1.32-.62-2.56-1.38-3.71-2.28-1.15-.9-2.09-2.01-2.8-3.35-.71-1.34-1.07-2.98-1.07-4.92,0-2.34.52-4.38,1.57-6.1,1.04-1.72,2.52-3.09,4.42-4.09,1.9-1.01,4.1-1.57,6.59-1.68,3.26,0,5.91.38,7.94,1.15,2.03.77,3.85,1.68,5.47,2.75l-3.02,6.1Z" style="fill: #fff; stroke-width: 0px;"/>
        <path d="m150.47,40.98v40.44h-7.97v-16.43h-18.08v16.43h-7.97v-40.44h7.97v16.32h18.08v-16.32h7.97Z" style="fill: #fff; stroke-width: 0px;"/>
        <path d="m158.43,61.25c0-2.78.53-5.42,1.59-7.91,1.06-2.49,2.54-4.7,4.42-6.62s4.08-3.43,6.57-4.53,5.17-1.65,8.02-1.65,5.48.55,7.97,1.65c2.49,1.1,4.7,2.61,6.62,4.53,1.92,1.92,3.42,4.13,4.51,6.62,1.08,2.49,1.62,5.13,1.62,7.91s-.54,5.53-1.62,8.02c-1.08,2.49-2.58,4.68-4.51,6.57-1.92,1.89-4.13,3.36-6.62,4.42-2.49,1.06-5.15,1.59-7.97,1.59s-5.53-.53-8.02-1.59c-2.49-1.06-4.68-2.54-6.57-4.42s-3.36-4.08-4.42-6.57c-1.06-2.49-1.59-5.17-1.59-8.02Zm8.24,0c0,1.8.32,3.47.96,5.03.64,1.56,1.54,2.93,2.69,4.12,1.15,1.19,2.49,2.12,4.01,2.78,1.52.66,3.18.99,4.97.99s3.32-.33,4.81-.99c1.48-.66,2.78-1.58,3.88-2.78s1.96-2.56,2.58-4.12c.62-1.56.94-3.23.94-5.03s-.32-3.53-.96-5.11c-.64-1.57-1.52-2.96-2.64-4.15-1.12-1.19-2.43-2.12-3.93-2.78s-3.13-.99-4.89-.99-3.39.33-4.89.99-2.82,1.58-3.96,2.78c-1.14,1.19-2.01,2.57-2.64,4.15-.62,1.58-.93,3.28-.93,5.11Z" style="fill: #fff; stroke-width: 0px;"/>
        <path d="m205.25,61.25c0-2.78.53-5.42,1.59-7.91,1.06-2.49,2.54-4.7,4.42-6.62,1.89-1.92,4.07-3.43,6.57-4.53,2.49-1.1,5.16-1.65,8.02-1.65s5.48.55,7.97,1.65c2.49,1.1,4.7,2.61,6.62,4.53s3.43,4.13,4.51,6.62c1.08,2.49,1.62,5.13,1.62,7.91s-.54,5.53-1.62,8.02-2.58,4.68-4.51,6.57-4.13,3.36-6.62,4.42c-2.49,1.06-5.15,1.59-7.97,1.59s-5.53-.53-8.02-1.59c-2.49-1.06-4.68-2.54-6.57-4.42-1.89-1.89-3.36-4.08-4.42-6.57s-1.59-5.17-1.59-8.02Zm8.24,0c0,1.8.32,3.47.96,5.03.64,1.56,1.54,2.93,2.69,4.12s2.49,2.12,4.01,2.78c1.52.66,3.18.99,4.97.99s3.32-.33,4.81-.99c1.48-.66,2.78-1.58,3.87-2.78,1.1-1.19,1.96-2.56,2.58-4.12.62-1.56.93-3.23.93-5.03s-.32-3.53-.96-5.11c-.64-1.57-1.52-2.96-2.64-4.15s-2.43-2.12-3.93-2.78c-1.5-.66-3.13-.99-4.89-.99s-3.39.33-4.89.99c-1.5.66-2.82,1.58-3.96,2.78-1.14,1.19-2.02,2.57-2.64,4.15-.62,1.58-.93,3.28-.93,5.11Z" style="fill: #fff; stroke-width: 0px;"/>
        <path d="m250.42,40.98h27.26v7.69h-9.84v32.75h-7.97v-32.75h-9.45v-7.69Z" style="fill: #fff; stroke-width: 0px;"/>
        <path d="m285.37,40.98h27.59v7.69h-19.62v8.63h17.36v7.69h-17.36v8.74h20.38v7.69h-28.35v-40.44Z" style="fill: #fff; stroke-width: 0px;"/>
        <path d="m334.22,40.98c2.53,0,4.78.32,6.76.96,1.98.64,3.63,1.56,4.97,2.75,1.34,1.19,2.35,2.62,3.05,4.29.7,1.67,1.04,3.54,1.04,5.63,0,1.65-.25,3.3-.74,4.95s-1.3,3.15-2.42,4.51c-1.12,1.36-2.59,2.45-4.42,3.27s-4.1,1.24-6.81,1.24h-5.71v12.86h-7.97v-40.44h12.25Zm1.37,19.89c1.21,0,2.22-.2,3.02-.6.8-.4,1.44-.92,1.89-1.54.46-.62.79-1.27.99-1.95.2-.68.3-1.31.3-1.9,0-.44-.06-1-.19-1.68s-.39-1.36-.8-2.06c-.4-.7-1.02-1.28-1.84-1.76-.82-.48-1.93-.71-3.32-.71h-5.71v12.2h5.66Zm7.47,4.95l10,15.61h-9.29l-10.22-15.39,9.51-.22Z" style="fill: #fff; stroke-width: 0px;"/>
      </g>
      <g id="g1">
        <path id="path1" d="m39.85,81.16c-1.05-.37-1.91-1.05-2.39-1.87-.21-.36-1.75-4.73-3.42-9.71-1.67-4.98-3.1-9.18-3.19-9.34-.17-.32-15.91-13.52-17.41-14.6-2.8-2.02-3.49-4.28-2.86-9.37.65-5.29,1.75-8.97,3.99-13.44.56-1.12,1.02-2.07,1.02-2.12s-.65.25-1.43.66c-3.19,1.65-5.61,4.82-7.07,9.26-.49,1.51-.99,2.18-1.91,2.6-.79.36-1.5.38-2.27.05-.76-.32-1.12-.65-1.49-1.38-.44-.86-.37-1.79.25-3.59,2.36-6.77,6.35-11.12,12.12-13.23,2.27-.83,3.66-1.04,6.81-1.04,5.08,0,7.32.78,8.43,2.95.51,1,.78,2.51.67,3.78-.1,1.2-.41,2.58-.58,2.58-.06,0-.74-1-1.51-2.23-.82-1.31-1.69-2.49-2.1-2.85-2.14-1.89-5.47-.73-6.11,2.12-.3,1.35-.03,1.95,3.17,6.99,1.59,2.5,2.89,4.63,2.89,4.73s-.32,1.16-.7,2.36c-.73,2.28-1.47,5.35-1.56,6.48l-.05.66,7.08,5.91c7.92,6.62,8.18,6.85,8.59,7.63.16.31,1.81,5.07,3.66,10.58,2.96,8.79,3.38,10.15,3.39,11.06.04,3.11-3.11,5.38-6.01,4.34h0ZM3.13,71.36C1.1,70.6,0,69.03,0,66.9c0-1.57.76-2.9,2.16-3.8.41-.26,2.96-1.06,7.5-2.34,6.08-1.72,6.88-1.98,6.88-2.26,0-.17-.4-2.58-.88-5.34s-.86-5.09-.83-5.16c.04-.11,9.59,7.74,10.6,8.71.28.27.98,4.13.99,5.43,0,.66-.11,1.24-.34,1.79-.38.89-1.46,1.98-2.3,2.33-.3.12-4.46,1.34-9.26,2.71-9.13,2.6-10.23,2.83-11.39,2.39h0Zm35.53-32.01c-.74-.12-1.58-.26-1.87-.31-.8-.14-.92-.56-.45-1.49l.4-.78,2.03.51c1.79.45,2.03.55,1.97.82-.03.17-.07.57-.08.9-.02.69.04.68-2.01.34h0Zm-3.34-3.83c-5.42-1.37-7.36-1.92-7.72-2.2-.42-.32-6.31-9.35-7.11-10.9-.34-.65-.37-1.73-.07-2.44.26-.61,1.22-1.5,1.78-1.64.73-.18,2.06.02,2.59.39.31.22,1.6,2.09,3.46,5.02l2.96,4.67,6.55,1.62c7.12,1.76,7.51,1.91,8.12,3.09.6,1.16.35,2.53-.64,3.46-.58.55-1.18.77-2.01.75-.37,0-3.92-.84-7.9-1.84h0Zm11.77-1.61c0-.24.19-.72.42-1.05.48-.71.41-.8-.72-.96-.41-.06-1.03-.3-1.41-.56-.49-.33-1.43-.64-3.44-1.14-2.34-.58-2.75-.72-2.69-.95.04-.15,0-.32-.1-.38-.27-.17.1-.73.4-.62.14.05.31,0,.39-.12.11-.18,1.52.02,7.73,1.09,4.18.72,7.62,1.34,7.66,1.37.14.14-.34,2.51-.52,2.58-.1.04-1.48-.15-3.06-.41-1.58-.27-2.95-.48-3.03-.48s-.45.47-.81,1.03-.69,1.03-.73,1.03-.08-.2-.08-.44Zm-14.62-17.63c-3.57-.96-6.09-4.2-6.11-7.86-.01-2.45.84-4.45,2.58-6.09,3.29-3.09,8.03-3.1,11.3-.02,2.97,2.8,3.47,7.21,1.21,10.62-1.87,2.82-5.68,4.24-8.98,3.35h0Z" style="fill: #fff; stroke-width: 0px;"/>
      </g>
    </g>
  </g>
</svg>