<?xml version="1.0" encoding="UTF-8"?>
<svg id="Calque_2" data-name="Calque 2" xmlns="http://www.w3.org/2000/svg" viewBox="0 0 306.7 82.18">
  <g id="svg19">
    <g>
      <g>
        <path d="m120.12,7.2c-.99-.48-2.2-.92-3.63-1.34-1.43-.41-2.86-.62-4.29-.62-2.23,0-4.01.56-5.34,1.67-1.34,1.11-2,2.51-2,4.2,0,1.27.38,2.33,1.15,3.17.76.84,1.77,1.56,3.01,2.15,1.24.59,2.56,1.15,3.96,1.69,1.11.41,2.22.88,3.32,1.38,1.1.51,2.09,1.13,2.98,1.86.89.73,1.6,1.64,2.12,2.72.52,1.08.79,2.42.79,4.01,0,1.88-.45,3.54-1.34,4.99-.89,1.45-2.13,2.57-3.72,3.36-1.59.8-3.44,1.19-5.54,1.19-1.69,0-3.22-.21-4.6-.62s-2.59-.9-3.63-1.46c-1.03-.56-1.85-1.03-2.46-1.41l1.1-1.91c.7.51,1.55,1.02,2.55,1.53,1,.51,2.09.94,3.27,1.29,1.18.35,2.35.52,3.53.52,1.37,0,2.7-.27,3.98-.81,1.29-.54,2.35-1.36,3.2-2.46.84-1.1,1.26-2.49,1.26-4.18s-.4-2.93-1.19-3.94c-.8-1-1.81-1.82-3.05-2.46-1.24-.64-2.56-1.21-3.96-1.72-1.08-.41-2.16-.85-3.25-1.31-1.08-.46-2.07-1.02-2.96-1.67-.89-.65-1.6-1.44-2.12-2.36-.52-.92-.79-2.04-.79-3.34,0-1.62.41-3.04,1.24-4.25.83-1.21,1.95-2.16,3.36-2.84,1.42-.68,3.03-1.04,4.84-1.07,1.59,0,3.2.21,4.84.62,1.64.41,3.06.94,4.27,1.57l-.91,1.81Z" style="fill: #fff; stroke-width: 0px;"/>
        <path d="m129.29,11.74c0-.44.17-.82.52-1.12.35-.3.73-.45,1.15-.45.45,0,.83.15,1.15.45.32.3.48.68.48,1.12,0,.48-.16.87-.48,1.17-.32.3-.7.45-1.15.45-.41,0-.8-.16-1.15-.48-.35-.32-.52-.7-.52-1.15Zm.48,6.87h2.24v18.66h-2.24v-18.66Z" style="fill: #fff; stroke-width: 0px;"/>
        <path d="m142.46,18.61l.24,5.2-.33-.48c.64-1.62,1.69-2.9,3.17-3.84,1.48-.94,3.09-1.41,4.84-1.41,1.05,0,2,.2,2.84.6.84.4,1.53.94,2.05,1.62.52.68.83,1.47.93,2.36l-.29.29c.67-1.59,1.72-2.8,3.15-3.63,1.43-.83,2.97-1.24,4.63-1.24,1.78,0,3.2.52,4.25,1.55,1.05,1.03,1.59,2.38,1.62,4.03v13.6h-2.24v-13.12c-.03-1.11-.38-2.06-1.05-2.84-.67-.78-1.69-1.2-3.05-1.26-1.24,0-2.39.32-3.44.95-1.05.64-1.9,1.48-2.55,2.53-.65,1.05-1.01,2.23-1.07,3.53v10.21h-2.24v-13.12c-.03-1.11-.39-2.06-1.07-2.84-.68-.78-1.71-1.2-3.08-1.26-1.27,0-2.44.32-3.51.95-1.07.64-1.92,1.5-2.55,2.6-.64,1.1-.95,2.31-.95,3.65v10.02h-2.24v-18.66h1.96Z" style="fill: #fff; stroke-width: 0px;"/>
        <path d="m183.92,37.79c-1.75,0-3.15-.52-4.2-1.55-1.05-1.03-1.61-2.38-1.67-4.03v-13.6h2.24v12.93c.06,1.21.45,2.21,1.17,3.01.72.8,1.79,1.23,3.22,1.29,1.21,0,2.34-.32,3.39-.95,1.05-.64,1.9-1.5,2.55-2.6.65-1.1.98-2.35.98-3.75v-9.93h2.24v18.66h-2l-.24-5.87.33,1.29c-.32.95-.88,1.82-1.69,2.6-.81.78-1.77,1.39-2.86,1.84-1.1.44-2.25.67-3.46.67Z" style="fill: #fff; stroke-width: 0px;"/>
        <path d="m202.34,1h2.24v36.27h-2.24V1Z" style="fill: #fff; stroke-width: 0px;"/>
        <path d="m220.81,37.65c-1.78,0-3.4-.41-4.84-1.22-1.45-.81-2.59-1.95-3.44-3.41-.84-1.46-1.26-3.17-1.26-5.11,0-2.07.45-3.84,1.34-5.32.89-1.48,2.1-2.61,3.63-3.39,1.53-.78,3.26-1.17,5.2-1.17,1.65,0,3.22.49,4.7,1.48,1.48.99,2.54,2.23,3.17,3.72l-.33.67.29-5.3h2v18.66h-2.24v-5.77l.48.86c-.22.64-.6,1.26-1.14,1.88-.54.62-1.2,1.19-1.98,1.72-.78.52-1.64.94-2.58,1.24-.94.3-1.93.45-2.98.45Zm.48-1.91c1.4,0,2.66-.29,3.79-.88,1.13-.59,2.04-1.41,2.74-2.46.7-1.05,1.1-2.26,1.19-3.63v-2.67c-.26-1.18-.76-2.23-1.5-3.15-.75-.92-1.66-1.65-2.74-2.19-1.08-.54-2.26-.81-3.53-.81-1.4,0-2.69.33-3.87.98-1.18.65-2.12,1.57-2.82,2.74-.7,1.18-1.05,2.56-1.05,4.15,0,1.46.35,2.79,1.05,3.98.7,1.19,1.65,2.15,2.84,2.86,1.19.72,2.49,1.07,3.89,1.07Z" style="fill: #fff; stroke-width: 0px;"/>
        <path d="m241.61,10.4h2.29v8.45h5.77v1.81h-5.77v16.61h-2.29v-16.61h-3.96v-1.81h3.96v-8.45Z" style="fill: #fff; stroke-width: 0px;"/>
        <path d="m254.78,11.74c0-.44.17-.82.53-1.12.35-.3.73-.45,1.15-.45.44,0,.83.15,1.14.45.32.3.48.68.48,1.12,0,.48-.16.87-.48,1.17-.32.3-.7.45-1.14.45-.41,0-.8-.16-1.15-.48-.35-.32-.53-.7-.53-1.15Zm.48,6.87h2.24v18.66h-2.24v-18.66Z" style="fill: #fff; stroke-width: 0px;"/>
        <path d="m264.18,27.82c0-1.81.44-3.47,1.31-4.96.87-1.5,2.07-2.68,3.58-3.56,1.51-.87,3.2-1.31,5.08-1.31s3.61.44,5.11,1.31c1.5.88,2.67,2.06,3.53,3.56.86,1.5,1.29,3.15,1.29,4.96s-.43,3.47-1.29,4.96c-.86,1.5-2.04,2.68-3.55,3.55-1.51.88-3.21,1.31-5.08,1.31s-3.61-.42-5.11-1.26c-1.5-.84-2.68-2-3.55-3.48-.88-1.48-1.31-3.17-1.31-5.08Zm2.24.05c0,1.46.34,2.79,1.03,3.98.68,1.19,1.61,2.14,2.77,2.84,1.16.7,2.46,1.05,3.89,1.05s2.73-.35,3.89-1.05c1.16-.7,2.08-1.65,2.77-2.84.68-1.19,1.03-2.52,1.03-3.98s-.34-2.79-1.03-3.98c-.68-1.19-1.61-2.15-2.77-2.86s-2.46-1.07-3.89-1.07-2.78.37-3.94,1.12c-1.16.75-2.08,1.73-2.74,2.93-.67,1.21-1,2.5-1,3.87Z" style="fill: #fff; stroke-width: 0px;"/>
        <path d="m292.72,18.61l.24,5.87-.29-1.15c.54-1.62,1.57-2.9,3.08-3.84,1.51-.94,3.19-1.41,5.03-1.41,1.75,0,3.17.52,4.25,1.55,1.08,1.03,1.64,2.38,1.67,4.03v13.6h-2.29v-12.98c-.03-1.21-.41-2.21-1.15-3.01-.73-.79-1.8-1.21-3.2-1.24-1.24,0-2.4.3-3.48.91-1.08.6-1.95,1.45-2.6,2.53-.65,1.08-.98,2.34-.98,3.77v10.02h-2.24v-18.66h1.96Z" style="fill: #fff; stroke-width: 0px;"/>
      </g>
      <g>
        <path d="m101.72,80.53v-35.61h10.64c3.58,0,6.63.53,9.14,1.6,2.52,1.06,4.54,2.48,6.07,4.26,1.53,1.77,2.65,3.76,3.36,5.95.71,2.19,1.06,4.4,1.06,6.63,0,2.65-.48,5.02-1.43,7.14-.95,2.11-2.25,3.92-3.9,5.42s-3.55,2.65-5.71,3.44c-2.16.79-4.45,1.19-6.87,1.19h-12.39Zm7.02-6.77h4.16c1.77,0,3.39-.23,4.84-.7,1.45-.47,2.7-1.15,3.75-2.06,1.05-.9,1.85-2.04,2.42-3.41.56-1.37.85-2.94.85-4.72,0-2.32-.38-4.22-1.14-5.69-.76-1.47-1.69-2.6-2.81-3.41-1.11-.81-2.25-1.36-3.41-1.67-1.16-.31-2.15-.46-2.95-.46h-5.71v22.11Z" style="fill: #fff; stroke-width: 0px;"/>
        <path d="m139.03,44.92h24.29v6.77h-17.27v7.6h15.29v6.77h-15.29v7.69h17.95v6.77h-24.97v-35.61Z" style="fill: #fff; stroke-width: 0px;"/>
        <path d="m192.35,44.92l10.4,25.64-4.06-.82,9.44-24.82h8.32l-16.26,37.26-16.26-37.26h8.42Z" style="fill: #fff; stroke-width: 0px;"/>
        <path d="m222.59,44.92h7.02v35.61h-7.02v-35.61Z" style="fill: #fff; stroke-width: 0px;"/>
        <path d="m238.79,44.92h24.29v6.77h-17.27v7.6h15.29v6.77h-15.29v7.69h17.95v6.77h-24.97v-35.61Z" style="fill: #fff; stroke-width: 0px;"/>
      </g>
      <path d="m5,0L0,24.98h25.56l14.73-14.73,14.73,14.73h25.56L75.58,0H5Zm35.29,14.73l-13.42,13.42H2.47v53.12h27.79v-15.3c0-3.21,1.26-5.82,3.17-7.52,1.91-1.7,4.39-2.51,6.86-2.51s4.95.81,6.86,2.51c1.91,1.7,3.17,4.31,3.17,7.52v15.3h27.79V28.14h-24.4l-13.42-13.42Zm0,6.78l10.03,10.03v16.31h-20.05v-16.31l10.03-10.03Zm0,4.48l-6.86,6.86v11.83h13.72v-11.83l-6.86-6.86ZM7.74,30.61h17.24v17.24H7.74v-17.24Zm47.85,0h17.24v17.24h-17.24v-17.24Zm-44.68,3.17v5.28h10.91v-5.28h-10.91Zm47.85,0v5.28h10.91v-5.28h-10.91ZM7.74,58.75h17.24v17.24H7.74v-17.24Zm47.85,0h17.24v17.24h-17.24v-17.24Zm-15.3.35c-1.76,0-3.5.59-4.75,1.71-1.26,1.12-2.11,2.73-2.11,5.15v15.3h13.72v-15.3c0-2.42-.85-4.03-2.11-5.15-1.26-1.12-2.99-1.71-4.75-1.71Z" style="fill: #fff; stroke-width: 0px;"/>
    </g>
  </g>
</svg>