<?xml version="1.0" encoding="UTF-8"?>
<svg id="Calque_2" data-name="Calque 2" xmlns="http://www.w3.org/2000/svg" viewBox="0 0 381.67 81.31">
  <g id="svg19">
    <g>
      <path id="text19" d="m117.06,36.1L131.68,0h.19l14.62,36.1h-2.68l-12.72-32.3,1.66-.93-13.3,33.23h-2.39Zm7.06-13.69h15.35l.68,2.24h-16.61l.58-2.24Zm43.65,11.84c-.88.71-1.87,1.27-2.97,1.66-1.1.39-2.26.58-3.46.58-1.95,0-3.69-.42-5.21-1.27-1.53-.88-2.73-2.06-3.61-3.56-.88-1.49-1.32-3.2-1.32-5.12s.45-3.62,1.36-5.12c.91-1.49,2.11-2.66,3.61-3.51,1.53-.88,3.18-1.32,4.97-1.32,1.33,0,2.57.19,3.7.58,1.14.39,2.13.94,2.97,1.66l-1.22,1.56c-.68-.55-1.48-1.01-2.39-1.36-.91-.36-1.88-.54-2.92-.54-1.43,0-2.74.36-3.95,1.07-1.17.71-2.11,1.69-2.83,2.92-.68,1.2-1.02,2.55-1.02,4.04,0,1.46.34,2.81,1.02,4.04.71,1.2,1.67,2.16,2.87,2.87,1.23.71,2.6,1.07,4.09,1.07.97,0,1.88-.15,2.73-.44.84-.32,1.61-.75,2.29-1.27l1.27,1.41Zm8.28-25.58h2.34v8.62h5.9v1.85h-5.9v16.95h-2.34v-16.95h-4.04v-1.85h4.04v-8.62Zm13.93,8.38h2.29v19.05h-2.29v-19.05Zm-.49-7.02c0-.45.18-.83.54-1.12.36-.32.75-.49,1.17-.49.45,0,.84.16,1.17.49.32.29.49.67.49,1.12,0,.49-.16.89-.49,1.22-.32.29-.71.44-1.17.44-.42,0-.81-.16-1.17-.49s-.54-.71-.54-1.17Zm9.6,16.42c0-1.85.44-3.54,1.32-5.07.91-1.53,2.13-2.73,3.65-3.61,1.56-.91,3.3-1.36,5.21-1.36s3.69.45,5.21,1.36c1.53.88,2.73,2.08,3.61,3.61.88,1.53,1.32,3.22,1.32,5.07s-.44,3.54-1.32,5.07-2.09,2.74-3.65,3.65c-1.53.88-3.25,1.32-5.16,1.32s-3.69-.42-5.21-1.27c-1.53-.88-2.74-2.06-3.65-3.56-.88-1.53-1.32-3.26-1.32-5.21Zm2.29.05c0,1.49.34,2.86,1.02,4.09.71,1.2,1.66,2.16,2.83,2.87,1.2.71,2.53,1.07,3.99,1.07s2.78-.36,3.95-1.07c1.2-.71,2.14-1.67,2.83-2.87.71-1.23,1.07-2.6,1.07-4.09s-.36-2.84-1.07-4.04c-.68-1.23-1.62-2.21-2.83-2.92-1.17-.75-2.48-1.12-3.95-1.12s-2.84.39-4.04,1.17c-1.17.75-2.09,1.74-2.78,2.97-.68,1.23-1.02,2.55-1.02,3.95h0Zm26.84-9.45l.24,5.99-.29-1.17c.55-1.66,1.59-2.96,3.12-3.9,1.56-.97,3.28-1.46,5.16-1.46,1.79,0,3.23.54,4.34,1.61,1.1,1.04,1.67,2.4,1.71,4.09v13.88h-2.34v-13.25c-.03-1.23-.42-2.26-1.17-3.07-.75-.81-1.84-1.23-3.26-1.27-1.27,0-2.45.31-3.56.93-1.1.62-2,1.48-2.68,2.58-.65,1.1-.97,2.39-.97,3.85v10.23h-2.29v-19.05h2Z" style="fill: #fff; stroke-width: 0px;"/>
      <path id="text21" d="m117.25,39.78h24.94v7.59h-17.08v9.05h14.8v7.59h-14.8v15.67h-7.86v-39.9Zm32.53,0h7.86v39.9h-7.86v-39.9Zm50.53,35.89c-.47.51-1.21,1.03-2.22,1.57-1.01.51-2.19.98-3.52,1.41-1.3.43-2.64.78-4.01,1.03-1.37.29-2.67.43-3.9.43-3.25,0-6.18-.47-8.78-1.41-2.6-.98-4.83-2.31-6.67-4.01-1.84-1.73-3.25-3.78-4.23-6.13-.98-2.35-1.46-4.92-1.46-7.7,0-3.65.54-6.81,1.63-9.49,1.12-2.71,2.62-4.95,4.5-6.72,1.92-1.81,4.1-3.14,6.56-4.01,2.49-.87,5.1-1.3,7.81-1.3,2.57,0,4.92.29,7.05.87,2.13.54,3.94,1.23,5.42,2.06l-2.55,7.32c-.65-.36-1.52-.72-2.6-1.08-1.08-.36-2.19-.65-3.31-.87-1.12-.25-2.11-.38-2.98-.38-2.17,0-4.08.27-5.75.81s-3.07,1.36-4.23,2.44c-1.12,1.08-1.97,2.44-2.55,4.07-.58,1.59-.87,3.45-.87,5.58,0,1.88.33,3.58.98,5.1.65,1.48,1.55,2.75,2.71,3.8,1.19,1.05,2.58,1.84,4.17,2.39,1.63.54,3.42.81,5.37.81,1.12,0,2.15-.07,3.09-.22.94-.18,1.73-.45,2.39-.81v-4.83h-6.89v-7.59h14.86v16.86Zm42.51-35.89v39.9h-7.86v-16.21h-17.84v16.21h-7.86v-39.9h7.86v16.1h17.84v-16.1h7.86Zm7.59,0h26.89v7.59h-9.7v32.31h-7.86v-32.31h-9.33v-7.59Zm34.48,0h7.86v39.9h-7.86v-39.9Zm53.89,41.53l-30.25-27.33,2.33,1.3.16,24.4h-7.97v-41.48h.33l29.6,27.22-1.73-.76-.16-24.89h7.92v41.53h-.22Zm42.89-5.64c-.47.51-1.21,1.03-2.22,1.57-1.01.51-2.19.98-3.52,1.41-1.3.43-2.64.78-4.01,1.03-1.37.29-2.67.43-3.9.43-3.25,0-6.18-.47-8.78-1.41-2.6-.98-4.83-2.31-6.67-4.01-1.84-1.73-3.25-3.78-4.23-6.13-.98-2.35-1.46-4.92-1.46-7.7,0-3.65.54-6.81,1.63-9.49,1.12-2.71,2.62-4.95,4.5-6.72,1.92-1.81,4.1-3.14,6.56-4.01,2.49-.87,5.1-1.3,7.81-1.3,2.57,0,4.92.29,7.05.87,2.13.54,3.94,1.23,5.42,2.06l-2.55,7.32c-.65-.36-1.52-.72-2.6-1.08-1.08-.36-2.19-.65-3.31-.87-1.12-.25-2.11-.38-2.98-.38-2.17,0-4.08.27-5.75.81s-3.07,1.36-4.23,2.44c-1.12,1.08-1.97,2.44-2.55,4.07-.58,1.59-.87,3.45-.87,5.58,0,1.88.33,3.58.98,5.1.65,1.48,1.55,2.75,2.71,3.8,1.19,1.05,2.58,1.84,4.17,2.39,1.63.54,3.42.81,5.37.81,1.12,0,2.15-.07,3.09-.22.94-.18,1.73-.45,2.39-.81v-4.83h-6.89v-7.59h14.86v16.86Z" style="fill: #fff; stroke-width: 0px;"/>
      <path id="path7" d="m62.45,74.43s-.05-.15-.08-.29c-.25-1.11-.95-3.11-1.52-4.35-.04-.09-.15-.32-.23-.51-.62-1.34-1.62-3.19-2.71-5.02-.61-1.02-.81-1.27-1.13-1.42l-.14-.06-.1.03c-.27.08-.44.42-.91,1.8-.28.84-.42,1.19-.63,1.58l-.14.28-.08.04c-.25.12-.25.1-.16-.67.04-.35.07-.67.07-.7v-.06s-.09.03-.09.03l-.09.03-.04-.04-.04-.04.07-.59c.1-.91.14-1.44.16-2.11l.02-.62-.08-.43c-.27-1.46-.63-2.2-1.21-2.48l-.17-.08h-.2s-.2-.02-.2-.02l-.07.06-.07.06-.16.85c-.15.81-.17.89-.25.89-.05,0-.84.17-1.55.34-2.6.61-5.56,1.52-8.49,2.62-.38.14-.7.26-.72.26h-.02v-.68c0-.37-.01-1.19-.02-1.81l-.02-1.13-.04-.02s-.06-.03-.09-.04h-.06s-.45.14-.45.14c-.53.19-1.72.63-2.31.87-.23.09-.43.16-.43.16s-.01-.05-.01-.11v-.11l-.08.03-.08.03-.05-.03-.05-.03v-.28c0-1.39-.39-2.08-1.34-2.38l-.19-.06h-.36s-.36,0-.36,0l-.23.06c-1.12.28-3.33,1.56-5.43,3.15-.44.33-2.02,1.58-2.06,1.63,0,0-.08.07-.15.13-.22.18-.23.19-.53.44-.16.13-.46.39-.67.57s-.6.49-.87.69c-.87.65-2.26,1.75-2.64,2.11-.21.19-.43.39-.5.45l-.12.1v-.06c0-.16.86-1.39,1.62-2.34.42-.52,1.58-1.85,1.74-2,.02-.01.11-.11.21-.22.36-.39.71-.77,1.1-1.19.64-.68,1.33-1.45,1.71-1.89.19-.23.53-.6.75-.84.52-.57.57-.62.79-.89.44-.54.7-1.03.7-1.32v-.11l-.05-.06c-.3-.38-1.55-.19-4.34.67-1.03.32-1.05.32-.97.12l.03-.07.39-.19c.22-.1.62-.29.89-.42.5-.23.58-.27.35-.21-.24.07-.35.03-.25-.11.06-.08,0-.05,1.46-.73,3.44-1.59,5.51-2.79,5.76-3.35.14-.31-.03-.69-.48-1.06l-.18-.15-.27-.05c-.15-.03-.41-.1-.59-.16l-.32-.1-.45-.23c-2.66-1.34-4.22-4.03-3.95-6.8l.02-.19-.03-.02c-.05-.04-.34-.1-.64-.13l-.3-.03-.43.03c-.56.04-1.07.15-2.25.47-3.34.92-6.19,2.06-16.6,6.64-4.57,2.01-5.08,2.23-5.1,2.21-.02-.02,1.4-.77,3.65-1.95.36-.19.67-.35.68-.36.01-.01-1.17.5-2.63,1.15-2.62,1.15-4.24,1.86-4.32,1.89-.2.07.46-.28,3.94-2.11,3.75-1.96,4.95-2.6,5.58-2.96.14-.08.99-.54,1.88-1.02,1.84-.99,1.91-1.03,2.18-1.18.11-.06.2-.11.21-.11s.09-.04.19-.1c.3-.17,2.06-1.1,3.15-1.67.57-.3,1.27-.67,1.55-.82.28-.15.68-.36.89-.46,1.95-.95,3.24-1.95,3.65-2.81l.07-.15v-.13s0-.13,0-.13l-.11-.11c-.06-.06-.16-.12-.22-.14l-.11-.03-.49.09c-.58.11-1.32.27-2.05.47-.63.16-.56.16-.56.07v-.07l.1-.09c.05-.05.14-.11.19-.15.05-.03.1-.06.1-.07,0-.02-1.37.32-1.89.46-.28.08-.27.08-.27,0,0-.11.04-.15.36-.37.47-.32.56-.44.41-.55l-.07-.05h-.21c-.12,0-1.25.1-2.52.21-2.2.18-4.08.33-4.76.36l-.31.02.09-.05s.08-.05.06-.05c-.01,0-.43.03-.92.06s-1.02.07-1.19.08l-.3.02.57-.28c.7-.34.54-.29,1.59-.51,3.04-.66,4.81-1.01,9.81-1.94,2.9-.54,5.13-.96,5.2-.98h.05s-.22-.11-.22-.11c-1.86-.84-3.36-3.55-3.14-5.68.35-3.44,3.6-6.17,7.9-6.66l.39-.04h.58c1.22,0,2.3.23,3.43.71.33.14.33.16.06-.19-.56-.75-1.11-1.34-3.4-3.68-1.99-2.04-2.9-3-2.9-3.07,0-.02.01-.05.02-.07l.02-.04.21.2c.43.41.95.85,1.75,1.51.23.19.63.52.87.73,1.15.99,1.86,1.46,2.57,1.71l.13.05.07-.02.07-.02.14.04.14.04.07-.03s.09-.06.12-.1l.05-.07v-.23s0-.23,0-.23l-.07-.32c-.09-.42-.24-.88-.59-1.84-.39-1.06-.5-1.4-.97-3.09-.12-.42-.27-.97-.35-1.22l-.14-.46-.31-.73c-.17-.4-.32-.77-.34-.81-.02-.04-.11-.26-.21-.49-.17-.4-.24-.56-.45-1.07-.61-1.43-1.74-4.17-1.77-4.28-.03-.1.52,1.01,1.24,2.51.36.77.76,1.61.89,1.87.13.26.23.48.23.48s.13.28.29.61c.16.33.38.8.5,1.03s.21.43.21.42c0,0-.16-.39-.36-.87-1.31-3.12-1.86-4.45-1.85-4.49.02-.05.38.69,1.84,3.76.97,2.05,1.6,3.36,2.08,4.35l.35.72.23-.15c.66-.43,1.16-.75,1.69-1.06l.59-.35.17-.26c1.45-2.17,3.84-3.5,7.54-4.18,2.76-.5,5.25.11,8.1,2.01l.36.24.6-.23c.33-.13.92-.34,1.31-.47l.71-.25v-.21c.05-2.3.24-5.11.43-6.33.03-.22.08-.57.1-.79.08-.74.19-1.42.3-1.73l.05-.15v.19c-.02.11-.04.68-.05,1.27l-.03,1.08.03,1.42c.03,1.46.05,1.97.12,3.1.04.64.1,1.47.13,1.69v.12s.26-.07.26-.07c1.16-.35,2.47-.68,4.05-1.01,1.04-.22.93-.24.8.11-.3.81-1.33,3.65-1.64,4.55l-.06.17.03-.02s.17-.13.34-.27c2.99-2.4,6.3-3.65,10.08-3.81l.62-.03.67.03c7.63.31,12.45,4.75,10.62,9.78-.04.1-.06.18-.06.18,0,0,.03.01.06.02l.06.02.37-.36c1.79-1.73,3.1-2.86,6.17-5.27,1.5-1.18,1.63-1.29,2.13-1.76.21-.2.4-.37.44-.4l.06-.04-.08.1c-.13.17-.5.63-.77.94-.14.16-.28.32-.3.35-.02.03.13-.08.34-.24,1.05-.82,1.26-.99,1.62-1.28.22-.18.57-.49.79-.69.21-.2.43-.4.47-.43.11-.08-.45.61-1.16,1.41-.54.62-.77.89-1.41,1.67-.09.11-.56.58-1.04,1.04-2.36,2.25-3.47,3.44-4.21,4.51-.05.07-.15.22-.23.33-.68.97-.8,1.29-.54,1.42l.08.04.17-.02c.19-.02.73-.15,1.19-.29.29-.09.54-.18,1.69-.61,1.2-.45,2.15-.68,2.15-.52,0,.26-1.74,1.31-3.15,1.91-.19.08-.41.17-.48.21-.07.03-.29.13-.48.22-.78.35-1.44.74-1.68.99l-.12.12h.06s.27-.05.52-.07l.45-.04h.75c3.81,0,7.1,1.81,7.61,4.2,0,.03.02.09.04.12.01.04.05.22.08.41l.06.34v.53s0,.53,0,.53l-.04.28c-.18,1.16-.59,2.23-1.24,3.17-.1.15-.19.29-.19.3,0,.01-.1.12-.22.25-.78.82-.19,1.33,1.84,1.56l.46.05h.31c.17-.02.96-.1,1.75-.2,3.09-.36,3.47-.4,4.07-.46.34-.03.73-.07.85-.08l.23-.02-.04.02s-.22.06-.44.11c-.22.05-.4.09-.4.09,0,0,.41-.04.9-.09,1.28-.15,2.06-.23,2.36-.24h.26s-.22.04-.22.04c-.12.03-.92.2-1.77.37-6.25,1.3-8.29,1.86-8.68,2.39l-.08.1v.19l.08.11c.13.18.23.28.38.36.08.04.19.12.26.18.36.3.96.57,2.13.98.3.1.68.25.85.31,1.97.81,4.13,1.64,5.64,2.17.11.04.2.07.19.08,0,0-.2-.03-.44-.07-.4-.07-2.58-.34-2.59-.32,0,0,.08.04.19.08.11.04.21.08.23.1l.03.02-.06-.02c-.5-.12-3.49-.47-5.39-.63-.33-.03-1.03-.11-1.55-.17l-.94-.12h-.5c-.49.03-.62.04-1.12.13-.35.06-.84.24-.84.3,0,.02.03.09.06.16.08.16.18.49.24.76l.05.22v.48s0,.48,0,.48l-.06.27c-.46,2.14-2.28,3.87-5.11,4.86-1.05.37-1.65.91-1.83,1.65l-.05.23v.3s.03.3.03.3l.07.27c.09.38.29.86.58,1.42.84,1.64.91,1.79,1.08,2.31,0,.01,0,.04-.01.06l-.02.04-.17-.11c-.26-.16-.45-.28-.96-.59-.26-.15-.49-.3-.52-.31l-.06-.04v.05c.04.11-.05.08-.5-.2l-.47-.28-.22-.03-.22-.03-.16.03c-.39.07-.54.34-.46.81.19,1.16.57,2.22,1.47,4.11.09.18.24.52.34.75.25.59.5,1.15,1.16,2.6.63,1.39,2.95,6.47,3,6.54l.03.05-.03-.02c-.15-.09-1.31-2-3.42-5.62-.55-.95-1.01-1.72-1.01-1.71-.01.01.07.18,1.51,3.33.55,1.19,1.02,2.23,1.05,2.3l.06.14-.04-.03c-.2-.16-1.16-1.73-3.05-4.99-2.49-4.27-3.19-5.35-4.27-6.54-.1-.11-.33-.37-.51-.59-.19-.22-.49-.55-.67-.74l-.33-.34h-.06s-.11.03-.17.06l-.12.06-.05.09-.05.09.05.13c.12.34.38,1.33.38,1.47v.07l-.09.04c-.14.06-.17.03-.49-.38-.41-.54-.73-.91-.74-.87,0,.02,0,.07.02.13l.03.1-.08.07s-.1.07-.14.06h-.06s-.38-.5-.38-.5c-.45-.57-.78-.94-.93-1.03l-.11-.06-.2.07-.2.07-.14.27c-1.02,1.94-3.3,3.4-5.83,3.74l-.33.04h-.73s-.73,0-.73,0l-.32-.04-.32-.04-.2.06c-.36.11-.48.13-.81.13h-.33v.21c0,.51.12.96.73,2.68l.15.41-.28-.27c-.76-.73-1.55-1.21-2.08-1.25l-.18-.02-.14.03c-.19.04-.34.12-.56.3-.5.4-.54.59-.57,2.51v1.12s.02.71.02.71c.05,1.19.2,2.57.44,4.05l.05.3-.04.2c-.02.11-.05.36-.06.55l-.03.36.03.43c.03.54.12,1.11.3,2.06.27,1.45.29,1.59.15,1.42h0Zm-1.35-5.68c-.32-1.47-.48-2.56-.54-3.67-.02-.26-.05-.81-.08-1.21l-.06-.73v-.92s0-.92,0-.92l.05-.32c.16-1.15.46-1.78,1-2.1.55-.32,1.48-.1,2.12.49l.17.16-.1-.29c-.06-.16-.14-.43-.18-.6l-.08-.31v-.3s-.03-.3-.03-.3l.03-.19.03-.19.1-.19.1-.19-.08-.03s-.08-.03-.08-.03c0,0-.08.21-.17.47l-.16.47-1.31.4c-.72.22-1.32.39-1.32.39,0,0,.1-.65.24-1.44.14-.79.26-1.47.27-1.52v-.09s-.12-.11-.12-.11c-.08-.06-.19-.18-.26-.28-.07-.09-.14-.16-.15-.16-.14.05-3.55,1.07-3.57,1.07-.01,0,.08-.58.21-1.28.86-4.84,1.63-9.57,2.05-12.57l.1-.7.47-.16c1.46-.51,4.12-1.55,4.12-1.61,0,0,0-.1,0-.19v-.17s-.38,0-.38,0h-.38s-.26-.05-.26-.05c-2.36-.4-3-2.73-1.93-6.96,1.77-7.01,5.34-12.24,10.68-15.64.81-.51,1.75-.86,2.88-1.08l.3-.06h.48s.48-.03.48-.03l.23.03c.12.02.34.06.48.09l.25.06.31.15.31.15.21.17c.59.48,1.04,1.26,1.24,2.19.03.12.05.23.06.23,0,0,1.55-.42,1.56-.44.01-.01-.14-.28-.31-.53-1.41-2.09-4.04-3.34-7.97-3.76l-.5-.05h-.95s-.95-.03-.95-.03l-.42.03c-1.64.12-3.95.7-4.67,1.17l-.06.04-.12.35c-4.55,12.57-7.92,24.52-10.69,37.96-.21,1.03-.62,3.09-.61,3.1.02.02.45-.66.58-.91l.14-.26.27-.3c.28-.31.33-.35.3-.27,0,.03-.04.13-.07.23-.2.66-.59,1.4-1.04,2.01l-.24.32h.18s.18.02.18.02l.11.06c.06.03.14.08.17.11.03.03.06.05.07.05s.08.07.15.16c.56.71.9,1.96.99,3.66l.03.57-.03.67c-.02.37-.05.87-.07,1.11-.05.62-.04.71.03.27.89-5.52,3.32-3.82,5.97,4.19.2.61.37,1.11.37,1.11,0,0-.05-.27-.12-.6h0Zm-33.93-5.79c2.51-2.36,4.34-3.78,6.25-4.88,1.46-.84,2.46-1.3,3.16-1.44l.22-.05h.67l.15.05c.08.03.2.07.25.1.06.03.1.05.11.04.02-.03-.15-6.54-.18-6.56,0,0-.18.05-.39.12-.4.13-.82.23-1.19.29l-.21.03v.04c.33,1.08-2.31,3.03-6.94,5.12-.28.13-.51.23-.5.24,0,0,.26-.09.56-.21,1.08-.43,1.6-.58,2.23-.63l.31-.03.24.03c.51.06.77.25.82.6l.02.11-.05.22c-.23.92-1.35,2.31-4.39,5.46-.83.86-1.4,1.46-1.78,1.88-.46.51-.47.52.64-.53h0Zm12.87-3.68c2.8-1.02,5.62-1.86,8.23-2.45.8-.18.66-.03.83-.94,2.7-14.72,6.54-29.12,11.35-42.54.17-.47.3-.86.3-.86-.1,0-2.15.55-2.91.78-1.48.45-3.63,1.22-4.63,1.67l-.17.08-.07.2c-1.18,3.59-2.87,9.39-3.99,13.68-1.29,4.95-2.07,8.48-3.25,14.6-.3,1.56-.55,2.86-.57,2.9l-.02.06-.02-.24c0-.13-.06-1.32-.12-2.64-.46-10.8-.97-18.7-1.75-27.15-.22-2.42-.11-2.11-.67-1.9-1.5.58-3.12,1.37-4.75,2.33-.35.2-1.55.95-1.65,1.02l-.05.04.19,1.22c1.72,11.24,2.68,24.28,2.91,39.28.01.64.02,1.17.02,1.17,0,0,.36-.13.79-.29h0Zm41.09-1.56c-1.08-2.29-1.11-4.02-.07-4.3l.17-.05h.32s.32.02.32.02l.21.07c.41.13.82.39,1.29.81l.26.23-.41-.8c-1.1-2.18-1.2-3.19-.4-4l.17-.17-.07.02s-.22.04-.39.06l-.32.04h-1.62l-.36-.06c-.63-.1-1.2-.26-1.73-.48-.13-.06-.23-.1-.23-.11,0,0,.19.02.42.04.77.1.95.11,1.99.12h1.04s.3-.02.3-.02c1.73-.17,3.97-1.09,5.04-2.06,2.96-2.71,1.15-6.66-3.42-7.44-.2-.03-.44-.09-.54-.12-.1-.03-.31-.08-.46-.11-.37-.08-.37-.09.05-.09,2.64,0,5.05.97,6.12,2.45l.08.12.25-.12c.27-.14.59-.23,1.03-.29l.28-.04h.78s.78-.03.78-.03l.5.03c1.26.08,3.8.4,6.04.77.43.07.78.12.78.12,0,0-.08-.03-.19-.06-.11-.03-.61-.18-1.1-.33-.5-.15-1.2-.34-1.56-.44-2.99-.78-4.6-1.48-4.94-2.16l-.06-.12v-.26l.05-.1c.22-.44,1.19-.95,2.39-1.27l.31-.08h-.82s-.82,0-.82,0l-.34-.04c-1.15-.14-2.14-.58-2.28-1,0-.02-.1.04-.21.13-.42.34-1.15.79-1.74,1.08-.53.26-1.62.71-1.68.69-.06-.02.56-.44.92-.62,2.63-1.36,4.14-3.47,4.4-6.14l.03-.33-.03-.33c-.29-3.06-3.91-5.07-8.39-4.64l-.33.03-.03.11c-.11.42-.5,2-.59,2.43l-.11.52-.22.02c-.36.03-1.46.28-1.53.35-.01.01,0,.14.02.28.02.14.05.45.06.68l.02.43.2.03c1.09.17,1.75.9,1.99,2.2l.06.32v.8s0,.8,0,.8l-.05.36c-.71,5.53-3.84,11.37-8.89,16.58l-.3.31-.06.23c-.03.13-.08.28-.1.34-.02.06-.04.11-.04.12,0,0,.06,0,.13,0,.61.03,1.68.86,2.47,1.9l.06.08-.09-.2c-.05-.11-.11-.3-.14-.42l-.05-.23v-.35s.02-.35.02-.35l.06-.1.06-.1.13-.07c.07-.04.2-.07.29-.08l.15-.02.19.04c1.03.22,2.8,1.95,4.48,4.39.11.16.2.29.21.29s-.06-.15-.15-.33h0Zm-17.47-1.31c0-.1.02-.21.03-.26,0-.05-.02.01-.05.14-.06.22-.07.3-.02.3.01,0,.03-.08.04-.17h0Zm7-1.05c.27-.2.82-.67.83-.71,0-.01.07-.09.14-.17.07-.08.19-.22.26-.31l.12-.15-.45.41c-.25.22-.65.58-.9.8-.25.21-.49.42-.53.46l-.08.07.16-.1c.09-.05.29-.19.44-.3h0Zm-8.13-.78c.92-.27,2.47-1.19,3.66-2.16,5.02-4.12,8.8-8.7,10.94-13.27,1.41-3,2.22-6.08,2.16-8.22v-.53s-.06-.24-.06-.24c-.17-.96-.54-1.45-1.27-1.66l-.2-.06h-.48s-.48,0-.48,0l-.24.05c-1.3.24-2.58.77-4.81,1.98-1.08.59-1.97.96-2.58,1.07l-.23.04h-.28s-.28-.02-.28-.02l-.19-.1-.19-.1-.13-.14c-.07-.08-.15-.2-.19-.29l-.06-.15v-.28s0-.28,0-.28l.06-.22c.3-1.12,1.31-2.71,3.37-5.31l.52-.66.23-.21c.54-.5.95-.78,1.29-.9l.18-.06h.37l.14.05c.28.11.51.4.58.74l.03.15-.02.32-.02.32-.08.38c-.1.47-.3,1.19-.54,1.88-.1.29-.18.54-.18.55,0,0,.12-.03.28-.1,2.09-.88,3.9-1.51,4.75-1.64l.2-.03.07-.32c.16-.75.75-3.03,1.28-4.97.09-.33.16-.6.15-.6,0,0-.22.06-.48.14l-.46.13-.08.35c-.11.48-.29,1.36-.43,2.11-.06.35-.12.63-.14.63-.01,0-.28-.04-.6-.09l-.57-.09v-.04s.02-.24.05-.48c.36-3.12-.14-4.9-1.49-5.29l-.19-.06h-.39c-1.17-.05-2.43.36-3.68,1.19-4.43,2.95-7.6,7.37-9.31,12.97-1.46,4.8-1.26,6.99.67,7.19l.28.03.34-.03c1.4-.12,3.75-1.04,5.75-2.26.3-.18.78-.45,1.07-.59l.53-.26.36-.12c1.61-.54,2.48.12,2.26,1.72-.4,2.9-2.16,5.84-5.49,9.16-1.17,1.17-1.44,1.39-1.88,1.56l-.15.06h-.23s-.23,0-.23,0l-.17-.08-.17-.08-.12-.13c-.63-.67-.4-2.6.79-6.57.2-.67.27-.63-.49-.28-1.51.69-3.34,1.44-4.95,2.02l-.34.12v.08s-.07.41-.13.8c-.36,2.49-1.08,6.92-1.72,10.59-.04.24-.07.44-.07.45.02.02,1.32-.39,1.35-.42.07-.06.43-1.31.58-1.98l.06-.25h.04s.29.07.59.14l.55.11v.09s-.06.26-.1.48l-.07.39v.55s0,.55,0,.55l.06.18c.07.21.14.31.25.36l.08.04h.27s.27-.02.27-.02l.18-.06Zm-25.83-4.46c.44-.07,1.07-.23,1.08-.28.02-.05-.11-3.11-.23-5.42-.32-6.3-.85-12.65-1.47-17.92-.06-.48-.1-.87-.1-.87,0,0-.02,0-.04,0s-.16-.04-.3-.08c-.15-.04-.4-.11-.56-.14-.16-.03-.44-.1-.61-.14s-.43-.1-.58-.12l-.27-.04h-.68s-.68-.03-.68-.03l-.42.03c-2.65.19-4.52,1.09-5.9,2.84-.7.89-1.12,1.81-1.24,2.74l-.03.25.02.44.02.44.06.28c.28,1.27,1.13,2.66,2.13,3.46.41.33,1.16.83,1.74,1.17.23.13.43.25.45.27.03.03-.3-.04-.7-.15l-.13-.03-.26.06c-1.02.23-3.81.74-8.23,1.49-3.2.55-6.74,1.19-6.71,1.22.01.01,1.66-.13,2.75-.24.5-.05,1.33-.13,1.83-.18.5-.05,1.12-.1,1.38-.12l.46-.03h.64s.64.03.64.03l.34.05c.44.07.55.09.6.14l.04.04-.03.08c-.04.09-.2.23-.48.41-.1.07-.19.12-.18.13,0,0,.31-.06.68-.13,1.17-.24,1.97-.35,2.58-.35h.34l.2.04c.96.2.61,1.22-.77,2.25-1.4,1.05-2.9,1.93-5.76,3.42-1.48.76-5,2.69-4.98,2.71,0,0,.8-.33,1.77-.73,7.91-3.3,12.1-4.55,14.05-4.2.26.05.22.07.3-.21.11-.43.25-.77.48-1.23l.23-.46.26-.39c1.09-1.62,2.75-3.03,5.19-4.38.4-.22.45-.24.45-.2,0,.03,0,.03-.41.27-3.12,1.84-5.13,4.28-5.48,6.67l-.04.3v.21c.02.11.04.27.05.34l.02.14-.03.1-.03.1.03.24c.17,1.33.83,2.75,1.74,3.71.11.12.25.27.29.32.7.83,1.88,1.45,3.21,1.69l.28.05h.36s.36,0,.36,0l.31-.05Zm30.5-6.49c.82-.36,1.57-.71,2.16-1l.46-.23.23-.3c.26-.35.82-1.17.81-1.19,0,0-.21.08-.45.19-.86.4-1.83.75-2.53.93-.37.09-.89.19-.92.17-.03-.02-.24.76-.45,1.64-.02.1-.05.1.67-.21h0Zm-19.26-15.5c.16-.62.39-1.49.52-1.94.12-.45.22-.82.21-.83-.04-.04-1.43-.17-1.45-.14,0,0,.02.34.05.74.03.4.1,1.29.15,1.97.05.68.1,1.34.11,1.47l.02.23.05-.19c.03-.11.18-.7.34-1.31Zm35.54-2.63c.25-.18.55-.33,1.15-.58,1.74-.74,4.37-2.12,4.03-2.12-.08,0-.57.23-1.41.64-2.09,1.04-3.08,1.33-3.71,1.09l-.13-.05v.05c-.02.06-.33,1.22-.36,1.32,0,.03.04,0,.12-.09.08-.08.21-.2.31-.26Zm-2.35-.14s-.01-.01-.01.03c0,.04,0,.06.01.05,0-.02,0-.05,0-.08h0Zm.35-1.68l.04-.16-.06.02s-.1.02-.15.03l-.1.02v.16c0,.16-.04.96-.06,1.35v.22s.14-.73.14-.73c.08-.4.17-.81.19-.9h0Zm-45.64.7c-.03-.19-.06-.5-.09-.68l-.04-.33h-.17c-.43,0-.89-.22-1.52-.76l-.22-.18.17.18c.09.1.48.52.85.93.38.41.77.84.88.97.1.12.19.23.19.23,0,0-.02-.16-.04-.35h0Zm13.19-.22c.5-1.79,1.39-4.8,1.99-6.72.28-.9,1-3.17,1.03-3.25v-.04s-.44-.21-.44-.21c-1.38-.64-2.36-.93-3.53-1.03l-.36-.03h-.48c-.57.03-1.12.1-1.72.23-.38.08-1.29.31-1.31.33,0,0,.03.41.08.91.05.5.14,1.42.19,2.06.06.64.11,1.16.11,1.17,0,0,.2-.07.43-.16.48-.19,1.37-.51,1.42-.51h.03l.07.73c.13,1.39.4,4.34.49,5.48.05.63.1,1.17.1,1.2v.06s.31.02.31.02c.38.02.97.1,1.21.17.1.03.19.05.21.05.01,0,.08-.2.15-.44h0Zm35.31-2.19c.83-1,1.9-2.08,3.75-3.77.79-.72,2.52-2.41,2.41-2.35-.09.05-2.46,1.94-3.11,2.48-1.15.96-2.65,2.35-3.9,3.61l-.37.38.19-.05c.11-.03.32-.09.48-.14.32-.09.31-.09.26.09-.02.07-.04.14-.04.15,0,.02.04-.03.34-.39h0Zm-3.24-.3c.05-.42.04-.46-.05-.13l-.07.28.02.07c.04.18.05.16.1-.22h0Z" style="fill: #fff; stroke-width: 0px;"/>
    </g>
  </g>
</svg>