<?xml version="1.0" encoding="UTF-8"?>
<svg id="Calque_2" data-name="Calque 2" xmlns="http://www.w3.org/2000/svg" viewBox="0 0 348.03 82.74">
  <g id="svg19">
    <g>
      <g>
        <path d="m104.12,32.34c0,2.51-.46,4.66-1.38,6.44-.92,1.78-2.16,3.14-3.7,4.08-1.54.94-3.29,1.44-5.23,1.5v-2.24c2.29-.13,4.19-1.03,5.7-2.72,1.51-1.69,2.27-4.09,2.27-7.21V3.57h2.34v28.77Z" style="fill: #fff; stroke-width: 0px;"/>
        <path d="m121.87,37.83c-1.94,0-3.66-.43-5.15-1.29-1.5-.86-2.67-2.03-3.51-3.51-.84-1.48-1.26-3.14-1.26-4.99s.45-3.47,1.34-4.96c.89-1.5,2.09-2.69,3.6-3.58,1.51-.89,3.19-1.34,5.03-1.34,2.23,0,4.1.65,5.61,1.96,1.51,1.3,2.6,3.01,3.27,5.11l-16.32,6.3-.67-1.62,14.94-5.82-.48.67c-.54-1.27-1.36-2.37-2.46-3.29-1.1-.92-2.44-1.38-4.03-1.38-1.43,0-2.72.35-3.87,1.05-1.15.7-2.06,1.64-2.74,2.82-.68,1.18-1.03,2.51-1.03,4.01,0,1.4.33,2.7.98,3.91.65,1.21,1.57,2.18,2.74,2.91,1.18.73,2.53,1.1,4.06,1.1,1.02,0,2-.19,2.94-.57.94-.38,1.77-.87,2.5-1.48l1.15,1.62c-.89.7-1.92,1.27-3.08,1.72-1.16.44-2.35.67-3.55.67Z" style="fill: #fff; stroke-width: 0px;"/>
        <path d="m142.86,37.97c-1.75,0-3.15-.52-4.2-1.55-1.05-1.03-1.61-2.38-1.67-4.03v-13.6h2.24v12.93c.06,1.21.45,2.21,1.17,3.01.72.8,1.79,1.23,3.22,1.29,1.21,0,2.34-.32,3.39-.95,1.05-.64,1.9-1.5,2.55-2.6.65-1.1.98-2.35.98-3.75v-9.93h2.24v18.66h-2l-.24-5.87.33,1.29c-.32.95-.88,1.82-1.69,2.6-.81.78-1.77,1.39-2.86,1.84-1.1.44-2.25.67-3.46.67Z" style="fill: #fff; stroke-width: 0px;"/>
        <path d="m175.03,37.45h-2.67l-13.98-18.66h2.82l13.84,18.66Zm-8.3-8.02l-5.73,8.02h-2.39l6.87-9.5,1.24,1.48Zm.05-2.58l5.54-8.06h2.34l-6.92,9.73-.95-1.67Z" style="fill: #fff; stroke-width: 0px;"/>
        <path d="m202.89,37.83c-1.75,0-3.34-.42-4.77-1.26-1.43-.84-2.57-2.01-3.41-3.51-.84-1.5-1.26-3.18-1.26-5.06,0-2,.43-3.74,1.29-5.2.86-1.46,2.03-2.59,3.51-3.39,1.48-.79,3.11-1.19,4.89-1.19s3.47.46,5.08,1.38c1.61.92,2.77,2.13,3.51,3.63l-.38,1.05V1.18h2.24v36.27h-2.29v-5.73l.48,1.05c-.8,1.5-1.99,2.71-3.58,3.65-1.59.94-3.36,1.41-5.3,1.41Zm.57-1.96c1.43,0,2.72-.31,3.87-.93,1.14-.62,2.07-1.46,2.77-2.53.7-1.07,1.1-2.27,1.19-3.6v-2.39c-.22-1.21-.72-2.29-1.48-3.25-.76-.95-1.69-1.71-2.77-2.27-1.08-.56-2.27-.83-3.58-.83-1.43,0-2.74.33-3.91,1-1.18.67-2.12,1.59-2.82,2.77-.7,1.18-1.05,2.55-1.05,4.1,0,1.46.35,2.79,1.05,3.98.7,1.19,1.65,2.15,2.84,2.86,1.19.72,2.49,1.07,3.89,1.07Z" style="fill: #fff; stroke-width: 0px;"/>
        <path d="m230.19,37.83c-1.94,0-3.66-.43-5.15-1.29-1.5-.86-2.67-2.03-3.51-3.51-.84-1.48-1.26-3.14-1.26-4.99s.45-3.47,1.34-4.96c.89-1.5,2.09-2.69,3.6-3.58,1.51-.89,3.19-1.34,5.03-1.34,2.23,0,4.1.65,5.61,1.96,1.51,1.3,2.6,3.01,3.27,5.11l-16.32,6.3-.67-1.62,14.94-5.82-.48.67c-.54-1.27-1.36-2.37-2.46-3.29-1.1-.92-2.44-1.38-4.03-1.38-1.43,0-2.72.35-3.87,1.05-1.15.7-2.06,1.64-2.74,2.82-.68,1.18-1.03,2.51-1.03,4.01,0,1.4.33,2.7.98,3.91.65,1.21,1.57,2.18,2.74,2.91,1.18.73,2.53,1.1,4.06,1.1,1.02,0,2-.19,2.93-.57.94-.38,1.77-.87,2.5-1.48l1.15,1.62c-.89.7-1.92,1.27-3.08,1.72-1.16.44-2.35.67-3.55.67Z" style="fill: #fff; stroke-width: 0px;"/>
      </g>
      <g>
        <path d="m117.57,41.86c3.33,0,6.15.56,8.46,1.68,2.31,1.12,4.07,2.69,5.28,4.73s1.81,4.44,1.81,7.23c0,1.65-.25,3.31-.74,4.97s-1.28,3.18-2.36,4.53c-1.08,1.36-2.53,2.45-4.34,3.27-1.81.82-4.04,1.24-6.68,1.24h-5.71v12.8h-7.97v-40.44h12.25Zm1.37,19.89c1.21,0,2.22-.21,3.02-.63.81-.42,1.44-.95,1.9-1.59.46-.64.79-1.31.99-2,.2-.7.3-1.3.3-1.81,0-.4-.06-.94-.19-1.62-.13-.68-.39-1.36-.8-2.06-.4-.7-1.02-1.28-1.84-1.76-.82-.48-1.93-.71-3.32-.71h-5.71v12.2h5.66Z" style="fill: #fff; stroke-width: 0px;"/>
        <path d="m140.26,41.86h7.97v32.75h19.01v7.69h-26.98v-40.44Z" style="fill: #fff; stroke-width: 0px;"/>
        <path d="m170.93,82.3l18.24-42.04h.44l18.24,42.04h-9.23l-11.65-29.56,5.77-3.96-13.96,33.52h-7.86Zm12.47-14.62h12.14l2.8,6.7h-17.42l2.47-6.7Z" style="fill: #fff; stroke-width: 0px;"/>
        <path d="m207.69,41.86h27.26v7.69h-9.84v32.75h-7.97v-32.75h-9.45v-7.69Z" style="fill: #fff; stroke-width: 0px;"/>
        <path d="m242.64,41.86h27.58v7.69h-19.62v8.63h17.36v7.69h-17.36v8.74h20.39v7.69h-28.35v-40.44Z" style="fill: #fff; stroke-width: 0px;"/>
        <path d="m274.67,82.3l18.24-42.04h.44l18.24,42.04h-9.23l-11.65-29.56,5.77-3.96-13.96,33.52h-7.86Zm12.47-14.62h12.14l2.8,6.7h-17.42l2.47-6.7Z" style="fill: #fff; stroke-width: 0px;"/>
        <path d="m323.25,67.36c0,1.28.38,2.51,1.15,3.68.77,1.17,1.79,2.12,3.05,2.86,1.26.73,2.65,1.1,4.15,1.1,1.65,0,3.11-.37,4.4-1.1,1.28-.73,2.3-1.68,3.05-2.86.75-1.17,1.13-2.4,1.13-3.68v-25.5h7.86v25.66c0,2.97-.73,5.6-2.2,7.88-1.47,2.29-3.44,4.08-5.93,5.39s-5.26,1.95-8.3,1.95-5.74-.65-8.21-1.95-4.44-3.1-5.91-5.39c-1.47-2.29-2.2-4.92-2.2-7.88v-25.66h7.97v25.5Z" style="fill: #fff; stroke-width: 0px;"/>
      </g>
      <g id="g1">
        <path id="path1" d="m35.33,82.11c-1.21-.2-2.97-.78-4.04-1.32-2.1-1.06-25-14.37-25.83-15.02-2.45-1.9-4.08-4.28-5.02-7.35l-.36-1.17-.05-15.61C-.03,27.81,0,25.89.23,24.75c.32-1.6,1.09-3.55,1.38-3.52.12,0,7.5,4.6,16.39,10.2,8.89,5.6,16.48,10.37,16.87,10.58.38.22,1.03.48,1.45.59l.75.19.04,19.74.04,19.74-.52-.02c-.29-.01-.87-.08-1.3-.15h0Zm-23.69-19.8c2.38-2.09-.17-9.6-3.82-11.26-1.27-.58-2.29-.29-2.85.8-1.76,3.44,2,10.93,5.5,10.95.44,0,.75-.13,1.16-.49Zm16.94-8.12c.68-.71.92-1.63.8-3.14-.27-3.54-2.83-7.51-5.28-8.21-.86-.25-1.68.07-2.19.85-.42.63-.44.77-.43,2.45,0,1.59.06,1.92.51,3.11,1.12,2.96,2.97,5.09,4.79,5.52.74.17,1.24.01,1.8-.57h0Zm10.67,8.31v-19.62l1.01-.31c.63-.19,1.99-.92,3.66-1.97,2.15-1.35,21.55-13.58,28.24-17.81l1.61-1.02.2.37c.11.21.36.91.56,1.56l.37,1.19.05,15.61c.04,13.83.02,15.76-.21,16.9-.57,2.83-2.05,5.46-4.23,7.5-.97.91-1.96,1.59-4.23,2.9-15.36,8.9-21.69,12.51-22.92,13.09-1.32.63-3.16,1.2-3.83,1.2-.25,0-.27-1.32-.27-19.62Zm8.79,11.8c2.4-1.37,4.59-5.74,4.37-8.74-.23-3.21-2.47-3.8-4.95-1.29-2.81,2.85-4,8.18-2.23,9.95.72.72,1.62.74,2.81.07h0Zm18.14-11.76c1.85-.95,3.68-3.55,4.37-6.25.35-1.36.32-3.37-.06-4.22-1.36-2.99-5.51-.31-7.15,4.61-.82,2.46-.71,4.58.3,5.59.45.45.65.53,1.28.53.41,0,.98-.12,1.26-.26h0Zm-18.14-8.2c2.41-1.37,4.57-5.72,4.37-8.78-.16-2.39-1.57-3.38-3.44-2.42-3.49,1.78-5.9,8.96-3.73,11.13.72.72,1.62.74,2.81.07h0Zm18.17-11.78c1.8-.9,3.65-3.55,4.34-6.22.35-1.36.32-3.37-.06-4.22-1.36-2.99-5.53-.3-7.14,4.61-1.39,4.22.09,7.22,2.87,5.83Zm-29.56-2.05c-.74-.27-33.92-21.14-33.92-21.33,0-.23,2.09-2.37,2.88-2.94.79-.58,24.14-14.08,25.75-14.9.53-.27,1.6-.68,2.38-.91,1.25-.38,1.68-.43,3.75-.43s2.5.05,3.75.43c.78.24,1.86.65,2.41.93,1.59.8,24.9,14.28,25.7,14.87.82.6,2.69,2.5,3.13,3.18.17.26.23.51.15.59-.55.52-32.31,20.38-32.88,20.55-.89.27-2.33.26-3.11-.03h0Zm3.04-17.21c1.13-.51,2.21-1.54,2.74-2.63.39-.79.45-1.1.44-2.36,0-1.73-.31-2.55-1.44-3.76-2.13-2.28-5.77-2.28-7.9,0-1.12,1.2-1.44,2.02-1.44,3.76,0,1.26.06,1.57.44,2.36.73,1.48,2.29,2.71,3.87,3.03.96.2,2.31.03,3.27-.4h0Z" style="fill: #fff; stroke-width: 0px;"/>
      </g>
    </g>
  </g>
</svg>