<?xml version="1.0" encoding="UTF-8"?>
<svg id="Calque_2" data-name="Calque 2" xmlns="http://www.w3.org/2000/svg" viewBox="0 0 262.91 83.27">
  <g id="svg19">
    <g>
      <g>
        <path d="m117.81,49.9c-.92-.45-2.06-.86-3.4-1.25-1.34-.39-2.68-.58-4.02-.58-2.09,0-3.75.52-5.01,1.56-1.25,1.04-1.88,2.35-1.88,3.93,0,1.19.36,2.18,1.07,2.97.72.79,1.65,1.46,2.82,2.01,1.16.55,2.4,1.08,3.71,1.59,1.04.39,2.08.82,3.11,1.3,1.03.48,1.96,1.06,2.79,1.74.83.69,1.5,1.54,1.99,2.55.49,1.01.74,2.26.74,3.75,0,1.76-.42,3.32-1.25,4.67-.83,1.36-2,2.41-3.49,3.15-1.49.75-3.22,1.12-5.19,1.12-1.58,0-3.02-.19-4.31-.58-1.3-.39-2.43-.84-3.4-1.36-.97-.52-1.74-.96-2.3-1.32l1.03-1.79c.65.48,1.45.95,2.39,1.43s1.96.88,3.06,1.21c1.1.33,2.21.49,3.31.49,1.28,0,2.53-.25,3.73-.76,1.21-.51,2.21-1.27,2.99-2.3.79-1.03,1.18-2.33,1.18-3.91s-.37-2.75-1.12-3.69c-.75-.94-1.7-1.71-2.86-2.3-1.16-.6-2.4-1.13-3.71-1.61-1.01-.39-2.03-.8-3.04-1.23-1.01-.43-1.94-.95-2.77-1.56-.83-.61-1.5-1.35-1.99-2.21-.49-.86-.74-1.91-.74-3.13,0-1.52.39-2.85,1.16-3.98.77-1.13,1.82-2.02,3.15-2.66,1.33-.64,2.84-.98,4.54-1.01,1.49,0,3,.19,4.54.58,1.53.39,2.87.88,4,1.48l-.85,1.7Z" style="fill: #fff; stroke-width: 0px;"/>
        <path d="m140.34,76.36c-.8.66-1.71,1.16-2.73,1.52-1.01.36-2.07.54-3.17.54-1.79,0-3.38-.39-4.78-1.18-1.4-.79-2.5-1.87-3.31-3.24-.8-1.37-1.21-2.93-1.21-4.69s.42-3.32,1.25-4.69c.83-1.37,1.94-2.45,3.33-3.24,1.39-.79,2.9-1.18,4.54-1.18,1.22,0,2.35.18,3.4.54,1.04.36,1.95.86,2.73,1.52l-1.12,1.43c-.63-.51-1.36-.92-2.19-1.25-.83-.33-1.73-.49-2.68-.49-1.31,0-2.51.33-3.6.98-1.09.66-1.95,1.54-2.59,2.66-.64,1.12-.96,2.36-.96,3.73s.32,2.57.96,3.69c.64,1.12,1.52,2,2.64,2.66,1.12.66,2.36.98,3.73.98.89,0,1.73-.14,2.5-.42.77-.28,1.48-.66,2.1-1.14l1.16,1.3Z" style="fill: #fff; stroke-width: 0px;"/>
        <path d="m153.79,78.42c-1.82,0-3.43-.4-4.83-1.21-1.4-.8-2.5-1.9-3.29-3.29-.79-1.39-1.18-2.94-1.18-4.67s.42-3.25,1.25-4.65c.83-1.4,1.96-2.52,3.37-3.35,1.42-.83,2.99-1.25,4.72-1.25,2.09,0,3.84.61,5.25,1.83,1.42,1.22,2.44,2.82,3.06,4.78l-15.29,5.9-.63-1.52,13.99-5.45-.45.63c-.51-1.19-1.27-2.22-2.3-3.08-1.03-.86-2.29-1.3-3.78-1.3-1.34,0-2.55.33-3.62.98-1.07.66-1.93,1.54-2.57,2.64-.64,1.1-.96,2.35-.96,3.75,0,1.31.31,2.53.92,3.67.61,1.13,1.47,2.04,2.57,2.73,1.1.69,2.37,1.03,3.8,1.03.95,0,1.87-.18,2.75-.54.88-.36,1.66-.82,2.35-1.39l1.07,1.52c-.83.66-1.8,1.19-2.88,1.61-1.09.42-2.2.63-3.33.63Z" style="fill: #fff; stroke-width: 0px;"/>
        <path d="m169.79,60.58l.22,5.5-.27-1.07c.51-1.52,1.47-2.72,2.88-3.6,1.42-.88,2.99-1.32,4.72-1.32,1.64,0,2.96.48,3.98,1.45,1.01.97,1.53,2.23,1.56,3.78v12.74h-2.15v-12.16c-.03-1.13-.39-2.07-1.07-2.82-.69-.74-1.68-1.13-2.99-1.16-1.16,0-2.25.28-3.26.85-1.01.57-1.83,1.36-2.44,2.37-.61,1.01-.92,2.19-.92,3.53v9.39h-2.1v-17.48h1.83Z" style="fill: #fff; stroke-width: 0px;"/>
        <path d="m198.44,78.42c-1.82,0-3.43-.4-4.83-1.21-1.4-.8-2.5-1.9-3.29-3.29-.79-1.39-1.18-2.94-1.18-4.67s.42-3.25,1.25-4.65c.83-1.4,1.96-2.52,3.37-3.35,1.42-.83,2.99-1.25,4.72-1.25,2.09,0,3.84.61,5.25,1.83,1.41,1.22,2.44,2.82,3.06,4.78l-15.29,5.9-.63-1.52,13.99-5.45-.45.63c-.51-1.19-1.27-2.22-2.3-3.08-1.03-.86-2.29-1.3-3.78-1.3-1.34,0-2.55.33-3.62.98-1.07.66-1.93,1.54-2.57,2.64-.64,1.1-.96,2.35-.96,3.75,0,1.31.3,2.53.92,3.67.61,1.13,1.47,2.04,2.57,2.73,1.1.69,2.37,1.03,3.8,1.03.95,0,1.87-.18,2.75-.54.88-.36,1.66-.82,2.35-1.39l1.07,1.52c-.83.66-1.8,1.19-2.88,1.61s-2.2.63-3.33.63Z" style="fill: #fff; stroke-width: 0px;"/>
      </g>
      <g>
        <path d="m101.2,41.01V2.52h11.51c3.87,0,7.17.58,9.89,1.73,2.72,1.15,4.91,2.69,6.56,4.6,1.66,1.92,2.87,4.06,3.64,6.43.77,2.37,1.15,4.76,1.15,7.17,0,2.86-.51,5.43-1.54,7.71-1.03,2.28-2.43,4.24-4.21,5.86-1.78,1.62-3.84,2.86-6.17,3.71-2.34.85-4.81,1.28-7.43,1.28h-13.39Zm7.58-7.32h4.5c1.92,0,3.66-.25,5.23-.76,1.57-.51,2.92-1.25,4.05-2.22,1.13-.98,2-2.2,2.61-3.69.61-1.48.92-3.18.92-5.1,0-2.51-.41-4.56-1.23-6.15-.82-1.59-1.83-2.82-3.03-3.69-1.2-.87-2.43-1.47-3.69-1.8-1.25-.33-2.32-.5-3.19-.5h-6.17v23.9Z" style="fill: #fff; stroke-width: 0px;"/>
        <path d="m141.52,2.52h26.26v7.32h-18.67v8.21h16.53v7.32h-16.53v8.32h19.4v7.32h-26.99V2.52Z" style="fill: #fff; stroke-width: 0px;"/>
        <path d="m176.36,41.01V.95h.05l21.39,30.34-3.24-.73L215.9.95h.1v40.06h-7.58v-22.96l.47,3.92-13.02,18.52h-.1l-13.39-18.52,1.31-3.61v22.65h-7.32Z" style="fill: #fff; stroke-width: 0px;"/>
        <path d="m223.58,21.82c0-2.65.5-5.16,1.52-7.53,1.01-2.37,2.41-4.47,4.21-6.3s3.88-3.27,6.25-4.31c2.37-1.05,4.92-1.57,7.64-1.57s5.21.52,7.58,1.57c2.37,1.05,4.47,2.48,6.3,4.31,1.83,1.83,3.26,3.93,4.29,6.3,1.03,2.37,1.54,4.88,1.54,7.53s-.51,5.27-1.54,7.64c-1.03,2.37-2.46,4.46-4.29,6.25-1.83,1.8-3.93,3.2-6.3,4.21-2.37,1.01-4.9,1.52-7.58,1.52s-5.27-.5-7.64-1.52c-2.37-1.01-4.46-2.41-6.25-4.21-1.8-1.8-3.2-3.88-4.21-6.25-1.01-2.37-1.52-4.92-1.52-7.64Zm7.85,0c0,1.71.3,3.3.92,4.79.61,1.48,1.46,2.79,2.56,3.92,1.1,1.13,2.37,2.01,3.82,2.64,1.45.63,3.02.94,4.73.94s3.16-.31,4.58-.94c1.41-.63,2.64-1.51,3.69-2.64,1.05-1.13,1.87-2.44,2.46-3.92.59-1.48.89-3.08.89-4.79s-.31-3.36-.92-4.86c-.61-1.5-1.45-2.82-2.51-3.95-1.06-1.13-2.31-2.01-3.74-2.64-1.43-.63-2.98-.94-4.65-.94s-3.23.31-4.66.94c-1.43.63-2.69,1.51-3.77,2.64-1.08,1.13-1.92,2.45-2.51,3.95-.59,1.5-.89,3.12-.89,4.86Z" style="fill: #fff; stroke-width: 0px;"/>
      </g>
      <path d="m36.33.05c-.28.04-1.4.22-2.5.4-6.2.98-13.16,4.1-18.2,8.14-1.52,1.24-5.4,5.08-6.68,6.64C4.65,20.45,1.67,26.93.41,33.84c-.54,2.92-.54,12.68,0,15.6,1.22,6.64,4.18,13.2,8.18,18.2,1.24,1.52,5.08,5.4,6.64,6.68,5.22,4.3,11.7,7.28,18.6,8.54,2.92.54,12.68.54,15.6,0,6.9-1.26,13.38-4.24,18.6-8.54,1.56-1.28,5.4-5.16,6.64-6.68,4-5,6.96-11.56,8.18-18.2.54-2.92.54-12.68,0-15.6-1.22-6.64-4.18-13.2-8.18-18.2-1.24-1.52-5.08-5.4-6.64-6.68-4.1-3.38-9.22-6.06-14.3-7.52C49.62.25,48.2.07,42.23,0c-2.96-.02-5.62,0-5.9.04Zm1.14,3.4c-.06.06-.24.08-.38.02-.16-.06-.1-.12.12-.12.22-.02.34.04.26.1Zm-.74.34c0,.26.46.46,4.26,1.78l2.36.82-.66.4c-2.4,1.44-7.12,5.92-9.26,8.78-.54.74-1.12,1.34-1.26,1.36-.24,0-10.48-3.68-10.98-3.98-.22-.12-.02-.38.78-1.06,3.82-3.26,8.92-6.18,13.02-7.48.62-.2,1.14-.48,1.14-.62s.14-.26.3-.26.3.12.3.26Zm16.96,1.34c.46.14.84.38.84.5,0,.14-.32,1.12-.72,2.16l-.72,1.9-1.94-.68c-4.4-1.58-7.02-2.58-7.02-2.7,0-.14,2.4-1.24,3.4-1.56,2.12-.66,2.86-.6,6.16.38Zm9.64,4.86c2.3,1.54,4.2,3.16,5.24,4.48l.94,1.2-2.14-.78c-1.18-.44-2.7-.98-3.38-1.22-.7-.24-1.26-.54-1.26-.68,0-.5-1.02-2.52-1.9-3.8l-.92-1.32.96.56c.52.3,1.64,1,2.46,1.56Zm-6.32,1.42c1.88.7,3.92,1.44,4.54,1.62l1.14.36.42,1.42c.9,3.1,1.58,9.8,1.28,12.54l-.16,1.32-7.6-2.76c-4.18-1.52-7.72-2.78-7.88-2.78-.14,0-.22-.12-.16-.26.04-.12,1.1-3.06,2.36-6.5,1.24-3.42,2.36-6.24,2.46-6.24s1.72.58,3.6,1.28Zm-38.11,1.04l1.42.52-1.66,1.76c-1.96,2.06-3.66,4.26-5.2,6.74-1.56,2.56-2.6,4.62-3.74,7.6l-.18.42-1.84-.68c-1.02-.38-1.88-.72-1.92-.76s.32-.96.8-2.04c1.04-2.36,2.88-5.48,4.46-7.64,1.2-1.6,5.88-6.44,6.24-6.44.12,0,.86.24,1.62.52Zm51.83,4.12c1.9,2.02,4.72,6.6,6.22,10.08.96,2.26,2.54,7.2,2.34,7.38-.06.06-.74-.14-1.52-.42-1.36-.5-1.44-.58-1.56-1.26-1-5.86-2.94-11.3-5.34-15.08-.78-1.22-.82-1.42-.14-.7Zm-28.81,4.26c3.24,1.18,5.98,2.22,6.06,2.3.14.12-6.06,17.68-6.34,17.94-.06.06-18.1-6.46-18.24-6.58-.1-.1,1.72-4.38,2.92-6.9,1.3-2.74,2.86-5.44,4.74-8.3l1.28-1.94,1.84.68c1.02.36,4.5,1.62,7.74,2.8Zm26.65,9.72c2.12.78,4.68,1.68,5.7,2.04l1.82.62.16,1.92c.34,4.58-.28,10.26-1.64,15.02-.38,1.32-.68,2.44-.68,2.5,0,.22-.94-.08-6-1.94-3.02-1.1-5.96-2.16-6.52-2.34l-1.02-.32.36-.94c1.56-4.06,3.1-11.14,3.68-16.74.08-.68.18-1.24.22-1.24s1.8.64,3.92,1.42Zm-51.95,1.78c3.42,1.24,6.24,2.28,6.28,2.32s-.28,1.22-.74,2.62c-1.52,4.72-2.58,9.56-3.04,14.06-.14,1.16-.26,2.12-.28,2.16-.04.02-2.64-.88-5.78-2l-5.7-2.06-.16-1.9c-.32-4.42.3-10.46,1.52-14.6.86-2.84.96-3.06,1.36-2.96.18.06,3.14,1.12,6.54,2.36Zm32.73,11.92c4.12,1.5,8.2,2.98,9.06,3.3.88.32,1.62.6,1.64.64.14.14-1.86,4.76-3.42,7.84-1.6,3.16-4.22,7.58-5.24,8.84l-.36.42-7.8-2.84c-6.34-2.32-7.8-2.92-7.76-3.2.02-.34,6.28-17.72,6.36-17.72.04,0,3.42,1.22,7.52,2.72Zm-42.99,5.06c.64.22.76.36.88.98,1.06,6.12,2.88,11.26,5.34,15.1l.74,1.14-.74-.3c-.4-.16-.84-.46-1-.66-3.06-3.92-5.62-8.92-6.96-13.64-.36-1.26-.7-2.6-.76-2.94l-.12-.64.94.36c.52.2,1.28.48,1.68.6Zm69.74,4.66c1.9.7,1.86.4.54,3.36-1.02,2.3-2.88,5.46-4.44,7.56-1.14,1.54-4.88,5.54-5.46,5.84-.18.1-.94-.08-1.96-.44l-1.66-.6,1.66-1.74c1.92-1.98,3-3.36,4.76-6.02,1.44-2.18,3.38-5.98,3.92-7.66.28-.86.46-1.12.68-1.02.16.06,1.04.38,1.96.72Zm-47.45,3.44c3.2,1.16,5.94,2.12,6.08,2.12s.2.12.16.24c-.06.14-1.12,3.08-2.38,6.5-1.24,3.44-2.36,6.26-2.46,6.26s-1.72-.58-3.6-1.28c-1.88-.7-3.94-1.44-4.56-1.64-.8-.24-1.16-.46-1.26-.76-.4-1.4-.9-3.6-1.08-4.72-.36-2.24-.62-6.82-.48-8.54l.12-1.62,1.82.66c1,.36,4.44,1.62,7.64,2.78Zm28.11,10.24c2.9,1.04,5.4,1.98,5.56,2.06.2.12-.12.5-1.26,1.44-3.54,2.92-7.96,5.46-11.92,6.86-1.04.38-1.92.76-1.96.88-.02.1.2.28.5.4l.56.2-.5.12c-1.38.32-3.92.52-6.46.5l-2.84-.04,2.52-.16c1.38-.08,3.18-.3,4-.46.82-.18,1.54-.32,1.64-.32.42,0,.04-.56-.5-.76-3.2-1.06-5.58-2-5.54-2.16.04-.1.68-.62,1.44-1.14,1.84-1.3,5.42-4.78,7.48-7.3.94-1.12,1.76-2.04,1.86-2.04.08,0,2.52.86,5.42,1.92Zm-39.83.42c1.04.38,2.32.84,2.82,1,.8.28.94.4,1.16,1.18.4,1.34,1.6,3.24,3.02,4.74,1.44,1.56,1.38,1.54-1.52-.16-2.48-1.46-6.36-4.96-7.86-7.08l-.48-.66.48.14c.26.08,1.34.46,2.38.84Zm20.1,7.3c1.22.44,2.24.84,2.28.9.18.14-.72.66-2.08,1.18-.76.28-2.36.68-3.56.9q-2.14.36-3.54-.06c-.78-.24-1.4-.52-1.4-.64s.36-1.22.82-2.44l.8-2.22,2.24.78c1.24.42,3.24,1.14,4.44,1.6Z" style="fill: #fff; stroke-width: 0px;"/>
    </g>
  </g>
</svg>