<svg xmlns="http://www.w3.org/2000/svg" viewBox="0 0 385.38 105.78"><path d="M41.32,52.13,4.75,15l1.83.46.13,35.13H.37V1.9H.69L36.87,39.12l-1.51-.33L35.23,3.34h6.28V52.13Z" fill="#fff"/><path d="M66.17,51.28a16.15,16.15,0,0,1-8-1.86,13,13,0,0,1-5.13-5.1,15.05,15.05,0,0,1-1.8-7.43,13.43,13.43,0,0,1,2-7.26,15.27,15.27,0,0,1,5.42-5.23,14.91,14.91,0,0,1,7.59-2,12.87,12.87,0,0,1,8.9,3.14A15.8,15.8,0,0,1,80,34.21l-22.3,7.85-1.44-3.6,18.31-6.67-1.3.85a9.15,9.15,0,0,0-2.62-3.76,7,7,0,0,0-4.78-1.6,8.27,8.27,0,0,0-4.44,1.21,8.44,8.44,0,0,0-3.08,3.3,10.06,10.06,0,0,0-1.11,4.78,9.93,9.93,0,0,0,1.18,4.93,8.6,8.6,0,0,0,3.24,3.34,9,9,0,0,0,4.67,1.21,9.5,9.5,0,0,0,3.44-.65,14.36,14.36,0,0,0,3.1-1.7l2.82,4.51a18.5,18.5,0,0,1-4.55,2.22A15.33,15.33,0,0,1,66.17,51.28Z" fill="#fff"/><path d="M97.7,51.42l-15-27.87h7.19l10.21,21.52-3.73-.13,9.35-21.39h6.8L98,51.42Z" fill="#fff"/><path d="M130.93,51.28a16.12,16.12,0,0,1-8-1.86,12.91,12.91,0,0,1-5.13-5.1,15.05,15.05,0,0,1-1.8-7.43,13.51,13.51,0,0,1,2-7.26,15.38,15.38,0,0,1,5.43-5.23,14.91,14.91,0,0,1,7.59-2,12.87,12.87,0,0,1,8.9,3.14,15.87,15.87,0,0,1,4.77,8.63l-22.3,7.85L121,38.46l18.31-6.67-1.3.85a9.15,9.15,0,0,0-2.62-3.76,7,7,0,0,0-4.78-1.6,8.24,8.24,0,0,0-4.44,1.21,8.44,8.44,0,0,0-3.08,3.3A10.06,10.06,0,0,0,122,36.57a9.93,9.93,0,0,0,1.18,4.93,8.64,8.64,0,0,0,3.23,3.34,9.07,9.07,0,0,0,4.68,1.21,9.5,9.5,0,0,0,3.44-.65,14.36,14.36,0,0,0,3.1-1.7l2.82,4.51a18.5,18.5,0,0,1-4.55,2.22A15.33,15.33,0,0,1,130.93,51.28Z" fill="#fff"/><path d="M157.81,23.55l.59,7.85-.32-1a11.26,11.26,0,0,1,3-4.22,16.26,16.26,0,0,1,4.18-2.68,10,10,0,0,1,3.83-.95l-.33,6a9.16,9.16,0,0,0-5.39,1.18,10.14,10.14,0,0,0-3.67,3.66,9.59,9.59,0,0,0-1.34,4.91V50.63h-6V23.55Z" fill="#fff"/><path d="M211.78,3.34a20.45,20.45,0,0,1,8.83,1.73,13,13,0,0,1,5.66,5,14.93,14.93,0,0,1,2,7.92,18.33,18.33,0,0,1-.85,5.53,13.82,13.82,0,0,1-2.71,4.9,13.15,13.15,0,0,1-4.87,3.5,18.41,18.41,0,0,1-7.33,1.31h-7v17.4h-6.35V3.34Zm.65,23.81a10.38,10.38,0,0,0,4.65-.92A7.91,7.91,0,0,0,220,23.91a9.4,9.4,0,0,0,1.5-3,9.94,9.94,0,0,0,.46-2.81,10.3,10.3,0,0,0-.46-3,7.69,7.69,0,0,0-1.54-2.81,8.08,8.08,0,0,0-2.81-2.09,9.93,9.93,0,0,0-4.28-.82H205.5V27.15Z" fill="#fff"/><path d="M236.57,0h6.08V50.63h-6.08Z" fill="#fff"/><path d="M264.44,51.28a14.62,14.62,0,0,1-6.91-1.63,11.94,11.94,0,0,1-4.9-4.81,15.48,15.48,0,0,1-1.8-7.75,15.41,15.41,0,0,1,1.9-7.82,13.14,13.14,0,0,1,5.07-5.07,14.12,14.12,0,0,1,7-1.76,11.38,11.38,0,0,1,6.41,1.73,12.41,12.41,0,0,1,4,4.09l-.39,1,.59-5.76H281V50.63H274.9V43.57l.66,1.57a6.65,6.65,0,0,1-1.15,1.66,13,13,0,0,1-2.35,2.06,14.09,14.09,0,0,1-3.37,1.74A12.39,12.39,0,0,1,264.44,51.28Zm1.63-5a9.76,9.76,0,0,0,4.12-.85,8.24,8.24,0,0,0,3-2.39,8.73,8.73,0,0,0,1.67-3.7V34a8.36,8.36,0,0,0-1.83-3.44,9.2,9.2,0,0,0-3.14-2.29,9.91,9.91,0,0,0-4.06-.82,8.73,8.73,0,0,0-4.44,1.18,8.84,8.84,0,0,0-3.24,3.27A9.61,9.61,0,0,0,257,36.83a9.38,9.38,0,0,0,1.24,4.77,9.16,9.16,0,0,0,3.34,3.4A8.66,8.66,0,0,0,266.07,46.25Z" fill="#fff"/><path d="M300.48,50.83l-13-27.28h6.87l10.92,24.2Zm-6.67,12.82,17.85-40.1h5.63l-17.47,40.1Z" fill="#fff"/><path d="M335.74,51.28a16.12,16.12,0,0,1-8-1.86,12.94,12.94,0,0,1-5.14-5.1,15.05,15.05,0,0,1-1.8-7.43,13.52,13.52,0,0,1,2-7.26,15.22,15.22,0,0,1,5.43-5.23,14.91,14.91,0,0,1,7.59-2,12.85,12.85,0,0,1,8.89,3.14,15.81,15.81,0,0,1,4.78,8.63l-22.31,7.85-1.44-3.6,18.32-6.67-1.31.85a9.05,9.05,0,0,0-2.62-3.76,7,7,0,0,0-4.77-1.6A8.28,8.28,0,0,0,331,28.49a8.42,8.42,0,0,0-3.07,3.3A10.83,10.83,0,0,0,328,41.5a8.74,8.74,0,0,0,3.24,3.34,9,9,0,0,0,4.68,1.21,9.45,9.45,0,0,0,3.43-.65,14.43,14.43,0,0,0,3.11-1.7l2.81,4.51a18.43,18.43,0,0,1-4.54,2.22A15.33,15.33,0,0,1,335.74,51.28Z" fill="#fff"/><path d="M368.18,51.28a13.13,13.13,0,0,1-6.77-1.79,12.76,12.76,0,0,1-4.81-5.11,15.87,15.87,0,0,1-1.76-7.62A15.14,15.14,0,0,1,356.7,29a12.58,12.58,0,0,1,5.07-4.9,15,15,0,0,1,7.2-1.7,14.09,14.09,0,0,1,6.11,1.37,11.08,11.08,0,0,1,4.55,3.79l-.26,2.16V0h6V50.63H379.3V43.89l.65,1.7a14.81,14.81,0,0,1-4.9,4.09A14.39,14.39,0,0,1,368.18,51.28Zm1.9-5.16a10.06,10.06,0,0,0,4.31-.89,8.39,8.39,0,0,0,3.14-2.45,9.56,9.56,0,0,0,1.77-3.73V34a8.15,8.15,0,0,0-1.86-3.43,10.2,10.2,0,0,0-3.21-2.36,9.56,9.56,0,0,0-4.15-.88,8.78,8.78,0,0,0-4.55,1.21A9.18,9.18,0,0,0,361,36.63a9.35,9.35,0,0,0,1.25,4.81,9.6,9.6,0,0,0,3.33,3.4A8.55,8.55,0,0,0,370.08,46.12Z" fill="#fff"/><path d="M23.92,103.53a14.44,14.44,0,0,1-1.84.87,19.6,19.6,0,0,1-2.24.74c-.79.2-1.6.36-2.4.48a17.12,17.12,0,0,1-2.3.16,16.16,16.16,0,0,1-6.23-1.15,13.87,13.87,0,0,1-4.79-3.19,14.23,14.23,0,0,1-3-4.75A15.74,15.74,0,0,1,0,90.86,15.34,15.34,0,0,1,4.45,80a15.05,15.05,0,0,1,10.64-4.37,15.06,15.06,0,0,1,4.23.59A15.62,15.62,0,0,1,23,77.77L22.41,79A12.34,12.34,0,0,0,20.22,78a15.84,15.84,0,0,0-2.47-.69A13.09,13.09,0,0,0,15.18,77a13.56,13.56,0,0,0-9.77,4,13.82,13.82,0,0,0-3.95,9.78,14.29,14.29,0,0,0,1,5.34,13.13,13.13,0,0,0,2.73,4.3,12.64,12.64,0,0,0,4.29,2.91,14.37,14.37,0,0,0,5.6,1,17.52,17.52,0,0,0,3.89-.46,13.06,13.06,0,0,0,3.56-1.29v-9H15.6V92.36h8.32Z" fill="#fff"/><path d="M38.63,105.45,51,74.63h.13l12.33,30.82H61.88L50.63,76.93l1-.46-11.54,29ZM44.2,93.7H58L58.29,95H43.9Z" fill="#fff"/><path d="M79.07,105.45V75.34h0L93.37,95.58l-.63,0L107,75.34h0v30.11h-1.38V78.73l.12.67L93,97.25H93L80.24,79.4l.25-.63v26.68Z" fill="#fff"/><path d="M125.06,75.93H143v1.38H126.48V89.89h14.85v1.34H126.48v12.84h17.06v1.38H125.06Z" fill="#fff"/><path d="M174.23,78.65a19.15,19.15,0,0,0-3.09-1.11,14.11,14.11,0,0,0-3.81-.52,7.42,7.42,0,0,0-4.93,1.54,4.88,4.88,0,0,0-1.84,3.89,4.23,4.23,0,0,0,1,2.91,8.59,8.59,0,0,0,2.7,1.94c1.12.53,2.3,1,3.55,1.55,1,.36,2,.77,2.95,1.21a13.49,13.49,0,0,1,2.64,1.61,7,7,0,0,1,1.9,2.36A7.78,7.78,0,0,1,176,97.5a8,8,0,0,1-1.17,4.37,7.78,7.78,0,0,1-3.22,2.89,10.39,10.39,0,0,1-4.68,1,13.58,13.58,0,0,1-4.14-.58,16.57,16.57,0,0,1-3.12-1.3c-.85-.47-1.5-.85-1.94-1.13l.67-1.21a16.8,16.8,0,0,0,2.23,1.34,18.38,18.38,0,0,0,2.91,1.15,11,11,0,0,0,3.18.48,9.43,9.43,0,0,0,3.72-.77,7.17,7.17,0,0,0,2.95-2.32,6.41,6.41,0,0,0,1.15-3.89,5.89,5.89,0,0,0-1.11-3.75,8.25,8.25,0,0,0-2.84-2.25A38,38,0,0,0,167,90c-1-.36-1.89-.75-2.83-1.15a14.86,14.86,0,0,1-2.55-1.42,6.23,6.23,0,0,1-1.81-2,5.5,5.5,0,0,1-.67-2.8A6.1,6.1,0,0,1,160.16,79a7.16,7.16,0,0,1,2.89-2.38,10,10,0,0,1,4.12-.9,17.67,17.67,0,0,1,4,.5,16.43,16.43,0,0,1,3.68,1.3Z" fill="#fff"/></svg>