<?xml version="1.0" encoding="UTF-8"?>
<svg id="Calque_2" data-name="Calque 2" xmlns="http://www.w3.org/2000/svg" viewBox="0 0 368.17 79.89">
  <g id="svg19">
    <g>
      <g>
        <path d="m117.57,35.59c-.57.38-1.26.74-2.08,1.07-.81.33-1.68.63-2.6.88-.92.26-1.87.45-2.84.6-.97.14-1.89.21-2.74.21-2.67,0-5.08-.44-7.23-1.31-2.15-.87-3.98-2.08-5.51-3.63-1.53-1.54-2.7-3.34-3.51-5.39-.81-2.05-1.22-4.27-1.22-6.66,0-2.58.45-4.95,1.36-7.11.91-2.16,2.15-4.03,3.75-5.61,1.59-1.57,3.44-2.79,5.54-3.65,2.1-.86,4.33-1.29,6.68-1.29,1.78,0,3.46.22,5.03.67,1.57.45,3,1.05,4.27,1.81l-.86,2.1c-.73-.45-1.56-.83-2.48-1.17-.92-.33-1.87-.6-2.84-.79-.97-.19-1.93-.29-2.89-.29-2.16,0-4.17.38-6.01,1.15-1.85.76-3.45,1.83-4.82,3.2s-2.43,2.98-3.2,4.82c-.76,1.85-1.15,3.85-1.15,6.01s.36,4.05,1.07,5.85c.72,1.8,1.73,3.37,3.05,4.72,1.32,1.35,2.9,2.4,4.75,3.15,1.84.75,3.9,1.12,6.16,1.12,1.34,0,2.74-.16,4.2-.48,1.46-.32,2.72-.78,3.77-1.38v-9.4h-7.63v-2.24h9.97v13.03Z" style="fill: #fff; stroke-width: 0px;"/>
        <path d="m134.32,38.35c-1.94,0-3.66-.43-5.15-1.29-1.5-.86-2.67-2.03-3.51-3.51-.84-1.48-1.26-3.14-1.26-4.99s.45-3.47,1.34-4.96c.89-1.5,2.09-2.69,3.6-3.58,1.51-.89,3.19-1.34,5.03-1.34,2.23,0,4.1.65,5.61,1.96,1.51,1.3,2.6,3.01,3.27,5.11l-16.32,6.3-.67-1.62,14.94-5.82-.48.67c-.54-1.27-1.36-2.37-2.46-3.29-1.1-.92-2.44-1.38-4.03-1.38-1.43,0-2.72.35-3.87,1.05-1.15.7-2.06,1.64-2.74,2.82-.68,1.18-1.03,2.51-1.03,4.01,0,1.4.33,2.7.98,3.91.65,1.21,1.57,2.18,2.74,2.91,1.18.73,2.53,1.1,4.06,1.1,1.02,0,2-.19,2.94-.57.94-.38,1.77-.87,2.5-1.48l1.15,1.62c-.89.7-1.92,1.27-3.08,1.72-1.16.44-2.35.67-3.55.67Z" style="fill: #fff; stroke-width: 0px;"/>
        <path d="m153.84,38.35c-1.08,0-2.21-.2-3.39-.6-1.18-.4-2.13-1.04-2.86-1.93l1.05-1.48c.64.67,1.39,1.2,2.27,1.6.87.4,1.8.6,2.79.6.73,0,1.42-.1,2.08-.31.65-.21,1.18-.56,1.6-1.07.41-.51.62-1.19.62-2.05s-.25-1.57-.74-2.05c-.49-.48-1.11-.87-1.86-1.17-.75-.3-1.54-.58-2.36-.83-1.37-.45-2.49-1.05-3.36-1.81-.88-.76-1.31-1.84-1.31-3.24,0-1.02.25-1.91.74-2.67.49-.76,1.17-1.36,2.03-1.79.86-.43,1.83-.64,2.91-.64.99,0,1.96.16,2.93.48.97.32,1.85.86,2.65,1.62l-1,1.57c-.51-.7-1.19-1.18-2.03-1.43-.84-.25-1.58-.4-2.22-.43-.54,0-1.11.11-1.69.33-.59.22-1.08.55-1.48.98-.4.43-.6.99-.6,1.69s.21,1.33.62,1.79c.41.46.95.83,1.6,1.12.65.29,1.33.56,2.03.81.92.29,1.79.63,2.6,1.03.81.4,1.48.92,2,1.57.52.65.79,1.52.79,2.6s-.24,2.06-.72,2.94c-.48.88-1.19,1.56-2.12,2.05-.94.49-2.12.74-3.56.74Z" style="fill: #fff; stroke-width: 0px;"/>
        <path d="m168.87,11.11h2.29v8.45h5.77v1.81h-5.77v16.61h-2.29v-16.61h-3.96v-1.81h3.96v-8.45Z" style="fill: #fff; stroke-width: 0px;"/>
        <path d="m182.04,12.44c0-.44.17-.82.53-1.12.35-.3.73-.45,1.15-.45.44,0,.83.15,1.14.45.32.3.48.68.48,1.12,0,.48-.16.87-.48,1.17-.32.3-.7.45-1.14.45-.41,0-.8-.16-1.15-.48-.35-.32-.53-.7-.53-1.15Zm.48,6.87h2.24v18.66h-2.24v-18.66Z" style="fill: #fff; stroke-width: 0px;"/>
        <path d="m191.44,28.52c0-1.81.44-3.47,1.31-4.96.87-1.5,2.07-2.68,3.58-3.56,1.51-.87,3.2-1.31,5.08-1.31s3.61.44,5.11,1.31c1.5.88,2.67,2.06,3.53,3.56.86,1.5,1.29,3.15,1.29,4.96s-.43,3.47-1.29,4.96c-.86,1.5-2.04,2.68-3.55,3.55-1.51.88-3.21,1.31-5.08,1.31s-3.61-.42-5.11-1.26c-1.5-.84-2.68-2-3.55-3.48-.88-1.48-1.31-3.17-1.31-5.08Zm2.24.05c0,1.46.34,2.79,1.03,3.98.68,1.19,1.61,2.14,2.77,2.84,1.16.7,2.46,1.05,3.89,1.05s2.73-.35,3.89-1.05c1.16-.7,2.08-1.65,2.77-2.84.68-1.19,1.03-2.52,1.03-3.98s-.34-2.79-1.03-3.98c-.68-1.19-1.61-2.15-2.77-2.86s-2.46-1.07-3.89-1.07-2.78.37-3.94,1.12c-1.16.75-2.08,1.73-2.74,2.93-.67,1.21-1,2.5-1,3.87Z" style="fill: #fff; stroke-width: 0px;"/>
        <path d="m219.97,19.31l.24,5.87-.29-1.15c.54-1.62,1.57-2.9,3.08-3.84,1.51-.94,3.19-1.41,5.03-1.41,1.75,0,3.17.52,4.25,1.55,1.08,1.03,1.64,2.38,1.67,4.03v13.6h-2.29v-12.98c-.03-1.21-.41-2.21-1.15-3.01-.73-.79-1.8-1.21-3.2-1.24-1.24,0-2.4.3-3.48.91-1.08.6-1.95,1.45-2.6,2.53-.65,1.08-.98,2.34-.98,3.77v10.02h-2.24v-18.66h1.96Z" style="fill: #fff; stroke-width: 0px;"/>
        <path d="m265.21,38.35c-1.94,0-3.66-.43-5.15-1.29-1.5-.86-2.67-2.03-3.51-3.51-.84-1.48-1.26-3.14-1.26-4.99s.45-3.47,1.34-4.96c.89-1.5,2.09-2.69,3.6-3.58,1.51-.89,3.19-1.34,5.03-1.34,2.23,0,4.1.65,5.61,1.96,1.51,1.3,2.6,3.01,3.27,5.11l-16.32,6.3-.67-1.62,14.94-5.82-.48.67c-.54-1.27-1.36-2.37-2.46-3.29-1.1-.92-2.44-1.38-4.03-1.38-1.43,0-2.72.35-3.87,1.05-1.15.7-2.06,1.64-2.74,2.82-.68,1.18-1.03,2.51-1.03,4.01,0,1.4.33,2.7.98,3.91.65,1.21,1.57,2.18,2.74,2.91,1.18.73,2.53,1.1,4.06,1.1,1.02,0,2-.19,2.93-.57.94-.38,1.77-.87,2.5-1.48l1.15,1.62c-.89.7-1.92,1.27-3.08,1.72-1.16.44-2.35.67-3.55.67Z" style="fill: #fff; stroke-width: 0px;"/>
        <path d="m282.2,11.11h2.29v8.45h5.77v1.81h-5.77v16.61h-2.29v-16.61h-3.96v-1.81h3.96v-8.45Z" style="fill: #fff; stroke-width: 0px;"/>
      </g>
      <g>
        <path d="m107.17,71.22c-.28.23-.79.54-1.53.93-.74.39-1.66.73-2.73,1.03-1.08.3-2.27.44-3.57.41-1.99-.05-3.77-.41-5.34-1.08-1.57-.68-2.9-1.6-3.99-2.77-1.09-1.17-1.92-2.51-2.49-4.02-.57-1.51-.86-3.13-.86-4.85,0-1.92.29-3.69.88-5.29.58-1.6,1.42-2.99,2.51-4.16,1.09-1.17,2.39-2.07,3.9-2.72,1.51-.64,3.18-.96,5.02-.96,1.7,0,3.2.23,4.5.69,1.31.46,2.37.95,3.2,1.48l-1.96,4.71c-.57-.44-1.33-.89-2.29-1.36-.95-.47-2.04-.71-3.28-.71-.96,0-1.88.2-2.77.6-.88.4-1.66.97-2.34,1.7s-1.21,1.59-1.6,2.56-.58,2.03-.58,3.18c0,1.21.18,2.33.53,3.33.35,1.01.86,1.87,1.53,2.59s1.46,1.28,2.39,1.67,1.98.58,3.14.58c1.35,0,2.51-.22,3.47-.65.96-.44,1.7-.89,2.2-1.38l2.06,4.47Z" style="fill: #fff; stroke-width: 0px;"/>
        <path d="m110.61,60.7c0-1.74.33-3.39,1-4.95.66-1.56,1.59-2.94,2.77-4.14,1.18-1.2,2.55-2.15,4.11-2.84,1.56-.69,3.23-1.03,5.02-1.03s3.42.34,4.98,1.03c1.56.69,2.94,1.63,4.14,2.84,1.2,1.2,2.14,2.58,2.82,4.14.68,1.56,1.01,3.21,1.01,4.95s-.34,3.46-1.01,5.02c-.68,1.56-1.62,2.93-2.82,4.11-1.2,1.18-2.58,2.1-4.14,2.77-1.56.67-3.22,1-4.98,1s-3.46-.33-5.02-1c-1.56-.66-2.93-1.59-4.11-2.77-1.18-1.18-2.1-2.55-2.77-4.11-.67-1.56-1-3.23-1-5.02Zm5.16,0c0,1.12.2,2.17.6,3.14.4.97.96,1.83,1.68,2.58s1.56,1.32,2.51,1.74,1.99.62,3.11.62,2.08-.21,3.01-.62c.93-.41,1.74-.99,2.42-1.74.69-.74,1.23-1.6,1.62-2.58.39-.97.58-2.02.58-3.14s-.2-2.21-.6-3.2c-.4-.99-.95-1.85-1.65-2.59-.7-.74-1.52-1.32-2.46-1.74-.94-.41-1.96-.62-3.06-.62s-2.12.21-3.06.62c-.94.41-1.76.99-2.47,1.74-.71.75-1.26,1.61-1.65,2.59-.39.99-.58,2.05-.58,3.2Z" style="fill: #fff; stroke-width: 0px;"/>
        <path d="m164.09,74.34l-19.18-17.32,1.48.83.1,15.47h-5.05v-26.29h.21l18.77,17.25-1.1-.48-.1-15.77h5.02v26.33h-.14Z" style="fill: #fff; stroke-width: 0px;"/>
        <path d="m184.26,54.14c-.96-.53-1.94-.96-2.94-1.31-1-.34-1.93-.52-2.8-.52-1.08,0-1.92.22-2.54.65-.62.44-.93,1.09-.93,1.96,0,.6.23,1.13.71,1.6.47.47,1.08.89,1.82,1.25.74.37,1.52.7,2.32,1,.73.28,1.46.6,2.18.98.72.38,1.37.85,1.94,1.41.57.56,1.03,1.26,1.38,2.1.34.84.52,1.86.52,3.08,0,1.28-.33,2.47-1,3.57s-1.64,1.99-2.92,2.66c-1.29.68-2.87,1.01-4.74,1.01-.96,0-1.94-.1-2.94-.29-1-.19-1.98-.49-2.94-.89-.96-.4-1.89-.91-2.78-1.53l2.2-3.88c.6.44,1.24.82,1.94,1.15.7.33,1.4.59,2.11.77.71.18,1.36.28,1.96.28s1.2-.09,1.8-.26,1.11-.46,1.51-.88c.4-.41.6-.98.6-1.72,0-.5-.17-.96-.5-1.38s-.78-.79-1.34-1.13c-.56-.34-1.17-.64-1.84-.89-.78-.3-1.58-.64-2.41-1.03s-1.6-.87-2.32-1.43c-.72-.56-1.31-1.26-1.75-2.1-.45-.84-.67-1.86-.67-3.08,0-1.47.33-2.74.98-3.82.65-1.08,1.58-1.93,2.77-2.56,1.19-.63,2.56-.98,4.12-1.05,2.04,0,3.7.24,4.97.72,1.27.48,2.41,1.05,3.42,1.72l-1.89,3.81Z" style="fill: #fff; stroke-width: 0px;"/>
        <path d="m189.07,48.02h17.05v4.81h-6.15v20.48h-4.98v-20.48h-5.91v-4.81Z" style="fill: #fff; stroke-width: 0px;"/>
        <path d="m218.6,48.02c1.58,0,2.99.2,4.23.6s2.27.97,3.11,1.72c.84.75,1.47,1.64,1.91,2.68.43,1.04.65,2.22.65,3.52,0,1.03-.15,2.06-.46,3.09s-.81,1.97-1.51,2.82c-.7.85-1.62,1.53-2.77,2.04-1.15.52-2.57.77-4.26.77h-3.58v8.04h-4.98v-25.3h7.67Zm.86,12.44c.76,0,1.39-.13,1.89-.38.5-.25.9-.57,1.19-.96s.49-.8.62-1.22c.12-.42.19-.82.19-1.19,0-.27-.04-.62-.12-1.05s-.25-.85-.5-1.29c-.25-.43-.64-.8-1.15-1.1s-1.21-.45-2.08-.45h-3.58v7.63h3.54Zm4.67,3.09l6.25,9.76h-5.81l-6.39-9.62,5.95-.14Z" style="fill: #fff; stroke-width: 0px;"/>
        <path d="m238.98,63.96c0,.8.24,1.57.72,2.3.48.73,1.12,1.33,1.91,1.79.79.46,1.66.69,2.59.69,1.03,0,1.95-.23,2.75-.69.8-.46,1.44-1.05,1.91-1.79.47-.73.7-1.5.7-2.3v-15.95h4.92v16.05c0,1.86-.46,3.5-1.38,4.93-.92,1.43-2.15,2.56-3.71,3.37-1.56.81-3.29,1.22-5.19,1.22s-3.59-.41-5.14-1.22c-1.55-.81-2.78-1.94-3.7-3.37-.92-1.43-1.38-3.08-1.38-4.93v-16.05h4.98v15.95Z" style="fill: #fff; stroke-width: 0px;"/>
        <path d="m279.46,71.22c-.27.23-.79.54-1.53.93-.75.39-1.66.73-2.73,1.03-1.08.3-2.27.44-3.57.41-1.99-.05-3.78-.41-5.34-1.08-1.57-.68-2.9-1.6-3.99-2.77-1.09-1.17-1.92-2.51-2.49-4.02-.57-1.51-.86-3.13-.86-4.85,0-1.92.29-3.69.88-5.29.58-1.6,1.42-2.99,2.51-4.16,1.09-1.17,2.39-2.07,3.9-2.72,1.51-.64,3.18-.96,5.02-.96,1.7,0,3.2.23,4.5.69,1.31.46,2.37.95,3.2,1.48l-1.96,4.71c-.57-.44-1.33-.89-2.29-1.36-.95-.47-2.04-.71-3.28-.71-.96,0-1.88.2-2.77.6-.88.4-1.66.97-2.34,1.7-.68.73-1.21,1.59-1.6,2.56s-.58,2.03-.58,3.18c0,1.21.18,2.33.53,3.33.36,1.01.87,1.87,1.53,2.59.66.72,1.46,1.28,2.39,1.67.93.39,1.98.58,3.14.58,1.35,0,2.51-.22,3.47-.65.96-.44,1.7-.89,2.2-1.38l2.06,4.47Z" style="fill: #fff; stroke-width: 0px;"/>
        <path d="m282.73,48.02h17.05v4.81h-6.15v20.48h-4.98v-20.48h-5.91v-4.81Z" style="fill: #fff; stroke-width: 0px;"/>
        <path d="m304.58,48.02h4.98v25.3h-4.98v-25.3Z" style="fill: #fff; stroke-width: 0px;"/>
        <path d="m314.55,60.7c0-1.74.33-3.39,1-4.95.67-1.56,1.59-2.94,2.77-4.14,1.18-1.2,2.55-2.15,4.11-2.84,1.56-.69,3.23-1.03,5.02-1.03s3.43.34,4.98,1.03c1.56.69,2.94,1.63,4.14,2.84,1.2,1.2,2.14,2.58,2.82,4.14.68,1.56,1.01,3.21,1.01,4.95s-.34,3.46-1.01,5.02c-.68,1.56-1.62,2.93-2.82,4.11-1.2,1.18-2.58,2.1-4.14,2.77-1.56.67-3.22,1-4.98,1s-3.46-.33-5.02-1c-1.56-.66-2.93-1.59-4.11-2.77s-2.1-2.55-2.77-4.11c-.66-1.56-1-3.23-1-5.02Zm5.16,0c0,1.12.2,2.17.6,3.14.4.97.96,1.83,1.68,2.58s1.56,1.32,2.51,1.74,1.99.62,3.11.62,2.08-.21,3.01-.62c.93-.41,1.74-.99,2.42-1.74s1.23-1.6,1.62-2.58c.39-.97.58-2.02.58-3.14s-.2-2.21-.6-3.2c-.4-.99-.95-1.85-1.65-2.59-.7-.74-1.52-1.32-2.46-1.74-.94-.41-1.96-.62-3.06-.62s-2.12.21-3.06.62c-.94.41-1.76.99-2.47,1.74-.71.75-1.26,1.61-1.65,2.59s-.58,2.05-.58,3.2Z" style="fill: #fff; stroke-width: 0px;"/>
        <path d="m368.03,74.34l-19.18-17.32,1.48.83.1,15.47h-5.05v-26.29h.21l18.76,17.25-1.1-.48-.1-15.77h5.02v26.33h-.14Z" style="fill: #fff; stroke-width: 0px;"/>
      </g>
      <path id="path1" d="m.82,79.6c-.29-.14-.6-.43-.7-.64-.1-.21-.15-17.85-.11-39.2C.07,1.68.08.95.54.48,1,0,1.32,0,26,0s25.02.01,25.51.46c.48.44.5.68.5,5.45v4.99h-.66c-1.11,0-2.95.79-4.03,1.74-1.52,1.34-2.35,3.21-2.37,5.31-.01,2.04.13,2.41,2.67,6.8,1.09,1.89,1.99,3.5,1.99,3.58s-2.35,2.52-5.23,5.43c-5.69,5.75-6.91,7.29-8.56,10.76-1.52,3.21-2.27,6.28-2.43,9.97l-.13,2.99-7.11-.07c-6.92-.06-7.13-.05-7.75.44l-.64.5v21.52l-8.2-.02c-5.25-.01-8.39-.11-8.73-.27Zm14.01-32.59l.07-3.53h-6.72v3.45c0,2.54.08,3.49.3,3.58.16.07,1.65.1,3.29.08l2.99-.04.07-3.53Zm14.37,0l.07-3.53h-6.72v7.2l3.29-.07,3.29-.07.07-3.53Zm-14.32-17.19v-3.59h-6.71v7.19h6.71v-3.59Zm14.37,0v-3.59h-6.71v7.19h6.71v-3.59Zm14.37,0v-3.59h-6.71v7.19h6.71v-3.59ZM14.83,12.76l.07-3.53h-6.72v7.2l3.29-.07,3.29-.07.07-3.53Zm14.37,0l.07-3.53h-6.72v7.2l3.29-.07,3.29-.07.07-3.53Zm14.43.06v-3.59h-6.71v7.19h6.71v-3.59Zm-22.52,57.49v-9.58h9.82v19.16h-9.82v-9.58Zm13.19,1.14c.02-8.4.02-8.44.45-7.24,2.22,6.22,6.92,11.56,12.77,14.49,1.08.54,2.01,1.03,2.07,1.09.06.06-3.36.11-7.6.11h-7.71l.02-8.44Zm22.38,6.53c-3.64-.41-6.94-1.63-10.07-3.71-2.17-1.45-4.96-4.24-6.27-6.29-4.74-7.42-4.84-16.79-.26-24.28.96-1.57,2.35-3.14,6.38-7.22l5.15-5.21h15.13l2.09,2.1,2.09,2.1-3.15,5.46-3.15,5.46-.98-.96c-.54-.53-1.39-1.13-1.88-1.33-.85-.35-.9-.43-.9-1.46,0-.83-.14-1.22-.59-1.67-.72-.72-1.31-.74-2.13-.09-.53.41-.63.69-.63,1.65,0,1.07-.05,1.17-.78,1.47-.95.39-2.73,2-3.19,2.87-.54,1.05-.86,2.85-.69,3.96.37,2.49,2.75,4.94,5.08,5.23.62.08,1.53.25,2.01.38,3.22.86,2.58,5.74-.76,5.74-1.57,0-2.66-1.01-2.98-2.75-.23-1.26-.74-1.8-1.71-1.8-1.19,0-1.86.97-1.65,2.39.32,2.18,2.03,4.41,3.89,5.09.73.26.78.36.78,1.39,0,.85.13,1.23.55,1.63,1.24,1.17,2.8.24,2.8-1.66,0-1.01.05-1.09.83-1.38,1.07-.39,2.89-2.2,3.27-3.27.17-.46.38-.83.47-.83s1.8,2.83,3.79,6.28c4.09,7.09,3.93,6.24,1.45,7.7-4.09,2.41-9.38,3.55-14.01,3.03h0Zm8.52-20.77c-.49-1.65-2.37-3.51-4.07-4-.72-.21-1.61-.38-1.99-.38-1.64,0-2.82-1.24-2.82-2.97,0-1.96,1.89-3.38,3.71-2.78,1.01.33,2.04,1.5,2.04,2.31,0,1.54,1.25,2.54,2.49,1.97.98-.45,1.19-2.01.54-3.97-.15-.44.38-.2,2.99,1.32l3.17,1.85v2.28s0,2.28,0,2.28l-2.74,1.61c-1.51.89-2.79,1.61-2.86,1.62-.07,0-.28-.5-.46-1.12h0Zm-15.1-34.98c-1.46-2.57-1.73-3.21-1.73-4.15,0-2.32,1.41-3.71,3.79-3.71,1.22,0,1.6.11,2.32.66l.86.66.27-.82c.35-1.06,1.67-2.22,2.75-2.42,1.9-.36,3.88.72,4.44,2.43l.27.83.71-.59c1.8-1.52,4.83-.92,5.81,1.16.77,1.63.55,2.62-1.33,5.96l-1.72,3.05h-14.71l-1.73-3.04Z" style="fill: #fff; stroke-width: 0px;"/>
    </g>
  </g>
</svg>