<?xml version="1.0" encoding="UTF-8"?>
<svg id="Calque_2" data-name="Calque 2" xmlns="http://www.w3.org/2000/svg" viewBox="0 0 372.28 81">
  <g id="svg19">
    <g>
      <g>
        <path d="m113.93,32.51c0,2.51-.46,4.66-1.38,6.44-.92,1.78-2.16,3.14-3.7,4.08-1.54.94-3.29,1.44-5.23,1.5v-2.24c2.29-.13,4.19-1.03,5.7-2.72,1.51-1.69,2.27-4.09,2.27-7.21V3.74h2.34v28.77Z" style="fill: #fff; stroke-width: 0px;"/>
        <path d="m131.68,38c-1.94,0-3.66-.43-5.15-1.29-1.5-.86-2.67-2.03-3.51-3.51-.84-1.48-1.26-3.14-1.26-4.99s.45-3.47,1.34-4.96c.89-1.5,2.09-2.69,3.6-3.58,1.51-.89,3.19-1.34,5.03-1.34,2.23,0,4.1.65,5.61,1.96,1.51,1.3,2.6,3.01,3.27,5.11l-16.32,6.3-.67-1.62,14.94-5.82-.48.67c-.54-1.27-1.36-2.37-2.46-3.29-1.1-.92-2.44-1.38-4.03-1.38-1.43,0-2.72.35-3.87,1.05-1.15.7-2.06,1.64-2.74,2.82-.68,1.18-1.03,2.51-1.03,4.01,0,1.4.33,2.7.98,3.91.65,1.21,1.57,2.18,2.74,2.91,1.18.73,2.53,1.1,4.06,1.1,1.02,0,2-.19,2.94-.57.94-.38,1.77-.88,2.5-1.48l1.15,1.62c-.89.7-1.92,1.27-3.08,1.72-1.16.44-2.35.67-3.55.67Z" style="fill: #fff; stroke-width: 0px;"/>
        <path d="m152.68,38.14c-1.75,0-3.15-.52-4.2-1.55s-1.61-2.38-1.67-4.03v-13.6h2.24v12.93c.06,1.21.45,2.21,1.17,3.01.72.8,1.79,1.23,3.22,1.29,1.21,0,2.34-.32,3.39-.95s1.9-1.5,2.55-2.6c.65-1.1.98-2.35.98-3.75v-9.93h2.24v18.66h-2l-.24-5.87.33,1.29c-.32.95-.88,1.82-1.69,2.6-.81.78-1.77,1.39-2.86,1.84s-2.25.67-3.46.67Z" style="fill: #fff; stroke-width: 0px;"/>
        <path d="m184.84,37.62h-2.67l-13.98-18.66h2.82l13.84,18.66Zm-8.3-8.02l-5.73,8.02h-2.39l6.87-9.5,1.24,1.48Zm.05-2.58l5.54-8.06h2.34l-6.92,9.73-.95-1.67Z" style="fill: #fff; stroke-width: 0px;"/>
        <path d="m212.71,38c-1.75,0-3.34-.42-4.77-1.26s-2.57-2.01-3.41-3.51c-.84-1.5-1.26-3.18-1.26-5.06,0-2,.43-3.74,1.29-5.2.86-1.46,2.03-2.59,3.51-3.39,1.48-.79,3.11-1.19,4.89-1.19s3.47.46,5.08,1.38c1.61.92,2.77,2.13,3.51,3.63l-.38,1.05V1.35h2.24v36.27h-2.29v-5.73l.48,1.05c-.8,1.5-1.99,2.71-3.58,3.65-1.59.94-3.36,1.41-5.3,1.41Zm.57-1.96c1.43,0,2.72-.31,3.87-.93,1.14-.62,2.07-1.46,2.77-2.53.7-1.07,1.1-2.27,1.19-3.6v-2.39c-.22-1.21-.72-2.29-1.48-3.25-.76-.95-1.69-1.71-2.77-2.27-1.08-.56-2.27-.83-3.58-.83-1.43,0-2.74.33-3.91,1-1.18.67-2.12,1.59-2.82,2.77-.7,1.18-1.05,2.55-1.05,4.1,0,1.46.35,2.79,1.05,3.98.7,1.19,1.65,2.15,2.84,2.86,1.19.72,2.49,1.07,3.89,1.07Z" style="fill: #fff; stroke-width: 0px;"/>
        <path d="m240,38c-1.94,0-3.66-.43-5.15-1.29-1.5-.86-2.67-2.03-3.51-3.51-.84-1.48-1.26-3.14-1.26-4.99s.45-3.47,1.34-4.96,2.09-2.69,3.6-3.58c1.51-.89,3.19-1.34,5.03-1.34,2.23,0,4.1.65,5.61,1.96,1.51,1.3,2.6,3.01,3.27,5.11l-16.32,6.3-.67-1.62,14.94-5.82-.48.67c-.54-1.27-1.36-2.37-2.46-3.29-1.1-.92-2.44-1.38-4.03-1.38-1.43,0-2.72.35-3.87,1.05-1.15.7-2.06,1.64-2.74,2.82-.68,1.18-1.03,2.51-1.03,4.01,0,1.4.33,2.7.98,3.91.65,1.21,1.57,2.18,2.74,2.91,1.18.73,2.53,1.1,4.06,1.1,1.02,0,2-.19,2.93-.57.94-.38,1.77-.88,2.5-1.48l1.15,1.62c-.89.7-1.92,1.27-3.08,1.72-1.16.44-2.35.67-3.55.67Z" style="fill: #fff; stroke-width: 0px;"/>
      </g>
      <g>
        <path d="m123.35,55.99c-1.17-.64-2.37-1.17-3.58-1.59s-2.35-.63-3.41-.63c-1.31,0-2.35.27-3.1.8-.75.53-1.13,1.33-1.13,2.39,0,.73.29,1.38.86,1.95.57.57,1.31,1.08,2.22,1.53.91.45,1.85.85,2.83,1.21.89.33,1.78.73,2.66,1.19.88.46,1.67,1.03,2.37,1.72.7.69,1.26,1.54,1.68,2.56.42,1.02.63,2.27.63,3.75,0,1.56-.41,3.02-1.21,4.36-.81,1.34-2,2.42-3.56,3.25-1.56.82-3.49,1.24-5.78,1.24-1.17,0-2.37-.12-3.58-.36-1.22-.24-2.41-.6-3.58-1.09-1.17-.49-2.3-1.11-3.39-1.86l2.68-4.73c.73.53,1.52,1,2.37,1.4.85.41,1.71.72,2.58.94s1.66.33,2.39.33,1.46-.1,2.2-.31c.74-.21,1.35-.57,1.84-1.07.49-.5.73-1.2.73-2.09,0-.61-.2-1.17-.61-1.68-.41-.5-.95-.96-1.63-1.38-.68-.42-1.43-.78-2.24-1.09-.95-.36-1.93-.78-2.93-1.26s-1.95-1.05-2.83-1.74c-.88-.68-1.59-1.54-2.14-2.56-.54-1.02-.82-2.27-.82-3.75,0-1.79.4-3.34,1.19-4.65s1.92-2.35,3.37-3.12c1.45-.77,3.13-1.19,5.03-1.28,2.49,0,4.5.29,6.05.88,1.55.59,2.94,1.29,4.17,2.09l-2.3,4.65Z" style="fill: #fff; stroke-width: 0px;"/>
        <path d="m131.31,48.53h6.07v30.83h-6.07v-30.83Z" style="fill: #fff; stroke-width: 0px;"/>
        <path d="m145.35,79.36v-32.09h.04l17.13,24.3-2.6-.59,17.09-23.71h.08v32.09h-6.07v-18.39l.38,3.14-10.43,14.83h-.08l-10.72-14.83,1.05-2.89v18.14h-5.86Z" style="fill: #fff; stroke-width: 0px;"/>
        <path d="m190.51,67.97c0,.98.29,1.91.88,2.81s1.36,1.62,2.33,2.18c.96.56,2.02.84,3.16.84,1.26,0,2.37-.28,3.35-.84s1.75-1.29,2.33-2.18.86-1.83.86-2.81v-19.44h5.99v19.56c0,2.26-.56,4.27-1.68,6.01-1.12,1.75-2.62,3.11-4.52,4.11-1.9.99-4.01,1.49-6.33,1.49s-4.38-.5-6.26-1.49c-1.88-.99-3.39-2.36-4.5-4.11-1.12-1.75-1.68-3.75-1.68-6.01v-19.56h6.07v19.44Z" style="fill: #fff; stroke-width: 0px;"/>
        <path d="m216.73,48.53h6.08v24.97h14.49v5.87h-20.57v-30.83Z" style="fill: #fff; stroke-width: 0px;"/>
        <path d="m240.11,79.36l13.91-32.05h.33l13.91,32.05h-7.04l-8.88-22.54,4.4-3.02-10.64,25.55h-5.99Zm9.51-11.14h9.26l2.14,5.11h-13.28l1.89-5.11Z" style="fill: #fff; stroke-width: 0px;"/>
        <path d="m268.13,48.53h20.78v5.87h-7.5v24.97h-6.07v-24.97h-7.21v-5.87Z" style="fill: #fff; stroke-width: 0px;"/>
        <path d="m294.78,48.53h6.08v30.83h-6.08v-30.83Z" style="fill: #fff; stroke-width: 0px;"/>
        <path d="m306.93,63.99c0-2.12.4-4.13,1.21-6.03.81-1.9,1.93-3.58,3.37-5.05,1.44-1.47,3.11-2.62,5.01-3.46,1.9-.84,3.94-1.26,6.12-1.26s4.17.42,6.07,1.26c1.9.84,3.58,1.99,5.05,3.46,1.47,1.47,2.61,3.15,3.44,5.05.82,1.9,1.24,3.91,1.24,6.03s-.41,4.22-1.24,6.12c-.82,1.9-1.97,3.57-3.44,5.01-1.47,1.44-3.15,2.56-5.05,3.37-1.9.81-3.92,1.21-6.07,1.21s-4.22-.4-6.12-1.21c-1.9-.81-3.57-1.93-5.01-3.37s-2.56-3.11-3.37-5.01c-.81-1.9-1.21-3.94-1.21-6.12Zm6.28,0c0,1.37.24,2.65.73,3.83.49,1.19,1.17,2.23,2.05,3.14.88.91,1.9,1.61,3.06,2.12,1.16.5,2.42.75,3.79.75s2.54-.25,3.67-.75,2.12-1.21,2.95-2.12c.84-.91,1.49-1.96,1.97-3.14.47-1.19.71-2.46.71-3.83s-.25-2.69-.73-3.9c-.49-1.2-1.16-2.25-2.01-3.16-.85-.91-1.85-1.61-3-2.12-1.15-.5-2.39-.75-3.73-.75s-2.58.25-3.73.75c-1.15.5-2.15,1.21-3.02,2.12-.87.91-1.54,1.96-2.01,3.16-.48,1.2-.71,2.5-.71,3.9Z" style="fill: #fff; stroke-width: 0px;"/>
        <path d="m372.11,80.62l-23.38-21.11,1.8,1.01.12,18.85h-6.16v-32.05h.25l22.87,21.03-1.34-.59-.12-19.23h6.12v32.09h-.17Z" style="fill: #fff; stroke-width: 0px;"/>
      </g>
      <path d="m33.66,0v5.26h5.26V0h-5.26Zm8.42,0v5.26h5.26V0h-5.26Zm8.42,0v5.26h5.26V0h-5.26Zm-16.83,8.42v8.07h5.26v-8.07h-5.26Zm8.42,0v8.07h5.26v-8.07h-5.26Zm8.42,0v8.07h5.26v-8.07h-5.26Zm-16.83,11.22v8.07h5.26v-8.07h-5.26Zm8.42,0v8.07h5.26v-8.07h-5.26Zm8.42,0v8.07h5.26v-8.07h-5.26Zm30.51,1.14l-16.48,9.42v3.12h16.48v-12.53Zm-47.34,10.08v8.07h5.26v-8.07h-5.26Zm8.42,0v8.07h5.26v-8.07h-5.26Zm8.42,0v8.07h5.26v-8.07h-5.26Zm14.03,5.61v19.29h16.48v-19.29h-16.48ZM2.45,40.5v4.03h3.16v-4.03h-3.16Zm31.21,1.58v8.07h5.26v-8.07h-5.26Zm8.42,0v8.07h5.26v-8.07h-5.26Zm8.42,0v8.07h5.26v-8.07h-5.26ZM2.2,47.69l-1.23,2.45h25.75l-1.23-2.45H2.2Zm-2.2,5.61v27.7h4.03v-4.03h5.61v4.03h8.42v-4.03h5.61v4.03h4.03v-27.7H0Zm33.66,0v8.07h5.26v-8.07h-5.26Zm8.42,0v8.07h5.26v-8.07h-5.26Zm8.42,0v8.07h5.26v-8.07h-5.26Zm-46.46,4.03h5.61v2.81h-5.61v-2.81Zm14.03,0h5.61v2.81h-5.61v-2.81Zm46.46,1.58v22.09h5.44v-4.03h5.61v4.03h5.44v-22.09h-16.48Zm-60.49,4.03h5.61v2.81h-5.61v-2.81Zm14.03,0h5.61v2.81h-5.61v-2.81Zm15.6,1.58v8.07h5.26v-8.07h-5.26Zm8.42,0v8.07h5.26v-8.07h-5.26Zm8.42,0v8.07h5.26v-8.07h-5.26Zm-46.46,4.03h5.61v2.81h-5.61v-2.81Zm14.03,0h5.61v2.81h-5.61v-2.81Zm15.6,7.19v5.26h5.26v-5.26h-5.26Zm8.42,0v5.26h5.26v-5.26h-5.26Zm8.42,0v5.26h5.26v-5.26h-5.26Z" style="fill: #fff; stroke-width: 0px;"/>
    </g>
  </g>
</svg>