<?xml version="1.0" encoding="UTF-8"?>
<svg id="Calque_2" data-name="Calque 2" xmlns="http://www.w3.org/2000/svg" viewBox="0 0 378.73 78.37">
  <g id="svg19">
    <g>
      <g>
        <path d="m114.73,32.16c0,2.51-.46,4.66-1.38,6.44s-2.16,3.14-3.7,4.08-3.29,1.44-5.22,1.5v-2.24c2.29-.13,4.19-1.03,5.7-2.72,1.51-1.69,2.27-4.09,2.27-7.21V3.39h2.34v28.77Z" style="fill: #fff; stroke-width: 0px;"/>
        <path d="m132.48,37.65c-1.94,0-3.66-.43-5.15-1.29-1.5-.86-2.67-2.03-3.51-3.51-.84-1.48-1.26-3.14-1.26-4.99s.45-3.47,1.34-4.96c.89-1.5,2.09-2.69,3.6-3.58,1.51-.89,3.19-1.34,5.03-1.34,2.23,0,4.1.65,5.61,1.96,1.51,1.3,2.6,3.01,3.27,5.11l-16.32,6.3-.67-1.62,14.94-5.82-.48.67c-.54-1.27-1.36-2.37-2.46-3.29-1.1-.92-2.44-1.38-4.03-1.38-1.43,0-2.72.35-3.87,1.05-1.14.7-2.06,1.64-2.74,2.82-.68,1.18-1.03,2.51-1.03,4.01,0,1.4.33,2.7.98,3.91.65,1.21,1.57,2.18,2.74,2.91,1.18.73,2.53,1.1,4.06,1.1,1.02,0,2-.19,2.93-.57s1.77-.87,2.5-1.48l1.15,1.62c-.89.7-1.92,1.27-3.08,1.72s-2.35.67-3.55.67Z" style="fill: #fff; stroke-width: 0px;"/>
        <path d="m153.48,37.79c-1.75,0-3.15-.52-4.2-1.55-1.05-1.03-1.61-2.38-1.67-4.03v-13.6h2.24v12.93c.06,1.21.45,2.21,1.17,3.01.72.8,1.79,1.22,3.22,1.29,1.21,0,2.34-.32,3.39-.95,1.05-.64,1.9-1.5,2.55-2.6.65-1.1.98-2.35.98-3.75v-9.93h2.24v18.66h-2l-.24-5.87.33,1.29c-.32.96-.88,1.82-1.69,2.6-.81.78-1.77,1.39-2.86,1.84-1.1.44-2.25.67-3.46.67Z" style="fill: #fff; stroke-width: 0px;"/>
        <path d="m185.64,37.27h-2.67l-13.98-18.66h2.82l13.84,18.66Zm-8.3-8.02l-5.73,8.02h-2.39l6.87-9.5,1.24,1.48Zm.05-2.58l5.54-8.06h2.34l-6.92,9.74-.95-1.67Z" style="fill: #fff; stroke-width: 0px;"/>
        <path d="m213.51,37.65c-1.75,0-3.34-.42-4.77-1.26-1.43-.84-2.57-2.01-3.41-3.51-.84-1.5-1.26-3.18-1.26-5.06,0-2,.43-3.74,1.29-5.2.86-1.46,2.03-2.59,3.51-3.39s3.11-1.19,4.89-1.19,3.47.46,5.08,1.38c1.61.92,2.77,2.13,3.51,3.63l-.38,1.05V1h2.24v36.27h-2.29v-5.73l.48,1.05c-.8,1.5-1.99,2.71-3.58,3.65s-3.36,1.41-5.3,1.41Zm.57-1.96c1.43,0,2.72-.31,3.87-.93,1.14-.62,2.07-1.46,2.77-2.53.7-1.07,1.1-2.27,1.19-3.6v-2.39c-.22-1.21-.72-2.29-1.48-3.25-.76-.95-1.69-1.71-2.77-2.27s-2.27-.83-3.58-.83c-1.43,0-2.74.33-3.91,1-1.18.67-2.12,1.59-2.82,2.77-.7,1.18-1.05,2.55-1.05,4.1,0,1.46.35,2.79,1.05,3.98.7,1.19,1.65,2.15,2.84,2.86,1.19.72,2.49,1.07,3.89,1.07Z" style="fill: #fff; stroke-width: 0px;"/>
        <path d="m240.8,37.65c-1.94,0-3.66-.43-5.15-1.29-1.5-.86-2.67-2.03-3.51-3.51-.84-1.48-1.26-3.14-1.26-4.99s.45-3.47,1.34-4.96c.89-1.5,2.09-2.69,3.6-3.58,1.51-.89,3.19-1.34,5.03-1.34,2.23,0,4.1.65,5.61,1.96s2.6,3.01,3.27,5.11l-16.32,6.3-.67-1.62,14.94-5.82-.48.67c-.54-1.27-1.36-2.37-2.46-3.29s-2.44-1.38-4.03-1.38c-1.43,0-2.72.35-3.87,1.05s-2.06,1.64-2.74,2.82c-.68,1.18-1.03,2.51-1.03,4.01,0,1.4.33,2.7.98,3.91.65,1.21,1.57,2.18,2.74,2.91,1.18.73,2.53,1.1,4.06,1.1,1.02,0,2-.19,2.93-.57.94-.38,1.77-.87,2.5-1.48l1.15,1.62c-.89.7-1.92,1.27-3.08,1.72s-2.35.67-3.55.67Z" style="fill: #fff; stroke-width: 0px;"/>
      </g>
      <g>
        <path d="m112.96,47.48c2.46,0,4.55.41,6.25,1.24,1.71.83,3.01,1.99,3.9,3.49.89,1.5,1.34,3.28,1.34,5.34,0,1.22-.18,2.44-.55,3.68-.37,1.23-.95,2.35-1.75,3.35-.8,1-1.87,1.81-3.21,2.42s-2.98.91-4.93.91h-4.22v9.46h-5.89v-29.89h9.06Zm1.02,14.7c.89,0,1.64-.16,2.23-.47.59-.31,1.06-.7,1.4-1.18.34-.47.58-.97.73-1.48.15-.51.22-.96.22-1.34,0-.3-.05-.7-.14-1.2-.1-.5-.29-1.01-.59-1.52-.3-.51-.75-.95-1.36-1.3-.61-.35-1.43-.53-2.46-.53h-4.22v9.02h4.18Z" style="fill: #fff; stroke-width: 0px;"/>
        <path d="m129.73,47.48h5.89v24.21h14.05v5.69h-19.94v-29.89Z" style="fill: #fff; stroke-width: 0px;"/>
        <path d="m152.39,77.37l13.48-31.07h.33l13.48,31.07h-6.82l-8.61-21.85,4.27-2.92-10.32,24.77h-5.81Zm9.22-10.8h8.97l2.07,4.95h-12.88l1.83-4.95Z" style="fill: #fff; stroke-width: 0px;"/>
        <path d="m179.56,47.48h20.14v5.69h-7.27v24.21h-5.89v-24.21h-6.99v-5.69Z" style="fill: #fff; stroke-width: 0px;"/>
        <path d="m205.39,47.48h20.39v5.69h-14.5v6.38h12.83v5.69h-12.83v6.46h15.07v5.69h-20.96v-29.89Z" style="fill: #fff; stroke-width: 0px;"/>
        <path d="m232.44,47.48h18.68v5.69h-12.79v6.78h11.09v5.69h-11.09v11.74h-5.89v-29.89Z" style="fill: #fff; stroke-width: 0px;"/>
        <path d="m254.98,62.47c0-2.06.39-4.01,1.18-5.85.79-1.84,1.88-3.47,3.27-4.89,1.39-1.42,3.01-2.54,4.85-3.35,1.84-.81,3.82-1.22,5.93-1.22s4.05.41,5.89,1.22c1.84.81,3.47,1.93,4.89,3.35s2.53,3.05,3.33,4.89c.8,1.84,1.2,3.79,1.2,5.85s-.4,4.09-1.2,5.93c-.8,1.84-1.91,3.46-3.33,4.85-1.42,1.39-3.05,2.48-4.89,3.27-1.84.79-3.8,1.18-5.89,1.18s-4.09-.39-5.93-1.18c-1.84-.79-3.46-1.88-4.85-3.27s-2.48-3.01-3.27-4.85c-.79-1.84-1.18-3.82-1.18-5.93Zm6.09,0c0,1.33.24,2.57.71,3.72.47,1.15,1.14,2.17,1.99,3.05.85.88,1.84,1.56,2.96,2.05,1.12.49,2.35.73,3.68.73s2.46-.24,3.55-.73,2.05-1.17,2.86-2.05c.81-.88,1.45-1.9,1.91-3.05.46-1.15.69-2.39.69-3.72s-.24-2.61-.71-3.78c-.47-1.16-1.12-2.19-1.95-3.07s-1.79-1.56-2.9-2.05c-1.11-.49-2.32-.73-3.62-.73s-2.5.24-3.61.73c-1.11.49-2.08,1.17-2.92,2.05-.84.88-1.49,1.9-1.95,3.07-.46,1.16-.69,2.42-.69,3.78Z" style="fill: #fff; stroke-width: 0px;"/>
        <path d="m300.47,47.48c1.87,0,3.53.24,5,.71,1.46.47,2.69,1.15,3.68,2.03s1.74,1.94,2.25,3.17c.51,1.23.77,2.62.77,4.16,0,1.22-.18,2.44-.55,3.66s-.96,2.33-1.79,3.33c-.83,1-1.92,1.81-3.27,2.42-1.35.61-3.03.91-5.04.91h-4.22v9.5h-5.89v-29.89h9.06Zm1.02,14.7c.89,0,1.64-.15,2.23-.45.59-.3,1.06-.68,1.4-1.14.34-.46.58-.94.73-1.44s.22-.97.22-1.4c0-.33-.05-.74-.14-1.24-.1-.5-.29-1.01-.59-1.52-.3-.51-.75-.95-1.36-1.3-.61-.35-1.43-.53-2.46-.53h-4.22v9.02h4.18Zm5.52,3.66l7.39,11.53h-6.86l-7.55-11.37,7.03-.16Z" style="fill: #fff; stroke-width: 0px;"/>
        <path d="m319.27,77.37v-31.11h.04l16.61,23.56-2.52-.57,16.57-22.99h.08v31.11h-5.89v-17.83l.37,3.05-10.11,14.38h-.08l-10.4-14.38,1.02-2.8v17.59h-5.69Z" style="fill: #fff; stroke-width: 0px;"/>
        <path d="m357.77,47.48h20.39v5.69h-14.5v6.38h12.83v5.69h-12.83v6.46h15.07v5.69h-20.96v-29.89Z" style="fill: #fff; stroke-width: 0px;"/>
      </g>
      <g id="g1">
        <path id="path1" d="m.64,77.73l-.64-.64v-33.66l.64-.64.64-.64h34.94v-6.23l-.8.14c-1.38.25-3.2.16-3.86-.19-2.64-1.41-4.39-6.13-4.39-11.83,0-10.74,7.05-20.23,17.49-23.52C46.06.07,46.63,0,48.39,0c1.89,0,2.26.07,4.15.71,3.61,1.23,6.5,3,9.35,5.73,4.67,4.47,7.2,10.11,7.48,16.65.26,6.01-1.54,11.28-4.34,12.77-.66.35-2.49.44-3.86.2l-.8-.14v6.23h34.94l.64.64.64.64-.05,16.92-.05,16.92-.62.55-.62.55H1.28l-.64-.64Zm7.28-6.43v-2.92h-3.77v5.85h3.77v-2.92Zm14.15,0v-2.92h-10v5.85h10v-2.92Zm8.11,0v-2.92h-3.96v5.85h3.96v-2.92Zm32.07-11.04v-13.96h-27.92v27.92h27.92v-13.96Zm-25.12,11.75c-1.44-.89-1.13-3.1.51-3.64,1.43-.47,2.94,1.02,2.53,2.5-.36,1.32-1.86,1.88-3.04,1.14h0Zm19.98-.06c-.27-.21-.58-.68-.7-1.04-.48-1.44,1.1-3.02,2.54-2.54.9.3,1.42,1.01,1.42,1.93,0,1.61-2.01,2.63-3.26,1.65Zm-19.68-19.88c-1.13-.5-1.53-1.76-.93-2.91.51-.98,2.1-1.29,3-.58,1.81,1.43.04,4.43-2.07,3.5Zm20.11-.06c-.93-.46-1.43-1.51-1.13-2.4.3-.9,1.01-1.42,1.93-1.42.6,0,.88.13,1.39.64,1.09,1.09.8,2.66-.6,3.25q-.79.33-1.58-.07Zm12.83,19.29v-2.92h-3.96v5.85h3.96v-2.92Zm14.15,0v-2.92h-10v5.85h10v-2.92Zm7.92,0v-2.92h-3.77v5.85h3.77v-2.92ZM15.09,60.26v-3.96H4.15v7.92h10.94v-3.96Zm15.09,0v-3.96h-10.94v7.92h10.94v-3.96Zm47.16,0v-3.96h-10.94v7.92h10.94v-3.96Zm15.09,0v-3.96h-10.94v7.92h10.94v-3.96ZM7.92,49.23v-2.92h-3.77v5.85h3.77v-2.92Zm14.15,0v-2.92h-10v5.85h10v-2.92Zm8.11,0v-2.92h-3.96v5.85h3.96v-2.92Zm40.18,0v-2.92h-3.96v5.85h3.96v-2.92Zm14.15,0v-2.92h-10v5.85h10v-2.92Zm7.92,0v-2.92h-3.77v5.85h3.77v-2.92Zm-36.08-10.71l-.05-3.63-.94-.25c-2.03-.53-13.43-.48-14.86.07-.3.11-.33.49-.33,3.78v3.66h16.23l-.05-3.63Zm7.72-7.69c.65-1.31,1.07-3.15,1.28-5.52.15-1.75.13-1.76-1.6-.75-2.34,1.36-4.3,3.91-4.64,6.03l-.13.78.73.19c.4.1,1.03.27,1.39.38.36.1,1.04.17,1.51.15q.85-.03,1.45-1.26h0Zm-27.8-12.91c.78-.15,1.85-.46,2.37-.68,1.13-.48,2.33-1.71,2.66-2.72.36-1.08.15-3.5-.45-5.3-.73-2.16-.7-2.14-1.56-1.49-2.81,2.13-5.28,5.33-6.55,8.51-.85,2.11-.9,1.95.71,1.95.78,0,2.05-.12,2.83-.27Z" style="fill: #fff; stroke-width: 0px;"/>
      </g>
    </g>
  </g>
</svg>