<?xml version="1.0" encoding="UTF-8"?>
<svg id="Calque_2" data-name="Calque 2" xmlns="http://www.w3.org/2000/svg" viewBox="0 0 339.04 79.92">
  <g id="svg19">
    <g>
      <g>
        <path d="m120.57,31.16c0,2.51-.46,4.66-1.38,6.44-.92,1.78-2.16,3.14-3.7,4.08-1.54.94-3.29,1.44-5.23,1.5v-2.24c2.29-.13,4.19-1.03,5.7-2.72,1.51-1.69,2.27-4.09,2.27-7.21V2.39h2.34v28.77Z" style="fill: #fff; stroke-width: 0px;"/>
        <path d="m138.33,36.65c-1.94,0-3.66-.43-5.15-1.29-1.5-.86-2.67-2.03-3.51-3.51-.84-1.48-1.26-3.14-1.26-4.99s.45-3.47,1.34-4.96c.89-1.5,2.09-2.69,3.6-3.58,1.51-.89,3.19-1.34,5.03-1.34,2.23,0,4.1.65,5.61,1.96,1.51,1.3,2.6,3.01,3.27,5.11l-16.32,6.3-.67-1.62,14.94-5.82-.48.67c-.54-1.27-1.36-2.37-2.46-3.29-1.1-.92-2.44-1.38-4.03-1.38-1.43,0-2.72.35-3.87,1.05-1.15.7-2.06,1.64-2.74,2.82-.68,1.18-1.03,2.51-1.03,4.01,0,1.4.33,2.7.98,3.91.65,1.21,1.57,2.18,2.74,2.91,1.18.73,2.53,1.1,4.06,1.1,1.02,0,2-.19,2.94-.57.94-.38,1.77-.87,2.5-1.48l1.15,1.62c-.89.7-1.92,1.27-3.08,1.72-1.16.44-2.35.67-3.55.67Z" style="fill: #fff; stroke-width: 0px;"/>
        <path d="m159.32,36.79c-1.75,0-3.15-.52-4.2-1.55-1.05-1.03-1.61-2.38-1.67-4.03v-13.6h2.24v12.93c.06,1.21.45,2.21,1.17,3.01.72.8,1.79,1.23,3.22,1.29,1.21,0,2.34-.32,3.39-.95,1.05-.64,1.9-1.5,2.55-2.6.65-1.1.98-2.35.98-3.75v-9.93h2.24v18.66h-2l-.24-5.87.33,1.29c-.32.95-.88,1.82-1.69,2.6-.81.78-1.77,1.39-2.86,1.84-1.1.44-2.25.67-3.46.67Z" style="fill: #fff; stroke-width: 0px;"/>
        <path d="m191.48,36.27h-2.67l-13.98-18.66h2.82l13.84,18.66Zm-8.3-8.02l-5.73,8.02h-2.39l6.87-9.5,1.24,1.48Zm.05-2.58l5.54-8.06h2.34l-6.92,9.73-.95-1.67Z" style="fill: #fff; stroke-width: 0px;"/>
        <path d="m219.35,36.65c-1.75,0-3.34-.42-4.77-1.26-1.43-.84-2.57-2.01-3.41-3.51-.84-1.5-1.26-3.18-1.26-5.06,0-2,.43-3.74,1.29-5.2.86-1.46,2.03-2.59,3.51-3.39,1.48-.79,3.11-1.19,4.89-1.19s3.47.46,5.08,1.38c1.61.92,2.77,2.13,3.51,3.63l-.38,1.05V0h2.24v36.27h-2.29v-5.73l.48,1.05c-.8,1.5-1.99,2.71-3.58,3.65-1.59.94-3.36,1.41-5.3,1.41Zm.57-1.96c1.43,0,2.72-.31,3.87-.93,1.14-.62,2.07-1.46,2.77-2.53.7-1.07,1.1-2.27,1.19-3.6v-2.39c-.22-1.21-.72-2.29-1.48-3.25-.76-.95-1.69-1.71-2.77-2.27-1.08-.56-2.27-.83-3.58-.83-1.43,0-2.74.33-3.91,1-1.18.67-2.12,1.59-2.82,2.77-.7,1.18-1.05,2.55-1.05,4.1,0,1.46.35,2.79,1.05,3.98.7,1.19,1.65,2.15,2.84,2.86,1.19.72,2.49,1.07,3.89,1.07Z" style="fill: #fff; stroke-width: 0px;"/>
        <path d="m246.65,36.65c-1.94,0-3.66-.43-5.15-1.29-1.5-.86-2.67-2.03-3.51-3.51-.84-1.48-1.26-3.14-1.26-4.99s.45-3.47,1.34-4.96c.89-1.5,2.09-2.69,3.6-3.58,1.51-.89,3.19-1.34,5.03-1.34,2.23,0,4.1.65,5.61,1.96,1.51,1.3,2.6,3.01,3.27,5.11l-16.32,6.3-.67-1.62,14.94-5.82-.48.67c-.54-1.27-1.36-2.37-2.46-3.29-1.1-.92-2.44-1.38-4.03-1.38-1.43,0-2.72.35-3.87,1.05-1.15.7-2.06,1.64-2.74,2.82-.68,1.18-1.03,2.51-1.03,4.01,0,1.4.33,2.7.98,3.91.65,1.21,1.57,2.18,2.74,2.91,1.18.73,2.53,1.1,4.06,1.1,1.02,0,2-.19,2.93-.57.94-.38,1.77-.87,2.5-1.48l1.15,1.62c-.89.7-1.92,1.27-3.08,1.72-1.16.44-2.35.67-3.55.67Z" style="fill: #fff; stroke-width: 0px;"/>
      </g>
      <g>
        <path d="m114.15,43.92h22.26v6.77h-15.24v8.08h13.21v6.77h-13.21v13.98h-7.02v-35.61Z" style="fill: #fff; stroke-width: 0px;"/>
        <path d="m143.18,43.92h7.02v28.84h16.74v6.77h-23.76v-35.61Z" style="fill: #fff; stroke-width: 0px;"/>
        <path d="m174.2,43.92h7.02v35.61h-7.02v-35.61Z" style="fill: #fff; stroke-width: 0px;"/>
        <path d="m201.19,43.92c2.93,0,5.42.49,7.45,1.48,2.03.98,3.58,2.37,4.64,4.16,1.06,1.79,1.6,3.91,1.6,6.36,0,1.45-.22,2.91-.65,4.38s-1.13,2.8-2.08,3.99c-.95,1.19-2.23,2.15-3.82,2.88s-3.56,1.09-5.88,1.09h-5.03v11.27h-7.02v-35.61h10.79Zm1.21,17.52c1.06,0,1.95-.19,2.66-.56.71-.37,1.27-.84,1.67-1.4.4-.56.69-1.15.87-1.77.18-.61.27-1.14.27-1.6,0-.35-.06-.83-.17-1.43-.11-.6-.35-1.2-.7-1.81-.36-.61-.9-1.13-1.62-1.55s-1.7-.63-2.93-.63h-5.03v10.74h4.98Z" style="fill: #fff; stroke-width: 0px;"/>
        <path d="m231.97,43.92c2.93,0,5.42.49,7.45,1.48,2.03.98,3.58,2.37,4.64,4.16,1.06,1.79,1.6,3.91,1.6,6.36,0,1.45-.22,2.91-.65,4.38s-1.13,2.8-2.08,3.99c-.95,1.19-2.23,2.15-3.82,2.88s-3.56,1.09-5.88,1.09h-5.03v11.27h-7.02v-35.61h10.79Zm1.21,17.52c1.06,0,1.95-.19,2.66-.56.71-.37,1.27-.84,1.67-1.4.4-.56.69-1.15.87-1.77.18-.61.27-1.14.27-1.6,0-.35-.06-.83-.17-1.43-.11-.6-.35-1.2-.7-1.81-.36-.61-.9-1.13-1.62-1.55s-1.7-.63-2.93-.63h-5.03v10.74h4.98Z" style="fill: #fff; stroke-width: 0px;"/>
        <path d="m251.95,43.92h24.29v6.77h-17.27v7.6h15.29v6.77h-15.29v7.69h17.95v6.77h-24.97v-35.61Z" style="fill: #fff; stroke-width: 0px;"/>
        <path d="m294.96,43.92c2.23,0,4.21.28,5.95.85,1.74.56,3.2,1.37,4.38,2.42,1.18,1.05,2.07,2.31,2.68,3.77.61,1.47.92,3.12.92,4.96,0,1.45-.22,2.9-.65,4.35-.44,1.45-1.15,2.77-2.13,3.97-.98,1.19-2.28,2.15-3.9,2.88-1.61.73-3.61,1.09-6,1.09h-5.03v11.32h-7.02v-35.61h10.79Zm1.21,17.52c1.06,0,1.95-.18,2.66-.53.71-.35,1.27-.81,1.67-1.35.4-.55.69-1.12.87-1.72s.27-1.15.27-1.67c0-.39-.06-.88-.17-1.48-.11-.6-.35-1.2-.7-1.81-.36-.61-.9-1.13-1.62-1.55s-1.7-.63-2.93-.63h-5.03v10.74h4.98Zm6.58,4.35l8.81,13.74h-8.18l-9-13.55,8.37-.19Z" style="fill: #fff; stroke-width: 0px;"/>
        <path d="m336.38,52.54c-1.35-.74-2.73-1.35-4.14-1.84-1.4-.48-2.72-.73-3.94-.73-1.52,0-2.71.31-3.58.92-.87.61-1.31,1.53-1.31,2.76,0,.84.33,1.59.99,2.25.66.66,1.52,1.25,2.56,1.77,1.05.52,2.14.98,3.27,1.4,1.03.39,2.06.85,3.07,1.38,1.02.53,1.93,1.19,2.73,1.98s1.45,1.77,1.94,2.95c.48,1.18.73,2.62.73,4.33,0,1.81-.47,3.48-1.4,5.03-.94,1.55-2.31,2.8-4.11,3.75s-4.03,1.43-6.68,1.43c-1.35,0-2.73-.14-4.14-.41s-2.78-.69-4.14-1.26c-1.36-.56-2.66-1.28-3.92-2.15l3.1-5.47c.84.61,1.75,1.15,2.73,1.62.98.47,1.98.83,2.98,1.09,1,.26,1.92.39,2.76.39s1.68-.12,2.54-.36c.85-.24,1.56-.65,2.13-1.23.56-.58.85-1.39.85-2.42,0-.71-.23-1.35-.7-1.94-.47-.58-1.1-1.11-1.89-1.6-.79-.48-1.65-.9-2.59-1.26-1.1-.42-2.23-.9-3.39-1.45-1.16-.55-2.25-1.22-3.27-2.01-1.02-.79-1.84-1.77-2.47-2.95-.63-1.18-.94-2.62-.94-4.33,0-2.06.46-3.85,1.38-5.37.92-1.52,2.22-2.72,3.9-3.6,1.68-.89,3.61-1.38,5.81-1.48,2.87,0,5.2.34,6.99,1.02,1.79.68,3.39,1.48,4.81,2.42l-2.66,5.37Z" style="fill: #fff; stroke-width: 0px;"/>
      </g>
      <g id="g1">
        <path id="path1" d="m35.48,76.17c-.41-.14-1.03-.45-1.38-.69-1.07-.75-30.25-30.97-31.23-32.34-4.07-5.7-3.77-15.21.64-20.65,2.05-2.52,4.26-3.66,7.16-3.67,2.8,0,5.18,1.23,7.15,3.72,1.02,1.28,22.9,40.49,23.81,42.65.43,1.04.51,1.52.5,3.48,0,1.82-.09,2.49-.43,3.35-1.2,3.03-3.98,4.89-6.21,4.14h0ZM12.88,38.42c1.53-1.07,2.4-2.97,2.4-5.25,0-3.25-1.85-5.76-4.23-5.76-4.51,0-5.86,8.43-1.77,11.01,1.04.66,2.66.66,3.6,0h0Zm40.9,28.29c-1.79-.69-3.27-2.59-3.86-4.97-.64-2.56-.03-5.93,1.43-7.86.48-.64,3.64-3,9.51-7.12,17.37-12.18,21.2-14.87,22.98-16.15,2.46-1.76,4.05-2.4,6-2.4,9.11,0,14.01,14.02,8.27,23.7-1.12,1.9-3,3.68-4.66,4.42-1.31.59-36.43,10.43-37.87,10.62-.49.06-1.3-.05-1.81-.24Zm38.21-18.95c.4-.28.99-.95,1.33-1.5,2.59-4.27-.56-10.74-4.48-9.21-2.22.87-3.6,4.16-2.97,7.07.8,3.67,3.65,5.36,6.13,3.64Zm-37.35-6.82c-3.71-1.1-7.12-4.73-8.79-9.37-.94-2.61-1.27-4.62-1.27-7.72,0-5.08,1.09-8.66,3.73-12.25,2.66-3.62,5.38-5.17,9.05-5.17,2.28,0,3.88.55,6,2.04,1.82,1.29,3.95,4.01,4.98,6.4,1.58,3.65,2.17,8.45,1.53,12.54-.78,5.05-3.47,9.79-6.81,12.01-2.72,1.8-5.66,2.33-8.41,1.52Zm-.37-14.3c.2-.27.41-1.02.47-1.67.24-2.59,1.27-4.13,2.99-4.5,1.33-.29,1.93-.88,2.1-2.06.1-.74.04-1.13-.26-1.68-.57-1.04-1.24-1.28-2.54-.91-3.01.86-5,3.57-5.6,7.64-.17,1.19-.17,1.7.03,2.34.47,1.55,1.96,1.99,2.81.83h0Z" style="fill: #fff; stroke-width: 0px;"/>
      </g>
    </g>
  </g>
</svg>