<?xml version="1.0" encoding="UTF-8"?>
<svg id="Calque_2" data-name="Calque 2" xmlns="http://www.w3.org/2000/svg" viewBox="0 0 342.45 82.47">
  <g id="svg19">
    <g>
      <g>
        <path d="m109.08,32.51c0,2.51-.46,4.66-1.38,6.44-.92,1.78-2.16,3.14-3.7,4.08s-3.29,1.44-5.22,1.5v-2.24c2.29-.13,4.19-1.03,5.7-2.72,1.51-1.69,2.27-4.09,2.27-7.21V3.74h2.34v28.77Z" style="fill: #fff; stroke-width: 0px;"/>
        <path d="m126.83,38c-1.94,0-3.66-.43-5.15-1.29-1.5-.86-2.67-2.03-3.51-3.51-.84-1.48-1.26-3.14-1.26-4.99s.45-3.47,1.34-4.96c.89-1.5,2.09-2.69,3.6-3.58,1.51-.89,3.19-1.34,5.03-1.34,2.23,0,4.1.65,5.61,1.96,1.51,1.3,2.6,3.01,3.27,5.11l-16.32,6.3-.67-1.62,14.94-5.82-.48.67c-.54-1.27-1.36-2.37-2.46-3.29-1.1-.92-2.44-1.38-4.03-1.38-1.43,0-2.72.35-3.87,1.05-1.14.7-2.06,1.64-2.74,2.82-.68,1.18-1.03,2.51-1.03,4.01,0,1.4.33,2.7.98,3.91.65,1.21,1.57,2.18,2.74,2.91,1.18.73,2.53,1.1,4.06,1.1,1.02,0,2-.19,2.93-.57s1.77-.87,2.5-1.48l1.15,1.62c-.89.7-1.92,1.27-3.08,1.72-1.16.44-2.35.67-3.55.67Z" style="fill: #fff; stroke-width: 0px;"/>
        <path d="m147.82,38.14c-1.75,0-3.15-.52-4.2-1.55-1.05-1.03-1.61-2.38-1.67-4.03v-13.6h2.24v12.93c.06,1.21.45,2.21,1.17,3.01.72.8,1.79,1.23,3.22,1.29,1.21,0,2.34-.32,3.39-.95,1.05-.64,1.9-1.5,2.55-2.6.65-1.1.98-2.35.98-3.75v-9.93h2.24v18.66h-2l-.24-5.87.33,1.29c-.32.95-.88,1.82-1.69,2.6-.81.78-1.77,1.39-2.86,1.84-1.1.44-2.25.67-3.46.67Z" style="fill: #fff; stroke-width: 0px;"/>
        <path d="m179.99,37.62h-2.67l-13.98-18.66h2.82l13.84,18.66Zm-8.3-8.02l-5.73,8.02h-2.39l6.87-9.5,1.24,1.48Zm.05-2.58l5.54-8.06h2.34l-6.92,9.73-.95-1.67Z" style="fill: #fff; stroke-width: 0px;"/>
        <path d="m207.85,38c-1.75,0-3.34-.42-4.77-1.26-1.43-.84-2.57-2.01-3.41-3.51-.84-1.5-1.26-3.18-1.26-5.06,0-2,.43-3.74,1.29-5.2.86-1.46,2.03-2.59,3.51-3.39,1.48-.79,3.11-1.19,4.89-1.19s3.47.46,5.08,1.38c1.61.92,2.77,2.13,3.51,3.63l-.38,1.05V1.35h2.24v36.27h-2.29v-5.73l.48,1.05c-.8,1.5-1.99,2.71-3.58,3.65-1.59.94-3.36,1.41-5.3,1.41Zm.57-1.96c1.43,0,2.72-.31,3.87-.93,1.14-.62,2.07-1.46,2.77-2.53.7-1.07,1.1-2.27,1.19-3.6v-2.39c-.22-1.21-.72-2.29-1.48-3.25-.76-.95-1.69-1.71-2.77-2.27-1.08-.56-2.27-.83-3.58-.83-1.43,0-2.74.33-3.91,1-1.18.67-2.12,1.59-2.82,2.77-.7,1.18-1.05,2.55-1.05,4.1,0,1.46.35,2.79,1.05,3.98.7,1.19,1.65,2.15,2.84,2.86,1.19.72,2.49,1.07,3.89,1.07Z" style="fill: #fff; stroke-width: 0px;"/>
        <path d="m235.15,38c-1.94,0-3.66-.43-5.15-1.29-1.5-.86-2.67-2.03-3.51-3.51-.84-1.48-1.26-3.14-1.26-4.99s.45-3.47,1.34-4.96c.89-1.5,2.09-2.69,3.6-3.58,1.51-.89,3.19-1.34,5.03-1.34,2.23,0,4.1.65,5.61,1.96,1.51,1.3,2.6,3.01,3.27,5.11l-16.32,6.3-.67-1.62,14.94-5.82-.48.67c-.54-1.27-1.36-2.37-2.46-3.29-1.1-.92-2.44-1.38-4.03-1.38-1.43,0-2.72.35-3.87,1.05-1.15.7-2.06,1.64-2.74,2.82-.68,1.18-1.03,2.51-1.03,4.01,0,1.4.33,2.7.98,3.91.65,1.21,1.57,2.18,2.74,2.91,1.18.73,2.53,1.1,4.06,1.1,1.02,0,2-.19,2.93-.57.94-.38,1.77-.87,2.5-1.48l1.15,1.62c-.89.7-1.92,1.27-3.08,1.72-1.16.44-2.35.67-3.55.67Z" style="fill: #fff; stroke-width: 0px;"/>
      </g>
      <g>
        <path d="m123.53,42.03c2.53,0,4.78.32,6.76.96,1.98.64,3.64,1.56,4.97,2.75,1.34,1.19,2.35,2.62,3.05,4.29.7,1.67,1.04,3.54,1.04,5.63,0,1.65-.25,3.3-.74,4.95-.49,1.65-1.3,3.15-2.42,4.51-1.12,1.36-2.59,2.45-4.42,3.27-1.83.82-4.1,1.24-6.81,1.24h-5.71v12.86h-7.97v-40.44h12.25Zm1.37,19.89c1.21,0,2.22-.2,3.02-.6.81-.4,1.44-.92,1.9-1.54s.79-1.27.99-1.95c.2-.68.3-1.31.3-1.9,0-.44-.06-1-.19-1.68-.13-.68-.39-1.36-.8-2.06-.4-.7-1.02-1.28-1.84-1.76-.82-.48-1.93-.71-3.33-.71h-5.71v12.2h5.66Zm7.47,4.95l10,15.61h-9.29l-10.22-15.39,9.51-.22Z" style="fill: #fff; stroke-width: 0px;"/>
        <path d="m156.17,69.89l-14.89-27.86h9.84l10.44,20.99-2.36.17,10.28-21.16h9.84l-15.17,27.86v12.58h-7.97v-12.58Z" style="fill: #fff; stroke-width: 0px;"/>
        <path d="m182.6,42.03h27.26v7.69h-9.84v32.75h-7.97v-32.75h-9.45v-7.69Z" style="fill: #fff; stroke-width: 0px;"/>
        <path d="m251.56,42.03v40.44h-7.97v-16.43h-18.08v16.43h-7.97v-40.44h7.97v16.32h18.08v-16.32h7.97Z" style="fill: #fff; stroke-width: 0px;"/>
        <path d="m262,82.47v-42.09h.05l22.47,31.87-3.41-.77,22.42-31.1h.11v42.09h-7.97v-24.12l.49,4.12-13.68,19.45h-.11l-14.07-19.45,1.37-3.79v23.79h-7.69Z" style="fill: #fff; stroke-width: 0px;"/>
        <path d="m314.1,42.03h27.58v7.69h-19.62v8.63h17.36v7.69h-17.36v8.74h20.39v7.69h-28.35v-40.44Z" style="fill: #fff; stroke-width: 0px;"/>
      </g>
      <g id="g1">
        <path id="path1" d="m17.26,81.65c-1.67-.47-3.19-1.8-3.96-3.44-.36-.77-.42-1.12-.42-2.35,0-1.85.5-3.03,1.77-4.24,1.26-1.2,2.38-1.66,4.02-1.67h1.32s0-3.68,0-3.68c0-3.56.05-3.85.38-4.41.92-1.56,3.18-1.53,4.07.04.33.58.36.69.31,8.04l-.04,7.35-.43.91c-.97,2.08-2.93,3.45-5.1,3.57-.7.04-1.48-.02-1.91-.14h0Zm57.08,0c-1.67-.47-3.19-1.8-3.96-3.44-.36-.77-.42-1.12-.42-2.35,0-1.85.5-3.03,1.77-4.24,1.26-1.2,2.38-1.66,4.02-1.67h1.32s0-5.06,0-5.06v-5.06s-4.52-2.01-4.52-2.01c-2.48-1.1-4.64-2.05-4.79-2.11-.25-.1-.27.34-.32,5.95l-.05,6.05-.43.91c-.62,1.32-1.67,2.39-2.97,3.04-.96.48-1.2.53-2.51.53s-1.54-.05-2.48-.51c-1.32-.65-2.39-1.72-3.01-3.06-.36-.78-.43-1.13-.42-2.35,0-1.85.5-3.03,1.77-4.24,1.26-1.2,2.38-1.66,4.02-1.67h1.32s0-4.48,0-4.48c0-5,.05-5.25,1.1-5.95,1.09-.73,1.28-.67,9.41,2.94,4.09,1.82,7.64,3.48,7.89,3.69s.53.65.63.97c.12.4.16,3.65.12,10.18l-.05,9.59-.43.91c-.97,2.08-2.93,3.45-5.1,3.57-.7.04-1.48-.02-1.91-.14h0ZM3.81,58.3c-3.36-1.38-4.86-5.28-2.95-8.54,1.09-1.86,3.19-2.91,5.35-2.91h.99s0-4.48,0-4.48c0-4.18.02-4.53.32-5.11.56-1.11,1.99-1.57,3.08-1.01.69.36,7.16,6.52,7.5,7.15.59,1.07.12,2.57-.97,3.13-1.27.65-2.16.33-3.9-1.39l-1.24-1.23v4.72c0,5.36-.1,6.06-1.08,7.5-1.16,1.71-2.83,2.57-4.96,2.56-.92,0-1.46-.1-2.14-.38h0Zm26.41-2.63c-.31-.16-.72-.53-.92-.82l-.36-.53v-23.94h23.98v23.94l-.36.53c-.2.29-.61.66-.92.82-.53.28-1.14.3-10.71.3s-10.19-.02-10.71-.3Zm11.76-7.15c.39-.19,1.29-1.25,3.29-3.93,2.51-3.35,2.75-3.74,2.81-4.42.11-1.35-.99-2.59-2.3-2.59-1.04,0-1.59.45-3.19,2.59-.84,1.12-1.58,2.05-1.65,2.05s-.82-.92-1.66-2.05c-1.56-2.09-1.9-2.33-2.65-2.48-1.61-.32-2.94.8-2.85,2.44.03.65.32,1.12,2.83,4.47,1.89,2.53,2.9,3.74,3.26,3.92.66.33,1.44.33,2.12,0h0ZM1.35,25.26c-.41-.2-.78-.56-1-.94Q0,23.7,0,12.79C0,1.98,0,1.88.34,1.28c.19-.33.61-.75.94-.94C1.88,0,1.97,0,13.01,0h11.13v25.58h-11.07c-10.78,0-11.09,0-11.72-.32Zm14.96-5.55c1.14-.57,1.63-2.1,1.04-3.25-.14-.26-1.15-1.15-2.28-2-1.12-.84-2.03-1.59-2.03-1.67s.92-.83,2.03-1.67c1.13-.85,2.14-1.74,2.28-2,.59-1.15.11-2.67-1.04-3.25-.91-.46-1.6-.36-2.66.36-1.85,1.26-6.52,4.89-6.83,5.32-.44.6-.44,1.88,0,2.48.31.43,4.98,4.06,6.83,5.32,1.06.72,1.75.81,2.66.36Zm12.63-6.91V0h23.98v25.58h-23.98v-12.79Zm8.24,5.32c.41-.19,1.02-.87,2.1-2.32.84-1.12,1.58-2.05,1.65-2.05s.82.93,1.67,2.06c1.05,1.4,1.71,2.14,2.08,2.32,1.68.8,3.55-.49,3.4-2.33-.06-.69-.3-1.07-2.81-4.42-2.86-3.82-3.23-4.18-4.33-4.18s-1.47.36-4.33,4.18c-2.51,3.35-2.75,3.74-2.81,4.42-.15,1.86,1.7,3.12,3.39,2.32Zm20.54-5.32V0h22.26l.62.35c.4.22.74.59.94,1.01.31.64.32.99.32,11.43s0,10.79-.33,11.45c-.24.49-.52.77-1.01,1.01-.67.32-.9.33-11.74.33h-11.06v-12.79Zm10.49,6.56c1.85-1.26,6.52-4.89,6.83-5.32.44-.6.44-1.88,0-2.48-.31-.43-4.98-4.06-6.83-5.32-1.06-.72-1.75-.81-2.66-.36-1.14.57-1.63,2.1-1.04,3.25.14.26,1.15,1.15,2.28,2,1.12.84,2.03,1.59,2.03,1.67s-.92.83-2.03,1.67c-1.13.85-2.14,1.74-2.28,2-.59,1.15-.11,2.67,1.04,3.25.91.46,1.6.36,2.66-.36Z" style="fill: #fff; stroke-width: 0px;"/>
      </g>
    </g>
  </g>
</svg>