<?xml version="1.0" encoding="UTF-8"?>
<svg id="Calque_2" data-name="Calque 2" xmlns="http://www.w3.org/2000/svg" viewBox="0 0 226.11 48.22">
  <g id="Calque_1-2" data-name="Calque 1">
    <g>
      <path d="m0,14.53c10.59,0,21.17,0,31.76.01.07,0,.14.05.28.1v6.49h-12.04v25.44h-7.72v-25.58H0v-6.45Z" style="fill: #fff; stroke-width: 0px;"/>
      <path d="m193.98,15.89c-.05.27-.09.46-.13.64-.03.15-.08.3-.14.57h8.04c.04.31.08.52.11.76h3.18c.25-.85.48-1.68.74-2.58h9.86c-.36,1.39-.71,2.72-1.07,4.09.92.54,1.83,1.08,2.91,1.72h5.68c-.33,1.35-.63,2.6-.96,3.95h3.89c-.93,3.46-1.83,6.81-2.75,10.22h-3.12c-.39,1.42-.77,2.79-1.17,4.22h-3.27c-2.6,2.43-5.8,3.58-9.23,4.22-.27.96-.53,1.87-.79,2.82h-10.24c.19-.78.36-1.5.54-2.26-.67-.09-1.3-.17-1.78-.23-.46.13-.79.31-1.12.31-3,.02-5.99,0-8.99,0-.07,0-.15-.05-.3-.11.38-1.44.75-2.89,1.1-4.2-.61-1.16-1.15-2.21-1.73-3.32h-1.94c-.16.52-.33,1.07-.52,1.72h-9.82c-.5,1.8-.97,3.51-1.46,5.29h-4.96c-.25.9-.49,1.73-.74,2.63h-9.99c.21-.88.4-1.71.62-2.63h-2.36c.64-2.42,1.24-4.73,1.88-7.15h-3.4c.32-1.25.62-2.39.95-3.64h-3.39c.8-3.47,1.58-6.82,2.36-10.23h7.02c.42-1.51.82-2.96,1.24-4.46h5.63c.36-1.23.7-2.44,1.05-3.66h9.9c-.32,1.25-.62,2.43-.95,3.71h8.84c.22-.74.45-1.53.71-2.38h10.07Zm-7.56,17.33c-.98,2.54-.82,3.21,1.39,5.83-.17.8-.37,1.68-.57,2.65h4.52c.15-.19.33-.43.41-.55,2.44.27,4.75.52,7.12.78-.11.64-.22,1.26-.34,1.96h4.88c.27-.87.53-1.72.77-2.51,3.89-.51,7.4-1.51,10.13-4.43h2.38c.41-1.47.79-2.87,1.19-4.3h3.12c.44-1.66.87-3.26,1.33-5.01h-3.82c.33-1.4.63-2.64.94-3.99h-3.48c-1.36-1.42-3.13-2-4.88-2.54.27-1.18.52-2.23.78-3.38h-4.51c-.27.91-.52,1.77-.8,2.69-2.9.14-5.77-.17-8.65.52.06-.4.11-.73.17-1.14-1.51-.38-2.96-.17-4.44-.16-.32,1.04-.6,1.98-.88,2.89-2.11,1.22-3.88,2.67-4.77,5.1h10.87c.87-1.96,2.55-2.13,4.32-2.11.91.01,1.73.23,2.07,1.22-.73,1.35-1.97,1.58-3.28,1.63-1.11.04-2.22,0-3.42,0-.37,1.44-.72,2.8-1.12,4.34,1.25,0,2.29-.1,3.31.03,1.04.14,2.18.22,2.81,1.25.24.89-.23,1.4-.88,1.79-1.03.61-2.16.77-3.34.72-1.52-.07-2.55-.89-2.9-2.36-.07-.3-.1-.6-.15-.92h-10.29Zm-32.5.82h3.41c-.34,1.28-.64,2.39-.93,3.5-.29,1.13-.58,2.26-.91,3.57h2.34c-.22.97-.41,1.8-.62,2.7h4.56c.28-.92.54-1.79.83-2.75h4.94c.65-2.37,1.27-4.65,1.89-6.88h4.94c-.09.57-.17,1.06-.26,1.6h4.67c.2-.57.39-1.11.6-1.72h3.84c.35-1.66.98-3.18,1.19-4.94h-13.82c.26-1.03.49-1.93.74-2.91h16.1c.27-.92.52-1.74.76-2.58.23-.03.39-.04.54-.06.19-.03.37-.08.58-.13.44-1.67.87-3.29,1.32-4.97h-4.69c-.26.85-.49,1.64-.74,2.45h-14.23c.32-1.26.63-2.47.95-3.75h-4.5c-.33,1.18-.67,2.35-1.03,3.61h-5.65c-.75,2.76-1.48,5.43-2.19,8.04h-2.07c.3-1.2.58-2.3.87-3.47h-4.82c-.37,1.63-.73,3.21-1.13,4.95h3.5c-.33,1.26-.62,2.37-.98,3.74Z" style="fill: #fff; stroke-width: 0px;"/>
      <path d="m125.39,13.49c4.95.09,10.04,2.03,14.05,6.38,6.06,6.57,5.86,16.18-.48,22.48-4.69,4.65-10.44,6.41-16.96,5.73-4.73-.49-8.85-2.38-12.16-5.79-7.07-7.28-6.23-18.25,1.85-24.52,3.76-2.91,8.05-4.27,13.7-4.27Zm-.97,5.77c-6.58,0-11.71,5.11-11.7,11.64.01,6.52,5.18,11.64,11.74,11.62,6.58-.02,11.7-5.12,11.69-11.66-.01-6.55-5.12-11.61-11.72-11.61Z" style="fill: #fff; stroke-width: 0px;"/>
      <path d="m73.37,21.1v-6.51h31.92v6.54h-12.02v25.44h-7.71v-25.48h-12.19Z" style="fill: #fff; stroke-width: 0px;"/>
      <path d="m41.66,46.34c.03-9.11,1.2-17.75,7.52-25.16,4.63,8.5,9.15,16.77,13.73,25.16h-21.24Z" style="fill: #fff; stroke-width: 0px;"/>
      <path d="m47.56,18.4c3.39-2.63,6.51-5.54,10.85-6.45-3.54,2.65-6.53,5.83-9.41,9.28-.47-.85-.9-1.64-1.38-2.52-1.43,1.09-2.63,2.3-3.7,3.62-5.27,6.51-8.51,13.94-9.9,22.18-.11.66-.21,1.32-.32,2.04h-10.69c6.57-12.08,13.11-24.1,19.74-36.29,1.66,2.8,3.23,5.44,4.82,8.14Z" style="fill: #fff; stroke-width: 0px;"/>
      <path d="m63.57,14.79h7.73v31.49h-7.73V14.79Z" style="fill: #fff; stroke-width: 0px;"/>
      <path d="m61.09,5.86C61.1,2.64,63.8,0,67.08,0c3.35,0,6.06,2.67,6.05,5.94-.02,3.2-2.74,5.86-6.01,5.87-3.34,0-6.04-2.65-6.03-5.95Z" style="fill: #fff; stroke-width: 0px;"/>
      <path d="m216.83,31.92h-1.48c-.78-.55-1.51-1.07-2.21-1.56.89-.51,1.89-1.08,2.92-1.66h1.61c-.28,1.08-.55,2.1-.84,3.22Z" style="fill: #fff; stroke-width: 0px;"/>
    </g>
  </g>
</svg>