<?xml version="1.0" encoding="UTF-8"?>
<svg id="Calque_2" data-name="Calque 2" xmlns="http://www.w3.org/2000/svg" viewBox="0 0 233.64 81.48">
  <g id="svg19">
    <g>
      <g>
        <path d="m126.75,78.72c-.57.38-1.26.74-2.08,1.07-.81.33-1.68.63-2.6.88-.92.26-1.87.45-2.84.6-.97.14-1.89.21-2.74.21-2.67,0-5.08-.44-7.23-1.31-2.15-.87-3.98-2.08-5.51-3.63-1.53-1.54-2.7-3.34-3.51-5.39-.81-2.05-1.22-4.27-1.22-6.66,0-2.58.45-4.95,1.36-7.11.91-2.16,2.16-4.03,3.75-5.61s3.44-2.79,5.54-3.65c2.1-.86,4.33-1.29,6.68-1.29,1.78,0,3.46.22,5.03.67,1.58.45,3,1.05,4.27,1.81l-.86,2.1c-.73-.45-1.56-.83-2.48-1.17-.92-.33-1.87-.6-2.84-.79-.97-.19-1.93-.29-2.89-.29-2.16,0-4.17.38-6.01,1.15-1.85.76-3.45,1.83-4.82,3.2-1.37,1.37-2.43,2.98-3.2,4.82-.76,1.85-1.14,3.85-1.14,6.01s.36,4.05,1.07,5.85c.72,1.8,1.73,3.37,3.05,4.72,1.32,1.35,2.9,2.4,4.75,3.15,1.84.75,3.9,1.12,6.16,1.12,1.34,0,2.74-.16,4.2-.48,1.46-.32,2.72-.78,3.77-1.38v-9.4h-7.63v-2.24h9.97v13.03Z" style="fill: #fff; stroke-width: 0px;"/>
        <path d="m143.11,81.48c-1.78,0-3.4-.41-4.84-1.22-1.45-.81-2.59-1.95-3.44-3.41-.84-1.46-1.26-3.17-1.26-5.11,0-2.07.45-3.84,1.34-5.32.89-1.48,2.1-2.61,3.63-3.39,1.53-.78,3.26-1.17,5.2-1.17,1.65,0,3.22.49,4.7,1.48,1.48.99,2.54,2.23,3.17,3.72l-.33.67.29-5.3h2v18.66h-2.24v-5.77l.48.86c-.22.64-.6,1.26-1.14,1.88-.54.62-1.2,1.19-1.98,1.72-.78.52-1.64.94-2.58,1.24-.94.3-1.93.45-2.98.45Zm.48-1.91c1.4,0,2.66-.29,3.79-.88,1.13-.59,2.04-1.41,2.74-2.46.7-1.05,1.1-2.26,1.19-3.63v-2.67c-.25-1.18-.76-2.23-1.5-3.15-.75-.92-1.66-1.65-2.74-2.19-1.08-.54-2.26-.81-3.53-.81-1.4,0-2.69.33-3.87.98-1.18.65-2.12,1.57-2.82,2.74-.7,1.18-1.05,2.56-1.05,4.15,0,1.46.35,2.79,1.05,3.98.7,1.19,1.65,2.15,2.84,2.86,1.19.72,2.49,1.07,3.89,1.07Z" style="fill: #fff; stroke-width: 0px;"/>
        <path d="m164.01,62.44l.24,5.2-.33-.48c.64-1.62,1.69-2.9,3.17-3.84,1.48-.94,3.09-1.41,4.84-1.41,1.05,0,2,.2,2.84.6.84.4,1.53.94,2.05,1.62.53.68.83,1.47.93,2.36l-.29.29c.67-1.59,1.72-2.8,3.15-3.63,1.43-.83,2.97-1.24,4.63-1.24,1.78,0,3.2.52,4.25,1.55,1.05,1.03,1.59,2.38,1.62,4.03v13.6h-2.24v-13.12c-.03-1.11-.38-2.06-1.05-2.84-.67-.78-1.69-1.2-3.05-1.26-1.24,0-2.39.32-3.44.95-1.05.64-1.9,1.48-2.55,2.53-.65,1.05-1.01,2.23-1.07,3.53v10.21h-2.24v-13.12c-.03-1.11-.39-2.06-1.07-2.84-.68-.78-1.71-1.2-3.08-1.26-1.27,0-2.44.32-3.51.95-1.07.64-1.92,1.5-2.55,2.6-.64,1.1-.96,2.31-.96,3.65v10.02h-2.24v-18.66h1.96Z" style="fill: #fff; stroke-width: 0px;"/>
        <path d="m207.73,81.48c-1.94,0-3.66-.43-5.15-1.29-1.5-.86-2.67-2.03-3.51-3.51-.84-1.48-1.26-3.14-1.26-4.99s.45-3.47,1.34-4.96c.89-1.5,2.09-2.69,3.6-3.58,1.51-.89,3.19-1.34,5.03-1.34,2.23,0,4.1.65,5.61,1.96,1.51,1.3,2.6,3.01,3.27,5.11l-16.32,6.3-.67-1.62,14.94-5.82-.48.67c-.54-1.27-1.36-2.37-2.46-3.29-1.1-.92-2.44-1.38-4.03-1.38-1.43,0-2.72.35-3.87,1.05-1.15.7-2.06,1.64-2.74,2.82-.68,1.18-1.03,2.51-1.03,4.01,0,1.4.33,2.7.98,3.91.65,1.21,1.57,2.18,2.74,2.91,1.18.73,2.53,1.1,4.06,1.1,1.02,0,2-.19,2.93-.57.94-.38,1.77-.87,2.5-1.48l1.15,1.62c-.89.7-1.92,1.27-3.08,1.72-1.16.44-2.35.67-3.55.67Z" style="fill: #fff; stroke-width: 0px;"/>
        <path d="m227.24,81.48c-1.08,0-2.21-.2-3.39-.6-1.18-.4-2.13-1.04-2.86-1.93l1.05-1.48c.64.67,1.39,1.2,2.27,1.6.88.4,1.81.6,2.79.6.73,0,1.42-.1,2.08-.31.65-.21,1.19-.56,1.6-1.07.41-.51.62-1.19.62-2.05s-.25-1.57-.74-2.05c-.49-.48-1.11-.87-1.86-1.17-.75-.3-1.54-.58-2.36-.83-1.37-.45-2.49-1.05-3.36-1.81-.88-.76-1.31-1.84-1.31-3.24,0-1.02.25-1.91.74-2.67.49-.76,1.17-1.36,2.03-1.79s1.83-.64,2.91-.64c.99,0,1.96.16,2.93.48.97.32,1.85.86,2.65,1.62l-1,1.57c-.51-.7-1.19-1.18-2.03-1.43-.84-.25-1.58-.4-2.22-.43-.54,0-1.11.11-1.69.33-.59.22-1.08.55-1.48.98-.4.43-.6.99-.6,1.69s.21,1.33.62,1.79c.41.46.95.83,1.6,1.12.65.29,1.33.56,2.03.81.92.29,1.79.63,2.6,1.03.81.4,1.48.92,2,1.57.53.65.79,1.52.79,2.6s-.24,2.06-.72,2.94c-.48.88-1.19,1.56-2.12,2.05-.94.49-2.12.74-3.56.74Z" style="fill: #fff; stroke-width: 0px;"/>
      </g>
      <g>
        <path d="m96.66,2.91h8.23l7.6,22.35-1.11-.48,6.63-16.5,3.24,9.63-10.26,22.02L96.66,2.91Zm17.85,0h6.97l8.76,21.63-1.26-.19,6.53-21.43h7.55l-13.74,36.92L114.51,2.91Z" style="fill: #fff; stroke-width: 0px;"/>
        <path d="m140.35,38.28L156.42,1.27h.39l16.06,37.01h-8.13l-10.26-26.03,5.08-3.48-12.29,29.51h-6.92Zm10.98-12.87h10.69l2.47,5.9h-15.34l2.18-5.9Z" style="fill: #fff; stroke-width: 0px;"/>
        <path d="m188.83,2.67c2.22,0,4.21.28,5.95.85,1.74.56,3.2,1.37,4.38,2.42,1.18,1.05,2.07,2.31,2.68,3.77.61,1.47.92,3.12.92,4.96,0,1.45-.22,2.9-.65,4.35-.44,1.45-1.15,2.77-2.13,3.97-.98,1.19-2.28,2.15-3.9,2.88-1.61.73-3.61,1.09-6,1.09h-5.03v11.32h-7.02V2.67h10.79Zm1.21,17.52c1.06,0,1.95-.18,2.66-.53.71-.35,1.27-.81,1.67-1.35.4-.55.69-1.12.87-1.72s.27-1.15.27-1.67c0-.39-.06-.88-.17-1.48-.11-.6-.35-1.2-.7-1.81-.36-.61-.89-1.13-1.62-1.55-.72-.42-1.7-.63-2.93-.63h-5.03v10.74h4.98Zm6.58,4.35l8.81,13.74h-8.18l-9-13.55,8.37-.19Z" style="fill: #fff; stroke-width: 0px;"/>
      </g>
      <g id="g1">
        <path id="path1" d="m22.5,80.87c-1.48-.32-2.97-.84-4.25-1.47-1.17-.58-3.11-1.8-3.11-1.95,0-.05,1.79-1.87,3.97-4.06,3.35-3.35,4.02-3.95,4.31-3.86.34.11.34.14.34,5.29,0,4.17.05,5.29.23,5.74.22.53.22.55-.12.54-.19,0-.81-.11-1.37-.23h0Zm5.89-.06c.1-.2.17-2.28.17-5.66,0-5.3,0-5.36.34-5.54.31-.17.67.15,4.38,3.86l4.04,4.04-.71.51c-1.71,1.22-4.19,2.29-6.46,2.79-1.79.4-1.97.4-1.76,0h0Zm-17.43-7.78c-1.25-1.9-2.08-3.84-2.6-6.05-.43-1.86-1.06-1.67,5.4-1.67h5.64l.17.37c.16.35-.1.64-3.86,4.41l-4.03,4.03-.72-1.09Zm25.75-2.99c-3.71-3.71-4.03-4.07-3.86-4.38.18-.34.23-.34,5.85-.34,3.4,0,5.66.06,5.66.15,0,.4-.51,2.45-.86,3.48-.46,1.33-1.49,3.37-2.23,4.42l-.51.72-4.04-4.04Zm-11.59-5.02c-1.49-.92-1.7-2.58-.49-3.79.7-.7,1.5-.84,2.46-.44.96.4,1.46,1.13,1.46,2.13,0,1.78-1.98,2.99-3.43,2.1Zm-17-4.77c0-.15.14-.88.32-1.61.52-2.16,1.67-4.7,2.83-6.24l.4-.54,3.97,3.97c2.89,2.89,3.96,4.06,3.93,4.29-.04.31-.18.32-5.75.36-5.36.04-5.71.02-5.71-.24h0Zm24.74-.06c-.17-.31.14-.66,3.79-4.31,2.18-2.18,4.02-3.97,4.08-3.97.21,0,1.44,1.95,2.05,3.26.61,1.31,1.29,3.43,1.5,4.69l.11.68h-5.68c-5.63,0-5.68,0-5.86-.34Zm-29.35-4.54c-.77-1.22-1.86-3.53-2.32-4.92-1.84-5.57-1.54-11.12.94-16.99,1.3-3.09,1.32-3.66.14-5.67-1.68-2.89-1.68-6.3,0-9.07.58-.95,1.31-1.41,2.27-1.41.81,0,1.59.5,2.01,1.27.41.77.37,1.29-.18,2.54-.84,1.92-.79,2.97.22,4.59l.51.82,1.53-1.22c.84-.67,2.17-1.6,2.95-2.07,2.36-1.4,8.17-4.2,13.07-6.27,2.55-1.08,7.04-3,9.98-4.26,2.94-1.26,5.49-2.33,5.67-2.37.28-.06,1.63,2.2,10.13,16.92,5.39,9.35,9.78,17.06,9.76,17.13-.06.16-12.47,9.52-12.54,9.45-.02-.03-.35-.66-.72-1.41-1.98-3.99-5.33-7.56-9.18-9.79-9.44-5.48-21.67-3.46-28.85,4.76-1.94,2.22-3.44,4.74-4.36,7.3l-.52,1.46-.5-.79Zm15.57-3.24l-3.97-3.97.54-.4c.86-.65,2.2-1.4,3.5-1.96,1.24-.53,3.6-1.2,4.25-1.2h.37v5.65c0,5.87,0,5.85-.61,5.85-.06,0-1.89-1.79-4.08-3.97h0Zm9.76,3.8c-.26-.15-.28-.6-.28-5.77v-5.6l.87.1c1.94.23,5.4,1.64,7.17,2.92l.78.57-3.97,3.97c-2.18,2.19-4.04,3.97-4.13,3.97-.09,0-.29-.08-.44-.17h0Zm25.87-30.85c-5.23-9.06-9.54-16.58-9.57-16.7-.04-.15.92-.66,2.97-1.57,2.45-1.09,3.05-1.31,3.21-1.14.24.26,18.27,31.54,18.33,31.77.03.15-4.36,3.51-5.17,3.96-.21.12-1.87-2.65-9.77-16.34h0Zm9.96-5.96c-4.95-8.57-8.94-15.64-8.86-15.71.07-.07,1.94-.92,4.15-1.9,2.73-1.21,4.2-1.78,4.6-1.78.68,0,1.31.29,1.78.82.48.53,14.93,25.62,15.22,26.42.2.54.2.77.04,1.28-.11.34-.28.74-.39.88-.17.21-7.38,5.57-7.5,5.57-.02,0-4.09-7.01-9.03-15.58h0Z" style="fill: #fff; stroke-width: 0px;"/>
      </g>
    </g>
  </g>
</svg>