<?xml version="1.0" encoding="UTF-8"?>
<svg id="Calque_2" data-name="Calque 2" xmlns="http://www.w3.org/2000/svg" viewBox="0 0 370.72 82.18">
  <g id="svg19">
    <g>
      <g>
        <path d="m98.07,37.62L112.39,2.26h.19l14.32,35.36h-2.62l-12.46-31.64,1.62-.91-13.03,32.54h-2.34Zm6.92-13.41h15.03l.67,2.2h-16.27l.57-2.2Z" style="fill: #fff; stroke-width: 0px;"/>
        <path d="m138.82,38.33l-9.45-19.37h2.62l7.78,16.94-1.38-.05,7.49-16.89h2.48l-9.26,19.37h-.29Z" style="fill: #fff; stroke-width: 0px;"/>
        <path d="m161.82,38c-1.94,0-3.66-.43-5.15-1.29-1.5-.86-2.67-2.03-3.51-3.51-.84-1.48-1.26-3.14-1.26-4.99s.45-3.47,1.34-4.96c.89-1.5,2.09-2.69,3.6-3.58,1.51-.89,3.19-1.34,5.03-1.34,2.23,0,4.1.65,5.61,1.96,1.51,1.3,2.6,3.01,3.27,5.11l-16.32,6.3-.67-1.62,14.94-5.82-.48.67c-.54-1.27-1.36-2.37-2.46-3.29-1.1-.92-2.44-1.38-4.03-1.38-1.43,0-2.72.35-3.87,1.05-1.14.7-2.06,1.64-2.74,2.82-.68,1.18-1.03,2.51-1.03,4.01,0,1.4.33,2.7.98,3.91.65,1.21,1.57,2.18,2.74,2.91,1.18.73,2.53,1.1,4.06,1.1,1.02,0,2-.19,2.93-.57s1.77-.87,2.5-1.48l1.15,1.62c-.89.7-1.92,1.27-3.08,1.72s-2.35.67-3.55.67Z" style="fill: #fff; stroke-width: 0px;"/>
        <path d="m178.91,18.96l.24,5.87-.29-1.15c.54-1.62,1.57-2.9,3.08-3.84,1.51-.94,3.19-1.41,5.03-1.41,1.75,0,3.17.52,4.25,1.55,1.08,1.03,1.64,2.38,1.67,4.03v13.6h-2.29v-12.98c-.03-1.21-.41-2.21-1.15-3.01s-1.8-1.21-3.2-1.24c-1.24,0-2.4.3-3.48.91-1.08.6-1.95,1.45-2.6,2.53-.65,1.08-.98,2.34-.98,3.77v10.02h-2.24v-18.66h1.96Z" style="fill: #fff; stroke-width: 0px;"/>
        <path d="m203.24,10.75h2.29v8.45h5.77v1.81h-5.77v16.61h-2.29v-16.61h-3.96v-1.81h3.96v-8.45Z" style="fill: #fff; stroke-width: 0px;"/>
        <path d="m222.76,38.14c-1.75,0-3.15-.52-4.2-1.55-1.05-1.03-1.61-2.38-1.67-4.03v-13.6h2.24v12.93c.06,1.21.45,2.21,1.17,3.01.72.8,1.79,1.22,3.22,1.29,1.21,0,2.34-.32,3.39-.95,1.05-.64,1.9-1.5,2.55-2.6.65-1.1.98-2.35.98-3.75v-9.93h2.24v18.66h-2l-.24-5.87.33,1.29c-.32.96-.88,1.82-1.69,2.6-.81.78-1.77,1.39-2.86,1.84-1.1.44-2.25.67-3.46.67Z" style="fill: #fff; stroke-width: 0px;"/>
        <path d="m243.14,18.96l.24,5.73-.29-.72c.41-1.15,1.07-2.13,1.96-2.96.89-.83,1.88-1.46,2.98-1.91s2.15-.67,3.17-.67l-.09,2.2c-1.43,0-2.73.32-3.89.95-1.16.64-2.08,1.49-2.77,2.55-.68,1.07-1.03,2.27-1.03,3.6v9.88h-2.24v-18.66h1.96Z" style="fill: #fff; stroke-width: 0px;"/>
        <path d="m264.85,38c-1.94,0-3.66-.43-5.15-1.29-1.5-.86-2.67-2.03-3.51-3.51-.84-1.48-1.26-3.14-1.26-4.99s.45-3.47,1.34-4.96c.89-1.5,2.09-2.69,3.6-3.58,1.51-.89,3.19-1.34,5.03-1.34,2.23,0,4.1.65,5.61,1.96s2.6,3.01,3.27,5.11l-16.32,6.3-.67-1.62,14.94-5.82-.48.67c-.54-1.27-1.36-2.37-2.46-3.29s-2.44-1.38-4.03-1.38c-1.43,0-2.72.35-3.87,1.05s-2.06,1.64-2.74,2.82c-.68,1.18-1.03,2.51-1.03,4.01,0,1.4.33,2.7.98,3.91.65,1.21,1.57,2.18,2.74,2.91,1.18.73,2.53,1.1,4.06,1.1,1.02,0,2-.19,2.93-.57.94-.38,1.77-.87,2.5-1.48l1.15,1.62c-.89.7-1.92,1.27-3.08,1.72s-2.35.67-3.55.67Z" style="fill: #fff; stroke-width: 0px;"/>
        <path d="m284.37,38c-1.08,0-2.21-.2-3.39-.6-1.18-.4-2.13-1.04-2.86-1.93l1.05-1.48c.64.67,1.39,1.2,2.27,1.6s1.81.6,2.79.6c.73,0,1.42-.1,2.08-.31s1.19-.56,1.6-1.07c.41-.51.62-1.19.62-2.05s-.25-1.57-.74-2.05-1.11-.87-1.86-1.17c-.75-.3-1.54-.58-2.36-.83-1.37-.45-2.49-1.05-3.36-1.81-.88-.76-1.31-1.84-1.31-3.25,0-1.02.25-1.91.74-2.67.49-.76,1.17-1.36,2.03-1.79.86-.43,1.83-.64,2.91-.64.99,0,1.96.16,2.93.48.97.32,1.85.86,2.65,1.62l-1,1.57c-.51-.7-1.19-1.18-2.03-1.43-.84-.25-1.58-.4-2.22-.43-.54,0-1.11.11-1.69.33-.59.22-1.08.55-1.48.98s-.6,1-.6,1.69.21,1.33.62,1.79c.41.46.95.83,1.6,1.12.65.29,1.33.56,2.03.81.92.29,1.79.63,2.6,1.03.81.4,1.48.92,2,1.57.53.65.79,1.52.79,2.6s-.24,2.06-.72,2.94c-.48.88-1.19,1.56-2.12,2.05-.94.49-2.12.74-3.56.74Z" style="fill: #fff; stroke-width: 0px;"/>
      </g>
      <g>
        <path d="m96.89,47.18h21.12v5.96h-7.62v25.38h-6.17v-25.38h-7.32v-5.96Z" style="fill: #fff; stroke-width: 0px;"/>
        <path d="m123.97,47.18h21.38v5.96h-15.2v6.69h13.46v5.96h-13.46v6.77h15.8v5.96h-21.97v-31.34Z" style="fill: #fff; stroke-width: 0px;"/>
        <path d="m149.35,78.52l11.16-17.54,2.9,6.22-6.39,11.33h-7.66Zm.43-31.34h7.88l20.44,31.34h-7.96l-20.35-31.34Zm14.05,11.5l6.47-11.5h7.49l-10.77,16.82-3.19-5.32Z" style="fill: #fff; stroke-width: 0px;"/>
        <path d="m181.07,47.18h21.12v5.96h-7.62v25.38h-6.17v-25.38h-7.32v-5.96Z" style="fill: #fff; stroke-width: 0px;"/>
        <path d="m213.69,66.93c0,.99.3,1.95.89,2.85.6.91,1.38,1.65,2.36,2.21.98.57,2.05.85,3.21.85,1.28,0,2.41-.28,3.41-.85.99-.57,1.78-1.31,2.36-2.21s.87-1.86.87-2.85v-19.76h6.09v19.88c0,2.3-.57,4.34-1.7,6.11-1.14,1.77-2.67,3.17-4.6,4.17-1.93,1.01-4.07,1.51-6.43,1.51s-4.45-.5-6.37-1.51c-1.92-1.01-3.44-2.4-4.58-4.17-1.14-1.77-1.7-3.81-1.7-6.11v-19.88h6.17v19.76Z" style="fill: #fff; stroke-width: 0px;"/>
        <path d="m240.34,47.18h21.38v5.96h-15.2v6.69h13.46v5.96h-13.46v6.77h15.8v5.96h-21.97v-31.34Z" style="fill: #fff; stroke-width: 0px;"/>
        <path d="m268.7,47.18h6.17v25.38h14.73v5.96h-20.91v-31.34Z" style="fill: #fff; stroke-width: 0px;"/>
        <path d="m295.99,47.18h6.17v25.38h14.73v5.96h-20.91v-31.34Z" style="fill: #fff; stroke-width: 0px;"/>
        <path d="m323.29,47.18h21.38v5.96h-15.2v6.69h13.46v5.96h-13.46v6.77h15.8v5.96h-21.97v-31.34Z" style="fill: #fff; stroke-width: 0px;"/>
        <path d="m368.38,54.76c-1.19-.65-2.41-1.19-3.64-1.62-1.24-.43-2.39-.64-3.47-.64-1.33,0-2.38.27-3.15.81-.77.54-1.15,1.35-1.15,2.43,0,.74.29,1.4.87,1.98.58.58,1.33,1.1,2.26,1.55s1.88.87,2.87,1.23c.91.34,1.81.75,2.7,1.21.89.47,1.7,1.05,2.41,1.75.71.7,1.28,1.56,1.7,2.6.43,1.04.64,2.31.64,3.81,0,1.59-.41,3.07-1.24,4.43-.82,1.36-2.03,2.46-3.62,3.3-1.59.84-3.55,1.26-5.88,1.26-1.19,0-2.41-.12-3.64-.36-1.23-.24-2.45-.61-3.64-1.11-1.19-.5-2.34-1.13-3.45-1.9l2.73-4.81c.74.54,1.54,1.02,2.41,1.43.87.41,1.74.73,2.62.96.88.23,1.69.34,2.43.34s1.48-.11,2.24-.32,1.38-.58,1.87-1.09c.5-.51.75-1.22.75-2.13,0-.62-.21-1.19-.62-1.7-.41-.51-.97-.98-1.66-1.41s-1.46-.79-2.28-1.11c-.96-.37-1.96-.79-2.98-1.28-1.02-.48-1.98-1.07-2.87-1.77s-1.62-1.56-2.17-2.6c-.55-1.04-.83-2.31-.83-3.81,0-1.82.4-3.39,1.21-4.73.81-1.33,1.95-2.39,3.43-3.17,1.48-.78,3.18-1.21,5.11-1.3,2.53,0,4.58.3,6.15.89,1.58.6,2.99,1.31,4.24,2.13l-2.34,4.73Z" style="fill: #fff; stroke-width: 0px;"/>
      </g>
      <g id="g1">
        <path id="path1" d="m21.04,82.16c-7.66-.68-14.26-4.86-18.01-11.4C.72,66.73-.33,61.99.09,57.53c.75-7.96,5.16-14.62,12.11-18.27,3.76-1.97,7.07-2.71,11.44-2.54,8.67.33,16,5.17,19.68,13,1.38,2.93,2,5.52,2.14,8.95.18,4.24-.79,8.26-2.86,11.91-3.98,6.98-11.02,11.29-18.91,11.57-1.06.04-2.26.04-2.66,0h0Zm-.49-11.98c4.82-1.95,8.92-3.64,9.11-3.77.44-.29,7-18.21,7-19.11,0-1.19-1.26-2.33-2.42-2.19-.75.09-18.2,7.13-18.55,7.48-.32.32-6.74,17.87-6.85,18.73-.1.76.32,1.64.98,2.07,1.05.67,1.29.6,10.72-3.22Zm-8.19-.28c.09-.24,1.22-3.34,2.51-6.89,1.29-3.54,2.39-6.49,2.44-6.55.09-.1,8.59,7.94,8.68,8.21.02.06-2.84,1.27-6.36,2.68-3.52,1.41-6.63,2.66-6.92,2.78l-.52.21.17-.44Zm11.35-11.59c-2.9-2.79-4.23-4.17-4.09-4.25.45-.24,13.53-5.48,13.58-5.43.08.09-4.98,13.82-5.09,13.82-.06,0-2.04-1.86-4.4-4.14h0Zm24.81.75c-.06-.28-.1-.89-.1-1.34,0-3.31-1.69-8.59-3.78-11.86-4.94-7.7-12.76-12.07-21.7-12.13h-2.38v-1.51l1.5-.52c1.3-.45,1.62-.63,2.32-1.35.45-.46.93-1.07,1.07-1.35.61-1.22.04-2.96-1.17-3.58-1.03-.52-6.65-2.16-7.44-2.16-.93,0-1.37.25-3.82,2.22l-1.92,1.54h-1.07c-.59,0-1.07-.04-1.07-.1s.75-1.7,1.67-3.66,1.72-3.72,1.78-3.91c.13-.42-1.24.11,12.74-4.97,11.04-4.02,11.79-4.27,12.34-4.11.32.09,1.28.17,2.13.17,2.09,0,3.01.22,3.94.95.42.33,1.03.76,1.37.97.66.4.81.77.74,1.73-.07.8-.38.86-1.82.38-1.37-.46-2.22-.37-4.49.49-2.35.89-2.84,1.16-3.54,1.93-.69.76-.84,1.1-1.18,2.66-.14.62-.68,2.08-1.2,3.25-.54,1.2-1,2.47-1.05,2.91-.1.88.17,1.99.93,3.83.58,1.41,1.2,2.02,3.21,3.17,3.18,1.82,3.82,1.85,7.05.3,2.09-1.01,2.13-1.02,2.72-.79.48.18.68.4,1.03,1.11.23.49,1.19,1.77,2.12,2.85,1,1.16,2.79,3.6,4.37,5.96,2.63,3.92,2.67,4,2.51,4.55-.2.67-.08,1.34.36,2.06.34.56,1.33,1.16,1.91,1.16s3.24-.95,3.88-1.37c.82-.54,1.03-1.24,1.43-4.83.28-2.48.48-3.53,1.07-5.56.65-2.25.72-2.62.66-3.78-.06-1.06-.17-1.51-.66-2.56-.88-1.89-.85-2.13.79-6.31,2.12-5.4,2.16-5.51,2.16-6.06,0-.85-.6-1.86-1.37-2.31-1.42-.83-3.26-.35-4.57,1.21-.37.44-.75.81-.83.81s-1.18-.94-2.44-2.1c-2.19-2-2.31-2.14-2.55-3.02-.14-.51-.3-1.18-.35-1.5l-.09-.58,2.28-1.22c1.25-.67,3.11-1.59,4.12-2.05,2.12-.96,2.79-1.45,3.92-2.87.57-.72.85-.96.93-.81.14.25,15.25,41.82,15.32,42.15.04.16-4.63,1.93-16.46,6.24-9.08,3.31-16.66,6.06-16.85,6.11-.28.07-.36,0-.44-.43h0Zm11.01-12.96c0-.22-.1-.64-.22-.93-.45-1.06-5.93-8.96-7.47-10.77-.88-1.03-1.8-2.28-2.04-2.77-.83-1.7-2.53-2.65-4.43-2.47-.67.06-1.41.34-2.91,1.08-1.41.69-2.13.97-2.42.91-.46-.09-3.08-1.53-3.54-1.95-.35-.32-1.17-2.46-1.17-3.07,0-.23.41-1.31.91-2.4.52-1.14,1.03-2.56,1.2-3.31.18-.82.41-1.45.62-1.67.3-.31,2.85-1.32,3.92-1.56.22-.05.79.04,1.27.2,2.09.7,5-.06,5.39-1.4.05-.18.03-1.32-.04-2.54-.15-2.51-.2-2.62-1.53-3.29-.43-.22-1.16-.69-1.61-1.05-.45-.36-1.15-.8-1.55-.98s-.65-.35-.56-.38,5.02-1.82,10.95-3.99C61.88.99,65.12-.12,65.2.01c.17.27.15,1.04-.03,1.15-.08.05-.32.54-.52,1.09-.27.73-.63,1.28-1.4,2.09-.57.6-1.1,1.1-1.19,1.1-.29,0-6.64,3.19-7.65,3.84-.55.35-1.12.83-1.27,1.06-.4.62-.48,2.23-.16,3.47.69,2.69.66,2.64,3.82,5.51,1.59,1.44,3.08,2.72,3.31,2.84.27.14.74.19,1.29.15.84-.07.93-.12,2.03-1.22.63-.63,1.21-1.2,1.27-1.26.06-.06-.14.54-.46,1.33-.32.79-1.09,2.74-1.71,4.33-1.07,2.75-1.13,2.97-1.14,4.27-.01,1.29.03,1.46.67,2.83.37.81.68,1.69.68,1.97s-.32,1.62-.71,2.98c-.55,1.89-.79,3.13-1.05,5.29-.18,1.55-.33,2.94-.33,3.07s-.23.33-.51.42c-.65.23-.62.24-.62-.23Zm-53.6-7.36C4.07,33.71.39,23.45.44,23.41c.14-.12,8.09-2.99,8.15-2.94.03.03-.54,1.32-1.26,2.86-1.09,2.31-1.33,2.97-1.39,3.77-.06.82,0,1.05.31,1.52.76,1.11,1.05,1.22,3.45,1.28,2.56.06,2.33.16,5.05-2.06,1.01-.82,1.93-1.53,2.03-1.57.1-.04,1.46.31,3.01.77l2.82.84-.27.36c-.17.22-.78.52-1.58.78-2.45.8-2.99,1.44-3.12,3.7l-.08,1.43-1.36.37c-2.93.8-6.12,2.29-8.3,3.89-.71.52-1.37.99-1.47,1.05-.12.08-.3-.17-.5-.73h0Z" style="fill: #fff; stroke-width: 0px;"/>
      </g>
    </g>
  </g>
</svg>