<?xml version="1.0" encoding="UTF-8"?>
<svg id="Calque_2" data-name="Calque 2" xmlns="http://www.w3.org/2000/svg" viewBox="0 0 350.43 86.4">
  <g id="svg19">
    <g>
      <path id="text19" d="m102.49,29.34c0,2.37-.45,4.39-1.36,6.07-.9,1.68-2.12,2.95-3.65,3.82-1.5.9-3.19,1.38-5.1,1.44h0v-2.11c2.24-.12,4.1-.97,5.56-2.56,1.5-1.59,2.24-3.85,2.24-6.79V2.25h2.29v27.1Zm17.39,5.17c-1.9,0-3.58-.4-5.05-1.21-1.46-.81-2.62-1.9-3.46-3.28-.81-1.41-1.22-2.98-1.22-4.72s.44-3.27,1.31-4.67c.87-1.41,2.04-2.53,3.51-3.37,1.5-.84,3.15-1.26,4.96-1.26,2.18,0,4,.61,5.47,1.84,1.5,1.23,2.57,2.83,3.23,4.81l-15.99,5.93-.65-1.53,14.63-5.48-.47.63c-.53-1.2-1.34-2.23-2.43-3.1-1.06-.87-2.37-1.3-3.93-1.3-1.4,0-2.67.33-3.79.99-1.12.66-2.03,1.54-2.71,2.65-.65,1.11-.98,2.37-.98,3.77,0,1.32.31,2.55.94,3.68.65,1.14,1.56,2.05,2.71,2.74,1.15.69,2.48,1.03,3.97,1.03,1,0,1.95-.18,2.85-.54.94-.36,1.76-.82,2.48-1.39l1.12,1.53c-.87.66-1.89,1.2-3.04,1.62-1.12.42-2.27.63-3.46.63Zm20.57.13c-1.71,0-3.09-.48-4.11-1.44-1.03-.99-1.57-2.26-1.64-3.82v-12.81h2.2v12.18c.06,1.14.44,2.08,1.12,2.83.72.75,1.78,1.15,3.18,1.21,1.18,0,2.29-.3,3.32-.9,1.03-.6,1.85-1.41,2.48-2.43.65-1.05.98-2.23.98-3.55v-9.35h2.2v17.57h-1.96l-.23-5.53.33,1.21c-.31.9-.87,1.72-1.68,2.47-.78.72-1.71,1.29-2.81,1.71-1.06.42-2.18.63-3.37.63h0Zm23.42-10.47l5.42-7.59h2.29l-6.78,9.17-.94-1.57Zm8.09,9.98h-2.62l-13.7-17.57h2.76l13.56,17.57Zm-8.13-7.55l-5.61,7.55h-2.34l6.73-8.94,1.22,1.39Zm35.44,7.91c-1.71,0-3.27-.39-4.68-1.17-1.4-.81-2.52-1.92-3.37-3.33-.81-1.41-1.22-3-1.22-4.76,0-1.89.42-3.52,1.26-4.9.84-1.38,1.98-2.44,3.41-3.19,1.46-.75,3.07-1.12,4.82-1.12s3.4.43,4.96,1.3c1.59.87,2.74,2.01,3.46,3.42l-.37.99V0h2.2v34.15h-2.24v-5.39l.47.99c-.78,1.41-1.95,2.56-3.51,3.46-1.56.87-3.29,1.3-5.19,1.3h0Zm.56-1.84c1.4,0,2.67-.28,3.79-.85,1.12-.6,2.03-1.39,2.71-2.38.69-1.02,1.08-2.16,1.17-3.42v-2.25c-.22-1.14-.7-2.16-1.45-3.06s-1.65-1.6-2.71-2.11c-1.06-.54-2.23-.81-3.51-.81-1.4,0-2.68.31-3.83.94-1.15.63-2.07,1.5-2.76,2.61-.69,1.11-1.03,2.4-1.03,3.86,0,1.38.34,2.64,1.03,3.77.69,1.11,1.6,2.01,2.76,2.7,1.18.66,2.46.99,3.83.99Zm26.18,1.84c-1.9,0-3.58-.4-5.05-1.21-1.46-.81-2.62-1.9-3.46-3.28-.81-1.41-1.22-2.98-1.22-4.72s.44-3.27,1.31-4.67c.87-1.41,2.04-2.53,3.51-3.37,1.5-.84,3.15-1.26,4.96-1.26,2.18,0,4,.61,5.47,1.84,1.5,1.23,2.57,2.83,3.23,4.81l-15.99,5.93-.65-1.53,14.63-5.48-.47.63c-.53-1.2-1.34-2.23-2.43-3.1-1.06-.87-2.37-1.3-3.93-1.3-1.4,0-2.66.33-3.79.99-1.12.66-2.03,1.54-2.71,2.65-.65,1.11-.98,2.37-.98,3.77,0,1.32.31,2.55.94,3.68.65,1.14,1.56,2.05,2.71,2.74,1.15.69,2.48,1.03,3.97,1.03,1,0,1.95-.18,2.85-.54.94-.36,1.76-.82,2.48-1.39l1.12,1.53c-.87.66-1.89,1.2-3.04,1.62-1.12.42-2.28.63-3.46.63h0Z" style="fill: #fff; stroke-width: 0px;"/>
      <g id="text21">
        <path id="path4" d="m103.9,43.31c2.3,0,4.35.3,6.16.9,1.8.57,3.3,1.4,4.51,2.5,1.23,1.07,2.17,2.37,2.8,3.9.63,1.5.95,3.2.95,5.11,0,1.5-.23,3-.7,4.51-.43,1.5-1.17,2.87-2.2,4.1-1,1.23-2.34,2.24-4,3-1.67.73-3.74,1.1-6.21,1.1h-5.21v11.71h-7.26v-36.84h11.16Zm1.25,18.12c1.1,0,2.02-.18,2.75-.55s1.3-.83,1.7-1.4c.43-.57.73-1.15.9-1.75.2-.63.3-1.22.3-1.75,0-.4-.07-.9-.2-1.5-.1-.63-.33-1.27-.7-1.9s-.93-1.17-1.7-1.6c-.73-.43-1.74-.65-3-.65h-5.21v11.11h5.16Zm6.81,4.51l9.11,14.22h-8.46l-9.31-14.02,8.66-.2Zm11.61-4.15c0-2.54.48-4.94,1.45-7.21s2.3-4.27,4-6.01c1.74-1.77,3.74-3.15,6.01-4.15,2.27-1,4.71-1.5,7.31-1.5,2.57,0,4.99.5,7.26,1.5,2.27,1,4.27,2.39,6.01,4.15,1.77,1.74,3.14,3.74,4.1,6.01,1,2.27,1.5,4.67,1.5,7.21s-.5,5.04-1.5,7.31c-.97,2.27-2.34,4.27-4.1,6.01-1.74,1.7-3.74,3.04-6.01,4-2.27.97-4.69,1.45-7.26,1.45s-5.04-.48-7.31-1.45c-2.27-.97-4.27-2.3-6.01-4-1.7-1.74-3.04-3.74-4-6.01s-1.45-4.71-1.45-7.31Zm7.51,0c0,1.64.28,3.17.85,4.61.6,1.4,1.42,2.65,2.45,3.75,1.07,1.07,2.29,1.9,3.65,2.5,1.4.6,2.92.9,4.56.9s3.02-.3,4.35-.9c1.37-.6,2.55-1.43,3.55-2.5,1-1.1,1.79-2.35,2.35-3.75.57-1.43.85-2.97.85-4.61s-.3-3.22-.9-4.66c-.57-1.43-1.37-2.69-2.4-3.75-1-1.1-2.19-1.95-3.55-2.55-1.37-.6-2.85-.9-4.46-.9s-3.09.3-4.46.9c-1.37.6-2.57,1.45-3.6,2.55-1.03,1.07-1.84,2.32-2.4,3.75-.57,1.43-.85,2.99-.85,4.66h0Zm37.39-18.47h7.26v29.83h17.32v7.01h-24.58v-36.84Zm32.09,0h25.13v7.01h-17.87v7.86h15.82v7.01h-15.82v7.96h18.57v7.01h-25.83v-36.84Z" style="fill: #fff; stroke-width: 0px;"/>
        <path id="path5" d="m248.2,69.15c0-2.53.3-4.89.89-7.1.62-2.21,1.4-4.16,2.34-5.87.97-1.73,1.97-3.16,3.01-4.28l4.28,1.97c-.97,1.12-1.83,2.43-2.6,3.94-.77,1.49-1.38,3.18-1.82,5.09-.45,1.88-.67,3.97-.67,6.25s.22,4.37.67,6.28c.45,1.88,1.05,3.57,1.82,5.06.77,1.49,1.64,2.79,2.6,3.9l-4.28,2.01c-1.04-1.14-2.04-2.58-3.01-4.31-.94-1.71-1.72-3.66-2.34-5.84-.59-2.21-.89-4.57-.89-7.1Zm24.2-16.36c1.71,0,3.23.22,4.57.67,1.34.42,2.45,1.04,3.35,1.86.92.79,1.61,1.76,2.08,2.9.47,1.12.71,2.38.71,3.79,0,1.12-.17,2.23-.52,3.35-.32,1.12-.87,2.13-1.64,3.05-.74.92-1.73,1.66-2.97,2.23-1.24.55-2.78.82-4.61.82h-3.87v8.7h-5.39v-27.36h8.29Zm.93,13.46c.82,0,1.5-.14,2.04-.41.55-.27.97-.62,1.26-1.04.32-.42.55-.86.67-1.3.15-.47.22-.9.22-1.3,0-.3-.05-.67-.15-1.12-.07-.47-.25-.94-.52-1.41s-.69-.87-1.26-1.19c-.55-.32-1.29-.48-2.23-.48h-3.87v8.25h3.83Zm5.06,3.35l6.77,10.56h-6.28l-6.91-10.41,6.43-.15Zm19.52-16.8c2.26,0,4.16.38,5.73,1.15,1.56.74,2.75,1.81,3.57,3.2.82,1.36,1.23,2.99,1.23,4.87,0,1.12-.17,2.24-.52,3.38-.32,1.12-.86,2.13-1.6,3.05-.72.92-1.7,1.66-2.94,2.23-1.21.55-2.71.82-4.5.82h-3.87v8.66h-5.39v-27.36h8.29Zm.93,13.46c.82,0,1.5-.14,2.04-.41.55-.3.97-.66,1.26-1.08.32-.45.55-.9.67-1.38.15-.47.22-.88.22-1.23,0-.27-.05-.63-.15-1.08-.07-.47-.25-.94-.52-1.41-.27-.47-.69-.87-1.26-1.19-.55-.32-1.29-.48-2.23-.48h-3.87v8.25h3.83Zm36.62,11.15c-.32.35-.83.71-1.52,1.08-.69.35-1.5.67-2.42.97-.89.3-1.81.53-2.75.71-.94.2-1.83.3-2.68.3-2.23,0-4.24-.32-6.02-.97-1.78-.67-3.31-1.59-4.57-2.75-1.26-1.19-2.23-2.59-2.9-4.2-.67-1.61-1-3.37-1-5.28,0-2.5.37-4.67,1.12-6.51.77-1.86,1.8-3.4,3.09-4.61,1.31-1.24,2.81-2.16,4.5-2.75,1.71-.59,3.49-.89,5.35-.89,1.76,0,3.37.2,4.83.59,1.46.37,2.7.84,3.72,1.41l-1.75,5.02c-.45-.25-1.04-.5-1.78-.74s-1.5-.45-2.27-.59c-.77-.17-1.45-.26-2.04-.26-1.49,0-2.8.19-3.94.56-1.14.37-2.11.93-2.9,1.67-.77.74-1.35,1.67-1.75,2.79-.4,1.09-.59,2.37-.59,3.83,0,1.29.22,2.45.67,3.49.45,1.02,1.07,1.88,1.86,2.6.82.72,1.77,1.26,2.86,1.64,1.12.37,2.34.56,3.68.56.77,0,1.47-.05,2.12-.15.64-.12,1.19-.31,1.64-.56v-3.31h-4.72v-5.2h10.19v11.56Zm14.98-8.25c0,2.53-.31,4.89-.93,7.1-.59,2.21-1.36,4.16-2.3,5.87-.94,1.73-1.95,3.16-3.01,4.28l-4.28-1.97c.97-1.12,1.83-2.43,2.6-3.94.77-1.49,1.38-3.17,1.82-5.06.45-1.91.67-4,.67-6.28s-.22-4.36-.67-6.25c-.45-1.91-1.05-3.61-1.82-5.09-.77-1.51-1.64-2.81-2.6-3.9l4.28-2.01c1.07,1.12,2.07,2.54,3.01,4.28.94,1.73,1.71,3.71,2.3,5.91.62,2.18.93,4.54.93,7.06Z" style="fill: #fff; stroke-width: 0px;"/>
      </g>
      <path id="path1" d="m33.75,2.2L3.44,21.54l30.31-.65V2.2Zm2.76,0v18.68l30.26.65L36.51,2.2Zm7.42,8.61c.48.01,1,.13,1.58.36.4.16.71.33.96.53.26.2.48.43.64.65.26.35.38.7.45,1.08.41-.3.9-.51,1.41-.66.59-.13,1.24-.06,1.91.21.79.31,1.4.72,1.77,1.22.38.5.6,1.03.69,1.57.05.29.05.59.02.86-.02.29-.1.57-.21.81-.09.26-.21.52-.4.74-.17.22-.36.45-.6.62-.43.34-.95.57-1.57.67-.62.1-1.33,0-2.12-.31-.69-.28-1.21-.65-1.55-1.15-.28-.45-.5-.95-.59-1.45-.34.26-.72.43-1.19.5-.52.1-1.12,0-1.84-.28-.41-.17-.77-.36-1.07-.57-.31-.22-.55-.45-.74-.7-.36-.44-.55-.92-.6-1.44-.03-.5.03-.97.19-1.4.09-.22.22-.44.36-.68.17-.19.34-.38.53-.56.41-.3.9-.51,1.46-.61.15-.02.31-.03.48-.02h0Zm-17.07.91c.83,0,1.88.61,1.55,1.73-.69,1.19-1.77,2.1-3.1,2.55-1.27.43-2.58.76-3.79.33-.52-.4-2.24-1.62-2.58-.59-.21,2.63.17,2.24-1.89,3.07v-4.2c1.72-.67,3.62-.77,5.34.22,1.38.72,3.27.26,4.13-1,.17-1.12-1.38-.77-2.07-.57-.52-1.43,1.34-1.45,2.24-1.53.05,0,.1,0,.17,0h0Zm17.31.77c-.15,0-.31.02-.48.06-.41.11-.72.37-.88.8-.17.42-.14.82.1,1.18.24.38.57.64,1.03.82.5.2.93.24,1.38.13.43-.1.74-.37.9-.78.17-.43.14-.83-.12-1.21-.24-.37-.6-.65-1.1-.85-.28-.11-.55-.17-.83-.16h0Zm4.98,1.75c-.19,0-.38.05-.55.11-.46.2-.77.51-.93.93-.17.43-.15.88.07,1.31.21.45.62.79,1.24,1.05.5.19,1,.22,1.48.1.48-.14.81-.46,1-.96.19-.5.19-.95-.09-1.38-.26-.43-.64-.75-1.14-.95-.4-.15-.76-.22-1.08-.21Zm-16.43,9.42L.52,24.37l12.4,33.22,19.8-33.92Zm4.82,0l19.87,33.92,12.26-33.22-32.13-.71Zm-2.41,1.29L14.98,59.43h40.31l-20.17-34.48Zm20.08,2.82l3.31,7.32,1.24-.57.71,1.58-1.22.55,1.08,2.41-1.79.81-1.08-2.41-5.2,2.34-.67-1.5c.24-1.58.76-4.79,1.53-9.59l.31-.14.14-.05.53-.26,1.12-.5Zm-38.9,2.08h.22c.5,0,.95.09,1.34.28,1.19.55,1.84,1.45,2.01,2.63.15,1.19-.17,2.63-.98,4.32-.81,1.67-1.72,2.84-2.72,3.5-1.03.65-2.12.71-3.29.17-1.02-.48-1.62-1.15-1.83-2.05-.21-.91-.15-1.67.15-2.32l1.65.76c-.15.29-.19.65-.14,1.08.05.45.33.77.86,1.03.53.24,1.05.22,1.58-.03.53-.24,1.08-.9,1.67-1.95.09-.17.19-.36.29-.57-.31.21-.62.34-.95.45-.55.15-1.14.09-1.77-.21-.74-.34-1.29-.95-1.64-1.83-.36-.86-.26-1.84.28-2.96l.02-.02c.19-.4.41-.76.69-1.03.24-.29.53-.53.83-.72.53-.33,1.1-.52,1.7-.53h0Zm-16.31.88v29.83l10.68-.98L0,30.74Zm70.26,0l-10.66,28.84,10.66.98v-29.83Zm-15.83.1c-.28,1.67-.62,3.87-1.07,6.58l3.38-1.52-1.41-3.08-.9-1.98Zm-37.83.71c-.26.02-.5.07-.74.19-.52.24-.88.6-1.12,1.12-.28.59-.36,1.12-.21,1.65.15.52.46.88.93,1.1.48.22.98.22,1.46,0,.48-.22.88-.62,1.17-1.21.24-.5.29-1.02.17-1.55-.14-.53-.45-.91-.93-1.14-.24-.12-.5-.17-.74-.17Zm17.77,8.21h2.69v14.5h-2.69v-12.09c-1.52,1-2.63,1.65-3.34,1.93l-1.08.48v-2.41l1.08-.48c.71-.31,1.83-.93,3.34-1.93Zm34.73,1.07h.09c.62.05.98,1.21.81,1.91-.02,3.2.19,6.75-1.67,9.52-.15.21-.38.33-.64.43-1-.71-.52-1.95.21-2.67.17,1.26.95-.5,1.14-.96.22-.55.62-3.05-.17-1.76.12.69-1.17,2.26-1.6,1.39-.86-2.48,0-5.25,1.21-7.49.22-.24.43-.36.64-.38h0Zm-67.73.15c.17.02.17.17.34.62v10.52c-1.21-1.21-.52-3-.69-4.55-.17-1.31.34-2.81-.17-4-.86-.29-1.03-2.93-.52-2.19.69.83.69-.46,1.03-.41h0Zm67.31,1.83c-.17,0-.34.17-.48.64-.28,1.02-.57,2.31-.12,3.32.88-.34.93-1.65,1.14-2.5.21-.57-.15-1.45-.53-1.46ZM3.96,44.89c.69-.09,1.21,1.24,1.55,1.86.56,2.19.73,2.39.52,2.89-.86-.64-.84-1.27-.92-1.53-.17-.52-.28-.91-.63-1.45-.58.48-.52,1.57-.52,2.31,0-.28.17-.4.69-.12,1.21,2.17,2.07,5.01,1.21,7.49l-.34.19c-1.89-1-2.07-3.34-2.41-5.17-.17-2.12-.17-4.25.34-6.32.17-.1.34-.15.52-.15Zm61.68.83c.77.05.14,6.06.14,9.47l-.76,1.15v-7.28c-.79,1.29-1.57,1.57-1.05-.15.84-2.31,1.36-3.2,1.67-3.19Zm-61.34,4.51c-.69.81-.34,2.2-.17,3.17.34.95,1.21,1.76,1.03.28,0-.98.17-2.03-.52-2.82,0-.1-.17-.33-.34-.62Zm11.37,11.95l19.46,21.2,19.42-21.2H15.67Zm-3.62.05l-9.3.84,11.02,7.08c-.34-.46-.86-.98-1.21-1.52-.86-1.19-1.72-2.34-3.27-2.86-1.55-1.12-.69-.91.52-.45-.17-.31-.17-.45,0-.45.34-.03,1.55.72,1.72,1.08l4.31,5.44,11.19,7.18-14.98-16.36Zm46.19,0l-7.3,7.97c1.1-.53,1.95-1.46,2.93-2.14.41-.24.64-.33.74-.33.36,0-.93,1.22-1.33,1.77-1.62,1.69-2.76,3.96-4.93,5.01l3.25-4.22c-.4.22-1.03.55-1.41.71l-6.94,7.58,12.83-8.2c.93-1.15.33-.96-.98-.15l-1.96,1.03c1.96-2.36,4.62-4.06,6.89-6.13.55-.26,1.64-.96,1.89-.98.14-.02.03.17-.48.72l-2.17,2.76c1.72-1.31.15.67-.77.95-.12.17-.24.34-.38.5l9.39-6.01-9.26-.84Zm-27.26,2.88c.24,0,.46.02.71.03v7.47h-2.24v-5.17c-.86-.24-1.89.29-2.76-.05-.69-.5.17-1.17.86-1.02.52-.02,1.21.03,1.55-.55.59-.53,1.21-.72,1.88-.72h0Zm5.7.12s.17.02.17.03c.69.14,1.21.05,1.72.07h4.41c.26.52.14,1.34-.57,1.36-.67.09-1.34-.07-2.01.03-.81.03-1.65-.31-2.51.07-.52.29-.69,1.46.17,1.05.69-.19,1.26-.31,1.86-.15,1.21.19,2.58.5,3.29,1.58.36.53.46,1.26.12,1.84-.62,1.12-2,1.45-3.15,1.67-.41.07-.81.24-1.26.21-1.21-.1-2.58-.19-3.44-1.22-.52-.43-.52-1.22.34-1.15.52-.02,1.38-.07,1.72.6.52.64,1.55.52,2.24.34.62-.09,1.29-.45,1.31-1.15.1-.72-.53-1.24-1.19-1.34-.98-.4-2.01.24-3.05.31-.52.19-1.55.09-1.55-.76.17-.72.52-1.39.52-2.15,0-.52.34-1.21.86-1.24h0Zm22.99.86s-1.21,1-1.7,1.39l-2.72,2.26c1.48-.76,2.84-1.65,3.84-3,.45-.45.6-.64.59-.65h0Zm-42.62,2.45c.52,0,1.38.79,1.72,1.21l4.48,5.36c-1.38-.36-2.24-1.22-3.1-2.36-1.03-1.26-1.89-2.86-3.62-3.38-1.55-.86-.86-1.1.34-.38,0-.33,0-.45.17-.45h0Z" style="fill: #fff; stroke-width: 0px;"/>
    </g>
  </g>
</svg>