<svg xmlns="http://www.w3.org/2000/svg" viewBox="0 0 341.82 111.97">

        <path d="M0,55.45v-.1L41.43,3.93h.1V44.68h7.74V55.45H41.53v14.2H27.23V55.45ZM27.91,35.18,20.37,45.27,19,44.68h8.23V34.49Z" fill="#fff"/>

          <path d="M82.44,4.6C105.85,2.1,114.1,34.41,93.54,44c-4.67,2.42-14.2,1.72-19.76,1.8v24H65V4.6Zm.91,32.84C100,38.69,100.77,12,83.89,13H73.78V37.44Z" fill="#fff"/>
          <path d="M116.64,0H125V69.83h-8.39Z" fill="#fff"/>
          <path d="M155.08,70.74c-15.75,1-23.34-18-16.15-30.36,5.9-11.49,24.67-12.94,30.94-1.4l-.54,1.44.81-7.94h7.76V69.83h-8.39V60.09l.9,2.17C167.6,67.34,161.19,70.82,155.08,70.74Zm2.25-6.95c13.43,1,17.16-20,5.32-24.77C143.61,31.05,137.26,62.88,157.33,63.79Z" fill="#fff"/>
          <path d="M204.79,70.11l-18-37.63h9.48l15.07,33.39Zm-9.2,17.68,24.63-55.31H228L203.89,87.79Z" fill="#fff"/>
          <path d="M253.42,70.74c-15.85,1.16-25.9-16.8-17.77-29.87,8.87-15.3,34.18-12.29,36.81,6.32L241.69,58l-2-5L265,43.85,263.17,45c-2.69-9.27-16.51-9.8-20.58-1.17-6.8,13.08,8.43,25.94,20,16.42l3.88,6.23A24.53,24.53,0,0,1,253.42,70.74Z" fill="#fff"/>
          <path d="M290.5,32.48l.82,10.83-.46-1.45C293.27,36,300.11,31.38,306.11,31l-.45,8.3c-17.21-.82-14.34,19.23-14.34,30.49H283V32.48Z" fill="#fff"/>
          <path d="M327.4,70.56c-5,0-10.61-1.74-13.89-5.6L317,60.09c4.1,6.27,21.07,6.34,15.2-3.43-4-3.18-11.6-3.34-14.66-7.49-10.34-15,13.18-23.55,23.46-13.89l-3.34,5.23c-6.21-7.77-22.14-.25-9.52,5.82C346.47,48.66,346.52,70.56,327.4,70.56Z" fill="#fff"/>

          <path d="M27.33,109.61C-3.79,123.49-4,71,26.41,83.86l-.58,1.25c-27.07-12-27.77,35.28.08,23.63V99.79H19V98.45h8.32Z" fill="#fff"/>
          <path d="M42.05,111.54,54.43,80.72h.12l12.34,30.82H65.3L54.05,83l1-.46-11.54,29Zm5.56-11.75H61.37l.33,1.34H47.32Z" fill="#fff"/>
          <path d="M82.48,111.54V81.43h0l14.25,20.24-.62,0,14.21-20.2h0v30.11H109V84.82l.12.67L96.45,103.34h-.08L83.65,85.49l.26-.63v26.68Z" fill="#fff"/>
          <path d="M128.48,82h17.89V83.4H129.9V96h14.84v1.34H129.9v12.84H147v1.38H128.48Z" fill="#fff"/>
          <path d="M177.65,84.74c-5.13-3.48-17.36-1.16-12.65,6.71,3.7,3.92,11.07,3.49,13.74,8.67,4.41,11-10.62,14.87-17.56,8.74l.66-1.21c8.65,7.83,23.71-1.8,12.19-10-18.66-4.21-12.31-21.08,4.2-14Z" fill="#fff"/>

</svg>
