<svg xmlns="http://www.w3.org/2000/svg" viewBox="0 0 176.03 109.87"><path d="M1.12,69.83,29.63,1.89h.54L58.59,69.83h-10L27.28,15.61l6.23-4.06L9.69,69.83ZM17.81,45.11H42.08L45,52.69H15.28Z" fill="#fff"/><path d="M68.79,0h8.39V69.83H68.79Z" fill="#fff"/><path d="M91.7,0h8.39V69.83H91.7Z" fill="#fff"/><path d="M23.92,107.61a14.41,14.41,0,0,1-1.84.88,17.81,17.81,0,0,1-2.24.73,22.19,22.19,0,0,1-2.4.49,17.12,17.12,0,0,1-2.3.16,16.16,16.16,0,0,1-6.23-1.15,13.76,13.76,0,0,1-4.79-3.2,14.09,14.09,0,0,1-3-4.74A15.74,15.74,0,0,1,0,95a15.3,15.3,0,0,1,4.45-10.9,15.22,15.22,0,0,1,14.87-3.78A15.62,15.62,0,0,1,23,81.86l-.59,1.25a11.68,11.68,0,0,0-2.19-1.06,14.81,14.81,0,0,0-2.47-.69,13.09,13.09,0,0,0-2.57-.25,13.51,13.51,0,0,0-12.67,8.4,13.81,13.81,0,0,0-1,5.39,14.23,14.23,0,0,0,1,5.33,13.07,13.07,0,0,0,2.73,4.31,12.64,12.64,0,0,0,4.29,2.91,14.55,14.55,0,0,0,5.6,1,17.52,17.52,0,0,0,3.89-.46,13.4,13.4,0,0,0,3.56-1.29V97.79H15.6V96.45h8.32Z" fill="#fff"/><path d="M38.63,109.54,51,78.72h.13l12.33,30.82H61.88L50.63,81l1-.46-11.54,29ZM44.2,97.79H58l.34,1.34H43.9Z" fill="#fff"/><path d="M79.07,109.54V79.43h0L93.37,99.67l-.63,0L107,79.43h0v30.11h-1.38V82.82l.12.67L93,101.34H93L80.24,83.49l.25-.63v26.68Z" fill="#fff"/><path d="M125.06,80H143V81.4H126.48V94h14.85v1.34H126.48v12.84h17.06v1.38H125.06Z" fill="#fff"/><path d="M174.23,82.74a19.15,19.15,0,0,0-3.09-1.11,14.11,14.11,0,0,0-3.81-.52,7.42,7.42,0,0,0-4.93,1.54,4.86,4.86,0,0,0-1.84,3.89,4.23,4.23,0,0,0,1,2.91,8.59,8.59,0,0,0,2.7,1.94c1.12.53,2.3,1,3.55,1.55,1,.36,2,.77,2.95,1.21a13.49,13.49,0,0,1,2.64,1.61,7,7,0,0,1,1.9,2.36,7.78,7.78,0,0,1,.71,3.47,8,8,0,0,1-1.17,4.37,7.85,7.85,0,0,1-3.22,2.89,10.39,10.39,0,0,1-4.68,1,13.58,13.58,0,0,1-4.14-.58,17.26,17.26,0,0,1-3.12-1.3c-.85-.47-1.5-.85-1.94-1.13l.67-1.21a16.8,16.8,0,0,0,2.23,1.34,18.38,18.38,0,0,0,2.91,1.15,11,11,0,0,0,3.18.48,9.26,9.26,0,0,0,3.72-.78,7,7,0,0,0,2.95-2.32,6.36,6.36,0,0,0,1.15-3.88,5.87,5.87,0,0,0-1.11-3.75,8.25,8.25,0,0,0-2.84-2.25A35.65,35.65,0,0,0,167,94.07c-1-.36-1.89-.75-2.83-1.15a14.86,14.86,0,0,1-2.55-1.42,6.23,6.23,0,0,1-1.81-2,5.5,5.5,0,0,1-.67-2.8,6.1,6.1,0,0,1,1.06-3.58,7.16,7.16,0,0,1,2.89-2.38,10,10,0,0,1,4.12-.9,17.67,17.67,0,0,1,4,.5,16.43,16.43,0,0,1,3.68,1.3Z" fill="#fff"/></svg>