<svg xmlns="http://www.w3.org/2000/svg" viewBox="0 0 336.39 105.78"><path d="M.37,3.34H6.71V44.55h24v6.08H.37Z" fill="#fff"/><path d="M50.8,51.28a14.58,14.58,0,0,1-6.9-1.63A12,12,0,0,1,39,44.84a15.48,15.48,0,0,1-1.8-7.75,15.51,15.51,0,0,1,1.9-7.82,13.21,13.21,0,0,1,5.07-5.07,14.18,14.18,0,0,1,7-1.76,11.4,11.4,0,0,1,6.41,1.73,12.61,12.61,0,0,1,4,4.09l-.39,1,.58-5.76h5.63V50.63H61.27V43.57l.65,1.57a6.56,6.56,0,0,1-1.14,1.66,13.12,13.12,0,0,1-2.36,2.06,13.9,13.9,0,0,1-3.37,1.74A12.35,12.35,0,0,1,50.8,51.28Zm1.64-5a9.82,9.82,0,0,0,4.12-.85,8.32,8.32,0,0,0,3-2.39,9,9,0,0,0,1.67-3.7V34a8.26,8.26,0,0,0-1.84-3.44,9.1,9.1,0,0,0-3.14-2.29,9.9,9.9,0,0,0-4-.82,8.76,8.76,0,0,0-4.45,1.18,8.92,8.92,0,0,0-3.24,3.27,9.71,9.71,0,0,0-1.21,4.91,9.38,9.38,0,0,0,1.25,4.77A9.13,9.13,0,0,0,47.92,45,8.7,8.7,0,0,0,52.44,46.25Z" fill="#fff"/><path d="M85.47,51.15a16,16,0,0,1-5.59-1,10.86,10.86,0,0,1-4.48-3L78,43.57A12.68,12.68,0,0,0,81.45,46a8.62,8.62,0,0,0,3.56.82,8.48,8.48,0,0,0,2.42-.33,3.89,3.89,0,0,0,1.8-1.08A3.32,3.32,0,0,0,89,41.08a7.13,7.13,0,0,0-2.42-1.37c-1-.35-2-.68-3.11-1a11.66,11.66,0,0,1-5.1-3.07,6.87,6.87,0,0,1-1.77-4.77,7.93,7.93,0,0,1,1.08-4,8.21,8.21,0,0,1,3.21-3,10.77,10.77,0,0,1,5.26-1.18,17,17,0,0,1,5,.69,12.7,12.7,0,0,1,4.19,2.26l-2.42,3.79a7.18,7.18,0,0,0-2.82-1.83,10.67,10.67,0,0,0-2.94-.66,5.12,5.12,0,0,0-2.13.33,4.26,4.26,0,0,0-1.66,1.11,2.44,2.44,0,0,0-.66,1.7,2.91,2.91,0,0,0,.92,2.23A6.42,6.42,0,0,0,86,33.59c1,.33,2,.66,2.92,1a14.54,14.54,0,0,1,3.59,1.57,8.23,8.23,0,0,1,2.52,2.42,6.43,6.43,0,0,1,1,3.6,9.07,9.07,0,0,1-1.14,4.48,8.09,8.09,0,0,1-3.47,3.27A12.72,12.72,0,0,1,85.47,51.15Z" fill="#fff"/><path d="M107.12,11.64h6.08v12h7.46v4.77H113.2V50.63h-6.08V28.45h-5V23.68h5Z" fill="#fff"/><path d="M162.79,3.34a20.48,20.48,0,0,1,8.83,1.73,13,13,0,0,1,5.66,5,14.93,14.93,0,0,1,2,7.92,18.33,18.33,0,0,1-.85,5.53,14,14,0,0,1-2.71,4.9,13.19,13.19,0,0,1-4.88,3.5,18.36,18.36,0,0,1-7.32,1.31h-7v17.4h-6.35V3.34Zm.65,23.81a10.33,10.33,0,0,0,4.64-.92A7.75,7.75,0,0,0,171,23.91a9.43,9.43,0,0,0,1.51-3,10.31,10.31,0,0,0,.46-2.81,10.65,10.65,0,0,0-.46-3,7.84,7.84,0,0,0-1.54-2.81,8.17,8.17,0,0,0-2.81-2.09,10,10,0,0,0-4.29-.82h-7.32V27.15Z" fill="#fff"/><path d="M187.58,0h6.08V50.63h-6.08Z" fill="#fff"/><path d="M215.44,51.28a14.58,14.58,0,0,1-6.9-1.63,11.88,11.88,0,0,1-4.9-4.81,15.48,15.48,0,0,1-1.8-7.75,15.51,15.51,0,0,1,1.89-7.82,13.27,13.27,0,0,1,5.07-5.07,14.18,14.18,0,0,1,7-1.76,11.38,11.38,0,0,1,6.41,1.73,12.61,12.61,0,0,1,4,4.09l-.39,1,.59-5.76H232V50.63h-6.08V43.57l.65,1.57a6.3,6.3,0,0,1-1.14,1.66,13.12,13.12,0,0,1-2.36,2.06,13.9,13.9,0,0,1-3.37,1.74A12.35,12.35,0,0,1,215.44,51.28Zm1.64-5a9.79,9.79,0,0,0,4.12-.85,8.32,8.32,0,0,0,3-2.39,8.85,8.85,0,0,0,1.67-3.7V34a8.36,8.36,0,0,0-1.83-3.44,9.29,9.29,0,0,0-3.14-2.29,10,10,0,0,0-4.06-.82,8.74,8.74,0,0,0-7.68,4.45A9.61,9.61,0,0,0,208,36.83a9.38,9.38,0,0,0,1.24,4.77,9.21,9.21,0,0,0,3.33,3.4A8.7,8.7,0,0,0,217.08,46.25Z" fill="#fff"/><path d="M251.48,50.83l-13-27.28h6.87l10.92,24.2Zm-6.67,12.82,17.86-40.1h5.63l-17.47,40.1Z" fill="#fff"/><path d="M286.74,51.28a16.18,16.18,0,0,1-8-1.86,13,13,0,0,1-5.13-5.1,15.05,15.05,0,0,1-1.8-7.43,13.43,13.43,0,0,1,2-7.26,15.22,15.22,0,0,1,5.43-5.23,14.84,14.84,0,0,1,7.58-2,12.86,12.86,0,0,1,8.9,3.14,15.88,15.88,0,0,1,4.78,8.63l-22.31,7.85-1.44-3.6,18.32-6.67-1.31.85a9.15,9.15,0,0,0-2.62-3.76,7,7,0,0,0-4.77-1.6A8.28,8.28,0,0,0,282,28.49a8.44,8.44,0,0,0-3.08,3.3,10.06,10.06,0,0,0-1.11,4.78A9.93,9.93,0,0,0,279,41.5a8.6,8.6,0,0,0,3.24,3.34,9,9,0,0,0,4.67,1.21,9.46,9.46,0,0,0,3.44-.65,14.43,14.43,0,0,0,3.11-1.7l2.81,4.51a18.33,18.33,0,0,1-4.55,2.22A15.28,15.28,0,0,1,286.74,51.28Z" fill="#fff"/><path d="M319.19,51.28a13.1,13.1,0,0,1-6.77-1.79,12.76,12.76,0,0,1-4.81-5.11,15.87,15.87,0,0,1-1.77-7.62A15,15,0,0,1,307.71,29a12.58,12.58,0,0,1,5.07-4.9,15,15,0,0,1,7.19-1.7,14.1,14.1,0,0,1,6.12,1.37,11,11,0,0,1,4.54,3.79l-.26,2.16V0h6V50.63h-6.08V43.89l.65,1.7a14.81,14.81,0,0,1-4.9,4.09A14.39,14.39,0,0,1,319.19,51.28Zm1.89-5.16a10.08,10.08,0,0,0,4.32-.89,8.47,8.47,0,0,0,3.14-2.45,9.56,9.56,0,0,0,1.77-3.73V34a8.06,8.06,0,0,0-1.87-3.43,10,10,0,0,0-3.2-2.36,9.6,9.6,0,0,0-4.16-.88,8.77,8.77,0,0,0-4.54,1.21,9.18,9.18,0,0,0-3.31,3.3,10,10,0,0,0,0,9.65,9.54,9.54,0,0,0,3.34,3.4A8.54,8.54,0,0,0,321.08,46.12Z" fill="#fff"/><path d="M23.92,103.53a14.44,14.44,0,0,1-1.84.87,19.6,19.6,0,0,1-2.24.74c-.79.2-1.6.36-2.4.48a17.12,17.12,0,0,1-2.3.16,16.16,16.16,0,0,1-6.23-1.15,13.87,13.87,0,0,1-4.79-3.19,14.23,14.23,0,0,1-3-4.75A15.74,15.74,0,0,1,0,90.86,15.34,15.34,0,0,1,4.45,80a15.05,15.05,0,0,1,10.64-4.37,15.06,15.06,0,0,1,4.23.59A15.62,15.62,0,0,1,23,77.77L22.41,79A12.34,12.34,0,0,0,20.22,78a15.84,15.84,0,0,0-2.47-.69A13.09,13.09,0,0,0,15.18,77a13.56,13.56,0,0,0-9.77,4,13.82,13.82,0,0,0-3.95,9.78,14.29,14.29,0,0,0,1,5.34,13.13,13.13,0,0,0,2.73,4.3,12.64,12.64,0,0,0,4.29,2.91,14.37,14.37,0,0,0,5.6,1,17.52,17.52,0,0,0,3.89-.46,13.06,13.06,0,0,0,3.56-1.29v-9H15.6V92.36h8.32Z" fill="#fff"/><path d="M38.63,105.45,51,74.63h.13l12.33,30.82H61.88L50.63,76.93l1-.46-11.54,29ZM44.2,93.7H58L58.29,95H43.9Z" fill="#fff"/><path d="M79.07,105.45V75.34h0L93.37,95.58l-.63,0L107,75.34h0v30.11h-1.38V78.73l.12.67L93,97.25H93L80.24,79.4l.25-.63v26.68Z" fill="#fff"/><path d="M125.06,75.93H143v1.38H126.48V89.89h14.85v1.34H126.48v12.84h17.06v1.38H125.06Z" fill="#fff"/><path d="M174.23,78.65a19.15,19.15,0,0,0-3.09-1.11,14.11,14.11,0,0,0-3.81-.52,7.42,7.42,0,0,0-4.93,1.54,4.88,4.88,0,0,0-1.84,3.89,4.23,4.23,0,0,0,1,2.91,8.59,8.59,0,0,0,2.7,1.94c1.12.53,2.3,1,3.55,1.55,1,.36,2,.77,2.95,1.21a13.49,13.49,0,0,1,2.64,1.61,7,7,0,0,1,1.9,2.36A7.78,7.78,0,0,1,176,97.5a8,8,0,0,1-1.17,4.37,7.78,7.78,0,0,1-3.22,2.89,10.39,10.39,0,0,1-4.68,1,13.58,13.58,0,0,1-4.14-.58,16.57,16.57,0,0,1-3.12-1.3c-.85-.47-1.5-.85-1.94-1.13l.67-1.21a16.8,16.8,0,0,0,2.23,1.34,18.38,18.38,0,0,0,2.91,1.15,11,11,0,0,0,3.18.48,9.43,9.43,0,0,0,3.72-.77,7.17,7.17,0,0,0,2.95-2.32,6.41,6.41,0,0,0,1.15-3.89,5.89,5.89,0,0,0-1.11-3.75,8.25,8.25,0,0,0-2.84-2.25A38,38,0,0,0,167,90c-1-.36-1.89-.75-2.83-1.15a14.86,14.86,0,0,1-2.55-1.42,6.23,6.23,0,0,1-1.81-2,5.5,5.5,0,0,1-.67-2.8A6.1,6.1,0,0,1,160.16,79a7.16,7.16,0,0,1,2.89-2.38,10,10,0,0,1,4.12-.9,17.67,17.67,0,0,1,4,.5,16.43,16.43,0,0,1,3.68,1.3Z" fill="#fff"/></svg>