<?xml version="1.0" encoding="UTF-8"?>
<svg id="Calque_2" data-name="Calque 2" xmlns="http://www.w3.org/2000/svg" viewBox="0 0 378.23 82.27">
  <g id="svg19">
    <g>
      <g>
        <g>
          <path d="m127.95,77.06c-.4.43-1.02.86-1.87,1.3-.85.44-1.83.84-2.94,1.21-1.11.37-2.24.66-3.4.89-1.16.23-2.25.34-3.28.34-2.73,0-5.2-.4-7.38-1.21-2.19-.8-4.06-1.93-5.61-3.37-1.55-1.44-2.73-3.15-3.55-5.13s-1.23-4.13-1.23-6.47c0-3.07.46-5.73,1.39-8s2.19-4.15,3.78-5.65c1.6-1.5,3.43-2.62,5.51-3.35,2.08-.73,4.26-1.09,6.54-1.09,2.16,0,4.13.24,5.92.71,1.79.47,3.31,1.06,4.56,1.75l-2.14,6.15c-.55-.3-1.28-.61-2.19-.91-.91-.3-1.84-.55-2.78-.75s-1.78-.3-2.51-.3c-1.82,0-3.43.23-4.83.68s-2.57,1.14-3.53,2.05-1.68,2.04-2.17,3.39c-.49,1.35-.73,2.92-.73,4.72,0,1.58.27,3,.82,4.26.55,1.26,1.31,2.33,2.3,3.21s2.16,1.55,3.51,2c1.35.46,2.85.68,4.49.68.94,0,1.81-.07,2.6-.21.79-.14,1.46-.36,2-.66v-4.06h-5.79v-6.38h12.49v14.17Z" style="fill: #fff; stroke-width: 0px;"/>
          <path d="m145.63,46.89c2.1,0,3.96.27,5.61.8,1.64.53,3.01,1.29,4.12,2.28,1.11.99,1.95,2.17,2.53,3.55s.87,2.94.87,4.67c0,1.37-.21,2.73-.62,4.1s-1.08,2.61-2.01,3.74c-.93,1.12-2.15,2.03-3.67,2.71-1.52.68-3.4,1.03-5.65,1.03h-4.74v10.66h-6.61v-33.54h10.16Zm1.14,16.5c1,0,1.84-.17,2.51-.5s1.19-.76,1.57-1.28c.38-.52.65-1.05.82-1.62.17-.56.25-1.09.25-1.57,0-.36-.05-.83-.16-1.39-.11-.56-.33-1.13-.66-1.71-.33-.58-.84-1.06-1.53-1.46s-1.6-.59-2.76-.59h-4.74v10.12h4.69Zm6.2,4.1l8.29,12.94h-7.7l-8.48-12.76,7.88-.18Z" style="fill: #fff; stroke-width: 0px;"/>
          <path d="m162.95,80.43l15.13-34.86h.37l15.13,34.86h-7.66l-9.66-24.52,4.79-3.28-11.58,27.8h-6.52Zm10.34-12.12h10.07l2.32,5.56h-14.45l2.05-5.56Z" style="fill: #fff; stroke-width: 0px;"/>
          <path d="m208.61,46.89c2.76,0,5.1.46,7.02,1.39,1.91.93,3.37,2.23,4.38,3.92,1,1.69,1.5,3.69,1.5,5.99,0,1.37-.21,2.74-.62,4.12-.41,1.38-1.06,2.64-1.96,3.76-.9,1.12-2.1,2.03-3.6,2.71-1.5.68-3.35,1.03-5.54,1.03h-4.74v10.62h-6.61v-33.54h10.16Zm1.14,16.5c1,0,1.84-.17,2.51-.52.67-.35,1.19-.79,1.57-1.32.38-.53.65-1.08.82-1.66.17-.58.25-1.08.25-1.5,0-.33-.05-.78-.16-1.34-.11-.56-.33-1.13-.66-1.71-.33-.58-.84-1.06-1.53-1.46s-1.6-.59-2.76-.59h-4.74v10.12h4.69Z" style="fill: #fff; stroke-width: 0px;"/>
          <path d="m255.64,46.89v33.54h-6.61v-13.63h-14.99v13.63h-6.61v-33.54h6.61v13.54h14.99v-13.54h6.61Z" style="fill: #fff; stroke-width: 0px;"/>
          <path d="m264.3,46.89h6.61v33.54h-6.61v-33.54Z" style="fill: #fff; stroke-width: 0px;"/>
          <path d="m277.51,63.71c0-2.31.44-4.5,1.32-6.56.88-2.07,2.1-3.9,3.67-5.49,1.56-1.59,3.38-2.85,5.45-3.76,2.07-.91,4.28-1.37,6.65-1.37s4.54.46,6.61,1.37c2.07.91,3.9,2.17,5.49,3.76,1.59,1.6,2.84,3.43,3.74,5.49.9,2.07,1.34,4.25,1.34,6.56s-.45,4.59-1.34,6.65c-.9,2.07-2.14,3.88-3.74,5.45s-3.43,2.79-5.49,3.67c-2.07.88-4.27,1.32-6.61,1.32s-4.59-.44-6.65-1.32c-2.07-.88-3.88-2.1-5.45-3.67-1.57-1.56-2.79-3.38-3.67-5.45-.88-2.06-1.32-4.28-1.32-6.65Zm6.84,0c0,1.46.27,2.83.8,4.12.53,1.29,1.28,2.43,2.23,3.42.96.99,2.07,1.76,3.33,2.3,1.26.55,2.63.82,4.12.82s2.76-.27,3.99-.82,2.3-1.31,3.21-2.28,1.62-2.1,2.14-3.39.77-2.68.77-4.17-.27-2.83-.8-4.12c-.53-1.29-1.26-2.42-2.19-3.39-.93-.97-2.01-1.73-3.26-2.28s-2.6-.82-4.06-.82-2.81.27-4.06.82c-1.25.55-2.34,1.31-3.28,2.28s-1.67,2.1-2.19,3.39c-.52,1.29-.77,2.67-.77,4.12Zm18.91,10.25h10.39v6.47h-19.05l8.66-6.47Z" style="fill: #fff; stroke-width: 0px;"/>
          <path d="m326.18,68.03c0,1.06.32,2.08.96,3.05.64.97,1.48,1.76,2.53,2.37,1.05.61,2.2.91,3.44.91,1.37,0,2.58-.3,3.65-.91,1.06-.61,1.91-1.4,2.53-2.37.62-.97.93-1.99.93-3.05v-21.14h6.52v21.28c0,2.46-.61,4.64-1.82,6.54-1.22,1.9-2.86,3.39-4.92,4.46-2.07,1.08-4.36,1.62-6.88,1.62s-4.76-.54-6.81-1.62-3.68-2.57-4.9-4.46c-1.22-1.9-1.82-4.08-1.82-6.54v-21.28h6.61v21.14Z" style="fill: #fff; stroke-width: 0px;"/>
          <path d="m354.71,46.89h22.88v6.38h-16.27v7.15h14.4v6.38h-14.4v7.25h16.91v6.38h-23.51v-33.54Z" style="fill: #fff; stroke-width: 0px;"/>
        </g>
        <g id="g1">
          <path id="path1" d="m4.82,79.86v-2.41H0v-43.54h9.64v4.82h4.82v4.82h4.82v4.81l2.45.04,2.45.04.04,2.37.04,2.37h4.81v-4.82h-4.82v-4.82h-4.82v-14.45l-2.45-.04-2.45-.04-.04-2.37-.04-2.37-2.37-.04-2.37-.04-.04-7.27-.04-7.27h4.82v14.63l2.45-.04,2.45-.04.04-12.09.04-12.09h4.82v4.82h4.82v24.26h4.82v-14.62h4.82v14.62h-4.82v4.82h-4.82v14.46h4.82v9.64h4.82v-4.82h4.82v-4.82h9.64v-4.82h4.82v-4.82h19.44v4.82h4.82v33.9h-4.82v4.82H4.82v-2.41Zm24.26-9.64v-2.41h-4.82v4.82h4.82v-2.41Zm-14.62-4.82v-2.41l2.45-.04,2.45-.04v-4.82h-4.82l-.04,2.37-.04,2.37-2.37.04-2.37.04-.04,2.45-.04,2.45h4.83v-2.41Zm62.95-.04l-.04-2.45-7.19-.04-7.19-.04v-4.82h4.82v-4.82h4.82v-4.82h-4.82v4.81l-2.45.04-2.45.04-.04,2.37-.04,2.37h-24.09v4.98h24.1v2.3c0,1.27.05,2.35.11,2.41s3.35.11,7.32.11h7.21l-.04-2.45Zm-62.95-14.58v-2.41h-4.82v4.82h4.82v-2.41Zm38.72-19.28v-2.41h-4.82l.04-7.27.04-7.27,2.37-.04,2.37-.04.04-2.37.04-2.37h14.46l.04,2.37.04,2.37,2.37.04,2.37.04v14.46l-2.37.04-2.37.04-.04,2.37-.04,2.37-7.27.04-7.27.04v-2.41Zm14.62-9.72v-7.31h-14.62v14.62h14.62v-7.31Z" style="fill: #fff; stroke-width: 0px;"/>
        </g>
      </g>
      <g>
        <path d="m101.98,37L116.3,1.64h.19l14.32,35.36h-2.62l-12.46-31.64,1.62-.91-13.03,32.54h-2.34Zm6.92-13.41h15.03l.67,2.2h-16.27l.57-2.2Z" style="fill: #fff; stroke-width: 0px;"/>
        <path d="m142.74,37.71l-9.45-19.37h2.62l7.78,16.94-1.38-.05,7.49-16.89h2.48l-9.26,19.37h-.29Z" style="fill: #fff; stroke-width: 0px;"/>
        <path d="m165.74,37.38c-1.94,0-3.66-.43-5.15-1.29-1.5-.86-2.67-2.03-3.51-3.51-.84-1.48-1.26-3.14-1.26-4.99s.45-3.47,1.34-4.96c.89-1.5,2.09-2.69,3.6-3.58,1.51-.89,3.19-1.34,5.03-1.34,2.23,0,4.1.65,5.61,1.96,1.51,1.3,2.6,3.01,3.27,5.11l-16.32,6.3-.67-1.62,14.94-5.82-.48.67c-.54-1.27-1.36-2.37-2.46-3.29-1.1-.92-2.44-1.38-4.03-1.38-1.43,0-2.72.35-3.87,1.05-1.14.7-2.06,1.64-2.74,2.82-.68,1.18-1.03,2.51-1.03,4.01,0,1.4.33,2.7.98,3.91.65,1.21,1.57,2.18,2.74,2.91,1.18.73,2.53,1.1,4.06,1.1,1.02,0,2-.19,2.93-.57s1.77-.87,2.5-1.48l1.15,1.62c-.89.7-1.92,1.27-3.08,1.72s-2.35.67-3.55.67Z" style="fill: #fff; stroke-width: 0px;"/>
        <path d="m182.82,18.34l.24,5.87-.29-1.15c.54-1.62,1.57-2.9,3.08-3.84,1.51-.94,3.19-1.41,5.03-1.41,1.75,0,3.17.52,4.25,1.55,1.08,1.03,1.64,2.38,1.67,4.03v13.6h-2.29v-12.98c-.03-1.21-.41-2.21-1.15-3.01s-1.8-1.21-3.2-1.24c-1.24,0-2.4.3-3.48.91-1.08.6-1.95,1.45-2.6,2.53-.65,1.08-.98,2.34-.98,3.77v10.02h-2.24v-18.66h1.96Z" style="fill: #fff; stroke-width: 0px;"/>
        <path d="m207.16,10.13h2.29v8.45h5.77v1.81h-5.77v16.61h-2.29v-16.61h-3.96v-1.81h3.96v-8.45Z" style="fill: #fff; stroke-width: 0px;"/>
        <path d="m226.67,37.52c-1.75,0-3.15-.52-4.2-1.55-1.05-1.03-1.61-2.38-1.67-4.03v-13.6h2.24v12.93c.06,1.21.45,2.21,1.17,3.01.72.8,1.79,1.22,3.22,1.29,1.21,0,2.34-.32,3.39-.95,1.05-.64,1.9-1.5,2.55-2.6.65-1.1.98-2.35.98-3.75v-9.93h2.24v18.66h-2l-.24-5.87.33,1.29c-.32.96-.88,1.82-1.69,2.6-.81.78-1.77,1.39-2.86,1.84-1.1.44-2.25.67-3.46.67Z" style="fill: #fff; stroke-width: 0px;"/>
        <path d="m247.05,18.34l.24,5.73-.29-.72c.41-1.15,1.07-2.13,1.96-2.96.89-.83,1.88-1.46,2.98-1.91s2.15-.67,3.17-.67l-.09,2.2c-1.43,0-2.73.32-3.89.95-1.16.64-2.08,1.49-2.77,2.55-.68,1.07-1.03,2.27-1.03,3.6v9.88h-2.24v-18.66h1.96Z" style="fill: #fff; stroke-width: 0px;"/>
        <path d="m268.76,37.38c-1.94,0-3.66-.43-5.15-1.29-1.5-.86-2.67-2.03-3.51-3.51-.84-1.48-1.26-3.14-1.26-4.99s.45-3.47,1.34-4.96c.89-1.5,2.09-2.69,3.6-3.58,1.51-.89,3.19-1.34,5.03-1.34,2.23,0,4.1.65,5.61,1.96s2.6,3.01,3.27,5.11l-16.32,6.3-.67-1.62,14.94-5.82-.48.67c-.54-1.27-1.36-2.37-2.46-3.29s-2.44-1.38-4.03-1.38c-1.43,0-2.72.35-3.87,1.05s-2.06,1.64-2.74,2.82c-.68,1.18-1.03,2.51-1.03,4.01,0,1.4.33,2.7.98,3.91.65,1.21,1.57,2.18,2.74,2.91,1.18.73,2.53,1.1,4.06,1.1,1.02,0,2-.19,2.93-.57.94-.38,1.77-.87,2.5-1.48l1.15,1.62c-.89.7-1.92,1.27-3.08,1.72s-2.35.67-3.55.67Z" style="fill: #fff; stroke-width: 0px;"/>
        <path d="m288.28,37.38c-1.08,0-2.21-.2-3.39-.6-1.18-.4-2.13-1.04-2.86-1.93l1.05-1.48c.64.67,1.39,1.2,2.27,1.6s1.81.6,2.79.6c.73,0,1.42-.1,2.08-.31s1.19-.56,1.6-1.07c.41-.51.62-1.19.62-2.05s-.25-1.57-.74-2.05-1.11-.87-1.86-1.17c-.75-.3-1.54-.58-2.36-.83-1.37-.45-2.49-1.05-3.36-1.81-.88-.76-1.31-1.84-1.31-3.25,0-1.02.25-1.91.74-2.67.49-.76,1.17-1.36,2.03-1.79.86-.43,1.83-.64,2.91-.64.99,0,1.96.16,2.93.48.97.32,1.85.86,2.65,1.62l-1,1.57c-.51-.7-1.19-1.18-2.03-1.43-.84-.25-1.58-.4-2.22-.43-.54,0-1.11.11-1.69.33-.59.22-1.08.55-1.48.98s-.6,1-.6,1.69.21,1.33.62,1.79c.41.46.95.83,1.6,1.12.65.29,1.33.56,2.03.81.92.29,1.79.63,2.6,1.03.81.4,1.48.92,2,1.57.53.65.79,1.52.79,2.6s-.24,2.06-.72,2.94c-.48.88-1.19,1.56-2.12,2.05-.94.49-2.12.74-3.56.74Z" style="fill: #fff; stroke-width: 0px;"/>
      </g>
    </g>
  </g>
</svg>