<svg xmlns="http://www.w3.org/2000/svg" viewBox="0 0 384.08 109.61">
  <g id="Calque_2" data-name="Calque 2">
    <g id="lightgun-fr">
      <g>
        <path d="M0,53.64H7.28v47.27H34.81v7H0Z" fill="#fff"/>
        <path d="M46.67,53.64H54v54.25H46.67Z" fill="#fff"/>
        <path d="M112,103.24a13.7,13.7,0,0,1-3.15,1.91,34.51,34.51,0,0,1-4.47,1.69,40.82,40.82,0,0,1-5,1.2,28.4,28.4,0,0,1-4.84.45,32.19,32.19,0,0,1-11.74-2,26.14,26.14,0,0,1-8.93-5.63,24.61,24.61,0,0,1-5.71-8.47,27.86,27.86,0,0,1-2-10.58,31.47,31.47,0,0,1,2.21-12.12A26,26,0,0,1,83.36,55,29.79,29.79,0,0,1,94,53a32.72,32.72,0,0,1,8.78,1.13A32.13,32.13,0,0,1,109.92,57l-2.48,6.67A19.42,19.42,0,0,0,103.73,62a38.44,38.44,0,0,0-4.54-1.23,20.93,20.93,0,0,0-4.35-.49,24.79,24.79,0,0,0-8.71,1.46A18.85,18.85,0,0,0,79.46,66a18.64,18.64,0,0,0-4.28,6.61,23.73,23.73,0,0,0-1.5,8.66,21.29,21.29,0,0,0,1.5,8.11,18.27,18.27,0,0,0,4.28,6.34,19.31,19.31,0,0,0,6.64,4.12,23.72,23.72,0,0,0,8.51,1.47,26.48,26.48,0,0,0,5.48-.57,17,17,0,0,0,4.65-1.61V88.3H93.94v-7H112Z" fill="#fff"/>
        <path d="M168.82,53.64v54.25h-7.2V84.1H133.18v23.79H125.9V53.64h7.28V77.2h28.44V53.64Z" fill="#fff"/>
        <path d="M180.45,53.64h36v7H201.91v47.27h-7.28V60.62H180.45Z" fill="#fff"/>
        <path d="M268.16,103.24a13.7,13.7,0,0,1-3.15,1.91,34.51,34.51,0,0,1-4.47,1.69,40.82,40.82,0,0,1-5,1.2,28.4,28.4,0,0,1-4.84.45,32.25,32.25,0,0,1-11.75-2,26.19,26.19,0,0,1-8.92-5.63,24.61,24.61,0,0,1-5.71-8.47,27.87,27.87,0,0,1-2-10.58,31.47,31.47,0,0,1,2.22-12.12A26,26,0,0,1,239.5,55,29.79,29.79,0,0,1,250.15,53a32.72,32.72,0,0,1,8.78,1.13A32.13,32.13,0,0,1,266.06,57l-2.48,6.67A19.42,19.42,0,0,0,259.87,62a38.44,38.44,0,0,0-4.54-1.23,20.93,20.93,0,0,0-4.35-.49,24.75,24.75,0,0,0-8.71,1.46A18.85,18.85,0,0,0,235.6,66a18.51,18.51,0,0,0-4.28,6.61,23.73,23.73,0,0,0-1.5,8.66,21.29,21.29,0,0,0,1.5,8.11,18.14,18.14,0,0,0,4.28,6.34,19.31,19.31,0,0,0,6.64,4.12,23.72,23.72,0,0,0,8.51,1.47,26.48,26.48,0,0,0,5.48-.57,17,17,0,0,0,4.65-1.61V88.3h-10.8v-7h18.08Z" fill="#fff"/>
        <path d="M288.57,88.68a12.33,12.33,0,0,0,1.76,6.57A12.74,12.74,0,0,0,295,99.78a13.2,13.2,0,0,0,6.6,1.65,14,14,0,0,0,6.83-1.65,12.34,12.34,0,0,0,4.73-4.53,12.58,12.58,0,0,0,1.72-6.57v-35H322V88.91a19.23,19.23,0,0,1-2.74,10.35,18.52,18.52,0,0,1-7.35,6.83,22,22,0,0,1-10.32,2.4,21.8,21.8,0,0,1-10.28-2.4,18.47,18.47,0,0,1-7.28-6.83,19.47,19.47,0,0,1-2.7-10.35V53.64h7.21Z" fill="#fff"/>
        <path d="M383.85,109.61,341.91,67.07l2.1.53.15,40.29h-7.27V52h.37l41.49,42.69L377,94.31l-.15-40.67h7.2v56Z" fill="#fff"/>
      </g>
      <g>
        <path d="M112,32.36a15.55,15.55,0,0,1-1.44,7,10.44,10.44,0,0,1-3.9,4.38,11.17,11.17,0,0,1-5.5,1.6V43.63a9,9,0,0,0,6.49-3.15q2.59-2.94,2.59-8.28V0H112Z" fill="#fff"/>
        <path d="M135,0H157.9V1.76h-21V17.84h19v1.71h-19V35.94h21.79V37.7H135Z" fill="#fff"/>
        <path d="M181.35,25.15a12.37,12.37,0,0,0,1.38,6A9.6,9.6,0,0,0,186.55,35a11.31,11.31,0,0,0,5.53,1.34A11.57,11.57,0,0,0,197.69,35a9.72,9.72,0,0,0,3.87-3.84,12.15,12.15,0,0,0,1.42-6V0h1.76V25.31a13.5,13.5,0,0,1-1.68,7,11.32,11.32,0,0,1-4.54,4.36,13.77,13.77,0,0,1-6.44,1.49,13.59,13.59,0,0,1-6.41-1.49,11.05,11.05,0,0,1-4.48-4.36,13.6,13.6,0,0,1-1.66-7V0h1.82Z" fill="#fff"/>
        <path d="M224,37.7,236.57,18l1.06,1.44L226.15,37.7ZM224.5,0h2.24l24.51,37.7H249Zm12.87,17.41L248.37,0h2.14l-12,18.8Z" fill="#fff"/>
      </g>
    </g>
  </g>
</svg>
