<?xml version="1.0" encoding="UTF-8"?>
<svg id="Calque_2" data-name="Calque 2" xmlns="http://www.w3.org/2000/svg" viewBox="0 0 370.38 81.8">
  <g id="svg19">
    <g>
      <g>
        <path d="m108.3,31.16c0,2.51-.46,4.66-1.38,6.44-.92,1.78-2.16,3.14-3.7,4.08-1.54.94-3.29,1.44-5.23,1.5v-2.24c2.29-.13,4.19-1.03,5.7-2.72,1.51-1.69,2.27-4.09,2.27-7.21V2.39h2.34v28.77Z" style="fill: #fff; stroke-width: 0px;"/>
        <path d="m126.06,36.65c-1.94,0-3.66-.43-5.15-1.29-1.5-.86-2.67-2.03-3.51-3.51-.84-1.48-1.26-3.14-1.26-4.99s.45-3.47,1.34-4.96c.89-1.5,2.09-2.69,3.6-3.58,1.51-.89,3.19-1.34,5.03-1.34,2.23,0,4.1.65,5.61,1.96,1.51,1.3,2.6,3.01,3.27,5.11l-16.32,6.3-.67-1.62,14.94-5.82-.48.67c-.54-1.27-1.36-2.37-2.46-3.29-1.1-.92-2.44-1.38-4.03-1.38-1.43,0-2.72.35-3.87,1.05-1.15.7-2.06,1.64-2.74,2.82-.68,1.18-1.03,2.51-1.03,4.01,0,1.4.33,2.7.98,3.91.65,1.21,1.57,2.18,2.74,2.91,1.18.73,2.53,1.1,4.06,1.1,1.02,0,2-.19,2.94-.57.94-.38,1.77-.88,2.5-1.48l1.15,1.62c-.89.7-1.92,1.27-3.08,1.72-1.16.44-2.35.67-3.55.67Z" style="fill: #fff; stroke-width: 0px;"/>
        <path d="m147.05,36.79c-1.75,0-3.15-.52-4.2-1.55s-1.61-2.38-1.67-4.03v-13.6h2.24v12.93c.06,1.21.45,2.21,1.17,3.01.72.8,1.79,1.23,3.22,1.29,1.21,0,2.34-.32,3.39-.95s1.9-1.5,2.55-2.6c.65-1.1.98-2.35.98-3.75v-9.93h2.24v18.66h-2l-.24-5.87.33,1.29c-.32.95-.88,1.82-1.69,2.6-.81.78-1.77,1.39-2.86,1.84s-2.25.67-3.46.67Z" style="fill: #fff; stroke-width: 0px;"/>
        <path d="m179.21,36.27h-2.67l-13.98-18.66h2.82l13.84,18.66Zm-8.3-8.02l-5.73,8.02h-2.39l6.87-9.5,1.24,1.48Zm.05-2.58l5.54-8.06h2.34l-6.92,9.73-.95-1.67Z" style="fill: #fff; stroke-width: 0px;"/>
        <path d="m199.45,0h2.24v36.27h-2.24V0Z" style="fill: #fff; stroke-width: 0px;"/>
        <path d="m216.05,36.79c-1.75,0-3.15-.52-4.2-1.55s-1.61-2.38-1.67-4.03v-13.6h2.24v12.93c.06,1.21.45,2.21,1.17,3.01.72.8,1.79,1.23,3.22,1.29,1.21,0,2.34-.32,3.39-.95s1.9-1.5,2.55-2.6c.65-1.1.98-2.35.98-3.75v-9.93h2.24v18.66h-2l-.24-5.87.33,1.29c-.32.95-.88,1.82-1.69,2.6-.81.78-1.77,1.39-2.86,1.84s-2.25.67-3.46.67Z" style="fill: #fff; stroke-width: 0px;"/>
        <path d="m242.11,36.65c-1.75,0-3.34-.42-4.77-1.26s-2.57-2.01-3.41-3.51c-.84-1.5-1.26-3.18-1.26-5.06,0-2,.43-3.74,1.29-5.2.86-1.46,2.03-2.59,3.51-3.39,1.48-.79,3.11-1.19,4.89-1.19s3.47.46,5.08,1.38c1.61.92,2.77,2.13,3.51,3.63l-.38,1.05V0h2.24v36.27h-2.29v-5.73l.48,1.05c-.8,1.5-1.99,2.71-3.58,3.65-1.59.94-3.36,1.41-5.3,1.41Zm.57-1.96c1.43,0,2.72-.31,3.87-.93,1.14-.62,2.07-1.46,2.77-2.53.7-1.07,1.1-2.27,1.19-3.6v-2.39c-.22-1.21-.72-2.29-1.48-3.25-.76-.95-1.69-1.71-2.77-2.27-1.08-.56-2.27-.83-3.58-.83-1.43,0-2.74.33-3.91,1-1.18.67-2.12,1.59-2.82,2.77-.7,1.18-1.05,2.55-1.05,4.1,0,1.46.35,2.79,1.05,3.98.7,1.19,1.65,2.15,2.84,2.86,1.19.72,2.49,1.07,3.89,1.07Z" style="fill: #fff; stroke-width: 0px;"/>
        <path d="m259.48,26.82c0-1.81.44-3.47,1.31-4.96.87-1.5,2.07-2.68,3.58-3.56,1.51-.87,3.2-1.31,5.08-1.31s3.61.44,5.11,1.31c1.5.88,2.67,2.06,3.53,3.56.86,1.5,1.29,3.15,1.29,4.96s-.43,3.47-1.29,4.96c-.86,1.5-2.04,2.68-3.55,3.55-1.51.88-3.21,1.31-5.08,1.31s-3.61-.42-5.11-1.26-2.68-2-3.55-3.48c-.88-1.48-1.31-3.17-1.31-5.08Zm2.24.05c0,1.46.34,2.79,1.03,3.99.68,1.19,1.61,2.14,2.77,2.84,1.16.7,2.46,1.05,3.89,1.05s2.73-.35,3.89-1.05c1.16-.7,2.08-1.65,2.77-2.84.68-1.19,1.03-2.52,1.03-3.99s-.34-2.79-1.03-3.98c-.68-1.19-1.61-2.15-2.77-2.86s-2.46-1.07-3.89-1.07-2.78.37-3.94,1.12c-1.16.75-2.08,1.73-2.74,2.93-.67,1.21-1,2.5-1,3.87Z" style="fill: #fff; stroke-width: 0px;"/>
      </g>
      <g>
        <path d="m97.01,44.79h24.97v6.96h-17.76v7.81h15.72v6.96h-15.72v7.91h18.46v6.96h-25.67v-36.62Z" style="fill: #fff; stroke-width: 0px;"/>
        <path d="m130.14,81.4v-36.62h10.94c3.68,0,6.82.55,9.4,1.64,2.59,1.09,4.67,2.55,6.24,4.38,1.58,1.83,2.73,3.86,3.46,6.12.73,2.26,1.09,4.53,1.09,6.82,0,2.72-.49,5.17-1.47,7.34-.98,2.17-2.31,4.03-4,5.57-1.69,1.54-3.65,2.72-5.87,3.53-2.22.81-4.58,1.22-7.06,1.22h-12.74Zm7.21-6.96h4.28c1.82,0,3.48-.24,4.98-.72,1.49-.48,2.78-1.18,3.86-2.11,1.08-.93,1.91-2.1,2.49-3.51.58-1.41.87-3.03.87-4.85,0-2.39-.39-4.34-1.17-5.85-.78-1.51-1.74-2.68-2.89-3.51-1.14-.83-2.31-1.4-3.51-1.72-1.19-.31-2.21-.47-3.03-.47h-5.87v22.74Z" style="fill: #fff; stroke-width: 0px;"/>
        <path d="m174.96,67.87c0,1.16.35,2.27,1.04,3.33s1.62,1.92,2.76,2.59c1.14.66,2.4,1,3.76,1,1.49,0,2.82-.33,3.98-1,1.16-.66,2.08-1.53,2.76-2.59.68-1.06,1.02-2.17,1.02-3.33v-23.08h7.11v23.23c0,2.69-.66,5.07-1.99,7.14-1.33,2.07-3.12,3.7-5.37,4.88-2.26,1.18-4.76,1.77-7.51,1.77s-5.2-.59-7.44-1.77c-2.24-1.18-4.02-2.8-5.35-4.88-1.33-2.07-1.99-4.45-1.99-7.14v-23.23h7.21v23.08Z" style="fill: #fff; stroke-width: 0px;"/>
        <path d="m233.57,78.37c-.4.33-1.14.78-2.21,1.34-1.08.56-2.4,1.06-3.96,1.49-1.56.43-3.28.63-5.17.6-2.89-.07-5.46-.59-7.74-1.57-2.27-.98-4.2-2.31-5.77-4s-2.78-3.63-3.61-5.82c-.83-2.19-1.24-4.53-1.24-7.01,0-2.79.42-5.34,1.27-7.66s2.06-4.33,3.63-6.02c1.58-1.69,3.46-3,5.65-3.93,2.19-.93,4.61-1.39,7.26-1.39,2.45,0,4.63.33,6.52,1,1.89.66,3.43,1.38,4.63,2.14l-2.84,6.82c-.83-.63-1.93-1.28-3.31-1.96-1.38-.68-2.96-1.02-4.75-1.02-1.39,0-2.73.29-4,.87-1.28.58-2.4,1.4-3.38,2.46s-1.75,2.3-2.31,3.71c-.56,1.41-.85,2.94-.85,4.6,0,1.76.26,3.37.77,4.83.51,1.46,1.25,2.71,2.21,3.76s2.11,1.85,3.46,2.41c1.34.56,2.86.85,4.55.85,1.96,0,3.63-.32,5.02-.95,1.39-.63,2.45-1.29,3.18-1.99l2.99,6.47Z" style="fill: #fff; stroke-width: 0px;"/>
        <path d="m236.65,81.4l16.52-38.06h.4l16.52,38.06h-8.36l-10.55-26.76,5.22-3.58-12.64,30.35h-7.11Zm11.29-13.23h10.99l2.54,6.07h-15.77l2.24-6.07Z" style="fill: #fff; stroke-width: 0px;"/>
        <path d="m269.93,44.79h24.68v6.96h-8.91v29.65h-7.21v-29.65h-8.56v-6.96Z" style="fill: #fff; stroke-width: 0px;"/>
        <path d="m301.57,44.79h7.21v36.62h-7.21v-36.62Z" style="fill: #fff; stroke-width: 0px;"/>
        <path d="m318.24,44.79h22.88v6.96h-15.67v8.31h13.58v6.96h-13.58v14.38h-7.21v-36.62Z" style="fill: #fff; stroke-width: 0px;"/>
        <path d="m367.64,53.64c-1.39-.76-2.81-1.39-4.25-1.89-1.44-.5-2.79-.75-4.05-.75-1.56,0-2.79.32-3.68.95-.9.63-1.34,1.58-1.34,2.84,0,.86.34,1.63,1.02,2.31.68.68,1.56,1.29,2.64,1.82,1.08.53,2.2,1.01,3.36,1.44,1.06.4,2.11.87,3.16,1.42,1.04.55,1.98,1.23,2.81,2.04s1.49,1.82,1.99,3.03c.5,1.21.75,2.7.75,4.45,0,1.86-.48,3.58-1.44,5.17-.96,1.59-2.37,2.88-4.23,3.86-1.86.98-4.15,1.47-6.87,1.47-1.39,0-2.81-.14-4.25-.42-1.44-.28-2.86-.71-4.25-1.29-1.39-.58-2.74-1.32-4.03-2.21l3.18-5.62c.86.63,1.8,1.19,2.81,1.67,1.01.48,2.03.85,3.06,1.12,1.03.27,1.97.4,2.83.4s1.73-.12,2.61-.37c.88-.25,1.61-.67,2.19-1.27s.87-1.43.87-2.49c0-.73-.24-1.39-.72-1.99-.48-.6-1.13-1.14-1.94-1.64-.81-.5-1.7-.93-2.66-1.29-1.13-.43-2.29-.93-3.48-1.49-1.19-.56-2.31-1.25-3.36-2.06-1.04-.81-1.89-1.82-2.54-3.03-.65-1.21-.97-2.69-.97-4.45,0-2.12.47-3.96,1.42-5.52s2.28-2.79,4-3.71c1.72-.91,3.71-1.42,5.97-1.52,2.95,0,5.35.35,7.19,1.04,1.84.7,3.49,1.53,4.95,2.49l-2.74,5.52Z" style="fill: #fff; stroke-width: 0px;"/>
      </g>
      <g id="g1">
        <path id="path1" d="m38.29,80.5c-3.97-.65-7.44-3.22-9.23-6.83-1.15-2.32-1.33-3.33-1.33-7.35v-3.44h25.21v3.44c0,4.02-.18,5.04-1.33,7.35-2.44,4.94-7.87,7.72-13.33,6.83Zm33.29-22.95c-2.36-1.1-4.29-2.07-4.28-2.16,0-.09.45-1.06.98-2.15l.97-2,4.17,1.96c2.29,1.08,4.23,2.02,4.3,2.09.07.07-.31,1.06-.86,2.2l-.99,2.07-4.29-2Zm-67,1.5c-.08-.19-.5-1.13-.95-2.07-.44-.94-.79-1.73-.76-1.76.18-.17,8.54-3.99,8.62-3.94.26.16,1.94,4.05,1.8,4.18-.18.18-8.21,3.94-8.42,3.94-.09,0-.22-.16-.29-.35Zm18.71-2.46c-6.8-7.08-8.48-17.53-4.26-26.37l.88-1.85h40.86l.81,1.69c1.7,3.56,2.29,6.16,2.3,10.12,0,3.23-.24,4.82-1.16,7.58-1.14,3.42-2.85,6.24-5.33,8.83l-1.49,1.55h-13.2v-14.26l2.99-2.99,2.99-2.99-1.69-1.7-1.69-1.7-2.48,2.48-2.48,2.48-2.48-2.48-2.48-2.48-1.69,1.7-1.69,1.7,2.99,2.99,2.99,2.99v14.26h-13.2l-1.49-1.55ZM0,40.34v-2.36h9.61v4.73H0v-2.36Zm71.06,0v-2.36h9.61v4.73h-9.61v-2.36ZM7.17,27.49c-2.25-1.07-4.16-1.97-4.23-2-.16-.07,1.64-4.07,1.88-4.16.16-.06,8.21,3.62,8.47,3.87.14.14-1.65,4.15-1.88,4.2-.08.02-1.99-.84-4.24-1.91Zm61.28.43c-1.02-2.16-1.25-2.76-1.08-2.82.08-.03,2.03-.94,4.32-2.02l4.18-1.96.9,1.9c.5,1.05.92,2.02.95,2.16.04.24-1.91,1.23-7.17,3.64l-1.38.63-.72-1.53Zm-47.33-6.65v-2.36h38.45v4.73H21.11v-2.36Zm-9.45-10.64v-5.91h-4.73V0h64.45v4.73h-11.82v9.45H21.11V4.73h-4.73v11.82h-4.73v-5.91Z" style="fill: #fff; stroke-width: 0px;"/>
      </g>
    </g>
  </g>
</svg>