<?xml version="1.0" encoding="UTF-8"?>
<svg id="Calque_2" data-name="Calque 2" xmlns="http://www.w3.org/2000/svg" viewBox="0 0 295.54 82.65">
  <g id="svg19">
    <g>
      <g>
        <path d="m96.07,3.86l12.5,31.73-1.29-.19,12.22-31.54h2.67l-14.41,35.46L93.35,3.86h2.72Z" style="fill: #fff; stroke-width: 0px;"/>
        <path d="m126.94,12.21c0-.44.17-.82.52-1.12.35-.3.73-.45,1.15-.45.45,0,.83.15,1.15.45.32.3.48.68.48,1.12,0,.48-.16.87-.48,1.17-.32.3-.7.45-1.15.45-.41,0-.8-.16-1.15-.48-.35-.32-.52-.7-.52-1.15Zm.48,6.87h2.24v18.66h-2.24v-18.66Z" style="fill: #fff; stroke-width: 0px;"/>
        <path d="m142.55,38.12c-1.08,0-2.21-.2-3.39-.6s-2.13-1.04-2.86-1.93l1.05-1.48c.64.67,1.39,1.2,2.27,1.6.87.4,1.8.6,2.79.6.73,0,1.42-.1,2.08-.31.65-.21,1.18-.56,1.6-1.07.41-.51.62-1.19.62-2.05s-.25-1.57-.74-2.05c-.49-.48-1.11-.87-1.86-1.17-.75-.3-1.54-.58-2.36-.83-1.37-.45-2.49-1.05-3.36-1.81s-1.31-1.84-1.31-3.24c0-1.02.25-1.91.74-2.67.49-.76,1.17-1.36,2.03-1.79s1.83-.64,2.91-.64c.99,0,1.96.16,2.93.48.97.32,1.85.86,2.65,1.62l-1,1.57c-.51-.7-1.19-1.18-2.03-1.43-.84-.25-1.58-.4-2.22-.43-.54,0-1.11.11-1.69.33-.59.22-1.08.55-1.48.98-.4.43-.6.99-.6,1.69s.21,1.33.62,1.79c.41.46.95.83,1.6,1.12.65.29,1.33.56,2.03.81.92.29,1.79.63,2.6,1.03.81.4,1.48.92,2,1.57.53.65.79,1.52.79,2.6s-.24,2.06-.72,2.94c-.48.88-1.19,1.56-2.12,2.05s-2.12.74-3.55.74Z" style="fill: #fff; stroke-width: 0px;"/>
        <path d="m161.59,38.26c-1.75,0-3.15-.52-4.2-1.55-1.05-1.03-1.61-2.38-1.67-4.03v-13.6h2.24v12.93c.06,1.21.45,2.21,1.17,3.01.72.8,1.79,1.23,3.22,1.29,1.21,0,2.34-.32,3.39-.95,1.05-.64,1.9-1.5,2.55-2.6.65-1.1.98-2.35.98-3.75v-9.93h2.24v18.66h-2l-.24-5.87.33,1.29c-.32.95-.88,1.82-1.69,2.6-.81.78-1.77,1.39-2.86,1.84-1.1.44-2.25.67-3.46.67Z" style="fill: #fff; stroke-width: 0px;"/>
        <path d="m187.74,38.12c-1.78,0-3.4-.41-4.84-1.22-1.45-.81-2.59-1.95-3.44-3.41-.84-1.46-1.26-3.17-1.26-5.11,0-2.07.45-3.84,1.34-5.32.89-1.48,2.1-2.61,3.63-3.39,1.53-.78,3.26-1.17,5.2-1.17,1.65,0,3.22.49,4.7,1.48,1.48.99,2.54,2.23,3.17,3.72l-.33.67.29-5.3h2v18.66h-2.24v-5.77l.48.86c-.22.64-.61,1.26-1.14,1.88-.54.62-1.2,1.19-1.98,1.72-.78.52-1.64.94-2.58,1.24-.94.3-1.93.45-2.98.45Zm.48-1.91c1.4,0,2.66-.29,3.79-.88,1.13-.59,2.04-1.41,2.74-2.46.7-1.05,1.1-2.26,1.19-3.63v-2.67c-.26-1.18-.76-2.23-1.5-3.15-.75-.92-1.66-1.65-2.74-2.19-1.08-.54-2.26-.81-3.53-.81-1.4,0-2.69.33-3.87.98-1.18.65-2.12,1.57-2.81,2.74-.7,1.18-1.05,2.56-1.05,4.15,0,1.46.35,2.79,1.05,3.98.7,1.19,1.65,2.15,2.84,2.86,1.19.72,2.49,1.07,3.89,1.07Z" style="fill: #fff; stroke-width: 0px;"/>
        <path d="m206.68,1.47h2.24v36.27h-2.24V1.47Z" style="fill: #fff; stroke-width: 0px;"/>
      </g>
      <g>
        <path d="m126.83,82.46l-27-24.39,2.08,1.16.15,21.77h-7.11v-37.01h.29l26.42,24.29-1.55-.68-.14-22.21h7.06v37.06h-.19Z" style="fill: #fff; stroke-width: 0px;"/>
        <path d="m134.04,63.25c0-2.45.47-4.77,1.4-6.97.94-2.19,2.23-4.14,3.9-5.83,1.66-1.69,3.59-3.02,5.78-3.99,2.19-.97,4.55-1.45,7.06-1.45s4.82.48,7.02,1.45c2.19.97,4.14,2.3,5.83,3.99,1.69,1.69,3.02,3.64,3.97,5.83.95,2.19,1.43,4.52,1.43,6.97s-.48,4.87-1.43,7.06c-.95,2.19-2.27,4.12-3.97,5.78-1.69,1.66-3.64,2.96-5.83,3.9s-4.53,1.4-7.02,1.4-4.87-.47-7.06-1.4c-2.19-.94-4.12-2.23-5.78-3.9-1.66-1.66-2.96-3.59-3.9-5.78-.94-2.19-1.4-4.55-1.4-7.06Zm7.26,0c0,1.58.28,3.06.85,4.43.56,1.37,1.36,2.58,2.37,3.63,1.02,1.05,2.19,1.86,3.53,2.44,1.34.58,2.8.87,4.38.87s2.93-.29,4.23-.87c1.31-.58,2.44-1.39,3.41-2.44.97-1.05,1.73-2.26,2.27-3.63.55-1.37.82-2.85.82-4.43s-.28-3.11-.85-4.5c-.56-1.39-1.34-2.6-2.32-3.65-.98-1.05-2.14-1.86-3.46-2.44-1.32-.58-2.76-.87-4.31-.87s-2.98.29-4.31.87c-1.32.58-2.48,1.4-3.48,2.44-1,1.05-1.77,2.27-2.32,3.65-.55,1.39-.82,2.89-.82,4.5Z" style="fill: #fff; stroke-width: 0px;"/>
        <path d="m180.39,45.4l10.4,25.64-4.06-.82,9.43-24.82h8.32l-16.26,37.26-16.26-37.26h8.42Z" style="fill: #fff; stroke-width: 0px;"/>
        <path d="m210.63,45.4h24.29v6.77h-17.27v7.6h15.29v6.77h-15.29v7.69h17.95v6.77h-24.97v-35.61Z" style="fill: #fff; stroke-width: 0px;"/>
        <path d="m242.85,45.4h7.02v28.84h16.74v6.77h-23.76v-35.61Z" style="fill: #fff; stroke-width: 0px;"/>
        <path d="m292.88,54.01c-1.35-.74-2.73-1.35-4.14-1.84-1.4-.48-2.72-.73-3.94-.73-1.52,0-2.71.31-3.58.92-.87.61-1.31,1.53-1.31,2.76,0,.84.33,1.59.99,2.25.66.66,1.52,1.25,2.56,1.77,1.05.52,2.14.98,3.27,1.4,1.03.39,2.06.85,3.07,1.38,1.02.53,1.93,1.19,2.73,1.98s1.45,1.77,1.94,2.95c.48,1.18.73,2.62.73,4.33,0,1.81-.47,3.48-1.4,5.03-.94,1.55-2.31,2.8-4.11,3.75s-4.03,1.43-6.68,1.43c-1.35,0-2.73-.14-4.14-.41s-2.78-.69-4.14-1.26c-1.36-.56-2.66-1.28-3.92-2.15l3.1-5.47c.84.61,1.75,1.15,2.73,1.62.98.47,1.98.83,2.98,1.09,1,.26,1.92.39,2.76.39s1.68-.12,2.54-.36c.85-.24,1.56-.65,2.13-1.23.56-.58.85-1.39.85-2.42,0-.71-.23-1.35-.7-1.94-.47-.58-1.1-1.11-1.89-1.6-.79-.48-1.65-.9-2.59-1.26-1.1-.42-2.23-.9-3.39-1.45-1.16-.55-2.25-1.22-3.27-2.01-1.02-.79-1.84-1.77-2.47-2.95-.63-1.18-.94-2.62-.94-4.33,0-2.06.46-3.85,1.38-5.37.92-1.52,2.22-2.72,3.9-3.6,1.68-.89,3.61-1.38,5.81-1.48,2.87,0,5.2.34,6.99,1.02,1.79.68,3.39,1.48,4.81,2.42l-2.66,5.37Z" style="fill: #fff; stroke-width: 0px;"/>
      </g>
      <g id="g1">
        <path id="path1" d="m6.62,80.58c-4.25-1.06-7.05-5.16-6.4-9.38.43-2.75,2.17-5.12,4.67-6.35l1.33-.66,29.88-.05c16.44-.03,30.09,0,30.34.06.61.15,1.09,1.27.83,1.95-.1.27-.6.9-1.1,1.4s-1.18,1.49-1.51,2.2c-.55,1.18-.59,1.41-.51,2.9.11,2.03.59,3.13,1.99,4.63.58.62,1.12,1.29,1.19,1.48.2.55-.37,1.69-.96,1.91-.82.31-58.49.23-59.75-.08h0ZM.06,36.45C.12,5.63,0,8.18,1.45,5.45,3.13,2.28,7.02.02,10.81,0h1.04s0,30.24,0,30.24v30.24l-2.71.12c-3.72.16-5.74.83-8.1,2.7l-1.03.81.06-27.67Zm66.93,24.35c-.08-.08-1.69-.19-3.59-.25l-3.44-.1,3.75-3.75,3.75-3.75v3.99c0,3.68-.07,4.25-.48,3.84ZM15.2,30.27V0h33.04l9.61,9.62,9.61,9.62v28.79l-6.26,6.26-6.26,6.26H15.2v-30.27Zm9.53,21.38c.24-.12,1.25-1.03,2.25-2.02l1.82-1.8,1.33,1.31c1.48,1.46,2.08,1.72,2.96,1.26,1.11-.57,1.17-1.84.14-2.89l-.7-.72,8.97-6.76,8.97-6.76.2-1.01c.11-.56.44-2.68.72-4.71.8-5.69.9-5.6-5.49-4.69-2.42.34-4.53.67-4.71.72-.17.05-3.36,4.13-7.08,9.07l-6.77,8.98-.71-.7c-1.3-1.27-3.06-.78-3.06.86,0,.74.12.93,1.37,2.19l1.37,1.38-1.8,1.82c-2.48,2.52-2.7,3.06-1.66,4.11.61.61,1.15.72,1.85.36h0Zm26.58-.36c.4-.4.58-.77.58-1.21,0-.54-.3-.94-2.01-2.68l-2.01-2.04,1.42-1.46c1.61-1.66,1.8-2.32.93-3.19-.8-.8-1.71-.71-2.7.24l-.72.69-.3-.43c-.36-.52-.09-.67-3.67,2.05l-2.84,2.17.82.68.82.68-.69.76c-1.01,1.12-.95,2.29.14,2.86.88.46,1.48.2,2.96-1.26l1.33-1.31,1.73,1.69c2.64,2.6,3.16,2.81,4.21,1.76h0Zm-20.03-20.4c4.16-5.51,3.98-5.02,2.48-6.61l-.7-.75-4.61-.65c-4.97-.7-5.23-.69-5.86.27-.31.47-.29.75.31,4.99.35,2.47.74,4.68.86,4.92.27.52,3.52,3.03,3.7,2.85.07-.07,1.79-2.33,3.82-5.02ZM60.16,7.2l-7.2-7.2h6.45c3.79,0,6.66.08,6.96.2,1.02.39,1.1.97,1.04,7.89l-.05,6.31-7.2-7.2Z" style="fill: #fff; stroke-width: 0px;"/>
      </g>
    </g>
  </g>
</svg>