<?xml version="1.0" encoding="UTF-8"?>
<svg id="Calque_2" data-name="Calque 2" xmlns="http://www.w3.org/2000/svg" viewBox="0 0 277.67 82.91">
  <g id="svg19">
    <g>
      <g>
        <path d="m109.29,32.51c0,2.51-.46,4.66-1.38,6.44-.92,1.78-2.16,3.14-3.7,4.08-1.54.94-3.29,1.44-5.23,1.5v-2.24c2.29-.13,4.19-1.03,5.7-2.72,1.51-1.69,2.27-4.09,2.27-7.21V3.74h2.34v28.77Z" style="fill: #fff; stroke-width: 0px;"/>
        <path d="m127.04,38c-1.94,0-3.66-.43-5.15-1.29-1.5-.86-2.67-2.03-3.51-3.51-.84-1.48-1.26-3.14-1.26-4.99s.45-3.47,1.34-4.96c.89-1.5,2.09-2.69,3.6-3.58,1.51-.89,3.19-1.34,5.03-1.34,2.23,0,4.1.65,5.61,1.96,1.51,1.3,2.6,3.01,3.27,5.11l-16.32,6.3-.67-1.62,14.94-5.82-.48.67c-.54-1.27-1.36-2.37-2.46-3.29-1.1-.92-2.44-1.38-4.03-1.38-1.43,0-2.72.35-3.87,1.05-1.15.7-2.06,1.64-2.74,2.82-.68,1.18-1.03,2.51-1.03,4.01,0,1.4.33,2.7.98,3.91.65,1.21,1.57,2.18,2.74,2.91,1.18.73,2.53,1.1,4.06,1.1,1.02,0,2-.19,2.94-.57.94-.38,1.77-.87,2.5-1.48l1.15,1.62c-.89.7-1.92,1.27-3.08,1.72-1.16.44-2.35.67-3.55.67Z" style="fill: #fff; stroke-width: 0px;"/>
        <path d="m148.04,38.14c-1.75,0-3.15-.52-4.2-1.55-1.05-1.03-1.61-2.38-1.67-4.03v-13.6h2.24v12.93c.06,1.21.45,2.21,1.17,3.01.72.8,1.79,1.23,3.22,1.29,1.21,0,2.34-.32,3.39-.95,1.05-.64,1.9-1.5,2.55-2.6.65-1.1.98-2.35.98-3.75v-9.93h2.24v18.66h-2l-.24-5.87.33,1.29c-.32.95-.88,1.82-1.69,2.6-.81.78-1.77,1.39-2.86,1.84-1.1.44-2.25.67-3.46.67Z" style="fill: #fff; stroke-width: 0px;"/>
        <path d="m180.2,37.62h-2.67l-13.98-18.66h2.82l13.84,18.66Zm-8.3-8.02l-5.73,8.02h-2.39l6.87-9.5,1.24,1.48Zm.05-2.58l5.54-8.06h2.34l-6.92,9.73-.95-1.67Z" style="fill: #fff; stroke-width: 0px;"/>
        <path d="m208.07,38c-1.75,0-3.34-.42-4.77-1.26-1.43-.84-2.57-2.01-3.41-3.51-.84-1.5-1.26-3.18-1.26-5.06,0-2,.43-3.74,1.29-5.2.86-1.46,2.03-2.59,3.51-3.39,1.48-.79,3.11-1.19,4.89-1.19s3.47.46,5.08,1.38c1.61.92,2.77,2.13,3.51,3.63l-.38,1.05V1.35h2.24v36.27h-2.29v-5.73l.48,1.05c-.8,1.5-1.99,2.71-3.58,3.65-1.59.94-3.36,1.41-5.3,1.41Zm.57-1.96c1.43,0,2.72-.31,3.87-.93,1.14-.62,2.07-1.46,2.77-2.53.7-1.07,1.1-2.27,1.19-3.6v-2.39c-.22-1.21-.72-2.29-1.48-3.25-.76-.95-1.69-1.71-2.77-2.27-1.08-.56-2.27-.83-3.58-.83-1.43,0-2.74.33-3.91,1-1.18.67-2.12,1.59-2.82,2.77-.7,1.18-1.05,2.55-1.05,4.1,0,1.46.35,2.79,1.05,3.98.7,1.19,1.65,2.15,2.84,2.86,1.19.72,2.49,1.07,3.89,1.07Z" style="fill: #fff; stroke-width: 0px;"/>
        <path d="m235.37,38c-1.94,0-3.66-.43-5.15-1.29-1.5-.86-2.67-2.03-3.51-3.51-.84-1.48-1.26-3.14-1.26-4.99s.45-3.47,1.34-4.96c.89-1.5,2.09-2.69,3.6-3.58,1.51-.89,3.19-1.34,5.03-1.34,2.23,0,4.1.65,5.61,1.96,1.51,1.3,2.6,3.01,3.27,5.11l-16.32,6.3-.67-1.62,14.94-5.82-.48.67c-.54-1.27-1.36-2.37-2.46-3.29-1.1-.92-2.44-1.38-4.03-1.38-1.43,0-2.72.35-3.87,1.05-1.15.7-2.06,1.64-2.74,2.82-.68,1.18-1.03,2.51-1.03,4.01,0,1.4.33,2.7.98,3.91.65,1.21,1.57,2.18,2.74,2.91,1.18.73,2.53,1.1,4.06,1.1,1.02,0,2-.19,2.93-.57.94-.38,1.77-.87,2.5-1.48l1.15,1.62c-.89.7-1.92,1.27-3.08,1.72-1.16.44-2.35.67-3.55.67Z" style="fill: #fff; stroke-width: 0px;"/>
      </g>
      <g>
        <path d="m124.09,51.81c-1.54-.84-3.1-1.54-4.7-2.09-1.59-.55-3.09-.82-4.48-.82-1.72,0-3.08.35-4.07,1.04s-1.48,1.74-1.48,3.13c0,.95.38,1.8,1.13,2.56.75.75,1.72,1.42,2.91,2,1.19.59,2.43,1.12,3.71,1.59,1.17.44,2.34.96,3.49,1.57,1.15.6,2.19,1.36,3.1,2.25.92.9,1.65,2.01,2.2,3.35.55,1.34.82,2.98.82,4.92,0,2.05-.53,3.96-1.59,5.71-1.06,1.76-2.62,3.18-4.67,4.26-2.05,1.08-4.58,1.62-7.58,1.62-1.54,0-3.1-.16-4.7-.47-1.59-.31-3.16-.79-4.7-1.43-1.54-.64-3.02-1.46-4.45-2.45l3.52-6.21c.95.7,1.99,1.31,3.1,1.84,1.12.53,2.24.94,3.38,1.24,1.14.29,2.18.44,3.13.44s1.91-.14,2.88-.41c.97-.28,1.78-.74,2.42-1.4.64-.66.96-1.58.96-2.75,0-.8-.27-1.54-.8-2.2-.53-.66-1.25-1.26-2.14-1.81-.9-.55-1.88-1.03-2.94-1.43-1.25-.48-2.53-1.03-3.85-1.65s-2.56-1.38-3.71-2.28c-1.15-.9-2.09-2.01-2.8-3.35-.71-1.34-1.07-2.98-1.07-4.92,0-2.34.52-4.38,1.57-6.1,1.04-1.72,2.52-3.09,4.42-4.09,1.9-1.01,4.1-1.57,6.59-1.68,3.26,0,5.91.38,7.94,1.15,2.03.77,3.85,1.69,5.47,2.75l-3.02,6.1Z" style="fill: #fff; stroke-width: 0px;"/>
        <path d="m146.78,42.03c3.33,0,6.15.56,8.46,1.68,2.31,1.12,4.07,2.69,5.28,4.73s1.81,4.44,1.81,7.23c0,1.65-.25,3.31-.74,4.97s-1.28,3.18-2.36,4.53c-1.08,1.36-2.53,2.45-4.34,3.27-1.81.82-4.04,1.24-6.68,1.24h-5.71v12.8h-7.97v-40.44h12.25Zm1.37,19.89c1.21,0,2.22-.21,3.02-.63.81-.42,1.44-.95,1.9-1.59.46-.64.79-1.31.99-2,.2-.7.3-1.3.3-1.81,0-.4-.06-.94-.19-1.62-.13-.68-.39-1.36-.8-2.06-.4-.7-1.02-1.28-1.84-1.76-.82-.48-1.93-.71-3.32-.71h-5.71v12.2h5.66Z" style="fill: #fff; stroke-width: 0px;"/>
        <path d="m167,62.31c0-2.78.53-5.42,1.59-7.91,1.06-2.49,2.54-4.7,4.42-6.62,1.89-1.92,4.07-3.43,6.57-4.53,2.49-1.1,5.17-1.65,8.02-1.65s5.48.55,7.97,1.65c2.49,1.1,4.7,2.61,6.62,4.53,1.92,1.92,3.42,4.13,4.51,6.62,1.08,2.49,1.62,5.13,1.62,7.91s-.54,5.53-1.62,8.02c-1.08,2.49-2.58,4.68-4.51,6.57-1.92,1.89-4.13,3.36-6.62,4.42-2.49,1.06-5.15,1.59-7.97,1.59s-5.53-.53-8.02-1.59c-2.49-1.06-4.68-2.54-6.57-4.42-1.89-1.89-3.36-4.08-4.42-6.57-1.06-2.49-1.59-5.17-1.59-8.02Zm8.24,0c0,1.8.32,3.47.96,5.03.64,1.56,1.54,2.93,2.69,4.12,1.15,1.19,2.49,2.12,4.01,2.78,1.52.66,3.18.99,4.97.99s3.32-.33,4.81-.99c1.48-.66,2.77-1.58,3.87-2.78,1.1-1.19,1.96-2.56,2.58-4.12.62-1.56.93-3.23.93-5.03s-.32-3.53-.96-5.11c-.64-1.57-1.52-2.96-2.64-4.15-1.12-1.19-2.43-2.12-3.93-2.78s-3.13-.99-4.89-.99-3.39.33-4.89.99c-1.5.66-2.82,1.58-3.96,2.78-1.14,1.19-2.02,2.57-2.64,4.15-.62,1.58-.93,3.28-.93,5.11Z" style="fill: #fff; stroke-width: 0px;"/>
        <path d="m228.55,42.03c2.53,0,4.78.32,6.76.96,1.98.64,3.63,1.56,4.97,2.75,1.34,1.19,2.35,2.62,3.05,4.29.7,1.67,1.04,3.54,1.04,5.63,0,1.65-.25,3.3-.74,4.95-.49,1.65-1.3,3.15-2.42,4.51-1.12,1.36-2.59,2.45-4.42,3.27-1.83.82-4.1,1.24-6.81,1.24h-5.71v12.86h-7.97v-40.44h12.25Zm1.37,19.89c1.21,0,2.22-.2,3.02-.6.81-.4,1.44-.92,1.9-1.54.46-.62.79-1.27.99-1.95.2-.68.3-1.31.3-1.9,0-.44-.06-1-.19-1.68-.13-.68-.39-1.36-.8-2.06-.4-.7-1.02-1.28-1.84-1.76-.82-.48-1.93-.71-3.32-.71h-5.71v12.2h5.66Zm7.47,4.95l10,15.61h-9.29l-10.22-15.39,9.51-.22Z" style="fill: #fff; stroke-width: 0px;"/>
        <path d="m250.42,42.03h27.26v7.69h-9.84v32.75h-7.97v-32.75h-9.45v-7.69Z" style="fill: #fff; stroke-width: 0px;"/>
      </g>
      <g id="g1">
        <path id="path1" d="m28.74,81.84c-.44-.19-2.06-1.33-2.37-1.68-.17-.19-.34-.66-.39-1.05-.07-.67.01-.85,1.81-3.6,5.16-7.91,6.4-9.74,6.75-9.92.35-.19,1.1-.24,1.88-.12.26.04,1.54-1.81,6.63-9.54l6.3-9.58-1.43-1.4c-3.99-3.93-5.85-8.3-5.85-13.8,0-2.78.31-4.69,1.21-7.37,2.29-6.86,7.13-12.49,13.27-15.44,5.42-2.6,11.1-2.63,16.44-.08,4.63,2.21,7.88,6.35,9.23,11.8.58,2.33.72,6.05.32,8.61-.53,3.39-2,7.14-3.91,10-4.49,6.72-11.69,10.89-18.83,10.9-2.49,0-5.9-.8-8.03-1.88l-.79-.4-6.34,9.67c-5.27,8.04-6.31,9.72-6.15,9.94.49.67.69,1.36.54,1.88-.16.57-7.57,12-8.2,12.65-.38.4-1.55.62-2.07.41h0Zm31.3-37.62c.23-.3.42-.6.42-.66,0-.13-2.46-1.76-2.66-1.76-.12,0-1.64,2.22-1.64,2.39,0,.12,1.72.42,3.17.56.15.01.47-.22.7-.53h0Zm6.16-1c.65-.31,1.26-.72,1.36-.9.19-.35,0-.53-1.92-1.73l-.69-.43-.84,1.31c-.46.72-.84,1.37-.84,1.44,0,.22,1.04.86,1.41.87.18,0,.87-.24,1.52-.56h0Zm-10.97-1.16l.93-1.4-.7-.48c-.38-.26-1.01-.67-1.39-.91l-.69-.43-.92,1.41c-.51.78-.87,1.49-.82,1.58.14.23,2.25,1.61,2.48,1.62.1,0,.6-.62,1.11-1.39h0Zm7.21-1.49c.46-.68.83-1.3.83-1.38,0-.16-2.62-1.93-2.7-1.83-.19.24-1.61,2.51-1.64,2.63-.04.14,2.32,1.81,2.56,1.81.07,0,.49-.55.95-1.23h0Zm-10.74-2.75c0-.11-2.51-1.8-2.68-1.8-.05,0-.25.26-.44.58-.41.7-.35.92.74,2.6l.75,1.17.81-1.22c.45-.67.81-1.27.81-1.33h0Zm17.99,1.21c.47-.71.85-1.33.85-1.39,0-.09-2.58-1.78-2.72-1.78-.17,0-1.75,2.71-1.63,2.81.26.24,2.45,1.65,2.55,1.65.06,0,.49-.58.95-1.29Zm2.52-.16c.21-.26.2-.27-.06-.06-.28.22-.36.35-.23.35.03,0,.16-.13.29-.29Zm-14.15-1.14c.45-.69.85-1.31.87-1.38.04-.11-2.44-1.82-2.64-1.82-.19,0-1.83,2.66-1.72,2.77.17.17,2.47,1.67,2.57,1.68.05,0,.45-.56.91-1.26h0Zm7.15-1.42c.44-.66.85-1.28.91-1.39.1-.18-2.32-1.88-2.65-1.87-.17,0-1.62,2.33-1.62,2.6,0,.15,2.3,1.85,2.51,1.86.02,0,.4-.54.84-1.2h0Zm9.28-.22c.8-1.19,1.01-1.72.69-1.72-.24,0-1.88,2.61-1.76,2.8.06.1.13.17.17.17s.44-.56.9-1.25h0Zm-20.67-1.41l.84-1.26-1.4-.93-1.4-.93-.6.95c-.33.52-.74,1.16-.92,1.4l-.31.45,1.37.89c.75.49,1.42.85,1.47.79.06-.06.48-.67.94-1.37h0Zm18.84-.17l.84-1.26-1.33-.84c-.73-.46-1.38-.84-1.44-.84-.06,0-.5.6-.98,1.32l-.87,1.32,1.36.91c.75.5,1.41.85,1.46.79.06-.07.49-.69.95-1.38Zm-11.71-1.18c.46-.71.84-1.34.84-1.4,0-.15-2.36-1.69-2.59-1.69-.15,0-.49.46-1.61,2.18l-.29.44,1.37.91c.75.5,1.38.9,1.4.88s.42-.62.88-1.32h0Zm-11.55-1.44c.48-.73.84-1.35.81-1.38-.28-.23-2.63-1.76-2.71-1.76-.22,0-.58,1.2-.58,1.96,0,1.37.14,1.73.8,2.13.33.2.65.36.71.37.06,0,.49-.59.97-1.32h0Zm18.84-.17c.48-.73.84-1.35.81-1.38-.34-.28-2.66-1.77-2.7-1.73-.25.31-1.75,2.62-1.75,2.7,0,.11,2.5,1.74,2.66,1.74.06,0,.49-.6.97-1.33h0Zm8.23.58c-.05-.05-.14.04-.21.2-.09.24-.07.25.09.09.11-.11.16-.25.11-.3Zm-19.8-1.96c.47-.71.82-1.32.8-1.34-.27-.21-2.61-1.74-2.67-1.74-.09,0-1.76,2.55-1.76,2.69s2.53,1.78,2.67,1.73c.06-.02.49-.62.96-1.34Zm18.82-.1l.84-1.32-1.19-.8c-.66-.44-1.28-.85-1.38-.91-.27-.16-1.98,2.49-1.76,2.71.33.33,2.28,1.61,2.47,1.62.1,0,.57-.58,1.03-1.31h0Zm-11.64-1.35l.91-1.35-1.31-.88c-.72-.48-1.35-.88-1.4-.88s-.49.61-.99,1.35l-.91,1.35,1.27.87c.7.48,1.33.87,1.4.88.07,0,.53-.6,1.03-1.34h0Zm-11.66-1.26c.47-.71.85-1.34.85-1.4,0-.13-2.41-1.77-2.59-1.77-.07,0-.53.61-1.02,1.35-.68,1.03-.83,1.37-.66,1.47.12.07.74.47,1.38.88s1.17.75,1.18.76c.01,0,.4-.58.87-1.29h0Zm18.78-.06c.42-.65.8-1.28.85-1.4.07-.18-1.88-1.59-2.49-1.81-.1-.04-.58.54-1.07,1.28-.68,1.03-.83,1.37-.66,1.48.12.07.71.47,1.3.87.59.41,1.13.75,1.19.75.06,0,.46-.53.89-1.18h0Zm-10.67-2.85c0-.12-2.44-1.74-2.62-1.74-.23,0-1.95,2.69-1.76,2.75.09.03.72.42,1.39.87l1.23.82.88-1.31c.48-.72.88-1.35.88-1.39Zm17.44,1.98c.25-.59.31-1.83.14-2.67-.07-.33-.29-.59-.73-.85-.35-.2-.67-.37-.71-.37s-.47.6-.95,1.34c-.71,1.08-.83,1.37-.64,1.48.13.08.72.47,1.31.88.59.41,1.13.75,1.21.75.07,0,.24-.25.37-.56Zm-10.33-3.25c.13-.22-.08-.43-1.13-1.12-.71-.46-1.34-.84-1.4-.84-.13,0-1.77,2.41-1.77,2.59,0,.07.61.52,1.36.99l1.36.86.71-1.11c.39-.61.78-1.23.86-1.38h0Zm-12.26-.31l.84-1.32-1.22-.82c-.67-.45-1.3-.84-1.39-.87s-.57.55-1.07,1.28l-.89,1.32,1.26.86c.69.47,1.34.86,1.44.87.1,0,.56-.58,1.03-1.31h0Zm18.92-.28l.76-1.19-.45-.31c-.25-.17-.87-.58-1.38-.9l-.93-.59-.91,1.37-.91,1.37,1.35.91c1.01.68,1.4.86,1.54.72.1-.1.53-.73.94-1.38h0Zm-25.43.69c.06-.15.03-.21-.06-.16-.09.06-.16.17-.16.26,0,.24.12.19.23-.1Zm13.69-1.8c.43-.68.78-1.3.78-1.39,0-.16-.07-.21-1.69-1.24l-.94-.6-.83,1.23c-.45.67-.85,1.3-.87,1.39-.05.16,2.29,1.81,2.6,1.84.09,0,.52-.54.95-1.22Zm-11.6-1.42c.6-.91.82-1.38.7-1.5s-.44.23-1.02,1.1c-.81,1.21-1.02,1.73-.7,1.73.08,0,.54-.6,1.02-1.33Zm18.83-.07c.46-.68.83-1.3.83-1.39,0-.16-2.63-1.92-2.71-1.81-.6.75-1.74,2.68-1.64,2.78.29.26,2.45,1.66,2.57,1.66.07,0,.49-.55.95-1.23h0Zm-11.58-1.4c.46-.72.84-1.34.84-1.38,0-.09-2.54-1.76-2.67-1.76-.05,0-.49.6-.97,1.34-.71,1.08-.83,1.37-.64,1.48.13.08.72.47,1.31.88.59.41,1.12.75,1.18.75.06,0,.49-.58.95-1.3h0Zm18.35.58l.35-.57-.44-.88c-.24-.48-.66-1.2-.93-1.59l-.49-.72-.81,1.21c-.44.67-.81,1.26-.81,1.31,0,.11,2.5,1.8,2.67,1.8.06,0,.27-.25.46-.57Zm-11.15-2.02c.45-.69.85-1.31.87-1.38.05-.11-2.44-1.82-2.65-1.82-.17,0-1.8,2.48-1.74,2.65.05.14,2.41,1.76,2.61,1.79.05,0,.45-.56.91-1.25Zm-12.29-.35c.21-.26.2-.27-.06-.06-.16.12-.29.25-.29.29,0,.14.14.05.35-.23Zm19.65-1.38l.89-1.35-.57-.49c-.75-.64-2.15-1.35-2.31-1.18-.07.08-.51.71-.97,1.41l-.85,1.28,1.35.91c.74.5,1.4.87,1.46.84.06-.04.51-.68,1-1.42Zm-11.76-1.13c.46-.72.84-1.37.84-1.45,0-.2-1.11-.88-1.45-.88-.5,0-2.65,1.11-2.84,1.47-.17.31-.06.42,1.19,1.25.75.5,1.38.91,1.39.91.01,0,.4-.58.87-1.31Zm7.95-2.68c0-.13-1.24-.42-2.44-.56-.96-.12-1.22,0-1.62.78l-.24.46,1.36.91,1.36.91.79-1.19c.44-.66.79-1.24.79-1.3h0Zm-11.98,66.44c-2.38-.24-5.78-.96-7.99-1.67-2.97-.97-3.8-1.84-3.63-3.84.06-.69.23-1.09.91-2.1,8.33-12.35,20.59-16.6,34.76-12.06,2.24.72,3.19,1.69,3.4,3.49.14,1.18-.17,2.06-1.26,3.52-4.9,6.6-11.14,11-17.49,12.34-1.87.39-6.35.56-8.7.32Zm6.96-2.06c6.75-1.16,12.59-4.92,17.22-11.08,1.24-1.65,1.35-1.86,1.35-2.56,0-1.44-.55-1.81-4.05-2.71-2.81-.72-5.66-1.08-8.65-1.08-4.28,0-7,.64-10.62,2.51-2.52,1.3-4.91,3.12-7.26,5.53-1.98,2.03-4.55,5.3-4.73,6-.19.75.26,1.21,1.69,1.72,1.83.65,4.75,1.4,6.47,1.67,2.04.32,6.74.32,8.58,0h0Zm-6.35-3.76c-.1-.12-.26-.42-.35-.68-.13-.35-.25-.44-.46-.35-.16.06-.6.16-.97.2-.61.07-.72.03-.97-.36-.41-.63-.13-1.14.82-1.5l.75-.29-.1-.69c-.07-.52-.03-.76.18-.97.55-.55,1.48-.25,1.66.55.13.58.12.58,1.11.24l.75-.26-.02-.85c-.02-.74.03-.88.36-1.05.57-.29,1.03-.09,1.3.57.14.33.26.61.28.64.03.04,1.6-.46,1.71-.54.03-.02-.03-.25-.13-.51-.24-.64-.09-1.13.43-1.37.55-.25,1.17.1,1.41.8l.16.47.81-.26.81-.26-.03-.83c-.03-.75.01-.85.42-1.09.56-.32.93-.14,1.28.63.26.57.5.6,1.53.21.42-.16.45-.22.35-.89-.08-.55-.03-.78.18-1,.56-.56,1.38-.23,1.66.69.09.3.2.36.47.28,1.47-.44,2.15-.18,2.06.79-.04.44-.16.56-.88.84-.45.18-.85.34-.87.35-.02.01.04.26.14.55.25.71-.14,1.35-.82,1.35-.49,0-1.01-.44-1.01-.85s-.15-.44-1.01-.17l-.82.26.1.69c.09.57.04.76-.24,1.04-.19.19-.46.35-.6.35-.33,0-1.07-.74-1.07-1.07,0-.3-.12-.31-1.07-.07l-.72.18.09.77c.08.64.03.82-.26,1.09-.49.44-1.17.2-1.49-.54-.2-.46-.31-.54-.66-.46-.91.18-1.36.44-1.26.7.29.77.28,1.04-.06,1.38-.52.52-1.17.39-1.52-.3-.38-.76-.35-.75-1.26-.45l-.81.27.17.65c.15.55.13.7-.13.99-.34.38-1.11.45-1.38.13h0Zm-40.02-2.69c-.23-.04-.97-.15-1.64-.25-7.57-1.12-14.17-7.88-15.48-15.84-.97-5.92,1.31-12.49,5.76-16.62,6.16-5.7,15.59-6.77,22.59-2.56,7.36,4.42,10.81,12.69,8.74,20.9-.89,3.54-2.69,6.6-5.41,9.21-2.71,2.6-5.66,4.13-9.31,4.83-1.32.25-4.52.45-5.25.32h0Zm4.13-2.13c2.24-.34,6.11-1.77,6.11-2.27,0-.08-2-3.07-4.43-6.65l-4.43-6.51-2.03,1.39c-1.12.76-2.06,1.41-2.09,1.45s.31.85.77,1.81c.46.96,1.03,2.48,1.27,3.37.39,1.46.44,1.93.45,4.55.01,2.79.03,2.93.34,2.99.76.15,2.58.09,4.05-.13h0Zm-6.32-3.21c-.06-1.69-.18-2.8-.42-3.68-.4-1.47-1.23-3.52-1.66-4.08l-.3-.39-3.58,2.44c-1.97,1.34-3.58,2.5-3.58,2.57,0,.27,2.05,2.31,3.11,3.1,1.54,1.13,3,1.9,4.73,2.48,1.32.44,1.5.47,1.63.24.08-.14.11-1.35.06-2.68h0Zm15.73-1.49c1.53-1.51,3.11-3.86,3.8-5.64.83-2.16.85-2.04-.35-2.37-2.98-.83-5.73-2.5-8.16-4.96l-1.67-1.69-2.08,1.43-2.08,1.43,4.46,6.56c2.45,3.61,4.53,6.56,4.61,6.56s.74-.59,1.47-1.3Zm-22.76-5.91l3.59-2.42-.31-.44c-.95-1.33-3.6-3.45-5.57-4.44-1.19-.6-3.52-1.39-3.66-1.25-.05.05-.09,1.19-.08,2.52.02,2.04.09,2.68.44,4.03.42,1.6,1.63,4.43,1.88,4.43.07,0,1.75-1.09,3.72-2.42h0Zm9.29-6.54c-.02-.28-8.61-12.91-8.83-12.99-.23-.08-2.22,1.87-3.14,3.08-.44.57-1.12,1.69-1.53,2.48-.7,1.37-1.41,3.27-1.26,3.39.04.03.7.26,1.48.5,3.05.98,5.94,2.83,8.12,5.22l1.18,1.29,2-1.37c1.1-.75,1.99-1.47,1.98-1.6h0Zm18.52-.62c-.13-1.67-.35-2.8-.86-4.38-.5-1.55-1.3-3.22-1.55-3.22-.09,0-1.77,1.09-3.71,2.42l-3.54,2.42.31.43c.53.74,2.52,2.57,3.57,3.27,1.62,1.09,3.39,1.89,5.37,2.41.33.09.54-1.63.41-3.35Zm-14.41-1.92c1.02-.7,1.88-1.29,1.91-1.31s-.21-.51-.52-1.09c-.76-1.39-1.51-3.59-1.85-5.39-.27-1.44-.38-5.12-.16-5.78.13-.42-.24-.53-1.83-.54-2.57,0-5.54.71-7.78,1.87l-1.04.54,1.29,1.89c.71,1.04,2.73,4,4.48,6.57,2.19,3.21,3.26,4.65,3.42,4.59.13-.05,1.07-.66,2.09-1.36h0Zm7.64-5.22c1.73-1.17,3.16-2.18,3.18-2.25.08-.23-1.76-2.12-2.97-3.05-1.53-1.17-3.33-2.13-4.98-2.67-.72-.23-1.36-.42-1.42-.42-.21,0-.32,2.55-.17,4,.08.78.27,1.92.43,2.55.3,1.2,1.19,3.45,1.64,4.13.32.48-.24.78,4.29-2.29Zm-.27-13.07c-1-.42-1.7-.87-2.19-1.41-.26-.28-.44-.32-1.19-.24-.67.07-.99.02-1.32-.19-.54-.35-1.07-1.21-1.07-1.75,0-.46.54-.15-7.76-4.43l-4.54-2.34-.6-.95c-.33-.52-1.39-2.21-2.35-3.74-.97-1.53-1.76-2.88-1.76-3s.13-.37.29-.56c.24-.3.63-.39,2.44-.61,1.18-.14,2.17-.28,2.21-.31.03-.03-.37-1.33-.89-2.89-1.01-3.02-1.04-3.46-.25-3.71.2-.06,1.5.2,3.17.65,1.56.42,2.86.73,2.9.69s.11-.73.15-1.54c.17-2.91.32-3.37,1.12-3.37.2,0,2.07.95,4.15,2.11l3.77,2.11,3.52,5.95,3.52,5.95.69.1c.94.13,1.8,1.04,1.8,1.9,0,.48.15.77.76,1.44,2.46,2.74,2.42,6.21-.11,8.74-1.18,1.18-2.37,1.69-4.11,1.75-1.17.04-1.56-.02-2.33-.34h0Zm4.43-2.2c2.19-1.35,2.62-4.45.88-6.36l-.66-.73-2.89,2.97c-1.59,1.64-2.89,3.06-2.89,3.17,0,.24.89.94,1.65,1.29.41.18.94.24,1.85.2,1.06-.05,1.41-.14,2.07-.55Zm-7.92-4.95c-.11-.11-3.14-2.51-6.73-5.35l-6.52-5.15-1.08.11c-.59.06-1.36.16-1.7.22l-.62.11,1.7,2.7,1.7,2.7,3.37,1.74c1.85.96,4.56,2.36,6.02,3.12l2.64,1.37.7-.69c.56-.54.66-.73.5-.88h0Zm2.11-1.88l.47-.49-.34-.37c-.28-.31-10.76-12.15-11.12-12.56-.11-.12-4.67-1.43-4.75-1.36-.02.02.31,1.06.74,2.33l.78,2.3,6.76,5.33c3.72,2.93,6.81,5.33,6.87,5.33s.33-.22.59-.49h0Zm2.98-3.7c-.12-.19-1.65-2.77-3.39-5.72-1.74-2.95-3.26-5.46-3.36-5.56-.11-.11-1.39-.86-2.86-1.67-3.07-1.71-2.86-1.75-2.86.63v1.4s5.64,6.33,5.64,6.33l5.64,6.33.71-.69c.64-.63.69-.72.49-1.04h0Z" style="fill: #fff; stroke-width: 0px;"/>
      </g>
    </g>
  </g>
</svg>