<?xml version="1.0" encoding="UTF-8"?>
<svg id="Calque_2" data-name="Calque 2" xmlns="http://www.w3.org/2000/svg" viewBox="0 0 317.58 82.78">
  <g id="svg19">
    <g>
      <g>
        <path d="m113.44,2.39c3.28,0,5.81.68,7.61,2.03,1.8,1.35,2.7,3.54,2.7,6.56,0,1.5-.29,2.86-.86,4.1-.57,1.24-1.42,2.26-2.55,3.05-1.13.79-2.54,1.3-4.22,1.53l-.24-1.14c1.75.13,3.35.56,4.8,1.31,1.45.75,2.61,1.75,3.48,3.01s1.31,2.73,1.31,4.41c0,1.53-.29,2.86-.88,3.98-.59,1.13-1.38,2.07-2.39,2.82-1,.75-2.14,1.3-3.41,1.67-1.27.37-2.61.55-4.01.55h-8.83V2.39h7.49Zm1.1,15.84c2.42,0,4.16-.65,5.22-1.96,1.07-1.3,1.6-2.93,1.6-4.87,0-2.42-.71-4.15-2.12-5.2-1.42-1.05-3.32-1.58-5.7-1.58h-5.25v13.6h6.25Zm.14,15.89c1.53,0,2.93-.25,4.2-.74s2.29-1.25,3.05-2.27c.76-1.02,1.14-2.27,1.14-3.77,0-1.65-.43-2.98-1.29-3.99-.86-1-1.94-1.73-3.25-2.19s-2.64-.69-4.01-.69h-6.25v13.65h6.39Z" style="fill: #fff; stroke-width: 0px;"/>
        <path d="m140.69,36.65c-1.78,0-3.4-.41-4.84-1.22-1.45-.81-2.59-1.95-3.44-3.41-.84-1.46-1.27-3.17-1.27-5.11,0-2.07.45-3.84,1.34-5.32.89-1.48,2.1-2.61,3.63-3.39,1.53-.78,3.26-1.17,5.2-1.17,1.65,0,3.22.49,4.7,1.48,1.48.99,2.54,2.23,3.17,3.72l-.33.67.29-5.3h2v18.66h-2.24v-5.77l.48.86c-.22.64-.6,1.26-1.14,1.88-.54.62-1.2,1.19-1.98,1.72-.78.53-1.64.94-2.58,1.24-.94.3-1.93.45-2.98.45Zm.48-1.91c1.4,0,2.66-.29,3.79-.88,1.13-.59,2.04-1.41,2.74-2.46s1.1-2.26,1.19-3.63v-2.67c-.25-1.18-.76-2.23-1.5-3.15-.75-.92-1.66-1.65-2.74-2.2-1.08-.54-2.26-.81-3.53-.81-1.4,0-2.69.33-3.87.98-1.18.65-2.12,1.57-2.82,2.74s-1.05,2.56-1.05,4.15c0,1.46.35,2.79,1.05,3.98.7,1.19,1.65,2.15,2.84,2.86s2.49,1.07,3.89,1.07Z" style="fill: #fff; stroke-width: 0px;"/>
        <path d="m161.5,9.4h2.29v8.45h5.77v1.81h-5.77v16.61h-2.29v-16.61h-3.96v-1.81h3.96v-8.45Z" style="fill: #fff; stroke-width: 0px;"/>
        <path d="m177,9.4h2.29v8.45h5.77v1.81h-5.77v16.61h-2.29v-16.61h-3.96v-1.81h3.96v-8.45Z" style="fill: #fff; stroke-width: 0px;"/>
        <path d="m190.65,0h2.24v36.27h-2.24V0Z" style="fill: #fff; stroke-width: 0px;"/>
        <path d="m209.5,36.65c-1.94,0-3.66-.43-5.15-1.29-1.5-.86-2.67-2.03-3.51-3.51-.84-1.48-1.27-3.14-1.27-4.99s.45-3.47,1.34-4.96c.89-1.5,2.09-2.69,3.6-3.58,1.51-.89,3.19-1.34,5.04-1.34,2.23,0,4.1.65,5.61,1.96,1.51,1.3,2.6,3.01,3.27,5.11l-16.32,6.3-.67-1.62,14.94-5.82-.48.67c-.54-1.27-1.36-2.37-2.46-3.29s-2.44-1.38-4.03-1.38c-1.43,0-2.72.35-3.87,1.05-1.14.7-2.06,1.64-2.74,2.82-.68,1.18-1.03,2.51-1.03,4.01,0,1.4.33,2.7.98,3.91.65,1.21,1.57,2.18,2.74,2.91,1.18.73,2.53,1.1,4.06,1.1,1.02,0,2-.19,2.93-.57s1.77-.87,2.51-1.48l1.14,1.62c-.89.7-1.92,1.27-3.08,1.72-1.16.45-2.35.67-3.55.67Z" style="fill: #fff; stroke-width: 0px;"/>
      </g>
      <g>
        <path d="m115.37,41.68c2.53,0,4.78.32,6.76.96,1.98.64,3.64,1.56,4.97,2.75,1.34,1.19,2.35,2.62,3.05,4.29.7,1.67,1.04,3.54,1.04,5.63,0,1.65-.25,3.3-.74,4.95s-1.3,3.15-2.42,4.51c-1.12,1.36-2.59,2.45-4.42,3.27-1.83.82-4.1,1.24-6.81,1.24h-5.71v12.86h-7.97v-40.44h12.25Zm1.37,19.89c1.21,0,2.22-.2,3.02-.6.81-.4,1.44-.92,1.9-1.54.46-.62.79-1.27.99-1.95.2-.68.3-1.31.3-1.9,0-.44-.06-1-.19-1.68-.13-.68-.39-1.36-.8-2.06-.4-.7-1.02-1.28-1.84-1.76-.82-.48-1.93-.71-3.32-.71h-5.71v12.2h5.66Zm7.47,4.95l10,15.61h-9.29l-10.22-15.39,9.51-.22Z" style="fill: #fff; stroke-width: 0px;"/>
        <path d="m136.96,61.96c0-2.78.53-5.42,1.59-7.91,1.06-2.49,2.54-4.7,4.42-6.62s4.07-3.43,6.57-4.53c2.49-1.1,5.17-1.65,8.02-1.65s5.48.55,7.97,1.65,4.7,2.61,6.62,4.53,3.42,4.13,4.51,6.62c1.08,2.49,1.62,5.13,1.62,7.91s-.54,5.53-1.62,8.02c-1.08,2.49-2.58,4.68-4.51,6.57s-4.13,3.36-6.62,4.42c-2.49,1.06-5.15,1.59-7.97,1.59s-5.53-.53-8.02-1.59c-2.49-1.06-4.68-2.54-6.57-4.42s-3.36-4.08-4.42-6.57-1.59-5.17-1.59-8.02Zm8.24,0c0,1.8.32,3.47.96,5.03.64,1.56,1.54,2.93,2.69,4.12,1.15,1.19,2.49,2.12,4.01,2.78,1.52.66,3.18.99,4.97.99s3.33-.33,4.81-.99c1.48-.66,2.78-1.58,3.88-2.78,1.1-1.19,1.96-2.56,2.58-4.12.62-1.56.93-3.23.93-5.03s-.32-3.53-.96-5.11c-.64-1.57-1.52-2.96-2.64-4.15-1.12-1.19-2.43-2.12-3.93-2.78-1.5-.66-3.13-.99-4.89-.99s-3.39.33-4.89.99c-1.5.66-2.82,1.58-3.96,2.78-1.14,1.19-2.01,2.57-2.64,4.15-.62,1.58-.93,3.28-.93,5.11Z" style="fill: #fff; stroke-width: 0px;"/>
        <path d="m192.63,69.54l-14.89-27.86h9.84l10.44,20.99-2.36.17,10.28-21.16h9.84l-15.17,27.86v12.58h-7.97v-12.58Z" style="fill: #fff; stroke-width: 0px;"/>
        <path d="m211.2,82.12l18.24-42.04h.44l18.24,42.04h-9.23l-11.65-29.56,5.77-3.96-13.96,33.52h-7.86Zm12.47-14.62h12.14l2.8,6.7h-17.42l2.47-6.7Z" style="fill: #fff; stroke-width: 0px;"/>
        <path d="m254.01,41.68h7.97v32.75h19.01v7.69h-26.98v-40.44Z" style="fill: #fff; stroke-width: 0px;"/>
        <path d="m289.23,41.68h27.59v7.69h-19.62v8.63h17.36v7.69h-17.36v8.74h20.38v7.69h-28.35v-40.44Z" style="fill: #fff; stroke-width: 0px;"/>
      </g>
      <g id="g1">
        <path id="path1" d="m14.16,70.92l11.85-11.86.71.91c.39.5,1.26,1.44,1.93,2.1,1.11,1.08,1.2,1.22.97,1.49-.34.4-15.57,17.44-15.98,17.87-.27.29-.94.39-4.76.74-2.45.22-4.93.45-5.51.51l-1.06.11,11.85-11.86Zm59.04,11.31c-3.57-.34-5.14-.55-5.3-.72-.56-.6-15.86-17.7-16.08-17.97-.22-.27-.12-.42.89-1.4.62-.6,1.5-1.53,1.95-2.06l.81-.97,11.84,11.83c9.21,9.21,11.74,11.82,11.4,11.8-.24-.01-2.72-.24-5.51-.5ZM.38,79.68c.06-.58.29-3.06.51-5.51l.4-4.46.6-.57c3.12-3,11.59-10.82,11.71-10.82.09,0,.51.18.94.39.7.35,1.12.4,3.99.48l3.21.09-10.74,10.73L.27,80.74l.11-1.06Zm69.99-9.75l-10.7-10.7,3.24-.06c2.97-.06,3.31-.1,4.07-.47.46-.23.9-.38.99-.35.13.05,9.33,8.6,11.53,10.71l.68.66.5,5.42c.27,2.98.48,5.44.45,5.46s-4.86-4.77-10.75-10.66h0Zm-33.26-5.69c-1.94-.99-4.09-2.21-4.78-2.73-3.11-2.32-5.58-5.87-6.58-9.45-.37-1.34-.39-1.74-.45-10.5l-.06-9.1h9.24l-.69.7-.69.7.69.7.69.7h-6.42l.06,7.61.06,7.61.49,1.58c.96,3.12,2.87,5.92,5.3,7.77.68.52,2.48,1.57,4,2.35l2.77,1.41,2.77-1.41c1.53-.77,3.33-1.83,4-2.35,2.44-1.87,4.34-4.66,5.3-7.78l.49-1.58.06-7.61.06-7.61h-6.43l.69-.7.69-.7-.69-.7-.69-.7h9.24l-.06,9.1c-.06,8.76-.08,9.15-.45,10.51-1.04,3.76-3.88,7.65-7.23,9.93-.78.53-7.61,4.08-7.79,4.05-.03,0-1.63-.82-3.58-1.8h0Zm.85-5.2c-2.46-1.3-4.02-2.76-5.37-4.98-.68-1.12-1.53-3.5-1.53-4.28v-.43h8.26v5.19c0,2.85-.02,5.19-.04,5.18-.02,0-.62-.31-1.31-.68Zm4.17-4.5v-5.19h8.3l-.12.83c-.55,3.64-3.25,7.08-7.08,9l-1.1.55v-5.19Zm-26.52,1.55c-.71-.35-1.4-1.22-1.55-1.95-.25-1.25.45-2.63,1.59-3.13.51-.22.46-.23-.84-.24-1.6,0-2.38-.31-3.02-1.15-1.09-1.43-.56-3.54,1.05-4.24.51-.22.46-.23-.84-.24-1.63,0-2.38-.31-3.07-1.2-.39-.51-.47-.81-.47-1.63,0-1.09.29-1.66,1.21-2.35.47-.35.74-.36,6.63-.41l6.14-.05v4.92c0,2.7.09,5.54.19,6.29.18,1.32.86,3.64,1.46,5.02l.29.66h-4.09c-3.43,0-4.19-.05-4.67-.3h0Zm41.75-.36c.6-1.38,1.28-3.7,1.46-5.02.1-.76.19-3.59.19-6.29v-4.91h5.91c6.59,0,6.7.02,7.6,1.2.39.51.47.81.47,1.62s-.09,1.11-.47,1.62c-.69.9-1.44,1.2-3.07,1.2h-1.38s.58.29.58.29c.32.16.8.57,1.06.91.67.88.67,2.34,0,3.23-.69.9-1.44,1.2-3.07,1.2h-1.38s.58.29.58.29c.32.16.8.57,1.06.91.67.88.67,2.34,0,3.23-.86,1.13-1.2,1.2-5.75,1.2h-4.06l.29-.66Zm-26.48-13.41v-4.22h6.43l1.01,1.02,1.01,1.02v6.41h-8.44v-4.22Zm11.25,1.02v-3.2l1.01-1.02,1.01-1.02h6.43v8.44h-8.44v-3.2Zm-3.25-7.7l-1.75-1.76,1.8-1.8,1.8-1.8,1.8,1.8,1.8,1.8-1.75,1.76c-.96.97-1.8,1.76-1.85,1.76s-.88-.79-1.85-1.76Zm-17.62-6.1l-1.09-1.23,1.13-1.12,1.13-1.12,1.8,1.8,1.8,1.8h-3.58l-.06.55-.06.55-1.09-1.23Zm37.75.7v-.57h-3.61l1.8-1.8,1.8-1.8,1.13,1.14,1.13,1.14-1.13,1.23-1.13,1.23v-.57Zm-46.17-.93l-1.05-1.06,7.43-7.43,7.43-7.43,1.1,1.1,1.1,1.1-7.38,7.38c-4.06,4.06-7.43,7.38-7.48,7.38s-.57-.48-1.14-1.06Zm47.13-6.33l-7.38-7.38,1.1-1.1,1.1-1.1,7.43,7.43,7.43,7.43-1.05,1.06c-.58.58-1.09,1.06-1.14,1.06s-3.42-3.32-7.48-7.38h0Zm-32.71,3.87l-2.81-2.81,1.14-1.13,1.14-1.13,3.43,3.09c1.89,1.7,3.86,3.48,4.4,3.95l.97.85h-2.73s-2.73,0-2.73,0l-2.81-2.81Zm19.52,2.04c.48-.42,2.46-2.2,4.39-3.94l3.52-3.17,1.14,1.13,1.14,1.13-2.81,2.81-2.81,2.81h-5.45l.88-.77ZM11.81,17l-3.51-3.52,1.8-1.8,1.8-1.8,3.56,3.56,3.56,3.56-1.75,1.76c-.96.97-1.79,1.76-1.85,1.76s-1.67-1.58-3.61-3.52Zm52.4,1.76l-1.75-1.76,3.56-3.56,3.56-3.56,1.8,1.8,1.8,1.8-3.51,3.52c-1.93,1.93-3.56,3.52-3.61,3.52s-.88-.79-1.85-1.76Zm-29.23-4.88c-.06-.17-.69-1.73-1.39-3.48-.7-1.74-1.25-3.18-1.24-3.2.02-.02,1.26.27,2.75.65,1.5.38,2.77.63,2.83.56.06-.07.69-1.61,1.41-3.42.71-1.81,1.34-3.3,1.39-3.3s.67,1.48,1.39,3.3c.71,1.81,1.35,3.35,1.41,3.42.06.07,1.33-.18,2.83-.56s2.73-.67,2.75-.65c.02.02-.59,1.58-1.34,3.46l-1.37,3.43-5.65.05c-5.26.04-5.66.03-5.77-.26h0Zm-28.4-2.97c-.05-.08-.18-.56-.3-1.06l-.21-.91.64-.64.64-.64.97.22c.53.12,1,.27,1.04.33.04.06-.55.73-1.31,1.48-.76.75-1.42,1.3-1.46,1.22Zm66.79-1.28c-.75-.76-1.3-1.42-1.22-1.46s.56-.18,1.06-.3l.91-.21.64.64.64.64-.22.97c-.12.53-.27,1-.33,1.04-.06.04-.73-.55-1.48-1.31ZM1.55,6.86c-.32-.16-.8-.58-1.06-.92-.62-.81-.67-2.37-.11-3.13,1.61-2.16,4.84-1.39,5.13,1.23.24,2.1-2.11,3.76-3.97,2.82Zm75.96,0c-.32-.16-.8-.58-1.06-.92-.62-.81-.67-2.37-.11-3.13,1.61-2.16,4.84-1.39,5.13,1.23.24,2.1-2.11,3.76-3.97,2.82h0Z" style="fill: #fff; stroke-width: 0px;"/>
      </g>
    </g>
  </g>
</svg>