<?xml version="1.0" encoding="UTF-8"?>
<svg id="Calque_2" data-name="Calque 2" xmlns="http://www.w3.org/2000/svg" viewBox="0 0 313.94 83.74">
  <g id="svg19">
    <g>
      <g>
        <path d="m110.03,32.13c0,2.51-.46,4.66-1.38,6.44-.92,1.78-2.16,3.14-3.7,4.08-1.54.94-3.29,1.44-5.23,1.5v-2.24c2.29-.13,4.19-1.03,5.7-2.72,1.51-1.69,2.27-4.09,2.27-7.21V3.36h2.34v28.77Z" style="fill: #fff; stroke-width: 0px;"/>
        <path d="m127.78,37.62c-1.94,0-3.66-.43-5.15-1.29-1.5-.86-2.67-2.03-3.51-3.51-.84-1.48-1.26-3.14-1.26-4.99s.45-3.47,1.34-4.96c.89-1.5,2.09-2.69,3.6-3.58,1.51-.89,3.19-1.34,5.03-1.34,2.23,0,4.1.65,5.61,1.96,1.51,1.3,2.6,3.01,3.27,5.11l-16.32,6.3-.67-1.62,14.94-5.82-.48.67c-.54-1.27-1.36-2.37-2.46-3.29-1.1-.92-2.44-1.38-4.03-1.38-1.43,0-2.72.35-3.87,1.05-1.15.7-2.06,1.64-2.74,2.82-.68,1.18-1.03,2.51-1.03,4.01,0,1.4.33,2.7.98,3.91.65,1.21,1.57,2.18,2.74,2.91,1.18.73,2.53,1.1,4.06,1.1,1.02,0,2-.19,2.94-.57.94-.38,1.77-.88,2.5-1.48l1.15,1.62c-.89.7-1.92,1.27-3.08,1.72-1.16.44-2.35.67-3.55.67Z" style="fill: #fff; stroke-width: 0px;"/>
        <path d="m148.78,37.76c-1.75,0-3.15-.52-4.2-1.55s-1.61-2.38-1.67-4.03v-13.6h2.24v12.93c.06,1.21.45,2.21,1.17,3.01.72.8,1.79,1.23,3.22,1.29,1.21,0,2.34-.32,3.39-.95s1.9-1.5,2.55-2.6c.65-1.1.98-2.35.98-3.75v-9.93h2.24v18.66h-2l-.24-5.87.33,1.29c-.32.95-.88,1.82-1.69,2.6-.81.78-1.77,1.39-2.86,1.84s-2.25.67-3.46.67Z" style="fill: #fff; stroke-width: 0px;"/>
        <path d="m180.94,37.24h-2.67l-13.98-18.66h2.82l13.84,18.66Zm-8.3-8.02l-5.73,8.02h-2.39l6.87-9.5,1.24,1.48Zm.05-2.58l5.54-8.06h2.34l-6.92,9.73-.95-1.67Z" style="fill: #fff; stroke-width: 0px;"/>
        <path d="m208.81,37.62c-1.75,0-3.34-.42-4.77-1.26s-2.57-2.01-3.41-3.51c-.84-1.5-1.26-3.18-1.26-5.06,0-2,.43-3.74,1.29-5.2.86-1.46,2.03-2.59,3.51-3.39,1.48-.79,3.11-1.19,4.89-1.19s3.47.46,5.08,1.38c1.61.92,2.77,2.13,3.51,3.63l-.38,1.05V.97h2.24v36.27h-2.29v-5.73l.48,1.05c-.8,1.5-1.99,2.71-3.58,3.65-1.59.94-3.36,1.41-5.3,1.41Zm.57-1.96c1.43,0,2.72-.31,3.87-.93,1.14-.62,2.07-1.46,2.77-2.53.7-1.07,1.1-2.27,1.19-3.6v-2.39c-.22-1.21-.72-2.29-1.48-3.25-.76-.95-1.69-1.71-2.77-2.27-1.08-.56-2.27-.83-3.58-.83-1.43,0-2.74.33-3.91,1-1.18.67-2.12,1.59-2.82,2.77-.7,1.18-1.05,2.55-1.05,4.1,0,1.46.35,2.79,1.05,3.98.7,1.19,1.65,2.15,2.84,2.86,1.19.72,2.49,1.07,3.89,1.07Z" style="fill: #fff; stroke-width: 0px;"/>
        <path d="m236.1,37.62c-1.94,0-3.66-.43-5.15-1.29-1.5-.86-2.67-2.03-3.51-3.51-.84-1.48-1.26-3.14-1.26-4.99s.45-3.47,1.34-4.96,2.09-2.69,3.6-3.58c1.51-.89,3.19-1.34,5.03-1.34,2.23,0,4.1.65,5.61,1.96,1.51,1.3,2.6,3.01,3.27,5.11l-16.32,6.3-.67-1.62,14.94-5.82-.48.67c-.54-1.27-1.36-2.37-2.46-3.29-1.1-.92-2.44-1.38-4.03-1.38-1.43,0-2.72.35-3.87,1.05-1.15.7-2.06,1.64-2.74,2.82-.68,1.18-1.03,2.51-1.03,4.01,0,1.4.33,2.7.98,3.91.65,1.21,1.57,2.18,2.74,2.91,1.18.73,2.53,1.1,4.06,1.1,1.02,0,2-.19,2.93-.57.94-.38,1.77-.88,2.5-1.48l1.15,1.62c-.89.7-1.92,1.27-3.08,1.72-1.16.44-2.35.67-3.55.67Z" style="fill: #fff; stroke-width: 0px;"/>
      </g>
      <g>
        <path d="m131.56,78.74c-.44.37-1.25.86-2.45,1.48-1.19.62-2.65,1.17-4.37,1.65-1.72.48-3.63.7-5.71.66-3.19-.07-6.04-.65-8.54-1.73-2.51-1.08-4.63-2.56-6.37-4.42-1.74-1.87-3.07-4.01-3.98-6.43-.92-2.42-1.37-5-1.37-7.75,0-3.08.47-5.9,1.4-8.46.93-2.56,2.27-4.78,4.01-6.65,1.74-1.87,3.82-3.32,6.24-4.34,2.42-1.03,5.09-1.54,8.02-1.54,2.71,0,5.11.37,7.2,1.1,2.09.73,3.79,1.52,5.11,2.36l-3.13,7.53c-.92-.7-2.13-1.42-3.65-2.17-1.52-.75-3.27-1.13-5.25-1.13-1.54,0-3.01.32-4.42.96-1.41.64-2.66,1.55-3.74,2.72-1.08,1.17-1.93,2.54-2.56,4.09-.62,1.56-.93,3.25-.93,5.08,0,1.94.28,3.72.85,5.33.57,1.61,1.38,2.99,2.45,4.15,1.06,1.15,2.33,2.04,3.82,2.67,1.48.62,3.16.93,5.03.93,2.16,0,4.01-.35,5.55-1.04,1.54-.7,2.71-1.43,3.52-2.2l3.3,7.14Z" style="fill: #fff; stroke-width: 0px;"/>
        <path d="m134.97,82.09l18.24-42.04h.44l18.24,42.04h-9.23l-11.65-29.56,5.77-3.96-13.96,33.52h-7.86Zm12.47-14.62h12.14l2.8,6.7h-17.42l2.47-6.7Z" style="fill: #fff; stroke-width: 0px;"/>
        <path d="m199.37,51.43c-1.54-.84-3.1-1.54-4.7-2.09-1.59-.55-3.09-.82-4.48-.82-1.72,0-3.08.35-4.07,1.04s-1.48,1.74-1.48,3.13c0,.95.38,1.8,1.13,2.56.75.75,1.72,1.42,2.91,2,1.19.59,2.43,1.12,3.71,1.59,1.17.44,2.34.96,3.49,1.57s2.19,1.36,3.1,2.25,1.65,2.01,2.2,3.35c.55,1.34.82,2.98.82,4.92,0,2.05-.53,3.96-1.59,5.71-1.06,1.76-2.62,3.18-4.67,4.26-2.05,1.08-4.58,1.62-7.58,1.62-1.54,0-3.11-.16-4.7-.47-1.59-.31-3.16-.79-4.7-1.43-1.54-.64-3.02-1.46-4.45-2.45l3.52-6.21c.95.7,1.99,1.31,3.1,1.84,1.12.53,2.24.94,3.38,1.24,1.14.29,2.18.44,3.13.44s1.91-.14,2.88-.41c.97-.28,1.78-.74,2.42-1.4s.96-1.58.96-2.75c0-.8-.27-1.54-.8-2.2-.53-.66-1.25-1.26-2.14-1.81-.9-.55-1.88-1.03-2.94-1.43-1.25-.48-2.53-1.03-3.85-1.65s-2.56-1.38-3.71-2.28c-1.15-.9-2.09-2.01-2.8-3.35-.71-1.34-1.07-2.98-1.07-4.92,0-2.34.52-4.38,1.57-6.1,1.04-1.72,2.52-3.09,4.42-4.09,1.9-1.01,4.1-1.57,6.59-1.68,3.26,0,5.91.38,7.94,1.15s3.86,1.69,5.47,2.75l-3.02,6.1Z" style="fill: #fff; stroke-width: 0px;"/>
        <path d="m209.81,41.65h7.97v40.44h-7.97v-40.44Z" style="fill: #fff; stroke-width: 0px;"/>
        <path d="m264.43,83.74l-30.66-27.7,2.36,1.32.17,24.73h-8.08v-42.04h.33l30,27.58-1.76-.77-.17-25.22h8.02v42.09h-.22Z" style="fill: #fff; stroke-width: 0px;"/>
        <path d="m272.62,61.93c0-2.78.53-5.42,1.59-7.91,1.06-2.49,2.54-4.7,4.42-6.62,1.89-1.92,4.08-3.43,6.57-4.53,2.49-1.1,5.17-1.65,8.02-1.65s5.48.55,7.97,1.65c2.49,1.1,4.7,2.61,6.62,4.53,1.92,1.92,3.42,4.13,4.51,6.62,1.08,2.49,1.62,5.13,1.62,7.91s-.54,5.53-1.62,8.02c-1.08,2.49-2.58,4.68-4.51,6.57-1.92,1.89-4.13,3.36-6.62,4.42-2.49,1.06-5.15,1.59-7.97,1.59s-5.53-.53-8.02-1.59c-2.49-1.06-4.68-2.54-6.57-4.42-1.89-1.89-3.36-4.08-4.42-6.57s-1.59-5.17-1.59-8.02Zm8.24,0c0,1.8.32,3.47.96,5.03.64,1.56,1.54,2.93,2.69,4.12,1.15,1.19,2.49,2.12,4.01,2.78,1.52.66,3.18.99,4.97.99s3.32-.33,4.81-.99c1.48-.66,2.78-1.58,3.87-2.78,1.1-1.19,1.96-2.56,2.58-4.12.62-1.56.93-3.23.93-5.03s-.32-3.53-.96-5.11c-.64-1.57-1.52-2.96-2.64-4.15-1.12-1.19-2.43-2.12-3.93-2.78-1.5-.66-3.13-.99-4.89-.99s-3.39.33-4.89.99c-1.5.66-2.82,1.58-3.96,2.78s-2.01,2.57-2.64,4.15c-.62,1.58-.93,3.28-.93,5.11Z" style="fill: #fff; stroke-width: 0px;"/>
      </g>
      <g id="g1">
        <path id="path1" d="m38.77,82.35c-11.96-.86-22.41-6.26-29.74-15.37C4.39,61.22,1.27,53.94.29,46.58c-.38-2.84-.38-7.96,0-10.8C1.88,23.94,8.56,13.3,18.53,6.73,23.9,3.19,29.79,1.04,36.43.2c2.33-.3,7.63-.26,10.06.08,9.45,1.29,17.64,5.38,24.13,12.06,4.66,4.8,7.79,9.98,9.82,16.23,1.4,4.33,1.93,7.8,1.93,12.61,0,2.26-.09,3.97-.29,5.4-2.01,14.78-11.65,27.2-25.52,32.88-5.26,2.15-12.25,3.29-17.8,2.89Zm-10.1-5.49c.64-1.12,1.07-2.08,1.07-2.35,0-1.02-.36-1.3-5.3-4.16-2.61-1.51-4.97-2.78-5.24-2.82-.96-.14-1.5.34-2.7,2.4l-1.1,1.89,1.32,1.03c1.57,1.21,2.79,2.03,4.55,3.06,1.8,1.05,5.57,2.79,6.14,2.84.1,0,.66-.83,1.25-1.87h0Zm27.81,1.31c3.06-1.26,6.55-3.28,9.18-5.33l1.32-1.03-1.09-1.88c-1.19-2.04-1.76-2.55-2.68-2.41-.6.09-9.34,5.12-9.97,5.74-.29.29-.48.67-.53,1.08-.07.55.05.86,1.01,2.52.6,1.04,1.15,1.89,1.23,1.89s.77-.26,1.54-.58Zm-21.09-9v-1.35l-.85-.2c-2.19-.52-5.71-1.98-7.54-3.14l-.59-.37-.92.93-.92.93,1.03.65c2.58,1.63,6.82,3.32,9.76,3.9.02,0,.04-.6.04-1.35h0Zm15.64.19c1.81-.62,4.45-1.89,6.03-2.88l.79-.5-.94-.95-.94-.95-.66.4c-2.05,1.26-5.26,2.6-7.47,3.12l-.85.2v2.68l1.09-.25c.6-.14,1.92-.53,2.94-.89h0Zm-7.46-2.87c8.89-.94,16.41-6.1,20.37-13.99,3.51-6.98,3.56-15.25.14-22.38-5.18-10.79-17.41-16.55-28.96-13.63-8.91,2.25-15.82,8.89-18.35,17.62-1.59,5.49-1.29,11.21.87,16.59,4.15,10.34,14.98,16.93,25.93,15.78Zm-5.93-12.15s.18-.59.4-1.24.4-1.24.4-1.31-.42.09-.93.34c-4.55,2.27-9.56-1.23-9.55-6.67,0-3.12.28-3.56,7.27-11.31,3.2-3.55,5.87-6.45,5.95-6.45s2.76,2.9,5.96,6.45c5.15,5.71,5.9,6.6,6.49,7.78.63,1.25.67,1.43.74,3.01.06,1.39.02,1.87-.26,2.79-1.3,4.29-5.5,6.28-9.26,4.41-.51-.25-.93-.41-.93-.34s.18.65.4,1.31.4,1.21.4,1.24-1.6.05-3.55.05-3.55-.02-3.55-.05h0Zm-19.75,1.03c-1.15-1.82-2.56-5.25-3.25-7.91l-.15-.56-1.11-.05c-1.56-.07-1.55-.08-1.27,1.11.65,2.8,2.31,6.8,3.77,9.08l.5.79.94-.93.94-.93-.37-.59Zm48.9,1.17c1.56-2.64,2.87-5.84,3.47-8.47l.25-1.09h-2.68l-.2.85c-.52,2.22-1.9,5.5-3.12,7.46l-.4.65.91.92c.5.51.96.89,1.02.85s.4-.56.76-1.16h0ZM5.95,48.12c.39-.09.82-.35,1.09-.64l.44-.49v-11.64l-.53-.53c-.64-.64-1.28-.76-3.58-.69l-1.61.05-.2,1.21c-.37,2.2-.44,7.69-.13,10.31.15,1.28.31,2.39.35,2.46.11.18,3.38.16,4.17-.03Zm74.93-1.66c.13-.98.22-3.14.22-5.28s-.09-4.3-.22-5.28l-.22-1.65h-4.67l-.55.55-.55.55v11.68l.55.55.55.55h4.67l.22-1.65ZM14.74,34.53c.52-2.19,1.98-5.71,3.14-7.54l.37-.59-.94-.93-.94-.93-.5.79c-1.55,2.46-3.12,6.22-3.78,9.05l-.23,1.01h2.68l.2-.85Zm55.51-.24c-.61-2.69-2.25-6.59-3.76-8.97l-.5-.79-.94.93-.94.93.37.59c1.16,1.84,2.62,5.35,3.14,7.54l.2.85h2.68l-.25-1.09ZM29.31,16.64c1.33-.65,2.9-1.21,6.03-2.16.2-.06.3-2.33.11-2.53-.13-.13-1.79.27-3.62.86-1.61.52-5.17,2.19-6.51,3.05l-.79.5.93.94.93.94.64-.41c.35-.22,1.38-.77,2.28-1.2h0Zm28.4-.31c-.11-.18-2.11-1.33-3.57-2.06-1.48-.74-4.43-1.79-6.06-2.17l-1.09-.25v2.64l1.41.39c2.34.65,5.36,1.95,7.06,3.04l.48.31.92-.9c.51-.49.89-.95.85-1.01h0Zm-33.31-4.31c5.15-2.98,5.45-3.23,5.29-4.36-.09-.61-1.98-4.06-2.23-4.06-.31,0-2.78,1.06-4.5,1.94-2.17,1.11-4.38,2.52-6.24,3.97l-1.32,1.03,1.09,1.88c1.19,2.05,1.76,2.55,2.7,2.41.27-.04,2.62-1.3,5.22-2.81h0Zm39.83,2.57c.42-.22.82-.75,1.64-2.17l1.09-1.88-1.32-1.03c-1.92-1.49-4.1-2.87-6.4-4.04-1.92-.97-3.99-1.87-4.32-1.87-.23,0-2.14,3.39-2.24,3.97-.1.61.29,1.51.8,1.82.76.48,9.11,5.29,9.33,5.38.43.17.88.12,1.43-.18h0Z" style="fill: #fff; stroke-width: 0px;"/>
      </g>
    </g>
  </g>
</svg>