<?xml version="1.0" encoding="UTF-8" standalone="no"?>
<!-- Created with Inkscape (http://www.inkscape.org/) -->

<svg
   version="1.1"
   id="svg1"
   width="593.46143"
   height="255"
   viewBox="0 0 593.46143 255"
   sodipodi:docname="logo.png"
   xmlns:inkscape="http://www.inkscape.org/namespaces/inkscape"
   xmlns:sodipodi="http://sodipodi.sourceforge.net/DTD/sodipodi-0.dtd"
   xmlns="http://www.w3.org/2000/svg"
   xmlns:svg="http://www.w3.org/2000/svg">
  <defs
     id="defs1" />
  <sodipodi:namedview
     id="namedview1"
     pagecolor="#ffffff"
     bordercolor="#000000"
     borderopacity="0.25"
     inkscape:showpageshadow="2"
     inkscape:pageopacity="0.0"
     inkscape:pagecheckerboard="0"
     inkscape:deskcolor="#d1d1d1" />
  <g
     inkscape:groupmode="layer"
     inkscape:label="Image"
     id="g1"
     transform="translate(-2.6774509,-24)">
    <path
       style="fill:#ffffff"
       d="M 224.60699,277.41821 C 224.27314,276.54823 224,273.26691 224,270.12639 v -5.71003 l 16.25,-1.1149 C 266.41028,261.50661 274,257.15555 274,243.95311 v -3.91669 L 170.75,239.76821 C 72.212997,239.51224 67.340237,239.41491 64,237.63584 55.00885,232.84699 50.575599,225.70463 50.570683,216 50.56585,206.45825 54.904626,199.29652 63.5,194.65842 L 67.5,192.5 170.75,192.23179 274,191.96358 v -23.87435 -23.87435 l -7.7748,3.97225 c -4.27614,2.18473 -10.68864,4.76986 -14.25,5.74473 -7.31663,2.00282 -8.6556,4.49615 -3.69208,6.8751 l 2.78311,1.33392 -0.28311,10.67956 L 250.5,183.5 156,183.77149 C 96.179446,183.94335 59.078921,183.67348 54.902663,183.03611 35.002035,179.99892 19.668644,170.71173 9.9951052,155.83632 -2.6509801,136.3899 1.5185467,106.84523 19.222148,90.45482 30.278202,80.21886 42.783055,75.665454 60,75.606332 c 8.30516,-0.02852 11.858711,0.428813 17,2.18785 11.718541,4.009378 21.854465,11.059308 27.395,19.054298 3.40281,4.91026 4.24882,3.48217 -12.450528,21.01692 L 79.388944,131.04903 70.444472,124.888 c -4.91946,-3.38857 -9.092928,-6.28556 -9.274375,-6.43775 -0.181446,-0.1522 0.418371,-1.41873 1.332928,-2.81452 3.364903,-5.13549 -0.916014,-9.74349 -6.77688,-7.29467 C 43.758512,113.34146 41.843846,131.78 52.081456,143.43999 56.390156,148.34733 59.89667,150 66,150 c 5.877979,0 9.990964,-1.81107 12.374553,-5.44889 C 79.970146,142.11593 80.47305,142 89.441266,142 c 5.167337,0 10.106963,0.27314 10.976944,0.60699 1.26892,0.48693 1.58981,2.31655 1.62235,9.25 L 102.08111,160.5 117.79056,119.23235 133.5,77.964692 151.91504,78.232346 170.33008,78.5 l 14.67281,37.70216 c 13.5761,34.88411 16.17029,40.80619 17.86955,40.79295 0.34516,-0.003 0.62756,-11.98321 0.62756,-26.62338 0,-26.49367 -0.0105,-26.62552 -2.25,-28.11708 C 199.13631,100.84684 199,100.06677 199,89.37803 V 78 l 31.25,0.02445 c 27.66156,0.02164 35.05489,0.475818 42,2.5801 1.60118,0.48514 1.75,-0.52579 1.75,-11.887935 0,-13.35924 -1.0476,-18.279556 -4.0981,-19.247747 -1.06202,-0.337071 -1.69207,-0.999364 -1.40011,-1.471762 0.29196,-0.472398 0.004,-1.184528 -0.63999,-1.582512 -0.78484,-0.485058 -0.90097,-0.286981 -0.35226,0.60084 0.6208,1.004483 0.35615,1.132419 -1.0955,0.529573 C 258.3137,44.181052 234.98112,39 227.9321,39 224.61058,39 224,37.589777 224,29.918213 V 24 h 75.5 75.5 l -0.0153,6.25 c -0.008,3.4375 -0.34592,6.749 -0.75,7.358889 -0.40408,0.609889 -4.91107,1.409452 -10.01554,1.776808 -11.06862,0.79658 -24.31804,3.196177 -29.19687,5.287833 -1.93725,0.830542 -4.07176,1.60574 -4.74334,1.722662 -0.67158,0.116922 -1.57158,0.597757 -2,1.068522 -0.42842,0.470765 -0.10394,0.525419 0.72106,0.121454 0.96497,-0.472503 0.88982,-0.233106 -0.21069,0.67117 -2.88457,2.370223 -3.78934,6.443807 -3.78864,17.057762 l 6.7e-4,10.1849 12.24933,0.01131 c 9.28384,0.0086 13.58085,0.461828 17.74933,1.872227 9.06147,3.065933 16.70337,7.591923 21.52871,12.750603 l 4.5547,4.86935 6.2083,-5.16931 c 24.20436,-20.153692 62.8631,-19.70049 83.62123,0.9803 3.13873,3.12703 6.44374,6.81052 7.34447,8.18552 1.56707,2.3922 1.63995,1.99332 1.69014,-9.25 L 480,78 h 24.41836 24.41835 l 2.29767,5.92551 c 1.26372,3.25903 2.57355,5.755 2.91075,5.5466 0.33719,-0.2084 1.21186,-2.87488 1.94369,-5.92551 L 537.31943,78 H 562.65971 588 v 11.25945 c 0,10.40652 -0.1614,11.36025 -2.13061,12.59004 -2.58252,1.61282 -2.51287,2.62803 2.20695,32.16498 2.84501,17.80425 3.56906,20.72184 5.66189,22.81467 2.26922,2.26922 2.39973,3.05955 2.40015,14.53528 l 4.5e-4,12.13558 -25.033,0.26709 -25.03299,0.2671 -0.28642,-9.7671 L 545.5,164.5 l -14.21346,-0.27723 -14.21346,-0.27724 -0.28654,9.77724 L 516.5,183.5 492.75,183.7681 469,184.0362 v -6.10143 c 0,-3.35579 -0.33756,-5.95144 -0.75014,-5.7681 -0.41257,0.18333 -3.90007,2.21984 -7.75,4.52556 -3.84992,2.30573 -10.56339,5.37989 -14.91883,6.83146 -18.72593,6.24095 -41.06393,1.43473 -58.45153,-12.57637 -3.37677,-2.72102 -6.24981,-4.94772 -6.38454,-4.94822 -0.13473,-4.9e-4 -0.24496,3.93701 -0.24496,8.75 V 183.5 l -18.5,0.28079 c -16.22541,0.24627 -27.06414,-0.51323 -34.75,-2.43501 -2.1321,-0.53312 -2.25,-0.26967 -2.25,5.02768 v 5.59028 l 103.75,0.26813 103.75,0.26813 4,2.15842 c 8.59276,4.63669 12.93261,11.79837 12.93261,21.34158 0,9.54321 -4.33985,16.70489 -12.93261,21.34158 l -4,2.15842 -103.75,0.26813 -103.75,0.26813 v 2.51399 c 0,7.44212 5.65019,13.65228 15,16.48659 7.28874,2.20951 24.27743,4.94829 30.75,4.95726 2.3375,0.003 4.26622,0.1184 4.28604,0.2559 1.12562,7.80799 1.01862,11.8382 -0.35066,13.20748 -1.36222,1.36222 -10.188,1.54252 -75.50696,1.54252 -66.52341,0 -74.02551,-0.15913 -74.57143,-1.58179 z M 167,222 c 0,-3.91542 0.0751,-4 3.54966,-4 3.70054,0 9.45034,-2.39956 9.45034,-3.94389 0,-0.4909 0.26547,-1.58433 0.58992,-2.42985 0.34797,-0.9068 -0.45367,-2.58092 -1.95454,-4.08179 C 176.39095,205.30004 175.26011,205 169.04545,205 H 162 v 10.5 10.5 h 2.5 c 2.25,0 2.5,-0.4 2.5,-4 z m 0,-10.5 c 0,-3.03922 0.31973,-3.5 2.42857,-3.5 5.0664,0 6.88096,5.14641 2.25226,6.3878 C 167.61374,215.47858 167,215.09993 167,211.5 Z m 38,13 c 0,-1.15152 -1.27778,-1.5 -5.5,-1.5 H 194 v -9 c 0,-8.93333 -0.0185,-9 -2.5,-9 H 189 v 10.5 10.5 h 8 c 6.44444,0 8,-0.29167 8,-1.5 z m 9.40804,-1 c 1.34544,-2.0534 2.44166,-2.5 6.13645,-2.5 3.82786,0 4.66818,0.37265 5.63746,2.5 0.89266,1.95918 1.88089,2.5 4.56817,2.5 h 3.4291 l -5.46935,-10.25 c -4.54871,-8.52464 -5.9036,-10.3026 -8.04912,-10.56252 -2.354,-0.28516 -3.0209,0.56655 -7.62026,9.73184 C 210.26822,220.44371 208,225.19684 208,225.48183 c 0,0.28499 1.07325,0.51817 2.38499,0.51817 1.44051,0 3.03368,-0.99003 4.02305,-2.5 z m 3.6274,-6.75 c 0.0195,-0.6875 0.61102,-2.28716 1.31451,-3.5548 l 1.27908,-2.30481 1.18548,2.60186 C 223.52519,217.24677 223.30554,218 220.5,218 c -1.375,0 -2.48405,-0.5625 -2.46456,-1.25 z M 252,222.4686 c 0,-2.52918 1.28204,-5.43815 4.51735,-10.25 l 4.51735,-6.7186 -2.7172,-0.33571 c -1.93716,-0.23933 -3.21362,0.33482 -4.44644,2 -4.89872,6.61678 -4.21059,6.43214 -7.19035,1.92941 -2.18222,-3.29755 -3.29944,-4.0937 -5.74459,-4.0937 -2.18823,0 -2.81229,0.3489 -2.23581,1.25 0.43983,0.6875 2.48719,3.81588 4.54969,6.95196 2.55733,3.88849 3.75,6.8304 3.75,9.25 0,3.11791 0.30308,3.54804 2.5,3.54804 2.19471,0 2.5,-0.43124 2.5,-3.5314 z m 44.83369,1.93534 c 1.70776,-1.19617 2.20198,-2.3863 1.9725,-4.75 -0.2645,-2.72448 -1.05511,-3.51868 -5.80619,-5.83259 -6.83113,-3.32694 -7.20592,-5.32135 -1,-5.32135 2.475,0 5.11054,-0.39375 5.85676,-0.875 2.27569,-1.46763 -0.69176,-2.59253 -6.88425,-2.60969 -6.3657,-0.0176 -9.97251,1.94227 -9.97251,5.41895 0,2.79599 1.91023,4.52702 7.38605,6.69313 7.38777,2.92245 4.79585,7.1213 -3.0574,4.95291 -3.57577,-0.98732 -5.25858,-0.32337 -5.31334,2.09638 -0.0491,2.17087 13.77676,2.35769 16.81838,0.22726 z M 319,222.4686 c 0,-2.52918 1.28204,-5.43815 4.51735,-10.25 l 4.51735,-6.7186 -2.7172,-0.33571 c -1.93716,-0.23933 -3.21362,0.33482 -4.44644,2 -4.89872,6.61678 -4.21059,6.43214 -7.19035,1.92941 -2.18525,-3.30213 -3.29785,-4.0937 -5.75392,-4.0937 -2.18108,0 -2.82574,0.35459 -2.27253,1.25 0.42477,0.6875 2.47632,3.81563 4.55902,6.9514 2.59978,3.91432 3.78672,6.81371 3.78672,9.25 0,3.11851 0.303,3.5486 2.5,3.5486 2.19471,0 2.5,-0.43124 2.5,-3.5314 z m 29.83369,1.93534 c 1.70776,-1.19617 2.20198,-2.3863 1.9725,-4.75 -0.2645,-2.72448 -1.05511,-3.51868 -5.80619,-5.83259 -6.83113,-3.32694 -7.20592,-5.32135 -1,-5.32135 5.25029,0 8.02449,-1.23615 5.85676,-2.60969 -2.32537,-1.47343 -12.22268,-1.02274 -14.63425,0.66639 -4.58593,3.21211 -2.11262,8.20222 5.3438,10.78155 7.37928,2.55264 4.43753,6.86127 -3.23766,4.74205 -3.57577,-0.98732 -5.25858,-0.32337 -5.31334,2.09638 -0.0491,2.17087 13.77676,2.35769 16.81838,0.22726 z M 370,217.06037 v -8.93964 l 3.6727,-0.31036 c 2.01999,-0.17071 3.85749,-0.87287 4.08333,-1.56037 0.31028,-0.9445 -2.05369,-1.25 -9.6727,-1.25 C 359.78704,205 358,205.26584 358,206.5 c 0,1.04762 1.05556,1.5 3.5,1.5 h 3.5 v 9 c 0,8.93333 0.0185,9 2.5,9 2.48023,0 2.5,-0.0707 2.5,-8.93963 z M 402,224.5 c 0,-1.17949 -1.38889,-1.5 -6.5,-1.5 H 389 v -3.5 -3.5 h 5 c 3.77778,0 5,-0.36667 5,-1.5 0,-1.13333 -1.22222,-1.5 -5,-1.5 -4.66667,0 -5,-0.16667 -5,-2.5 0,-2.38889 0.26667,-2.5 6,-2.5 4.66667,0 6,-0.33333 6,-1.5 0,-1.21569 -1.61111,-1.5 -8.5,-1.5 H 384 v 10.5 10.5 h 9 c 7.33333,0 9,-0.27778 9,-1.5 z m 12.44393,-3.75 0.7016,-5.25 3.16825,5.25 c 4.34094,7.19324 7.02309,7.21488 11.40341,0.092 l 3.172,-5.15803 0.68423,5.15803 c 0.61851,4.66254 0.92591,5.15803 3.20002,5.15803 2.50219,0 2.51233,-0.0365 1.87827,-6.75 -0.35062,-3.7125 -0.64069,-8.46739 -0.6446,-10.56642 -0.007,-3.56582 -0.18638,-3.79565 -2.73721,-3.5 -2.17557,0.25215 -3.49637,1.63669 -6.5026,6.81642 -2.07486,3.575 -4.22015,6.5 -4.7673,6.5 -0.54715,0 -2.69244,-2.925 -4.7673,-6.5 -3.00623,-5.17973 -4.32703,-6.56427 -6.5026,-6.81642 -2.55083,-0.29565 -2.73057,-0.0658 -2.73721,3.5 -0.004,2.09903 -0.29398,6.85392 -0.6446,10.56642 -0.63406,6.71355 -0.62392,6.75 1.87827,6.75 2.27915,0 2.58177,-0.49381 3.21737,-5.25 z m 31.01856,-47.88875 c 15.27954,-5.10416 26.12113,-16.48655 30.04227,-31.54085 6.1759,-23.71086 -7.46653,-46.30037 -32.43626,-53.70888 -6.79272,-2.01539 -21.65553,-2.09694 -28.93754,-0.15876 -13.7671,3.66424 -24.31464,12.04264 -30.17369,23.96838 -3.00778,6.12213 -3.44165,8.02695 -3.75825,16.5 -0.42996,11.50694 1.5084,18.78601 7.34357,27.57706 11.26318,16.9687 36.47521,24.52668 57.9199,17.36305 z M 420.82055,161.65331 C 410.75473,158.83905 404.83775,150.95784 402.98548,137.89763 399.74947,115.0808 410.16321,98.72387 428,98.60716 c 17.83354,-0.11668 28.67553,16.05337 25.89135,38.6151 -1.38413,11.21639 -7.11194,19.86818 -15.47351,23.37257 -4.85397,2.03433 -12.46871,2.49236 -17.59729,1.05848 z M 90,163 c 0,-9.88078 -0.02853,-10 -2.393011,-10 -1.316156,0 -2.644231,0.65467 -2.951278,1.45482 -0.307047,0.80015 -2.492692,2.4829 -4.856989,3.73945 -6.577287,3.4956 -18.301222,3.26234 -26.027663,-0.51785 C 47.13895,154.43163 41.84168,148.78537 38.125387,141 35.83323,136.19809 35.5,134.23074 35.5,125.5 c 0,-8.53491 0.342772,-10.65929 2.339604,-14.5 3.283986,-6.31643 6.59568,-9.51078 12.488133,-12.04564 9.397084,-4.04252 20.038969,-1.19016 23.992932,6.43084 1.641724,3.16432 1.817784,4.40965 0.948871,6.71166 -0.822217,2.17831 -0.757147,3.0835 0.283758,3.94737 2.175507,1.80551 3.673572,0.86761 10.907538,-6.82892 l 6.846873,-7.28469 -2.880268,-3.00635 C 69.664034,77.251938 29.07585,84.26332 16.195887,111.74736 13.804452,116.85034 13.5,118.68579 13.5,128 c 0,9.75301 0.229191,10.98388 3.221614,17.30161 6.036019,12.74352 19.334104,23.0911 33.689315,26.21452 3.585143,0.78006 12.976951,1.35756 22.839071,1.40437 L 90,173 Z m 43,7.95203 c 0,-1.12638 -1.2375,-3.11701 -2.75,-4.42361 l -2.75,-2.37566 2.41786,-6.82638 c 1.32983,-3.75451 3.02337,-8.28888 3.76342,-10.07638 l 1.34556,-3.25 h 13.90895 13.90896 l 3.58062,9.25 c 1.96935,5.0875 3.57928,9.74276 3.57763,10.34501 -0.002,0.60226 -0.903,1.9095 -2.003,2.90499 -1.1,0.99549 -2,2.86523 -2,4.15499 V 173 h 16 16 v -2.46482 c 0,-1.40292 -0.82313,-2.90534 -1.91062,-3.48735 -3.34397,-1.78963 -5.60165,-6.7694 -19.62993,-43.29783 L 162.7301,88 h -10.91607 -10.91608 l -1.29391,3.25 c -0.71164,1.7875 -6.87618,18.50307 -13.69897,37.14571 -10.34263,28.26029 -12.94541,34.42862 -15.65507,37.10102 -1.7875,1.76292 -3.25,4.17235 -3.25,5.35429 0,2.08844 0.36625,2.14898 13,2.14898 12.43483,0 13,-0.089 13,-2.04797 z M 143.31318,118.5 c 2.27582,-6.875 4.43178,-12.5 4.79102,-12.5 0.75903,0 1.58809,1.99909 6.32444,15.25 l 3.485,9.75 h -9.36916 -9.36915 z M 239,170.5 c 0,-1.375 -0.91859,-3.41859 -2.04132,-4.54132 -1.75554,-1.75554 -2.00054,-3.09103 -1.75,-9.53944 L 235.5,148.92113 246,145.40557 c 27.76041,-9.29462 36,-17.10698 36,-34.13337 0,-10.24808 -4.38203,-16.68622 -13.93433,-20.47254 C 262.9333,88.7653 260.45638,88.56377 236.25,88.21094 L 210,87.82833 v 3.55065 c 0,2.5272 0.57649,3.85918 2,4.62102 1.93969,1.03809 2,2.09382 2,35.01213 v 33.94176 l -2.5,1.63807 c -1.50997,0.98937 -2.5,2.58254 -2.5,4.02305 V 173 h 15 15 z m -4,-51.375 V 100.25 l 3.125,-0.625 c 13.19315,-2.63863 22.93411,2.93793 22.83956,13.07534 -0.0437,4.68856 -1.36088,7.13034 -6.96636,12.9144 C 250.33718,129.39239 237.53364,138 235.57553,138 235.25899,138 235,129.50625 235,119.125 Z M 371,163 c 0,-9.51902 -0.10187,-10 -2.11798,-10 -1.1649,0 -3.63399,1.33106 -5.48688,2.95792 -9.06481,7.95901 -26.95085,6.13187 -36.88436,-3.7679 -14.15151,-14.10345 -15.02554,-37.52505 -1.83366,-49.13702 12.3889,-10.90514 32.63313,-5.36985 31.07031,8.49541 -0.40303,3.57573 -0.15431,4.69865 1.20146,5.42424 1.36813,0.7322 3.28,-0.66455 9.5695,-6.99114 7.81418,-7.86029 7.8488,-7.91828 5.96823,-9.99629 -3.59795,-3.9757 -13.71237,-9.97459 -20.19202,-11.97595 -20.36038,-6.28868 -46.13707,4.25134 -54.68375,22.36003 -3.33268,7.06129 -5.00282,16.33794 -4.15832,23.09707 1.59226,12.74403 12.60981,27.4852 25.16029,33.66379 9.79874,4.8239 14.98854,5.69065 34.63718,5.78479 L 371,173 Z m 135,7.56739 c 0,-1.55341 -0.72201,-2.66177 -1.99768,-3.06665 -1.09872,-0.34872 -2.23318,-1.61655 -2.52102,-2.81739 -0.5249,-2.18984 6.02889,-48.52687 7.00101,-49.49899 0.7611,-0.7611 0.57664,-1.23846 7.55801,19.55903 l 6.45968,19.24339 8.07317,0.007 8.07318,0.007 6.75923,-21 C 551.76924,113.22898 554,108.46667 554,114.65231 c 0,1.45876 1.60376,12.72815 3.56391,25.04307 1.96014,12.31493 3.42264,23.38389 3.25,24.5977 -0.17265,1.21381 -1.32641,2.65113 -2.56391,3.19405 -1.37964,0.60528 -2.25,1.86247 -2.25,3.25 0,2.25317 0.0665,2.26287 15.5,2.26287 15.17079,0 15.5,-0.0454 15.5,-2.13976 0,-1.17686 -0.75589,-2.69247 -1.67976,-3.36802 -1.31044,-0.95822 -2.73033,-8.23786 -6.45815,-33.11024 C 573.35136,97.61378 573.20342,95.51442 576,93.76793 c 1.1,-0.68696 2,-2.27692 2,-3.53325 v -2.28422 l -16.1778,0.27477 -16.1778,0.27477 -5.95987,17.25 c -3.27794,9.4875 -6.23543,17.24438 -6.5722,17.23752 -0.33678,-0.007 -3.08288,-7.88186 -6.10243,-17.5 L 521.51979,88 H 506.2599 491 v 2.93261 c 0,2.00702 0.60209,3.12371 1.90762,3.53807 2.82035,0.89514 3.04987,2.45302 1.56523,10.62431 -0.73998,4.07275 -3.18943,18.8714 -5.44323,32.88588 -3.65499,22.72732 -4.36429,25.75901 -6.56372,28.05472 -1.35624,1.41562 -2.4659,3.56172 -2.4659,4.76913 0,2.1478 0.2812,2.19528 13,2.19528 h 13 z"
       id="path1" />
  </g>
</svg>
