<?xml version="1.0" encoding="UTF-8" standalone="no"?>
<!-- Created with Inkscape (http://www.inkscape.org/) -->

<svg
   version="1.1"
   id="svg1"
   width="594.13342"
   height="255.01035"
   viewBox="0 0 594.13342 255.01035"
   sodipodi:docname="logo.png"
   xmlns:inkscape="http://www.inkscape.org/namespaces/inkscape"
   xmlns:sodipodi="http://sodipodi.sourceforge.net/DTD/sodipodi-0.dtd"
   xmlns="http://www.w3.org/2000/svg"
   xmlns:svg="http://www.w3.org/2000/svg">
  <defs
     id="defs1" />
  <sodipodi:namedview
     id="namedview1"
     pagecolor="#ffffff"
     bordercolor="#000000"
     borderopacity="0.25"
     inkscape:showpageshadow="2"
     inkscape:pageopacity="0.0"
     inkscape:pagecheckerboard="0"
     inkscape:deskcolor="#d1d1d1" />
  <g
     inkscape:groupmode="layer"
     inkscape:label="Image"
     id="g1"
     transform="translate(-2.735009,-24)">
    <path
       style="fill:#ffffff"
       d="M 159.60699,277.41821 C 159.27314,276.54823 159,273.25764 159,270.10579 v -5.73064 l 16.25,-1.11618 c 20.82042,-1.43011 27.59819,-3.68197 31.794,-10.5633 1.20308,-1.97311 1.94995,-5.00297 1.95226,-7.91981 L 209,240.05171 138.25,239.77586 C 67.929956,239.50168 67.475692,239.48688 63.5,237.34158 54.907237,232.70489 50.567391,225.54321 50.567391,216 c 0,-9.54321 4.339846,-16.70489 12.932609,-21.34158 3.975692,-2.1453 4.429956,-2.1601 74.75,-2.43428 L 209,191.94829 V 187.97414 184 l -74.75,-0.0349 C 54.889773,183.92807 51.181276,183.73783 38.854179,179.07146 27.637887,174.82558 16.713514,166.0886 9.9353463,155.94305 5.3493044,149.07867 2.7906356,139.85852 2.7359307,130 2.5976184,105.07439 18.036446,84.68095 42.55228,77.405831 51.482374,74.75581 67.495507,74.92369 76.5,77.761737 88.26875,81.47102 98.670819,88.58849 104.395,96.84848 c 3.40623,4.9152 4.23974,3.51195 -12.475119,21.00251 l -12.580119,13.16394 -8.919881,-6.14398 c -4.905935,-3.37919 -9.068337,-6.26851 -9.249784,-6.4207 -0.181446,-0.1522 0.418371,-1.41873 1.332928,-2.81452 3.364903,-5.13549 -0.916014,-9.74349 -6.77688,-7.29467 -5.812046,2.42843 -10.700761,10.22321 -10.720568,17.09334 -0.01352,4.68908 3.44725,13.73463 6.715694,17.55307 C 56.252795,148.28154 59.751884,150 66,150 c 5.877979,0 9.990964,-1.81107 12.374553,-5.44889 C 79.970146,142.11593 80.47305,142 89.441266,142 c 5.167337,0 10.106963,0.27314 10.976944,0.60699 1.26731,0.48631 1.59263,2.32531 1.63632,9.25 l 0.0545,8.64301 1.78949,-4.5 c 0.98422,-2.475 8.04718,-21.04115 15.69547,-41.25812 L 133.5,77.983767 151.94252,78.241884 170.38504,78.5 177.53432,97 c 21.90547,56.68421 23.30377,60.00812 25.23873,59.99511 0.39982,-0.003 0.72695,-11.98321 0.72695,-26.62338 0,-26.49367 -0.0105,-26.62552 -2.25,-28.11708 C 199.13631,100.84684 199,100.06677 199,89.37803 V 78 h 5 5 V 67.149223 c 0,-14.570008 -0.69489,-16.290398 -7.88287,-19.516171 -6.79549,-3.049636 -19.07107,-6.059369 -31.61713,-7.751904 -4.95,-0.667784 -9.33061,-1.701726 -9.73469,-2.29765 -0.40408,-0.595924 -0.74158,-3.895998 -0.75,-7.333498 L 159,24 h 141 141 l -0.0153,6.25 c -0.008,3.4375 -0.34592,6.723355 -0.75,7.3019 -0.40408,0.578546 -6.28253,1.5937 -13.06322,2.255899 -22.5585,2.203052 -32.54553,5.806845 -35.0146,12.63492 -1.27639,3.529813 -1.64783,33.971531 -0.40687,33.345731 15.6833,-7.908935 25.79914,-10.842051 37.75,-10.94571 19.18656,-0.166419 37.75889,8.93199 48.29093,23.65726 l 2.14571,3 0.0317,-11.75 L 480,78 h 24.41836 24.41835 l 2.32656,6 c 1.2796,3.3 2.57351,6 2.87536,6 0.30185,0 1.14781,-2.7 1.87991,-6 l 1.3311,-6 H 562.62482 588 v 11.25945 c 0,10.17645 -0.19237,11.3796 -2,12.50848 -2.64414,1.65129 -2.59743,2.52381 1.55443,29.03538 3.47607,22.19633 4.94667,27.19669 7.9985,27.19669 1.27828,0 1.46437,1.93384 1.22695,12.75 L 596.5,183.5 l -25.21358,0.26709 -25.21358,0.2671 -0.28642,-9.7671 L 545.5,164.5 h -14.35811 -14.3581 l -0.1419,9.5 -0.14189,9.5 -23.75,0.2681 -23.75,0.2681 v -6.10143 c 0,-3.35579 -0.33756,-5.95144 -0.75014,-5.7681 -0.41257,0.18333 -3.90007,2.21984 -7.75,4.52556 -21.12351,12.65092 -44.37949,12.73724 -64.74986,0.24031 L 391,174.01849 v 8.9649 8.9649 l 70.75,0.27585 c 70.32004,0.27418 70.77431,0.28898 74.75,2.43428 8.59276,4.63669 12.93261,11.79837 12.93261,21.34158 0,9.54321 -4.33985,16.70489 -12.93261,21.34158 -3.97569,2.1453 -4.42996,2.1601 -74.75,2.43428 L 391,240.05171 v 2.50626 c 0,7.43424 5.65406,13.64573 15,16.47887 7.23235,2.19241 24.26156,4.94818 30.63337,4.95726 4.60116,0.007 5.32728,1.13615 5.35298,8.32733 0.0259,7.24446 12.08402,6.67857 -142.30793,6.67857 -126.25084,0 -139.52195,-0.14987 -140.07143,-1.58179 z m 161.38584,-15.51185 c 6.89995,-1.16603 13.81269,-4.59289 16.36949,-8.11489 1.17169,-1.61401 2.15196,-4.94784 2.4258,-8.25 L 340.24766,240 H 300.12383 260 v 2.53212 c 0,3.76931 2.40982,8.83664 5.6391,11.85779 7.65708,7.16357 35.26108,10.91191 55.35373,7.51645 z M 167,222 c 0,-3.91542 0.0751,-4 3.54966,-4 3.70054,0 9.45034,-2.39956 9.45034,-3.94389 0,-0.4909 0.26547,-1.58433 0.58992,-2.42985 0.34797,-0.9068 -0.45367,-2.58092 -1.95454,-4.08179 C 176.39095,205.30004 175.26011,205 169.04545,205 H 162 v 10.5 10.5 h 2.5 c 2.25,0 2.5,-0.4 2.5,-4 z m 0,-10.5 c 0,-3.03922 0.31973,-3.5 2.42857,-3.5 5.0664,0 6.88096,5.14641 2.25226,6.3878 C 167.61374,215.47858 167,215.09993 167,211.5 Z m 38,13 c 0,-1.15152 -1.27778,-1.5 -5.5,-1.5 H 194 v -9 c 0,-8.93333 -0.0185,-9 -2.5,-9 H 189 v 10.5 10.5 h 8 c 6.44444,0 8,-0.29167 8,-1.5 z m 9.59196,-1 c 1.33705,-2.0406 2.44778,-2.5 6.04449,-2.5 3.72977,0 4.58135,0.3839 5.5455,2.5 0.89051,1.95445 1.88241,2.5 4.54541,2.5 h 3.40632 l -5.3298,-10.25 c -4.56348,-8.77623 -5.71752,-10.29493 -8.02636,-10.56252 -2.49967,-0.28969 -3.06455,0.42083 -7.73703,9.73184 C 210.26822,220.44371 208,225.19684 208,225.48183 c 0,0.28499 1.11463,0.51817 2.47695,0.51817 1.53859,0 3.0975,-0.94709 4.11501,-2.5 z m 3.44348,-6.75 c 0.0195,-0.6875 0.61102,-2.28716 1.31451,-3.5548 l 1.27908,-2.30481 1.18548,2.60186 C 223.52519,217.24677 223.30554,218 220.5,218 c -1.375,0 -2.48405,-0.5625 -2.46456,-1.25 z M 252,222.44513 c 0,-2.46132 1.17691,-5.30681 3.82585,-9.25 5.76407,-8.58034 5.65844,-8.19513 2.24736,-8.19513 -2.45942,0 -3.56923,0.79242 -5.77234,4.12154 l -2.72751,4.12155 -1.53668,-2.31726 c -3.44668,-5.19748 -4.59663,-6.10115 -7.3342,-5.76346 l -2.73718,0.33763 4.51735,6.7186 c 3.23531,4.81185 4.51735,7.72082 4.51735,10.25 0,3.10016 0.30529,3.5314 2.5,3.5314 2.19783,0 2.5,-0.42968 2.5,-3.55487 z m 44.83369,1.95881 c 1.70776,-1.19617 2.20198,-2.3863 1.9725,-4.75 -0.2645,-2.72448 -1.05511,-3.51868 -5.80619,-5.83259 -6.83113,-3.32694 -7.20592,-5.32135 -1,-5.32135 5.42973,0 8.42077,-1.43244 5.43362,-2.60222 -1.06349,-0.41646 -4.19599,-0.78884 -6.96111,-0.82749 -11.74499,-0.1642 -13.07631,8.40399 -1.9062,12.26796 7.37928,2.55264 4.43753,6.86127 -3.23766,4.74205 -3.57577,-0.98732 -5.25858,-0.32337 -5.31334,2.09638 -0.0491,2.17087 13.77676,2.35769 16.81838,0.22726 z M 319,222.44513 c 0,-2.46132 1.17691,-5.30681 3.82585,-9.25 5.76407,-8.58034 5.65844,-8.19513 2.24736,-8.19513 -2.45942,0 -3.56923,0.79242 -5.77234,4.12154 l -2.72751,4.12155 -1.53668,-2.31726 c -3.44668,-5.19748 -4.59663,-6.10115 -7.3342,-5.76346 l -2.73718,0.33763 4.51735,6.7186 c 3.23531,4.81185 4.51735,7.72082 4.51735,10.25 0,3.10016 0.30529,3.5314 2.5,3.5314 2.19783,0 2.5,-0.42968 2.5,-3.55487 z m 29.83369,1.95881 c 1.70776,-1.19617 2.20198,-2.3863 1.9725,-4.75 -0.2645,-2.72448 -1.05511,-3.51868 -5.80619,-5.83259 -6.83113,-3.32694 -7.20592,-5.32135 -1,-5.32135 5.42973,0 8.42077,-1.43244 5.43362,-2.60222 -3.48192,-1.36353 -11.87956,-0.97416 -14.21111,0.65892 -2.24489,1.57238 -2.87388,4.86853 -1.37868,7.22485 0.44726,0.70485 3.02787,2.12083 5.73469,3.14662 2.70681,1.02579 5.05957,2.54815 5.22835,3.38301 0.43441,2.1488 -3.0865,2.98173 -7.47822,1.76912 -3.57577,-0.98732 -5.25858,-0.32337 -5.31334,2.09638 -0.0491,2.17087 13.77676,2.35769 16.81838,0.22726 z M 370,217.06037 v -8.93964 l 3.6727,-0.31036 c 2.01999,-0.17071 3.85749,-0.87287 4.08333,-1.56037 0.31028,-0.9445 -2.05369,-1.25 -9.6727,-1.25 C 359.78704,205 358,205.26584 358,206.5 c 0,1.04762 1.05556,1.5 3.5,1.5 h 3.5 v 9 c 0,8.93333 0.0185,9 2.5,9 2.48023,0 2.5,-0.0707 2.5,-8.93963 z M 402,224.5 c 0,-1.17949 -1.38889,-1.5 -6.5,-1.5 H 389 v -3.5 -3.5 h 5 c 3.77778,0 5,-0.36667 5,-1.5 0,-1.13333 -1.22222,-1.5 -5,-1.5 -4.66667,0 -5,-0.16667 -5,-2.5 0,-2.38889 0.26667,-2.5 6,-2.5 4.66667,0 6,-0.33333 6,-1.5 0,-1.21569 -1.61111,-1.5 -8.5,-1.5 H 384 v 10.5 10.5 h 9 c 7.33333,0 9,-0.27778 9,-1.5 z m 12.44393,-3.75 0.7016,-5.25 3.16825,5.25 c 4.34094,7.19324 7.02309,7.21488 11.40341,0.092 l 3.172,-5.15803 0.68423,5.15803 c 0.61851,4.66254 0.92591,5.15803 3.20002,5.15803 2.50219,0 2.51233,-0.0365 1.87827,-6.75 -0.35062,-3.7125 -0.64069,-8.46739 -0.6446,-10.56642 -0.007,-3.56582 -0.18638,-3.79565 -2.73721,-3.5 -2.17557,0.25215 -3.49637,1.63669 -6.5026,6.81642 -2.07486,3.575 -4.22015,6.5 -4.7673,6.5 -0.54715,0 -2.69244,-2.925 -4.7673,-6.5 -3.00623,-5.17973 -4.32703,-6.56427 -6.5026,-6.81642 -2.55083,-0.29565 -2.73057,-0.0658 -2.73721,3.5 -0.004,2.09903 -0.29398,6.85392 -0.6446,10.56642 -0.63406,6.71355 -0.62392,6.75 1.87827,6.75 2.27915,0 2.58177,-0.49381 3.21737,-5.25 z m -74.63643,-32.99122 -0.3075,-4.24121 -5.26245,-0.75235 c -22.61034,-3.23251 -42.26102,-19.0072 -48.86123,-39.22363 -0.90528,-2.77287 -1.75942,-5.17822 -1.89809,-5.3452 -0.13867,-0.16699 -3.56942,1.85801 -7.6239,4.5 -4.05448,2.64198 -9.28036,5.65945 -11.61306,6.70548 L 260,151.30375 V 171.65187 192 h 40.0575 40.0575 z m 105.65499,-14.89753 c 14.94856,-4.99359 26.18651,-16.73219 29.98551,-31.32135 6.20959,-23.8465 -7.46352,-46.62602 -32.3795,-53.94452 -6.80171,-1.99785 -21.69123,-2.0713 -28.93708,-0.14274 -13.59402,3.61818 -24.38053,12.17587 -30.15054,23.92053 -2.87449,5.85093 -3.43974,8.19161 -3.80054,15.73797 -0.46799,9.78851 0.67094,15.79933 4.40291,23.2368 10.38895,20.70419 36.92211,30.51623 60.87924,22.51331 z m -24.64194,-11.20794 c -10.06582,-2.81426 -15.9828,-10.69547 -17.83507,-23.75568 -3.23556,-22.81369 7.17041,-39.16136 25.01452,-39.29754 7.55294,-0.0576 12.48677,1.95335 17.78068,7.24725 11.62419,11.62419 11.38517,39.13532 -0.43743,50.34961 -5.74715,5.45143 -16.21205,7.7799 -24.5227,5.45636 z M 90,163 c 0,-9.88078 -0.02853,-10 -2.393011,-10 -1.316156,0 -2.644231,0.65467 -2.951278,1.45482 -0.307047,0.80015 -2.492692,2.4829 -4.856989,3.73945 -6.551058,3.48166 -18.303199,3.26138 -25.96396,-0.48668 C 47.055031,154.39057 41.709229,148.74241 38.135165,141.12001 35.838623,136.22218 35.5,134.21498 35.5,125.5 c 0,-8.68564 0.327491,-10.64127 2.491634,-14.87891 6.183523,-12.10804 20.577897,-17.07392 31.421513,-10.84002 4.293732,2.46843 7.24062,8.64856 5.863543,12.29685 -1.148163,3.04183 -0.04836,5.01579 2.67331,4.79812 0.8525,-0.0682 4.669314,-3.44566 8.481809,-7.50552 l 6.931809,-7.38155 -2.908222,-3.03553 C 69.663998,77.2519 29.085348,84.24305 16.195887,111.74736 13.804452,116.85034 13.5,118.68579 13.5,128 c 0,9.75301 0.229191,10.98388 3.221614,17.30161 5.9417,12.54438 19.50868,23.13563 33.541042,26.18428 3.74251,0.81309 12.937067,1.38691 22.987344,1.43461 L 90,173 Z m 43,7.95203 c 0,-1.12638 -1.2375,-3.11523 -2.75,-4.41966 l -2.75,-2.3717 2.90185,-8.33034 C 134.94227,142.79616 133.05407,144 148.95756,144 h 13.88719 l 3.66119,9.44902 c 3.66074,9.44784 3.89091,12.80098 0.95599,13.92721 C 166.65787,167.68478 166,169.07635 166,170.46862 V 173 h 16 16 v -2.46482 c 0,-1.40292 -0.82313,-2.90534 -1.91062,-3.48735 -3.34425,-1.78978 -5.60183,-6.76988 -19.642,-43.32921 L 162.70597,87.93725 151.68893,88.21862 140.67189,88.5 126.81833,126 c -11.57356,31.32828 -14.34441,37.92343 -16.83595,40.07283 -1.64031,1.41505 -2.98238,3.55255 -2.98238,4.75 0,2.12458 0.31403,2.17717 13,2.17717 12.43483,0 13,-0.089 13,-2.04797 z M 143.31318,118.5 c 2.27582,-6.875 4.43178,-12.5 4.79102,-12.5 0.75903,0 1.58809,1.99909 6.32444,15.25 l 3.485,9.75 h -9.36916 -9.36915 z M 239,170.5 c 0,-1.375 -0.91859,-3.41859 -2.04132,-4.54132 -1.75554,-1.75554 -2.00054,-3.09103 -1.75,-9.53944 L 235.5,148.92113 246,145.40557 c 27.63272,-9.25187 36,-17.1853 36,-34.13337 0,-10.24808 -4.38203,-16.68622 -13.93433,-20.47254 C 262.9333,88.7653 260.45638,88.56377 236.25,88.21094 L 210,87.82833 v 3.55065 c 0,2.5272 0.57649,3.85918 2,4.62102 1.93961,1.03804 2,2.09382 2,34.9626 v 33.89224 l -2.5,1.9665 c -1.375,1.08158 -2.5,2.91424 -2.5,4.07258 0,2.04784 0.41482,2.10608 15,2.10608 h 15 z m -4,-51.375 V 100.25 l 3.125,-0.625 c 9.21699,-1.8434 18.53816,0.88915 21.30868,6.24676 3.47441,6.71875 0.97135,14.64348 -6.76013,21.40271 C 249.63371,129.93204 236.77224,138 235.57553,138 235.25899,138 235,129.50625 235,119.125 Z M 371,163 c 0,-9.51902 -0.10187,-10 -2.11798,-10 -1.1649,0 -3.63399,1.33106 -5.48688,2.95792 -8.95808,7.8653 -26.80568,6.14372 -36.78524,-3.54831 -10.61861,-10.31266 -14.28107,-27.30324 -8.64055,-40.08454 3.97742,-9.01277 12.8455,-15.34272 21.46215,-15.31949 4.52267,0.0122 10.14656,2.37248 13.39642,5.62234 3.18282,3.18282 3.3881,3.77207 2.93975,8.43818 -0.38534,4.01036 -0.14379,5.19742 1.20446,5.91898 1.33774,0.71594 3.31173,-0.73227 9.54626,-7.00357 7.81418,-7.86029 7.8488,-7.91828 5.96823,-9.99629 -3.59795,-3.97569 -13.71237,-9.97459 -20.19202,-11.97595 -15.84528,-4.89411 -33.78954,-0.35566 -46.48954,11.75809 -9.131,8.70949 -13.86213,21.61653 -12.35253,33.69901 1.59226,12.74403 12.60981,27.4852 25.16029,33.66379 9.79874,4.8239 14.98854,5.69065 34.63718,5.78479 L 371,173 Z m 135,7.5 c 0,-1.57121 -0.56524,-2.5 -1.52144,-2.5 -3.69751,0 -3.70593,-3.90106 -0.0613,-28.43494 3.23563,-21.78083 4.01762,-25.70947 4.87307,-24.48173 0.15967,0.22917 3.19717,9.0762 6.75,19.66006 l 6.45968,19.24339 8.07317,0.007 8.07318,0.007 6.75923,-21 C 551.76924,113.22898 554,108.46667 554,114.65231 c 0,1.45876 1.60376,12.72815 3.56391,25.04307 1.96014,12.31493 3.42264,23.38389 3.25,24.5977 -0.17265,1.21381 -1.32641,2.65113 -2.56391,3.19405 -1.37964,0.60528 -2.25,1.86247 -2.25,3.25 0,2.25317 0.0665,2.26287 15.5,2.26287 15.17079,0 15.5,-0.0454 15.5,-2.13976 0,-1.17686 -0.75589,-2.69247 -1.67976,-3.36802 -1.31044,-0.95822 -2.73033,-8.23786 -6.45815,-33.11024 C 573.35136,97.61378 573.20342,95.51442 576,93.76793 c 1.1,-0.68696 2,-2.27692 2,-3.53325 v -2.28422 l -16.1778,0.27477 -16.1778,0.27477 -5.95987,17.25 c -3.27794,9.4875 -6.23543,17.24438 -6.5722,17.23752 -0.33678,-0.007 -3.08288,-7.88186 -6.10243,-17.5 L 521.51979,88 H 506.2599 491 v 2.83948 c 0,2.08085 0.68838,3.15314 2.57651,4.01342 2.11753,0.96482 2.47551,1.66143 2.00956,3.91052 -0.67142,3.24085 -2.29563,13.01032 -7.09364,42.66762 -3.35627,20.74565 -4.25557,23.9578 -7.24243,25.86865 -0.6875,0.43983 -1.25,1.90233 -1.25,3.25 V 173 h 13 13 z M 308.03519,82.31699 c 7.49409,-4.21767 14.26971,-6.258562 23.57914,-7.102296 L 339.5,74.5 339.8131,66 C 340.28103,53.296835 339.25701,50.837238 332.17756,47.66017 306.76395,36.255221 266.01817,38.999051 261.15687,52.442719 260.52059,54.202321 260,60.649902 260,66.770675 v 11.12868 l 5.90784,1.162295 c 8.71214,1.71401 15.28333,5.88914 20.16614,12.81297 l 4.14159,5.87277 6.1774,-6.1774 c 3.39757,-3.39757 8.63657,-7.56142 11.64222,-9.253 z"
       id="path1" />
  </g>
</svg>
