<?xml version="1.0" encoding="UTF-8"?>
<svg id="Calque_2" data-name="Calque 2" xmlns="http://www.w3.org/2000/svg" viewBox="0 0 375.03 83.59">
  <g id="svg19">
    <g>
      <path id="text19" d="m102.34,35.72V1.13c13.1-1.23,26.91,2.02,27.04,17.49-.04,15.71-14.4,18.28-27.04,17.1Zm2.39-2.29c10.42,1.26,22.61-2.36,22.22-14.96.09-12.57-11.46-16.19-22.22-15v29.96Zm38.29,2.83c-9.18.65-5.17-14.57-5.99-19.59h2.29c.39,2.43-1.03,14.56,1.17,16.27,4.02,3.73,10.77-1.03,10.38-6.14,0,0,0-10.13,0-10.13h2.29v19.05h-2.05l-.24-5.99.34,1.32c-1.11,3.22-4.8,5.23-8.18,5.21Zm20.8-19.59l.24,5.99-.29-1.17c1.82-6.53,14.21-7.75,14.32.34,0,0,0,13.88,0,13.88h-2.34c-.4-2.43,1.06-14.63-1.17-16.32-2.65-2.64-7.79-.85-9.5,2.24-1.74,2.34-.71,11.29-.97,14.08h-2.29v-19.05h2Zm31.42,28.35c-3.5.04-6.31-1.43-8.87-3.9l1.36-1.56c3.9,4.25,11.78,4.96,14.66-.1,1.28-2.06.73-7.33.88-9.7l.54.58c-3.8,9.53-19.45,6.22-18.9-4.24-.59-9.96,14.27-13.87,18.66-5.07l-.29,1.07.24-5.46h2.05c-1,8.53,4.62,29.57-10.33,28.35Zm-8.04-18.95c-.36,9.85,15.17,10.85,16.08,1.12,1.83-11.04-16.38-12.42-16.08-1.12Zm35.32,10.04c-23.38-3.12-.79-34.41,9.11-12.86l-16.66,6.43-.68-1.66,15.25-5.94-.49.68c-2.04-5.9-10.52-6.31-13.4-.83-4.56,7.77,5.74,16.27,12.47,10.08l1.17,1.66c-1.83,1.43-4.38,2.46-6.77,2.44h0Zm13.59-10.04c-.32-13.07,20.68-13.09,20.32,0,.39,13.06-20.8,13.17-20.32,0h0Zm2.29.05c-.33,10.46,15.98,10.41,15.69,0,.2-10.48-15.87-10.43-15.69,0Zm26.84-9.45l.24,5.99-.29-1.17c1.82-6.53,14.21-7.76,14.32.34,0,0,0,13.88,0,13.88h-2.34c-.4-2.43,1.06-14.63-1.17-16.32-2.65-2.64-7.79-.85-9.5,2.24-1.74,2.34-.71,11.29-.97,14.08h-2.29v-19.05h2Z" style="fill: #fff; stroke-width: 0px;"/>
      <path id="text21" d="m128.63,78.8c-38.97,19.61-40.49-49.77-.76-31.3l-2.88,6.92c-25.16-15.22-24.6,33.59.61,17.82l3.03,6.56Zm18.58-34.08c21.78.13,18.56,29.18-3.94,25.34v11.81h-7.32v-37.16h11.26Zm1.26,18.27c7.4.51,7.59-11.74.05-11.21,0,0-5.25,0-5.25,0v11.21h5.2Zm6.87,4.54l9.19,14.34h-8.53l-9.39-14.14,8.73-.2Zm11.06,14.34l16.76-38.62h.4l16.76,38.62h-8.48l-10.7-27.16,5.3-3.63-12.82,30.79h-7.22Zm11.46-13.43h11.16l2.57,6.16h-16l2.27-6.16Zm19.13-23.47h8.58l7.93,23.32-1.16-.5,6.92-17.21,3.38,10.05-10.7,22.97-14.94-38.62Zm18.63,0h7.27l9.14,22.57-1.31-.2,6.82-22.36h7.88l-14.34,38.52-15.45-38.52Zm36.2-.25h7.32v30.09h17.47v7.07h-24.79v-37.16Zm32.36,0h25.34v7.07h-18.02v7.93h15.95v7.07h-15.95v8.03h18.73v7.07h-26.05v-37.16Zm44.88,0c21.78.13,18.56,29.18-3.94,25.34v11.81h-7.32v-37.16h11.26Zm1.26,18.27c7.4.51,7.59-11.74.05-11.21,0,0-5.25,0-5.25,0v11.21h5.2Zm6.87,4.54l9.19,14.34h-8.53l-9.39-14.14,8.73-.2Zm35.09-13.83c-4-3.28-17.03-4.52-12.52,3.53,4.28,3.81,11.94,3.74,14.19,9.89,5.23,14.84-15.28,19.11-24.69,11.16l3.23-5.7c3.72,3.87,17.47,5.4,13.83-2.98-7.31-5.34-19.87-7.36-13.73-19.79,4.67-7.44,16.39-6.08,22.46-1.72l-2.78,5.6Z" style="fill: #fff; stroke-width: 0px;"/>
      <path id="path4" d="m44.05,81.37c-.52-.28-1.1-.48-1.62-.63.06,1.38.77,1.09-15.8-6.78-17.65-8.58-15.6-7.69-15.6-6.83-.24,2.15-.9-.34-.69-1.36-.78-.56-2.11-1.06-3.15-1.43-.91-3.23-5.17-19.31-5.58-19.56-.06.56-.39.93-.79,1.21-.83-.8-1.26-1.92-.14-2.5.24.15.71.44.95.59-.06-1.15-1.6-2.78,1-1.78,2.16.97,1.31-.65,1.48-1.9.49-.32,1.46-.97,1.95-1.29-.66-.29-1.53-.61-2.27-.87,2.71-1.2,3.04-1.22,0-2.12,2.5-1.04,7.69-2.36,9.64-3.68-.3-.5,1.02-.71,1.54-.64.11-.3.34-.9.46-1.2-2.74-3.15-2.27-3.86.94-1.08.31-.1.93-.31,1.24-.41.99-4.45.56,2.03,3.01-.31.53-.51,3.05-1.92,4.05-2.49-1.34-1.42-4.04-4.29-5.38-5.71-.57.11-1.36.27-2.01.4-.35-.35-1.05-1.05-1.4-1.4-.05-.73.08-1.54.48-2.12-1.49-1.62-8.48-8.89-8.5-9.4.41-.08,16.99,1.67,17.12,1.81.08.29-1.55,3.27-1.93,4.02,0,.49-.01,1.48-.02,1.96.23.23.69.69.92.92.66,0,1.99,0,2.66,0,.46-.26,1.39-.78,1.85-1.04.89-1.72,1.99-3.69,3-5.19,1.83-.15,29.79,2.96,30.36,3.16.09.11,1.55,3.67,3.26,7.93,1.7,4.26,4,9.97,5.1,12.7,2.33,5.78,2.32,5.26.06,4.55-1.49-.46-2.26-.66-3.31-.84v1.47c-.79.74-2.16,1.99-2.92,2.49-2.16.86,1.54,1.63,2.45,2.23v2.2c.8-.78,1.79-1.64,2.7-2.13-1.01,5.19-3.99,19.65-4.33,22.29-.51.38-1.55,1.16-2.06,1.54v3.38h-.69v-1.22c-3.58,3.96-8.75,8.7-11.66,11.19-.04-.37-.11-1.1-.15-1.47-.15.2-.45.61-.59.81-.19-.07-.57-.22-.76-.29v-1.61c.22-.12.67-.36.9-.48l.65.93c.27-4.56,1.96-17.32,2.15-21.75-.34.25-1.04.74-1.39.99l.02-2.46c1.12-.89,3.37-2.67,4.48-3.55.06.39.27,3.1.37,1.48,2.41-1.93,7.26-5.82,9.67-7.76.06-.43-.04-2.03-.42-1.73.37-.04-2.93,2.62-9.27,7.57-3.87-2.45-3.24-2.1-6.96.45-1.04-.13-2.62-.44-3.34.16-.2-.11-.6-.33-.8-.45v.95c-.37.18-1.13.54-1.5.71l-9.81-3.37c-10.51-3.38-10.41-4.06-10.4-2.03,2.92,1.04,15.22,5.15,20.32,6.87v.77c.74.25,2.24.75,2.99.99-.24,1.98-.36,5.53-.69,12.44-.59,13.18-.47,12.41-1.84,11.68h0Zm12.68-13.16l.52-.55c-1.45-3.98.3-6,2.36-8.36.56.09.81.7,1.54.78.61.13.87.45.99.92l-.99.65.95,1.29c0,.6.02,1.8.03,2.39-.62,1.13-3.25,1.54-2.1.03.91-.97,1.07-3.72.18-3.17-.99.5-.17-1.1.11-1.49l-.76-.76c-2.76,2.25-3.44,4.63-1.22,7.63,3.59,1.83,6.66-1.91,4.85-5.65.17-1.49.94-7.69.87-8.08-.07-.07-6.96,3.94-7.31,4.24.18-.16-1.72,13.12-.02,10.14h0Zm-37.51-1.4c2.21-.31,3.64-4.39,3.46-7.46-1.72-2.18-7.37-4-10.75-4.04l-1.14,1.07c-.29,3.31,2.18,7.92,4.99,10.32,1.26.28,2.29.48,3.44.11Zm-3.07-2.71c-.47-.93-.15-3.75-.68-4.73.36-1.24,2.04-.75,2.83.11-.13.39-.4,1.16-.54,1.55.19,1.06.46,2.52-.02,3.35-.45.01-1.31.02-1.58-.28h0Zm6.99-7.45c.2-2.14-.04-4.12-.76-5.64.06-1.03.19-3.1.25-4.12-2.7-.97-17.17-5.9-17.74-6.07-.13.05-.09,1.28-.1,1.58l8.78,2.91c-.12.36.28.9.46.38.13-.24,2.48.61,3,.77v1.7c-2.03.04-3.64,2.72-3.12,4.79h1.6c.09-.52.26-1.56.34-2.08.33-.29,1-.87,1.33-1.15.02-2.21,1.63-3.81,3.61-2.64-.97.38-1.89,1.09-2.19,2.07.19.58.58,1.75.78,2.34,3.59,1.29-1.45.67-2.1-.32l.22.85,3.66,1.1c.34,1.24.2,3.1.06,4.56.48.36,1.14.5,1.74.46l.16-1.49Zm24.79-6.44l.07-.39c-1.69-.39-.66,1.83-.07.39h0Zm-9.66-.23c-1.65-.7-2.95-2.52-4.16-4.07v-1.86l-.92-.92c-.49,0-1.48,0-1.97,0-1.17-.65-2.58-1.31-3.81-1.65l-.02-1c-.2.23-.6.7-.79.94-.68.11-2.92.56-3.22.31-1.31.33-4.17,1.74-6.02,1.42l.4.23c.2.04,21.89,7.78,20.5,6.61h0Zm5.3-7.19c.41.59,1.55.05.41-.43.16-.13.85-.53.56-.72-.26-.15-.11-.8-.05-1.08-.43.18-1.01.3-1.17-.23-.33.38-.87.43-1.35.29.08.43.33,1.29-.34,1.15.64.06.43.9.33,1.39.66-.51,1.34-.58,1.2.31.05-.09.35-.95.41-.68h0Zm6.52-7.34c-.23-.24-.57-.05-.78.11.27.3,1.2.45.78-.11Zm-4.43-.43c1.22-.55,1.14-.14.2-1.59h-1.6c-.09.23-.35.77-.03.87.15.05.27.28.27.51-.07.74,1.1.69,1.15.21Zm-26.66-1.59l.56.21c.08-.35-.23-.6-.53-.75.51-.33.93-.97,1.23-1.55-.64.17-.37-.58-.27-.97-.68.95-2.87.34-3.28,1.66.22.04-.43.39-.5.45.6-.09.59.25.36.7.42-.03.8,0,.42.46l1.18-.45c.01.2.04.6.05.8l.21-.79.56.21Zm41.92-1.62c.14-.32.03-.82-.08-1.16-1.52-.15-1.37.32-1.48,1.58.43-.01,1.41-.03,1.56-.42h0Zm-15.26-.59c0-.34-.49-.46-.77-.18-.24.51.82,1.04.77.18Zm-11.78-2.64c0-.3-.47-.3-.46,0,0,.3.47.3.46,0Zm16.86-1.15c0-.13-.16-.23-.36-.23-.69.06.33.83.36.23Zm-24.02-3.11c.38-.45.13-1.04-.43-1.04-1.13-.12-.32,2.17.43,1.04Zm16.17-1.27c0-.3-.47-.3-.46,0,0,.3.47.3.46,0Zm-9.3-1.53c.31-.05.3.27.29.47.13-.13.4-.4.53-.53.24.13.73.39.97.52l-.68-.82c.22-.16.66-.48.88-.64h-.75l.22-1.23c-.17.14-.51.42-.67.56-.08-.13-.24-.38-.31-.51-.37.46-.96.44-1.46.17l.6.74-.83.49h.63c-.07.31-.22.91-.3,1.21.24-.16.61-.38.88-.42h0Zm5.72-.32c.19-.33-.38-.27-.35,0,.01.35.19.25.35,0h0Zm-20.71-2.14l-.07-.52-1.04-.15c-.12.95.23,1.3,1.19,1.19l-.07-.52Zm18.06-6.64c0-.3-.47-.3-.46,0,0,.3.47.3.46,0Zm9.75,68.08c-.97-1.3.65-3.25,1.41-.9-.36.5-.87,1.65-1.41.9Zm.28-6.05c-.14-.33-.03-1.2.02-1.64l1.01-.14c.12.23.37.69.49.92-.11.29-.34.89-.45,1.18-.33.01-.95.03-1.08-.33h0Zm2.83.17c-.78-.9.97-3.08,1.23-1.05,0,.92-.74,1.55-1.23,1.05Zm-2.19-5.43c-.38-.38-.35-1.45.04-1.78,1.56-1.15,1.61,3.06-.04,1.78Zm2.65.12c-.78-.9.97-3.08,1.23-1.05,0,.92-.74,1.55-1.23,1.05Zm-45.19-3.43v-.58c.65.34,1.44.78,1.96,1.16h-1.96s0-.58,0-.58Zm61.05-2.31c-.21-.54.38-1.73.85-1.73,1.38-.01,0,3.15-.85,1.73Zm-15.32-.46l-.23-.61c.22-.57.66-1.05,1.27-.77v1.83c-.2.04-.61.12-.81.16l-.23-.61Zm-2.91.02c-.14-.33-.03-1.2.02-1.64l1.03-.15c.13.28.39.85.51,1.13-.18.68-1.19,1.43-1.57.66h0Zm-43-.87c-.3-.28-.29-1.14-.28-1.58,1.88-1.18,2.13,2.79.28,1.58h0Zm62.46-4.26c-.6-.76.17-2.32,1.12-1.81.32.8-.35,2.4-1.12,1.81h0Zm-64.13-1.7c-.26-.47-.14-1.12.01-1.61,1.19-.25,1.53.92,1.26,1.96l-1.01.14-.27-.5Zm65.28-3.61c-.64-.75.24-2.2,1.23-1.92.17.88-.34,2.72-1.23,1.92ZM1.91,51.36l-.39-.28.15-1.59c1.58-.67,1.94,2.94.24,1.88h0Zm67.24-4.63c-.14-.33.1-1.21.22-1.64l.99-.15c.62.98-.55,3.02-1.21,1.78h0ZM3.08,35.31c-.1-.85,1.1-.4.15.24l-.15-.24Zm68.97-.42c-.53-1.18-6.67-16.6-8.22-20.48,1.51-3.03,4.4-7.2,7.88-7.08,8.1-1.82,4.36,22.75.55,27.99l-.22-.43ZM24.79,15.12l-.39-.28c.52-1.15,1.56-3.46,2.08-4.61h1.28c.32,1.04-1.52,4.83-2.59,5.18l-.39-.28Zm30.11-4.67c-5.12-.58-16.4-1.61-21.36-2.19-.07,0-.02-.22.12-.48,1.4-.95-4.64-.8-5.8-1.02l-.86.86-4.12-.38c-7.01-.66-10.91-.99-12.33-1.3C13.35.28,21.11-.57,27.11.28c7.46.85,7.72-1.28,4.46,3.56,1.18.15,2.59.33,3.65.5.81-1.21,1.9-2.88,2.96-3.5,4.95.26,26.31,1.35,27.5,1.49-2.49,2.03-5.99,5.51-6.96,8.46-1.11-.02-1.93-.12-3.83-.35h0Zm-25.05-6.07c-.28-.22-1.15.95-1.33,1.46.27-.26,1.43-1.27,1.33-1.46Zm6.58.54c1.18-1.49-.89.42-.63.58.05,0,.33-.26.63-.58Z" style="fill: #fff; stroke-width: 0px;"/>
    </g>
  </g>
</svg>