<?xml version="1.0" encoding="UTF-8"?>
<svg id="Calque_2" data-name="Calque 2" xmlns="http://www.w3.org/2000/svg" viewBox="0 0 289.7 81.92">
  <g id="svg19">
    <g>
      <g>
        <path d="m124.93,34.38c-.73.45-1.58.88-2.53,1.29-.95.41-2,.74-3.15.98s-2.39.36-3.72.36c-2.58,0-4.92-.45-7.01-1.36-2.1-.91-3.9-2.15-5.39-3.72-1.5-1.57-2.65-3.39-3.46-5.44-.81-2.05-1.22-4.24-1.22-6.56,0-2.48.43-4.79,1.29-6.92.86-2.13,2.07-3.99,3.63-5.58,1.56-1.59,3.37-2.83,5.44-3.72,2.07-.89,4.31-1.34,6.73-1.34,1.78,0,3.45.24,5.01.72s2.97,1.1,4.25,1.86l-1,2.15c-1.11-.7-2.37-1.29-3.77-1.77-1.4-.48-2.88-.72-4.44-.72-2,0-3.9.39-5.68,1.17-1.78.78-3.35,1.86-4.7,3.25s-2.41,3-3.17,4.84c-.76,1.85-1.15,3.83-1.15,5.97s.34,3.96,1.03,5.77c.68,1.81,1.67,3.4,2.96,4.77,1.29,1.37,2.84,2.44,4.65,3.22,1.81.78,3.83,1.17,6.06,1.17,1.65,0,3.17-.23,4.56-.69,1.38-.46,2.62-1.04,3.7-1.74l1.1,2.05Z" style="fill: #fff; stroke-width: 0px;"/>
        <path d="m132.42,36.62V.35h2.2v22.57l-.14-.81c.64-1.3,1.66-2.41,3.08-3.32,1.42-.91,3.05-1.36,4.89-1.36,1.75,0,3.17.52,4.25,1.55,1.08,1.03,1.64,2.38,1.67,4.03v13.6h-2.29v-12.98c-.03-1.21-.41-2.21-1.14-3.01-.73-.79-1.8-1.21-3.2-1.24-1.24,0-2.4.32-3.48.95-1.08.64-1.95,1.5-2.6,2.58-.65,1.08-.98,2.31-.98,3.67v10.02h-2.24Z" style="fill: #fff; stroke-width: 0px;"/>
        <path d="m164.58,37c-1.78,0-3.4-.41-4.84-1.22-1.45-.81-2.59-1.95-3.44-3.41-.84-1.46-1.26-3.17-1.26-5.11,0-2.07.45-3.84,1.34-5.32.89-1.48,2.1-2.61,3.63-3.39,1.53-.78,3.26-1.17,5.2-1.17,1.65,0,3.22.49,4.7,1.48,1.48.99,2.54,2.23,3.17,3.72l-.33.67.29-5.3h2v18.66h-2.24v-5.77l.48.86c-.22.64-.6,1.26-1.14,1.88-.54.62-1.2,1.19-1.98,1.72-.78.52-1.64.94-2.58,1.24-.94.3-1.93.45-2.98.45Zm.48-1.91c1.4,0,2.66-.29,3.79-.88,1.13-.59,2.04-1.41,2.74-2.46.7-1.05,1.1-2.26,1.19-3.63v-2.67c-.25-1.18-.76-2.23-1.5-3.15-.75-.92-1.66-1.65-2.74-2.19-1.08-.54-2.26-.81-3.53-.81-1.4,0-2.69.33-3.87.98-1.18.65-2.12,1.57-2.82,2.74-.7,1.18-1.05,2.56-1.05,4.15,0,1.46.35,2.79,1.05,3.98.7,1.19,1.65,2.15,2.84,2.86,1.19.72,2.49,1.07,3.89,1.07Z" style="fill: #fff; stroke-width: 0px;"/>
        <path d="m187.91,37c-1.08,0-2.21-.2-3.39-.6-1.18-.4-2.13-1.04-2.86-1.93l1.05-1.48c.64.67,1.39,1.2,2.27,1.6.88.4,1.81.6,2.79.6.73,0,1.42-.1,2.08-.31.65-.21,1.19-.56,1.6-1.07.41-.51.62-1.19.62-2.05s-.25-1.57-.74-2.05c-.49-.48-1.11-.87-1.86-1.17-.75-.3-1.54-.58-2.36-.83-1.37-.45-2.49-1.05-3.36-1.81-.88-.76-1.31-1.84-1.31-3.24,0-1.02.25-1.91.74-2.67.49-.76,1.17-1.36,2.03-1.79s1.83-.64,2.91-.64c.99,0,1.96.16,2.93.48.97.32,1.85.86,2.65,1.62l-1,1.57c-.51-.7-1.19-1.18-2.03-1.43-.84-.25-1.58-.4-2.22-.43-.54,0-1.11.11-1.69.33-.59.22-1.08.55-1.48.98-.4.43-.6.99-.6,1.69s.21,1.33.62,1.79c.41.46.95.83,1.6,1.12.65.29,1.33.56,2.03.81.92.29,1.79.63,2.6,1.03.81.4,1.48.92,2,1.57.53.65.79,1.52.79,2.6s-.24,2.06-.72,2.94c-.48.88-1.19,1.56-2.12,2.05-.94.49-2.12.74-3.56.74Z" style="fill: #fff; stroke-width: 0px;"/>
        <path d="m205.47,37c-1.08,0-2.21-.2-3.39-.6-1.18-.4-2.13-1.04-2.86-1.93l1.05-1.48c.64.67,1.39,1.2,2.27,1.6.88.4,1.81.6,2.79.6.73,0,1.42-.1,2.08-.31.65-.21,1.19-.56,1.6-1.07.41-.51.62-1.19.62-2.05s-.25-1.57-.74-2.05c-.49-.48-1.11-.87-1.86-1.17-.75-.3-1.54-.58-2.36-.83-1.37-.45-2.49-1.05-3.36-1.81-.88-.76-1.31-1.84-1.31-3.24,0-1.02.25-1.91.74-2.67.49-.76,1.17-1.36,2.03-1.79s1.83-.64,2.91-.64c.99,0,1.96.16,2.93.48.97.32,1.85.86,2.65,1.62l-1,1.57c-.51-.7-1.19-1.18-2.03-1.43-.84-.25-1.58-.4-2.22-.43-.54,0-1.11.11-1.69.33-.59.22-1.08.55-1.48.98-.4.43-.6.99-.6,1.69s.21,1.33.62,1.79c.41.46.95.83,1.6,1.12.65.29,1.33.56,2.03.81.92.29,1.79.63,2.6,1.03.81.4,1.48.92,2,1.57.53.65.79,1.52.79,2.6s-.24,2.06-.72,2.94c-.48.88-1.19,1.56-2.12,2.05-.94.49-2.12.74-3.56.74Z" style="fill: #fff; stroke-width: 0px;"/>
        <path d="m226.76,37c-1.94,0-3.66-.43-5.15-1.29-1.5-.86-2.67-2.03-3.51-3.51-.84-1.48-1.26-3.14-1.26-4.99s.45-3.47,1.34-4.96c.89-1.5,2.09-2.69,3.6-3.58,1.51-.89,3.19-1.34,5.03-1.34,2.23,0,4.1.65,5.61,1.96,1.51,1.3,2.6,3.01,3.27,5.11l-16.32,6.3-.67-1.62,14.94-5.82-.48.67c-.54-1.27-1.36-2.37-2.46-3.29-1.1-.92-2.44-1.38-4.03-1.38-1.43,0-2.72.35-3.87,1.05-1.15.7-2.06,1.64-2.74,2.82-.68,1.18-1.03,2.51-1.03,4.01,0,1.4.33,2.7.98,3.91.65,1.21,1.57,2.18,2.74,2.91,1.18.73,2.53,1.1,4.06,1.1,1.02,0,2-.19,2.93-.57.94-.38,1.77-.87,2.5-1.48l1.15,1.62c-.89.7-1.92,1.27-3.08,1.72-1.16.44-2.35.67-3.55.67Z" style="fill: #fff; stroke-width: 0px;"/>
        <path d="m264.64,37c-1.94,0-3.66-.43-5.15-1.29-1.5-.86-2.67-2.03-3.51-3.51-.84-1.48-1.26-3.14-1.26-4.99s.45-3.47,1.34-4.96c.89-1.5,2.09-2.69,3.6-3.58,1.51-.89,3.19-1.34,5.03-1.34,2.23,0,4.1.65,5.61,1.96,1.51,1.3,2.6,3.01,3.27,5.11l-16.32,6.3-.67-1.62,14.94-5.82-.48.67c-.54-1.27-1.36-2.37-2.46-3.29-1.1-.92-2.44-1.38-4.03-1.38-1.43,0-2.72.35-3.87,1.05-1.15.7-2.06,1.64-2.74,2.82-.68,1.18-1.03,2.51-1.03,4.01,0,1.4.33,2.7.98,3.91.65,1.21,1.57,2.18,2.74,2.91,1.18.73,2.53,1.1,4.06,1.1,1.02,0,2-.19,2.93-.57.94-.38,1.77-.87,2.5-1.48l1.15,1.62c-.89.7-1.92,1.27-3.08,1.72-1.16.44-2.35.67-3.55.67Z" style="fill: #fff; stroke-width: 0px;"/>
        <path d="m281.63,9.75h2.29v8.45h5.77v1.81h-5.77v16.61h-2.29v-16.61h-3.96v-1.81h3.96v-8.45Z" style="fill: #fff; stroke-width: 0px;"/>
      </g>
      <g>
        <path d="m111.01,41.03c3.33,0,6.15.56,8.46,1.68,2.31,1.12,4.07,2.69,5.28,4.73s1.81,4.44,1.81,7.23c0,1.65-.25,3.31-.74,4.97-.49,1.67-1.28,3.18-2.36,4.53-1.08,1.36-2.53,2.45-4.34,3.27-1.81.82-4.04,1.24-6.68,1.24h-5.71v12.8h-7.97v-40.44h12.25Zm1.37,19.89c1.21,0,2.22-.21,3.02-.63.81-.42,1.44-.95,1.9-1.59.46-.64.79-1.31.99-2,.2-.7.3-1.3.3-1.81,0-.4-.06-.94-.19-1.62-.13-.68-.39-1.36-.8-2.06-.4-.7-1.02-1.28-1.84-1.76-.82-.48-1.93-.71-3.32-.71h-5.71v12.2h5.66Z" style="fill: #fff; stroke-width: 0px;"/>
        <path d="m133.7,41.03h27.58v7.69h-19.62v8.63h17.36v7.69h-17.36v8.74h20.39v7.69h-28.35v-40.44Z" style="fill: #fff; stroke-width: 0px;"/>
        <path d="m200.63,78.12c-.44.37-1.25.86-2.45,1.48s-2.65,1.17-4.37,1.65c-1.72.48-3.63.7-5.71.66-3.19-.07-6.04-.65-8.54-1.73-2.51-1.08-4.63-2.56-6.37-4.42-1.74-1.87-3.07-4.01-3.98-6.43-.92-2.42-1.37-5-1.37-7.75,0-3.08.47-5.9,1.4-8.46.93-2.56,2.27-4.78,4.01-6.65,1.74-1.87,3.82-3.32,6.24-4.34,2.42-1.03,5.09-1.54,8.02-1.54,2.71,0,5.11.37,7.2,1.1,2.09.73,3.79,1.52,5.11,2.36l-3.13,7.53c-.92-.7-2.13-1.42-3.65-2.17-1.52-.75-3.27-1.13-5.25-1.13-1.54,0-3.01.32-4.42.96-1.41.64-2.66,1.55-3.74,2.72-1.08,1.17-1.93,2.54-2.55,4.09-.62,1.56-.93,3.25-.93,5.08,0,1.94.28,3.72.85,5.33.57,1.61,1.38,2.99,2.45,4.15,1.06,1.15,2.33,2.04,3.82,2.67s3.16.93,5.03.93c2.16,0,4.01-.35,5.55-1.04,1.54-.7,2.71-1.43,3.52-2.2l3.3,7.14Z" style="fill: #fff; stroke-width: 0px;"/>
        <path d="m242.61,41.03v40.44h-7.97v-16.43h-18.08v16.43h-7.97v-40.44h7.97v16.32h18.08v-16.32h7.97Z" style="fill: #fff; stroke-width: 0px;"/>
        <path d="m253.05,41.03h27.58v7.69h-19.62v8.63h17.36v7.69h-17.36v8.74h20.39v7.69h-28.35v-40.44Z" style="fill: #fff; stroke-width: 0px;"/>
      </g>
      <g id="g1">
        <path id="path1" d="m46.59,79.32c-2.91-.35-5.78-1.11-7.54-2-1.09-.55-2.9-1.8-3.48-2.41l-.46-.48,1.24.13c.68.07,2.32.12,3.65.11,2.56-.01,4.08-.23,6.64-.94l1.45-.4.45.54c.25.3.8.77,1.24,1.05.84.54,1.4,1.38,1.39,2.12,0,.24-.14.73-.31,1.1-.5,1.1-1.83,1.47-4.27,1.17h0Zm-9.54-9.36c-5.86-.82-11.83-3.95-17.5-9.19-2.14-1.98-2.4-2.33-2.47-3.27-.06-.85,0-1,.97-2.21.39-.49.47-.72.47-1.46s-.07-.97-.47-1.46c-.95-1.2-1.03-1.37-.97-2.19.07-1.01.36-1.38,2.64-3.44,5.25-4.75,10.37-7.61,15.68-8.76,2.23-.48,6.01-.48,8.28,0,7.08,1.51,14.22,6.31,20.33,13.65.98,1.18,1.25,1.94.98,2.82-.37,1.23-4.43,5.6-7.68,8.26-4.64,3.8-9.23,6.11-13.96,7.02-1.52.3-4.92.42-6.3.22h0Zm-8.06-16.44c.7-.36,1.24-1.25,1.23-2.05,0-.28-.16-.78-.35-1.11-1.23-2.15-4.54-1.07-4.26,1.39.19,1.68,1.85,2.55,3.38,1.77h0Zm46.61,11.84c-2.38-.33-5.35-1.7-8.1-3.76l-1.28-.95,1.08-1.27c2.37-2.8,2.99-5.21,2.04-7.93-.34-.97-.84-1.73-2.17-3.3l-.94-1.12,1.16-.88c3.15-2.37,6.1-3.66,8.92-3.89,1.06-.09,1.26-.06,1.83.26.42.24.75.58.95,1,.56,1.16.39,1.76-.94,3.28-2.57,2.94-3.78,6.03-3.25,8.3.41,1.73,1.67,3.97,3.27,5.8,1.27,1.46,1.46,2.13.91,3.28-.52,1.08-1.61,1.45-3.48,1.19h0ZM5.29,60.57c-3.54-.95-5.73-4.27-5.21-7.89.25-1.72.86-2.87,2.52-4.71,1.47-1.64,2.02-2.56,2.03-3.37,0-.42-.1-.52-.99-.98-2.53-1.31-4.02-4.33-3.53-7.17.37-2.16,1.71-4.04,3.53-4.99l1-.52v-14.56s0-14.56,0-14.56l.34-.6c.36-.64,1.31-1.22,1.99-1.22.74,0,1.67.6,2.01,1.3.32.65.32.84.32,15.15v14.49s1.01.52,1.01.52c1.8.93,3.15,2.84,3.52,4.98.48,2.82-1.01,5.86-3.52,7.16-.96.5-1.01.55-1.01,1.08,0,2.01-.74,3.58-2.69,5.77-1.58,1.76-1.96,2.42-1.96,3.35,0,1.19,1.12,2.34,2.29,2.34,1.21,0,2.36-1.13,2.36-2.34,0-1.12,1.2-2.32,2.33-2.32,1.19,0,2.33,1.22,2.33,2.5,0,.75-.39,2.17-.84,3.06-1.4,2.77-4.84,4.31-7.81,3.51Zm41.22-26.69c-2.34-.66-3.96-.89-6.59-.9-1.37,0-3.01.04-3.65.1l-1.16.12.77-.72c2.56-2.38,6.81-3.92,11.61-4.2,1.6-.09,1.8-.07,2.41.24.72.37,1.26,1.25,1.26,2.07,0,.74-.53,1.55-1.38,2.1-.44.28-.99.75-1.22,1.04s-.49.52-.58.52c-.09,0-.75-.18-1.47-.39h0Z" style="fill: #fff; stroke-width: 0px;"/>
      </g>
    </g>
  </g>
</svg>