<?xml version="1.0" encoding="UTF-8"?>
<svg id="Calque_2" data-name="Calque 2" xmlns="http://www.w3.org/2000/svg" viewBox="0 0 334.48 81.51">
  <g id="svg19">
    <g>
      <g>
        <path d="m117.53,46.59c1.27,0,2.54.18,3.79.55,1.26.37,2.4.94,3.44,1.72,1.03.78,1.87,1.77,2.51,2.98.64,1.21.95,2.66.95,4.34,0,1.27-.19,2.51-.57,3.7s-1,2.27-1.86,3.22c-.86.95-1.97,1.72-3.34,2.29-1.37.57-3.05.86-5.06.86h-5.25v14.22h-2.34v-33.88h7.73Zm-.29,17.42c1.69,0,3.09-.24,4.2-.72,1.11-.48,1.99-1.1,2.62-1.86.64-.76,1.09-1.6,1.36-2.5.27-.91.41-1.79.41-2.65,0-1.02-.18-1.97-.55-2.86-.37-.89-.9-1.68-1.6-2.36-.7-.68-1.54-1.22-2.53-1.62-.99-.4-2.08-.6-3.29-.6h-5.73v15.17h5.11Zm4.87,1.05l9.4,15.41h-2.72l-9.45-15.37,2.77-.05Z" style="fill: #fff; stroke-width: 0px;"/>
        <path d="m147.83,46.59c2.1,0,3.94.36,5.51,1.07,1.58.72,2.8,1.78,3.67,3.2.87,1.42,1.31,3.19,1.31,5.32,0,1.27-.2,2.51-.6,3.7-.4,1.19-1.03,2.27-1.91,3.22-.88.95-1.99,1.72-3.34,2.29-1.35.57-2.98.86-4.89.86h-5.25v14.22h-2.34v-33.88h7.83Zm-.24,17.42c1.65,0,3.03-.26,4.13-.79,1.1-.52,1.96-1.19,2.58-2,.62-.81,1.07-1.66,1.34-2.55.27-.89.41-1.72.41-2.48,0-1.08-.18-2.07-.52-2.96-.35-.89-.87-1.66-1.55-2.31-.68-.65-1.52-1.16-2.51-1.53-.99-.37-2.12-.55-3.39-.55h-5.73v15.17h5.25Z" style="fill: #fff; stroke-width: 0px;"/>
        <path d="m192.01,78.08c-.57.38-1.26.74-2.08,1.07-.81.33-1.68.63-2.6.88-.92.26-1.87.45-2.84.6-.97.14-1.89.21-2.74.21-2.67,0-5.08-.44-7.23-1.31-2.15-.87-3.98-2.08-5.51-3.63-1.53-1.54-2.7-3.34-3.51-5.39-.81-2.05-1.22-4.27-1.22-6.66,0-2.58.45-4.95,1.36-7.11.91-2.16,2.15-4.03,3.75-5.61,1.59-1.57,3.44-2.79,5.54-3.65,2.1-.86,4.33-1.29,6.68-1.29,1.78,0,3.46.22,5.03.67,1.57.45,3,1.05,4.27,1.81l-.86,2.1c-.73-.45-1.56-.83-2.48-1.17-.92-.33-1.87-.6-2.84-.79-.97-.19-1.93-.29-2.89-.29-2.16,0-4.17.38-6.01,1.15-1.85.76-3.45,1.83-4.82,3.2s-2.43,2.98-3.2,4.82c-.76,1.85-1.15,3.85-1.15,6.01s.36,4.05,1.07,5.85c.72,1.8,1.73,3.37,3.05,4.72,1.32,1.35,2.9,2.4,4.75,3.15,1.84.75,3.9,1.12,6.16,1.12,1.34,0,2.74-.16,4.2-.48,1.46-.32,2.72-.78,3.77-1.38v-9.4h-7.63v-2.24h9.97v13.03Z" style="fill: #fff; stroke-width: 0px;"/>
      </g>
      <g>
        <path d="m105.92,2.92h24v6.77h-8.66v28.84h-7.02V9.69h-8.32V2.92Z" style="fill: #fff; stroke-width: 0px;"/>
        <path d="m129.77,38.53L145.83,1.51h.39l16.06,37.01h-8.13l-10.26-26.03,5.08-3.48-12.29,29.51h-6.92Zm10.98-12.87h10.69l2.47,5.9h-15.34l2.18-5.9Z" style="fill: #fff; stroke-width: 0px;"/>
        <path d="m191.75,35.58c-.39.32-1.1.76-2.15,1.31-1.05.55-2.33,1.03-3.85,1.45-1.52.42-3.19.61-5.03.58-2.81-.06-5.31-.57-7.52-1.52-2.21-.95-4.08-2.25-5.61-3.9-1.53-1.64-2.7-3.53-3.51-5.66-.81-2.13-1.21-4.4-1.21-6.82,0-2.71.41-5.19,1.23-7.45.82-2.26,2-4.21,3.53-5.85,1.53-1.64,3.36-2.92,5.49-3.82,2.13-.9,4.48-1.35,7.06-1.35,2.39,0,4.5.32,6.34.97,1.84.65,3.34,1.34,4.5,2.08l-2.76,6.63c-.81-.61-1.88-1.25-3.22-1.91-1.34-.66-2.88-.99-4.62-.99-1.35,0-2.65.28-3.9.85-1.24.57-2.34,1.36-3.29,2.4-.95,1.03-1.7,2.23-2.25,3.6-.55,1.37-.82,2.86-.82,4.48,0,1.71.25,3.27.75,4.69.5,1.42,1.22,2.64,2.15,3.65.94,1.02,2.06,1.8,3.36,2.35,1.31.55,2.78.82,4.43.82,1.9,0,3.53-.31,4.89-.92,1.35-.61,2.39-1.26,3.1-1.94l2.9,6.29Z" style="fill: #fff; stroke-width: 0px;"/>
        <path d="m196.35,2.92h24v6.77h-8.66v28.84h-7.02V9.69h-8.32V2.92Z" style="fill: #fff; stroke-width: 0px;"/>
        <path d="m227.12,2.92h7.02v35.61h-7.02V2.92Z" style="fill: #fff; stroke-width: 0px;"/>
        <path d="m270.04,35.58c-.39.32-1.11.76-2.15,1.31-1.05.55-2.33,1.03-3.85,1.45s-3.19.61-5.03.58c-2.81-.06-5.32-.57-7.52-1.52-2.21-.95-4.08-2.25-5.61-3.9-1.53-1.64-2.7-3.53-3.51-5.66-.81-2.13-1.21-4.4-1.21-6.82,0-2.71.41-5.19,1.23-7.45.82-2.26,2-4.21,3.53-5.85,1.53-1.64,3.36-2.92,5.49-3.82,2.13-.9,4.48-1.35,7.06-1.35,2.39,0,4.5.32,6.34.97,1.84.65,3.34,1.34,4.5,2.08l-2.76,6.63c-.81-.61-1.88-1.25-3.22-1.91-1.34-.66-2.88-.99-4.62-.99-1.35,0-2.65.28-3.89.85-1.24.57-2.34,1.36-3.29,2.4-.95,1.03-1.7,2.23-2.25,3.6-.55,1.37-.82,2.86-.82,4.48,0,1.71.25,3.27.75,4.69.5,1.42,1.22,2.64,2.15,3.65.94,1.02,2.06,1.8,3.36,2.35s2.78.82,4.43.82c1.9,0,3.53-.31,4.89-.92,1.36-.61,2.39-1.26,3.1-1.94l2.9,6.29Z" style="fill: #fff; stroke-width: 0px;"/>
        <path d="m273.04,38.53L289.1,1.51h.39l16.06,37.01h-8.13l-10.26-26.03,5.08-3.48-12.29,29.51h-6.92Zm10.98-12.87h10.69l2.47,5.9h-15.34l2.18-5.9Z" style="fill: #fff; stroke-width: 0px;"/>
        <path d="m310.73,2.92h7.02v28.84h16.74v6.77h-23.76V2.92Z" style="fill: #fff; stroke-width: 0px;"/>
      </g>
      <g id="g1">
        <path id="path1" d="m8.41,81.23C3.67,80.21,0,75.65,0,70.78s3.68-9.46,8.49-10.47c.85-.18,2.37-.26,4.75-.27,2.48,0,3.56-.07,3.71-.22.16-.16.21-4.22.21-17.18v-16.96h17.84c9.81,0,17.8.04,17.75.09-.05.05-1.53.38-3.3.73-1.76.35-3.31.73-3.43.83-.55.45-.19.87,2.21,2.68,1.85,1.39,2.38,1.87,2.18,1.99-.14.09-1.49.66-3,1.26-2.79,1.12-3.3,1.46-2.95,2.02.11.18,1.72.82,4.03,1.59,2.28.77,3.82,1.37,3.79,1.49-.03.11-.85,1.28-1.83,2.59-.98,1.31-1.79,2.5-1.79,2.64,0,.64.36.69,4.4.69h3.97l-.64,2.58c-.54,2.17-.6,2.62-.4,2.86.13.16.35.29.5.29s1.82-.94,3.74-2.08l3.48-2.08,3.48,2.08c1.91,1.15,3.59,2.08,3.74,2.08s.36-.12.49-.27c.18-.22.12-.81-.35-3.18-.32-1.6-.62-3.09-.67-3.31l-.1-.4h3.29c3.36,0,3.72-.07,3.72-.7,0-.15-1.18-1.46-2.63-2.91-1.45-1.45-2.59-2.67-2.55-2.71s1.52-.94,3.27-1.99,3.24-2.04,3.29-2.19c.06-.15.03-.4-.07-.55-.1-.15-1.93-.86-4.08-1.58-2.15-.72-3.95-1.34-4-1.4-.05-.05.17-.78.5-1.62l.59-1.52h9.97v55.83h-36.01c-30.17-.03-36.2-.07-37.18-.28Zm15.57-6.88c2.1-1.57,3.87-2.86,3.93-2.86s.47.36.9.81c.79.81,1.35.99,1.75.59.39-.39.23-.7-1.03-2.01l-1.25-1.29,1.46-.71c.8-.39,1.69-.89,1.97-1.12l.5-.42.5.42c.28.23,1.16.74,1.97,1.12l1.46.71-1.25,1.29c-1.26,1.3-1.42,1.62-1.03,2.01.4.4.96.22,1.75-.59.43-.44.84-.81.9-.81s1.83,1.29,3.93,2.86,3.94,2.86,4.1,2.86c.37,0,2.7-2.33,2.7-2.69,0-.16-1.29-2.01-2.86-4.11s-2.86-3.87-2.86-3.93.36-.47.81-.9c.81-.79.99-1.35.59-1.75-.39-.39-.7-.23-2.01,1.03l-1.29,1.25-.71-1.46c-.39-.8-.9-1.69-1.14-1.98l-.43-.52,1.73-1.73,1.73-1.73,1.07-3.21c.59-1.77,1.03-3.35.98-3.52s-.24-.35-.41-.41-1.76.39-3.52.98l-3.21,1.07-1.75,1.74-1.75,1.74-1.75-1.74-1.75-1.74-3.21-1.07c-1.77-.59-3.35-1.03-3.52-.98-.17.05-.35.24-.41.41-.05.17.39,1.76.98,3.52l1.07,3.21,1.73,1.73,1.73,1.73-.43.52c-.24.28-.75,1.18-1.14,1.98l-.71,1.46-1.29-1.25c-1.3-1.26-1.62-1.42-2.01-1.03-.4.4-.22.96.59,1.75.44.43.81.84.81.9s-1.29,1.83-2.86,3.93-2.86,3.94-2.86,4.1c0,.37,2.33,2.7,2.69,2.7.16,0,2.01-1.29,4.11-2.86Zm50.32.79c2.24-1.58,2.03-4.82-.39-6.12-1.69-.9-3.84-.2-4.79,1.57-.9,1.69-.2,3.84,1.57,4.79,1.12.6,2.56.51,3.61-.24h0Zm-21.05-3.38c.28-.28.44-.64.44-.99s-.16-.72-.44-.99c-.28-.28-.64-.44-.99-.44s-.72.16-.99.44c-.28.28-.44.64-.44.99s.16.72.44.99c.28.28.64.44.99.44s.72-.16.99-.44Zm5.73,0c.28-.28.44-.64.44-.99s-.16-.72-.44-.99c-.28-.28-.64-.44-.99-.44s-.72.16-.99.44c-.28.28-.44.64-.44.99s.16.72.44.99c.28.28.64.44.99.44s.72-.16.99-.44Zm5.73,0c.28-.28.44-.64.44-.99s-.16-.72-.44-.99c-.28-.28-.64-.44-.99-.44s-.72.16-.99.44c-.28.28-.44.64-.44.99s.16.72.44.99c.28.28.64.44.99.44s.72-.16.99-.44Zm0-5.73c.28-.28.44-.64.44-.99s-.16-.72-.44-.99c-.28-.28-.64-.44-.99-.44s-.72.16-.99.44c-.28.28-.44.64-.44.99s.16.72.44.99c.28.28.64.44.99.44s.72-.16.99-.44Zm0-7.16c.28-.28.44-.64.44-.99s-.16-.72-.44-.99c-.28-.28-.64-.44-.99-.44s-.72.16-.99.44c-.28.28-.44.64-.44.99s.16.72.44.99c.28.28.64.44.99.44s.72-.16.99-.44Zm0-5.73c.28-.28.44-.64.44-.99s-.16-.72-.44-.99c-.28-.28-.64-.44-.99-.44s-.72.16-.99.44c-.28.28-.44.64-.44.99s.16.72.44.99c.28.28.64.44.99.44s.72-.16.99-.44Zm-37.22-4.29c.89-.89.26-2.42-.99-2.42-.74,0-1.43.7-1.43,1.43s.7,1.43,1.43,1.43c.35,0,.72-.16.99-.44h0Zm0-5.73c.89-.89.26-2.42-.99-2.42-.74,0-1.43.7-1.43,1.43s.7,1.43,1.43,1.43c.35,0,.72-.16.99-.44h0Zm-1.94-7.65l.95-.93.95.93c.96.95,1.32,1.1,1.7.72s.23-.74-.72-1.7l-.93-.95.93-.95c.95-.96,1.1-1.32.72-1.7s-.74-.23-1.7.72l-.95.93-.95-.93c-.96-.95-1.32-1.1-1.7-.72s-.23.74.72,1.7l.93.95-.93.95c-.95.96-1.1,1.32-.72,1.7s.74.23,1.7-.72h0Zm9.1-.94c.89-.89.26-2.42-.99-2.42-.35,0-.72.16-.99.44s-.44.64-.44.99.16.72.44.99.64.44.99.44.72-.16.99-.44h0Zm5.73,0c.89-.89.26-2.42-.99-2.42-.35,0-.72.16-.99.44s-.44.64-.44.99.16.72.44.99.64.44.99.44.72-.16.99-.44h0ZM0,44.47c0-22.73-.04-21.84,1.19-24.33.91-1.84,2.88-3.81,4.72-4.72,1.91-.94,3.31-1.18,6.84-1.19h3s0,22.17,0,22.17v22.17l-3.62.08c-3.32.07-3.74.12-5.06.55-2.62.87-4.95,2.6-6.41,4.77l-.66.98v-20.49Zm61.47-6.06c-.2-.09-.56-.37-.81-.64l-.45-.48V1.17l.59-.59c.5-.5.71-.59,1.47-.59s.97.08,1.47.59l.59.59v36.13l-.55.55c-.59.59-1.64.84-2.31.54h0Zm4.38-30.26V2.77h7.11c6.03,0,7.07.04,6.84.25-.14.14-3.34,2.55-7.11,5.37l-6.84,5.12v-5.37Z" style="fill: #fff; stroke-width: 0px;"/>
      </g>
    </g>
  </g>
</svg>