<svg xmlns="http://www.w3.org/2000/svg" viewBox="0 0 341.48 111.87"><path d="M1.86,69.65q6.07-6.16,11.66-11.9t10-11.06a58.34,58.34,0,0,0,7.05-10.34,21,21,0,0,0,2.59-9.69,9.2,9.2,0,0,0-.73-3.73,8.34,8.34,0,0,0-2.06-2.84,9.49,9.49,0,0,0-3.13-1.81,12.37,12.37,0,0,0-4.07-.63,11.84,11.84,0,0,0-4,.63A8.62,8.62,0,0,0,16.26,20a8.11,8.11,0,0,0-1.81,2.35A5.77,5.77,0,0,0,13.81,25a13.9,13.9,0,0,0,1,5.54,14.16,14.16,0,0,0,2.79,4.26L8.91,42.72a11.86,11.86,0,0,1-4.85-4.6,27.23,27.23,0,0,1-3-6.81,22.13,22.13,0,0,1-1-5.93A19.36,19.36,0,0,1,3,15.1a22.56,22.56,0,0,1,8.71-8,28.75,28.75,0,0,1,14-3.14A22.2,22.2,0,0,1,37.41,7a21.66,21.66,0,0,1,7.79,8A21.11,21.11,0,0,1,48,25.48,26.58,26.58,0,0,1,46.62,34a39.81,39.81,0,0,1-3.77,8.08,77.25,77.25,0,0,1-5.44,7.84q-3,3.87-6.26,7.88l-6.47-1.86h24.1V69.65Z" fill="#fff"/><path d="M82,4.6A28.36,28.36,0,0,1,94.18,7a17.91,17.91,0,0,1,7.8,6.9,20.64,20.64,0,0,1,2.75,10.92,25.46,25.46,0,0,1-1.17,7.63,19.21,19.21,0,0,1-3.74,6.76A18.11,18.11,0,0,1,93.09,44,25.31,25.31,0,0,1,83,45.83H73.33v24H64.58V4.6Zm.9,32.84a14.3,14.3,0,0,0,6.4-1.26,10.85,10.85,0,0,0,4-3.2,12.77,12.77,0,0,0,2.08-4.11A14,14,0,0,0,96,25a14.35,14.35,0,0,0-.63-4.1A10.62,10.62,0,0,0,93.23,17a11.21,11.21,0,0,0-3.88-2.89A13.84,13.84,0,0,0,83.44,13H73.33V37.44Z" fill="#fff"/><path d="M116.19,0h8.39V69.83h-8.39Z" fill="#fff"/><path d="M154.63,70.74a20.15,20.15,0,0,1-9.52-2.26,16.43,16.43,0,0,1-6.77-6.63,21.42,21.42,0,0,1-2.48-10.69,21.2,21.2,0,0,1,2.62-10.78,18.15,18.15,0,0,1,7-7A19.47,19.47,0,0,1,155.08,31a15.69,15.69,0,0,1,8.84,2.39,17.05,17.05,0,0,1,5.5,5.64l-.54,1.44.81-7.94h7.76V69.83h-8.39V60.09l.9,2.17a9.07,9.07,0,0,1-1.57,2.3,19,19,0,0,1-3.25,2.84,19.39,19.39,0,0,1-4.65,2.39A17.15,17.15,0,0,1,154.63,70.74Zm2.25-6.95a13.4,13.4,0,0,0,5.69-1.17,11.24,11.24,0,0,0,4.19-3.3,12.19,12.19,0,0,0,2.3-5.09V46.92a11.44,11.44,0,0,0-2.52-4.74A12.85,12.85,0,0,0,162.21,39a13.63,13.63,0,0,0-5.6-1.12A12.08,12.08,0,0,0,146,44a13.33,13.33,0,0,0-1.67,6.77,12.88,12.88,0,0,0,1.72,6.58,12.73,12.73,0,0,0,4.6,4.7A12,12,0,0,0,156.88,63.79Z" fill="#fff"/><path d="M204.34,70.11l-18-37.63h9.47l15.07,33.39Zm-9.2,17.68,24.63-55.31h7.76L203.44,87.79Z" fill="#fff"/><path d="M253,70.74a22.29,22.29,0,0,1-11-2.57,18,18,0,0,1-7.08-7,20.78,20.78,0,0,1-2.48-10.24,18.6,18.6,0,0,1,2.8-10,21.08,21.08,0,0,1,7.49-7.22A20.56,20.56,0,0,1,253.15,31a17.76,17.76,0,0,1,12.27,4.33A21.85,21.85,0,0,1,272,47.19L241.24,58l-2-5,25.26-9.2L262.72,45a12.61,12.61,0,0,0-3.61-5.19,9.67,9.67,0,0,0-6.59-2.21,11.43,11.43,0,0,0-6.13,1.67,11.72,11.72,0,0,0-4.24,4.56,13.76,13.76,0,0,0-1.54,6.59,13.78,13.78,0,0,0,1.63,6.81,12,12,0,0,0,4.46,4.6,12.55,12.55,0,0,0,6.45,1.67,12.87,12.87,0,0,0,4.74-.9,19.44,19.44,0,0,0,4.29-2.35l3.88,6.23a26.09,26.09,0,0,1-6.27,3.06A21.06,21.06,0,0,1,253,70.74Z" fill="#fff"/><path d="M290.05,32.48l.82,10.83-.45-1.45a15.63,15.63,0,0,1,4.19-5.81,22.17,22.17,0,0,1,5.78-3.7A13.46,13.46,0,0,1,305.66,31l-.45,8.3A12.7,12.7,0,0,0,297.77,41a14,14,0,0,0-5,5.06,13.08,13.08,0,0,0-1.85,6.76v17h-8.3V32.48Z" fill="#fff"/><path d="M327,70.56a22,22,0,0,1-7.72-1.4,15,15,0,0,1-6.18-4.2l3.52-4.87a17.34,17.34,0,0,0,4.83,3.38,11.66,11.66,0,0,0,4.91,1.13,11.78,11.78,0,0,0,3.34-.45,5.26,5.26,0,0,0,2.48-1.49,4.58,4.58,0,0,0-.36-6,9.88,9.88,0,0,0-3.33-1.89c-1.36-.48-2.79-.93-4.29-1.36a16,16,0,0,1-7-4.24,9.5,9.5,0,0,1-2.43-6.58A10.88,10.88,0,0,1,316.17,37a11.24,11.24,0,0,1,4.43-4.2,14.82,14.82,0,0,1,7.26-1.62,23.32,23.32,0,0,1,6.95,1,17.29,17.29,0,0,1,5.77,3.11l-3.34,5.23A10,10,0,0,0,333.36,38a14.28,14.28,0,0,0-4.06-.9,6.91,6.91,0,0,0-2.93.45,6.09,6.09,0,0,0-2.3,1.54,3.36,3.36,0,0,0-.9,2.34,4,4,0,0,0,1.26,3.07,8.91,8.91,0,0,0,3.29,1.85c1.36.45,2.69.92,4,1.4a19.33,19.33,0,0,1,5,2.17,11.18,11.18,0,0,1,3.47,3.33,8.8,8.8,0,0,1,1.31,5,12.47,12.47,0,0,1-1.58,6.18,11.18,11.18,0,0,1-4.78,4.51A17.62,17.62,0,0,1,327,70.56Z" fill="#fff"/><path d="M26.89,109.61a15.09,15.09,0,0,1-1.84.88,17.81,17.81,0,0,1-2.24.73,22.37,22.37,0,0,1-2.41.49,16.9,16.9,0,0,1-2.3.16,16.23,16.23,0,0,1-6.23-1.15,13.81,13.81,0,0,1-4.78-3.2A14.27,14.27,0,0,1,4,102.78,15.73,15.73,0,0,1,3,97a15.3,15.3,0,0,1,4.45-10.9,14.89,14.89,0,0,1,4.81-3.22,15.4,15.4,0,0,1,10.06-.56A15.8,15.8,0,0,1,26,83.86l-.59,1.25a11.48,11.48,0,0,0-2.2-1.06,14.44,14.44,0,0,0-2.46-.69,13.09,13.09,0,0,0-2.57-.25,13.56,13.56,0,0,0-9.77,4,13.49,13.49,0,0,0-2.9,4.39A13.81,13.81,0,0,0,4.43,96.9a14.43,14.43,0,0,0,1,5.33,13.1,13.1,0,0,0,2.74,4.31,12.64,12.64,0,0,0,4.29,2.91,14.55,14.55,0,0,0,5.6,1,17.59,17.59,0,0,0,3.89-.46,13.32,13.32,0,0,0,3.55-1.29V99.79h-6.9V98.45h8.33Z" fill="#fff"/><path d="M41.6,111.54,54,80.72h.12l12.34,30.82H64.85L53.6,83l1-.46L43,111.54Zm5.56-11.75H60.92l.33,1.34H46.87Z" fill="#fff"/><path d="M82,111.54V81.43h0l14.26,20.24-.63,0,14.21-20.2h0v30.11h-1.38V84.82l.12.67L96,103.34h-.08L83.21,85.49l.25-.63v26.68Z" fill="#fff"/><path d="M128,82h17.89V83.4H129.45V96h14.84v1.34H129.45v12.84h17.06v1.38H128Z" fill="#fff"/><path d="M177.2,84.74a19.15,19.15,0,0,0-3.09-1.11,14.17,14.17,0,0,0-3.81-.52,7.4,7.4,0,0,0-4.93,1.54,4.86,4.86,0,0,0-1.84,3.89,4.23,4.23,0,0,0,1,2.91,8.37,8.37,0,0,0,2.7,1.94c1.11.53,2.3,1,3.55,1.55,1,.36,2,.77,2.95,1.21a13.49,13.49,0,0,1,2.64,1.61,7.1,7.1,0,0,1,1.9,2.36,7.78,7.78,0,0,1,.71,3.47,8,8,0,0,1-1.17,4.37,7.91,7.91,0,0,1-3.22,2.89,10.39,10.39,0,0,1-4.68,1,13.58,13.58,0,0,1-4.14-.58,17.26,17.26,0,0,1-3.12-1.3c-.85-.47-1.5-.85-1.94-1.13l.67-1.21a16.18,16.18,0,0,0,2.23,1.34,18.38,18.38,0,0,0,2.91,1.15,11,11,0,0,0,3.18.48,9.26,9.26,0,0,0,3.72-.78,7,7,0,0,0,2.95-2.32,6.36,6.36,0,0,0,1.15-3.88,5.87,5.87,0,0,0-1.11-3.75,8.19,8.19,0,0,0-2.85-2.25,34.55,34.55,0,0,0-3.65-1.57c-1-.36-1.89-.75-2.83-1.15a14.86,14.86,0,0,1-2.55-1.42,6.38,6.38,0,0,1-1.82-2,5.6,5.6,0,0,1-.67-2.8,6.1,6.1,0,0,1,1.07-3.58A7.16,7.16,0,0,1,166,82.75a10,10,0,0,1,4.11-.9,17.68,17.68,0,0,1,4,.5,16.61,16.61,0,0,1,3.68,1.3Z" fill="#fff"/></svg>