<?xml version="1.0" encoding="UTF-8"?>
<svg id="Calque_2" data-name="Calque 2" xmlns="http://www.w3.org/2000/svg" viewBox="0 0 365.83 81.45">
  <g id="svg19">
    <g>
      <g>
        <path d="m113.11,33.08c0,2.51-.46,4.66-1.38,6.44-.92,1.78-2.16,3.14-3.7,4.08-1.54.94-3.29,1.44-5.23,1.5v-2.24c2.29-.13,4.19-1.03,5.7-2.72,1.51-1.69,2.27-4.09,2.27-7.21V4.3h2.34v28.77Z" style="fill: #fff; stroke-width: 0px;"/>
        <path d="m130.86,38.56c-1.94,0-3.66-.43-5.15-1.29-1.5-.86-2.67-2.03-3.51-3.51-.84-1.48-1.26-3.14-1.26-4.99s.45-3.47,1.34-4.96c.89-1.5,2.09-2.69,3.6-3.58,1.51-.89,3.19-1.34,5.03-1.34,2.23,0,4.1.65,5.61,1.96,1.51,1.3,2.6,3.01,3.27,5.11l-16.32,6.3-.67-1.62,14.94-5.82-.48.67c-.54-1.27-1.36-2.37-2.46-3.29-1.1-.92-2.44-1.38-4.03-1.38-1.43,0-2.72.35-3.87,1.05-1.15.7-2.06,1.64-2.74,2.82-.68,1.18-1.03,2.51-1.03,4.01,0,1.4.33,2.7.98,3.91.65,1.21,1.57,2.18,2.74,2.91,1.18.73,2.53,1.1,4.06,1.1,1.02,0,2-.19,2.94-.57.94-.38,1.77-.87,2.5-1.48l1.15,1.62c-.89.7-1.92,1.27-3.08,1.72-1.16.44-2.35.67-3.55.67Z" style="fill: #fff; stroke-width: 0px;"/>
        <path d="m151.86,38.71c-1.75,0-3.15-.52-4.2-1.55-1.05-1.03-1.61-2.38-1.67-4.03v-13.6h2.24v12.93c.06,1.21.45,2.21,1.17,3.01.72.8,1.79,1.23,3.22,1.29,1.21,0,2.34-.32,3.39-.95,1.05-.64,1.9-1.5,2.55-2.6.65-1.1.98-2.35.98-3.75v-9.93h2.24v18.66h-2l-.24-5.87.33,1.29c-.32.95-.88,1.82-1.69,2.6-.81.78-1.77,1.39-2.86,1.84-1.1.44-2.25.67-3.46.67Z" style="fill: #fff; stroke-width: 0px;"/>
        <path d="m184.02,38.18h-2.67l-13.98-18.66h2.82l13.84,18.66Zm-8.3-8.02l-5.73,8.02h-2.39l6.87-9.5,1.24,1.48Zm.05-2.58l5.54-8.06h2.34l-6.92,9.73-.95-1.67Z" style="fill: #fff; stroke-width: 0px;"/>
        <path d="m211.89,38.56c-1.75,0-3.34-.42-4.77-1.26-1.43-.84-2.57-2.01-3.41-3.51-.84-1.5-1.26-3.18-1.26-5.06,0-2,.43-3.74,1.29-5.2.86-1.46,2.03-2.59,3.51-3.39,1.48-.79,3.11-1.19,4.89-1.19s3.47.46,5.08,1.38c1.61.92,2.77,2.13,3.51,3.63l-.38,1.05V1.92h2.24v36.27h-2.29v-5.73l.48,1.05c-.8,1.5-1.99,2.71-3.58,3.65-1.59.94-3.36,1.41-5.3,1.41Zm.57-1.96c1.43,0,2.72-.31,3.87-.93,1.14-.62,2.07-1.46,2.77-2.53.7-1.07,1.1-2.27,1.19-3.6v-2.39c-.22-1.21-.72-2.29-1.48-3.25-.76-.95-1.69-1.71-2.77-2.27-1.08-.56-2.27-.83-3.58-.83-1.43,0-2.74.33-3.91,1-1.18.67-2.12,1.59-2.82,2.77-.7,1.18-1.05,2.55-1.05,4.1,0,1.46.35,2.79,1.05,3.98.7,1.19,1.65,2.15,2.84,2.86,1.19.72,2.49,1.07,3.89,1.07Z" style="fill: #fff; stroke-width: 0px;"/>
        <path d="m239.18,38.56c-1.94,0-3.66-.43-5.15-1.29-1.5-.86-2.67-2.03-3.51-3.51-.84-1.48-1.26-3.14-1.26-4.99s.45-3.47,1.34-4.96c.89-1.5,2.09-2.69,3.6-3.58,1.51-.89,3.19-1.34,5.03-1.34,2.23,0,4.1.65,5.61,1.96,1.51,1.3,2.6,3.01,3.27,5.11l-16.32,6.3-.67-1.62,14.94-5.82-.48.67c-.54-1.27-1.36-2.37-2.46-3.29-1.1-.92-2.44-1.38-4.03-1.38-1.43,0-2.72.35-3.87,1.05-1.15.7-2.06,1.64-2.74,2.82-.68,1.18-1.03,2.51-1.03,4.01,0,1.4.33,2.7.98,3.91.65,1.21,1.57,2.18,2.74,2.91,1.18.73,2.53,1.1,4.06,1.1,1.02,0,2-.19,2.93-.57.94-.38,1.77-.87,2.5-1.48l1.15,1.62c-.89.7-1.92,1.27-3.08,1.72-1.16.44-2.35.67-3.55.67Z" style="fill: #fff; stroke-width: 0px;"/>
      </g>
      <g>
        <path d="m125.7,52.45c-1.35-.74-2.73-1.35-4.14-1.84-1.4-.48-2.72-.73-3.94-.73-1.52,0-2.71.31-3.58.92-.87.61-1.31,1.53-1.31,2.76,0,.84.33,1.59.99,2.25s1.52,1.25,2.56,1.77c1.05.52,2.14.98,3.27,1.4,1.03.39,2.06.85,3.07,1.38s1.93,1.19,2.73,1.98c.81.79,1.45,1.77,1.94,2.95.48,1.18.73,2.62.73,4.33,0,1.81-.47,3.48-1.4,5.03s-2.31,2.8-4.11,3.75c-1.81.95-4.03,1.43-6.68,1.43-1.35,0-2.73-.14-4.14-.41-1.4-.27-2.78-.69-4.14-1.26-1.35-.56-2.66-1.28-3.92-2.15l3.1-5.47c.84.61,1.75,1.15,2.73,1.62.98.47,1.98.83,2.98,1.09,1,.26,1.92.39,2.76.39s1.69-.12,2.54-.36c.85-.24,1.56-.65,2.13-1.23.56-.58.85-1.39.85-2.42,0-.71-.23-1.35-.7-1.94-.47-.58-1.1-1.11-1.89-1.6-.79-.48-1.65-.9-2.59-1.26-1.1-.42-2.23-.9-3.39-1.45-1.16-.55-2.25-1.22-3.27-2.01s-1.84-1.77-2.47-2.95c-.63-1.18-.94-2.62-.94-4.33,0-2.06.46-3.85,1.38-5.37.92-1.52,2.22-2.72,3.89-3.6s3.61-1.38,5.81-1.48c2.87,0,5.2.34,6.99,1.02,1.79.68,3.39,1.48,4.81,2.42l-2.66,5.37Z" style="fill: #fff; stroke-width: 0px;"/>
        <path d="m132.48,43.84h24v6.77h-8.66v28.84h-7.02v-28.84h-8.32v-6.77Z" style="fill: #fff; stroke-width: 0px;"/>
        <path d="m174.04,43.84c2.23,0,4.21.28,5.95.85,1.74.56,3.2,1.37,4.38,2.42,1.18,1.05,2.07,2.31,2.69,3.77.61,1.47.92,3.12.92,4.96,0,1.45-.22,2.9-.65,4.35-.44,1.45-1.15,2.77-2.13,3.97-.98,1.19-2.28,2.15-3.9,2.88-1.61.73-3.61,1.09-6,1.09h-5.03v11.32h-7.02v-35.61h10.79Zm1.21,17.52c1.06,0,1.95-.18,2.66-.53.71-.35,1.27-.81,1.67-1.35.4-.55.69-1.12.87-1.72.18-.6.27-1.15.27-1.67,0-.39-.06-.88-.17-1.48-.11-.6-.35-1.2-.7-1.81-.36-.61-.9-1.13-1.62-1.55-.73-.42-1.7-.63-2.93-.63h-5.03v10.74h4.98Zm6.58,4.35l8.81,13.74h-8.18l-9-13.55,8.37-.19Z" style="fill: #fff; stroke-width: 0px;"/>
        <path d="m192.42,79.45l16.06-37.01h.39l16.06,37.01h-8.13l-10.26-26.03,5.08-3.48-12.29,29.51h-6.92Zm10.98-12.87h10.69l2.47,5.9h-15.34l2.18-5.9Z" style="fill: #fff; stroke-width: 0px;"/>
        <path d="m224.79,43.84h24v6.77h-8.66v28.84h-7.02v-28.84h-8.32v-6.77Z" style="fill: #fff; stroke-width: 0px;"/>
        <path d="m255.57,43.84h24.29v6.77h-17.27v7.6h15.29v6.77h-15.29v7.69h17.95v6.77h-24.97v-35.61Z" style="fill: #fff; stroke-width: 0px;"/>
        <path d="m316.68,75.87c-.42.45-1.08.91-1.98,1.38s-1.94.89-3.12,1.28c-1.18.39-2.38.7-3.61.94s-2.39.36-3.48.36c-2.9,0-5.52-.43-7.84-1.28-2.32-.85-4.31-2.05-5.95-3.58-1.65-1.53-2.9-3.35-3.77-5.44-.87-2.1-1.31-4.39-1.31-6.87,0-3.26.49-6.09,1.48-8.49.98-2.4,2.32-4.4,4.02-6s3.64-2.78,5.85-3.56c2.21-.77,4.52-1.16,6.94-1.16,2.29,0,4.39.25,6.29.75,1.9.5,3.51,1.12,4.84,1.86l-2.27,6.53c-.58-.32-1.35-.64-2.32-.97-.97-.32-1.95-.59-2.95-.8-1-.21-1.89-.31-2.66-.31-1.94,0-3.65.24-5.13.73-1.48.48-2.73,1.21-3.75,2.18-1.02.97-1.78,2.17-2.3,3.61-.52,1.44-.77,3.1-.77,5.01,0,1.68.29,3.19.87,4.52.58,1.34,1.39,2.48,2.44,3.41,1.05.94,2.29,1.65,3.73,2.13,1.43.48,3.02.73,4.77.73,1,0,1.92-.07,2.76-.22.84-.14,1.55-.38,2.13-.7v-4.31h-6.14v-6.77h13.26v15.05Z" style="fill: #fff; stroke-width: 0px;"/>
        <path d="m324.66,43.84h7.02v35.61h-7.02v-35.61Z" style="fill: #fff; stroke-width: 0px;"/>
        <path d="m340.87,43.84h24.29v6.77h-17.27v7.6h15.29v6.77h-15.29v7.69h17.95v6.77h-24.97v-35.61Z" style="fill: #fff; stroke-width: 0px;"/>
      </g>
      <g id="g1">
        <path id="path1" d="m10.37,81.09c-3.99-.98-7.29-3.71-9.06-7.5-3.7-7.91.77-17.06,9.32-19.08l1.43-.34.9-2.57c2.57-7.36,6.04-13.13,11.47-19.08,6.88-7.54,16.79-12.88,27.59-14.86,1.5-.27,2.87-.56,3.05-.62.26-.1-.37-.74-2.82-2.86-1.73-1.5-3.3-2.96-3.47-3.23-.46-.7-.42-2.22.07-2.89.92-1.24,2.31-1.69,3.55-1.14.28.13,3.27,2.62,6.63,5.55,8.18,7.12,8.01,6.6,3.88,11.38-8.68,10.06-8.78,10.16-10.04,10.16s-2.5-.96-2.81-2.14c-.36-1.33-.04-1.89,3.16-5.58,1.63-1.88,2.94-3.46,2.89-3.5-.14-.14-3.82.55-6.33,1.19-10.13,2.59-18.12,7.93-24.42,16.31-1.81,2.41-4.13,6.31-5.22,8.8-.87,1.97-2.19,5.36-2.19,5.61,0,.07.36.27.81.44,5.12,2.02,8.55,7.08,8.55,12.63,0,2.37-.4,4.08-1.46,6.21-1.69,3.43-5.03,6.12-8.79,7.08-1.86.48-4.78.48-6.68.02Zm6.61-6.07c1.64-.78,3.12-2.26,3.88-3.88.47-1.01.6-1.57.66-2.91.12-2.57-.64-4.48-2.46-6.18-3.14-2.93-7.94-2.85-10.98.19-3.17,3.17-3.11,8.24.13,11.3,1.79,1.69,3.08,2.17,5.7,2.12,1.59-.03,1.97-.11,3.07-.63h0Zm25.42,6.29c-.45-.16-1.16-.86-1.45-1.43-.32-.61-.35-1.64-.07-2.38.11-.29,1.96-2.3,4.11-4.46l3.91-3.93-3.83-3.82c-2.11-2.1-3.97-4.07-4.13-4.38-.39-.74-.25-2.18.29-2.93.55-.78,1.78-1.25,2.79-1.09.7.12,1.21.55,4.84,4.16l4.06,4.03,3.97-3.94c4.37-4.34,4.76-4.6,6.3-4.19.95.26,1.9,1.26,2.07,2.2.26,1.37-.11,1.88-4.28,6.09l-3.94,3.97,4.04,4.06c3.43,3.45,4.06,4.17,4.17,4.78.34,1.84-.94,3.4-2.78,3.4-.43,0-1.02-.12-1.3-.27-.28-.15-2.24-2-4.34-4.11l-3.82-3.84-3.83,3.8c-2.1,2.09-4.04,3.94-4.3,4.11-.46.3-1.87.4-2.49.18Zm38.43-49.02c-3.99-1.03-7.2-3.66-9.01-7.38-1.04-2.14-1.38-3.85-1.27-6.48.24-5.83,3.82-10.56,9.41-12.45,1.33-.45,1.85-.52,4.02-.54,2.83-.02,4.28.32,6.69,1.57,1.84.95,4.53,3.65,5.49,5.49,1.18,2.28,1.58,3.89,1.58,6.41,0,2.49-.24,3.68-1.15,5.67-1.48,3.25-3.97,5.7-7.16,7.04-2.61,1.1-5.93,1.35-8.61.66h0Zm5.55-5.65c5.37-1.59,7.46-8.26,3.94-12.55-3.02-3.7-8.32-4.01-11.74-.69-1.72,1.67-2.43,3.54-2.31,6.09.12,2.49,1.09,4.34,3.07,5.85,1.94,1.48,4.71,1.99,7.03,1.3ZM4.61,24.45c-.78-.23-1.73-1.32-1.89-2.16-.25-1.36.12-1.88,4.28-6.09l3.93-3.97-4.03-4.06C3.25,4.49,2.86,4.03,2.73,3.3c-.18-1.07.4-2.39,1.27-2.92.75-.46,2.05-.51,2.8-.11.28.15,2.23,2,4.34,4.11l3.82,3.83,4.02-4C21.55,1.66,23.2.16,23.54.08c.29-.07.93-.09,1.41-.04,1.64.18,2.61,1.69,2.27,3.52-.12.62-.72,1.32-4.13,4.75l-3.99,4.02,3.83,3.82c2.11,2.1,3.96,4.05,4.11,4.34.15.28.27.9.27,1.36,0,1.15-.62,2.03-1.77,2.5-1.62.67-1.95.47-6.5-4.06l-3.97-3.94-3.87,3.86c-4.45,4.43-4.91,4.72-6.58,4.24h0Z" style="fill: #fff; stroke-width: 0px;"/>
      </g>
    </g>
  </g>
</svg>