<?xml version="1.0" encoding="UTF-8" standalone="no"?>
<svg
   viewBox="0 0 386.78 84.62"
   version="1.1"
   id="svg19"
   sodipodi:docname="auto-verticalarcade - whlogo.svg"
   inkscape:version="1.3 (0e150ed6c4, 2023-07-21)"
   xmlns:inkscape="http://www.inkscape.org/namespaces/inkscape"
   xmlns:sodipodi="http://sodipodi.sourceforge.net/DTD/sodipodi-0.dtd"
   xmlns="http://www.w3.org/2000/svg"
   xmlns:svg="http://www.w3.org/2000/svg">
  <defs
     id="defs19" />
  <sodipodi:namedview
     id="namedview19"
     pagecolor="#ffffff"
     bordercolor="#000000"
     borderopacity="0.25"
     inkscape:showpageshadow="2"
     inkscape:pageopacity="0.0"
     inkscape:pagecheckerboard="0"
     inkscape:deskcolor="#d1d1d1"
     inkscape:zoom="6.6058225"
     inkscape:cx="193.39"
     inkscape:cy="42.311158"
     inkscape:window-width="3360"
     inkscape:window-height="1369"
     inkscape:window-x="1432"
     inkscape:window-y="-8"
     inkscape:window-maximized="1"
     inkscape:current-layer="svg19" />
  <path
     d="M7.3,2.92l13.62,34.2-3.15-.62L30.7,2.92h6.46L18.92,46.16.73,2.92Z"
     fill="#fff"
     id="path1" />
  <path
     d="M48.66,44.85a14.18,14.18,0,0,1-7-1.63,11.42,11.42,0,0,1-4.49-4.47,13.1,13.1,0,0,1-1.57-6.49,11.85,11.85,0,0,1,1.77-6.35,13.34,13.34,0,0,1,4.75-4.57,13,13,0,0,1,6.64-1.72,11.3,11.3,0,0,1,7.78,2.75,13.85,13.85,0,0,1,4.17,7.55l-19.5,6.86L40,33.64,56,27.8l-1.14.74a8,8,0,0,0-2.29-3.29,6.13,6.13,0,0,0-4.17-1.4A7.28,7.28,0,0,0,41.8,27.8a8.74,8.74,0,0,0-1,4.18,8.78,8.78,0,0,0,1,4.31,7.52,7.52,0,0,0,2.84,2.92,7.87,7.87,0,0,0,4.09,1.06,8.16,8.16,0,0,0,3-.57,12.19,12.19,0,0,0,2.72-1.49L57,42.16a16.35,16.35,0,0,1-4,1.94A13.37,13.37,0,0,1,48.66,44.85Z"
     fill="#fff"
     id="path2" />
  <path
     d="M72.17,20.59l.52,6.87-.29-.92a9.94,9.94,0,0,1,2.66-3.69,14,14,0,0,1,3.66-2.34,8.52,8.52,0,0,1,3.35-.83l-.29,5.26a8.11,8.11,0,0,0-4.72,1,8.92,8.92,0,0,0-3.2,3.2,8.39,8.39,0,0,0-1.17,4.29V44.27H67.42V20.59Z"
     fill="#fff"
     id="path3" />
  <path
     d="M91.22,10.18h5.32V20.71h6.52v4.17H96.54V44.27H91.22V24.88H86.87V20.71h4.35Z"
     fill="#fff"
     id="path4" />
  <path
     d="M109.07,12a2.66,2.66,0,0,1,1-2.11,3.26,3.26,0,0,1,2.2-.86,3,3,0,0,1,2.14.86,2.86,2.86,0,0,1,0,4.26,3.15,3.15,0,0,1-2.14.83,3.3,3.3,0,0,1-2.2-.86A2.67,2.67,0,0,1,109.07,12Zm.4,8.58h5.32V44.27h-5.32Z"
     fill="#fff"
     id="path5" />
  <path
     d="M143.22,42.1a12.47,12.47,0,0,1-3.84,2,13.87,13.87,0,0,1-4.46.75,14.37,14.37,0,0,1-6.81-1.55A11.25,11.25,0,0,1,123.57,39a12.66,12.66,0,0,1-1.63-6.55,12.18,12.18,0,0,1,1.74-6.57,11.94,11.94,0,0,1,4.58-4.32A12.73,12.73,0,0,1,134.35,20a15.37,15.37,0,0,1,5.12.8A12.06,12.06,0,0,1,143.33,23l-2.63,3.43A11.1,11.1,0,0,0,138.18,25a8.54,8.54,0,0,0-3.37-.63A7.18,7.18,0,0,0,131,25.43a7.47,7.47,0,0,0-2.74,2.89,8.39,8.39,0,0,0-1,4.11,8.18,8.18,0,0,0,1,4,7.41,7.41,0,0,0,2.86,2.91,8.13,8.13,0,0,0,4.17,1.06,8.14,8.14,0,0,0,5.15-1.71Z"
     fill="#fff"
     id="path6" />
  <path
     d="M159.92,44.85a12.82,12.82,0,0,1-6-1.43,10.53,10.53,0,0,1-4.29-4.21A13.54,13.54,0,0,1,148,32.43a13.42,13.42,0,0,1,1.66-6.83,11.43,11.43,0,0,1,4.43-4.43,12.32,12.32,0,0,1,6.1-1.55,9.9,9.9,0,0,1,5.6,1.52,10.87,10.87,0,0,1,3.49,3.57l-.34.92.51-5h4.92V44.27h-5.32V38.1l.57,1.37a5.48,5.48,0,0,1-1,1.46,11.56,11.56,0,0,1-2.06,1.8,12.16,12.16,0,0,1-2.94,1.52A10.91,10.91,0,0,1,159.92,44.85Zm1.43-4.41a8.55,8.55,0,0,0,3.6-.74,7.12,7.12,0,0,0,2.66-2.09,7.66,7.66,0,0,0,1.46-3.23V29.75a7.24,7.24,0,0,0-1.6-3,8,8,0,0,0-2.75-2,8.52,8.52,0,0,0-3.54-.72,7.64,7.64,0,0,0-6.72,3.9,8.37,8.37,0,0,0-1.06,4.29,8.22,8.22,0,0,0,4,7.15A7.65,7.65,0,0,0,161.35,40.44Z"
     fill="#fff"
     id="path7" />
  <path
     d="M183.6,0h5.32V44.27H183.6Z"
     fill="#fff"
     id="path8" />
  <path
     d="M226.05,44.85a12.79,12.79,0,0,1-6-1.43,10.53,10.53,0,0,1-4.29-4.21,13.54,13.54,0,0,1-1.57-6.78,13.42,13.42,0,0,1,1.66-6.83,11.36,11.36,0,0,1,4.43-4.43,12.31,12.31,0,0,1,6.09-1.55,10,10,0,0,1,5.61,1.52,11,11,0,0,1,3.49,3.57l-.35.92.52-5h4.92V44.27H235.2V38.1l.57,1.37a5.74,5.74,0,0,1-1,1.46,11.93,11.93,0,0,1-2.06,1.8,12.24,12.24,0,0,1-3,1.52A10.81,10.81,0,0,1,226.05,44.85Zm1.43-4.41a8.55,8.55,0,0,0,3.6-.74,7.2,7.2,0,0,0,2.66-2.09,7.79,7.79,0,0,0,1.46-3.23V29.75a7.36,7.36,0,0,0-1.6-3,8.06,8.06,0,0,0-2.75-2A8.56,8.56,0,0,0,227.3,24a7.64,7.64,0,0,0-6.72,3.9,8.47,8.47,0,0,0-1.06,4.29,8.26,8.26,0,0,0,1.09,4.17,8.11,8.11,0,0,0,2.92,3A7.62,7.62,0,0,0,227.48,40.44Z"
     fill="#fff"
     id="path9" />
  <path
     d="M254.47,20.59l.52,6.87-.29-.92a9.94,9.94,0,0,1,2.66-3.69A14.32,14.32,0,0,1,261,20.51a8.56,8.56,0,0,1,3.35-.83l-.29,5.26a8.06,8.06,0,0,0-4.71,1,8.87,8.87,0,0,0-3.21,3.2A8.39,8.39,0,0,0,255,33.46V44.27h-5.26V20.59Z"
     fill="#fff"
     id="path10" />
  <path
     d="M289.43,42.1a12.47,12.47,0,0,1-3.84,2,13.87,13.87,0,0,1-4.46.75,14.37,14.37,0,0,1-6.81-1.55A11.25,11.25,0,0,1,269.78,39a12.66,12.66,0,0,1-1.63-6.55,12.18,12.18,0,0,1,1.74-6.57,11.94,11.94,0,0,1,4.58-4.32A12.7,12.7,0,0,1,280.56,20a15.37,15.37,0,0,1,5.12.8A12.06,12.06,0,0,1,289.54,23l-2.63,3.43A11.1,11.1,0,0,0,284.39,25a8.58,8.58,0,0,0-3.37-.63,7.18,7.18,0,0,0-3.81,1.06,7.47,7.47,0,0,0-2.74,2.89,8.39,8.39,0,0,0-1,4.11,8.18,8.18,0,0,0,1,4,7.34,7.34,0,0,0,2.86,2.91,8.13,8.13,0,0,0,4.17,1.06,8.14,8.14,0,0,0,5.15-1.71Z"
     fill="#fff"
     id="path11" />
  <path
     d="M306.13,44.85a12.82,12.82,0,0,1-6-1.43,10.53,10.53,0,0,1-4.29-4.21,13.54,13.54,0,0,1-1.57-6.78,13.42,13.42,0,0,1,1.66-6.83,11.36,11.36,0,0,1,4.43-4.43,12.31,12.31,0,0,1,6.09-1.55A9.94,9.94,0,0,1,312,21.14a11,11,0,0,1,3.49,3.57l-.34.92.51-5h4.92V44.27h-5.32V38.1l.57,1.37a5.48,5.48,0,0,1-1,1.46,11.56,11.56,0,0,1-2.06,1.8,12.35,12.35,0,0,1-2.94,1.52A10.91,10.91,0,0,1,306.13,44.85Zm1.43-4.41a8.55,8.55,0,0,0,3.6-.74,7.12,7.12,0,0,0,2.66-2.09,7.66,7.66,0,0,0,1.46-3.23V29.75a7.24,7.24,0,0,0-1.6-3,8,8,0,0,0-2.75-2,8.55,8.55,0,0,0-3.54-.72,7.67,7.67,0,0,0-3.89,1,7.57,7.57,0,0,0-2.83,2.87,8.37,8.37,0,0,0-1.06,4.29,8.22,8.22,0,0,0,4,7.15A7.65,7.65,0,0,0,307.56,40.44Z"
     fill="#fff"
     id="path12" />
  <path
     d="M339.42,44.85a11.4,11.4,0,0,1-5.92-1.58,11.1,11.1,0,0,1-4.2-4.46,13.88,13.88,0,0,1-1.55-6.66,13.18,13.18,0,0,1,1.63-6.75,11.07,11.07,0,0,1,4.43-4.29,13.26,13.26,0,0,1,6.3-1.49,12.41,12.41,0,0,1,5.35,1.2,9.64,9.64,0,0,1,4,3.32L349.2,26V0h5.27V44.27h-5.32V38.38l.57,1.49a13.13,13.13,0,0,1-4.29,3.58A12.66,12.66,0,0,1,339.42,44.85Zm1.66-4.52a8.88,8.88,0,0,0,3.77-.77,7.42,7.42,0,0,0,2.75-2.15,8.43,8.43,0,0,0,1.55-3.26V29.69a7.09,7.09,0,0,0-1.63-3,8.89,8.89,0,0,0-2.81-2.06,8.29,8.29,0,0,0-3.63-.78,7.8,7.8,0,0,0-4,1.06,8.47,8.47,0,0,0-2.88,11.33,8.28,8.28,0,0,0,2.91,3A7.41,7.41,0,0,0,341.08,40.33Z"
     fill="#fff"
     id="path13" />
  <path
     d="M374.71,44.85a14.21,14.21,0,0,1-7-1.63,11.42,11.42,0,0,1-4.49-4.47,13.1,13.1,0,0,1-1.57-6.49,11.85,11.85,0,0,1,1.77-6.35,13.43,13.43,0,0,1,4.75-4.57,13,13,0,0,1,6.64-1.72,11.3,11.3,0,0,1,7.78,2.75,13.79,13.79,0,0,1,4.17,7.55l-19.5,6.86L366,33.64l16-5.84-1.15.74a8,8,0,0,0-2.29-3.29,6.11,6.11,0,0,0-4.17-1.4,7.3,7.3,0,0,0-3.89,1.06,7.42,7.42,0,0,0-2.69,2.89,8.74,8.74,0,0,0-1,4.18,8.67,8.67,0,0,0,1,4.31,7.5,7.5,0,0,0,2.83,2.92,7.87,7.87,0,0,0,4.09,1.06,8.16,8.16,0,0,0,3-.57,12.19,12.19,0,0,0,2.72-1.49L383,42.16a16.18,16.18,0,0,1-4,1.94A13.37,13.37,0,0,1,374.71,44.85Z"
     fill="#fff"
     id="path14" />
  <path
     d="M23.92,82.36a14.41,14.41,0,0,1-1.84.88,19.6,19.6,0,0,1-2.24.73,20,20,0,0,1-2.4.48,17.2,17.2,0,0,1-2.3.17,16.16,16.16,0,0,1-6.23-1.15,13.9,13.9,0,0,1-4.79-3.2,14.23,14.23,0,0,1-3-4.75A15.7,15.7,0,0,1,0,69.69,15.3,15.3,0,0,1,4.45,58.8a14.94,14.94,0,0,1,10.64-4.37,14.71,14.71,0,0,1,4.23.59A16,16,0,0,1,23,56.6l-.59,1.26a11.71,11.71,0,0,0-2.19-1.07,17,17,0,0,0-2.47-.69,13.9,13.9,0,0,0-2.57-.25,13.7,13.7,0,0,0-5.4,1.07,13.48,13.48,0,0,0-7.27,7.34,13.81,13.81,0,0,0-1,5.39,14.27,14.27,0,0,0,1,5.33,13.17,13.17,0,0,0,2.73,4.31,12.47,12.47,0,0,0,4.29,2.9,14.37,14.37,0,0,0,5.6,1,17.52,17.52,0,0,0,3.89-.46,13.4,13.4,0,0,0,3.56-1.3V72.54H15.6V71.2h8.32Z"
     fill="#fff"
     id="path15" />
  <path
     d="M38.63,84.28,51,53.47h.13L63.47,84.28H61.88L50.63,55.77l1-.46-11.54,29ZM44.2,72.54H58l.34,1.33H43.9Z"
     fill="#fff"
     id="path16" />
  <path
     d="M79.07,84.28V54.18h0L93.37,74.42l-.63,0L107,54.18h0v30.1h-1.38V57.57l.12.67L93,76.09H93L80.24,58.24l.25-.63V84.28Z"
     fill="#fff"
     id="path17" />
  <path
     d="M125.06,54.76H143v1.38H126.48V68.73h14.85v1.34H126.48V82.9h17.06v1.38H125.06Z"
     fill="#fff"
     id="path18" />
  <path
     d="M174.23,57.48a19.15,19.15,0,0,0-3.09-1.11,14.52,14.52,0,0,0-3.81-.52,7.43,7.43,0,0,0-4.93,1.55,4.86,4.86,0,0,0-1.84,3.89,4.19,4.19,0,0,0,1,2.9,8.46,8.46,0,0,0,2.7,2c1.12.53,2.3,1,3.55,1.54,1,.37,2,.77,2.95,1.22a13,13,0,0,1,2.64,1.61,6.79,6.79,0,0,1,1.9,2.36,7.75,7.75,0,0,1,.71,3.47,8,8,0,0,1-1.17,4.37,7.82,7.82,0,0,1-3.22,2.88,10.26,10.26,0,0,1-4.68,1,13.57,13.57,0,0,1-4.14-.59,17.29,17.29,0,0,1-3.12-1.29c-.85-.48-1.5-.85-1.94-1.13l.67-1.21a16.83,16.83,0,0,0,2.23,1.33,17.47,17.47,0,0,0,2.91,1.15,11,11,0,0,0,3.18.48,9.25,9.25,0,0,0,3.72-.77,7.09,7.09,0,0,0,2.95-2.32,6.39,6.39,0,0,0,1.15-3.89,5.84,5.84,0,0,0-1.11-3.74,8.27,8.27,0,0,0-2.84-2.26c-1.16-.57-2.38-1.09-3.66-1.57-1-.36-1.89-.74-2.83-1.15a13.63,13.63,0,0,1-2.55-1.42,6.1,6.1,0,0,1-1.81-2,5.54,5.54,0,0,1-.67-2.81,6.09,6.09,0,0,1,1.06-3.57,7.08,7.08,0,0,1,2.89-2.38,9.7,9.7,0,0,1,4.12-.9,17.11,17.11,0,0,1,4,.5,16,16,0,0,1,3.68,1.3Z"
     fill="#fff"
     id="path19" />
</svg>
