<svg xmlns="http://www.w3.org/2000/svg" viewBox="0 0 379.39 111.48">
  <g id="Calque_2" data-name="Calque 2">
    <g id="_4players-fr" data-name="4players-fr">
      <path d="M0,86.48v-.16L69.55,0h.16V68.4h13V86.48h-13v23.84h-24V86.48Zm46.86-34L34.2,69.38l-2.3-1H45.71V51.3Z" fill="#fff"/>
      <g>
        <path d="M94.82,111.48l-5.11-5.29a15.67,15.67,0,0,0,4.08-5.53,18.73,18.73,0,0,0,1.49-7.75V54.55H104V93.28a25.14,25.14,0,0,1-2.18,11A16.38,16.38,0,0,1,94.82,111.48Zm-.28-70.86a4.37,4.37,0,0,1,1.62-3.44,5.39,5.39,0,0,1,3.58-1.39,5,5,0,0,1,3.48,1.39,4.48,4.48,0,0,1,1.53,3.44,4.43,4.43,0,0,1-1.53,3.48,5.11,5.11,0,0,1-3.48,1.35,5.4,5.4,0,0,1-3.58-1.4A4.35,4.35,0,0,1,94.54,40.62Z" fill="#fff"/>
        <path d="M115.06,73.4A20.15,20.15,0,0,1,117.8,63a19.92,19.92,0,0,1,7.57-7.34,23.86,23.86,0,0,1,22,0A19,19,0,0,1,154.72,63a21,21,0,0,1,2.6,10.4,21.2,21.2,0,0,1-2.6,10.45,18.8,18.8,0,0,1-7.38,7.39,22.3,22.3,0,0,1-11.1,2.69,22.79,22.79,0,0,1-10.91-2.55,19.08,19.08,0,0,1-7.53-7.16A20.79,20.79,0,0,1,115.06,73.4Zm8.64.1a13.71,13.71,0,0,0,1.67,6.73A12.88,12.88,0,0,0,129.88,85a11.55,11.55,0,0,0,6.27,1.77A11.92,11.92,0,0,0,142.6,85,12.1,12.1,0,0,0,147,80.23a15.14,15.14,0,0,0,0-13.47,12.51,12.51,0,0,0-4.41-4.83,11.7,11.7,0,0,0-6.45-1.81A11.35,11.35,0,0,0,129.78,62a13.19,13.19,0,0,0-4.45,4.87A13.76,13.76,0,0,0,123.7,73.5Z" fill="#fff"/>
        <path d="M181.19,94.49a12,12,0,0,1-8.59-3.21A11.54,11.54,0,0,1,169,83V54.55h8.64V79.9A8.59,8.59,0,0,0,179.47,85c1.09,1.3,2.8,2,5.16,2a9.46,9.46,0,0,0,5.8-1.91,13.7,13.7,0,0,0,4.13-5.2,17,17,0,0,0,1.59-7.48V54.55h8.63V93h-7.89l-.74-9.47.46,1.67A13.39,13.39,0,0,1,193.22,90a17.08,17.08,0,0,1-5.34,3.3A18.21,18.21,0,0,1,181.19,94.49Z" fill="#fff"/>
        <path d="M237.57,93.93a22.79,22.79,0,0,1-11.33-2.65,18.49,18.49,0,0,1-7.3-7.24,21.38,21.38,0,0,1-2.55-10.54,19.15,19.15,0,0,1,2.88-10.31A21.54,21.54,0,0,1,227,55.76,21.14,21.14,0,0,1,237.75,53a18.31,18.31,0,0,1,12.63,4.46,22.42,22.42,0,0,1,6.78,12.26L225.49,80.83l-2-5.11,26-9.47-1.86,1.21a12.93,12.93,0,0,0-3.72-5.34,9.9,9.9,0,0,0-6.78-2.28,11.83,11.83,0,0,0-6.31,1.72,12,12,0,0,0-4.37,4.69A15.44,15.44,0,0,0,226.51,80a12.26,12.26,0,0,0,4.6,4.74,12.84,12.84,0,0,0,6.64,1.72,13.26,13.26,0,0,0,4.88-.93A19.65,19.65,0,0,0,247,83.16l4,6.4a26.51,26.51,0,0,1-6.45,3.16A21.73,21.73,0,0,1,237.57,93.93Z" fill="#fff"/>
        <path d="M280.2,94.49a12,12,0,0,1-8.6-3.21A11.49,11.49,0,0,1,268,83V54.55h8.64V79.9A8.46,8.46,0,0,0,278.48,85c1.08,1.3,2.8,2,5.15,2a9.49,9.49,0,0,0,5.81-1.91,13.7,13.7,0,0,0,4.13-5.2,17.15,17.15,0,0,0,1.58-7.48V54.55h8.64V93h-7.9l-.74-9.47.46,1.67A13.27,13.27,0,0,1,292.22,90a16.86,16.86,0,0,1-5.34,3.3A18.16,18.16,0,0,1,280.2,94.49Z" fill="#fff"/>
        <path d="M326.45,54.55l.83,11.14-.46-1.48a16.09,16.09,0,0,1,4.32-6,23.17,23.17,0,0,1,5.94-3.81,14,14,0,0,1,5.44-1.35l-.47,8.55a13,13,0,0,0-7.66,1.67,14.4,14.4,0,0,0-5.2,5.2,13.57,13.57,0,0,0-1.91,7V93h-8.54V54.55Z" fill="#fff"/>
        <path d="M364.44,93.74a22.54,22.54,0,0,1-7.95-1.44A15.4,15.4,0,0,1,350.13,88l3.62-5a17.86,17.86,0,0,0,5,3.48,12.16,12.16,0,0,0,8.5.7,5.5,5.5,0,0,0,2.56-1.53,4.73,4.73,0,0,0-.38-6.18,10.28,10.28,0,0,0-3.43-2c-1.4-.5-2.87-1-4.41-1.39a16.6,16.6,0,0,1-7.25-4.37A9.79,9.79,0,0,1,351.8,65a11.12,11.12,0,0,1,1.54-5.71,11.45,11.45,0,0,1,4.55-4.32,15.28,15.28,0,0,1,7.47-1.67,24.27,24.27,0,0,1,7.16,1,18,18,0,0,1,5.94,3.21L375,62.81a10.2,10.2,0,0,0-4-2.6,14.83,14.83,0,0,0-4.18-.92,7,7,0,0,0-3,.46,6.14,6.14,0,0,0-2.37,1.58,3.45,3.45,0,0,0-.93,2.41,4.13,4.13,0,0,0,1.3,3.16,9.23,9.23,0,0,0,3.39,1.91c1.4.46,2.77.94,4.14,1.44a20,20,0,0,1,5.11,2.22A11.64,11.64,0,0,1,378,75.91,9.08,9.08,0,0,1,379.39,81a12.81,12.81,0,0,1-1.63,6.36A11.47,11.47,0,0,1,372.84,92,18.06,18.06,0,0,1,364.44,93.74Z" fill="#fff"/>
      </g>
      <g>
        <path d="M175,31.56A12.15,12.15,0,0,1,173.83,37a8.21,8.21,0,0,1-3.06,3.43,8.74,8.74,0,0,1-4.3,1.26V40.38a7.07,7.07,0,0,0,5.08-2.47,9.47,9.47,0,0,0,2-6.48V6.22H175Z" fill="#fff"/>
        <path d="M193,6.22h17.89V7.6H194.44V20.18h14.84v1.34H194.44V34.36H211.5v1.38H193Z" fill="#fff"/>
        <path d="M229.27,25.91a9.7,9.7,0,0,0,1.08,4.73,7.56,7.56,0,0,0,3,3,8.88,8.88,0,0,0,4.32,1,9.1,9.1,0,0,0,4.39-1,7.63,7.63,0,0,0,3-3,9.48,9.48,0,0,0,1.11-4.73V6.22h1.38V26a10.65,10.65,0,0,1-1.31,5.45,8.84,8.84,0,0,1-3.56,3.41,10.7,10.7,0,0,1-5,1.17,10.59,10.59,0,0,1-5-1.17,8.78,8.78,0,0,1-3.51-3.41A10.75,10.75,0,0,1,227.85,26V6.22h1.42Z" fill="#fff"/>
        <path d="M262.63,35.74l9.87-15.43.84,1.13-9,14.3Zm.42-29.52h1.76L284,35.74h-1.76Zm10.08,13.63,8.61-13.63h1.68L274,20.94Z" fill="#fff"/>
      </g>
    </g>
  </g>
</svg>
