<svg xmlns="http://www.w3.org/2000/svg" viewBox="0 0 385.57 93.08"><path d="M0,92.32l20.15-48h.38l20.09,48H33.54L18.49,54l4.4-2.87L6.06,92.32ZM11.8,74.85H29l2,5.35H10Z" fill="#fff"/><path d="M68.61,89.89a14.05,14.05,0,0,1-4.27,2.24,16.58,16.58,0,0,1-12.56-.9,12.51,12.51,0,0,1-5.07-4.81,14.17,14.17,0,0,1-1.82-7.3,13.62,13.62,0,0,1,1.94-7.33A13.35,13.35,0,0,1,51.94,67a14.21,14.21,0,0,1,6.79-1.69,17.13,17.13,0,0,1,5.7.89,13.55,13.55,0,0,1,4.31,2.43L65.8,72.42A12.71,12.71,0,0,0,63,70.83a9.55,9.55,0,0,0-3.76-.7A8,8,0,0,0,55,71.31a8.32,8.32,0,0,0-3.06,3.22,9.34,9.34,0,0,0-1.12,4.59A9.07,9.07,0,0,0,52,83.61a8.27,8.27,0,0,0,3.19,3.26A9.18,9.18,0,0,0,59.81,88a9.39,9.39,0,0,0,3.16-.5,9.22,9.22,0,0,0,2.58-1.41Z" fill="#fff"/><path d="M76.26,92.32V43h5.8V72L81.94,71a10.93,10.93,0,0,1,4.11-4.34,12.12,12.12,0,0,1,6.53-1.72,8.74,8.74,0,0,1,6.16,2.2,7.61,7.61,0,0,1,2.45,5.71V92.32h-6V74.91A5.52,5.52,0,0,0,94,71.37,4.6,4.6,0,0,0,90.29,70a7.06,7.06,0,0,0-4.15,1.31,8.84,8.84,0,0,0-2.9,3.54,11.8,11.8,0,0,0-1,5.1V92.32Z" fill="#fff"/><path d="M111.08,56.35A3,3,0,0,1,112.19,54a3.67,3.67,0,0,1,2.46-1A3.45,3.45,0,0,1,117,54a3.21,3.21,0,0,1,0,4.75,3.55,3.55,0,0,1-2.39.92,3.67,3.67,0,0,1-2.46-1A3,3,0,0,1,111.08,56.35Zm.44,9.57h5.93v26.4h-5.93Z" fill="#fff"/><path d="M140,93a15.73,15.73,0,0,1-7.78-1.82,12.54,12.54,0,0,1-5-5,14.61,14.61,0,0,1-1.76-7.23,13.15,13.15,0,0,1,2-7.08,14.78,14.78,0,0,1,5.29-5.1,14.5,14.5,0,0,1,7.4-1.92,12.59,12.59,0,0,1,8.67,3.07,15.35,15.35,0,0,1,4.65,8.41L131.67,84l-1.4-3.5L148.12,74l-1.27.83a8.83,8.83,0,0,0-2.55-3.66,6.84,6.84,0,0,0-4.66-1.57,8.13,8.13,0,0,0-4.33,1.18,8.24,8.24,0,0,0-3,3.22,10.57,10.57,0,0,0,.06,9.47,8.44,8.44,0,0,0,3.16,3.25,8.81,8.81,0,0,0,4.56,1.18,9.22,9.22,0,0,0,3.35-.63,13.64,13.64,0,0,0,3-1.66l2.75,4.4a18.7,18.7,0,0,1-4.44,2.17A15,15,0,0,1,140,93Z" fill="#fff"/><path d="M170.69,93.08,156,65.92h7l10,21-3.64-.13,9.12-20.85h6.63L171,93.08Z" fill="#fff"/><path d="M203.08,93a15.69,15.69,0,0,1-7.77-1.82,12.63,12.63,0,0,1-5-5,14.6,14.6,0,0,1-1.75-7.23,13.23,13.23,0,0,1,2-7.08,14.81,14.81,0,0,1,5.3-5.1,14.47,14.47,0,0,1,7.39-1.92,12.56,12.56,0,0,1,8.67,3.07,15.42,15.42,0,0,1,4.66,8.41L194.8,84l-1.41-3.5L211.25,74l-1.28.83a8.83,8.83,0,0,0-2.55-3.66,6.82,6.82,0,0,0-4.65-1.57,8.16,8.16,0,0,0-4.34,1.18,8.38,8.38,0,0,0-3,3.22,9.83,9.83,0,0,0-1.08,4.66,9.7,9.7,0,0,0,1.15,4.81,8.34,8.34,0,0,0,3.15,3.25,8.81,8.81,0,0,0,4.56,1.18,9.18,9.18,0,0,0,3.35-.63,13.94,13.94,0,0,0,3-1.66l2.74,4.4a18.63,18.63,0,0,1-4.43,2.17A15.08,15.08,0,0,1,203.08,93Z" fill="#fff"/><path d="M229.29,65.92l.51,5.93-.25-.51a11.2,11.2,0,0,1,10.39-6.44,10.31,10.31,0,0,1,3.95.7,7.27,7.27,0,0,1,2.84,2,6.57,6.57,0,0,1,1.44,3.22l-.32.19a11.32,11.32,0,0,1,4.24-4.49,10.83,10.83,0,0,1,5.7-1.63A8.45,8.45,0,0,1,264,67.1a7.81,7.81,0,0,1,2.32,5.71V92.32h-5.93V74.91a6.35,6.35,0,0,0-1-3.41,3.88,3.88,0,0,0-3.22-1.5A6.6,6.6,0,0,0,252,71.4,9.56,9.56,0,0,0,249.19,75a11.65,11.65,0,0,0-1.09,4.75V92.32h-5.93V74.91a6,6,0,0,0-1-3.41,4.06,4.06,0,0,0-3.28-1.5,6.54,6.54,0,0,0-4.15,1.4A9.38,9.38,0,0,0,230.92,75a11.66,11.66,0,0,0-1,4.78v12.5H224V65.92Z" fill="#fff"/><path d="M288.85,93a15.73,15.73,0,0,1-7.78-1.82,12.63,12.63,0,0,1-5-5,14.6,14.6,0,0,1-1.75-7.23,13.15,13.15,0,0,1,2-7.08,14.7,14.7,0,0,1,5.29-5.1A14.47,14.47,0,0,1,289,64.83a12.6,12.6,0,0,1,8.68,3.07,15.47,15.47,0,0,1,4.65,8.41L280.56,84l-1.4-3.5L297,74l-1.28.83a8.83,8.83,0,0,0-2.55-3.66,6.82,6.82,0,0,0-4.65-1.57,8.16,8.16,0,0,0-4.34,1.18,8.29,8.29,0,0,0-3,3.22,10.57,10.57,0,0,0,.06,9.47,8.37,8.37,0,0,0,3.16,3.25A8.74,8.74,0,0,0,289,87.85a9.18,9.18,0,0,0,3.35-.63,13.49,13.49,0,0,0,3-1.66l2.74,4.4a18.63,18.63,0,0,1-4.43,2.17A15.07,15.07,0,0,1,288.85,93Z" fill="#fff"/><path d="M315.05,65.92l.51,6.44-.25-1a10.15,10.15,0,0,1,4.14-4.69,12.48,12.48,0,0,1,6.63-1.75,8.74,8.74,0,0,1,6.16,2.2,7.61,7.61,0,0,1,2.45,5.71V92.32h-6V74.91a5.52,5.52,0,0,0-1.24-3.54A4.6,4.6,0,0,0,323.79,70a7.17,7.17,0,0,0-4.15,1.28,8.58,8.58,0,0,0-2.9,3.5A12,12,0,0,0,315.69,80V92.32h-5.93V65.92Z" fill="#fff"/><path d="M347.57,54.31h5.93V66.05h7.27V70.7H353.5V92.32h-5.93V70.7h-4.84V66.05h4.84Z" fill="#fff"/><path d="M375.31,92.83a15.41,15.41,0,0,1-5.45-1,10.57,10.57,0,0,1-4.37-3L368,85.43a12.25,12.25,0,0,0,3.41,2.39,8.27,8.27,0,0,0,5.83.48,3.68,3.68,0,0,0,1.75-1,2.86,2.86,0,0,0,.67-2,2.82,2.82,0,0,0-.92-2.23,7.05,7.05,0,0,0-2.36-1.34q-1.44-.51-3-1a11.37,11.37,0,0,1-5-3,6.72,6.72,0,0,1-1.72-4.66,7.7,7.7,0,0,1,1.05-3.92,8,8,0,0,1,3.12-3A10.56,10.56,0,0,1,376,65a16.56,16.56,0,0,1,4.91.67,12.32,12.32,0,0,1,4.08,2.2l-2.36,3.69a7.07,7.07,0,0,0-2.74-1.78,10.15,10.15,0,0,0-2.87-.64,5,5,0,0,0-2.08.32,4.27,4.27,0,0,0-1.62,1.08,2.37,2.37,0,0,0-.64,1.66,2.84,2.84,0,0,0,.89,2.17,6.37,6.37,0,0,0,2.33,1.31c1,.32,1.9.65,2.84,1a14,14,0,0,1,3.51,1.53,8,8,0,0,1,2.45,2.35,6.24,6.24,0,0,1,.92,3.51,8.87,8.87,0,0,1-1.11,4.37,8,8,0,0,1-3.38,3.19A12.52,12.52,0,0,1,375.31,92.83Z" fill="#fff"/><path d="M10,.33a11,11,0,0,1,3,.46A9.86,9.86,0,0,1,16,2.22,7.45,7.45,0,0,1,18.12,4.7,7.7,7.7,0,0,1,19,8.45a9.85,9.85,0,0,1-.51,3.15,7.41,7.41,0,0,1-1.61,2.74A7.72,7.72,0,0,1,14,16.27,11.6,11.6,0,0,1,9.67,17H5V29.85H3.61V.33ZM9.55,15.64A10.2,10.2,0,0,0,13.44,15a6.24,6.24,0,0,0,2.42-1.69A6.34,6.34,0,0,0,17.12,11a8.79,8.79,0,0,0,.37-2.49A6.72,6.72,0,0,0,17,5.81a6.39,6.39,0,0,0-1.53-2.17A6.84,6.84,0,0,0,13.1,2.22a8.14,8.14,0,0,0-2.92-.51H5V15.64Zm4,.46,8.32,13.75H20.25L11.93,16.1Z" fill="#fff"/><path d="M38.11.33H56V1.71H39.53V14.3H54.37v1.34H39.53V28.47H56.59v1.38H38.11Z" fill="#fff"/><path d="M70.59.33H89.83V1.71h-9V29.85H79.46V1.71H70.59Z" fill="#fff"/><path d="M111.86.33a10.93,10.93,0,0,1,3,.46,9.62,9.62,0,0,1,2.91,1.43A7.34,7.34,0,0,1,120,4.7a7.7,7.7,0,0,1,.84,3.75,10.13,10.13,0,0,1-.5,3.15,7.54,7.54,0,0,1-1.61,2.74,7.76,7.76,0,0,1-2.87,1.93,11.55,11.55,0,0,1-4.3.71h-4.64V29.85h-1.42V.33Zm-.46,15.31a10.16,10.16,0,0,0,3.89-.65,6.35,6.35,0,0,0,2.43-1.69A6.47,6.47,0,0,0,119,11a8.81,8.81,0,0,0,.38-2.49,6.64,6.64,0,0,0-2.07-4.85A6.94,6.94,0,0,0,115,2.22,8.2,8.2,0,0,0,112,1.71h-5.14V15.64Zm4.06.46,8.32,13.75h-1.67L113.79,16.1Z" fill="#fff"/><path d="M137.08,15.14a14.71,14.71,0,0,1,1.17-5.84,15.35,15.35,0,0,1,8.05-8.11,14.93,14.93,0,0,1,11.68,0,15.74,15.74,0,0,1,4.81,3.28,15.48,15.48,0,0,1,3.28,4.83,14.4,14.4,0,0,1,1.2,5.84,14.38,14.38,0,0,1-1.2,5.83,15.17,15.17,0,0,1-3.28,4.81A15.45,15.45,0,0,1,158,29a14.62,14.62,0,0,1-5.85,1.17,15.35,15.35,0,0,1-5.83-1.11,14.53,14.53,0,0,1-8.05-7.92A15.28,15.28,0,0,1,137.08,15.14Zm1.46,0a13.45,13.45,0,0,0,1.05,5.31,13.76,13.76,0,0,0,2.9,4.35,13.44,13.44,0,0,0,9.56,4,13.68,13.68,0,0,0,5.37-1,13.22,13.22,0,0,0,4.35-2.92,14.25,14.25,0,0,0,2.94-4.37,13.1,13.1,0,0,0,1.09-5.33,13.35,13.35,0,0,0-1.06-5.33,14,14,0,0,0-7.32-7.34,13.46,13.46,0,0,0-10.66,0,13.53,13.53,0,0,0-4.33,3,14.11,14.11,0,0,0-2.87,4.41A13.72,13.72,0,0,0,138.54,15.18Z" fill="#fff"/></svg>