<svg width="1888" height="544" viewBox="0 0 1888 544" fill="none" xmlns="http://www.w3.org/2000/svg">
<g clip-path="url(#clip0_229_98)">
<path d="M461.362 461.366C566.906 355.822 566.906 184.703 461.363 79.1593C355.82 -26.3839 184.7 -26.3836 79.1562 79.16C-26.3875 184.704 -26.3878 355.823 79.1555 461.367C184.699 566.91 355.818 566.91 461.362 461.366Z" fill="black"/>
<path d="M365.737 91.9141L322.5 154.951L353.137 221.625L407.174 290.101L448.612 304.5L500.887 241.426L493.687 187.388L439.613 111.712L365.737 91.9141ZM405.375 246.826C411.487 250.726 417.975 250.651 424.275 250.576C434.813 250.463 444.936 247.163 452.211 238.725C458.1 230.176 458.251 224.849 461.699 215.176C463.724 209.513 466.199 206.288 466.199 206.288C466.199 206.288 468.224 213.938 468 222.975C467.85 229.014 466.763 235.388 463.05 241.427C455.85 253.164 449.063 257.663 444.114 258.564C439.163 259.463 425.214 261.263 416.212 257.214C409.163 254.026 405.375 246.826 405.375 246.826ZM405.375 156.751L412.611 145.95H421.613C421.613 145.95 429.262 157.2 429.262 159.002C429.262 160.802 423.411 169.388 423.411 169.388L411.673 168.939L405.375 156.751ZM374.775 187.389C370.012 186.338 365.737 181.989 365.737 181.989L367.538 176.589L372.976 172.989C372.976 172.989 378.375 173.437 380.175 174.789C381.976 176.139 383.775 181.989 383.775 181.989L379.725 185.589C379.725 185.589 378.825 188.288 374.775 187.389Z" fill="#F7B210"/>
<path d="M54.075 288.264L59.4749 144.15L77.4759 122.513L147.75 174.789L165.752 68.0259L169.352 99.1129L178.389 82.8749L180.189 97.3129L192.79 81.0749L194.89 270.564L93.7119 192.788C93.7119 192.788 54.075 287.363 54.075 288.264Z" fill="#F7B210"/>
<path d="M210.788 72.0759L332.738 37.8389C332.738 37.8389 308.1 52.2749 309.901 52.2749C311.7 52.2749 326.1 54.0749 326.1 54.0749L297.299 72.0759L329.699 70.2759L243.224 120.712V124.314L336.937 118.912L243.224 185.588V205.387L313.801 196.688C313.801 196.688 290.513 209.925 291.899 209.026C293.252 208.088 309 208.388 309 208.388L299.101 214.425H316.201L212.627 288.263L210.788 72.0759Z" fill="#F7B210"/>
<path d="M201.788 344.139L172.014 278.963C172.014 278.963 155.514 264.075 126.226 265.126C119.775 265.351 66.488 265.763 63.075 347.738C60.037 421.051 108.9 455.701 108.9 455.701C108.9 455.701 132.563 473.176 150.075 483.789C167.587 494.437 199.988 509.889 199.988 509.889L174.787 349.537L120.712 365.738L131.55 367.539L113.512 381.977L129.711 383.776L118.912 394.577L147.749 396.377L158.549 437.814C158.549 437.814 136.574 430.915 118.086 412.541C102.938 397.466 90.75 372.901 90.075 353.14C89.438 333.379 98.699 308.44 126.112 308.103C153.564 307.764 201.788 344.139 201.788 344.139Z" fill="#1082CE"/>
<path d="M187.388 389.176L290.063 248.627L354.937 300.902C354.937 300.902 346.837 298.837 345.938 299.102C345.038 299.327 360.337 320.702 360.337 320.702L340.537 313.501L351.337 327.9L284.662 304.502L279.263 309.901L322.5 381.977L234.225 378.377L282.864 472.051L264.863 468.45L273.339 489.639L258.113 476.4L270.262 499.088L187.388 389.176Z" fill="#1082CE"/>
<path d="M315.299 407.176L313.5 472.051L342.338 495.489L393.111 484.801L477.449 410.815L482.849 318.901H385.574L315.299 407.176ZM396.376 372.975L389.174 362.139L396.376 347.739L414.412 345.938L419.813 356.739L414.412 371.177L396.376 372.975ZM434.212 381.977C434.212 381.977 440.775 379.051 441.412 380.176C442.049 381.263 450.412 381.977 450.412 381.977V390.977L443.212 396.376L434.212 390.977V381.977ZM340.538 430.613L345.938 421.613L362.137 414.414L374.775 430.613H385.575L399.975 425.213L410.775 448.613L383.775 461.25H371.138L365.737 450.451H347.738L340.538 430.613Z" fill="#1082CE"/>
<path d="M1465.07 69V139.281H1459.56C1453.06 119.988 1443.22 105.42 1430.03 95.58C1417.04 85.537 1409.16 80.419 1393.61 80.419C1378.85 80.419 1366.44 84.75 1356.6 93.018C1346.56 101.486 1339.67 113.098 1335.53 128.06C1331.4 143.022 1329.43 158.377 1329.43 174.126C1329.43 193.222 1331.6 209.955 1336.13 224.329C1340.65 238.894 1347.94 246.569 1357.98 253.268C1368.02 259.959 1376.09 263.305 1389.87 263.305C1394.79 263.305 1399.71 262.911 1404.63 261.93C1409.76 260.746 1413.69 259.368 1419 257.399V206.608C1419 198.733 1418.41 193.615 1417.43 191.253C1416.25 189.087 1414.08 186.922 1410.74 185.15C1407.39 183.181 1403.26 182.197 1398.34 182.197H1393.22V176.882H1490.07V182.197C1482.79 182.788 1477.67 183.775 1474.72 185.347C1471.76 186.728 1469.6 189.284 1468.02 192.828C1467.24 194.797 1466.84 199.325 1466.65 206.609L1466.25 255.825C1453.65 261.337 1442.04 266.062 1428.26 269.015C1414.48 271.771 1400.1 274.131 1385.34 274.131C1366.44 274.131 1354.43 272.756 1342.03 267.637C1329.43 262.519 1318.6 257.794 1308.96 249.523C1299.51 241.061 1292.03 231.614 1286.52 221.177C1279.82 207.593 1276.28 192.632 1276.28 175.699C1276.28 145.778 1286.91 120.58 1307.97 99.912C1328.84 79.238 1355.42 69.002 1387.31 69.002C1401.88 69.002 1414.87 72.742 1428.45 77.861C1438.1 81.601 1443.81 83.373 1445.58 83.373C1448.34 83.373 1450.7 82.389 1453.06 80.42C1455.42 78.451 1457.59 74.711 1459.56 69.002H1465.07V69Z" fill="#231F20"/>
<path d="M1107.57 81.7951C1088.86 81.9921 1074.89 90.8541 1065.24 108.571C1057.17 122.942 1053.23 144.004 1053.23 171.171C1053.23 203.654 1058.94 228.065 1071.15 243.42C1079.81 254.248 1092.21 259.366 1107.57 259.366V274.525H1107.37C1069.57 274.525 1040.24 262.519 1019.57 238.502C1003.23 219.6 994.959 197.158 994.959 171.172C994.959 142.036 1005.59 117.625 1026.85 98.3351C1048.11 78.8431 1074.3 69.5901 1105.4 70.7741H1107.57V81.7951ZM1107.96 81.7951H1107.57V70.7731C1140.05 69.9861 1166.82 79.2351 1187.3 98.1371C1208.16 117.624 1218.6 141.841 1218.6 170.974C1218.6 195.976 1210.73 217.828 1195.17 236.924C1174.5 261.929 1145.36 274.525 1107.57 274.525V259.366C1118 259.366 1127.06 256.61 1133.95 251.888C1142.81 245.982 1148.51 236.333 1153.44 223.143C1158.36 210.15 1161.7 193.416 1161.7 172.352C1161.7 147.153 1159.15 128.451 1154.03 116.049C1149.1 103.45 1142.61 94.7881 1134.93 89.4751C1127.06 84.3571 1118 81.7951 1107.96 81.7951Z" fill="#231F20"/>
<path d="M890.227 85.1438V163.693H894.558C908.142 163.693 913.457 159.756 919.56 151.684C925.663 143.809 929.6 132.192 931.175 116.642H937.278V220.98H931.175C929.994 209.562 927.238 200.306 923.3 193.025C919.166 185.741 914.441 180.819 909.126 178.457C903.811 175.895 900.464 174.717 890.227 174.717V233.186C890.227 244.21 890.818 250.904 891.802 253.266C892.786 255.825 894.558 257.794 897.314 259.369C900.07 260.944 904.401 261.731 910.701 261.731H923.497C943.38 261.731 949.089 257.4 961.098 248.738C973.107 240.273 981.375 230.43 986.69 212.712H992.596L983.343 272.753H808.331V267.244H815.615C821.718 267.244 826.836 266.26 830.577 264.291C833.333 262.913 835.499 260.551 836.877 257.204C838.058 254.842 838.649 248.739 838.649 238.699V107.583C838.649 98.7268 838.452 93.2118 837.862 91.0488C836.878 87.7018 834.909 84.9458 831.956 83.1718C828.019 80.4158 822.507 79.0408 815.616 79.0408H808.332V73.5288H987.872V132.389H981.966C978.816 118.018 974.682 107.781 968.973 101.487C963.461 95.1848 955.783 90.6568 945.546 87.7038C939.64 85.9318 928.616 85.1448 912.276 85.1448H890.227V85.1438Z" fill="#231F20"/>
<path d="M657.533 73.5288L767.974 197.16V111.521C767.974 99.5148 766.202 91.4438 762.265 87.3068C756.95 81.6008 750.65 78.8418 738.051 79.0408V73.5288H804.788V79.0408C795.339 80.0248 793.764 81.5998 790.614 83.1718C787.267 84.9468 784.708 87.7028 782.936 91.6398C781.164 95.3798 780.18 102.071 780.18 111.521V277.281H774.668L623.082 111.521V238.105C623.082 249.523 626.035 257.204 631.941 261.335C637.847 265.275 644.54 267.244 652.218 267.244H657.533V272.753H578V267.244C590.402 267.244 598.868 264.882 603.789 260.551C608.514 256.22 611.073 248.739 611.073 238.106V97.5428L606.151 92.2298C601.426 86.9118 597.292 83.5678 593.749 81.7928C590.009 80.2178 593.355 79.2358 586.662 79.0398V73.5278L657.533 73.5288Z" fill="#231F20"/>
<path d="M1776.71 81.7951C1758 81.9921 1744.03 90.8541 1734.38 108.571C1726.31 122.942 1722.37 144.004 1722.37 171.171C1722.37 203.654 1728.08 228.065 1740.29 243.42C1748.95 254.248 1761.35 259.366 1776.71 259.366V274.525H1776.51C1738.71 274.525 1709.38 262.519 1688.71 238.502C1672.37 219.6 1664.1 197.158 1664.1 171.172C1664.1 142.036 1674.73 117.625 1695.99 98.3351C1717.25 78.8431 1743.44 69.5901 1774.54 70.7741H1776.71L1776.71 81.7951ZM1777.1 81.7951H1776.71V70.7731C1809.19 69.9861 1835.96 79.2351 1856.44 98.1371C1877.5 117.624 1887.93 141.841 1887.93 170.974C1887.93 195.976 1880.06 217.828 1864.51 236.924C1843.64 261.929 1814.5 274.525 1776.71 274.525V259.366C1787.14 259.366 1796.2 256.61 1803.09 251.888C1811.95 245.982 1817.66 236.333 1822.58 223.143C1827.5 210.15 1830.85 193.416 1830.85 172.352C1830.85 147.153 1828.28 128.451 1823.17 116.049C1818.24 103.45 1811.75 94.7881 1804.07 89.4751C1796.2 84.3571 1787.14 81.7951 1777.1 81.7951Z" fill="#231F20"/>
<path d="M1559.37 85.1438V163.693H1563.7C1577.29 163.693 1582.6 159.756 1588.7 151.684C1594.8 143.809 1598.74 132.192 1600.32 116.642H1606.42V220.98H1600.32C1599.13 209.562 1596.38 200.306 1592.44 193.025C1588.31 185.741 1583.58 180.819 1578.27 178.457C1572.95 175.895 1569.6 174.717 1559.37 174.717V233.186C1559.37 244.21 1559.96 250.904 1560.95 253.266C1561.93 255.825 1563.7 257.794 1566.46 259.369C1569.21 260.944 1573.54 261.731 1579.84 261.731H1592.64C1612.52 261.731 1618.23 257.4 1630.24 248.738C1642.25 240.273 1650.52 230.43 1655.83 212.712H1661.74L1652.49 272.753H1477.47V267.244H1484.76C1490.86 267.244 1495.98 266.26 1499.72 264.291C1502.47 262.913 1504.64 260.551 1506.02 257.204C1507.2 254.842 1507.79 248.739 1507.79 238.699V107.583C1507.79 98.7268 1507.59 93.2118 1507 91.0488C1506.02 87.7018 1504.05 84.9458 1501.1 83.1718C1497.16 80.4158 1491.65 79.0408 1484.76 79.0408H1477.47V73.5288H1657.01V132.389H1651.11C1647.96 118.018 1643.82 107.781 1638.12 101.487C1632.6 95.1848 1624.93 90.6568 1614.69 87.7038C1608.78 85.9318 1597.76 85.1448 1581.42 85.1448H1559.37V85.1438Z" fill="#231F20"/>
<path d="M1246.16 152.472H1247.34C1258.56 152.472 1267.62 161.328 1267.62 171.962C1267.62 182.593 1258.56 191.255 1247.34 191.255H1246.16C1234.94 191.255 1225.88 182.593 1225.88 171.962C1225.88 161.328 1234.94 152.472 1246.16 152.472Z" fill="#231F20"/>
<path d="M1165.06 406.3C1165.06 428.139 1165.06 449.978 1165.06 471.817C1165.06 474.792 1164.16 475.387 1161.39 475.337C1149.81 475.188 1138.21 475.337 1126.68 475.337C1122.82 475.337 1122.82 475.337 1122.82 471.594C1122.82 448.673 1122.82 425.751 1122.82 402.83C1122.73 401.663 1122.52 400.508 1122.2 399.384C1121.37 400.135 1120.63 400.965 1119.97 401.863C1109.21 420.727 1098.55 439.666 1087.74 458.53C1085.62 462.207 1083.22 465.713 1080.55 469.016C1078.98 471.005 1076.96 472.592 1074.65 473.648C1072.35 474.703 1069.82 475.197 1067.29 475.089C1059.56 475.089 1051.82 475.089 1044.11 475.089C1036.82 475.089 1032.63 471.52 1031.42 464.381C1031 461.75 1030.8 459.088 1030.82 456.423C1030.82 438.551 1030.82 420.653 1030.82 402.755C1030.86 402.07 1030.86 401.383 1030.82 400.698C1030.71 400.368 1030.54 400.059 1030.33 399.781C1030.09 399.945 1029.88 400.136 1029.68 400.351C1029.19 401.07 1028.72 401.838 1028.27 402.607C1014.21 426.09 1000.19 449.54 986.205 472.957C985.891 473.727 985.345 474.379 984.643 474.824C983.941 475.268 983.118 475.482 982.288 475.436C967.935 475.436 953.583 475.436 939.23 475.436C937.049 475.436 936.33 475.238 937.693 472.957C964.762 427.396 991.799 381.858 1018.8 336.346C1020.48 333.634 1022.49 331.136 1024.78 328.909C1026.13 327.587 1027.74 326.558 1029.51 325.888C1031.28 325.219 1033.17 324.922 1035.06 325.017C1043.37 325.141 1051.7 325.017 1060 325.017C1068.31 325.017 1072.84 329.38 1072.97 337.784C1072.97 347.08 1072.97 356.351 1072.97 365.646V395.641C1072.88 396.465 1072.88 397.296 1072.97 398.12C1073.17 398.849 1073.46 399.555 1073.81 400.227C1074.46 399.878 1075.07 399.453 1075.62 398.963C1076.19 398.18 1076.7 397.351 1077.13 396.484C1087.79 377.545 1098.37 358.557 1109.13 339.692C1111.13 336.245 1113.45 332.992 1116.05 329.975C1117.42 328.328 1119.16 327.023 1121.13 326.163C1123.1 325.302 1125.23 324.91 1127.38 325.017C1135.61 325.166 1143.81 325.017 1152.17 325.017C1159.6 325.017 1163.32 328.166 1164.56 335.454C1164.94 338.105 1165.11 340.782 1165.06 343.46C1165.06 364.399 1165.06 385.345 1165.06 406.3Z" fill="#231F20"/>
<path d="M1436.72 475.14C1413.76 475.14 1390.76 475.784 1367.81 474.941C1346.39 474.148 1330.35 464.059 1321.92 443.608C1320.56 440.336 1319.05 437.113 1317.71 433.692C1316.37 430.272 1317.71 427.644 1321.47 427.594C1332.94 427.446 1344.43 427.446 1355.93 427.594C1356.67 427.706 1357.37 427.988 1357.97 428.418C1358.58 428.849 1359.08 429.416 1359.43 430.073C1359.97 431.572 1360.94 432.879 1362.22 433.831C1363.49 434.783 1365.02 435.338 1366.62 435.428C1367.99 435.617 1369.37 435.708 1370.75 435.7H1469.09C1474.22 435.7 1475.09 434.61 1473.08 429.9C1471.5 426.206 1469.46 422.661 1467.61 419.092C1467 417.9 1466.05 416.92 1464.88 416.286C1463.7 415.652 1462.36 415.394 1461.04 415.547C1425.55 415.547 1390.1 415.547 1354.67 415.547C1350.22 415.612 1345.78 415.113 1341.45 414.06C1334.51 412.099 1328.36 407.981 1323.91 402.3C1319.45 396.619 1316.91 389.669 1316.67 382.454C1316.47 373.877 1316.47 365.283 1316.67 356.673C1317.12 348.276 1320.71 340.356 1326.74 334.49C1332.77 328.624 1340.78 325.243 1349.19 325.018C1378.79 325.018 1408.4 325.018 1438.03 325.018C1442.92 324.917 1447.74 326.132 1452 328.535C1456.26 330.938 1459.79 334.441 1462.23 338.677C1467.03 346.361 1471.37 354.368 1475.86 362.276C1477.4 365.002 1476.83 366.068 1473.6 366.093C1461.33 366.093 1449.04 366.093 1436.77 366.093C1435.58 366.215 1434.38 365.963 1433.34 365.372C1432.3 364.781 1431.47 363.881 1430.97 362.796C1429.83 360.317 1427.52 360.466 1425.32 360.466H1374.23C1371.45 360.466 1368.67 360.466 1365.9 360.466C1365.1 360.393 1364.3 360.496 1363.55 360.768C1362.8 361.041 1362.12 361.476 1361.56 362.042C1361 362.608 1360.57 363.292 1360.3 364.044C1360.04 364.796 1359.94 365.597 1360.02 366.391C1360.02 368.87 1360.02 371.125 1360.02 373.505C1359.95 374.11 1360 374.723 1360.18 375.306C1360.35 375.889 1360.65 376.43 1361.04 376.895C1361.43 377.36 1361.92 377.739 1362.46 378.009C1363.01 378.279 1363.6 378.433 1364.21 378.463C1365.78 378.669 1367.36 378.752 1368.95 378.711C1400.95 378.711 1432.93 378.983 1464.93 378.711C1471.79 378.445 1478.59 380.031 1484.63 383.302C1490.67 386.574 1495.71 391.41 1499.24 397.302C1508.43 411.234 1517.06 425.537 1525.51 439.939C1534.34 454.813 1523.28 474.991 1505.95 475.239C1482.88 475.61 1459.8 475.239 1436.72 475.239V475.14Z" fill="#231F20"/>
<path d="M1190.24 325.017H1205.39C1211.76 325.017 1212.65 325.612 1214.81 331.735C1220.05 346.41 1225.27 361.101 1230.47 375.81C1234.19 386.32 1237.91 396.831 1241.7 407.316C1242.23 408.431 1242.87 409.486 1243.61 410.464C1244.52 409.524 1245.3 408.465 1245.92 407.316C1255.49 382.197 1265.01 357.11 1274.48 332.057C1276.95 325.488 1277.57 325.067 1284.64 325.067H1315.55C1320.88 325.067 1321.87 326.48 1319.91 331.561C1311.07 354.813 1302.19 378.049 1293.27 401.268C1285.42 421.809 1277.57 442.368 1269.72 462.942C1268.94 465.071 1267.99 467.134 1266.89 469.115C1265.91 470.95 1264.46 472.484 1262.68 473.554C1260.89 474.624 1258.85 475.189 1256.78 475.188C1248.17 475.188 1239.55 475.312 1230.95 475.188C1224.65 475.188 1221.03 471.321 1218.82 465.868C1215.92 458.431 1213.25 450.994 1210.5 443.384C1197.01 406.696 1183.52 370.001 1170.01 333.297C1167.39 325.81 1167.91 325.017 1175.96 325.017H1190.24Z" fill="#231F20"/>
</g>
<defs>
<clipPath id="clip0_229_98">
<rect width="1888" height="544" fill="white"/>
</clipPath>
</defs>
</svg>
