<?xml version="1.0" encoding="UTF-8"?>
<svg id="Calque_2" data-name="Calque 2" xmlns="http://www.w3.org/2000/svg" viewBox="0 0 334.93 81.57">
  <g id="svg19">
    <g>
      <g>
        <path d="m124.87,6.2c-.99-.48-2.2-.92-3.63-1.34-1.43-.41-2.86-.62-4.29-.62-2.23,0-4.01.56-5.34,1.67-1.34,1.11-2,2.51-2,4.2,0,1.27.38,2.33,1.15,3.17.76.84,1.77,1.56,3.01,2.15,1.24.59,2.56,1.15,3.96,1.69,1.11.41,2.22.88,3.32,1.38,1.1.51,2.09,1.13,2.98,1.86.89.73,1.6,1.64,2.12,2.72.52,1.08.79,2.42.79,4.01,0,1.88-.45,3.54-1.34,4.99-.89,1.45-2.13,2.57-3.72,3.36-1.59.8-3.44,1.19-5.54,1.19-1.69,0-3.22-.21-4.6-.62s-2.59-.9-3.63-1.46c-1.03-.56-1.85-1.03-2.46-1.41l1.1-1.91c.7.51,1.55,1.02,2.55,1.53,1,.51,2.09.94,3.27,1.29,1.18.35,2.35.52,3.53.52,1.37,0,2.7-.27,3.98-.81,1.29-.54,2.35-1.36,3.2-2.46.84-1.1,1.26-2.49,1.26-4.18s-.4-2.93-1.19-3.94c-.8-1-1.81-1.82-3.05-2.46-1.24-.64-2.56-1.21-3.96-1.72-1.08-.41-2.16-.85-3.25-1.31-1.08-.46-2.07-1.02-2.96-1.67-.89-.65-1.6-1.44-2.12-2.36-.52-.92-.79-2.04-.79-3.34,0-1.62.41-3.04,1.24-4.25.83-1.21,1.95-2.16,3.36-2.84,1.42-.68,3.03-1.04,4.84-1.07,1.59,0,3.2.21,4.84.62,1.64.41,3.06.94,4.27,1.57l-.91,1.81Z" style="fill: #fff; stroke-width: 0px;"/>
        <path d="m144.81,36.65c-1.78,0-3.45-.47-5.01-1.41-1.56-.94-2.7-2.15-3.44-3.65l.38-.81v14.46h-2.24v-27.77h2l.24,6.11-.43-1.38c.83-1.5,2.04-2.73,3.63-3.7,1.59-.97,3.32-1.46,5.2-1.46s3.39.43,4.82,1.29,2.57,2.03,3.41,3.51c.84,1.48,1.26,3.17,1.26,5.08s-.44,3.56-1.31,5.03c-.88,1.48-2.05,2.63-3.53,3.46-1.48.83-3.14,1.24-4.99,1.24Zm-.38-1.86c1.46,0,2.79-.35,3.98-1.05,1.19-.7,2.15-1.65,2.86-2.84.72-1.19,1.07-2.52,1.07-3.98s-.35-2.84-1.05-4.03c-.7-1.19-1.63-2.14-2.79-2.84-1.16-.7-2.47-1.05-3.94-1.05s-2.67.32-3.82.95c-1.15.64-2.07,1.5-2.77,2.58-.7,1.08-1.11,2.31-1.24,3.67v1.53c.1,1.3.5,2.5,1.22,3.58.72,1.08,1.64,1.93,2.77,2.55,1.13.62,2.36.93,3.7.93Z" style="fill: #fff; stroke-width: 0px;"/>
        <path d="m159.51,26.82c0-1.81.44-3.47,1.31-4.96.87-1.5,2.07-2.68,3.58-3.56,1.51-.87,3.21-1.31,5.08-1.31s3.61.44,5.11,1.31c1.5.88,2.67,2.06,3.53,3.56.86,1.5,1.29,3.15,1.29,4.96s-.43,3.47-1.29,4.96c-.86,1.5-2.04,2.68-3.55,3.55-1.51.88-3.21,1.31-5.08,1.31s-3.61-.42-5.11-1.26c-1.5-.84-2.68-2-3.56-3.48-.88-1.48-1.31-3.17-1.31-5.08Zm2.24.05c0,1.46.34,2.79,1.03,3.98.68,1.19,1.61,2.14,2.77,2.84,1.16.7,2.46,1.05,3.89,1.05s2.73-.35,3.89-1.05c1.16-.7,2.08-1.65,2.77-2.84.68-1.19,1.03-2.52,1.03-3.98s-.34-2.79-1.03-3.98c-.68-1.19-1.61-2.15-2.77-2.86s-2.46-1.07-3.89-1.07-2.78.37-3.94,1.12c-1.16.75-2.08,1.73-2.74,2.93-.67,1.21-1,2.5-1,3.87Z" style="fill: #fff; stroke-width: 0px;"/>
        <path d="m188.05,17.61l.24,5.73-.29-.72c.41-1.15,1.07-2.13,1.96-2.96.89-.83,1.88-1.46,2.98-1.91,1.1-.44,2.15-.67,3.17-.67l-.09,2.2c-1.43,0-2.73.32-3.89.95-1.16.64-2.08,1.49-2.77,2.55-.68,1.07-1.03,2.27-1.03,3.6v9.88h-2.24v-18.66h1.96Z" style="fill: #fff; stroke-width: 0px;"/>
        <path d="m204.27,9.4h2.29v8.45h5.77v1.81h-5.77v16.61h-2.29v-16.61h-3.96v-1.81h3.96v-8.45Z" style="fill: #fff; stroke-width: 0px;"/>
        <path d="m222.31,36.65c-1.08,0-2.21-.2-3.39-.6-1.18-.4-2.13-1.04-2.86-1.93l1.05-1.48c.64.67,1.39,1.2,2.27,1.6.88.4,1.81.6,2.79.6.73,0,1.42-.1,2.08-.31.65-.21,1.19-.56,1.6-1.07.41-.51.62-1.19.62-2.05s-.25-1.57-.74-2.05c-.49-.48-1.11-.87-1.86-1.17-.75-.3-1.54-.58-2.36-.83-1.37-.45-2.49-1.05-3.36-1.81-.88-.76-1.31-1.84-1.31-3.24,0-1.02.25-1.91.74-2.67.49-.76,1.17-1.36,2.03-1.79s1.83-.64,2.91-.64c.99,0,1.96.16,2.93.48.97.32,1.85.86,2.65,1.62l-1,1.57c-.51-.7-1.19-1.18-2.03-1.43-.84-.25-1.58-.4-2.22-.43-.54,0-1.11.11-1.69.33-.59.22-1.08.55-1.48.98-.4.43-.6.99-.6,1.69s.21,1.33.62,1.79c.41.46.95.83,1.6,1.12.65.29,1.33.56,2.03.81.92.29,1.79.63,2.6,1.03.81.4,1.48.92,2,1.57.53.65.79,1.52.79,2.6s-.24,2.06-.72,2.94c-.48.88-1.19,1.56-2.12,2.05-.94.49-2.12.74-3.56.74Z" style="fill: #fff; stroke-width: 0px;"/>
        <path d="m257.76,36.65c-1.75,0-3.34-.42-4.77-1.26-1.43-.84-2.57-2.01-3.41-3.51-.84-1.5-1.26-3.18-1.26-5.06,0-2,.43-3.74,1.29-5.2.86-1.46,2.03-2.59,3.51-3.39,1.48-.79,3.11-1.19,4.89-1.19s3.47.46,5.08,1.38c1.61.92,2.77,2.13,3.51,3.63l-.38,1.05V0h2.24v36.27h-2.29v-5.73l.48,1.05c-.8,1.5-1.99,2.71-3.58,3.65-1.59.94-3.36,1.41-5.3,1.41Zm.57-1.96c1.43,0,2.72-.31,3.87-.93,1.14-.62,2.07-1.46,2.77-2.53.7-1.07,1.1-2.27,1.19-3.6v-2.39c-.22-1.21-.72-2.29-1.48-3.25-.76-.95-1.69-1.71-2.77-2.27-1.08-.56-2.27-.83-3.58-.83-1.43,0-2.74.33-3.91,1-1.18.67-2.12,1.59-2.82,2.77-.7,1.18-1.05,2.55-1.05,4.1,0,1.46.35,2.79,1.05,3.98.7,1.19,1.65,2.15,2.84,2.86,1.19.72,2.49,1.07,3.89,1.07Z" style="fill: #fff; stroke-width: 0px;"/>
        <path d="m285.06,36.65c-1.94,0-3.66-.43-5.15-1.29-1.5-.86-2.67-2.03-3.51-3.51-.84-1.48-1.26-3.14-1.26-4.99s.45-3.47,1.34-4.96c.89-1.5,2.09-2.69,3.6-3.58,1.51-.89,3.19-1.34,5.03-1.34,2.23,0,4.1.65,5.61,1.96,1.51,1.3,2.6,3.01,3.27,5.11l-16.32,6.3-.67-1.62,14.94-5.82-.48.67c-.54-1.27-1.36-2.37-2.46-3.29-1.1-.92-2.44-1.38-4.03-1.38-1.43,0-2.72.35-3.87,1.05-1.15.7-2.06,1.64-2.74,2.82-.68,1.18-1.03,2.51-1.03,4.01,0,1.4.33,2.7.98,3.91.65,1.21,1.57,2.18,2.74,2.91,1.18.73,2.53,1.1,4.06,1.1,1.02,0,2-.19,2.93-.57.94-.38,1.77-.87,2.5-1.48l1.15,1.62c-.89.7-1.92,1.27-3.08,1.72-1.16.44-2.35.67-3.55.67Z" style="fill: #fff; stroke-width: 0px;"/>
      </g>
      <g>
        <path d="m134.42,77.77c-.44.37-1.25.86-2.45,1.48-1.19.62-2.65,1.17-4.37,1.65-1.72.48-3.63.7-5.71.66-3.19-.07-6.04-.65-8.54-1.73-2.51-1.08-4.63-2.56-6.37-4.42-1.74-1.87-3.07-4.01-3.98-6.43-.92-2.42-1.37-5-1.37-7.75,0-3.08.47-5.9,1.4-8.46.93-2.56,2.27-4.78,4.01-6.65,1.74-1.87,3.82-3.32,6.24-4.34,2.42-1.03,5.09-1.54,8.02-1.54,2.71,0,5.11.37,7.2,1.1,2.09.73,3.79,1.52,5.11,2.36l-3.13,7.53c-.92-.7-2.13-1.42-3.65-2.17-1.52-.75-3.27-1.13-5.25-1.13-1.54,0-3.01.32-4.42.96-1.41.64-2.66,1.55-3.74,2.72-1.08,1.17-1.93,2.54-2.56,4.09-.62,1.56-.93,3.25-.93,5.08,0,1.94.28,3.72.85,5.33.57,1.61,1.38,2.99,2.45,4.15,1.06,1.15,2.33,2.04,3.82,2.67,1.48.62,3.16.93,5.03.93,2.16,0,4.01-.35,5.55-1.04,1.54-.7,2.71-1.43,3.52-2.2l3.3,7.14Z" style="fill: #fff; stroke-width: 0px;"/>
        <path d="m139.92,60.96c0-2.78.53-5.42,1.59-7.91,1.06-2.49,2.54-4.7,4.42-6.62,1.89-1.92,4.07-3.43,6.57-4.53,2.49-1.1,5.17-1.65,8.02-1.65s5.48.55,7.97,1.65c2.49,1.1,4.7,2.61,6.62,4.53,1.92,1.92,3.42,4.13,4.51,6.62,1.08,2.49,1.62,5.13,1.62,7.91s-.54,5.53-1.62,8.02c-1.08,2.49-2.58,4.68-4.51,6.57-1.92,1.89-4.13,3.36-6.62,4.42-2.49,1.06-5.15,1.59-7.97,1.59s-5.53-.53-8.02-1.59c-2.49-1.06-4.68-2.54-6.57-4.42-1.89-1.89-3.36-4.08-4.42-6.57-1.06-2.49-1.59-5.17-1.59-8.02Zm8.24,0c0,1.8.32,3.47.96,5.03.64,1.56,1.54,2.93,2.69,4.12,1.15,1.19,2.49,2.12,4.01,2.78,1.52.66,3.18.99,4.97.99s3.32-.33,4.81-.99c1.48-.66,2.77-1.58,3.87-2.78,1.1-1.19,1.96-2.56,2.58-4.12.62-1.56.93-3.23.93-5.03s-.32-3.53-.96-5.11c-.64-1.57-1.52-2.96-2.64-4.15-1.12-1.19-2.43-2.12-3.93-2.78-1.5-.66-3.13-.99-4.89-.99s-3.39.33-4.89.99c-1.5.66-2.82,1.58-3.96,2.78-1.14,1.19-2.02,2.57-2.64,4.15-.62,1.58-.93,3.28-.93,5.11Z" style="fill: #fff; stroke-width: 0px;"/>
        <path d="m189.21,81.12v-42.09h.05l22.47,31.87-3.41-.77,22.42-31.1h.11v42.09h-7.97v-24.12l.49,4.12-13.68,19.45h-.11l-14.07-19.45,1.37-3.79v23.79h-7.69Z" style="fill: #fff; stroke-width: 0px;"/>
        <path d="m253.17,40.68c4.21,0,7.56.85,10.06,2.55,2.49,1.7,3.74,4.24,3.74,7.61,0,2.49-.61,4.57-1.84,6.24-1.23,1.67-2.89,2.91-5,3.74-2.11.82-4.52,1.24-7.23,1.24l-1.26-4.29c3.33,0,6.29.46,8.88,1.37,2.58.92,4.62,2.23,6.13,3.93,1.5,1.7,2.25,3.75,2.25,6.13,0,2.2-.39,4.06-1.18,5.58-.79,1.52-1.85,2.75-3.19,3.68-1.34.93-2.85,1.61-4.53,2.03-1.69.42-3.43.63-5.22.63h-13.46v-40.44h11.87Zm.93,16.54c1.58,0,2.74-.48,3.49-1.43.75-.95,1.13-2.03,1.13-3.24,0-1.39-.47-2.44-1.4-3.13-.93-.7-2.19-1.04-3.76-1.04h-4.29v8.85h4.83Zm.28,16.49c1.17,0,2.23-.16,3.19-.47.95-.31,1.7-.8,2.25-1.48.55-.68.82-1.53.82-2.55,0-1.17-.33-2.06-.99-2.67-.66-.6-1.51-1.03-2.55-1.26-1.04-.24-2.13-.36-3.27-.36h-4.56v8.79h5.11Z" style="fill: #fff; stroke-width: 0px;"/>
        <path d="m270.92,81.12l18.24-42.04h.44l18.24,42.04h-9.23l-11.65-29.56,5.77-3.96-13.96,33.52h-7.86Zm12.47-14.62h12.14l2.8,6.7h-17.42l2.47-6.7Z" style="fill: #fff; stroke-width: 0px;"/>
        <path d="m307.68,40.68h27.26v7.69h-9.84v32.75h-7.97v-32.75h-9.45v-7.69Z" style="fill: #fff; stroke-width: 0px;"/>
      </g>
      <g id="g1">
        <path id="path1" d="m39.48,81.07c-1.09-.7-1.75-1.44-2.11-2.37-.37-.97-1.63-24.26-1.38-25.55.36-1.86.32-1.86,4.73-.05,2.24.92,4.15,1.75,4.24,1.85.19.19,1.25,17.94,1.26,21.14.01,3.6-1.28,5.24-4.28,5.43-1.21.08-1.81-.03-2.46-.45h0Zm3.73-28.2c-3-1.22-5.93-2.43-6.51-2.67l-1.05-.45,1.09-3.78c.6-2.08,1.14-3.82,1.19-3.86s.94-.49,1.97-.99c1.03-.5,2.73-1.55,3.79-2.33l1.92-1.41.9-2.82c.92-2.86,3.15-11.9,3.15-12.78,0-.27.23-.55.51-.63,4.35-1.28,8.77-2.49,8.83-2.42.59.72,6.76,9.8,6.76,9.94,0,.11-1.89,1.42-4.19,2.9-4.99,3.22-6.81,4.82-8.7,7.65-1.99,2.98-2.45,4.46-3.2,10.33-.36,2.84-.73,5.25-.83,5.35-.09.1-2.63-.82-5.63-2.04ZM.96,51.31c-1.39-1.39-1.3-2.22.5-4.89.81-1.2,1.57-2.18,1.68-2.18.37,0,3.58,2.19,4.14,2.83.54.61.53.63-.29,1.82-1.67,2.43-2.8,3.39-3.98,3.39-.84,0-1.29-.21-2.06-.98Zm8.26-3.74c-.92-1.28-3.25-3.2-4.88-4.03-.7-.35-.91-.62-.77-.96.22-.57,9.88-17.05,10.19-17.38.12-.13,1.28-.03,2.57.21,10.21,1.94,22.27.67,30.76-3.24.71-.33,1.33-.47,1.39-.32.11.33-2,9.01-2.98,12.26-.62,2.04-.88,2.49-1.93,3.34-1.67,1.35-3.9,2.69-5.37,3.2-1.19.42-1.25.41-2.1-.3-.48-.4-1.92-1.26-3.19-1.9-2.62-1.32-12.59-5.74-12.68-5.63-.03.04-.71,1.05-1.5,2.23s-2.18,2.98-3.09,3.99c-1.18,1.31-2.2,2.96-3.6,5.79l-1.95,3.95-.88-1.22Zm56.2-21.64c-1.35-1.58-4.86-7.05-4.65-7.24.14-.13,6.88-3.3,14.99-7.05,13.86-6.41,14.82-6.81,16.05-6.67,2.26.25,3.82,1.88,4.04,4.2.11,1.2,0,1.67-.61,2.73-.61,1.04-1.12,1.46-2.69,2.21-3.2,1.52-26.55,12.33-26.62,12.33-.04,0-.27-.23-.5-.5Zm-42.17-.82c-2.49-.17-6.36-.69-7.55-1l-1.09-.29.63-1.06c.35-.58.71-1.15.8-1.26.09-.11.88-.06,1.74.1,1.59.29,3.74-.05,3.74-.6,0-.13.36-.33.79-.44,1.14-.28,2.95-1.48,3.96-2.64l.87-1,1.51,2.08c1.5,2.07,3.41,5.6,3.17,5.84-.19.19-6.75.39-8.58.26Zm9.31-1.71c-.46-1.2-2.47-4.46-4.08-6.6-.64-.86-.65-.91-.22-2.57.24-.93.44-2.17.44-2.75v-1.06l3.95-.74c4.54-.86,15.24-2.62,17.64-2.92l1.63-.2.63,2.11c.76,2.54,2,7.52,1.91,7.61-.04.04-2.2-.05-4.8-.2-2.62-.15-6.72-.17-9.18-.04-4.24.22-4.39.24-3.16.58,2.75.76,9.66,3,10.34,3.36.71.37.7.38-.96,1.12-2.93,1.3-5.43,2.11-8.85,2.87-4.61,1.03-4.68,1.03-5.29-.56h0Zm-14.96-2.72c-2.7-.53-5.17-2.46-6.42-5.03-.89-1.81-1.01-5.75-.22-7.2.45-.83.63-.9,2.34-1.04,2.4-.19,4.67-1.24,6.58-3.05l1.51-1.42,1.36.52c2.35.89,4.97,3.58,4.29,4.4-.18.21-1.56.81-3.07,1.34-1.51.52-3.16,1.23-3.67,1.57-1.37.92-1.42,2.83-.16,6.59.93,2.76.94,2.84.4,3.23-.61.44-1.13.46-2.93.11h0Zm-1.42-6.06c.39-.18.87-.71,1.07-1.19.44-1.07-.06-2.16-1.26-2.74-1.62-.78-3.5,1.11-2.8,2.8.52,1.25,1.72,1.7,2.99,1.13h0Zm-1.99-1.24c-.64-.98-.14-1.89,1.04-1.89s1.76,1.16.99,2.01c-.7.77-1.47.73-2.03-.12Zm6.79,3.69c-.49-1.49-.88-3.28-.88-3.99,0-1.58.22-1.75,4.23-3.13l2.94-1.02.22.78c.39,1.4.15,3.96-.51,5.49-.7,1.62-2.87,3.8-4.27,4.28l-.84.29-.88-2.71Zm33.87-4.22c0-.24-.31-1.51-.7-2.83-.38-1.32-.64-2.45-.58-2.52.21-.21,5.09-.88,6.46-.88,2.84-.01,4.13,3.18,2,4.97-.57.48-1.47.78-3.07,1.03-1.24.19-2.68.42-3.19.51-.71.12-.93.06-.93-.27h0ZM13.48,5.91c.98-1.07,3.16-2.14,4.81-2.36l1.36-.18-.55.62c-.72.81-3.72,2.25-5.19,2.5l-1.15.19.72-.78Z" style="fill: #fff; stroke-width: 0px;"/>
      </g>
    </g>
  </g>
</svg>