<?xml version="1.0" encoding="UTF-8"?>
<svg id="Calque_2" data-name="Calque 2" xmlns="http://www.w3.org/2000/svg" viewBox="0 0 306.48 81.57">
  <g id="svg19">
    <g>
      <g>
        <path d="m106.45,31.16c0,2.51-.46,4.66-1.38,6.44-.92,1.78-2.16,3.14-3.7,4.08-1.54.94-3.29,1.44-5.23,1.5v-2.24c2.29-.13,4.19-1.03,5.7-2.72,1.51-1.69,2.27-4.09,2.27-7.21V2.39h2.34v28.77Z" style="fill: #fff; stroke-width: 0px;"/>
        <path d="m124.2,36.65c-1.94,0-3.66-.43-5.15-1.29-1.5-.86-2.67-2.03-3.51-3.51-.84-1.48-1.26-3.14-1.26-4.99s.45-3.47,1.34-4.96c.89-1.5,2.09-2.69,3.6-3.58,1.51-.89,3.19-1.34,5.03-1.34,2.23,0,4.1.65,5.61,1.96,1.51,1.3,2.6,3.01,3.27,5.11l-16.32,6.3-.67-1.62,14.94-5.82-.48.67c-.54-1.27-1.36-2.37-2.46-3.29-1.1-.92-2.44-1.38-4.03-1.38-1.43,0-2.72.35-3.87,1.05-1.15.7-2.06,1.64-2.74,2.82-.68,1.18-1.03,2.51-1.03,4.01,0,1.4.33,2.7.98,3.91.65,1.21,1.57,2.18,2.74,2.91,1.18.73,2.53,1.1,4.06,1.1,1.02,0,2-.19,2.94-.57.94-.38,1.77-.87,2.5-1.48l1.15,1.62c-.89.7-1.92,1.27-3.08,1.72-1.16.44-2.35.67-3.55.67Z" style="fill: #fff; stroke-width: 0px;"/>
        <path d="m145.2,36.79c-1.75,0-3.15-.52-4.2-1.55-1.05-1.03-1.61-2.38-1.67-4.03v-13.6h2.24v12.93c.06,1.21.45,2.21,1.17,3.01.72.8,1.79,1.23,3.22,1.29,1.21,0,2.34-.32,3.39-.95,1.05-.64,1.9-1.5,2.55-2.6.65-1.1.98-2.35.98-3.75v-9.93h2.24v18.66h-2l-.24-5.87.33,1.29c-.32.95-.88,1.82-1.69,2.6-.81.78-1.77,1.39-2.86,1.84-1.1.44-2.25.67-3.46.67Z" style="fill: #fff; stroke-width: 0px;"/>
        <path d="m177.36,36.27h-2.67l-13.98-18.66h2.82l13.84,18.66Zm-8.3-8.02l-5.73,8.02h-2.39l6.87-9.5,1.24,1.48Zm.05-2.58l5.54-8.06h2.34l-6.92,9.73-.95-1.67Z" style="fill: #fff; stroke-width: 0px;"/>
        <path d="m205.23,36.65c-1.75,0-3.34-.42-4.77-1.26-1.43-.84-2.57-2.01-3.41-3.51-.84-1.5-1.26-3.18-1.26-5.06,0-2,.43-3.74,1.29-5.2.86-1.46,2.03-2.59,3.51-3.39,1.48-.79,3.11-1.19,4.89-1.19s3.47.46,5.08,1.38c1.61.92,2.77,2.13,3.51,3.63l-.38,1.05V0h2.24v36.27h-2.29v-5.73l.48,1.05c-.8,1.5-1.99,2.71-3.58,3.65-1.59.94-3.36,1.41-5.3,1.41Zm.57-1.96c1.43,0,2.72-.31,3.87-.93,1.14-.62,2.07-1.46,2.77-2.53.7-1.07,1.1-2.27,1.19-3.6v-2.39c-.22-1.21-.72-2.29-1.48-3.25-.76-.95-1.69-1.71-2.77-2.27-1.08-.56-2.27-.83-3.58-.83-1.43,0-2.74.33-3.91,1-1.18.67-2.12,1.59-2.82,2.77-.7,1.18-1.05,2.55-1.05,4.1,0,1.46.35,2.79,1.05,3.98.7,1.19,1.65,2.15,2.84,2.86,1.19.72,2.49,1.07,3.89,1.07Z" style="fill: #fff; stroke-width: 0px;"/>
        <path d="m232.52,36.65c-1.94,0-3.66-.43-5.15-1.29-1.5-.86-2.67-2.03-3.51-3.51-.84-1.48-1.26-3.14-1.26-4.99s.45-3.47,1.34-4.96c.89-1.5,2.09-2.69,3.6-3.58,1.51-.89,3.19-1.34,5.03-1.34,2.23,0,4.1.65,5.61,1.96,1.51,1.3,2.6,3.01,3.27,5.11l-16.32,6.3-.67-1.62,14.94-5.82-.48.67c-.54-1.27-1.36-2.37-2.46-3.29-1.1-.92-2.44-1.38-4.03-1.38-1.43,0-2.72.35-3.87,1.05-1.15.7-2.06,1.64-2.74,2.82-.68,1.18-1.03,2.51-1.03,4.01,0,1.4.33,2.7.98,3.91.65,1.21,1.57,2.18,2.74,2.91,1.18.73,2.53,1.1,4.06,1.1,1.02,0,2-.19,2.93-.57.94-.38,1.77-.87,2.5-1.48l1.15,1.62c-.89.7-1.92,1.27-3.08,1.72-1.16.44-2.35.67-3.55.67Z" style="fill: #fff; stroke-width: 0px;"/>
      </g>
      <g>
        <path d="m129.98,77.77c-.44.37-1.25.86-2.45,1.48-1.19.62-2.65,1.17-4.37,1.65-1.72.48-3.63.7-5.71.66-3.19-.07-6.04-.65-8.54-1.73-2.51-1.08-4.63-2.56-6.37-4.42-1.74-1.87-3.07-4.01-3.98-6.43-.92-2.42-1.37-5-1.37-7.75,0-3.08.47-5.9,1.4-8.46.93-2.56,2.27-4.78,4.01-6.65,1.74-1.87,3.82-3.32,6.24-4.34,2.42-1.03,5.09-1.54,8.02-1.54,2.71,0,5.11.37,7.2,1.1,2.09.73,3.79,1.52,5.11,2.36l-3.13,7.53c-.92-.7-2.13-1.42-3.65-2.17-1.52-.75-3.27-1.13-5.25-1.13-1.54,0-3.01.32-4.42.96-1.41.64-2.66,1.55-3.74,2.72-1.08,1.17-1.93,2.54-2.56,4.09-.62,1.56-.93,3.25-.93,5.08,0,1.94.28,3.72.85,5.33.57,1.61,1.38,2.99,2.45,4.15,1.06,1.15,2.33,2.04,3.82,2.67,1.48.62,3.16.93,5.03.93,2.16,0,4.01-.35,5.55-1.04,1.54-.7,2.71-1.43,3.52-2.2l3.3,7.14Z" style="fill: #fff; stroke-width: 0px;"/>
        <path d="m133.39,81.12l18.24-42.04h.44l18.24,42.04h-9.23l-11.65-29.56,5.77-3.96-13.96,33.52h-7.86Zm12.47-14.62h12.14l2.8,6.7h-17.42l2.47-6.7Z" style="fill: #fff; stroke-width: 0px;"/>
        <path d="m188.45,40.68c2.53,0,4.78.32,6.76.96,1.98.64,3.63,1.56,4.97,2.75,1.34,1.19,2.35,2.62,3.05,4.29.7,1.67,1.04,3.54,1.04,5.63,0,1.65-.25,3.3-.74,4.95-.49,1.65-1.3,3.15-2.42,4.51-1.12,1.36-2.59,2.45-4.42,3.27-1.83.82-4.1,1.24-6.81,1.24h-5.71v12.86h-7.97v-40.44h12.25Zm1.37,19.89c1.21,0,2.22-.2,3.02-.6.81-.4,1.44-.92,1.9-1.54.46-.62.79-1.27.99-1.95.2-.68.3-1.31.3-1.9,0-.44-.06-1-.19-1.68-.13-.68-.39-1.36-.8-2.06-.4-.7-1.02-1.28-1.84-1.76-.82-.48-1.93-.71-3.32-.71h-5.71v12.2h5.66Zm7.47,4.95l10,15.61h-9.29l-10.22-15.39,9.51-.22Z" style="fill: #fff; stroke-width: 0px;"/>
        <path d="m210.32,40.68h27.26v7.69h-9.84v32.75h-7.97v-32.75h-9.45v-7.69Z" style="fill: #fff; stroke-width: 0px;"/>
        <path d="m245.27,40.68h27.58v7.69h-19.62v8.63h17.36v7.69h-17.36v8.74h20.39v7.69h-28.35v-40.44Z" style="fill: #fff; stroke-width: 0px;"/>
        <path d="m303.46,50.46c-1.54-.84-3.1-1.54-4.7-2.09-1.59-.55-3.09-.82-4.48-.82-1.72,0-3.08.35-4.07,1.04-.99.7-1.48,1.74-1.48,3.13,0,.95.38,1.8,1.13,2.56.75.75,1.72,1.42,2.91,2,1.19.59,2.43,1.12,3.71,1.59,1.17.44,2.34.96,3.49,1.57,1.15.6,2.19,1.36,3.1,2.25s1.65,2.01,2.2,3.35c.55,1.34.82,2.98.82,4.92,0,2.05-.53,3.96-1.59,5.71-1.06,1.76-2.62,3.18-4.67,4.26-2.05,1.08-4.58,1.62-7.58,1.62-1.54,0-3.1-.16-4.7-.47-1.59-.31-3.16-.79-4.7-1.43-1.54-.64-3.02-1.46-4.45-2.45l3.52-6.21c.95.7,1.99,1.31,3.1,1.84,1.12.53,2.24.94,3.38,1.24,1.13.29,2.18.44,3.13.44s1.91-.14,2.88-.41c.97-.28,1.78-.74,2.42-1.4.64-.66.96-1.58.96-2.75,0-.8-.27-1.54-.8-2.2-.53-.66-1.25-1.26-2.14-1.81-.9-.55-1.88-1.03-2.94-1.43-1.25-.48-2.53-1.03-3.85-1.65s-2.56-1.38-3.71-2.28c-1.15-.9-2.09-2.01-2.8-3.35-.71-1.34-1.07-2.98-1.07-4.92,0-2.34.52-4.38,1.57-6.1,1.04-1.72,2.52-3.09,4.42-4.09,1.9-1.01,4.1-1.57,6.59-1.68,3.26,0,5.91.38,7.94,1.15,2.03.77,3.86,1.69,5.47,2.75l-3.02,6.1Z" style="fill: #fff; stroke-width: 0px;"/>
      </g>
      <g id="g1">
        <path id="path1" d="m39.38,81.04c-1.97-.51-3.81-1.97-4.69-3.71-.9-1.78-.86-.31-.86-29.04s-.05-27.35.91-29.12c1.06-1.94,3.34-3.48,5.6-3.76,1.55-.2,32.9-.2,34.42,0,3.04.39,5.53,2.62,6.32,5.65.21.82.24,4.13.24,27.18,0,18.55-.05,26.5-.18,27.09-.6,2.9-2.93,5.23-5.83,5.83-.59.12-6.02.17-17.87.17-15.57,0-17.12-.03-18.08-.28h0Zm34.62-6.34c.92-.69,1.05-1.04,1.11-2.98.05-1.54,0-1.91-.27-2.53-.77-1.74-3.15-1.86-4.16-.22-.45.73-.47,4.05-.03,4.89.6,1.14,2.34,1.58,3.34.83Zm-15.2-11.61c.54-.33,10.9-13.27,11.21-13.98.5-1.18.45-1.26-5.37-8.54-3.01-3.76-5.61-6.88-5.9-7.05-.7-.43-1.68-.41-2.36.05-.65.43-11.03,13.33-11.26,13.99-.23.66-.2,1.15.09,1.72.22.43,9.98,12.75,10.7,13.52.67.71,2,.85,2.89.29h0Zm-4.81-10.29c-3.33-4.16-3.51-4.41-3.3-4.74.6-.95,6.89-8.64,6.98-8.54.06.07,1.66,2.07,3.56,4.44,2.28,2.86,3.41,4.39,3.33,4.53-.2.34-6.92,8.7-6.98,8.7-.03,0-1.64-1.98-3.58-4.39h0Zm-10.54-24.2c1.08-.52,1.35-1.19,1.35-3.36,0-1.4-.06-1.93-.28-2.36-.85-1.7-3.35-1.7-4.21,0-.32.64-.4,3.63-.11,4.39.34.89,1.32,1.62,2.2,1.63.21,0,.68-.14,1.04-.31h0ZM6.42,65.92c-2.12-.28-4.42-1.88-5.43-3.77C-.06,60.18,0,62.02,0,33.05,0,4.3-.04,5.69.92,3.91c.55-1.03,1.96-2.44,2.99-2.99C5.64-.02,5.2,0,23.69,0c10.69,0,17.25.06,17.79.16,1.31.24,2.81,1.06,3.82,2.06,1.63,1.63,2.2,3.26,2.2,6.29v1.93l-4.01.07c-4.66.09-5.53.25-7.94,1.5-1.15.6-1.75,1.04-2.82,2.11-2.45,2.45-3.65,5.24-3.65,8.51v1.27s-.98.19-.98.19c-1.12.21-2.63.91-3.64,1.69l-.69.53-.71-.54c-1.65-1.26-3.4-1.84-5.5-1.84-2.51,0-4.61.89-6.37,2.68-1.21,1.23-2.03,2.83-2.39,4.66-.22,1.13-.23,1.52-.07,2.64.2,1.37.61,2.57,1.27,3.65.46.76,12.15,12.55,12.77,12.88.5.27,1.36.29,1.96.07.23-.09,1.31-1.03,2.39-2.09l1.97-1.93-.04,9.76-.04,9.76-10.8.02c-5.94.01-11.24-.04-11.77-.11ZM14.1,11.55l1.85-1.85.06-.92c.08-1.19-.3-1.85-1.32-2.3-1.04-.46-1.82-.29-2.76.59l-.74.69-.53-.55c-1.11-1.14-2.53-1.29-3.57-.37-.73.64-.99,1.5-.72,2.4.21.71,2.16,2.87,3.42,3.81.57.42.73.46,1.56.41l.92-.06,1.85-1.85Zm4.86,28.6c-3.16-3.17-4.91-5.05-5.15-5.52-.79-1.55-.37-3.62.99-4.85.86-.78,1.57-1.05,2.75-1.06,1.36,0,2.18.4,3.68,1.82,1.43,1.36,1.73,1.55,2.5,1.55.9,0,1.32-.25,2.73-1.6,1.11-1.06,2.1-1.74,2.53-1.74.05,0,.08,2.45.08,5.44v5.44l-2.66,2.66-2.66,2.66-4.79-4.81Z" style="fill: #fff; stroke-width: 0px;"/>
      </g>
    </g>
  </g>
</svg>