<?xml version="1.0" encoding="UTF-8"?>
<svg id="Calque_2" data-name="Calque 2" xmlns="http://www.w3.org/2000/svg" viewBox="0 0 374.78 85.06">
  <g id="svg19">
    <g>
      <path id="text19" d="m113.84,33.98c0,2.57-.47,4.76-1.41,6.58s-2.21,3.2-3.8,4.14c-1.56.97-3.33,1.49-5.31,1.56h0v-2.29c2.34-.13,4.27-1.06,5.8-2.78,1.56-1.72,2.34-4.17,2.34-7.36V4.6h2.39v29.38Zm18.12,5.6c-1.98,0-3.74-.44-5.26-1.32-1.53-.88-2.73-2.06-3.61-3.56-.84-1.53-1.27-3.23-1.27-5.12s.45-3.54,1.36-5.07c.91-1.53,2.13-2.74,3.65-3.65,1.56-.91,3.28-1.36,5.16-1.36,2.27,0,4.17.67,5.7,2,1.56,1.33,2.68,3.07,3.36,5.21l-16.66,6.43-.68-1.66,15.25-5.94-.49.68c-.55-1.3-1.4-2.42-2.53-3.36-1.1-.94-2.47-1.41-4.09-1.41-1.46,0-2.78.36-3.95,1.07-1.17.71-2.11,1.67-2.83,2.87-.68,1.2-1.02,2.57-1.02,4.09,0,1.43.32,2.76.97,3.99.68,1.23,1.62,2.22,2.83,2.97s2.58,1.12,4.14,1.12c1.04,0,2.03-.19,2.97-.58.97-.39,1.84-.89,2.58-1.51l1.17,1.66c-.91.71-1.96,1.3-3.17,1.75-1.17.45-2.37.68-3.61.68h0Zm21.44.15c-1.79,0-3.22-.52-4.29-1.56-1.07-1.07-1.64-2.45-1.71-4.14v-13.88h2.29v13.2c.06,1.23.45,2.26,1.17,3.07.75.81,1.85,1.25,3.31,1.32,1.23,0,2.39-.32,3.46-.97s1.93-1.53,2.58-2.63c.68-1.14,1.02-2.42,1.02-3.85v-10.13h2.29v19.05h-2.05l-.24-5.99.34,1.32c-.32.97-.91,1.87-1.75,2.68-.81.78-1.79,1.4-2.92,1.85-1.1.45-2.27.68-3.51.68Zm24.41-11.35l5.65-8.23h2.39l-7.06,9.94-.97-1.71Zm8.43,10.82h-2.73l-14.27-19.05h2.87l14.13,19.05Zm-8.48-8.18l-5.85,8.18h-2.44l7.02-9.7,1.27,1.51Zm36.93,8.57c-1.79,0-3.41-.42-4.87-1.27-1.46-.88-2.63-2.08-3.51-3.61-.84-1.53-1.27-3.25-1.27-5.16,0-2.05.44-3.82,1.32-5.31.88-1.49,2.06-2.65,3.56-3.46,1.53-.81,3.2-1.22,5.02-1.22s3.54.47,5.16,1.41c1.66.94,2.86,2.18,3.61,3.7l-.39,1.07V2.17h2.29v37.03h-2.34v-5.85l.49,1.07c-.81,1.53-2.03,2.78-3.65,3.75-1.62.94-3.43,1.41-5.41,1.41h0Zm.58-2c1.46,0,2.78-.31,3.95-.93,1.17-.65,2.11-1.51,2.83-2.58.71-1.1,1.12-2.34,1.22-3.7v-2.44c-.23-1.23-.73-2.34-1.51-3.31-.78-.97-1.72-1.74-2.83-2.29-1.1-.58-2.32-.88-3.65-.88-1.46,0-2.79.34-3.99,1.02-1.2.68-2.16,1.62-2.87,2.83-.71,1.2-1.07,2.6-1.07,4.19,0,1.49.36,2.86,1.07,4.09.71,1.2,1.67,2.18,2.87,2.92,1.23.71,2.57,1.07,3.99,1.07ZM234.96,3.92c-.03,2.05-.07,4.08-.1,6.09-.03,2.01-.06,4.04-.1,6.09h-2.05V3.92h2.24Z" style="fill: #fff; stroke-width: 0px;"/>
      <path id="text21" d="m98.75,83.35l16.76-38.62h.4l16.76,38.62h-8.48l-10.7-27.16,5.3-3.63-12.82,30.79h-7.22Zm11.46-13.43h11.16l2.57,6.16h-16l2.27-6.16Zm27.92-23.73l10.85,26.76-4.24-.86,9.84-25.9h8.68l-16.96,38.87-16.96-38.87h8.78Zm31.55,0h25.34v7.07h-18.02v7.93h15.95v7.07h-15.95v8.03h18.73v7.07h-26.05v-37.16Zm66.89,38.67l-28.17-25.44,2.17,1.21.15,22.72h-7.42v-38.62h.3l27.56,25.34-1.62-.71-.15-23.17h7.37v38.67h-.2Zm7.27-38.67h25.04v7.07h-9.04v30.09h-7.32v-30.09h-8.68v-7.07Zm38.67,23.42c0,1.18.35,2.31,1.06,3.38.71,1.08,1.63,1.95,2.78,2.63,1.18.67,2.46,1.01,3.84,1.01,1.51,0,2.86-.34,4.04-1.01,1.18-.67,2.1-1.55,2.78-2.63.71-1.08,1.06-2.2,1.06-3.38v-23.42h7.22v23.58c0,2.73-.67,5.15-2.02,7.27-1.35,2.09-3.16,3.74-5.45,4.95-2.29,1.18-4.83,1.77-7.62,1.77h0c-2.76,0-5.28-.59-7.57-1.77-2.25-1.21-4.06-2.86-5.4-4.95-1.35-2.12-2.02-4.54-2.02-7.27v-23.58h7.32v23.42Zm42.86-23.42c2.32,0,4.39.3,6.21.91,1.82.57,3.33,1.41,4.54,2.52,1.25,1.08,2.19,2.39,2.83,3.94.64,1.51.96,3.23.96,5.15,0,1.51-.24,3.03-.71,4.54-.44,1.51-1.18,2.89-2.22,4.14-1.01,1.25-2.36,2.25-4.04,3.03-1.68.74-3.77,1.11-6.26,1.11h-5.25v11.81h-7.32v-37.16h11.26Zm1.26,18.27c1.11,0,2.04-.19,2.78-.56.74-.37,1.31-.84,1.72-1.41.44-.57.74-1.16.91-1.77.2-.64.3-1.23.3-1.77,0-.4-.07-.91-.2-1.51-.1-.64-.34-1.28-.71-1.92-.37-.64-.94-1.18-1.72-1.62-.74-.44-1.75-.66-3.03-.66h-5.25v11.21h5.2Zm6.87,4.54l9.19,14.34h-8.53l-9.39-14.14,8.73-.2Zm15.25-22.82h25.34v7.07h-18.02v7.93h15.95v7.07h-15.95v8.03h18.73v7.07h-26.05v-37.16Z" style="fill: #fff; stroke-width: 0px;"/>
      <path id="path3" d="m52.55,78.89l-7.77-.91-.23-.41c-.26-.47-1.24-.54-1.96-.16l-.48.26-4.26-.5c-2.34-.28-4.27-.48-4.28-.44-.01.03-.22.48-.45,1l-.43.94-1.15.51-1.15.51-.96-.13c-1.65-.22-3.17-1.69-3.18-3.07v-.54s-.68-.14-.68-.14c-.37-.08-1.63-.25-2.79-.38-8.21-.94-7.51-.78-9.59-2.16-1.51-1-3.36-3.2-5.13-6.07-1.74-2.83-3.36-4.08-6.66-5.15-.51-.17-1.04-.5-1.17-.74l-.23-.44,1.4-1.21,1.4-1.21h.88s.88-.02.88-.02l.13-.72.13-.72,3.1-2.22,3.09-2.22.28-.65c.15-.36.5-.85.78-1.1l.5-.45,1.95-.1c2.34-.12,3.62.18,4.26,1,.27.34.71.61.98.61h.5l.54-.88.54-.88-.46-.51c-.78-.86-1.37-1.04-3.86-1.19l-2.4-.14,3.8-7.02,3.8-7.02-.26-.7-.26-.7.3-.72c.46-1.1,4-2.23,4-1.28,0,.11.17.2.37.2s.61.5.9,1.12c.65,1.39,1.66,2.13,3.13,2.3l1.13.13-.37.27c-2.38,1.77-3.67,3.38-3.35,4.22.08.2-.03.5-.24.67-.61.51-1.08,1.63-1.08,2.56v.88h.38c.44,0,1.35-1.4,1.37-2.11v-.5s.38.68.38.68l.37.68h.96c.53,0,1.14.07,1.36.15l.4.15-.16-.41c-.21-.55.54-2.45,1.19-3.02l.53-.46-.39.62c-.22.34-.46,1.01-.55,1.49l-.16.87.34.46.34.46,3.08.36c1.7.2,3.42.33,3.83.29l.74-.07.4-.84.4-.84.16,1.01.16,1.01,1.18.16c.65.09,1.53.32,1.96.51,1.48.67,2.53.3,2.9-1.01.08-.27.08.02.01.66l-.13,1.15.56.39c1.48,1.03,2.37.52,2.82-1.63l.3-1.45-.75-2.45-.75-2.45.16-.64c.43-1.73,5.11-1.99,5.11-.29v.59l.49.15.49.15-.05.89-.05.89.74.21c2.63.73,6.49-1.33,8.46-4.53.49-.8.99-1.39,1.1-1.32.11.07.28-.17.37-.53l.17-.66-.55-1.32-.55-1.32.74-1.69c1.13-2.58,1.36-3.69,1.38-6.52l.02-2.6-.46-.87c-.25-.48-.87-1.29-1.36-1.81l-.9-.94,1.12.17c.61.09,1.32.27,1.56.4l.45.23-.6-1.19c-.33-.66-.84-1.41-1.14-1.67l-.53-.48h-2.47l-.41.41-.41.41.35.43.35.43-.5-.2c-6.65-2.74-14.53-3.39-19.83-1.64-1.49.49-1.58.44-.86-.48.66-.84.63-1.01-.29-1.77l-.79-.65.85-1.41c.47-.78,1.4-2.03,2.07-2.78l1.22-1.37.96,1.12c.53.62,1.35,1.36,1.84,1.67l.88.55,6.98-.16c3.84-.09,7.59-.23,8.34-.31l1.36-.15,1.03-1.06c1.09-1.13,2.07-3.31,2.07-4.62v-.77l.57.84c.31.46.87.95,1.24,1.08l.67.24.87-.41c.48-.23.87-.33.87-.23,0,.1-.11,1.22-.25,2.48l-.24,2.3.26,1.17c.14.64.8,2,1.45,3.03.66,1.02,1.45,2.36,1.78,2.98l.59,1.12v2.53c.01,1.39.09,2.34.18,2.11.09-.23.18-1.4.19-2.59l.02-2.17-.47-1.23c-.26-.68-.97-2.11-1.59-3.18-.62-1.07-1.2-2.36-1.29-2.86l-.17-.91h3.09c1.7,0,3.43-.07,3.84-.15l.75-.15-.28,1.04-.28,1.04.62.5.62.5,1.51-.12,1.51-.12.15,1.96.15,1.96-1.34,2.03c-.74,1.12-2.4,3.76-3.69,5.87-1.36,2.22-2.48,3.81-2.67,3.76-.49-.12-.96.7-.96,1.69,0,.49-.1,1-.23,1.13-.13.13-2.2,3.58-4.6,7.66l-4.37,7.43.38,1.25.38,1.25-.2.87c-.41,1.74-1.75,3.6-3.12,4.34l-.89.48-.47-.29-.47-.29-.62.92c-.34.5-1.41,2.28-2.39,3.95l-1.77,3.03-.54-.06-.54-.06-.15.9c-.08.5-.57,1.49-1.09,2.2l-.93,1.3.16.85c.09.47.23,1.04.31,1.27l.15.42-.5-.43-.5-.43h-2.24l-2.04,1.23-2.04,1.23,1.94.08,1.94.08-2.45.05-2.45.05.31.37.31.37h-.86c-.47,0-1.55-.07-2.39-.16l-1.52-.16.27-.32.27-.32-.82-.14c-.72-.12-9.13-.33-9.13-.22,0,.02.86.51,1.92,1.09,1.06.58,2.46,1.44,3.11,1.91l1.19.87.8-.78c.46-.44.9-.69,1.04-.57.13.11,1.8.86,3.71,1.65,1.91.79,3.82,1.59,4.26,1.77l.79.33,1.54-1.79c.88-1.03,1.87-1.91,2.31-2.07l.77-.28-.62-.13c-.34-.07.01-.08.77,0l1.39.13.34-.47c.72-1,.94-.79.29.28l-.68,1.13h-2.11l-.79,1.61-.79,1.61.36.36.36.36,2.18.21,2.18.21,1.64-2.62c2.81-4.48,23.34-36.9,25.39-40.1,1.07-1.67,1.95-3.26,1.95-3.53v-.49h.59c.32,0,.92-.07,1.32-.15l.73-.15.24,2.01.24,2.01-1.26,1.94c-.69,1.07-3.76,6.17-6.81,11.34l-5.54,9.4h-.51s-.51-.03-.51-.03l-.02.91-.02.91-2.19,3.76c-1.2,2.07-2.37,3.81-2.58,3.88-.22.07-.56.21-.77.32l-.37.2-.02,1.01-.02,1.01-4.17,7.14c-2.29,3.93-4.29,7.26-4.44,7.41l-.27.27-7.78-.91Zm-19.1-7.5c1.64-1.97-2.02-2.42-4.04-.5-1.01.96-.88,1.05,1.45,1.05h2.13l.47-.56Zm34.01-11.52c-.07-.44-.22-.81-.34-.81-.32,0-.27,1.09.07,1.43.39.39.41.32.27-.63h0Zm-22.42-4.56c-.59-.37-.74-.23-.34.34.21.3.4.78.43,1.05.02.28.09.12.14-.34l.1-.84-.33-.21Zm-19.04.18v-.84l-.39-.15c-.48-.18-1.73.44-1.93.95l-.15.38h.86c.47,0,.86.11.86.25s.17.25.37.25h.37v-.84Zm7.59-.53c-.08-.21-.44-.36-.83-.35l-.69.02.56.23c.31.12.64.42.73.65l.16.43.1-.31c.06-.17.04-.47-.04-.67h0Zm20.5-1.97c-.15-.39-.59-.52-.59-.17,0,.26.27.54.53.54.11,0,.13-.17.06-.37Zm18.75-2.25c0-.21-.11-.32-.25-.23-.14.08-.25.26-.25.39s.11.23.25.23.25-.17.25-.39Zm-34.31-.38c.09-.15.06-.35-.06-.43-.13-.09-.31-.35-.4-.59-.18-.49-1.17-.6-1.17-.13,0,.7,1.33,1.64,1.63,1.16h0Zm-10.3-.96c0-.14-.29-.25-.63-.25s-.57.11-.48.25c.08.14.37.25.63.25s.48-.11.48-.25h0Zm20.7-.02c.09-.15.1-.33.03-.4-.21-.21-1.4.15-1.4.42,0,.33,1.17.31,1.37-.02h0Zm-6.88-.53c.43-.43.37-1.6-.09-1.78-.85-.33-1.68.58-1.42,1.56l.14.52h.54c.3,0,.67-.13.84-.3h0Zm-12.1-1.62c0-.17-.09-.31-.2-.31-.24,0-.79,1.11-.78,1.56.01.39.97-.84.98-1.25Zm21.07-.36c0-.61-.56-.32-1.08.55l-.43.73.75-.43c.41-.24.75-.62.75-.85Zm15.37-3.44c0-.41-.97-1.71-2.28-3.02l-1.17-1.18-.4.77c-.22.42-.41,1.11-.42,1.53l-.02.76.43.31c.24.17.96.39,1.6.48.64.09,1.33.26,1.53.39.48.3.73.29.73-.04h0Zm-7.39-2.62c.25-.23.45-.52.45-.65v-.24l-1.27.15c-2.1.25-2.73,1.16-.8,1.16h1.16l.45-.41Zm10.86-10.25c0-1.37-.44-2.65-1.08-3.19l-.41-.34-.48.44c-.26.24-.66.98-.88,1.64l-.4,1.21.16.74.16.74h2.93v-1.25Zm4.27-9.05c-.3-.21-.55-.55-.55-.74,0-.4-.05-.42-.6-.21-.66.25-.44.81.41,1.06,1.19.34,1.35.32.74-.11Zm-3.47-.99c.3-.3-.38-2.04-1.16-2.97l-.83-.98.13.68c.07.37.23.68.35.68s.22.17.22.37c0,.52.76,2.36.98,2.36.1,0,.24-.06.32-.14h0Zm5.56-9.98c-.81-.89-.01-2.05,2.32-3.37,1.61-.92.97-.78-1.15.24l-1.82.88-.36.7-.36.7.3.37c.27.33,1.13.9,1.39.92.05,0-.08-.2-.31-.45h0Zm-19-.17c-.79-.45-1.04-.45-1.63,0l-.48.36h1.36s1.36,0,1.36,0l-.62-.35Zm-7.32,30.26c-.46-.71-1.11-.92-1.76-.58l-.47.25.56-.59.56-.59.43.27c.44.28,1.46,1.83,1.2,1.83-.08,0-.32-.27-.53-.59Zm-8.98-.65c-.15-.6-.24-1.14-.19-1.19.15-.15.68,1.67.57,1.99-.05.16-.23-.19-.38-.8Zm-12.89-1.04c.15-.46.69-.54.69-.1,0,.22-.18.39-.39.39s-.35-.13-.29-.29h0Zm18.85-1.17c-.37-.6-1.99-1.34-2.58-1.19-.61.16-.61-.23.01-.56,1.04-.56,1.95-.08,2.73,1.44.36.7.23.95-.16.32h0Zm-16.25-1.67c1.12-1.57,2.83-1.69,3.81-.28l.56.8-.65-.59-.65-.59-.99.13c-.54.07-1.36.39-1.8.71l-.81.58.55-.77Zm5.24-.33l.59-.51.9.03.9.03-.87.17c-.48.1-1.15.31-1.49.48l-.62.31.59-.51Zm1.22-1.01c-2.02-.34-2.24-1.24-.91-3.74,1.06-1.98,1.75-1.49,1.34.96l-.15.92.75.42.75.42-.37-.72c-.2-.4-.37-1.16-.37-1.69v-.97l.4-.33.4-.33.59.74c.79.98,1.58,2.62,1.58,3.29v.53l-.73.38c-.79.41-1.46.43-3.28.12Zm44.62-1.85c.15-.27.68-.94,1.17-1.49l.91-.99-.94,1.24c-1.15,1.51-1.5,1.89-1.14,1.24h0Zm-35.36-1.2c-1.52-1.83-1.6-6.75-.15-9.6,2.1-4.15,8.66-5.42,12.68-2.46l1.04.77.67,1.38.67,1.38.11,1.96.11,1.96-.42,1.11c-.4,1.05-1.63,2.27-1.95,1.94-.08-.08-.03-.37.12-.65l.27-.5-1.77.15c-1.03.09-2.47.43-3.44.82-.97.39-2.35.72-3.33.79l-1.66.12-1.28-.42c-1.51-.49-1.63-.43-1.12.57.55,1.06.15,1.56-.57.7Zm38.09-2.34c.45-.58.88-1.05.94-1.05.19,0-.84,1.38-1.32,1.76-.24.19-.07-.12.38-.7Zm-51.73.22c-.19-.12-.54-.17-.78-.11l-.45.12-.3-.56-.3-.56.12-1.52c.07-.84.36-2.05.64-2.69.28-.64.4-1.1.26-1.01-.31.19-2.2,4.03-2.2,4.47,0,.17-.13.39-.29.49l-.29.18.14-1.39c.53-5.12,10.13-11.07,11.6-7.19l.24.64-.26,1.39c-.8,4.32-5.95,9.22-8.15,7.75h0Zm-6.75-2.21c.4-.78,2.12-3.98,3.83-7.11l3.1-5.68-.26-.48c-.14-.26-.18-.86-.1-1.33l.16-.85.74-.45.74-.45,2.4.04,2.4.04.56.36c.31.2.62.55.69.78.07.23.3.45.49.5.2.04-1.11.74-2.9,1.56-4.79,2.17-5.91,3.18-5.91,5.28v.71l-1.36,1.7c-1.5,1.89-2.11,3.35-2.11,5.07,0,1.47-.3,1.74-1.91,1.74h-1.32l.73-1.43Zm9.94-18.34c0-.06.19-.43.42-.81l.42-.7,1.79-.17c.98-.09,2.01-.09,2.3,0l.51.16-.49.83-.49.83-2.22-.02c-1.22,0-2.22-.07-2.22-.13h0Z" style="fill: #fff; stroke-width: 0px;"/>
    </g>
  </g>
</svg>