<svg xmlns="http://www.w3.org/2000/svg" viewBox="0 0 349.64 105.35">
  <g id="Calque_2" data-name="Calque 2">
    <g id="favourites-fr">
      <g>
        <path d="M0,20.64H49.44V31.36H11.18V58H44.71v10.6H11.18V104H0Z" fill="#fff"/>
        <path d="M78.83,105.12a25.71,25.71,0,0,1-12.16-2.89A21.11,21.11,0,0,1,58,93.76a27.29,27.29,0,0,1-3.16-13.65A27.17,27.17,0,0,1,58.2,66.34a23.08,23.08,0,0,1,8.93-8.93A24.71,24.71,0,0,1,79.4,54.29a20,20,0,0,1,11.3,3.06,21.94,21.94,0,0,1,7,7.2L97,66.39l1-10.14H108V104H97.26V91.52l1.16,2.76a11.43,11.43,0,0,1-2,2.94,23.84,23.84,0,0,1-4.15,3.63,24.92,24.92,0,0,1-5.93,3.06A22.08,22.08,0,0,1,78.83,105.12Zm2.88-8.88A17.08,17.08,0,0,0,89,94.74a14.49,14.49,0,0,0,5.36-4.2A15.54,15.54,0,0,0,97.26,84V74.69a14.7,14.7,0,0,0-3.22-6,16.08,16.08,0,0,0-5.53-4,17.4,17.4,0,0,0-7.15-1.44A15.4,15.4,0,0,0,67.82,71a17,17,0,0,0-2.13,8.65,16.57,16.57,0,0,0,2.19,8.41,16.3,16.3,0,0,0,5.87,6A15.32,15.32,0,0,0,81.71,96.24Z" fill="#fff"/>
        <path d="M145.9,105.35l-26.51-49.1h12.68l18,37.92-6.56-.23L160,56.25h12l-25.47,49.1Z" fill="#fff"/>
        <path d="M178.16,79.65a24.61,24.61,0,0,1,12.79-22,29.52,29.52,0,0,1,27.32,0,23.61,23.61,0,0,1,9.1,9.1,26,26,0,0,1,3.23,12.91,26.29,26.29,0,0,1-3.23,13,23.32,23.32,0,0,1-9.16,9.16,27.59,27.59,0,0,1-13.77,3.35A28.31,28.31,0,0,1,190.9,102a23.62,23.62,0,0,1-9.34-8.88A25.69,25.69,0,0,1,178.16,79.65Zm10.72.11A17,17,0,0,0,191,88.12a16,16,0,0,0,5.59,5.93,14.44,14.44,0,0,0,7.78,2.19,14.82,14.82,0,0,0,8-2.19,15,15,0,0,0,5.47-5.93,18.79,18.79,0,0,0,0-16.71,15.41,15.41,0,0,0-5.47-6,14.52,14.52,0,0,0-8-2.25,14.11,14.11,0,0,0-7.89,2.3,16.41,16.41,0,0,0-5.53,6A17.07,17.07,0,0,0,188.88,79.76Z" fill="#fff"/>
        <path d="M254.68,56.25l1,13.83-.58-1.84a20,20,0,0,1,5.36-7.43,28.48,28.48,0,0,1,7.38-4.73,17.46,17.46,0,0,1,6.74-1.67L274,65a16.19,16.19,0,0,0-9.51,2.08,17.88,17.88,0,0,0-6.45,6.45,16.86,16.86,0,0,0-2.36,8.64V104h-10.6V56.25Z" fill="#fff"/>
        <path d="M287.64,39a5.41,5.41,0,0,1,2-4.27A6.66,6.66,0,0,1,294.09,33a6.23,6.23,0,0,1,4.32,1.73A5.56,5.56,0,0,1,300.32,39a5.47,5.47,0,0,1-1.91,4.32A6.35,6.35,0,0,1,294.09,45a6.66,6.66,0,0,1-4.43-1.73A5.38,5.38,0,0,1,287.64,39Zm.81,17.28h10.71V104H288.45Z" fill="#fff"/>
        <path d="M331.08,104.88a28,28,0,0,1-9.85-1.78,19.09,19.09,0,0,1-7.89-5.36l4.49-6.22A22.23,22.23,0,0,0,324,95.84a15.06,15.06,0,0,0,6.28,1.44,14.87,14.87,0,0,0,4.26-.58,6.68,6.68,0,0,0,3.17-1.9,5.86,5.86,0,0,0-.46-7.66A12.58,12.58,0,0,0,333,84.72c-1.73-.62-3.56-1.19-5.48-1.73a20.56,20.56,0,0,1-9-5.42,12.14,12.14,0,0,1-3.11-8.41,14,14,0,0,1,1.9-7.09A14.42,14.42,0,0,1,323,56.71a19,19,0,0,1,9.28-2.07,29.92,29.92,0,0,1,8.87,1.21,22.34,22.34,0,0,1,7.38,4l-4.27,6.68a12.57,12.57,0,0,0-5-3.23,18.35,18.35,0,0,0-5.19-1.15,8.75,8.75,0,0,0-3.74.58,7.42,7.42,0,0,0-2.94,2,4.29,4.29,0,0,0-1.16,3,5.08,5.08,0,0,0,1.62,3.92,11.26,11.26,0,0,0,4.2,2.36q2.6.87,5.13,1.79a24.76,24.76,0,0,1,6.34,2.77A14.37,14.37,0,0,1,348,82.76a11.31,11.31,0,0,1,1.67,6.34,15.92,15.92,0,0,1-2,7.89,14.28,14.28,0,0,1-6.11,5.76A22.47,22.47,0,0,1,331.08,104.88Z" fill="#fff"/>
      </g>
      <g>
        <path d="M107.55,32.36a15.41,15.41,0,0,1-1.45,7,10.49,10.49,0,0,1-3.89,4.38,11.24,11.24,0,0,1-5.5,1.6V43.63a9,9,0,0,0,6.48-3.15q2.59-2.94,2.59-8.28V0h1.77Z" fill="#fff"/>
        <path d="M130.62,0h22.85V1.76h-21V17.84h19v1.71h-19V35.94h21.79V37.7h-23.6Z" fill="#fff"/>
        <path d="M176.92,25.15a12.26,12.26,0,0,0,1.39,6A9.48,9.48,0,0,0,182.13,35a11.25,11.25,0,0,0,5.52,1.34A11.57,11.57,0,0,0,193.26,35a9.66,9.66,0,0,0,3.87-3.84,12.15,12.15,0,0,0,1.42-6V0h1.76V25.31a13.5,13.5,0,0,1-1.68,7,11.26,11.26,0,0,1-4.54,4.36,13.77,13.77,0,0,1-6.44,1.49,13.62,13.62,0,0,1-6.41-1.49,11.11,11.11,0,0,1-4.48-4.36,13.6,13.6,0,0,1-1.66-7V0h1.82Z" fill="#fff"/>
        <path d="M219.54,37.7,232.14,18l1.07,1.44L221.73,37.7ZM220.07,0h2.24l24.51,37.7h-2.24Zm12.87,17.41L243.94,0h2.14l-12,18.8Z" fill="#fff"/>
      </g>
    </g>
  </g>
</svg>
