<?xml version="1.0" encoding="UTF-8"?>
<svg id="Calque_2" data-name="Calque 2" xmlns="http://www.w3.org/2000/svg" viewBox="0 0 276.57 82.53">
  <g id="svg19">
    <g>
      <g>
        <path d="m137.78,75.81c-.54.36-1.18.69-1.94,1.01-.76.31-1.57.59-2.44.83-.86.24-1.75.42-2.66.56-.91.13-1.77.2-2.57.2-2.5,0-4.76-.41-6.77-1.23-2.01-.82-3.73-1.95-5.16-3.4-1.43-1.44-2.53-3.13-3.29-5.05s-1.14-4-1.14-6.24c0-2.41.42-4.63,1.27-6.66.85-2.03,2.02-3.78,3.51-5.25,1.49-1.47,3.22-2.61,5.18-3.42,1.97-.8,4.05-1.21,6.26-1.21,1.67,0,3.24.21,4.72.63,1.48.42,2.81.98,4,1.7l-.8,1.97c-.69-.42-1.46-.78-2.32-1.1s-1.75-.56-2.66-.74c-.91-.18-1.81-.27-2.7-.27-2.03,0-3.9.36-5.63,1.07-1.73.72-3.23,1.71-4.51,3-1.28,1.28-2.28,2.79-2.99,4.51-.72,1.73-1.07,3.61-1.07,5.63s.33,3.79,1.01,5.48c.67,1.68,1.62,3.16,2.86,4.43,1.24,1.27,2.72,2.25,4.45,2.95,1.73.7,3.65,1.05,5.77,1.05,1.25,0,2.56-.15,3.93-.45,1.37-.3,2.55-.73,3.53-1.3v-8.81h-7.15v-2.1h9.34v12.2Z" style="fill: #fff; stroke-width: 0px;"/>
        <path d="m153.11,78.4c-1.67,0-3.18-.38-4.54-1.14s-2.43-1.82-3.22-3.2c-.79-1.37-1.18-2.96-1.18-4.78,0-1.94.42-3.6,1.25-4.98.83-1.39,1.97-2.44,3.4-3.17,1.43-.73,3.05-1.1,4.87-1.1,1.55,0,3.02.46,4.4,1.39,1.39.92,2.38,2.09,2.97,3.49l-.31.63.27-4.96h1.88v17.48h-2.1v-5.41l.45.8c-.21.6-.57,1.18-1.07,1.77-.51.58-1.12,1.12-1.85,1.61-.73.49-1.54.88-2.41,1.16-.88.28-1.81.42-2.79.42Zm.45-1.79c1.31,0,2.5-.28,3.55-.83,1.06-.55,1.91-1.32,2.57-2.3.66-.98,1.03-2.12,1.12-3.4v-2.5c-.24-1.1-.71-2.09-1.41-2.95-.7-.86-1.56-1.55-2.57-2.06-1.01-.51-2.12-.76-3.31-.76-1.31,0-2.52.31-3.62.92-1.1.61-1.98,1.47-2.64,2.57-.66,1.1-.98,2.4-.98,3.89,0,1.37.33,2.61.98,3.73.65,1.12,1.54,2.01,2.66,2.68,1.12.67,2.33,1.01,3.64,1.01Z" style="fill: #fff; stroke-width: 0px;"/>
        <path d="m172.68,60.57l.22,4.87-.31-.45c.6-1.52,1.59-2.72,2.97-3.6,1.39-.88,2.9-1.32,4.54-1.32.98,0,1.87.19,2.66.56.79.37,1.43.88,1.92,1.52.49.64.78,1.38.87,2.21l-.27.27c.63-1.49,1.61-2.62,2.95-3.4,1.34-.77,2.79-1.16,4.34-1.16,1.67,0,2.99.48,3.98,1.45.98.97,1.49,2.23,1.52,3.78v12.74h-2.1v-12.29c-.03-1.04-.36-1.93-.98-2.66-.62-.73-1.58-1.12-2.86-1.18-1.16,0-2.23.3-3.22.89-.98.6-1.78,1.39-2.39,2.37-.61.98-.95,2.09-1.01,3.31v9.57h-2.1v-12.29c-.03-1.04-.37-1.93-1.01-2.66-.64-.73-1.6-1.12-2.88-1.18-1.19,0-2.29.3-3.29.89-1,.6-1.8,1.41-2.39,2.44-.6,1.03-.89,2.17-.89,3.42v9.39h-2.1v-17.48h1.83Z" style="fill: #fff; stroke-width: 0px;"/>
        <path d="m213.63,78.4c-1.82,0-3.43-.4-4.83-1.21-1.4-.8-2.5-1.9-3.29-3.29-.79-1.39-1.18-2.94-1.18-4.67s.42-3.25,1.25-4.65c.83-1.4,1.96-2.52,3.37-3.35,1.42-.83,2.99-1.25,4.72-1.25,2.09,0,3.84.61,5.25,1.83,1.42,1.22,2.44,2.82,3.06,4.78l-15.29,5.9-.63-1.52,13.99-5.45-.45.63c-.51-1.19-1.27-2.22-2.3-3.08-1.03-.86-2.29-1.3-3.78-1.3-1.34,0-2.55.33-3.62.98-1.07.66-1.93,1.54-2.57,2.64-.64,1.1-.96,2.35-.96,3.75,0,1.31.3,2.53.92,3.67.61,1.13,1.47,2.04,2.57,2.73,1.1.69,2.37,1.03,3.8,1.03.95,0,1.87-.18,2.75-.54.88-.36,1.66-.82,2.35-1.39l1.07,1.52c-.83.66-1.8,1.19-2.88,1.61s-2.2.63-3.33.63Z" style="fill: #fff; stroke-width: 0px;"/>
        <path d="m231.91,78.4c-1.01,0-2.07-.19-3.17-.56-1.1-.37-2-.98-2.68-1.81l.98-1.39c.6.63,1.3,1.12,2.12,1.5.82.37,1.69.56,2.61.56.69,0,1.33-.1,1.94-.29.61-.19,1.11-.53,1.5-1.01.39-.48.58-1.12.58-1.92s-.23-1.48-.69-1.92c-.46-.45-1.04-.81-1.74-1.1-.7-.28-1.44-.54-2.21-.78-1.28-.42-2.33-.98-3.15-1.7-.82-.71-1.23-1.73-1.23-3.04,0-.95.23-1.79.69-2.5.46-.71,1.1-1.27,1.9-1.68.8-.4,1.71-.6,2.73-.6.92,0,1.84.15,2.75.45.91.3,1.74.8,2.48,1.52l-.94,1.47c-.48-.65-1.11-1.1-1.9-1.34-.79-.24-1.48-.37-2.08-.4-.51,0-1.04.1-1.59.31-.55.21-1.01.51-1.39.92-.37.4-.56.93-.56,1.59s.19,1.24.58,1.68c.39.43.89.78,1.5,1.05.61.27,1.24.52,1.9.76.86.27,1.68.59,2.44.96s1.39.86,1.88,1.48c.49.61.74,1.42.74,2.44s-.22,1.93-.67,2.75c-.45.82-1.11,1.46-1.99,1.92-.88.46-1.99.69-3.33.69Z" style="fill: #fff; stroke-width: 0px;"/>
      </g>
      <g>
        <path d="m124.74,2.5c3.17,0,5.86.53,8.05,1.6,2.2,1.06,3.87,2.56,5.02,4.5,1.15,1.94,1.73,4.23,1.73,6.88,0,1.57-.24,3.15-.71,4.73-.47,1.59-1.22,3.03-2.25,4.31-1.03,1.29-2.41,2.33-4.13,3.11s-3.84,1.18-6.35,1.18h-5.44v12.19h-7.58V2.5h11.66Zm1.31,18.93c1.15,0,2.11-.2,2.88-.6.77-.4,1.37-.91,1.8-1.52.44-.61.75-1.25.94-1.91.19-.66.29-1.24.29-1.73,0-.38-.06-.9-.18-1.54-.12-.64-.38-1.3-.76-1.96-.38-.66-.97-1.22-1.75-1.67-.78-.45-1.84-.68-3.16-.68h-5.44v11.61h5.39Z" style="fill: #fff; stroke-width: 0px;"/>
        <path d="m138.07,41L155.44.98h.42l17.36,40.01h-8.79l-11.09-28.14,5.49-3.77-13.28,31.9h-7.48Zm11.87-13.91h11.56l2.67,6.38h-16.58l2.35-6.38Z" style="fill: #fff; stroke-width: 0px;"/>
        <path d="m190.48,2.5c2.41,0,4.55.31,6.43.92,1.88.61,3.46,1.48,4.73,2.61,1.27,1.13,2.24,2.49,2.9,4.08.66,1.59.99,3.37.99,5.36,0,1.57-.24,3.14-.71,4.71s-1.24,3-2.3,4.29c-1.06,1.29-2.47,2.33-4.21,3.11s-3.9,1.18-6.48,1.18h-5.44v12.24h-7.58V2.5h11.66Zm1.31,18.93c1.15,0,2.11-.19,2.88-.58.77-.38,1.37-.87,1.8-1.46.44-.59.75-1.21.94-1.86.19-.65.29-1.25.29-1.8,0-.42-.06-.95-.18-1.6-.12-.64-.38-1.3-.76-1.96-.38-.66-.97-1.22-1.75-1.67-.79-.45-1.84-.68-3.16-.68h-5.44v11.61h5.39Zm7.11,4.71l9.52,14.85h-8.84l-9.73-14.64,9.05-.21Z" style="fill: #fff; stroke-width: 0px;"/>
        <path d="m211.3,2.5h25.94v7.32h-9.36v31.17h-7.58V9.82h-9V2.5Z" style="fill: #fff; stroke-width: 0px;"/>
        <path d="m254.55,29.02l-14.17-26.52h9.36l9.94,19.98-2.25.16,9.78-20.14h9.36l-14.44,26.52v11.98h-7.58v-11.98Z" style="fill: #fff; stroke-width: 0px;"/>
      </g>
      <g>
        <path d="m23.48.46c-5.81,1.52-10.14,5.88-11.73,11.81-.56,2.12-.56,5.75.02,7.89.84,3.13,2.32,5.58,4.78,7.91,1.33,1.26,1.97,1.71,3.71,2.55,2.92,1.44,4.12,1.72,7.37,1.71,2.29-.02,2.83-.07,4.27-.51,5.85-1.78,9.99-6.11,11.41-11.9.54-2.21.52-5.51-.02-7.63-1.54-5.88-6.22-10.51-12.01-11.9-2.29-.54-5.51-.51-7.8.07Z" style="fill: #fff; stroke-width: 0px;"/>
        <path d="m64.33.46c-9.01,2.38-14.26,11.9-11.39,20.67,1.12,3.43,3.39,6.47,6.32,8.47,1.27.86,3.73,1.99,5.29,2.38,1.84.49,5.87.47,7.68,0,2.87-.77,5.15-2.02,7.16-3.94,2.42-2.27,3.94-4.82,4.76-7.89.58-2.12.58-5.75.02-7.89-1.29-4.87-4.29-8.55-8.75-10.68-2.46-1.18-3.5-1.42-6.65-1.5-2.4-.07-2.9-.02-4.42.37Z" style="fill: #fff; stroke-width: 0px;"/>
        <path d="m16.94,33.65c-3.9.62-8,2.81-11.04,5.87-2.94,2.96-4.91,6.65-5.64,10.57C.01,51.4-.03,53.24.01,61.44l.06,9.8,1.31.45c3.28,1.11,9.31,2.57,12.86,3.11,1.39.21,2.81.45,3.17.56.96.24,4.46.52,8.3.67l3.32.11v-4.1c0-5.62.34-7.52,1.76-10.2,1.65-3.05,4.78-5.68,8.32-6.95l1.18-.41-.92-.96c-1.71-1.78-2.77-4.03-3.22-6.78-.52-3.26.86-7.2,3.47-9.84.62-.62,1.39-1.29,1.72-1.5.34-.22.62-.45.62-.52,0-.22-3-1.14-4.4-1.33-2.02-.28-18.78-.21-20.62.09Z" style="fill: #fff; stroke-width: 0px;"/>
        <path d="m57.89,33.65c-1.54.28-3.94,1.03-3.94,1.24,0,.07.54.54,1.2,1.01,1.05.77,2.44,2.38,3.34,3.84,1.12,1.84,1.59,5.79,1.01,8.34-.43,1.82-1.5,3.88-2.7,5.17-.96,1.03-1.11,1.48-.51,1.48.43,0,3.35,1.41,4.29,2.06,1.18.79,2.9,2.51,3.65,3.62.77,1.14,1.95,3.67,2.29,4.91.15.6.28,2.7.34,5.81l.11,4.87,3.28-.04c6.95-.07,15.2-1.52,23.9-4.14l1.69-.52.06-9.63c.06-10.66,0-11.56-.99-14.28-1.05-2.92-1.93-4.44-3.82-6.71-3.13-3.73-7.97-6.47-12.63-7.1-2.21-.32-18.76-.24-20.56.07Z" style="fill: #fff; stroke-width: 0px;"/>
        <path d="m45.98,35.41c-3.92.86-6.82,3.65-7.82,7.53-.69,2.81-.19,5.57,1.48,8.1,2.08,3.11,6.02,4.85,9.76,4.29,5.77-.88,9.69-6.58,8.38-12.2-1.07-4.54-4.76-7.61-9.37-7.8-.92-.04-2.02,0-2.44.07Z" style="fill: #fff; stroke-width: 0px;"/>
        <path d="m41.77,55.97c-.26.06-1.18.32-2.04.58-3.77,1.18-7.1,4.5-8.4,8.38l-.52,1.52-.06,6.5c-.06,6.11-.04,6.5.28,6.67,1.05.56,8.08,2.08,11.86,2.59,2.83.37,8.88.43,11.43.09,3.69-.47,9.18-1.93,10.46-2.75l.43-.28-.06-6.41-.07-6.41-.58-1.67c-1.35-3.84-4.39-6.88-8.23-8.23l-1.67-.58-6.18-.04c-3.39-.02-6.39,0-6.65.04Z" style="fill: #fff; stroke-width: 0px;"/>
      </g>
    </g>
  </g>
</svg>