<?xml version="1.0" encoding="UTF-8"?>
<svg id="Calque_2" data-name="Calque 2" xmlns="http://www.w3.org/2000/svg" viewBox="0 0 336.65 82.64">
  <g id="svg19">
    <g>
      <g>
        <path d="m113.22,7.28c-.99-.48-2.2-.92-3.63-1.34-1.43-.41-2.86-.62-4.29-.62-2.23,0-4.01.56-5.34,1.67-1.34,1.11-2,2.51-2,4.2,0,1.27.38,2.33,1.15,3.17.76.84,1.77,1.56,3.01,2.15,1.24.59,2.56,1.15,3.96,1.69,1.11.41,2.22.88,3.32,1.38s2.09,1.13,2.98,1.86c.89.73,1.6,1.64,2.12,2.72.52,1.08.79,2.42.79,4.01,0,1.88-.45,3.54-1.34,4.99-.89,1.45-2.13,2.57-3.72,3.36-1.59.79-3.44,1.19-5.54,1.19-1.69,0-3.22-.21-4.6-.62s-2.59-.9-3.63-1.46c-1.03-.56-1.85-1.03-2.46-1.41l1.1-1.91c.7.51,1.55,1.02,2.55,1.53,1,.51,2.09.94,3.27,1.29,1.18.35,2.35.53,3.53.53,1.37,0,2.7-.27,3.98-.81,1.29-.54,2.35-1.36,3.2-2.46.84-1.1,1.26-2.49,1.26-4.18s-.4-2.93-1.19-3.94c-.8-1-1.81-1.82-3.05-2.46-1.24-.64-2.56-1.21-3.96-1.72-1.08-.41-2.16-.85-3.25-1.31-1.08-.46-2.07-1.02-2.96-1.67-.89-.65-1.6-1.44-2.12-2.36-.52-.92-.79-2.04-.79-3.34,0-1.62.41-3.04,1.24-4.25.83-1.21,1.95-2.16,3.36-2.84,1.42-.68,3.03-1.04,4.84-1.07,1.59,0,3.2.21,4.84.62,1.64.41,3.06.94,4.27,1.58l-.91,1.81Z" style="fill: #fff; stroke-width: 0px;"/>
        <path d="m128.73,37.87c-1.75,0-3.15-.52-4.2-1.55-1.05-1.03-1.61-2.38-1.67-4.03v-13.6h2.24v12.93c.06,1.21.45,2.21,1.17,3.01.72.8,1.79,1.22,3.22,1.29,1.21,0,2.34-.32,3.39-.95,1.05-.64,1.9-1.5,2.55-2.6.65-1.1.98-2.35.98-3.75v-9.93h2.24v18.66h-2l-.24-5.87.33,1.29c-.32.96-.88,1.82-1.69,2.6-.81.78-1.77,1.39-2.86,1.84-1.1.44-2.25.67-3.46.67Z" style="fill: #fff; stroke-width: 0px;"/>
        <path d="m149.11,18.69l.24,5.73-.29-.72c.41-1.15,1.07-2.13,1.96-2.96.89-.83,1.88-1.46,2.98-1.91s2.15-.67,3.17-.67l-.1,2.2c-1.43,0-2.73.32-3.89.95-1.16.64-2.08,1.49-2.77,2.55-.68,1.07-1.03,2.27-1.03,3.6v9.88h-2.24v-18.66h1.96Z" style="fill: #fff; stroke-width: 0px;"/>
        <path d="m170.01,38.06l-9.45-19.37h2.62l7.78,16.94-1.38-.05,7.49-16.89h2.48l-9.26,19.37h-.29Z" style="fill: #fff; stroke-width: 0px;"/>
        <path d="m184.66,11.82c0-.45.17-.82.53-1.12.35-.3.73-.45,1.15-.45.44,0,.83.15,1.14.45s.48.68.48,1.12c0,.48-.16.87-.48,1.17-.32.3-.7.45-1.14.45-.41,0-.8-.16-1.15-.48-.35-.32-.53-.7-.53-1.15Zm.48,6.87h2.24v18.66h-2.24v-18.66Z" style="fill: #fff; stroke-width: 0px;"/>
        <path d="m202.41,38.06l-9.45-19.37h2.62l7.78,16.94-1.38-.05,7.49-16.89h2.48l-9.26,19.37h-.29Z" style="fill: #fff; stroke-width: 0px;"/>
        <path d="m224.64,37.73c-1.78,0-3.4-.41-4.84-1.22-1.45-.81-2.59-1.95-3.44-3.41-.84-1.46-1.26-3.17-1.26-5.11,0-2.07.45-3.84,1.34-5.32.89-1.48,2.1-2.61,3.63-3.39,1.53-.78,3.26-1.17,5.2-1.17,1.65,0,3.22.49,4.7,1.48,1.48.99,2.54,2.23,3.17,3.72l-.33.67.29-5.3h2v18.66h-2.24v-5.77l.48.86c-.22.64-.6,1.26-1.14,1.88-.54.62-1.2,1.19-1.98,1.72-.78.53-1.64.94-2.58,1.24-.94.3-1.93.45-2.98.45Zm.48-1.91c1.4,0,2.66-.29,3.79-.88s2.04-1.41,2.74-2.46c.7-1.05,1.1-2.26,1.19-3.63v-2.67c-.26-1.18-.76-2.23-1.5-3.15-.75-.92-1.66-1.65-2.74-2.2-1.08-.54-2.26-.81-3.53-.81-1.4,0-2.69.33-3.87.98-1.18.65-2.12,1.57-2.82,2.74-.7,1.18-1.05,2.56-1.05,4.15,0,1.46.35,2.79,1.05,3.98.7,1.19,1.65,2.15,2.84,2.86,1.19.72,2.49,1.07,3.89,1.07Z" style="fill: #fff; stroke-width: 0px;"/>
        <path d="m243.59,1.08h2.24v36.27h-2.24V1.08Z" style="fill: #fff; stroke-width: 0px;"/>
      </g>
      <g>
        <path d="m127.46,41.76v40.44h-7.97v-16.43h-18.08v16.43h-7.97v-40.44h7.97v16.32h18.08v-16.32h7.97Z" style="fill: #fff; stroke-width: 0px;"/>
        <path d="m135.43,62.04c0-2.78.53-5.42,1.59-7.91,1.06-2.49,2.54-4.7,4.42-6.62,1.89-1.92,4.07-3.43,6.57-4.53,2.49-1.1,5.17-1.65,8.02-1.65s5.48.55,7.97,1.65c2.49,1.1,4.7,2.61,6.62,4.53s3.42,4.13,4.51,6.62c1.08,2.49,1.62,5.13,1.62,7.91s-.54,5.53-1.62,8.02c-1.08,2.49-2.58,4.68-4.51,6.57s-4.13,3.36-6.62,4.42c-2.49,1.06-5.15,1.59-7.97,1.59s-5.53-.53-8.02-1.59c-2.49-1.06-4.68-2.54-6.57-4.42-1.89-1.89-3.36-4.08-4.42-6.57-1.06-2.49-1.59-5.17-1.59-8.02Zm8.24,0c0,1.8.32,3.47.96,5.03.64,1.56,1.54,2.93,2.69,4.12,1.15,1.19,2.49,2.12,4.01,2.78,1.52.66,3.18.99,4.97.99s3.32-.33,4.81-.99c1.48-.66,2.77-1.58,3.87-2.78,1.1-1.19,1.96-2.56,2.58-4.12.62-1.56.93-3.23.93-5.03s-.32-3.53-.96-5.11c-.64-1.57-1.52-2.96-2.64-4.15-1.12-1.19-2.43-2.12-3.93-2.78-1.5-.66-3.13-.99-4.89-.99s-3.39.33-4.89.99c-1.5.66-2.82,1.58-3.96,2.78-1.14,1.19-2.02,2.57-2.64,4.15-.62,1.58-.93,3.28-.93,5.11Z" style="fill: #fff; stroke-width: 0px;"/>
        <path d="m196.97,41.76c2.53,0,4.78.32,6.76.96,1.98.64,3.63,1.56,4.97,2.75,1.34,1.19,2.35,2.62,3.05,4.29.7,1.67,1.04,3.54,1.04,5.63,0,1.65-.25,3.3-.74,4.95-.49,1.65-1.3,3.15-2.42,4.51-1.12,1.36-2.59,2.45-4.42,3.27-1.83.82-4.1,1.24-6.81,1.24h-5.71v12.86h-7.97v-40.44h12.25Zm1.37,19.89c1.21,0,2.22-.2,3.02-.6.81-.4,1.44-.92,1.9-1.54s.79-1.27.99-1.95c.2-.68.3-1.31.3-1.9,0-.44-.06-1-.19-1.68-.13-.68-.39-1.36-.8-2.06-.4-.7-1.02-1.28-1.84-1.76-.82-.48-1.93-.71-3.32-.71h-5.71v12.2h5.66Zm7.47,4.95l10,15.61h-9.29l-10.22-15.39,9.51-.22Z" style="fill: #fff; stroke-width: 0px;"/>
        <path d="m234.67,41.76c2.53,0,4.78.32,6.76.96,1.98.64,3.63,1.56,4.97,2.75,1.34,1.19,2.35,2.62,3.05,4.29.7,1.67,1.04,3.54,1.04,5.63,0,1.65-.25,3.3-.74,4.95-.49,1.65-1.3,3.15-2.42,4.51-1.12,1.36-2.59,2.45-4.42,3.27-1.83.82-4.1,1.24-6.81,1.24h-5.71v12.86h-7.97v-40.44h12.25Zm1.37,19.89c1.21,0,2.22-.2,3.02-.6.81-.4,1.44-.92,1.9-1.54s.79-1.27.99-1.95c.2-.68.3-1.31.3-1.9,0-.44-.06-1-.19-1.68-.13-.68-.39-1.36-.8-2.06-.4-.7-1.02-1.28-1.84-1.76-.82-.48-1.93-.71-3.32-.71h-5.71v12.2h5.66Zm7.47,4.95l10,15.61h-9.29l-10.22-15.39,9.51-.22Z" style="fill: #fff; stroke-width: 0px;"/>
        <path d="m256.26,62.04c0-2.78.53-5.42,1.59-7.91,1.06-2.49,2.54-4.7,4.42-6.62,1.89-1.92,4.08-3.43,6.57-4.53s5.17-1.65,8.02-1.65,5.48.55,7.97,1.65,4.7,2.61,6.62,4.53c1.92,1.92,3.42,4.13,4.51,6.62,1.08,2.49,1.62,5.13,1.62,7.91s-.54,5.53-1.62,8.02c-1.08,2.49-2.58,4.68-4.51,6.57-1.92,1.89-4.13,3.36-6.62,4.42-2.49,1.06-5.15,1.59-7.97,1.59s-5.53-.53-8.02-1.59c-2.49-1.06-4.68-2.54-6.57-4.42-1.89-1.89-3.36-4.08-4.42-6.57s-1.59-5.17-1.59-8.02Zm8.24,0c0,1.8.32,3.47.96,5.03.64,1.56,1.54,2.93,2.69,4.12,1.15,1.19,2.49,2.12,4.01,2.78,1.52.66,3.18.99,4.97.99s3.32-.33,4.81-.99c1.48-.66,2.78-1.58,3.87-2.78,1.1-1.19,1.96-2.56,2.58-4.12.62-1.56.93-3.23.93-5.03s-.32-3.53-.96-5.11c-.64-1.57-1.52-2.96-2.64-4.15-1.12-1.19-2.43-2.12-3.93-2.78-1.5-.66-3.13-.99-4.89-.99s-3.39.33-4.89.99c-1.5.66-2.82,1.58-3.96,2.78s-2.01,2.57-2.64,4.15c-.62,1.58-.93,3.28-.93,5.11Z" style="fill: #fff; stroke-width: 0px;"/>
        <path d="m317.8,41.76c2.53,0,4.78.32,6.76.96,1.98.64,3.63,1.56,4.97,2.75,1.34,1.19,2.35,2.62,3.05,4.29.7,1.67,1.04,3.54,1.04,5.63,0,1.65-.25,3.3-.74,4.95-.49,1.65-1.3,3.15-2.42,4.51-1.12,1.36-2.59,2.45-4.42,3.27-1.83.82-4.1,1.24-6.81,1.24h-5.71v12.86h-7.97v-40.44h12.25Zm1.37,19.89c1.21,0,2.22-.2,3.02-.6.81-.4,1.44-.92,1.9-1.54s.79-1.27.99-1.95c.2-.68.3-1.31.3-1.9,0-.44-.06-1-.19-1.68-.13-.68-.39-1.36-.8-2.06-.4-.7-1.02-1.28-1.84-1.76-.82-.48-1.93-.71-3.32-.71h-5.71v12.2h5.66Zm7.47,4.95l10,15.61h-9.29l-10.22-15.39,9.51-.22Z" style="fill: #fff; stroke-width: 0px;"/>
      </g>
      <g id="g1">
        <g>
          <path d="m19.39,16.5l-3.62.05c.2-.04.4-.06.61-.06h.75v-7.08c0-6.71.02-7.12.33-7.78.18-.38.6-.89.93-1.13.58-.41.74-.43,3.4-.49,1.54-.03,3.05,0,3.36.05.73.14,1.2.65,1.2,1.28,0,.74-.15,1.03-.68,1.31-.46.25-.47.3-.47,1.54v1.28h1.06c.87,0,1.1.06,1.29.34.56.83-.29,2.29-1.46,2.5-.99.17-1.01.19-1.12.83-.13.72-1.14,1.74-1.89,1.92l-.51.12v5.3h.81c.52,0,.81.07,1.1.27-.52-.29-1.55-.31-5.09-.26Z" style="fill: #fff; stroke-width: 0px;"/>
          <path d="m59.15,16.57l-4.03.02c.25-.07.52-.11.8-.11h.75v-7.08c0-6.71.02-7.12.33-7.78.18-.38.6-.89.93-1.13.58-.41.74-.43,3.4-.49,1.54-.03,3.05,0,3.36.05.73.14,1.2.65,1.2,1.28,0,.74-.15,1.03-.68,1.31l-.47.26v2.7c0,1.49-.08,3.01-.18,3.39-.23.88-1.03,1.76-1.83,2.01l-.62.19v5.27h.81c.49,0,.77.06,1.04.24-.03-.01-.07-.02-.1-.04-.24-.08-2.35-.13-4.7-.12Z" style="fill: #fff; stroke-width: 0px;"/>
          <path d="m.92,53.82c.82-1.01,1.71-1.44,3.14-1.54,1.07-.07,1.19-.12,1.28-.49.1-.42.85-.93,1.37-.93.43,0,1.03.48,1.2.96.13.36.26.41.95.41,1.78,0,3.12.78,3.92,2.28.46.87.48.99.48,3.11s0,2.21-.46,2.62c-.95.85-2.26.24-2.26-1.05v-.62l-.43.36c-.59.48-1.3.46-1.8-.07-.37-.39-.4-.55-.4-2.06v-1.64h-2.44l-.06,1.65c-.05,1.56-.08,1.67-.52,2.06-.52.47-1.2.53-1.71.16-.33-.24-.35-.23-.45.34-.21,1.19-1.54,1.69-2.33.87C.02,59.85,0,59.72,0,57.8c0-2.43.14-3.03.92-3.98Z" style="fill: #fff; stroke-width: 0px;"/>
          <path d="m48.02,24.38c-.18-.19-.33-.46-.33-.6,0-.21-.26-.26-1.36-.26-1.34,0-1.36,0-1.64.52-.26.47-.71.82-.86.66-.03-.04-.11-.63-.18-1.31l-.12-1.25h5.31v1.29c0,1.41-.18,1.62-.82.95Z" style="fill: #fff; stroke-width: 0px;"/>
          <g>
            <path d="m37.38,39.49c0,.37.13.73.33.95.49.51,1.37.46,1.8-.11.45-.6.43-1.19-.06-1.7-.82-.86-2.07-.34-2.07.87Z" style="fill: none; stroke-width: 0px;"/>
            <path d="m37.38,46.16c0,.31.13.62.33.8.49.43,1.37.39,1.8-.09.45-.51.43-1-.06-1.44-.82-.72-2.07-.28-2.07.73Z" style="fill: none; stroke-width: 0px;"/>
            <path d="m71,39.83s-.07-.06-.1-.09c-.29-.17-.71-.27-1.26-.31-.25,0-.56,0-.94,0-.17,0-.34,0-.5,0-2.29.11-3.81.69-5.08,1.94l-.8.78-.13-.13-.02.02-.72-.7c-.7-.67-1.51-1.17-2.41-1.49,0,0,0,0-.01,0-.05-.02-.1-.03-.15-.05-.28-.09-.57-.15-.85-.18l-.94-.12v-.11s0,0,0,0v-.29l-.04-1.6-.05-2,1.94-.07c1.65-.06,2.08-.14,2.87-.52.52-.25,1.01-.59,1.43-1,.49-.5.9-1.1,1.19-1.74l.4-.91.05-6.97c.04-5.44.04-7.07-.25-7.65l-.18-.16c-.08-.07-.15-.13-.23-.18-.03-.01-.07-.02-.1-.04-.24-.08-2.35-.13-4.7-.12l-4.03.02c-.12.03-.23.07-.33.11l-.29.35c-.37.45-.38.55-.38,4.06v3.6h-.09v.02h-3.26c-.56.03-.6.12-.6.34,0,.66-.54,1.55-1.21,2.02l-.66.46-4.01-.06c-2.2-.03-4.01,0-4.01.05s.11.38.25.73c.46,1.14.5,2.34.1,3.19-.88,1.91-3.48,2.03-4.49.21-.16-.29-.34-.98-.4-1.55-.25-2.29-1.32-3.96-3.07-4.81l-.86-.42h3.64c3.51,0,3.66-.02,4.2-.39.72-.51,1.3-1.42,1.3-2.04,0-.48-.02-.49-.93-.49-.69,0-1.11-.11-1.63-.42-.99-.6-1.23-1.25-1.23-3.26v-1.65h.78c1.5.01,2.64.9,2.93,2.28.08.4.17.47.46.38.48-.15.93-.72.93-1.19,0-.21.05-.63.1-.92.09-.48.05-.55-.47-.78-.71-.31-.95-.94-.95-2.51,0-1.35.21-2.2.61-2.52.36-.29,2.55-.33,3.06-.05.64.34,1.25,1.05,1.45,1.67l.19.6.21-.64c.27-.81.67-1.29,1.35-1.59.81-.36,1.49-.29,1.95.19l.39.41c-.04-2.16-.13-2.41-.37-2.95-.18-.41-.38-.77-.6-1.11-.17-.21-.35-.43-.57-.65-.37-.39-.69-.68-1.02-.91-.33-.2-.69-.37-1.08-.51-.64-.19-1.46-.26-2.69-.32-3.01-.13-4.8.13-6.32.91-2.17,1.12-3.81,3.29-4.29,5.71-.1.5-.18,2.34-.18,4.08v3.17h-2.86c-3.66,0-3.64,0-3.64,2.12,0,1.63.2,2.09,1.23,2.82l.54.39h-.46l.02.02h-2.64v-.02h-.09v-3.66c0-3.36-.02-3.68-.31-4.01l-.16-.14c-.06-.05-.12-.1-.18-.14-.52-.29-1.55-.31-5.09-.26l-3.62.05c-.19.04-.36.09-.52.16l-.27.33-.4.48v18.54c0,20.02-.04,19.03.84,18.89.28-.04.43-.27.65-.97,0-.03.02-.05.03-.08.01-.03.02-.06.03-.09.62-1.77,1.99-2.82,3.74-2.82s3.36,1.24,3.87,3.08c.24.87.28.91.82.91h.56v6.1l-4.85,5.08c-3.77,3.94-4.94,5.27-5.23,5.93-.35.8-.38,1.13-.43,4.56-.05,3.61-.04,3.71.34,4.46.27.53.61.89,1.11,1.16.22.12.37.21.68.26.9.07,2.72.09,6.76.11,1.28,0,2.33.01,3.21.02,4.09,0,4.24-.06,4.85-.38.32-.17.58-.36.79-.57.86-.98.92-2.55.11-4.27-.13-.28-.28-.55-.44-.79-.16-.2-.34-.41-.54-.62-.45-.47-.92-.84-1.38-1.11-.41-.21-.86-.37-1.36-.49-.09,0-.17-.02-.25-.02-.35,0-.58-.02-.6-.17l-.38-.08,3.61-3.77c3.16-3.29,4.1-4.21,4.41-5.92.06-.59.08-1.52.1-3.25.03-2.01.1-3.65.17-3.65s1.84,1.8,3.94,4l3.83,4v14.92l.41.73c.27.49.65.85,1.12,1.09.22.11.41.19.74.24.82.06,2.34.07,5.35.09,1.23,0,2.2.02,2.99.02,2.94-.01,3.15-.08,3.72-.38h0c.57-.3.95-.66,1.19-1.13.18-.41.27-.9.26-1.5-.04-1.76-.96-3.4-2.34-4.4-.64-.41-1.42-.7-2.44-.92-.39-.08-.45-.18-.45-.67s.08-.61.5-.79c.02,0,.03-.01.05-.02.02-.01.04-.03.06-.04.32-.21.56-.53.68-.92.02-.14.03-.3.03-.48v-.63l.51.45c.58.51.81.54,1.46.19.02-.01.04-.02.06-.03.05-.03.1-.07.14-.11.19-.17.3-.28.37-.48.09-.32.1-.82.1-1.71v-1.53h2.64v1.56c0,1.5.02,1.58.48,2.06.26.28.6.5.75.5.22,0,.61-.17.9-.36l.33-.27s.05-.07.06-.1c.05-.12.09.08.1.44,0,.49.14.79.49,1.16.25.26.55.47.71.5.06,0,.13,0,.19-.01.21-.04.46-.16.67-.3.03-.03.07-.05.1-.08.24-.22.36-.32.41-.68.02-.25.04-.64.05-1.09,0-.24,0-.52,0-.84,0-.51,0-.9,0-1.22-.02-.43-.05-.77-.11-1.07-.07-.27-.18-.49-.36-.83-.41-.77-.96-1.35-1.64-1.73-.52-.26-1.14-.42-1.93-.5-.18-.02-.34-.03-.47-.05-.59,0-.71-.08-.83-.41,0-.01-.01-.03-.02-.04-.01-.02-.02-.04-.03-.07-.11-.22-.3-.43-.51-.59-.55-.32-1.33-.15-1.75.52-.15.25-.26.38-.48.47-.09.05-.23.08-.45.11-.15.02-.33.04-.56.06-.72.07-1.44.27-1.92.52l-.77.41-.05-1.92c-.02-.57-.04-1.03-.09-1.44-.27-1.49-1.01-2.38-3.62-5.12l-2.8-2.94.2-.51c.01-.33.25-.63.61-1.12,1.95-2.67,6.06-1.78,6.98,1.52.23.82.3.91.72.91.16,0,.31-.04.42-.11.02-.02.04-.05.05-.07.04-.07.08-.15.11-.26.04-.57.08-2.44.08-4.55v-4.46h1.57c1.45,0,1.6.03,1.98.42.22.23.4.62.4.87,0,.51.8,1.46,1.23,1.46.33,0,.72-.2.99-.45.21-.23.37-.54.43-.92.07-.43.17-.73.39-.94.08-.13.17-.22.27-.27.16-.09,1.01-.17,1.88-.17,1.01,0,1.69-.09,2.12-.28.04-.03.08-.07.12-.11.36-.33.52-.85.44-1.33-.05-.25-.15-.49-.3-.66l-.34-.38h1.09c.74,0,1.27-.09,1.62-.29.04-.03.08-.06.12-.1.26-.24.42-.54.46-.85,0-.08.01-.17.01-.26-.02-.36-.17-.72-.47-.99Zm-31.49,7.04c-.43.48-1.31.52-1.8.09-.2-.18-.33-.48-.33-.8,0-1.01,1.24-1.45,2.07-.73.49.43.52.93.06,1.44Zm0-6.54c-.43.57-1.31.62-1.8.11-.2-.21-.33-.57-.33-.95,0-1.2,1.24-1.73,2.07-.87.49.52.52,1.1.06,1.7Z" style="fill: #fff; stroke-width: 0px;"/>
          </g>
        </g>
      </g>
    </g>
  </g>
</svg>