<?xml version="1.0" encoding="UTF-8"?>
<svg id="Calque_2" data-name="Calque 2" xmlns="http://www.w3.org/2000/svg" viewBox="0 0 368.72 80.57">
  <g id="svg19">
    <g>
      <g>
        <path d="m117.39,6.2c-.99-.48-2.2-.92-3.63-1.34-1.43-.41-2.86-.62-4.29-.62-2.23,0-4.01.56-5.34,1.67-1.34,1.11-2,2.51-2,4.2,0,1.27.38,2.33,1.14,3.17.76.84,1.77,1.56,3.01,2.15,1.24.59,2.56,1.15,3.96,1.69,1.11.41,2.22.88,3.32,1.38,1.1.51,2.09,1.13,2.98,1.86.89.73,1.6,1.64,2.12,2.72.52,1.08.79,2.42.79,4.01,0,1.88-.45,3.54-1.34,4.99-.89,1.45-2.13,2.57-3.72,3.36-1.59.8-3.44,1.19-5.54,1.19-1.69,0-3.22-.21-4.61-.62-1.38-.41-2.59-.9-3.63-1.46-1.03-.56-1.85-1.03-2.46-1.41l1.1-1.91c.7.51,1.55,1.02,2.55,1.53,1,.51,2.09.94,3.27,1.29,1.18.35,2.35.52,3.53.52,1.37,0,2.7-.27,3.98-.81,1.29-.54,2.35-1.36,3.2-2.46.84-1.1,1.26-2.49,1.26-4.18s-.4-2.93-1.19-3.94c-.8-1-1.81-1.82-3.05-2.46-1.24-.64-2.56-1.21-3.96-1.72-1.08-.41-2.16-.85-3.25-1.31-1.08-.46-2.07-1.02-2.96-1.67-.89-.65-1.6-1.44-2.12-2.36-.52-.92-.79-2.04-.79-3.34,0-1.62.41-3.04,1.24-4.25s1.95-2.16,3.36-2.84c1.42-.68,3.03-1.04,4.84-1.07,1.59,0,3.21.21,4.84.62,1.64.41,3.06.94,4.27,1.57l-.91,1.81Z" style="fill: #fff; stroke-width: 0px;"/>
        <path d="m137.34,36.65c-1.78,0-3.45-.47-5.01-1.41-1.56-.94-2.7-2.15-3.44-3.65l.38-.81v14.46h-2.24v-27.77h2l.24,6.11-.43-1.38c.83-1.5,2.04-2.73,3.63-3.7,1.59-.97,3.32-1.46,5.2-1.46,1.78,0,3.39.43,4.82,1.29s2.57,2.03,3.41,3.51c.84,1.48,1.26,3.17,1.26,5.08s-.44,3.56-1.31,5.03c-.88,1.48-2.05,2.63-3.53,3.46-1.48.83-3.14,1.24-4.99,1.24Zm-.38-1.86c1.46,0,2.79-.35,3.99-1.05,1.19-.7,2.15-1.65,2.86-2.84.72-1.19,1.07-2.52,1.07-3.98s-.35-2.84-1.05-4.03-1.63-2.14-2.79-2.84c-1.16-.7-2.47-1.05-3.94-1.05s-2.67.32-3.82.95c-1.14.64-2.07,1.5-2.77,2.58-.7,1.08-1.11,2.31-1.24,3.67v1.53c.1,1.3.5,2.5,1.22,3.58.71,1.08,1.64,1.93,2.77,2.55,1.13.62,2.36.93,3.7.93Z" style="fill: #fff; stroke-width: 0px;"/>
        <path d="m152.04,26.82c0-1.81.44-3.47,1.31-4.96.87-1.5,2.07-2.68,3.58-3.56,1.51-.87,3.21-1.31,5.08-1.31s3.61.44,5.11,1.31c1.5.88,2.67,2.06,3.53,3.56.86,1.5,1.29,3.15,1.29,4.96s-.43,3.47-1.29,4.96c-.86,1.5-2.04,2.68-3.55,3.55-1.51.88-3.21,1.31-5.08,1.31s-3.61-.42-5.11-1.26c-1.5-.84-2.68-2-3.55-3.48-.88-1.48-1.31-3.17-1.31-5.08Zm2.24.05c0,1.46.34,2.79,1.03,3.98.68,1.19,1.61,2.14,2.77,2.84,1.16.7,2.46,1.05,3.89,1.05s2.73-.35,3.89-1.05c1.16-.7,2.08-1.65,2.77-2.84.68-1.19,1.03-2.52,1.03-3.98s-.34-2.79-1.03-3.98c-.68-1.19-1.61-2.15-2.77-2.86-1.16-.72-2.46-1.07-3.89-1.07s-2.78.37-3.94,1.12c-1.16.75-2.08,1.73-2.74,2.93-.67,1.21-1,2.5-1,3.87Z" style="fill: #fff; stroke-width: 0px;"/>
        <path d="m180.57,17.61l.24,5.73-.29-.72c.41-1.15,1.07-2.13,1.96-2.96.89-.83,1.88-1.46,2.98-1.91,1.1-.44,2.15-.67,3.17-.67l-.09,2.2c-1.43,0-2.73.32-3.89.95-1.16.64-2.08,1.49-2.77,2.55-.68,1.07-1.03,2.27-1.03,3.6v9.88h-2.24v-18.66h1.96Z" style="fill: #fff; stroke-width: 0px;"/>
        <path d="m196.8,9.4h2.29v8.45h5.77v1.81h-5.77v16.61h-2.29v-16.61h-3.96v-1.81h3.96v-8.45Z" style="fill: #fff; stroke-width: 0px;"/>
        <path d="m214.84,36.65c-1.08,0-2.21-.2-3.39-.6-1.18-.4-2.13-1.04-2.86-1.93l1.05-1.48c.64.67,1.39,1.2,2.27,1.6.88.4,1.81.6,2.79.6.73,0,1.42-.1,2.08-.31.65-.21,1.19-.56,1.6-1.07.41-.51.62-1.19.62-2.05s-.25-1.57-.74-2.05c-.49-.48-1.11-.87-1.86-1.17-.75-.3-1.54-.58-2.36-.83-1.37-.45-2.49-1.05-3.36-1.81-.88-.76-1.31-1.84-1.31-3.24,0-1.02.25-1.91.74-2.67.49-.76,1.17-1.36,2.03-1.79s1.83-.64,2.91-.64c.99,0,1.96.16,2.93.48.97.32,1.85.86,2.65,1.62l-1,1.57c-.51-.7-1.19-1.18-2.03-1.43-.84-.25-1.58-.4-2.22-.43-.54,0-1.11.11-1.69.33-.59.22-1.08.55-1.48.98-.4.43-.6.99-.6,1.69s.21,1.33.62,1.79c.41.46.95.83,1.6,1.12.65.29,1.33.56,2.03.81.92.29,1.79.63,2.6,1.03.81.4,1.48.92,2,1.57.53.65.79,1.52.79,2.6s-.24,2.06-.72,2.94c-.48.88-1.19,1.56-2.12,2.05-.94.49-2.12.74-3.56.74Z" style="fill: #fff; stroke-width: 0px;"/>
        <path d="m250.29,36.65c-1.75,0-3.34-.42-4.77-1.26-1.43-.84-2.57-2.01-3.41-3.51-.84-1.5-1.26-3.18-1.26-5.06,0-2,.43-3.74,1.29-5.2.86-1.46,2.03-2.59,3.51-3.39,1.48-.79,3.11-1.19,4.89-1.19s3.47.46,5.08,1.38c1.61.92,2.77,2.13,3.51,3.63l-.38,1.05V0h2.24v36.27h-2.29v-5.73l.48,1.05c-.8,1.5-1.99,2.71-3.58,3.65-1.59.94-3.36,1.41-5.3,1.41Zm.57-1.96c1.43,0,2.72-.31,3.87-.93,1.14-.62,2.07-1.46,2.77-2.53.7-1.07,1.1-2.27,1.19-3.6v-2.39c-.22-1.21-.72-2.29-1.48-3.25-.76-.95-1.69-1.71-2.77-2.27-1.08-.56-2.27-.83-3.58-.83-1.43,0-2.74.33-3.91,1-1.18.67-2.12,1.59-2.82,2.77-.7,1.18-1.05,2.55-1.05,4.1,0,1.46.35,2.79,1.05,3.98.7,1.19,1.65,2.15,2.84,2.86,1.19.72,2.49,1.07,3.89,1.07Z" style="fill: #fff; stroke-width: 0px;"/>
        <path d="m277.59,36.65c-1.94,0-3.66-.43-5.15-1.29-1.5-.86-2.67-2.03-3.51-3.51-.84-1.48-1.26-3.14-1.26-4.99s.45-3.47,1.34-4.96c.89-1.5,2.09-2.69,3.6-3.58,1.51-.89,3.19-1.34,5.03-1.34,2.23,0,4.1.65,5.61,1.96,1.51,1.3,2.6,3.01,3.27,5.11l-16.32,6.3-.67-1.62,14.94-5.82-.48.67c-.54-1.27-1.36-2.37-2.46-3.29-1.1-.92-2.44-1.38-4.03-1.38-1.43,0-2.72.35-3.87,1.05-1.15.7-2.06,1.64-2.74,2.82-.68,1.18-1.03,2.51-1.03,4.01,0,1.4.33,2.7.98,3.91.65,1.21,1.57,2.18,2.74,2.91,1.18.73,2.53,1.1,4.06,1.1,1.02,0,2-.19,2.93-.57.94-.38,1.77-.87,2.5-1.48l1.15,1.62c-.89.7-1.92,1.27-3.08,1.72-1.16.44-2.35.67-3.55.67Z" style="fill: #fff; stroke-width: 0px;"/>
      </g>
      <g>
        <path d="m116.14,74.57c-.31.25-.87.6-1.7,1.03-.83.43-1.84.82-3.04,1.15-1.2.33-2.52.48-3.98.46-2.22-.05-4.2-.45-5.95-1.2-1.75-.75-3.22-1.78-4.44-3.08s-2.14-2.79-2.77-4.47-.96-3.48-.96-5.39c0-2.14.33-4.11.98-5.89.65-1.78,1.58-3.33,2.79-4.63,1.21-1.3,2.66-2.31,4.34-3.02,1.68-.71,3.54-1.07,5.58-1.07,1.89,0,3.56.26,5.01.77,1.45.51,2.64,1.06,3.56,1.64l-2.18,5.24c-.64-.48-1.49-.99-2.54-1.51-1.06-.52-2.28-.78-3.65-.78-1.07,0-2.1.22-3.08.67-.98.45-1.85,1.08-2.6,1.89-.75.82-1.35,1.77-1.78,2.85s-.65,2.26-.65,3.54c0,1.35.2,2.59.59,3.71.39,1.12.96,2.08,1.7,2.89.74.8,1.63,1.42,2.66,1.86,1.03.43,2.2.65,3.5.65,1.5,0,2.79-.24,3.86-.73,1.07-.48,1.89-.99,2.45-1.53l2.29,4.97Z" style="fill: #fff; stroke-width: 0px;"/>
        <path d="m119.97,62.87c0-1.94.37-3.77,1.11-5.51.74-1.73,1.77-3.27,3.08-4.61,1.31-1.34,2.84-2.39,4.57-3.16,1.73-.77,3.6-1.15,5.58-1.15s3.81.38,5.55,1.15c1.73.76,3.27,1.82,4.61,3.16,1.34,1.34,2.38,2.88,3.14,4.61.75,1.73,1.13,3.57,1.13,5.51s-.38,3.85-1.13,5.58c-.75,1.73-1.8,3.26-3.14,4.57-1.34,1.31-2.88,2.34-4.61,3.08-1.73.74-3.58,1.11-5.55,1.11s-3.85-.37-5.58-1.11c-1.73-.74-3.26-1.77-4.57-3.08-1.31-1.31-2.34-2.84-3.08-4.57-.74-1.73-1.11-3.6-1.11-5.58Zm5.74,0c0,1.25.22,2.42.67,3.5.45,1.08,1.07,2.04,1.87,2.87.8.83,1.73,1.47,2.79,1.93s2.21.69,3.46.69,2.31-.23,3.35-.69c1.03-.46,1.93-1.1,2.7-1.93.77-.83,1.36-1.79,1.8-2.87.43-1.08.65-2.25.65-3.5s-.22-2.46-.67-3.56c-.45-1.1-1.06-2.06-1.84-2.89-.78-.83-1.69-1.47-2.73-1.93-1.05-.46-2.18-.69-3.4-.69s-2.36.23-3.4.69-1.96,1.1-2.75,1.93c-.79.83-1.4,1.79-1.84,2.89-.43,1.1-.65,2.28-.65,3.56Z" style="fill: #fff; stroke-width: 0px;"/>
        <path d="m154.27,76.91v-29.3h.04l15.64,22.18-2.37-.54,15.61-21.65h.08v29.3h-5.55v-16.79l.34,2.87-9.52,13.54h-.08l-9.79-13.54.96-2.64v16.56h-5.35Z" style="fill: #fff; stroke-width: 0px;"/>
        <path d="m199.06,48.76c2.32,0,4.28.39,5.89,1.17,1.61.78,2.83,1.87,3.67,3.29.84,1.42,1.26,3.09,1.26,5.03,0,1.15-.17,2.3-.52,3.46-.34,1.16-.89,2.21-1.64,3.16-.75.94-1.76,1.7-3.02,2.28-1.26.57-2.81.86-4.65.86h-3.98v8.91h-5.54v-28.15h8.53Zm.96,13.85c.84,0,1.54-.15,2.1-.44.56-.29,1-.66,1.32-1.11.32-.45.55-.91.69-1.4.14-.48.21-.9.21-1.26,0-.28-.04-.66-.13-1.13-.09-.47-.27-.95-.55-1.43-.28-.48-.71-.89-1.28-1.22-.57-.33-1.35-.5-2.31-.5h-3.98v8.49h3.94Z" style="fill: #fff; stroke-width: 0px;"/>
        <path d="m214.85,48.76h19.2v5.35h-13.65v6h12.09v5.35h-12.09v6.08h14.19v5.35h-19.73v-28.15Z" style="fill: #fff; stroke-width: 0px;"/>
        <path d="m238.41,48.76h18.97v5.35h-6.85v22.79h-5.54v-22.79h-6.58v-5.35Z" style="fill: #fff; stroke-width: 0px;"/>
        <path d="m262.74,48.76h5.54v28.15h-5.54v-28.15Z" style="fill: #fff; stroke-width: 0px;"/>
        <path d="m273.64,48.76h18.97v5.35h-6.85v22.79h-5.54v-22.79h-6.58v-5.35Z" style="fill: #fff; stroke-width: 0px;"/>
        <path d="m297.96,48.76h5.54v28.15h-5.54v-28.15Z" style="fill: #fff; stroke-width: 0px;"/>
        <path d="m309.05,62.87c0-1.94.37-3.77,1.11-5.51.74-1.73,1.77-3.27,3.08-4.61,1.31-1.34,2.84-2.39,4.57-3.16,1.73-.77,3.59-1.15,5.58-1.15s3.81.38,5.54,1.15c1.73.76,3.27,1.82,4.61,3.16,1.34,1.34,2.38,2.88,3.14,4.61.75,1.73,1.13,3.57,1.13,5.51s-.38,3.85-1.13,5.58c-.75,1.73-1.8,3.26-3.14,4.57-1.34,1.31-2.88,2.34-4.61,3.08-1.73.74-3.58,1.11-5.54,1.11s-3.85-.37-5.58-1.11c-1.73-.74-3.26-1.77-4.57-3.08-1.31-1.31-2.34-2.84-3.08-4.57-.74-1.73-1.11-3.6-1.11-5.58Zm5.74,0c0,1.25.22,2.42.67,3.5.45,1.08,1.07,2.04,1.87,2.87.8.83,1.73,1.47,2.79,1.93,1.06.46,2.21.69,3.46.69s2.31-.23,3.35-.69c1.03-.46,1.93-1.1,2.7-1.93.77-.83,1.36-1.79,1.8-2.87.43-1.08.65-2.25.65-3.5s-.22-2.46-.67-3.56c-.45-1.1-1.06-2.06-1.84-2.89-.78-.83-1.69-1.47-2.74-1.93-1.04-.46-2.18-.69-3.4-.69s-2.36.23-3.4.69-1.96,1.1-2.75,1.93-1.4,1.79-1.83,2.89c-.43,1.1-.65,2.28-.65,3.56Z" style="fill: #fff; stroke-width: 0px;"/>
        <path d="m368.56,78.05l-21.34-19.28,1.64.92.12,17.21h-5.62v-29.26h.23l20.88,19.2-1.22-.54-.12-17.56h5.58v29.3h-.15Z" style="fill: #fff; stroke-width: 0px;"/>
      </g>
      <g id="g1">
        <path id="path1" d="m0,72.36v-8.21h30.03v16.41H0v-8.21Zm32.79-.44l-.04-8.64-.41-.62c-.75-1.13-1.07-1.21-5.52-1.26l-3.92-.05,1.18-1.25c.92-.98,1.34-1.59,1.94-2.82.42-.86.88-2.05,1.02-2.65.34-1.45.34-4-.01-5.5-1.08-4.66-4.97-8.44-9.57-9.32l-1.03-.2v-5.5h30.03v46.44h-13.62l-.04-8.64Zm16.45-2.27v-10.91h30.03v21.83h-30.03v-10.91Zm-36.01-8.39l-.32-.06.36-1.25c.84-2.9.21-6.19-1.63-8.5-1.18-1.48-2.83-2.66-4.42-3.16-.47-.15-.86-.32-.86-.37,0-.06.2-.45.45-.88,1.08-1.89,3.17-3.57,5.3-4.27.95-.31,1.45-.37,3.03-.37,1.04,0,1.92.04,1.97.08.05.05-.07.53-.25,1.08-.48,1.45-.49,4.14,0,5.64.91,2.87,3.33,5.37,6.04,6.22.45.14.81.32.81.4,0,.4-1.2,2.04-2.13,2.91-1.21,1.14-2.81,2.04-4.23,2.37-.9.21-3.3.29-4.1.13Zm-3.94-1.8c-1.26-.99-2.1-2.02-2.8-3.43-.71-1.42-1.16-3.57-.99-4.69.09-.6.14-.66.44-.58,2.91.86,4.91,3.46,4.93,6.43,0,1.12-.37,2.93-.61,2.93-.06,0-.5-.3-.97-.67Zm53.29-3.61c-.41-.06-.49-.13-.41-.33.06-.14.24-.78.4-1.41,1.23-4.75-1.66-9.93-6.32-11.32-.36-.11-.66-.28-.66-.37,0-.24.86-1.59,1.44-2.25,1.22-1.39,3.09-2.55,4.87-3.01.94-.24,3.15-.33,4.03-.15l.47.09-.31.87c-.44,1.24-.55,3.8-.22,5.13.8,3.17,3.31,5.94,6.25,6.88.45.14.81.31.81.36,0,.25-.95,1.71-1.53,2.38-1.1,1.24-2.78,2.32-4.46,2.85-.75.24-3.41.4-4.35.27Zm-4.21-1.97c-1.21-.95-1.93-1.84-2.64-3.27-.7-1.41-1.1-3.14-1.04-4.4.04-.84.06-.87.47-.84.72.05,2.01.8,2.93,1.7,1.25,1.23,1.87,2.63,1.96,4.4.07,1.42-.27,3.08-.63,3.08-.1,0-.58-.3-1.05-.67Zm-35.4-1.41c-2.91-1.45-4.38-4.76-3.53-7.9l.27-.99.44.23c.77.4,2.28,1.92,2.93,2.94,1.06,1.69,1.81,4.61,1.5,5.86-.13.52-.31.51-1.6-.14h0Zm49.95-5.1c-1.97-.72-3.5-2.27-4.19-4.23-.4-1.14-.43-3.1-.06-4.21.14-.43.29-.78.34-.78.24,0,1.52,1.04,2.27,1.85,1.63,1.76,2.8,4.99,2.51,6.93-.11.74-.09.73-.87.44ZM24.62,30.02v-1.32h5.42v-10.99h-.94c-3.59,0-6.48-2.3-7.1-5.66-.1-.52-.17-2.97-.17-5.83V1.3h19.2v5.02c0,3.1-.07,5.34-.17,5.84-.7,3.34-3.54,5.54-7.12,5.54h-.91v10.99h5.42v2.63h-13.62v-1.32Zm9.6-16.41v-1.32h-1.39V3.16l-2.32,1.16c-1.28.64-2.32,1.23-2.32,1.32,0,.21,1.07,2.32,1.17,2.32.05,0,.22-.07.39-.16.29-.16.3-.09.3,2.17v2.33h-1.39v2.63h5.57v-1.32Zm-16.27.49c-3.87-1.47-6.66-5.17-6.91-9.18-.1-1.55-.01-1.91.62-2.63.8-.91,1.13-.99,4.53-.99h3.03l-.04,1.35-.04,1.35-2.75.04c-3.14.05-2.89-.11-2.52,1.62.49,2.31,2.29,4.61,4.38,5.6.59.28.96.55.96.7,0,.22.2,1.04.56,2.29.14.48-.18.45-1.81-.17Zm25.14.25c.31-.99.57-2.02.57-2.29,0-.24.24-.43.94-.75,2.06-.95,3.92-3.32,4.41-5.63.37-1.74.61-1.59-2.48-1.59h-2.71V1.3h2.97c3.51,0,4.01.14,4.72,1.34.38.64.4.79.33,2.11-.22,4.23-3.19,8.11-7.24,9.48-1.34.45-1.61.47-1.5.11Z" style="fill: #fff; stroke-width: 0px;"/>
      </g>
    </g>
  </g>
</svg>