<?xml version="1.0" encoding="UTF-8"?>
<svg id="Calque_2" data-name="Calque 2" xmlns="http://www.w3.org/2000/svg" viewBox="0 0 341.22 84.78">
  <g id="svg19">
    <g>
      <path id="path4" d="m40.32,83.17c-1.26-.19-2.42-.54-4.4-1.32-2.72-1.07-4.52-2.12-5.86-3.42-.37-.36-.85-.75-1.08-.88-2-1.15-3.36-3.34-3.55-5.72-.05-.67-.06-.68-.36-.89-.78-.54-1.91-1.9-2.42-2.92-.13-.25-.55-.99-.95-1.66-1.23-2.05-1.55-2.78-1.72-3.97-.11-.75-.02-1.51.23-2.02.15-.3.15-.32.01-.44-.21-.19-.62-1-.77-1.52-.07-.25-.19-.82-.26-1.27-.16-1.01-.28-1.53-.75-3.16-.45-1.58-.47-2.07-.13-2.92.13-.32.35-.75.5-.97l.27-.39-.33-.38c-.58-.65-.82-1.58-1.03-3.97-.24-2.64-.14-5.35.24-6.61.07-.23.13-.73.13-1.11,0-1.51.25-3.09.61-4.01.3-.76.64-1.15,1.28-1.43.3-.13.55-.25.56-.27.01-.01-.03-.14-.1-.27-.25-.47-.17-1.09.24-1.99.4-.86.6-1.53.86-2.83.25-1.21.36-1.52,1.08-2.85,1.09-2.01,1.63-2.6,2.58-2.8.36-.07.44-.12.4-.22-.42-.99-.11-2.19,1.06-4.2.33-.56.83-1.45,1.12-1.98.28-.53.7-1.16.92-1.41l.4-.45-.6-.05c-.33-.03-1.42-.08-2.44-.13-1.01-.04-1.85-.09-1.86-.1-.01-.01.05-1.06.13-2.32.2-3.07.2-3.09-.04-3.36-.28-.31-.73-.3-1.11.02-.42.35-.61.42-1.01.42-.76,0-1.24-.58-1.19-1.45.03-.59.28-1.03.69-1.22.53-.25,1.01-.12,1.65.46.36.33.6.39.95.23.36-.16.4-.39.48-2.95.04-1.33.09-2.43.1-2.45.01-.01,1.09.02,2.39.08l2.36.11.2.23c.32.38.27.71-.21,1.24-.45.5-.54.72-.47,1.21.17,1.24,2.29,1.39,2.69.18.14-.41.04-.76-.34-1.27-.29-.39-.33-.49-.29-.76.02-.17.12-.4.23-.51.17-.18.25-.2.97-.19,1,0,3.68.14,3.76.19.03.02.02,1.03-.04,2.24-.06,1.21-.08,2.33-.06,2.48.05.3.42.59.76.59.11,0,.41-.15.68-.33.64-.43.94-.48,1.42-.25.21.1.41.24.45.32.21.36.2.36.75.11.84-.39,1.51-.58,2.47-.73.77-.12,1.03-.12,1.78-.04,2.63.29,4.36,1.34,5.2,3.12.51,1.1.52,1.22.52,5.65,0,2.21-.02,5.06-.04,6.33-.03,1.92-.01,2.43.1,3.09.08.43.18,1.4.24,2.16.11,1.57.01,3.36-.23,4.2-.16.56-.16.74-.07,13.86.05,7.06.07,7.61.19,7.57.11-.04.1-.02-.02.07-.15.12-.15.3-.1,5.82.03,3.14.08,7.09.1,8.78.1,5.64-.2,11.03-.71,13.03-.22.87-.4,1.16-1.16,1.89-1.25,1.2-2.74,2.04-4.4,2.48-.68.18-1.02.22-2.12.23-.72.01-1.43,0-1.56-.02h0Zm-7.11-8.35c-.88-.39-1.27-.6-1.75-.97-.63-.48-1.34-1.3-1.67-1.94-.13-.24-.24-.42-.26-.41-.02.02.08.25.23.51.66,1.24,1.67,2.15,3.03,2.71.46.19.82.27.42.09h0Zm-7.01-8.16c.07-.23.19-.5.26-.61.08-.12.09-.18.03-.14-.19.12-.44.72-.47,1.15-.02.23-.01.33,0,.22.02-.11.1-.39.17-.62h0Zm.03-4.72c-.59-.82-.54-2.02.1-2.84l.26-.33-.26.24c-.62.57-.81,1.65-.44,2.47.17.37.4.7.49.7.02,0-.04-.11-.14-.24h0Zm8.19-2.64c-.43-.38-.84-1.15-.92-1.73-.07-.47.14-1.31.42-1.74.11-.17.19-.33.18-.35-.07-.07-.49.69-.61,1.11-.3,1.03.1,2.21.95,2.84.42.31.41.25-.02-.13h0Zm-14.86-5.13c-.12-.36-.17-.69-.17-1.23,0-.66.04-.87.3-1.64.03-.09-.02-.03-.1.12-.4.72-.44,1.93-.1,2.82.24.62.29.57.07-.07h0Zm11.52-4.46c-.41-.28-1-.88-1.21-1.23-.24-.4-.35-.42-.15-.02.2.38.69.9,1.11,1.17.39.25.59.32.25.08h0Zm-9.41-5.7c-.03-.1-.08-.44-.12-.76l-.06-.58v.5c-.02.28.02.62.07.76.1.29.2.36.11.08h0Zm17.45-5.72c-.16-.17-.49-.58-.72-.92-.23-.34-.42-.57-.42-.53,0,.16.63,1.05.99,1.4.44.43.55.46.14.04h0Zm-13.16-6.82c-.42-.64-.47-1.49-.14-2.14.19-.37.69-.84,1.06-.99.15-.06.25-.13.23-.15-.07-.07-.61.21-.91.48-.44.39-.7.98-.7,1.59,0,.5.2,1.08.47,1.37.21.23.21.17-.01-.16h0Zm11.81-1.7c.08-.18.24-.46.36-.62l.22-.29-.25.24c-.45.41-.66,1.12-.59,1.94.01.17.05.04.08-.33.03-.34.12-.76.2-.94h0Zm-16.24.84c-.03-.07-.05-.05-.05.05,0,.09.02.14.04.11.03-.03.03-.1,0-.16h0Zm.3-1.05c.55-2.03,1.65-4.16,3-5.83.34-.42.36-.46.09-.16-1.16,1.24-2.27,3.15-2.87,4.96-.23.69-.48,1.63-.49,1.81,0,.18.08-.04.28-.77h0Zm5.18-11.05c.07-.11.1-.2.06-.2-.14,0-.34.56-.33.92v.36s.07-.43.07-.43c.03-.24.12-.52.2-.64h0Zm9.7-10.52l.66-.61-.19-.16c-.19-.16-.61-.21-.87-.11-.22.09-.37.49-.37,1.01,0,.27.03.5.06.49.03,0,.36-.28.72-.62h0Zm22.6,75.07c-1.89-.4-3.52-1.26-4.99-2.63-.45-.42-.67-.7-.82-1.05-.36-.81-.62-2.43-.81-5.04-.13-1.72-.14-10.33-.03-18.06.07-5.06.07-5.2-.08-5.32-.11-.09-.12-.12-.03-.1.11.02.12-.73.14-6.31,0-3.48.06-7.67.11-9.32.11-3.33.07-4.72-.18-5.76-.13-.53-.18-1.1-.21-2.36-.05-1.67.01-2.62.28-4.42.11-.76.12-1.28.06-3.33-.1-3.58-.12-8.4-.03-9.24.19-1.87.83-3.12,2.05-3.98,1.16-.81,2.67-1.26,4.31-1.26,2.52,0,4.63.98,7.41,3.48,1.12,1,2.82,2.34,3.46,2.73.68.41,1.07.6,2.09,1,1.52.61,2.08,1.08,2.78,2.32.19.35.67,1.2,1.07,1.9.99,1.76,1.14,2.06,1.32,2.77.19.74.2,1.09.05,1.6l-.11.37.32.05c1.12.18,1.74.89,3.06,3.46.38.75.5,1.07.66,1.89.32,1.58.46,2.1.76,2.75.16.34.34.76.4.94.16.44.16,1.23-.02,1.49-.07.11-.12.22-.11.23.02.02.27.14.57.27.73.33,1.05.72,1.4,1.73.26.74.4,1.69.45,2.97.03.84.1,1.45.24,2.05.11.47.23,1.29.26,1.81.12,1.82-.07,5.31-.39,6.98-.11.58-.46,1.32-.79,1.66l-.29.3.33.51c.77,1.19.85,1.92.38,3.54-.53,1.81-.59,2.08-.77,3.12-.28,1.62-.55,2.43-1.02,2.99l-.2.24.19.42c.28.6.28,1.8-.01,2.79-.25.86-.5,1.36-1.44,2.92-.4.66-.8,1.35-.9,1.55-.18.35-.18.36-.03.51.08.08,2.07,1.83,4.42,3.89l4.27,3.75.26.72c.9,2.48,1.21,3.27,1.31,3.33.06.04.12.11.12.16s.17.54.37,1.07c.59,1.53.53,1.6-1.08,1.16-.63-.17-1.21-.36-1.31-.42-.09-.06-.61-.22-1.15-.36s-1.28-.34-1.64-.45c-.36-.11-.8-.22-.97-.25-.27-.05-.65-.36-2.42-1.97-1.16-1.05-2.86-2.6-3.79-3.44l-1.68-1.52-.34.64c-.72,1.34-1.77,2.42-2.92,3.01-.21.11-.48.32-.6.47-.3.39-1.36,1.27-2.18,1.8-1.75,1.14-5.28,2.61-7.44,3.1-1.1.25-3.12.29-4.11.08h0Zm26.02-4.01c.1-.13.1-.13-.03-.03-.14.11-.18.17-.11.17.02,0,.08-.06.14-.14h0Zm-14.99-4.46c.9-.39,2.05-1.43,2.56-2.32.36-.63.32-.7-.06-.1-.66,1.04-1.49,1.78-2.63,2.36-.62.31-.54.35.13.06h0Zm6.44-7.68c-.09-.41-.28-.83-.4-.9-.04-.02.01.17.12.43.11.26.19.6.2.75,0,.2.03.26.09.2.06-.06.06-.21,0-.48h0Zm.04-5.25c.25-.42.35-1.18.22-1.66-.1-.35-.58-1.14-.65-1.07-.02.02.02.11.09.19.07.08.21.33.31.55.26.59.23,1.33-.07,1.94-.27.54-.2.56.1.04h0Zm-8.1-2.56c.52-.59.63-.9.63-1.81,0-.75-.02-.86-.24-1.25-.13-.24-.31-.49-.39-.57-.09-.08-.04.06.13.33.7,1.16.58,2.37-.34,3.35-.22.23-.31.38-.22.33.1-.05.29-.22.43-.38Zm14.68-5.17c.19-.69.13-1.8-.11-2.37-.23-.54-.28-.49-.08.08.3.85.27,1.97-.06,2.77-.04.1-.04.14.02.1.05-.03.15-.29.23-.59h0Zm-11.24-4.42c.39-.28.87-.87,1.01-1.24.12-.32.05-.27-.19.14-.12.2-.46.59-.76.86-.6.55-.63.64-.06.24h0Zm9.22-6.27c0-.14-.03-.32-.07-.41-.05-.12-.07-.06-.08.25,0,.23-.02.56-.05.74l-.04.33.12-.33c.06-.18.12-.44.12-.58h0Zm-17.44-5.07c.29-.31.69-.91.84-1.24.15-.35.07-.27-.26.26-.17.27-.49.7-.73.96-.24.26-.35.43-.26.38.09-.05.28-.21.42-.36Zm13.19-7c.39-.75.24-1.67-.37-2.34-.33-.36-.77-.65-.85-.56-.02.02.04.08.15.12.3.11.85.76,1.01,1.19.19.49.14,1.11-.12,1.66-.11.23-.21.45-.22.49-.06.17.25-.26.4-.56h0Zm-11.76-.39c0-.21-.05-.56-.12-.79-.12-.42-.59-1.15-.68-1.06-.03.03.01.11.08.19.07.08.23.35.34.6.17.36.21.58.21,1.07,0,.43.03.58.08.49.04-.07.08-.29.08-.5h0Zm15.78-.96c-.33-1.45-1.11-3.27-1.95-4.58-.39-.61-1.27-1.72-1.44-1.82-.05-.03.05.12.24.35,1.36,1.63,2.62,4.19,3.12,6.3.08.35.17.62.19.6.02-.02-.05-.4-.15-.84h0Zm-5.05-10.85c-.05-.29-.35-.8-.43-.73-.02.02.04.16.13.31.1.17.17.42.17.65,0,.3.02.34.09.22.05-.09.06-.28.03-.45h0ZM13.87,79.92c-.44-.12-1.13-.82-1.26-1.27-.21-.71-.07-1.33.4-1.87.44-.5,1.03-.74,1.65-.67.6.06.85.19,1.27.65,1.33,1.44-.15,3.7-2.06,3.17Zm7.15-4.31c-.18-.04-.67-.12-3.45-.61-2.59-.45-4.86-.85-6.86-1.19-1.93-.33-1.97-.34-1.97-.47,0-.05.09-.56.19-1.12.18-1,.19-1.03.39-1,.11.01.94.15,1.84.31,1.86.32,7.33,1.25,9.24,1.57.7.12,1.3.24,1.33.26.13.11-.31,2.31-.46,2.3-.05,0-.17-.02-.26-.04h0Zm-5.3-4.36c-.61-.11-1.08-.42-1.38-.92-.58-.99-.26-2.22.72-2.75.49-.27,1.26-.29,1.77-.06.38.17.83.65,1,1.06.16.38.15,1.07-.01,1.46-.33.8-1.28,1.35-2.1,1.21h0Zm71.57-2.38c-.59-.25-.91-.76-.91-1.43,0-.93.64-1.56,1.59-1.56h.45l-.48-1.01c-.53-1.12-1.52-3.7-1.61-4.21-.06-.3-.05-.32.08-.21.22.18,1.24.21,1.96.06.65-.13,1.67-.52,2.39-.91.22-.12.45-.21.52-.21.26,0,.85,1.15,2,3.91.41.99.86,2.03,1,2.32.21.43.24.59.21.96-.07.81-.63,1.36-1.46,1.42-1.18.08-2.04-1.05-1.6-2.1.27-.65.8-1.02,1.48-1.02.24,0,.44-.02.44-.04s-.14-.32-.32-.67c-.26-.52-.94-2.15-1.32-3.17l-.09-.23-.37.32c-.82.72-1.91,1.11-3.11,1.11-.51,0-.71.03-.68.09.02.05.18.43.34.83.53,1.29,1.41,3.36,1.55,3.62.28.52.1,1.47-.33,1.87-.42.38-1.21.5-1.75.26h0Zm.82-7.14c.43-.07,1.02-.2,1.31-.3.61-.2,1.93-.84,2.02-.98.03-.05.01-.25-.04-.45l-.1-.36-.38.34c-.44.39-1.26.82-1.93,1.02-.53.15-1.62.18-1.96.05l-.22-.09.22.45c.12.25.24.45.26.45.02,0,.4-.06.83-.13h0Zm-79.25,2.01c-.33-.1-.75-.51-.87-.87-.13-.38-.05-.89.17-1.2.1-.13.17-.25.15-.26-.02-.01-.11-.07-.22-.12-.48-.25-.67-1.17-.35-1.7.32-.52,1-.89,1.85-.98,1.26-.15,2.15.8,1.7,1.81-.13.3-.14.38-.05.38.18,0,.66.46.78.74.15.36.07,1.08-.15,1.36-.57.72-2.03,1.14-3.01.85h0Zm1.53-.95c.45-.18.63-.56.45-.92-.24-.46-.95-.5-1.47-.08-.17.13-.22.24-.22.48,0,.58.53.81,1.24.53h0Zm-.37-2.27c.44-.38.2-.96-.39-.96-.74,0-1.15.56-.72.99.24.24.82.22,1.11-.03h0Zm-5.75-10.18c-.02-.06-.45-1.23-.95-2.6-.5-1.37-.91-2.6-.91-2.74,0-.34.39-.73.72-.73.13,0,.41.07.6.16.91.41,1.7-.01,1.78-.95.06-.78-.43-1.5-1.13-1.63-.46-.09-.95.2-1.25.74-.3.54-.5.69-.9.69-.54,0-.64-.17-1.5-2.54-.74-2.02-.83-2.39-.62-2.39.04,0,1.18-.41,2.53-.91,1.55-.57,2.5-.97,2.59-1.08.31-.37.09-.91-.51-1.22-1.02-.52-1.02-1.78,0-2.3.45-.23,1.17-.22,1.53.02.52.36.66,1.13.32,1.79-.22.43-.1.86.29,1.07.15.08,1.4-.33,4.46-1.49.36-.13.65-.23.66-.22.01.01.17.43.36.93.19.5.58,1.55.88,2.34.6,1.58.62,1.83.23,2.13-.27.21-.49.21-1.12,0-.61-.21-1-.17-1.36.16-.93.86.02,2.74,1.21,2.4.35-.1.54-.27.88-.8.3-.46.48-.6.8-.6.39,0,.66.34.96,1.21.15.44.54,1.57.86,2.51.32.94.56,1.72.53,1.74-.06.04-3.04,1.15-4.4,1.64-1.02.37-7.2,2.64-7.37,2.72-.09.04-.16.01-.18-.05h0Zm85.02-.52c-.7-.34-.77-.39-.92-.73-.09-.2-.27-.45-.42-.55-.34-.24-.52-.66-.45-1.08.04-.21.02-.32-.04-.32-.17,0-.09-.25.12-.33.22-.08.26-.24.11-.39-.13-.13-.02-.38.13-.32.09.03.12-.01.12-.16,0-.11-.03-.2-.07-.2s-.12-.17-.17-.37c-.1-.36-.09-.4.34-1.55.42-1.13.45-1.18.62-1.11.3.11.3-.05,0-.47-.68-.95-1.19-2.08-1.41-3.15-.18-.82-.17-2.39,0-3.25.16-.77.62-2.01.91-2.44.11-.17.2-.33.2-.35,0-.14.95-1.3,1.44-1.76,1.81-1.69,4.1-2.48,6.64-2.3,3.43.25,6.33,2.68,7.22,6.05.24.9.29,2.4.12,3.36-.55,3.14-2.76,5.68-5.84,6.72-.51.17-1.52.37-1.89.37-.15,0-.34.06-.41.14-.13.13-.13.15,0,.24.07.05.13.12.13.15s-.27.5-.59,1.05c-.67,1.14-.88,1.32-1.48,1.29-.44-.02-.54.04-.39.22.16.19.04.39-.2.33-.26-.07-.38.17-.16.33.2.15.08.31-.2.28-.16-.02-.3.05-.48.23-.31.31-.65.4-1.04.27-.24-.08-.33-.07-.55.03-.38.19-.52.16-1.37-.24h0Zm4.57-7.02l.93-1.8.51.05c1.02.09,2.08-.34,2.94-1.2.76-.77,1.01-1.31,1.02-2.23,0-.65-.02-.73-.22-1-.14-.18-.34-.33-.51-.38-.91-.25-1.7.61-3.32,3.63-.24.44-.48.83-.54.85-.11.04-.89-.29-1.14-.48-.15-.12-.14-.16.35-1.2,1.24-2.64,1.44-3.52.99-4.25-.17-.28-.6-.53-.91-.53-.8,0-1.84,1.35-2.04,2.65-.17,1.06.21,2.32.9,2.98.14.13.25.27.25.31s-.41.88-.9,1.87c-.5.99-.87,1.82-.83,1.84.04.03.14-.07.21-.22.16-.31,1.7-3.3,1.71-3.33,0,0,.26.11.57.27.31.16.62.28.68.28s.11.03.09.06c-.08.18-1.67,3.21-1.76,3.36-.1.16-.08.28.04.28.03,0,.47-.81.98-1.8h0Zm1.12-2.12c.11-.29,1.7-3.03,1.98-3.41.36-.49.89-.88,1.2-.88.62,0,.94.44.92,1.27-.04,1.65-1.75,3.16-3.58,3.16-.51,0-.57-.02-.52-.14h0Zm-2.17-1.08c-.93-1.17-.99-2.83-.16-4.11.62-.96,1.42-1.27,1.93-.73.23.24.24.29.24.92,0,.61-.04.76-.39,1.6-.58,1.39-1.19,2.65-1.28,2.65-.04,0-.2-.14-.34-.32ZM9.03,29.57c-2.58-.46-4.85-2.21-5.95-4.58-.49-1.05-.69-2.02-.69-3.31,0-1.58.21-2.47.88-3.79,1.42-2.76,4.42-4.49,7.51-4.32,4.04.22,7.14,3.13,7.65,7.19.16,1.26-.09,2.81-.64,4.05l-.2.46.3,1.16c.16.64.29,1.2.27,1.25-.02.05-.18-.48-.37-1.17l-.34-1.26.23-.54c.45-1.06.71-2.57.62-3.57-.32-3.42-2.46-6.07-5.75-7.08-.69-.21-.84-.23-2.14-.22-1.28,0-1.46.02-2.13.23-2.17.66-3.92,2.13-4.89,4.12-.59,1.2-.77,2.03-.77,3.45,0,1.66.32,2.8,1.15,4.12,1.07,1.72,2.78,2.95,4.88,3.53.78.21,2.78.21,3.61,0,1.16-.3,2.21-.8,3.03-1.44.49-.39.53-.39,1.82-.13,1.18.24.96.27-.35.04l-.98-.17-.27.24c-.75.66-1.79,1.21-2.89,1.54-.61.18-.91.22-1.96.24-.68.01-1.41,0-1.63-.05h0Zm-2.58-6.96c-.34-.17-.6-.58-.6-.97,0-1.08,1.25-1.55,1.96-.74.22.25.25.35.25.73,0,.32-.05.5-.17.66-.35.45-.93.58-1.45.33Zm3.45.01c-.75-.33-.79-1.51-.06-1.98.67-.44,1.7.13,1.7.93,0,.88-.82,1.41-1.64,1.05h0Zm3.45,0c-.75-.33-.79-1.51-.06-1.98.67-.44,1.69.12,1.7.92.01.89-.81,1.42-1.64,1.06Zm75.04-.15c-.37-.21-.71-.77-.7-1.16,0-.14.07-.41.15-.59.46-1.01,1.91-1.06,2.43-.08l.16.29.42-.77c.43-.79,1.76-2.92,2.07-3.31l.17-.22.2.19c.5.48,1.05.75,2.29,1.13.11.03.11.05,0,.12-.37.24-1.76-.27-2.24-.83l-.28-.32-.23.46-.23.46.23.24c.38.39.93.72,1.53.9.46.14.54.19.42.25-.4.23-1.47-.2-1.99-.8l-.33-.37-.99,1.66c-.54.91-1.05,1.81-1.12,1.99-.36.87-1.21,1.19-1.97.76h0Zm-8.68-10.57c-2.26-.92-2.92-1.33-3.55-2.16-.67-.89-.83-2.31-.38-3.27.3-.63.81-1.18,1.37-1.45.39-.19.57-.23,1.09-.23.66,0,1.03.14,1.54.57l.25.21.09-.19c.16-.35.61-.8,1.04-1.02.6-.31,1.46-.31,2.12,0,.62.29,1.14.78,1.47,1.4.25.47.28.59.3,1.34.05,1.47-.38,2.24-2.09,3.72-.58.5-1.22,1.08-1.42,1.29-.2.21-.39.38-.41.37-.02,0-.66-.26-1.4-.56h0ZM11.63,8.79c-.08-.31-.06-.34.65-1.46.78-1.22.89-1.58.58-1.87-.28-.26-.92-.09-1.22.31-.16.22-.16.22-.53.1-.2-.07-.38-.18-.39-.25-.04-.19.51-.76.92-.95.81-.38,1.66-.3,2.09.19.49.56.41,1.2-.3,2.31-.23.36-.39.67-.35.68.04.01.37-.05.73-.14.36-.09.71-.17.78-.17.12,0,.33.71.23.78-.05.03-3,.78-3.07.78-.02,0-.07-.14-.11-.32h0Z" style="fill: #fff; stroke-width: 0px;"/>
      <g>
        <path d="m127.16,3.34c3.44,0,6.36.58,8.74,1.73,2.38,1.16,4.2,2.78,5.45,4.88,1.25,2.1,1.87,4.59,1.87,7.47,0,1.7-.26,3.42-.77,5.14-.51,1.72-1.33,3.28-2.44,4.68-1.12,1.4-2.61,2.53-4.49,3.38-1.87.85-4.17,1.28-6.9,1.28h-5.91v13.23h-8.23V3.34h12.66Zm1.42,20.55c1.25,0,2.29-.22,3.12-.65.83-.43,1.49-.98,1.96-1.65.47-.66.81-1.35,1.02-2.07.21-.72.31-1.34.31-1.87,0-.42-.07-.97-.2-1.67-.13-.7-.41-1.41-.82-2.13-.42-.72-1.05-1.32-1.9-1.82-.85-.49-2-.74-3.44-.74h-5.91v12.61h5.85Z" style="fill: #fff; stroke-width: 0px;"/>
        <path d="m157.99,29.69c0,1.33.4,2.59,1.19,3.8.79,1.21,1.85,2.2,3.15,2.95,1.31.76,2.73,1.14,4.29,1.14,1.7,0,3.22-.38,4.54-1.14,1.32-.76,2.38-1.74,3.15-2.95.78-1.21,1.16-2.48,1.16-3.8V3.34h8.12v26.52c0,3.07-.76,5.78-2.27,8.15-1.51,2.37-3.56,4.22-6.13,5.56-2.57,1.34-5.43,2.02-8.57,2.02s-5.93-.67-8.49-2.02c-2.56-1.34-4.59-3.2-6.1-5.56-1.51-2.37-2.27-5.08-2.27-8.15V3.34h8.23v26.35Z" style="fill: #fff; stroke-width: 0px;"/>
        <path d="m190.7,45.13c1.29-2.04,2.47-3.92,3.55-5.62,1.08-1.7,2.29-3.63,3.63-5.79,1.34-2.16,2.73-4.37,4.15-6.64,1.42-2.27,2.8-4.49,4.15-6.64,1.34-2.16,2.56-4.09,3.63-5.79,1.08-1.7,2.26-3.58,3.55-5.62l.91,2.27h-15.05c-.79,0-1.62-.18-2.47-.54-.85-.36-1.57-.85-2.16-1.48-.59-.62-.88-1.32-.88-2.07V1.24h7.55v.79c0,.83.13,1.26.4,1.28.26.02.74.03,1.42.03h23.22l-22.03,34.75-.45-.91h22.43v7.95h-35.55Z" style="fill: #fff; stroke-width: 0px;"/>
        <path d="m231.69,45.13c1.29-2.04,2.47-3.92,3.55-5.62,1.08-1.7,2.29-3.63,3.63-5.79,1.34-2.16,2.73-4.37,4.14-6.64,1.42-2.27,2.8-4.49,4.15-6.64,1.34-2.16,2.55-4.09,3.63-5.79,1.08-1.7,2.26-3.58,3.55-5.62l.91,2.27h-15.05c-.79,0-1.62-.18-2.47-.54s-1.57-.85-2.16-1.48c-.59-.62-.88-1.32-.88-2.07V1.24h7.55v.79c0,.83.13,1.26.4,1.28.26.02.74.03,1.42.03h23.22l-22.03,34.75-.45-.91h22.43v7.95h-35.55Z" style="fill: #fff; stroke-width: 0px;"/>
        <path d="m275.53,3.34h8.23v33.84h19.65v7.95h-27.88V3.34Z" style="fill: #fff; stroke-width: 0px;"/>
        <path d="m311.93,3.34h28.5v7.95h-20.27v8.92h17.94v7.95h-17.94v9.03h21.07v7.95h-29.3V3.34Z" style="fill: #fff; stroke-width: 0px;"/>
      </g>
      <g>
        <path d="m139.12,81.99c-.58.39-1.28.75-2.09,1.08s-1.69.63-2.62.89c-.93.26-1.89.46-2.86.6-.98.14-1.9.22-2.77.22-2.7,0-5.13-.44-7.29-1.32-2.17-.88-4.02-2.1-5.56-3.66-1.54-1.56-2.72-3.37-3.54-5.44-.82-2.07-1.23-4.31-1.23-6.72,0-2.6.46-4.99,1.37-7.17s2.17-4.07,3.78-5.66c1.6-1.59,3.47-2.82,5.58-3.68,2.12-.87,4.36-1.3,6.74-1.3,1.8,0,3.49.23,5.08.67,1.59.45,3.02,1.06,4.31,1.83l-.87,2.12c-.74-.45-1.57-.84-2.5-1.18-.93-.34-1.89-.6-2.86-.79-.98-.19-1.95-.29-2.91-.29-2.18,0-4.2.38-6.07,1.16-1.86.77-3.48,1.85-4.86,3.23-1.38,1.38-2.46,3-3.23,4.86-.77,1.86-1.16,3.88-1.16,6.07s.36,4.08,1.08,5.9c.72,1.81,1.75,3.4,3.08,4.77,1.33,1.36,2.93,2.42,4.79,3.18,1.86.75,3.93,1.13,6.21,1.13,1.35,0,2.76-.16,4.24-.48,1.48-.32,2.74-.79,3.8-1.4v-9.48h-7.7v-2.26h10.06v13.14Z" style="fill: #fff; stroke-width: 0px;"/>
        <path d="m155.63,84.78c-1.8,0-3.43-.41-4.89-1.23-1.46-.82-2.62-1.96-3.47-3.44-.85-1.48-1.28-3.19-1.28-5.15,0-2.09.45-3.88,1.35-5.37.9-1.49,2.12-2.63,3.66-3.42,1.54-.79,3.29-1.18,5.25-1.18,1.67,0,3.25.5,4.74,1.49,1.49,1,2.56,2.25,3.2,3.75l-.34.67.29-5.34h2.02v18.82h-2.26v-5.83l.48.87c-.23.64-.61,1.28-1.16,1.9-.55.63-1.21,1.2-2,1.73-.79.53-1.65.95-2.6,1.25-.95.3-1.95.46-3.01.46Zm.48-1.92c1.41,0,2.69-.3,3.83-.89,1.14-.59,2.06-1.42,2.77-2.48.71-1.06,1.11-2.28,1.2-3.66v-2.7c-.26-1.19-.76-2.25-1.52-3.18-.75-.93-1.68-1.67-2.77-2.21-1.09-.55-2.28-.82-3.56-.82-1.41,0-2.71.33-3.9.99-1.19.66-2.13,1.58-2.84,2.77-.71,1.19-1.06,2.58-1.06,4.19,0,1.48.35,2.82,1.06,4.02.71,1.2,1.66,2.17,2.86,2.89,1.2.72,2.51,1.08,3.92,1.08Z" style="fill: #fff; stroke-width: 0px;"/>
        <path d="m176.72,65.57l.24,5.25-.34-.48c.64-1.64,1.71-2.93,3.2-3.88,1.49-.95,3.12-1.42,4.89-1.42,1.06,0,2.01.2,2.86.6.85.4,1.54.95,2.07,1.64.53.69.84,1.49.94,2.38l-.29.29c.67-1.6,1.73-2.82,3.18-3.66,1.44-.83,3-1.25,4.67-1.25,1.8,0,3.23.52,4.29,1.56,1.06,1.04,1.6,2.4,1.64,4.07v13.72h-2.26v-13.24c-.03-1.12-.39-2.08-1.06-2.87-.67-.79-1.7-1.21-3.08-1.28-1.25,0-2.41.32-3.47.96-1.06.64-1.92,1.49-2.58,2.55-.66,1.06-1.02,2.25-1.08,3.56v10.3h-2.26v-13.24c-.03-1.12-.39-2.08-1.08-2.87-.69-.79-1.73-1.21-3.1-1.28-1.28,0-2.46.32-3.54.96-1.08.64-1.93,1.52-2.58,2.62-.64,1.11-.96,2.33-.96,3.68v10.11h-2.26v-18.82h1.97Z" style="fill: #fff; stroke-width: 0px;"/>
        <path d="m220.81,84.78c-1.96,0-3.69-.43-5.2-1.3-1.51-.87-2.69-2.05-3.54-3.54s-1.28-3.17-1.28-5.03.45-3.5,1.35-5.01,2.11-2.71,3.63-3.61,3.22-1.35,5.08-1.35c2.25,0,4.13.66,5.66,1.97,1.52,1.32,2.62,3.03,3.3,5.15l-16.46,6.35-.67-1.64,15.07-5.87-.48.67c-.55-1.28-1.37-2.39-2.48-3.32-1.11-.93-2.46-1.4-4.07-1.4-1.44,0-2.74.35-3.9,1.06s-2.08,1.65-2.77,2.84c-.69,1.19-1.04,2.54-1.04,4.04,0,1.41.33,2.73.99,3.95.66,1.22,1.58,2.2,2.77,2.94,1.19.74,2.55,1.11,4.09,1.11,1.03,0,2.01-.19,2.96-.58.95-.39,1.79-.88,2.53-1.49l1.16,1.64c-.9.71-1.93,1.28-3.11,1.73s-2.37.67-3.59.67Z" style="fill: #fff; stroke-width: 0px;"/>
        <path d="m240.5,84.78c-1.09,0-2.23-.2-3.42-.6-1.19-.4-2.15-1.05-2.89-1.95l1.06-1.49c.64.67,1.4,1.21,2.29,1.61.88.4,1.82.6,2.82.6.74,0,1.44-.1,2.09-.31.66-.21,1.2-.57,1.61-1.08.42-.51.62-1.2.62-2.07s-.25-1.59-.75-2.07c-.5-.48-1.12-.87-1.88-1.18-.75-.3-1.55-.58-2.38-.84-1.38-.45-2.51-1.06-3.39-1.83-.88-.77-1.32-1.86-1.32-3.27,0-1.03.25-1.93.75-2.7.5-.77,1.18-1.37,2.05-1.81.87-.43,1.84-.65,2.94-.65.99,0,1.98.16,2.96.48.98.32,1.87.87,2.67,1.64l-1.01,1.59c-.51-.71-1.2-1.19-2.05-1.44-.85-.26-1.6-.4-2.24-.43-.55,0-1.12.11-1.71.34-.59.22-1.09.55-1.49.99-.4.43-.6,1-.6,1.71s.21,1.34.63,1.81c.42.47.96.84,1.61,1.13.66.29,1.34.56,2.05.82.93.29,1.8.63,2.62,1.03.82.4,1.49.93,2.02,1.59.53.66.79,1.53.79,2.62s-.24,2.08-.72,2.96-1.2,1.57-2.14,2.07c-.95.5-2.14.75-3.59.75Z" style="fill: #fff; stroke-width: 0px;"/>
      </g>
    </g>
  </g>
</svg>