<?xml version="1.0" encoding="UTF-8" standalone="no"?>
<!-- Created with Inkscape (http://www.inkscape.org/) -->

<svg
   version="1.1"
   id="svg1"
   width="593.43878"
   height="255"
   viewBox="0 0 593.43878 255"
   sodipodi:docname="logo.png"
   xmlns:inkscape="http://www.inkscape.org/namespaces/inkscape"
   xmlns:sodipodi="http://sodipodi.sourceforge.net/DTD/sodipodi-0.dtd"
   xmlns="http://www.w3.org/2000/svg"
   xmlns:svg="http://www.w3.org/2000/svg">
  <defs
     id="defs1" />
  <sodipodi:namedview
     id="namedview1"
     pagecolor="#ffffff"
     bordercolor="#000000"
     borderopacity="0.25"
     inkscape:showpageshadow="2"
     inkscape:pageopacity="0.0"
     inkscape:pagecheckerboard="0"
     inkscape:deskcolor="#d1d1d1" />
  <g
     inkscape:groupmode="layer"
     inkscape:label="Image"
     id="g1"
     transform="translate(-2.7000787,-24)">
    <path
       style="fill:#ffffff"
       d="M 93.606989,277.41821 C 93.273145,276.54823 93,273.23668 93,270.05921 V 264.282 l 13.25,-0.71734 c 15.94542,-0.86326 21.80337,-1.88353 27.74855,-4.83293 C 139.96436,255.7721 143,251.10653 143,244.89712 V 240.09 l -37.75,-0.295 C 68.770331,239.50993 67.365395,239.42737 63.5,237.34158 54.907237,232.70489 50.567391,225.54321 50.567391,216 c 0,-9.54321 4.339846,-16.70489 12.932609,-21.34158 3.865395,-2.08579 5.270331,-2.16835 41.75,-2.45342 L 143,191.91 V 187.955 184 l -41.25,-0.008 C 78.993581,183.98828 57.730386,183.53538 54.322365,182.98226 34.667128,179.79222 19.555652,170.53798 9.9951052,155.83632 -5.508523,131.99573 4.7844961,95.23354 30.613915,82.1949 48.851861,72.988409 72.026555,73.266136 88.5,82.8886 c 6.607004,3.85929 12.45387,8.99434 15.895,13.95988 3.40281,4.91026 4.24882,3.48217 -12.450528,21.01692 L 79.388944,131.04903 70.444472,124.888 c -4.91946,-3.38857 -9.092928,-6.28556 -9.274375,-6.43775 -0.181446,-0.1522 0.418371,-1.41873 1.332928,-2.81452 3.364903,-5.13549 -0.916014,-9.74349 -6.77688,-7.29467 -5.812046,2.42843 -10.700761,10.22321 -10.720568,17.09334 -0.01352,4.68908 3.44725,13.73463 6.715694,17.55307 C 56.252795,148.28154 59.751884,150 66,150 c 5.877979,0 9.990964,-1.81107 12.374553,-5.44889 1.603622,-2.44743 2.066851,-2.55049 11.3985,-2.5358 5.349821,0.008 10.269657,0.36025 10.932977,0.78185 0.73842,0.46932 1.32002,3.96355 1.5,9.012 l 0.29397,8.24547 5.16167,-13.77731 c 2.83892,-7.57753 8.60835,-22.77732 12.82095,-33.77732 4.21261,-11 8.83546,-23.2625 10.27301,-27.25 L 133.36935,78 H 138.18468 143 V 67.149223 c 0,-14.067825 -0.83933,-16.391942 -7.03472,-19.479235 -2.68038,-1.335688 -4.62457,-2.677364 -4.32043,-2.981502 0.30414,-0.304139 -0.4619,-0.287583 -1.70231,0.03679 -1.69389,0.442963 -2.05344,0.263176 -1.4444,-0.722262 0.53577,-0.866895 0.42103,-1.071094 -0.33819,-0.60187 -0.63198,0.390588 -5.31401,-0.191505 -10.40451,-1.293541 C 112.66495,41.005568 105.35,39.788557 101.5,39.403136 97.65,39.017715 94.169391,38.206836 93.765313,37.601185 93.361235,36.995533 93.023735,33.6875 93.015313,30.25 L 93,24 H 299.5 506 v 6.377555 c 0,3.907938 -0.48404,6.760512 -1.25,7.366506 -0.6875,0.543922 -5.47151,1.294645 -10.63112,1.668273 -5.15962,0.373628 -12.93353,1.353204 -17.27537,2.176836 -4.34183,0.823632 -8.44532,1.180862 -9.11887,0.793846 -0.67355,-0.387017 -0.87965,-0.324027 -0.45799,0.139978 0.7046,0.775359 -4.89724,3.95805 -6.43984,3.658804 -0.37025,-0.07183 -1.60775,1.799964 -2.75,4.15953 C 456.30781,53.995598 456,56.518314 456,67.362235 V 80.09302 l 3.12526,1.70349 c 5.79642,3.15947 12.84194,9.21147 16.61978,14.27617 L 479.5,101.10669 479.78174,89.55334 480.06347,78 h 24.38662 24.38662 l 2.32656,6 c 1.2796,3.3 2.57351,6 2.87536,6 0.30185,0 1.14781,-2.7 1.87991,-6 l 1.3311,-6 H 562.62482 588 v 11.25945 c 0,10.17645 -0.19237,11.3796 -2,12.50848 -2.67599,1.67118 -2.60115,3.10842 1.5,28.8033 1.925,12.06068 3.5,22.28653 3.5,22.7241 0,0.43757 1.15603,1.95161 2.56897,3.36454 2.4763,2.47631 2.56898,3.00667 2.56941,14.70455 l 4.5e-4,12.13558 -25.033,0.26709 -25.03299,0.2671 -0.28642,-9.7671 L 545.5,164.5 h -14.35811 -14.3581 l -0.1419,9.5 -0.14189,9.5 -23.75,0.2681 -23.75,0.2681 v -6.10143 c 0,-3.35579 -0.34423,-5.95144 -0.76496,-5.7681 -0.42073,0.18333 -3.34573,1.90096 -6.5,3.81696 L 456,179.46726 v 6.22187 6.22187 l 38.25,0.2945 c 36.99282,0.28482 38.38147,0.36544 42.25,2.45292 8.59276,4.63669 12.93261,11.79837 12.93261,21.34158 0,9.54321 -4.33985,16.70489 -12.93261,21.34158 -3.86853,2.08748 -5.25718,2.1681 -42.25,2.45292 L 456,240.089 v 2.48762 c 0,6.46524 5.22938,13.12256 12.40858,15.79688 5.51914,2.05593 19.01691,4.4938 29.22543,5.27849 l 8.36599,0.64306 0.125,3.35248 c 0.0688,1.84386 0.20052,4.36497 0.29282,5.60247 0.0923,1.2375 -0.29719,3.0375 -0.86554,4 -0.97882,1.65762 -11.86287,1.75 -206.18584,1.75 -186.14972,0 -205.208686,-0.14652 -205.759451,-1.58179 z M 254.99283,261.90786 C 267.30303,259.8242 274,253.81479 274,244.85212 V 240 h -40 -40 v 2.53212 c 0,3.54719 2.34925,8.77417 5.1398,11.43581 4.44793,4.24246 11.27915,6.25395 31.8602,9.38142 3.4342,0.52186 17.3234,-0.31261 23.99283,-1.44149 z m 131,0 C 398.30303,259.8242 405,253.81479 405,244.85212 V 240 h -40 -40 v 2.53212 c 0,3.54719 2.34925,8.77417 5.1398,11.43581 4.44793,4.24246 11.27915,6.25395 31.8602,9.38142 3.4342,0.52186 17.3234,-0.31261 23.99283,-1.44149 z M 167,222.12723 v -3.87277 l 5.18643,-0.49835 c 6.1707,-0.59293 9.32598,-3.51025 8.32037,-7.69288 C 179.53484,206.02057 177.27773,205 169.30887,205 H 162 v 10.5 10.5 h 2.5 c 2.23631,0 2.5,-0.40848 2.5,-3.87277 z M 167,211.5 c 0,-3.03922 0.31973,-3.5 2.42857,-3.5 5.0664,0 6.88096,5.14641 2.25226,6.3878 C 167.61374,215.47858 167,215.09993 167,211.5 Z m 38,13 c 0,-1.15152 -1.27778,-1.5 -5.5,-1.5 H 194 v -9 c 0,-8.93333 -0.0185,-9 -2.5,-9 H 189 v 10.5 10.5 h 8 c 6.44444,0 8,-0.29167 8,-1.5 z m 9.81805,-1 c 0.97169,-2.13263 1.80663,-2.5 5.68195,-2.5 3.87532,0 4.71026,0.36737 5.68195,2.5 0.89051,1.95445 1.88241,2.5 4.54541,2.5 h 3.40632 l -5.3298,-10.25 c -4.56348,-8.77623 -5.71752,-10.29493 -8.02636,-10.56252 -2.49967,-0.28969 -3.06455,0.42083 -7.73703,9.73184 C 210.26822,220.44371 208,225.19684 208,225.48183 c 0,0.28499 1.27777,0.51817 2.83948,0.51817 2.05837,0 3.15284,-0.68773 3.97857,-2.5 z m 3.21739,-6.75 c 0.0195,-0.6875 0.61102,-2.28716 1.31451,-3.5548 l 1.27908,-2.30481 1.18548,2.60186 C 223.52519,217.24677 223.30554,218 220.5,218 c -1.375,0 -2.48405,-0.5625 -2.46456,-1.25 z M 252,222.4686 c 0,-2.52918 1.28204,-5.43815 4.51735,-10.25 l 4.51735,-6.7186 -2.73718,-0.33763 c -2.74905,-0.3391 -3.88216,0.55804 -7.395,5.85503 l -1.59749,2.40884 -2.40251,-4.20542 c -2.05953,-3.60504 -2.87492,-4.20652 -5.71154,-4.21312 -3.70537,-0.009 -3.80835,-0.43376 1.98317,8.18743 2.64894,3.94319 3.82585,6.78868 3.82585,9.25 0,3.12519 0.30217,3.55487 2.5,3.55487 2.19471,0 2.5,-0.43124 2.5,-3.5314 z m 44.83369,1.93534 c 1.70776,-1.19617 2.20198,-2.3863 1.9725,-4.75 -0.2645,-2.72448 -1.05511,-3.51868 -5.80619,-5.83259 -6.83113,-3.32694 -7.20592,-5.32135 -1,-5.32135 2.475,0 5.11054,-0.39375 5.85676,-0.875 2.27569,-1.46763 -0.69176,-2.59253 -6.88425,-2.60969 -7.15199,-0.0198 -10.20362,1.95497 -9.7787,6.32803 0.2718,2.79725 0.92397,3.39629 5.80619,5.33313 3.025,1.20006 5.63809,2.85034 5.80687,3.66729 0.43771,2.11867 -3.11033,2.94257 -7.47822,1.73654 -3.57577,-0.98732 -5.25858,-0.32337 -5.31334,2.09638 -0.0491,2.17087 13.77676,2.35769 16.81838,0.22726 z M 319,222.4686 c 0,-2.52918 1.28204,-5.43815 4.51735,-10.25 l 4.51735,-6.7186 -2.73718,-0.33763 c -2.74905,-0.3391 -3.88216,0.55804 -7.395,5.85503 l -1.59749,2.40884 -2.40251,-4.20542 c -2.05953,-3.60504 -2.87492,-4.20652 -5.71154,-4.21312 -3.70537,-0.009 -3.80835,-0.43376 1.98317,8.18743 2.64894,3.94319 3.82585,6.78868 3.82585,9.25 0,3.12519 0.30217,3.55487 2.5,3.55487 2.19471,0 2.5,-0.43124 2.5,-3.5314 z m 29.83369,1.93534 c 1.70776,-1.19617 2.20198,-2.3863 1.9725,-4.75 -0.2645,-2.72448 -1.05511,-3.51868 -5.80619,-5.83259 -6.83113,-3.32694 -7.20592,-5.32135 -1,-5.32135 2.475,0 5.11054,-0.39375 5.85676,-0.875 2.27569,-1.46763 -0.69176,-2.59253 -6.88425,-2.60969 -7.15199,-0.0198 -10.20362,1.95497 -9.7787,6.32803 0.2718,2.79725 0.92397,3.39629 5.80619,5.33313 3.025,1.20006 5.63809,2.85034 5.80687,3.66729 0.43771,2.11867 -3.11033,2.94257 -7.47822,1.73654 -3.57577,-0.98732 -5.25858,-0.32337 -5.31334,2.09638 -0.0491,2.17087 13.77676,2.35769 16.81838,0.22726 z M 370,217.06037 v -8.93964 l 3.6727,-0.31036 c 2.01999,-0.17071 3.85749,-0.87287 4.08333,-1.56037 0.31028,-0.9445 -2.05369,-1.25 -9.6727,-1.25 C 359.78704,205 358,205.26584 358,206.5 c 0,1.04762 1.05556,1.5 3.5,1.5 h 3.5 v 9 c 0,8.93333 0.0185,9 2.5,9 2.48023,0 2.5,-0.0707 2.5,-8.93963 z M 402,224.5 c 0,-1.17949 -1.38889,-1.5 -6.5,-1.5 H 389 v -3.5 -3.5 h 5 c 3.77778,0 5,-0.36667 5,-1.5 0,-1.13333 -1.22222,-1.5 -5,-1.5 -4.66667,0 -5,-0.16667 -5,-2.5 0,-2.38889 0.26667,-2.5 6,-2.5 4.66667,0 6,-0.33333 6,-1.5 0,-1.21569 -1.61111,-1.5 -8.5,-1.5 H 384 v 10.5 10.5 h 9 c 7.33333,0 9,-0.27778 9,-1.5 z m 12.44393,-3.75 0.7016,-5.25 3.16825,5.25 c 4.34094,7.19324 7.02309,7.21488 11.40341,0.092 l 3.172,-5.15803 0.68423,5.15803 c 0.61851,4.66254 0.92591,5.15803 3.20002,5.15803 2.50219,0 2.51233,-0.0365 1.87827,-6.75 -0.35062,-3.7125 -0.64069,-8.4375 -0.6446,-10.5 -0.006,-3.42415 -0.24607,-3.74942 -2.75711,-3.74331 -2.37242,0.006 -3.27293,0.96688 -6.55861,7 C 426.59665,215.85301 424.48553,219 424,219 c -0.48553,0 -2.59665,-3.14699 -4.69139,-6.99331 -3.28568,-6.03312 -4.18619,-6.99423 -6.55861,-7 -2.51104,-0.006 -2.75062,0.31916 -2.75711,3.74331 -0.004,2.0625 -0.29398,6.7875 -0.6446,10.5 -0.63406,6.71355 -0.62392,6.75 1.87827,6.75 2.27915,0 2.58177,-0.49381 3.21737,-5.25 z M 274,168.11537 v -23.88462 l -6.25,3.27638 c -5.12183,2.68497 -12.52446,5.46263 -21.5,8.06735 -2.29559,0.66618 -1.3749,4.21722 1.32692,5.11783 2.56048,0.85349 2.57693,0.92902 2.5773,11.83333 l 3.7e-4,10.97436 -28.0773,0.26557 L 194,184.03115 V 188.01557 192 h 40 40 z m 130.94621,18.63463 -0.0538,-5.25 -5.93676,-2.90348 c -3.26522,-1.59691 -8.64328,-5.08441 -11.95124,-7.75 C 383.69644,168.18094 380.73937,166 380.43313,166 c -0.30624,0 -0.46175,3.9375 -0.34557,8.75 l 0.21122,8.75 -18.39939,0.28079 c -16.13742,0.24627 -26.97084,-0.51506 -34.64939,-2.43501 -2.13275,-0.53328 -2.25,-0.27034 -2.25,5.04581 V 192 h 40 40 z m 39.16097,-13.35495 c 7.86131,-2.30609 14.87485,-6.62545 20.61754,-12.6975 22.98423,-24.30244 12.38468,-62.55282 -20.11571,-72.59117 -8.32608,-2.57166 -22.40494,-2.83149 -31.07405,-0.57347 -13.11107,3.415 -24.30978,12.49864 -29.77569,24.15204 -4.19509,8.94401 -5.02763,22.30461 -1.98896,31.91923 5.03014,15.91585 19.46951,28.30449 36.54953,31.35866 6.67316,1.19327 18.91155,0.44921 25.78734,-1.56779 z M 422,161.93856 c -13.89188,-2.82818 -21.72948,-18.66114 -18.9507,-38.28288 1.18263,-8.35088 2.78261,-12.2557 6.98092,-17.03732 4.93355,-5.619 10.24825,-7.97879 17.96978,-7.97879 10.25737,0 18.76364,5.58953 23.37584,15.36043 1.81226,3.83924 2.12416,6.33545 2.12416,17 0,11.6508 -0.18348,12.84782 -2.70084,17.61974 -5.69725,10.79978 -16.54053,15.8145 -28.79916,13.31882 z M 90,163 c 0,-9.88078 -0.02853,-10 -2.393011,-10 -1.316156,0 -2.644231,0.65467 -2.951278,1.45482 -0.307047,0.80015 -2.492692,2.4829 -4.856989,3.73945 -6.577287,3.4956 -18.301222,3.26234 -26.027663,-0.51785 -10.77824,-5.2733 -17.805192,-16.50162 -18.559831,-29.65663 -0.519322,-9.05289 0.746837,-14.23473 5.052364,-20.67713 7.321469,-10.95517 23.919681,-13.71049 31.796565,-5.27826 3.13433,3.35531 4.376612,8.25097 2.82797,11.14464 -0.837048,1.56404 -0.776192,2.24709 0.258628,2.90282 2.742379,1.73777 4.501849,0.68915 11.23525,-6.69606 l 6.882004,-7.5482 -3.382004,-3.49792 C 82.680233,90.92105 70.405759,86 59.028598,86 40.697451,86 23.385023,96.40675 16.195887,111.74736 13.78007,116.90237 13.5,118.64277 13.5,128.5 c 0,10.86556 0.0475,11.08891 3.886876,18.27475 6.608741,12.36906 19.070567,21.70536 33.024053,24.74138 3.585143,0.78006 12.976951,1.35756 22.839071,1.40437 L 90,173 Z m 43,7.95203 c 0,-1.12638 -1.2375,-3.11701 -2.75,-4.42361 l -2.75,-2.37566 2.41786,-6.82638 c 1.32983,-3.75451 3.02337,-8.28888 3.76342,-10.07638 l 1.34556,-3.25 h 13.88326 13.88326 l 3.60332,9.29965 c 1.98183,5.11482 3.60332,9.77007 3.60332,10.34502 0,0.57494 -0.9,1.85984 -2,2.85533 -1.1,0.99549 -2,2.86523 -2,4.15499 V 173 h 16 16 v -2.46482 c 0,-1.40292 -0.82313,-2.90534 -1.91062,-3.48735 -3.3498,-1.79275 -5.64069,-6.82054 -18.93117,-41.54783 -7.15668,-18.7 -13.32362,-34.80174 -13.70431,-35.78164 -0.61574,-1.58493 -1.91719,-1.75054 -11.78781,-1.5 L 140.57045,88.5 l -13.63629,37 c -11.20496,30.40294 -14.19775,37.55411 -16.78523,40.10773 -1.73191,1.70925 -3.14893,4.07175 -3.14893,5.25 0,2.07983 0.37888,2.14227 13,2.14227 12.43483,0 13,-0.089 13,-2.04797 z m 10.33465,-52.43584 c 2.29094,-6.86609 4.44826,-12.49109 4.79403,-12.5 0.73302,-0.0189 1.58117,2.03202 6.29996,15.23381 l 3.485,9.75 h -9.37217 -9.37217 z M 239,170.45819 c 0,-1.398 -0.91707,-3.52618 -2.03794,-4.72929 -1.7331,-1.86026 -1.99486,-3.28091 -1.75,-9.49762 L 235.5,148.92113 246,145.40557 c 27.80893,-9.31086 36,-17.05111 36,-34.01861 0,-7.35414 -1.14021,-10.8429 -4.81362,-14.72854 C 270.3987,89.47859 262.82167,88 232.81634,88 H 210 v 3.46482 c 0,2.44136 0.59077,3.78098 2,4.53518 1.93969,1.03809 2,2.09382 2,35.01213 v 33.94176 l -2.5,1.63807 c -1.50997,0.98937 -2.5,2.58254 -2.5,4.02305 V 173 h 15 15 z m -4,-51.39692 v -18.93872 l 4.54603,-0.68172 c 8.9397,-1.3406 17.28084,1.3899 19.93704,6.52644 3.31759,6.41551 1.30492,13.06364 -6.12058,20.21705 C 249.46879,129.93535 237.21139,138 235.40393,138 235.18177,138 235,129.47757 235,119.06127 Z M 371,163 c 0,-9.51902 -0.10187,-10 -2.11798,-10 -1.1649,0 -3.63399,1.33106 -5.48688,2.95792 -4.39663,3.8603 -10.36722,5.41051 -18.09487,4.6982 -15.41237,-1.42068 -27.58133,-14.21742 -29.86086,-31.40135 -1.33852,-10.09024 3.28697,-21.89334 10.83626,-27.65147 7.572,-5.77544 19.32594,-5.61122 26.01349,0.36344 2.87592,2.56935 3.21926,3.46291 3.29155,8.56642 0.12553,8.86258 1.65444,8.78635 10.93108,-0.54501 7.82077,-7.86692 7.85541,-7.92492 5.97483,-10.00293 -3.7165,-4.1067 -13.86298,-10.04197 -20.73555,-12.12945 -18.13837,-5.50936 -40.75844,2.36409 -51.37901,17.88368 -5.17116,7.55649 -7.96672,18.40501 -6.98865,27.12025 1.43361,12.77429 11.80972,27.2568 24.27873,33.88715 9.42197,5.01011 15.56935,6.07588 35.58786,6.16984 L 371,173 Z m 135,7.95203 c 0,-1.12638 -1.16828,-3.05287 -2.59617,-4.28109 l -2.59617,-2.23314 3.55606,-24.34546 c 3.21744,-22.02718 4.0583,-26.31183 4.90804,-25.00901 0.14947,0.22917 3.18697,9.07589 6.75,19.65939 l 6.47824,19.24271 8.07317,0.007 8.07318,0.007 6.75923,-21 C 551.71791,113.38847 554,108.47377 554,114.4911 c 0,1.37011 1.61441,12.91715 3.58757,25.6601 C 561.28653,164.03959 561.27713,168 557.52144,168 556.56524,168 556,168.92879 556,170.5 v 2.5 h 15.5 c 14.83333,0 15.5,-0.086 15.5,-2 0,-1.1 -0.80152,-2.80152 -1.78115,-3.78115 -1.39528,-1.39528 -2.80563,-8.81516 -6.51016,-34.25 -2.60096,-17.85787 -4.72444,-33.70254 -4.71885,-35.21038 0.006,-1.65049 0.80609,-3.23859 2.01016,-3.99054 1.1,-0.68696 2,-2.26578 2,-3.50848 C 578,88.00481 577.9649,88 561.5,88 549.04226,88 545,88.30362 545,89.23935 c 0,2.56613 -11.41398,33.74433 -12.08788,33.019 -0.38752,-0.41709 -3.07951,-8.29585 -5.98221,-17.50835 L 521.65228,88 H 506.32614 491 v 3 c 0,1.65 0.41786,3 0.92857,3 0.51072,0 1.55963,0.63106 2.33093,1.40236 1.20315,1.20314 0.63819,6.139 -3.97695,34.74578 -4.86532,30.15743 -5.61357,33.58794 -7.83093,35.90236 -1.34839,1.40742 -2.45162,3.54681 -2.45162,4.75422 0,2.1478 0.2812,2.19528 13,2.19528 12.43483,0 13,-0.089 13,-2.04797 z m -302.27243,-40.02057 0.22757,-26.06853 -2.47757,-2.29614 C 199.12661,100.388 199,99.70162 199,89.13533 V 78 l 31.25,0.02445 c 27.66156,0.02164 35.05489,0.475818 42,2.5801 1.60118,0.48514 1.75,-0.52579 1.75,-11.887935 0,-15.705889 -0.73599,-17.907832 -7.03472,-21.046623 -2.68038,-1.335688 -4.62457,-2.677364 -4.32043,-2.981502 0.30414,-0.304139 -0.4619,-0.287583 -1.70231,0.03679 -1.69389,0.442963 -2.05344,0.263176 -1.4444,-0.722262 0.53577,-0.866895 0.42103,-1.071094 -0.33819,-0.60187 -0.63198,0.390588 -5.53901,-0.264737 -10.90451,-1.45628 -11.68118,-2.594099 -20.72399,-2.738119 -32.53868,-0.518226 -4.83079,0.907668 -9.33079,1.335846 -10,0.951508 -0.66922,-0.384339 -0.87177,-0.319158 -0.45011,0.144847 0.7046,0.775359 -4.89724,3.95805 -6.43984,3.658804 -0.37025,-0.07183 -1.60775,1.799964 -2.75,4.15953 C 194.07416,54.478255 194,56.150729 194,97.17819 v 42.54673 l 3.0082,7.29495 c 2.94863,7.15053 4.61129,9.98014 5.86424,9.98012 0.34516,0 0.72997,-11.73084 0.85513,-26.06853 z M 387.62294,89.58108 c 3.61328,-2.98041 8.9936,-6.46791 11.95627,-7.75 l 5.38666,-2.33108 0.0171,-11.600777 c 0.0218,-14.84161 -0.76653,-17.114169 -7.01765,-20.229235 -2.68038,-1.335688 -4.62457,-2.677364 -4.32043,-2.981502 0.30414,-0.304139 -0.4619,-0.287583 -1.70231,0.03679 -1.69389,0.442963 -2.05344,0.263176 -1.4444,-0.722262 0.53577,-0.866895 0.42103,-1.071094 -0.33819,-0.60187 -0.63198,0.390588 -5.53901,-0.264737 -10.90451,-1.45628 -11.68118,-2.594099 -20.72399,-2.738119 -32.53868,-0.518226 -4.83079,0.907668 -9.33079,1.335846 -10,0.951508 -0.66922,-0.384339 -0.87177,-0.319158 -0.45011,0.144847 0.7046,0.775359 -4.89724,3.95805 -6.43984,3.658804 -0.37025,-0.07183 -1.60775,1.799964 -2.75,4.15953 C 325.37894,53.848654 325,56.545912 325,65.1237 v 10.492252 l 8.75,-0.396345 c 16.93528,-0.76711 34.07872,5.195293 42.44052,14.760593 2.37021,2.71136 4.43398,4.95001 4.58614,4.97477 0.15217,0.0248 3.23299,-2.39348 6.84628,-5.37389 z"
       id="path1" />
  </g>
</svg>
