<?xml version="1.0" encoding="UTF-8" standalone="no"?>
<svg
   viewBox="0 0 386.78 84.62"
   version="1.1"
   id="svg19"
   sodipodi:docname="auto-beat-them-all - whlogo.svg"
   inkscape:version="1.3 (0e150ed6c4, 2023-07-21)"
   xmlns:inkscape="http://www.inkscape.org/namespaces/inkscape"
   xmlns:sodipodi="http://sodipodi.sourceforge.net/DTD/sodipodi-0.dtd"
   xmlns="http://www.w3.org/2000/svg"
   xmlns:svg="http://www.w3.org/2000/svg">
  <defs
     id="defs19">
    <rect
       x="353.62743"
       y="-2.5734873"
       width="30.124939"
       height="50.712837"
       id="rect20" />
  </defs>
  <sodipodi:namedview
     id="namedview19"
     pagecolor="#ffffff"
     bordercolor="#000000"
     borderopacity="0.25"
     inkscape:showpageshadow="2"
     inkscape:pageopacity="0.0"
     inkscape:pagecheckerboard="0"
     inkscape:deskcolor="#d1d1d1"
     inkscape:zoom="6.6058225"
     inkscape:cx="193.31431"
     inkscape:cy="42.311158"
     inkscape:window-width="3360"
     inkscape:window-height="1369"
     inkscape:window-x="1432"
     inkscape:window-y="-8"
     inkscape:window-maximized="1"
     inkscape:current-layer="svg19" />
  <path
     style="fill:#ffffff;stroke-width:0.556553"
     d="m 29.778641,81.935602 c 0,-0.74207 0.371035,-1.113107 1.113106,-1.113107 0.742072,0 1.113107,-0.371038 1.113107,-1.113107 0,-0.742069 -0.371035,-1.113108 -1.113107,-1.113108 -1.045645,0 -1.113106,-0.371037 -1.113106,-6.122087 0,-5.070818 -0.143355,-6.122087 -0.83483,-6.122087 -0.667864,0 -0.834831,-0.834829 -0.834831,-4.17415 v -4.17415 h -2.226213 c -1.855178,0 -2.226213,-0.185516 -2.226213,-1.113108 0,-0.742069 -0.371036,-1.113106 -1.113108,-1.113106 -0.901086,0 -1.113106,-0.371037 -1.113106,-1.947937 v -1.947937 h -3.061044 c -2.690007,0 -3.061043,-0.13492 -3.061043,-1.113106 0,-0.901088 -0.371037,-1.113107 -1.947937,-1.113107 -1.576902,0 -1.947937,-0.212019 -1.947937,-1.113107 0,-0.747801 -0.371036,-1.113106 -1.130574,-1.113106 -0.6218159,0 -1.2916639,-0.438286 -1.4885517,-0.97397 C 8.5963655,45.91964 8.1033282,45.281073 7.697614,45.036284 7.2919,44.791496 6.9599521,44.227985 6.9599521,43.784039 c 0,-0.443946 -0.3756736,-0.807175 -0.8348302,-0.807175 -0.507733,0 -0.8348301,-0.517906 -0.8348301,-1.321814 0,-2.507301 -0.6978606,-4.800273 -1.4609526,-4.800273 -0.5565534,0 -0.7652609,-0.83483 -0.7652609,-3.061043 0,-2.349893 0.1939504,-3.061044 0.8348301,-3.061044 0.6029326,0 0.83483,-0.618393 0.83483,-2.226214 0,-1.855178 0.1855177,-2.226214 1.1131068,-2.226214 0.6122088,0 1.1131069,-0.358796 1.1131069,-0.797325 0,-0.438529 0.5008979,-0.956304 1.1131071,-1.150612 0.6122086,-0.194307 1.1131064,-0.682873 1.1131064,-1.085699 0,-0.402828 0.5008978,-0.863402 1.1131064,-1.023499 1.028723,-0.269016 1.113107,-0.759147 1.113107,-6.465275 V 9.5836608 H 9.4644427 c -1.9768903,0 -4.1835215,-1.5482081 -4.1645353,-2.9219051 0.010749,-0.7777541 2.3839386,-3.2001822 3.1351341,-3.2001822 0.2658534,0 0.7961859,-0.5008977 1.1785163,-1.1131064 1.0031382,-1.60627921 5.4359042,-1.60627921 5.8559562,0 0.263842,1.008937 0.759147,1.1131064 5.292623,1.1131064 3.932398,0 5.07002,0.1784551 5.321894,0.8348304 0.176196,0.4591564 0.783949,0.8348303 1.350562,0.8348303 0.566615,0 1.574615,0.6261217 2.240001,1.3913825 0.665385,0.7652618 1.461897,1.3913835 1.770026,1.3913835 0.34199,0 0.560234,2.3849168 0.560234,6.1220868 v 6.122088 h 1.947938 c 1.268808,0 1.947936,0.263192 1.947936,0.75491 0,0.529673 1.171244,0.863764 3.925603,1.119755 4.203491,0.390673 6.648911,1.543119 6.648911,3.133413 0,0.541302 0.500898,1.115174 1.113107,1.27527 0.612209,0.160096 1.113107,0.690205 1.113107,1.178018 0,0.91126 2.378359,1.070654 17.053625,1.142904 3.511351,0.01729 4.773842,0.241518 5.609363,0.996276 1.426902,1.288984 2.381914,1.233197 2.381914,-0.139138 0,-0.762507 0.371038,-1.113107 1.17799,-1.113107 0.929717,0 1.121695,-0.263921 0.910906,-1.252246 -0.515937,-2.418987 -0.70197,-2.925123 -1.20992,-3.291738 -0.281827,-0.203408 -0.478702,-3.020959 -0.437501,-6.261225 0.07679,-6.038567 0.009,-6.22638 -2.161213,-5.986988 -0.180591,0.01992 -0.360803,-0.826991 -0.400463,-1.8820296 -0.05872,-1.5617369 0.131608,-1.9182492 1.024041,-1.9182492 0.725123,0 1.09616,-0.3767713 1.09616,-1.1131064 0,-0.9066103 0.371038,-1.1131064 2.000042,-1.1131064 1.53198,0 2.068164,-0.2604976 2.291124,-1.1131074 0.263528,-1.0077273 0.75915,-1.1131065 5.235153,-1.1131065 4.573032,0 4.94407,0.083531 4.94407,1.1131065 0,0.9275893 0.371037,1.1131074 2.226213,1.1131074 1.855176,0 2.226214,0.1855171 2.226214,1.1131064 0,0.7420713 0.371038,1.1131064 1.113107,1.1131064 0.737372,0 1.113106,0.3710361 1.113106,1.0991933 0,0.924497 0.265357,1.0461205 1.669658,0.7652606 1.639303,-0.3278603 1.669663,-0.29219 1.669663,1.9618509 0,1.669661 -0.227686,2.295782 -0.834827,2.295782 -0.4638,0 -0.834836,0.494715 -0.834836,1.113108 0,0.882805 -0.374239,1.115096 -1.808796,1.122722 -1.973004,0.01048 -4.313289,1.962261 -4.313289,3.597234 0,0.520009 1.252245,2.350458 2.782767,4.067665 2.660627,2.985165 2.782764,3.263878 2.782764,6.350417 0,1.781113 -0.24948,3.228224 -0.556554,3.228224 -0.306097,0 -0.55655,0.774794 -0.55655,1.721765 0,1.2537 -0.302598,1.800895 -1.113106,2.012848 -0.61221,0.160096 -1.113107,0.645407 -1.113107,1.07847 0,0.433061 -0.438286,0.948474 -0.973969,1.14536 -0.535682,0.196893 -1.174249,0.689926 -1.419038,1.095643 -0.244789,0.405716 -0.808299,0.737661 -1.252246,0.737661 -0.443945,0 -0.807174,0.293342 -0.807174,0.651869 0,0.358526 -0.438286,1.135914 -0.973969,1.727525 -0.831246,0.918029 -1.002425,2.494411 -1.168178,10.757475 -0.191059,9.52461 -0.175242,9.68182 0.973969,9.68182 0.9885,0 1.168178,0.336642 1.168178,2.188708 0,1.699914 0.248584,2.267609 1.113106,2.541996 0.779754,0.247482 1.113107,0.842082 1.113107,1.985443 0,1.261116 0.253042,1.632153 1.113107,1.632153 1.034994,0 1.113107,0.371038 1.113107,5.287258 v 5.287257 H 87.381917 82.09466 v -1.955784 c 0,-1.48838 -0.416108,-2.327573 -1.741167,-3.511512 -1.413456,-1.262926 -1.79341,-2.099443 -2.018747,-4.44458 -0.173662,-1.807368 -0.540413,-2.888852 -0.979662,-2.888852 -0.386143,0 -0.86135,-0.848977 -1.05601,-1.886611 -0.230391,-1.228096 -0.737667,-1.986962 -1.453322,-2.174108 -0.837535,-0.21902 -1.099394,-0.763881 -1.099394,-2.287541 0,-1.629004 -0.206498,-2.000041 -1.113106,-2.000041 -0.742069,0 -1.113107,0.371037 -1.113107,1.113107 0,0.750407 -0.371037,1.113107 -1.138681,1.113107 -1.099532,0 -1.135797,0.282234 -1.054768,8.209162 0.0729,7.132271 -0.03323,8.232767 -0.809256,8.389109 -0.491242,0.09897 -0.893169,0.662482 -0.893169,1.252244 0,0.996537 -0.452227,1.0723 -6.400364,1.0723 -6.029327,0 -6.400364,-0.06452 -6.400364,-1.113106 0,-0.74207 0.371037,-1.113107 1.113107,-1.113107 0.742069,0 1.113107,-0.371038 1.113107,-1.113107 0,-0.748904 -0.371038,-1.113108 -1.133994,-1.113108 -1.070754,0 -1.125068,-0.287069 -0.973969,-5.148117 0.140073,-4.506241 0.281461,-5.13848 1.133995,-5.07082 0.82608,0.06556 0.973968,-0.420359 0.973968,-3.200182 0,-2.906445 0.126015,-3.277482 1.113107,-3.277482 0.862813,0 1.113106,-0.371037 1.113106,-1.650081 0,-1.08047 0.384245,-1.855716 1.113107,-2.245792 0.612209,-0.327643 1.113107,-0.962577 1.113107,-1.410963 0,-0.448388 0.375674,-0.815251 0.83483,-0.815251 0.463792,0 0.83483,-0.494715 0.83483,-1.113107 0,-0.763898 -0.371038,-1.113107 -1.182675,-1.113107 -1.036776,0 -1.13847,-0.223138 -0.824312,-1.808799 0.197103,-0.994838 1.104981,-2.851534 2.017506,-4.125996 0.912531,-1.274458 1.659141,-2.725926 1.659141,-3.225478 0,-0.499556 0.563511,-1.488847 1.252246,-2.198419 2.669007,-2.749774 3.317007,-4.781356 1.525072,-4.781356 -0.615203,0 -1.547435,-0.500898 -2.071624,-1.113106 -1.16401,-1.359468 -4.601567,-1.567351 -4.601567,-0.278277 0,0.57132 -0.5726,0.83483 -1.814058,0.83483 -1.211311,0 -2.045034,0.369848 -2.50921,1.113106 -0.38233,0.61221 -1.185108,1.113108 -1.783954,1.113108 -0.598845,0 -1.346153,0.48085 -1.660684,1.06856 -0.314532,0.587703 -2.059396,1.777336 -3.877476,2.643628 -1.81808,0.866287 -3.423912,2.011228 -3.568516,2.544306 -0.144604,0.533084 -1.036683,1.409656 -1.982397,1.947937 -1.272722,0.72441 -1.720397,1.380904 -1.723001,2.526686 -0.0019,0.859964 -0.374573,1.69038 -0.83835,1.868343 -0.671372,0.257635 -0.83483,1.507387 -0.83483,6.3829 0,5.691504 0.06812,6.062542 1.113106,6.062542 1.063637,0 1.113108,0.371037 1.113108,8.3483 0,7.977264 -0.04947,8.348302 -1.113108,8.348302 -0.74207,0 -1.113106,0.371037 -1.113106,1.113107 0,1.034995 -0.371036,1.113106 -5.287257,1.113106 -4.916222,0 -5.287257,-0.07811 -5.287257,-1.113106 z"
     id="path1" />
  <path
     style="font-weight:300;font-size:48.7192px;font-family:'Josefin Sans';-inkscape-font-specification:'Josefin Sans Light';stroke:#75a5bd;stroke-width:0;stroke-linecap:round;stroke-miterlimit:4.7;paint-order:markers stroke fill;fill:#ffffff"
     d="m 116.15515,2.6125272 q 5.01808,0 7.74636,2.0949256 2.77699,2.0462064 2.77699,6.6745302 0,2.289803 -0.87695,4.189851 -0.87694,1.900049 -2.63083,3.118029 -1.70517,1.21798 -4.28729,1.559015 l -0.2436,-1.169261 q 2.67956,0.194877 4.87192,1.364137 2.24109,1.120542 3.5565,3.06931 1.36414,1.900049 1.36414,4.482167 0,2.338521 -0.92566,4.092412 -0.87695,1.705172 -2.43596,2.874433 -1.5103,1.120542 -3.45907,1.705172 -1.94876,0.535911 -4.09241,0.535911 h -9.01305 V 2.6125272 Z m 1.12054,16.1747748 q 3.70266,0 5.3104,-1.997488 1.65645,-1.997487 1.65645,-4.969358 0,-3.7026591 -2.19236,-5.3103928 -2.14365,-1.6077336 -5.79759,-1.6077336 h -5.35911 V 18.787302 Z m 0.14616,16.223493 q 2.33852,0 4.28729,-0.730788 1.94877,-0.779507 3.11803,-2.338521 1.16926,-1.559015 1.16926,-3.848817 0,-2.533398 -1.31542,-4.043694 -1.31542,-1.559014 -3.3129,-2.241083 -1.99749,-0.730788 -4.09242,-0.730788 h -6.38221 V 35.010795 Z M 137.25057,2.6125272 h 21.33901 V 4.9023296 H 139.63781 V 18.641144 h 17.05172 v 2.289802 h -17.05172 v 13.982411 h 19.63384 v 2.289802 H 137.25057 Z M 165.36155,37.203159 179.97731,1.102232 h 0.19488 l 14.61576,36.100927 h -2.67956 L 179.39268,4.9023296 181.04913,3.9766648 167.74879,37.203159 Z m 7.06428,-13.690095 h 15.34655 l 0.68207,2.241083 H 171.8412 Z M 197.41877,2.6125272 H 220.0732 V 4.9023296 H 209.89089 V 37.203159 h -2.38724 V 4.9023296 h -10.08488 z"
     id="text19"
     aria-label="BEAT " />
  <text
     xml:space="preserve"
     id="text20"
     style="white-space:pre;shape-inside:url(#rect20);display:inline;fill:#000000;stroke:#75a5bd;stroke-width:0;stroke-linecap:round;stroke-miterlimit:4.7;paint-order:markers stroke fill" />
  <path
     style="font-weight:bold;font-size:57.4489px;font-family:'Josefin Sans';-inkscape-font-specification:'Josefin Sans Bold';stroke:#75a5bd;stroke-width:0;stroke-linecap:round;stroke-miterlimit:4.7;paint-order:markers stroke fill;fill:#ffffff"
     d="m 108.37401,40.838277 h 28.49465 v 8.042846 h -10.28335 v 34.239544 h -8.33009 V 48.881123 h -9.88121 z m 72.0984,0 v 42.28239 h -8.3301 V 65.943446 h -18.90068 v 17.177221 h -8.33009 v -42.28239 h 8.33009 V 57.9006 h 18.90068 V 40.838277 Z m 10.91528,0 h 28.83935 v 8.042846 H 199.71778 V 57.9006 h 18.15385 v 8.042846 h -18.15385 v 9.134375 h 21.31354 v 8.042846 h -29.64363 z m 38.26099,42.28239 V 39.11481 h 0.0574 l 23.4966,33.320361 -3.56184,-0.804284 23.43915,-32.516077 h 0.1149 v 44.005857 h -8.33009 V 57.9006 l 0.51704,4.308668 -14.30477,20.33691 h -0.1149 l -14.70692,-20.33691 1.43622,-3.963974 v 24.875373 z m 80.60085,-15.626101 q 0,2.010712 1.20642,3.849076 1.20643,1.838365 3.15969,2.987343 2.01071,1.148978 4.36612,1.148978 2.5852,0 4.59591,-1.148978 2.01071,-1.148978 3.15969,-2.987343 1.20643,-1.838364 1.20643,-3.849076 V 40.838277 h 8.21519 v 26.828636 q 0,4.653361 -2.29796,8.272641 -2.29795,3.561832 -6.20448,5.629992 -3.90652,2.010712 -8.67478,2.010712 v 0 q -4.71081,0 -8.61734,-2.010712 -3.84907,-2.06816 -6.14703,-5.629992 -2.29795,-3.61928 -2.29795,-8.272641 V 40.838277 h 8.33009 z m 48.77414,-26.656289 q 5.22785,0 8.84713,1.780916 3.61928,1.723467 5.5151,4.940605 1.89581,3.15969 1.89581,7.525806 0,2.585201 -0.80429,5.22785 -0.74683,2.5852 -2.4703,4.71081 -1.66602,2.125609 -4.53846,3.446933 -2.815,1.263876 -6.95132,1.263876 h -5.97468 v 13.385594 h -8.33009 v -42.28239 z m 1.43622,20.796502 q 1.89582,0 3.15969,-0.631938 1.26388,-0.689387 1.95327,-1.666018 0.74683,-1.034081 1.03408,-2.12561 0.34469,-1.091529 0.34469,-1.895813 0,-0.631938 -0.2298,-1.666018 -0.17234,-1.091529 -0.80428,-2.183058 -0.63194,-1.09153 -1.95326,-1.838365 -1.26388,-0.746836 -3.44694,-0.746836 h -5.97468 v 12.753656 z"
     id="text21"
     aria-label="THEM UP" />
</svg>
