<?xml version="1.0" encoding="UTF-8"?>
<svg id="Calque_2" data-name="Calque 2" xmlns="http://www.w3.org/2000/svg" viewBox="0 0 289.64 81.01">
  <g id="svg19">
    <g>
      <g>
        <path d="m96.95,35.36L111.26,0h.19l14.32,35.36h-2.62l-12.45-31.64,1.62-.91-13.03,32.54h-2.34Zm6.92-13.41h15.03l.67,2.2h-16.27l.57-2.2Z" style="fill: #fff; stroke-width: 0px;"/>
        <path d="m137.7,36.08l-9.45-19.37h2.62l7.78,16.94-1.38-.05,7.49-16.89h2.48l-9.26,19.37h-.29Z" style="fill: #fff; stroke-width: 0px;"/>
        <path d="m160.7,35.74c-1.94,0-3.66-.43-5.15-1.29s-2.67-2.03-3.51-3.51c-.84-1.48-1.26-3.14-1.26-4.99s.45-3.47,1.34-4.96c.89-1.5,2.09-2.69,3.6-3.58,1.51-.89,3.19-1.34,5.03-1.34,2.23,0,4.1.65,5.61,1.96,1.51,1.3,2.6,3.01,3.27,5.11l-16.32,6.3-.67-1.62,14.94-5.82-.48.67c-.54-1.27-1.36-2.37-2.46-3.29-1.1-.92-2.44-1.38-4.03-1.38-1.43,0-2.72.35-3.87,1.05-1.15.7-2.06,1.64-2.74,2.82-.68,1.18-1.03,2.51-1.03,4.01,0,1.4.33,2.7.98,3.91.65,1.21,1.57,2.18,2.74,2.91,1.18.73,2.53,1.1,4.06,1.1,1.02,0,2-.19,2.94-.57.94-.38,1.77-.87,2.5-1.48l1.15,1.62c-.89.7-1.92,1.27-3.08,1.72-1.16.44-2.35.67-3.55.67Z" style="fill: #fff; stroke-width: 0px;"/>
        <path d="m177.78,16.7l.24,5.87-.29-1.15c.54-1.62,1.57-2.9,3.08-3.84,1.51-.94,3.19-1.41,5.03-1.41,1.75,0,3.17.52,4.25,1.55,1.08,1.03,1.64,2.38,1.67,4.03v13.6h-2.29v-12.98c-.03-1.21-.41-2.21-1.15-3.01-.73-.79-1.8-1.21-3.2-1.24-1.24,0-2.4.3-3.48.91-1.08.6-1.95,1.45-2.6,2.53-.65,1.08-.98,2.34-.98,3.77v10.02h-2.24v-18.66h1.96Z" style="fill: #fff; stroke-width: 0px;"/>
        <path d="m202.12,8.49h2.29v8.45h5.77v1.81h-5.77v16.61h-2.29v-16.61h-3.96v-1.81h3.96v-8.45Z" style="fill: #fff; stroke-width: 0px;"/>
        <path d="m221.64,35.88c-1.75,0-3.15-.52-4.2-1.55-1.05-1.03-1.61-2.38-1.67-4.03v-13.6h2.24v12.93c.06,1.21.45,2.21,1.17,3.01.72.8,1.79,1.23,3.22,1.29,1.21,0,2.34-.32,3.39-.95,1.05-.64,1.9-1.5,2.55-2.6.65-1.1.98-2.35.98-3.75v-9.93h2.24v18.66h-2l-.24-5.87.33,1.29c-.32.95-.88,1.82-1.69,2.6-.81.78-1.77,1.39-2.86,1.84-1.1.44-2.25.67-3.46.67Z" style="fill: #fff; stroke-width: 0px;"/>
        <path d="m242.01,16.7l.24,5.73-.29-.72c.41-1.15,1.07-2.13,1.96-2.96.89-.83,1.88-1.46,2.98-1.91,1.1-.44,2.15-.67,3.17-.67l-.09,2.2c-1.43,0-2.73.32-3.89.95-1.16.64-2.08,1.49-2.77,2.55-.68,1.07-1.03,2.27-1.03,3.6v9.88h-2.24v-18.66h1.96Z" style="fill: #fff; stroke-width: 0px;"/>
        <path d="m263.72,35.74c-1.94,0-3.66-.43-5.15-1.29-1.5-.86-2.67-2.03-3.51-3.51-.84-1.48-1.26-3.14-1.26-4.99s.45-3.47,1.34-4.96c.89-1.5,2.09-2.69,3.6-3.58,1.51-.89,3.19-1.34,5.03-1.34,2.23,0,4.1.65,5.61,1.96,1.51,1.3,2.6,3.01,3.27,5.11l-16.32,6.3-.67-1.62,14.94-5.82-.48.67c-.54-1.27-1.36-2.37-2.46-3.29-1.1-.92-2.44-1.38-4.03-1.38-1.43,0-2.72.35-3.87,1.05-1.15.7-2.06,1.64-2.74,2.82-.68,1.18-1.03,2.51-1.03,4.01,0,1.4.33,2.7.98,3.91.65,1.21,1.57,2.18,2.74,2.91,1.18.73,2.53,1.1,4.06,1.1,1.02,0,2-.19,2.93-.57.94-.38,1.77-.87,2.5-1.48l1.15,1.62c-.89.7-1.92,1.27-3.08,1.72-1.16.44-2.35.67-3.55.67Z" style="fill: #fff; stroke-width: 0px;"/>
        <path d="m283.24,35.74c-1.08,0-2.21-.2-3.39-.6-1.18-.4-2.13-1.04-2.86-1.93l1.05-1.48c.64.67,1.39,1.2,2.27,1.6.88.4,1.81.6,2.79.6.73,0,1.42-.1,2.08-.31.65-.21,1.19-.56,1.6-1.07.41-.51.62-1.19.62-2.05s-.25-1.57-.74-2.05c-.49-.48-1.11-.87-1.86-1.17-.75-.3-1.54-.58-2.36-.83-1.37-.45-2.49-1.05-3.36-1.81-.88-.76-1.31-1.84-1.31-3.24,0-1.02.25-1.91.74-2.67.49-.76,1.17-1.36,2.03-1.79s1.83-.64,2.91-.64c.99,0,1.96.16,2.93.48.97.32,1.85.86,2.65,1.62l-1,1.57c-.51-.7-1.19-1.18-2.03-1.43-.84-.25-1.58-.4-2.22-.43-.54,0-1.11.11-1.69.33-.59.22-1.08.55-1.48.98-.4.43-.6.99-.6,1.69s.21,1.33.62,1.79c.41.46.95.83,1.6,1.12.65.29,1.33.56,2.03.81.92.29,1.79.63,2.6,1.03.81.4,1.48.92,2,1.57.53.65.79,1.52.79,2.6s-.24,2.06-.72,2.94c-.48.88-1.19,1.56-2.12,2.05-.94.49-2.12.74-3.56.74Z" style="fill: #fff; stroke-width: 0px;"/>
      </g>
      <g>
        <path d="m115.91,48.55l-7.26,13.93-3.82-2.08c.32-.13.67-.23,1.04-.29.37-.06.72-.1,1.04-.1,1.13-.03,2.26.1,3.39.39s2.15.81,3.07,1.55c.92.74,1.66,1.76,2.23,3.05.56,1.29.85,2.94.85,4.93,0,2.32-.54,4.31-1.62,5.98-1.08,1.66-2.49,2.93-4.23,3.8-1.74.87-3.63,1.31-5.66,1.31-1.58,0-3.24-.33-4.98-.99-1.74-.66-3.13-1.54-4.16-2.64l3.58-5.81c.48.61,1.23,1.21,2.23,1.79,1,.58,2.05.87,3.15.87.71,0,1.4-.18,2.08-.53.68-.35,1.24-.89,1.69-1.6.45-.71.68-1.58.68-2.61,0-1.42-.4-2.55-1.19-3.39-.79-.84-1.9-1.26-3.31-1.26-.97,0-1.7.04-2.2.12-.5.08-.99.19-1.48.31l-.15-.19,5.66-10.6,2.03.82h-10.11v-6.77h17.47Z" style="fill: #fff; stroke-width: 0px;"/>
        <path d="m123.94,80.63v-35.61h10.64c3.58,0,6.63.53,9.14,1.6,2.52,1.06,4.54,2.48,6.07,4.26,1.53,1.77,2.65,3.76,3.36,5.95.71,2.19,1.06,4.4,1.06,6.63,0,2.65-.48,5.02-1.43,7.14-.95,2.11-2.25,3.92-3.9,5.42-1.64,1.5-3.55,2.65-5.71,3.44-2.16.79-4.45,1.19-6.87,1.19h-12.39Zm7.02-6.77h4.16c1.77,0,3.39-.23,4.84-.7,1.45-.47,2.7-1.15,3.75-2.06,1.05-.9,1.85-2.04,2.42-3.41s.85-2.94.85-4.72c0-2.32-.38-4.22-1.14-5.69-.76-1.47-1.69-2.6-2.81-3.41-1.11-.81-2.25-1.36-3.41-1.67-1.16-.31-2.15-.46-2.95-.46h-5.71v22.11Z" style="fill: #fff; stroke-width: 0px;"/>
      </g>
      <g>
        <path d="m52.87,3.32c-.55.41-1.47,1.08-2.01,1.51-.89.67-6.99,4.36-9.16,5.53-.46.25-.98.59-1.15.74s-.52.41-.78.54c-.26.14-.55.36-.66.49-.12.14-.32.25-.48.25-.43,0-2.91-1.25-5.83-2.93-3.27-1.89-3.13-1.81-4.83-2.6-2.38-1.09-3.67-1.57-4.85-1.74-1.69-.25-3.57.24-6.12,1.62-1.99,1.08-4.37,2.19-8.51,3.99-1.35.59-3.6,1.65-5.03,2.34l-2.56,1.27-.23.79c-.12.44-.34.97-.46,1.17C0,16.63-.03,18.49.03,33.5c.05,15.76.08,16.97.37,19.12.2,1.52.28,2.8.23,3.8-.08,1.96.12,2.79.78,3.09.28.13.75.27,1.06.32.44.06.64.21.81.55.31.62.66.79,1.67.79.75,0,.95-.08,1.89-.74.57-.4,1.4-1.05,1.81-1.43,2.91-2.63,8.19-6.69,10.78-8.29l1.12-.68.8.38c.44.21,1.56.79,2.48,1.32.94.51,3.04,1.66,4.71,2.55,1.66.9,3.39,1.92,3.87,2.28.46.36.89.65.95.65.05,0,.71.29,1.46.63s1.46.63,1.58.63c.11,0,.25.14.29.32.06.27.2.32.83.32.84,0,1.93-.55,3.76-1.89,1.79-1.32,4.37-3.06,5.4-3.66.51-.32,1.32-.87,1.79-1.22.46-.36,1.07-.78,1.37-.92.29-.13.71-.38.92-.54.66-.51,2.88-1.92,3.27-2.06.26-.11.49-.06.89.21.94.6,2.16,1.6,4.13,3.36,1.06.95,2.15,1.9,2.41,2.09.28.21.86.68,1.3,1.08.43.38.87.7.97.7s.44.29.77.65c.34.35.87.76,1.18.89.34.14.71.46.91.78.31.52.98,1.01,1.4,1.01.11,0,.51.25.87.55,1.14.93,2.21.7,2.79-.62.21-.51.29-1.03.29-2.33,0-1.47.05-1.81.4-2.6.87-1.95,1.12-5.7,1.32-19.57.32-22.17.32-20.07-.03-20.6-.28-.4-1.67-1.47-3.57-2.73-.61-.41-2.15-1.25-4.49-2.49-.58-.32-1.41-.82-1.84-1.14-.84-.63-3.57-2.33-5.12-3.2-.55-.3-1.32-.86-1.72-1.2-1.5-1.38-2.48-1.46-3.99-.36Zm4.95,14.2c.35.25.91.98,1.49,1.95.51.86,1.1,1.74,1.32,1.98.46.49.52.49,2.85-.16,1.03-.29,1.87-.4,2.88-.41,1.4-.02,1.44,0,1.81.43.74.87.41,2.04-.69,2.46-.54.22-3.14.98-4,1.17-.38.1-.72.19-.74.21-.08.08.66,1.38,1.6,2.8.44.68.92,1.57,1.06,1.98s.31.86.37.98c.08.14-.08.43-.41.79-.48.51-.63.57-1.26.55-.87-.03-1.6-.4-1.95-.98-.14-.24-.63-1.03-1.09-1.77-2.44-3.9-2.1-3.63-3.91-3.26-.78.16-1.93.41-2.56.59-.8.19-1.61.27-2.64.25-1.38-.03-1.53-.06-1.89-.44-.34-.35-.37-.46-.25-.82.09-.24.52-.67.98-.97.67-.44,1.01-.55,2.02-.65.67-.06,1.87-.29,2.67-.49.78-.21,1.46-.38,1.5-.38.18,0-.17-.93-.75-1.95-.78-1.39-.89-2.08-.43-3.04.31-.65.87-1.16,1.3-1.19.09,0,.41.17.71.38Zm-.63,9.86c.51.21.61.33.61.7,0,.6-.44,1.12-1.73,2-.89.62-1.24.76-1.79.76l-.69.02-.05-.65c-.06-.84.31-1.3,1.67-2.14.58-.36,1.1-.71,1.15-.79q.11-.19.83.11Zm-33.62.32c.43.32.43.55-.06,1.35-.25.41-.61.74-1.03.93-.37.17-.81.49-1.03.71-.34.38-1.56.87-2.16.87-.18,0-.34-.21-.46-.6-.32-1.14.23-1.77,2.5-2.88,1.43-.68,1.75-.74,2.24-.38Zm4.71,3.64c.48.49.95,1.09,1.07,1.35.14.25.31.46.38.46.21,0,.92,1.33.92,1.76,0,.46-.12.63-.58.9-.29.16-.43.16-.87-.06-.51-.24-.97-.76-2.45-2.8-.87-1.2-.94-1.43-.54-2.01.52-.76,1.06-.65,2.07.41Zm23.56,1.44c.48.29.48.6.05,1.51-.21.41-2.07,1.96-2.91,2.42-.58.32-1.43.3-1.78-.03-.87-.81.58-2.8,2.84-3.87.8-.36,1.24-.38,1.81-.03Zm-36.17.92c.44.35.09,1.16-.94,2.17-1.33,1.32-3.22,1.92-3.51,1.14-.18-.52.25-1.46.92-1.95,2.04-1.51,2.91-1.85,3.53-1.36Zm28.36,4.18c.2.08.46.33.57.55.35.68-.08,1.38-1.38,2.27-.6.43-1.37.95-1.7,1.19-.8.55-1.89.79-2.62.59-.77-.22-.92-.57-.61-1.39.18-.51.32-.65.61-.65.2,0,.35-.1.35-.24,0-.13.43-.48.97-.79.52-.33,1.18-.76,1.47-.98.74-.59,1.69-.81,2.35-.54Zm-34.71,1.14c.43.16.69.62.34.62-.08,0-.18.19-.25.43-.15.65-.61,1.09-1.56,1.49l-.86.35-.43-.54c-.25-.3-.44-.59-.44-.65s.15-.36.34-.7c.54-.95,1.78-1.39,2.87-1Zm24.91.82c1,.9,1.1,1.06,1.15,1.65.05.55,0,.65-.31.74-.98.27-2.04-.24-2.9-1.41-.91-1.25-.81-1.98.26-1.98.61,0,.78.1,1.79,1Z" style="fill: #fff; stroke-width: 0px;"/>
        <path d="m22.78,61.56c-.32.21-.75.65-.95.98l-.37.62v7.67c0,7.64,0,7.65.34,8.29.2.35.63.81.98,1.01l.63.38h28.32l.63-.38c.35-.21.78-.67.98-1.01.34-.63.34-.65.34-8.27s0-7.64-.34-8.27c-.2-.35-.63-.81-.98-1.01l-.63-.38h-28.35l-.6.38Zm10.6,2.84c.98.52,1.52,1.22,1.75,2.3.25,1.08-.08,2.01-1.03,2.87-.37.33-.67.65-.67.7s.18.13.43.19c.23.05.64.29.92.49,1.2.95,1.46,2.76.63,4.47-.92,1.92-2.48,2.66-5.35,2.54-1.49-.06-1.76-.13-2.65-.57-.57-.29-1.17-.74-1.38-1.05-.46-.62-1.12-1.95-1.01-2.06s3.41-.57,3.51-.49c.06.05.15.29.2.54.15.73.72,1.3,1.41,1.38,1.26.17,2.07-.62,2.07-2.04s-.74-2.12-2.15-1.98l-.77.08v-.51c0-.29.05-.84.09-1.22.09-.71.11-.73.74-.81,1.9-.27,2.01-3.12.12-3.12-.77,0-1.3.43-1.53,1.24l-.18.62-1.69-.33c-1.9-.35-1.87-.3-1.14-1.63.46-.82,1.23-1.44,2.25-1.82.66-.24,1.15-.29,2.72-.24,1.72.05,1.99.1,2.72.48Zm12.79-.14c1.76.43,2.98,1.54,3.7,3.39.31.81.35,1.19.35,3.36,0,2.36-.02,2.49-.43,3.42-.52,1.14-1.6,2.3-2.56,2.74-1.09.49-2.45.65-5.86.65h-3.19v-13.78h3.57c2.41,0,3.83.08,4.42.22Z" style="fill: #fff; stroke-width: 0px;"/>
        <path d="m42.16,70.91v3.91l1.27-.1c.69-.06,1.43-.19,1.64-.3.94-.44,1.33-1.89,1.18-4.21-.14-2.27-.84-2.99-2.98-3.14l-1.12-.08v3.91Z" style="fill: #fff; stroke-width: 0px;"/>
      </g>
    </g>
  </g>
</svg>