<?xml version="1.0" encoding="UTF-8"?>
<svg id="Calque_2" data-name="Calque 2" xmlns="http://www.w3.org/2000/svg" viewBox="0 0 367.83 83.05">
  <g id="svg19">
    <g>
      <g>
        <path d="m121.22,7.89c-.92-.45-2.06-.86-3.4-1.25-1.34-.39-2.68-.58-4.02-.58-2.09,0-3.75.52-5.01,1.56-1.25,1.04-1.88,2.35-1.88,3.93,0,1.19.36,2.18,1.07,2.97.71.79,1.65,1.46,2.82,2.01,1.16.55,2.4,1.08,3.71,1.59,1.04.39,2.08.82,3.11,1.3,1.03.48,1.96,1.06,2.79,1.74.83.69,1.5,1.54,1.99,2.55.49,1.01.74,2.26.74,3.75,0,1.76-.42,3.32-1.25,4.67-.83,1.36-2,2.41-3.49,3.15s-3.22,1.12-5.18,1.12c-1.58,0-3.02-.19-4.31-.58s-2.43-.84-3.4-1.36c-.97-.52-1.74-.96-2.3-1.32l1.03-1.79c.66.48,1.45.95,2.39,1.43s1.96.88,3.06,1.21c1.1.33,2.21.49,3.31.49,1.28,0,2.53-.25,3.73-.76s2.21-1.27,2.99-2.3c.79-1.03,1.18-2.33,1.18-3.91s-.37-2.75-1.12-3.69c-.75-.94-1.7-1.71-2.86-2.3-1.16-.6-2.4-1.13-3.71-1.61-1.01-.39-2.03-.8-3.04-1.23-1.01-.43-1.94-.95-2.77-1.56-.83-.61-1.5-1.35-1.99-2.21-.49-.86-.74-1.91-.74-3.13,0-1.52.39-2.85,1.16-3.98.77-1.13,1.82-2.02,3.15-2.66,1.33-.64,2.84-.98,4.54-1.01,1.49,0,3,.19,4.54.58,1.53.39,2.87.88,4,1.47l-.85,1.7Z" style="fill: #fff; stroke-width: 0px;"/>
        <path d="m129.8,12.13c0-.42.16-.77.49-1.05.33-.28.68-.42,1.07-.42.42,0,.77.14,1.07.42.3.28.45.63.45,1.05,0,.45-.15.81-.45,1.09-.3.28-.66.42-1.07.42-.39,0-.75-.15-1.07-.45-.33-.3-.49-.66-.49-1.07Zm.45,6.44h2.1v17.48h-2.1v-17.48Z" style="fill: #fff; stroke-width: 0px;"/>
        <path d="m142.14,18.57l.22,4.87-.31-.45c.6-1.52,1.59-2.72,2.97-3.6,1.38-.88,2.9-1.32,4.54-1.32.98,0,1.87.19,2.66.56.79.37,1.43.88,1.92,1.52.49.64.78,1.38.87,2.21l-.27.27c.62-1.49,1.61-2.62,2.95-3.4,1.34-.77,2.79-1.16,4.34-1.16,1.67,0,3,.48,3.98,1.45s1.49,2.23,1.52,3.78v12.74h-2.1v-12.29c-.03-1.04-.36-1.93-.98-2.66-.63-.73-1.58-1.12-2.86-1.18-1.16,0-2.23.3-3.22.89-.98.6-1.78,1.39-2.39,2.37-.61.98-.95,2.09-1.01,3.31v9.57h-2.1v-12.29c-.03-1.04-.37-1.93-1.01-2.66s-1.6-1.12-2.88-1.18c-1.19,0-2.29.3-3.29.89-1,.6-1.8,1.41-2.39,2.44-.6,1.03-.89,2.17-.89,3.42v9.39h-2.1v-17.48h1.83Z" style="fill: #fff; stroke-width: 0px;"/>
        <path d="m180.98,36.54c-1.64,0-2.95-.48-3.93-1.45-.98-.97-1.5-2.23-1.56-3.78v-12.74h2.1v12.11c.06,1.13.42,2.07,1.09,2.82.67.75,1.68,1.15,3.02,1.21,1.13,0,2.19-.3,3.17-.89.98-.6,1.78-1.41,2.39-2.44.61-1.03.92-2.2.92-3.51v-9.3h2.1v17.48h-1.88l-.22-5.5.31,1.21c-.3.89-.83,1.71-1.59,2.44-.76.73-1.65,1.3-2.68,1.72s-2.11.63-3.24.63Z" style="fill: #fff; stroke-width: 0px;"/>
        <path d="m198.24,2.08h2.1v33.97h-2.1V2.08Z" style="fill: #fff; stroke-width: 0px;"/>
        <path d="m215.53,36.4c-1.67,0-3.18-.38-4.54-1.14-1.36-.76-2.43-1.83-3.22-3.2-.79-1.37-1.18-2.96-1.18-4.78,0-1.94.42-3.6,1.25-4.98.83-1.38,1.97-2.44,3.4-3.17,1.43-.73,3.05-1.1,4.87-1.1,1.55,0,3.02.46,4.4,1.39,1.39.92,2.38,2.09,2.97,3.49l-.31.63.27-4.96h1.88v17.48h-2.1v-5.41l.45.8c-.21.6-.57,1.18-1.07,1.77-.51.58-1.12,1.12-1.85,1.61-.73.49-1.54.88-2.41,1.16s-1.81.42-2.79.42Zm.45-1.79c1.31,0,2.5-.28,3.55-.83,1.06-.55,1.91-1.32,2.57-2.3.65-.98,1.03-2.12,1.12-3.4v-2.5c-.24-1.1-.71-2.09-1.41-2.95s-1.56-1.55-2.57-2.06c-1.01-.51-2.12-.76-3.31-.76-1.31,0-2.52.31-3.62.92-1.1.61-1.98,1.47-2.64,2.57-.66,1.1-.98,2.4-.98,3.89,0,1.37.33,2.62.98,3.73s1.54,2.01,2.66,2.68c1.12.67,2.33,1.01,3.64,1.01Z" style="fill: #fff; stroke-width: 0px;"/>
        <path d="m235.02,10.88h2.15v7.91h5.41v1.7h-5.41v15.55h-2.15v-15.55h-3.71v-1.7h3.71v-7.91Z" style="fill: #fff; stroke-width: 0px;"/>
        <path d="m247.36,12.13c0-.42.16-.77.49-1.05s.69-.42,1.07-.42c.42,0,.77.14,1.07.42s.45.63.45,1.05c0,.45-.15.81-.45,1.09s-.66.42-1.07.42c-.39,0-.75-.15-1.07-.45-.33-.3-.49-.66-.49-1.07Zm.45,6.44h2.1v17.48h-2.1v-17.48Z" style="fill: #fff; stroke-width: 0px;"/>
        <path d="m256.16,27.2c0-1.7.41-3.25,1.23-4.65.82-1.4,1.94-2.51,3.35-3.33,1.42-.82,3-1.23,4.76-1.23s3.38.41,4.78,1.23c1.4.82,2.5,1.93,3.31,3.33.8,1.4,1.21,2.95,1.21,4.65s-.4,3.25-1.21,4.65c-.8,1.4-1.92,2.51-3.33,3.33-1.42.82-3,1.23-4.76,1.23s-3.38-.39-4.78-1.18c-1.4-.79-2.51-1.88-3.33-3.26-.82-1.39-1.23-2.97-1.23-4.76Zm2.1.04c0,1.37.32,2.62.96,3.73.64,1.12,1.5,2,2.59,2.66,1.09.66,2.3.98,3.64.98s2.56-.33,3.64-.98c1.09-.66,1.95-1.54,2.59-2.66s.96-2.36.96-3.73-.32-2.62-.96-3.73-1.5-2.01-2.59-2.68c-1.09-.67-2.3-1.01-3.64-1.01s-2.6.35-3.69,1.05-1.94,1.62-2.57,2.75c-.63,1.13-.94,2.34-.94,3.62Z" style="fill: #fff; stroke-width: 0px;"/>
        <path d="m282.89,18.57l.22,5.5-.27-1.07c.51-1.52,1.47-2.72,2.88-3.6,1.41-.88,2.99-1.32,4.71-1.32,1.64,0,2.96.48,3.98,1.45,1.01.97,1.53,2.23,1.56,3.78v12.74h-2.15v-12.16c-.03-1.13-.39-2.07-1.07-2.82s-1.68-1.13-2.99-1.16c-1.16,0-2.25.28-3.26.85-1.01.57-1.83,1.36-2.44,2.37-.61,1.01-.92,2.19-.92,3.53v9.39h-2.1v-17.48h1.83Z" style="fill: #fff; stroke-width: 0px;"/>
        <path d="m324.82,36.4c-1.64,0-3.13-.39-4.47-1.18-1.34-.79-2.41-1.88-3.2-3.29-.79-1.4-1.18-2.98-1.18-4.74,0-1.88.4-3.5,1.21-4.87.8-1.37,1.9-2.43,3.29-3.17s2.91-1.12,4.58-1.12,3.25.43,4.76,1.3,2.6,2,3.29,3.4l-.36.98V2.08h2.1v33.97h-2.15v-5.36l.45.98c-.75,1.4-1.86,2.54-3.35,3.42s-3.14,1.32-4.96,1.32Zm.54-1.83c1.34,0,2.55-.29,3.62-.87,1.07-.58,1.94-1.37,2.59-2.37.66-1,1.03-2.12,1.12-3.38v-2.23c-.21-1.13-.67-2.15-1.39-3.04-.71-.89-1.58-1.6-2.59-2.12-1.01-.52-2.13-.78-3.35-.78-1.34,0-2.56.31-3.67.94-1.1.62-1.98,1.49-2.64,2.59-.66,1.1-.98,2.38-.98,3.84,0,1.37.33,2.62.98,3.73.66,1.12,1.54,2.01,2.66,2.68,1.12.67,2.33,1,3.64,1Z" style="fill: #fff; stroke-width: 0px;"/>
        <path d="m350.38,36.4c-1.82,0-3.43-.4-4.83-1.21s-2.5-1.9-3.29-3.29c-.79-1.39-1.18-2.94-1.18-4.67s.42-3.25,1.25-4.65c.83-1.4,1.96-2.52,3.37-3.35,1.42-.83,2.99-1.25,4.72-1.25,2.09,0,3.84.61,5.25,1.83,1.42,1.22,2.44,2.82,3.06,4.78l-15.29,5.9-.63-1.52,13.99-5.45-.45.63c-.51-1.19-1.27-2.22-2.3-3.08-1.03-.86-2.29-1.3-3.78-1.3-1.34,0-2.55.33-3.62.98-1.07.66-1.93,1.54-2.57,2.64-.64,1.1-.96,2.35-.96,3.75,0,1.31.3,2.53.92,3.67.61,1.13,1.47,2.04,2.57,2.73,1.1.69,2.37,1.03,3.8,1.03.95,0,1.87-.18,2.75-.54s1.66-.82,2.35-1.39l1.07,1.52c-.83.66-1.8,1.19-2.88,1.61s-2.2.63-3.33.63Z" style="fill: #fff; stroke-width: 0px;"/>
      </g>
      <g>
        <path d="m109.09,44.76l9.86,24.3-3.85-.78,8.94-23.52h7.89l-15.41,35.31-15.41-35.31h7.98Z" style="fill: #fff; stroke-width: 0px;"/>
        <path d="m137.74,44.76h23.02v6.42h-16.37v7.2h14.49v6.42h-14.49v7.29h17.01v6.42h-23.66v-33.75Z" style="fill: #fff; stroke-width: 0px;"/>
        <path d="m196.66,44.76v33.75h-6.65v-13.71h-15.08v13.71h-6.65v-33.75h6.65v13.62h15.08v-13.62h6.65Z" style="fill: #fff; stroke-width: 0px;"/>
        <path d="m205.38,44.76h6.65v33.75h-6.65v-33.75Z" style="fill: #fff; stroke-width: 0px;"/>
        <path d="m246.05,75.71c-.37.31-1.05.72-2.04,1.24-.99.52-2.21.98-3.65,1.38-1.44.4-3.03.58-4.77.55-2.66-.06-5.04-.54-7.13-1.44s-3.87-2.13-5.32-3.69c-1.45-1.56-2.56-3.35-3.32-5.37-.76-2.02-1.15-4.17-1.15-6.46,0-2.57.39-4.92,1.17-7.06s1.9-3.99,3.35-5.55c1.45-1.56,3.19-2.77,5.2-3.62,2.02-.86,4.25-1.28,6.69-1.28,2.26,0,4.26.31,6.01.92,1.74.61,3.16,1.27,4.26,1.97l-2.61,6.28c-.76-.58-1.78-1.18-3.05-1.81-1.27-.63-2.73-.94-4.38-.94-1.28,0-2.51.27-3.69.8s-2.22,1.29-3.12,2.27-1.61,2.12-2.13,3.42c-.52,1.3-.78,2.71-.78,4.24,0,1.62.24,3.1.71,4.45.47,1.34,1.15,2.5,2.04,3.46s1.95,1.7,3.19,2.22c1.24.52,2.64.78,4.2.78,1.8,0,3.35-.29,4.63-.87,1.28-.58,2.26-1.19,2.93-1.83l2.75,5.96Z" style="fill: #fff; stroke-width: 0px;"/>
        <path d="m258.66,66.04c0,1.07.32,2.09.96,3.07.64.98,1.49,1.77,2.54,2.38,1.05.61,2.21.92,3.46.92,1.38,0,2.6-.3,3.67-.92,1.07-.61,1.92-1.41,2.54-2.38.63-.98.94-2,.94-3.07v-21.28h6.56v21.41c0,2.48-.61,4.67-1.83,6.58-1.22,1.91-2.87,3.41-4.95,4.49-2.08,1.08-4.39,1.63-6.92,1.63s-4.79-.54-6.86-1.63-3.71-2.58-4.93-4.49c-1.22-1.91-1.83-4.1-1.83-6.58v-21.41h6.65v21.28Z" style="fill: #fff; stroke-width: 0px;"/>
        <path d="m287.36,44.76h6.65v27.33h15.87v6.42h-22.51v-33.75Z" style="fill: #fff; stroke-width: 0px;"/>
        <path d="m316.75,44.76h23.02v6.42h-16.37v7.2h14.49v6.42h-14.49v7.29h17.01v6.42h-23.66v-33.75Z" style="fill: #fff; stroke-width: 0px;"/>
        <path d="m365.31,52.92c-1.28-.7-2.59-1.28-3.92-1.74-1.33-.46-2.58-.69-3.74-.69-1.44,0-2.57.29-3.39.87-.83.58-1.24,1.45-1.24,2.61,0,.79.31,1.51.94,2.13.63.63,1.44,1.18,2.43,1.67.99.49,2.02.93,3.09,1.33.98.37,1.95.8,2.91,1.31.96.5,1.83,1.13,2.59,1.88.76.75,1.38,1.68,1.83,2.8.46,1.12.69,2.48.69,4.1,0,1.71-.44,3.3-1.33,4.77-.89,1.47-2.19,2.65-3.9,3.55-1.71.9-3.82,1.35-6.33,1.35-1.28,0-2.59-.13-3.92-.39-1.33-.26-2.64-.66-3.92-1.19s-2.52-1.22-3.71-2.04l2.93-5.18c.79.58,1.66,1.09,2.59,1.54.93.44,1.87.79,2.82,1.03.95.25,1.82.37,2.61.37s1.6-.12,2.41-.34c.81-.23,1.48-.62,2.02-1.17.53-.55.8-1.31.8-2.29,0-.67-.22-1.28-.67-1.83-.44-.55-1.04-1.05-1.79-1.51-.75-.46-1.57-.86-2.45-1.19-1.04-.4-2.11-.86-3.21-1.38-1.1-.52-2.13-1.15-3.09-1.9s-1.74-1.68-2.34-2.8c-.6-1.12-.89-2.48-.89-4.1,0-1.96.44-3.65,1.31-5.09.87-1.44,2.1-2.57,3.69-3.42,1.59-.84,3.42-1.31,5.5-1.4,2.72,0,4.93.32,6.63.96s3.22,1.41,4.56,2.29l-2.52,5.09Z" style="fill: #fff; stroke-width: 0px;"/>
      </g>
      <g id="g1">
        <path id="path1" d="m22.19,79.16c-1.49-2.14-2.71-3.94-2.71-4.02,0-.07.71-.61,1.58-1.19s2.8-1.91,4.3-2.96c1.5-1.05,2.76-1.91,2.79-1.91s.66,1.8,1.4,3.99l1.33,3.99-2.98,2.98-2.98,2.98-2.72-3.88Zm-16.17-2.49c-.07-.2-.07-.53,0-.73.23-.61,4.41-7.19,7.07-11.13,6.1-9.04,12.48-17.42,19.34-25.42,6.22-7.24,10.7-11.94,23.73-24.92,8.22-8.19,9.49-9.39,10.93-10.33C71.31,1.38,75.97-.23,79.03.03c1.48.12,2.74.69,3.2,1.44,1.82,2.95.51,8.65-3.33,14.48-.95,1.44-2.19,2.75-10.9,11.5-15.21,15.26-20.97,20.6-30.76,28.49-7.05,5.68-13.2,10.17-20.77,15.18-8.84,5.85-10.09,6.51-10.45,5.56Zm52.26-12.78l-7.31-13.14.84-.78c.46-.43,1.83-1.69,3.03-2.79s3.99-3.79,6.2-5.97c3.58-3.54,4.02-3.92,4.09-3.57.05.21.94,8.44,1.99,18.28l1.9,17.89-1.61,1.62c-.89.89-1.66,1.62-1.71,1.62s-3.39-5.91-7.41-13.14Zm-54.43-3.05l-3.85-2.71,2.98-2.98,2.98-2.98,3.99,1.33c2.2.73,3.99,1.36,3.99,1.4s-.86,1.3-1.91,2.8c-1.05,1.5-2.38,3.44-2.96,4.3s-1.13,1.56-1.22,1.56-1.9-1.22-4.02-2.71Zm68.51-1.68c0-.06-.15-1.44-.33-3.08l-.33-2.98,1.34-1.34,1.34-1.34,1.7,1.71,1.7,1.71-2.72,2.72c-1.49,1.49-2.72,2.67-2.72,2.62Zm-1.35-12.9c-.05-.26-.22-1.66-.37-3.12l-.28-2.65,1.08-1.08,1.08-1.08,1.74,1.74,1.74,1.74-2.46,2.46c-2.4,2.4-2.46,2.44-2.55,1.99h0ZM19.39,24.91c-7.05-3.94-12.96-7.25-13.14-7.36-.3-.18-.21-.31,1.33-1.86l1.66-1.66,17.97,1.91c9.89,1.05,18.1,1.95,18.26,1.99.22.06-.76,1.15-4.22,4.67-2.48,2.53-5.49,5.69-6.7,7.03s-2.23,2.44-2.27,2.44c-.04,0-5.85-3.23-12.9-7.17Zm19.59-12.59c-1.36-.15-2.51-.31-2.55-.35s1.02-1.16,2.36-2.5l2.43-2.42,1.74,1.74,1.74,1.74-1.05,1.06c-1.21,1.22-.86,1.17-4.67.74h0Zm-12.26-1.31c-1.41-.16-2.63-.32-2.72-.34s1.05-1.25,2.52-2.73l2.68-2.67,1.7,1.7,1.7,1.7-1.33,1.34c-.86.86-1.45,1.33-1.66,1.32-.18-.01-1.48-.15-2.89-.31Z" style="fill: #fff; stroke-width: 0px;"/>
      </g>
    </g>
  </g>
</svg>