<?xml version="1.0" encoding="UTF-8"?>
<svg id="Calque_2" data-name="Calque 2" xmlns="http://www.w3.org/2000/svg" viewBox="0 0 379.34 105.26">
  <g id="multiplayers-fr">
    <g>
      <path d="m.22,92v-49.71h.07l25.25,35.85-2.73-.53,25.19-35.31h.13v49.71h-6.4v-35.05l.4,3.26-18.19,25.72h-.13L5.35,60.21l1.13-3v34.78H.22Z" fill="#fff"/>
      <path d="m69.18,93.06c-2.49,0-4.54-.77-6.16-2.3-1.62-1.53-2.48-3.52-2.57-5.96v-20.39h6.2v18.19c.09,1.51.52,2.73,1.3,3.66.78.93,2.01,1.42,3.7,1.47,1.55,0,2.94-.46,4.16-1.37,1.22-.91,2.21-2.15,2.96-3.73.75-1.58,1.13-3.37,1.13-5.36v-12.86h6.2v27.58h-5.66l-.53-6.8.33,1.2c-.53,1.29-1.34,2.43-2.43,3.43-1.09,1-2.37,1.79-3.83,2.37-1.47.58-3.06.87-4.8.87Z" fill="#fff"/>
      <path d="m96.84,40.42h6.2v51.57h-6.2v-51.57Z" fill="#fff"/>
      <path d="m116.42,52.28h6.2v12.26h7.6v4.86h-7.6v22.59h-6.2v-22.59h-5.06v-4.86h5.06v-12.26Z" fill="#fff"/>
      <path d="m137.21,54.42c0-.98.39-1.8,1.17-2.46.78-.67,1.63-1,2.57-1s1.77.33,2.5,1c.73.67,1.1,1.49,1.1,2.46s-.37,1.86-1.1,2.5c-.73.64-1.57.97-2.5.97s-1.79-.33-2.57-1c-.78-.67-1.17-1.49-1.17-2.47Zm.47,10h6.2v27.58h-6.2v-27.58Z" fill="#fff"/>
      <path d="m152.74,74.94h12.46v5.46h-12.46v-5.46Z" fill="#fff"/>
      <path d="m175.19,105.26l-3.66-3.8c1.24-1.07,2.22-2.39,2.93-3.96.71-1.58,1.07-3.43,1.07-5.56v-27.52h6.26v27.79c0,3.11-.52,5.74-1.57,7.9-1.04,2.15-2.72,3.88-5.03,5.16Zm-.2-50.84c0-.98.39-1.8,1.17-2.46.78-.67,1.63-1,2.57-1s1.77.33,2.5,1c.73.67,1.1,1.49,1.1,2.46s-.37,1.86-1.1,2.5c-.73.64-1.57.97-2.5.97s-1.79-.33-2.57-1c-.78-.67-1.17-1.49-1.17-2.47Z" fill="#fff"/>
      <path d="m189.72,77.94c0-2.75.65-5.24,1.97-7.46,1.31-2.22,3.12-3.97,5.43-5.26,2.31-1.29,4.93-1.93,7.86-1.93s5.66.64,7.93,1.93c2.27,1.29,4.02,3.04,5.26,5.26,1.24,2.22,1.87,4.71,1.87,7.46s-.62,5.25-1.87,7.5c-1.24,2.24-3.01,4.01-5.3,5.3-2.29,1.29-4.94,1.93-7.96,1.93s-5.54-.61-7.83-1.83c-2.29-1.22-4.09-2.93-5.4-5.13-1.31-2.2-1.97-4.79-1.97-7.76Zm6.2.07c0,1.78.4,3.39,1.2,4.83.8,1.44,1.88,2.59,3.23,3.43,1.36.84,2.85,1.27,4.5,1.27,1.73,0,3.28-.42,4.63-1.27,1.35-.84,2.41-1.99,3.16-3.43.76-1.44,1.13-3.05,1.13-4.83s-.38-3.39-1.13-4.83c-.76-1.44-1.81-2.6-3.16-3.46-1.36-.87-2.9-1.3-4.63-1.3s-3.21.44-4.56,1.33c-1.36.89-2.42,2.06-3.2,3.5-.78,1.44-1.17,3.03-1.17,4.76Z" fill="#fff"/>
      <path d="m237.16,93.06c-2.49,0-4.54-.77-6.16-2.3-1.62-1.53-2.48-3.52-2.56-5.96v-20.39h6.2v18.19c.09,1.51.52,2.73,1.3,3.66s2.01,1.42,3.7,1.47c1.55,0,2.94-.46,4.16-1.37s2.21-2.15,2.97-3.73c.75-1.58,1.13-3.37,1.13-5.36v-12.86h6.2v27.58h-5.66l-.53-6.8.33,1.2c-.53,1.29-1.34,2.43-2.43,3.43-1.09,1-2.37,1.79-3.83,2.37-1.47.58-3.06.87-4.8.87Z" fill="#fff"/>
      <path d="m277.6,92.66c-3.16,0-5.86-.63-8.13-1.9-2.27-1.27-4.01-3-5.23-5.2-1.22-2.2-1.83-4.72-1.83-7.56s.69-5.17,2.07-7.4c1.38-2.22,3.22-4,5.53-5.33s4.89-2,7.73-2c3.64,0,6.66,1.07,9.06,3.2,2.4,2.13,4.02,5.06,4.86,8.79l-22.72,8-1.47-3.67,18.66-6.8-1.33.87c-.53-1.47-1.42-2.74-2.67-3.83-1.24-1.09-2.87-1.63-4.86-1.63-1.69,0-3.2.41-4.53,1.23-1.33.82-2.38,1.94-3.13,3.37-.76,1.42-1.13,3.04-1.13,4.86s.4,3.59,1.2,5.03c.8,1.44,1.9,2.58,3.3,3.4,1.4.82,2.99,1.23,4.76,1.23,1.2,0,2.37-.22,3.5-.67s2.19-1.02,3.17-1.73l2.87,4.6c-1.38.93-2.92,1.69-4.63,2.26-1.71.58-3.39.87-5.03.87Z" fill="#fff"/>
      <path d="m308.18,93.06c-2.49,0-4.54-.77-6.16-2.3-1.62-1.53-2.48-3.52-2.56-5.96v-20.39h6.2v18.19c.09,1.51.52,2.73,1.3,3.66s2.01,1.42,3.7,1.47c1.55,0,2.94-.46,4.16-1.37s2.21-2.15,2.97-3.73c.75-1.58,1.13-3.37,1.13-5.36v-12.86h6.2v27.58h-5.66l-.53-6.8.33,1.2c-.53,1.29-1.34,2.43-2.43,3.43-1.09,1-2.37,1.79-3.83,2.37-1.47.58-3.06.87-4.8.87Z" fill="#fff"/>
      <path d="m341.36,64.41l.6,8-.33-1.07c.71-1.69,1.74-3.12,3.1-4.3,1.35-1.18,2.78-2.09,4.26-2.73,1.49-.64,2.79-.97,3.9-.97l-.33,6.13c-2.09-.13-3.92.27-5.5,1.2-1.58.93-2.82,2.18-3.73,3.73-.91,1.56-1.37,3.22-1.37,5v12.59h-6.13v-27.58h5.53Z" fill="#fff"/>
      <path d="m368.62,92.53c-1.96,0-3.85-.34-5.7-1.03-1.84-.69-3.37-1.72-4.56-3.1l2.6-3.6c1.15,1.11,2.34,1.94,3.56,2.5,1.22.56,2.43.83,3.63.83.89,0,1.71-.11,2.46-.33.75-.22,1.37-.59,1.83-1.1.47-.51.7-1.21.7-2.1,0-.98-.32-1.75-.97-2.33-.64-.58-1.47-1.04-2.46-1.4s-2.05-.69-3.17-1c-2.27-.75-4-1.8-5.2-3.13-1.2-1.33-1.8-2.95-1.8-4.86,0-1.47.37-2.83,1.1-4.1.73-1.27,1.82-2.3,3.26-3.1,1.44-.8,3.23-1.2,5.36-1.2,1.91,0,3.62.23,5.13.7,1.51.47,2.93,1.23,4.26,2.3l-2.47,3.86c-.8-.84-1.75-1.47-2.86-1.87-1.11-.4-2.11-.62-3-.67-.76-.04-1.48.07-2.17.33-.69.27-1.26.64-1.7,1.13-.44.49-.67,1.07-.67,1.73,0,.93.31,1.69.93,2.27.62.58,1.43,1.03,2.43,1.37,1,.33,1.99.68,2.96,1.03,1.38.4,2.6.93,3.67,1.6,1.07.67,1.92,1.49,2.57,2.47.64.98.97,2.2.97,3.66,0,1.64-.39,3.17-1.17,4.56-.78,1.4-1.96,2.51-3.53,3.33-1.58.82-3.59,1.23-6.03,1.23Z" fill="#fff"/>
    </g>
    <g>
      <path d="m8.49,25.34c0,2.15-.38,3.97-1.13,5.48-.75,1.51-1.77,2.65-3.05,3.43-1.28.78-2.72,1.2-4.31,1.25v-1.34c2.03-.11,3.73-.93,5.08-2.47s2.03-3.69,2.03-6.48V0h1.38v25.34Z" fill="#fff"/>
      <path d="m26.55,0h17.9v1.38h-16.47v12.58h14.84v1.34h-14.84v12.84h17.06v1.38h-18.48V0Z" fill="#fff"/>
      <path d="m62.8,19.69c0,1.84.36,3.42,1.09,4.72.72,1.31,1.72,2.31,2.99,3.01,1.27.7,2.71,1.05,4.33,1.05s3.11-.35,4.39-1.05c1.28-.7,2.29-1.7,3.03-3.01.74-1.31,1.11-2.88,1.11-4.72V0h1.38v19.82c0,2.15-.44,3.96-1.32,5.46s-2.06,2.63-3.55,3.41-3.17,1.17-5.04,1.17-3.54-.39-5.02-1.17c-1.48-.78-2.65-1.92-3.51-3.41-.86-1.49-1.3-3.31-1.3-5.46V0h1.42v19.69Z" fill="#fff"/>
      <path d="m96.17,29.52l9.87-15.43.84,1.13-8.99,14.3h-1.71Zm.42-29.52h1.76l19.19,29.52h-1.76L96.59,0Zm10.08,13.63L115.28,0h1.67l-9.41,14.72-.88-1.09Z" fill="#fff"/>
    </g>
  </g>
</svg>