<?xml version="1.0" encoding="UTF-8"?>
<svg id="Calque_2" data-name="Calque 2" xmlns="http://www.w3.org/2000/svg" viewBox="0 0 321.98 81.57">
  <g id="svg19">
    <g>
      <g>
        <path d="m106.04,31.16c0,2.51-.46,4.66-1.38,6.44-.92,1.78-2.16,3.14-3.7,4.08-1.54.94-3.29,1.44-5.23,1.5v-2.24c2.29-.13,4.19-1.03,5.7-2.72,1.51-1.69,2.27-4.09,2.27-7.21V2.39h2.34v28.77Z" style="fill: #fff; stroke-width: 0px;"/>
        <path d="m123.79,36.65c-1.94,0-3.66-.43-5.15-1.29-1.5-.86-2.67-2.03-3.51-3.51-.84-1.48-1.26-3.14-1.26-4.99s.45-3.47,1.34-4.96c.89-1.5,2.09-2.69,3.6-3.58,1.51-.89,3.19-1.34,5.03-1.34,2.23,0,4.1.65,5.61,1.96,1.51,1.3,2.6,3.01,3.27,5.11l-16.32,6.3-.67-1.62,14.94-5.82-.48.67c-.54-1.27-1.36-2.37-2.46-3.29-1.1-.92-2.44-1.38-4.03-1.38-1.43,0-2.72.35-3.87,1.05-1.15.7-2.06,1.64-2.74,2.82-.68,1.18-1.03,2.51-1.03,4.01,0,1.4.33,2.7.98,3.91.65,1.21,1.57,2.18,2.74,2.91,1.18.73,2.53,1.1,4.06,1.1,1.02,0,2-.19,2.94-.57.94-.38,1.77-.88,2.5-1.48l1.15,1.62c-.89.7-1.92,1.27-3.08,1.72-1.16.44-2.35.67-3.55.67Z" style="fill: #fff; stroke-width: 0px;"/>
        <path d="m144.78,36.79c-1.75,0-3.15-.52-4.2-1.55s-1.61-2.38-1.67-4.03v-13.6h2.24v12.93c.06,1.21.45,2.21,1.17,3.01.72.8,1.79,1.23,3.22,1.29,1.21,0,2.34-.32,3.39-.95s1.9-1.5,2.55-2.6c.65-1.1.98-2.35.98-3.75v-9.93h2.24v18.66h-2l-.24-5.87.33,1.29c-.32.95-.88,1.82-1.69,2.6-.81.78-1.77,1.39-2.86,1.84s-2.25.67-3.46.67Z" style="fill: #fff; stroke-width: 0px;"/>
        <path d="m176.95,36.27h-2.67l-13.98-18.66h2.82l13.84,18.66Zm-8.3-8.02l-5.73,8.02h-2.39l6.87-9.5,1.24,1.48Zm.05-2.58l5.54-8.06h2.34l-6.92,9.73-.95-1.67Z" style="fill: #fff; stroke-width: 0px;"/>
        <path d="m204.81,36.65c-1.75,0-3.34-.42-4.77-1.26s-2.57-2.01-3.41-3.51c-.84-1.5-1.26-3.18-1.26-5.06,0-2,.43-3.74,1.29-5.2.86-1.46,2.03-2.59,3.51-3.39,1.48-.79,3.11-1.19,4.89-1.19s3.47.46,5.08,1.38c1.61.92,2.77,2.13,3.51,3.63l-.38,1.05V0h2.24v36.27h-2.29v-5.73l.48,1.05c-.8,1.5-1.99,2.71-3.58,3.65-1.59.94-3.36,1.41-5.3,1.41Zm.57-1.96c1.43,0,2.72-.31,3.87-.93,1.14-.62,2.07-1.46,2.77-2.53.7-1.07,1.1-2.27,1.19-3.6v-2.39c-.22-1.21-.72-2.29-1.48-3.25-.76-.95-1.69-1.71-2.77-2.27-1.08-.56-2.27-.83-3.58-.83-1.43,0-2.74.33-3.91,1-1.18.67-2.12,1.59-2.82,2.77-.7,1.18-1.05,2.55-1.05,4.1,0,1.46.35,2.79,1.05,3.98.7,1.19,1.65,2.15,2.84,2.86,1.19.72,2.49,1.07,3.89,1.07Z" style="fill: #fff; stroke-width: 0px;"/>
        <path d="m232.11,36.65c-1.94,0-3.66-.43-5.15-1.29-1.5-.86-2.67-2.03-3.51-3.51-.84-1.48-1.26-3.14-1.26-4.99s.45-3.47,1.34-4.96,2.09-2.69,3.6-3.58c1.51-.89,3.19-1.34,5.03-1.34,2.23,0,4.1.65,5.61,1.96,1.51,1.3,2.6,3.01,3.27,5.11l-16.32,6.3-.67-1.62,14.94-5.82-.48.67c-.54-1.27-1.36-2.37-2.46-3.29-1.1-.92-2.44-1.38-4.03-1.38-1.43,0-2.72.35-3.87,1.05-1.15.7-2.06,1.64-2.74,2.82-.68,1.18-1.03,2.51-1.03,4.01,0,1.4.33,2.7.98,3.91.65,1.21,1.57,2.18,2.74,2.91,1.18.73,2.53,1.1,4.06,1.1,1.02,0,2-.19,2.93-.57.94-.38,1.77-.88,2.5-1.48l1.15,1.62c-.89.7-1.92,1.27-3.08,1.72-1.16.44-2.35.67-3.55.67Z" style="fill: #fff; stroke-width: 0px;"/>
      </g>
      <g>
        <path d="m127.57,77.77c-.44.37-1.25.86-2.45,1.48-1.19.62-2.65,1.17-4.37,1.65-1.72.48-3.63.7-5.71.66-3.19-.07-6.04-.65-8.54-1.73-2.51-1.08-4.63-2.56-6.37-4.42-1.74-1.87-3.07-4.01-3.98-6.43-.92-2.42-1.37-5-1.37-7.75,0-3.08.47-5.9,1.4-8.46.93-2.56,2.27-4.78,4.01-6.65,1.74-1.87,3.82-3.32,6.24-4.34,2.42-1.03,5.09-1.54,8.02-1.54,2.71,0,5.11.37,7.2,1.1,2.09.73,3.79,1.52,5.11,2.36l-3.13,7.53c-.92-.7-2.13-1.42-3.65-2.17-1.52-.75-3.27-1.13-5.25-1.13-1.54,0-3.01.32-4.42.96-1.41.64-2.66,1.55-3.74,2.72-1.08,1.17-1.93,2.54-2.56,4.09-.62,1.56-.93,3.25-.93,5.08,0,1.94.28,3.72.85,5.33.57,1.61,1.38,2.99,2.45,4.15,1.06,1.15,2.33,2.04,3.82,2.67,1.48.62,3.16.93,5.03.93,2.16,0,4.01-.35,5.55-1.04,1.54-.7,2.71-1.43,3.52-2.2l3.3,7.14Z" style="fill: #fff; stroke-width: 0px;"/>
        <path d="m133.06,60.96c0-2.78.53-5.42,1.59-7.91,1.06-2.49,2.54-4.7,4.42-6.62,1.89-1.92,4.07-3.43,6.57-4.53,2.49-1.1,5.17-1.65,8.02-1.65s5.48.55,7.97,1.65c2.49,1.1,4.7,2.61,6.62,4.53,1.92,1.92,3.42,4.13,4.51,6.62,1.08,2.49,1.62,5.13,1.62,7.91s-.54,5.53-1.62,8.02c-1.08,2.49-2.58,4.68-4.51,6.57-1.92,1.89-4.13,3.36-6.62,4.42-2.49,1.06-5.15,1.59-7.97,1.59s-5.53-.53-8.02-1.59c-2.49-1.06-4.68-2.54-6.57-4.42-1.89-1.89-3.36-4.08-4.42-6.57-1.06-2.49-1.59-5.17-1.59-8.02Zm8.24,0c0,1.8.32,3.47.96,5.03.64,1.56,1.54,2.93,2.69,4.12,1.15,1.19,2.49,2.12,4.01,2.78,1.52.66,3.18.99,4.97.99s3.32-.33,4.81-.99c1.48-.66,2.77-1.58,3.87-2.78,1.1-1.19,1.96-2.56,2.58-4.12.62-1.56.93-3.23.93-5.03s-.32-3.53-.96-5.11c-.64-1.57-1.52-2.96-2.64-4.15-1.12-1.19-2.43-2.12-3.93-2.78-1.5-.66-3.13-.99-4.89-.99s-3.39.33-4.89.99c-1.5.66-2.82,1.58-3.96,2.78-1.14,1.19-2.02,2.57-2.64,4.15-.62,1.58-.93,3.28-.93,5.11Z" style="fill: #fff; stroke-width: 0px;"/>
        <path d="m189.5,66.18c0,1.28.38,2.51,1.15,3.68.77,1.17,1.79,2.12,3.05,2.86,1.26.73,2.65,1.1,4.15,1.1,1.65,0,3.11-.37,4.4-1.1,1.28-.73,2.3-1.68,3.05-2.86.75-1.17,1.13-2.4,1.13-3.68v-25.5h7.86v25.66c0,2.97-.73,5.6-2.2,7.88-1.47,2.29-3.44,4.08-5.93,5.39s-5.26,1.95-8.3,1.95-5.74-.65-8.21-1.95-4.44-3.1-5.91-5.39c-1.47-2.29-2.2-4.92-2.2-7.88v-25.66h7.97v25.5Z" style="fill: #fff; stroke-width: 0px;"/>
        <path d="m236.15,40.68c2.53,0,4.78.32,6.76.96,1.98.64,3.63,1.56,4.97,2.75,1.34,1.19,2.35,2.62,3.05,4.29.7,1.67,1.04,3.54,1.04,5.63,0,1.65-.25,3.3-.74,4.95-.49,1.65-1.3,3.15-2.42,4.51-1.12,1.36-2.59,2.45-4.42,3.27-1.83.82-4.1,1.24-6.81,1.24h-5.71v12.86h-7.97v-40.44h12.25Zm1.37,19.89c1.21,0,2.22-.2,3.02-.6.81-.4,1.44-.92,1.9-1.54s.79-1.27.99-1.95c.2-.68.3-1.31.3-1.9,0-.44-.06-1-.19-1.68-.13-.68-.39-1.36-.8-2.06-.4-.7-1.02-1.28-1.84-1.76-.82-.48-1.93-.71-3.32-.71h-5.71v12.2h5.66Zm7.47,4.95l10,15.61h-9.29l-10.22-15.39,9.51-.22Z" style="fill: #fff; stroke-width: 0px;"/>
        <path d="m283.19,50.46c-1.54-.84-3.1-1.54-4.7-2.09-1.59-.55-3.09-.82-4.48-.82-1.72,0-3.08.35-4.07,1.04-.99.7-1.48,1.74-1.48,3.13,0,.95.38,1.8,1.13,2.56.75.75,1.72,1.42,2.91,2,1.19.59,2.43,1.12,3.71,1.59,1.17.44,2.34.96,3.49,1.57,1.15.6,2.19,1.36,3.1,2.25s1.65,2.01,2.2,3.35c.55,1.34.82,2.98.82,4.92,0,2.05-.53,3.96-1.59,5.71-1.06,1.76-2.62,3.18-4.67,4.26-2.05,1.08-4.58,1.62-7.58,1.62-1.54,0-3.1-.16-4.7-.47-1.59-.31-3.16-.79-4.7-1.43-1.54-.64-3.02-1.46-4.45-2.45l3.52-6.21c.95.7,1.99,1.31,3.1,1.84,1.12.53,2.24.94,3.38,1.24,1.13.29,2.18.44,3.13.44s1.91-.14,2.88-.41c.97-.28,1.78-.74,2.42-1.4.64-.66.96-1.58.96-2.75,0-.8-.27-1.54-.8-2.2-.53-.66-1.25-1.26-2.14-1.81-.9-.55-1.88-1.03-2.94-1.43-1.25-.48-2.53-1.03-3.85-1.65s-2.56-1.38-3.71-2.28c-1.15-.9-2.09-2.01-2.8-3.35-.71-1.34-1.07-2.98-1.07-4.92,0-2.34.52-4.38,1.57-6.1,1.04-1.72,2.52-3.09,4.42-4.09,1.9-1.01,4.1-1.57,6.59-1.68,3.26,0,5.91.38,7.94,1.15s3.86,1.69,5.47,2.75l-3.02,6.1Z" style="fill: #fff; stroke-width: 0px;"/>
        <path d="m293.63,40.68h27.58v7.69h-19.62v8.63h17.36v7.69h-17.36v8.74h20.39v7.69h-28.35v-40.44Z" style="fill: #fff; stroke-width: 0px;"/>
      </g>
      <g id="g1">
        <path id="path1" d="m69.43,80.38c-.26-.04-5.43-.92-11.49-1.96s-19.31-3.3-29.44-5.03c-10.13-1.73-18.61-3.22-18.84-3.31-.23-.09-.59-.35-.81-.59-1.11-1.19-4.51-7.75-5.77-11.13-1.35-3.62-2.42-7.97-2.88-11.73-.26-2.14-.26-8.12,0-10.23,1.22-9.79,5.43-18.47,12.05-24.83,3.01-2.89,5.77-4.82,9.47-6.6,6.74-3.25,14.04-4.23,21.57-2.9,12.44,2.2,23.18,10.4,29.22,22.29.87,1.72,2.35,5.18,2.35,5.49,0,.05-9.03.09-20.07.09-14.27,0-20.31.05-20.9.18-4.19.89-6.71,5.53-5.11,9.43.53,1.29,9.21,17.5,9.6,17.93.76.84-.16.81,21.09.81h19.74l.52,4.53c.86,7.52.89,8.12.6,9.57-.62,3.02-2.67,5.72-5.32,6.97-.73.35-1.66.71-2.07.81-.88.21-2.83.34-3.5.23h0ZM22.27,34.39c.79-.4,1.26-1.18,1.26-2.09s-.48-1.69-1.26-2.09c-.46-.23-1-.28-3.33-.28-2.95,0-3.41.08-4.1.74-.88.84-.94,2.12-.16,3.05.7.83,1.09.92,4.21.92,2.39,0,2.92-.04,3.38-.27h0Zm0-9.45c1.69-.85,1.69-3.25,0-4.16-.49-.27-.86-.29-3.57-.25-2.77.04-3.06.07-3.45.37-.78.58-1.08,1.13-1.08,1.96s.33,1.43,1.18,2.01c.49.34.67.35,3.45.35,2.47,0,3.01-.04,3.48-.28Zm16.72,23.86l-2.53-4.76.82-.26c1.1-.34,2.03-.84,2.72-1.44.46-.41.6-.46.71-.27.12.18,5.5,10.23,6,11.21.13.26-.04.28-2.52.28h-2.67l-2.53-4.76Zm8.34-4.42c-2.69-5.04-4.93-9.3-4.99-9.45-.1-.26.77-.28,16.91-.28s17.02.02,17.1.28c.29.95.82,4.81,1.51,11.05.44,3.93.79,7.24.79,7.36,0,.18-2.24.21-13.21.21h-13.21l-4.89-9.17Zm-12.86-5.22c-.64-.28-1.29-1.08-1.42-1.74-.29-1.54,1.35-3.07,2.87-2.69,2.03.51,2.4,3.25.58,4.29-.69.4-1.34.44-2.04.14h0Z" style="fill: #fff; stroke-width: 0px;"/>
      </g>
    </g>
  </g>
</svg>