<?xml version="1.0" encoding="UTF-8"?>
<svg id="Calque_2" data-name="Calque 2" xmlns="http://www.w3.org/2000/svg" viewBox="0 0 235.63 82.74">
  <g id="svg19">
    <g>
      <g>
        <path d="m109.18,29.19c0,2.35-.43,4.37-1.3,6.03-.87,1.67-2.02,2.94-3.46,3.82-1.45.88-3.08,1.35-4.89,1.41v-2.1c2.15-.12,3.92-.97,5.34-2.55,1.42-1.58,2.12-3.83,2.12-6.75V2.23h2.19v26.95Z" style="fill: #fff; stroke-width: 0px;"/>
        <path d="m125.8,34.33c-1.82,0-3.43-.4-4.83-1.21-1.4-.8-2.5-1.9-3.29-3.29-.79-1.39-1.18-2.94-1.18-4.67s.42-3.25,1.25-4.65c.83-1.4,1.96-2.52,3.38-3.35,1.42-.83,2.99-1.25,4.71-1.25,2.09,0,3.84.61,5.25,1.83,1.42,1.22,2.44,2.82,3.06,4.78l-15.29,5.9-.62-1.52,13.99-5.45-.45.63c-.51-1.19-1.27-2.22-2.3-3.08-1.03-.86-2.29-1.3-3.78-1.3-1.34,0-2.55.33-3.62.98-1.07.66-1.93,1.54-2.57,2.64-.64,1.1-.96,2.35-.96,3.75,0,1.31.3,2.53.92,3.67.61,1.13,1.47,2.04,2.57,2.73,1.1.69,2.37,1.03,3.8,1.03.95,0,1.87-.18,2.75-.54.88-.36,1.66-.82,2.35-1.39l1.07,1.52c-.83.66-1.8,1.19-2.88,1.61-1.09.42-2.2.63-3.33.63Z" style="fill: #fff; stroke-width: 0px;"/>
        <path d="m145.47,34.46c-1.64,0-2.95-.48-3.93-1.45-.98-.97-1.5-2.23-1.56-3.78v-12.74h2.1v12.11c.06,1.13.42,2.07,1.09,2.82.67.75,1.68,1.15,3.02,1.21,1.13,0,2.19-.3,3.17-.89.98-.6,1.78-1.41,2.39-2.44s.92-2.2.92-3.51v-9.3h2.1v17.48h-1.88l-.22-5.5.31,1.21c-.3.89-.83,1.71-1.59,2.44-.76.73-1.65,1.3-2.68,1.72-1.03.42-2.11.63-3.24.63Z" style="fill: #fff; stroke-width: 0px;"/>
        <path d="m175.6,33.97h-2.5l-13.1-17.48h2.64l12.96,17.48Zm-7.78-7.51l-5.36,7.51h-2.23l6.44-8.9,1.16,1.39Zm.04-2.41l5.19-7.55h2.19l-6.48,9.12-.89-1.56Z" style="fill: #fff; stroke-width: 0px;"/>
        <path d="m201.7,34.33c-1.64,0-3.13-.39-4.47-1.18s-2.41-1.88-3.2-3.29c-.79-1.4-1.18-2.98-1.18-4.74,0-1.88.4-3.5,1.21-4.87.8-1.37,1.9-2.43,3.29-3.17,1.39-.74,2.91-1.12,4.58-1.12s3.25.43,4.76,1.3c1.5.86,2.6,2,3.29,3.4l-.36.98V0h2.1v33.97h-2.15v-5.36l.45.98c-.75,1.4-1.86,2.54-3.35,3.42-1.49.88-3.14,1.32-4.96,1.32Zm.54-1.83c1.34,0,2.55-.29,3.62-.87,1.07-.58,1.94-1.37,2.59-2.37.66-1,1.03-2.12,1.12-3.37v-2.23c-.21-1.13-.67-2.15-1.39-3.04-.71-.89-1.58-1.6-2.59-2.12-1.01-.52-2.13-.78-3.35-.78-1.34,0-2.56.31-3.67.94-1.1.63-1.98,1.49-2.64,2.59-.66,1.1-.98,2.38-.98,3.84,0,1.37.33,2.62.98,3.73.66,1.12,1.54,2.01,2.66,2.68,1.12.67,2.33,1.01,3.64,1.01Z" style="fill: #fff; stroke-width: 0px;"/>
        <path d="m227.27,34.33c-1.82,0-3.43-.4-4.83-1.21-1.4-.8-2.5-1.9-3.29-3.29-.79-1.39-1.18-2.94-1.18-4.67s.42-3.25,1.25-4.65c.83-1.4,1.96-2.52,3.37-3.35,1.42-.83,2.99-1.25,4.72-1.25,2.09,0,3.84.61,5.25,1.83,1.42,1.22,2.44,2.82,3.06,4.78l-15.29,5.9-.63-1.52,13.99-5.45-.45.63c-.51-1.19-1.27-2.22-2.3-3.08-1.03-.86-2.29-1.3-3.78-1.3-1.34,0-2.55.33-3.62.98-1.07.66-1.93,1.54-2.57,2.64-.64,1.1-.96,2.35-.96,3.75,0,1.31.3,2.53.92,3.67.61,1.13,1.47,2.04,2.57,2.73,1.1.69,2.37,1.03,3.8,1.03.95,0,1.87-.18,2.75-.54.88-.36,1.66-.82,2.35-1.39l1.07,1.52c-.83.66-1.8,1.19-2.88,1.61s-2.2.63-3.33.63Z" style="fill: #fff; stroke-width: 0px;"/>
      </g>
      <g>
        <path d="m112.8,68.32c0,2.93-.58,5.44-1.74,7.52-1.16,2.08-2.77,3.67-4.84,4.79s-4.46,1.72-7.18,1.81v-6.47c2.08-.12,3.77-.76,5.09-1.93,1.31-1.16,1.97-3.12,1.97-5.87v-26.5h6.69v26.64Z" style="fill: #fff; stroke-width: 0px;"/>
        <path d="m131.74,41.68c2.11,0,3.99.27,5.64.8s3.03,1.3,4.15,2.29c1.12.99,1.96,2.19,2.54,3.58.58,1.39.87,2.96.87,4.7,0,1.38-.21,2.75-.62,4.13-.41,1.38-1.09,2.63-2.02,3.76-.93,1.13-2.16,2.04-3.69,2.73-1.53.69-3.42,1.03-5.69,1.03h-4.77v10.73h-6.65v-33.75h10.23Zm1.15,16.6c1.01,0,1.85-.17,2.52-.5.67-.34,1.2-.76,1.58-1.28.38-.52.66-1.06.83-1.63.17-.57.25-1.09.25-1.58,0-.37-.05-.83-.16-1.4-.11-.57-.33-1.14-.66-1.72-.34-.58-.85-1.07-1.54-1.47s-1.61-.6-2.77-.6h-4.77v10.18h4.72Zm6.24,4.13l8.35,13.02h-7.75l-8.53-12.84,7.93-.18Z" style="fill: #fff; stroke-width: 0px;"/>
        <path d="m163.19,41.68c2.78,0,5.14.47,7.06,1.4,1.93.93,3.39,2.25,4.4,3.94s1.51,3.71,1.51,6.03c0,1.38-.21,2.76-.62,4.15-.41,1.39-1.07,2.65-1.97,3.78-.9,1.13-2.11,2.04-3.62,2.73-1.51.69-3.37,1.03-5.57,1.03h-4.77v10.68h-6.65v-33.75h10.22Zm1.15,16.6c1.01,0,1.85-.18,2.52-.53.67-.35,1.2-.79,1.58-1.33.38-.54.66-1.09.83-1.67.17-.58.25-1.08.25-1.51,0-.34-.05-.79-.16-1.35-.11-.57-.33-1.14-.67-1.72-.34-.58-.85-1.07-1.54-1.47s-1.61-.6-2.77-.6h-4.77v10.18h4.72Z" style="fill: #fff; stroke-width: 0px;"/>
        <path d="m209.5,72.04c-.4.43-1.02.86-1.88,1.31-.86.44-1.84.85-2.96,1.21s-2.25.67-3.42.89c-1.16.23-2.26.34-3.3.34-2.75,0-5.23-.41-7.43-1.22-2.2-.81-4.08-1.94-5.64-3.39-1.56-1.45-2.75-3.17-3.58-5.16-.83-1.99-1.24-4.16-1.24-6.51,0-3.09.47-5.77,1.4-8.05.93-2.28,2.2-4.17,3.81-5.69,1.6-1.51,3.45-2.64,5.55-3.37s4.29-1.1,6.58-1.1c2.17,0,4.16.24,5.96.71,1.8.47,3.33,1.06,4.59,1.77l-2.16,6.19c-.55-.31-1.28-.61-2.2-.92s-1.85-.56-2.8-.76c-.95-.2-1.79-.3-2.52-.3-1.83,0-3.45.23-4.86.69-1.41.46-2.59,1.15-3.55,2.06s-1.69,2.06-2.18,3.42c-.49,1.36-.73,2.94-.73,4.75,0,1.59.28,3.02.83,4.29s1.32,2.35,2.32,3.23c.99.89,2.17,1.56,3.53,2.02,1.36.46,2.87.69,4.52.69.95,0,1.82-.07,2.61-.21s1.47-.36,2.02-.67v-4.08h-5.82v-6.42h12.56v14.26Z" style="fill: #fff; stroke-width: 0px;"/>
      </g>
      <path d="m26.71,0C16.79,0,8.74,8.05,8.74,17.98h0c0,9.93,8.05,17.98,17.98,17.98.89,0,1.78-.08,2.65-.21,1.13-2.25,2.14-4.46,2.98-6.56l.42-1.06,8.81-.03c2.03-2.98,3.11-6.5,3.11-10.11C44.69,8.05,36.64,0,26.71,0h0Zm8.19,31.44l-.45.98c-7.8,17.05-18.49,32.85-31.88,47.5l-2.58,2.82h90.95l-1.86-2.65c-11.32-16.12-24.23-32.24-29.75-47.54l-.4-1.11h-24.03Zm-1.47,10.66l1.63,9,3.68-8.2,4.02,8.2,4.64-8.99,1.35,11.98,4.57-11.98,7.42,8.99-.54-8.23c6.22,12.21,15.59,24.41,24.22,36.51H7.56c10.3-11.68,18.97-24.09,25.89-37.28h0Z" style="fill: #fff; stroke-width: 0px;"/>
    </g>
  </g>
</svg>