<?xml version="1.0" encoding="UTF-8"?>
<svg id="Calque_2" data-name="Calque 2" xmlns="http://www.w3.org/2000/svg" viewBox="0 0 364.43 79.33">
  <g id="svg19">
    <g>
      <g>
        <path d="m116.09,6.36c-.99-.48-2.2-.92-3.63-1.34-1.43-.41-2.86-.62-4.29-.62-2.23,0-4.01.56-5.34,1.67s-2,2.51-2,4.2c0,1.27.38,2.33,1.14,3.17.76.84,1.77,1.56,3.01,2.15,1.24.59,2.56,1.15,3.96,1.69,1.11.41,2.22.88,3.32,1.38s2.09,1.13,2.98,1.86c.89.73,1.6,1.64,2.12,2.72.53,1.08.79,2.42.79,4.01,0,1.88-.45,3.54-1.34,4.99s-2.13,2.57-3.72,3.36c-1.59.79-3.44,1.19-5.54,1.19-1.69,0-3.22-.21-4.61-.62s-2.59-.9-3.63-1.46-1.85-1.03-2.46-1.41l1.1-1.91c.7.51,1.55,1.02,2.55,1.53,1,.51,2.09.94,3.27,1.29,1.18.35,2.35.53,3.53.53,1.37,0,2.7-.27,3.98-.81,1.29-.54,2.35-1.36,3.2-2.46s1.26-2.49,1.26-4.18-.4-2.93-1.19-3.94c-.8-1-1.81-1.82-3.05-2.46-1.24-.64-2.56-1.21-3.96-1.72-1.08-.41-2.16-.85-3.25-1.31-1.08-.46-2.07-1.02-2.96-1.67-.89-.65-1.6-1.44-2.12-2.36-.53-.92-.79-2.04-.79-3.34,0-1.62.41-3.04,1.24-4.25.83-1.21,1.95-2.16,3.36-2.84,1.42-.68,3.03-1.04,4.84-1.07,1.59,0,3.2.21,4.84.62,1.64.41,3.06.94,4.27,1.58l-.91,1.81Z" style="fill: #fff; stroke-width: 0px;"/>
        <path d="m125.26,10.89c0-.45.17-.82.53-1.12.35-.3.73-.45,1.14-.45.45,0,.83.15,1.15.45.32.3.48.68.48,1.12,0,.48-.16.87-.48,1.17-.32.3-.7.45-1.15.45-.41,0-.79-.16-1.14-.48-.35-.32-.53-.7-.53-1.15Zm.48,6.87h2.24v18.66h-2.24v-18.66Z" style="fill: #fff; stroke-width: 0px;"/>
        <path d="m138.43,17.76l.24,5.2-.33-.48c.64-1.62,1.69-2.9,3.17-3.84,1.48-.94,3.09-1.41,4.84-1.41,1.05,0,2,.2,2.84.6.84.4,1.53.94,2.05,1.62.53.68.83,1.47.93,2.36l-.29.29c.67-1.59,1.72-2.8,3.15-3.63,1.43-.83,2.97-1.24,4.63-1.24,1.78,0,3.2.52,4.25,1.55,1.05,1.03,1.59,2.38,1.62,4.03v13.6h-2.24v-13.12c-.03-1.11-.38-2.06-1.05-2.84-.67-.78-1.69-1.2-3.05-1.26-1.24,0-2.39.32-3.44.96s-1.9,1.48-2.55,2.53c-.65,1.05-1.01,2.23-1.07,3.53v10.21h-2.24v-13.12c-.03-1.11-.39-2.06-1.07-2.84-.68-.78-1.71-1.2-3.08-1.26-1.27,0-2.44.32-3.51.96-1.07.64-1.92,1.5-2.55,2.6-.64,1.1-.96,2.31-.96,3.65v10.02h-2.24v-18.66h1.96Z" style="fill: #fff; stroke-width: 0px;"/>
        <path d="m179.89,36.94c-1.75,0-3.15-.52-4.2-1.55-1.05-1.03-1.61-2.38-1.67-4.03v-13.6h2.24v12.93c.06,1.21.45,2.21,1.17,3.01.72.8,1.79,1.22,3.22,1.29,1.21,0,2.34-.32,3.39-.95,1.05-.64,1.9-1.5,2.55-2.6s.98-2.35.98-3.75v-9.93h2.24v18.66h-2l-.24-5.87.33,1.29c-.32.96-.88,1.82-1.69,2.6-.81.78-1.77,1.39-2.86,1.84-1.1.44-2.25.67-3.46.67Z" style="fill: #fff; stroke-width: 0px;"/>
        <path d="m198.31.15h2.24v36.27h-2.24V.15Z" style="fill: #fff; stroke-width: 0px;"/>
        <path d="m216.78,36.8c-1.78,0-3.4-.41-4.84-1.22-1.45-.81-2.59-1.95-3.44-3.41-.84-1.46-1.26-3.17-1.26-5.11,0-2.07.45-3.84,1.34-5.32.89-1.48,2.1-2.61,3.63-3.39,1.53-.78,3.26-1.17,5.2-1.17,1.65,0,3.22.49,4.7,1.48,1.48.99,2.54,2.23,3.17,3.72l-.33.67.29-5.3h2v18.66h-2.24v-5.77l.48.86c-.22.64-.6,1.26-1.14,1.88-.54.62-1.2,1.19-1.98,1.72-.78.53-1.64.94-2.58,1.24-.94.3-1.93.45-2.98.45Zm.48-1.91c1.4,0,2.66-.29,3.79-.88s2.04-1.41,2.74-2.46c.7-1.05,1.1-2.26,1.19-3.63v-2.67c-.26-1.18-.76-2.23-1.5-3.15-.75-.92-1.66-1.65-2.74-2.2-1.08-.54-2.26-.81-3.53-.81-1.4,0-2.69.33-3.87.98-1.18.65-2.12,1.57-2.82,2.74-.7,1.18-1.05,2.56-1.05,4.15,0,1.46.35,2.79,1.05,3.98.7,1.19,1.65,2.15,2.84,2.86,1.19.72,2.49,1.07,3.89,1.07Z" style="fill: #fff; stroke-width: 0px;"/>
        <path d="m237.58,9.55h2.29v8.45h5.77v1.81h-5.77v16.61h-2.29v-16.61h-3.96v-1.81h3.96v-8.45Z" style="fill: #fff; stroke-width: 0px;"/>
        <path d="m250.75,10.89c0-.45.17-.82.53-1.12.35-.3.73-.45,1.15-.45.44,0,.83.15,1.14.45s.48.68.48,1.12c0,.48-.16.87-.48,1.17-.32.3-.7.45-1.14.45-.41,0-.8-.16-1.15-.48-.35-.32-.53-.7-.53-1.15Zm.48,6.87h2.24v18.66h-2.24v-18.66Z" style="fill: #fff; stroke-width: 0px;"/>
        <path d="m260.16,26.97c0-1.81.44-3.47,1.31-4.96.87-1.5,2.07-2.68,3.58-3.55,1.51-.88,3.2-1.31,5.08-1.31s3.61.44,5.11,1.31,2.67,2.06,3.53,3.55c.86,1.5,1.29,3.15,1.29,4.96s-.43,3.47-1.29,4.96c-.86,1.5-2.04,2.68-3.55,3.55-1.51.88-3.21,1.31-5.08,1.31s-3.61-.42-5.11-1.26c-1.5-.84-2.68-2-3.55-3.48-.88-1.48-1.31-3.17-1.31-5.08Zm2.24.05c0,1.46.34,2.79,1.03,3.98.68,1.19,1.61,2.14,2.77,2.84s2.46,1.05,3.89,1.05,2.73-.35,3.89-1.05,2.08-1.65,2.77-2.84c.68-1.19,1.03-2.52,1.03-3.98s-.34-2.79-1.03-3.98c-.68-1.19-1.61-2.15-2.77-2.86s-2.46-1.07-3.89-1.07-2.78.37-3.94,1.12c-1.16.75-2.08,1.73-2.74,2.93s-1,2.5-1,3.87Z" style="fill: #fff; stroke-width: 0px;"/>
        <path d="m288.69,17.76l.24,5.87-.29-1.15c.54-1.62,1.57-2.9,3.08-3.84,1.51-.94,3.19-1.41,5.03-1.41,1.75,0,3.17.52,4.25,1.55,1.08,1.03,1.64,2.38,1.67,4.03v13.6h-2.29v-12.98c-.03-1.21-.41-2.21-1.15-3.01s-1.8-1.21-3.2-1.24c-1.24,0-2.4.3-3.48.91s-1.95,1.45-2.6,2.53c-.65,1.08-.98,2.34-.98,3.77v10.02h-2.24v-18.66h1.96Z" style="fill: #fff; stroke-width: 0px;"/>
        <path d="m315.56,36.8c-1.08,0-2.21-.2-3.39-.6-1.18-.4-2.13-1.04-2.86-1.93l1.05-1.48c.64.67,1.39,1.2,2.27,1.6s1.81.6,2.79.6c.73,0,1.42-.1,2.08-.31s1.19-.56,1.6-1.07c.41-.51.62-1.19.62-2.05s-.25-1.57-.74-2.05-1.11-.87-1.86-1.17c-.75-.3-1.54-.58-2.36-.83-1.37-.45-2.49-1.05-3.36-1.81-.88-.76-1.31-1.84-1.31-3.25,0-1.02.25-1.91.74-2.67.49-.76,1.17-1.36,2.03-1.79.86-.43,1.83-.64,2.91-.64.99,0,1.96.16,2.93.48.97.32,1.85.86,2.65,1.62l-1,1.57c-.51-.7-1.19-1.18-2.03-1.43-.84-.25-1.58-.4-2.22-.43-.54,0-1.11.11-1.69.33-.59.22-1.08.55-1.48.98s-.6,1-.6,1.69.21,1.33.62,1.79c.41.46.95.83,1.6,1.12.65.29,1.33.56,2.03.81.92.29,1.79.63,2.6,1.03.81.4,1.48.92,2,1.57.53.65.79,1.52.79,2.6s-.24,2.06-.72,2.94c-.48.88-1.19,1.56-2.12,2.05-.94.49-2.12.74-3.56.74Z" style="fill: #fff; stroke-width: 0px;"/>
      </g>
      <g>
        <path d="m116.71,50.69c-1.35-.74-2.73-1.35-4.14-1.84-1.4-.48-2.72-.73-3.94-.73-1.52,0-2.71.31-3.58.92-.87.61-1.31,1.53-1.31,2.76,0,.84.33,1.59.99,2.25s1.52,1.25,2.56,1.77c1.05.52,2.14.98,3.27,1.4,1.03.39,2.06.85,3.07,1.38,1.02.53,1.93,1.19,2.73,1.98.81.79,1.45,1.77,1.94,2.95.48,1.18.73,2.62.73,4.33,0,1.81-.47,3.48-1.4,5.03s-2.31,2.8-4.11,3.75c-1.81.95-4.03,1.43-6.68,1.43-1.36,0-2.73-.14-4.14-.41-1.4-.27-2.78-.69-4.14-1.26-1.35-.56-2.66-1.28-3.92-2.15l3.1-5.47c.84.61,1.75,1.15,2.73,1.62.98.47,1.98.83,2.98,1.09,1,.26,1.92.39,2.76.39s1.68-.12,2.54-.36c.85-.24,1.56-.65,2.13-1.23.56-.58.85-1.39.85-2.42,0-.71-.23-1.35-.7-1.94-.47-.58-1.1-1.11-1.89-1.6-.79-.48-1.65-.9-2.59-1.26-1.1-.42-2.23-.9-3.39-1.45-1.16-.55-2.25-1.22-3.27-2.01-1.02-.79-1.84-1.77-2.47-2.95-.63-1.18-.94-2.62-.94-4.33,0-2.06.46-3.85,1.38-5.37.92-1.52,2.22-2.72,3.89-3.6,1.68-.89,3.61-1.38,5.81-1.48,2.87,0,5.2.34,6.99,1.02s3.39,1.48,4.81,2.42l-2.66,5.37Z" style="fill: #fff; stroke-width: 0px;"/>
        <path d="m136.69,42.08c2.94,0,5.42.49,7.45,1.48s3.58,2.37,4.65,4.16c1.06,1.79,1.6,3.91,1.6,6.36,0,1.45-.22,2.91-.65,4.38s-1.13,2.8-2.08,3.99-2.23,2.15-3.82,2.88-3.56,1.09-5.88,1.09h-5.03v11.27h-7.02v-35.61h10.79Zm1.21,17.51c1.06,0,1.95-.19,2.66-.56.71-.37,1.27-.84,1.67-1.4.4-.56.69-1.15.87-1.77.18-.61.27-1.14.27-1.6,0-.35-.06-.83-.17-1.43-.11-.6-.35-1.2-.7-1.81-.36-.61-.9-1.13-1.62-1.55s-1.7-.63-2.93-.63h-5.03v10.74h4.98Z" style="fill: #fff; stroke-width: 0px;"/>
        <path d="m154.5,59.93c0-2.45.47-4.77,1.4-6.97.93-2.19,2.23-4.14,3.89-5.83s3.59-3.02,5.78-3.99c2.19-.97,4.55-1.45,7.06-1.45s4.82.48,7.02,1.45c2.19.97,4.14,2.3,5.83,3.99s3.02,3.64,3.97,5.83c.95,2.19,1.43,4.52,1.43,6.97s-.48,4.87-1.43,7.06c-.95,2.19-2.27,4.12-3.97,5.78-1.69,1.66-3.64,2.96-5.83,3.9-2.19.94-4.53,1.4-7.02,1.4s-4.87-.47-7.06-1.4c-2.19-.94-4.12-2.23-5.78-3.9-1.66-1.66-2.96-3.59-3.89-5.78-.94-2.19-1.4-4.55-1.4-7.06Zm7.26,0c0,1.58.28,3.06.85,4.43.56,1.37,1.35,2.58,2.37,3.63,1.02,1.05,2.19,1.86,3.53,2.44,1.34.58,2.8.87,4.38.87s2.93-.29,4.23-.87c1.31-.58,2.44-1.39,3.41-2.44.97-1.05,1.73-2.26,2.27-3.63.55-1.37.82-2.85.82-4.43s-.28-3.11-.85-4.5c-.57-1.39-1.34-2.6-2.32-3.65-.98-1.05-2.14-1.86-3.46-2.44-1.32-.58-2.76-.87-4.31-.87s-2.98.29-4.31.87c-1.32.58-2.48,1.4-3.48,2.44-1,1.05-1.77,2.27-2.32,3.65-.55,1.39-.82,2.89-.82,4.5Z" style="fill: #fff; stroke-width: 0px;"/>
        <path d="m208.69,42.08c2.23,0,4.21.28,5.95.85,1.74.56,3.2,1.37,4.38,2.42,1.18,1.05,2.07,2.31,2.68,3.77.61,1.47.92,3.12.92,4.96,0,1.45-.22,2.9-.65,4.35-.44,1.45-1.15,2.77-2.13,3.97-.98,1.19-2.28,2.15-3.9,2.88-1.61.73-3.61,1.09-6,1.09h-5.03v11.32h-7.02v-35.61h10.79Zm1.21,17.51c1.06,0,1.95-.18,2.66-.53.71-.35,1.27-.81,1.67-1.35.4-.55.69-1.12.87-1.72s.27-1.15.27-1.67c0-.39-.06-.88-.17-1.48-.11-.6-.35-1.2-.7-1.81-.36-.61-.9-1.13-1.62-1.55s-1.7-.63-2.93-.63h-5.03v10.74h4.98Zm6.58,4.35l8.81,13.74h-8.18l-9-13.55,8.37-.19Z" style="fill: #fff; stroke-width: 0px;"/>
        <path d="m227.94,42.08h24v6.77h-8.66v28.84h-7.02v-28.84h-8.32v-6.77Z" style="fill: #fff; stroke-width: 0px;"/>
        <path d="m258.72,42.08h7.02v35.61h-7.02v-35.61Z" style="fill: #fff; stroke-width: 0px;"/>
        <path d="m280.29,42.08l10.4,25.64-4.06-.82,9.43-24.82h8.32l-16.26,37.26-16.26-37.26h8.42Z" style="fill: #fff; stroke-width: 0px;"/>
        <path d="m310.53,42.08h24.29v6.77h-17.27v7.6h15.29v6.77h-15.29v7.69h17.95v6.77h-24.97v-35.61Z" style="fill: #fff; stroke-width: 0px;"/>
        <path d="m361.77,50.69c-1.35-.74-2.73-1.35-4.14-1.84-1.4-.48-2.72-.73-3.94-.73-1.52,0-2.71.31-3.58.92-.87.61-1.31,1.53-1.31,2.76,0,.84.33,1.59.99,2.25.66.66,1.52,1.25,2.56,1.77,1.05.52,2.14.98,3.27,1.4,1.03.39,2.06.85,3.07,1.38,1.02.53,1.93,1.19,2.73,1.98s1.45,1.77,1.94,2.95c.48,1.18.73,2.62.73,4.33,0,1.81-.47,3.48-1.4,5.03-.94,1.55-2.31,2.8-4.11,3.75s-4.03,1.43-6.68,1.43c-1.35,0-2.73-.14-4.14-.41s-2.78-.69-4.14-1.26c-1.36-.56-2.66-1.28-3.92-2.15l3.1-5.47c.84.61,1.75,1.15,2.73,1.62.98.47,1.98.83,2.98,1.09,1,.26,1.92.39,2.76.39s1.68-.12,2.54-.36c.85-.24,1.56-.65,2.13-1.23.56-.58.85-1.39.85-2.42,0-.71-.23-1.35-.7-1.94-.47-.58-1.1-1.11-1.89-1.6-.79-.48-1.65-.9-2.59-1.26-1.1-.42-2.23-.9-3.39-1.45-1.16-.55-2.25-1.22-3.27-2.01-1.02-.79-1.84-1.77-2.47-2.95-.63-1.18-.94-2.62-.94-4.33,0-2.06.46-3.85,1.38-5.37.92-1.52,2.22-2.72,3.9-3.6,1.68-.89,3.61-1.38,5.81-1.48,2.87,0,5.2.34,6.99,1.02,1.79.68,3.39,1.48,4.81,2.42l-2.66,5.37Z" style="fill: #fff; stroke-width: 0px;"/>
      </g>
      <g id="g1">
        <path id="path1" d="m35.52,78.05c-7.24-.69-14.13-3.37-20.08-7.82-1.89-1.41-6.05-5.57-7.46-7.46C-2.66,48.53-2.66,29.67,7.98,15.43c1.41-1.89,5.57-6.05,7.46-7.46C24.22,1.41,34.89-1.23,45.53.53c8.06,1.34,15.27,5.07,21.17,10.98s9.64,13.11,10.98,21.17c1.76,10.63-.87,21.3-7.44,30.09-1.41,1.89-5.57,6.05-7.46,7.46-7.94,5.93-17.7,8.73-27.26,7.82h0Zm8.63-2.81c1.99-.29,3.51-.61,3.67-.8.06-.07,1.59-2.72,3.41-5.89l3.29-5.77-3.16-4.17-3.16-4.17h-18.19l-2.71,3.59c-1.49,1.98-2.89,3.84-3.1,4.15l-.39.56,3.84,6.01c2.11,3.31,3.86,6.03,3.87,6.04.07.07,3.05.53,4.22.66,1.85.19,6.34.07,8.4-.22Zm-19.6-18.14c1.66-2.2,3.08-4.09,3.14-4.19.07-.11-.74-3.61-1.81-7.88l-1.92-7.69-6.52-2.17c-3.59-1.2-6.57-2.17-6.63-2.17-.08,0-6.78,7.94-7.86,9.33-.14.18-.14.57.03,1.76.55,3.95,1.75,7.85,3.47,11.28.62,1.25,2.12,3.75,2.24,3.76.05,0,2.82.44,6.14.98,3.32.54,6.19.98,6.38.99.27.01.95-.79,3.36-3.99Zm38.77,3.01c3.44-.55,6.27-.99,6.29-.99s.38-.57.8-1.26c2.62-4.37,4.36-9.49,4.97-14.65l.08-.7-3.97-4.76c-2.18-2.62-4.02-4.76-4.08-4.76s-3.05.98-6.63,2.17l-6.52,2.17-1.93,7.71-1.93,7.71,3.16,4.18c1.74,2.3,3.24,4.18,3.33,4.18.09,0,2.98-.45,6.42-.99h0Zm-31.98-30.56l6.4-5.12-.04-6.6-.04-6.6-6.8-2.69-6.8-2.69-1.15.57c-5.24,2.61-10.41,7.02-13.51,11.52l-.58.85,1.35,5.76,1.35,5.76,6.49,2.18c3.57,1.2,6.59,2.18,6.71,2.19.12,0,3.09-2.29,6.61-5.11h0Zm28.79,2.93l6.57-2.19,1.36-5.75,1.36-5.75-.59-.85c-3.11-4.51-8.2-8.85-13.54-11.54l-1.17-.59-6.78,2.71-6.78,2.71-.04,6.6-.04,6.6,6.38,5.12c3.51,2.81,6.45,5.12,6.54,5.12.08,0,3.11-.98,6.72-2.18h0Z" style="fill: #fff; stroke-width: 0px;"/>
      </g>
    </g>
  </g>
</svg>