<?xml version="1.0" encoding="UTF-8"?>
<svg id="Calque_2" data-name="Calque 2" xmlns="http://www.w3.org/2000/svg" viewBox="0 0 281.46 83.15">
  <g id="svg19">
    <g>
      <path id="path2" d="m27.01,82.73l1.2-.41.08-3.93.08-3.93,1.72-3.46c.94-1.9,1.72-3.6,1.73-3.76,0-.16.43-.62.94-1.02l.92-.73-.11,3.58-.11,3.58,3.87-.21c5.61-.3,7.79-.57,7.79-.94,0-.18.19-.21.43-.06.23.15.65.27.93.28.96.02,1.53,1.9,1.46,4.76-.08,3.03.66,4.94,2.19,5.63,1.04.48,8.53.5,8.82.03.44-.71-.25-1.66-2.21-3.04-1.11-.78-2.11-1.71-2.22-2.06-.32-1.02.45-5.02,1.51-7.85.54-1.43,1.27-3.52,1.64-4.65l.66-2.05,3.22-.17c2.24-.12,3.46-.35,4.03-.75.65-.46,1.28-.53,3.12-.38,2.08.17,2.35.12,2.68-.5.2-.38.9-1.01,1.56-1.39,1.49-.88,2.84-3.47,3.4-6.49.35-1.92.55-2.32,1.42-2.79,1.57-.87,1.56-2.5-.03-4.36-.88-1.03-1.17-1.63-.99-2.04.14-.32.22-.86.18-1.19s.06-.6.22-.6.31-.52.33-1.15c.02-.63.23-1.52.48-1.96s.41-.99.37-1.2.76-3.6,1.79-7.51l1.86-7.12-3.11-5.05c-1.71-2.78-3.24-5.13-3.4-5.23-.16-.1-2.75,1.33-5.75,3.17l-5.45,3.35-.04,6.66c-.02,3.66-.04,8.29-.03,10.28v3.62s-1.23.31-1.23.31c-1.68.42-2.44,1.73-1.88,3.23.3.79.3,1.28.02,1.9-.5,1.1-1.15.84-1.01-.41.46-4.33.44-5.2-.21-7.16-.37-1.12-.84-2.85-1.05-3.84-.21-1-.6-2.25-.88-2.78-.69-1.34-2.46-2.76-3.44-2.76-.6,0-1.21-.53-2.27-1.96-.8-1.08-1.88-2.47-2.4-3.09-1.14-1.34-1.24-2.85-.27-4.08.5-.64.68-1.39.68-2.81,0-1.75.09-1.99.9-2.42,1.41-.75,3.44-3.28,4.03-5.01.51-1.5.75-4.53.36-4.53-.1,0-.7.52-1.34,1.16-1.45,1.45-4.32,2.87-6.36,3.15-1.53.21-1.62.17-3.7-1.69-2.98-2.66-5.07-3.43-9.42-3.44-3.59-.01-5.34.53-7.23,2.27q-.74.68-2.95-.05c-2.26-.75-5.34-2.45-7.36-4.06-2.74-2.18-2.57-2.21-2.36.38.23,2.92,1.44,5.44,3.85,8.04l1.81,1.96.03,3.58c.05,7.45,0,7.88-1.38,9.96-1.25,1.88-1.26,1.89-3.38,2.13-2.36.27-5.46,1.31-6.9,2.32-1.16.81-1.8,2.02-2.13,4.02-.18,1.11-.65,1.98-1.69,3.14-1.82,2.03-3.72,5.63-4.44,8.44-.72,2.78-.73,7.77-.02,10.45.94,3.58,2.79,6.88,5.27,9.38,3.7,3.75,7.88,5.71,12.93,6.06l2.83.2v2.51c0,2.47-.02,2.53-1.36,3.87-1.64,1.64-2.09,2.99-1.21,3.63.67.49,4.84,1.51,6.05,1.48.43-.01,1.32-.2,1.98-.43h0Zm-5.55-1.23c-.89-.15-1.7-.35-1.8-.44-.71-.71,1.79-2.32,3.59-2.32s2.74.66,2.74,1.93c0,1.12-.03,1.14-1.45,1.12-.8-.01-2.18-.14-3.08-.29h0Zm29.8-.92c-.35-.36-.74-1.07-.87-1.59-.23-.93-.21-.94,1.43-.94,1.4,0,1.98.22,3.67,1.43,2.35,1.67,2.12,1.96-1.44,1.83-1.6-.06-2.33-.25-2.8-.73Zm-27.93-4.77c-.6-.42-.76-.87-.76-2.09,0-1.45.05-1.54.77-1.35.42.12,1.58.31,2.56.43.99.12,1.79.27,1.79.33s-.34.81-.75,1.66c-.65,1.34-.89,1.55-1.8,1.55-.58,0-1.39-.24-1.81-.53h0Zm26.38-.65c-.47-.47-.84-1.24-.84-1.75,0-.89.04-.91,1.58-.7.87.12,1.96.22,2.42.22.76,0,.81.1.6,1.11-.13.61-.39,1.3-.58,1.54-.58.72-2.27.5-3.18-.41h0Zm-14.89-5.74c-.07-4.17.03-5.19.57-5.59.79-.59,4.96-.54,7.92.09,1.46.31,3.81.66,5.22.77,2.05.16,2.53.31,2.43.72-.07.28-.21,1.8-.3,3.37l-.17,2.85-1.39-.22c-1.7-.27-2.33-.76-2.21-1.7.07-.5-.08-.7-.5-.67-.89.07-.93-4.25-1.46-.3-.29,2.2-.41,2.49-.92,2.3-.24-.09-1.44.05-2.66.32-1.22.27-3.18.5-4.35.51l-2.13.03-.04-2.48Zm-18.83-.78c-.89-.11-1.62-.34-1.62-.51,0-.18.36-.17.88.02,1.16.44,5.44.41,7.15-.05.75-.2,1.71-.37,2.13-.37.42,0,.68-.14.58-.3-.1-.17.08-.2.4-.08.37.14.5.09.36-.14-.3-.49.82-.89,1.25-.45.23.23-.08.52-.95.89-.71.3-1.38.46-1.48.35-.1-.1-.39-.02-.64.19-.25.21-1.26.49-2.25.63-1.77.25-2.62.23-5.81-.17h0Zm-3.22-.9c-.53-.22-1.04-.43-1.13-.47-.09-.04-.52-.19-.94-.32-.42-.14-.77-.5-.76-.81,0-.32.11-.41.26-.22.14.19,1.1.75,2.13,1.26,1.91.94,2.19,1.28.45.56Zm6.8-1.1c.24-.26.56-.41.7-.32.39.24-.06.79-.64.79-.42,0-.43-.09-.06-.48h0Zm-1.76-.98c-.01-.14.1-.26.24-.26s.29.42.32.94c.04.81.01.85-.24.26-.16-.38-.31-.8-.32-.94Zm3.51.6c0-.28.13-.51.28-.51s.28.23.28.51-.13.51-.28.51-.28-.23-.28-.51Zm-5.24-1.25c0-.97.06-1.7.13-1.62.29.33.45,3.39.17,3.39-.17,0-.3-.79-.3-1.76Zm11.78.74c.12-.19.39-.34.62-.34.24,0,.2.14-.11.34-.66.42-.77.42-.51,0Zm-4.73-1.54c-.13-.87-.1-1.12.08-.68.51,1.22.8,2.76.45,2.39-.18-.19-.42-.96-.53-1.71h0Zm-8.42,1.73c0-.08.15-.25.34-.36.19-.12.34-.05.34.15s-.15.36-.34.36-.34-.07-.34-.15Zm-6.02-.36c-.11-.28-.33-.43-.5-.32-.17.1-.63-.36-1.02-1.03-.39-.67-.86-1.13-1.02-1.02s-.31-.09-.31-.43c0-.49.22-.38,1.05.5.58.62,1.42,1.36,1.88,1.66.85.56,1.1,1.15.48,1.15-.19,0-.44-.23-.55-.51h0Zm12.52-.86c-.13.48-.22-.3-.2-1.77.03-2.89.34-2.61.63.57.1,1.13.1,1.67,0,1.2l-.19-.85-.23.85Zm-6.84-.03c0-.78.73-.74.94.05.11.4.06.4-.23-.02-.31-.44-.36-.43-.37.09,0,.33-.08.6-.18.6s-.17-.32-.17-.71h0Zm-2.73-.37c0-1.24.15-1.2.47.14.13.56.08.94-.12.94-.19,0-.35-.49-.35-1.08Zm18.01.27c.04-.13.5-.78,1.02-1.45.52-.67,1.19-1.54,1.49-1.93.42-.55.61-.6.82-.25.19.31.15.37-.16.18-.29-.18-.38-.11-.27.2.09.26-.05.73-.32,1.04-.33.38-.37.64-.13.79.2.12.54-.17.76-.65.22-.48.54-.87.71-.87s-.03.47-.44,1.05c-.53.75-.85.95-1.12.68-.52-.52-1.07-.46-.63.07.25.3.26.59,0,.94-.29.41-.32.39-.16-.1.21-.66.17-.69-.62-.39-.41.16-.45.33-.18.66.28.34.22.42-.25.35-.34-.05-.58-.19-.54-.32Zm-4.77-.27c.12-.47.06-.66-.17-.51-.44.27-1.03-2.29-1.1-4.71-.03-.93-.14-1.85-.25-2.05-.14-.26-.08-.26.19,0,.22.2.42,1.31.45,2.46.03,1.19.19,2.01.38,1.9.19-.11.22.12.07.57-.15.48-.12.69.1.56.19-.12.43.13.54.55.3,1.12.26,1.96-.1,1.96-.17,0-.22-.33-.12-.74h0Zm-5.72-.2c0-.68.09-.81.31-.46.17.26.23.69.13.94-.28.72-.44.54-.44-.48Zm-.93-1.36c.08-.52.15-.18.15.76,0,.94-.06,1.36-.14.94-.08-.42-.08-1.19,0-1.71h0Zm-4.77,1.21c.11-.27.19-.19.21.21.02.36-.07.56-.18.45s-.13-.41-.03-.65h0Zm-3.03-.19c.05-.33-.04-.87-.22-1.2-.17-.33-.2-.79-.06-1.02.17-.28.34-.13.49.43.35,1.27.35,2.8,0,2.58-.17-.11-.27-.46-.22-.79h0Zm17.08-1.21c-.12-.62-.15-1.73-.07-2.48q.14-1.34.2.25c.03.88.21,1.99.39,2.48.2.53.21.88.02.88-.17,0-.41-.51-.53-1.13h0Zm-15.15-2.97c.01-.28.24.26.5,1.2s.46,1.94.45,2.22-.24-.26-.5-1.2-.46-1.94-.45-2.22Zm16.66,2.29c.28-.28.38-.24.38.14,0,.68-.46,1.14-.63.63-.07-.22.04-.56.25-.77Zm-4.35-3.32c0-.47.23,0,.51,1.02.79,2.96.85,3.76.14,1.71-.36-1.03-.65-2.26-.65-2.73Zm-13.26,3.69c.11-.27.19-.19.21.21.02.36-.07.56-.18.45-.11-.11-.13-.41-.03-.65h0Zm11.19-1.92c.03-2.25.2-2.04.41.52.08.98.02,1.7-.14,1.6-.16-.1-.28-1.05-.26-2.12h0Zm-3.76.19c-.01-.56.14-.9.38-.85.22.05.51-.38.64-.94.16-.72.23-.36.22,1.2,0,1.22-.08,1.79-.15,1.28-.08-.52-.28-.86-.45-.76-.17.1-.23.68-.14,1.29.13.87.1.96-.16.41-.18-.38-.33-1.11-.35-1.62h0Zm-4.92-1.76c-.11-.74-.07-1.2.09-1.02.16.17.38,1.39.48,2.7.19,2.36-.07,1.61-.57-1.68h0Zm1.94,2.45c.1-.23.17-.04.17.43s-.08.66-.17.43-.1-.62,0-.85Zm-11.43.08c.12-.1.3-.28.4-.41.1-.13.38.08.62.47.24.39.27.6.07.48-.2-.12-.37-.06-.37.15,0,.24-.17.22-.47-.07-.26-.24-.38-.52-.26-.62h0Zm13.22-1.36c-.15-1.1-.11-1.39.14-1.02.32.48.53,3.02.22,2.7-.08-.08-.24-.83-.35-1.68Zm41.66.77c.14-.33.57-1.37.97-2.31.6-1.44.72-2.42.73-6.19v-4.48s.75,2.05.75,2.05c.72,1.99,1.21,2.62,2.05,2.63.22,0,.41.27.42.6.09,3.39.32,4.94.82,5.49,1.52,1.68,0,2.68-4.17,2.76-1.62.03-1.8-.03-1.58-.56h0Zm-25.63.25c-.12-.19-.03-.31.19-.26.23.05.49-.12.58-.38.12-.33.03-.39-.3-.19-.33.2-.3.03.1-.55.31-.46.74-.8.94-.75.2.05.37-.06.37-.23s.1-.58.23-.91c.17-.45.11-.53-.26-.32-.39.22-.4.19-.06-.18.23-.25.43-.77.43-1.15,0-.64.04-.65.57-.12s.51.67-.25,2.11c-.45.85-.92,1.37-1.04,1.18-.15-.24-.31-.23-.48.06-.14.23-.07.53.15.67.31.19.27.4-.15.82-.66.66-.74.68-1.03.21h0Zm-3.33-.35c.1-.38.26-.62.35-.53.18.18-.14,1.22-.38,1.22-.08,0-.07-.31.03-.7h0Zm-26.67-.51c.22-.58.67-.65.98-.15.12.19.01.31-.24.26-.25-.05-.41.11-.36.36s-.06.36-.24.25c-.18-.11-.25-.43-.14-.71h0Zm29.73-1.01c.31-.66.63-1.13.7-1.06.16.16-.88,2.25-1.11,2.25-.09,0,.1-.54.41-1.19Zm-7.64-.6c.1-.23.17-.04.17.43s-.08.66-.17.43c-.1-.23-.1-.62,0-.85Zm2.39-.34c.1-.23.17-.04.17.43s-.08.66-.17.43c-.1-.23-.1-.62,0-.85Zm-19.21-.43c0-.19.13-.11.31.17.18.28.32.74.31,1.02-.02.54-.59-.55-.62-1.2h0Zm-5.89.27c.16-1.35.37-1.29.55.14.08.63-.03,1.01-.28,1.01s-.36-.42-.27-1.16h0Zm65.63-.61c-.66-.12-1.61-.06-2.11.13-.72.27-.95.24-1.11-.18-.4-1.04-.18-1.83.66-2.38.82-.54,1.69-.53,3.41.04.53.17.46.02-.3-.68-.82-.75-1.25-.89-2.53-.8-1.67.12-2.21-.37-1.25-1.14.31-.25.95-.82,1.43-1.26.78-.72,1.01-.76,2.26-.44.77.19,1.45.3,1.52.23.22-.22-2.46-1.89-3.04-1.89-.52,0-.99-1.24-.99-2.6s5.32.86,7.68,3.29l1.31,1.34-.43,1.93c-.59,2.65-1.27,4.17-2.29,5.11-.85.79-.87.79-1.95.16-.6-.35-1.63-.73-2.29-.85Zm-13.15.7c-1.13-.13-2.6-.38-3.27-.55-.67-.17-2.06-.41-3.07-.52-1.02-.11-3.29-.57-5.05-1.03-1.76-.45-3.64-.83-4.18-.83-.77,0-.99-.15-.99-.72,0-.67.12-.7,1.79-.47.99.13,2.53.53,3.43.89,2.87,1.13,4.7.81,6.31-1.11.45-.54.98-.98,1.17-.98,1.22,0,6.77-5.09,6.77-6.2,0-.16.13-.29.29-.29s.48.86.71,1.91c.91,4.08.02,11.11-1.31,10.41-.3-.15-1.46-.39-2.59-.52h0Zm-34.9.09c.11-.27.19-.19.21.21.02.36-.07.56-.18.45-.11-.11-.13-.41-.03-.65h0Zm-8.54,0c.11-.27.19-.19.21.21.02.36-.07.56-.18.45-.11-.11-.13-.41-.03-.65h0Zm18.79-.7c.1-.23.17-.04.17.43s-.08.66-.17.43-.1-.62,0-.85Zm-29.08-1.79c.01-.54.05-.56.17-.1.09.34.36.5.64.39.27-.1.49-.02.49.19s-.17.38-.37.38c-.23,0-.29.42-.17,1.11l.19,1.11-.48-1.2c-.27-.66-.48-1.5-.47-1.88h0Zm32.39,1.37c0-.19.15-.11.33.17s.33.67.33.85-.15.11-.33-.17-.33-.67-.33-.85Zm-21.66,0c-.17-.75-.14-.89.12-.51.19.28.35.81.35,1.17,0,.87-.19.6-.47-.65h0Zm-6.58.09c.1-.23.17-.04.17.43s-.08.66-.17.43c-.1-.23-.1-.62,0-.85Zm19.47-.34c.1-.23.17-.04.17.43s-.08.66-.17.43c-.1-.23-.1-.62,0-.85Zm-3.08-.51c.09-.33.16-.06.16.6s-.07.93-.16.6c-.09-.33-.09-.87,0-1.2Zm5.77-1.66l.11-2.36.17,2.63c.09,1.45.04,2.51-.11,2.36-.15-.15-.23-1.34-.17-2.63Zm-16.35,1.83c.1-.23.17-.04.17.43s-.08.66-.17.43c-.1-.23-.1-.62,0-.85Zm-3.76.36c.11-.27.19-.19.21.21.02.36-.07.56-.18.45-.11-.11-.13-.41-.03-.65h0Zm-4.04-4.38c-.2-2.62.3-1.53.64,1.39.12,1.02.29,2.32.39,2.88.1.59-.04.37-.34-.51-.29-.85-.6-2.54-.69-3.76Zm28.13.26c.21-.21.29.4.21,1.67-.17,3.03-.28,3.25-.42.84-.07-1.2.02-2.33.2-2.51Zm-23.65,1.45c-.13-1.15-.1-1.61.08-1.2.16.38.38,1.53.49,2.56.11,1.07.08,1.58-.08,1.2-.15-.38-.37-1.53-.49-2.56Zm26.29.73c.22-1.36.77-1.73,1.1-.74.08.25,0,.36-.2.24-.44-.27-.84,1.23-.54,2.06.17.47.12.53-.18.25-.27-.24-.33-.87-.18-1.81Zm-11.17-1.09c.01-1.36.1-2.55.2-2.64.1-.1.18,1.1.18,2.67s-.09,2.76-.2,2.64-.19-1.31-.18-2.67Zm5.62,1.3c.1-.23.17-.04.17.43s-.08.66-.17.43c-.1-.23-.1-.62,0-.85Zm-4.5-5.53c.16-.18.3.19.31.85.01.65.09,1.49.17,1.86s.03,1.45-.1,2.39c-.24,1.61-.26,1.52-.46-1.54-.11-1.78-.08-3.39.08-3.57h0Zm-19.07,5.53c.1-.23.17-.04.17.43s-.08.66-.17.43-.1-.62,0-.85Zm20.88-4.31c-.28-1.38-.48-3-.46-3.59.04-1.01.06-.99.31.29.63,3.21,1,5.89.95,7l-.05,1.2-.13-1.2c-.07-.66-.35-2.33-.63-3.71h0Zm-18.84,3.46c.09-.33.16-.14.17.42,0,.56-.06.84-.16.6-.09-.23-.1-.69-.01-1.02h0Zm-5.58-2.96c.1-3.78.12-3.97.4-3.97.13,0,.31-.27.39-.6s.05.02-.06.77-.21,2.78-.21,4.5c0,1.98-.11,2.94-.3,2.6-.17-.29-.27-1.78-.22-3.31h0Zm35.3,1.93c.09-.33.16-.06.16.6s-.07.93-.16.6c-.09-.33-.09-.87,0-1.2Zm-1.06.76c.1-.11.3.08.42.42.19.49.15.53-.19.19-.23-.23-.34-.51-.23-.61h0Zm-5.76.12c.11-.27.19-.19.21.21.02.36-.07.56-.18.45-.11-.11-.13-.41-.03-.65h0Zm-29.27-.32c-.28-1.41-.21-4.69.12-5.76.16-.52.22.14.14,1.66-.07,1.38.01,3.11.18,3.84.16.73.18,1.32.04,1.32s-.36-.48-.48-1.07h0Zm12.9-1.86c-.16-.64,0-1.11.59-1.78.71-.81.72-.84.06-.29-.43.36-.93.52-1.17.37-.29-.18-.35-.09-.21.3.12.31.07.65-.11.76-.5.31-.39-.77.18-1.88.75-1.46,1.82-2.05,3.67-2.05,1.45,0,1.68.1,1.97.88.5,1.31.42,1.59-.33,1.19-.97-.52-.98-.5-.93,1.38.04,1.44-.08,1.85-.75,2.38-.73.59-.88.6-1.79.14-.54-.28-1.09-.9-1.21-1.38Zm1.23.56c0-.18-.15-.42-.34-.53-.19-.12-.25.02-.13.32.23.59.47.7.47.21h0Zm2.3-4.7c-.33-.09-.79-.08-1.02.01-.23.09.04.16.6.16.56,0,.75-.08.42-.17h0Zm-10.93,1.14c.1-.16.03-.39-.16-.51-.19-.12-.43-1.29-.53-2.61s-.12-2.08-.04-1.71c.76,3.29,1.14,5.46,1.28,7.34l.17,2.22-.45-2.22c-.25-1.22-.37-2.35-.27-2.51Zm-2.63-.7c-.02-1.22.43-.88.54.41.04.51.24,1.62.44,2.47.59,2.51.38,2.74-.31.34-.36-1.22-.65-2.67-.66-3.22Zm26.05,3.13c.08-.42.15-.16.16.59,0,.75-.06,1.1-.15.77-.08-.33-.09-.94,0-1.37h0Zm7.07-.72c0-.61-.21-1.9-.46-2.87s-.34-1.95-.21-2.17c.25-.41.75,1.66,1.18,4.94.15,1.15.11,1.59-.15,1.43-.2-.13-.37-.72-.37-1.33Zm-2.55-3.6c.32-.32.43.17.62,2.69l.19,2.56-.49-2.54c-.27-1.4-.41-2.62-.33-2.7Zm-3.24.69c.3-.47.32-.44.15.19-.11.42-.03,1.08.18,1.48.23.43.28,1.1.13,1.64-.22.79-.29.68-.54-.91-.19-1.18-.16-2.02.07-2.39Zm-3.77,3.36c0-.38.14-.68.31-.68s.23.31.13.68-.24.68-.31.68-.13-.31-.13-.68Zm-19.54-2.14c.31-.65.37-.47.36,1.11-.01,1.8-.03,1.83-.37.76-.25-.78-.25-1.34.01-1.88h0Zm55.07,1.8c-.31-.58-.2-.78.76-1.37,1.05-.64,1.15-.65,1.55-.11.37.5.43.51.43.04,0-1.05-.88-1.39-2.03-.8-.58.3-1.2.46-1.36.36-.63-.39-.74-2.18-.21-3.21.68-1.32.98-1.49,1.98-1.11.63.24.95.8,1.4,2.39.78,2.8.74,3.61-.19,4.06-1.18.57-1.9.48-2.3-.26h0Zm-17.72.37c-.33-.21-.4-.64-.24-1.45.89-4.48.58-6.46-1.23-7.99-1.53-1.29-2-1.12-1.9.66.05.83.23,1.42.39,1.32.41-.25-.04,2.05-.63,3.18l-.47.9-.5-.8c-.27-.44-.85-1.8-1.29-3.02s-1.37-3.18-2.07-4.34l-1.28-2.12,1.09-.67c.6-.37,1.44-1.14,1.86-1.72.43-.58,1.39-1.46,2.14-1.95,1.18-.78,1.82-.92,4.71-1.06,3.46-.17,4.83.15,4.83,1.13,0,.28.13.5.28.5.26,0,1.43,2.36,2.51,5.04.72,1.79,1.02,1.45,1.41-1.62.11-.89-.13-1.73-.94-3.24-.92-1.73-1.31-2.13-2.49-2.54-1.43-.5-1.54-.71-1.89-3.45-.04-.29-.3-.55-.59-.58-.29-.03-2.29-.29-4.45-.57-7.26-.96-10.43-.49-13.24,1.97l-1.1,1.42c0,.3-.15.46-.34.34s-.26,0-.17.24c.09.24.04.64-.11.88-.22.34-.63.29-1.96-.23-.93-.36-1.95-.74-2.27-.85-.54-.17-.52-.33.25-1.86.82-1.64,1.2-4.34.71-5.13-.14-.22-.05-.41.2-.42.34-.02.35-.07.02-.2-.23-.09-.42-.51-.42-.91v-.74s.61.72.61.72c1.14,1.36,2.81,1.93,7.06,2.4,1.14.13,2.01.03,2.63-.3.72-.38,1.38-.42,2.9-.18,1.09.17,3.35.35,5.03.41,1.9.06,3.11.25,3.19.49.07.21.33.39.58.39.43,0,1.03.94.92,1.45-.03.14.07.26.22.26s.76.68,1.35,1.52,1.69,1.84,2.46,2.23,1.38.83,1.38.98l2.59,6.76c.15,2.4.06,3.03-.54,4.21-.39.76-.9,1.38-1.13,1.38s-.69-.73-1-1.63-1.11-2.15-1.77-2.78l-1.19-1.16v2.7c.02,3.6-.26,8.02-.54,8.74-.43,1.09-4.46,2.05-5.59,1.33h0Zm-34.48-3.36l.06-3.33.21,3.07c.12,1.69.16,3.19.09,3.33-.33.71-.42-.03-.36-3.07h0Zm21.33-2.43c.25-.35.64,2.26.49,3.33-.15,1.04-.2.89-.38-.99-.11-1.22-.16-2.28-.11-2.34Zm3.99,3.3c.11-.27.19-.19.21.21.02.36-.07.56-.18.45-.11-.11-.13-.41-.03-.65h0Zm-7.17.25c0-.27.13-.42.28-.32.16.1.28.32.28.5s-.13.32-.28.32-.28-.22-.28-.5Zm-1.55-1.72c.18-1.56.26-1.45.54.68.19,1.46.16,1.62-.23,1.13-.27-.34-.4-1.08-.31-1.81Zm-3.37.16l.27-1.88.04,1.74c.04,1.48-.19,2.42-.5,2.1-.05-.05.04-.93.19-1.96h0Zm-12.13.6c.14-1.73.19-1.83.55-1.22.23.39.2.86-.06,1.45-.52,1.14-.59,1.11-.48-.23h0Zm23.86-1.19c.09-.33.16-.14.17.42,0,.56-.06.84-.16.6-.09-.23-.1-.69-.01-1.02h0Zm-28.59-.14c-.12-.78-.14-1.49-.04-1.59.1-.1.18.16.18.58s.12.69.26.6c.14-.09.26.29.26.83,0,1.46-.39,1.21-.65-.42h0Zm23.7-1l.37-.84-.18.85c-.1.47-.2,1.16-.23,1.54-.05.67-.06.67-.19-.02-.08-.38.03-1.08.23-1.54h0Zm-4.39.02c0-.32.11-.26.29.17.16.38.29.91.29,1.2,0,.32-.11.26-.29-.17-.16-.38-.29-.91-.29-1.2Zm7.77.25c.34-.33.38-.3.19.19-.13.34-.32.53-.42.42-.1-.11,0-.38.23-.61h0Zm-21.03-.5c.09-.33.16-.14.17.42,0,.56-.06.84-.16.6-.09-.23-.1-.69-.01-1.02h0Zm5.37-.6c-.07.59-.12.57-.35-.17-.37-1.17-.37-2.07,0-1.2.26.6.3.55.36-.34.06-.94.09-.91.35.34.16.75.27,1.75.26,2.22-.02.65-.09.57-.28-.34-.15-.73-.28-.93-.33-.51Zm16.73.85c0-.19.15-.34.34-.34s.34.15.34.34-.15.34-.34.34-.34-.15-.34-.34Zm-6.77-3.42c0-.53.12-.34.3.51.16.75.27,1.83.26,2.39-.02.77-.09.64-.3-.51-.15-.85-.27-1.92-.26-2.39Zm-12.26,2.48c.09-.33.16-.14.17.42,0,.56-.06.84-.16.6-.09-.23-.1-.69-.01-1.02h0Zm-1.44-.78c0-.66.15-1.5.32-1.88.21-.47.28.04.25,1.61-.03,1.26-.17,2.11-.32,1.88-.15-.23-.26-.96-.25-1.61Zm-12.94.58c.21-.69.53-1.26.71-1.26s.23-.24.12-.53c-.12-.3.02-.61.31-.72.28-.11.47-.37.43-.58-.12-.52,2.06-3.63,2.54-3.63.21,0,.29-.1.17-.21-.18-.18,2.31-2.52,2.67-2.52.06,0,.23.18.36.39.15.24.09.3-.13.16-.21-.13-.51.02-.68.32-.17.3-.45.54-.62.52s-.31.08-.32.23c0,.14-.43.7-.94,1.25-.51.54-.93,1.15-.93,1.34s-.1.25-.22.13c-.24-.24-1.64,1.41-1.67,1.96-.02.47-1.96,4.66-2.09,4.52-.06-.06.07-.67.29-1.37h0Zm31.06-.92c-.3-.66-.82-1.5-1.14-1.88-.33-.38-.62-.84-.65-1.02-.03-.19-.54-.75-1.12-1.25-.59-.5-1.45-1.24-1.92-1.66l-.85-.75,1.02.6c.91.53,2.59,2.14,3.85,3.71.9,1.11,2.11,3.72,1.89,4.08-.15.24-.28.2-.38-.13-.08-.27-.4-1.03-.7-1.69h0Zm-2.88-.09c-.13-1.38-.08-1.57.33-1.23.27.22.4.62.3.88-.1.26-.05.39.12.29.33-.2.84.82.55,1.11-.1.1-.18,0-.18-.24,0-.74-.68-.02-.71.75-.04,1.07-.23.34-.42-1.56Zm-2.86,1.03c.1-.23.17-.04.17.43s-.08.66-.17.43c-.1-.23-.1-.62,0-.85Zm-1.72-.51c.09-.33.16-.06.16.6s-.07.93-.16.6c-.09-.33-.09-.87,0-1.2Zm-22.35.71c.4-.69.5-.47.17.39-.12.31-.29.48-.37.4-.09-.09,0-.44.2-.78Zm9.03-.7c.09-.33.16-.14.17.42,0,.56-.06.84-.16.6-.09-.23-.1-.69-.01-1.02h0Zm23.09.59c-.3.42-.34.37-.21-.24.09-.43-.05-.94-.33-1.17-.68-.56-1.5-2.21-1.24-2.47.12-.12.04-.21-.17-.21s-.56-.33-.77-.72c-.27-.51-.28-.66-.01-.49.21.13.38.06.38-.15s.17-.28.38-.15c.26.16.24.32-.08.53-.44.28-.39.34.4.43.19.02.74.73,1.22,1.58.48.85.62,1.23.31.85s-.69-.91-.85-1.19c-.16-.28-.38-.43-.48-.32-.3.3,1.5,2.75,1.86,2.53.18-.11.32-.05.32.13s.09.62.2.96c.17.52.14.54-.17.11-.33-.46-.42-.46-.75,0Zm-11.98-2.05c-.21,0-.29-.45-.2-1.07.09-.59.05-1.66-.09-2.39-.13-.73-.11-1.33.05-1.33s.32.5.34,1.11.09,1.42.15,1.79c.06.38.17,1.45.25,2.39s.08,1.21,0,.6c-.08-.61-.31-1.11-.51-1.11h0Zm-3.48-3.5c-.14-1.92-.1-2.99.12-2.99.2,0,.34,1.1.35,2.65,0,1.46.07,3.49.16,4.53.15,1.81.15,1.82-.12.34-.15-.85-.38-2.88-.5-4.53Zm-13.09,4.8c.11-.27.19-.19.21.21.02.36-.07.56-.18.45-.11-.11-.13-.41-.03-.65h0Zm21.18-.7c.1-.23.17-.04.17.43s-.08.66-.17.43c-.1-.23-.1-.62,0-.85Zm-11.67-.37c-.06-.5.05-.91.24-.91s.4-.88.47-1.96c.07-1.17.12-.75.12,1.03,0,1.92-.14,2.95-.36,2.88-.2-.06-.4-.53-.46-1.03Zm-12.04-.14c.66-1.25,2.23-3.33,2-2.65-.16.49-2.4,3.93-2.55,3.93-.07,0,.18-.58.55-1.28Zm69.7.06c0-.09.31,0,.68.19.38.2.68.44.68.54s-.31,0-.68-.19c-.38-.2-.68-.44-.68-.54Zm-47.58-2.84c-.1-.82-.06-1.36.09-1.2.15.16.36,1.37.47,2.69.2,2.51-.2,1.44-.56-1.49Zm-15.5,2.97c.11-.27.19-.19.21.21.02.36-.07.56-.18.45-.11-.11-.13-.41-.03-.65h0Zm13.93-4.35c-.04-1.55.43-1.03.54.59.05.7.12,1.5.15,1.78.04.28.02.97-.04,1.54-.07.75-.17.51-.36-.85-.14-1.03-.27-2.4-.29-3.05h0Zm-12.97,3.05l.03-.85.27.85c.15.47.29,1.08.3,1.37.03.46,0,.46-.3,0-.18-.28-.32-.9-.3-1.37Zm-5.33.68c.19-.31.32-.3.53.04.36.58,0,1.16-.44.71-.19-.19-.23-.53-.09-.75h0Zm3.3-1.8c.05-2.21.41-1.72.49.67.04,1.21-.04,1.74-.23,1.44-.16-.26-.28-1.21-.26-2.11h0Zm3.13,1.4c.11-.27.19-.19.21.21.02.36-.07.56-.18.45-.11-.11-.13-.41-.03-.65h0Zm62.23.06c-.12-.19-.05-.34.15-.34s.36.15.36.34-.07.34-.15.34-.25-.15-.36-.34Zm-60.94-3.35c-.02-.46.12-.7.33-.57.2.12.26.53.13.92-.12.38-.05.8.16.93.24.15.29.66.13,1.41l-.25,1.17-.24-1.54c-.13-.85-.25-1.89-.27-2.33Zm3.94.77c-.09-1.12-.25-2.34-.38-2.71-.21-.65-.2-.66.19-.04.42.65.93,5.32.55,4.97-.11-.1-.28-1.1-.36-2.22Zm9.47.28c.09-.33.16-.14.17.42,0,.56-.06.84-.16.6-.09-.23-.1-.69-.01-1.02h0Zm45.5.07c-2.22-.84-4.99-2.16-4.58-2.19.11,0,1.72.21,3.59.5,1.86.28,3.58.51,3.81.51.25,0,.43.44.43,1.03,0,1.26-.28,1.28-3.24.16h0Zm-50.96-.22c.11-.27.19-.19.21.21.02.36-.07.56-.18.45-.11-.11-.13-.41-.03-.65h0Zm-11.07-.23c.48-.9.47-1.17-.06-.9-.23.12-.13-.03.24-.32.36-.3.78-.54.93-.54.36,0,.74,1.56.51,2.12-.1.24-.19.03-.2-.48-.02-.51-.2-1.02-.41-1.15-.26-.16-.3.01-.13.53.16.5.12.69-.11.55-.19-.12-.46.1-.58.5-.12.39-.3.64-.39.55-.09-.09,0-.48.2-.86h0Zm-3.87-.42c.36-.39.96-.87,1.34-1.06.38-.19.15.17-.51.8-1.29,1.24-1.89,1.43-.83.26h0Zm24.89-.29c.11-.17.04-.41-.15-.53-.19-.12-.35-.04-.35.18s-.73-.25-1.62-1.04-1.62-1.57-1.62-1.75c0-.34-.83-.97-1.3-.97-.15,0-.18.15-.07.33.12.19-.02.25-.32.13-.29-.11-.44-.35-.33-.53.11-.18-.08-.28-.42-.22-.41.07-.65-.12-.7-.57-.07-.62-.06-.62.11-.04.12.41.27.51.42.26.17-.27.67-.15,1.65.38,2.77,1.49,5.94,4.69,4.66,4.69-.09,0-.08-.14.03-.32h0Zm-1.69-1.91c-.75-.65-1.51-1.18-1.68-1.18-.17,0,.29.53,1.02,1.18s1.49,1.18,1.68,1.18c.19,0-.27-.53-1.02-1.18Zm-8.59,1.12c.1-.23.17-.04.17.43s-.08.66-.17.43c-.1-.23-.1-.62,0-.85Zm43.6.1c0-.18.23-.24.51-.13s.51.26.51.33-.23.13-.51.13-.51-.15-.51-.33Zm-42.7-.69c0-.19.07-.34.15-.34s.25.15.36.34.05.34-.15.34-.36-.15-.36-.34Zm-1.59-.11c0-.25.2-.46.45-.46.34,0,.35.12.07.46-.21.25-.41.46-.45.46s-.07-.2-.07-.46Zm-6.95.11c0-.19.07-.34.15-.34s.25.15.36.34.05.34-.15.34-.36-.15-.36-.34Zm59.05-1.33c-1.95-.73-4.55-1.72-5.77-2.18l-2.22-.85-.09-6.34-.09-6.34,1.97-1.32c3.14-2.1,7.95-4.98,8.09-4.83.22.23,4.91,7.72,5.32,8.49.32.59.07,1.92-1.35,7.29-1.93,7.28-1.97,7.42-2.16,7.42-.07,0-1.73-.6-3.68-1.33Zm-38.62.39c-.09-.21-3.36-2.99-4.02-3.41-.08-.05.03-.28.26-.5.31-.31.4-.29.4.1,0,.57,1.68,1.68,2.55,1.68.31,0,.49.12.41.26-.09.14.37.27,1.01.28,1.27.03,1.16-.11-.98-1.24-1.33-.7-2.49-2.44-2.18-3.25.1-.26.99-.9,1.99-1.42,1.65-.87,2.11-.95,5.22-.92,4.51.05,8.36.67,9.18,1.48.35.35.55.78.44.96s-1.72.41-3.58.51c-2.01.11-3.78.4-4.38.71-1.16.6-3.45,2.98-4.38,4.57-.51.86-.76,1.02-1.23.77-.33-.17-.64-.44-.71-.58h0Zm-8.08.08c.1-.11.3.08.42.42.19.49.15.53-.19.19-.23-.23-.34-.51-.23-.61h0Zm-15.78,0c.85-.45,1.69-.82,1.88-.82s-.35.37-1.2.82-1.69.82-1.88.82.35-.37,1.2-.82Zm56.27-.23c-1.57-.3-1.96-.5-1.96-1.02,0-.77.85-1.19,1.46-.72.23.18,1.61.76,3.07,1.28s2.65,1.02,2.65,1.11c0,.18-2.24-.1-5.21-.66Zm-43.72-.59c-.89-.3-1.62-.65-1.62-.77,0-.29,2.28.33,3.5.96,1.02.53,1.31,1.04.34.62-.33-.14-1.33-.51-2.22-.81Zm-9.72-.41c.34-.2,1.49-.42,2.56-.49l1.95-.13-2.02.32c-1.11.18-2.09.4-2.19.5s-.34.17-.55.17c-.2,0-.09-.17.24-.37Zm-3.72-.48c.36-.26.78-.4.94-.3s.29.02.29-.17.26-.25.57-.13c.38.15.49.09.32-.18-.14-.22-.12-.41.03-.42.15-.01.62-.09,1.04-.17s.77-.07.77.02c0,.3-3.1,1.74-3.86,1.79-.73.05-.73.03-.1-.43h0Zm10.55-.03c.11-.11.41-.13.65-.03.27.11.19.19-.21.21-.36.01-.56-.07-.45-.18h0Zm-1.71,0c.11-.11.41-.13.65-.03.27.11.19.19-.21.21-.36.01-.56-.07-.45-.18h0Zm3.24-1.62c-.22.13-.27.06-.12-.17.37-.6.89-.47.86.2-.02.36-.1.43-.2.17-.1-.24-.34-.33-.54-.2h0Zm-6.53-.07c.11-.29.28-.44.38-.34.1.1.39.01.64-.2.35-.29.46-.26.46.15,0,.29-.35.6-.77.68s-.8.17-.84.19.02-.19.13-.48Zm3.41-.33c.11-.28.53-.49.93-.47.65.04.66.06.08.21-.52.13-.55.23-.17.47.36.23.29.3-.28.31-.53,0-.7-.15-.56-.51h0Zm1.92-.38c.11-.11.41-.13.65-.03.27.11.19.19-.21.21-.36.01-.56-.07-.45-.18h0Zm1.27-2.78c0-.45-.08-.48-.29-.15-.18.29-.83.41-1.84.34l-1.55-.1.66-1.29c.65-1.28.67-1.29,2.27-1.07.89.12,1.65.25,1.69.28.04.04-.02.64-.13,1.33-.21,1.28-.79,1.76-.8.67h0Zm-1.39-.94c.01-.19-.11-.55-.27-.8-.23-.36-.33-.34-.5.1-.12.31-.08.47.09.37.17-.1.39,0,.48.24.1.24.18.28.19.09Zm1.23-4.95c-.77-.85-.8-3.44-.04-4.59.54-.82,1.02-.92,1.89-.38.32.2.4.17.25-.07-.13-.2.09-.47.49-.6.87-.28.86-.29,1.11,1.29.19,1.26.18,1.28-.54.77-1.07-.75-1.81-.64-2.61.38-.91,1.16-.92,1.85-.01.87.72-.77,1.35-.98,1.35-.44,0,.17-.23.39-.51.5s-.51.61-.51,1.11c0,.87.03.89.62.35.83-.76,1.42-.71,1.42.1,0,1.34-1.91,1.8-2.9.7h0Zm3.05-4.54c-.13-.34-.32-.53-.42-.42s0,.38.23.61c.34.33.38.3.19-.19h0Zm3.34,2.64c-1.03-.72-1.78-2.27-1.78-3.63,0-1.82.29-1.99,3.61-2.16,2.93-.15,2.99-.14,1.51.28-1.26.36-1.42.49-.86.7.62.24.59.32-.43,1.12-1.71,1.34-1.3,1.51.96.41,1.13-.55,2.83-1.19,3.76-1.41,1.18-.28,1.65-.55,1.53-.86-.11-.29.04-.41.42-.34.4.08.63.5.71,1.28l.11,1.17.74-.91c.54-.67,1.18-.97,2.36-1.13,1.5-.2,1.68-.14,2.65.9,1.26,1.35,1.59,2.5,1.06,3.67-.39.85-.47.87-2.8.68-1.44-.12-2.85-.47-3.52-.86l-1.12-.66-.93.99c-.73.77-1.23.99-2.31.99h-1.38l.18-1.62.18-1.62-.65.8c-.36.44-.65,1.25-.65,1.79,0,.91-.1.99-1.29.99-.71,0-1.63-.24-2.05-.53Zm18.14-.24c-.45-.72-.33-2.65.16-2.65.25,0,.34-.17.21-.39-.14-.23-.05-.32.24-.23.7.23.86,3.69.17,3.69-.28,0-.63-.19-.78-.43h0Zm.23-6.2c0-.07.24-.23.53-.34.3-.12.44-.06.32.13-.2.32-.85.48-.85.2Zm-4.36-1.11c-1.5-.22-2.06-.59-1.45-.97.58-.36.39-1.74-.34-2.4-.56-.51-.83-.55-1.53-.24-.99.45-1.47,1.9-.86,2.63.37.44.04.51-2.61.5-1.85,0-2.85-.12-2.56-.3.65-.41.59-2.11-.1-2.62-.94-.69-2.4-.11-2.53,1.01-.06.52.06,1.15.27,1.4.31.38-.02.48-1.86.58-1.74.09-2.2.02-2.07-.33.1-.25-.22-.84-.69-1.31-.8-.8-.92-.83-1.62-.36-.57.39-.73.8-.68,1.74.04.68-.07,1.23-.26,1.23-.43,0-.56-2.61-.14-3.03.4-.41,4.56-1.51,7.41-1.97,4.37-.7,10.14-.23,14.32,1.16,2.38.79,2.86,1.07,2.96,1.74l.11.79-.71-.71c-1.27-1.27-2.6-.72-2.35.98.14.97.08,1.07-.55.89-.39-.11-1.37-.3-2.17-.41h0Zm5.64-3.25l-1.44-.75,1.88-.39c1.92-.4,3.53-1.11,5.23-2.3.53-.37,1.02-.61,1.1-.54.35.35-1.63,3.79-2.93,5.08l-1.45,1.45-.47-.9c-.26-.5-1.12-1.24-1.91-1.65Zm-1.86,2.24c.11-.11.41-.13.65-.03.27.11.19.19-.21.21-.36.01-.56-.07-.45-.18h0Zm-21.61.06c0-.08.15-.25.34-.36.19-.12.34-.05.34.15s-.15.36-.34.36-.34-.07-.34-.15Zm14.86-1.22c-.12-.19.04-.34.34-.34s.46.15.34.34-.27.34-.34.34-.23-.15-.34-.34Zm-7.69,0c0-.19.15-.34.34-.34s.34.15.34.34-.15.34-.34.34-.34-.15-.34-.34Zm-12.34-2.28c-1.44-1.56-2.62-3.56-3.36-5.72-.38-1.11-.69-2.06-.69-2.11s1.48.9,3.3,2.11c2.33,1.56,4.13,2.47,6.15,3.1,2.63.82,3.5,1.29,3.1,1.69-.08.08-1.06.39-2.17.68-1.11.29-2.55.8-3.21,1.15-1.33.7-1.77.57-3.12-.88Zm9.31-2.65c-.4-.4-.33-.56.45-1.07,2.37-1.55,6.61-1.91,9.56-.81,2.81,1.05,2.91,1.85.29,2.4-2.02.43-9.74.04-10.3-.52Z" style="fill: #fff; stroke-width: 0px;"/>
      <g>
        <path d="m102.94,37.11L117.26,1.75h.19l14.32,35.36h-2.62l-12.45-31.64,1.62-.91-13.03,32.54h-2.34Zm6.92-13.41h15.03l.67,2.2h-16.27l.57-2.2Z" style="fill: #fff; stroke-width: 0px;"/>
        <path d="m162.59,34.87c-.73.45-1.57.88-2.53,1.29-.95.41-2,.74-3.15.98-1.15.24-2.39.36-3.72.36-2.58,0-4.92-.45-7.01-1.36s-3.9-2.15-5.39-3.72c-1.5-1.58-2.65-3.39-3.46-5.44-.81-2.05-1.22-4.24-1.22-6.56,0-2.48.43-4.79,1.29-6.92.86-2.13,2.07-3.99,3.63-5.58,1.56-1.59,3.37-2.83,5.44-3.72,2.07-.89,4.31-1.34,6.73-1.34,1.78,0,3.45.24,5.01.72,1.56.48,2.97,1.1,4.25,1.86l-1,2.15c-1.11-.7-2.37-1.29-3.77-1.77-1.4-.48-2.88-.72-4.44-.72-2,0-3.9.39-5.68,1.17-1.78.78-3.35,1.86-4.7,3.25-1.35,1.38-2.41,3-3.17,4.84-.76,1.85-1.15,3.83-1.15,5.97s.34,3.96,1.03,5.77c.68,1.81,1.67,3.4,2.96,4.77s2.84,2.44,4.65,3.22c1.81.78,3.83,1.17,6.06,1.17,1.65,0,3.17-.23,4.56-.69s2.62-1.04,3.7-1.74l1.1,2.05Z" style="fill: #fff; stroke-width: 0px;"/>
        <path d="m168.51,3.23h22.19v2.24h-9.97v31.64h-2.34V5.48h-9.88v-2.24Z" style="fill: #fff; stroke-width: 0px;"/>
        <path d="m198.76,3.23h2.34v33.88h-2.34V3.23Z" style="fill: #fff; stroke-width: 0px;"/>
        <path d="m209.74,20.22c0-2.39.45-4.62,1.34-6.71.89-2.08,2.13-3.93,3.72-5.54,1.59-1.61,3.43-2.86,5.51-3.77,2.08-.91,4.32-1.36,6.71-1.36s4.63.45,6.73,1.36c2.1.91,3.94,2.16,5.54,3.77,1.59,1.61,2.84,3.45,3.75,5.54.91,2.08,1.36,4.32,1.36,6.71s-.45,4.62-1.36,6.7c-.91,2.08-2.16,3.92-3.75,5.51-1.59,1.59-3.44,2.83-5.54,3.72-2.1.89-4.34,1.34-6.73,1.34s-4.62-.43-6.71-1.29c-2.08-.86-3.92-2.07-5.51-3.63s-2.83-3.39-3.72-5.49-1.34-4.39-1.34-6.87Zm2.39.05c0,2.07.38,4.01,1.15,5.82s1.83,3.4,3.2,4.77c1.37,1.37,2.95,2.44,4.75,3.22,1.8.78,3.71,1.17,5.75,1.17s4.06-.39,5.87-1.17,3.4-1.85,4.77-3.22c1.37-1.37,2.44-2.96,3.22-4.77.78-1.81,1.17-3.77,1.17-5.87s-.39-4.02-1.17-5.85c-.78-1.83-1.85-3.44-3.22-4.82-1.37-1.38-2.96-2.47-4.77-3.27-1.81-.79-3.75-1.19-5.82-1.19s-4.06.41-5.87,1.22-3.4,1.92-4.75,3.32c-1.35,1.4-2.4,3.01-3.15,4.84s-1.12,3.76-1.12,5.8Z" style="fill: #fff; stroke-width: 0px;"/>
        <path d="m281.37,37.93l-26.72-30.11.62-.48.05,29.78h-2.29V2.52h.14l26.72,30.35-.62.19-.05-29.82h2.24v34.69h-.1Z" style="fill: #fff; stroke-width: 0px;"/>
      </g>
      <g>
        <path d="m115.32,41.53c2.53,0,4.78.32,6.76.96,1.98.64,3.64,1.56,4.97,2.75,1.34,1.19,2.35,2.62,3.05,4.29.7,1.67,1.04,3.54,1.04,5.63,0,1.65-.25,3.3-.74,4.95s-1.3,3.15-2.42,4.51c-1.12,1.36-2.59,2.45-4.42,3.27-1.83.82-4.1,1.24-6.81,1.24h-5.71v12.86h-7.97v-40.44h12.25Zm1.37,19.89c1.21,0,2.22-.2,3.02-.6.81-.4,1.44-.92,1.9-1.54.46-.62.79-1.27.99-1.95.2-.68.3-1.31.3-1.9,0-.44-.06-1-.19-1.68-.13-.68-.39-1.36-.8-2.06-.4-.7-1.02-1.28-1.84-1.76-.82-.48-1.93-.71-3.32-.71h-5.71v12.2h5.66Zm7.47,4.95l10,15.61h-9.29l-10.22-15.39,9.51-.22Z" style="fill: #fff; stroke-width: 0px;"/>
        <path d="m153.02,41.53c3.33,0,6.15.56,8.46,1.68,2.31,1.12,4.07,2.69,5.28,4.73s1.81,4.44,1.81,7.23c0,1.65-.25,3.31-.74,4.97s-1.28,3.18-2.36,4.53c-1.08,1.36-2.53,2.45-4.34,3.27-1.81.82-4.04,1.24-6.68,1.24h-5.71v12.8h-7.97v-40.44h12.25Zm1.37,19.89c1.21,0,2.22-.21,3.02-.63.81-.42,1.44-.95,1.9-1.59.46-.64.79-1.31.99-2,.2-.7.3-1.3.3-1.81,0-.4-.06-.94-.19-1.62-.13-.68-.39-1.36-.8-2.06-.4-.7-1.02-1.28-1.84-1.76-.82-.48-1.93-.71-3.32-.71h-5.71v12.2h5.66Z" style="fill: #fff; stroke-width: 0px;"/>
        <path d="m208.51,77.9c-.48.51-1.23,1.04-2.25,1.57s-2.21,1.02-3.54,1.46c-1.34.44-2.7.8-4.09,1.07-1.39.27-2.71.41-3.96.41-3.3,0-6.26-.49-8.9-1.46-2.64-.97-4.89-2.33-6.76-4.07-1.87-1.74-3.3-3.8-4.29-6.18-.99-2.38-1.48-4.98-1.48-7.8,0-3.7.56-6.92,1.68-9.64,1.12-2.73,2.64-5,4.56-6.81s4.14-3.16,6.65-4.04c2.51-.88,5.14-1.32,7.88-1.32,2.6,0,4.98.28,7.14.85,2.16.57,3.99,1.27,5.49,2.12l-2.58,7.42c-.66-.37-1.54-.73-2.64-1.1-1.1-.37-2.22-.67-3.35-.91s-2.14-.36-3.02-.36c-2.2,0-4.14.27-5.82.82-1.69.55-3.1,1.37-4.26,2.47-1.15,1.1-2.02,2.46-2.61,4.09-.59,1.63-.88,3.53-.88,5.69,0,1.91.33,3.62.99,5.14.66,1.52,1.58,2.81,2.78,3.87,1.19,1.06,2.6,1.87,4.23,2.42,1.63.55,3.43.82,5.41.82,1.13,0,2.18-.08,3.13-.25s1.76-.43,2.42-.8v-4.89h-6.98v-7.69h15.06v17.09Z" style="fill: #fff; stroke-width: 0px;"/>
      </g>
    </g>
  </g>
</svg>