<?xml version="1.0" encoding="UTF-8"?>
<svg id="Calque_2" data-name="Calque 2" xmlns="http://www.w3.org/2000/svg" viewBox="0 0 359.73 81.88">
  <g id="svg19">
    <g>
      <g>
        <path d="m82.23,73.29c-1.75,0-3.34-.42-4.77-1.26-1.43-.84-2.57-2.01-3.41-3.51-.84-1.5-1.26-3.18-1.26-5.06,0-2,.43-3.74,1.29-5.2.86-1.46,2.03-2.59,3.51-3.39,1.48-.79,3.11-1.19,4.89-1.19s3.48.46,5.08,1.38c1.61.92,2.78,2.13,3.51,3.63l-.38,1.05v-23.1h2.24v36.27h-2.29v-5.73l.48,1.05c-.8,1.5-1.99,2.71-3.58,3.65-1.59.94-3.36,1.41-5.3,1.41Zm.57-1.96c1.43,0,2.72-.31,3.87-.93,1.15-.62,2.07-1.46,2.77-2.53s1.1-2.27,1.19-3.6v-2.39c-.22-1.21-.72-2.29-1.48-3.25-.76-.95-1.69-1.71-2.77-2.27-1.08-.56-2.27-.83-3.58-.83-1.43,0-2.74.33-3.91,1-1.18.67-2.12,1.59-2.82,2.77-.7,1.18-1.05,2.55-1.05,4.1,0,1.46.35,2.79,1.05,3.98s1.65,2.15,2.84,2.86c1.19.72,2.49,1.07,3.89,1.07Z" style="fill: #fff; stroke-width: 0px;"/>
        <path d="m109.53,73.29c-1.94,0-3.66-.43-5.15-1.29-1.5-.86-2.67-2.03-3.51-3.51-.84-1.48-1.26-3.14-1.26-4.99s.45-3.47,1.34-4.96c.89-1.5,2.09-2.69,3.6-3.58,1.51-.89,3.19-1.34,5.03-1.34,2.23,0,4.1.65,5.61,1.96,1.51,1.3,2.6,3.01,3.27,5.11l-16.32,6.3-.67-1.62,14.94-5.82-.48.67c-.54-1.27-1.36-2.37-2.46-3.29-1.1-.92-2.44-1.38-4.03-1.38-1.43,0-2.72.35-3.87,1.05-1.15.7-2.06,1.64-2.74,2.82-.68,1.18-1.03,2.51-1.03,4.01,0,1.4.33,2.7.98,3.91.65,1.21,1.57,2.18,2.74,2.91,1.18.73,2.53,1.1,4.06,1.1,1.02,0,2-.19,2.93-.57s1.77-.88,2.5-1.48l1.15,1.62c-.89.7-1.92,1.27-3.08,1.72-1.16.44-2.35.67-3.55.67Z" style="fill: #fff; stroke-width: 0px;"/>
        <path d="m138.49,81.88l-1.43-1.38c.83-.83,1.49-1.86,1.98-3.1s.74-2.64.74-4.2v-18.94h2.29v18.9c0,2-.29,3.73-.88,5.18-.59,1.45-1.49,2.63-2.7,3.55Zm.81-34.5c0-.44.17-.82.53-1.12.35-.3.73-.45,1.14-.45.45,0,.83.15,1.15.45.32.3.48.68.48,1.12,0,.48-.16.87-.48,1.17-.32.3-.7.45-1.15.45-.41,0-.79-.16-1.14-.48-.35-.32-.53-.7-.53-1.15Z" style="fill: #fff; stroke-width: 0px;"/>
        <path d="m158.11,73.29c-1.94,0-3.66-.43-5.15-1.29-1.5-.86-2.67-2.03-3.51-3.51-.84-1.48-1.26-3.14-1.26-4.99s.45-3.47,1.34-4.96,2.09-2.69,3.6-3.58,3.19-1.34,5.04-1.34c2.23,0,4.1.65,5.61,1.96,1.51,1.3,2.6,3.01,3.27,5.11l-16.32,6.3-.67-1.62,14.94-5.82-.48.67c-.54-1.27-1.36-2.37-2.46-3.29-1.1-.92-2.44-1.38-4.03-1.38-1.43,0-2.72.35-3.87,1.05-1.15.7-2.06,1.64-2.74,2.82-.68,1.18-1.03,2.51-1.03,4.01,0,1.4.33,2.7.98,3.91s1.57,2.18,2.74,2.91c1.18.73,2.53,1.1,4.06,1.1,1.02,0,2-.19,2.93-.57.94-.38,1.77-.88,2.5-1.48l1.15,1.62c-.89.7-1.92,1.27-3.08,1.72-1.16.44-2.35.67-3.55.67Z" style="fill: #fff; stroke-width: 0px;"/>
        <path d="m179.1,73.43c-1.75,0-3.15-.52-4.2-1.55s-1.61-2.38-1.67-4.03v-13.6h2.24v12.93c.06,1.21.45,2.21,1.17,3.01.72.8,1.79,1.23,3.22,1.29,1.21,0,2.34-.32,3.39-.95s1.9-1.5,2.55-2.6c.65-1.1.98-2.35.98-3.75v-9.93h2.24v18.66h-2l-.24-5.87.33,1.29c-.32.95-.88,1.82-1.69,2.6-.81.78-1.77,1.39-2.86,1.84s-2.25.67-3.46.67Z" style="fill: #fff; stroke-width: 0px;"/>
        <path d="m211.27,72.91h-2.67l-13.98-18.66h2.82l13.84,18.66Zm-8.3-8.02l-5.73,8.02h-2.39l6.87-9.5,1.24,1.48Zm.05-2.58l5.54-8.06h2.34l-6.92,9.73-.96-1.67Z" style="fill: #fff; stroke-width: 0px;"/>
      </g>
      <g>
        <path d="m97.3,30.28c-.32.26-.9.62-1.76,1.07-.86.45-1.91.84-3.15,1.19-1.24.34-2.61.5-4.12.47-2.3-.05-4.35-.47-6.16-1.25-1.81-.78-3.34-1.84-4.59-3.19-1.25-1.35-2.21-2.89-2.87-4.63-.66-1.74-.99-3.6-.99-5.58,0-2.22.34-4.25,1.01-6.1.67-1.85,1.64-3.44,2.89-4.79,1.25-1.35,2.75-2.39,4.49-3.13,1.74-.74,3.67-1.11,5.78-1.11,1.95,0,3.68.26,5.19.79s2.73,1.1,3.68,1.7l-2.26,5.42c-.66-.5-1.54-1.02-2.63-1.56-1.1-.54-2.36-.81-3.78-.81-1.11,0-2.17.23-3.19.69-1.02.46-1.91,1.12-2.69,1.96-.78.84-1.39,1.83-1.84,2.95-.45,1.12-.67,2.34-.67,3.66,0,1.4.2,2.68.61,3.84s1,2.16,1.76,2.99c.77.83,1.68,1.47,2.75,1.92,1.07.45,2.28.67,3.62.67,1.56,0,2.89-.25,4-.75,1.11-.5,1.95-1.03,2.53-1.58l2.38,5.15Z" style="fill: #fff; stroke-width: 0px;"/>
        <path d="m101.26,18.16c0-2,.38-3.91,1.15-5.7.77-1.79,1.83-3.38,3.19-4.77,1.36-1.39,2.94-2.47,4.73-3.27s3.72-1.19,5.78-1.19,3.95.4,5.74,1.19c1.79.79,3.38,1.88,4.77,3.27s2.47,2.98,3.25,4.77c.78,1.79,1.17,3.7,1.17,5.7s-.39,3.99-1.17,5.78c-.78,1.79-1.86,3.37-3.25,4.73-1.39,1.36-2.98,2.42-4.77,3.19-1.79.77-3.71,1.15-5.74,1.15s-3.99-.38-5.78-1.15-3.37-1.83-4.73-3.19c-1.36-1.36-2.42-2.94-3.19-4.73-.77-1.79-1.15-3.72-1.15-5.78Zm5.94,0c0,1.29.23,2.5.69,3.62.46,1.12,1.11,2.11,1.94,2.97.83.86,1.79,1.52,2.89,2,1.09.48,2.29.71,3.58.71s2.4-.24,3.46-.71c1.07-.47,2-1.14,2.79-2,.79-.86,1.41-1.85,1.86-2.97.45-1.12.67-2.33.67-3.62s-.23-2.55-.69-3.68c-.46-1.13-1.1-2.13-1.9-2.99-.81-.86-1.75-1.52-2.83-2-1.08-.47-2.26-.71-3.52-.71s-2.44.24-3.52.71c-1.08.48-2.03,1.14-2.85,2-.82.86-1.45,1.85-1.9,2.99-.45,1.14-.67,2.36-.67,3.68Z" style="fill: #fff; stroke-width: 0px;"/>
        <path d="m136.77,32.69V2.37h.04l16.19,22.96-2.45-.55,16.15-22.41h.08v30.33h-5.74V15.31l.36,2.97-9.86,14.01h-.08l-10.13-14.01.99-2.73v17.14h-5.54Z" style="fill: #fff; stroke-width: 0px;"/>
        <path d="m183.13,3.55c2.4,0,4.43.4,6.1,1.21,1.66.8,2.93,1.94,3.8,3.4s1.31,3.2,1.31,5.21c0,1.19-.18,2.38-.54,3.58-.36,1.2-.92,2.29-1.7,3.27-.78.98-1.82,1.76-3.13,2.36s-2.91.89-4.81.89h-4.12v9.22h-5.74V3.55h8.83Zm.99,14.33c.87,0,1.6-.15,2.18-.46.58-.3,1.04-.69,1.37-1.15s.57-.94.71-1.45c.14-.5.22-.94.22-1.31,0-.29-.05-.68-.14-1.17-.09-.49-.28-.98-.57-1.48-.29-.5-.73-.92-1.33-1.27s-1.39-.51-2.4-.51h-4.12v8.79h4.08Z" style="fill: #fff; stroke-width: 0px;"/>
        <path d="m199.48,3.55h5.74v29.14h-5.74V3.55Z" style="fill: #fff; stroke-width: 0px;"/>
        <path d="m212.74,3.55h5.74v23.6h13.7v5.54h-19.44V3.55Z" style="fill: #fff; stroke-width: 0px;"/>
        <path d="m234.83,32.69l13.14-30.29h.32l13.14,30.29h-6.65l-8.39-21.3,4.16-2.85-10.06,24.15h-5.66Zm8.99-10.53h8.75l2.02,4.83h-12.55l1.78-4.83Z" style="fill: #fff; stroke-width: 0px;"/>
        <path d="m261.31,3.55h19.64v5.54h-7.09v23.59h-5.74V9.1h-6.81V3.55Z" style="fill: #fff; stroke-width: 0px;"/>
        <path d="m286.49,3.55h5.74v29.14h-5.74V3.55Z" style="fill: #fff; stroke-width: 0px;"/>
        <path d="m297.97,18.16c0-2,.38-3.91,1.15-5.7.76-1.79,1.83-3.38,3.19-4.77s2.94-2.47,4.73-3.27,3.72-1.19,5.78-1.19,3.95.4,5.74,1.19,3.38,1.88,4.77,3.27,2.47,2.98,3.25,4.77,1.17,3.7,1.17,5.7-.39,3.99-1.17,5.78-1.86,3.37-3.25,4.73c-1.39,1.36-2.98,2.42-4.77,3.19s-3.71,1.15-5.74,1.15-3.99-.38-5.78-1.15-3.37-1.83-4.73-3.19c-1.36-1.36-2.42-2.94-3.19-4.73-.77-1.79-1.15-3.72-1.15-5.78Zm5.94,0c0,1.29.23,2.5.69,3.62s1.11,2.11,1.94,2.97c.83.86,1.79,1.52,2.89,2,1.09.48,2.29.71,3.58.71s2.39-.24,3.46-.71c1.07-.47,2-1.14,2.79-2,.79-.86,1.41-1.85,1.86-2.97.45-1.12.67-2.33.67-3.62s-.23-2.55-.69-3.68c-.46-1.13-1.1-2.13-1.9-2.99-.81-.86-1.75-1.52-2.83-2-1.08-.47-2.26-.71-3.52-.71s-2.44.24-3.52.71c-1.08.48-2.03,1.14-2.85,2-.82.86-1.45,1.85-1.9,2.99-.45,1.14-.67,2.36-.67,3.68Z" style="fill: #fff; stroke-width: 0px;"/>
        <path d="m359.57,33.88l-22.09-19.95,1.7.95.12,17.81h-5.82V2.41h.24l21.62,19.87-1.27-.55-.12-18.17h5.78v30.33h-.16Z" style="fill: #fff; stroke-width: 0px;"/>
      </g>
      <g id="g1">
        <path id="path1" d="m2.78,80.95c-2.12-.92-3.14-5.32-2.67-11.5.48-6.27,1.97-13.43,3.72-17.84,1.1-2.79,3.1-4.35,6.13-4.79,3.85-.55,7.79,1.51,9.53,4.99.37.73.67,1.48.67,1.65s.15.45.34.62c.3.27,1.12.3,7.88.3,5.89,0,7.58-.05,7.74-.23.11-.13.33-.65.5-1.15.92-2.75,3.02-4.82,5.93-5.82,1.71-.59,4.43-.58,5.97.02,2.97,1.15,4.1,2.94,5.64,8.88,1.51,5.83,2.25,11.09,2.26,16.03,0,3.67-.25,5.35-1.08,7.04-1.97,4.03-6.68,1.99-11.55-5.02-1.99-2.86-2.32-3.57-2.38-5.1-.06-1.7-.57-2.81-1.79-3.91-1.45-1.3-3.15-1.67-5.1-1.09-1.26.37-2.97,2.01-3.32,3.17l-.23.77h-2.68s-2.68,0-2.68,0l-.44-1.01c-1.43-3.3-5.59-4.22-8.26-1.82-1.31,1.17-1.75,2.19-1.78,4.05-.02,1.37-.07,1.57-.71,2.62-1.74,2.87-5.36,6.82-7.47,8.17-1.08.69-2.51,1.25-3.17,1.23-.22,0-.66-.12-.97-.25h0Zm8.37-15.54c.33-.33.37-.61.37-2.85v-2.48h2.47c2.72,0,3.12-.14,3.01-1.08-.09-.76-.71-.94-3.23-.94h-2.25v-2.35c0-1.83-.06-2.44-.29-2.76-.34-.48-.93-.53-1.4-.1-.29.27-.34.61-.34,2.76v2.45h-2.4c-2.3,0-2.42.02-2.85.45-.44.44-.45.8-.03,1.34.13.16.9.23,2.73.23h2.55v2.48c0,2.24.04,2.52.37,2.85.2.2.49.37.64.37s.44-.17.64-.37Zm36.52-1.02c.48-.34.53-.93.1-1.4-.24-.26-.58-.34-1.59-.34-1.42,0-1.96.28-1.96,1.03,0,.65.66.99,1.93.99.71,0,1.26-.1,1.52-.29Zm-15.54-3.07c.52-.42.54-.87.06-1.35l-.46-.46-3.66.06c-2.13.03-3.74.13-3.84.24-.4.43-.42.99-.04,1.37.35.35.59.38,4.02.38,2.64,0,3.72-.06,3.92-.23h0Zm12.37-1.54c.43-.43.28-1.21-.27-1.49-.54-.27-1.99-.31-2.64-.06-.6.23-.78.83-.41,1.4.27.41.41.45,1.66.45,1.01,0,1.44-.08,1.66-.3h0Zm6.61-.06c.44-.48.24-1.25-.38-1.48-.65-.25-2.1-.22-2.65.06-.55.28-.7,1.06-.27,1.49.47.47,2.86.42,3.3-.06Zm-3.21-4.59c.55-1.02,0-1.48-1.74-1.48s-2.29.46-1.74,1.48c.16.31.4.36,1.74.36s1.57-.05,1.74-.36Zm-28.83,16.97c-.84-.36-1.26-.76-1.68-1.58-.62-1.22-.41-2.7.54-3.7.72-.76,1.37-1.04,2.42-1.04,1.91,0,3.31,1.41,3.31,3.33,0,.79-.48,1.9-1.04,2.41-.92.83-2.41,1.08-3.54.59h0Zm15.8,0c-.84-.36-1.26-.76-1.68-1.58-1.13-2.22.49-4.74,3.05-4.74,2.39,0,3.96,2.59,2.86,4.74-.43.84-.85,1.23-1.72,1.59-.84.35-1.69.35-2.52,0h0Zm-8.27-22.33v-2.41l.83.48.83.48.83-.48.83-.48v4.81h-3.31v-2.41Zm-5.1-7.1l-5.37-2.49v-7.14c0-4.35.07-7.14.17-7.14.1,0,2.6,1.11,5.56,2.47l5.38,2.47.05,7.18c.04,5.69,0,7.18-.18,7.16-.13,0-2.65-1.14-5.61-2.51Zm7.71-4.63l.05-7.2,5.39-2.47c2.97-1.36,5.47-2.47,5.56-2.47.1,0,.17,3.02.17,7.14v7.14l-5.28,2.44c-2.91,1.34-5.43,2.48-5.61,2.53-.31.09-.32-.31-.28-7.1h0Zm-18.25.87l-2.68-2.74,1.12-1.16,1.12-1.16,1.7,1.67,1.7,1.67v2.25c0,1.24-.06,2.24-.14,2.23s-1.34-1.26-2.82-2.77Zm31.62.58v-2.3l1.7-1.67,1.7-1.67,1.12,1.16,1.12,1.16-2.82,2.81-2.82,2.81v-2.3ZM3.52,34.45c-.97-.34-2.18-1.67-2.48-2.74-.62-2.2.7-4.41,2.96-5,2.59-.67,5.04,1.27,5,3.97-.04,2.84-2.78,4.72-5.49,3.77Zm46.62.03c-3.81-1.38-3.47-6.97.48-7.82,2.25-.48,4.49,1.03,4.91,3.32.53,2.89-2.6,5.5-5.38,4.49Zm-27.19-7.71c-2.85-1.32-5.19-2.45-5.19-2.51,0-.05,2.36-1.15,5.25-2.43l5.25-2.33,5.22,2.33c2.87,1.28,5.22,2.37,5.22,2.43,0,.09-10.09,4.8-10.45,4.88-.06.01-2.45-1.06-5.31-2.38h0Zm-12.49-4.97l-2.2-2.23,1.15-1.12,1.15-1.12,2.61,2.62c1.44,1.44,2.54,2.66,2.45,2.72-.09.06-.79.39-1.56.74l-1.39.64-2.2-2.23Zm31.75,1.51l-1.55-.72,2.65-2.66,2.65-2.66.55.66c.3.36.82.88,1.15,1.15l.6.49-2.25,2.23-2.25,2.23-1.55-.72ZM3.98,18.03c-1.74-.56-2.77-1.74-3.05-3.49-.19-1.19.23-2.36,1.21-3.34,1.85-1.85,4.72-1.57,6.18.61,1.73,2.57.13,5.96-2.96,6.28-.51.05-1.13.03-1.38-.05Zm46.53-.01c-.97-.24-2.01-1.04-2.55-1.96-.4-.69-.5-1.09-.5-1.98,0-2.39,1.64-4.04,4.02-4.04s4.03,1.66,4.03,4.03c0,2.18-1.41,3.76-3.57,4.01-.45.05-1.09.03-1.42-.05Zm-23.93-4.01v-3.81h3.31v7.6l-.81-.36c-.8-.36-.82-.36-1.65,0l-.84.36v-3.81Zm-.2-6.42c-1.36-.69-2.05-1.7-2.16-3.15-.1-1.32.18-2.23.95-3.1,1.55-1.77,4.6-1.78,6.08-.03.71.84,1.02,1.64,1.02,2.61,0,1.7-.82,3.05-2.28,3.73-1.28.59-2.36.57-3.62-.06Z" style="fill: #fff; stroke-width: 0px;"/>
      </g>
    </g>
  </g>
</svg>