<?xml version="1.0" encoding="UTF-8"?>
<svg id="Calque_2" data-name="Calque 2" xmlns="http://www.w3.org/2000/svg" viewBox="0 0 324.43 81.57">
  <g id="svg19">
    <g>
      <g>
        <path d="m114.79,35.36L129.1,0h.19l14.32,35.36h-2.62l-12.45-31.64,1.62-.91-13.03,32.54h-2.34Zm6.92-13.41h15.03l.67,2.2h-16.27l.57-2.2Z" style="fill: #fff; stroke-width: 0px;"/>
        <path d="m164.46,33.55c-.86.7-1.83,1.24-2.91,1.62s-2.21.57-3.39.57c-1.91,0-3.61-.42-5.11-1.26-1.5-.84-2.67-2-3.53-3.46-.86-1.46-1.29-3.13-1.29-5.01s.45-3.55,1.34-5.01c.89-1.46,2.08-2.62,3.55-3.46,1.48-.84,3.09-1.26,4.84-1.26,1.3,0,2.51.19,3.63.57,1.11.38,2.08.92,2.91,1.62l-1.19,1.53c-.67-.54-1.45-.99-2.34-1.34-.89-.35-1.85-.52-2.86-.52-1.4,0-2.68.35-3.84,1.05-1.16.7-2.08,1.65-2.77,2.84-.68,1.19-1.03,2.52-1.03,3.98s.34,2.74,1.03,3.94c.68,1.19,1.62,2.14,2.82,2.84,1.19.7,2.52,1.05,3.98,1.05.95,0,1.84-.15,2.67-.45.83-.3,1.57-.71,2.24-1.22l1.24,1.38Z" style="fill: #fff; stroke-width: 0px;"/>
        <path d="m172.58,8.49h2.29v8.45h5.77v1.81h-5.77v16.61h-2.29v-16.61h-3.96v-1.81h3.96v-8.45Z" style="fill: #fff; stroke-width: 0px;"/>
        <path d="m185.75,9.83c0-.44.17-.82.52-1.12.35-.3.73-.45,1.15-.45.45,0,.83.15,1.15.45.32.3.48.68.48,1.12,0,.48-.16.87-.48,1.17-.32.3-.7.45-1.15.45-.41,0-.8-.16-1.15-.48-.35-.32-.52-.7-.52-1.15Zm.48,6.87h2.24v18.66h-2.24v-18.66Z" style="fill: #fff; stroke-width: 0px;"/>
        <path d="m195.15,25.91c0-1.81.44-3.47,1.31-4.96.87-1.5,2.07-2.68,3.58-3.56,1.51-.87,3.2-1.31,5.08-1.31s3.61.44,5.11,1.31c1.5.88,2.67,2.06,3.53,3.56.86,1.5,1.29,3.15,1.29,4.96s-.43,3.47-1.29,4.96c-.86,1.5-2.04,2.68-3.55,3.55-1.51.88-3.21,1.31-5.08,1.31s-3.61-.42-5.11-1.26c-1.5-.84-2.68-2-3.55-3.48-.88-1.48-1.31-3.17-1.31-5.08Zm2.24.05c0,1.46.34,2.79,1.03,3.98.68,1.19,1.61,2.14,2.77,2.84,1.16.7,2.46,1.05,3.89,1.05s2.73-.35,3.89-1.05c1.16-.7,2.08-1.65,2.77-2.84.68-1.19,1.03-2.52,1.03-3.98s-.34-2.79-1.03-3.98c-.68-1.19-1.61-2.15-2.77-2.86s-2.46-1.07-3.89-1.07-2.78.37-3.94,1.12c-1.16.75-2.08,1.73-2.74,2.93-.67,1.21-1,2.5-1,3.87Z" style="fill: #fff; stroke-width: 0px;"/>
        <path d="m223.68,16.7l.24,5.87-.29-1.15c.54-1.62,1.57-2.9,3.08-3.84,1.51-.94,3.19-1.41,5.03-1.41,1.75,0,3.17.52,4.25,1.55,1.08,1.03,1.64,2.38,1.67,4.03v13.6h-2.29v-12.98c-.03-1.21-.41-2.21-1.15-3.01-.73-.79-1.8-1.21-3.2-1.24-1.24,0-2.4.3-3.48.91-1.08.6-1.95,1.45-2.6,2.53-.65,1.08-.98,2.34-.98,3.77v10.02h-2.24v-18.66h1.96Z" style="fill: #fff; stroke-width: 0px;"/>
      </g>
      <g>
        <path d="m135.3,53.63c-1.35-.74-2.73-1.35-4.14-1.84-1.4-.48-2.72-.73-3.94-.73-1.52,0-2.71.31-3.58.92-.87.61-1.31,1.53-1.31,2.76,0,.84.33,1.59.99,2.25s1.52,1.25,2.56,1.77c1.05.52,2.14.98,3.27,1.4,1.03.39,2.06.85,3.07,1.38s1.93,1.19,2.73,1.98c.81.79,1.45,1.77,1.94,2.95.48,1.18.73,2.62.73,4.33,0,1.81-.47,3.48-1.4,5.03s-2.31,2.8-4.11,3.75c-1.81.95-4.03,1.43-6.68,1.43-1.35,0-2.73-.14-4.14-.41-1.4-.27-2.78-.69-4.14-1.26-1.35-.56-2.66-1.28-3.92-2.15l3.1-5.47c.84.61,1.75,1.15,2.73,1.62.98.47,1.98.83,2.98,1.09,1,.26,1.92.39,2.76.39s1.69-.12,2.54-.36c.85-.24,1.56-.65,2.13-1.23.56-.58.85-1.39.85-2.42,0-.71-.23-1.35-.7-1.94-.47-.58-1.1-1.11-1.89-1.6-.79-.48-1.65-.9-2.59-1.26-1.1-.42-2.23-.9-3.39-1.45-1.16-.55-2.25-1.22-3.27-2.01s-1.84-1.77-2.47-2.95c-.63-1.18-.94-2.62-.94-4.33,0-2.06.46-3.85,1.38-5.37.92-1.52,2.22-2.72,3.89-3.6s3.61-1.38,5.81-1.48c2.87,0,5.2.34,6.99,1.02,1.79.68,3.39,1.48,4.81,2.42l-2.66,5.37Z" style="fill: #fff; stroke-width: 0px;"/>
        <path d="m142.07,45.02h24v6.77h-8.66v28.84h-7.02v-28.84h-8.32v-6.77Z" style="fill: #fff; stroke-width: 0px;"/>
        <path d="m172.85,45.02h24.29v6.77h-17.27v7.6h15.29v6.77h-15.29v7.69h17.95v6.77h-24.97v-35.61Z" style="fill: #fff; stroke-width: 0px;"/>
        <path d="m201.05,80.63l16.06-37.01h.39l16.06,37.01h-8.13l-10.26-26.03,5.08-3.48-12.29,29.51h-6.92Zm10.98-12.87h10.69l2.47,5.9h-15.34l2.18-5.9Z" style="fill: #fff; stroke-width: 0px;"/>
        <path d="m238.75,45.02h7.02v28.84h16.74v6.77h-23.76v-35.61Z" style="fill: #fff; stroke-width: 0px;"/>
        <path d="m263.71,45.02h24v6.77h-8.66v28.84h-7.02v-28.84h-8.32v-6.77Z" style="fill: #fff; stroke-width: 0px;"/>
        <path d="m324.43,45.02v35.61h-7.02v-14.47h-15.92v14.47h-7.02v-35.61h7.02v14.37h15.92v-14.37h7.02Z" style="fill: #fff; stroke-width: 0px;"/>
      </g>
      <path d="m65.93,1.29c-6.09,0-11.72,2.99-14.34,8.59,4.39.37,3.38,11.64,3.38,11.64-2.5,3.53-5.23,7.01-7.73,10.6,0,0-20.93,27.95-37.69,35.51-5.93,4.77-7.04,7.72-9.33,11.13-1.03,2.02,1.96,3.03,2.47,2.79,4.8-2.21,5.32-4.41,9.95-7.54,2.71-1.06,5.04-3.36,6.73-2.33,7.39,4.41,22.73,9.36,24.99,8.18,3.77-1.96-1.22-9.21,3.42-18.82,6.76-.71,12.45-.19,18.67-2.56.74,10.62,2.14,11.54,1.43,22.63l15.05.22.15-3.09-8.84-2.35c2.44-11.85,2.5-16.69.99-27.05-.2-1.4-11.36-1.75-17.12-.8,5.17-5.11,8.51-9.56,10.04-14.46v.04c1.62,3.36,6.36,7.18,7.47,7.85,5.85,2.33,8.08,1.69,13.3.82,1.04-.17,5.8,5.19,9.47,2.03.56-4.28,3.49-4.3-1.04-6.91-1.02-.58-5.72,1.58-6.64,1.46-4.27-.52-6.54-1.1-12.35-2.68-2.16-2.79-6.9-11.86-11.71-12.62,1.38-2.99,5.96-11.22,15.57-14-4.43-5.61-10.55-8.25-16.27-8.26h0Zm17.41,9.87c-9.86,4.12-12.31,10.65-12.31,10.65l2.1,1.62s2.04-1.01,10.22-12.27Zm4.87,33.81l-.98,2.41c1.11-.02,2.2.1,3.24.34-2.7,6.52-5.06,12.6-5.96,19.67l-.19,1.6,1.03-1.24c4.4-5.42,6.83-11.68,9.5-18.13.89.56,1.74,1.24,2.55,1.98l1.01-2.4-4.34-1.8-6.71,14.07,5.08-14.73-4.23-1.76h0Z" style="fill: #fff; stroke-width: 0px;"/>
    </g>
  </g>
</svg>