<?xml version="1.0" encoding="utf-8"?>
<!-- Generator: Adobe Illustrator 27.8.0, SVG Export Plug-In . SVG Version: 6.00 Build 0)  -->
<svg version="1.1" id="Calque_1" xmlns="http://www.w3.org/2000/svg" xmlns:xlink="http://www.w3.org/1999/xlink" x="0px" y="0px"
	 viewBox="0 0 1888 544" style="enable-background:new 0 0 1888 544;" xml:space="preserve">
<style type="text/css">
	.st0{fill:#FFFFFF;}
</style>
<path class="st0" d="M379.7,185.6l4-3.6c0,0-1.8-5.9-3.6-7.2c-1.8-1.4-7.2-1.8-7.2-1.8l-5.4,3.6l-1.8,5.4c0,0,4.3,4.3,9,5.4
	C378.8,188.3,379.7,185.6,379.7,185.6z"/>
<path class="st0" d="M416.2,257.2c9,4,23,2.2,27.9,1.3c4.9-0.9,11.7-5.4,18.9-17.1c3.7-6,4.8-12.4,5-18.5c0.2-9-1.8-16.7-1.8-16.7
	s-2.5,3.2-4.5,8.9c-3.4,9.7-3.6,15-9.5,23.5c-7.3,8.4-17.4,11.7-27.9,11.9c-6.3,0.1-12.8,0.2-18.9-3.8
	C405.4,246.8,409.2,254,416.2,257.2z"/>
<path class="st0" d="M423.4,169.4c0,0,5.9-8.6,5.9-10.4c0-1.8-7.6-13.1-7.6-13.1h-9l-7.2,10.8l6.3,12.2L423.4,169.4z"/>
<path class="st0" d="M450.4,391v-9c0,0-8.4-0.7-9-1.8c-0.6-1.1-7.2,1.8-7.2,1.8v9l9,5.4L450.4,391z"/>
<polygon class="st0" points="414.4,371.2 419.8,356.7 414.4,345.9 396.4,347.7 389.2,362.1 396.4,373 "/>
<polygon class="st0" points="362.1,414.4 345.9,421.6 340.5,430.6 347.7,450.5 365.7,450.5 371.1,461.2 383.8,461.2 410.8,448.6 
	400,425.2 385.6,430.6 374.8,430.6 "/>
<g>
	<path class="st0" d="M416.2,257.2c9,4,23,2.2,27.9,1.3c4.9-0.9,11.7-5.4,18.9-17.1c3.7-6,4.8-12.4,5-18.5c0.2-9-1.8-16.7-1.8-16.7
		s-2.5,3.2-4.5,8.9c-3.4,9.7-3.6,15-9.5,23.5c-7.3,8.4-17.4,11.7-27.9,11.9c-6.3,0.1-12.8,0.2-18.9-3.8
		C405.4,246.8,409.2,254,416.2,257.2z"/>
	<path class="st0" d="M450.4,391v-9c0,0-8.4-0.7-9-1.8c-0.6-1.1-7.2,1.8-7.2,1.8v9l9,5.4L450.4,391z"/>
	<path class="st0" d="M423.4,169.4c0,0,5.9-8.6,5.9-10.4c0-1.8-7.6-13.1-7.6-13.1h-9l-7.2,10.8l6.3,12.2L423.4,169.4z"/>
	<path class="st0" d="M379.7,185.6l4-3.6c0,0-1.8-5.9-3.6-7.2c-1.8-1.4-7.2-1.8-7.2-1.8l-5.4,3.6l-1.8,5.4c0,0,4.3,4.3,9,5.4
		C378.8,188.3,379.7,185.6,379.7,185.6z"/>
	<polygon class="st0" points="414.4,371.2 419.8,356.7 414.4,345.9 396.4,347.7 389.2,362.1 396.4,373 	"/>
	<polygon class="st0" points="362.1,414.4 345.9,421.6 340.5,430.6 347.7,450.5 365.7,450.5 371.1,461.2 383.8,461.2 410.8,448.6 
		400,425.2 385.6,430.6 374.8,430.6 	"/>
	<path class="st0" d="M461.4,79.2C355.8-26.4,184.7-26.4,79.2,79.2c-105.5,105.5-105.5,276.7,0,382.2
		c105.5,105.5,276.7,105.5,382.2,0S566.9,184.7,461.4,79.2z M439.6,111.7l54.1,75.7l7.2,54l-52.3,63.1l-41.4-14.4l-54-68.5
		L322.5,155l43.2-63L439.6,111.7z M332.7,37.8c0,0-24.6,14.4-22.8,14.4c1.8,0,16.2,1.8,16.2,1.8l-28.8,18l32.4-1.8l-86.5,50.4v3.6
		l93.7-5.4l-93.7,66.7v19.8l70.6-8.7c0,0-19.1,10.8-21.7,12.2c2.4-0.8,16.9-0.5,16.9-0.5l-9.9,6h17.1l-103.6,73.8l-1.8-216.2
		L332.7,37.8z M59.5,144.1l18-21.6l70.3,52.3l18-106.8l3.6,31.1l9-16.2l1.8,14.4l12.6-16.2l2.1,189.5L93.7,192.8
		c0,0-39.6,94.6-39.6,95.5L59.5,144.1z M150.1,483.8c-17.5-10.6-41.2-28.1-41.2-28.1s-48.9-34.7-45.8-108
		c3.4-82,56.7-82.4,63.2-82.6C155.5,264.1,172,279,172,279l29.8,65.2c0,0-48.2-36.4-75.7-36c-27.4,0.3-36.7,25.3-36,45
		c0.7,19.8,12.9,44.3,28,59.4c18.5,18.4,40.5,25.3,40.5,25.3l-10.8-41.4l-28.8-1.8l10.8-10.8l-16.2-1.8l18-14.4l-10.8-1.8l54.1-16.2
		L200,509.9C200,509.9,167.6,494.4,150.1,483.8z M273.3,489.6l-15.2-13.2l12.1,22.7l-82.9-109.9l102.7-140.5l64.9,52.3
		c0,0-8.1-2.1-9-1.8c-0.9,0.2,14.4,21.6,14.4,21.6l-19.8-7.2l10.8,14.4l-66.7-23.4l-5.4,5.4l43.2,72.1l-88.3-3.6l48.6,93.7l-18-3.6
		L273.3,489.6z M477.4,410.8l-84.3,74l-50.8,10.7l-28.8-23.4l1.8-64.9l70.3-88.3h97.3L477.4,410.8z"/>
</g>
<path class="st0" d="M1465.1,69v70.3h-5.5c-6.5-19.3-16.3-33.9-29.5-43.7c-13-10-20.9-15.2-36.4-15.2c-14.8,0-27.2,4.3-37,12.6
	c-10,8.5-16.9,20.1-21.1,35c-4.1,15-6.1,30.3-6.1,46.1c0,19.1,2.2,35.8,6.7,50.2c4.5,14.6,11.8,22.2,21.8,28.9
	c10,6.7,18.1,10,31.9,10c4.9,0,9.8-0.4,14.8-1.4c5.1-1.2,9.1-2.6,14.4-4.5v-50.8c0-7.9-0.6-13-1.6-15.4c-1.2-2.2-3.4-4.3-6.7-6.1
	c-3.3-2-7.5-3-12.4-3h-5.1v-5.3h96.8v5.3c-7.3,0.6-12.4,1.6-15.3,3.1c-3,1.4-5.1,3.9-6.7,7.5c-0.8,2-1.2,6.5-1.4,13.8l-0.4,49.2
	c-12.6,5.5-24.2,10.2-38,13.2c-13.8,2.8-28.2,5.1-42.9,5.1c-18.9,0-30.9-1.4-43.3-6.5c-12.6-5.1-23.4-9.8-33.1-18.1
	c-9.4-8.5-16.9-17.9-22.4-28.3c-6.7-13.6-10.2-28.5-10.2-45.5c0-29.9,10.6-55.1,31.7-75.8c20.9-20.7,47.5-30.9,79.3-30.9
	c14.6,0,27.6,3.7,41.1,8.9c9.7,3.7,15.4,5.5,17.1,5.5c2.8,0,5.1-1,7.5-3c2.4-2,4.5-5.7,6.5-11.4L1465.1,69L1465.1,69z"/>
<path class="st0" d="M1107.6,81.8c-18.7,0.2-32.7,9.1-42.3,26.8c-8.1,14.4-12,35.4-12,62.6c0,32.5,5.7,56.9,17.9,72.2
	c8.7,10.8,21.1,15.9,36.4,15.9v15.2h-0.2c-37.8,0-67.1-12-87.8-36c-16.3-18.9-24.6-41.3-24.6-67.3c0-29.1,10.6-53.5,31.9-72.8
	c21.3-19.5,47.5-28.7,78.6-27.6h2.2V81.8z M1108,81.8h-0.4v-11c32.5-0.8,59.2,8.5,79.7,27.4c20.9,19.5,31.3,43.7,31.3,72.8
	c0,25-7.9,46.9-23.4,65.9c-20.7,25-49.8,37.6-87.6,37.6v-15.2c10.4,0,19.5-2.8,26.4-7.5c8.9-5.9,14.6-15.6,19.5-28.7
	c4.9-13,8.3-29.7,8.3-50.8c0-25.2-2.5-43.9-7.7-56.3c-4.9-12.6-11.4-21.3-19.1-26.6C1127.1,84.4,1118,81.8,1108,81.8z"/>
<path class="st0" d="M890.2,85.1v78.5h4.3c13.6,0,18.9-3.9,25-12c6.1-7.9,10-19.5,11.6-35h6.1V221h-6.1c-1.2-11.4-3.9-20.7-7.9-28
	c-4.1-7.3-8.9-12.2-14.2-14.6c-5.3-2.6-8.7-3.7-18.9-3.7v58.5c0,11,0.6,17.7,1.6,20.1c1,2.6,2.8,4.5,5.5,6.1
	c2.8,1.6,7.1,2.4,13.4,2.4h12.8c19.9,0,25.6-4.3,37.6-13c12-8.5,20.3-18.3,25.6-36h5.9l-9.3,60h-175v-5.5h7.3c6.1,0,11.2-1,15-3
	c2.8-1.4,4.9-3.7,6.3-7.1c1.2-2.4,1.8-8.5,1.8-18.5V107.6c0-8.9-0.2-14.4-0.8-16.5c-1-3.3-3-6.1-5.9-7.9c-3.9-2.8-9.4-4.1-16.3-4.1
	h-7.3v-5.5h179.5v58.9H982c-3.2-14.4-7.3-24.6-13-30.9c-5.5-6.3-13.2-10.8-23.4-13.8c-5.9-1.8-16.9-2.6-33.3-2.6L890.2,85.1
	L890.2,85.1z"/>
<path class="st0" d="M657.5,73.5L768,197.2v-85.6c0-12-1.8-20.1-5.7-24.2c-5.3-5.7-11.6-8.5-24.2-8.3v-5.5h66.7V79
	c-9.4,1-11,2.6-14.2,4.1c-3.3,1.8-5.9,4.5-7.7,8.5c-1.8,3.7-2.8,10.4-2.8,19.9v165.8h-5.5L623.1,111.5v126.6c0,11.4,3,19.1,8.9,23.2
	c5.9,3.9,12.6,5.9,20.3,5.9h5.3v5.5H578v-5.5c12.4,0,20.9-2.4,25.8-6.7c4.7-4.3,7.3-11.8,7.3-22.4V97.5l-4.9-5.3
	c-4.7-5.3-8.9-8.7-12.4-10.4c-3.7-1.6-0.4-2.6-7.1-2.8v-5.5L657.5,73.5z"/>
<path class="st0" d="M1776.7,81.8c-18.7,0.2-32.7,9.1-42.3,26.8c-8.1,14.4-12,35.4-12,62.6c0,32.5,5.7,56.9,17.9,72.2
	c8.7,10.8,21.1,15.9,36.4,15.9v15.2h-0.2c-37.8,0-67.1-12-87.8-36c-16.3-18.9-24.6-41.3-24.6-67.3c0-29.1,10.6-53.5,31.9-72.8
	c21.3-19.5,47.4-28.7,78.6-27.6h2.2V81.8z M1777.1,81.8h-0.4v-11c32.5-0.8,59.2,8.5,79.7,27.4c21.1,19.5,31.5,43.7,31.5,72.8
	c0,25-7.9,46.9-23.4,65.9c-20.9,25-50,37.6-87.8,37.6v-15.2c10.4,0,19.5-2.8,26.4-7.5c8.9-5.9,14.6-15.6,19.5-28.7
	c4.9-13,8.3-29.7,8.3-50.8c0-25.2-2.6-43.9-7.7-56.3c-4.9-12.6-11.4-21.3-19.1-26.6C1796.2,84.4,1787.1,81.8,1777.1,81.8z"/>
<path class="st0" d="M1559.4,85.1v78.5h4.3c13.6,0,18.9-3.9,25-12c6.1-7.9,10-19.5,11.6-35h6.1V221h-6.1c-1.2-11.4-3.9-20.7-7.9-28
	c-4.1-7.3-8.9-12.2-14.2-14.6c-5.3-2.6-8.7-3.7-18.9-3.7v58.5c0,11,0.6,17.7,1.6,20.1c1,2.6,2.8,4.5,5.5,6.1
	c2.8,1.6,7.1,2.4,13.4,2.4h12.8c19.9,0,25.6-4.3,37.6-13c12-8.5,20.3-18.3,25.6-36h5.9l-9.2,60h-175v-5.5h7.3c6.1,0,11.2-1,15-3
	c2.8-1.4,4.9-3.7,6.3-7.1c1.2-2.4,1.8-8.5,1.8-18.5V107.6c0-8.9-0.2-14.4-0.8-16.5c-1-3.3-2.9-6.1-5.9-7.9
	c-3.9-2.8-9.4-4.1-16.3-4.1h-7.3v-5.5H1657v58.9h-5.9c-3.2-14.4-7.3-24.6-13-30.9c-5.5-6.3-13.2-10.8-23.4-13.8
	c-5.9-1.8-16.9-2.6-33.3-2.6L1559.4,85.1L1559.4,85.1z"/>
<path class="st0" d="M1246.2,152.5h1.2c11.2,0,20.3,8.9,20.3,19.5c0,10.6-9.1,19.3-20.3,19.3h-1.2c-11.2,0-20.3-8.7-20.3-19.3
	C1225.9,161.3,1234.9,152.5,1246.2,152.5z"/>
<path class="st0" d="M1165.1,406.3c0,21.8,0,43.7,0,65.5c0,3-0.9,3.6-3.7,3.5c-11.6-0.1-23.2,0-34.7,0c-3.9,0-3.9,0-3.9-3.7
	c0-22.9,0-45.8,0-68.8c-0.1-1.2-0.3-2.3-0.6-3.4c-0.8,0.8-1.6,1.6-2.2,2.5c-10.8,18.9-21.4,37.8-32.2,56.7
	c-2.1,3.7-4.5,7.2-7.2,10.5c-1.6,2-3.6,3.6-5.9,4.6c-2.3,1.1-4.8,1.5-7.4,1.4c-7.7,0-15.5,0-23.2,0c-7.3,0-11.5-3.6-12.7-10.7
	c-0.4-2.6-0.6-5.3-0.6-8c0-17.9,0-35.8,0-53.7c0-0.7,0-1.4,0-2.1c-0.1-0.3-0.3-0.6-0.5-0.9c-0.2,0.2-0.4,0.4-0.6,0.6
	c-0.5,0.7-1,1.5-1.4,2.3c-14.1,23.5-28.1,46.9-42.1,70.4c-0.3,0.8-0.9,1.4-1.6,1.9c-0.7,0.4-1.5,0.7-2.4,0.6c-14.4,0-28.7,0-43.1,0
	c-2.2,0-2.9-0.2-1.5-2.5c27.1-45.6,54.1-91.1,81.1-136.6c1.7-2.7,3.7-5.2,6-7.4c1.3-1.3,3-2.4,4.7-3c1.8-0.7,3.7-1,5.6-0.9
	c8.3,0.1,16.6,0,24.9,0c8.3,0,12.8,4.4,13,12.8c0,9.3,0,18.6,0,27.9v30c-0.1,0.8-0.1,1.7,0,2.5c0.2,0.7,0.5,1.4,0.8,2.1
	c0.6-0.3,1.3-0.8,1.8-1.3c0.6-0.8,1.1-1.6,1.5-2.5c10.7-18.9,21.2-37.9,32-56.8c2-3.4,4.3-6.7,6.9-9.7c1.4-1.6,3.1-3,5.1-3.8
	c2-0.9,4.1-1.3,6.2-1.1c8.2,0.1,16.4,0,24.8,0c7.4,0,11.1,3.1,12.4,10.4c0.4,2.7,0.5,5.3,0.5,8
	C1165.1,364.4,1165.1,385.3,1165.1,406.3z"/>
<path class="st0" d="M1436.7,475.1c-23,0-46,0.6-68.9-0.2c-21.4-0.8-37.5-10.9-45.9-31.3c-1.4-3.3-2.9-6.5-4.2-9.9
	c-1.3-3.4,0-6,3.8-6.1c11.5-0.1,23-0.1,34.5,0c0.7,0.1,1.4,0.4,2,0.8c0.6,0.4,1.1,1,1.5,1.7c0.5,1.5,1.5,2.8,2.8,3.8
	c1.3,1,2.8,1.5,4.4,1.6c1.4,0.2,2.8,0.3,4.1,0.3h98.3c5.1,0,6-1.1,4-5.8c-1.6-3.7-3.6-7.2-5.5-10.8c-0.6-1.2-1.6-2.2-2.7-2.8
	c-1.2-0.6-2.5-0.9-3.8-0.7c-35.5,0-70.9,0-106.4,0c-4.5,0.1-8.9-0.4-13.2-1.5c-6.9-2-13.1-6.1-17.5-11.8c-4.5-5.7-7-12.6-7.2-19.8
	c-0.2-8.6-0.2-17.2,0-25.8c0.4-8.4,4-16.3,10.1-22.2s14-9.2,22.4-9.5c29.6,0,59.2,0,88.8,0c4.9-0.1,9.7,1.1,14,3.5
	c4.3,2.4,7.8,5.9,10.2,10.1c4.8,7.7,9.1,15.7,13.6,23.6c1.5,2.7,1,3.8-2.3,3.8c-12.3,0-24.6,0-36.8,0c-1.2,0.1-2.4-0.1-3.4-0.7
	c-1-0.6-1.9-1.5-2.4-2.6c-1.1-2.5-3.4-2.3-5.7-2.3h-51.1c-2.8,0-5.6,0-8.3,0c-0.8-0.1-1.6,0-2.3,0.3c-0.8,0.3-1.4,0.7-2,1.3
	c-0.6,0.6-1,1.2-1.3,2c-0.3,0.8-0.4,1.6-0.3,2.3c0,2.5,0,4.7,0,7.1c-0.1,0.6,0,1.2,0.2,1.8c0.2,0.6,0.5,1.1,0.9,1.6s0.9,0.8,1.4,1.1
	c0.6,0.3,1.1,0.4,1.8,0.5c1.6,0.2,3.2,0.3,4.7,0.2c32,0,64,0.3,96,0c6.9-0.3,13.7,1.3,19.7,4.6c6,3.3,11.1,8.1,14.6,14
	c9.2,13.9,17.8,28.2,26.3,42.6c8.8,14.9-2.2,35.1-19.6,35.3C1482.9,475.6,1459.8,475.2,1436.7,475.1L1436.7,475.1z"/>
<path class="st0" d="M1190.2,325h15.2c6.4,0,7.3,0.6,9.4,6.7c5.2,14.7,10.5,29.4,15.7,44.1c3.7,10.5,7.4,21,11.2,31.5
	c0.5,1.1,1.2,2.2,1.9,3.1c0.9-0.9,1.7-2,2.3-3.1c9.6-25.1,19.1-50.2,28.6-75.3c2.5-6.6,3.1-7,10.2-7h30.9c5.3,0,6.3,1.4,4.4,6.5
	c-8.8,23.3-17.7,46.5-26.6,69.7c-7.8,20.5-15.7,41.1-23.6,61.7c-0.8,2.1-1.7,4.2-2.8,6.2c-1,1.8-2.4,3.4-4.2,4.4
	c-1.8,1.1-3.8,1.6-5.9,1.6c-8.6,0-17.2,0.1-25.8,0c-6.3,0-9.9-3.9-12.1-9.3c-2.9-7.4-5.6-14.9-8.3-22.5
	c-13.5-36.7-27-73.4-40.5-110.1c-2.6-7.5-2.1-8.3,5.9-8.3H1190.2z"/>
</svg>
