<svg xmlns="http://www.w3.org/2000/svg" viewBox="0 0 336.35 113.65">
  <g id="Calque_2" data-name="Calque 2">
    <g id="lastplayed-fr">
      <g>
        <path d="M20.92,93a23,23,0,0,1-2.46,11,17,17,0,0,1-6.74,7,21.47,21.47,0,0,1-9.79,2.61v-6.92a12.57,12.57,0,0,0,8.5-3.64q3.35-3.34,3.35-10.27V49.46h7.14Z" fill="#fff"/>
        <path d="M48.67,103.42a18.15,18.15,0,0,1-9-2.1,14.64,14.64,0,0,1-5.78-5.74,16.89,16.89,0,0,1-2-8.35,15.18,15.18,0,0,1,2.28-8.17,17.08,17.08,0,0,1,6.11-5.89A16.7,16.7,0,0,1,48.82,71a14.54,14.54,0,0,1,10,3.53,17.92,17.92,0,0,1,5.38,9.72L39.1,93,37.48,89l20.62-7.5-1.48,1a10.21,10.21,0,0,0-2.94-4.23,7.89,7.89,0,0,0-5.37-1.8,9.32,9.32,0,0,0-5,1.36,9.54,9.54,0,0,0-3.46,3.72,11.2,11.2,0,0,0-1.25,5.37,11.34,11.34,0,0,0,1.32,5.56,9.81,9.81,0,0,0,3.65,3.75,10.16,10.16,0,0,0,5.26,1.36,10.55,10.55,0,0,0,3.87-.73,15.4,15.4,0,0,0,3.49-1.92L59.35,100a20.83,20.83,0,0,1-5.12,2.5A17.26,17.26,0,0,1,48.67,103.42Z" fill="#fff"/>
        <path d="M82.46,103.86a9.49,9.49,0,0,1-6.81-2.54,9.14,9.14,0,0,1-2.83-6.58V72.21h6.84v20.1a6.76,6.76,0,0,0,1.44,4A5.15,5.15,0,0,0,85.18,98a7.5,7.5,0,0,0,4.61-1.51,10.8,10.8,0,0,0,3.27-4.12,13.47,13.47,0,0,0,1.25-5.92V72.21h6.85v30.48H94.9l-.59-7.51.37,1.32A10.46,10.46,0,0,1,92,100.29a13.41,13.41,0,0,1-4.23,2.62A14.48,14.48,0,0,1,82.46,103.86Z" fill="#fff"/>
        <path d="M139.88,102.69h-8.25L108.45,72.21h8.46ZM123.76,91.35l-8,11.34h-6.92l11.63-15.9Zm.73-7.8,7.29-11.34h6.92L127,88.55Z" fill="#fff"/>
        <path d="M183.75,93a23,23,0,0,1-2.46,11,17,17,0,0,1-6.74,7,21.47,21.47,0,0,1-9.79,2.61v-6.92a12.57,12.57,0,0,0,8.5-3.64q3.35-3.34,3.35-10.27V49.46h7.14Z" fill="#fff"/>
        <path d="M194.72,87.15a15.73,15.73,0,0,1,8.17-14.06,18.93,18.93,0,0,1,17.45,0,15.11,15.11,0,0,1,5.81,5.82,16.5,16.5,0,0,1,2.06,8.24,16.68,16.68,0,0,1-2.06,8.28,14.92,14.92,0,0,1-5.85,5.86,17.67,17.67,0,0,1-8.8,2.13,18.08,18.08,0,0,1-8.65-2,15.06,15.06,0,0,1-6-5.67A16.43,16.43,0,0,1,194.72,87.15Zm6.84.08a10.84,10.84,0,0,0,1.33,5.33,10.09,10.09,0,0,0,3.57,3.79,9.15,9.15,0,0,0,5,1.4,9.44,9.44,0,0,0,5.12-1.4A9.59,9.59,0,0,0,220,92.56a12,12,0,0,0,0-10.67,10,10,0,0,0-3.49-3.83,9.38,9.38,0,0,0-5.12-1.43,9,9,0,0,0-5,1.47A10.51,10.51,0,0,0,202.85,82,10.93,10.93,0,0,0,201.56,87.23Z" fill="#fff"/>
        <path d="M247.13,103.86a9.49,9.49,0,0,1-6.81-2.54,9.14,9.14,0,0,1-2.83-6.58V72.21h6.84v20.1a6.76,6.76,0,0,0,1.44,4A5.15,5.15,0,0,0,249.85,98a7.52,7.52,0,0,0,4.61-1.51,10.8,10.8,0,0,0,3.27-4.12A13.61,13.61,0,0,0,259,86.42V72.21h6.85v30.48h-6.26L259,95.18l.37,1.32a10.46,10.46,0,0,1-2.69,3.79,13.41,13.41,0,0,1-4.23,2.62A14.51,14.51,0,0,1,247.13,103.86Z" fill="#fff"/>
        <path d="M291.81,103.42a18.15,18.15,0,0,1-9-2.1,14.64,14.64,0,0,1-5.78-5.74,16.89,16.89,0,0,1-2-8.35,15.18,15.18,0,0,1,2.28-8.17,17.08,17.08,0,0,1,6.11-5.89A16.7,16.7,0,0,1,292,71a14.54,14.54,0,0,1,10,3.53,17.92,17.92,0,0,1,5.38,9.72L282.24,93,280.62,89l20.62-7.5-1.48,1a10.12,10.12,0,0,0-2.94-4.23,7.89,7.89,0,0,0-5.37-1.8,9.32,9.32,0,0,0-5,1.36A9.54,9.54,0,0,0,283,81.49a12.27,12.27,0,0,0,.07,10.93,9.81,9.81,0,0,0,3.65,3.75A10.16,10.16,0,0,0,292,97.53a10.55,10.55,0,0,0,3.87-.73,15.4,15.4,0,0,0,3.49-1.92l3.17,5.08a20.83,20.83,0,0,1-5.12,2.5A17.26,17.26,0,0,1,291.81,103.42Zm8-46.74-9.35,9.86h-4.34l6.11-9.86Z" fill="#fff"/>
        <path d="M324.5,103.27a17.91,17.91,0,0,1-6.3-1.14,12.29,12.29,0,0,1-5-3.42l2.87-4A14.58,14.58,0,0,0,320,97.5a9.7,9.7,0,0,0,4,.92,9.9,9.9,0,0,0,2.73-.37,4.35,4.35,0,0,0,2-1.22,3.75,3.75,0,0,0-.29-4.89,8.24,8.24,0,0,0-2.73-1.55c-1.1-.39-2.27-.76-3.49-1.1a13.21,13.21,0,0,1-5.75-3.46,7.76,7.76,0,0,1-2-5.38,8.85,8.85,0,0,1,1.21-4.52,9.21,9.21,0,0,1,3.61-3.43,12.11,12.11,0,0,1,5.92-1.32,19.39,19.39,0,0,1,5.67.77,14.25,14.25,0,0,1,4.71,2.54l-2.72,4.27a8,8,0,0,0-3.17-2.06,11.69,11.69,0,0,0-3.31-.74,5.85,5.85,0,0,0-2.39.37,4.92,4.92,0,0,0-1.88,1.25,2.76,2.76,0,0,0-.73,1.92,3.24,3.24,0,0,0,1,2.5,7.21,7.21,0,0,0,2.68,1.51c1.11.37,2.2.75,3.28,1.14a15.9,15.9,0,0,1,4.05,1.77,9,9,0,0,1,2.83,2.72,7.22,7.22,0,0,1,1.07,4,10.16,10.16,0,0,1-1.29,5,9.16,9.16,0,0,1-3.9,3.68A14.32,14.32,0,0,1,324.5,103.27Z" fill="#fff"/>
      </g>
      <g>
        <path d="M0,40.85V.74H9.55a23.82,23.82,0,0,1,9.83,1.84A18.68,18.68,0,0,1,26,7.42,19.84,19.84,0,0,1,29.72,14a22.11,22.11,0,0,1,1.19,7,20.45,20.45,0,0,1-1.59,8.21A19.05,19.05,0,0,1,18.78,39.46a19.65,19.65,0,0,1-7.36,1.39ZM1.93,39H10.8a19.75,19.75,0,0,0,7-1.25,16.7,16.7,0,0,0,9.66-9.32,19.12,19.12,0,0,0,1.42-7.56,20,20,0,0,0-1.13-6.59,17.5,17.5,0,0,0-3.5-5.88,16.53,16.53,0,0,0-6-4.18A22.43,22.43,0,0,0,9.6,2.67H1.93Z" fill="#fff"/>
        <path d="M47.22.74H71.54V2.61H49.15V19.72H69.32v1.82H49.15V39H72.33v1.87H47.22Z" fill="#fff"/>
        <path d="M97.68.74a14.81,14.81,0,0,1,4.11.62,12.76,12.76,0,0,1,3.95,1.94,9.9,9.9,0,0,1,3,3.38,10.4,10.4,0,0,1,1.13,5.08,13.47,13.47,0,0,1-.68,4.29A10,10,0,0,1,107,19.77a10.67,10.67,0,0,1-3.9,2.62,15.71,15.71,0,0,1-5.85,1H90.91v17.5H89V.74Zm-.63,20.8a13.66,13.66,0,0,0,5.28-.89,8.37,8.37,0,0,0,3.3-2.3,8.48,8.48,0,0,0,1.7-3.15,11.63,11.63,0,0,0,.52-3.38,9.11,9.11,0,0,0-.74-3.64A8.93,8.93,0,0,0,105,5.23a9.2,9.2,0,0,0-3.15-1.93,11.13,11.13,0,0,0-4-.69h-7V21.54Zm5.51.62,11.31,18.69H111.6L100.29,22.16Z" fill="#fff"/>
        <path d="M163.36,41.71,131.54,4.49l.51-.57.06,36.93h-1.93V0h.11l32,37.56-.68.11V.74h1.82v41Z" fill="#fff"/>
        <path d="M182.28.74h1.93V40.85h-1.93Z" fill="#fff"/>
        <path d="M203.08.74H227.4V2.61H205V19.72h20.17v1.82H205V39h23.18v1.87H203.08Z" fill="#fff"/>
        <path d="M253.54.74a14.81,14.81,0,0,1,4.11.62,12.76,12.76,0,0,1,4,1.94,9.9,9.9,0,0,1,3,3.38,10.4,10.4,0,0,1,1.13,5.08,13.47,13.47,0,0,1-.68,4.29,10,10,0,0,1-2.18,3.72,10.67,10.67,0,0,1-3.9,2.62,15.71,15.71,0,0,1-5.85,1h-6.31v17.5h-1.93V.74Zm-.63,20.8a13.66,13.66,0,0,0,5.28-.89,8.37,8.37,0,0,0,3.3-2.3,8.48,8.48,0,0,0,1.7-3.15,11.63,11.63,0,0,0,.52-3.38A9.11,9.11,0,0,0,263,8.18a8.78,8.78,0,0,0-2.08-2.95,9.2,9.2,0,0,0-3.15-1.93,11.13,11.13,0,0,0-4-.69h-7V21.54Zm5.51.62,11.31,18.69h-2.27L256.15,22.16Z" fill="#fff"/>
        <path d="M305.41,4.43a25.5,25.5,0,0,0-4.2-1.5A19,19,0,0,0,296,2.22a10.1,10.1,0,0,0-6.71,2.1,6.63,6.63,0,0,0-2.5,5.28,5.71,5.71,0,0,0,1.4,4,11.21,11.21,0,0,0,3.66,2.64c1.51.72,3.13,1.42,4.83,2.11,1.36.49,2.7,1,4,1.64a18.43,18.43,0,0,1,3.58,2.19,9.25,9.25,0,0,1,2.58,3.21,10.53,10.53,0,0,1,1,4.72A10.94,10.94,0,0,1,306.27,36a10.81,10.81,0,0,1-4.38,3.92,14,14,0,0,1-6.36,1.39,18.54,18.54,0,0,1-5.63-.8,22.48,22.48,0,0,1-4.23-1.76q-1.74-1-2.64-1.53l.91-1.65a22,22,0,0,0,3,1.82A24,24,0,0,0,290.92,39a14.7,14.7,0,0,0,4.32.65,12.71,12.71,0,0,0,5.06-1.05,9.71,9.71,0,0,0,4-3.15,8.61,8.61,0,0,0,1.56-5.28A7.93,7.93,0,0,0,304.36,25,11.12,11.12,0,0,0,300.5,22q-2.36-1.16-5-2.13-1.93-.73-3.84-1.56a19.47,19.47,0,0,1-3.46-1.93,8.39,8.39,0,0,1-2.48-2.7,7.62,7.62,0,0,1-.91-3.81A8.3,8.3,0,0,1,286.29,5a9.86,9.86,0,0,1,3.92-3.24,13.74,13.74,0,0,1,5.6-1.22,23.88,23.88,0,0,1,5.4.68,22.74,22.74,0,0,1,5,1.76Z" fill="#fff"/>
      </g>
    </g>
  </g>
</svg>
