<svg xmlns="http://www.w3.org/2000/svg" viewBox="0 0 383.82 106.91">
  <g id="Calque_2" data-name="Calque 2">
    <g id="neverPlayed-fr">
      <g>
        <g>
          <path d="M17.46,88A21.15,21.15,0,0,1,15.2,98.11,15.72,15.72,0,0,1,9,104.5a19.76,19.76,0,0,1-9,2.41v-6.37a11.56,11.56,0,0,0,7.82-3.35q3.07-3.07,3.08-9.44V47.88h6.56Z" fill="#fff"/>
          <path d="M41.63,97.5a15.06,15.06,0,0,1-7.14-1.7,12.34,12.34,0,0,1-5.08-5,16,16,0,0,1-1.86-8,16,16,0,0,1,2-8.09,13.65,13.65,0,0,1,5.25-5.25A14.56,14.56,0,0,1,42,67.64a11.69,11.69,0,0,1,6.63,1.8,12.69,12.69,0,0,1,4.13,4.23l-.4,1.08.61-6h5.82v28h-6.3V89.51l.68,1.62A6.61,6.61,0,0,1,52,92.86,14,14,0,0,1,49.52,95,14.9,14.9,0,0,1,46,96.79,12.93,12.93,0,0,1,41.63,97.5Zm1.69-5.21a10.15,10.15,0,0,0,4.27-.88,8.53,8.53,0,0,0,3.15-2.48,9.1,9.1,0,0,0,1.72-3.82V79.63a8.63,8.63,0,0,0-1.89-3.56,9.71,9.71,0,0,0-3.25-2.37,10.3,10.3,0,0,0-4.2-.84,8.92,8.92,0,0,0-4.6,1.22,9.06,9.06,0,0,0-3.35,3.38,9.92,9.92,0,0,0-1.26,5.08A9.76,9.76,0,0,0,38.65,91,9,9,0,0,0,43.32,92.29Z" fill="#fff"/>
          <path d="M75.27,68.79l.55,6.3-.27-.54a11.91,11.91,0,0,1,11-6.84,11,11,0,0,1,4.2.75,7.67,7.67,0,0,1,3,2.13A6.8,6.8,0,0,1,95.31,74l-.34.2a12.12,12.12,0,0,1,4.51-4.77,11.56,11.56,0,0,1,6-1.73,9,9,0,0,1,6.54,2.34,8.3,8.3,0,0,1,2.47,6.06V96.82h-6.3V78.34a6.64,6.64,0,0,0-1-3.62,4.11,4.11,0,0,0-3.42-1.59,6.9,6.9,0,0,0-4.36,1.49,10,10,0,0,0-3,3.82,12.58,12.58,0,0,0-1.16,5V96.82H89V78.34a6.43,6.43,0,0,0-1.12-3.62,4.32,4.32,0,0,0-3.48-1.59A6.87,6.87,0,0,0,80,74.62a9.85,9.85,0,0,0-3,3.86,12.38,12.38,0,0,0-1,5.07V96.82H69.66v-28Z" fill="#fff"/>
          <path d="M137.15,97.5A15.12,15.12,0,0,1,130,95.8a12.31,12.31,0,0,1-5.07-5,16,16,0,0,1-1.86-8,16,16,0,0,1,2-8.09,13.65,13.65,0,0,1,5.25-5.25,14.52,14.52,0,0,1,7.2-1.83,11.74,11.74,0,0,1,6.64,1.8,12.88,12.88,0,0,1,4.13,4.23l-.41,1.08.61-6h5.82v28H148V89.51l.67,1.62a6.52,6.52,0,0,1-1.18,1.73A13.71,13.71,0,0,1,145,95a14.82,14.82,0,0,1-3.48,1.8A13,13,0,0,1,137.15,97.5Zm1.69-5.21a10.08,10.08,0,0,0,4.26-.88,8.37,8.37,0,0,0,3.15-2.48A9.12,9.12,0,0,0,148,85.11V79.63a8.65,8.65,0,0,0-1.9-3.56,9.51,9.51,0,0,0-3.25-2.37,10.21,10.21,0,0,0-4.19-.84A9,9,0,0,0,134,74.08a9.13,9.13,0,0,0-3.35,3.38,10,10,0,0,0-1.25,5.08,9.71,9.71,0,0,0,1.29,4.94A9.48,9.48,0,0,0,134.17,91,9,9,0,0,0,138.84,92.29Z" fill="#fff"/>
          <path d="M164.7,58.64a3.15,3.15,0,0,1,1.18-2.5,3.91,3.91,0,0,1,2.61-1,3.67,3.67,0,0,1,2.54,1,3.42,3.42,0,0,1,0,5,3.77,3.77,0,0,1-2.54,1,4,4,0,0,1-2.61-1A3.19,3.19,0,0,1,164.7,58.64Zm.47,10.15h6.3v28h-6.3Z" fill="#fff"/>
          <path d="M190.22,97.36a16.39,16.39,0,0,1-5.79-1,11.35,11.35,0,0,1-4.64-3.14l2.64-3.66a13.29,13.29,0,0,0,3.62,2.54,9,9,0,0,0,3.69.84,9.07,9.07,0,0,0,2.51-.33,4,4,0,0,0,1.86-1.12,3.06,3.06,0,0,0,.71-2.13,3,3,0,0,0-1-2.37,7.3,7.3,0,0,0-2.51-1.42q-1.52-.54-3.21-1a12.14,12.14,0,0,1-5.28-3.18A7.13,7.13,0,0,1,181,76.38a8.15,8.15,0,0,1,1.12-4.17,8.41,8.41,0,0,1,3.32-3.14,11,11,0,0,1,5.45-1.22,17.51,17.51,0,0,1,5.21.71,13.06,13.06,0,0,1,4.33,2.33l-2.5,3.93a7.51,7.51,0,0,0-2.92-1.9,10.62,10.62,0,0,0-3-.67,5.11,5.11,0,0,0-2.2.34,4.42,4.42,0,0,0-1.73,1.15,2.51,2.51,0,0,0-.67,1.76,3,3,0,0,0,.94,2.3,6.68,6.68,0,0,0,2.47,1.39c1,.33,2,.69,3,1a14.48,14.48,0,0,1,3.72,1.62,8.56,8.56,0,0,1,2.61,2.5,6.7,6.7,0,0,1,1,3.73,9.36,9.36,0,0,1-1.19,4.63,8.31,8.31,0,0,1-3.59,3.39A13.24,13.24,0,0,1,190.22,97.36Z" fill="#fff"/>
          <path d="M243.49,88a21.15,21.15,0,0,1-2.26,10.16,15.72,15.72,0,0,1-6.2,6.39,19.79,19.79,0,0,1-9,2.41v-6.37a11.56,11.56,0,0,0,7.82-3.35q3.08-3.07,3.08-9.44V47.88h6.56Z" fill="#fff"/>
          <path d="M253.58,82.54a14.44,14.44,0,0,1,7.51-12.93,17.33,17.33,0,0,1,16.05,0A13.8,13.8,0,0,1,282.48,75a15.16,15.16,0,0,1,1.9,7.58,15.35,15.35,0,0,1-1.9,7.61,13.58,13.58,0,0,1-5.38,5.38,16.18,16.18,0,0,1-8.09,2,16.6,16.6,0,0,1-7.95-1.86,13.93,13.93,0,0,1-5.49-5.22A15.1,15.1,0,0,1,253.58,82.54Zm6.29.06a10,10,0,0,0,1.22,4.91A9.36,9.36,0,0,0,264.38,91a8.4,8.4,0,0,0,4.56,1.29A8.72,8.72,0,0,0,273.65,91a8.86,8.86,0,0,0,3.21-3.49,11,11,0,0,0,0-9.81,9.08,9.08,0,0,0-3.21-3.52,8.57,8.57,0,0,0-4.71-1.32,8.26,8.26,0,0,0-4.63,1.35,9.65,9.65,0,0,0-3.25,3.55A10.06,10.06,0,0,0,259.87,82.6Z" fill="#fff"/>
          <path d="M301.77,97.9a8.79,8.79,0,0,1-6.26-2.33,8.44,8.44,0,0,1-2.6-6.06V68.79h6.29V87.28A6.22,6.22,0,0,0,300.52,91a4.8,4.8,0,0,0,3.76,1.49,6.86,6.86,0,0,0,4.23-1.39,9.91,9.91,0,0,0,3-3.79,12.42,12.42,0,0,0,1.15-5.45V68.79H319v28h-5.75l-.55-6.9.34,1.21a9.75,9.75,0,0,1-2.47,3.49,12.13,12.13,0,0,1-3.89,2.4A13.11,13.11,0,0,1,301.77,97.9Z" fill="#fff"/>
          <path d="M342.87,97.5a16.73,16.73,0,0,1-8.26-1.93,13.51,13.51,0,0,1-5.32-5.28,15.6,15.6,0,0,1-1.86-7.69,14,14,0,0,1,2.1-7.51,15.79,15.79,0,0,1,5.62-5.42,15.43,15.43,0,0,1,7.85-2,13.39,13.39,0,0,1,9.21,3.25,16.49,16.49,0,0,1,4.94,8.94L334.07,88l-1.49-3.72,18.95-6.91-1.35.88a9.42,9.42,0,0,0-2.71-3.89,7.27,7.27,0,0,0-4.94-1.66,8.58,8.58,0,0,0-4.61,1.26,8.78,8.78,0,0,0-3.18,3.41,11.27,11.27,0,0,0,.07,10.06,9,9,0,0,0,3.35,3.45A9.34,9.34,0,0,0,343,92.08a9.73,9.73,0,0,0,3.56-.67,14.34,14.34,0,0,0,3.21-1.77l2.91,4.68a19.94,19.94,0,0,1-4.7,2.3A16.16,16.16,0,0,1,342.87,97.5Zm7.37-43-8.59,9.07h-4l5.62-9.07Z" fill="#fff"/>
          <path d="M372.92,97.36a16.39,16.39,0,0,1-5.79-1,11.25,11.25,0,0,1-4.63-3.14l2.64-3.66a13.14,13.14,0,0,0,3.62,2.54,8.91,8.91,0,0,0,3.69.84,9.05,9.05,0,0,0,2.5-.33,4,4,0,0,0,1.86-1.12,3.44,3.44,0,0,0-.27-4.5,7.35,7.35,0,0,0-2.5-1.42c-1-.36-2.09-.7-3.22-1a12.14,12.14,0,0,1-5.28-3.18,7.13,7.13,0,0,1-1.83-4.94,8.25,8.25,0,0,1,1.12-4.17,8.47,8.47,0,0,1,3.32-3.14,11,11,0,0,1,5.45-1.22,17.46,17.46,0,0,1,5.21.71,13.06,13.06,0,0,1,4.33,2.33l-2.5,3.93a7.55,7.55,0,0,0-2.91-1.9,10.75,10.75,0,0,0-3.05-.67,5.11,5.11,0,0,0-2.2.34,4.42,4.42,0,0,0-1.73,1.15,2.51,2.51,0,0,0-.67,1.76,3,3,0,0,0,.94,2.3,6.73,6.73,0,0,0,2.48,1.39c1,.33,2,.69,3,1a14.33,14.33,0,0,1,3.72,1.62,8.56,8.56,0,0,1,2.61,2.5,6.7,6.7,0,0,1,1,3.73,9.36,9.36,0,0,1-1.19,4.63,8.34,8.34,0,0,1-3.58,3.39A13.32,13.32,0,0,1,372.92,97.36Z" fill="#fff"/>
        </g>
        <g>
          <path d="M102.21,32.36a15.55,15.55,0,0,1-1.44,7,10.44,10.44,0,0,1-3.9,4.38,11.2,11.2,0,0,1-5.5,1.6V43.63a9,9,0,0,0,6.49-3.15c1.72-2,2.59-4.72,2.59-8.28V0h1.76Z" fill="#fff"/>
          <path d="M125.28,0h22.86V1.76h-21V17.84h19v1.71h-19V35.94h21.79V37.7h-23.6Z" fill="#fff"/>
          <path d="M171.58,25.15a12.26,12.26,0,0,0,1.39,6A9.54,9.54,0,0,0,176.79,35a11.28,11.28,0,0,0,5.52,1.34A11.55,11.55,0,0,0,187.92,35a9.66,9.66,0,0,0,3.87-3.84,12,12,0,0,0,1.42-6V0H195V25.31a13.5,13.5,0,0,1-1.68,7,11.26,11.26,0,0,1-4.54,4.36,13.74,13.74,0,0,1-6.44,1.49,13.55,13.55,0,0,1-6.4-1.49,11.08,11.08,0,0,1-4.49-4.36,13.7,13.7,0,0,1-1.65-7V0h1.81Z" fill="#fff"/>
          <path d="M214.2,37.7,226.8,18l1.07,1.44L216.39,37.7ZM214.73,0H217l24.52,37.7h-2.25ZM227.6,17.41,238.6,0h2.14l-12,18.8Z" fill="#fff"/>
        </g>
      </g>
    </g>
  </g>
</svg>
