<?xml version="1.0" encoding="UTF-8"?>
<svg id="Calque_2" data-name="Calque 2" xmlns="http://www.w3.org/2000/svg" viewBox="0 0 271.16 81.48">
  <g id="svg19">
    <g>
      <g>
        <path d="m120.04,5.95c-.92-.45-2.06-.86-3.4-1.25-1.34-.39-2.68-.58-4.02-.58-2.09,0-3.75.52-5.01,1.56s-1.88,2.35-1.88,3.93c0,1.19.36,2.18,1.07,2.97.72.79,1.65,1.46,2.82,2.01s2.4,1.08,3.71,1.59c1.04.39,2.08.82,3.11,1.3,1.03.48,1.96,1.06,2.79,1.74.83.69,1.5,1.54,1.99,2.55s.74,2.26.74,3.75c0,1.76-.42,3.31-1.25,4.67-.83,1.36-2,2.41-3.49,3.15-1.49.74-3.22,1.12-5.19,1.12-1.58,0-3.02-.19-4.31-.58-1.3-.39-2.43-.84-3.4-1.36-.97-.52-1.74-.96-2.3-1.32l1.03-1.79c.65.48,1.45.95,2.39,1.43s1.96.88,3.06,1.21,2.21.49,3.31.49c1.28,0,2.53-.25,3.73-.76,1.21-.51,2.21-1.27,2.99-2.3.79-1.03,1.18-2.33,1.18-3.91s-.37-2.75-1.12-3.69c-.75-.94-1.7-1.71-2.86-2.3-1.16-.6-2.4-1.13-3.71-1.61-1.01-.39-2.03-.8-3.04-1.23-1.01-.43-1.94-.95-2.77-1.56-.83-.61-1.5-1.35-1.99-2.21-.49-.86-.74-1.91-.74-3.13,0-1.52.39-2.85,1.16-3.98.77-1.13,1.82-2.02,3.15-2.66,1.33-.64,2.84-.98,4.54-1.01,1.49,0,3,.19,4.54.58,1.53.39,2.87.88,4,1.48l-.85,1.7Z" style="fill: #fff; stroke-width: 0px;"/>
        <path d="m130.81,8.95h2.15v7.91h5.41v1.7h-5.41v15.55h-2.15v-15.55h-3.71v-1.7h3.71v-7.91Z" style="fill: #fff; stroke-width: 0px;"/>
        <path d="m145.43,16.64l.22,5.36-.27-.67c.39-1.07,1-2,1.83-2.77.83-.78,1.77-1.37,2.79-1.79,1.03-.42,2.02-.62,2.97-.62l-.09,2.06c-1.34,0-2.56.3-3.64.89-1.09.6-1.95,1.39-2.59,2.39-.64,1-.96,2.12-.96,3.37v9.25h-2.1v-17.48h1.83Z" style="fill: #fff; stroke-width: 0px;"/>
        <path d="m165.9,34.47c-1.67,0-3.18-.38-4.54-1.14s-2.43-1.82-3.22-3.2c-.79-1.37-1.18-2.96-1.18-4.78,0-1.94.42-3.6,1.25-4.98.83-1.39,1.97-2.44,3.4-3.17,1.43-.73,3.05-1.1,4.87-1.1,1.55,0,3.02.46,4.4,1.39,1.39.92,2.38,2.09,2.97,3.49l-.31.63.27-4.96h1.88v17.48h-2.1v-5.41l.45.8c-.21.6-.57,1.18-1.07,1.77-.51.58-1.12,1.12-1.85,1.61-.73.49-1.54.88-2.41,1.16-.88.28-1.81.42-2.79.42Zm.45-1.79c1.31,0,2.5-.28,3.55-.83,1.06-.55,1.91-1.32,2.57-2.3.66-.98,1.03-2.12,1.12-3.4v-2.5c-.24-1.1-.71-2.09-1.41-2.95-.7-.86-1.56-1.55-2.57-2.06-1.01-.51-2.12-.76-3.31-.76-1.31,0-2.52.31-3.62.92-1.1.61-1.98,1.47-2.64,2.57-.66,1.1-.98,2.4-.98,3.89,0,1.37.33,2.61.98,3.73.65,1.12,1.54,2.01,2.66,2.68,1.12.67,2.33,1.01,3.64,1.01Z" style="fill: #fff; stroke-width: 0px;"/>
        <path d="m185.39,8.95h2.15v7.91h5.41v1.7h-5.41v15.55h-2.15v-15.55h-3.71v-1.7h3.71v-7.91Z" style="fill: #fff; stroke-width: 0px;"/>
        <path d="m205.77,34.47c-1.82,0-3.43-.4-4.83-1.21s-2.5-1.9-3.29-3.29c-.79-1.39-1.18-2.94-1.18-4.67s.42-3.25,1.25-4.65c.83-1.4,1.96-2.52,3.37-3.35s2.99-1.25,4.72-1.25c2.09,0,3.84.61,5.25,1.83s2.44,2.82,3.06,4.78l-15.29,5.9-.63-1.52,13.99-5.45-.45.62c-.51-1.19-1.27-2.22-2.3-3.08-1.03-.86-2.29-1.3-3.78-1.3-1.34,0-2.55.33-3.62.98-1.07.66-1.93,1.54-2.57,2.64-.64,1.1-.96,2.36-.96,3.75,0,1.31.3,2.53.92,3.67.61,1.13,1.47,2.04,2.57,2.73,1.1.69,2.37,1.03,3.8,1.03.95,0,1.87-.18,2.75-.54s1.66-.82,2.35-1.39l1.07,1.52c-.83.66-1.8,1.19-2.88,1.61s-2.2.63-3.33.63Zm3.08-27.44l-4.74,5.94h-1.52l3.89-5.94h2.37Z" style="fill: #fff; stroke-width: 0px;"/>
        <path d="m227.72,42.65c-.98,0-1.92-.11-2.82-.34-.89-.22-1.77-.6-2.64-1.14-.87-.54-1.76-1.24-2.68-2.1l1.25-1.43c1.28,1.22,2.47,2.05,3.58,2.48,1.1.43,2.17.65,3.22.65,1.82,0,3.26-.29,4.34-.87,1.07-.58,1.85-1.36,2.32-2.32.48-.97.73-2.05.76-3.24l.04-5.68.49.54c-.6,1.55-1.66,2.82-3.2,3.8-1.54.98-3.27,1.48-5.21,1.48-1.64,0-3.14-.41-4.49-1.23-1.36-.82-2.44-1.92-3.24-3.31s-1.21-2.93-1.21-4.63c0-1.82.42-3.41,1.25-4.78.83-1.37,1.97-2.45,3.4-3.24,1.43-.79,3.01-1.18,4.74-1.18,1.61,0,3.14.42,4.58,1.25s2.5,1.94,3.15,3.31l-.27.98.22-5.01h1.88v17.74c0,1.43-.32,2.78-.96,4.04-.64,1.27-1.65,2.29-3.04,3.06-1.38.77-3.21,1.16-5.47,1.16Zm-7.38-17.39c0,1.37.33,2.61.98,3.73.66,1.12,1.54,2.01,2.66,2.68,1.12.67,2.36,1.01,3.73,1.01s2.5-.29,3.58-.87c1.07-.58,1.95-1.36,2.64-2.35.68-.98,1.07-2.04,1.16-3.17v-2.59c-.24-1.13-.71-2.13-1.41-3-.7-.86-1.56-1.55-2.59-2.06s-2.15-.76-3.37-.76c-1.37,0-2.62.31-3.73.94-1.12.63-2,1.49-2.66,2.59s-.98,2.38-.98,3.84Z" style="fill: #fff; stroke-width: 0px;"/>
        <path d="m244.7,10.2c0-.42.16-.77.49-1.05s.69-.42,1.07-.42c.42,0,.77.14,1.07.42s.45.63.45,1.05c0,.45-.15.81-.45,1.1s-.66.42-1.07.42c-.39,0-.75-.15-1.07-.45s-.49-.66-.49-1.07Zm.45,6.44h2.1v17.48h-2.1v-17.48Z" style="fill: #fff; stroke-width: 0px;"/>
        <path d="m262.8,34.47c-1.82,0-3.43-.4-4.83-1.21s-2.5-1.9-3.29-3.29c-.79-1.39-1.18-2.94-1.18-4.67s.42-3.25,1.25-4.65c.83-1.4,1.96-2.52,3.37-3.35s2.99-1.25,4.72-1.25c2.09,0,3.84.61,5.25,1.83s2.44,2.82,3.06,4.78l-15.29,5.9-.63-1.52,13.99-5.45-.45.62c-.51-1.19-1.27-2.22-2.3-3.08-1.03-.86-2.29-1.3-3.78-1.3-1.34,0-2.55.33-3.62.98-1.07.66-1.93,1.54-2.57,2.64-.64,1.1-.96,2.36-.96,3.75,0,1.31.3,2.53.92,3.67.61,1.13,1.47,2.04,2.57,2.73,1.1.69,2.37,1.03,3.8,1.03.95,0,1.87-.18,2.75-.54s1.66-.82,2.35-1.39l1.07,1.52c-.83.66-1.8,1.19-2.88,1.61s-2.2.63-3.33.63Z" style="fill: #fff; stroke-width: 0px;"/>
      </g>
      <g>
        <path d="m98.98,72.48v-.05l22.12-27.46h.05v21.76h4.13v5.75h-4.13v7.58h-7.64v-7.58h-14.54Zm14.91-10.83l-4.03,5.39-.73-.31h4.39v-5.44l.37.37Z" style="fill: #fff; stroke-width: 0px;"/>
        <path d="m128.69,80.06l13.7-21.55,3.56,7.64-7.85,13.91h-9.41Zm.52-38.49h9.68l25.11,38.49h-9.78l-25-38.49Zm17.26,14.12l7.95-14.12h9.21l-13.23,20.66-3.92-6.54Z" style="fill: #fff; stroke-width: 0px;"/>
      </g>
      <path d="m0,0c11.2,9.69,13.39,16.34,10.48,21.27,1.32-.67,2.71-1.16,4.17-1.45-3.61,4.66-6.03,10.29-6.78,16.44-2.47-.19-4.8-.52-6.9-1,2.55,1.29,4.75,2.6,6.68,4-.01.36-.02.72-.02,1.09,0,11.88,6.2,22.32,15.54,28.28-.75,1.87-1.91,3.72-3.54,5.68,2-1.34,4.62-2.54,7.5-3.52,4.27,1.97,9.01,3.07,14.02,3.07,2.89,0,5.69-.37,8.37-1.05.07,2.51-.01,5.38-.25,8.68,6.29-15.29,17.56-15.37,31.33-5.24-11.21-11.83-10.32-23.3-.82-37.88-1.85,1.04-3.55,1.91-5.12,2.61,0-.21,0-.42,0-.63,0-7.48-2.46-14.4-6.62-19.98,3.19-5.1,6.97-8.59,11.34-11.27-9.27,2.63-15.2,1.25-22.56-3.94,2.85,2.76,4.62,5.81,5.62,9.33-5.79-4.78-13.22-7.65-21.3-7.65-4.05,0-7.93.72-11.52,2.03.3-2.4,1.13-4.78,2.5-7.23C23.43,6.98,13.41,8.45,0,0Zm18.02,8.44c2.13.01,4.7,1.03,6.48,2.71,2.38,2.24,2.47,4.82.2,5.75-2.27.93-6.04-.13-8.42-2.37-2.38-2.24-2.47-4.82-.2-5.75.57-.23,1.23-.34,1.94-.34h0Zm23.12,1.62c8.8,0,16.72,3.74,22.25,9.73.29,3.29.16,6.95-.22,11.07.95-2.76,2-5.21,3.13-7.41,3.24,4.82,5.13,10.63,5.13,16.89,0,.66-.02,1.3-.06,1.95-14.01,4.83-14.64-6.59-17.02-24.52-4.15,24.91-12.75,32.65-30.36,32.11,15.76,5.06,23.92,5.2,25.33,19.62-2.6.72-5.34,1.11-8.17,1.11-3.06,0-6.02-.46-8.8-1.3,2.76-.62,5.56-1.01,8.12-1.1-8.96-1.48-14.38-4.21-16.78-10.9.6,3.04.78,5.62.39,8.04-7.57-5.17-12.66-13.67-13.17-23.41,3.89,3.69,6.39,8.06,8.48,13.88-2-9.95,3.04-16.06,13.69-22.15-6.35,1.94-14.52,2.93-21.96,2.74.84-6.49,3.71-12.32,7.97-16.85,5.92.47,12.8,4.02,20.61,11.64-6.27-7.32-9.63-13.25-10.13-18.86,3.57-1.47,7.47-2.29,11.58-2.29h0Zm11.58,34.24c5.3,0,11.87,4.57,14.67,10.21,2.8,5.64.76,10.21-4.54,10.21s-11.87-4.57-14.67-10.21c-2.8-5.64-.76-10.21,4.54-10.21Z" style="fill: #fff; stroke-width: 0px;"/>
    </g>
  </g>
</svg>