<?xml version="1.0" encoding="UTF-8"?>
<svg id="Calque_2" data-name="Calque 2" xmlns="http://www.w3.org/2000/svg" viewBox="0 0 382.16 83.04">
  <g id="svg19">
    <g>
      <g>
        <path d="m122.23,33.9c0,2.35-.43,4.37-1.3,6.03-.86,1.67-2.02,2.94-3.46,3.82-1.45.88-3.08,1.35-4.89,1.41v-2.1c2.15-.12,3.93-.97,5.34-2.55,1.41-1.58,2.12-3.83,2.12-6.75V6.94h2.19v26.95Z" style="fill: #fff; stroke-width: 0px;"/>
        <path d="m138.85,39.04c-1.82,0-3.43-.4-4.83-1.21-1.4-.8-2.5-1.9-3.29-3.29-.79-1.39-1.18-2.94-1.18-4.67s.42-3.25,1.25-4.65c.83-1.4,1.96-2.52,3.37-3.35,1.42-.83,2.99-1.25,4.72-1.25,2.09,0,3.84.61,5.25,1.83,1.42,1.22,2.44,2.82,3.06,4.78l-15.29,5.9-.63-1.52,13.99-5.45-.45.63c-.51-1.19-1.27-2.22-2.3-3.08-1.03-.86-2.29-1.3-3.78-1.3-1.34,0-2.55.33-3.62.98-1.07.66-1.93,1.54-2.57,2.64-.64,1.1-.96,2.35-.96,3.75,0,1.31.31,2.53.92,3.67.61,1.13,1.47,2.04,2.57,2.73,1.1.69,2.37,1.03,3.8,1.03.95,0,1.87-.18,2.75-.54.88-.36,1.66-.82,2.35-1.39l1.07,1.52c-.83.66-1.8,1.19-2.88,1.61-1.09.42-2.2.63-3.33.63Z" style="fill: #fff; stroke-width: 0px;"/>
        <path d="m158.52,39.17c-1.64,0-2.95-.48-3.93-1.45-.98-.97-1.5-2.23-1.56-3.78v-12.74h2.1v12.11c.06,1.13.42,2.07,1.09,2.82.67.75,1.68,1.15,3.02,1.21,1.13,0,2.19-.3,3.17-.89.98-.6,1.78-1.41,2.39-2.44.61-1.03.92-2.2.92-3.51v-9.3h2.1v17.48h-1.88l-.22-5.5.31,1.21c-.3.89-.83,1.71-1.59,2.44-.76.73-1.65,1.3-2.68,1.72s-2.11.63-3.24.63Z" style="fill: #fff; stroke-width: 0px;"/>
        <path d="m188.65,38.68h-2.5l-13.1-17.48h2.64l12.96,17.48Zm-7.78-7.51l-5.36,7.51h-2.24l6.44-8.9,1.16,1.39Zm.04-2.41l5.18-7.55h2.19l-6.48,9.12-.89-1.56Z" style="fill: #fff; stroke-width: 0px;"/>
        <path d="m214.75,39.04c-1.64,0-3.13-.39-4.47-1.18s-2.41-1.88-3.2-3.29c-.79-1.4-1.18-2.98-1.18-4.74,0-1.88.4-3.5,1.21-4.87.8-1.37,1.9-2.43,3.29-3.17,1.39-.74,2.91-1.12,4.58-1.12s3.25.43,4.76,1.3c1.5.86,2.6,2,3.29,3.4l-.36.98V4.71h2.1v33.97h-2.15v-5.36l.45.98c-.75,1.4-1.86,2.54-3.35,3.42-1.49.88-3.14,1.32-4.96,1.32Zm.54-1.83c1.34,0,2.55-.29,3.62-.87,1.07-.58,1.94-1.37,2.59-2.37.66-1,1.03-2.12,1.12-3.37v-2.23c-.21-1.13-.67-2.15-1.39-3.04-.71-.89-1.58-1.6-2.59-2.12-1.01-.52-2.13-.78-3.35-.78-1.34,0-2.56.31-3.67.94-1.1.63-1.98,1.49-2.64,2.59-.66,1.1-.98,2.38-.98,3.84,0,1.37.33,2.62.98,3.73.66,1.12,1.54,2.01,2.66,2.68,1.12.67,2.33,1.01,3.64,1.01Z" style="fill: #fff; stroke-width: 0px;"/>
        <path d="m230.93,12.35c.63-.6,1.09-1.37,1.41-2.32.31-.95.37-1.95.16-3l1.92-.31c.18.8.18,1.62,0,2.44-.18.82-.48,1.59-.89,2.3s-.94,1.31-1.56,1.79l-1.03-.89Z" style="fill: #fff; stroke-width: 0px;"/>
      </g>
      <g>
        <path d="m112.51,50.85h5.56v28.22h-5.56v-28.22Z" style="fill: #fff; stroke-width: 0px;"/>
        <path d="m150.62,80.22l-21.39-19.32,1.65.92.12,17.25h-5.64v-29.33h.23l20.93,19.25-1.23-.54-.12-17.6h5.6v29.37h-.15Z" style="fill: #fff; stroke-width: 0px;"/>
        <path d="m158.06,50.85h17.64v5.37h-12.08v6.4h10.47v5.37h-10.47v11.08h-5.56v-28.22Z" style="fill: #fff; stroke-width: 0px;"/>
        <path d="m181.06,50.85h5.56v28.22h-5.56v-28.22Z" style="fill: #fff; stroke-width: 0px;"/>
        <path d="m193.9,50.85h5.56v22.85h13.27v5.37h-18.83v-28.22Z" style="fill: #fff; stroke-width: 0px;"/>
        <path d="m213.69,50.85h19.02v5.37h-6.86v22.85h-5.56v-22.85h-6.59v-5.37Z" style="fill: #fff; stroke-width: 0px;"/>
        <path d="m246.62,50.85c1.76,0,3.34.22,4.72.67,1.38.45,2.54,1.09,3.47,1.92.93.83,1.64,1.83,2.13,2.99.49,1.16.73,2.47.73,3.93,0,1.15-.17,2.3-.52,3.45-.35,1.15-.91,2.2-1.69,3.14-.78.95-1.81,1.71-3.09,2.28s-2.86.86-4.75.86h-3.99v8.97h-5.56v-28.22h8.55Zm.96,13.88c.84,0,1.55-.14,2.11-.42.56-.28,1-.64,1.32-1.07.32-.43.55-.89.69-1.36.14-.47.21-.91.21-1.32,0-.31-.04-.7-.13-1.17-.09-.47-.28-.95-.56-1.44-.28-.49-.71-.89-1.29-1.23-.58-.33-1.35-.5-2.32-.5h-3.99v8.51h3.95Zm5.21,3.45l6.98,10.89h-6.48l-7.13-10.74,6.63-.15Z" style="fill: #fff; stroke-width: 0px;"/>
        <path d="m261.19,79.07l12.73-29.33h.31l12.73,29.33h-6.44l-8.13-20.63,4.03-2.76-9.74,23.39h-5.48Zm8.7-10.2h8.47l1.96,4.68h-12.15l1.73-4.68Z" style="fill: #fff; stroke-width: 0px;"/>
        <path d="m286.84,50.85h19.02v5.37h-6.86v22.85h-5.56v-22.85h-6.59v-5.37Z" style="fill: #fff; stroke-width: 0px;"/>
        <path d="m311.23,50.85h5.56v28.22h-5.56v-28.22Z" style="fill: #fff; stroke-width: 0px;"/>
        <path d="m322.35,64.99c0-1.94.37-3.78,1.11-5.52.74-1.74,1.77-3.28,3.09-4.62s2.84-2.4,4.58-3.16,3.6-1.15,5.6-1.15,3.82.38,5.56,1.15,3.28,1.82,4.62,3.16,2.39,2.88,3.14,4.62c.75,1.74,1.13,3.58,1.13,5.52s-.38,3.86-1.13,5.6c-.75,1.74-1.8,3.27-3.14,4.58s-2.88,2.35-4.62,3.09-3.59,1.11-5.56,1.11-3.86-.37-5.6-1.11-3.27-1.77-4.58-3.09-2.34-2.84-3.09-4.58c-.74-1.74-1.11-3.6-1.11-5.6Zm5.75,0c0,1.25.22,2.42.67,3.51.45,1.09,1.07,2.05,1.88,2.88.81.83,1.74,1.48,2.8,1.94s2.22.69,3.47.69,2.32-.23,3.35-.69,1.94-1.11,2.7-1.94c.77-.83,1.37-1.79,1.8-2.88.43-1.09.65-2.25.65-3.51s-.22-2.47-.67-3.57c-.45-1.1-1.06-2.06-1.84-2.9-.78-.83-1.69-1.48-2.74-1.94-1.05-.46-2.19-.69-3.41-.69s-2.36.23-3.41.69-1.97,1.11-2.76,1.94c-.79.83-1.41,1.8-1.84,2.9-.44,1.1-.65,2.29-.65,3.57Z" style="fill: #fff; stroke-width: 0px;"/>
        <path d="m382.01,80.22l-21.39-19.32,1.65.92.11,17.25h-5.64v-29.33h.23l20.93,19.25-1.23-.54-.12-17.6h5.6v29.37h-.15Z" style="fill: #fff; stroke-width: 0px;"/>
      </g>
      <path d="m68.2,0c-6.3,0-12.12,3.09-14.84,8.89,4.54.38,3.5,12.04,3.5,12.04-2.58,3.65-5.41,7.25-8,10.96,0,0-21.65,28.92-38.99,36.73-6.13,4.94-7.28,7.99-9.65,11.51-1.07,2.09,2.02,3.13,2.56,2.89,4.97-2.29,5.5-4.56,10.29-7.8,2.8-1.1,5.21-3.48,6.96-2.42,7.64,4.56,23.51,9.68,25.85,8.46,3.9-2.02-1.26-9.53,3.54-19.47,6.99-.73,12.88-.19,19.31-2.64.76,10.99,2.21,11.93,1.48,23.41l15.56.23.15-3.19-9.14-2.43c2.52-12.25,2.58-17.27,1.02-27.98-.21-1.45-11.75-1.81-17.71-.83,5.34-5.29,8.8-9.89,10.38-14.96v.04c1.68,3.48,6.58,7.42,7.73,8.12,6.06,2.41,8.35,1.74,13.76.85,1.07-.17,6,5.36,9.79,2.1.58-4.42,3.61-4.45-1.08-7.15-1.06-.6-5.92,1.63-6.87,1.51-4.42-.54-6.77-1.14-12.78-2.78-2.24-2.88-7.14-12.27-12.12-13.06,1.43-3.09,6.17-11.61,16.1-14.48C80.45,2.74,74.12,0,68.2,0h0Zm18.01,10.21c-10.2,4.27-12.74,11.02-12.74,11.02l2.17,1.67s2.11-1.04,10.57-12.69Zm5.04,34.98l-1.02,2.5c1.14-.02,2.28.1,3.35.35-2.79,6.74-5.23,13.04-6.16,20.35l-.2,1.65,1.06-1.29c4.55-5.61,7.06-12.08,9.83-18.75.92.58,1.8,1.29,2.64,2.04l1.04-2.49-4.49-1.86-6.94,14.55,5.26-15.24-4.38-1.82h0Z" style="fill: #fff; stroke-width: 0px;"/>
    </g>
  </g>
</svg>