<?xml version="1.0" encoding="UTF-8"?>
<svg id="Calque_2" data-name="Calque 2" xmlns="http://www.w3.org/2000/svg" viewBox="0 0 371.66 80.92">
  <g id="svg19">
    <g>
      <g>
        <path d="m107.97,3.39h18.99v2.24h-16.65v13.98h14.75v2.2h-14.75v15.46h-2.34V3.39Z" style="fill: #fff; stroke-width: 0px;"/>
        <path d="m132.26,11.74c0-.45.17-.82.52-1.12.35-.3.73-.45,1.15-.45.45,0,.83.15,1.15.45.32.3.48.68.48,1.12,0,.48-.16.87-.48,1.17-.32.3-.7.45-1.15.45-.41,0-.8-.16-1.15-.48-.35-.32-.52-.7-.52-1.15Zm.48,6.87h2.24v18.66h-2.24v-18.66Z" style="fill: #fff; stroke-width: 0px;"/>
        <path d="m145.43,18.61l.24,5.73-.29-.72c.41-1.15,1.07-2.13,1.96-2.96.89-.83,1.88-1.46,2.98-1.91s2.15-.67,3.17-.67l-.1,2.2c-1.43,0-2.73.32-3.89.95-1.16.64-2.08,1.49-2.77,2.55-.68,1.07-1.03,2.27-1.03,3.6v9.88h-2.24v-18.66h1.96Z" style="fill: #fff; stroke-width: 0px;"/>
        <path d="m164.18,37.65c-1.08,0-2.21-.2-3.39-.6-1.18-.4-2.13-1.04-2.86-1.93l1.05-1.48c.64.67,1.39,1.2,2.27,1.6.87.4,1.8.6,2.79.6.73,0,1.42-.1,2.08-.31.65-.21,1.18-.56,1.6-1.07.41-.51.62-1.19.62-2.05s-.25-1.57-.74-2.05-1.11-.87-1.86-1.17c-.75-.3-1.54-.58-2.36-.83-1.37-.45-2.49-1.05-3.36-1.81-.88-.76-1.31-1.84-1.31-3.25,0-1.02.25-1.91.74-2.67.49-.76,1.17-1.36,2.03-1.79s1.83-.64,2.91-.64c.99,0,1.96.16,2.93.48.97.32,1.85.86,2.65,1.62l-1,1.57c-.51-.7-1.19-1.18-2.03-1.43-.84-.25-1.58-.4-2.22-.43-.54,0-1.11.11-1.69.33-.59.22-1.08.55-1.48.98-.4.43-.6,1-.6,1.69s.21,1.33.62,1.79c.41.46.95.83,1.6,1.12.65.29,1.33.56,2.03.81.92.29,1.79.63,2.6,1.03.81.4,1.48.92,2,1.57.52.65.79,1.52.79,2.6s-.24,2.06-.72,2.94c-.48.88-1.19,1.56-2.12,2.05-.94.49-2.12.74-3.56.74Z" style="fill: #fff; stroke-width: 0px;"/>
        <path d="m179.22,10.4h2.29v8.45h5.77v1.81h-5.77v16.61h-2.29v-16.61h-3.96v-1.81h3.96v-8.45Z" style="fill: #fff; stroke-width: 0px;"/>
        <path d="m217.82,37.65c-1.78,0-3.45-.47-5.01-1.41-1.56-.94-2.7-2.16-3.44-3.65l.38-.81v14.46h-2.24v-27.77h2l.24,6.11-.43-1.38c.83-1.5,2.04-2.73,3.63-3.7,1.59-.97,3.32-1.46,5.2-1.46,1.78,0,3.39.43,4.82,1.29,1.43.86,2.57,2.03,3.41,3.51.84,1.48,1.26,3.17,1.26,5.08s-.44,3.55-1.31,5.03c-.88,1.48-2.05,2.63-3.53,3.46s-3.14,1.24-4.99,1.24Zm-.38-1.86c1.46,0,2.79-.35,3.98-1.05,1.19-.7,2.15-1.65,2.86-2.84s1.07-2.52,1.07-3.98-.35-2.84-1.05-4.03c-.7-1.19-1.63-2.14-2.79-2.84-1.16-.7-2.47-1.05-3.94-1.05s-2.67.32-3.82.96-2.07,1.5-2.77,2.58c-.7,1.08-1.11,2.31-1.24,3.67v1.53c.09,1.3.5,2.5,1.22,3.58.72,1.08,1.64,1.93,2.77,2.55,1.13.62,2.36.93,3.7.93Z" style="fill: #fff; stroke-width: 0px;"/>
        <path d="m242.44,37.65c-1.94,0-3.66-.43-5.15-1.29-1.5-.86-2.67-2.03-3.51-3.51-.84-1.48-1.26-3.14-1.26-4.99s.45-3.47,1.34-4.96c.89-1.5,2.09-2.69,3.6-3.58,1.51-.89,3.19-1.34,5.03-1.34,2.23,0,4.1.65,5.61,1.96s2.6,3.01,3.27,5.11l-16.32,6.3-.67-1.62,14.94-5.82-.48.67c-.54-1.27-1.36-2.37-2.46-3.29s-2.44-1.38-4.03-1.38c-1.43,0-2.72.35-3.87,1.05s-2.06,1.64-2.74,2.82c-.68,1.18-1.03,2.51-1.03,4.01,0,1.4.33,2.7.98,3.91.65,1.21,1.57,2.18,2.74,2.91,1.18.73,2.53,1.1,4.06,1.1,1.02,0,2-.19,2.93-.57.94-.38,1.77-.87,2.5-1.48l1.15,1.62c-.89.7-1.92,1.27-3.08,1.72s-2.35.67-3.55.67Z" style="fill: #fff; stroke-width: 0px;"/>
        <path d="m259.53,18.61l.24,5.73-.29-.72c.41-1.15,1.07-2.13,1.96-2.96.89-.83,1.88-1.46,2.98-1.91s2.15-.67,3.17-.67l-.09,2.2c-1.43,0-2.73.32-3.89.95-1.16.64-2.08,1.49-2.77,2.55-.68,1.07-1.03,2.27-1.03,3.6v9.88h-2.24v-18.66h1.96Z" style="fill: #fff; stroke-width: 0px;"/>
        <path d="m278.28,37.65c-1.08,0-2.21-.2-3.39-.6-1.18-.4-2.13-1.04-2.86-1.93l1.05-1.48c.64.67,1.39,1.2,2.27,1.6s1.81.6,2.79.6c.73,0,1.42-.1,2.08-.31s1.19-.56,1.6-1.07c.41-.51.62-1.19.62-2.05s-.25-1.57-.74-2.05-1.11-.87-1.86-1.17c-.75-.3-1.54-.58-2.36-.83-1.37-.45-2.49-1.05-3.36-1.81-.88-.76-1.31-1.84-1.31-3.25,0-1.02.25-1.91.74-2.67.49-.76,1.17-1.36,2.03-1.79.86-.43,1.83-.64,2.91-.64.99,0,1.96.16,2.93.48.97.32,1.85.86,2.65,1.62l-1,1.57c-.51-.7-1.19-1.18-2.03-1.43-.84-.25-1.58-.4-2.22-.43-.54,0-1.11.11-1.69.33-.59.22-1.08.55-1.48.98s-.6,1-.6,1.69.21,1.33.62,1.79c.41.46.95.83,1.6,1.12.65.29,1.33.56,2.03.81.92.29,1.79.63,2.6,1.03.81.4,1.48.92,2,1.57.53.65.79,1.52.79,2.6s-.24,2.06-.72,2.94c-.48.88-1.19,1.56-2.12,2.05-.94.49-2.12.74-3.56.74Z" style="fill: #fff; stroke-width: 0px;"/>
        <path d="m289.64,27.82c0-1.81.44-3.47,1.31-4.96.87-1.5,2.07-2.68,3.58-3.55,1.51-.88,3.2-1.31,5.08-1.31s3.61.44,5.11,1.31,2.67,2.06,3.53,3.55c.86,1.5,1.29,3.15,1.29,4.96s-.43,3.47-1.29,4.96c-.86,1.5-2.04,2.68-3.55,3.55-1.51.88-3.21,1.31-5.08,1.31s-3.61-.42-5.11-1.26c-1.5-.84-2.68-2-3.55-3.48-.88-1.48-1.31-3.17-1.31-5.08Zm2.24.05c0,1.46.34,2.79,1.03,3.98.68,1.19,1.61,2.14,2.77,2.84s2.46,1.05,3.89,1.05,2.73-.35,3.89-1.05,2.08-1.65,2.77-2.84c.68-1.19,1.03-2.52,1.03-3.98s-.34-2.79-1.03-3.98c-.68-1.19-1.61-2.15-2.77-2.86s-2.46-1.07-3.89-1.07-2.78.37-3.94,1.12c-1.16.75-2.08,1.73-2.74,2.93s-1,2.5-1,3.87Z" style="fill: #fff; stroke-width: 0px;"/>
        <path d="m318.17,18.61l.24,5.87-.29-1.15c.54-1.62,1.57-2.9,3.08-3.84,1.51-.94,3.19-1.41,5.03-1.41,1.75,0,3.17.52,4.25,1.55,1.08,1.03,1.64,2.38,1.67,4.03v13.6h-2.29v-12.98c-.03-1.21-.41-2.21-1.15-3.01s-1.8-1.21-3.2-1.24c-1.24,0-2.4.3-3.48.91s-1.95,1.45-2.6,2.53c-.65,1.08-.98,2.34-.98,3.77v10.02h-2.24v-18.66h1.96Z" style="fill: #fff; stroke-width: 0px;"/>
      </g>
      <g>
        <path d="m117.3,44.92c2.94,0,5.42.49,7.45,1.48s3.58,2.37,4.65,4.16c1.06,1.79,1.6,3.91,1.6,6.36,0,1.45-.22,2.91-.65,4.38s-1.13,2.8-2.08,3.99c-.95,1.19-2.23,2.15-3.82,2.88s-3.56,1.09-5.88,1.09h-5.03v11.27h-7.02v-35.61h10.79Zm1.21,17.51c1.06,0,1.95-.19,2.66-.56.71-.37,1.27-.84,1.67-1.4.4-.56.69-1.15.87-1.77.18-.61.27-1.14.27-1.6,0-.35-.06-.83-.17-1.43-.11-.6-.35-1.2-.7-1.81-.36-.61-.9-1.13-1.62-1.55-.73-.42-1.7-.63-2.93-.63h-5.03v10.74h4.98Z" style="fill: #fff; stroke-width: 0px;"/>
        <path d="m129.64,80.53l16.06-37.01h.39l16.06,37.01h-8.13l-10.26-26.03,5.08-3.48-12.29,29.51h-6.92Zm10.98-12.87h10.69l2.47,5.9h-15.34l2.18-5.9Z" style="fill: #fff; stroke-width: 0px;"/>
        <path d="m178.12,44.92c2.23,0,4.21.28,5.95.85,1.74.56,3.2,1.37,4.38,2.42,1.18,1.05,2.07,2.31,2.69,3.77.61,1.47.92,3.12.92,4.96,0,1.45-.22,2.9-.65,4.35-.44,1.45-1.15,2.77-2.13,3.97-.98,1.19-2.28,2.15-3.9,2.88-1.61.73-3.61,1.09-6,1.09h-5.03v11.32h-7.02v-35.61h10.79Zm1.21,17.51c1.06,0,1.95-.18,2.66-.53.71-.35,1.27-.81,1.67-1.35.4-.55.69-1.12.87-1.72.18-.6.27-1.15.27-1.67,0-.39-.06-.88-.17-1.48-.11-.6-.35-1.2-.7-1.81-.36-.61-.9-1.13-1.62-1.55-.73-.42-1.7-.63-2.93-.63h-5.03v10.74h4.98Zm6.58,4.35l8.81,13.74h-8.18l-9-13.55,8.37-.19Z" style="fill: #fff; stroke-width: 0px;"/>
        <path d="m197.38,44.92h24v6.77h-8.66v28.84h-7.02v-28.84h-8.32v-6.77Z" style="fill: #fff; stroke-width: 0px;"/>
        <path d="m237.39,69.45l-13.11-24.53h8.66l9.19,18.48-2.08.14,9.05-18.63h8.66l-13.35,24.53v11.08h-7.02v-11.08Z" style="fill: #fff; stroke-width: 0px;"/>
        <path d="m289.6,44.92c2.23,0,4.21.28,5.95.85,1.74.56,3.2,1.37,4.38,2.42,1.18,1.05,2.07,2.31,2.68,3.77.61,1.47.92,3.12.92,4.96,0,1.45-.22,2.9-.65,4.35-.44,1.45-1.15,2.77-2.13,3.97-.98,1.19-2.28,2.15-3.9,2.88-1.61.73-3.61,1.09-6,1.09h-5.03v11.32h-7.02v-35.61h10.79Zm1.21,17.51c1.06,0,1.95-.18,2.66-.53.71-.35,1.27-.81,1.67-1.35.4-.55.69-1.12.87-1.72s.27-1.15.27-1.67c0-.39-.06-.88-.17-1.48-.11-.6-.35-1.2-.7-1.81-.36-.61-.9-1.13-1.62-1.55s-1.7-.63-2.93-.63h-5.03v10.74h4.98Zm6.58,4.35l8.81,13.74h-8.18l-9-13.55,8.37-.19Z" style="fill: #fff; stroke-width: 0px;"/>
        <path d="m322.79,44.92c2.93,0,5.42.49,7.45,1.48s3.58,2.37,4.64,4.16c1.06,1.79,1.6,3.91,1.6,6.36,0,1.45-.22,2.91-.65,4.38s-1.13,2.8-2.08,3.99c-.95,1.19-2.23,2.15-3.82,2.88s-3.56,1.09-5.88,1.09h-5.03v11.27h-7.02v-35.61h10.79Zm1.21,17.51c1.06,0,1.95-.19,2.66-.56.71-.37,1.27-.84,1.67-1.4.4-.56.69-1.15.87-1.77.18-.61.27-1.14.27-1.6,0-.35-.06-.83-.17-1.43-.11-.6-.35-1.2-.7-1.81-.36-.61-.9-1.13-1.62-1.55s-1.7-.63-2.93-.63h-5.03v10.74h4.98Z" style="fill: #fff; stroke-width: 0px;"/>
        <path d="m371.66,76.95c-.42.45-1.08.91-1.98,1.38s-1.94.89-3.12,1.28c-1.18.39-2.38.7-3.61.94s-2.39.36-3.48.36c-2.9,0-5.52-.43-7.84-1.28-2.32-.85-4.31-2.05-5.95-3.58-1.65-1.53-2.9-3.35-3.77-5.44-.87-2.1-1.31-4.39-1.31-6.87,0-3.26.49-6.09,1.48-8.49.98-2.4,2.32-4.4,4.02-6s3.64-2.78,5.85-3.56c2.21-.77,4.52-1.16,6.94-1.16,2.29,0,4.39.25,6.29.75,1.9.5,3.51,1.12,4.84,1.86l-2.27,6.53c-.58-.32-1.35-.64-2.32-.97-.97-.32-1.95-.59-2.95-.8-1-.21-1.89-.31-2.66-.31-1.94,0-3.65.24-5.13.73-1.48.48-2.73,1.21-3.75,2.18-1.02.97-1.78,2.17-2.3,3.61-.52,1.44-.77,3.1-.77,5.01,0,1.68.29,3.19.87,4.52.58,1.34,1.39,2.48,2.44,3.41,1.05.94,2.29,1.65,3.73,2.13,1.43.48,3.02.73,4.77.73,1,0,1.92-.07,2.76-.22.84-.14,1.55-.38,2.13-.7v-4.31h-6.14v-6.77h13.26v15.05Z" style="fill: #fff; stroke-width: 0px;"/>
      </g>
      <path d="m67.23,0c3.45,0,6.53,3.52,6.53,8.24s-3.08,8.24-6.53,8.24-6.53-3.5-6.53-8.24S63.78,0,67.23,0Zm-24.8,0c3.43,0,6.53,3.52,6.53,8.24s-3.1,8.24-6.53,8.24-6.55-3.5-6.55-8.24S38.98,0,42.43,0Zm-24.82,0c3.45,0,6.53,3.52,6.53,8.24s-3.08,8.24-6.53,8.24-6.55-3.5-6.55-8.24S14.15,0,17.61,0Zm24.82,20.41c11.94.37,22.02.37,34.12.79,5.77,3.33,8.44,20.4,8.27,26.33l-3.28,3.31c-1.44-8.01-3.25-18.69-6.25-21.07v16.39l.77,34.38h-4.14l-3.12-34.56h-3.36l-3.12,34.56h-4.16l.78-34.38-1.49-16.56h-5.47l-1.34,16.5.78,34.38h-4.16l-3.14-34.56h-3.36l-3.14,34.56h-4.14l.78-34.38-1.36-16.5h-5.47l-1.49,16.56.78,34.38h-4.16l-3.12-34.56h-3.36l-3.15,34.56h-4.14l.78-34.38v-16.39c-3.02,2.38-4.83,13.06-6.27,21.07L0,47.52c-.17-5.93,2.52-23,8.27-26.33,12.13-.41,22.21-.41,34.15-.79Z" style="fill: #fff; stroke-width: 0px;"/>
    </g>
  </g>
</svg>