<?xml version="1.0" encoding="UTF-8"?>
<svg id="Calque_2" data-name="Calque 2" xmlns="http://www.w3.org/2000/svg" viewBox="0 0 227.61 54.15">
  <g id="Calque_1-2" data-name="Calque 1">
    <g>
      <path d="m0,16.32c11.89,0,23.78,0,35.67.01.08,0,.16.05.31.11v7.29h-13.52v28.57h-8.67v-28.73H0v-7.25Z" style="fill: #fff; stroke-width: 0px;"/>
      <path d="m140.83,15.16c5.56.1,11.28,2.28,15.78,7.16,6.8,7.38,6.59,18.17-.54,25.25-5.27,5.22-11.73,7.19-19.05,6.43-5.31-.55-9.93-2.68-13.66-6.51-7.95-8.18-6.99-20.5,2.08-27.53,4.22-3.27,9.04-4.8,15.39-4.8Zm-1.09,6.48c-7.39,0-13.16,5.74-13.14,13.08.01,7.33,5.81,13.07,13.18,13.05,7.4-.02,13.14-5.75,13.12-13.09-.01-7.36-5.75-13.04-13.16-13.04Z" style="fill: #fff; stroke-width: 0px;"/>
      <path d="m82.4,23.69v-7.31h35.85v7.35h-13.5v28.57h-8.66v-28.61h-13.69Z" style="fill: #fff; stroke-width: 0px;"/>
      <path d="m46.79,52.05c.03-10.24,1.35-19.94,8.44-28.26,5.21,9.54,10.28,18.84,15.42,28.26h-23.86Z" style="fill: #fff; stroke-width: 0px;"/>
      <path d="m53.41,20.67c3.81-2.96,7.31-6.23,12.18-7.24-3.97,2.97-7.33,6.54-10.57,10.42-.53-.96-1.01-1.84-1.56-2.83-1.6,1.23-2.96,2.58-4.16,4.07-5.92,7.32-9.56,15.65-11.12,24.91-.12.74-.23,1.48-.36,2.29h-12.01c7.38-13.57,14.73-27.07,22.17-40.76,1.86,3.14,3.62,6.11,5.42,9.14Z" style="fill: #fff; stroke-width: 0px;"/>
      <path d="m71.39,16.61h8.68v35.37h-8.68V16.61Z" style="fill: #fff; stroke-width: 0px;"/>
      <path d="m68.61,6.58C68.62,2.97,71.66,0,75.34,0c3.76,0,6.81,3,6.79,6.67-.02,3.6-3.08,6.58-6.75,6.59-3.76,0-6.78-2.98-6.78-6.68Z" style="fill: #fff; stroke-width: 0px;"/>
      <path d="m196.49,21.12v11.13c-.7.25-1.33.13-2.12.11v-4.46c0-2.72.03-5.45-.02-8.17-.02-.97.18-1.76,1.19-2,1.04-.25,1.94-.03,2.51,1.06,1.64,3.16,3.33,6.29,5,9.44.16.3.31.59.69.82v-11.09c.72-.27,1.35-.14,2.15-.13,0,1.22,0,2.43,0,3.64,0,3-.02,5.99,0,8.99,0,.92-.02,1.73-1.12,2.02-1.13.3-1.95-.06-2.5-1.08-1.09-2.02-2.17-4.05-3.25-6.08-.75-1.42-1.48-2.85-2.22-4.27-.11.02-.21.05-.32.07Z" style="fill: #fff; stroke-width: 0px;"/>
      <path d="m207.22,32.37v-14.54h9.77c.18.56.12,1.09.03,1.77h-7.48v10.87h7.35c.32.7.2,1.26.16,1.9h-9.83Z" style="fill: #fff; stroke-width: 0px;"/>
      <path d="m222.34,19.61h-3.92v-1.77h5.97v14.54h-2.05v-12.77Z" style="fill: #fff; stroke-width: 0px;"/>
      <path d="m210.74,25.92v-1.7h4.71q.11,1.83-1.59,1.83c-.95,0-1.91,0-2.86-.01-.04,0-.08-.03-.26-.12Z" style="fill: #fff; stroke-width: 0px;"/>
      <rect x="225.78" y="16.83" width="1.83" height="1.83" style="fill: #fff; stroke-width: 0px;"/>
      <path d="m193.68,17.86l-15.06-.03s-23.2,15.45,1.75,33.18c10.6,0,14.13-.03,14.13-.03,0,0-31.52-16.29-.82-33.13Z" style="fill: #fff; stroke-width: 0px;"/>
      <rect x="194.1" y="34.48" width="11.31" height="16.51" style="fill: #fff; stroke-width: 0px;"/>
    </g>
  </g>
</svg>