<?xml version="1.0" encoding="UTF-8"?>
<svg id="Calque_2" data-name="Calque 2" xmlns="http://www.w3.org/2000/svg" viewBox="0 0 373.58 82.08">
  <g id="svg19">
    <g>
      <g>
        <path d="m127.04,8.02c-.99-.48-2.2-.92-3.63-1.34-1.43-.41-2.86-.62-4.29-.62-2.23,0-4.01.56-5.34,1.67-1.34,1.11-2,2.51-2,4.2,0,1.27.38,2.33,1.15,3.17.76.84,1.77,1.56,3.01,2.15,1.24.59,2.56,1.15,3.96,1.69,1.11.41,2.22.88,3.32,1.38,1.1.51,2.09,1.13,2.98,1.86.89.73,1.6,1.64,2.12,2.72.53,1.08.79,2.42.79,4.01,0,1.88-.45,3.54-1.34,4.99-.89,1.45-2.13,2.57-3.72,3.36-1.59.8-3.44,1.19-5.54,1.19-1.69,0-3.22-.21-4.6-.62-1.38-.41-2.59-.9-3.63-1.46-1.04-.56-1.85-1.03-2.46-1.41l1.1-1.91c.7.51,1.55,1.02,2.55,1.53,1,.51,2.09.94,3.27,1.29,1.18.35,2.35.52,3.53.52,1.37,0,2.7-.27,3.98-.81,1.29-.54,2.35-1.36,3.2-2.46.84-1.1,1.27-2.49,1.27-4.18s-.4-2.93-1.19-3.94c-.8-1-1.81-1.82-3.05-2.46-1.24-.64-2.56-1.21-3.96-1.72-1.08-.41-2.16-.85-3.25-1.31-1.08-.46-2.07-1.02-2.96-1.67-.89-.65-1.6-1.44-2.12-2.36-.53-.92-.79-2.04-.79-3.34,0-1.62.41-3.04,1.24-4.25.83-1.21,1.95-2.16,3.36-2.84,1.42-.68,3.03-1.04,4.84-1.07,1.59,0,3.2.21,4.84.62,1.64.41,3.06.94,4.27,1.57l-.91,1.81Z" style="fill: #fff; stroke-width: 0px;"/>
        <path d="m138.54,11.22h2.29v8.45h5.77v1.81h-5.77v16.61h-2.29v-16.61h-3.96v-1.81h3.96v-8.45Z" style="fill: #fff; stroke-width: 0px;"/>
        <path d="m154.14,19.42l.24,5.73-.29-.72c.41-1.15,1.07-2.13,1.96-2.96.89-.83,1.88-1.46,2.98-1.91,1.1-.44,2.16-.67,3.17-.67l-.1,2.2c-1.43,0-2.73.32-3.89.95-1.16.64-2.08,1.49-2.77,2.55-.69,1.07-1.03,2.27-1.03,3.6v9.88h-2.24v-18.66h1.96Z" style="fill: #fff; stroke-width: 0px;"/>
        <path d="m176,38.46c-1.78,0-3.4-.41-4.84-1.22-1.45-.81-2.59-1.95-3.44-3.41-.84-1.46-1.26-3.17-1.26-5.11,0-2.07.45-3.84,1.34-5.32.89-1.48,2.1-2.61,3.63-3.39,1.53-.78,3.26-1.17,5.2-1.17,1.65,0,3.22.49,4.7,1.48,1.48.99,2.54,2.23,3.17,3.72l-.33.67.29-5.3h2v18.66h-2.24v-5.77l.48.86c-.22.64-.6,1.26-1.15,1.88-.54.62-1.2,1.19-1.98,1.72s-1.64.94-2.58,1.24c-.94.3-1.93.45-2.98.45Zm.48-1.91c1.4,0,2.66-.29,3.79-.88,1.13-.59,2.04-1.41,2.74-2.46.7-1.05,1.1-2.26,1.19-3.63v-2.67c-.25-1.18-.76-2.23-1.5-3.15-.75-.92-1.66-1.65-2.74-2.19-1.08-.54-2.26-.81-3.53-.81-1.4,0-2.69.33-3.87.98-1.18.65-2.12,1.57-2.82,2.74-.7,1.18-1.05,2.56-1.05,4.15,0,1.46.35,2.79,1.05,3.98.7,1.19,1.65,2.15,2.84,2.86s2.49,1.07,3.89,1.07Z" style="fill: #fff; stroke-width: 0px;"/>
        <path d="m196.8,11.22h2.29v8.45h5.77v1.81h-5.77v16.61h-2.29v-16.61h-3.96v-1.81h3.96v-8.45Z" style="fill: #fff; stroke-width: 0px;"/>
        <path d="m218.56,38.46c-1.94,0-3.66-.43-5.15-1.29-1.5-.86-2.67-2.03-3.51-3.51-.84-1.48-1.26-3.14-1.26-4.99s.45-3.47,1.34-4.96c.89-1.5,2.09-2.69,3.6-3.58,1.51-.89,3.19-1.34,5.03-1.34,2.23,0,4.1.65,5.61,1.96,1.51,1.3,2.6,3.01,3.27,5.11l-16.32,6.3-.67-1.62,14.94-5.82-.48.67c-.54-1.27-1.36-2.37-2.46-3.29-1.1-.92-2.44-1.38-4.03-1.38-1.43,0-2.72.35-3.87,1.05-1.15.7-2.06,1.64-2.74,2.82-.68,1.18-1.03,2.51-1.03,4.01,0,1.4.33,2.7.98,3.91.65,1.21,1.57,2.18,2.74,2.91,1.18.73,2.53,1.1,4.06,1.1,1.02,0,2-.19,2.93-.57.94-.38,1.77-.87,2.5-1.48l1.15,1.62c-.89.7-1.92,1.27-3.08,1.72-1.16.44-2.35.67-3.55.67Zm3.29-29.3l-5.06,6.35h-1.62l4.15-6.35h2.53Z" style="fill: #fff; stroke-width: 0px;"/>
        <path d="m241.99,47.2c-1.05,0-2.05-.12-3.01-.36-.95-.24-1.89-.64-2.82-1.22-.92-.57-1.88-1.32-2.86-2.24l1.34-1.53c1.37,1.3,2.64,2.19,3.82,2.65,1.18.46,2.32.69,3.44.69,1.94,0,3.48-.31,4.63-.93,1.15-.62,1.97-1.45,2.48-2.48.51-1.03.78-2.19.81-3.46l.05-6.06.52.57c-.64,1.65-1.77,3.01-3.41,4.06-1.64,1.05-3.49,1.57-5.56,1.57-1.75,0-3.35-.44-4.8-1.31-1.45-.87-2.6-2.05-3.46-3.53-.86-1.48-1.29-3.13-1.29-4.94,0-1.94.45-3.64,1.34-5.11.89-1.46,2.1-2.62,3.63-3.46,1.53-.84,3.21-1.26,5.06-1.26,1.72,0,3.35.45,4.89,1.34,1.54.89,2.66,2.07,3.36,3.53l-.29,1.05.24-5.34h2v18.94c0,1.53-.34,2.97-1.03,4.32-.68,1.35-1.77,2.44-3.25,3.27-1.48.83-3.43,1.24-5.85,1.24Zm-7.87-18.56c0,1.46.35,2.79,1.05,3.98.7,1.19,1.65,2.15,2.84,2.86,1.19.72,2.52,1.07,3.98,1.07s2.67-.31,3.82-.93c1.15-.62,2.08-1.46,2.82-2.51s1.15-2.18,1.24-3.39v-2.77c-.25-1.21-.76-2.27-1.5-3.2-.75-.92-1.67-1.65-2.77-2.19-1.1-.54-2.3-.81-3.6-.81-1.46,0-2.79.33-3.98,1-1.19.67-2.14,1.59-2.84,2.77-.7,1.18-1.05,2.55-1.05,4.1Z" style="fill: #fff; stroke-width: 0px;"/>
        <path d="m260.13,12.55c0-.44.17-.82.53-1.12.35-.3.73-.45,1.15-.45.44,0,.83.15,1.14.45.32.3.48.68.48,1.12,0,.48-.16.87-.48,1.17-.32.3-.7.45-1.14.45-.41,0-.8-.16-1.15-.48-.35-.32-.53-.7-.53-1.15Zm.48,6.87h2.24v18.66h-2.24v-18.66Z" style="fill: #fff; stroke-width: 0px;"/>
        <path d="m279.45,38.46c-1.94,0-3.66-.43-5.15-1.29-1.5-.86-2.67-2.03-3.51-3.51-.84-1.48-1.26-3.14-1.26-4.99s.45-3.47,1.34-4.96c.89-1.5,2.09-2.69,3.6-3.58,1.51-.89,3.19-1.34,5.03-1.34,2.23,0,4.1.65,5.61,1.96,1.51,1.3,2.6,3.01,3.27,5.11l-16.32,6.3-.67-1.62,14.94-5.82-.48.67c-.54-1.27-1.36-2.37-2.46-3.29-1.1-.92-2.44-1.38-4.03-1.38-1.43,0-2.72.35-3.87,1.05-1.15.7-2.06,1.64-2.74,2.82-.68,1.18-1.03,2.51-1.03,4.01,0,1.4.33,2.7.98,3.91.65,1.21,1.57,2.18,2.74,2.91,1.18.73,2.53,1.1,4.06,1.1,1.02,0,2-.19,2.93-.57.94-.38,1.77-.87,2.5-1.48l1.15,1.62c-.89.7-1.92,1.27-3.08,1.72-1.16.44-2.35.67-3.55.67Z" style="fill: #fff; stroke-width: 0px;"/>
      </g>
      <g>
        <path d="m104.51,79.57l13.07-30.12h.32l13.07,30.12h-6.61l-8.35-21.18,4.13-2.83-10,24.01h-5.63Zm8.94-10.47h8.7l2.01,4.8h-12.48l1.77-4.8Z" style="fill: #fff; stroke-width: 0px;"/>
        <path d="m139.31,68.86c0,.92.28,1.8.83,2.64.55.84,1.28,1.52,2.18,2.05.91.53,1.9.79,2.97.79,1.18,0,2.23-.26,3.15-.79.92-.52,1.65-1.21,2.18-2.05.54-.84.81-1.72.81-2.64v-18.27h5.63v18.38c0,2.13-.53,4.01-1.58,5.65-1.05,1.64-2.47,2.93-4.25,3.86-1.78.93-3.77,1.4-5.94,1.4s-4.11-.46-5.88-1.4c-1.77-.93-3.18-2.22-4.23-3.86-1.05-1.64-1.57-3.52-1.57-5.65v-18.38h5.71v18.27Z" style="fill: #fff; stroke-width: 0px;"/>
        <path d="m161.99,50.59h19.53v5.51h-7.05v23.46h-5.71v-23.46h-6.77v-5.51Z" style="fill: #fff; stroke-width: 0px;"/>
        <path d="m184.27,65.12c0-1.99.38-3.88,1.14-5.67.76-1.78,1.82-3.37,3.17-4.74,1.35-1.38,2.92-2.46,4.7-3.25,1.78-.79,3.7-1.18,5.75-1.18s3.92.39,5.71,1.18c1.78.79,3.37,1.87,4.74,3.25,1.38,1.38,2.45,2.96,3.23,4.74.77,1.79,1.16,3.67,1.16,5.67s-.39,3.96-1.16,5.75c-.77,1.79-1.85,3.35-3.23,4.7-1.38,1.35-2.96,2.41-4.74,3.17-1.79.76-3.69,1.14-5.71,1.14s-3.96-.38-5.75-1.14c-1.79-.76-3.35-1.82-4.7-3.17-1.35-1.35-2.41-2.92-3.17-4.7-.76-1.78-1.14-3.7-1.14-5.75Zm5.9,0c0,1.29.23,2.49.69,3.6.46,1.12,1.1,2.1,1.93,2.95.83.85,1.78,1.52,2.87,1.99,1.09.47,2.28.71,3.56.71s2.38-.24,3.44-.71c1.06-.47,1.99-1.13,2.78-1.99s1.4-1.84,1.85-2.95c.45-1.12.67-2.32.67-3.6s-.23-2.53-.69-3.66c-.46-1.13-1.09-2.12-1.89-2.97s-1.74-1.52-2.81-1.99-2.24-.71-3.5-.71-2.43.24-3.5.71c-1.08.47-2.02,1.14-2.83,1.99s-1.44,1.84-1.89,2.97c-.45,1.13-.67,2.35-.67,3.66Z" style="fill: #fff; stroke-width: 0px;"/>
        <path d="m240.88,50.59c3.02,0,5.42.61,7.2,1.83,1.78,1.22,2.68,3.04,2.68,5.45,0,1.79-.44,3.27-1.32,4.47s-2.07,2.09-3.58,2.68c-1.51.59-3.23.89-5.18.89l-.91-3.07c2.39,0,4.51.33,6.36.98,1.85.66,3.31,1.59,4.39,2.81,1.08,1.22,1.61,2.68,1.61,4.39,0,1.57-.28,2.91-.85,4-.56,1.09-1.33,1.97-2.28,2.64s-2.04,1.16-3.25,1.46c-1.21.3-2.45.45-3.74.45h-9.64v-28.97h8.5Zm.67,11.85c1.13,0,1.96-.34,2.5-1.02.54-.68.81-1.46.81-2.32,0-1-.33-1.75-1-2.24-.67-.5-1.57-.75-2.7-.75h-3.07v6.34h3.46Zm.2,11.81c.84,0,1.6-.11,2.28-.33.68-.22,1.22-.58,1.61-1.06.39-.49.59-1.1.59-1.83,0-.84-.24-1.48-.71-1.91-.47-.43-1.08-.73-1.83-.91-.75-.17-1.53-.26-2.34-.26h-3.27v6.3h3.66Z" style="fill: #fff; stroke-width: 0px;"/>
        <path d="m253.59,79.57l13.07-30.12h.31l13.07,30.12h-6.61l-8.35-21.18,4.13-2.83-10,24.01h-5.63Zm8.94-10.47h8.7l2.01,4.8h-12.48l1.77-4.8Z" style="fill: #fff; stroke-width: 0px;"/>
        <path d="m279.93,50.59h19.53v5.51h-7.05v23.46h-5.71v-23.46h-6.77v-5.51Z" style="fill: #fff; stroke-width: 0px;"/>
        <path d="m303,50.59h19.53v5.51h-7.05v23.46h-5.71v-23.46h-6.77v-5.51Z" style="fill: #fff; stroke-width: 0px;"/>
        <path d="m328.03,50.59h5.71v23.46h13.62v5.51h-19.33v-28.97Z" style="fill: #fff; stroke-width: 0px;"/>
        <path d="m353.27,50.59h19.76v5.51h-14.05v6.18h12.44v5.51h-12.44v6.26h14.6v5.51h-20.31v-28.97Z" style="fill: #fff; stroke-width: 0px;"/>
      </g>
      <path d="m80.11,0c-1.13-.02-2.64.64-4.25,2.25l-22.04,22.04s0,0,0,0l-10.56,10.56h0s-2.23,2.23-2.23,2.23h0s-3.97,3.97-3.97,3.97h0s-2.18,2.18-2.18,2.18h0s-5.41,5.41-5.41,5.41c0,0,0,0,0,0l-9.75,9.75,3.97,3.97L79.82,6.21C83.12,2.91,82.42.04,80.11,0h0ZM1.97.01C-.34.05-1.05,2.92,2.25,6.22l32.58,32.58,3.97-3.97-7.74-7.74s0,0,0,.01L6.21,2.26C4.6.65,3.09,0,1.96.01h0Zm41.11,6.38c-1.63,7.39-2.21,13.9-4.89,21.29-3.79-2.96-5.37-7.27-7.68-11.11.1,1.91.29,3.9.42,5.93l10.11,10.11,13.76-13.76c.23-1.24.47-2.48.71-3.72-3.73,5.05-7.44,7.83-12.51,12.88-1.18-7.96.05-13.66.08-21.62h0ZM11.57,26.08s-.01,0-.01,0c-.05.92,18.3,13.73,16.86,14.65-2.36,1.5-10.16,5.45-14.64,7.87,3.46-.59,9.38-1.39,12.65-1.4l6.21-6.21-11.16-11.16c-4.74-1.79-9.62-3.78-9.92-3.76h0Zm42.97,9.84l-5.1,5.1,9.85,9.84c1.9.13,3.8.25,5.7.21-4.3-2.79-12.62-7.67-12.56-8.86.06-1.21,11.12-3.72,16.74-5.54-4.87-.37-9.81.67-14.63-.75Zm-7.33,7.33l-3.97,3.97,15.15,15.15,3.97-3.97-7.79-7.8h.01l-7.36-7.36h0Zm-6.15,6.15l-10.11,10.11c.07,2.49.04,4.99-.09,7.08,1.98-4.7,3.13-9.09,8.03-13.05,2.53,2.1,4.35,7.06,6.52,10.59-.16-3.34-1.2-9.11-.88-11.25l-3.47-3.47h0Zm-25.31,8.99l-2.23,2.23,7.93,7.93,2.23-2.23-7.93-7.93h0Zm50.57.01l-7.93,7.93h0s2.23,2.23,2.23,2.23l7.93-7.93-2.23-2.23h0Zm-53.67,5.32l-1.74,1.74,5.7,5.7,1.74-1.74-5.7-5.7h0Zm56.77.01l-5.7,5.7,1.74,1.74,5.7-5.7-1.74-1.74h0Zm-60.73,3.96L.01,76.36l5.7,5.7,1.86-1.86,1.88,1.88,3.13-3.13-1.88-1.88,3.69-3.69-1.74-1.74-6.82,6.82-2.23-2.23,6.82-6.82-1.74-1.74h0Zm64.7.01l-1.74,1.74,6.82,6.82-2.23,2.23-6.82-6.82-1.73,1.74,8.67,8.67,5.7-5.7-1.86-1.86,1.88-1.88-3.13-3.13-1.88,1.88-3.69-3.69h0Z" style="fill: #fff; stroke-width: 0px;"/>
    </g>
  </g>
</svg>