<?xml version="1.0" encoding="UTF-8"?>
<svg id="Calque_2" data-name="Calque 2" xmlns="http://www.w3.org/2000/svg" xmlns:xlink="http://www.w3.org/1999/xlink" viewBox="0 0 329.11 83.2">
  <defs>
    <clipPath id="clippath">
      <polygon points="22.14 2.77 7.99 2.77 3.62 10.68 15.07 23.94 26.52 10.68 22.14 2.77" style="fill: none; stroke-width: 0px;"/>
    </clipPath>
    <clipPath id="clippath-1">
      <polygon points="56.25 7.31 45.49 1.27 34.72 7.31 34.72 19.4 45.49 25.44 56.25 19.4 56.25 7.31" style="fill: none; stroke-width: 0px;"/>
    </clipPath>
    <clipPath id="clippath-2">
      <path d="m68.46,23.8h15.08c1.76,0,3.21-1.4,3.21-3.12V6.02c0-1.71-1.44-3.12-3.21-3.12h-15.08c-1.76,0-3.21,1.4-3.21,3.12v14.66c0,1.71,1.44,3.12,3.21,3.12Z" style="fill: none; stroke-width: 0px;"/>
    </clipPath>
    <clipPath id="clippath-3">
      <polygon points="32.11 41.55 45.49 28.55 58.87 41.55 45.49 54.56 32.11 41.55" style="fill: none; stroke-width: 0px;"/>
    </clipPath>
    <clipPath id="clippath-4">
      <polygon points="88.81 52.34 76 30.77 63.19 52.34 88.81 52.34" style="fill: none; stroke-width: 0px;"/>
    </clipPath>
    <clipPath id="clippath-5">
      <polygon points="6.62 48.88 15.07 53.63 23.52 48.88 23.52 34.22 15.07 29.48 6.62 34.22 6.62 48.88" style="fill: none; stroke-width: 0px;"/>
    </clipPath>
    <clipPath id="clippath-6">
      <polygon points="1.95 69.75 15.07 57 28.19 69.75 15.07 82.51 1.95 69.75" style="fill: none; stroke-width: 0px;"/>
    </clipPath>
    <clipPath id="clippath-7">
      <polygon points="37.82 81.22 53.15 81.22 57.89 67.05 45.49 58.28 33.08 67.05 37.82 81.22" style="fill: none; stroke-width: 0px;"/>
    </clipPath>
    <clipPath id="clippath-8">
      <polygon points="71.51 59.22 65.17 65.39 65.17 74.11 71.51 80.29 80.49 80.29 86.83 74.11 86.83 65.39 80.49 59.22 71.51 59.22" style="fill: none; stroke-width: 0px;"/>
    </clipPath>
  </defs>
  <g id="svg19">
    <g>
      <path id="text19" d="m133.35,80.37c-.58.39-1.3.76-2.14,1.12-.81.32-1.69.62-2.63.88-.94.26-1.92.45-2.92.58-.97.16-1.9.24-2.78.24-2.73,0-5.2-.44-7.41-1.32-2.18-.91-4.04-2.14-5.6-3.7-1.56-1.59-2.76-3.43-3.61-5.51-.81-2.11-1.22-4.38-1.22-6.82,0-2.63.45-5.05,1.36-7.26.94-2.21,2.22-4.11,3.85-5.7,1.62-1.62,3.51-2.87,5.65-3.75,2.14-.88,4.42-1.32,6.82-1.32,1.82,0,3.52.23,5.12.68,1.62.45,3.09,1.07,4.38,1.85l-.88,2.14c-.75-.45-1.59-.84-2.53-1.17-.94-.36-1.92-.63-2.92-.83-.97-.19-1.95-.29-2.92-.29-2.21,0-4.25.39-6.14,1.17-1.88.78-3.52,1.87-4.92,3.26-1.4,1.4-2.48,3.04-3.26,4.92-.78,1.88-1.17,3.93-1.17,6.14s.36,4.14,1.07,5.99c.75,1.82,1.79,3.43,3.12,4.82,1.36,1.36,2.99,2.44,4.87,3.22,1.88.75,3.98,1.12,6.28,1.12,1.36,0,2.79-.16,4.29-.49,1.49-.32,2.78-.8,3.85-1.41v-9.6h-7.8v-2.29h10.18v13.3Zm16.71,2.83c-1.82,0-3.48-.41-4.97-1.22-1.46-.84-2.63-2.01-3.51-3.51-.84-1.49-1.27-3.23-1.27-5.21,0-2.11.45-3.91,1.36-5.41.91-1.53,2.14-2.68,3.7-3.46,1.56-.81,3.33-1.22,5.31-1.22,1.69,0,3.28.5,4.77,1.51,1.53,1.01,2.61,2.27,3.26,3.8l-.34.68.29-5.41h2.05v19.05h-2.29v-5.9l.49.88c-.23.65-.62,1.3-1.17,1.95-.55.62-1.23,1.2-2.05,1.75-.78.52-1.66.94-2.63,1.27-.94.29-1.95.44-3.02.44Zm.49-1.95c1.43,0,2.71-.29,3.85-.88,1.17-.62,2.11-1.46,2.83-2.53.71-1.07,1.12-2.31,1.22-3.7v-2.73c-.26-1.2-.78-2.27-1.56-3.22-.75-.94-1.67-1.69-2.78-2.24-1.1-.55-2.31-.83-3.61-.83-1.43,0-2.74.34-3.95,1.02-1.2.65-2.16,1.58-2.87,2.78-.71,1.2-1.07,2.61-1.07,4.24,0,1.49.36,2.86,1.07,4.09.71,1.2,1.67,2.18,2.87,2.92,1.23.71,2.57,1.07,3.99,1.07h0Zm20.85-17.49l.24,5.31-.34-.49c.65-1.66,1.72-2.96,3.22-3.9,1.53-.97,3.18-1.46,4.97-1.46,1.07,0,2.03.21,2.87.63.88.39,1.58.94,2.09,1.66.55.68.88,1.48.97,2.39l-.29.29c.68-1.62,1.75-2.86,3.22-3.7,1.46-.84,3.04-1.27,4.73-1.27,1.82,0,3.26.54,4.34,1.61,1.07,1.04,1.62,2.4,1.66,4.09v13.88h-2.29v-13.4c-.03-1.14-.39-2.09-1.07-2.87-.68-.81-1.72-1.25-3.12-1.32-1.27,0-2.44.32-3.51.97-1.07.65-1.95,1.51-2.63,2.58-.65,1.07-1.01,2.27-1.07,3.61v10.43h-2.29v-13.4c-.03-1.14-.41-2.09-1.12-2.87-.68-.81-1.72-1.25-3.12-1.32-1.3,0-2.5.32-3.61.97-1.07.65-1.93,1.54-2.58,2.68-.65,1.1-.97,2.34-.97,3.7v10.23h-2.29v-19.05h2Zm44.63,19.44c-1.98,0-3.74-.44-5.26-1.32-1.53-.88-2.73-2.06-3.61-3.56-.84-1.53-1.27-3.23-1.27-5.12s.45-3.54,1.36-5.07,2.13-2.74,3.65-3.65c1.56-.91,3.28-1.36,5.16-1.36,2.27,0,4.17.67,5.7,2,1.56,1.33,2.68,3.07,3.36,5.21l-16.66,6.43-.68-1.66,15.25-5.94-.49.68c-.55-1.3-1.4-2.42-2.53-3.36-1.1-.94-2.47-1.41-4.09-1.41-1.46,0-2.78.36-3.95,1.07-1.17.71-2.11,1.67-2.83,2.87-.68,1.2-1.02,2.57-1.02,4.09,0,1.43.32,2.76.97,3.99.68,1.23,1.62,2.22,2.83,2.97s2.58,1.12,4.14,1.12c1.04,0,2.03-.19,2.97-.58.97-.39,1.83-.89,2.58-1.51l1.17,1.66c-.91.71-1.97,1.3-3.17,1.75-1.17.45-2.37.68-3.61.68h0Zm19.93,0c-1.1,0-2.26-.19-3.46-.58-1.2-.42-2.18-1.09-2.92-2l1.07-1.51c.65.68,1.41,1.23,2.29,1.66.91.39,1.87.58,2.87.58.75,0,1.45-.1,2.09-.29.68-.23,1.23-.6,1.66-1.12.42-.52.63-1.22.63-2.09s-.26-1.61-.78-2.09c-.49-.49-1.12-.88-1.9-1.17-.75-.32-1.54-.62-2.39-.88-1.4-.45-2.55-1.07-3.46-1.85-.88-.78-1.32-1.88-1.32-3.31,0-1.04.24-1.95.73-2.73.52-.78,1.22-1.38,2.09-1.8.88-.45,1.87-.68,2.97-.68,1.01,0,2,.16,2.97.49,1.01.32,1.92.88,2.73,1.66l-1.02,1.61c-.52-.71-1.22-1.2-2.09-1.46-.84-.26-1.59-.41-2.24-.44-.55,0-1.14.11-1.75.34-.58.23-1.09.57-1.51,1.02-.39.42-.58.99-.58,1.71,0,.75.21,1.36.63,1.85.42.45.96.83,1.61,1.12.68.29,1.38.57,2.09.83.94.29,1.82.65,2.63,1.07.84.39,1.53.93,2.05,1.61.55.65.83,1.53.83,2.63s-.24,2.11-.73,3.02c-.49.88-1.22,1.58-2.19,2.09-.94.49-2.14.73-3.61.73Z" style="fill: #fff; stroke-width: 0px;"/>
      <path id="text21" d="m136.83,40.44c-.46.38-1.32.9-2.59,1.55-1.23.65-2.74,1.23-4.54,1.72-1.8.5-3.79.73-5.97.69-3.33-.08-6.32-.67-8.96-1.78-2.6-1.15-4.83-2.7-6.66-4.65-1.8-1.95-3.18-4.19-4.14-6.72-.96-2.53-1.44-5.23-1.44-8.1,0-3.22.48-6.17,1.44-8.85,1-2.68,2.39-5,4.19-6.95,1.84-1.95,4.02-3.47,6.55-4.54s5.32-1.61,8.39-1.61c2.83,0,5.34.38,7.53,1.15,2.18.77,3.96,1.59,5.34,2.47l-3.27,7.87c-.96-.73-2.24-1.47-3.85-2.24-1.57-.8-3.39-1.21-5.46-1.21-1.61,0-3.16.34-4.65,1.03-1.46.65-2.76,1.59-3.91,2.81-1.11,1.23-1.99,2.66-2.64,4.31-.65,1.61-.98,3.37-.98,5.29,0,2.03.29,3.89.86,5.57.61,1.69,1.47,3.14,2.59,4.37,1.11,1.19,2.43,2.11,3.96,2.76,1.57.65,3.33.98,5.29.98,2.26,0,4.19-.36,5.8-1.09,1.61-.73,2.83-1.49,3.68-2.3l3.45,7.47Zm3.56,3.5L159.46,0h.46l19.07,43.95h-9.65l-12.18-30.91,6.03-4.14-14.59,35.04h-8.22Zm13.04-15.28h12.7l2.93,7.01h-18.21l2.58-7.01Zm54.29-16.78c-1.61-.88-3.26-1.61-4.94-2.18-1.65-.57-3.2-.86-4.65-.86-1.8,0-3.22.36-4.25,1.09-1.03.73-1.55,1.82-1.55,3.27,0,1,.38,1.9,1.15,2.7.8.77,1.82,1.46,3.04,2.07,1.26.61,2.57,1.17,3.91,1.67,1.23.46,2.43,1.01,3.62,1.67,1.23.61,2.32,1.4,3.27,2.36.96.92,1.72,2.09,2.3,3.5.57,1.38.86,3.08.86,5.11,0,2.14-.56,4.14-1.67,5.97-1.11,1.84-2.74,3.33-4.88,4.48-2.14,1.11-4.79,1.67-7.93,1.67-1.61,0-3.26-.15-4.94-.46-1.65-.34-3.27-.84-4.88-1.49-1.61-.69-3.16-1.55-4.65-2.59l3.68-6.49c1,.73,2.07,1.38,3.22,1.95,1.19.54,2.37.96,3.56,1.26,1.19.31,2.28.46,3.27.46s1.99-.13,2.99-.4c1.03-.31,1.88-.8,2.53-1.49.69-.69,1.03-1.65,1.03-2.87,0-.84-.29-1.61-.86-2.3-.54-.69-1.28-1.32-2.24-1.9-.92-.57-1.93-1.07-3.04-1.49-1.3-.5-2.64-1.07-4.02-1.72-1.38-.65-2.68-1.44-3.91-2.36-1.19-.96-2.16-2.13-2.93-3.5-.73-1.42-1.09-3.14-1.09-5.17,0-2.45.54-4.58,1.61-6.38,1.11-1.8,2.66-3.22,4.65-4.25,1.99-1.07,4.29-1.67,6.89-1.78,3.41,0,6.17.4,8.27,1.21,2.14.8,4.06,1.76,5.74,2.87l-3.16,6.38Zm18.38,16.43c0,1.34.4,2.62,1.21,3.85.8,1.23,1.86,2.22,3.16,2.99,1.34.77,2.8,1.15,4.37,1.15,1.72,0,3.26-.38,4.6-1.15,1.34-.77,2.39-1.76,3.16-2.99.8-1.23,1.21-2.51,1.21-3.85V1.67h8.22v26.83c0,3.1-.77,5.86-2.3,8.27-1.53,2.37-3.6,4.25-6.2,5.63-2.6,1.34-5.5,2.01-8.67,2.01h0c-3.14,0-6.01-.67-8.62-2.01-2.57-1.38-4.61-3.26-6.15-5.63-1.53-2.41-2.3-5.17-2.3-8.27V1.67h8.33v26.66Zm30.05,15.63L275.22,0h.46l19.07,43.95h-9.65l-12.18-30.91,6.03-4.14-14.59,35.04h-8.22Zm13.04-15.28h12.7l2.93,7.01h-18.21l2.58-7.01Zm31.71-27h8.33v34.24h19.88v8.04h-28.21V1.67Z" style="fill: #fff; stroke-width: 0px;"/>
      <g id="OBJECTS">
        <g id="g15">
          <g id="g11">
            <polygon id="polygon7" points="26.52 10.68 22.14 2.77 15.07 10.68 26.52 10.68" style="fill: #fff; stroke-width: 0px;"/>
            <polygon id="polygon8" points="22.14 2.77 7.99 2.77 15.07 10.68 22.14 2.77" style="fill: #fff; stroke-width: 0px;"/>
            <polygon id="polygon9" points="15.07 23.94 26.52 10.68 15.07 10.68 15.07 23.94" style="fill: #fff; stroke-width: 0px;"/>
            <polygon id="polygon10" points="7.99 2.77 3.62 10.68 15.07 10.68 7.99 2.77" style="fill: #fff; stroke-width: 0px;"/>
            <polygon id="polygon11" points="15.07 10.68 3.62 10.68 15.07 23.94 15.07 10.68" style="fill: #fff; stroke-width: 0px;"/>
          </g>
          <g id="g14">
            <g style="clip-path: url(#clippath);">
              <g id="g13">
                <g id="g12">
                  <polygon id="rect11" points="3.65 10.9 24.86 3.91 26.36 8.2 5.14 15.19 3.65 10.9" style="fill: #fff; stroke-width: 0px;"/>
                  <polygon id="rect12" points="2.98 17.57 29.28 8.9 30.13 11.33 3.82 20 2.98 17.57" style="fill: #fff; isolation: isolate; opacity: .5; stroke-width: 0px;"/>
                </g>
              </g>
            </g>
            <path id="path13" d="m22.07,6.87c-1.36,0-2.46,1.07-2.46,2.39,0-1.32-1.1-2.39-2.46-2.39,1.36,0,2.46-1.07,2.46-2.39,0,1.32,1.1,2.39,2.46,2.39Z" style="fill: #fff; isolation: isolate; opacity: .6; stroke-width: 0px;"/>
            <path id="path14" d="m12.11,12.14c-1.36,0-2.46,1.07-2.46,2.39,0-1.32-1.1-2.39-2.46-2.39,1.36,0,2.46-1.07,2.46-2.39,0,1.32,1.1,2.39,2.46,2.39Z" style="fill: #fff; isolation: isolate; opacity: .6; stroke-width: 0px;"/>
          </g>
        </g>
        <g id="g25">
          <g id="g24">
            <g id="g21">
              <polygon id="polygon15" points="45.49 20.08 39.5 16.72 34.72 19.4 45.49 25.44 45.49 20.08" style="fill: #fff; stroke-width: 0px;"/>
              <polygon id="polygon16" points="45.49 6.63 45.49 1.27 34.72 7.31 39.5 9.99 45.49 6.63" style="fill: #fff; stroke-width: 0px;"/>
              <polygon id="polygon17" points="45.49 20.08 45.49 25.44 56.25 19.4 51.48 16.72 45.49 20.08" style="fill: #fff; stroke-width: 0px;"/>
              <polygon id="polygon18" points="39.5 9.99 34.72 7.31 34.72 19.4 39.5 16.72 39.5 9.99" style="fill: #fff; stroke-width: 0px;"/>
              <polygon id="polygon19" points="51.48 16.72 56.25 19.4 56.25 7.31 51.48 9.99 51.48 16.72" style="fill: #fff; stroke-width: 0px;"/>
              <polygon id="polygon20" points="51.48 9.99 56.25 7.31 45.49 1.27 45.49 6.63 51.48 9.99" style="fill: #fff; stroke-width: 0px;"/>
              <polygon id="polygon21" points="51.48 9.99 45.49 6.63 39.5 9.99 39.5 16.72 45.49 20.08 51.48 16.72 51.48 9.99" style="fill: #fff; stroke-width: 0px;"/>
            </g>
            <g style="clip-path: url(#clippath-1);">
              <g id="g23">
                <g id="g22">
                  <polygon id="rect21" points="31.32 13.45 55.82 5.38 57.55 10.34 33.05 18.41 31.32 13.45" style="fill: #fff; stroke-width: 0px;"/>
                  <polygon id="rect22" points="30.55 21.16 60.93 11.15 61.91 13.95 31.52 23.96 30.55 21.16" style="fill: #fff; isolation: isolate; opacity: .5; stroke-width: 0px;"/>
                </g>
              </g>
            </g>
          </g>
          <path id="path24" d="m54.05,9.4c-1.57,0-2.85,1.24-2.85,2.77,0-1.53-1.27-2.77-2.85-2.77,1.57,0,2.85-1.24,2.85-2.77,0,1.53,1.27,2.77,2.85,2.77Z" style="fill: #fff; isolation: isolate; opacity: .6; stroke-width: 0px;"/>
          <path id="path25" d="m42.34,16.88c-1.57,0-2.85,1.24-2.85,2.77,0-1.53-1.27-2.77-2.85-2.77,1.57,0,2.85-1.24,2.85-2.77,0,1.53,1.27,2.77,2.85,2.77Z" style="fill: #fff; isolation: isolate; opacity: .6; stroke-width: 0px;"/>
        </g>
        <g id="g35">
          <g id="g34">
            <g id="g30">
              <path id="path26" d="m68.46,2.91c-1.76,0-3.21,1.4-3.21,3.12l4.4,1.16-1.19-4.27Z" style="fill: #fff; stroke-width: 0px;"/>
              <path id="path27" d="m83.54,23.8c1.76,0,3.21-1.4,3.21-3.12l-4.4-1.16,1.19,4.27Z" style="fill: #fff; stroke-width: 0px;"/>
              <polygon id="polygon27" points="82.35 19.53 86.75 20.69 86.75 6.02 82.35 7.18 82.35 19.53" style="fill: #fff; stroke-width: 0px;"/>
              <polygon id="polygon28" points="82.35 7.18 83.54 2.91 68.46 2.91 69.65 7.18 82.35 7.18" style="fill: #fff; stroke-width: 0px;"/>
              <path id="path28" d="m68.46,23.8l1.19-4.27-4.4.89v.27c0,1.71,1.44,3.12,3.21,3.12Z" style="fill: #fff; stroke-width: 0px;"/>
              <polygon id="polygon29" points="69.65 7.18 65.25 6.02 65.25 20.42 69.65 19.53 69.65 7.18" style="fill: #fff; stroke-width: 0px;"/>
              <path id="path29" d="m86.75,6.02c0-1.71-1.44-3.12-3.21-3.12l-1.19,4.27,4.4-1.16Z" style="fill: #fff; stroke-width: 0px;"/>
              <polygon id="polygon30" points="69.65 19.53 68.46 23.8 83.54 23.8 82.35 19.53 69.65 19.53" style="fill: #fff; stroke-width: 0px;"/>
              <rect id="rect30" x="69.65" y="7.18" width="12.7" height="12.35" style="fill: #fff; stroke-width: 0px;"/>
            </g>
            <g style="clip-path: url(#clippath-2);">
              <g id="g33">
                <g id="g32">
                  <polygon id="rect31" points="62.96 13.68 87.81 5.49 89.31 9.8 64.46 17.99 62.96 13.68" style="fill: #fff; stroke-width: 0px;"/>
                  <polygon id="rect32" points="61.84 20.53 92.65 10.37 93.5 12.81 62.69 22.96 61.84 20.53" style="fill: #fff; isolation: isolate; opacity: .5; stroke-width: 0px;"/>
                </g>
              </g>
            </g>
          </g>
          <path id="path34" d="m84.97,7.2c-1.37,0-2.47,1.08-2.47,2.4,0-1.33-1.11-2.4-2.47-2.4,1.37,0,2.47-1.08,2.47-2.4,0,1.33,1.11,2.4,2.47,2.4Z" style="fill: #fff; isolation: isolate; opacity: .6; stroke-width: 0px;"/>
          <path id="path35" d="m72.8,13.92c-1.37,0-2.47,1.08-2.47,2.4,0-1.33-1.11-2.4-2.47-2.4,1.37,0,2.47-1.08,2.47-2.4,0,1.33,1.11,2.4,2.47,2.4Z" style="fill: #fff; isolation: isolate; opacity: .6; stroke-width: 0px;"/>
        </g>
        <g id="g43">
          <g id="g42">
            <g id="g38">
              <polygon id="polygon35" points="45.49 48.35 45.49 54.56 58.87 41.55 52.48 41.55 45.49 48.35" style="fill: #fff; stroke-width: 0px;"/>
              <polygon id="polygon36" points="52.48 41.55 58.87 41.55 45.49 28.55 45.49 34.76 52.48 41.55" style="fill: #fff; stroke-width: 0px;"/>
              <polygon id="polygon37" points="45.49 48.35 38.5 41.55 32.11 41.55 45.49 54.56 45.49 48.35" style="fill: #fff; stroke-width: 0px;"/>
              <polygon id="polygon38" points="45.49 34.76 45.49 28.55 32.11 41.55 38.5 41.55 45.49 34.76" style="fill: #fff; stroke-width: 0px;"/>
              <polygon id="rect38" points="38.5 41.55 45.49 34.76 52.47 41.55 45.49 48.35 38.5 41.55" style="fill: #fff; stroke-width: 0px;"/>
            </g>
            <g style="clip-path: url(#clippath-3);">
              <g id="g41">
                <g id="g40">
                  <polygon id="rect39" points="30.89 42.1 58.59 32.97 60.26 37.78 32.56 46.9 30.89 42.1" style="fill: #fff; stroke-width: 0px;"/>
                  <polygon id="rect40" points="29.64 49.73 63.99 38.41 64.94 41.13 30.59 52.45 29.64 49.73" style="fill: #fff; isolation: isolate; opacity: .5; stroke-width: 0px;"/>
                </g>
              </g>
            </g>
          </g>
          <path id="path42" d="m51.03,37.17c-1.52,0-2.76,1.2-2.76,2.68,0-1.48-1.23-2.68-2.76-2.68,1.52,0,2.76-1.2,2.76-2.68,0,1.48,1.23,2.68,2.76,2.68Z" style="fill: #fff; isolation: isolate; opacity: .6; stroke-width: 0px;"/>
          <path id="path43" d="m44.71,45.68c-1.52,0-2.76,1.2-2.76,2.68,0-1.48-1.23-2.68-2.76-2.68,1.52,0,2.76-1.2,2.76-2.68,0,1.48,1.23,2.68,2.76,2.68Z" style="fill: #fff; isolation: isolate; opacity: .6; stroke-width: 0px;"/>
        </g>
        <g id="g50">
          <g id="g49">
            <g id="g46">
              <g id="g44">
                <polygon id="polygon43" points="63.19 52.34 69.61 48.74 76 37.97 76 30.77 63.19 52.34" style="fill: #fff; stroke-width: 0px;"/>
                <polygon id="polygon44" points="76 30.77 76 37.97 82.39 48.74 88.81 52.34 76 30.77" style="fill: #fff; stroke-width: 0px;"/>
              </g>
              <polygon id="polygon45" points="69.61 48.74 63.19 52.34 88.81 52.34 82.39 48.74 69.61 48.74" style="fill: #fff; stroke-width: 0px;"/>
              <polygon id="polygon46" points="76 37.97 69.61 48.74 82.39 48.74 76 37.97" style="fill: #fff; stroke-width: 0px;"/>
            </g>
            <g style="clip-path: url(#clippath-4);">
              <g id="g48">
                <g id="g47">
                  <polygon id="rect46" points="60.21 45.32 89.45 35.69 91.22 40.76 61.98 50.39 60.21 45.32" style="fill: #fff; stroke-width: 0px;"/>
                  <polygon id="rect47" points="58.89 53.38 95.15 41.43 96.15 44.3 59.89 56.25 58.89 53.38" style="fill: #fff; isolation: isolate; opacity: .5; stroke-width: 0px;"/>
                </g>
              </g>
            </g>
          </g>
          <path id="path49" d="m80.42,40.15c-1.61,0-2.91,1.27-2.91,2.83,0-1.56-1.3-2.83-2.91-2.83,1.61,0,2.91-1.27,2.91-2.83,0,1.56,1.3,2.83,2.91,2.83Z" style="fill: #fff; isolation: isolate; opacity: .6; stroke-width: 0px;"/>
          <path id="path50" d="m74.14,48.74c-1.61,0-2.91,1.27-2.91,2.83,0-1.56-1.3-2.83-2.91-2.83,1.61,0,2.91-1.27,2.91-2.83,0,1.56,1.3,2.83,2.91,2.83Z" style="fill: #fff; isolation: isolate; opacity: .6; stroke-width: 0px;"/>
        </g>
        <g id="g60">
          <g id="g59">
            <g id="g56">
              <polygon id="polygon50" points="20.79 46.51 23.52 48.88 23.52 34.22 20.79 36.6 20.79 46.51" style="fill: #fff; stroke-width: 0px;"/>
              <polygon id="polygon51" points="15.07 49.72 15.07 53.63 23.52 48.88 20.79 46.51 15.07 49.72" style="fill: #fff; stroke-width: 0px;"/>
              <g id="g53">
                <polygon id="polygon52" points="6.62 48.88 9.35 46.51 9.35 36.6 6.62 34.22 6.62 48.88" style="fill: #fff; stroke-width: 0px;"/>
                <polygon id="polygon53" points="6.62 34.22 9.35 36.6 15.07 33.39 15.07 29.48 6.62 34.22" style="fill: #fff; stroke-width: 0px;"/>
              </g>
              <polygon id="polygon54" points="9.35 46.51 6.62 48.88 15.07 53.63 15.07 49.72 9.35 46.51" style="fill: #fff; stroke-width: 0px;"/>
              <polygon id="polygon55" points="15.07 33.39 20.79 36.6 23.52 34.22 15.07 29.48 15.07 33.39" style="fill: #fff; stroke-width: 0px;"/>
              <polygon id="polygon56" points="9.35 46.51 15.07 49.72 20.79 46.51 20.79 36.6 15.07 33.39 9.35 36.6 9.35 46.51" style="fill: #fff; stroke-width: 0px;"/>
            </g>
            <g style="clip-path: url(#clippath-5);">
              <g id="g58">
                <g id="g57">
                  <polygon id="rect56" points="1.43 42.38 26.18 34.22 27.68 38.52 2.93 46.67 1.43 42.38" style="fill: #fff; stroke-width: 0px;"/>
                  <polygon id="rect57" points=".32 49.2 31.01 39.08 31.86 41.51 1.16 51.62 .32 49.2" style="fill: #fff; isolation: isolate; opacity: .5; stroke-width: 0px;"/>
                </g>
              </g>
            </g>
          </g>
          <path id="path59" d="m22.58,36.42c-1.36,0-2.46,1.07-2.46,2.39,0-1.32-1.1-2.39-2.46-2.39,1.36,0,2.46-1.07,2.46-2.39,0,1.32,1.1,2.39,2.46,2.39Z" style="fill: #fff; isolation: isolate; opacity: .6; stroke-width: 0px;"/>
          <path id="path60" d="m13.75,45.48c-1.36,0-2.46,1.07-2.46,2.39,0-1.32-1.1-2.39-2.46-2.39,1.36,0,2.46-1.07,2.46-2.39,0,1.32,1.1,2.39,2.46,2.39Z" style="fill: #fff; isolation: isolate; opacity: .6; stroke-width: 0px;"/>
        </g>
        <g id="g72">
          <g id="g71">
            <g id="g67">
              <polygon id="polygon60" points="19.56 74.12 28.19 69.75 19.56 65.39 19.56 74.12" style="fill: #fff; stroke-width: 0px;"/>
              <polygon id="polygon61" points="10.58 74.12 15.07 82.51 19.56 74.12 10.58 74.12" style="fill: #fff; stroke-width: 0px;"/>
              <polygon id="polygon62" points="1.95 69.75 15.07 82.51 10.58 74.12 1.95 69.75" style="fill: #fff; stroke-width: 0px;"/>
              <polygon id="polygon63" points="19.56 65.39 28.19 69.75 15.07 57 19.56 65.39" style="fill: #fff; stroke-width: 0px;"/>
              <polygon id="polygon64" points="15.07 82.51 28.19 69.75 19.56 74.12 15.07 82.51" style="fill: #fff; stroke-width: 0px;"/>
              <polygon id="polygon65" points="19.56 65.39 15.07 57 10.58 65.39 19.56 65.39" style="fill: #fff; stroke-width: 0px;"/>
              <polygon id="polygon66" points="15.07 57 1.95 69.75 10.58 65.39 15.07 57" style="fill: #fff; stroke-width: 0px;"/>
              <polygon id="polygon67" points="10.58 65.39 1.95 69.75 10.58 74.12 10.58 65.39" style="fill: #fff; stroke-width: 0px;"/>
              <rect id="rect67" x="10.58" y="65.39" width="8.98" height="8.73" style="fill: #fff; stroke-width: 0px;"/>
            </g>
            <g style="clip-path: url(#clippath-6);">
              <g id="g70">
                <g id="g69">
                  <polygon id="rect68" points="1.21 70.26 24.9 62.45 26.23 66.27 2.54 74.08 1.21 70.26" style="fill: #fff; stroke-width: 0px;"/>
                  <polygon id="rect69" points="0 76.39 29.39 66.71 30.14 68.87 .75 78.55 0 76.39" style="fill: #fff; isolation: isolate; opacity: .5; stroke-width: 0px;"/>
                </g>
              </g>
            </g>
          </g>
          <path id="path71" d="m21.37,65.85c-1.21,0-2.19.95-2.19,2.13,0-1.18-.98-2.13-2.19-2.13,1.21,0,2.19-.95,2.19-2.13,0,1.18.98,2.13,2.19,2.13Z" style="fill: #fff; isolation: isolate; opacity: .6; stroke-width: 0px;"/>
          <path id="path72" d="m13.5,73.65c-1.21,0-2.19.95-2.19,2.13,0-1.18-.98-2.13-2.19-2.13,1.21,0,2.19-.95,2.19-2.13,0,1.18.98,2.13,2.19,2.13Z" style="fill: #fff; isolation: isolate; opacity: .6; stroke-width: 0px;"/>
        </g>
        <g id="g86">
          <g id="g85">
            <g id="g82">
              <polygon id="polygon72" points="53.15 81.22 57.89 67.05 51.76 72.95 53.15 81.22" style="fill: #fff; stroke-width: 0px;"/>
              <polygon id="polygon73" points="49.37 65.77 57.89 67.05 45.49 58.28 49.37 65.77" style="fill: #fff; stroke-width: 0px;"/>
              <polygon id="polygon74" points="33.08 67.05 37.82 81.22 39.21 72.95 33.08 67.05" style="fill: #fff; stroke-width: 0px;"/>
              <polygon id="polygon75" points="49.37 65.77 45.49 58.28 41.61 65.77 49.37 65.77" style="fill: #fff; stroke-width: 0px;"/>
              <polygon id="polygon76" points="39.21 72.95 37.82 81.22 45.49 77.38 39.21 72.95" style="fill: #fff; stroke-width: 0px;"/>
              <polygon id="polygon77" points="41.61 65.77 33.08 67.05 39.21 72.95 41.61 65.77" style="fill: #fff; stroke-width: 0px;"/>
              <polygon id="polygon78" points="45.49 58.28 33.08 67.05 41.61 65.77 45.49 58.28" style="fill: #fff; stroke-width: 0px;"/>
              <polygon id="polygon79" points="37.82 81.22 53.15 81.22 45.49 77.38 37.82 81.22" style="fill: #fff; stroke-width: 0px;"/>
              <polygon id="polygon80" points="51.76 72.95 57.89 67.05 49.37 65.77 51.76 72.95" style="fill: #fff; stroke-width: 0px;"/>
              <polygon id="polygon81" points="45.49 77.38 53.15 81.22 51.76 72.95 45.49 77.38" style="fill: #fff; stroke-width: 0px;"/>
              <polygon id="polygon82" points="51.76 72.95 49.37 65.77 41.61 65.77 39.21 72.95 45.49 77.38 51.76 72.95" style="fill: #fff; stroke-width: 0px;"/>
            </g>
            <g style="clip-path: url(#clippath-7);">
              <g id="g84">
                <g id="g83">
                  <polygon id="rect82" points="28.43 71.65 56.44 62.43 58.01 66.94 30 76.16 28.43 71.65" style="fill: #fff; stroke-width: 0px;"/>
                  <polygon id="rect83" points="27.01 78.9 61.74 67.46 62.63 70.01 27.9 81.45 27.01 78.9" style="fill: #fff; isolation: isolate; opacity: .5; stroke-width: 0px;"/>
                </g>
              </g>
            </g>
          </g>
          <path id="path85" d="m45.56,65.77c-1.43,0-2.59,1.13-2.59,2.52,0-1.39-1.16-2.52-2.59-2.52,1.43,0,2.59-1.13,2.59-2.52,0,1.39,1.16,2.52,2.59,2.52Z" style="fill: #fff; isolation: isolate; opacity: .6; stroke-width: 0px;"/>
          <path id="path86" d="m52.73,75.95c-1.43,0-2.59,1.13-2.59,2.52,0-1.39-1.16-2.52-2.59-2.52,1.43,0,2.59-1.13,2.59-2.52,0,1.39,1.16,2.52,2.59,2.52Z" style="fill: #fff; isolation: isolate; opacity: .6; stroke-width: 0px;"/>
        </g>
        <g id="g98">
          <g id="g97">
            <g id="g94">
              <polygon id="polygon86" points="82.24 67.24 86.83 65.39 80.49 59.22 78.58 63.69 82.24 67.24" style="fill: #fff; stroke-width: 0px;"/>
              <polygon id="polygon87" points="82.24 67.24 82.24 72.26 86.83 74.11 86.83 65.39 82.24 67.24" style="fill: #fff; stroke-width: 0px;"/>
              <polygon id="polygon88" points="73.42 75.81 71.51 80.29 80.49 80.29 78.58 75.81 73.42 75.81" style="fill: #fff; stroke-width: 0px;"/>
              <polygon id="polygon89" points="73.42 63.69 71.51 59.22 65.17 65.39 69.77 67.24 73.42 63.69" style="fill: #fff; stroke-width: 0px;"/>
              <polygon id="polygon90" points="78.58 63.69 80.49 59.22 71.51 59.22 73.42 63.69 78.58 63.69" style="fill: #fff; stroke-width: 0px;"/>
              <polygon id="polygon91" points="69.77 67.24 65.17 65.39 65.17 74.11 69.77 72.26 69.77 67.24" style="fill: #fff; stroke-width: 0px;"/>
              <polygon id="polygon92" points="78.58 75.81 80.49 80.29 86.83 74.11 82.24 72.26 78.58 75.81" style="fill: #fff; stroke-width: 0px;"/>
              <polygon id="polygon93" points="69.77 72.26 65.17 74.11 71.51 80.29 73.42 75.81 69.77 72.26" style="fill: #fff; stroke-width: 0px;"/>
              <polygon id="polygon94" points="78.58 75.81 82.24 72.26 82.24 67.24 78.58 63.69 73.42 63.69 69.77 67.24 69.77 72.26 73.42 75.81 78.58 75.81" style="fill: #fff; stroke-width: 0px;"/>
            </g>
            <g style="clip-path: url(#clippath-8);">
              <g id="g96">
                <g id="g95">
                  <polygon id="rect94" points="62.12 70.39 88.63 61.66 90.12 65.93 63.61 74.66 62.12 70.39" style="fill: #fff; stroke-width: 0px;"/>
                  <polygon id="rect95" points="60.77 77.25 93.65 66.42 94.49 68.84 61.61 79.67 60.77 77.25" style="fill: #fff; isolation: isolate; opacity: .5; stroke-width: 0px;"/>
                </g>
              </g>
            </g>
          </g>
          <path id="path97" d="m81.03,64.48c-1.35,0-2.45,1.07-2.45,2.38,0-1.32-1.1-2.38-2.45-2.38,1.35,0,2.45-1.07,2.45-2.38,0,1.32,1.1,2.38,2.45,2.38Z" style="fill: #fff; isolation: isolate; opacity: .6; stroke-width: 0px;"/>
          <path id="path98" d="m75.36,74.64c-1.35,0-2.45,1.07-2.45,2.38,0-1.32-1.1-2.38-2.45-2.38,1.35,0,2.45-1.07,2.45-2.38,0,1.32,1.1,2.38,2.45,2.38Z" style="fill: #fff; isolation: isolate; opacity: .6; stroke-width: 0px;"/>
        </g>
      </g>
    </g>
  </g>
</svg>