<?xml version="1.0" encoding="UTF-8"?>
<svg id="Calque_2" data-name="Calque 2" xmlns="http://www.w3.org/2000/svg" viewBox="0 0 331.16 81.36">
  <g id="svg19">
    <g>
      <g>
        <path d="m125.3,7.38c-.99-.48-2.2-.92-3.63-1.34-1.43-.41-2.86-.62-4.29-.62-2.23,0-4.01.56-5.34,1.67s-2,2.51-2,4.2c0,1.27.38,2.33,1.14,3.17.76.84,1.77,1.56,3.01,2.15,1.24.59,2.56,1.15,3.96,1.69,1.11.41,2.22.88,3.32,1.38s2.09,1.13,2.98,1.86c.89.73,1.6,1.64,2.12,2.72.53,1.08.79,2.42.79,4.01,0,1.88-.45,3.54-1.34,4.99s-2.13,2.57-3.72,3.36c-1.59.79-3.44,1.19-5.54,1.19-1.69,0-3.22-.21-4.61-.62s-2.59-.9-3.63-1.46-1.85-1.03-2.46-1.41l1.1-1.91c.7.51,1.55,1.02,2.55,1.53,1,.51,2.09.94,3.27,1.29,1.18.35,2.35.53,3.53.53,1.37,0,2.7-.27,3.98-.81,1.29-.54,2.35-1.36,3.2-2.46s1.26-2.49,1.26-4.18-.4-2.93-1.19-3.94c-.8-1-1.81-1.82-3.05-2.46-1.24-.64-2.56-1.21-3.96-1.72-1.08-.41-2.16-.85-3.25-1.31-1.08-.46-2.07-1.02-2.96-1.67-.89-.65-1.6-1.44-2.12-2.36-.53-.92-.79-2.04-.79-3.34,0-1.62.41-3.04,1.24-4.25.83-1.21,1.95-2.16,3.36-2.84,1.42-.68,3.03-1.04,4.84-1.07,1.59,0,3.2.21,4.84.62,1.64.41,3.06.94,4.27,1.58l-.91,1.81Z" style="fill: #fff; stroke-width: 0px;"/>
        <path d="m134.46,11.92c0-.45.17-.82.53-1.12.35-.3.73-.45,1.14-.45.45,0,.83.15,1.15.45.32.3.48.68.48,1.12,0,.48-.16.87-.48,1.17-.32.3-.7.45-1.15.45-.41,0-.79-.16-1.14-.48-.35-.32-.53-.7-.53-1.15Zm.48,6.87h2.24v18.66h-2.24v-18.66Z" style="fill: #fff; stroke-width: 0px;"/>
        <path d="m147.63,18.79l.24,5.2-.33-.48c.64-1.62,1.69-2.9,3.17-3.84,1.48-.94,3.09-1.41,4.84-1.41,1.05,0,2,.2,2.84.6.84.4,1.53.94,2.05,1.62.53.68.83,1.47.93,2.36l-.29.29c.67-1.59,1.72-2.8,3.15-3.63,1.43-.83,2.97-1.24,4.63-1.24,1.78,0,3.2.52,4.25,1.55,1.05,1.03,1.59,2.38,1.62,4.03v13.6h-2.24v-13.12c-.03-1.11-.38-2.06-1.05-2.84-.67-.78-1.69-1.2-3.05-1.26-1.24,0-2.39.32-3.44.96s-1.9,1.48-2.55,2.53c-.65,1.05-1.01,2.23-1.07,3.53v10.21h-2.24v-13.12c-.03-1.11-.39-2.06-1.07-2.84-.68-.78-1.71-1.2-3.08-1.26-1.27,0-2.44.32-3.51.96-1.07.64-1.92,1.5-2.55,2.6-.64,1.1-.96,2.31-.96,3.65v10.02h-2.24v-18.66h1.96Z" style="fill: #fff; stroke-width: 0px;"/>
        <path d="m189.1,37.97c-1.75,0-3.15-.52-4.2-1.55-1.05-1.03-1.61-2.38-1.67-4.03v-13.6h2.24v12.93c.06,1.21.45,2.21,1.17,3.01.72.8,1.79,1.22,3.22,1.29,1.21,0,2.34-.32,3.39-.95,1.05-.64,1.9-1.5,2.55-2.6s.98-2.35.98-3.75v-9.93h2.24v18.66h-2l-.24-5.87.33,1.29c-.32.96-.88,1.82-1.69,2.6-.81.78-1.77,1.39-2.86,1.84-1.1.44-2.25.67-3.46.67Z" style="fill: #fff; stroke-width: 0px;"/>
        <path d="m207.52,1.18h2.24v36.27h-2.24V1.18Z" style="fill: #fff; stroke-width: 0px;"/>
        <path d="m225.99,37.83c-1.78,0-3.4-.41-4.84-1.22-1.45-.81-2.59-1.95-3.44-3.41-.84-1.46-1.26-3.17-1.26-5.11,0-2.07.45-3.84,1.34-5.32.89-1.48,2.1-2.61,3.63-3.39,1.53-.78,3.26-1.17,5.2-1.17,1.65,0,3.22.49,4.7,1.48,1.48.99,2.54,2.23,3.17,3.72l-.33.67.29-5.3h2v18.66h-2.24v-5.77l.48.86c-.22.64-.6,1.26-1.14,1.88-.54.62-1.2,1.19-1.98,1.72-.78.53-1.64.94-2.58,1.24-.94.3-1.93.45-2.98.45Zm.48-1.91c1.4,0,2.66-.29,3.79-.88s2.04-1.41,2.74-2.46c.7-1.05,1.1-2.26,1.19-3.63v-2.67c-.26-1.18-.76-2.23-1.5-3.15-.75-.92-1.66-1.65-2.74-2.2-1.08-.54-2.26-.81-3.53-.81-1.4,0-2.69.33-3.87.98-1.18.65-2.12,1.57-2.82,2.74-.7,1.18-1.05,2.56-1.05,4.15,0,1.46.35,2.79,1.05,3.98.7,1.19,1.65,2.15,2.84,2.86,1.19.72,2.49,1.07,3.89,1.07Z" style="fill: #fff; stroke-width: 0px;"/>
        <path d="m246.79,10.58h2.29v8.45h5.77v1.81h-5.77v16.61h-2.29v-16.61h-3.96v-1.81h3.96v-8.45Z" style="fill: #fff; stroke-width: 0px;"/>
        <path d="m259.96,11.92c0-.45.17-.82.53-1.12.35-.3.73-.45,1.15-.45.44,0,.83.15,1.14.45s.48.68.48,1.12c0,.48-.16.87-.48,1.17-.32.3-.7.45-1.14.45-.41,0-.8-.16-1.15-.48-.35-.32-.53-.7-.53-1.15Zm.48,6.87h2.24v18.66h-2.24v-18.66Z" style="fill: #fff; stroke-width: 0px;"/>
        <path d="m269.36,28c0-1.81.44-3.47,1.31-4.96.87-1.5,2.07-2.68,3.58-3.55,1.51-.88,3.2-1.31,5.08-1.31s3.61.44,5.11,1.31,2.67,2.06,3.53,3.55c.86,1.5,1.29,3.15,1.29,4.96s-.43,3.47-1.29,4.96c-.86,1.5-2.04,2.68-3.55,3.55-1.51.88-3.21,1.31-5.08,1.31s-3.61-.42-5.11-1.26c-1.5-.84-2.68-2-3.55-3.48-.88-1.48-1.31-3.17-1.31-5.08Zm2.24.05c0,1.46.34,2.79,1.03,3.98.68,1.19,1.61,2.14,2.77,2.84s2.46,1.05,3.89,1.05,2.73-.35,3.89-1.05,2.08-1.65,2.77-2.84c.68-1.19,1.03-2.52,1.03-3.98s-.34-2.79-1.03-3.98c-.68-1.19-1.61-2.15-2.77-2.86s-2.46-1.07-3.89-1.07-2.78.37-3.94,1.12c-1.16.75-2.08,1.73-2.74,2.93s-1,2.5-1,3.87Z" style="fill: #fff; stroke-width: 0px;"/>
        <path d="m297.9,18.79l.24,5.87-.29-1.15c.54-1.62,1.57-2.9,3.08-3.84,1.51-.94,3.19-1.41,5.03-1.41,1.75,0,3.17.52,4.25,1.55,1.08,1.03,1.64,2.38,1.67,4.03v13.6h-2.29v-12.98c-.03-1.21-.41-2.21-1.15-3.01s-1.8-1.21-3.2-1.24c-1.24,0-2.4.3-3.48.91s-1.95,1.45-2.6,2.53c-.65,1.08-.98,2.34-.98,3.77v10.02h-2.24v-18.66h1.96Z" style="fill: #fff; stroke-width: 0px;"/>
        <path d="m324.76,37.83c-1.08,0-2.21-.2-3.39-.6-1.18-.4-2.13-1.04-2.86-1.93l1.05-1.48c.64.67,1.39,1.2,2.27,1.6s1.81.6,2.79.6c.73,0,1.42-.1,2.08-.31s1.19-.56,1.6-1.07c.41-.51.62-1.19.62-2.05s-.25-1.57-.74-2.05-1.11-.87-1.86-1.17c-.75-.3-1.54-.58-2.36-.83-1.37-.45-2.49-1.05-3.36-1.81-.88-.76-1.31-1.84-1.31-3.25,0-1.02.25-1.91.74-2.67.49-.76,1.17-1.36,2.03-1.79.86-.43,1.83-.64,2.91-.64.99,0,1.96.16,2.93.48.97.32,1.85.86,2.65,1.62l-1,1.57c-.51-.7-1.19-1.18-2.03-1.43-.84-.25-1.58-.4-2.22-.43-.54,0-1.11.11-1.69.33-.59.22-1.08.55-1.48.98s-.6,1-.6,1.69.21,1.33.62,1.79c.41.46.95.83,1.6,1.12.65.29,1.33.56,2.03.81.92.29,1.79.63,2.6,1.03.81.4,1.48.92,2,1.57.53.65.79,1.52.79,2.6s-.24,2.06-.72,2.94c-.48.88-1.19,1.56-2.12,2.05-.94.49-2.12.74-3.56.74Z" style="fill: #fff; stroke-width: 0px;"/>
      </g>
      <g>
        <path d="m125.91,53.72c-1.35-.74-2.73-1.35-4.14-1.84-1.4-.48-2.72-.73-3.94-.73-1.52,0-2.71.31-3.58.92-.87.61-1.31,1.53-1.31,2.76,0,.84.33,1.59.99,2.25s1.52,1.25,2.56,1.77c1.05.52,2.14.98,3.27,1.4,1.03.39,2.06.85,3.07,1.38,1.02.53,1.93,1.19,2.73,1.98.81.79,1.45,1.77,1.94,2.95.48,1.18.73,2.62.73,4.33,0,1.81-.47,3.48-1.4,5.03s-2.31,2.8-4.11,3.75c-1.81.95-4.03,1.43-6.68,1.43-1.36,0-2.73-.14-4.14-.41-1.4-.27-2.78-.69-4.14-1.26-1.35-.56-2.66-1.28-3.92-2.15l3.1-5.47c.84.61,1.75,1.15,2.73,1.62.98.47,1.98.83,2.98,1.09,1,.26,1.92.39,2.76.39s1.68-.12,2.54-.36c.85-.24,1.56-.65,2.13-1.23.56-.58.85-1.39.85-2.42,0-.71-.23-1.35-.7-1.94-.47-.58-1.1-1.11-1.89-1.6-.79-.48-1.65-.9-2.59-1.26-1.1-.42-2.23-.9-3.39-1.45-1.16-.55-2.25-1.22-3.27-2.01-1.02-.79-1.84-1.77-2.47-2.95-.63-1.18-.94-2.62-.94-4.33,0-2.06.46-3.85,1.38-5.37.92-1.52,2.22-2.72,3.89-3.6,1.68-.89,3.61-1.38,5.81-1.48,2.87,0,5.2.34,6.99,1.02s3.39,1.48,4.81,2.42l-2.66,5.37Z" style="fill: #fff; stroke-width: 0px;"/>
        <path d="m145.9,45.1c2.94,0,5.42.49,7.45,1.48s3.58,2.37,4.65,4.16c1.06,1.79,1.6,3.91,1.6,6.36,0,1.45-.22,2.91-.65,4.38s-1.13,2.8-2.08,3.99-2.23,2.15-3.82,2.88-3.56,1.09-5.88,1.09h-5.03v11.27h-7.02v-35.61h10.79Zm1.21,17.51c1.06,0,1.95-.19,2.66-.56.71-.37,1.27-.84,1.67-1.4.4-.56.69-1.15.87-1.77.18-.61.27-1.14.27-1.6,0-.35-.06-.83-.17-1.43-.11-.6-.35-1.2-.7-1.81-.36-.61-.9-1.13-1.62-1.55s-1.7-.63-2.93-.63h-5.03v10.74h4.98Z" style="fill: #fff; stroke-width: 0px;"/>
        <path d="m158.24,80.71l16.06-37.01h.39l16.06,37.01h-8.13l-10.26-26.03,5.08-3.48-12.29,29.51h-6.92Zm10.98-12.87h10.69l2.47,5.9h-15.34l2.18-5.9Z" style="fill: #fff; stroke-width: 0px;"/>
        <path d="m190.6,45.1h24v6.77h-8.66v28.84h-7.02v-28.84h-8.32v-6.77Z" style="fill: #fff; stroke-width: 0px;"/>
        <path d="m221.38,45.1h7.02v35.61h-7.02v-35.61Z" style="fill: #fff; stroke-width: 0px;"/>
        <path d="m233.57,80.71l16.06-37.01h.39l16.06,37.01h-8.13l-10.26-26.03,5.08-3.48-12.29,29.51h-6.92Zm10.98-12.87h10.69l2.47,5.9h-15.34l2.18-5.9Z" style="fill: #fff; stroke-width: 0px;"/>
        <path d="m271.26,45.1h7.02v28.84h16.74v6.77h-23.76v-35.61Z" style="fill: #fff; stroke-width: 0px;"/>
        <path d="m302.28,45.1h24.29v6.77h-17.27v7.6h15.29v6.77h-15.29v7.69h17.95v6.77h-24.97v-35.61Z" style="fill: #fff; stroke-width: 0px;"/>
      </g>
      <path d="m21.69,0c-.81,1.66-2.59,2.99-4.38,2.99,2.41,0,4.83,2.41,4.83,4.83,0-2.41,2.41-4.83,4.83-4.83-1.79,0-3.57-1.32-4.38-2.99h-.9Zm58.41,2.82c0,1.61-1.61,3.22-3.22,3.22,1.61,0,3.22,1.61,3.22,3.22,0-1.61,1.61-3.22,3.22-3.22-1.61,0-3.22-1.61-3.22-3.22Zm-14.49,8.05c0,2.41-2.41,4.83-4.83,4.83,2.41,0,4.83,2.41,4.83,4.83,0-2.41,2.41-4.83,4.83-4.83-2.41,0-4.83-2.41-4.83-4.83ZM0,17.72v63.64c18.92-.8,40.28-1.14,60.85-6.81,8.63-2.2,15.42-4.78,20.19-7.71,4.78-2.93,7.78-6.38,7.78-10.39-.02-1.74-.73-3.56-1.61-4.93-.67-.99-1.54-1.94-2.57-2.85.3-.73.46-1.53.46-2.38,0-3.47-2.77-6.24-6.24-6.24s-6.24,2.77-6.24,6.24,2.77,6.24,6.24,6.24c1.29,0,2.48-.38,3.48-1.05,1.47,1.37,2.79,3.08,2.86,4.97,0,2.12-1.78,4.68-6.05,7.31-4.27,2.62-10.78,5.15-19.19,7.29-18.5,4.62-41.03,6.31-57.66,6.66,4.87-.96,9.31-3.07,13.04-6.05,5.41-.36,10.25-.79,15.38-1.42-.54-1.25-.8-2.36-.71-3.56-3.66.43-7.44.81-10.6,1.07,4.59-5.32,7.36-12.25,7.36-19.84,0-15.58-11.67-28.39-26.76-30.17Zm26.88,15.14c.61,1.22,1.14,2.49,1.6,3.79,11.73,1.14,22.49,2.9,31.48,5.19,3.38.86,6.45,1.78,9.19,2.75.21-1.22.65-2.37,1.27-3.4-2.88-1.02-6.07-1.97-9.57-2.86-9.73-2.48-21.35-4.33-33.97-5.48h0Zm2.6,7.23c.29,1.22.51,2.47.66,3.74,5.37.67,10.28,1.49,14.59,2.44,6.17,1.35,11.13,2.97,14.39,4.67,1.63.85,2.83,1.72,3.54,2.48.71.76.92,1.34.92,1.83s-.21,1.06-.92,1.83c-.71.76-1.91,1.63-3.54,2.48-3.26,1.69-8.22,3.31-14.39,4.67-.7.16-1.33.28-2,.42.46,1.26.63,2.39.45,3.61.77-.15,1.59-.32,2.33-.49,6.36-1.4,11.54-3.05,15.28-4.99,1.87-.97,3.39-2.01,4.52-3.22,1.13-1.21,1.89-2.69,1.89-4.3s-.76-3.08-1.89-4.3c-1.13-1.21-2.65-2.25-4.52-3.22-3.74-1.94-8.92-3.6-15.28-4.99-4.74-1.04-10.14-1.93-16.03-2.64h0Zm7.14,24.1c-1.69,0-3.02,1.33-3.02,3.02s1.33,3.02,3.02,3.02,3.02-1.33,3.02-3.02-1.33-3.02-3.02-3.02Z" style="fill: #fff; stroke-width: 0px;"/>
    </g>
  </g>
</svg>