<?xml version="1.0" encoding="UTF-8"?>
<svg id="Calque_2" data-name="Calque 2" xmlns="http://www.w3.org/2000/svg" viewBox="0 0 195.48 80.18">
  <g id="svg19">
    <g>
      <g>
        <path d="m110.74,28.77c0,2.51-.46,4.66-1.38,6.44s-2.16,3.14-3.7,4.08c-1.54.94-3.29,1.44-5.22,1.5v-2.24c2.29-.13,4.19-1.03,5.7-2.72,1.51-1.69,2.27-4.09,2.27-7.21V0h2.34v28.77Z" style="fill: #fff; stroke-width: 0px;"/>
        <path d="m128.49,34.26c-1.94,0-3.66-.43-5.15-1.29-1.5-.86-2.67-2.03-3.51-3.51s-1.26-3.14-1.26-4.99.45-3.47,1.34-4.96c.89-1.5,2.09-2.69,3.6-3.58,1.51-.89,3.19-1.34,5.03-1.34,2.23,0,4.1.65,5.61,1.96,1.51,1.3,2.6,3.01,3.27,5.11l-16.32,6.3-.67-1.62,14.94-5.82-.48.67c-.54-1.27-1.36-2.37-2.46-3.29-1.1-.92-2.44-1.38-4.03-1.38-1.43,0-2.72.35-3.87,1.05-1.14.7-2.06,1.64-2.74,2.82-.68,1.18-1.03,2.51-1.03,4.01,0,1.4.33,2.7.98,3.91.65,1.21,1.57,2.18,2.74,2.91,1.18.73,2.53,1.1,4.06,1.1,1.02,0,2-.19,2.93-.57s1.77-.88,2.5-1.48l1.15,1.62c-.89.7-1.92,1.27-3.08,1.72-1.16.44-2.35.67-3.55.67Z" style="fill: #fff; stroke-width: 0px;"/>
        <path d="m149.49,34.41c-1.75,0-3.15-.52-4.2-1.55s-1.61-2.38-1.67-4.03v-13.6h2.24v12.93c.06,1.21.45,2.21,1.17,3.01.72.8,1.79,1.23,3.22,1.29,1.21,0,2.34-.32,3.39-.95s1.9-1.5,2.55-2.6c.65-1.1.98-2.35.98-3.75v-9.93h2.24v18.66h-2l-.24-5.87.33,1.29c-.32.95-.88,1.82-1.69,2.6-.81.78-1.77,1.39-2.86,1.84s-2.25.67-3.46.67Z" style="fill: #fff; stroke-width: 0px;"/>
        <path d="m181.65,33.88h-2.67l-13.98-18.66h2.82l13.84,18.66Zm-8.3-8.02l-5.73,8.02h-2.39l6.87-9.5,1.24,1.48Zm.05-2.58l5.54-8.06h2.34l-6.92,9.73-.95-1.67Z" style="fill: #fff; stroke-width: 0px;"/>
      </g>
      <g>
        <path d="m102.94,39.29h25.28v7.69h-17.31v9.18h15v7.69h-15v15.88h-7.97v-40.44Z" style="fill: #fff; stroke-width: 0px;"/>
        <path d="m148.17,39.29c3.33,0,6.15.56,8.46,1.68,2.31,1.12,4.07,2.69,5.28,4.73s1.81,4.44,1.81,7.23c0,1.65-.25,3.31-.74,4.97-.5,1.67-1.28,3.18-2.36,4.53-1.08,1.36-2.53,2.45-4.34,3.27s-4.04,1.24-6.68,1.24h-5.71v12.8h-7.97v-40.44h12.25Zm1.37,19.89c1.21,0,2.22-.21,3.02-.63.81-.42,1.44-.95,1.9-1.59.46-.64.79-1.31.99-2,.2-.7.3-1.3.3-1.81,0-.4-.06-.94-.19-1.62-.13-.68-.39-1.36-.8-2.06-.4-.7-1.02-1.28-1.84-1.76-.82-.48-1.93-.71-3.33-.71h-5.71v12.2h5.66Z" style="fill: #fff; stroke-width: 0px;"/>
        <path d="m192.46,49.07c-1.54-.84-3.11-1.54-4.7-2.09-1.59-.55-3.09-.82-4.48-.82-1.72,0-3.08.35-4.07,1.04s-1.48,1.74-1.48,3.13c0,.95.38,1.8,1.13,2.56.75.75,1.72,1.42,2.91,2,1.19.59,2.43,1.12,3.71,1.59,1.17.44,2.34.96,3.49,1.57,1.15.6,2.19,1.36,3.1,2.25.92.9,1.65,2.01,2.2,3.35.55,1.34.82,2.98.82,4.92,0,2.05-.53,3.96-1.59,5.71-1.06,1.76-2.62,3.18-4.67,4.26-2.05,1.08-4.58,1.62-7.58,1.62-1.54,0-3.11-.16-4.7-.47-1.59-.31-3.16-.79-4.7-1.43-1.54-.64-3.02-1.46-4.45-2.45l3.52-6.21c.95.7,1.99,1.31,3.1,1.84,1.12.53,2.24.94,3.38,1.24,1.13.29,2.18.44,3.13.44s1.91-.14,2.88-.41c.97-.28,1.78-.74,2.42-1.4.64-.66.96-1.58.96-2.75,0-.8-.27-1.54-.8-2.2-.53-.66-1.25-1.26-2.14-1.81-.9-.55-1.88-1.03-2.94-1.43-1.25-.48-2.53-1.03-3.85-1.65-1.32-.62-2.55-1.38-3.71-2.28-1.15-.9-2.09-2.01-2.8-3.35-.71-1.34-1.07-2.98-1.07-4.92,0-2.34.52-4.38,1.57-6.1,1.04-1.72,2.52-3.09,4.42-4.09s4.1-1.57,6.59-1.68c3.26,0,5.91.38,7.94,1.15s3.86,1.69,5.47,2.75l-3.02,6.1Z" style="fill: #fff; stroke-width: 0px;"/>
      </g>
      <g id="g1">
        <path id="path1" d="m.95,77.48C-.03,76.88,0,77.27,0,66.79s-.02-10.18.89-10.71c.8-.48,2.03-.21,2.45.53.15.26.21,2.33.27,8.91l.08,8.57,8.7.08,8.7.08.44.49c.78.87.51,2.31-.52,2.8-.46.22-1.54.25-10.05.25-9.18,0-9.54-.01-10.01-.29h0Zm36.86.16c-.17-.07-.49-.35-.71-.61l-.4-.48v-6.69l-1.77-.19c-3.32-.36-7.16-1.53-10.3-3.13-9.11-4.64-15.41-13.7-16.53-23.77l-.19-1.68-3.44-.05-3.44-.05-.44-.49c-.77-.86-.77-1.62,0-2.48l.44-.49,3.44-.05,3.44-.05.19-1.68c1.12-10.07,7.42-19.13,16.53-23.77,3.14-1.6,6.98-2.76,10.3-3.13l1.77-.19V1.97l.51-.56c.47-.51.59-.56,1.29-.56s.82.05,1.29.56l.51.56v6.73l1.16.11c5.74.52,11.47,2.85,16.14,6.56,1.56,1.24,4.12,3.86,5.3,5.44,3.3,4.4,5.41,9.66,6,14.97l.19,1.69h6.71l.56.51c.51.47.56.59.56,1.29s-.05.82-.56,1.29l-.56.51h-6.71l-.19,1.77c-1.26,11.57-9.53,21.73-20.69,25.44-2.25.75-4.03,1.15-6.21,1.39l-1.69.19v6.71l-.49.53c-.52.57-1.38.8-2,.53h0Zm1.94-11.39l.57-.09-.05-3.35c-.04-3.3-.05-3.36-.41-3.73-.2-.21-.59-.46-.86-.55-.63-.21-1.36,0-1.87.55-.36.38-.36.43-.41,3.74l-.05,3.36.42.06c.7.11,2.04.11,2.65.01h0Zm1.68-12.63c2.53-.48,4.99-1.74,6.91-3.53,1.52-1.42,2.51-2.73,3.32-4.42,3.53-7.28.5-16.03-6.77-19.56-4.74-2.3-10.24-1.9-14.66,1.07-1.24.83-3.23,2.86-4.01,4.08-4.78,7.47-2.03,17.35,5.89,21.19,2.97,1.44,5.94,1.82,9.32,1.18h0Zm-5.11-3.59c-2.55-.56-4.85-1.95-6.34-3.82-2.58-3.24-3.16-7.76-1.47-11.42,1.82-3.95,5.73-6.49,9.99-6.49,3.13,0,6.41,1.52,8.37,3.89,2.81,3.39,3.38,7.94,1.48,11.83-1.2,2.47-2.65,3.91-5.11,5.11-2.18,1.06-4.71,1.39-6.92.91h0Zm3.09-9.18c.24-.13.54-.43.67-.67.65-1.26-.19-2.71-1.58-2.71s-2.23,1.45-1.58,2.71c.43.83,1.58,1.14,2.48.67h0Zm-20.78-.15c.61-.51.85-1.26.62-1.95-.09-.29-.38-.69-.62-.9l-.45-.38h-6.59v3.61h6.59l.45-.38Zm46.79-1.42v-1.8h-3.2c-2.9,0-3.24.03-3.68.29-.6.37-.84.8-.83,1.53.01.73.23,1.13.83,1.5.43.27.78.29,3.68.29h3.2s0-1.8,0-1.8Zm-25.87-19.53c.7-.51.75-.79.75-4.19v-3.2s-1.81,0-1.81,0h-1.81l.05,3.37c.04,3.12.07,3.39.35,3.71.68.76,1.7.89,2.48.32Zm16.61,57.88c-.94-.38-1.37-1.63-.89-2.56.43-.84.22-.82,9.47-.9l8.57-.08.08-8.57c.06-6.57.12-8.65.27-8.91.42-.74,1.65-1.01,2.45-.53.91.54.89.3.89,10.71s.03,10.09-.95,10.69c-.46.28-.82.29-10.03.28-5.25,0-9.69-.07-9.86-.14h0ZM.87,22.47C-.02,21.92,0,22.14,0,11.73,0,2.55.01,2.18.29,1.72c.6-.98.21-.95,10.69-.95s10.18-.02,10.71.89c.48.8.21,2.03-.53,2.45-.26.15-2.33.21-8.91.27l-8.57.08-.08,8.57c-.06,6.57-.12,8.65-.27,8.91-.43.74-1.69,1.01-2.48.53Zm73.09-.17l-.49-.44-.08-8.7-.08-8.7-8.57-.08c-6.57-.06-8.65-.12-8.91-.27-.74-.42-1.01-1.65-.53-2.45.54-.91.3-.89,10.74-.89,7.32,0,9.61.05,9.9.19.2.1.53.42.71.7l.34.51v9.54c0,8.52-.03,9.6-.25,10.06-.49,1.03-1.92,1.3-2.8.52h0Z" style="fill: #fff; stroke-width: 0px;"/>
      </g>
    </g>
  </g>
</svg>