<?xml version="1.0" encoding="UTF-8"?>
<svg id="Calque_2" data-name="Calque 2" xmlns="http://www.w3.org/2000/svg" viewBox="0 0 361.53 80.21">
  <g id="svg19">
    <g>
      <g>
        <path d="m96.18,37.84L110.5,2.48h.19l14.32,35.36h-2.62l-12.45-31.64,1.62-.91-13.03,32.54h-2.34Zm6.92-13.41h15.03l.67,2.2h-16.27l.57-2.2Z" style="fill: #fff; stroke-width: 0px;"/>
        <path d="m136.94,38.55l-9.45-19.37h2.62l7.78,16.94-1.38-.05,7.49-16.89h2.48l-9.26,19.37h-.29Z" style="fill: #fff; stroke-width: 0px;"/>
        <path d="m159.94,38.22c-1.94,0-3.66-.43-5.15-1.29-1.5-.86-2.67-2.03-3.51-3.51-.84-1.48-1.26-3.14-1.26-4.99s.45-3.47,1.34-4.96c.89-1.5,2.09-2.69,3.6-3.58,1.51-.89,3.19-1.34,5.03-1.34,2.23,0,4.1.65,5.61,1.96,1.51,1.3,2.6,3.01,3.27,5.11l-16.32,6.3-.67-1.62,14.94-5.82-.48.67c-.54-1.27-1.36-2.37-2.46-3.29-1.1-.92-2.44-1.38-4.03-1.38-1.43,0-2.72.35-3.87,1.05-1.15.7-2.06,1.64-2.74,2.82-.68,1.18-1.03,2.51-1.03,4.01,0,1.4.33,2.7.98,3.91.65,1.21,1.57,2.18,2.74,2.91,1.18.73,2.53,1.1,4.06,1.1,1.02,0,2-.19,2.94-.57.94-.38,1.77-.87,2.5-1.48l1.15,1.62c-.89.7-1.92,1.27-3.08,1.72-1.16.44-2.35.67-3.55.67Z" style="fill: #fff; stroke-width: 0px;"/>
        <path d="m177.02,19.18l.24,5.87-.29-1.15c.54-1.62,1.57-2.9,3.08-3.84,1.51-.94,3.19-1.41,5.03-1.41,1.75,0,3.17.52,4.25,1.55,1.08,1.03,1.64,2.38,1.67,4.03v13.6h-2.29v-12.98c-.03-1.21-.41-2.21-1.15-3.01-.73-.79-1.8-1.21-3.2-1.24-1.24,0-2.4.3-3.48.91-1.08.6-1.95,1.45-2.6,2.53-.65,1.08-.98,2.34-.98,3.77v10.02h-2.24v-18.66h1.96Z" style="fill: #fff; stroke-width: 0px;"/>
        <path d="m201.36,10.97h2.29v8.45h5.77v1.81h-5.77v16.61h-2.29v-16.61h-3.96v-1.81h3.96v-8.45Z" style="fill: #fff; stroke-width: 0px;"/>
        <path d="m220.87,38.36c-1.75,0-3.15-.52-4.2-1.55-1.05-1.03-1.61-2.38-1.67-4.03v-13.6h2.24v12.93c.06,1.21.45,2.21,1.17,3.01.72.8,1.79,1.23,3.22,1.29,1.21,0,2.34-.32,3.39-.95,1.05-.64,1.9-1.5,2.55-2.6.65-1.1.98-2.35.98-3.75v-9.93h2.24v18.66h-2l-.24-5.87.33,1.29c-.32.95-.88,1.82-1.69,2.6-.81.78-1.77,1.39-2.86,1.84-1.1.44-2.25.67-3.46.67Z" style="fill: #fff; stroke-width: 0px;"/>
        <path d="m241.25,19.18l.24,5.73-.29-.72c.41-1.15,1.07-2.13,1.96-2.96.89-.83,1.88-1.46,2.98-1.91,1.1-.44,2.15-.67,3.17-.67l-.09,2.2c-1.43,0-2.73.32-3.89.95-1.16.64-2.08,1.49-2.77,2.55-.68,1.07-1.03,2.27-1.03,3.6v9.88h-2.24v-18.66h1.96Z" style="fill: #fff; stroke-width: 0px;"/>
        <path d="m262.96,38.22c-1.94,0-3.66-.43-5.15-1.29-1.5-.86-2.67-2.03-3.51-3.51-.84-1.48-1.26-3.14-1.26-4.99s.45-3.47,1.34-4.96c.89-1.5,2.09-2.69,3.6-3.58,1.51-.89,3.19-1.34,5.03-1.34,2.23,0,4.1.65,5.61,1.96,1.51,1.3,2.6,3.01,3.27,5.11l-16.32,6.3-.67-1.62,14.94-5.82-.48.67c-.54-1.27-1.36-2.37-2.46-3.29-1.1-.92-2.44-1.38-4.03-1.38-1.43,0-2.72.35-3.87,1.05-1.15.7-2.06,1.64-2.74,2.82-.68,1.18-1.03,2.51-1.03,4.01,0,1.4.33,2.7.98,3.91.65,1.21,1.57,2.18,2.74,2.91,1.18.73,2.53,1.1,4.06,1.1,1.02,0,2-.19,2.93-.57.94-.38,1.77-.87,2.5-1.48l1.15,1.62c-.89.7-1.92,1.27-3.08,1.72-1.16.44-2.35.67-3.55.67Z" style="fill: #fff; stroke-width: 0px;"/>
        <path d="m282.48,38.22c-1.08,0-2.21-.2-3.39-.6-1.18-.4-2.13-1.04-2.86-1.93l1.05-1.48c.64.67,1.39,1.2,2.27,1.6.88.4,1.81.6,2.79.6.73,0,1.42-.1,2.08-.31.65-.21,1.19-.56,1.6-1.07.41-.51.62-1.19.62-2.05s-.25-1.57-.74-2.05c-.49-.48-1.11-.87-1.86-1.17-.75-.3-1.54-.58-2.36-.83-1.37-.45-2.49-1.05-3.36-1.81-.88-.76-1.31-1.84-1.31-3.24,0-1.02.25-1.91.74-2.67.49-.76,1.17-1.36,2.03-1.79s1.83-.64,2.91-.64c.99,0,1.96.16,2.93.48.97.32,1.85.86,2.65,1.62l-1,1.57c-.51-.7-1.19-1.18-2.03-1.43-.84-.25-1.58-.4-2.22-.43-.54,0-1.11.11-1.69.33-.59.22-1.08.55-1.48.98-.4.43-.6.99-.6,1.69s.21,1.33.62,1.79c.41.46.95.83,1.6,1.12.65.29,1.33.56,2.03.81.92.29,1.79.63,2.6,1.03.81.4,1.48.92,2,1.57.53.65.79,1.52.79,2.6s-.24,2.06-.72,2.94c-.48.88-1.19,1.56-2.12,2.05-.94.49-2.12.74-3.56.74Z" style="fill: #fff; stroke-width: 0px;"/>
      </g>
      <g>
        <path d="m95.57,49.93h5.33v27.04h-5.33v-27.04Z" style="fill: #fff; stroke-width: 0px;"/>
        <path d="m132.09,78.07l-20.5-18.51,1.58.88.11,16.53h-5.4v-28.1h.22l20.06,18.44-1.18-.51-.11-16.86h5.36v28.14h-.15Z" style="fill: #fff; stroke-width: 0px;"/>
        <path d="m137.38,49.93h18.22v5.14h-6.58v21.89h-5.33v-21.89h-6.32v-5.14Z" style="fill: #fff; stroke-width: 0px;"/>
        <path d="m160.74,49.93h18.44v5.14h-13.11v5.77h11.61v5.14h-11.61v5.84h13.63v5.14h-18.96v-27.04Z" style="fill: #fff; stroke-width: 0px;"/>
        <path d="m193.4,49.93c1.69,0,3.2.21,4.52.64,1.32.43,2.43,1.04,3.32,1.84.89.8,1.57,1.75,2.04,2.87.46,1.12.7,2.37.7,3.77,0,1.1-.17,2.2-.5,3.31-.33,1.1-.87,2.11-1.62,3.01-.75.91-1.73,1.63-2.96,2.19-1.23.55-2.74.83-4.56.83h-3.82v8.6h-5.33v-27.04h8.19Zm.92,13.3c.81,0,1.48-.13,2.02-.4.54-.27.96-.61,1.27-1.03.31-.42.53-.85.66-1.3s.2-.88.2-1.27c0-.29-.04-.67-.13-1.12-.09-.45-.26-.91-.53-1.38-.27-.46-.68-.86-1.23-1.17s-1.29-.48-2.22-.48h-3.82v8.16h3.78Zm5,3.31l6.69,10.43h-6.21l-6.83-10.29,6.35-.15Z" style="fill: #fff; stroke-width: 0px;"/>
        <path d="m207.36,76.97l12.2-28.1h.29l12.2,28.1h-6.17l-7.79-19.76,3.86-2.64-9.33,22.41h-5.25Zm8.34-9.77h8.12l1.87,4.48h-11.64l1.65-4.48Z" style="fill: #fff; stroke-width: 0px;"/>
        <path d="m254.42,74.73c-.29.25-.84.58-1.63.99-.8.42-1.77.78-2.92,1.1-1.15.32-2.42.46-3.82.44-2.13-.05-4.04-.43-5.71-1.16-1.68-.72-3.1-1.71-4.26-2.96s-2.05-2.68-2.66-4.3-.92-3.34-.92-5.18c0-2.06.31-3.94.94-5.66.62-1.71,1.52-3.2,2.68-4.45s2.55-2.22,4.17-2.9c1.62-.69,3.4-1.03,5.36-1.03,1.81,0,3.42.25,4.81.74,1.4.49,2.54,1.02,3.42,1.58l-2.09,5.03c-.61-.47-1.43-.95-2.44-1.45-1.02-.5-2.19-.75-3.51-.75-1.03,0-2.01.21-2.96.64-.94.43-1.78,1.04-2.5,1.82-.72.78-1.29,1.7-1.71,2.74-.42,1.04-.62,2.17-.62,3.4,0,1.3.19,2.49.57,3.56.38,1.08.92,2,1.63,2.77.71.77,1.56,1.37,2.55,1.78.99.42,2.11.62,3.36.62,1.45,0,2.68-.23,3.71-.7,1.03-.46,1.81-.96,2.35-1.47l2.2,4.78Z" style="fill: #fff; stroke-width: 0px;"/>
        <path d="m257.9,49.93h18.22v5.14h-6.58v21.89h-5.33v-21.89h-6.32v-5.14Z" style="fill: #fff; stroke-width: 0px;"/>
        <path d="m281.27,49.93h5.33v27.04h-5.33v-27.04Z" style="fill: #fff; stroke-width: 0px;"/>
        <path d="m297.65,49.93l7.9,19.47-3.09-.62,7.16-18.84h6.32l-12.34,28.29-12.34-28.29h6.39Z" style="fill: #fff; stroke-width: 0px;"/>
        <path d="m320.61,49.93h18.44v5.14h-13.11v5.77h11.61v5.14h-11.61v5.84h13.63v5.14h-18.96v-27.04Z" style="fill: #fff; stroke-width: 0px;"/>
        <path d="m359.51,56.47c-1.03-.56-2.08-1.03-3.14-1.4-1.07-.37-2.06-.55-2.99-.55-1.15,0-2.06.23-2.72.7-.66.47-.99,1.16-.99,2.09,0,.64.25,1.21.75,1.71.5.5,1.15.95,1.95,1.34.8.39,1.62.75,2.48,1.07.78.29,1.56.64,2.33,1.05s1.46.91,2.08,1.51c.61.6,1.1,1.35,1.47,2.24.37.89.55,1.99.55,3.29,0,1.37-.36,2.64-1.07,3.82-.71,1.18-1.75,2.12-3.12,2.85-1.37.72-3.06,1.08-5.07,1.08-1.03,0-2.08-.1-3.14-.31s-2.11-.53-3.14-.96c-1.03-.43-2.02-.97-2.98-1.63l2.35-4.15c.64.46,1.33.88,2.08,1.23.75.36,1.5.63,2.26.83.76.2,1.46.29,2.09.29s1.28-.09,1.93-.28c.65-.18,1.19-.5,1.62-.94.43-.44.64-1.05.64-1.84,0-.54-.18-1.03-.53-1.47-.36-.44-.83-.84-1.43-1.21-.6-.37-1.26-.69-1.97-.96-.83-.32-1.69-.69-2.57-1.1-.88-.42-1.71-.92-2.48-1.52-.77-.6-1.4-1.35-1.87-2.24-.48-.89-.72-1.99-.72-3.29,0-1.57.35-2.93,1.05-4.08.7-1.15,1.68-2.06,2.96-2.74,1.27-.67,2.74-1.05,4.41-1.12,2.18,0,3.95.26,5.31.77,1.36.51,2.58,1.13,3.66,1.84l-2.02,4.08Z" style="fill: #fff; stroke-width: 0px;"/>
      </g>
      <g id="g1">
        <path id="path1" d="m8.21,80.11c-1.59-.4-2.93-1.52-3.63-3.04l-.45-.98-.08-21.14-.08-21.14-2.03-6.56C.83,23.65-.05,20.66,0,20.61c.05-.05,1.84-.62,3.98-1.27,3.49-1.06,3.93-1.16,4.24-.97.88.55,13.39,10.6,13.29,10.69-.06.05-3.9,1.26-8.54,2.67l-8.44,2.57,35.15.08,35.15.08.04,19.88c.03,12.77-.01,20.31-.11,21.1-.26,2-1.24,3.43-2.95,4.29l-.91.46-31.11.02c-17.11.01-31.33-.03-31.59-.09h0Zm34.17-19.67c2.81-1.62,5.12-3,5.15-3.08.03-.1-15.59-9.24-16.16-9.45-.08-.03-.14,3.92-.14,9.46v9.51l3.03-1.75c1.66-.96,5.32-3.08,8.13-4.7ZM21.32,21.87c-3.67-2.91-6.76-5.37-6.87-5.48-.16-.15,1.18-.61,6.33-2.19l6.53-2,6.48,5.14c3.56,2.83,6.64,5.29,6.84,5.48l.36.34-6.3,1.93c-3.47,1.06-6.39,1.96-6.5,2-.11.04-3.2-2.3-6.86-5.21h0Zm19.19-6.02c-3.67-2.92-6.69-5.38-6.72-5.46-.03-.08,2.85-1.04,6.4-2.12l6.45-1.97,6.84,5.43c4.37,3.47,6.76,5.47,6.64,5.54-.26.14-12.61,3.91-12.79,3.9-.08,0-3.14-2.4-6.81-5.32h0Zm19.27-5.97c-3.76-2.99-6.82-5.46-6.79-5.49.03-.03,3.37-1.07,7.41-2.3C65.46.54,67.8-.11,67.87.01c.1.18,4.09,13.25,4.13,13.51.01.07-1.19.5-2.68.96l-2.69.83-6.84-5.43Z" style="fill: #fff; stroke-width: 0px;"/>
      </g>
    </g>
  </g>
</svg>