<svg xmlns="http://www.w3.org/2000/svg" viewBox="0 0 378.28 110.48">
  <g id="Calque_2" data-name="Calque 2">
    <g id="_2players-fr" data-name="2players-fr">
      <path d="M3.12,110.32q10.2-10.35,19.57-20T39.54,71.77A98.16,98.16,0,0,0,51.38,54.42a35.29,35.29,0,0,0,4.36-16.28A15.31,15.31,0,0,0,54.5,31.9a13.55,13.55,0,0,0-3.45-4.77,15.46,15.46,0,0,0-5.26-3A20.29,20.29,0,0,0,39,23a19.64,19.64,0,0,0-6.75,1.07A14.57,14.57,0,0,0,27.29,27a13.82,13.82,0,0,0-3,3.95,9.81,9.81,0,0,0-1.07,4.44,23.43,23.43,0,0,0,1.73,9.29,24.18,24.18,0,0,0,4.68,7.15L15,65.11a19.9,19.9,0,0,1-8.14-7.73A45.42,45.42,0,0,1,1.73,46,37.46,37.46,0,0,1,0,36,32.72,32.72,0,0,1,5,18.74,38.1,38.1,0,0,1,19.65,5.26Q29.27,0,43.08,0A37.23,37.23,0,0,1,62.81,5.1,36.49,36.49,0,0,1,75.88,18.5a35.4,35.4,0,0,1,4.68,17.67,45,45,0,0,1-2.3,14.3A67.83,67.83,0,0,1,71.93,64a133.92,133.92,0,0,1-9.12,13.15q-5.1,6.5-10.53,13.24L41.43,87.3H81.88v23Z" fill="#fff"/>
      <g>
        <path d="M93.71,110.48l-5.11-5.29a15.67,15.67,0,0,0,4.08-5.53,18.73,18.73,0,0,0,1.49-7.75V53.55h8.73V92.28a25.14,25.14,0,0,1-2.18,11A16.38,16.38,0,0,1,93.71,110.48Zm-.28-70.86a4.37,4.37,0,0,1,1.62-3.44,5.39,5.39,0,0,1,3.58-1.39,5,5,0,0,1,3.48,1.39,4.48,4.48,0,0,1,1.53,3.44,4.43,4.43,0,0,1-1.53,3.48,5.11,5.11,0,0,1-3.48,1.35,5.4,5.4,0,0,1-3.58-1.4A4.35,4.35,0,0,1,93.43,39.62Z" fill="#fff"/>
        <path d="M114,72.4a19.85,19.85,0,0,1,10.31-17.74,23.86,23.86,0,0,1,22,0A19,19,0,0,1,153.61,62a21,21,0,0,1,2.6,10.4,21.2,21.2,0,0,1-2.6,10.45,18.8,18.8,0,0,1-7.38,7.39,22.3,22.3,0,0,1-11.1,2.69,22.86,22.86,0,0,1-10.92-2.55,19.12,19.12,0,0,1-7.52-7.16A20.69,20.69,0,0,1,114,72.4Zm8.64.1a13.71,13.71,0,0,0,1.67,6.73A12.88,12.88,0,0,0,128.77,84,11.55,11.55,0,0,0,135,85.78,11.92,11.92,0,0,0,141.49,84a12.1,12.1,0,0,0,4.41-4.78,15.14,15.14,0,0,0,0-13.47,12.51,12.51,0,0,0-4.41-4.83A11.7,11.7,0,0,0,135,59.12,11.35,11.35,0,0,0,128.67,61a13.3,13.3,0,0,0-4.46,4.87A13.86,13.86,0,0,0,122.59,72.5Z" fill="#fff"/>
        <path d="M180.08,93.49a12,12,0,0,1-8.59-3.21A11.54,11.54,0,0,1,167.91,82V53.55h8.64V78.9A8.53,8.53,0,0,0,178.36,84c1.09,1.3,2.8,2,5.16,2a9.46,9.46,0,0,0,5.8-1.91,13.82,13.82,0,0,0,4.14-5.2A17.14,17.14,0,0,0,195,71.47V53.55h8.64V92h-7.89L195,82.53l.47,1.67A13.39,13.39,0,0,1,192.11,89a17.08,17.08,0,0,1-5.34,3.3A18.21,18.21,0,0,1,180.08,93.49Z" fill="#fff"/>
        <path d="M236.46,92.93a22.79,22.79,0,0,1-11.33-2.65,18.49,18.49,0,0,1-7.3-7.24,21.38,21.38,0,0,1-2.55-10.54,19.15,19.15,0,0,1,2.88-10.31,21.54,21.54,0,0,1,7.71-7.43A21.14,21.14,0,0,1,236.64,52a18.31,18.31,0,0,1,12.63,4.46,22.42,22.42,0,0,1,6.78,12.26L224.38,79.83l-2-5.11,26-9.47-1.86,1.21a12.93,12.93,0,0,0-3.72-5.34A9.9,9.9,0,0,0,236,58.84a11.81,11.81,0,0,0-6.31,1.72,12,12,0,0,0-4.37,4.69A15.44,15.44,0,0,0,225.4,79a12.26,12.26,0,0,0,4.6,4.74,12.84,12.84,0,0,0,6.64,1.72,13.26,13.26,0,0,0,4.88-.93,19.65,19.65,0,0,0,4.41-2.41l4,6.4a26.51,26.51,0,0,1-6.45,3.16A21.73,21.73,0,0,1,236.46,92.93Z" fill="#fff"/>
        <path d="M279.09,93.49a12,12,0,0,1-8.6-3.21A11.49,11.49,0,0,1,266.92,82V53.55h8.64V78.9A8.46,8.46,0,0,0,277.37,84c1.08,1.3,2.8,2,5.15,2a9.49,9.49,0,0,0,5.81-1.91,13.7,13.7,0,0,0,4.13-5.2A17.15,17.15,0,0,0,294,71.47V53.55h8.64V92h-7.9L294,82.53l.46,1.67A13.27,13.27,0,0,1,291.11,89a16.86,16.86,0,0,1-5.34,3.3A18.16,18.16,0,0,1,279.09,93.49Z" fill="#fff"/>
        <path d="M325.34,53.55l.83,11.14-.46-1.48a16.09,16.09,0,0,1,4.32-6A23.17,23.17,0,0,1,336,53.41a14,14,0,0,1,5.44-1.35l-.47,8.55a13,13,0,0,0-7.66,1.67,14.4,14.4,0,0,0-5.2,5.2,13.57,13.57,0,0,0-1.91,7V92h-8.54V53.55Z" fill="#fff"/>
        <path d="M363.32,92.74a22.53,22.53,0,0,1-7.94-1.44A15.4,15.4,0,0,1,349,87l3.62-5a17.86,17.86,0,0,0,5,3.48,12.16,12.16,0,0,0,8.5.7,5.5,5.5,0,0,0,2.56-1.53,4.23,4.23,0,0,0,1-2.93,4.15,4.15,0,0,0-1.35-3.25,10.28,10.28,0,0,0-3.43-2c-1.4-.5-2.87-1-4.41-1.39a16.6,16.6,0,0,1-7.25-4.37A9.79,9.79,0,0,1,350.69,64a11.12,11.12,0,0,1,1.54-5.71,11.45,11.45,0,0,1,4.55-4.32,15.28,15.28,0,0,1,7.47-1.67,24.16,24.16,0,0,1,7.15,1,17.91,17.91,0,0,1,6,3.21l-3.44,5.38a10.2,10.2,0,0,0-4-2.6,14.83,14.83,0,0,0-4.18-.92,7,7,0,0,0-3,.46,6.14,6.14,0,0,0-2.37,1.58,3.45,3.45,0,0,0-.93,2.41,4.13,4.13,0,0,0,1.3,3.16,9.23,9.23,0,0,0,3.39,1.91c1.4.46,2.77.94,4.14,1.44a20,20,0,0,1,5.11,2.22,11.64,11.64,0,0,1,3.57,3.44A9.08,9.08,0,0,1,378.28,80a12.92,12.92,0,0,1-1.63,6.36A11.47,11.47,0,0,1,371.73,91,18.08,18.08,0,0,1,363.32,92.74Z" fill="#fff"/>
      </g>
      <g>
        <path d="M174.84,31.56A12,12,0,0,1,173.71,37a8.13,8.13,0,0,1-3.05,3.43,8.78,8.78,0,0,1-4.3,1.26V40.38a7.07,7.07,0,0,0,5.08-2.47,9.47,9.47,0,0,0,2-6.48V6.22h1.38Z" fill="#fff"/>
        <path d="M192.91,6.22H210.8V7.6H194.33V20.18h14.84v1.34H194.33V34.36h17.06v1.38H192.91Z" fill="#fff"/>
        <path d="M229.16,25.91a9.7,9.7,0,0,0,1.08,4.73,7.6,7.6,0,0,0,3,3,8.92,8.92,0,0,0,4.33,1,9.1,9.1,0,0,0,4.39-1,7.63,7.63,0,0,0,3-3,9.48,9.48,0,0,0,1.11-4.73V6.22h1.38V26a10.55,10.55,0,0,1-1.32,5.45,8.75,8.75,0,0,1-3.55,3.41,10.7,10.7,0,0,1-5,1.17,10.59,10.59,0,0,1-5-1.17A8.78,8.78,0,0,1,229,31.49,10.75,10.75,0,0,1,227.74,26V6.22h1.42Z" fill="#fff"/>
        <path d="M262.52,35.74l9.87-15.43.84,1.13-9,14.3Zm.42-29.52h1.76l19.19,29.52h-1.76ZM273,19.85l8.61-13.63h1.68L273.9,20.94Z" fill="#fff"/>
      </g>
    </g>
  </g>
</svg>
