<?xml version="1.0" encoding="UTF-8"?>
<svg id="Calque_2" data-name="Calque 2" xmlns="http://www.w3.org/2000/svg" viewBox="0 0 354.12 81.32">
  <g id="svg19">
    <g>
      <g>
        <path d="m129.72,4.01c-.99-.48-2.2-.92-3.63-1.34-1.43-.41-2.86-.62-4.29-.62-2.23,0-4.01.56-5.34,1.67-1.34,1.11-2,2.51-2,4.2,0,1.27.38,2.33,1.15,3.17.76.84,1.77,1.56,3.01,2.15,1.24.59,2.56,1.15,3.96,1.69,1.11.41,2.22.88,3.32,1.38,1.1.51,2.09,1.13,2.98,1.86.89.73,1.6,1.64,2.12,2.72.52,1.08.79,2.42.79,4.01,0,1.88-.45,3.54-1.34,4.99-.89,1.45-2.13,2.57-3.72,3.36-1.59.8-3.44,1.19-5.54,1.19-1.69,0-3.22-.21-4.6-.62s-2.59-.9-3.63-1.46c-1.03-.56-1.85-1.03-2.46-1.41l1.1-1.91c.7.51,1.55,1.02,2.55,1.53,1,.51,2.09.94,3.27,1.29,1.18.35,2.35.52,3.53.52,1.37,0,2.7-.27,3.98-.81,1.29-.54,2.35-1.36,3.2-2.46.84-1.1,1.26-2.49,1.26-4.18s-.4-2.93-1.19-3.94c-.8-1-1.81-1.82-3.05-2.46-1.24-.64-2.56-1.21-3.96-1.72-1.08-.41-2.16-.85-3.25-1.31-1.08-.46-2.07-1.02-2.96-1.67-.89-.65-1.6-1.44-2.12-2.36-.52-.92-.79-2.04-.79-3.34,0-1.62.41-3.04,1.24-4.25.83-1.21,1.95-2.16,3.36-2.84,1.42-.68,3.03-1.04,4.84-1.07,1.59,0,3.2.21,4.84.62,1.64.41,3.06.94,4.27,1.57l-.91,1.81Z" style="fill: #fff; stroke-width: 0px;"/>
        <path d="m141.22,7.21h2.29v8.45h5.77v1.81h-5.77v16.61h-2.29v-16.61h-3.96v-1.81h3.96V7.21Z" style="fill: #fff; stroke-width: 0px;"/>
        <path d="m156.83,15.41l.24,5.73-.29-.72c.41-1.15,1.07-2.13,1.96-2.96.89-.83,1.88-1.46,2.98-1.91,1.1-.44,2.15-.67,3.17-.67l-.1,2.2c-1.43,0-2.73.32-3.89.95-1.16.64-2.08,1.49-2.77,2.55-.68,1.07-1.03,2.27-1.03,3.6v9.88h-2.24V15.41h1.96Z" style="fill: #fff; stroke-width: 0px;"/>
        <path d="m178.68,34.45c-1.78,0-3.4-.41-4.84-1.22-1.45-.81-2.59-1.95-3.44-3.41-.84-1.46-1.26-3.17-1.26-5.11,0-2.07.45-3.84,1.34-5.32.89-1.48,2.1-2.61,3.63-3.39,1.53-.78,3.26-1.17,5.2-1.17,1.65,0,3.22.49,4.7,1.48,1.48.99,2.54,2.23,3.17,3.72l-.33.67.29-5.3h2v18.66h-2.24v-5.77l.48.86c-.22.64-.6,1.26-1.15,1.88-.54.62-1.2,1.19-1.98,1.72-.78.52-1.64.94-2.58,1.24-.94.3-1.93.45-2.98.45Zm.48-1.91c1.4,0,2.66-.29,3.79-.88,1.13-.59,2.04-1.41,2.74-2.46.7-1.05,1.1-2.26,1.19-3.63v-2.67c-.25-1.18-.76-2.23-1.5-3.15-.75-.92-1.66-1.65-2.74-2.19-1.08-.54-2.26-.81-3.53-.81-1.4,0-2.69.33-3.87.98-1.18.65-2.12,1.57-2.82,2.74-.7,1.18-1.05,2.56-1.05,4.15,0,1.46.35,2.79,1.05,3.98s1.65,2.15,2.84,2.86c1.19.72,2.49,1.07,3.89,1.07Z" style="fill: #fff; stroke-width: 0px;"/>
        <path d="m199.49,7.21h2.29v8.45h5.77v1.81h-5.77v16.61h-2.29v-16.61h-3.96v-1.81h3.96V7.21Z" style="fill: #fff; stroke-width: 0px;"/>
        <path d="m221.25,34.45c-1.94,0-3.66-.43-5.15-1.29-1.5-.86-2.67-2.03-3.51-3.51-.84-1.48-1.26-3.14-1.26-4.99s.45-3.47,1.34-4.96c.89-1.5,2.09-2.69,3.6-3.58,1.51-.89,3.19-1.34,5.03-1.34,2.23,0,4.1.65,5.61,1.96,1.51,1.3,2.6,3.01,3.27,5.11l-16.32,6.3-.67-1.62,14.94-5.82-.48.67c-.54-1.27-1.36-2.37-2.46-3.29-1.1-.92-2.44-1.38-4.03-1.38-1.43,0-2.72.35-3.87,1.05-1.15.7-2.06,1.64-2.74,2.82-.68,1.18-1.03,2.51-1.03,4.01,0,1.4.33,2.7.98,3.91.65,1.21,1.57,2.18,2.74,2.91,1.18.73,2.53,1.1,4.06,1.1,1.02,0,2-.19,2.93-.57.94-.38,1.77-.87,2.5-1.48l1.15,1.62c-.89.7-1.92,1.27-3.08,1.72-1.16.44-2.35.67-3.55.67Zm3.29-29.3l-5.06,6.35h-1.62l4.15-6.35h2.53Z" style="fill: #fff; stroke-width: 0px;"/>
        <path d="m244.68,43.19c-1.05,0-2.05-.12-3.01-.36-.95-.24-1.89-.64-2.82-1.22-.92-.57-1.88-1.32-2.86-2.24l1.34-1.53c1.37,1.3,2.64,2.19,3.82,2.65,1.18.46,2.32.69,3.44.69,1.94,0,3.48-.31,4.63-.93,1.15-.62,1.97-1.45,2.48-2.48.51-1.03.78-2.19.81-3.46l.05-6.06.52.57c-.64,1.65-1.77,3.01-3.41,4.06-1.64,1.05-3.49,1.57-5.56,1.57-1.75,0-3.35-.44-4.8-1.31-1.45-.87-2.6-2.05-3.46-3.53-.86-1.48-1.29-3.13-1.29-4.94,0-1.94.45-3.64,1.34-5.11.89-1.46,2.1-2.62,3.63-3.46,1.53-.84,3.21-1.26,5.06-1.26,1.72,0,3.35.45,4.89,1.34,1.54.89,2.66,2.07,3.36,3.53l-.29,1.05.24-5.34h2v18.94c0,1.53-.34,2.97-1.03,4.32-.68,1.35-1.77,2.44-3.25,3.27-1.48.83-3.43,1.24-5.85,1.24Zm-7.87-18.56c0,1.46.35,2.79,1.05,3.98.7,1.19,1.65,2.15,2.84,2.86,1.19.72,2.52,1.07,3.98,1.07s2.67-.31,3.82-.93c1.15-.62,2.08-1.46,2.82-2.51s1.15-2.18,1.24-3.39v-2.77c-.25-1.21-.76-2.27-1.5-3.2-.75-.92-1.67-1.65-2.77-2.19-1.1-.54-2.3-.81-3.6-.81-1.46,0-2.79.33-3.98,1-1.19.67-2.14,1.59-2.84,2.77-.7,1.18-1.05,2.55-1.05,4.1Z" style="fill: #fff; stroke-width: 0px;"/>
        <path d="m262.81,8.54c0-.44.17-.82.53-1.12.35-.3.73-.45,1.15-.45.44,0,.83.15,1.14.45.32.3.48.68.48,1.12,0,.48-.16.87-.48,1.17-.32.3-.7.45-1.14.45-.41,0-.8-.16-1.15-.48-.35-.32-.53-.7-.53-1.15Zm.48,6.87h2.24v18.66h-2.24V15.41Z" style="fill: #fff; stroke-width: 0px;"/>
        <path d="m282.14,34.45c-1.94,0-3.66-.43-5.15-1.29-1.5-.86-2.67-2.03-3.51-3.51-.84-1.48-1.26-3.14-1.26-4.99s.45-3.47,1.34-4.96c.89-1.5,2.09-2.69,3.6-3.58,1.51-.89,3.19-1.34,5.03-1.34,2.23,0,4.1.65,5.61,1.96,1.51,1.3,2.6,3.01,3.27,5.11l-16.32,6.3-.67-1.62,14.94-5.82-.48.67c-.54-1.27-1.36-2.37-2.46-3.29-1.1-.92-2.44-1.38-4.03-1.38-1.43,0-2.72.35-3.87,1.05-1.15.7-2.06,1.64-2.74,2.82-.68,1.18-1.03,2.51-1.03,4.01,0,1.4.33,2.7.98,3.91.65,1.21,1.57,2.18,2.74,2.91,1.18.73,2.53,1.1,4.06,1.1,1.02,0,2-.19,2.93-.57.94-.38,1.77-.87,2.5-1.48l1.15,1.62c-.89.7-1.92,1.27-3.08,1.72-1.16.44-2.35.67-3.55.67Z" style="fill: #fff; stroke-width: 0px;"/>
      </g>
      <g>
        <path d="m111.32,79.34v-37.06h.05l19.79,28.06-3-.68,19.74-27.39h.1v37.06h-7.02v-21.24l.44,3.63-12.05,17.13h-.1l-12.39-17.13,1.21-3.34v20.95h-6.77Z" style="fill: #fff; stroke-width: 0px;"/>
        <path d="m157.19,43.73h7.02v35.61h-7.02v-35.61Z" style="fill: #fff; stroke-width: 0px;"/>
        <path d="m173.4,43.73h7.02v28.84h16.74v6.77h-23.76v-35.61Z" style="fill: #fff; stroke-width: 0px;"/>
        <path d="m204.41,43.73h7.02v35.61h-7.02v-35.61Z" style="fill: #fff; stroke-width: 0px;"/>
        <path d="m218.2,43.73h24v6.77h-8.66v28.84h-7.02v-28.84h-8.32v-6.77Z" style="fill: #fff; stroke-width: 0px;"/>
        <path d="m242.06,79.34l16.06-37.01h.39l16.06,37.01h-8.13l-10.26-26.03,5.08-3.48-12.29,29.51h-6.92Zm10.98-12.87h10.69l2.47,5.9h-15.34l2.18-5.9Z" style="fill: #fff; stroke-width: 0px;"/>
        <path d="m279.75,43.73h7.02v35.61h-7.02v-35.61Z" style="fill: #fff; stroke-width: 0px;"/>
        <path d="m306.75,43.73c2.23,0,4.21.28,5.95.85,1.74.56,3.2,1.37,4.38,2.42,1.18,1.05,2.07,2.31,2.68,3.77.61,1.47.92,3.12.92,4.96,0,1.45-.22,2.9-.65,4.35-.44,1.45-1.15,2.77-2.13,3.97-.98,1.19-2.28,2.15-3.9,2.88-1.61.73-3.61,1.09-6,1.09h-5.03v11.32h-7.02v-35.61h10.79Zm1.21,17.52c1.06,0,1.95-.18,2.66-.53.71-.35,1.27-.81,1.67-1.35.4-.55.69-1.12.87-1.72s.27-1.15.27-1.67c0-.39-.06-.88-.17-1.48-.11-.6-.35-1.2-.7-1.81-.36-.61-.9-1.13-1.62-1.55s-1.7-.63-2.93-.63h-5.03v10.74h4.98Zm6.58,4.35l8.81,13.74h-8.18l-9-13.55,8.37-.19Z" style="fill: #fff; stroke-width: 0px;"/>
        <path d="m329.15,43.73h24.29v6.77h-17.27v7.6h15.29v6.77h-15.29v7.69h17.95v6.77h-24.97v-35.61Z" style="fill: #fff; stroke-width: 0px;"/>
      </g>
      <g id="g1">
        <path id="path1" d="m18.87,81.14c-2.09-.43-4.48-2.15-5.9-4.24-1.46-2.14-2.52-5.38-2.8-8.59-.11-1.23-.19-1.47-.49-1.47-.62,0-2.48-.98-3.61-1.9C.27,60.22-1.68,50.29,1.56,42.06c1.02-2.58,3.3-5.58,5.23-6.88,2.86-1.93,0-1.8,40.09-1.8,30.91,0,36.19.05,37.29.37,3.36.98,6.6,4.49,8.14,8.83,1.04,2.94,1.38,5.26,1.27,8.67-.14,4.32-1.07,7.34-3.25,10.58-1.73,2.57-3.33,3.82-6.57,5.15-.13.05-.23.48-.23.96,0,1.34-.67,4.68-1.23,6.1-1.14,2.92-3.43,5.49-5.94,6.68l-1.19.57-27.65.04c-15.21.02-28.11-.06-28.67-.18h0Zm3.92-7.86c1.82-1.12,2.97-3.62,2.97-6.44,0-4.29-2.43-7.43-5.48-7.09-1.34.15-2.34.81-3.26,2.15-.93,1.36-1.29,2.49-1.4,4.32-.2,3.55,1.39,6.63,3.9,7.55.82.3,2.35.07,3.26-.49Zm16.96.25c2.38-1.15,3.84-4.6,3.38-8-.77-5.62-5.73-7.8-8.61-3.78-1.88,2.62-1.99,7.18-.23,9.78,1.49,2.2,3.51,2.94,5.47,2h0Zm17.79-.15c.99-.57,2.22-2.32,2.67-3.78.33-1.06.39-1.67.33-3.12-.12-2.95-1.08-4.95-2.98-6.18-2.41-1.56-5.4-.03-6.7,3.41-.99,2.63-.29,6.74,1.5,8.74,1.32,1.48,3.54,1.88,5.17.93Zm17.64-.18c1.74-1.25,2.68-3.21,2.82-5.92.11-2.16-.27-3.67-1.31-5.24-.95-1.44-1.93-2.12-3.27-2.29-1.94-.24-3.62.86-4.69,3.08-2.4,4.97.34,11.54,4.62,11.04.6-.07,1.43-.37,1.84-.66h0ZM10.24,25.28c0-1.67.43-3.94,1.12-5.92.65-1.87,2.44-4.64,3.59-5.58l.8-.65V.66h11.2c7.45,0,11.52.09,12.17.28,1.87.54,3.42,2.46,4.01,4.95.14.6.22,1.99.2,3.36l-.04,2.34.94.28c1.12.33,2.95,1.56,3.89,2.59l.68.75h45.21v7.16h-42.11l.11.57c.06.32.17,1.18.23,1.92l.12,1.34h-20.21c-11.11,0-20.59.07-21.06.16l-.85.16v-1.26Z" style="fill: #fff; stroke-width: 0px;"/>
      </g>
    </g>
  </g>
</svg>