<?xml version="1.0" encoding="UTF-8"?>
<svg id="Calque_2" data-name="Calque 2" xmlns="http://www.w3.org/2000/svg" viewBox="0 0 271.45 81.89">
  <g id="svg19">
    <g>
      <g>
        <path d="m120.33,5.27c-.92-.45-2.06-.86-3.4-1.25-1.34-.39-2.68-.58-4.02-.58-2.09,0-3.75.52-5.01,1.56-1.25,1.04-1.88,2.35-1.88,3.93,0,1.19.36,2.18,1.07,2.97.71.79,1.65,1.46,2.82,2.01,1.16.55,2.4,1.08,3.71,1.59,1.04.39,2.08.82,3.11,1.3,1.03.48,1.96,1.06,2.79,1.74.83.69,1.5,1.54,1.99,2.55.49,1.01.74,2.26.74,3.75,0,1.76-.42,3.32-1.25,4.67-.83,1.36-2,2.41-3.49,3.15s-3.22,1.12-5.18,1.12c-1.58,0-3.02-.19-4.31-.58s-2.43-.84-3.4-1.36c-.97-.52-1.74-.96-2.3-1.32l1.03-1.79c.66.48,1.45.95,2.39,1.43s1.96.88,3.06,1.21c1.1.33,2.21.49,3.31.49,1.28,0,2.53-.25,3.73-.76s2.21-1.27,2.99-2.3c.79-1.03,1.18-2.33,1.18-3.91s-.37-2.75-1.12-3.69c-.75-.94-1.7-1.71-2.86-2.3-1.16-.6-2.4-1.13-3.71-1.61-1.01-.39-2.03-.8-3.04-1.23-1.01-.43-1.94-.95-2.77-1.56-.83-.61-1.5-1.35-1.99-2.21-.49-.86-.74-1.91-.74-3.13,0-1.52.39-2.85,1.16-3.98.77-1.13,1.82-2.02,3.15-2.66,1.33-.64,2.84-.98,4.54-1.01,1.49,0,3,.19,4.54.58,1.53.39,2.87.88,4,1.47l-.85,1.7Z" style="fill: #fff; stroke-width: 0px;"/>
        <path d="m131.1,8.26h2.15v7.91h5.41v1.7h-5.41v15.55h-2.15v-15.55h-3.71v-1.7h3.71v-7.91Z" style="fill: #fff; stroke-width: 0px;"/>
        <path d="m145.72,15.95l.22,5.36-.27-.67c.39-1.07,1-2,1.83-2.77.83-.77,1.77-1.37,2.79-1.79,1.03-.42,2.02-.63,2.97-.63l-.09,2.06c-1.34,0-2.55.3-3.64.89-1.09.6-1.95,1.39-2.59,2.39-.64,1-.96,2.12-.96,3.37v9.25h-2.1V15.95h1.83Z" style="fill: #fff; stroke-width: 0px;"/>
        <path d="m166.19,33.79c-1.67,0-3.18-.38-4.54-1.14-1.36-.76-2.43-1.83-3.22-3.2-.79-1.37-1.18-2.96-1.18-4.78,0-1.94.42-3.6,1.25-4.98.83-1.38,1.97-2.44,3.4-3.17,1.43-.73,3.05-1.1,4.87-1.1,1.55,0,3.02.46,4.4,1.39,1.39.92,2.38,2.09,2.97,3.49l-.31.63.27-4.96h1.88v17.48h-2.1v-5.41l.45.8c-.21.6-.57,1.18-1.07,1.77s-1.12,1.12-1.85,1.61c-.73.49-1.54.88-2.41,1.16s-1.81.42-2.79.42Zm.45-1.79c1.31,0,2.5-.28,3.55-.83,1.06-.55,1.91-1.32,2.57-2.3.66-.98,1.03-2.12,1.12-3.4v-2.5c-.24-1.1-.71-2.09-1.41-2.95s-1.56-1.55-2.57-2.06c-1.01-.51-2.12-.76-3.31-.76-1.31,0-2.52.31-3.62.92-1.1.61-1.98,1.47-2.64,2.57-.66,1.1-.98,2.4-.98,3.89,0,1.37.33,2.62.98,3.73.65,1.12,1.54,2.01,2.66,2.68,1.12.67,2.33,1.01,3.64,1.01Z" style="fill: #fff; stroke-width: 0px;"/>
        <path d="m185.68,8.26h2.15v7.91h5.41v1.7h-5.41v15.55h-2.15v-15.55h-3.71v-1.7h3.71v-7.91Z" style="fill: #fff; stroke-width: 0px;"/>
        <path d="m206.06,33.79c-1.82,0-3.43-.4-4.83-1.21s-2.5-1.9-3.29-3.29c-.79-1.39-1.18-2.94-1.18-4.67s.42-3.25,1.25-4.65c.83-1.4,1.96-2.52,3.37-3.35,1.42-.83,2.99-1.25,4.72-1.25,2.09,0,3.84.61,5.25,1.83,1.42,1.22,2.44,2.82,3.06,4.78l-15.29,5.9-.63-1.52,13.99-5.45-.45.63c-.51-1.19-1.27-2.22-2.3-3.08-1.03-.86-2.29-1.3-3.78-1.3-1.34,0-2.55.33-3.62.98-1.07.66-1.93,1.54-2.57,2.64-.64,1.1-.96,2.35-.96,3.75,0,1.31.3,2.53.92,3.67.61,1.13,1.47,2.04,2.57,2.73,1.1.69,2.37,1.03,3.8,1.03.95,0,1.87-.18,2.75-.54s1.66-.82,2.35-1.39l1.07,1.52c-.83.66-1.8,1.19-2.88,1.61s-2.2.63-3.33.63Zm3.08-27.44l-4.74,5.94h-1.52l3.89-5.94h2.37Z" style="fill: #fff; stroke-width: 0px;"/>
        <path d="m228,41.97c-.98,0-1.92-.11-2.82-.34-.89-.22-1.77-.6-2.64-1.14-.87-.54-1.76-1.24-2.68-2.1l1.25-1.43c1.28,1.22,2.47,2.05,3.58,2.48,1.1.43,2.17.65,3.22.65,1.82,0,3.26-.29,4.34-.87,1.07-.58,1.85-1.36,2.32-2.32.48-.97.73-2.05.76-3.24l.04-5.68.49.54c-.6,1.55-1.66,2.82-3.2,3.8-1.54.98-3.27,1.48-5.21,1.48-1.64,0-3.14-.41-4.49-1.23-1.36-.82-2.44-1.92-3.24-3.31s-1.21-2.93-1.21-4.63c0-1.82.42-3.41,1.25-4.78.83-1.37,1.97-2.45,3.4-3.24,1.43-.79,3.01-1.18,4.74-1.18,1.61,0,3.14.42,4.58,1.25,1.45.83,2.5,1.94,3.15,3.31l-.27.98.22-5.01h1.88v17.74c0,1.43-.32,2.78-.96,4.05-.64,1.27-1.65,2.29-3.04,3.06-1.38.77-3.21,1.16-5.47,1.16Zm-7.38-17.39c0,1.37.33,2.62.98,3.73s1.54,2.01,2.66,2.68c1.12.67,2.36,1.01,3.73,1.01s2.5-.29,3.58-.87c1.07-.58,1.95-1.36,2.64-2.35.68-.98,1.07-2.04,1.16-3.17v-2.59c-.24-1.13-.71-2.13-1.41-2.99-.7-.86-1.56-1.55-2.59-2.06-1.03-.51-2.15-.76-3.37-.76-1.37,0-2.62.31-3.73.94-1.12.63-2,1.49-2.66,2.59s-.98,2.38-.98,3.84Z" style="fill: #fff; stroke-width: 0px;"/>
        <path d="m244.99,9.52c0-.42.16-.77.49-1.05s.69-.42,1.07-.42c.42,0,.77.14,1.07.42s.45.63.45,1.05c0,.45-.15.81-.45,1.09s-.66.42-1.07.42c-.39,0-.75-.15-1.07-.45-.33-.3-.49-.66-.49-1.07Zm.45,6.44h2.1v17.48h-2.1V15.95Z" style="fill: #fff; stroke-width: 0px;"/>
        <path d="m263.09,33.79c-1.82,0-3.43-.4-4.83-1.21s-2.5-1.9-3.29-3.29c-.79-1.39-1.18-2.94-1.18-4.67s.42-3.25,1.25-4.65c.83-1.4,1.96-2.52,3.37-3.35,1.42-.83,2.99-1.25,4.72-1.25,2.09,0,3.84.61,5.25,1.83,1.42,1.22,2.44,2.82,3.06,4.78l-15.29,5.9-.63-1.52,13.99-5.45-.45.63c-.51-1.19-1.27-2.22-2.3-3.08-1.03-.86-2.29-1.3-3.78-1.3-1.34,0-2.55.33-3.62.98-1.07.66-1.93,1.54-2.57,2.64-.64,1.1-.96,2.35-.96,3.75,0,1.31.3,2.53.92,3.67.61,1.13,1.47,2.04,2.57,2.73,1.1.69,2.37,1.03,3.8,1.03.95,0,1.87-.18,2.75-.54s1.66-.82,2.35-1.39l1.07,1.52c-.83.66-1.8,1.19-2.88,1.61s-2.2.63-3.33.63Z" style="fill: #fff; stroke-width: 0px;"/>
      </g>
      <g>
        <path d="m113.33,47.14c2.11,0,3.99.27,5.64.8s3.03,1.3,4.15,2.29c1.12.99,1.96,2.19,2.54,3.58.58,1.39.87,2.96.87,4.7,0,1.38-.21,2.75-.62,4.13-.41,1.38-1.08,2.63-2.02,3.76s-2.16,2.04-3.69,2.73c-1.53.69-3.42,1.03-5.69,1.03h-4.77v10.73h-6.65v-33.75h10.23Zm1.15,16.6c1.01,0,1.85-.17,2.52-.5.67-.34,1.2-.76,1.58-1.28.38-.52.66-1.06.83-1.63.17-.57.25-1.09.25-1.58,0-.37-.05-.83-.16-1.4-.11-.57-.33-1.14-.67-1.72-.34-.58-.85-1.07-1.54-1.47s-1.61-.6-2.77-.6h-4.77v10.18h4.72Zm6.24,4.13l8.35,13.02h-7.75l-8.53-12.84,7.93-.18Z" style="fill: #fff; stroke-width: 0px;"/>
        <path d="m131.58,47.14h22.74v6.42h-8.21v27.33h-6.65v-27.33h-7.89v-6.42Z" style="fill: #fff; stroke-width: 0px;"/>
        <path d="m178.76,55.3c-1.29-.7-2.59-1.28-3.92-1.74-1.33-.46-2.58-.69-3.74-.69-1.44,0-2.57.29-3.39.87-.83.58-1.24,1.45-1.24,2.61,0,.79.31,1.51.94,2.13.63.63,1.44,1.18,2.43,1.67.99.49,2.02.93,3.09,1.33.98.37,1.95.8,2.91,1.31.96.5,1.83,1.13,2.59,1.88s1.38,1.68,1.83,2.8c.46,1.12.69,2.48.69,4.1,0,1.71-.44,3.3-1.33,4.77-.89,1.47-2.19,2.65-3.9,3.55-1.71.9-3.82,1.35-6.33,1.35-1.28,0-2.59-.13-3.92-.39-1.33-.26-2.64-.66-3.92-1.19-1.28-.54-2.52-1.22-3.71-2.04l2.93-5.18c.79.58,1.66,1.09,2.59,1.54.93.44,1.87.79,2.82,1.03.95.25,1.82.37,2.61.37s1.6-.12,2.41-.34c.81-.23,1.48-.62,2.02-1.17s.8-1.31.8-2.29c0-.67-.22-1.28-.67-1.83-.44-.55-1.04-1.05-1.79-1.51-.75-.46-1.57-.86-2.45-1.19-1.04-.4-2.11-.86-3.21-1.38-1.1-.52-2.13-1.15-3.09-1.9s-1.74-1.68-2.34-2.8c-.6-1.12-.89-2.48-.89-4.1,0-1.96.44-3.65,1.31-5.09.87-1.44,2.1-2.57,3.69-3.42,1.59-.84,3.42-1.31,5.5-1.4,2.72,0,4.93.32,6.63.96,1.7.64,3.22,1.41,4.56,2.29l-2.52,5.09Z" style="fill: #fff; stroke-width: 0px;"/>
      </g>
      <path d="m60.87,0c-4.14,0-7.46,3.32-7.46,7.46s3.32,7.46,7.46,7.46,7.46-3.32,7.46-7.46S65.01,0,60.87,0Zm-10.58,9.69c-9.92,3.53-20.28,6.52-31.52,8.44.34.86.52,1.79.52,2.76,0,.9-.15,1.75-.45,2.54,17.94,2.41,34.1,6.72,48.09,13.41.3-1.1.84-2.11,1.55-2.97-13.28-6.4-28.43-10.67-45.05-13.19,9.92-1.98,19.18-4.74,28.05-7.87-.56-.97-.97-2.01-1.19-3.12h0Zm18.24,5.38c-.8.8-1.72,1.49-2.72,2.01,2.85,4.63,4.85,9.44,5.93,14.51.8-.28,1.68-.45,2.57-.45.26,0,.52.02.76.04-1.18-5.65-3.39-11.02-6.55-16.12h0Zm-56.89,1.53c-2.39,0-4.29,1.9-4.29,4.29s1.9,4.29,4.29,4.29,4.29-1.9,4.29-4.29-1.9-4.29-4.29-4.29Zm6.47,8.32c-.6.97-1.4,1.79-2.35,2.41,5.99,6.08,12.33,12.29,22.5,15,0-.17-.02-.35-.02-.52,0-.99.24-1.92.65-2.76-9.23-2.52-14.92-8.17-20.78-14.12h0Zm-10.63,2.37c-4.06,12.65-5.06,25.59-6.02,38.43.4-.09.81-.13,1.23-.13.74,0,1.46.13,2.12.39.97-12.76,1.97-25.37,5.84-37.51-1.15-.15-2.23-.56-3.16-1.18h0Zm66.83,7.22c-2.39,0-4.29,1.9-4.29,4.29s1.9,4.29,4.29,4.29,4.29-1.9,4.29-4.29-1.9-4.29-4.29-4.29h0Zm-7.65,4.14c-5.3,1.08-10.56,2.01-16.04,1.96.07.39.11.78.11,1.19,0,.75-.13,1.47-.39,2.15,5.97.11,11.56-.88,17.01-2.01-.45-.95-.69-2.01-.69-3.13v-.15Zm-22.18.26c-1.62,0-2.89,1.27-2.89,2.89s1.27,2.89,2.89,2.89,2.89-1.27,2.89-2.89-1.27-2.89-2.89-2.89Zm22.98,3.28c-10.37,8.56-19.88,17.61-26.69,28.11,1.1.34,2.09.93,2.91,1.7,6.51-9.98,15.71-18.8,25.89-27.21-.88-.69-1.6-1.59-2.11-2.59h0Zm-28.35,2.8c-8.93,8.66-20.44,15.52-32.24,22.29.81.78,1.41,1.79,1.69,2.91,11.86-6.79,23.65-13.78,32.98-22.89-1.01-.54-1.85-1.34-2.42-2.31Zm33.46,1.25c.24,5.37,1.12,10.69,2.67,15.89.9-.63,2-1.04,3.17-1.12-1.42-4.85-2.22-9.76-2.46-14.75-.54.13-1.08.19-1.64.19-.6,0-1.18-.07-1.73-.21Zm6.21,18.11c-1.57,0-2.8,1.23-2.8,2.8s1.23,2.8,2.8,2.8,2.8-1.23,2.8-2.8-1.23-2.8-2.8-2.8ZM2.69,68.95c-1.51,0-2.69,1.19-2.69,2.69s1.18,2.7,2.69,2.7,2.69-1.19,2.69-2.7-1.18-2.69-2.69-2.69Zm70.23.06c-8.34,4.57-17.5,6.08-27.03,6.64.17.63.26,1.29.26,1.96,0,.48-.06.95-.13,1.4,9.9-.58,19.73-2.16,28.78-7.18-.88-.75-1.53-1.72-1.88-2.82Zm-64.22,1.94c.03.22.04.45.04.69,0,.93-.21,1.81-.6,2.61l22.73,3.79c-.02-.15-.02-.28-.02-.43,0-1.01.21-1.98.56-2.87l-22.72-3.79Zm29.81,2.37c-2.39,0-4.29,1.9-4.29,4.29s1.9,4.29,4.29,4.29,4.29-1.9,4.29-4.29-1.9-4.29-4.29-4.29h0Z" style="fill: #fff; stroke-width: 0px;"/>
    </g>
  </g>
</svg>