<?xml version="1.0" encoding="UTF-8"?>
<svg id="Calque_2" data-name="Calque 2" xmlns="http://www.w3.org/2000/svg" viewBox="0 0 371.04 80.86">
  <g id="svg19">
    <g>
      <g>
        <path d="m117.68,7.85c-.99-.48-2.2-.92-3.63-1.34-1.43-.41-2.86-.62-4.29-.62-2.23,0-4.01.56-5.34,1.67-1.34,1.11-2,2.51-2,4.2,0,1.27.38,2.33,1.15,3.17.76.84,1.77,1.56,3.01,2.15,1.24.59,2.56,1.15,3.96,1.69,1.11.41,2.22.88,3.32,1.38,1.1.51,2.09,1.13,2.98,1.86.89.73,1.6,1.64,2.12,2.72.52,1.08.79,2.42.79,4.01,0,1.88-.45,3.54-1.34,4.99-.89,1.45-2.13,2.57-3.72,3.36-1.59.8-3.44,1.19-5.54,1.19-1.69,0-3.22-.21-4.6-.62s-2.59-.9-3.63-1.46c-1.03-.56-1.85-1.03-2.46-1.41l1.1-1.91c.7.51,1.55,1.02,2.55,1.53,1,.51,2.09.94,3.27,1.29,1.18.35,2.35.52,3.53.52,1.37,0,2.7-.27,3.98-.81,1.29-.54,2.35-1.36,3.2-2.46.84-1.1,1.26-2.49,1.26-4.18s-.4-2.93-1.19-3.94c-.8-1-1.81-1.82-3.05-2.46-1.24-.64-2.56-1.21-3.96-1.72-1.08-.41-2.16-.85-3.25-1.31-1.08-.46-2.07-1.02-2.96-1.67-.89-.65-1.6-1.44-2.12-2.36-.52-.92-.79-2.04-.79-3.34,0-1.62.41-3.04,1.24-4.25.83-1.21,1.95-2.16,3.36-2.84,1.42-.68,3.03-1.04,4.84-1.07,1.59,0,3.2.21,4.84.62,1.64.41,3.06.94,4.27,1.57l-.91,1.81Z" style="fill: #fff; stroke-width: 0px;"/>
        <path d="m129.18,11.05h2.29v8.45h5.77v1.81h-5.77v16.61h-2.29v-16.61h-3.96v-1.81h3.96v-8.45Z" style="fill: #fff; stroke-width: 0px;"/>
        <path d="m144.78,19.26l.24,5.73-.29-.72c.41-1.15,1.07-2.13,1.96-2.96.89-.83,1.88-1.46,2.98-1.91,1.1-.44,2.15-.67,3.17-.67l-.1,2.2c-1.43,0-2.73.32-3.89.95-1.16.64-2.08,1.49-2.77,2.55-.68,1.07-1.03,2.27-1.03,3.6v9.88h-2.24v-18.66h1.96Z" style="fill: #fff; stroke-width: 0px;"/>
        <path d="m166.64,38.3c-1.78,0-3.4-.41-4.84-1.22-1.45-.81-2.59-1.95-3.44-3.41-.84-1.46-1.26-3.17-1.26-5.11,0-2.07.45-3.84,1.34-5.32.89-1.48,2.1-2.61,3.63-3.39,1.53-.78,3.26-1.17,5.2-1.17,1.65,0,3.22.49,4.7,1.48,1.48.99,2.54,2.23,3.17,3.72l-.33.67.29-5.3h2v18.66h-2.24v-5.77l.48.86c-.22.64-.6,1.26-1.15,1.88-.54.62-1.2,1.19-1.98,1.72-.78.52-1.64.94-2.58,1.24-.94.3-1.93.45-2.98.45Zm.48-1.91c1.4,0,2.66-.29,3.79-.88,1.13-.59,2.04-1.41,2.74-2.46.7-1.05,1.1-2.26,1.19-3.63v-2.67c-.25-1.18-.76-2.23-1.5-3.15-.75-.92-1.66-1.65-2.74-2.19-1.08-.54-2.26-.81-3.53-.81-1.4,0-2.69.33-3.87.98-1.18.65-2.12,1.57-2.82,2.74-.7,1.18-1.05,2.56-1.05,4.15,0,1.46.35,2.79,1.05,3.98s1.65,2.15,2.84,2.86c1.19.72,2.49,1.07,3.89,1.07Z" style="fill: #fff; stroke-width: 0px;"/>
        <path d="m187.44,11.05h2.29v8.45h5.77v1.81h-5.77v16.61h-2.29v-16.61h-3.96v-1.81h3.96v-8.45Z" style="fill: #fff; stroke-width: 0px;"/>
        <path d="m209.2,38.3c-1.94,0-3.66-.43-5.15-1.29-1.5-.86-2.67-2.03-3.51-3.51-.84-1.48-1.26-3.14-1.26-4.99s.45-3.47,1.34-4.96c.89-1.5,2.09-2.69,3.6-3.58,1.51-.89,3.19-1.34,5.03-1.34,2.23,0,4.1.65,5.61,1.96,1.51,1.3,2.6,3.01,3.27,5.11l-16.32,6.3-.67-1.62,14.94-5.82-.48.67c-.54-1.27-1.36-2.37-2.46-3.29-1.1-.92-2.44-1.38-4.03-1.38-1.43,0-2.72.35-3.87,1.05-1.15.7-2.06,1.64-2.74,2.82-.68,1.18-1.03,2.51-1.03,4.01,0,1.4.33,2.7.98,3.91.65,1.21,1.57,2.18,2.74,2.91,1.18.73,2.53,1.1,4.06,1.1,1.02,0,2-.19,2.93-.57.94-.38,1.77-.87,2.5-1.48l1.15,1.62c-.89.7-1.92,1.27-3.08,1.72-1.16.44-2.35.67-3.55.67Zm3.29-29.3l-5.06,6.35h-1.62l4.15-6.35h2.53Z" style="fill: #fff; stroke-width: 0px;"/>
        <path d="m232.63,47.03c-1.05,0-2.05-.12-3.01-.36-.95-.24-1.89-.64-2.82-1.22-.92-.57-1.88-1.32-2.86-2.24l1.34-1.53c1.37,1.3,2.64,2.19,3.82,2.65,1.18.46,2.32.69,3.44.69,1.94,0,3.48-.31,4.63-.93,1.15-.62,1.97-1.45,2.48-2.48.51-1.03.78-2.19.81-3.46l.05-6.06.52.57c-.64,1.65-1.77,3.01-3.41,4.06-1.64,1.05-3.49,1.57-5.56,1.57-1.75,0-3.35-.44-4.8-1.31-1.45-.87-2.6-2.05-3.46-3.53-.86-1.48-1.29-3.13-1.29-4.94,0-1.94.45-3.64,1.34-5.11.89-1.46,2.1-2.62,3.63-3.46,1.53-.84,3.21-1.26,5.06-1.26,1.72,0,3.35.45,4.89,1.34,1.54.89,2.66,2.07,3.36,3.53l-.29,1.05.24-5.34h2v18.94c0,1.53-.34,2.97-1.03,4.32-.68,1.35-1.77,2.44-3.25,3.27-1.48.83-3.43,1.24-5.85,1.24Zm-7.87-18.56c0,1.46.35,2.79,1.05,3.98.7,1.19,1.65,2.15,2.84,2.86,1.19.72,2.52,1.07,3.98,1.07s2.67-.31,3.82-.93c1.15-.62,2.08-1.46,2.82-2.51s1.15-2.18,1.24-3.39v-2.77c-.25-1.21-.76-2.27-1.5-3.2-.75-.92-1.67-1.65-2.77-2.19-1.1-.54-2.3-.81-3.6-.81-1.46,0-2.79.33-3.98,1-1.19.67-2.14,1.59-2.84,2.77-.7,1.18-1.05,2.55-1.05,4.1Z" style="fill: #fff; stroke-width: 0px;"/>
        <path d="m250.76,12.39c0-.44.17-.82.53-1.12.35-.3.73-.45,1.15-.45.44,0,.83.15,1.14.45.32.3.48.68.48,1.12,0,.48-.16.87-.48,1.17-.32.3-.7.45-1.14.45-.41,0-.8-.16-1.15-.48-.35-.32-.53-.7-.53-1.15Zm.48,6.87h2.24v18.66h-2.24v-18.66Z" style="fill: #fff; stroke-width: 0px;"/>
        <path d="m270.09,38.3c-1.94,0-3.66-.43-5.15-1.29-1.5-.86-2.67-2.03-3.51-3.51-.84-1.48-1.26-3.14-1.26-4.99s.45-3.47,1.34-4.96c.89-1.5,2.09-2.69,3.6-3.58,1.51-.89,3.19-1.34,5.03-1.34,2.23,0,4.1.65,5.61,1.96,1.51,1.3,2.6,3.01,3.27,5.11l-16.32,6.3-.67-1.62,14.94-5.82-.48.67c-.54-1.27-1.36-2.37-2.46-3.29-1.1-.92-2.44-1.38-4.03-1.38-1.43,0-2.72.35-3.87,1.05-1.15.7-2.06,1.64-2.74,2.82-.68,1.18-1.03,2.51-1.03,4.01,0,1.4.33,2.7.98,3.91.65,1.21,1.57,2.18,2.74,2.91,1.18.73,2.53,1.1,4.06,1.1,1.02,0,2-.19,2.93-.57.94-.38,1.77-.87,2.5-1.48l1.15,1.62c-.89.7-1.92,1.27-3.08,1.72-1.16.44-2.35.67-3.55.67Z" style="fill: #fff; stroke-width: 0px;"/>
      </g>
      <g>
        <path d="m96.18,51.85h16.56v4.67h-5.98v19.9h-4.84v-19.9h-5.74v-4.67Z" style="fill: #fff; stroke-width: 0px;"/>
        <path d="m115.08,64.17c0-1.69.32-3.29.97-4.81s1.54-2.85,2.69-4.02c1.15-1.17,2.48-2.09,3.99-2.75,1.51-.67,3.14-1,4.87-1s3.33.33,4.84,1c1.51.67,2.85,1.59,4.02,2.75,1.17,1.17,2.08,2.51,2.74,4.02.66,1.51.98,3.12.98,4.81s-.33,3.36-.98,4.87c-.66,1.51-1.57,2.84-2.74,3.99-1.17,1.15-2.51,2.04-4.02,2.69-1.51.65-3.13.97-4.84.97s-3.36-.32-4.87-.97c-1.51-.65-2.84-1.54-3.99-2.69-1.15-1.15-2.04-2.48-2.69-3.99s-.97-3.14-.97-4.87Zm5.01,0c0,1.09.19,2.11.58,3.05.39.95.93,1.78,1.64,2.5s1.51,1.29,2.44,1.69c.92.4,1.93.6,3.02.6s2.02-.2,2.92-.6,1.69-.96,2.35-1.69c.67-.72,1.19-1.56,1.57-2.5s.57-1.96.57-3.05-.19-2.15-.58-3.11c-.39-.96-.92-1.8-1.6-2.52-.68-.72-1.47-1.29-2.39-1.69s-1.9-.6-2.97-.6-2.06.2-2.97.6-1.71.96-2.4,1.69c-.69.72-1.22,1.56-1.6,2.52-.38.96-.57,1.99-.57,3.11Z" style="fill: #fff; stroke-width: 0px;"/>
        <path d="m149.36,67.34c0,.78.23,1.53.7,2.24.47.71,1.09,1.29,1.85,1.74.77.45,1.61.67,2.52.67,1,0,1.89-.22,2.67-.67.78-.45,1.4-1.02,1.85-1.74.46-.71.68-1.46.68-2.24v-15.49h4.77v15.59c0,1.8-.45,3.4-1.34,4.79s-2.09,2.48-3.61,3.27c-1.51.79-3.19,1.18-5.04,1.18s-3.49-.39-4.99-1.18c-1.5-.79-2.7-1.88-3.59-3.27-.89-1.39-1.34-2.99-1.34-4.79v-15.59h4.84v15.49Z" style="fill: #fff; stroke-width: 0px;"/>
        <path d="m177.71,51.85c1.54,0,2.9.2,4.11.58,1.2.39,2.21.95,3.02,1.67.81.72,1.43,1.59,1.85,2.6.42,1.01.63,2.15.63,3.42,0,1-.15,2-.45,3s-.79,1.91-1.47,2.74c-.68.82-1.58,1.49-2.69,1.99-1.11.5-2.49.75-4.14.75h-3.47v7.81h-4.84v-24.57h7.44Zm.83,12.08c.73,0,1.35-.12,1.84-.37.49-.24.87-.56,1.15-.93.28-.38.48-.77.6-1.18.12-.41.18-.8.18-1.15,0-.27-.04-.61-.12-1.02s-.24-.83-.48-1.25c-.25-.42-.62-.78-1.12-1.07-.5-.29-1.17-.43-2.02-.43h-3.47v7.41h3.44Zm4.54,3l6.08,9.48h-5.64l-6.21-9.35,5.78-.13Z" style="fill: #fff; stroke-width: 0px;"/>
        <path d="m211.46,51.85c2.03,0,3.74.34,5.14,1.02s2.47,1.64,3.21,2.87,1.1,2.7,1.1,4.39c0,1-.15,2.01-.45,3.02-.3,1.01-.78,1.93-1.44,2.75-.66.82-1.54,1.49-2.64,1.99-1.1.5-2.45.75-4.06.75h-3.47v7.78h-4.84v-24.57h7.44Zm.83,12.08c.73,0,1.35-.13,1.84-.38.49-.25.87-.58,1.15-.97s.48-.8.6-1.22c.12-.42.18-.79.18-1.1,0-.24-.04-.57-.12-.98s-.24-.83-.48-1.25-.62-.78-1.12-1.07-1.17-.43-2.02-.43h-3.47v7.41h3.44Z" style="fill: #fff; stroke-width: 0px;"/>
        <path d="m219.97,76.42l11.08-25.54h.27l11.08,25.54h-5.61l-7.08-17.96,3.5-2.4-8.48,20.36h-4.77Zm7.58-8.88h7.38l1.7,4.07h-10.58l1.5-4.07Z" style="fill: #fff; stroke-width: 0px;"/>
        <path d="m253.42,51.85c1.54,0,2.9.2,4.11.58,1.2.39,2.21.95,3.02,1.67.81.72,1.43,1.59,1.85,2.6.42,1.01.63,2.15.63,3.42,0,1-.15,2-.45,3s-.79,1.91-1.47,2.74c-.68.82-1.58,1.49-2.69,1.99-1.11.5-2.49.75-4.14.75h-3.47v7.81h-4.84v-24.57h7.44Zm.83,12.08c.73,0,1.35-.12,1.84-.37.49-.24.87-.56,1.15-.93.28-.38.48-.77.6-1.18.12-.41.18-.8.18-1.15,0-.27-.04-.61-.12-1.02s-.24-.83-.48-1.25-.62-.78-1.12-1.07-1.17-.43-2.02-.43h-3.47v7.41h3.44Zm4.54,3l6.08,9.48h-5.64l-6.21-9.35,5.78-.13Z" style="fill: #fff; stroke-width: 0px;"/>
        <path d="m278.06,51.85h16.56v4.67h-5.98v19.9h-4.84v-19.9h-5.74v-4.67Z" style="fill: #fff; stroke-width: 0px;"/>
        <path d="m296.96,64.17c0-1.69.32-3.29.97-4.81.64-1.51,1.54-2.85,2.69-4.02,1.15-1.17,2.48-2.09,3.99-2.75,1.51-.67,3.14-1,4.87-1s3.33.33,4.84,1c1.51.67,2.85,1.59,4.02,2.75,1.17,1.17,2.08,2.51,2.74,4.02.66,1.51.98,3.12.98,4.81s-.33,3.36-.98,4.87c-.66,1.51-1.57,2.84-2.74,3.99-1.17,1.15-2.51,2.04-4.02,2.69s-3.13.97-4.84.97-3.36-.32-4.87-.97c-1.51-.65-2.84-1.54-3.99-2.69-1.15-1.15-2.04-2.48-2.69-3.99-.65-1.51-.97-3.14-.97-4.87Zm5.01,0c0,1.09.19,2.11.58,3.05s.94,1.78,1.64,2.5c.7.72,1.51,1.29,2.44,1.69s1.93.6,3.02.6,2.02-.2,2.92-.6,1.69-.96,2.35-1.69c.67-.72,1.19-1.56,1.57-2.5.38-.95.57-1.96.57-3.05s-.2-2.15-.58-3.11c-.39-.96-.92-1.8-1.6-2.52-.68-.72-1.47-1.29-2.39-1.69-.91-.4-1.9-.6-2.97-.6s-2.06.2-2.97.6c-.91.4-1.71.96-2.4,1.69-.69.72-1.22,1.56-1.6,2.52-.38.96-.57,1.99-.57,3.11Z" style="fill: #fff; stroke-width: 0px;"/>
        <path d="m331.24,67.34c0,.78.23,1.53.7,2.24.47.71,1.08,1.29,1.85,1.74s1.61.67,2.52.67c1,0,1.89-.22,2.67-.67.78-.45,1.4-1.02,1.85-1.74.46-.71.68-1.46.68-2.24v-15.49h4.77v15.59c0,1.8-.45,3.4-1.34,4.79s-2.09,2.48-3.61,3.27-3.19,1.18-5.04,1.18-3.49-.39-4.99-1.18c-1.5-.79-2.7-1.88-3.59-3.27-.89-1.39-1.33-2.99-1.33-4.79v-15.59h4.84v15.49Z" style="fill: #fff; stroke-width: 0px;"/>
        <path d="m359.58,51.85c1.54,0,2.9.2,4.11.58,1.2.39,2.21.95,3.02,1.67.81.72,1.43,1.59,1.85,2.6.42,1.01.63,2.15.63,3.42,0,1-.15,2-.45,3s-.79,1.91-1.47,2.74c-.68.82-1.58,1.49-2.69,1.99-1.11.5-2.49.75-4.14.75h-3.47v7.81h-4.84v-24.57h7.44Zm.83,12.08c.73,0,1.35-.12,1.84-.37.49-.24.87-.56,1.15-.93.28-.38.48-.77.6-1.18.12-.41.18-.8.18-1.15,0-.27-.04-.61-.12-1.02s-.24-.83-.48-1.25-.62-.78-1.12-1.07-1.17-.43-2.02-.43h-3.47v7.41h3.44Zm4.54,3l6.08,9.48h-5.64l-6.21-9.35,5.78-.13Z" style="fill: #fff; stroke-width: 0px;"/>
      </g>
      <g id="g1">
        <path id="path1" d="m32.52,75.96c-3.69-2.69-6.71-4.96-6.7-5.03.01-.16,13.36-9.89,13.56-9.89.08,0,.14,1.55.14,3.45,0,1.9.05,3.53.12,3.62.31.46.79.52,2.82.37,7.43-.56,14.19-3.89,19.06-9.38,1.33-1.5,3.25-4.3,4.01-5.87.29-.59.56-1.07.61-1.06.05,0,.91,1.15,1.91,2.55,1,1.4,1.99,2.72,2.19,2.94l.37.4-.52.87c-.85,1.41-2.85,3.99-4.25,5.48-4.57,4.87-11.3,8.69-17.76,10.08-2.11.45-5,.81-6.55.81-2.04,0-2.01-.04-2.01,3.02,0,1.39-.06,2.53-.14,2.53s-3.16-2.2-6.86-4.9Zm-11.18-6.33c-5.31-3.49-9.34-8.07-12.19-13.87-2.22-4.51-3.56-9.92-3.56-14.36,0-1.97-.03-1.99-3.1-2.08l-2.49-.08,4.89-6.71c2.69-3.69,4.96-6.72,5.05-6.73.09,0,2.36,3.01,5.05,6.71l4.89,6.73-3.38.08c-1.86.05-3.51.14-3.67.22-.49.23-.57.76-.42,2.83.69,9.8,6.48,18.62,15.1,23.04.68.35,1.22.66,1.22.71s-1.29,1-2.85,2.13-2.85,2.11-2.85,2.18c0,.26-.3.12-1.69-.79h0Zm33.49-12.25c.27-.3.3-.6.3-2.69,0-2.73-.05-2.84-1.34-2.96l-.8-.08v-1.53c0-2.09-.11-2.23-1.67-2.23-1.05,0-1.2-.04-1.4-.36-.65-1.03-.51-1.95.45-2.87.61-.59.72-.8.97-1.93.43-1.93.39-5.95-.07-8.3-.68-3.47-1.99-6.35-3.71-8.21-1.76-1.89-3.38-2.62-5.91-2.66-1.53-.02-1.62-.04-2.22-.52-1.53-1.2-2.89-1.57-5.04-1.35-1.54.16-2.01.42-2.01,1.14,0,.32.19.59.73,1.03.72.59,1.64,1.84,1.64,2.23,0,.11-1.63,1.6-3.63,3.31-2,1.72-3.71,3.3-3.81,3.51-.32.71-.19,1.35.55,2.74.99,1.84,1.42,2.37,2.18,2.72.94.43,1.5.38,2.73-.24,1.59-.8,2.12-1.39,2.12-2.37,0-.32.16-.41,1.45-.78,1.64-.47,1.76-.43,2.05.54.16.55.14.67-.25,1.34-.71,1.21-1.27,1.74-3.51,3.26-3.34,2.28-4.04,3.31-4.16,6.13l-.07,1.63h-1c-1.36,0-1.49.2-1.49,2.23v1.53l-.8.08c-1.27.12-1.33.25-1.39,2.87-.05,2.11-.03,2.29.29,2.69l.34.43h28.15l.3-.33Zm-27.02-2.64l.05-.91h25.21l.05.91.05.91h-25.4l.05-.91Zm2.19-3.92v-.87h20.93v1.74h-20.93v-.87Zm40.54,3.86c-.22-.29-2.45-3.35-4.95-6.79l-4.55-6.26,3.38-.08c1.86-.05,3.5-.14,3.64-.21.52-.25.6-.79.44-2.91-.47-6.23-2.89-12.01-6.99-16.67-2.11-2.4-5.56-5.07-8.25-6.39-.59-.29-1.07-.56-1.06-.61,0-.05,1.15-.91,2.55-1.91s2.72-1.99,2.94-2.19l.4-.37.87.52c1.44.87,4.08,2.92,5.53,4.29,5.01,4.75,8.68,11.32,10.11,18.12.47,2.24.74,4.49.74,6.23,0,1.97.03,1.99,3.09,2.08l2.49.08-4.79,6.58c-2.63,3.62-4.88,6.68-4.99,6.79-.17.18-.27.12-.6-.32ZM12.88,26.14c-1-1.4-1.99-2.72-2.19-2.94l-.37-.4.52-.87c2.37-3.92,6.2-7.83,10.35-10.59,5.37-3.57,12.34-5.78,18.24-5.79,2,0,1.98.04,1.98-3.02,0-1.44.06-2.53.15-2.53.11,0,10.04,7.15,13.15,9.47.51.38.52.41.24.67-.46.43-12.99,9.5-13.28,9.61-.23.09-.25-.25-.25-3.32,0-1.88-.05-3.53-.1-3.68-.18-.47-.78-.55-2.83-.4-7.4.56-14.32,3.97-19.08,9.38-1.34,1.53-3.25,4.33-4.01,5.88-.29.59-.56,1.07-.61,1.06-.05,0-.91-1.15-1.91-2.55Z" style="fill: #fff; stroke-width: 0px;"/>
      </g>
    </g>
  </g>
</svg>