<svg xmlns="http://www.w3.org/2000/svg" viewBox="0 0 383.25 105.82"><path d="M.17,0H37V8H8.5V27.84h25v7.9H8.5V62.12H.17Z" fill="#fff"/><path d="M58.93,63a19.16,19.16,0,0,1-9.06-2.14,15.75,15.75,0,0,1-6.45-6.32,20.41,20.41,0,0,1-2.36-10.18,20.32,20.32,0,0,1,2.49-10.27,17.23,17.23,0,0,1,6.66-6.65,18.47,18.47,0,0,1,9.15-2.32,15,15,0,0,1,8.42,2.27A16.41,16.41,0,0,1,73,32.73l-.52,1.38.78-7.56h7.39V62.12h-8V52.84l.86,2.06A8.52,8.52,0,0,1,72,57.09a17.54,17.54,0,0,1-3.09,2.71,18.46,18.46,0,0,1-4.43,2.27A16.33,16.33,0,0,1,58.93,63Zm2.15-6.61a12.62,12.62,0,0,0,5.41-1.12,10.83,10.83,0,0,0,4-3.13,11.77,11.77,0,0,0,2.19-4.86v-7a10.9,10.9,0,0,0-2.41-4.51,11.94,11.94,0,0,0-4.12-3,12.89,12.89,0,0,0-5.33-1.08,11.52,11.52,0,0,0-10.09,5.84A12.69,12.69,0,0,0,49.14,44a12.32,12.32,0,0,0,1.63,6.27,12.2,12.2,0,0,0,4.38,4.47A11.39,11.39,0,0,0,61.08,56.36Z" fill="#fff"/><path d="M108.93,63.15,89.17,26.55h9.45L112,54.81l-4.89-.17,12.28-28.09h8.94l-19,36.6Z" fill="#fff"/><path d="M133,44a18.56,18.56,0,0,1,2.53-9.62,18.27,18.27,0,0,1,7-6.79,22.07,22.07,0,0,1,20.37,0,17.49,17.49,0,0,1,6.78,6.79A19.38,19.38,0,0,1,172.08,44a19.61,19.61,0,0,1-2.41,9.66,17.32,17.32,0,0,1-6.83,6.83A20.57,20.57,0,0,1,152.58,63a21.06,21.06,0,0,1-10.1-2.36,17.57,17.57,0,0,1-7-6.61A19.19,19.19,0,0,1,133,44Zm8,.08a12.65,12.65,0,0,0,1.54,6.23,11.92,11.92,0,0,0,4.17,4.43,10.74,10.74,0,0,0,5.8,1.63,11.05,11.05,0,0,0,6-1.63,11.24,11.24,0,0,0,4.08-4.43,14,14,0,0,0,0-12.46,11.46,11.46,0,0,0-4.08-4.46,10.83,10.83,0,0,0-6-1.68,10.48,10.48,0,0,0-5.89,1.72,12.32,12.32,0,0,0-4.12,4.51A12.77,12.77,0,0,0,141,44.07Z" fill="#fff"/><path d="M194.16,63.49a11.13,11.13,0,0,1-7.95-3,10.7,10.7,0,0,1-3.31-7.69V26.55h8V50a8,8,0,0,0,1.68,4.73,6.1,6.1,0,0,0,4.77,1.89,8.8,8.8,0,0,0,5.37-1.76A12.82,12.82,0,0,0,206.53,50,15.82,15.82,0,0,0,208,43.13V26.55h8V62.12h-7.3L208,53.35l.43,1.55a12.38,12.38,0,0,1-3.14,4.42,15.62,15.62,0,0,1-4.94,3A16.61,16.61,0,0,1,194.16,63.49Z" fill="#fff"/><path d="M236.94,26.55l.78,10.31-.43-1.38a14.84,14.84,0,0,1,4-5.54,21.24,21.24,0,0,1,5.5-3.52,13,13,0,0,1,5-1.25l-.43,7.91a12,12,0,0,0-7.09,1.54,13.36,13.36,0,0,0-4.81,4.81,12.52,12.52,0,0,0-1.76,6.45V62.12h-7.91V26.55Z" fill="#fff"/><path d="M261.51,13.66A4,4,0,0,1,263,10.48a5,5,0,0,1,3.3-1.29,4.67,4.67,0,0,1,3.23,1.29A4.14,4.14,0,0,1,271,13.66a4.09,4.09,0,0,1-1.41,3.22,4.77,4.77,0,0,1-3.23,1.25,5,5,0,0,1-3.3-1.29A4,4,0,0,1,261.51,13.66Zm.6,12.89h8V62.12h-8Z" fill="#fff"/><path d="M287.37,10.91h8V26.72h9.8V33h-9.8V62.12h-8V33h-6.53V26.72h6.53Z" fill="#fff"/><path d="M331.27,63a21.2,21.2,0,0,1-10.48-2.44,17.06,17.06,0,0,1-6.74-6.71,19.66,19.66,0,0,1-2.36-9.75,17.67,17.67,0,0,1,2.66-9.53,19.93,19.93,0,0,1,7.13-6.88,19.66,19.66,0,0,1,10-2.57,16.93,16.93,0,0,1,11.69,4.12,20.84,20.84,0,0,1,6.27,11.34L320.1,50.86l-1.89-4.72,24.06-8.77-1.72,1.12a11.93,11.93,0,0,0-3.43-4.94,9.23,9.23,0,0,0-6.28-2.11A10.91,10.91,0,0,0,325,33a11.19,11.19,0,0,0-4,4.34,13.24,13.24,0,0,0-1.46,6.27,13.17,13.17,0,0,0,1.55,6.49,11.4,11.4,0,0,0,4.25,4.38,11.9,11.9,0,0,0,6.14,1.59,12.18,12.18,0,0,0,4.52-.86A18.35,18.35,0,0,0,340,53l3.69,5.93a25.11,25.11,0,0,1-6,2.92A20.35,20.35,0,0,1,331.27,63Z" fill="#fff"/><path d="M369.42,62.8a20.82,20.82,0,0,1-7.35-1.33,14.25,14.25,0,0,1-5.88-4l3.35-4.64a16.79,16.79,0,0,0,4.59,3.22,11.22,11.22,0,0,0,4.69,1.07A11,11,0,0,0,372,56.7a5,5,0,0,0,2.37-1.41,4.37,4.37,0,0,0-.35-5.72,9.57,9.57,0,0,0-3.17-1.8c-1.29-.46-2.65-.89-4.09-1.29a15.29,15.29,0,0,1-6.7-4,9.07,9.07,0,0,1-2.32-6.27,10.4,10.4,0,0,1,1.42-5.28,10.71,10.71,0,0,1,4.21-4,14.14,14.14,0,0,1,6.92-1.55,22.43,22.43,0,0,1,6.61.91,16.66,16.66,0,0,1,5.5,3l-3.18,5a9.41,9.41,0,0,0-3.69-2.4,13.5,13.5,0,0,0-3.87-.86,6.44,6.44,0,0,0-2.79.43,5.59,5.59,0,0,0-2.19,1.46,3.21,3.21,0,0,0-.86,2.23A3.79,3.79,0,0,0,367,38a8.26,8.26,0,0,0,3.14,1.76c1.29.43,2.56.88,3.82,1.34a18.53,18.53,0,0,1,4.73,2.06,10.68,10.68,0,0,1,3.3,3.18A8.4,8.4,0,0,1,383.25,51a12,12,0,0,1-1.5,5.89,10.72,10.72,0,0,1-4.56,4.29A16.72,16.72,0,0,1,369.42,62.8Z" fill="#fff"/><path d="M23.92,103.56a13.18,13.18,0,0,1-1.84.88,17.81,17.81,0,0,1-2.24.73,22.19,22.19,0,0,1-2.4.49,17.12,17.12,0,0,1-2.3.16,16.16,16.16,0,0,1-6.23-1.15,13.76,13.76,0,0,1-4.79-3.2,14.09,14.09,0,0,1-3-4.74A15.74,15.74,0,0,1,0,90.9,15.34,15.34,0,0,1,4.45,80a15.22,15.22,0,0,1,14.87-3.78A15.62,15.62,0,0,1,23,77.81l-.59,1.25A11.68,11.68,0,0,0,20.22,78a14.81,14.81,0,0,0-2.47-.69,13.09,13.09,0,0,0-2.57-.25,13.51,13.51,0,0,0-12.67,8.4,13.81,13.81,0,0,0-1,5.39,14.23,14.23,0,0,0,1,5.33,13.07,13.07,0,0,0,2.73,4.31,12.64,12.64,0,0,0,4.29,2.91,14.55,14.55,0,0,0,5.6,1,17.52,17.52,0,0,0,3.89-.46,13.06,13.06,0,0,0,3.56-1.29v-9H15.6V92.4h8.32Z" fill="#fff"/><path d="M38.63,105.49,51,74.67h.13l12.33,30.82H61.88L50.63,77l1-.46-11.54,29ZM44.2,93.74H58l.34,1.34H43.9Z" fill="#fff"/><path d="M79.07,105.49V75.38h0L93.37,95.62l-.63,0L107,75.38h0v30.11h-1.38V78.77l.12.67L93,97.29H93L80.24,79.44l.25-.63v26.68Z" fill="#fff"/><path d="M125.06,76H143v1.38H126.48V89.93h14.85v1.34H126.48v12.84h17.06v1.38H125.06Z" fill="#fff"/><path d="M174.23,78.69a19.15,19.15,0,0,0-3.09-1.11,14.11,14.11,0,0,0-3.81-.52,7.42,7.42,0,0,0-4.93,1.54,4.86,4.86,0,0,0-1.84,3.89,4.23,4.23,0,0,0,1,2.91,8.59,8.59,0,0,0,2.7,1.94c1.12.53,2.3,1,3.55,1.55,1,.36,2,.77,2.95,1.21a13.49,13.49,0,0,1,2.64,1.61,7,7,0,0,1,1.9,2.36,7.78,7.78,0,0,1,.71,3.47,8,8,0,0,1-1.17,4.37,7.85,7.85,0,0,1-3.22,2.89,10.39,10.39,0,0,1-4.68,1,13.58,13.58,0,0,1-4.14-.58,16.57,16.57,0,0,1-3.12-1.3c-.85-.47-1.5-.85-1.94-1.13l.67-1.21a16.8,16.8,0,0,0,2.23,1.34,18.38,18.38,0,0,0,2.91,1.15,11,11,0,0,0,3.18.48,9.26,9.26,0,0,0,3.72-.78,7,7,0,0,0,2.95-2.32,6.36,6.36,0,0,0,1.15-3.88,5.87,5.87,0,0,0-1.11-3.75,8.25,8.25,0,0,0-2.84-2.25A35.65,35.65,0,0,0,167,90c-1-.36-1.89-.75-2.83-1.15a14.86,14.86,0,0,1-2.55-1.42,6.23,6.23,0,0,1-1.81-2,5.5,5.5,0,0,1-.67-2.8,6.1,6.1,0,0,1,1.06-3.58,7.16,7.16,0,0,1,2.89-2.38,10,10,0,0,1,4.12-.9,17.67,17.67,0,0,1,4,.5,16.43,16.43,0,0,1,3.68,1.3Z" fill="#fff"/></svg>