<?xml version="1.0" encoding="UTF-8"?>
<svg id="Calque_2" data-name="Calque 2" xmlns="http://www.w3.org/2000/svg" viewBox="0 0 324.98 84.05">
  <g id="svg19">
    <g>
      <g>
        <path d="m125.43,7.49c-.99-.48-2.2-.92-3.63-1.34s-2.86-.62-4.29-.62c-2.23,0-4.01.56-5.34,1.67-1.34,1.11-2,2.51-2,4.2,0,1.27.38,2.33,1.15,3.17.76.84,1.77,1.56,3.01,2.15,1.24.59,2.56,1.15,3.96,1.69,1.11.41,2.22.88,3.32,1.38s2.09,1.13,2.98,1.86c.89.73,1.6,1.64,2.12,2.72.52,1.08.79,2.42.79,4.01,0,1.88-.45,3.54-1.34,4.99-.89,1.45-2.13,2.57-3.72,3.36s-3.44,1.19-5.54,1.19c-1.69,0-3.22-.21-4.6-.62s-2.59-.9-3.63-1.46c-1.03-.56-1.85-1.03-2.46-1.41l1.1-1.91c.7.51,1.55,1.02,2.55,1.53,1,.51,2.09.94,3.27,1.29,1.18.35,2.35.53,3.53.53,1.37,0,2.7-.27,3.98-.81,1.29-.54,2.35-1.36,3.2-2.46.84-1.1,1.26-2.49,1.26-4.18s-.4-2.93-1.19-3.94c-.8-1-1.81-1.82-3.05-2.46-1.24-.64-2.56-1.21-3.96-1.72-1.08-.41-2.16-.85-3.25-1.31-1.08-.46-2.07-1.02-2.96-1.67-.89-.65-1.6-1.44-2.12-2.36-.52-.92-.79-2.04-.79-3.34,0-1.62.41-3.04,1.24-4.25s1.95-2.16,3.36-2.84c1.42-.68,3.03-1.04,4.84-1.07,1.59,0,3.21.21,4.84.62,1.64.41,3.06.94,4.27,1.58l-.91,1.81Z" style="fill: #fff; stroke-width: 0px;"/>
        <path d="m135.06,37.55V1.28h2.2v22.57l-.14-.81c.64-1.3,1.66-2.41,3.08-3.32,1.42-.91,3.05-1.36,4.89-1.36,1.75,0,3.17.52,4.25,1.55,1.08,1.03,1.64,2.38,1.67,4.03v13.6h-2.29v-12.98c-.03-1.21-.41-2.21-1.14-3.01-.73-.79-1.8-1.21-3.2-1.24-1.24,0-2.4.32-3.48.96-1.08.64-1.95,1.5-2.6,2.58-.65,1.08-.98,2.31-.98,3.67v10.02h-2.24Z" style="fill: #fff; stroke-width: 0px;"/>
        <path d="m157.68,28.1c0-1.81.44-3.47,1.31-4.96.88-1.5,2.07-2.68,3.58-3.55,1.51-.88,3.2-1.31,5.08-1.31s3.61.44,5.11,1.31,2.67,2.06,3.53,3.55c.86,1.5,1.29,3.15,1.29,4.96s-.43,3.47-1.29,4.96c-.86,1.5-2.04,2.68-3.55,3.55-1.51.88-3.21,1.31-5.08,1.31s-3.61-.42-5.11-1.26c-1.5-.84-2.68-2-3.55-3.48s-1.31-3.17-1.31-5.08Zm2.24.05c0,1.46.34,2.79,1.03,3.98.68,1.19,1.61,2.14,2.77,2.84,1.16.7,2.46,1.05,3.89,1.05s2.73-.35,3.89-1.05c1.16-.7,2.08-1.65,2.77-2.84.68-1.19,1.03-2.52,1.03-3.98s-.34-2.79-1.03-3.98c-.68-1.19-1.61-2.15-2.77-2.86-1.16-.72-2.46-1.07-3.89-1.07s-2.78.37-3.94,1.12c-1.16.75-2.08,1.73-2.74,2.93s-1,2.5-1,3.87Z" style="fill: #fff; stroke-width: 0px;"/>
        <path d="m182.45,28.1c0-1.81.44-3.47,1.31-4.96.87-1.5,2.07-2.68,3.58-3.55s3.2-1.31,5.08-1.31,3.61.44,5.11,1.31c1.49.88,2.67,2.06,3.53,3.55.86,1.5,1.29,3.15,1.29,4.96s-.43,3.47-1.29,4.96c-.86,1.5-2.04,2.68-3.55,3.55-1.51.88-3.21,1.31-5.08,1.31s-3.61-.42-5.11-1.26c-1.5-.84-2.68-2-3.55-3.48-.88-1.48-1.31-3.17-1.31-5.08Zm2.24.05c0,1.46.34,2.79,1.03,3.98.68,1.19,1.61,2.14,2.77,2.84,1.16.7,2.46,1.05,3.89,1.05s2.73-.35,3.89-1.05c1.16-.7,2.08-1.65,2.77-2.84.69-1.19,1.03-2.52,1.03-3.98s-.34-2.79-1.03-3.98c-.68-1.19-1.61-2.15-2.77-2.86-1.16-.72-2.46-1.07-3.89-1.07s-2.78.37-3.94,1.12c-1.16.75-2.08,1.73-2.74,2.93s-1,2.5-1,3.87Z" style="fill: #fff; stroke-width: 0px;"/>
        <path d="m210.89,10.68h2.29v8.45h5.77v1.81h-5.77v16.61h-2.29v-16.61h-3.96v-1.81h3.96v-8.45Z" style="fill: #fff; stroke-width: 0px;"/>
        <path d="m246.92,37.93c-1.78,0-3.4-.41-4.84-1.22-1.45-.81-2.59-1.95-3.44-3.41-.84-1.46-1.26-3.17-1.26-5.11,0-2.07.45-3.84,1.34-5.32.89-1.48,2.1-2.61,3.63-3.39,1.53-.78,3.26-1.17,5.2-1.17,1.65,0,3.22.49,4.7,1.48,1.48.99,2.54,2.23,3.17,3.72l-.33.67.29-5.3h2v18.66h-2.24v-5.77l.48.86c-.22.64-.6,1.26-1.14,1.88-.54.62-1.2,1.19-1.98,1.72-.78.53-1.64.94-2.58,1.24-.94.3-1.93.45-2.98.45Zm.48-1.91c1.4,0,2.66-.29,3.79-.88s2.04-1.41,2.74-2.46c.7-1.05,1.1-2.26,1.19-3.63v-2.67c-.26-1.18-.76-2.23-1.5-3.15-.75-.92-1.66-1.65-2.74-2.2-1.08-.54-2.26-.81-3.53-.81-1.4,0-2.69.33-3.87.98-1.18.65-2.12,1.57-2.82,2.74-.7,1.18-1.05,2.56-1.05,4.15,0,1.46.35,2.79,1.05,3.98.7,1.19,1.65,2.15,2.84,2.86,1.19.72,2.49,1.07,3.89,1.07Z" style="fill: #fff; stroke-width: 0px;"/>
        <path d="m272.4,38.27l-9.45-19.37h2.62l7.78,16.94-1.38-.05,7.49-16.89h2.48l-9.26,19.37h-.29Z" style="fill: #fff; stroke-width: 0px;"/>
        <path d="m295.4,37.93c-1.94,0-3.66-.43-5.15-1.29-1.5-.86-2.67-2.03-3.51-3.51-.84-1.48-1.26-3.14-1.26-4.99s.45-3.47,1.34-4.96c.89-1.5,2.09-2.69,3.6-3.58,1.51-.89,3.19-1.34,5.03-1.34,2.23,0,4.1.65,5.61,1.96s2.6,3.01,3.27,5.11l-16.32,6.3-.67-1.62,14.94-5.82-.48.67c-.54-1.27-1.36-2.37-2.46-3.29s-2.44-1.38-4.03-1.38c-1.43,0-2.72.35-3.87,1.05s-2.06,1.64-2.74,2.82c-.68,1.18-1.03,2.51-1.03,4.01,0,1.4.33,2.7.98,3.91.65,1.21,1.57,2.18,2.74,2.91,1.18.73,2.53,1.1,4.06,1.1,1.02,0,2-.19,2.93-.57.94-.38,1.77-.87,2.5-1.48l1.15,1.62c-.89.7-1.92,1.27-3.08,1.72s-2.35.67-3.55.67Z" style="fill: #fff; stroke-width: 0px;"/>
        <path d="m324.94,35.74c-.86.7-1.83,1.24-2.91,1.62-1.08.38-2.21.57-3.39.57-1.91,0-3.61-.42-5.11-1.26-1.5-.84-2.67-2-3.53-3.46-.86-1.46-1.29-3.13-1.29-5.01s.45-3.55,1.34-5.01c.89-1.46,2.08-2.62,3.56-3.46,1.48-.84,3.09-1.26,4.84-1.26,1.3,0,2.51.19,3.63.57,1.11.38,2.08.92,2.91,1.62l-1.19,1.53c-.67-.54-1.45-.99-2.34-1.34-.89-.35-1.85-.53-2.86-.53-1.4,0-2.68.35-3.84,1.05-1.16.7-2.08,1.65-2.77,2.84-.68,1.19-1.03,2.52-1.03,3.98s.34,2.74,1.03,3.94c.68,1.19,1.62,2.14,2.82,2.84,1.19.7,2.52,1.05,3.98,1.05.96,0,1.84-.15,2.67-.45.83-.3,1.57-.71,2.24-1.22l1.24,1.38Z" style="fill: #fff; stroke-width: 0px;"/>
      </g>
      <g>
        <path d="m138.45,78.34c-.48.51-1.23,1.04-2.25,1.57s-2.21,1.02-3.54,1.46c-1.34.44-2.7.8-4.09,1.07-1.39.27-2.71.41-3.96.41-3.3,0-6.26-.49-8.9-1.46-2.64-.97-4.89-2.33-6.76-4.07-1.87-1.74-3.3-3.8-4.29-6.18-.99-2.38-1.48-4.98-1.48-7.8,0-3.7.56-6.92,1.68-9.64,1.12-2.73,2.64-5,4.56-6.81,1.92-1.81,4.14-3.16,6.65-4.04,2.51-.88,5.14-1.32,7.88-1.32,2.6,0,4.98.28,7.14.85,2.16.57,3.99,1.27,5.5,2.12l-2.58,7.42c-.66-.37-1.54-.73-2.64-1.1-1.1-.37-2.22-.67-3.35-.91s-2.14-.36-3.02-.36c-2.2,0-4.14.27-5.83.82-1.69.55-3.1,1.37-4.26,2.47-1.15,1.1-2.02,2.46-2.61,4.09-.59,1.63-.88,3.53-.88,5.69,0,1.91.33,3.62.99,5.14.66,1.52,1.58,2.81,2.78,3.87,1.19,1.06,2.6,1.87,4.23,2.42s3.43.82,5.41.82c1.13,0,2.18-.08,3.13-.25.95-.17,1.76-.43,2.42-.8v-4.89h-6.98v-7.69h15.06v17.09Z" style="fill: #fff; stroke-width: 0px;"/>
        <path d="m154.66,67.46c0,1.28.38,2.51,1.15,3.68.77,1.17,1.79,2.12,3.05,2.86,1.26.73,2.65,1.1,4.15,1.1,1.65,0,3.11-.37,4.4-1.1,1.28-.73,2.3-1.68,3.05-2.86.75-1.17,1.13-2.4,1.13-3.68v-25.5h7.86v25.66c0,2.97-.73,5.6-2.2,7.88-1.46,2.29-3.44,4.08-5.93,5.39s-5.26,1.95-8.3,1.95-5.74-.65-8.22-1.95c-2.47-1.3-4.44-3.1-5.91-5.39-1.47-2.29-2.2-4.92-2.2-7.88v-25.66h7.97v25.5Z" style="fill: #fff; stroke-width: 0px;"/>
        <path d="m225.27,84.05l-30.66-27.7,2.36,1.32.17,24.73h-8.08v-42.04h.33l30,27.58-1.76-.77-.17-25.22h8.02v42.09h-.22Z" style="fill: #fff; stroke-width: 0px;"/>
      </g>
      <g>
        <path d="m95.28,4.2l-.4-.57h-6.47c-.21-4.91-5.73-4.78-5.97,0h-39.54c-37.94,0-39.57.03-40.3.41-.87.45-1.7,1.33-2.17,2.29-.27.56-.33,1.57-.38,6.75l-.06,6.1c.31.37.94,1.1,1.35,1.09.38,0,.39.1.39,6.12,0,7.42-.17,6.96,2.68,7.1,2.84.14,4.32,1.14,5.31,3.59.99,4.87.31,2.93-4.5,16.57-2.64,6.89-4.91,13-5.04,13.57-1.15,4.15,4.21,10.27,6.16,13.23.88.9,1.78,1.38,3.03,1.61h0c2.1.76,18.46-6.03,20.36-6.78,2.67-1.72,3.68-5.98,2.24-9.18-1.82-3.69,1.14-8.39,2.57-12.88l10.33-.11c10.24-.11,10.34-.11,11.42-.61,2.41-1.1,4.19-2.88,5.24-5.24,1.3-1.49,1.01-9.9,1.03-13.81,5.29-.09,31.82.23,30.91-.31.35-.29.38-.69.47-6.54l.1-6.23c.47-.03.89-.19,1.24-.69.37-.53.39-.86.39-7.73s-.01-7.2-.4-7.75Zm-38.53,39.58c-.46.79-1.18,1.88-1.91,2.29-.74.43-1.08.45-9.23.52-4.8.04-8.47-.02-8.47-.13,0-.2,2.56-7.19,2.84-7.75.21-.63,2.3,2.84,2.91,3.05,1.73,1.49,3.59,1.22,4.54-.65,1.82-2.7-2.51-5.19-2.82-7.42-.05-.33,10.24-.2,12.27-.22-.03,2.58-.09,7.76-.12,10.33Z" style="fill: #fff; stroke-width: 0px;"/>
        <path d="m93.87,59.72c-.23-1.38-1.62-2.69-2.86-2.69-.4,0-.5-.15-.7-1.13-.88-4.26-3.75-8.55-7.26-10.88-1.16-.77-3.08-1.61-4.93-2.16-.14-.04-.24-.42-.24-.93-.46-4.11-5.63-3.59-5.65.89-6,1.47-10.77,6.43-12.33,13.26-.19.83-.26.9-.98,1.01-2.07.16-3.1,2.95-2.09,4.87.39.73,1.65,1.54,2.4,1.55.33,0,.5.35,1.01,2.11,1.63,6.11,6.44,10.67,11.98,12.08.14,1.37.49,2.8,1.64,3.36,2.16,1.25,4.14-.86,4.1-3.36,5.76-1.16,10.92-6.73,12.34-13.04.22-1.1.23-1.11,1.08-1.26,1.59-.27,2.75-2.01,2.48-3.69Zm-9.2,4.27c-.63,2.35-2.77,5.11-4.9,6.31-1.32.54-1.91,1.6-1.88-.32.1-4.54-5.6-4.33-5.55.06,0,1.25-.09,1.26-1.74.34-2.3-1.26-4.21-4.09-5.16-6.77,2.05-.05,4.16-1.01,4.02-3.35.1-2.51-1.99-3.32-4.04-3.35,1.05-2.75,2.78-5.48,5.2-6.78,1.61-.91,1.71-.89,1.71.32-.1,4.44,5.66,4.51,5.55.14,0-1.33.12-1.38,1.53-.62,2.45,1.33,4.54,3.94,5.25,6.56.12.45.07.49-.69.49-4.25-.04-4.1,6.5.01,6.48.75,0,.8.04.68.49Z" style="fill: #fff; stroke-width: 0px;"/>
      </g>
    </g>
  </g>
</svg>