<?xml version="1.0" encoding="UTF-8"?>
<svg id="Calque_2" data-name="Calque 2" xmlns="http://www.w3.org/2000/svg" viewBox="0 0 290.53 82.76">
  <g id="svg19">
    <g>
      <path id="text19" d="m111.14,5.52c-1.01-.49-2.24-.94-3.7-1.36-1.46-.42-2.92-.63-4.38-.63-2.27,0-4.09.57-5.46,1.71-1.36,1.14-2.05,2.57-2.05,4.29,0,1.3.39,2.39,1.17,3.26.78.84,1.8,1.58,3.07,2.19,1.27.58,2.61,1.15,4.04,1.71,1.14.42,2.26.89,3.36,1.41,1.14.52,2.16,1.15,3.07,1.9s1.62,1.67,2.14,2.78c.55,1.1.83,2.47.83,4.09,0,1.92-.45,3.62-1.36,5.12-.91,1.46-2.18,2.6-3.8,3.41-1.62.81-3.51,1.22-5.65,1.22-1.72,0-3.3-.21-4.73-.63-1.4-.42-2.63-.91-3.7-1.46-1.04-.58-1.87-1.07-2.48-1.46l1.12-1.95c.71.52,1.58,1.04,2.58,1.56,1.04.52,2.16.96,3.36,1.32,1.2.36,2.4.54,3.6.54,1.4,0,2.74-.28,4.04-.83,1.33-.55,2.42-1.38,3.26-2.48.88-1.14,1.32-2.57,1.32-4.29s-.41-2.99-1.22-3.99c-.81-1.04-1.85-1.88-3.12-2.53-1.27-.65-2.61-1.23-4.04-1.75-1.1-.42-2.21-.86-3.31-1.32-1.1-.49-2.11-1.06-3.02-1.71-.91-.68-1.64-1.49-2.19-2.44-.52-.94-.78-2.08-.78-3.41,0-1.66.42-3.1,1.27-4.34s1.98-2.19,3.41-2.87c1.46-.71,3.12-1.09,4.97-1.12,1.62,0,3.26.21,4.92.63,1.69.42,3.15.96,4.38,1.61l-.92,1.85Zm36.64-3.9v34.59h-2.39v-16.27h-20.85v16.27h-2.39V1.62h2.39v16.08h20.85V1.62h2.39Zm8.82,17.34c0-2.44.45-4.71,1.36-6.82.91-2.14,2.18-4.03,3.8-5.65,1.62-1.66,3.49-2.94,5.6-3.85,2.14-.94,4.43-1.41,6.87-1.41s4.73.47,6.87,1.41c2.14.91,4.03,2.19,5.65,3.85,1.62,1.62,2.89,3.51,3.8,5.65.94,2.11,1.41,4.38,1.41,6.82s-.47,4.73-1.41,6.87c-.91,2.11-2.18,3.98-3.8,5.6-1.62,1.62-3.51,2.89-5.65,3.8-2.14.91-4.43,1.36-6.87,1.36s-4.73-.44-6.87-1.32c-2.11-.88-3.98-2.11-5.6-3.7-1.62-1.59-2.89-3.46-3.8-5.6-.91-2.14-1.36-4.48-1.36-7.02Zm2.44.05c0,2.11.39,4.09,1.17,5.94s1.87,3.48,3.26,4.87c1.4,1.4,3,2.5,4.82,3.31,1.85.78,3.82,1.17,5.9,1.17,2.14,0,4.14-.39,5.99-1.17,1.85-.81,3.48-1.92,4.87-3.31,1.4-1.4,2.48-3.02,3.26-4.87.81-1.85,1.22-3.85,1.22-5.99,0-2.11-.41-4.09-1.22-5.94-.78-1.88-1.87-3.52-3.26-4.92-1.4-1.43-3.02-2.55-4.87-3.36-1.85-.81-3.83-1.22-5.94-1.22s-4.14.42-5.99,1.27c-1.85.81-3.48,1.93-4.87,3.36-1.36,1.43-2.44,3.09-3.22,4.97-.75,1.85-1.12,3.82-1.12,5.9h0Zm39.56-.05c0-2.44.45-4.71,1.36-6.82.91-2.14,2.18-4.03,3.8-5.65,1.62-1.66,3.49-2.94,5.6-3.85,2.14-.94,4.43-1.41,6.87-1.41s4.73.47,6.87,1.41c2.14.91,4.03,2.19,5.65,3.85,1.62,1.62,2.89,3.51,3.8,5.65.94,2.11,1.41,4.38,1.41,6.82s-.47,4.73-1.41,6.87c-.91,2.11-2.18,3.98-3.8,5.6-1.62,1.62-3.51,2.89-5.65,3.8-2.14.91-4.43,1.36-6.87,1.36s-4.73-.44-6.87-1.32c-2.11-.88-3.98-2.11-5.6-3.7-1.62-1.59-2.89-3.46-3.8-5.6-.91-2.14-1.36-4.48-1.36-7.02Zm2.44.05c0,2.11.39,4.09,1.17,5.94s1.87,3.48,3.26,4.87c1.4,1.4,3,2.5,4.82,3.31,1.85.78,3.82,1.17,5.9,1.17,2.14,0,4.14-.39,5.99-1.17,1.85-.81,3.48-1.92,4.87-3.31,1.4-1.4,2.48-3.02,3.26-4.87.81-1.85,1.22-3.85,1.22-5.99s-.41-4.09-1.22-5.94c-.78-1.88-1.87-3.52-3.26-4.92-1.4-1.43-3.02-2.55-4.87-3.36-1.85-.81-3.83-1.22-5.94-1.22s-4.14.42-5.99,1.27c-1.85.81-3.48,1.93-4.87,3.36-1.36,1.43-2.44,3.09-3.22,4.97-.75,1.85-1.12,3.82-1.12,5.9ZM238.25,1.62h22.65v2.29h-10.18v32.3h-2.39V3.91h-10.08V1.62Z" style="fill: #fff; stroke-width: 0px;"/>
      <path id="text21" d="m99.86,39.96c-.04,2.41-.08,4.83-.11,7.24s-.08,4.84-.11,7.3h-6.89v-14.53h7.12Zm6.78-.11h28.84v8.04h-20.51v9.02h18.15v8.04h-18.15v9.13h21.31v8.04h-29.64v-42.28Zm38.26,42.28v-44.01h.06l23.5,33.32-3.56-.8,23.44-32.52h.11v44.01h-8.33v-25.22l.52,4.31-14.3,20.34h-.11l-14.71-20.34,1.44-3.96v24.88h-8.04Zm80.6-15.63c0,1.34.4,2.62,1.21,3.85s1.86,2.22,3.16,2.99c1.34.77,2.8,1.15,4.37,1.15,1.72,0,3.26-.38,4.6-1.15,1.34-.77,2.39-1.76,3.16-2.99.8-1.23,1.21-2.51,1.21-3.85v-26.66h8.22v26.83c0,3.1-.77,5.86-2.3,8.27-1.53,2.37-3.6,4.25-6.2,5.63-2.6,1.34-5.5,2.01-8.67,2.01h0c-3.14,0-6.01-.67-8.62-2.01-2.57-1.38-4.62-3.26-6.15-5.63-1.53-2.41-2.3-5.17-2.3-8.27v-26.83h8.33v26.66Zm48.77-26.66c3.49,0,6.43.59,8.85,1.78,2.41,1.15,4.25,2.8,5.52,4.94,1.26,2.11,1.9,4.62,1.9,7.53,0,1.72-.27,3.47-.8,5.23-.5,1.72-1.32,3.29-2.47,4.71-1.11,1.42-2.62,2.57-4.54,3.45-1.88.84-4.19,1.26-6.95,1.26h-5.97v13.39h-8.33v-42.28h12.81Zm1.44,20.8c1.26,0,2.32-.21,3.16-.63.84-.46,1.49-1.01,1.95-1.67.5-.69.84-1.4,1.03-2.13.23-.73.34-1.36.34-1.9,0-.42-.08-.98-.23-1.67-.11-.73-.38-1.46-.8-2.18-.42-.73-1.07-1.34-1.95-1.84-.84-.5-1.99-.75-3.45-.75h-5.97v12.75h5.92Z" style="fill: #fff; stroke-width: 0px;"/>
      <path id="path1-2" d="m34.52.33c-.32.18-.72.57-.92.84-.56.84-13.45,23.94-13.45,24.12,0,.1,1.8,3.25,4.01,7.03l4.01,6.87.05,16.25.05,16.25,2.4,1.78,2.41,1.76v2.62c0,2.8.1,3.27.77,3.99.63.68,1.21.92,2.12.92s1.5-.24,2.12-.92c.68-.73.77-1.2.77-3.99v-2.62l2.41-1.76,2.4-1.78.05-16.25.05-16.25,4.01-6.87c2.2-3.78,4.01-6.93,4.01-7.03,0-.31-13.28-23.92-13.71-24.38-.23-.26-.61-.57-.85-.7-.64-.34-2.03-.27-2.7.11h0Zm4.12,18.27c1.4.42,2.59,1.08,3.94,2.18,2.19,1.76,2.57,3.48,1.13,4.93-1.25,1.26-2.62,1.18-4.18-.26-2.4-2.25-4.52-2.25-7.1,0-.6.52-1.29.97-1.67,1.07-.92.24-1.88-.06-2.57-.84-.97-1.05-1.05-2.18-.26-3.46.76-1.23,3.73-3.17,5.74-3.72,1.25-.34,3.69-.31,4.97.1Z" style="fill: #fff; stroke-width: 0px;"/>
      <path id="path2" d="m11.28,41l-5.57,9.97v-3.7c0-2.05-.08-3.99-.16-4.32-.23-.78-.88-1.57-1.56-1.84-1.24-.53-2.86-.06-3.59,1.02l-.4.6v20.55l2.62,4.28c1.45,2.36,2.82,4.56,3.04,4.88.48.73,1.53,1.26,2.4,1.24.34,0,3.78-.48,7.63-1.08l7-1.1.05-15.31.03-15.31-2.85-4.93c-1.58-2.7-2.91-4.91-2.96-4.93-.05,0-2.61,4.49-5.68,9.97h0Z" style="fill: #fff; stroke-width: 0px;"/>
      <path id="path3" d="m52.01,35.96l-2.85,4.93.03,15.31.05,15.31,7,1.1c3.85.6,7.29,1.08,7.63,1.08.87.02,1.92-.52,2.4-1.24.23-.32,1.59-2.52,3.04-4.88l2.62-4.28v-20.55l-.4-.6c-.93-1.39-3.12-1.66-4.31-.55-.87.81-.92,1.05-1,5.3l-.08,3.96-5.54-9.91c-3.04-5.45-5.57-9.91-5.63-9.91-.05,0-1.38,2.23-2.96,4.93h0Z" style="fill: #fff; stroke-width: 0px;"/>
    </g>
  </g>
</svg>