<?xml version="1.0" encoding="UTF-8"?>
<svg id="Calque_2" data-name="Calque 2" xmlns="http://www.w3.org/2000/svg" viewBox="0 0 241.1 79.06">
  <g id="svg19">
    <g>
      <g>
        <path d="m106.1,31.66c0,2.51-.46,4.66-1.38,6.44s-2.16,3.14-3.7,4.08c-1.54.94-3.29,1.44-5.22,1.5v-2.24c2.29-.13,4.19-1.03,5.7-2.72,1.51-1.69,2.27-4.09,2.27-7.21V2.89h2.34v28.77Z" style="fill: #fff; stroke-width: 0px;"/>
        <path d="m123.86,37.15c-1.94,0-3.66-.43-5.15-1.29-1.5-.86-2.67-2.03-3.51-3.51-.84-1.48-1.26-3.14-1.26-4.99s.45-3.47,1.34-4.96c.89-1.5,2.09-2.69,3.6-3.58,1.51-.89,3.19-1.34,5.03-1.34,2.23,0,4.1.65,5.61,1.96,1.51,1.3,2.6,3.01,3.27,5.11l-16.32,6.3-.67-1.62,14.94-5.82-.48.67c-.54-1.27-1.36-2.37-2.46-3.29-1.1-.92-2.44-1.38-4.03-1.38-1.43,0-2.72.35-3.87,1.05-1.14.7-2.06,1.64-2.74,2.82-.68,1.18-1.03,2.51-1.03,4.01,0,1.4.33,2.7.98,3.91.65,1.21,1.57,2.18,2.74,2.91,1.18.73,2.53,1.1,4.06,1.1,1.02,0,2-.19,2.93-.57s1.77-.87,2.5-1.48l1.15,1.62c-.89.7-1.92,1.27-3.08,1.72-1.16.44-2.35.67-3.55.67Z" style="fill: #fff; stroke-width: 0px;"/>
        <path d="m144.85,37.29c-1.75,0-3.15-.52-4.2-1.55-1.05-1.03-1.61-2.38-1.67-4.03v-13.6h2.24v12.93c.06,1.21.45,2.21,1.17,3.01.72.8,1.79,1.23,3.22,1.29,1.21,0,2.34-.32,3.39-.95,1.05-.64,1.9-1.5,2.55-2.6.65-1.1.98-2.35.98-3.75v-9.93h2.24v18.66h-2l-.24-5.87.33,1.29c-.32.95-.88,1.82-1.69,2.6-.81.78-1.77,1.39-2.86,1.84-1.1.44-2.25.67-3.46.67Z" style="fill: #fff; stroke-width: 0px;"/>
        <path d="m177.01,36.77h-2.67l-13.98-18.66h2.82l13.84,18.66Zm-8.3-8.02l-5.73,8.02h-2.39l6.87-9.5,1.24,1.48Zm.05-2.58l5.54-8.06h2.34l-6.92,9.73-.95-1.67Z" style="fill: #fff; stroke-width: 0px;"/>
        <path d="m204.88,37.15c-1.75,0-3.34-.42-4.77-1.26-1.43-.84-2.57-2.01-3.41-3.51-.84-1.5-1.26-3.18-1.26-5.06,0-2,.43-3.74,1.29-5.2.86-1.46,2.03-2.59,3.51-3.39,1.48-.79,3.11-1.19,4.89-1.19s3.47.46,5.08,1.38c1.61.92,2.77,2.13,3.51,3.63l-.38,1.05V.5h2.24v36.27h-2.29v-5.73l.48,1.05c-.8,1.5-1.99,2.71-3.58,3.65-1.59.94-3.36,1.41-5.3,1.41Zm.57-1.96c1.43,0,2.72-.31,3.87-.93,1.14-.62,2.07-1.46,2.77-2.53.7-1.07,1.1-2.27,1.19-3.6v-2.39c-.22-1.21-.72-2.29-1.48-3.25-.76-.95-1.69-1.71-2.77-2.27-1.08-.56-2.27-.83-3.58-.83-1.43,0-2.74.33-3.91,1-1.18.67-2.12,1.59-2.82,2.77-.7,1.18-1.05,2.55-1.05,4.1,0,1.46.35,2.79,1.05,3.98.7,1.19,1.65,2.15,2.84,2.86,1.19.72,2.49,1.07,3.89,1.07Z" style="fill: #fff; stroke-width: 0px;"/>
        <path d="m232.18,37.15c-1.94,0-3.66-.43-5.15-1.29-1.5-.86-2.67-2.03-3.51-3.51-.84-1.48-1.26-3.14-1.26-4.99s.45-3.47,1.34-4.96c.89-1.5,2.09-2.69,3.6-3.58,1.51-.89,3.19-1.34,5.03-1.34,2.23,0,4.1.65,5.61,1.96,1.51,1.3,2.6,3.01,3.27,5.11l-16.32,6.3-.67-1.62,14.94-5.82-.48.67c-.54-1.27-1.36-2.37-2.46-3.29-1.1-.92-2.44-1.38-4.03-1.38-1.43,0-2.72.35-3.87,1.05-1.15.7-2.06,1.64-2.74,2.82-.68,1.18-1.03,2.51-1.03,4.01,0,1.4.33,2.7.98,3.91.65,1.21,1.57,2.18,2.74,2.91,1.18.73,2.53,1.1,4.06,1.1,1.02,0,2-.19,2.93-.57.94-.38,1.77-.87,2.5-1.48l1.15,1.62c-.89.7-1.92,1.27-3.08,1.72-1.16.44-2.35.67-3.55.67Z" style="fill: #fff; stroke-width: 0px;"/>
      </g>
      <g>
        <path d="m97.5,60.28c0-2.45.47-4.77,1.4-6.97.93-2.19,2.23-4.14,3.89-5.83s3.59-3.02,5.78-3.99c2.19-.97,4.55-1.45,7.06-1.45s4.82.48,7.02,1.45c2.19.97,4.14,2.3,5.83,3.99s3.02,3.64,3.97,5.83c.95,2.19,1.43,4.52,1.43,6.97s-.48,4.87-1.43,7.06c-.95,2.19-2.27,4.12-3.97,5.78-1.69,1.66-3.64,2.96-5.83,3.9-2.19.94-4.53,1.4-7.02,1.4s-4.87-.47-7.06-1.4c-2.19-.94-4.12-2.23-5.78-3.9-1.66-1.66-2.96-3.59-3.89-5.78-.94-2.19-1.4-4.55-1.4-7.06Zm7.26,0c0,1.55.28,3.01.85,4.38.56,1.37,1.35,2.58,2.37,3.63,1.02,1.05,2.19,1.86,3.53,2.44,1.34.58,2.8.87,4.38.87s2.93-.29,4.23-.87c1.31-.58,2.44-1.39,3.41-2.42.97-1.03,1.72-2.23,2.27-3.6.55-1.37.82-2.85.82-4.43s-.28-3.01-.85-4.38c-.57-1.37-1.34-2.57-2.32-3.6-.98-1.03-2.14-1.84-3.46-2.42-1.32-.58-2.76-.87-4.31-.87s-2.98.29-4.31.87c-1.32.58-2.48,1.39-3.48,2.42s-1.77,2.23-2.32,3.6c-.55,1.37-.82,2.83-.82,4.38Zm20.08,10.89h11.03v6.87h-20.22l9.19-6.87Z" style="fill: #fff; stroke-width: 0px;"/>
        <path d="m149.18,64.88c0,1.13.34,2.21,1.02,3.24.68,1.03,1.57,1.87,2.69,2.52,1.11.65,2.33.97,3.65.97,1.45,0,2.74-.32,3.87-.97s2.02-1.48,2.69-2.52c.66-1.03.99-2.11.99-3.24v-22.45h6.92v22.6c0,2.61-.65,4.93-1.94,6.94-1.29,2.02-3.03,3.6-5.23,4.74-2.19,1.15-4.63,1.72-7.31,1.72s-5.06-.57-7.23-1.72c-2.18-1.14-3.91-2.72-5.2-4.74-1.29-2.02-1.94-4.33-1.94-6.94v-22.6h7.02v22.45Z" style="fill: #fff; stroke-width: 0px;"/>
        <path d="m179.47,42.43h7.02v35.61h-7.02v-35.61Z" style="fill: #fff; stroke-width: 0px;"/>
        <path d="m193.26,78.04c1.1-1.74,2.1-3.34,3.02-4.79.92-1.45,1.95-3.1,3.1-4.94,1.14-1.84,2.32-3.73,3.53-5.66,1.21-1.93,2.39-3.82,3.53-5.66,1.14-1.84,2.18-3.48,3.1-4.94.92-1.45,1.93-3.05,3.02-4.79l.77,1.94h-12.82c-.68,0-1.38-.15-2.1-.46-.73-.31-1.34-.73-1.84-1.26s-.75-1.12-.75-1.77v-5.08h6.44v.68c0,.71.11,1.07.34,1.09.23.02.63.02,1.21.02h19.79l-18.77,29.61-.39-.77h19.11v6.77h-30.29Z" style="fill: #fff; stroke-width: 0px;"/>
      </g>
      <g id="g1">
        <path id="path1" d="m36.95,78.99c-5.01-.47-10.21-1.89-14.1-3.86l-.88-.45,4.55-7.88c2.5-4.33,4.58-7.94,4.6-8.02.03-.08.64.07,1.36.33,2.47.89,4.24,1.19,7.09,1.19,2.88,0,4.16-.21,6.79-1.1.89-.3,1.64-.49,1.66-.42.03.07,2.1,3.68,4.6,8.01l4.55,7.88-.99.5c-3.71,1.87-8.93,3.33-13.37,3.74-1.64.15-4.6.18-5.87.07h0Zm-19.93-7.2c-1.69-1.18-3.76-2.94-5.42-4.59C4.99,60.61.94,52.07.1,42.97l-.1-1.12h18.98l.1.91c.22,1.98,1.28,5.02,2.43,7.02,1.25,2.16,3.1,4.37,4.96,5.91l.74.61-4.6,7.99c-2.53,4.39-4.67,7.99-4.75,7.99s-.47-.22-.85-.49Zm40.02-6.63c-2.25-3.91-4.32-7.51-4.59-8l-.5-.88,1.11-.92c2.59-2.15,5.01-5.71,6.15-9.03.41-1.19.92-3.45.93-4.06v-.42h19.03l-.1,1.12c-.27,2.91-1.03,6.43-2.01,9.23-1.95,5.61-5.13,10.63-9.49,15-2.14,2.14-5.81,5.11-6.29,5.08-.07,0-1.97-3.21-4.22-7.12Zm-20.16-9.64c-7.13-1.33-12.41-6.83-13.37-13.94-.66-4.91,1.18-10.07,4.85-13.58,2.45-2.35,5.01-3.66,8.38-4.31,1.25-.24,1.44-.33,2.01-.9.35-.35.68-.73.73-.86.09-.21.11-.21.2,0,.06.13.39.52.73.86.57.57.76.65,2.01.9,3.39.65,5.91,1.96,8.38,4.31,6.61,6.32,6.62,16.68.04,23.13-2.18,2.14-4.91,3.61-7.9,4.27-1.6.35-4.55.41-6.07.13h0Zm4.06-4.83c.65-.46,1.02-1.31.93-2.12-.15-1.3-1.24-2.18-2.52-2.04-2.98.34-2.57,4.79.41,4.55.4-.03.92-.2,1.18-.39Zm-.09-7.15c.47-.34,1.06-1.33,1.06-1.79,0-.18.27-.4.81-.65.46-.21,1.21-.77,1.75-1.31,2.78-2.78,2.78-6.98,0-9.76-2.19-2.2-5.19-2.67-8.08-1.29-1.01.48-2.52,2.03-3.02,3.09-1.34,2.84-.76,5.11,1.35,5.35,1.33.15,2.34-.71,2.54-2.17.06-.44.24-1.03.4-1.29.35-.6,1.27-1.13,1.94-1.13.77,0,1.65.58,2.01,1.31.39.81.39,1.21-.02,2.04-.27.56-.5.76-1.35,1.19-1.84.94-2.79,2.32-2.91,4.25-.05.83,0,1.1.26,1.52.66,1.06,2.25,1.36,3.28.63h0ZM.1,36.09c.84-9.11,4.87-17.6,11.49-24.23,2.14-2.14,5.81-5.11,6.3-5.08.07,0,1.55,2.49,3.29,5.52,1.74,3.03,3.82,6.65,4.62,8.04l1.45,2.52-.6.49c-3.86,3.12-6.54,7.51-7.42,12.14-.14.73-.28,1.42-.3,1.53-.04.15-2.07.19-9.49.19H0l.1-1.12Zm60.33.67c0-.8-.88-3.92-1.51-5.39-1.22-2.81-3.29-5.62-5.52-7.48-.64-.53-1.14-1.05-1.12-1.15.1-.42,9.17-15.97,9.32-15.97.44,0,3.82,2.79,5.96,4.93,5,5,8.2,10.39,10.11,17.01.56,1.95,1.19,5.31,1.38,7.38l.1,1.12h-18.71v-.45ZM26.63,12.46l-4.66-8.08.88-.45C27.23,1.72,33.02.25,38.26.03c5.79-.25,12.77,1.25,17.93,3.85l.99.5-4.64,8.03c-2.55,4.42-4.72,8.02-4.83,8.01-.1-.01-.78-.24-1.5-.5-.72-.26-1.61-.55-1.97-.64-.65-.16-.66-.18-1.74-2.31-1.28-2.52-1.49-2.71-2.94-2.71s-1.65.19-2.94,2.71c-1.08,2.13-1.09,2.14-1.74,2.31-.58.14-2.71.87-3.37,1.15-.19.08-1.24-1.63-4.9-7.98h0Z" style="fill: #fff; stroke-width: 0px;"/>
      </g>
    </g>
  </g>
</svg>