<?xml version="1.0" encoding="UTF-8"?>
<svg id="Calque_2" data-name="Calque 2" xmlns="http://www.w3.org/2000/svg" viewBox="0 0 211.22 69.89">
  <g id="Calque_1-2" data-name="Calque 1">
    <path d="m101.58,59.39c-.02.09-.02.18,0,.26" vector-effect="non-scaling-stroke" style="fill: none; stroke: #000; stroke-width: 2px;"/>
    <path d="m85.43.32c.47.4,3.24,2.69,3.37,3.14.16.55-.04.75-.59.6-1.58-.43-3.02-.22-4.31.62-2.26,1.48-4.54,2.92-6.84,4.34-.33.2-.86.14-.4-.4,2.32-2.72,4.74-5.46,7.26-8.2.47-.52.98-.55,1.51-.1Z" style="fill: #ff2100; stroke-width: 0px;"/>
    <path d="m120.72,1.73c.85-.89,3.09-1.18,4.23-1.01,1.58.23,2.55,1.58,3.65,2.77,1.51,1.63-.94,2.94-2.13,3.36-.58.2-1.04.05-1.4-.44-1.05-1.46-2.34-3.49-4.14-3.96-.23-.06-.37-.3-.31-.53.02-.07.06-.14.11-.19Z" style="fill: #ff2100; stroke-width: 0px;"/>
    <path d="m97.36,22.82c0,.14.12.25.26.24.02,0,.05,0,.07-.01,6.17-2.05,8.82,1.92,6.09,7.41-.03.06-.66,1.12-1.9,3.2-2.95,4.95-6.17,9.85-11.55,12.15-.9.39-1.21-.02-.46-.72,5.64-5.25,9.15-11.63,11.77-18.66.24-.63.34-1.12.3-1.49-.08-.77-.5-1.08-1.27-.94-1.96.38-3.55,1.2-4.78,2.44-.27.27-.6.51-.99.71-.43.23-.68.1-.74-.39-.46-3.96,1.9-7.96,4.38-10.86.88-1.04,4.67-5.83.57-5.07-1.47.27-2.7,1-3.7,2.19-.39.46-.69.73-.92.82-.9.37-1.34-.56-1.23-1.34.52-3.42,3.03-7.76,4.8-10.74.34-.57.8-.69,1.38-.37.73.41,1.32.98,1.8,1.71.19.3.17.68-.05.95-1.71,2.11-3.68,4.16-4.91,6.51-.07.13-.07.26-.01.31.06.06.27.02.36-.04,1.72-1.47,5.51-2.3,6.86.26.51.96.06,1.76-.61,2.61-1.3,1.64-5.58,7.16-5.51,9.11Z" style="fill: #ff2100; stroke-width: 0px;"/>
    <path d="m132.26,10.6c.16-.16.17-.42.02-.57-.03-.03-.06-.06-.1-.07-3.79-1.72-11.96,2.9-14.96,5.32-2.18,1.75-4.98,1.12-7.45.42-.29-.08-.53-.2-.7-.36-.16-.14-.18-.38-.04-.54.04-.04.08-.08.14-.1,5.78-2.56,11.67-4.83,17.67-6.8,4.33-1.43,8.75-2.4,12.44,1.13.9.86,1.76,1.45.43,2.5-2.02,1.6-2.48-.33-4.3-.31-.68,0-1.43.19-2.26.53-.72.3-2.32,1.01-2.47.74-.05-.09-.02-.21.06-.31l1.52-1.59Z" style="fill: #ff2100; stroke-width: 0px;"/>
    <path d="m87.48,8.02c1.38.2,3.21.75,4.13,1.84.18.21.16.53-.06.72l-4.64,4.13c-.5.45-.63.36-.37-.26.52-1.26,1.21-2.65,2.09-4.14.14-.24.1-.53-.09-.73-.12-.13-1.51-1.23-1.37-1.47.04-.07.17-.1.31-.08Z" style="fill: #ff2100; stroke-width: 0px;"/>
    <path d="m82.88,10.99c.17-.31,1.58-2.92,1.93-2.58.05.05.08.17.07.32l-.04.89c0,.12.1.22.24.22.04,0,.08,0,.12-.03,1-.48.68.06.38.43-.99,1.23-.81,2.74-1.09,4.22-.12.63-.43.74-.93.34-.79-.62-2.44-3.51-3.25-1.31-.62,1.68-1.22,3.11-1.8,4.28-.42.85-.97.94-1.66.25-1.61-1.6-1.42-4.47-.25-6.13,1.31-1.86.38,1,1.22,1.41.09.05.21.04.31-.03,1.89-1.23,2.93-1.31,4.51-2.05.1-.05.19-.13.24-.23Z" style="fill: #ff2100; stroke-width: 0px;"/>
    <path d="m121.38,24.12c1.76-.46,4.13-.5,5.42-1.89,1.24-1.32,2.36-2.73,3.35-4.23.06-.09.06-.21,0-.3-2.15-3.3-6.08,2.19-9.18.52-.43-.23-.41-.4.07-.51,2.37-.52,3.96-2.15,5.9-2.75,2.39-.75,5.49.06,6.87,2.3.73,1.18.16,2.24-.76,3.05-.97.86-1.88,2.1-2.71,3.72-.8,1.55-3.26,1.34-4.73,1.29-.16,0-.3.12-.31.28-.07,1.42.03,2.82.31,4.21.52,2.61.8,5.25.84,7.9.05,2.87.19,4.53-2.45,5.77-.71.34-1.02.07-.91-.81.24-1.96-.23-3.7-1.4-5.21-.06-.08-.15-.15-.27-.2-.23-.11-.43-.25-.59-.44-.06-.06-.05-.16.02-.22,0,0,.01-.01.02-.01.72-.45,1.49-.79,2.3-1.05.67-.21.92-.67.73-1.39-.76-2.87-.72-5.72.12-8.56.03-.1-.02-.2-.11-.24-2.24-.9-1.81.86-2.43,2.01-.38.69-.87.59-1.49-.3-1.97-2.82-3.06-5.83-2.43-9.04.15-.74.46-.76.95-.07,1.28,1.84,2.16,3.85,2.65,6.03.02.09.11.15.2.13,0,0,0,0,0,0Z" style="fill: #ff2100; stroke-width: 0px;"/>
    <path d="m83.45,37.33c.34-.22-.08-4.73-.15-5.66-.02-.29-.13-.33-.35-.13l-5.79,5.4c-.44.41-.74.32-.91-.27-.56-2.01-.08-3.53,1.11-5.34,1.77-2.69,3.54-5.39,5.3-8.09.19-.3.34-.62.42-.97.12-.5-.03-.57-.46-.2-2.25,1.92-4.48,3.85-6.69,5.81-1.13,1-2.44,1.35-3.93,1.07-.56-.11-2.06-.02-.79-1.12,3.62-3.1,7.42-6.09,11.4-8.96.2-.14.33-.36.36-.59.11-.78.39-1.35.83-1.71.43-.35.73-.22.88.4.15.59,2.16.95,2.76,1.34.21.14.27.43.13.64,0,0,0,0,0,0-.87,1.24-2.74,3.13-2.69,4.63.04,1.41.06,2.82.06,4.23,0,.29.12.35.35.18.83-.62,1.69-1.2,2.57-1.73.95-.57.37.25.21.4-.92.92-1.8,1.77-2.64,2.56-.35.33-.52.73-.51,1.21.07,3.26.07,6.35.02,9.28-.01.6-.2,1.21-.63,1.56-.37.31-.69.26-.94-.16-.64-1.06-1.04-2.17-1.21-3.35-.12-.81.3-1.52,1.02-.52.08.11.19.15.27.1Zm-.65-11.32l-2.36,4.43c-.31.57-.17.68.42.33l2.1-1.27c.2-.12.32-.36.31-.62l-.1-2.76c-.02-.5-.14-.54-.37-.11Z" style="fill: #ff2100; stroke-width: 0px;"/>
    <path d="m134.64,34.77c.19-.1.26-.34.16-.53-.03-.05-.06-.1-.11-.13-1.02-.77-1.93-1.61-2.75-2.53-.24-.27-2.47-.84-1.19-1.09,2.87-.57,5.43-.04,7.68,1.59,1.82,1.31,2.95,2.44,1.31,4.6-.34.44-.78.64-1.33.59-.72-.07-1.67-.58-2.24-.74-2.52-.68-3.9.96-5.94.67-.41-.06-.45-.21-.11-.45.92-.65,1.88-1.21,2.9-1.66.51-.23,1.17-.1,1.59-.32Z" style="fill: #ff2100; stroke-width: 0px;"/>
    <path d="m111.84,31.03c.11-1,.39-1.06.83-.18,1.32,2.63,3.2,1.26,4.86.11.2-.13.78-.24.49.26-1.37,2.33-2.92,4.42-3.95,7.07-.9,2.33-2.32.05-2.87-.82-.82-1.3-1.61-2.37-.54-3.81.65-.87,1.04-1.51,1.17-2.63Z" style="fill: #ff2100; stroke-width: 0px;"/>
    <path d="m0,69.76v-20.55l35.97-.09c.11,0,.22.04.31.12,4.75,4.33,4.56,10.99.09,15.46-.21.21-.5.33-.8.33H9.98c-.13,0-.24.11-.24.24,0,0,0,0,0,0l.02,4.24c0,.19-.15.34-.34.35,0,0,0,0,0,0l-9.42-.1Zm30.48-14.35l-20.51-.06c-.11,0-.2.09-.2.2h0v3.06c0,.1.08.18.18.18h20.28c.23,0,.44-.09.61-.24,1.09-1.04,1.07-2.04-.05-3.01-.08-.07-.19-.12-.31-.12Z" style="fill: #ff2100; stroke-width: 0px;"/>
    <path d="m50.43,54.99v1.02c0,.12.1.21.23.21h24.77c.24,0,.48.08.67.24,4.72,3.8,4.82,9.3.07,13.13-.22.18-.5.28-.79.28h-34c-.2,0-.36-.15-.36-.35,0,0,0,0,0,0l.05-5.04c0-.1.08-.18.18-.18h28.69c.11,0,.22-.06.26-.15.19-.39.21-.8.07-1.23-.03-.1-.13-.16-.24-.16l-24.89-.02c-.11,0-.22-.03-.31-.1-4.96-3.57-5.01-9.54-.24-13.3.2-.16.45-.25.71-.25h31.76c.17,0,.3.13.3.3h0v4.95c0,.2-.16.36-.37.36l-26.19-.07c-.2,0-.37.15-.37.34h0Z" style="stroke-width: 0px;"/>
    <path d="m90.28,50.29l-2.17,5.02c-.03.07-.11.12-.19.12h-9.31c-.11,0-.21-.09-.21-.21,0-.03,0-.06.02-.08l2.52-5.78c.07-.16.23-.26.4-.26h8.44c.32,0,1.23-.18.86.46-.11.2-.23.44-.36.74Z" style="fill: #ff2100; stroke-width: 0px;"/>
    <path d="m101.58,59.39c-.02.09-.02.18,0,.26v9.97c-.01.13-.12.24-.25.24h-9.21c-.18,0-.32-.14-.32-.32h0v-20.21c0-.13.1-.23.23-.23h9.3c.13,0,.24.11.24.24v10.05Z" style="stroke-width: 0px;"/>
    <path d="m101.58,59.66c-.02-.09-.02-.17,0-.26.43.1,15.63-9.05,17.49-10.12.19-.11.41-.17.64-.17h11.38c.63,0,.68.17.14.5l-15.97,9.78c-.09.06-.12.18-.06.27.02.03.04.05.07.06l16.08,9.79c.38.23.35.35-.1.35l-11.41.02c-.35,0-.7-.09-1.01-.27-5.48-3.19-11.02-6.42-16.62-9.66-.21-.12-.29-.33-.62-.27Z" style="stroke-width: 0px;"/>
    <path d="m161.03,61.26c-7.92-.02-15.85-.03-23.77-.02-4.09,0-5.34-.18-5.34-4.5v-7.38c0-.15.12-.27.27-.27h8.65c.13,0,.24.11.24.24h0v5.89c0,.17.13.3.3.3h19.62c.13,0,.23-.1.23-.23h0v-5.86c0-.18.15-.33.33-.33h8.35c.17,0,.3.13.3.3h0v15.46c0,2.89-.36,5.04-3.7,5.04-11.15-.02-22.54-.03-34.17-.03-.26,0-.47-.22-.47-.49,0,0,0,0,0,0l.05-5.03c0-.11.09-.2.2-.2,8.7,0,17.29.02,25.77.06.88,0,1.74-.05,2.59-.16.49-.07.73-.33.73-.79v-1.81c0-.1-.07-.18-.18-.18Z" style="stroke-width: 0px;"/>
    <path d="m211.22,53.08v13.47c-.14,2.6-1.71,3.22-4.14,3.25-10.09.09-20.18.12-30.27.09-2.05,0-4.68-.15-4.93-2.75-.12-1.25-.15-4.66-.1-10.23.04-3.64-.75-7.68,4.21-7.73,10.28-.09,20.55-.12,30.83-.08,2.77.01,4.24,1.34,4.4,3.98Zm-9.06,3.25c0-.45-.36-.81-.81-.81h-19.16c-.45,0-.81.36-.81.81v6.31c0,.45.36.81.81.81h19.16c.45,0,.81-.36.81-.81v-6.31Z" style="stroke-width: 0px;"/>
    <rect x="80.88" y="56.21" width="9.77" height="13.65" rx=".2" ry=".2" style="stroke-width: 0px;"/>
  </g>
</svg>