<?xml version="1.0" encoding="UTF-8"?>
<svg id="Calque_2" data-name="Calque 2" xmlns="http://www.w3.org/2000/svg" viewBox="0 0 621.21 153.85">
  <g id="Calque_1-2" data-name="Calque 1">
    <g>
      <path d="m565.97,118.4c-5.19,5.65-9.93,11.49-16.12,15.78.77,1.83,2.42,2.03,3.66,2.77,2.08,1.24,3.13,2.97,2.72,5.4-.41,2.41-2.08,3.83-4.29,4.32-2.55.57-3.9-1.42-5.18-3.17-.37-.51-.32-1.3-.64-1.87-1.16-2.06-2.42-2.09-3.61-.06-.5.85-.66,1.91-1.25,2.68-1.24,1.65-2.8,3.01-5.08,2.4-2.04-.54-3.44-1.77-4.08-3.96-.7-2.39.42-4.48,2.13-5.01,4.87-1.49,5.28-7.59,10.07-9.05,1.35-.41,1.23-2.02-.1-2.69-2.63-1.33-4.7-2.99-5.56-6-.22-.79-1.4-1.35-2.2-1.91-.39-.27-.95-.28-1.42-.46-2.99-1.16-2.59-5.38-5-6.35-2.75-1.11-4.65-2.47-5.5-5.18-.39-1.25-.89-2.01-2.22-2.32-2.47-.57-4.08-2.15-4.78-4.61-.27-.96-.47-1.97-1.68-2.24-3.07-.68-4.97-2.53-5.62-5.64-.2-.93-.9-1.27-1.75-1.53-2.68-.82-4.87-2.13-5.27-5.29-.2-1.61-1.66-2.05-2.88-2.41-2.54-.76-4.08-2.16-4-4.96.08-2.73,1.78-4.22,4.1-5.05,1.25-.44,2.76-.37,2.77-2.22,0-1.93-1.63-1.65-2.82-2.11-2.29-.88-4.03-2.33-4.07-5.08-.04-2.52,1.18-4.08,3.55-4.76,1.37-.39,2.36-1.17,2.92-2.49-.66-1.61-2.37-1.7-3.59-2.5-3.83-2.52-4.01-6.18-.42-8.91,3.9-2.96,3.93-3.02-.08-5.53-2.39-1.5-2.78-3.67-2.22-6.08.52-2.22,2.38-3.2,4.47-3.37,2.76-.22,4.43,1.66,5.1,3.94.54,1.84,1.13,2.9,3.13,3.18.89.12,2.08.82,2.43,1.58,1.51,3.27,4.63,4.82,6.91,7.19,2.59,2.69,6.17,4.96,7.74,7.88,2.4,4.46,8.26,5.25,9.5,10.45.24,1.01,1.69.67,2.56-.03.85-.68.86-1.77,1.3-2.64,1.02-2.01,2.71-2.75,4.92-2.71,2.12.04,3.38,1.13,4.26,2.91.69,1.38.3,3.77,2.6,3.72,2.25-.04,1.81-2.48,2.54-3.83,1.17-2.19,2.91-3.27,5.24-2.98,2.37.3,4,1.97,4.4,4.23.45,2.52-.81,4.48-3.25,5.51-.61.26-1.26.41-1.9.59-1.02.28-1.92.75-1.91,1.95.02,1.2.92,1.66,1.95,1.91.32.08.66.12.98.21,2.51.72,4.12,2.42,4.22,4.97.1,2.36-1.51,3.8-3.61,4.86-3.64,1.84-3.62,2.47-.21,4.55.14.09.35.12.43.24,2.93,4.14,7.34,6.89,10.34,10.93.91,1.22,1.65,2.47,3.1,3.04,1.28.51,2.54,1.19,3.13,2.37,1.36,2.7,4.04,4.17,5.74,6.22,2.68,3.23,6.17,5.47,8.66,8.58,1.66,2.07,2.93,4.1,5.46,5.21.97.43,1.88,1.51,2.32,2.51.93,2.09,2.26,3.58,4.4,4.44,2.02.81,2.72,2.81,3.71,4.53,1.08,1.88,2.16,1.85,3.26-.02.67-1.14,1.25-2.39,2.14-3.33,2.36-2.51,5.18-2.41,7.23.1,1.98,2.42,1.43,5.41-.99,7.47-1.39,1.18-4.61.19-4.29,3.22.24,2.3,3,1.7,4.27,2.96,1.47,1.46,2.95,2.96,2.1,5.19-.73,1.91-2.08,3.45-4.29,3.77-2.22.32-4.1-.53-5-2.51-1.12-2.46-2.11-4.82-5.24-5.14-1.96-5-7.92-6.5-9.96-11.39-.42-.99-.81-1.7-1.92-2.01-2.94-.82-5.01-2.46-5.4-5.78-.13-1.11-1.31-1.58-2.29-1.56-.89.02-1.32.89-1.46,1.78-.47,2.96-2.27,4.71-5.06,5.55-2.4.72-1.94,1.93-.42,3.1.76.59,1.82.78,2.64,1.32,1.95,1.29,3.16,3.12,2.58,5.49-.49,2.05-2,3.56-4.07,4-2.36.5-4.17-.69-5.44-2.68-.17-.27-.19-.64-.33-.94-.56-1.16-.71-2.81-2.29-2.96-1.95-.19-1.62,1.77-2.15,2.84-.76,1.56-1.73,2.8-3.39,3.47-2.4.98-4.26.18-5.66-1.78-1.37-1.92-2.04-4.29.16-5.79,3.32-2.27,6.06-4.94,8.21-8.29.16-.25.54-.37.82-.55,3.82-2.55,3.91-2.68-.22-5.34-2.38-1.53-2.66-4.54-4.75-6.21Zm-50.5-50.5c-1.24.09-2.11.65-2.05,2.09.04,1.18.76,1.76,1.88,1.77,1.24.01,2.36-.43,2.48-1.79.12-1.45-1.04-1.84-2.31-2.07Zm37.74,37.89c-.07-1.41-.8-1.9-1.95-1.83-1.13.06-1.92.58-1.67,1.84.21,1.04.95,1.76,2.04,1.81,1.31.05,1.57-.91,1.58-1.81Zm-7.16,7.25c-.22-1.17-1.03-1.96-2.32-1.96-.96,0-1.34.79-1.36,1.71-.03,1.48.77,2.11,2.16,1.96.88-.09,1.53-.55,1.52-1.71Zm14.04-.01c-.26-1.01-.83-1.87-2-1.69-1.09.17-1.72,1.08-1.55,2.16.19,1.19,1.2,1.46,2.26,1.29.94-.15,1.41-.74,1.29-1.76Zm-49.23-35.65c-.22-1-.51-2.04-1.63-2.14-1.28-.11-2.17.84-2.4,1.95-.22,1.03.67,1.86,1.63,2.06,1.37.28,1.9-.86,2.4-1.86Zm70.86,43.18c-.08-1.09-.71-1.86-1.73-2-1.09-.16-1.88.61-2.02,1.63-.15,1.09.62,1.86,1.65,2,1.1.15,1.74-.62,2.09-1.63Zm-28.08-.62c-.25-.84-.57-1.75-1.54-1.68-1.44.1-1.88,1.2-1.69,2.48.13.85.64,1.62,1.66,1.36,1.05-.26,1.65-1.02,1.57-2.16Zm19.31-8.42c-1.09.09-1.9.69-1.97,1.73-.07,1.06.72,1.85,1.75,1.92,1.04.08,1.94-.62,1.99-1.67.06-1.04-.77-1.68-1.77-1.99Zm-62.29-49.58c-.47-.68-.97-1.66-2.14-1.36-.94.24-1.9.91-1.59,2.04.24.9.97,1.86,2.08,1.63.96-.2,1.65-.99,1.65-2.31Zm19.17,9.74c1.3,0,1.6-.99,1.71-1.95.15-1.22-.65-1.79-1.77-1.73-1.31.07-1.45,1.11-1.41,2.12.03.88.41,1.56,1.46,1.56Zm-6.97-7.84c.97-.08,1.71-.56,1.71-1.47,0-1.13-.8-1.85-1.91-1.82-.86.03-1.59.66-1.67,1.56-.12,1.3.83,1.63,1.86,1.73Zm42.74,42.99c1.13.02,2.09-.34,2.11-1.5.03-1.08-.85-1.78-1.88-1.82-.82-.03-1.56.59-1.76,1.41-.3,1.22.52,1.71,1.52,1.91Zm-22.23-6.42c1.01.05,1.53-.61,1.77-1.4.31-1.02.14-2.03-1.05-2.36-1-.28-1.51.48-1.68,1.32-.19.96-.24,1.99.96,2.45Zm-19.04-22.96c-.13-1.04-.37-2.07-1.7-1.85-1,.17-1.83.87-1.77,1.96.05.85.84,1.42,1.64,1.59,1.32.28,1.6-.73,1.82-1.7Zm21.71-7.66c-.16-1.1-.85-1.77-1.99-1.61-.85.12-1.5.75-1.43,1.72.08,1.18.86,1.79,1.98,1.65.87-.1,1.43-.74,1.44-1.76Zm-37.37-23.25c-.83.33-1.31.91-1.24,1.82.07.94.58,1.48,1.55,1.41,1.14-.09,1.82-.71,1.5-1.89-.22-.82-.93-1.27-1.81-1.34Zm42.33,32.21c1.11-.04,2-.58,2.04-1.95.02-.66-.42-1.35-1.09-1.36-1.3-.01-1.94,1.02-2.24,2.09-.19.67.41,1.11,1.3,1.22Zm2.26,13c.05-1.03-.22-1.81-1.13-2.06-1-.28-1.53.4-1.71,1.25-.24,1.1.2,2.05,1.34,2.2.9.12,1.42-.62,1.51-1.39Zm-16.06-12.97c.92-.02,1.75-.34,1.61-1.36-.11-.85-.86-1.38-1.79-1.42-1-.04-1.59.49-1.55,1.46.05,1,.8,1.33,1.72,1.33Zm1.6,26.52c-.13-.89-.78-1.44-1.59-1.6-1.24-.25-1.83.54-1.81,1.68.02.96.65,1.46,1.63,1.4.91-.06,1.49-.55,1.78-1.48Zm19.98-8.31c-.98-.03-1.71.5-1.69,1.4.01.89.75,1.45,1.72,1.39.72-.04,1.28-.38,1.36-1.16.11-1-.41-1.53-1.39-1.63Zm-27.59,1.15c-.19-.86-.8-1.28-1.71-1.19-.9.09-1.54.6-1.42,1.53.12.9.85,1.33,1.74,1.28.94-.05,1.41-.61,1.39-1.63Zm-15.04-44.11c-1.08-.09-1.64.38-1.71,1.31-.07.87.31,1.64,1.21,1.8.96.18,1.42-.53,1.55-1.38.14-.89-.22-1.54-1.05-1.73Zm27.99,31.67c.85-.17,1.14-.87,1.01-1.73-.13-.84-.61-1.57-1.54-1.44-.94.13-1.2.98-1.16,1.82.05.93.57,1.44,1.69,1.35Zm-7.32,4.28c-.65.14-1.21.36-1.3,1.15-.1.97.35,1.58,1.28,1.61.64.02,1.22-.34,1.32-1.12.12-.98-.4-1.46-1.3-1.64Zm-15.42.93c.16,1.5.75,1.85,1.4,1.83.9-.04,1.45-.59,1.34-1.59-.09-.78-.68-1.15-1.33-1.12-.91.04-1.44.59-1.41.88Zm-4.29-6.53c-.09-1-.66-1.34-1.3-1.32-.91.02-1.41.57-1.31,1.54.08.77.65,1.13,1.28,1.11.9-.02,1.42-.57,1.32-1.33Zm14.06.01c-.14-.64-.34-1.23-1.13-1.32-.98-.11-1.55.41-1.59,1.31-.03.64.3,1.23,1.09,1.32.98.11,1.47-.38,1.62-1.3Z" style="fill: #fefefe; stroke-width: 0px;"/>
      <path d="m1,142.69c3.23-4.43,3.18-24.27.19-29.48,8.52-.94,8.48-.93,11.11,7.04,1.08,3.29,1.53,6.81,3.57,10.23,2.35-4.25,3.06-8.7,4.44-12.88,1.55-4.67,1.42-4.72,6.54-4.73,5.48,0,10.97,0,17.2,0-4.14,4.86-2.63,10.13-2.56,15.07.07,4.93-1.7,10.18,1.98,14.9h-23.01c3.45-6.48,1.04-13.2.86-19.88-1.61,5-3.22,9.99-4.81,14.99-.25.79-.3,1.65-.63,2.41-.43,1-.57,2.48-2.14,2.34-1.2-.11-1.4-1.28-1.72-2.21-1.56-4.57-3.09-9.15-4.64-13.73-.41-1.23-.61-2.55-2.14-4.27.74,7.23-1.52,13.9,1.85,20.28-1.74.48-3.69.37-6.09-.05Zm27.43-14.58c0,3.16.03,6.32-.01,9.49-.04,2.47.6,4.35,3.54,4.29,2.61-.05,3.34-1.73,3.33-4.02-.02-6.49-.01-12.98-.01-19.47,0-2.27-.89-4.14-3.29-4.21-2.77-.08-3.53,2.03-3.54,4.44-.02,3.16,0,6.32-.01,9.49Z" style="fill: #fefefe; stroke-width: 0px;"/>
      <path d="m544.12.05c2.41.49,4.29,1.71,5.1,4.17.45,1.36,1.04,2.59,2.65,2.48,1.6-.11,1.27-1.68,1.65-2.7.83-2.23,2.51-3.68,4.8-3.81,2.54-.15,4.32,1.2,5.21,3.76.39,1.13.64,2.81,2.45,2.68,1.59-.12,1.26-1.75,1.79-2.68,1.39-2.5,3.16-4.37,6.3-3.63,2.12.49,3.49,2.02,3.88,4.13.45,2.4-.68,4.4-2.79,5.31-2.42,1.04-4.05,2.52-4.93,5-.47,1.33-1.68,2.11-2.98,2.46-2.17.58-3.29,1.98-3.94,4.03-.74,2.35-2.6,3.44-4.93,3.48-2.25.04-3.97-1.49-4.48-3.39-.65-2.4-1.95-3.57-4.13-4.23-.61-.18-1.37-.56-1.64-1.07-1.73-3.27-4.27-5.59-7.45-7.51-1.93-1.16-1.82-3.57-.86-5.42.83-1.59,2.19-2.95,4.31-3.05Zm16.82,12.27c-.01-1.2-.57-2.05-1.71-2.1-1.34-.06-2.18.88-2.31,2.12-.09.85.68,1.55,1.51,1.77,1.49.39,2.02-.72,2.5-1.78Z" style="fill: #fefefe; stroke-width: 0px;"/>
      <path d="m621.21,33.97c-.37,2.31-1.77,3.75-3.61,4.62-1.35.63-3.13.75-3.11,2.67.01,2.1,2.17,1.69,3.37,2.36,2.48,1.38,3.78,3.29,2.91,6.11-1.19,3.86-5.33,4.86-8.16,1.99-.79-.81-1.35-1.88-1.87-2.91-1.19-2.32-2.52-2.77-3.73-.15-1.11,2.41-2.74,4.15-5.2,5.05-1.26.46-1.7,1.57-2.18,2.59-.58,1.23-1.19,2.53-2.37,3.13-2.67,1.38-4.87,2.92-6.09,5.96-.72,1.8-2.81,3.09-5.02,2.19-2.04-.83-3.67-2.29-3.79-4.81-.1-2.26.84-4.08,2.96-4.67,2.5-.7,3.25-2.93,4.82-4.35,3.75-3.39,6.49-7.86,10.88-10.49,1.2-.72,2.11-1.21,2.57-2.67.71-2.28,1.98-4.37,4.66-4.65,2.59-.27,2.2-2.62,3.06-4.05,1.36-2.27,3.2-3.54,5.77-2.82,2.4.67,3.88,2.43,4.15,4.92Z" style="fill: #fefefe; stroke-width: 0px;"/>
      <path d="m479.71,113.02c-3.04,5.07-3.17,25.15-.32,29.81h-9.87c3.28-6.48,1.03-13.22.83-19.94-1.65,5.14-3.3,10.27-4.93,15.42-.25.79-.36,1.63-.66,2.4-.35.9-.62,2.07-1.89,2.01-1.22-.06-1.47-1.19-1.79-2.13-1.75-5.21-3.49-10.42-5.25-15.62-.21-.61-.51-1.18-1.12-1.72.21,6.47-1.84,13.09,1.3,19.52-1.52.56-3.48.27-5.66.05,3.36-4.62,1.87-9.79,1.85-14.67-.02-4.96,1.64-10.29-2.09-14.78.35-.17.62-.4.91-.42q7.73-.58,10.1,6.7c1.03,3.16,2,6.34,3.02,9.5.1.29.37.53.75,1.06,2.48-3.54,2.86-7.74,4.14-11.53,2.08-6.14.65-5.78,8.2-5.8.66,0,1.31.08,2.49.16Z" style="fill: #fefefe; stroke-width: 0px;"/>
      <path d="m206.72,113.03c-3.04,5.04-3.19,25.12-.36,29.81h-9.82c3.24-6.49,1.02-13.22.8-19.94-1.65,5.14-3.3,10.28-4.93,15.43-.53,1.67-.37,4.22-2.58,4.27-1.95.04-1.89-2.45-2.41-3.93-1.82-5.15-3.51-10.35-5.67-15.46.37,6.48-2.26,13.16,1.47,19.54-1.76.62-3.73.08-6.03.31,3.46-4.89,2.02-10.06,1.99-14.95-.03-4.96,1.66-10.29-2.25-14.94.84-.12,1.47-.27,2.1-.29,6.75-.25,6.69-.22,8.93,6.32,1.23,3.59,1.74,7.44,3.81,11.18,2.58-3.71,2.96-7.92,4.26-11.72,2.07-6.09.59-5.77,8.21-5.79.66,0,1.31.09,2.48.17Z" style="fill: #fefefe; stroke-width: 0px;"/>
      <path d="m174.28,128.02c.37,3.5-.2,6.87-2.05,9.99-2.61,4.38-6.21,6.51-11.52,6.07-4.82-.4-7.58-3.08-9.29-7.12-2.81-6.63-2.55-13.28.84-19.65,1.94-3.63,5.19-5.39,9.37-5.48,4.78-.1,8.29,1.96,10.61,6.05,1.76,3.11,2.42,6.5,2.04,10.13Zm-6.94,1.32c.06-4.06.1-7.37-.99-10.58-.68-2-1.59-3.79-3.93-3.9-2.34-.12-3.63,1.54-4.32,3.49-2.34,6.63-2.46,13.29.06,19.91.67,1.75,1.72,3.38,3.84,3.41,1.9.03,2.85-1.57,3.76-2.93,2.09-3.11,1.46-6.7,1.58-9.4Z" style="fill: #fdfdfd; stroke-width: 0px;"/>
      <path d="m122.25,127.77c.4,3.76-.18,7.13-2.03,10.24-2.6,4.38-6.21,6.51-11.52,6.07-4.82-.4-7.58-3.08-9.29-7.12-2.81-6.63-2.55-13.28.84-19.65,1.94-3.63,5.19-5.39,9.37-5.48,4.78-.1,8.31,1.95,10.6,6.05,1.74,3.11,2.51,6.48,2.02,9.88Zm-6.91,1.77c.07-4.25.11-7.73-1.08-11.09-.65-1.82-1.59-3.41-3.66-3.6-2.35-.21-3.71,1.37-4.42,3.33-2.47,6.78-2.7,13.66.15,20.35,1.79,4.19,4.8,4.21,7.35.38,2.09-3.13,1.56-6.68,1.66-9.37Z" style="fill: #fdfdfd; stroke-width: 0px;"/>
      <path d="m327.84,142.29c-7.23,1.53-7.63,1.36-10.51-4.21-1.28-2.48-2.53-4.98-4.21-7.35-.75,4.11-1.97,8.18,1.4,12.06h-10.33c3.62-4.63,1.89-9.84,1.92-14.74.02-4.95,1.73-10.28-2.55-15.15,4.75,0,8.89-.17,13.01.06,3.08.17,6.23,1.23,7.3,4.35,1.14,3.32,1.43,7.14-1.72,9.7-2.18,1.77-1.64,3.26-.64,5.13,1.87,3.47,3.28,7.21,6.32,10.15Zm-15.53-21.63c0,.49-.08,1,.02,1.47.33,1.59-.97,3.86,1.62,4.54,1.87.49,3.84-1.65,4.25-4.5.19-1.3.23-2.65-.39-3.86-.88-1.71-2.31-3.15-4.21-2.85-2.03.32-1.04,2.39-1.27,3.73-.08.48-.01.98-.01,1.47Z" style="fill: #fefefe; stroke-width: 0px;"/>
      <path d="m97.41,142.43c-8.24,1.16-8.2,1.14-11.4-4.97-1.2-2.29-2.06-4.8-4.42-7.62-.07,5.02-1.56,9.16,1.95,12.99h-10.33c2.96-4.68,2.83-24.8-.3-29.64,4.74-.58,9.34-.76,13.82-.02,6.89,1.14,9.44,8.54,4.58,13.6-2.02,2.1-1.85,3.51-.7,5.55,1.87,3.31,2.97,7.07,6.8,10.12Zm-16.1-21.9c0,.66-.08,1.32.02,1.97.22,1.49-.78,3.65,1.49,4.14,2.47.53,3.39-1.48,4.12-3.37.49-1.26.49-2.6.2-3.88-.54-2.31-2.08-4.09-4.4-3.87-2.38.22-1.08,2.61-1.41,4.04-.07.31-.01.65,0,.98Z" style="fill: #fefefe; stroke-width: 0px;"/>
      <path d="m621.13,5.35c-.38,2.58-1.93,4.15-4.2,5.18-.97.44-2.55.26-2.44,1.94.09,1.44,1.51,1.64,2.48,2.16,4.48,2.39,5.42,5.6,2.44,8.49-2.55,2.46-6.21,2.09-7.91-1.29-1.26-2.49-2.58-4.46-5.37-5.16-.15-.04-.35-.14-.41-.27-1.66-3.69-5.01-5.65-7.92-8.16-2.31-1.99-1.43-5.54,1.17-7.25,2.41-1.59,5.27-.95,6.94,1.55.18.27.24.62.4.91.65,1.25.65,3.23,2.59,3.19,1.73-.04,1.49-1.97,2.1-3.05,1.36-2.39,3.15-3.94,6.01-3.26,2.55.6,3.78,2.52,4.12,5.03Z" style="fill: #fdfdfd; stroke-width: 0px;"/>
      <path d="m542.26,26.65c-.2,2.53-1.76,4.19-3.77,4.91-1.97.7-2.74,1.87-3.63,3.6-2.57,5.02-7.02,5.12-9.73.25-1.11-1.99-2.5-3.13-4.52-4.18-4.26-2.23-4.31-6.9.03-8.81,2.63-1.15,3.63-2.99,4.94-5.07,2.35-3.73,6-3.99,8.3-.34,1.55,2.45,3.18,4.38,5.77,5.71,1.43.73,2.44,2.21,2.61,3.94Zm-12.53,1.71c1.06-.24,1.85-.94,1.95-1.94.11-1.06-.71-1.96-1.72-2.04-1.05-.08-1.85.8-1.94,1.83-.1,1.09.74,1.73,1.71,2.14Z" style="fill: #fefefe; stroke-width: 0px;"/>
      <path d="m501.37,0c2,0,3.33,1.5,4.44,3.19.53.81.62,1.93,1.2,2.68,1.06,1.39,2.31,2.15,3.22-.21.36-.92.56-1.92,1.03-2.78,1.05-1.9,2.79-3.04,4.91-2.7,2.05.33,3.46,1.83,4.19,3.86.84,2.31-.23,4.4-2.02,5.04-4.93,1.75-5.67,8.09-10.92,9.4-1.32.33-.95,2.38-1.81,3.41-1.29,1.54-2.61,3.23-4.92,2.78-2.07-.41-3.65-1.77-4.2-3.82-.62-2.29.15-4.26,2.18-5.62.41-.28.9-.43,1.31-.71,3.04-1.99,3.07-2.4.09-4.26-1.13-.7-2.35-1.26-3.09-2.43-1.89-2.99.55-7.62,4.39-7.85Z" style="fill: #fefefe; stroke-width: 0px;"/>
      <path d="m599.3,26.92c.26,2.27-1.03,3.83-3.07,4.45-2.25.69-3.78,1.55-4.3,4.13-.42,2.06-1.98,3.34-4.36,3.37-2.44.03-4.29-.82-5.07-3.18-.72-2.18-1.72-3.78-4.18-4.37-2.15-.52-3.25-2.38-3.39-4.48-.15-2.18,1.13-3.96,3.1-4.63,2.45-.83,3.82-2.26,4.66-4.67.7-2,2.62-3.34,4.61-3.3,2.2.04,4.28,1.45,4.74,3.77.47,2.35,1.82,3.3,3.86,3.93,2.35.72,3.53,2.38,3.39,4.99Zm-11.98-2.74c-1.45.25-2.4,1.19-2.52,2.57-.12,1.37.94,2.02,2.21,2.1,1.43.09,2.76-.32,2.78-2.01.02-1.47-1.06-2.28-2.47-2.67Z" style="fill: #fefefe; stroke-width: 0px;"/>
      <path d="m232.29,113h10c-3.52,7.98-1.7,16.19-1.49,24.27.06,2.09,1.4,4.45,4.02,4.34,2.45-.11,3.9-2.26,4.16-4.41.83-6.79.45-13.63.3-20.46-.04-1.64-1.87-1.73-2.52-3.42,2.61-.82,5.13-.45,8.49-.25-3.73,3-2.92,6.67-3.02,10.15-.14,4.81.46,9.66-.8,14.43-1.4,5.27-3.81,6.85-10.07,6.34-4.32-.35-6.94-3.18-7.09-8.03-.16-5.16-.09-10.33-.11-15.5-.01-2.49.32-5.08-2.75-6.67.29-.26.59-.53.88-.79Z" style="fill: #fcfcfc; stroke-width: 0px;"/>
      <path d="m209.99,142.98c3.21-4.47,3.23-25.45-.04-30.07,4.07,0,7.82-.24,11.52.06,5.07.4,7.7,3.55,7.73,8.65.03,4.66-2.55,7.84-7.41,8.27-2.94.26-3.7,1.54-3.48,4.12.24,2.88-.89,6.06,1.96,8.2-.17.76-.67.76-1.13.76-2.82.01-5.64,0-9.15,0Zm8.32-21.6h.02c0,1.32-.05,2.63.02,3.95.04.76-.16,1.77.92,2.02.94.22,1.52-.48,2.01-1.12,1.68-2.18,1.03-4.72.97-7.15-.04-1.62-.84-3.11-2.62-2.91-1.82.21-1.16,2.03-1.31,3.23-.08.65-.01,1.31-.01,1.97Z" style="fill: #fefefe; stroke-width: 0px;"/>
      <path d="m445.2,133.17c1.7,3.47.48,5.51.22,7.6-.21,1.66-1.26,2.21-2.77,2.22-5.45,0-10.91,0-16.64,0,3.24-4.73,3.16-24.92-.04-29.83,5.4-.6,10.65-.19,15.88-.26,1.59-.02,2.54.69,2.55,2.36,0,1.9.32,3.83-.48,6.3-1.76-2.38-2.42-4.96-5.02-5.88-2.87-1.01-4.19-.44-4.37,2.56-.15,2.6-.35,5.26.32,8.17,3.12-.74,2.71-3.6,4.21-6v14.47c-1.85-.95-1.05-4.23-4.12-4.55-.88,2.71-.61,5.51-.27,8.22.31,2.48,2.34,2.48,4.25,2.15,3.54-.62,4.89-3.54,6.27-7.52Z" style="fill: #fefefe; stroke-width: 0px;"/>
      <path d="m280.02,112.86c5.16,0,10.13.05,15.11-.02,2.25-.03,3.45.77,3.34,3.17-.08,1.63-.02,3.26-.02,5.88-2.41-2.54-2.91-5.53-5.79-6.33-2.73-.76-3.94-.33-4.1,2.43-.15,2.72-.47,5.52.38,8.52,2.93-1.11,2.87-3.75,3.97-5.67.72,4.72.66,9.34.31,14.24-1.9-1.39-1.32-4.19-3.95-4.85-1.46,2.75-.89,5.73-.53,8.56.27,2.15,2.22,2.19,3.95,1.95,3.67-.52,4.99-3.48,6.24-6.63,2.7,5.19.71,8.85-4.55,8.89-4.64.03-9.29,0-14.11,0,2.97-4.91,2.8-24.7-.24-30.15Z" style="fill: #fefefe; stroke-width: 0px;"/>
      <path d="m401.59,17.12c3.4,5.77,3.14,12.72,7.06,18.09-1.65,1.35-3.35.66-4.92.76-.62.04-1.77.39-1.43-1.18.74-3.43-2.02-3.6-3.94-3.3-2.52.39-1.21,2.73-1.06,4.3q-8.26.51-13.81-6.25c-2.09,2.01-.24,3.97.11,5.97-1.79.92-3.54.41-5.28.32-.24-6.29,1.11-12.39-1.03-18.62,2.66-.72,5.47-.48,8.17-.26,4.51.37,6.22,3.69,4.3,7.82-1.38,2.96-.46,7.26,2,9.09,2.11,1.57,2.99.11,3.58-1.62,1.38-4.08,2.7-8.19,4-12.3.35-1.09.41-2.32,2.26-2.82Zm-19.19,5.08c.23,1.33-.46,3.34,1.74,3.33,1.82-.01,2.18-1.66,2.19-3.22.01-1.74-.42-3.66-2.38-3.6-2.03.06-1.29,2.19-1.54,3.5Zm17.04,2.65c-.83,2.12-1.83,3.37-.28,4.67.26.22,1.13.17,1.35-.08,1.33-1.51.08-2.64-1.08-4.59Z" style="fill: #fdfdfd; stroke-width: 0px;"/>
      <path d="m398.1,111.94c.24,3.69.44,6.54-.11,9.51-2.16-.61-1.79-2.31-2.48-3.33-1.15-1.7-2.25-3.36-4.6-3.28-1.49.05-2.56.95-2.95,2.3-.74,2.55,1.03,4.01,2.73,5.35,1.17.92,2.48,1.66,3.73,2.48,4.99,3.3,5.71,7.04,4.64,13.08-.7,3.93-3.91,5.9-7.99,6-2.16.05-4.04-1.43-6.33-.69-1.41.45-1.41-1.01-1.46-1.95-.08-1.49-.07-2.99-.03-4.48.03-1.13-.22-2.32.56-3.44,1.91.17,1.33,1.95,1.82,2.98.87,1.84,1.95,3.47,3.66,4.61,1.61,1.07,3.15.92,4.53-.4,1.33-1.26,1.83-2.79.93-4.5-1.11-2.13-3.04-3.43-4.97-4.77-4.14-2.87-7.15-6.34-6.51-11.95.63-5.56,4.75-8.68,10.07-7.11,1.57.47,2.98,1.39,4.76-.41Z" style="fill: #fdfdfd; stroke-width: 0px;"/>
      <path d="m339.25,132.92c1.5,2.69,1.73,5.48,3.87,7.27,1.87,1.56,3.68,2.39,5.71.48,1.95-1.83,1.67-3.82.12-5.76-1.26-1.58-2.97-2.61-4.59-3.79-3.94-2.86-6.71-6.3-6.09-11.69.65-5.56,4.77-8.66,10.1-7.06,1.57.47,2.99,1.3,4.74-.36.27,3.56.39,6.35-.04,9.08-1.74.58-1.61-.79-1.95-1.59-.58-1.4-1.27-2.72-2.47-3.68-1.64-1.32-3.33-1.46-4.9.08-1.45,1.42-1.18,2.99-.15,4.51,1.45,2.14,3.8,3.18,5.85,4.55,3.47,2.33,5.09,5.43,5,9.66-.16,7.15-3.95,10.57-10.83,9.02-1.7-.38-3.96.62-4.95-.85-1.09-1.61-.36-3.88-.4-5.86-.02-1.13-.24-2.32.99-4Z" style="fill: #fdfdfd; stroke-width: 0px;"/>
      <path d="m68.19,137.39c-.04,3.57-2.33,5.44-4.71,6.05-5.66,1.46-10.84,1.12-14.34-4.8-3.98-6.72-3.1-17.02,1.95-22.97,3.01-3.55,6.78-4.58,11.23-3.39,2,.53,3.96,2.01,6.36-.65.73,3.67.58,6.55.22,9.51-2.12.62-2.11-1.08-2.64-2.12-1.19-2.31-2.7-4.31-5.61-4.22-3.16.09-4.69,2.41-5.62,4.94-2.08,5.65-2.08,11.44-.05,17.08,2.01,5.57,5.82,6.37,10.36,2.44.73-.64,1.19-1.65,2.86-1.86Z" style="fill: #fdfdfd; stroke-width: 0px;"/>
      <path d="m146.76,112c.67,3.54.47,6.41.18,9.41-2.53-.18-2.32-2.08-3.03-3.21-2.92-4.63-7.71-4.76-10.16.1-3.25,6.42-3.07,13.26-.19,19.77,1.87,4.24,5.32,4.74,8.97,1.94,1.04-.8,1.66-2.09,3.01-2.55.26,3.19-1.91,5.79-5.35,6.44-7.71,1.45-13.19-2.45-14.93-10.25-1.3-5.85-.52-11.21,2.65-16.23,3.2-5.06,7.03-6.55,12.75-4.99,2.01.55,3.96,1.47,6.1-.43Z" style="fill: #fdfdfd; stroke-width: 0px;"/>
      <path d="m374.01,113.14h7.22c-3.51,4.72-5,9.84-7.38,14.52-1.86,3.67-1.43,7.42-1.52,11.21-.05,2.06,1.67,2.61,3.37,3.91h-12.64c3.17-3.13,3.68-6.75,2.35-10.5-2.26-6.38-4.18-12.94-8.62-19.11,3.62-.57,6.98-.24,10.44-.23-1.79,5.6,2.04,9.51,3.64,14.81,2.55-3.57,3.35-7.18,4.96-10.39.93-1.85-1.3-2.41-1.84-4.2Z" style="fill: #fdfdfd; stroke-width: 0px;"/>
      <path d="m558.73,53.69c-2.45-.49-4.32-1.63-4.93-3.89-.63-2.31-1.58-3.73-4.17-4.13-2.2-.34-3.22-2.16-3.27-4.4-.06-2.52,1.58-3.98,3.53-4.99,2.17-1.12,3.77.28,5.23,1.74.12.12.22.25.34.37,1.34,1.41,1.21,4.51,3.3,4.56,2.48.06,1.53-3.2,2.82-4.68,2.1-2.41,5.06-2.96,7.45-.99,2.34,1.92,2.82,4.91.4,6.8-2.99,2.34-5.75,4.73-7.85,7.92-.56.85-1.93,1.18-2.83,1.69Z" style="fill: #fefefe; stroke-width: 0px;"/>
      <path d="m423.12,120.88c-2.25-2.14-2.28-5.94-5.31-4.85-2.86,1.03-1.32,4.08-1.42,6.2-.22,4.81-.03,9.64-.08,14.46-.02,2.2-.07,4.36,3.33,6.06h-11.69c2.09-2.01,2.28-4.28,2.25-6.69-.09-5.32.04-10.64-.07-15.96-.03-1.67.85-4.14-1.62-4.62-2.13-.41-2.89,1.81-3.82,3.35-.33.55-.68,1.09-1.01,1.61-1.76-.58-1.24-1.94-1.26-2.98-.1-4.34.09-4.54,4.31-4.6,3.99-.05,7.98-.04,11.97,0,4.72.05,4.77.11,4.74,4.71,0,.81-.14,1.62-.3,3.31Z" style="fill: #fefefe; stroke-width: 0px;"/>
      <path d="m257.49,120.99c-1.53-2.12-1-3.8-1.08-5.38-.1-1.86.82-2.74,2.68-2.73,5.15.02,10.31.02,15.46,0,1.77,0,2.89.65,2.85,2.59-.04,1.56.36,3.19-.61,5.04-1.93-1.6-1.86-5.44-4.86-4.48-3.02.97-1.43,4.02-1.53,6.1-.24,4.98-.06,9.97-.09,14.96-.01,2.04,0,4.03,3.09,5.48-4.45.7-7.79.53-11.89.17,2.24-1.63,2.71-3.42,2.68-5.52-.08-5.98,0-11.97-.04-17.96-.01-1.43.4-3.32-1.51-3.78-1.72-.42-2.6,1.13-3.4,2.4-.52.83-.96,1.7-1.75,3.13Z" style="fill: #fefefe; stroke-width: 0px;"/>
      <path d="m93.63,17.2c-2.17,6.2-1.58,12.29-.52,18.61h-6.29c1.73-2.1,1.48-4.21,1.45-6.29-.02-1.29-.42-2.31-1.94-2.37-1.56-.07-2.51.61-2.78,2.21-.37,2.17.15,4.2,1.16,6.21-2.25.65-4.19.58-6.07.18,1-6.21,1.52-12.3-.5-18.49,2.07-.68,4.17-.49,6.64-.12-.86,1.96-1.49,3.78-1.34,5.79.13,1.71.51,2.9,2.56,2.86,2.18-.04,2.19-1.49,2.32-3.07.15-1.89-.34-3.58-1.54-5.39,2.5-.77,4.69-.61,6.86-.13Z" style="fill: #fcfcfc; stroke-width: 0px;"/>
      <path d="m31.31,35.84c-5.78,1.79-7.21-3.04-9.58-6.66-2.14,2.23-.89,4.2.06,6.22-1.93.94-3.67.65-5.53.3-.18-6.08,1.11-12.2-.95-18.55,2.78-.65,5.74-.47,8.59-.16,3.79.41,6.08,3.72,4.17,6.78-3.39,5.42-.04,8.2,3.25,11.33,0,.25,0,.49,0,.74Zm-9.41-17.29c-2.07.83-1.39,2.67-1.43,4.16-.03,1.2-.29,3,1.66,2.83,2.12-.19,2.23-2.03,2.18-3.72-.05-1.6-.69-2.81-2.41-3.27Z" style="fill: #fcfcfc; stroke-width: 0px;"/>
      <path d="m123.68,29.39q-1.17,2.88-.14,5.97c-.89,1.05-2.11.55-3.19.64-1.96.16-2.22-.6-2.13-2.62.23-5.36,1.03-10.81-.92-16.47,2.84,0,5.65-.23,8.4.05,4.04.41,6.43,3.85,4.27,6.99-2.74,3.97-.47,6.41,1.21,9.32.4.69,1.29,1.08,1.23,2.22-5.89,2.39-6.03-3.75-8.72-6.1Zm.09-10.85c-2.02,1.16-1.21,3.13-1.29,4.8-.05,1.14.15,2.55,1.79,2.21,2.06-.42,2.13-2.19,2.04-3.86-.08-1.61-.79-2.78-2.54-3.15Z" style="fill: #fcfcfc; stroke-width: 0px;"/>
      <path d="m334.84,28.28c-.79,2.89-.53,5.11.94,7.18-2.24.95-4.21.34-6.2.54.93-6.34,1.57-12.42-.58-18.79,3.03-.67,6.16-.6,9.19-.18,3.79.52,5.91,4.73,3.41,7.44-2.39,2.6-1.39,4.27-.17,6.45.8,1.43,1.55,2.89,2.34,4.38q-3.65.68-8.93-7.02Zm.86-9.88c-1.93.46-1.35,2.09-1.28,3.23.08,1.43-.97,3.78,1.64,3.86,1.81.06,2.22-1.67,2.24-3.28.03-1.87-.79-3.16-2.6-3.81Z" style="fill: #fdfdfd; stroke-width: 0px;"/>
      <path d="m.97,35.99c.3-6.54,1.37-12.48-.97-18.7,3.05-.81,6.18-.69,9.18-.23,2.91.44,4.69,3.76,3.47,6.48-.84,1.87-.77,3.04.11,4.93,1.94,4.12-.17,7.22-4.69,7.49-2.46.14-4.93.03-7.1.03Zm4.31-4.92c.26,1.22-.51,3.25,1.29,3.26,1.81.01,2.69-1.74,2.65-3.59-.03-1.66-.9-3.25-2.5-3.19-2.26.09-1.05,2.28-1.45,3.51Zm0-8.82c.38,1.09-.67,3.13,1.37,3.07,1.56-.05,2.51-1.62,2.33-3.3-.14-1.32-.58-2.91-2.19-2.87-2.02.05-1.22,1.93-1.51,3.11Z" style="fill: #fcfcfc; stroke-width: 0px;"/>
      <path d="m327.31,26.01c.02,7-3.56,10.61-9.5,9.97-1.79-.19-3.09-1-4.24-2.27-3.46-3.81-3.25-11.44.43-15.03,3.35-3.28,9.45-2.32,12.02,1.87,1.08,1.76,1.42,3.68,1.29,5.46Zm-4.86.5c-.23-1.74.18-3.76-.65-5.64-.49-1.1-1.17-2-2.53-2.01-1.08,0-2.02.43-2.39,1.42-1.52,4.15-1.54,8.34.04,12.47.34.89,1.15,1.69,2.22,1.75,1.35.08,2.02-.98,2.57-1.99.99-1.83.55-3.86.74-6.02Z" style="fill: #fcfcfc; stroke-width: 0px;"/>
      <path d="m167.95,36.15c1.82-4.86,1.77-14.58.02-19.02,4.46-.16,9.17-1.76,12.34,2.52,2.73,3.67,2.93,8.09.95,12.29-2.76,5.86-8.13,3.59-13.32,4.21Zm5.38-9.94c0,2-.03,4,.02,5.99.02.78-.17,1.76.83,2.12.96.34,1.55-.38,2.07-1.01,1.89-2.27,2.01-10.55.19-12.92-.5-.65-1.13-1.32-2.05-1.16-1.08.19-1.01,1.18-1.03,1.98-.05,1.66-.01,3.33-.02,5Z" style="fill: #fdfdfd; stroke-width: 0px;"/>
      <path d="m102.55,35.99c1.04-6.48,1.43-12.55-.32-18.74,1.8-.84,3.97-.37,6.07-.36,5.25.04,7.42,2.85,5.54,7.61-.66,1.67-.47,2.44.39,3.85,2.32,3.8.42,7.3-4.03,7.61-2.6.18-5.23.03-7.65.03Zm5.55-8.6c-1.43,1.58-.7,3.63-.78,5.48-.03.8.27,1.9,1.38,1.51,2-.7,2.71-2.36,2.31-4.38-.27-1.37-1.05-2.4-2.91-2.62Zm-.22-1.5c3.31-3.62,3.24-4.55-.18-7.2-.65,2.3-.56,4.44.18,7.2Z" style="fill: #fdfdfd; stroke-width: 0px;"/>
      <path d="m149.36,26.41c0,6.91-3.54,10.41-9.64,9.53-.65-.09-1.4-.12-1.92-.46-3.61-2.31-4.87-5.76-4.45-9.87.37-3.63,1.54-6.91,5.3-8.33,5.83-2.2,10.72,2.03,10.72,9.14Zm-11.18.57c.08,1.37.03,2.89.28,4.35.26,1.53,1.09,3.02,2.74,3.15,1.71.13,2.48-1.33,3.05-2.79,1.42-3.62.92-7.2-.16-10.76-.3-.98-.92-1.78-2.04-1.97-1.36-.22-2.18.63-2.87,1.6-1.38,1.93-.77,4.18-1,6.42Z" style="fill: #fcfcfc; stroke-width: 0px;"/>
      <path d="m375.36,26.33c.01,6.93-3.47,10.42-9.57,9.63-1.18-.15-2.21-.5-3.16-1.28-4.54-3.75-4.5-13.04.19-16.44,2.48-1.8,5.28-1.91,8.04-.65,3.07,1.4,4.49,4.28,4.49,8.74Zm-4.26-.73c-.14-.71-.47-2.5-.89-4.28-.28-1.2-.9-2.21-2.24-2.37-1.58-.19-2.66.87-3.05,2.1-1.17,3.72-.99,7.55-.11,11.29.25,1.06,1.14,2.12,2.47,2.18,1.34.06,2.19-.96,2.61-2,.74-1.84,1.34-3.76,1.2-6.93Z" style="fill: #fcfcfc; stroke-width: 0px;"/>
      <path d="m440.86,36c-5.45-.08-7.77-3.04-7.68-9.82.08-5.9,3.05-9.37,7.98-9.31,4.49.05,8.11,4.36,8.06,9.6-.05,5.97-3.24,9.61-8.37,9.54Zm3.46-10.82c-.03-.34.06-1.88-.31-3.29-.38-1.45-1.23-2.85-2.98-2.95-1.86-.1-2.54,1.35-3,2.8-1.2,3.78-1.04,7.58.58,11.17,1.08,2.38,3.1,2.36,4.57.17,1.39-2.07,1.13-4.44,1.15-7.9Z" style="fill: #fdfdfd; stroke-width: 0px;"/>
      <path d="m279.89,28.14c2.69-.38,4.65-.48,6.55,0,.98,1.09-.07,1.88-.29,2.75-.65,2.59-1.14,5.07-4.83,5.17-4.8.12-7.55-.78-9.12-4.36-1.68-3.82-1.74-7.84.61-11.41,2.3-3.5,5.81-4.02,9.7-2.99.92.24,1.93.12,3.27.18-.15,1.74-.3,3.47-.45,5.27-.45-.08-.86-.03-.95-.18-1.18-2.03-2.22-4.28-5.2-3.69-3.19.64-3.22,3.47-3.69,5.82-.5,2.49.01,4.99.99,7.3.66,1.55,1.81,3.24,3.71,2.49,1.99-.79,1.26-2.74.78-4.31-.18-.6-.59-1.12-1.08-2.03Z" style="fill: #fcfcfc; stroke-width: 0px;"/>
      <path d="m460.58,17.41c1.99-.66,3.28-.73,4.96-.11-3.13,5.57-1.54,11.78-2.42,18.46-3.84-3.89-5.35-8.62-9.05-12.63-.99,4.55-1.07,8.42.84,13.05-1.55-.94-4.83,2.04-2.89-2.72,1.22-3.01.14-13.31-.96-16.1q4.38-.66,10.62,8.07c1.12-3.02.82-5.49-1.1-8.02Z" style="fill: #fbfbfb; stroke-width: 0px;"/>
      <path d="m243.13,20.79c-3.81-2.28-3.86-2.28-3.96,1.9-.07,3.16-.09,6.32.02,9.47.15,4.18-.26,4.61-4.5,4-.46-.07-.89-.34-1.33-.51,1.92-5.01.91-10.12.87-15.16-.01-1.76-1.32-1.64-2.39-.57-.66.66-1.28,1.94-2.08.29-.52-1.07-.52-2.76.78-2.99,3.92-.7,7.95-.82,11.83.07,1.48.34,1.04,2.17.76,3.5Z" style="fill: #fafafa; stroke-width: 0px;"/>
      <path d="m351.53,35.72c-2,.31-3.63.59-5.04-.02,1.16-6.25,1.46-12.34-.28-18.51,2.39-.65,4.9-.45,7.34-.2,2.35.24,3.97,1.81,4.48,4.09.47,2.09-.36,3.98-2.09,5.25-4.98,3.66-5,3.64-4.4,9.39Zm.28-10.44c2.17-.95,2.52-2.45,2.22-4.17-.16-.97-.6-1.98-1.84-1.78-1.03.16-.96,1.19-.97,1.95-.02,1.27-.34,2.59.59,4Z" style="fill: #fcfcfc; stroke-width: 0px;"/>
      <path d="m255.03,17.19c7-1.97,6.56,5.72,10.73,8.07.89-2.03.66-4.03.12-6.03-.56-2.08-.6-2.07,2.69-2.16-2.35,5.87-.5,11.98-1.55,18.69-3.93-3.76-5.54-8.57-9.39-12.85-.32,4.79-1.02,8.71,1.22,13.16-1.73-.65-4.22,1.84-3.17-2.67,1.22-5.22,1.31-10.77-.66-16.2Z" style="fill: #fdfdfd; stroke-width: 0px;"/>
      <path d="m215.83,35.36c-1.87.92-3.22.56-4.52.65-1.53.11-2.28,0-1.87-2.1.36-1.83-1.45-2.31-3.11-2.17-1.44.12-2.91.6-2.42,2.33,1.13,4.01-1.74,1.1-2.77,1.62,2.7-6.05,3.73-12.65,6.76-19.34,4.28,6.24,3.65,13.47,7.93,19.02Zm-9.07-10.07c-1.47,1.57-1.93,2.85-.66,4.19.22.24,1.12.24,1.36,0,1.45-1.46.16-2.61-.69-4.19Z" style="fill: #fbfbfb; stroke-width: 0px;"/>
      <path d="m308.86,23.57c-2.22-2.24-3.07-5.79-6.44-4.46-3.13,1.24-3.11,4.37-3.1,7.24,0,.33,0,.66,0,1,.21,6.75,2.85,8.41,8.89,5.37.03,2.26-1.38,3.02-3.09,3.16-2.78.23-5.66.71-7.93-1.7-3.93-4.15-3.42-12.09,1.05-15.66,1.99-1.59,8.98-2.38,10.38-.83,1.29,1.43.65,3.43.24,5.89Z" style="fill: #fafafa; stroke-width: 0px;"/>
      <path d="m75.4,22.75c-1.56-1.64-2.28-2.55-3.15-3.28-1.01-.84-2.16-.89-3.11.16-1.08,1.21-.3,2.2.6,2.98,1.38,1.19,2.99,2.12,4.29,3.38,2.68,2.59,2.95,6.01.88,8.47-1.21,1.44-6.79,2.31-8.46,1.09-1.98-1.44-.86-3.62-1.05-5.6,1.71.08,1.54,1.57,2.17,2.38.91,1.18,1.77,2.51,3.57,2.27.9-.12,1.55-.74,1.79-1.56.52-1.79-.76-2.75-1.95-3.68-1.04-.82-2.2-1.51-3.16-2.41-2.71-2.57-3.15-4.97-1.54-7.51,1.66-2.61,4.63-3.35,7.92-1.91,2.25.98.76,2.78,1.21,5.22Z" style="fill: #fcfcfc; stroke-width: 0px;"/>
      <path d="m217.76,29.9c1.41.35,1.25,1.84,1.97,2.68.98,1.13,1.89,2.47,3.68,1.97.83-.23,1.42-.86,1.59-1.76.3-1.59-.81-2.44-1.83-3.28-1.28-1.06-2.74-1.92-3.88-3.1-2.42-2.51-2.54-5.15-.55-7.58,1.62-1.98,5.42-2.72,7.72-1.23,1.72,1.11.77,2.85.59,5.17-1.28-1.49-2.02-2.62-3.02-3.42-1.04-.84-2.25-.61-3.05.51-.73,1.02-.15,1.92.61,2.62,1.59,1.46,3.62,2.35,5.03,4.06,2.11,2.56,2.2,5.98.13,8.16-1.23,1.3-7.11,1.84-8.54.78-.91-.67-.96-1.31-.44-5.56Z" style="fill: #fcfcfc; stroke-width: 0px;"/>
      <path d="m165.63,35.86c-2.73-.06-5.9,1.73-5.8-3.25.03-1.35-1.83-1.69-3.26-1.45-1.28.21-2.38.91-2.1,2.26.66,3.23-1.2,2.65-3.46,2.27,2.73-5.02,4.05-10.37,5.81-15.56.34-1,.16-2.67,1.64-2.76,1.82-.11,1.69,1.71,2.08,2.87,1.66,4.99,3.26,10,5.08,15.63Zm-8.92-10.62c-.24,1.83-1.91,3-.34,4.37.47.41,1.51.38,1.77-.13.71-1.41.29-2.72-1.43-4.24Z" style="fill: #fbfbfb; stroke-width: 0px;"/>
      <path d="m40.74,21.18c-.88-3.25.16-4.49,3.08-4.35,2.32.1,4.66.11,6.97,0,2.88-.15,4.03,1,3.28,3.93-1.07.7-1.27-.45-1.77-.9-1.75-1.59-2.85-.94-2.83,1.13.06,4.88-.85,9.82.85,14.76-2.02.41-3.95.39-5.93.04,1.66-5.09.84-10.17.74-15.19-.04-2.14-.96-2.08-4.4.59Z" style="fill: #fcfcfc; stroke-width: 0px;"/>
      <path d="m245.46,36.27c1.44-6.68,1.61-12.76-.11-19.07,2.11-.78,4.38-.15,7.05-.46-1.95,5.42-1.14,10.6-1.11,15.74.03,4.19.1,4.36-3.99,4.19-.63-.03-1.25-.27-1.84-.4Z" style="fill: #f9f9f9; stroke-width: 0px;"/>
      <path d="m421.92,21.02c-1.72-.24-1.92-2.57-3.55-1.91-1.6.65-1.08,2.3-1.02,3.51.23,4.34-.89,8.77.98,13.14-2.11.36-4.04.4-6.05-.03,1.87-5.25.76-10.51.92-15.7.05-1.63-.96-1.99-2.3-1.11-.81.53-1.55,1.17-2.33,1.77-.89-2.79.24-3.99,3.31-3.85,2.32.11,4.64.11,6.96,0,2.99-.14,3.86,1.22,3.08,4.18Z" style="fill: #fdfdfd; stroke-width: 0px;"/>
      <path d="m198.78,32.14c-3.29,3.83-7.36,4.8-10.34,3.21-3.34-1.79-5.09-6.82-3.98-11.46.9-3.77,4.39-6.8,8.08-7.02,5.24-.3,6.07.62,5.47,6.04-.16-.05-.38-.04-.47-.15-1.34-1.73-1.93-4.64-5.03-3.8-3.13.84-3.36,3.77-3.94,6.34-.11.48-.08.99-.06,1.49.28,7.41,2.93,9.09,10.26,5.36Z" style="fill: #fcfcfc; stroke-width: 0px;"/>
      <path d="m62.43,35.78h-5.85c1.05-6.1,1.56-12.13-.48-18.5,1.96-.81,4.14-.42,6.38-.24-1.57,6.3-1.51,12.4-.05,18.73Z" style="fill: #fcfcfc; stroke-width: 0px;"/>
      <path d="m424.26,17.15c1.99-.48,3.94-.37,5.9-.09-1.24,6.22-1.35,12.37.02,18.7-1.85.41-3.77.33-5.72.03,1.27-6.19,1.39-12.23-.2-18.65Z" style="fill: #fefefe; stroke-width: 0px;"/>
      <path d="m31.31,35.84c0-.25,0-.49,0-.74.76-.34,1.76-.68,1.77-1.55.08-5.37,1.12-10.82-.99-16.28,1.99-.75,4.06-.37,6.22-.28-1.48,6.33-1.49,12.5-.14,18.75-2.29.51-4.58.29-6.87.11Z" style="fill: #fefefe; stroke-width: 0px;"/>
      <path d="m615.83,82.41c-1.93,0-5.16-3.31-5.27-5.37-.12-2.3,2.65-5.07,5.15-5.15,2.5-.08,5.32,2.4,5.46,4.79.14,2.29-3.08,5.74-5.34,5.73Z" style="fill: #fdfdfd; stroke-width: 0px;"/>
      <path d="m587.23,10.6c-2.39-.05-4.97-2.88-4.88-5.35.1-2.62,2.64-5.27,5.02-5.24,2.38.03,4.95,2.83,4.91,5.33-.05,2.57-2.68,5.31-5.05,5.26Z" style="fill: #fdfdfd; stroke-width: 0px;"/>
      <path d="m615.7,57.33c2.27-.09,5.51,3.18,5.46,5.53-.04,2.2-2.53,4.75-4.79,4.91-2.63.19-5.85-2.59-5.83-5.01.02-2.06,3.14-5.35,5.15-5.43Z" style="fill: #fdfdfd; stroke-width: 0px;"/>
      <path d="m529.86.06c2.45,0,5.15,2.68,5.2,5.16.04,2.42-2.74,5.24-5.14,5.21-2.11-.03-5.24-3.12-5.36-5.28-.12-2.16,2.93-5.1,5.3-5.09Z" style="fill: #fdfdfd; stroke-width: 0px;"/>
      <path d="m615.85,125.41c-1.93,0-5.16-3.25-5.26-5.3-.13-2.4,3.04-5.29,5.66-5.17,2.25.11,4.79,2.58,4.92,4.78.13,2.3-3.04,5.69-5.31,5.69Z" style="fill: #fdfdfd; stroke-width: 0px;"/>
      <path d="m615.74,110.82c-2.53-.07-5.29-2.81-5.17-5.14.13-2.41,2.96-4.91,5.46-4.81,2.57.1,5.24,2.75,5.14,5.1-.1,2.4-2.91,4.91-5.43,4.85Z" style="fill: #fdfdfd; stroke-width: 0px;"/>
      <path d="m616.04,96.59c-2.11.06-5.29-3.06-5.3-5.2,0-2.16,3.11-5.28,5.24-5.25,2.38.03,5.14,2.81,5.15,5.2.01,2.39-2.7,5.18-5.09,5.25Z" style="fill: #fdfdfd; stroke-width: 0px;"/>
      <path d="m578.09,62.61c-.03,2.55-2.72,5.24-5.16,5.18-2.53-.07-5.43-2.79-5.38-5.05.05-2.07,3.3-5.42,5.27-5.43,2.12-.01,5.29,3.18,5.27,5.31Z" style="fill: #fdfdfd; stroke-width: 0px;"/>
      <path d="m513.28,141.62c-.06,2.58-2.6,5.19-5.01,5.16-2.38-.03-5.01-2.87-4.9-5.27.12-2.68,2.5-5.07,5.11-5.12,2.48-.05,4.88,2.56,4.81,5.24Z" style="fill: #fdfdfd; stroke-width: 0px;"/>
      <path d="m528.07,141.56c.16,2.22-2.75,5.12-5.18,5.17-2.45.05-5.2-2.54-5.32-5.02-.1-2.11,2.94-5.31,5.11-5.37,1.95-.06,5.23,3.12,5.38,5.22Z" style="fill: #fdfdfd; stroke-width: 0px;"/>
    </g>
  </g>
</svg>