<?xml version="1.0" encoding="UTF-8" standalone="no"?>
<svg
   enable-background="new 0 0 285.778 113.697"
   viewBox="0 0 285.778 113.697"
   version="1.1"
   id="svg22"
   sodipodi:docname="bk - whlogo.svg"
   inkscape:version="1.3 (0e150ed6c4, 2023-07-21)"
   xmlns:inkscape="http://www.inkscape.org/namespaces/inkscape"
   xmlns:sodipodi="http://sodipodi.sourceforge.net/DTD/sodipodi-0.dtd"
   xmlns="http://www.w3.org/2000/svg"
   xmlns:svg="http://www.w3.org/2000/svg">
  <defs
     id="defs22" />
  <sodipodi:namedview
     id="namedview22"
     pagecolor="#ffffff"
     bordercolor="#000000"
     borderopacity="0.25"
     inkscape:showpageshadow="2"
     inkscape:pageopacity="0.0"
     inkscape:pagecheckerboard="0"
     inkscape:deskcolor="#d1d1d1"
     inkscape:zoom="10.17617"
     inkscape:cx="142.93197"
     inkscape:cy="56.848499"
     inkscape:window-width="5104"
     inkscape:window-height="1353"
     inkscape:window-x="1433"
     inkscape:window-y="0"
     inkscape:window-maximized="0"
     inkscape:current-layer="svg22" />
  <text
     fill="#a11d21"
     font-family="ArialMT"
     font-size="1"
     transform="translate(268.3336 82.8335)"
     id="text1">I hate bugs!</text>
  <path
     id="path1"
     d="M 8.449219,0 C 3.782227,0 0,3.782228 0,8.4492188 V 105.24609 c 0,4.667 3.782227,8.45118 8.449219,8.45118 H 277.32617 c 4.667,0 8.45217,-3.78418 8.45117,-8.45118 V 8.4492188 C 285.77734,3.782228 281.99317,0 277.32617,0 Z M 20.78125,20.148438 c 6.274988,0 9.470703,4.528088 9.470703,10.330078 0,6.540986 -4.320199,10.269531 -9.617187,10.269531 -1.981996,0 -3.787987,-0.383158 -5.208985,-1.035156 l 0.560547,-2.042969 c 1.155998,0.532998 2.812971,0.917969 4.292969,0.917969 4.40899,0 7.044656,-3.196805 7.222656,-7.341797 h -9.324219 v -2.06836 h 9.292969 c -0.326,-3.847992 -2.722899,-6.896484 -6.837891,-6.896484 -1.596996,0 -2.988722,0.442861 -4.261718,1.005859 L 15.75,21.302734 c 1.420998,-0.620998 3.136254,-1.154296 5.03125,-1.154296 z m 48.255859,0.75 c 6.231994,0 7.888672,5.483144 7.888672,8.99414 0,0.708999 -0.07719,1.262188 -0.117187,1.617188 H 63.398438 c 0.077,4.693995 3.074878,6.625 6.546874,6.625 2.484998,0 3.985158,-0.433376 5.285157,-0.984375 l 0.591797,2.484375 c -1.222999,0.552999 -3.312613,1.183593 -6.34961,1.183593 -5.876994,0 -9.388672,-3.867005 -9.388672,-9.625 0,-5.757994 3.391131,-10.294921 8.953125,-10.294921 z m 70.087891,0 c 4.615,0 8.08594,3.90513 8.08594,9.703124 0,6.863994 -4.18174,10.25586 -8.67774,10.25586 -2.52399,0 -4.73395,-1.104049 -5.87695,-2.998047 h -0.0781 v 10.373047 h -3.43164 V 27.566406 c 0,-2.446997 -0.0782,-4.419377 -0.15625,-6.234375 h 3.11524 l 0.1582,3.275391 h 0.0781 c 1.419,-2.327998 3.6682,-3.708985 6.7832,-3.708984 z m 24.69336,0 c 5.48299,0 9.18945,3.985271 9.18945,9.822265 0,7.059993 -4.88891,10.136719 -9.5039,10.136719 -5.167,0 -9.15235,-3.786272 -9.15235,-9.822266 0,-6.389993 4.1828,-10.136718 9.4668,-10.136718 z m 98.96289,0.002 c 5.83699,0 7.25586,3.98455 7.25586,7.810547 v 7.138671 c 0,1.655999 0.0784,3.274174 0.31641,4.576172 h -3.15821 v -0.002 l -0.27343,-2.40625 h -0.11915 c -1.06599,1.497999 -3.11789,2.839844 -5.83789,2.839844 -3.86599,0 -5.83593,-2.723378 -5.83593,-5.484375 0,-4.614996 4.10061,-7.137656 11.47461,-7.097656 v -0.394532 c 0,-1.576998 -0.43295,-4.417968 -4.33594,-4.417968 -1.775,0 -3.62975,0.553875 -4.96875,1.421875 l -0.79102,-2.289063 c 1.579,-1.023999 3.86644,-1.695312 6.27344,-1.695312 z m -224.392578,0.43164 h 13.253906 v 19.091797 h -3.43164 v -16.36914 h -6.548829 v 4.96875 c 0,5.363994 -0.513049,8.955267 -2.998047,10.572265 -0.946999,0.748999 -2.010158,1.181641 -3.785156,1.181641 l -0.355468,-2.720703 c 0.669999,-0.119 1.419578,-0.393063 1.892578,-0.789063 1.774998,-1.299999 1.972656,-3.984145 1.972656,-8.24414 z m 46.976562,0 h 3.433594 v 8.283203 h 0.828125 l 7.177735,-8.283203 h 4.220702 l -8.322265,8.638672 c 3.074997,0.315 4.929736,2.366832 6.427734,5.798828 0.513,1.261999 1.184731,3.117299 2.052731,4.654297 h -3.628902 c -0.513,-0.827999 -1.183392,-2.327251 -1.775391,-3.90625 -1.299999,-3.074997 -3.07455,-4.496094 -6.310547,-4.496094 h -0.669922 v 8.402344 h -3.433594 z m 21.259766,0 h 15.34375 v 2.761672 h -5.95508 v 16.330078 h -3.43359 V 24.09375 H 106.625 Z m 74.82227,0 h 3.43164 v 7.691407 h 9.07226 v -7.691407 h 3.43164 v 19.091797 h -3.43164 v -8.638672 h -9.07226 v 8.638672 h -3.43164 z m 25.67578,0 h 3.27539 v 8.046875 c 0,3.036997 -0.0393,4.932347 -0.19727,7.652344 l 0.11914,0.03906 c 1.143,-2.327997 1.81222,-3.667955 3.07422,-5.876953 l 5.95703,-9.861328 h 4.0625 v 19.091797 h -3.31445 v -8.085937 c 0,-3.114997 0.0793,-4.733597 0.23828,-7.808594 h -0.11914 c -1.223,2.444997 -2.0503,3.983017 -3.1543,5.916015 -1.815,2.957998 -3.90603,6.626519 -5.95703,9.978516 h -3.98437 z m 26.07422,0 h 3.43164 v 8.283203 h 0.82812 l 7.17969,-8.283203 h 4.21875 l -8.32227,8.638672 c 3.075,0.315 4.93169,2.366832 6.42969,5.798828 0.513,1.261999 1.18474,3.117299 2.05273,4.654297 h -3.63085 c -0.513,-0.827999 -1.1834,-2.327251 -1.77539,-3.90625 -1.302,-3.074997 -3.07456,-4.496094 -6.31055,-4.496094 h -0.66992 v 8.402344 h -3.43164 z M 68.761719,23.384766 c -3.510997,0 -5.049172,3.233674 -5.326172,5.638672 h 10.136719 c 0.04,-2.208998 -0.905551,-5.638672 -4.810547,-5.638672 z m 94.976561,0.117187 c -4.10199,0.001 -5.87695,3.786019 -5.87695,7.416016 0,4.180996 2.40583,7.335937 5.79883,7.335937 3.31299,0 5.79882,-3.11602 5.79882,-7.416015 0,-3.235997 -1.6197,-7.335938 -5.7207,-7.335938 z m -25.67773,0.158203 c -2.366,0 -4.5741,1.696784 -5.2461,4.300782 -0.117,0.433999 -0.23633,0.945922 -0.23633,1.419921 v 3.271485 c 0,0.512999 0.0792,0.985922 0.15821,1.419922 0.63,2.404997 2.72108,4.0625 5.20508,4.0625 3.66899,0 5.79882,-2.996005 5.79882,-7.375 0,-3.825997 -2.01169,-7.09961 -5.67968,-7.09961 z m 127.9082,7.013672 c -3.59198,0.0222 -7.37109,0.830394 -7.37109,4.306641 0,2.248998 1.49844,3.3125 3.27343,3.3125 2.485,0 4.06224,-1.576361 4.61524,-3.19336 0.117,-0.356999 0.19726,-0.752422 0.19726,-1.107421 v -3.3125 c -0.23662,-0.0049 -0.47537,-0.0073 -0.71484,-0.0059 z M 22.789062,67.609375 h 14.314454 v 2.763672 H 26.083984 v 6.855469 c 0.796,-0.113 2.310532,-0.189454 3.144532,-0.189454 2.422997,0 4.808892,0.529127 6.58789,1.703126 1.931998,1.249998 3.25586,3.257049 3.25586,6.248046 0,2.385998 -0.796095,4.204299 -2.121094,5.529297 -2.082998,2.044998 -5.527722,2.837891 -9.011719,2.837891 -2.309998,0 -4.052392,-0.149782 -5.150391,-0.300781 z m 25.419922,0 h 3.257813 v 11.322266 h 1.021484 l 8.748047,-11.322266 h 3.976563 l -9.65625,11.701172 c 4.203995,0.566999 5.831251,3.141894 7.15625,6.587891 0.946999,2.612997 1.666735,4.961377 2.802734,7.234374 h -3.560547 c -0.908999,-1.740998 -1.627594,-4.013486 -2.308594,-6.021484 -1.173998,-3.370997 -2.802145,-5.681641 -7.11914,-5.68164 h -1.060547 v 11.703124 h -3.257813 z m 71.064456,0.490234 c 5.18799,0.001 8.14062,4.621946 8.14062,12.460938 0,8.368992 -3.10464,12.986328 -8.55664,12.986328 -4.80899,0 -8.06658,-4.504493 -8.14258,-12.646484 0,-8.254992 3.5606,-12.800782 8.5586,-12.800782 z m 24.28125,0 c 5.18699,0.001 8.14258,4.621946 8.14258,12.460938 0,8.368992 -3.1066,12.986328 -8.5586,12.986328 -4.80899,0 -8.06658,-4.504493 -8.14258,-12.646484 0,-8.254992 3.5606,-12.800782 8.5586,-12.800782 z m 48.56445,0 c 5.188,0.001 8.14258,4.621946 8.14258,12.460938 0,8.368992 -3.1066,12.986328 -8.5586,12.986328 -4.80899,0 -8.06462,-4.504493 -8.14062,-12.646484 0,-8.254992 3.55865,-12.800782 8.55664,-12.800782 z m 40.76367,0 c 5.188,0.001 8.14063,4.621946 8.14063,12.460938 0,8.368992 -3.10465,12.986328 -8.55664,12.986328 -4.809,0 -8.06658,-4.504493 -8.14258,-12.646484 0,-8.254992 3.5606,-12.800782 8.55859,-12.800782 z m -65.65039,0.417969 h 2.83985 v 24.613281 h -3.21875 V 71.621094 h -0.0762 l -4.27734,2.310547 -0.64453,-2.53711 z m 89.32617,0 h 2.83789 v 24.613281 h -3.21875 V 71.621094 h -0.0742 l -4.2793,2.310547 -0.64453,-2.53711 z m -137.47461,2.158203 c -2.91499,0 -5.03515,3.558726 -5.03515,10.261719 0,6.398994 1.96805,10.035156 4.99805,10.035156 3.40799,0 5.03515,-3.976725 5.03515,-10.261718 0,-6.058994 -1.55205,-10.035157 -4.99805,-10.035157 z m 24.28125,0 c -2.91499,0 -5.03515,3.558726 -5.03515,10.261719 0,6.398994 1.96805,10.035156 4.99804,10.035156 3.408,0 5.03516,-3.976725 5.03516,-10.261718 0,-6.058994 -1.55205,-10.035157 -4.99805,-10.035157 z m 48.56641,0 c -2.915,0 -5.03711,3.558726 -5.03711,10.261719 0,6.398994 1.97005,10.035156 4.99805,10.035156 3.40799,0 5.03711,-3.976725 5.03711,-10.261718 0,-6.058994 -1.55205,-10.035157 -4.99805,-10.035157 z m 40.76172,0 c -2.915,0 -5.03711,3.558726 -5.03711,10.261719 0,6.398994 1.96805,10.035156 4.99805,10.035156 3.40799,0 5.03711,-3.976725 5.03711,-10.261718 0,-6.058994 -1.55205,-10.035157 -4.99805,-10.035157 z M 28.697266,79.611328 c -0.756,0 -1.779282,0.07734 -2.613282,0.152344 V 90.59375 c 0.758,0.151 1.627673,0.189453 2.763672,0.189453 2.044998,0 4.129908,-0.643704 5.378906,-1.970703 0.871,-0.906999 1.400391,-2.156048 1.400391,-3.748047 0,-1.967998 -0.833032,-3.294016 -2.082031,-4.166015 -1.324999,-0.909 -3.028658,-1.28711 -4.847656,-1.28711 z m 178.919924,2.046875 h 9.35351 v 2.460938 h -9.35351 z"
     style="fill:#ffffff" />
  <g
     fill="#fff"
     id="g22" />
</svg>
