<?xml version="1.0" encoding="UTF-8"?>
<svg id="Calque_2" data-name="Calque 2" xmlns="http://www.w3.org/2000/svg" viewBox="0 0 565.75 215.34">
  <g id="Calque_1-2" data-name="Calque 1">
    <g>
      <path d="m241.59,164.47c-1.35-3.5-3.52-5.25-5.71-6.99-7-5.54-14.99-9.21-23.31-12.21-23.19-8.34-47.37-11.66-71.79-12.64-29.76-1.2-59.48-.22-88.66,6.8-15.91,3.83-31.44,8.6-44.5,19.11-9.45,7.61-10.15,18.64-1.88,27.4,7.32,7.75,16.65,12.01,26.38,15.58,26.51,9.74,54.24,12.48,82.16,13.62,19.96.81,39.86-.94,59.56-4,17.42-2.7,34.58-6.73,50.51-14.69,5.36-2.68,10.52-5.79,14.67-10.2,1.02-1.08,2.93-2.41,2.09-4.11-.72-1.45-2.73-.65-4.16-.66-6.66-.07-13.33.12-19.98-.08-5.09-.15-9.68.28-13.84,3.94-2.95,2.59-6.92,3.87-10.69,5.25-17.19,6.3-35.21,8.47-53.23,9.49-26.29,1.48-52.5.03-78.12-6.87-8.06-2.17-15.85-5.15-22.66-10.13-7.75-5.67-7.76-13.69-.11-19.39,3.62-2.7,7.68-4.64,11.86-6.32,21.51-8.66,44.28-9.82,67-10.76,15.61-.64,31.25.54,46.68,2.96,15.08,2.36,30.2,5.1,43.15,14.18.75.52,1.88.68,2.83.69,10.32.05,20.63.03,31.75.03ZM99.72,56.15c0,15.14.14,30.29-.09,45.43-.06,4.04,1.22,5.15,5.1,4.99,6.82-.28,13.66-.21,20.48-.02,3.26.09,4.8-.61,4.71-4.34-.23-9.98.05-19.97-.15-29.95-.07-3.52.64-5.12,4.62-4.96,7.65.3,15.32.25,22.97.02,3.54-.11,4.56,1.1,4.5,4.56-.2,10.15.05,20.3-.13,30.45-.06,3.32,1.08,4.31,4.31,4.22,7.15-.2,14.32-.18,21.48,0,3.14.08,4.4-.75,4.39-4.15-.11-30.62-.11-61.24,0-91.86.01-3.43-1.3-4.21-4.41-4.14-7.16.17-14.32.19-21.48,0-3.27-.09-4.34.98-4.28,4.26.17,10.48-.04,20.97.13,31.45.05,3.19-.81,4.45-4.18,4.37-7.82-.2-15.66-.23-23.48.01-3.64.12-4.48-1.27-4.43-4.63.18-10.48-.03-20.97.12-31.45.04-3.06-1-4.07-4.03-4-7.16.17-14.33.25-21.48-.03-3.82-.15-4.79,1.19-4.74,4.85.18,14.97.08,29.95.08,44.93Zm167.9.07c0,15.3.07,30.6-.06,45.9-.02,3.09.67,4.47,4.11,4.44,15.81-.15,31.62-.11,47.43-.02,2.44.01,3.5-.73,3.94-3.23.76-4.4,1.71-8.8,3.04-13.05.96-3.06.12-3.86-2.84-3.81-6.49.11-13-.27-19.46.13-4.72.29-6.23-.98-6.16-5.95.28-22.45.12-44.9.12-67.35q0-6.82-6.57-6.82c-5.82,0-11.67.3-17.47-.1-4.71-.32-6.31,1.01-6.2,5.96.33,14.63.12,29.27.12,43.9Zm-52.96-.25c0,15.31.08,30.62-.06,45.92-.03,3.3.7,4.8,4.39,4.67,7.15-.25,14.32-.2,21.47-.02,3.13.08,4.4-.72,4.39-4.14-.11-30.62-.11-61.23,0-91.85.01-3.39-1.21-4.25-4.37-4.17-6.99.19-14,.31-20.97-.04-4.19-.21-4.96,1.45-4.92,5.19.18,14.81.07,29.62.07,44.43Zm153.1,1.04c0-15.3-.12-30.6.08-45.9.05-3.81-1.18-4.86-4.85-4.73-7.15.26-14.31.16-21.47.03-2.71-.05-3.86.71-3.85,3.64.08,30.94.08,61.87,0,92.81,0,2.87,1.03,3.74,3.79,3.69,7.15-.14,14.32-.3,21.46.05,4.2.21,4.94-1.46,4.9-5.18-.17-14.8-.07-29.6-.07-44.41Zm197.88,131.17c0-6.99-.07-13.97.04-20.96.04-2.58-.46-4.05-3.52-3.97-5.99.17-11.98.13-17.97.01-2.63-.05-3.46,1.02-3.45,3.55.07,13.97.09,27.94-.01,41.91-.02,2.86,1.05,3.77,3.81,3.7,5.82-.15,11.65-.16,17.47,0,2.89.08,3.73-1.06,3.68-3.8-.14-6.82-.05-13.64-.05-20.46Zm-41.28-10.54c-3-1.89-5.77-1.12-8.29-1.57-15.98-2.87-32-5.55-47.99-8.39-2.73-.48-3.61.46-3.54,3.09.11,3.99.3,8.01-.04,11.97-.38,4.4,1.59,5.04,5.3,4.38,17.93-3.18,35.89-6.25,54.56-9.48Zm29.17-39.27c-13.24,0-13.15,0-12.84,13.06.07,2.99.91,4.14,3.99,4.03,5.31-.2,10.64-.26,15.93.02,3.79.2,5.18-.8,5.13-4.91-.16-12.19.03-12.2-12.21-12.2Z" style="fill: #fff; stroke-width: 0px;"/>
      <path d="m439.53,4.5c10.44,1.5,20.68,3.34,28.78,11.04,9.17,8.72,11.12,19.75,9.91,31.54-2.6,25.31-22.3,34.76-42.06,35.41-3.16.1-6.35.25-9.49-.01-3.79-.32-5.46.76-5.16,4.92.36,4.97-.09,9.99.14,14.97.16,3.37-1.16,4.28-4.36,4.19-6.99-.2-14-.32-20.98.03-4.35.22-5.66-1-5.63-5.5.21-27.97.11-55.94.11-83.91,0-2.16.19-4.35-.04-6.49-.43-4.03,1.42-5.15,5.21-5.2,6.3-.08,12.6-.67,18.9-1.05m8.56,18.4c-1.82,1.03-1.73-1.75-1.78,3.69-.1,11.63-.01,23.27-.05,34.91,0,2.02.69,2.87,2.85,3.11,11.59,1.29,19.76-3.93,23.12-14.84,3.7-12.01-6.6-28.18-24.14-26.87Z" style="fill: #fff; stroke-width: 0px;"/>
      <path d="m61.02,0c6.98.67,13.88,1.79,20.33,4.58,16.21,7,22.09,22.02,19.83,39.08-3.13,23.57-20.99,33.14-40.57,34.34-3.98.24-8,.22-11.99.04-2.99-.14-4.19.83-4.07,3.95.2,5.32-.06,10.66.1,15.98.09,2.89-.66,4.22-3.88,4.15-7.82-.19-15.66-.16-23.49-.01-2.92.05-3.66-1.12-3.65-3.83.07-30.8.09-61.59-.02-92.39-.01-3.65,1.69-4.65,4.79-4.73m26.21,38.45c0,5.66.08,11.31-.04,16.97-.05,2.51.78,3.42,3.41,3.57,15.85.93,25.65-9.49,23.56-25.24-1.46-11.05-14.78-19.4-25.2-15.88-2.03.68-1.72,2.19-1.73,3.62-.04,5.66-.02,11.31-.02,16.97Z" style="fill: #fff; stroke-width: 0px;"/>
      <path d="m538.49,4.46c3.3.34,6.6.66,9.89,1.06,8.38,1.04,8.86,1.64,9.28,9.92.18,3.47.69,6.92,1.02,10.38.19,2.02-.5,2.72-2.6,1.97-6.45-2.32-13.23-3.02-19.97-3.92-5.07-.67-9.99-.09-14.54,2.22-4.2,2.13-4.9,6.35-1.92,10.01,2.85,3.51,6.9,5.07,10.98,6.58,7.48,2.77,15.09,5.24,21.98,9.38,10.27,6.17,14.01,15.49,12.96,27.08-1.09,12.11-7.41,20.66-18.58,24.93-18.59,7.1-37.46,5.63-56.29.56-2.14-.58-2.83-1.79-3.07-3.88-.61-5.25-1.19-10.54-2.34-15.69-.93-4.18.48-3.71,3.43-2.64,10.84,3.92,21.93,6.54,33.59,6.09,2.72-.1,5.3-.61,7.71-1.77,5.56-2.66,6.57-8.67,2.41-13.17-3.7-4-8.75-5.34-13.57-7.05-6.91-2.45-13.74-5-19.83-9.16-16.35-11.16-15.25-37.13,1.9-46.99,5.89-3.39,12.28-4.91,18.9-5.85" style="fill: #fff; stroke-width: 0px;"/>
      <path d="m241.59,164.47c-11.12,0-21.44.02-31.75-.03-.95,0-2.09-.17-2.83-.69-12.96-9.08-28.07-11.82-43.15-14.18-15.43-2.42-31.07-3.6-46.68-2.96-22.71.94-45.48,2.1-67,10.76-4.18,1.68-8.23,3.62-11.86,6.32-7.64,5.7-7.64,13.72.11,19.39,6.81,4.98,14.6,7.96,22.66,10.13,25.62,6.9,51.83,8.35,78.12,6.87,18.02-1.01,36.04-3.18,53.23-9.49,3.77-1.38,7.74-2.66,10.69-5.25,4.16-3.66,8.75-4.09,13.84-3.94,6.66.2,13.32,0,19.98.08,1.42.01,3.44-.78,4.16.66.84,1.7-1.07,3.03-2.09,4.11-4.15,4.41-9.31,7.52-14.67,10.2-15.93,7.96-33.09,11.98-50.51,14.69-19.71,3.06-39.6,4.81-59.56,4-27.92-1.13-55.65-3.88-82.16-13.62-9.72-3.57-19.06-7.83-26.38-15.58-8.28-8.76-7.57-19.79,1.88-27.4,13.06-10.51,28.59-15.28,44.5-19.11,29.18-7.02,58.9-8,88.66-6.8,24.41.98,48.6,4.3,71.79,12.64,8.32,2.99,16.31,6.67,23.31,12.21,2.19,1.74,4.36,3.49,5.71,6.99Z" style="fill: #fff; stroke-width: 0px;"/>
      <path d="m312.19,211.42c-19.49,0-38.99-.08-58.48.08-3.61.03-4.95-.82-4.91-4.69.18-21.31.15-42.62.02-63.94-.02-3.44.94-4.59,4.49-4.58,38.15.15,76.32-.44,114.45.42,20.57.46,41.01,3.63,60.34,11.66,5.61,2.33,10.71,5.41,15.24,9.35,10.86,9.45,9.57,23.78-2.76,32.66-11.78,8.49-25.46,12.03-39.34,14.86-14.85,3.02-29.89,4.31-45.06,4.2-14.66-.11-29.32-.02-43.98-.02Zm13.54-59.05v-.1c-14.49,0-28.97-.02-43.46.02-2.02,0-4.62-.73-4.62,2.8.01,13.48,0,26.96,0,40.44,0,1.86.76,2.77,2.71,2.63,20.44-1.46,40.92-.55,61.38-.55,14.1,0,28.15.17,42.12-2.18,10.7-1.8,21.32-3.87,30.34-10.41,7.49-5.43,7.49-14.67.13-20.22-3.2-2.41-6.74-4.24-10.54-5.57-12.49-4.38-25.45-6.35-38.58-6.77-13.14-.41-26.31-.09-39.46-.09Z" style="fill: #fff; stroke-width: 0px;"/>
      <path d="m99.72,56.15c0-14.98.11-29.96-.08-44.93-.05-3.66.92-5,4.74-4.85,7.15.28,14.32.2,21.48.03,3.03-.07,4.07.94,4.03,4-.15,10.48.06,20.97-.12,31.45-.06,3.36.79,4.74,4.43,4.63,7.82-.25,15.65-.21,23.48-.01,3.37.09,4.23-1.17,4.18-4.37-.17-10.48.04-20.97-.13-31.45-.05-3.28,1.02-4.35,4.28-4.26,7.15.2,14.32.18,21.48,0,3.11-.08,4.42.71,4.41,4.14-.11,30.62-.11,61.24,0,91.86.01,3.4-1.25,4.23-4.39,4.15-7.16-.18-14.32-.19-21.48,0-3.23.09-4.37-.9-4.31-4.22.18-10.15-.06-20.3.13-30.45.07-3.46-.96-4.67-4.5-4.56-7.65.23-15.33.28-22.97-.02-3.98-.16-4.69,1.44-4.62,4.96.2,9.98-.08,19.97.15,29.95.09,3.72-1.45,4.43-4.71,4.34-6.82-.19-13.66-.26-20.48.02-3.88.16-5.17-.95-5.1-4.99.23-15.14.09-30.29.09-45.43Z" style="fill: #fff; stroke-width: 0px;"/>
      <path d="m267.62,56.22c0-14.64.21-29.28-.12-43.9-.11-4.95,1.49-6.28,6.2-5.96,5.8.4,11.64.09,17.47.1q6.56,0,6.57,6.82c0,22.45.16,44.91-.12,67.35-.06,4.97,1.45,6.24,6.16,5.95,6.47-.4,12.98-.02,19.46-.13,2.96-.05,3.8.75,2.84,3.81-1.33,4.26-2.28,8.65-3.04,13.05-.43,2.5-1.49,3.25-3.94,3.23-15.81-.08-31.62-.13-47.43.02-3.44.03-4.14-1.34-4.11-4.44.12-15.3.06-30.6.06-45.9Z" style="fill: #fff; stroke-width: 0px;"/>
      <path d="m214.66,55.97c0-14.81.1-29.62-.07-44.43-.04-3.73.73-5.4,4.92-5.19,6.98.35,13.98.22,20.97.04,3.16-.08,4.38.78,4.37,4.17-.11,30.62-.11,61.23,0,91.85.01,3.42-1.26,4.22-4.39,4.14-7.16-.18-14.32-.24-21.47.02-3.68.13-4.41-1.37-4.39-4.67.14-15.31.06-30.62.06-45.92Z" style="fill: #fff; stroke-width: 0px;"/>
      <path d="m367.76,57.01c0,14.8-.1,29.61.07,44.41.04,3.72-.7,5.38-4.9,5.18-7.14-.35-14.31-.19-21.46-.05-2.76.05-3.8-.82-3.79-3.69.08-30.94.08-61.87,0-92.81,0-2.92,1.14-3.69,3.85-3.64,7.15.13,14.32.23,21.47-.03,3.67-.13,4.9.92,4.85,4.73-.2,15.3-.08,30.6-.08,45.9Z" style="fill: #fff; stroke-width: 0px;"/>
      <path d="m565.64,188.18c0,6.82-.09,13.64.05,20.46.06,2.75-.79,3.88-3.68,3.8-5.82-.16-11.65-.15-17.47,0-2.76.07-3.83-.83-3.81-3.7.1-13.97.09-27.94.01-41.91-.01-2.53.82-3.6,3.45-3.55,5.99.12,11.99.16,17.97-.01,3.06-.09,3.56,1.39,3.52,3.97-.11,6.98-.04,13.97-.04,20.96Z" style="fill: #fff; stroke-width: 0px;"/>
      <path d="m121.51,184.31c-5.72.48-11.95-.4-18.09-2.04-1.44-.39-2.94-.75-4.23-1.46-3.21-1.77-7.21-3.62-7.02-7.69.19-3.92,3.87-5.93,7.44-7.17,15.65-5.45,31.28-5.25,46.77.57,2.97,1.12,6.07,2.84,6.23,6.45.16,3.66-2.94,5.37-5.74,6.84-7.75,4.09-16.16,4.77-25.37,4.49Zm.81-16.92c-6.35-.4-12.53.65-18.55,2.59-1.69.54-3.74,1.35-3.65,3.53.08,1.82,1.88,2.69,3.46,3.17,12.53,3.81,25.08,3.58,37.59-.09,1.58-.46,3.27-1.39,3.42-3.24.19-2.43-2.15-2.8-3.72-3.32-6-2-12.19-3.02-18.56-2.64Z" style="fill: #fff; stroke-width: 0px;"/>
      <path d="m524.36,177.64c-18.67,3.23-36.63,6.31-54.56,9.48-3.71.66-5.68.02-5.3-4.38.35-3.96.16-7.98.04-11.97-.08-2.63.81-3.57,3.54-3.09,15.99,2.84,32.01,5.52,47.99,8.39,2.52.45,5.29-.32,8.29,1.57Z" style="fill: #fff; stroke-width: 0px;"/>
      <path d="m553.53,138.36c12.24,0,12.05,0,12.21,12.2.05,4.11-1.34,5.11-5.13,4.91-5.3-.28-10.63-.21-15.93-.02-3.08.11-3.92-1.04-3.99-4.03-.31-13.07-.4-13.06,12.84-13.06Z" style="fill: #fff; stroke-width: 0px;"/>
    </g>
  </g>
</svg>