<?xml version="1.0" encoding="UTF-8"?>
<svg id="Calque_2" data-name="Calque 2" xmlns="http://www.w3.org/2000/svg" viewBox="0 0 493.01 214">
  <g id="Calque_1-2" data-name="Calque 1">
    <g>
      <path d="m54.01,214c0-7.82.14-15.65-.07-23.46-.09-3.36.77-4.62,4.4-4.61,38.44.12,76.89.12,115.33,0,3.63-.01,4.49,1.25,4.4,4.61-.21,7.82-.07,15.64-.07,23.46H54.01Z" style="fill: #fff; stroke-width: 0px;"/>
      <path d="m190.01,214c0-7.82.14-15.65-.07-23.46-.09-3.36.77-4.62,4.4-4.61,38.44.12,76.89.12,115.33,0,3.63-.01,4.49,1.25,4.4,4.61-.21,7.82-.07,15.64-.07,23.46h-124Z" style="fill: #fff; stroke-width: 0px;"/>
      <path d="m326.01,214c0-7.82.14-15.65-.07-23.46-.09-3.36.77-4.62,4.4-4.61,38.11.12,76.22.12,114.33,0,3.63-.01,4.49,1.25,4.4,4.61-.21,7.82-.07,15.64-.07,23.46h-123Z" style="fill: #fff; stroke-width: 0px;"/>
      <path d="m246.47,0c74.64,0,149.29,0,223.93,0,14.2,0,22.61,8.45,22.61,22.72,0,26.66,0,53.32,0,79.98,0,13.62-8.56,22.3-22.02,22.3-149.62,0-299.24,0-448.87,0-13.52,0-22.1-8.64-22.11-22.21C0,75.79,0,48.8.01,21.81.02,8.68,8.78,0,22.03,0,96.84,0,171.65,0,246.47,0ZM93.72,85.94c-2.59-5.69-4.71-10.89-7.3-15.85-1.51-2.89-1.15-4.46,1.41-6.56,5.77-4.76,7.07-10.02,4.77-16.37-2.21-6.13-7.69-10.01-14.58-10.14-5.49-.1-10.99.23-16.46-.11-3.94-.24-4.69,1.34-4.63,4.9.2,11.81-.03,23.62.11,35.43.12,9.84-2.14,8.5,9.12,8.76,3.1.07,4-1.06,4.01-4.05,0-2.23-1.5-5.83,1.83-6.37,2.93-.48,3.13,3.31,4.39,5.31.53.84,1,1.76,1.26,2.7.47,1.71,1.43,2.41,3.22,2.37,4.1-.09,8.2-.03,12.84-.03Zm77.16-24.51c0-6.65-.17-13.31.07-19.96.12-3.48-.99-4.96-4.51-4.5-1.14.15-2.33.02-3.49.02-6.8,0-6.98,0-6.93,6.87.03,3.33-1.06,4.58-4.32,4.09-1.14-.17-2.33-.07-3.49,0-8.44.59-15.4,7.61-16.93,17.03-1.13,6.97,4.69,16.38,11.58,19.12,8.4,3.34,17.11,1.28,25.67,1.78,2.52.15,2.33-1.84,2.33-3.5.01-6.99,0-13.97,0-20.96Zm110.25-.02c0,5.49-.04,10.99,0,16.48.09,9.47-1.17,8.11,8.22,8.19,7.18.06,7.31-.08,7.47-7.55.1-4.66,0-9.32.04-13.98.01-1.26-.32-3.11,1.48-3.2,2.29-.12,1.78,1.98,1.8,3.34.08,4.16.02,8.32.04,12.49q.04,8.93,8.62,8.92c1.17,0,2.34-.1,3.49.02,2.84.28,3.79-.97,3.73-3.76-.14-6.16-.04-12.32-.04-18.48,0-11.36-3.89-15.5-15.31-15.89-2.67-.09-3.68-.78-3.95-3.65-.7-7.34-.89-7.32-8.11-7.32-1.17,0-2.34.11-3.49-.02-3-.33-4.14.82-4.06,3.93.18,6.82.06,13.65.06,20.48Zm-68.38,25.56c11.35-.65,19.26-8.36,20.04-20.24.7-10.74-9.31-20.69-20.12-20.71-9.58-.02-20.34,7.22-20.13,20.54.18,11.93,7.2,19.22,20.22,20.41Zm175.07-16.86c1.96,0,3.62-.05,5.28.01,3,.12,3.77-1.78,3.55-4.18-.55-6.04-3.08-11.18-7.83-15-7.65-6.15-15.87-6.49-23.99-1.2-7.15,4.65-10.88,13.83-8.48,22.27,2.14,7.52,7.04,13.14,14.83,14.71,8.29,1.67,15.92-.2,21.15-7.72.64-.92,1.7-1.89,1.15-3.09-.61-1.34-2.07-.79-3.14-.76-3.87.12-7.7-.63-11.35,2.19-2.3,1.78-5.97,1.71-8.08-1.17-1.65-2.27-1.83-5.31.21-7.37,2.44-2.46,5.91-3.01,8.56-.54,2.66,2.47,5.56,1.58,8.14,1.85Zm22.22-9.16c0-6.38,0-11.54,0-16.7,0-7.77-.33-7.98-8.17-7.26-2.09.19-2.97.88-2.96,3,.04,14.32.05,28.64,0,42.96,0,2.4,1.04,3.05,3.3,3.2,7.78.5,7.84.53,7.84-7.11,0-1-.03-2,0-3,.06-1.46-.24-3.27,1.76-3.61,1.72-.29,2,1.42,2.61,2.54.4.73.74,1.49,1.07,2.26q3.79,8.93,13.35,8.88c.67,0,1.33-.03,2,0,2.8.15,3.63-.83,2.39-3.56-1.85-4.09-3.1-8.48-5.26-12.37-2.61-4.7-2.56-8.74,1.01-12.77.77-.86,1.31-1.92,1.97-2.88,1.54-2.19,1.1-3.29-1.7-3.38-6.8-.23-13.82-1.11-17.09,7.14-.27.69-.96,1.22-2.14,2.67Zm-281,10.73c0-5.11.14-9.27-.03-13.41-.24-5.68-4.56-10.09-10.18-10.28-5.81-.19-11.63-.08-17.45-.04-1.26,0-2.59-.26-3.27,1.49-2.15,5.55.38,9.62,6.12,9.63.66,0,1.34-.07,1.99.01,1.85.23,5.05-.83,5.07,1.57.02,2.59-3.16,1.27-4.9,1.44-7.23.7-12.42,5.87-12.27,12.47.14,6.17,5.82,11.22,12.86,11.38,2.33.05,4.66.1,6.98,0,4.78-.22,10.93,2.03,13.99-.85,3.35-3.16.51-9.46,1.1-13.4Zm224.06-1.05c0-3.66.03-7.32,0-10.98-.08-7.3-4.46-11.63-11.87-11.7-4.32-.04-8.68.33-12.97-.1-4.99-.5-6.39,1.07-6.47,6.22-.09,5.77,3.09,4.89,6.6,5.08,2.44.13,6.73-1.53,6.9,1.6.22,3.81-4.1,1.84-6.4,2.1-6.04.69-10.77,5.72-10.66,11.78.11,6.15,4.82,11.23,10.96,11.4,6.82.19,13.64-.02,20.46.09,2.6.04,3.56-.96,3.48-3.52-.13-3.99-.03-7.98-.03-11.98Zm-73.27-26.64c-.98-2.14,2.12-6.23-2.25-6.83-11.87-1.64-21.05,3.97-22.49,16.1-.47,3.95-.83,7.92-.98,11.89-.15,4.13-1.86,6.68-6.17,6.85-2.07.08-3.03.81-2.96,2.97.1,2.82.04,5.65.03,8.48,0,1.51.5,2.4,2.22,2.65,13.22,1.9,22.42-5.65,22.64-18,.05-2.83-.05-5.67.18-8.48.27-3.22,1.02-6.83,4.57-7.52,4.95-.95,6.23-3.52,5.19-8.1Zm-105.7,23.01c0,2.49,0,4.99,0,7.48,0,11.87,0,11.74,11.89,11.55,3.43-.05,4.18-1.33,4.11-4.43-.18-7.31-.06-14.63-.06-21.94,0-12.3,0-12.18-12.13-11.82-3.22.1-3.93,1.35-3.85,4.2.15,4.98.04,9.97.04,14.96Z" style="fill: #fff; stroke-width: 0px;"/>
      <path d="m189.31,138.1c4.17,0,8.33-.08,12.5.02,3.86.1,7.97.22,9.87,4.37,2.11,4.59,2.46,9.46-.68,13.75-1.32,1.81-1.94,2.74.04,4.34,1.31,1.06,1.87,2.82,1.8,4.51-.08,1.9,1.09,4.66-1.01,5.49-2.72,1.07-5.96.85-8.84.03-1.45-.42-.98-2.32-.94-3.59.1-3.07-1.43-4.14-4.31-4.05-3,.1-6,.14-9-.01-4.1-.21-7.6-.35-6.9,5.68.41,3.58-3,2.28-4.83,2.28-1.83,0-4.92,1.35-4.98-2.24-.16-9.33-.05-18.66-.08-27.99,0-2.38,1.52-2.59,3.34-2.58,4.67.03,9.33,0,14,0Zm2.95,8.85s0,.01,0,.02c-2.65,0-5.31-.01-7.96,0-2.53.02-2.36,1.9-2.26,3.53.1,1.64-.85,4.19,1.98,4.26,5.29.12,10.61.61,15.87-.32,2.33-.41,3.21-2.07,3.02-4.4-.18-2.33-1.57-3.1-3.68-3.09-2.32.01-4.64,0-6.96,0Z" style="fill: #fff; stroke-width: 0px;"/>
      <path d="m239.75,170.97c-3.66,0-7.33-.03-10.99.01-1.88.02-3.64-.39-5.26-1.32-2.58-1.47-3.65-3.72-3.45-6.68.1-1.43.26-2.99,2.04-2.72,2.71.41,6.12-1.86,8.02,1.79.84,1.6,2.12,1.96,3.7,1.96,4.16-.02,8.33.07,12.49-.11,1.81-.08,3.91-.56,3.69-3.08-.21-2.43-2.33-1.89-3.89-1.97-6.3-.33-12.62.53-18.91-.73-4.57-.91-7.06-3.22-7.19-8.01-.19-7.21,1.17-9.96,6.46-11.11,8.37-1.82,16.86-1.14,25.31-.5.97.07,1.92.51,2.86.85,2.83,1.01,4.22,3.12,4.37,6.05.07,1.28.43,3.09-1.37,3.23-2.72.21-5.7,1.25-8.12-.92-5.58-4.98-11.83-2.31-17.9-1.68-1.17.12-1.66,1.06-1.54,2.18.19,1.89,1.73,2.5,3.2,2.59,3.49.21,6.99.12,10.48.15,2.5.02,5-.04,7.49.06,6.43.25,9.42,3.28,9.63,9.62.2,6.11-2.86,9.56-9.13,10.27-.33.04-.67.04-1,.04-3.66,0-7.33,0-10.99,0Z" style="fill: #fff; stroke-width: 0px;"/>
      <path d="m311.89,170.99c-3.49,0-6.99.07-10.48-.02-3.51-.09-6.62-1.11-8.14-4.64-1.58-3.67-1.42-7.25,1.66-10.06,1.41-1.29,1.55-1.55.14-3.2-4.83-5.65-2.33-13.12,4.85-14.36,7.72-1.34,15.62-1.15,23.34-.18,7.34.92,10.06,8.5,5.64,14.6-.86,1.18-1.83,1.49-.19,2.9,3.46,2.98,2.86,6.9,1.38,10.54-1.43,3.53-4.64,4.47-8.21,4.44-3.33-.03-6.66,0-9.99,0Zm-.23-13.04c-2.16,0-4.32-.06-6.48.02-1.92.07-3.14,1.05-3.1,3.11.03,1.78,1.07,2.85,2.79,2.89,4.48.1,8.97.13,13.45.01,1.8-.05,3.35-1.16,3.27-3.07-.08-1.85-1.59-2.86-3.44-2.94-2.16-.09-4.32-.02-6.48-.02Zm.26-6.99s0-.01,0-.02c2.16,0,4.34.12,6.49-.04,1.74-.13,2.63-1.28,2.58-3.06-.04-1.54-.86-2.69-2.36-2.73-4.49-.13-8.99-.17-13.48.02-1.53.06-2.89,1.24-2.77,2.99.11,1.69,1.46,2.66,3.05,2.8,2.15.18,4.33.04,6.49.04Z" style="fill: #fff; stroke-width: 0px;"/>
      <path d="m356.02,170.98c-3.49,0-6.98.04-10.48,0-5.02-.07-8.28-2.64-9.1-7.52-.94-5.58-.79-11.26-.06-16.87.67-5.2,4.14-8.05,9.09-8.32,6.96-.38,13.99-.51,20.93,0,6.85.5,9.52,3.99,9.6,10.92.05,4.16.1,8.32-.02,12.47-.15,5.5-3.54,9.04-8.99,9.3-3.65.17-7.31.03-10.97.03Zm.12-7.93c1.33,0,2.66.02,3.99,0,6-.11,6.81-.95,6.86-7.04.08-9.4-.58-10.05-10.2-10.06-1.33,0-2.66-.01-3.99,0-5.56.09-7.05,1.43-7.67,6.87-.91,7.97,1.05,10.2,9.01,10.24.66,0,1.33,0,1.99,0Z" style="fill: #fff; stroke-width: 0px;"/>
      <path d="m147,138.1c5.17,0,10.34.17,15.5-.06,3.61-.16,3.54,1.96,3.52,4.46-.01,2.48.11,4.39-3.49,4.52-10.69.4-10.68.57-10.68,11.19,0,2.17,0,4.33,0,6.5,0,5.86-3.52,8.2-9.14,6.21-2.03-.72-1.59-2.31-1.6-3.7-.06-5.33-.17-10.67.03-16,.12-3.19-.83-4.7-4.2-4.32-1.65.18-3.36-.18-4.99.07-4.55.69-5.24-1.67-5.03-5.49.15-2.62,1.03-3.49,3.58-3.43,5.5.13,11,.04,16.5.04Z" style="fill: #fff; stroke-width: 0px;"/>
      <path d="m276.92,159.1c-2.15,0-4.34-.27-6.45.06-4.9.75-5.82-1.63-5.63-5.91.13-3.08.76-4.51,4.17-4.36,5.45.24,10.93.24,16.38,0,4.02-.17,3.61,2.39,3.53,4.89-.08,2.49.9,5.65-3.57,5.34-2.8-.19-5.63-.04-8.44-.03Z" style="fill: #fff; stroke-width: 0px;"/>
      <path d="m67.02,62.44c.09-2.76,1.81-5.19,5.6-5.31,3.73-.12,5.86,2.16,6.23,5.76.33,3.2-3.05,6.77-6.06,6.72-3.34-.06-5.66-2.57-5.78-7.18Z" style="fill: #fff; stroke-width: 0px;"/>
      <path d="m145.87,72.16c.29-3.42,1.86-5.96,5.73-6.04,3.83-.08,5.69,2.4,6.14,5.9.39,3.05-3.07,6.88-6.12,6.67-3.76-.26-5.4-2.8-5.75-6.54Z" style="fill: #fff; stroke-width: 0px;"/>
      <path d="m212.24,66.07c4.19.14,6.23,2.44,6.27,5.93.04,3.65-2.03,6.31-5.89,6.71-3.25.33-5.76-2.83-5.69-6.62.07-3.75,1.89-5.8,5.31-6.02Z" style="fill: #fff; stroke-width: 0px;"/>
      <path d="m115.95,72.24c.07,2.95-3.35,6.71-6.31,6.46-3.64-.32-5.58-2.71-5.66-6.3-.08-3.66,1.87-5.95,5.54-6.27,3.4-.29,6.35,2.69,6.44,6.11Z" style="fill: #fff; stroke-width: 0px;"/>
      <path d="m334.12,66.95c4.04-.31,5.79,1.98,5.86,5.94.07,4.04-2.65,5.82-5.98,5.8-3.6-.02-6.15-1.98-6.06-6.26.08-4.07,2.18-5.6,6.19-5.49Z" style="fill: #fff; stroke-width: 0px;"/>
    </g>
  </g>
</svg>