<?xml version="1.0" encoding="UTF-8"?>
<svg id="Calque_2" data-name="Calque 2" xmlns="http://www.w3.org/2000/svg" viewBox="0 0 259.7 240.17">
  <g id="Calque_1-2" data-name="Calque 1">
    <g>
      <path d="m9.42,135.09c.03-.39.07-.78.07-1.17,0-36.03,0-72.06,0-108.09,0-.45-.05-.91-.08-1.36.01-5.1.02-10.2.03-15.29.86-4.37,3.1-7.55,7.56-8.84C18.22-.01,19.46.02,20.7.02c69.42.01,138.84.03,208.26.04,2.61,0,5.24.11,7.84-.05,5.23-.32,10.37,4.36,10.33,10.35-.1,19.54-.03,39.08-.03,58.62,0,30.91,0,61.83.02,92.74,0,2.96-.43,5.72-2.53,7.98-1.66,1.78-3.62,3.02-6.13,3.04-.98,0-1.19.39-1.18,1.28.05,3.99.09,7.97.03,11.96-.02,1.23.52,1.49,1.5,1.3,1.79-.35,2.64.56,3.46,2.04,5.43,9.74,10.95,19.43,16.47,29.11.6,1.06.91,2.11.9,3.33-.02,6.01.02,12.02.04,18.04-.71.52-1.52.27-2.28.27-84.93.02-169.86.02-254.79.08-1.88,0-2.78-.38-2.61-2.33.03-5.16.13-10.33.07-15.49-.03-1.92.61-3.51,1.46-5.14,4.75-9.11,9.44-18.26,14.19-27.37.59-1.13,1.04-2.5,2.71-2.66.78-.07.67-.85.67-1.42,0-3.92,0-7.84-.03-11.77,0-.56.14-1.16-.8-1.23-4.91-.39-7.48-3.45-8.81-7.87-.02-9.94-.04-19.88-.06-29.82Zm30.62,10.39c-8.8-.02-17.6-.03-26.4-.09-.92,0-1.08.36-1.07,1.15.03,5.74-.04,11.48.06,17.21.07,3.63,4.25,6.8,7.34,5.67.71.04,1.43.13,2.14.13,9.28,0,18.57,0,27.85,0,62.23,0,124.47.01,186.7.01,4.87,0,7.38-2.47,7.41-7.29.02-3.79,0-7.58,0-11.37q0-5.9-5.96-5.42c-.85-.03-1.7-.09-2.54-.09-58.51,0-117.02-.02-175.53-.01-6.01,0-12.02.05-18.04.08-.65,0-1.31.02-1.96.02Zm197.9,43.31c-.48-.62-1.17-.47-1.81-.47-7.71,0-15.42-.03-23.13-.02-62.92.01-125.83.02-188.75.06-1.4,0-2.82-.39-4.21.1-1.37,2.11-2.46,4.37-3.49,6.67-4.35,7.86-8.44,15.84-12.41,23.9-.21.85-.92,1.53-.82,2.48-.05,3,.03,6.01-.2,9-.15,1.97.54,2.58,2.36,2.27.25-.04.52,0,.78,0,82.75,0,165.51,0,248.26.01.39,0,.78-.01,1.18,0,.55.02.88-.18.85-.78-.17-3.82.37-7.66-.3-11.47-4.64-8.19-9.28-16.39-13.93-24.58-.12-.21-.39-.33-.59-.48-.83-2.48-2.49-4.47-3.8-6.68ZM147.53,3.05c-.65-.03-1.3-.08-1.95-.08-30.86,0-61.71,0-92.57,0-10.72,0-21.44.03-32.16.01-3.41,0-6.05,1.18-7.6,4.38-.74,1.54-.66,3.17-.66,4.8,0,39.35,0,78.7,0,118.04,0,2.88.05,5.75-.01,8.63-.02,1.08.25,1.49,1.39,1.43,2.28-.11,4.57-.08,6.86-.11,1.18,0,2.37,0,3.55,0,.65,0,1.29,0,1.94,0,.27,0,.54,0,.81,0,.25,0,.51,0,.76,0,.66,0,1.32,0,1.99,0,6.4,0,12.8-.01,19.19-.02.13,0,.27,0,.4,0,.92,0,1.84,0,2.77,0,10.45,0,20.9,0,31.35,0,2.1,0,4.2,0,6.3,0,.65,0,1.29,0,1.94,0,1.32,0,2.63,0,3.95,0,2.08,0,4.17,0,6.25,0,1.19,0,2.37,0,3.56,0,1.56,0,3.12,0,4.68,0,1.89.03,3.77.08,5.66.08,11.33-.02,22.66-.05,33.99-.07,1.3,0,2.6,0,3.9,0,.92,0,1.85,0,2.77,0,2.22,0,4.43,0,6.65,0,.4,0,.8,0,1.2,0,4.05,0,8.09,0,12.14,0,6.29,0,12.57,0,18.86,0,13.59,0,27.18,0,40.77,0,.4,0,.8,0,1.2,0l.19.05s.18-.06.18-.06c.13,0,.26,0,.39.01,1.24.03,2.49-.04,3.72.11,1.78.21,2.26-.41,2.26-2.22-.06-27.37-.04-54.75-.04-82.12,0-14.96,0-29.92,0-44.88,0-2.35-.4-4.53-2.43-6.06-1.8-2.07-4.19-2.06-6.63-1.87-12.94-.02-25.87-.04-38.81-.07h-.81c-3.52,0-7.04.01-10.57.02-5.97,0-11.95,0-17.92,0-6.46,0-12.91,0-19.37.01Zm-19.8,183.03c34.58,0,69.16,0,103.74,0,.59,0,1.18,0,1.76-.02.5-.01.83-.19,1-.74.6-1.94-.19-3.24-2.1-3.65-.95-.2-1.85-.62-2.75-1-1.03-.43-1.62-1.06-.94-2.27.62-1.1-.02-1.39-1.01-1.37-.46,0-.92,0-1.37,0-67.2,0-134.4,0-201.6,0-.33,0-.66.03-.98,0-1.1-.1-1.51.39-1.49,1.49.05,2.16.05,4.31,0,6.47-.02.93.22,1.13,1.2,1.13,34.84-.04,69.68-.03,104.53-.04Z" style="fill: #262029; stroke-width: 0px;"/>
      <path d="m9.42,135.09c.02,9.94.04,19.88.06,29.82-.54-.44-.42-1.06-.42-1.63,0-8.91,0-17.82,0-26.73,0-.51-.07-1.05.36-1.46Z" style="fill: #f9f3e4; stroke-width: 0px;"/>
      <path d="m9.45,9.17c-.01,5.1-.02,10.2-.03,15.29-.48-.47-.36-1.08-.36-1.65,0-4,0-8.01,0-12.01,0-.57-.12-1.18.39-1.63Z" style="fill: #f9f3e4; stroke-width: 0px;"/>
      <path d="m238.14,140.14c-.13,0-.26,0-.39-.01-.13-.17-.25-.16-.37.01-.4,0-.8,0-1.2,0-.55-.51-1.23-.34-1.87-.34-12.35,0-24.69,0-37.04,0-.64,0-1.32-.17-1.87.34-6.29,0-12.57,0-18.86,0-2.61-.78-5.29-.23-7.93-.31-1.39-.04-2.86-.43-4.21.31-.4,0-.8,0-1.2,0-2.21-.58-4.43-.58-6.65,0-.92,0-1.85,0-2.77,0-1.3-.56-2.6-.55-3.9,0-11.33.03-22.66.06-33.99.07-1.89,0-3.77-.05-5.66-.08-1.56-.53-3.12-.53-4.68,0-1.19,0-2.37,0-3.56,0-2.08-.55-4.17-.55-6.25,0-1.32,0-2.63,0-3.95,0-.64-.5-1.29-.5-1.94,0-2.1,0-4.2,0-6.3,0-.49-.46-1.1-.34-1.67-.34-9.33,0-18.67,0-28,0-.58,0-1.19-.12-1.68.33h-2.77c.96-1.73,1.96-3.41,1.6-5.56-.16-.94-.02-1.92-.03-2.89,0-.6.02-1.18.79-1.32,13.59,0,27.18.09,40.76-.05,2.99-.03,5.56-2.29,8.64-2.45.84-.05,1.69-.13,2.53-.13,28.11,0,56.22,0,84.33.01,4.85,0,7.69-2.72,7.7-7.38,0-33.47.01-66.93,0-100.4,0-4.91-2.71-7.58-7.67-7.59-6.86-.01-13.73.02-20.59,0-10.46-.02-20.91-.07-31.37-.11-.64-1,.1-1.3.79-1.74,1.76-1.15,3.68-2.1,5.1-3.72.97-.17,1.7-.82,2.5-1.32.99-.62,1.62-1.83,3-1.79,5.68,0,11.37.01,17.05,0,.81,0,1.74.28,2.31-.65,5.97,0,11.95,0,17.92,0,.14.54.53.66,1.03.66,2.84,0,5.68,0,8.52,0,.5,0,.89-.14,1.02-.68h.81c.25.91,1,.67,1.61.68,11.84,0,23.69,0,35.53,0,.61,0,1.35.25,1.67-.61,2.44-.18,4.83-.2,6.63,1.87-1.11.62-2.3.19-3.45.25-.79.04-1.01.2-.75,1.04.57,1.81.7,3.69.7,5.59.02,9.66-.28,19.32-.31,28.97-.05,17.37-.16,34.73.22,52.1.34,15.74.09,31.49.09,47.23Zm-32.56-32.15c.38.48.92.42,1.44.42,8.17,0,16.34,0,24.5,0,.59,0,1.19.06,1.6-.51,1.24-.43,1.62-1.33,1.59-2.58-.05-2.08,0-4.17-.02-6.26-.02-2.28-.59-2.85-2.87-2.86-8.47-.02-16.95-.02-25.42-.01-2.09,0-2.55.49-2.56,2.63,0,2.15.09,4.3.04,6.45-.03,1.33.38,2.28,1.7,2.7Zm29.21-90.17c-.27-1.19-.99-1.74-2.23-1.74-8.87.02-17.75.02-26.62.03-1.34,0-2.09.66-2.11,2.01-.03,2.8-.02,5.61,0,8.41,0,1.33.62,1.93,2.05,1.92,8.87-.04,17.75-.03,26.62,0,1.23,0,1.98-.47,2.3-1.64,1.07-1.86.88-3.73,0-5.59,0-.45,0-.9,0-1.34.74-.69.99-1.38-.01-2.06Zm-30.85,44.98s0,0,0,0c0,9.15.01,18.3-.01,27.44,0,1.54.14,2.57,2.18,2.55,8.69-.1,17.38-.07,26.07-.04,1.86,0,2.55-.79,2.55-2.6-.03-18.3-.01-36.59-.02-54.89,0-2.47-.51-2.94-3.02-2.94-8.23,0-16.47.01-24.7.02-2.71,0-3.03.31-3.03,3.02,0,9.15,0,18.3,0,27.44Z" style="fill: #e3d6ba; stroke-width: 0px;"/>
      <path d="m256.26,220.52c.68,3.81.14,7.65.3,11.47.03.6-.3.8-.85.78-.39-.01-.78,0-1.18,0-82.75,0-165.51,0-248.26-.01-.26,0-.53-.04-.78,0-1.83.32-2.51-.3-2.36-2.27.23-2.99.15-6,.2-9,.72-.02,1.44-.06,2.16-.07,32.31-.53,64.64,1.08,96.94-.84,1.03.12,2.06.35,3.1.35,49.57.02,99.15.03,148.72.02.69,0,1.46.22,2.02-.44Z" style="fill: #dac8aa; stroke-width: 0px;"/>
      <path d="m256.26,220.52c-.56.66-1.33.44-2.02.44-49.57,0-99.15,0-148.72-.02-1.03,0-2.06-.23-3.1-.35-.04-1.02,1.4-.59,1.52-1.57H4.15c3.97-8.05,8.07-16.04,12.41-23.9,1.96.75,4,.2,6,.36.83.06,1.74-.16,2.21.84-.67,1.19-1.22,2.47-2.03,3.55-2.42,3.23-3.32,6.78-3.15,10.82.08,2.05.57,2.52,2.58,2.52,47.32-.06,94.64-.05,141.97-.06,1.05,0,2.09.02,3.14,0,.42,0,1.06.14,1.02-.56-.21-3.15.74-6.43-1.06-9.39-1.49-2.45-2.98-4.89-4.47-7.34,2.4,0,4.79.06,7.18-.01,2.57-.08,5.18.38,7.72-.36,1.39,2.43,2.85,4.82,4.13,7.3.73,1.4,1.65,1.87,3.23,1.86,12.8-.07,25.59-.04,38.39-.05,2.27,0,4.53,0,6.97,0-1.38-3.23-3.47-5.84-4.96-8.77,4.75,0,9.49.01,14.24.03.73,0,1.43-.06,2.07-.42.2.16.47.28.59.48,4.65,8.19,9.29,16.38,13.93,24.58Z" style="fill: #fbeed3; stroke-width: 0px;"/>
      <path d="m51.82,130.36c-.77.13-.79.72-.79,1.32,0,.96-.13,1.95.03,2.89.37,2.14-.64,3.83-1.6,5.56-.13,0-.27,0-.4,0-.36-.36-.82-.34-1.28-.34-5.55,0-11.09,0-16.64,0-.46,0-.92-.01-1.27.36-.66,0-1.32,0-1.99,0-.25-.36-.51-.36-.76,0-.27,0-.54,0-.81,0-.65-.52-1.29-.52-1.94,0-1.18,0-2.37,0-3.55,0-.35-.38-.82-.34-1.28-.36q-3.03-.13-3.03-3.26c0-41.63,0-83.27,0-124.9,0-3.71,1.48-5.2,5.23-5.2,39.42,0,78.83,0,118.25,0,.69,0,1.45-.22,2.05.37-1.42,1.62-3.33,2.57-5.1,3.72-.69.45-1.43.75-.79,1.74-.26,0-.53,0-.79,0-.49-.47-1.1-.34-1.68-.34-9.35,0-18.69,0-28.04,0-.57,0-1.19-.13-1.65.39-4.42.02-8.85.07-13.27.06-7.74-.01-15.49-.05-23.23-.08-.41-.44-.95-.37-1.46-.37-10.18,0-20.36,0-30.54,0-.62,0-1.35-.18-1.67.64-2.43.74-4.04,2.33-4.89,4.71-.85.51-.65,1.36-.65,2.11,0,33.61,0,67.21,0,100.82,0,.69-.2,1.46.51,1.98.84,2.76,2.52,4.7,5.37,5.48.11.17.24.21.39.04.26.03.53.06.79.09.22.65.78.6,1.3.6,4.5,0,9.01,0,13.51,0,.53,0,1.07.03,1.27-.64.39,0,.79,0,1.18,0,.27,1.02-.68,1.68-.78,2.59Z" style="fill: #f5e8ca; stroke-width: 0px;"/>
      <path d="m42,145.45c6.01-.03,12.02-.08,18.04-.08,58.51,0,117.02,0,175.53.01.85,0,1.7.06,2.54.09.01,5.42.07,10.85.03,16.27-.03,4.15-2.55,6.35-6.73,5.79-1.63-.22-3.25-.26-4.88-.25-20.78.08-41.56-.27-62.33.29-4.56.12-9.14-.25-13.7-.25-35.55.04-71.1-.36-106.65.2-5.47.09-10.96-.19-16.44-.28-1.44-.02-2.83.64-4.27.18.3-1.87,2.18-2.29,3.26-3.45,1.38-1.49,3.25-1.93,5.34-1.86,4.04.12,8.09.04,12.14.02.7,0,1.45.21,2.06-.36.65-.04,1.3-.11,1.95-.12,30.61-.33,61.23-.14,91.84-.09,3.13,0,6.26.12,9.39.19.46.5,1.07.38,1.63.38,2.97,0,5.94,0,8.91,0,.57,0,1.18.13,1.61-.42.82-1.46-.34-1.28-1.12-1.29-4.47-.07-8.94-.11-13.4-.16-.14-1.25.39-1.71,1.67-1.69,3.69.06,7.38.03,11.07,0,.66,0,1.49.29,1.8-.68.62-.41.28-.79-.04-1.16-1.51-1.1-3.06-2.05-5.06-1.66,0-.27,0-.54,0-.82,1.44,0,2.88-.02,4.33-.03.28.37.52.4.73-.06.69-1.46-.51-1.26-1.22-1.28-3.67-.08-7.35-.09-11.02-.13.79-.88,1.74-1.22,2.94-1.25,2-.04,4-.25,6-.37.51-.03.88-.18,1.01-.72.26,0,.52,0,.77,0,.54.45,1.06.46,1.57-.06.12-.13.23-.26.35-.4.09-.13.19-.26.28-.4-.09.03-.17.05-.26.08-.63-.89-1.56-.5-2.35-.5-33.67,0-67.34.02-101.01.03-6.34,0-12.68-.06-19.02-.1.47-1.54,2.43-1.97,2.74-3.63Zm160.83,16.26c8.37,0,16.74,0,25.1,0,2.2,0,2.69-.49,2.7-2.6.02-2.48-.02-4.97.01-7.45.02-1.59-.6-2.44-2.3-2.44-16.87,0-33.73-.03-50.6-.07-1.66,0-2.38.78-2.37,2.39.02,2.48.01,4.97.02,7.45.01,2.37.36,2.72,2.72,2.72,8.24,0,16.47,0,24.71,0Z" style="fill: #e3d6ba; stroke-width: 0px;"/>
      <path d="m127.73,186.08c-34.84,0-69.68,0-104.53.04-.99,0-1.23-.21-1.2-1.13.05-2.16.05-4.31,0-6.47-.03-1.09.38-1.59,1.49-1.49.32.03.65,0,.98,0,67.2,0,134.4,0,201.6,0,.46,0,.92.01,1.37,0,.98-.01,1.63.27,1.01,1.37-.68,1.21-.09,1.84.94,2.27.9.38,1.8.8,2.75,1,1.91.4,2.69,1.7,2.1,3.65-.17.54-.5.73-1,.74-.59.01-1.18.02-1.76.02-34.58,0-69.16,0-103.74,0Z" style="fill: #474950; stroke-width: 0px;"/>
      <path d="m142.04,6.8c-.6-.58-1.36-.37-2.05-.37-39.42-.01-78.83-.01-118.25,0-3.75,0-5.23,1.49-5.23,5.2,0,41.63,0,83.27,0,124.9q0,3.12,3.03,3.26c.46.02.92-.02,1.28.36-2.29.03-4.58,0-6.86.11-1.14.06-1.42-.35-1.39-1.43.07-2.87.01-5.75.01-8.63,0-39.35,0-78.7,0-118.04,0-1.63-.09-3.26.66-4.8,1.55-3.19,4.19-4.38,7.6-4.38,10.72.02,21.44-.01,32.16-.01,30.86,0,61.71,0,92.57,0,.65,0,1.3.06,1.95.08,0,.21,0,.43.01.64-1.39-.04-2.02,1.17-3,1.79-.79.5-1.52,1.15-2.5,1.32Z" style="fill: #f9f3e4; stroke-width: 0px;"/>
      <path d="m24.77,196.32c-.47-1-1.38-.77-2.21-.84-2-.16-4.04.39-6-.36,1.03-2.29,2.12-4.55,3.49-6.67.81.66,1.76.35,2.64.35,45.74.02,91.48.02,137.22.01,26.01,0,52.01-.02,78.02-.04,1.31,2.2,2.97,4.2,3.8,6.68-.65.36-1.35.42-2.07.42-4.75-.02-9.49-.02-14.24-.03-.9-1.21-1.5-2.5-3.53-2.49-14.27.08-28.54-.01-42.82-.04-2.43,0-2.43.02-1.41,2.18-2.54.73-5.14.28-7.72.36-2.39.07-4.79.01-7.18.01-1.33-2.39-2.92-4.33-6.09-3.72-2.37.46-5.18-1.13-7.26,1.83-.26-1.85-1.52-1.75-2.72-1.76-1.96,0-3.92.03-5.88,0-1.35-.02-2.42.22-2.33,2.44-.87-2.1-2.14-2.61-3.77-2.54-1.7.07-3.4.09-5.09.07-1.05-.02-1.83.37-2.41,1.23-.73-.58-1.32-1.33-2.45-1.27-2.09.1-4.18.07-6.27.07-1.11,0-1.99.31-2.13,2.21-.78-1.51-1.36-2.34-2.61-2.31-2.09.05-4.18.04-6.27-.03-1.14-.04-2.01,1.45-2.28,1.27-.85-.56-1.52-1.26-2.68-1.23-1.76.05-3.53,0-5.29-.02-1.39-.02-2.76,0-3.25,2.02-.72-1.84-1.99-2.09-3.45-2.04-1.83.06-3.66.1-5.49.01-1.15-.06-1.64.79-2.37,1.34-.6-.83-1.33-1.31-2.43-1.27-1.96.07-3.92,0-5.88.02-1.12,0-2.22.12-2.7,1.4-2.11-2.15-9.19-2.15-11.33-.09-1.57-1.97-9.32-1.97-11.15,0-1.76-2.06-9.49-2.05-11.53.14-.45-.97-1.16-1.48-2.26-1.38-.91.08-1.84.09-2.74-.04-3.61-.49-6.54.25-7.88,4.09Z" style="fill: #e3d6ba; stroke-width: 0px;"/>
      <path d="m238.14,140.14c0-15.74.25-31.49-.09-47.23-.37-17.37-.27-34.74-.22-52.1.03-9.66.33-19.31.31-28.97,0-1.9-.13-3.78-.7-5.59-.26-.84-.04-1,.75-1.04,1.15-.06,2.34.37,3.45-.25,2.03,1.53,2.43,3.71,2.43,6.06,0,14.96,0,29.92,0,44.88,0,27.37-.02,54.75.04,82.12,0,1.81-.48,2.43-2.26,2.22-1.23-.15-2.48-.08-3.72-.11Z" style="fill: #b5a890; stroke-width: 0px;"/>
      <path d="m23.13,167.42c1.44.46,2.83-.21,4.27-.18,5.48.09,10.98.37,16.44.28,35.55-.56,71.1-.15,106.65-.2,4.56,0,9.13.37,13.7.25,20.78-.55,41.56-.21,62.33-.29,1.63,0,3.25.03,4.88.25,4.18.55,6.7-1.65,6.73-5.79.04-5.42-.01-10.85-.03-16.27q5.95-.48,5.96,5.42c0,3.79.03,7.58,0,11.37-.03,4.82-2.54,7.29-7.41,7.29-62.23,0-124.47,0-186.7-.01-9.28,0-18.57,0-27.85,0-.71,0-1.43-.08-2.14-.13.3-.75,1.12-.9,1.62-1.43.51-.19,1.03-.37,1.54-.56Z" style="fill: #b5a890; stroke-width: 0px;"/>
      <path d="m23.13,167.42c-.51.19-1.03.37-1.54.56-.31-.8-1.16-.85-1.77-1.1-2.48-1.03-3.43-2.71-3.38-5.46.07-4.55.46-9.13-.3-13.67-.25-1.46.56-1.72,1.83-1.72,6.66.04,13.32.03,19.98,0,.71,0,1.61.4,2.09-.57.65,0,1.31-.02,1.96-.02-.31,1.67-2.27,2.09-2.74,3.63-.26,0-.52.01-.78.02-1.44-.47-2.87-.47-4.3.01h-1.18c-.13-.17-.27-.15-.39.01-.52.02-1.06-.03-1.56.07-.83.17-2.34-.54-2.36.48-.03,1.38,1.57.37,2.35.77-.47,1.47-.01,2.05,1.59,1.93.9-.07,1.92-.38,2.74.39-1.89.04-3.78.07-5.68.11-.52.01-1.23-.05-1.27.59-.06.87.78.71,1.3.72,2.09.06,4.17.07,6.26.1-.02,1.12.87.84,1.4.77,1.27-.15,1.95.39,2.27,1.55-3.43.03-6.87.04-10.3.09-.34,0-.81-.18-.97.34-.18.58.18.82.67.94,0,.75-.01,1.51-.02,2.26-.38.25-.83.47-.59,1.05.27.65.88.44,1.36.44,5.38.02,10.75.03,16.13.04-.61.57-1.36.35-2.06.36-4.05.02-8.1.1-12.14-.02-2.09-.06-3.96.37-5.34,1.86-1.08,1.16-2.96,1.58-3.26,3.45Z" style="fill: #f5e8ca; stroke-width: 0px;"/>
      <path d="m4.15,219.01h99.8c-.13.98-1.56.55-1.52,1.57-32.3,1.92-64.63.3-96.94.84-.72.01-1.44.05-2.16.07-.1-.95.61-1.63.82-2.48Z" style="fill: #f9f3e4; stroke-width: 0px;"/>
      <path d="m40.04,145.47c-.48.97-1.38.56-2.09.57-6.66.03-13.32.04-19.98,0-1.27,0-2.08.26-1.83,1.72.77,4.54.37,9.12.3,13.67-.04,2.75.9,4.43,3.38,5.46.61.25,1.45.31,1.77,1.1-.49.53-1.32.68-1.62,1.43-3.09,1.13-7.28-2.04-7.34-5.67-.1-5.74-.03-11.47-.06-17.21,0-.79.16-1.15,1.07-1.15,8.8.06,17.6.07,26.4.09Z" style="fill: #f9f3e4; stroke-width: 0px;"/>
      <path d="m237.94,188.78c-26.01.01-52.01.03-78.02.04-45.74,0-91.48,0-137.22-.01-.88,0-1.84.31-2.64-.35,1.39-.49,2.81-.1,4.21-.1,62.92-.04,125.83-.05,188.75-.06,7.71,0,15.42.01,23.13.02.64,0,1.32-.15,1.81.47Z" style="fill: #f4e9d5; stroke-width: 0px;"/>
      <path d="m235,3.08c-.32.85-1.07.6-1.67.61-11.84.01-23.69.01-35.53,0-.61,0-1.36.23-1.61-.68,12.94.02,25.87.04,38.81.07Z" style="fill: #f4e9d5; stroke-width: 0px;"/>
      <path d="m195.41,140.14c.55-.52,1.23-.34,1.87-.34,12.35,0,24.69,0,37.04,0,.64,0,1.32-.17,1.87.34-13.59,0-27.18,0-40.77,0Z" style="fill: #f5e8ca; stroke-width: 0px;"/>
      <path d="m147.54,3.69c0-.21,0-.43-.01-.64,6.46,0,12.91,0,19.37-.01-.57.92-1.5.64-2.31.65-5.68.02-11.37,0-17.05,0Z" style="fill: #f4e9d5; stroke-width: 0px;"/>
      <path d="m52.22,140.13c.49-.45,1.1-.33,1.68-.33,9.33,0,18.67,0,28,0,.57,0,1.19-.13,1.67.34-10.45,0-20.9,0-31.35,0Z" style="fill: #f5e8ca; stroke-width: 0px;"/>
      <path d="m195.38,3.01c-.13.54-.52.68-1.02.68-2.84,0-5.68,0-8.52,0-.5,0-.89-.12-1.03-.66,3.52,0,7.04-.01,10.57-.02Z" style="fill: #f4e9d5; stroke-width: 0px;"/>
      <path d="m29.86,140.15c.35-.37.82-.36,1.27-.36,5.55,0,11.09,0,16.64,0,.46,0,.92-.02,1.28.34-6.4,0-12.8.01-19.19.02Z" style="fill: #f9f3e4; stroke-width: 0px;"/>
      <path d="m164.42,140.14c1.35-.74,2.82-.36,4.21-.31,2.64.08,5.32-.47,7.93.31-4.05,0-8.09,0-12.14,0Z" style="fill: #f5e8ca; stroke-width: 0px;"/>
      <path d="m156.57,140.14c2.22-.58,4.43-.58,6.65,0-2.22,0-4.43,0-6.65,0Z" style="fill: #f5e8ca; stroke-width: 0px;"/>
      <path d="m95.77,140.14c2.08-.55,4.17-.55,6.25,0-2.08,0-4.17,0-6.25,0Z" style="fill: #f5e8ca; stroke-width: 0px;"/>
      <path d="m105.57,140.13c1.56-.54,3.12-.53,4.68,0-1.56,0-3.12,0-4.68,0Z" style="fill: #f5e8ca; stroke-width: 0px;"/>
      <path d="m149.9,140.14c1.3-.54,2.6-.55,3.9,0-1.3,0-2.6,0-3.9,0Z" style="fill: #f5e8ca; stroke-width: 0px;"/>
      <path d="m24.37,140.15c.65-.52,1.29-.52,1.94,0-.65,0-1.29,0-1.94,0Z" style="fill: #f9f3e4; stroke-width: 0px;"/>
      <path d="m89.88,140.14c.65-.49,1.29-.5,1.94,0-.65,0-1.29,0-1.94,0Z" style="fill: #f5e8ca; stroke-width: 0px;"/>
      <path d="m27.11,140.15c.25-.36.51-.36.76,0-.25,0-.51,0-.76,0Z" style="fill: #f9f3e4; stroke-width: 0px;"/>
      <path d="m237.38,140.14c.12-.17.24-.18.37-.01l-.18.06-.19-.05Z" style="fill: #f5e8ca; stroke-width: 0px;"/>
      <path d="m35.34,127.82c-.26-.03-.53-.06-.79-.09-.13-.01-.26-.03-.39-.04-2.85-.79-4.53-2.73-5.37-5.48-.02-.98-.07-1.96-.07-2.93-.01-33.09-.02-66.17-.01-99.26,0-.91.14-1.81.22-2.72.85-2.38,2.45-3.98,4.89-4.71,1.15-.29,2.33-.24,3.51-.24,10.06-.01,20.12-.02,30.17-.04,7.74.03,15.49.07,23.23.08,4.42,0,8.85-.04,13.27-.06,10.45-.02,20.91-.03,31.36-.05.26,0,.53,0,.79,0,10.46.04,20.91.08,31.37.11,6.86.02,13.73-.01,20.59,0,4.96,0,7.67,2.68,7.67,7.59,0,33.47,0,66.93,0,100.4,0,4.66-2.84,7.38-7.7,7.38-28.11,0-56.22-.01-84.33-.01-.84,0-1.69.09-2.53.13-4.83-.06-9.67-.16-14.5-.16-11.37,0-22.74.05-34.12.07-.39,0-.79,0-1.18,0-5.36.01-10.72.03-16.08.04ZM132.21,13.93c-1.31-.01-2.61-.04-3.92-.04-30.26-.01-60.53-.02-90.79-.03-5.37,0-7.24,1.82-7.24,7.13,0,32.55,0,65.1.02,97.64,0,.97.11,1.95.27,2.91.5,2.99,2.32,4.54,5.37,4.56,20.26.11,40.51.21,60.77.3.85,0,1.69-.09,2.54-.13.71.05,1.43.14,2.14.14,28.49.01,56.98.01,85.47.02,5.27,0,7.4-2.09,7.37-7.31-.1-17.43.18-34.87-.26-52.3-.11-4.28.22-8.6.28-12.9.03-1.94-.15-3.87-.11-5.82.18-9.6.13-19.21.05-28.81-.03-3.16-2.35-5.28-5.54-5.39-1.04-.03-2.08.12-3.12.1-17.77-.27-35.54-.09-53.31-.07Z" style="fill: #262029; stroke-width: 0px;"/>
      <path d="m203.95,62.79c0-9.15,0-18.3,0-27.44,0-2.71.32-3.02,3.03-3.02,8.23,0,16.47-.02,24.7-.02,2.51,0,3.02.47,3.02,2.94.01,18.3,0,36.59.02,54.89,0,1.81-.68,2.61-2.55,2.6-8.69-.04-17.38-.06-26.07.04-2.04.02-2.18-1.01-2.18-2.55.03-9.15.01-18.3.01-27.44,0,0,0,0,0,0Zm29.18-.29c0-8.82-.05-17.64.04-26.46.02-1.84-.56-2.31-2.32-2.29-7.77.09-15.55.11-23.33.03-1.72-.02-2.02.59-2.02,2.13.05,17.77.05,35.54,0,53.31,0,1.66.52,2.08,2.12,2.07,7.77-.07,15.55-.08,23.33.01,1.7.02,2.24-.38,2.22-2.15-.09-8.88-.04-17.77-.04-26.66Z" style="fill: #262029; stroke-width: 0px;"/>
      <path d="m234.81,19.87c0,.45,0,.9,0,1.34,0,1.86,0,3.73,0,5.59-.32,1.17-1.07,1.64-2.3,1.64-8.87-.03-17.75-.04-26.62,0-1.43,0-2.04-.6-2.05-1.92-.02-2.8-.02-5.61,0-8.41.01-1.35.76-2.01,2.11-2.01,8.87,0,17.75,0,26.62-.03,1.23,0,1.96.55,2.23,1.74,0,.69,0,1.37.01,2.06Zm-11.06,3.13c1.89-.03,3.77-.08,5.66-.08,4.01-.01,3.98,0,3.67-3.98-.08-1.07-.52-1.53-1.57-1.51-2.66.04-5.33.07-7.99.1-5.46-.03-10.92-.03-16.38-.09-1.31-.02-1.73.54-1.65,1.76.08,1.23.08,2.47.11,3.7-.01.39-.03.78-.03,1.17q-.02,2.76,2.79,2.76c3.77,0,7.55,0,11.32,0q3.9,0,4.08-3.81Z" style="fill: #262029; stroke-width: 0px;"/>
      <path d="m205.59,107.98c-1.32-.43-1.73-1.37-1.7-2.7.05-2.15-.05-4.3-.04-6.45,0-2.15.47-2.63,2.56-2.63,8.47,0,16.95,0,25.42.01,2.28,0,2.84.58,2.87,2.86.02,2.09-.03,4.17.02,6.26.03,1.25-.35,2.15-1.59,2.58-9.18.03-18.36.06-27.54.09Zm19.99-2.02c1.49.03,2.99.1,4.48.09,3.1-.01,3.1-.03,2.92-3.22.03-1.24.03-2.48.1-3.72.06-1.05-.31-1.6-1.42-1.59-8.3.03-16.6.06-24.9.07-.79,0-1.22.27-1.21,1.13.04,2.09.05,4.18.05,6.27,0,.83.36,1.18,1.17,1.17,6.27-.07,12.54-.14,18.81-.21Z" style="fill: #262029; stroke-width: 0px;"/>
      <path d="m52.6,127.78c11.37-.03,22.74-.08,34.12-.07,4.83,0,9.67.1,14.5.16-3.08.16-5.65,2.42-8.64,2.45-13.59.14-27.18.06-40.76.05.1-.91,1.05-1.56.78-2.59Z" style="fill: #fbeed3; stroke-width: 0px;"/>
      <path d="m205.59,107.98c9.18-.03,18.36-.06,27.54-.09-.41.57-1.01.51-1.6.51-8.17,0-16.34,0-24.5,0-.52,0-1.06.06-1.44-.42Z" style="fill: #f4e9d5; stroke-width: 0px;"/>
      <path d="m234.81,26.81c0-1.86,0-3.73,0-5.59.88,1.86,1.07,3.73,0,5.59Z" style="fill: #f5e8ca; stroke-width: 0px;"/>
      <path d="m234.81,19.87c0-.69,0-1.37-.01-2.06,1.01.68.75,1.37.01,2.06Z" style="fill: #f5e8ca; stroke-width: 0px;"/>
      <path d="m24.77,196.32c1.34-3.84,4.27-4.58,7.88-4.09.9.12,1.83.12,2.74.04,1.11-.1,1.81.4,2.26,1.38,2.04-2.19,9.77-2.2,11.53-.14,1.83-1.97,9.58-1.97,11.15,0,2.15-2.06,9.22-2.06,11.33.09.49-1.28,1.58-1.4,2.7-1.4,1.96-.01,3.92.04,5.88-.02,1.1-.04,1.83.44,2.43,1.27.73-.54,1.22-1.39,2.37-1.34,1.82.09,3.66.05,5.49-.01,1.46-.05,2.73.2,3.45,2.04.49-2.02,1.85-2.04,3.25-2.02,1.76.02,3.53.07,5.29.02,1.16-.03,1.83.67,2.68,1.23.26.17,1.14-1.32,2.28-1.27,2.09.08,4.18.08,6.27.03,1.25-.03,1.83.8,2.61,2.31.14-1.9,1.02-2.21,2.13-2.21,2.09,0,4.18.03,6.27-.07,1.13-.05,1.72.69,2.45,1.27.58-.86,1.36-1.24,2.41-1.23,1.7.02,3.4,0,5.09-.07,1.63-.07,2.9.44,3.77,2.54-.09-2.22.98-2.46,2.33-2.44,1.96.03,3.92,0,5.88,0,1.2,0,2.46-.09,2.72,1.76,2.08-2.95,4.89-1.37,7.26-1.83,3.17-.61,4.77,1.34,6.09,3.72,1.49,2.45,2.98,4.89,4.47,7.34,1.8,2.96.85,6.25,1.06,9.39.05.7-.59.55-1.02.56-1.05.02-2.09,0-3.14,0-47.32,0-94.64,0-141.97.06-2.01,0-2.5-.47-2.58-2.52-.16-4.03.73-7.59,3.15-10.82.81-1.08,1.36-2.36,2.03-3.55Zm130.9,9.27c-.53-.79-.24-2.19-1.67-2.31-2.16-.17-4.33-.36-6.53-.18.2.88.38,1.69.56,2.49.76,5.57-.59,4.73,3.43,4.78,4.6.06,4.6.02,4.22-4.78Zm-32.44.12c.66-1.49.06-2.37-1.44-2.56-1.29-.16-2.6-.08-3.91-.06-2.51.02-2.56.12-1.67,2.53-.02,1.04.02,2.08-.06,3.11-.11,1.29.43,1.73,1.69,1.67,1.62-.08,3.24-.01,4.87-.02.52,0,1.21.02,1.2-.66-.02-1.36.64-2.87-.69-4.01Zm-80.34-.12c-.09.18-.21.34-.26.53-.94,3.51-.38,4.27,3.15,4.27q4.56,0,4.42-4.77c.84-2.19.71-2.43-1.53-2.56-.96-.05-1.94.08-2.89-.05-2.02-.27-2.82.72-2.89,2.58Zm10.58.02c-.11.23-.27.46-.32.7-.8,3.45-.31,4.07,3.17,4.07q4.79,0,4.43-4.81,1.08-2.55-1.61-2.56c-.84,0-1.68.09-2.51,0-2-.24-3.06.56-3.15,2.59Zm-13.84.04c.9-2.28.7-2.61-1.6-2.61-.9,0-1.82.11-2.71,0-1.99-.24-2.86.74-3.04,2.57-.08.18-.2.35-.24.53-.91,3.55-.4,4.23,3.17,4.24q4.51.01,4.43-4.74Zm65.97,0c0,1.17,0,2.35-.02,3.52-.01.79.28,1.22,1.13,1.22,1.89-.02,3.78,0,5.67-.01.49,0,1-.16.97-.73-.07-1.33.5-2.72-.39-3.97.25-1.62-.48-2.45-2.08-2.48-1.93-.03-3.86,0-5.89,0,.21.83.41,1.64.62,2.46Zm28.7.04c-.11-1.02-.03-2.16-1.48-2.34-2.29-.28-4.57-.38-6.96-.28.32.98.6,1.81.87,2.65q.12,4.66,4.79,4.66c.65,0,1.31-.01,1.96,0,.7,0,1.16-.29,1.11-1.03-.08-1.22.31-2.48-.29-3.66Zm3.11-.08c-.02.46-.05.91-.05,1.37.05,3.96-.46,3.37,3.45,3.4,4.79.03,4.79.01,4.27-4.79.12-1.86-.88-2.54-2.61-2.5-.98.02-1.96-.02-2.93-.01q-2.67,0-2.13,2.55Zm28.49-.01c-.46-.86-1.03-1.67-1.36-2.58-1.26-3.47-3.67-4.64-7.24-4.04-1.71.29-1.95.44-1.1,2,.84,1.53,1.95,2.93,2.35,4.68q-.04,4.72,4.64,4.73c3.38,0,3.76-.49,2.98-3.85-.07-.32-.18-.62-.27-.94Zm-136.54-.03c.22-1.68.9-3.26,2.35-4.05.84-.46,1.15-.65.88-1.55-.28-.94-.68-1.45-1.79-1.19-1.14.27-2.32.12-3.48-.04-.67-.09-1.37-.06-1.73.58-1.21,2.12-2.84,4.04-3.33,6.53-.84,4.35-.7,4.52,3.63,4.53.72,0,1.43,0,2.15-.01.62,0,1.03-.28.99-.93-.07-1.31.63-2.55.32-3.87Zm73.07-.27c-.03-1.62-.89-2.32-2.47-2.32-11.14.03-22.27.05-33.41.07-1.54,0-2.46.66-2.6,2.25-.62.82-.2,1.77-.35,2.65-.36,2.03.52,2.49,2.47,2.48,10.83-.09,21.65-.04,32.48-.03,4.79,0,5.06-.35,3.88-5.09Zm-59.72-7.9s0,.04,0,.07c.91,0,1.82,0,2.73,0,1.15,0,2.1-.21,1.98-1.72-.1-1.27-.48-2.06-2-1.88-1.16.14-2.34.02-3.51.05-1.08.02-3.09,1.87-2.82,2.85.35,1.27,1.63.4,2.46.63.36.1.78.02,1.17.02Zm-10.84-3.53c-1.48-.12-3.46-.06-4.49,2.26-.31.7-.3,1.26.55,1.15,2.36-.31,4.72.57,7.08-.17.65-.2.8-.46.85-1.03.17-1.99-.28-2.3-4-2.22Zm117.06,3.22c-.59-2.55-2.05-3.57-4.52-3.16-.76.13-1.56.1-2.33.01-1.55-.18-1.69.64-1.52,1.87.18,1.27,1.06,1.6,2.08,1.59,2.07-.04,4.13-.2,6.3-.31Zm-61.5.32c1.02.22,2.1-.1,3.19-.23,2.22-.27,2.32-.54,1.31-2.53-.35-.69-.8-.74-1.4-.74-1.24,0-2.48,0-3.71.01-1.43.02-2.55,1.25-2.33,2.76.2,1.34,1.37.46,2.06.71.23.08.52.01.88.01Zm-22.41.08s0,.05,0,.08c1.03-.07,2.08-.08,3.1-.23.82-.12,1.93.01,1.73-1.46-.17-1.22-.46-2.13-1.99-2-1.1.1-2.21,0-3.31.03-1.28.04-2.7,1.55-2.5,2.86.22,1.39,1.45.48,2.2.72.24.07.52.01.78.01Zm-10.04-3.57c-1.82-.09-3.75-.35-4.25,2.16-.09.43-.38,1.04.34,1.02,2.14-.06,4.23,1.09,6.46,0,.93-.46,1.1-.82,1.01-1.68-.09-.9-.42-1.49-1.41-1.5-.72,0-1.43,0-2.15,0Zm22.49,3.59c.73.08,1.42-.18,2.12-.2,1.95-.08,1.47-1.21,1.18-2.35-.19-.76-.63-1.05-1.41-1.03-1.3.04-2.61.1-3.91,0-1.96-.15-2.12,1.53-2.25,2.58-.16,1.24,1.26.51,1.94.73.73.23,1.54.2,2.32.28Zm-16.47,4.27s0-.08,0-.12c1.04,0,2.08-.06,3.1.02.95.08,1.39-.35,1.3-1.21-.08-.76.08-1.81-1.22-1.81-1.69,0-3.38-.15-5.05.01-1.36.13-1.97,1.44-1.96,2.53.01,1.14,1.23.4,1.89.54.62.13,1.29.03,1.94.03Zm39.09-7.86c-.94,0-1.53.05-2.11,0-1.36-.13-1.83.56-1.96,1.81-.13,1.28.62,1.54,1.6,1.71,1.96.34,3.83-.58,5.79-.37.76.08.39-.53.31-.97-.4-2.46-2.18-2.34-3.64-2.18Zm15.22,3.08c-.73-2.05-1.58-3.58-4.04-3.12-.69.13-1.44.07-2.15.02-1.15-.09-1.8.13-1.76,1.55.04,1.36.31,2.13,1.85,1.99,1.95-.18,3.9-.29,6.1-.44Zm10.91,0c-.47-2.45-1.8-3.44-4.15-3.05-.63.11-1.3.06-1.95.02-1.26-.06-1.7.48-1.68,1.75.03,1.32.63,1.72,1.82,1.65,1.95-.13,3.89-.24,5.96-.37Zm11.03-.07c-.45-2.36-1.76-3.3-4.02-2.98-.7.1-1.44.1-2.15.02-1.44-.17-1.76.44-1.63,1.79.17,1.83,1.54,1.57,2.61,1.57,1.68,0,3.37-.24,5.2-.39Zm-93.76,3.33c.06-.97-.21-1.62-1.4-1.58-1.5.04-3,.02-4.5-.02-.88-.02-1.52.36-1.94,1.08-.56.94-.77,1.69.83,1.69,1.75,0,3.49-.15,5.24.29.93.23,1.87-.12,1.77-1.46Zm112.84-3.2c.67,0,1.26.06,1.84-.01.73-.09,1.85.4,2.08-.39.22-.72-.72-1.43-1.22-2.08-.16-.21-.56-.34-.85-.35-1.82-.04-3.64-.03-5.45-.05-.52,0-.83.12-.9.73-.16,1.45.79,2.47,2.26,2.33.77-.07,1.55-.13,2.24-.18Zm-29.94,4.72c.99-.15,2.01.23,2.9-.34.45-.29,1.41.41,1.4-.62,0-1.02-.38-1.82-1.65-1.98-1.57-.19-3.12-.08-4.68-.03-1.09.03-1.23.59-1.24,1.5,0,.99.31,1.46,1.35,1.39.65-.04,1.3.05,1.92.08Zm-74-.33c.63-.03,1.76.67,1.75-.68,0-.69.53-1.83-.56-1.98-1.92-.27-3.91-.32-5.83.03-1.04.19-1.35,1.36-1.29,2.18.06.83,1.07.4,1.64.43,1.43.07,2.86.02,4.28.02Zm96.68-.07c.78,0,1.57.06,2.34-.02.51-.06,1.41.39,1.44-.43.03-.69-.19-1.59-1.04-1.95-.29-.12-.63-.19-.95-.2-1.5-.02-3,0-4.49-.01-1.24,0-1.52.81-1.5,1.82.03,1.16.85,1.12,1.67,1.04.84-.08,1.68-.16,2.53-.25Zm-14.34.29c1.87-.41,3.71-.15,5.53-.28.58-.04,1.56.43,1.65-.42.1-.87-.41-1.79-1.47-2.03-1.88-.42-3.78-.24-5.65,0-1.14.15-.77,1.34-.91,2.09-.12.66.43.67.85.63Zm-25.41-.2c-.75-1.31-.86-2.63-2.19-2.74-1.67-.14-3.38-.09-5.06.02-1.24.08-.93,1.26-1.07,1.99-.18.97.72.71,1.21.72,2.24.04,4.49.02,7.1.02Zm-40.81-.06c2.13,0,4.21.03,6.29-.02.54-.01,1.52.44,1.52-.61,0-.9-.02-2.04-1.51-2-1.11.03-2.22-.02-3.32-.15-2.03-.25-2.86.76-2.98,2.79Zm14.8-.05c.78,0,1.57.06,2.34-.02.49-.05,1.4.37,1.37-.51-.03-.77-.16-1.97-1.09-2.08-1.73-.21-3.52-.21-5.25-.02-1,.11-1.41,1.24-1.32,2.13.1.94,1.05.42,1.61.48.77.09,1.56.02,2.34.02Zm10.59.02c.78,0,1.56.06,2.33-.02.58-.06,1.54.41,1.64-.45.1-.85-.2-1.8-1.34-2.07-1.67-.4-3.36-.27-5.03-.14-1.16.09-1.31,1.21-1.35,2.08-.05,1.09.92.51,1.42.58.77.1,1.55.03,2.33.02Zm26.05.13c-.06-1.97-.87-2.76-2.58-2.68-1.43.07-2.87.08-4.3.07-1.05-.01-1.08.69-1.14,1.44-.06.83.3,1.19,1.14,1.18,2.27-.02,4.55,0,6.88,0Z" style="fill: #262029; stroke-width: 0px;"/>
      <path d="m177.66,195.5c-1.02-2.16-1.02-2.19,1.41-2.18,14.27.02,28.54.11,42.82.04,2.04-.01,2.63,1.28,3.53,2.49,1.49,2.93,3.58,5.54,4.96,8.77-2.44,0-4.7,0-6.97,0-12.8,0-25.59-.02-38.39.05-1.58,0-2.51-.46-3.23-1.86-1.28-2.48-2.74-4.87-4.13-7.3Zm37.43,1.53c-.61-1.42-1.61-1.95-3.22-1.94-10,.07-19.99.01-29.99.02-.62,0-1.27-.18-1.9.19.21.88.78,1.51,1.27,2.18.64,1.2,1.36,2.37,1.9,3.61.67,1.55,1.77,1.89,3.39,1.88,9.32-.09,18.63-.05,27.95-.06.85,0,1.67-.12,2.51-.25,1-.16.99-.66.69-1.33-.68-1.55-1.48-3.03-2.61-4.31Z" style="fill: #262029; stroke-width: 0px;"/>
      <path d="m28.93,17.28c-.08.91-.22,1.81-.22,2.72,0,33.09,0,66.17.01,99.26,0,.98.05,1.96.07,2.93-.71-.52-.51-1.29-.51-1.98,0-33.61,0-67.21,0-100.82,0-.76-.2-1.6.65-2.11Z" style="fill: #f9f3e4; stroke-width: 0px;"/>
      <path d="m67.5,12.29c-10.06.01-20.12.03-30.17.04-1.17,0-2.35-.06-3.51.24.32-.82,1.05-.64,1.67-.64,10.18,0,20.36,0,30.54,0,.52,0,1.06-.07,1.46.37Z" style="fill: #f9f3e4; stroke-width: 0px;"/>
      <path d="m35.34,127.82c5.36-.01,10.72-.03,16.08-.04-.2.66-.74.64-1.27.64-4.5,0-9.01,0-13.51,0-.52,0-1.07.05-1.3-.6Z" style="fill: #fbeed3; stroke-width: 0px;"/>
      <path d="m135.36,12.27c-10.45.02-20.91.03-31.36.05.46-.51,1.08-.39,1.65-.39,9.35,0,18.69,0,28.04,0,.58,0,1.19-.12,1.68.34Z" style="fill: #f9f3e4; stroke-width: 0px;"/>
      <path d="m34.16,127.68c.13.01.26.03.39.04-.15.16-.28.13-.39-.04Z" style="fill: #e3d6ba; stroke-width: 0px;"/>
      <path d="m202.83,161.7c-8.24,0-16.47,0-24.71,0-2.36,0-2.71-.35-2.72-2.72-.01-2.48,0-4.97-.02-7.45-.01-1.61.71-2.4,2.37-2.39,16.87.04,33.73.06,50.6.07,1.7,0,2.32.85,2.3,2.44-.03,2.48,0,4.97-.01,7.45-.02,2.12-.51,2.6-2.7,2.6-8.37.01-16.74,0-25.1,0Zm-4.78-1.51v.02c6.54,0,13.07-.03,19.61.03,1.32.01,1.88-.29,1.8-1.72-.12-2.15-.08-4.31-.02-6.47.02-1-.3-1.42-1.34-1.37-1.24.06-2.48,0-3.73,0-11.77,0-23.53.03-35.3-.01-1.56,0-2.27.37-2.14,2.07.13,1.75.13,3.54-.01,5.29-.14,1.67.31,2.25,2.11,2.22,6.34-.12,12.68-.05,19.02-.05Z" style="fill: #262029; stroke-width: 0px;"/>
      <path d="m161.27,157.91c-.31.97-1.14.68-1.8.68-3.69.03-7.38.06-11.07,0-1.28-.02-1.81.43-1.67,1.69-.71.04-1.43.11-2.14.11-30.15,0-60.3,0-90.46-.01-.91,0-1.81-.07-2.72-.1.39-.74.45-1.53.39-2.34,1.7-.03,3.39-.07,5.09-.07,34.79.02,69.58.04,104.38.06Z" style="fill: #ccc5b6; stroke-width: 0px;"/>
      <path d="m51.42,160.26c.91.04,1.81.1,2.72.1,30.15,0,60.3.01,90.46.01.71,0,1.43-.07,2.14-.11,4.47.05,8.94.09,13.4.16.78.01,1.94-.17,1.12,1.29-4.05.01-8.1.03-12.15.04-3.13-.07-6.26-.19-9.39-.19-30.61-.06-61.23-.24-91.84.09-.65,0-1.3.08-1.95.12-5.38-.01-10.75-.02-16.13-.04-.48,0-1.09.2-1.36-.44-.24-.58.21-.8.59-1.05,7.46.33,14.93.31,22.39.02Z" style="fill: #262029; stroke-width: 0px;"/>
      <path d="m35.97,154.29c-2.09-.03-4.18-.04-6.26-.1-.53-.02-1.36.14-1.3-.72.04-.64.75-.58,1.27-.59,1.89-.04,3.78-.07,5.68-.11.52,0,1.04-.01,1.56-.02.52,0,1.05,0,1.57,0,.53,0,1.05.02,1.58.02.39,0,.77,0,1.16,0,2.49,0,4.98,0,7.47,0,3.66,0,7.31,0,10.97,0,.46.02.91.07,1.37.07,27.04.01,54.09.03,81.13.03.45,0,.91-.07,1.36-.1,1.82.19,3.63.15,5.45,0,3.67.04,7.35.05,11.02.13.72.01,1.91-.19,1.22,1.28-.24.02-.48.04-.73.06-1.44,0-2.88.02-4.33.03-3.02-.03-6.03-.05-9.05-.07-1.96-.21-3.93-.18-5.89-.07-.58-.04-1.17-.11-1.75-.11-25.31-.02-50.61-.03-75.92-.03-.52,0-1.04.06-1.56.08-6.27-.05-12.54-.15-18.81.21-1.66.06-3.36-.55-4.95.36-.64-.86-1.5-.33-2.27-.35Z" style="fill: #262029; stroke-width: 0px;"/>
      <path d="m31.02,150.44c-.78-.4-2.38.61-2.35-.77.02-1.02,1.54-.32,2.36-.48.5-.1,1.04-.05,1.56-.07.13,0,.26,0,.39-.01.39,0,.79,0,1.18,0,1.43,0,2.87,0,4.3-.01.26,0,.52-.01.78-.02,6.34.03,12.68.1,19.02.1,33.67,0,67.34-.03,101.01-.03.79,0,1.73-.39,2.35.5-.06.1-.07.21-.02.32-.12.13-.23.26-.35.4-.52.02-1.04.04-1.57.06-.26,0-.52,0-.78,0-4.84.02-9.67.05-14.51.07-.52-.02-1.04-.06-1.56-.06-19.48,0-38.95,0-58.43,0-8.43,0-16.86.01-25.29.02-7.67-.01-15.34-.03-23.01-.04-1.7,0-3.41,0-5.11.01Z" style="fill: #262029; stroke-width: 0px;"/>
      <path d="m161.27,157.91c-34.79-.02-69.58-.04-104.38-.06-1.7,0-3.39.05-5.09.07-5.89.03-11.77.05-17.66.08-1.3.02-2.6.04-3.89.06-.4-.03-.81-.05-1.21-.08-.49-.12-.85-.37-.67-.94.16-.52.64-.33.97-.34,3.43-.04,6.87-.06,10.3-.09,7.59.04,15.18.08,22.78.11.84.05,1.68.16,2.52.16,25.65.01,51.29.02,76.94,0,2.15,0,4.3-.13,6.45-.2.65,0,1.3-.02,1.95-.03,3.65.03,7.3.06,10.95.09.33.38.67.75.04,1.16Z" style="fill: #262029; stroke-width: 0px;"/>
      <path d="m144.42,150.51c4.84-.02,9.67-.05,14.51-.07-.13.53-.5.69-1.01.72-2,.12-4,.33-6,.37-1.2.02-2.15.37-2.94,1.25-1.82.14-3.64.18-5.45,0,.3-.75.6-1.5.9-2.25Z" style="fill: #ccc5b6; stroke-width: 0px;"/>
      <path d="m161.23,156.74c-3.65-.03-7.3-.06-10.95-.09,1.4-.78,2.92-.24,4.37-.36.84-.07,1.6-.06,1.51-1.21h0c2-.39,3.55.56,5.06,1.66Z" style="fill: #ccc5b6; stroke-width: 0px;"/>
      <path d="m147.11,154.19c3.02.02,6.03.05,9.05.07,0,.27,0,.54,0,.82,0,0,0,0,0,0-2.46,0-4.93,0-7.39,0-.7,0-1.49.13-1.66-.89Z" style="fill: #ccc5b6; stroke-width: 0px;"/>
      <path d="m149.11,161.76c4.05-.01,8.1-.03,12.15-.04-.43.54-1.05.42-1.61.42-2.97,0-5.94.01-8.91,0-.57,0-1.18.12-1.63-.38Z" style="fill: #f5e8ca; stroke-width: 0px;"/>
      <path d="m159.7,150.43c.52-.02,1.04-.04,1.57-.06-.5.53-1.02.51-1.57.06Z" style="fill: #ccc5b6; stroke-width: 0px;"/>
      <path d="m160.49,154.24c.24-.02.48-.04.73-.06-.2.47-.45.44-.73.06Z" style="fill: #ccc5b6; stroke-width: 0px;"/>
      <path d="m161.61,149.97c-.05-.11-.04-.21.02-.32.09-.03.17-.05.26-.08-.09.13-.19.26-.28.4Z" style="fill: #ccc5b6; stroke-width: 0px;"/>
      <path d="m62.42,156.72c-7.59-.04-15.18-.08-22.78-.11-.32-1.16-1-1.7-2.27-1.55-.53.06-1.42.35-1.4-.77.77.02,1.63-.51,2.27.35,1.65-.11,3.36.5,4.95-.36,6.27-.36,12.54-.26,18.81-.21-.31.96-.07,1.83.42,2.66Z" style="fill: #e3d6ba; stroke-width: 0px;"/>
      <path d="m34.15,158c5.89-.03,11.77-.05,17.66-.08.06.81,0,1.6-.39,2.34-7.46.29-14.93.31-22.39-.02,0-.75.01-1.51.02-2.26.4.03.81.05,1.21.08,1.31.89,2.61.96,3.89-.06Z" style="fill: #e3d6ba; stroke-width: 0px;"/>
      <path d="m31.02,150.44c1.7,0,3.41,0,5.11-.01.68.45.9,1.1.79,1.88,0,.14,0,.28,0,.43-.52,0-1.04.01-1.56.02-.82-.76-1.84-.46-2.74-.39-1.6.12-2.06-.46-1.59-1.93Z" style="fill: #e3d6ba; stroke-width: 0px;"/>
      <path d="m38.47,149.1c-1.43,0-2.87,0-4.3.01,1.43-.48,2.87-.48,4.3-.01Z" style="fill: #e3d6ba; stroke-width: 0px;"/>
      <path d="m32.99,149.11c-.13,0-.26,0-.39.01.13-.17.26-.18.39-.01Z" style="fill: #e3d6ba; stroke-width: 0px;"/>
      <path d="m99.22,126.27c-.85.05-1.69.14-2.54.14-20.26-.09-40.51-.19-60.77-.3-3.05-.02-4.87-1.57-5.37-4.56-.16-.96-.27-1.94-.27-2.91-.02-32.55-.02-65.1-.02-97.64,0-5.31,1.87-7.13,7.24-7.13,30.26.01,60.53.02,90.79.03,1.31,0,2.61.02,3.92.04-.95,1.97-3.06,2.45-4.62,3.64-1.83,1.39-4.26,1.97-5.59,4.05-.91.03-1.83.08-2.74.08-25.43,0-50.85,0-76.28,0-3.75,0-4.5.75-4.5,4.42,0,28.76,0,57.51,0,86.27,0,1.05-.02,2.09,0,3.14.02,1.49.78,2.41,2.21,2.86.84.27,1.68.22,2.52.22,21.31.01,42.62.02,63.93.02-.84.9-1.6,1.88-2.52,2.68-1.85,1.6-3.75,3.13-5.38,4.97Z" style="fill: #616264; stroke-width: 0px;"/>
      <path d="m121.99,21.61c1.34-2.08,3.76-2.66,5.59-4.05,1.56-1.18,3.68-1.67,4.62-3.64,17.77-.02,35.54-.21,53.31.07,1.04.02,2.08-.13,3.12-.1,3.19.1,5.51,2.22,5.54,5.39.08,9.6.13,19.21-.05,28.81-.04,1.95.14,3.88.11,5.82-.06,4.3-.39,8.62-.28,12.9.44,17.44.16,34.87.26,52.3.03,5.22-2.11,7.31-7.37,7.31-28.49,0-56.98,0-85.47-.02-.71,0-1.43-.09-2.14-.14,1.63-1.84,3.53-3.37,5.38-4.97.92-.8,1.69-1.78,2.52-2.68,24.71,0,49.42-.01,74.13-.02,3.59,0,4.72-1.12,4.73-4.64,0-29.28,0-58.56,0-87.84,0-3.51-.9-4.41-4.38-4.41-19.02,0-38.04,0-57.07,0-.85,0-1.69-.07-2.54-.1Z" style="fill: #474950; stroke-width: 0px;"/>
      <path d="m233.13,62.5c0,8.89-.05,17.77.04,26.66.02,1.76-.52,2.17-2.22,2.15-7.77-.09-15.55-.09-23.33-.01-1.6.01-2.13-.4-2.12-2.07.05-17.77.05-35.54,0-53.31,0-1.54.3-2.15,2.02-2.13,7.77.08,15.55.06,23.33-.03,1.76-.02,2.34.45,2.32,2.29-.1,8.82-.04,17.64-.04,26.46Z" style="fill: #fe7863; stroke-width: 0px;"/>
      <path d="m205.6,22.9c-.03-1.23-.03-2.47-.11-3.7-.08-1.22.34-1.78,1.65-1.76,5.46.07,10.92.07,16.38.09.05,1.68.1,3.35.15,5.03-.96.11-1.92.32-2.89.32-5.06.03-10.12.02-15.19.02Z" style="fill: #71969d; stroke-width: 0px;"/>
      <path d="m205.6,22.9c5.06,0,10.12.01,15.19-.02.96,0,1.92-.21,2.89-.32.03.15.05.3.08.45q-.17,3.81-4.08,3.81c-3.77,0-7.55,0-11.32,0q-2.8,0-2.79-2.76c0-.39.02-.78.03-1.17Z" style="fill: #616264; stroke-width: 0px;"/>
      <path d="m223.75,23c-.03-.15-.06-.3-.08-.45-.05-1.68-.1-3.35-.15-5.03,2.66-.03,5.33-.06,7.99-.1,1.04-.02,1.48.44,1.57,1.51.31,3.98.34,3.97-3.67,3.98-1.89,0-3.77.05-5.66.08Z" style="fill: #474950; stroke-width: 0px;"/>
      <path d="m225.57,105.97c-6.27.07-12.54.13-18.81.21-.82,0-1.18-.34-1.17-1.17,0-2.09,0-4.18-.05-6.27-.02-.86.42-1.13,1.21-1.13,8.3-.02,16.6-.04,24.9-.07,1.12,0,1.49.54,1.42,1.59-.07,1.24-.07,2.48-.1,3.72-.37-.18-.23-1.14-.86-.78-2.2,1.27-4.72,2.01-6.54,3.91Z" style="fill: #58b3a9; stroke-width: 0px;"/>
      <path d="m225.57,105.97c1.82-1.9,4.34-2.64,6.54-3.91.63-.36.48.6.86.78.19,3.19.19,3.21-2.92,3.22-1.49,0-2.99-.06-4.48-.09Z" style="fill: #71969d; stroke-width: 0px;"/>
      <path d="m102.42,205.3c1.18,4.74.91,5.1-3.88,5.09-10.83,0-21.65-.06-32.48.03-1.95.02-2.83-.45-2.47-2.48.15-.88-.27-1.83.35-2.65,12.83,0,25.65,0,38.48,0Z" style="fill: #474950; stroke-width: 0px;"/>
      <path d="m102.42,205.3c-12.83,0-25.65,0-38.48,0,.14-1.59,1.06-2.25,2.6-2.25,11.14-.01,22.27-.04,33.41-.07,1.58,0,2.44.7,2.47,2.32Z" style="fill: #71969d; stroke-width: 0px;"/>
      <path d="m22.25,205.85c.49-2.49,2.11-4.41,3.33-6.53.37-.64,1.06-.68,1.73-.58,1.16.16,2.34.31,3.48.04,1.12-.26,1.51.26,1.79,1.19.27.9-.04,1.1-.88,1.55-1.45.79-2.14,2.36-2.35,4.05-2.37.09-4.73.19-7.1.28Z" style="fill: #71969d; stroke-width: 0px;"/>
      <path d="m158.55,205.65c-.4-1.75-1.51-3.14-2.35-4.68-.85-1.56-.61-1.71,1.1-2,3.57-.6,5.99.56,7.24,4.04.33.91.9,1.72,1.36,2.58-2.45.23-4.9.17-7.35.06Z" style="fill: #71969d; stroke-width: 0px;"/>
      <path d="m145.08,205.58c.52,4.8.52,4.83-4.27,4.79-3.9-.03-3.4.56-3.45-3.4,0-.46.03-.91.05-1.37,2.56-.01,5.11-.02,7.67-.03Z" style="fill: #474950; stroke-width: 0px;"/>
      <path d="m134.3,205.69c.59,1.18.21,2.44.29,3.66.05.74-.41,1.04-1.11,1.03-.65,0-1.31,0-1.96,0q-4.67,0-4.79-4.66c2.52-.01,5.05-.02,7.57-.03Z" style="fill: #474950; stroke-width: 0px;"/>
      <path d="m112.95,205.68c.89,1.24.32,2.64.39,3.97.03.57-.47.73-.97.73-1.89,0-3.78,0-5.67.01-.85,0-1.15-.43-1.13-1.22.02-1.17.01-2.35.02-3.52,2.45,0,4.9.02,7.36.03Z" style="fill: #474950; stroke-width: 0px;"/>
      <path d="m39.62,205.65q.08,4.75-4.43,4.74c-3.56-.01-4.07-.69-3.17-4.24.05-.19.16-.35.24-.53,2.45.01,4.9.03,7.35.04Z" style="fill: #474950; stroke-width: 0px;"/>
      <path d="m60.73,205.57q.36,4.82-4.43,4.81c-3.48,0-3.96-.62-3.17-4.07.06-.25.21-.47.32-.7,2.42-.01,4.85-.02,7.27-.04Z" style="fill: #474950; stroke-width: 0px;"/>
      <path d="m50.19,205.62q.15,4.78-4.42,4.77c-3.53,0-4.1-.77-3.15-4.27.05-.19.17-.35.26-.53,2.44.01,4.87.02,7.31.03Z" style="fill: #474950; stroke-width: 0px;"/>
      <path d="m158.55,205.65c2.45.11,4.9.17,7.35-.06.09.31.2.62.27.94.78,3.37.4,3.86-2.98,3.85q-4.69,0-4.64-4.73Z" style="fill: #474950; stroke-width: 0px;"/>
      <path d="m123.23,205.71c1.32,1.14.67,2.65.69,4.01,0,.68-.69.66-1.2.66-1.62,0-3.25-.06-4.87.02-1.26.06-1.79-.38-1.69-1.67.08-1.03.05-2.07.06-3.11,2.34.03,4.67.06,7.01.09Z" style="fill: #474950; stroke-width: 0px;"/>
      <path d="m155.67,205.59c.38,4.8.38,4.84-4.22,4.78-4.02-.05-2.66.79-3.43-4.78,2.55,0,5.1,0,7.64,0Z" style="fill: #474950; stroke-width: 0px;"/>
      <path d="m22.25,205.85c2.37-.09,4.73-.19,7.1-.28.3,1.32-.39,2.56-.32,3.87.04.65-.37.92-.99.93-.72,0-1.43.01-2.15.01-4.33,0-4.47-.18-3.63-4.53Z" style="fill: #474950; stroke-width: 0px;"/>
      <path d="m42.71,197.39c-.39,0-.81.08-1.17-.02-.83-.23-2.11.63-2.46-.63-.27-.98,1.74-2.82,2.82-2.85,1.17-.02,2.36.09,3.51-.05,1.52-.18,1.9.62,2,1.88.12,1.51-.83,1.72-1.98,1.72-.91,0-1.82,0-2.73,0,0-.02,0-.04,0-.07Z" style="fill: #71969d; stroke-width: 0px;"/>
      <path d="m31.87,193.87c3.71-.08,4.17.23,4,2.22-.05.57-.2.82-.85,1.03-2.36.74-4.73-.14-7.08.17-.85.11-.86-.45-.55-1.15,1.02-2.32,3.01-2.38,4.49-2.26Z" style="fill: #71969d; stroke-width: 0px;"/>
      <path d="m148.93,197.09c-2.16.12-4.23.28-6.3.31-1.02.02-1.9-.32-2.08-1.59-.17-1.23-.03-2.05,1.52-1.87.77.09,1.57.11,2.33-.01,2.47-.41,3.93.6,4.52,3.16Z" style="fill: #71969d; stroke-width: 0px;"/>
      <path d="m87.44,197.41c-.36,0-.64.07-.88-.01-.69-.24-1.87.64-2.06-.71-.22-1.51.9-2.74,2.33-2.76,1.24-.02,2.48,0,3.71-.01.59,0,1.05.04,1.4.74,1.01,1.99.91,2.25-1.31,2.53-1.1.13-2.18.44-3.19.23Z" style="fill: #71969d; stroke-width: 0px;"/>
      <path d="m65.03,197.49c-.26,0-.54.06-.78-.01-.75-.23-1.98.67-2.2-.72-.21-1.31,1.22-2.82,2.5-2.86,1.1-.03,2.22.07,3.31-.03,1.54-.13,1.83.78,1.99,2,.2,1.48-.91,1.34-1.73,1.46-1.02.15-2.07.16-3.1.23,0-.03,0-.05,0-.08Z" style="fill: #71969d; stroke-width: 0px;"/>
      <path d="m54.98,193.92c.72,0,1.43,0,2.15,0,.99,0,1.32.6,1.41,1.5.09.85-.08,1.22-1.01,1.68-2.23,1.1-4.32-.06-6.46,0-.72.02-.43-.59-.34-1.02.5-2.52,2.43-2.26,4.25-2.16Z" style="fill: #71969d; stroke-width: 0px;"/>
      <path d="m77.48,197.51c-.78-.08-1.59-.04-2.32-.28-.68-.22-2.1.51-1.94-.73.13-1.05.29-2.73,2.25-2.58,1.3.1,2.61.04,3.91,0,.77-.02,1.22.28,1.41,1.03.29,1.13.76,2.27-1.18,2.35-.7.03-1.39.28-2.12.2Z" style="fill: #71969d; stroke-width: 0px;"/>
      <path d="m61.01,201.77c-.65,0-1.32.1-1.94-.03-.66-.14-1.88.6-1.89-.54,0-1.1.59-2.4,1.96-2.53,1.67-.16,3.37-.01,5.05-.01,1.3,0,1.14,1.04,1.22,1.81.09.86-.34,1.28-1.3,1.21-1.03-.08-2.07-.02-3.1-.02,0,.04,0,.08,0,.12Z" style="fill: #71969d; stroke-width: 0px;"/>
      <path d="m100.1,193.92c1.46-.16,3.24-.27,3.64,2.18.07.43.45,1.05-.31.97-1.96-.21-3.83.71-5.79.37-.98-.17-1.73-.43-1.6-1.71.13-1.26.6-1.94,1.96-1.81.58.06,1.17,0,2.11,0Z" style="fill: #71969d; stroke-width: 0px;"/>
      <path d="m115.32,197c-2.2.16-4.15.27-6.1.44-1.53.14-1.81-.63-1.85-1.99-.04-1.42.61-1.64,1.76-1.55.71.05,1.46.12,2.15-.02,2.46-.47,3.31,1.07,4.04,3.12Z" style="fill: #71969d; stroke-width: 0px;"/>
      <path d="m126.23,197.01c-2.06.13-4.01.24-5.96.37-1.19.08-1.79-.32-1.82-1.65-.03-1.27.42-1.81,1.68-1.75.65.03,1.32.08,1.95-.02,2.35-.4,3.68.59,4.15,3.05Z" style="fill: #71969d; stroke-width: 0px;"/>
      <path d="m137.27,196.94c-1.83.15-3.51.39-5.2.39-1.07,0-2.43.27-2.61-1.57-.13-1.35.19-1.96,1.63-1.79.71.08,1.44.08,2.15-.02,2.26-.31,3.58.62,4.02,2.98Z" style="fill: #71969d; stroke-width: 0px;"/>
      <path d="m43.51,200.27c.1,1.34-.84,1.69-1.77,1.46-1.75-.44-3.5-.28-5.24-.29-1.6,0-1.38-.75-.83-1.69.43-.72,1.06-1.1,1.94-1.08,1.5.03,3,.06,4.5.02,1.18-.03,1.46.61,1.4,1.58Z" style="fill: #71969d; stroke-width: 0px;"/>
      <path d="m156.34,197.07c-.69.06-1.47.11-2.24.18-1.47.13-2.42-.88-2.26-2.33.07-.61.38-.74.9-.73,1.82.02,3.64,0,5.45.05.29,0,.68.14.85.35.51.65,1.44,1.37,1.22,2.08-.24.79-1.36.3-2.08.39-.58.07-1.17.01-1.84.01Z" style="fill: #71969d; stroke-width: 0px;"/>
      <path d="m126.4,201.8c-.62-.03-1.27-.12-1.92-.08-1.04.06-1.35-.4-1.35-1.39,0-.91.15-1.47,1.24-1.5,1.56-.04,3.11-.16,4.68.03,1.27.16,1.64.95,1.65,1.98,0,1.04-.96.34-1.4.62-.9.58-1.91.19-2.9.34Z" style="fill: #71969d; stroke-width: 0px;"/>
      <path d="m52.41,201.46c-1.43,0-2.86.05-4.28-.02-.57-.03-1.58.4-1.64-.43-.06-.82.25-1.98,1.29-2.18,1.92-.36,3.9-.3,5.83-.03,1.1.15.55,1.29.56,1.98.02,1.35-1.12.65-1.75.68Z" style="fill: #71969d; stroke-width: 0px;"/>
      <path d="m149.09,201.4c-.84.08-1.69.16-2.53.25-.83.08-1.65.12-1.67-1.04-.02-1.01.26-1.82,1.5-1.82,1.5,0,3,0,4.49.01.32,0,.66.07.95.2.85.36,1.07,1.26,1.04,1.95-.03.82-.93.38-1.44.43-.77.08-1.56.02-2.35.02Z" style="fill: #71969d; stroke-width: 0px;"/>
      <path d="m145.08,205.58c-2.56.01-5.11.02-7.67.03q-.53-2.54,2.13-2.55c.98,0,1.96.04,2.93.01,1.72-.04,2.72.64,2.61,2.5Z" style="fill: #71969d; stroke-width: 0px;"/>
      <path d="m134.3,205.69c-2.52.01-5.05.02-7.57.03-.28-.84-.55-1.67-.87-2.65,2.39-.1,4.67,0,6.96.28,1.45.18,1.37,1.32,1.48,2.34Z" style="fill: #71969d; stroke-width: 0px;"/>
      <path d="m60.73,205.57c-2.42.01-4.85.02-7.27.04.08-2.04,1.15-2.83,3.15-2.59.83.1,1.67,0,2.51,0q2.69,0,1.61,2.56Z" style="fill: #71969d; stroke-width: 0px;"/>
      <path d="m112.95,205.68c-2.45,0-4.9-.02-7.36-.03-.2-.81-.41-1.63-.62-2.46,2.03,0,3.96-.03,5.89,0,1.6.03,2.33.86,2.08,2.48Z" style="fill: #71969d; stroke-width: 0px;"/>
      <path d="m39.62,205.65c-2.45-.01-4.9-.02-7.35-.04.19-1.84,1.06-2.81,3.04-2.57.89.11,1.81,0,2.71,0,2.3,0,2.5.33,1.6,2.61Z" style="fill: #71969d; stroke-width: 0px;"/>
      <path d="m123.23,205.71c-2.34-.03-4.68-.06-7.01-.09-.9-2.41-.84-2.51,1.67-2.53,1.3-.01,2.62-.09,3.91.06,1.49.18,2.1,1.06,1.44,2.56Z" style="fill: #71969d; stroke-width: 0px;"/>
      <path d="m134.75,201.68c-.42.04-.97.03-.85-.63.14-.76-.23-1.94.91-2.09,1.87-.25,3.77-.43,5.65,0,1.06.24,1.57,1.15,1.47,2.03-.09.85-1.08.38-1.65.42-1.82.13-3.65-.12-5.53.28Z" style="fill: #71969d; stroke-width: 0px;"/>
      <path d="m50.19,205.62c-2.44-.01-4.88-.02-7.31-.03.07-1.86.87-2.85,2.89-2.58.95.13,1.93,0,2.89.05,2.24.13,2.37.37,1.53,2.56Z" style="fill: #71969d; stroke-width: 0px;"/>
      <path d="m109.33,201.49c-2.61,0-4.86.02-7.1-.02-.49,0-1.39.25-1.21-.72.14-.73-.17-1.91,1.07-1.99,1.68-.1,3.38-.16,5.06-.02,1.33.12,1.44,1.44,2.19,2.74Z" style="fill: #71969d; stroke-width: 0px;"/>
      <path d="m155.67,205.59c-2.55,0-5.1,0-7.64,0-.18-.8-.36-1.61-.56-2.49,2.2-.18,4.37,0,6.53.18,1.43.11,1.14,1.52,1.67,2.31Z" style="fill: #71969d; stroke-width: 0px;"/>
      <path d="m68.53,201.43c.12-2.03.94-3.03,2.98-2.79,1.1.13,2.22.18,3.32.15,1.49-.04,1.51,1.1,1.51,2,0,1.05-.98.59-1.52.61-2.08.06-4.16.02-6.29.02Z" style="fill: #71969d; stroke-width: 0px;"/>
      <path d="m83.33,201.38c-.78,0-1.57.07-2.34-.02-.56-.06-1.52.47-1.61-.48-.09-.89.32-2.02,1.32-2.13,1.73-.19,3.52-.19,5.25.02.93.11,1.07,1.31,1.09,2.08.03.88-.88.47-1.37.51-.77.08-1.56.02-2.34.02Z" style="fill: #71969d; stroke-width: 0px;"/>
      <path d="m93.92,201.4c-.78,0-1.56.07-2.33-.02-.5-.06-1.47.51-1.42-.58.04-.86.19-1.98,1.35-2.08,1.67-.13,3.36-.27,5.03.14,1.14.27,1.44,1.23,1.34,2.07-.1.86-1.06.39-1.64.45-.77.08-1.55.02-2.33.02Z" style="fill: #71969d; stroke-width: 0px;"/>
      <path d="m119.98,201.53c-2.33,0-4.61-.01-6.88,0-.84,0-1.2-.35-1.14-1.18.05-.74.08-1.45,1.14-1.44,1.43.02,2.87,0,4.3-.07,1.71-.08,2.52.7,2.58,2.68Z" style="fill: #71969d; stroke-width: 0px;"/>
      <path d="m215.09,197.03c1.13,1.28,1.93,2.76,2.61,4.31.3.68.31,1.18-.69,1.33-.84.13-1.66.25-2.51.25-9.32,0-18.64-.03-27.95.06-1.62.02-2.72-.33-3.39-1.88-.54-1.24-1.26-2.41-1.9-3.61,10.53-.02,21.07-.04,31.6-.08.75,0,1.57.22,2.24-.38Z" style="fill: #474950; stroke-width: 0px;"/>
      <path d="m215.09,197.03c-.66.6-1.48.37-2.24.38-10.53.04-21.07.06-31.6.08-.49-.67-1.06-1.3-1.27-2.18.62-.37,1.28-.19,1.9-.19,10,0,19.99.04,29.99-.02,1.62-.01,2.61.52,3.22,1.94Z" style="fill: #71969d; stroke-width: 0px;"/>
      <path d="m198.05,160.19c-6.34,0-12.68-.07-19.02.05-1.79.03-2.24-.55-2.11-2.22.14-1.75.15-3.54.01-5.29-.13-1.7.58-2.08,2.14-2.07,11.77.04,23.53.01,35.3.01,1.24,0,2.49.06,3.73,0,1.04-.05,1.36.37,1.34,1.37-.05,2.16-.09,4.32.02,6.47.08,1.43-.47,1.74-1.8,1.72-6.54-.06-13.07-.03-19.61-.03v-.02Z" style="fill: #fe7863; stroke-width: 0px;"/>
      <path d="m62.42,156.72c-.49-.83-.73-1.7-.42-2.66.52-.03,1.04-.09,1.56-.08,25.31,0,50.61.02,75.92.03.58,0,1.17.07,1.75.11.65,1.42,1.72,2.11,3.31,2.18,1.27.06,2.61-.42,3.8.39-2.15.07-4.3.2-6.45.2-25.65.01-51.29,0-76.94,0-.84,0-1.68-.1-2.52-.16Z" style="fill: #ccc5b6; stroke-width: 0px;"/>
      <path d="m144.42,150.51c-.3.75-.6,1.5-.9,2.25-.45.04-.91.1-1.36.1-27.04,0-54.09-.02-81.13-.03-.46,0-.91-.04-1.37-.07-.17-.76-.35-1.53-.52-2.29,8.43,0,16.86-.02,25.29-.02,19.48,0,38.95,0,58.43,0,.52,0,1.04.04,1.56.06Z" style="fill: #e3d6ba; stroke-width: 0px;"/>
      <path d="m59.14,150.47c.17.76.35,1.53.52,2.29-3.66,0-7.31,0-10.97,0-2.49-.69-4.98-.69-7.47,0-.39,0-.77,0-1.16,0-.4-.58-1.01-.39-1.56-.42l-1.58-.02c.12-.78-.1-1.43-.79-1.88,7.67.01,15.34.03,23.01.04Z" style="fill: #ccc5b6; stroke-width: 0px;"/>
      <path d="m148.33,156.68c-1.19-.81-2.53-.33-3.8-.39-1.59-.07-2.66-.76-3.31-2.18,1.96-.11,3.93-.14,5.89.07.17,1.01.96.88,1.66.89,2.46,0,4.93,0,7.39,0,.09,1.15-.67,1.15-1.51,1.21-1.46.11-2.97-.43-4.37.36-.65,0-1.3.02-1.95.03Z" style="fill: #e3d6ba; stroke-width: 0px;"/>
      <path d="m41.22,152.76c2.49-.69,4.98-.69,7.47,0-2.49,0-4.98,0-7.47,0Z" style="fill: #e3d6ba; stroke-width: 0px;"/>
      <path d="m43.2,154.28c-1.6.86-3.3.25-4.95.36,1.59-.91,3.3-.3,4.95-.36Z" style="fill: #f5e8ca; stroke-width: 0px;"/>
      <path d="m36.91,152.31c.53,0,1.06.01,1.58.02,0,.13-.01.27-.02.4-.52,0-1.05,0-1.57,0,0-.14,0-.28,0-.43Z" style="fill: #f5e8ca; stroke-width: 0px;"/>
      <path d="m38.48,152.73c0-.13.01-.27.02-.4.55.04,1.16-.15,1.56.42-.53,0-1.05-.02-1.58-.02Z" style="fill: #e3d6ba; stroke-width: 0px;"/>
      <path d="m34.15,158c-1.28,1.02-2.58.95-3.89.06,1.3-.02,2.6-.04,3.89-.06Z" style="fill: #f5e8ca; stroke-width: 0px;"/>
      <path d="m121.99,21.61c.85.04,1.69.1,2.54.1,19.02,0,38.04,0,57.07,0,3.48,0,4.38.89,4.38,4.41,0,29.28,0,58.56,0,87.84,0,3.52-1.13,4.63-4.73,4.64-24.71,0-49.42.01-74.13.02-21.31,0-42.62,0-63.93-.02-.84,0-1.68.05-2.52-.22-1.43-.45-2.18-1.37-2.21-2.86-.02-1.05,0-2.09,0-3.14,0-28.76,0-57.51,0-86.27,0-3.67.75-4.42,4.5-4.42,25.43,0,50.85,0,76.28,0,.91,0,1.83-.05,2.74-.08Zm56.44,53.04c0-2.86,0-5.71,0-8.57-.22-7.77-.72-15.54-.56-23.3.11-5.39-4.5-11.19-10.81-11.57-10.36-.63-20.73-1.3-31.1-1.52-11.95-.25-23.9-.49-35.86-.22-10.37.24-20.74.3-31.09,1.18-4.32.37-8.68.39-13,.85-4.55.49-9.11,5.39-9.26,10.06-.3,9.33-.69,18.67-.69,28.01,0,10.12.4,20.24.63,30.36.12,5.28,4.83,10.22,10.1,10.42,11.75.44,23.49.99,35.25,1.13,16.53.19,33.06.4,49.59-.25,8.55-.34,17.1-.55,25.65-.88,5.62-.22,10.33-5.06,10.52-10.67.08-2.46.07-4.92.23-7.39.38-5.86.3-11.75.41-17.63Z" style="fill: #262029; stroke-width: 0px;"/>
      <path d="m178.44,74.65c-.11,5.88-.03,11.77-.41,17.63-.16,2.47-.15,4.93-.23,7.39-.19,5.61-4.9,10.45-10.52,10.67-8.55.33-17.1.54-25.65.88-16.53.65-33.06.44-49.59.25-11.75-.13-23.5-.69-35.25-1.13-5.27-.2-9.98-5.14-10.1-10.42-.23-10.12-.63-20.24-.63-30.36,0-9.34.39-18.67.69-28.01.15-4.67,4.71-9.57,9.26-10.06,4.32-.46,8.69-.48,13-.85,10.36-.89,20.72-.95,31.09-1.18,11.96-.27,23.91-.03,35.86.22,10.37.22,20.74.89,31.1,1.52,6.31.38,10.92,6.18,10.81,11.57-.15,7.76.34,15.53.57,23.3-.45,2.86-.45,5.71,0,8.57Zm-16.1-6.52c.02-1.76.04-3.53.05-5.29.02-6.14.03-12.27.05-18.41,0-2.14-.89-3.71-2.68-4.9-1.47-.98-3.06-.99-4.7-.99-31.28,0-62.55,0-93.83,0-.26-.3-.53-.3-.79,0-1.05.02-2.1-.02-3.13.08-2.99.28-5,2.1-5.07,4.74-.24,8.61-.65,17.23-.43,25.85l.03,5.13c0,1.8,0,3.61,0,5.41-.33,6.59.41,13.17.38,19.76-.02,3.31,2.54,6,5.86,6.14,2.73.11,5.46.16,8.2.34,5.4.36,10.83.3,16.23.35,24.03.24,48.07.26,72.1-.29.13,0,.26,0,.39,0,5.41-.33,7.43-2.48,7.43-7.9,0-7.51,0-15.03,0-22.54,0-.7.21-1.45-.31-2.08.07-1.8.14-3.6.21-5.39Z" style="fill: #41938d; stroke-width: 0px;"/>
      <path d="m178.44,74.65c-.45-2.86-.45-5.71,0-8.57,0,2.86,0,5.71,0,8.57Z" style="fill: #616264; stroke-width: 0px;"/>
      <path d="m61.23,38.53c31.28,0,62.55,0,93.83,0,1.64,0,3.23.01,4.7.99,1.79,1.19,2.69,2.77,2.68,4.9-.02,6.14-.03,12.27-.05,18.41-.85.03-1.69.09-2.54.09-10.63,0-21.26.02-31.89-.04-1.5,0-2.24.36-2,1.96.06.38.05.79,0,1.17-.21,1.52.37,2.03,1.95,2.01,7.24-.08,14.48-.05,21.72-.03,4.24.01,8.47.08,12.71.12-.07,1.8-.14,3.6-.22,5.39-14.17,0-28.34,0-42.51-.01-4.2,0-4.29,0-4.19,4.18.04,1.81-.62,2.15-2.26,2.14-11.17-.07-22.33-.03-33.5-.04-9.27,0-18.54-.04-27.81-.05,0-1.8,0-3.61,0-5.41.98-.01,1.96-.03,2.94-.03,13.47,0,26.93,0,40.4-.03.67,0,1.7.36,1.93-.46.37-1.3.47-2.78-.06-4.04-.43-1.03-1.63-.55-2.49-.55-14.25-.02-28.5-.02-42.75-.02-.22-8.62.19-17.23.43-25.85.07-2.63,2.08-4.46,5.07-4.74,1.04-.1,2.09-.05,3.13-.07.26,0,.53,0,.79,0Z" style="fill: #a8d9cd; stroke-width: 0px;"/>
      <path d="m51.84,79.74c9.27.02,18.54.05,27.81.05,11.17.01,22.33-.03,33.5.04,1.64,0,2.3-.33,2.26-2.14-.1-4.19,0-4.19,4.19-4.18,14.17,0,28.34,0,42.51.01.51.63.31,1.38.31,2.08.01,7.51,0,15.03,0,22.54,0,5.42-2.02,7.57-7.43,7.9-.13,0-.26,0-.39,0-24.03.56-48.07.53-72.1.29-5.4-.05-10.83,0-16.23-.35-2.74-.18-5.46-.23-8.2-.34-3.32-.14-5.88-2.83-5.86-6.14.04-6.59-.71-13.16-.38-19.76Zm27.06,14.95h0c5.74,0,11.49-.07,17.23.05,1.94.04,1.7-1.3,1.79-2.32.12-1.33-1.06-.87-1.71-.87-11.36-.03-22.71-.01-34.07-.02-1.15,0-2.16-.13-2.14,1.64.03,1.85,1.2,1.51,2.25,1.51,5.55.01,11.1,0,16.64,0Zm63.15-10.6h0c-4.5,0-9,0-13.5,0-.94,0-1.82-.1-1.82,1.33,0,1.33.68,1.45,1.72,1.45,8.93-.02,17.87-.02,26.8,0,1.03,0,1.74-.1,1.73-1.44-.01-1.42-.87-1.34-1.82-1.34-4.37,0-8.74,0-13.11,0Z" style="fill: #58b3a9; stroke-width: 0px;"/>
      <path d="m51.81,69.2c14.25,0,28.5,0,42.75.02.86,0,2.07-.47,2.49.55.53,1.26.43,2.74.06,4.04-.23.82-1.26.46-1.93.46-13.47.03-26.93.03-40.4.03-.98,0-1.96.02-2.94.03-.01-1.71-.02-3.42-.03-5.13Z" style="fill: #58b3a9; stroke-width: 0px;"/>
      <path d="m162.33,68.13c-4.24-.04-8.47-.11-12.71-.12-7.24-.02-14.48-.05-21.72.03-1.58.02-2.15-.49-1.95-2.01.05-.38.06-.79,0-1.17-.24-1.6.5-1.97,2-1.96,10.63.06,21.26.04,31.89.04.85,0,1.69-.06,2.54-.09-.02,1.76-.04,3.53-.06,5.29Z" style="fill: #58b3a9; stroke-width: 0px;"/>
      <path d="m61.23,38.53c-.26,0-.53,0-.79,0,.26-.3.52-.3.79,0Z" style="fill: #71969d; stroke-width: 0px;"/>
      <path d="m78.9,94.69c-5.55,0-11.1,0-16.64,0-1.06,0-2.23.34-2.25-1.51-.03-1.77.98-1.64,2.14-1.64,11.36,0,22.71,0,34.07.02.65,0,1.84-.46,1.71.87-.1,1.02.15,2.36-1.79,2.32-5.74-.12-11.49-.04-17.23-.04h0Z" style="fill: #a8d9cd; stroke-width: 0px;"/>
      <path d="m142.05,84.09c4.37,0,8.74,0,13.11,0,.95,0,1.81-.08,1.82,1.34.01,1.34-.69,1.44-1.73,1.44-8.93-.02-17.87-.01-26.8,0-1.04,0-1.73-.12-1.72-1.45,0-1.43.89-1.34,1.82-1.33,4.5,0,9,0,13.5,0h0Z" style="fill: #a8d9cd; stroke-width: 0px;"/>
    </g>
  </g>
</svg>