<?xml version="1.0" encoding="UTF-8"?>
<svg id="Calque_2" data-name="Calque 2" xmlns="http://www.w3.org/2000/svg" viewBox="0 0 257 115.61">
  <g id="Calque_1-2" data-name="Calque 1">
    <g>
      <path d="m45.16,1.32c.07-.09.14-.18.21-.27,1.16-.02,2.32-.05,3.49-.05,43.82-.01,87.64-.02,131.46-.03,6.87,0,13.74-.02,20.61-.03,3.92.04,7.83.09,11.75.13.86,1.19.94,2.88,2.37,3.71,1.85,3.72,3.88,7.33,6.16,10.81.11.32.22.63.33.95-6.03.02-12.06.04-18.09.05-.48-.01-.95-.04-1.43-.04-45.81,0-91.62,0-137.43,0-3.01,0-6.03.03-9.04.04-.73-.02-1.47-.06-2.2-.06-5.82,0-11.65,0-17.47,0-.02-.1,0-.2.03-.29,1.12-1.71,2.25-3.42,3.37-5.14.82.03.97-.67,1.3-1.18,1.77-2.74,3.2-5.65,4.57-8.6Z" style="fill: #f6f4e1; stroke-width: 0px;"/>
      <path d="m2.52,108.31c-.23-.07-.45-.14-.68-.21-.06-.32-.3-.41-.58-.47,0,0,0,0,0,0,.03-.35-.02-.73.34-.96.46.47.98.7,1.68.71,4.06.05,8.13.23,12.19.24,15.38.03,30.76,0,46.14,0,3.13,0,3.05,0,3.16-3.07.06-1.58-.36-2.06-2-2.05-18.39.05-36.78.01-55.18.01-1.79,0-3.59.07-5.38.11-.07-.58-.49-.67-.97-.68-.3-.5-.8-.9-.78-1.55.35-.12.71-.23,1.06-.35.34,1.23,1.32,1.38,2.37,1.38,3.06,0,6.12.01,9.18,0,7.28-.02,14.56-.06,21.85-.08,1.47.17,2.95.17,4.42,0,7.2,0,14.39.01,21.59.02.92.27,1.86.09,2.79.14.73.03,1-.32.99-1.04-.01-1.76.98-2.77,2.58-3.28,8.25-.02,16.49-.03,24.74-.05,1.8-.45,2.53-1.41,2.55-3.59.03-4.44,0-8.88,0-13.33,0-2.78.92-3.71,3.68-3.7,19.83,0,39.66.06,59.49-.04,2.57-.01,4.16,1.6,4.08,4.16-.15,4.49-.05,8.99,0,13.48.02,1.76.77,2.54,2.61,3.01,1.11.03,2.22.08,3.32.09,7.34.04,14.69.06,22.03.09,1.59.72,2.27,2.01,2.3,3.7-.02.11-.04.22-.06.33-.01.5-.02.99-.03,1.49,0,1.11.09,2.22,0,3.32-.1,1.21.39,1.53,1.54,1.52,4.49-.06,8.98,0,13.46-.03,2.95-.02,5.91-.29,8.85-.17,8.02.33,16.04.2,24.06.08,2.63.4,5.22-.34,7.85-.2,2.04.11,4.1.01,6.15.02,1.21,0,1.83-.6,1.93-1.8.19-2.26-.42-2.95-2.7-2.97-.47,0-.95-.01-1.42-.02.2-1.14,1.57-.17,1.91-1.06.41-.07.81-.14,1.22-.2.8.05.8.92,1.29,1.29,1.37,1.12.76,2.57.45,3.82-.4,1.64-1.96,1.86-3.34,1.92-2.42.11-4.84.07-7.26.02-.86-.02-1.29.15-1.18,1.11.11.99.14,1.99.2,2.99-.49,2.62-1.12,3.15-3.81,3.18-.95.01-1.9,0-2.86,0-19.99,0-39.98-.02-59.97-.02-54.1,0-108.21,0-162.31,0-2.88,0-3.44-.5-3.83-3.24q.25-4.03-3.68-4.03c-1.89,0-3.78,0-5.67.01-.11,0-.23-.02-.34-.02Zm19.05,2.52c-2.16,0-4.32-.02-6.47-.01-1.79,0-2.2.59-1.68,2.32.32,1.07,1.09,1.49,2.15,1.48,2-.01,4-.02,6-.03.58.01,1.16.03,1.75.03,58.98,0,117.97,0,176.95,0,13.54,0,27.08,0,40.63,0,2.43,0,2.82-.37,2.91-2.28.12-2.35-1.62-1.48-2.65-1.49-15.13-.05-30.26-.04-45.39-.02-1.37,0-2.65-.15-3.58-1.29-.45-.56-.87-.49-1.28.04-.88,1.12-2.07,1.26-3.41,1.26-39.52-.02-79.03-.02-118.55,0-1.49,0-2.72-.3-3.6-1.54-.4-.56-.7-.71-1.15-.04-.9,1.32-2.2,1.58-3.74,1.58-12.96-.04-25.92-.01-38.88,0Zm167.58-10.78c-.13-1.41-1.1-1.62-2.26-1.63-6.97-.02-13.95.05-20.92-.25-1.81-.08-3.46-.19-4.73-1.64-.48-1.19-.68-2.41-.65-3.7.06-2.64-.07-5.29.05-7.93.07-1.57-.33-2.07-2-2.07-16.03.06-32.05.03-48.08.03-4.39,0-8.78.02-13.17,0-.97,0-1.53.11-1.62,1.33-.22,3.05-.22,6.09-.2,9.14.01,1.23-.08,2.41-.69,3.51-1.2.97-2.54,1.33-4.1,1.32-6.33-.06-12.65-.03-18.98-.01-.68,0-1.36.13-2.04.15-1.78.05-2.41,1-2.19,2.68-.7,1.46.1,2.91.03,4.37-.12,2.32-.03,2.32,2.28,2.32,38.8,0,77.59,0,116.39,0,.48,0,.96-.04,1.43,0,1.08.1,1.52-.31,1.48-1.44-.08-2.06-.04-4.12-.05-6.18Zm-60.87-21.61c-9.62,0-19.24,0-28.86,0-1.08,0-1.98.09-2.01,1.57-.03,1.45.72,1.61,1.89,1.61,8.18,0,16.36.01,24.55.26,10.82.32,21.64-.52,32.47-.27.37,0,.74,0,1.11,0,1.52-.02,1.85-.43,1.58-1.92-.23-1.3-1.21-1.26-2.19-1.26-9.51,0-19.03,0-28.54,0Z" style="fill: #2a2844; stroke-width: 0px;"/>
      <path d="m16.8,3.15c.86,0,1.72,0,2.58,0,3.8,0,7.59,0,11.39,0,.54,0,1.09,0,1.63,0,1.68,0,3.36,0,5.04,0,.96,0,1.91,0,2.87,0,.21.09.6,0,.58.34-.04.45-.36.73-.83.75-.66.03-1.32.03-1.99.04-1.26,0-2.51,0-3.77.01-.44,0-.87,0-1.31,0-4.91-.02-9.82-.01-14.73-.08-1.46-.02-2.63.42-3.73,1.39-3.79,3.33-7.63,6.62-11.47,9.89-1.14.97-1.77,2.07-1.44,3.59,0,.32,0,.63,0,.95,0,.53,0,1.06,0,1.59-.02.53-.05,1.06-.05,1.58,0,20.05,0,40.1,0,60.15,0,4.39-.03,8.78-.05,13.17-.38,0-.76,0-1.13,0-.03-5.39-.07-10.77-.1-16.16,0-11.23,0-22.45,0-33.68,0-.52,0-1.04,0-1.56,0-1.81,0-3.62,0-5.43,0-7.08,0-14.15,0-21.23-.02-1.53.66-2.65,1.84-3.64,4.06-3.43,8.06-6.93,12.08-10.41.69-.6,1.44-1.05,2.34-1.25,0,0,.14.03.14.03,0,0,.13-.04.13-.04Z" style="fill: #2a2844; stroke-width: 0px;"/>
      <path d="m200.94.94c-6.87.01-13.74.03-20.61.03-43.82.01-87.64.02-131.46.03-1.16,0-2.32.03-3.49.05.65-1.1,1.76-.99,2.78-1,6.35-.03,12.69-.03,19.04-.03,43.73,0,87.47,0,131.2.01.53,0,1.06.03,1.58.05.32.29.64.57.96.86Z" style="fill: #2a2844; stroke-width: 0px;"/>
      <path d="m256.14,102.56c-.49-.37-.48-1.23-1.29-1.29.81-.73.98-1.65.98-2.71-.02-26.57-.02-53.14-.02-79.72,0-.68.11-1.38-.31-2-.15-.67-.73-.96-1.21-1.33-1.09-1.03-2.17-2.05-3.26-3.08.46-.02.93-.03,1.39-.05,1.09.91,2.19,1.81,3.27,2.73.76.65,1.19,1.46,1.22,2.48.02.63.07,1.27.07,1.9,0,26.17-.02,52.34.03,78.51,0,1.62-.45,3.06-.86,4.55Z" style="fill: #40384e; stroke-width: 0px;"/>
      <path d="m38.07,4.28c.66-.01,1.32,0,1.99-.04.47-.02.79-.3.83-.75.03-.34-.36-.26-.58-.34,1.53-.86,2.94-2.02,4.86-1.83-1.37,2.95-2.81,5.86-4.57,8.6-.33.52-.48,1.21-1.3,1.18.94-2.21,2.46-4.1,3.32-6.38-2.83,3.66-5.31,7.54-7.68,11.5-.23.18-.47.37-.7.55-.82.04-1.63.07-2.45.11l-.41-.09c.02-.4.05-.8.07-1.2,2.67-2.79,4.58-6.15,6.89-9.21.67-.88.7-1.51-.26-2.1Z" style="fill: #c7cacb; stroke-width: 0px;"/>
      <path d="m252.41,12.39c-.46.02-.93.03-1.39.05-2.47-2.13-4.95-4.26-7.42-6.39-.92-.79-1.79-1.75-3.09-1.76-4.42-.03-8.85-.21-13.27.09-2.94-.15-5.88-.22-8.82-.01-.32-.19-.64-.38-.96-.57l-.03-.61c.22-.02.44-.03.66-.05.84,0,1.67,0,2.51,0,.33,0,.66,0,.99,0,.41,0,.82,0,1.22,0,.44,0,.88,0,1.32,0,2.63,0,5.26,0,7.89,0,.65,0,1.3,0,1.95,0,2.54.04,5.07.08,7.61.13,3.16,1.78,5.46,4.59,8.27,6.8.91.71,1.72,1.54,2.58,2.32Z" style="fill: #2a2844; stroke-width: 0px;"/>
      <path d="m217.42,3.19c.01.2.02.41.03.61-.38.61-1.21.51-1.63,1.05-.26-.02-.52-.05-.77-.07-1.43-.82-1.51-2.52-2.37-3.71-.01-.13-.02-.26-.04-.38,1.92.2,3.48,1.1,4.78,2.5Z" style="fill: #e4e2d7; stroke-width: 0px;"/>
      <path d="m212.65.68c.01.13.02.26.04.38-3.92-.04-7.83-.09-11.75-.13-.32-.29-.64-.57-.96-.86,3.53-.02,7.07-.02,10.6-.07.8-.01,1.39.43,2.07.68Z" style="fill: #40384e; stroke-width: 0px;"/>
      <path d="m1.25,101.93c.47.01.9.1.97.68-.31.51-.62,1.03-.93,1.54-.5.52-.49,1.05-.03,1.58.12.31.24.63.35.94-.37.23-.31.61-.34.96-1.52-1.23-1.67-2.94-.46-5.1.15-.16.3-.31.44-.47,0,0-.05-.07-.05-.07l.06-.07Z" style="fill: #40384e; stroke-width: 0px;"/>
      <path d="m.26,99.37c.04-.95.08-1.91.11-2.86.38,0,.76,0,1.13,0,0,1.17.01,2.34.02,3.51-.35.12-.71.23-1.06.35-.07-.33-.14-.67-.21-1Z" style="fill: #40384e; stroke-width: 0px;"/>
      <path d="m220.59,3.14c-.84,0-1.67,0-2.51,0,.84-.02,1.67-1.22,2.51,0Z" style="fill: #e4e2d7; stroke-width: 0px;"/>
      <path d="m222.8,3.14c-.41,0-.82,0-1.22,0,.41-.33.82-.33,1.22,0Z" style="fill: #e4e2d7; stroke-width: 0px;"/>
      <path d="m1.27,107.64c.27.05.52.15.58.47-.24-.1-.58-.07-.58-.47Z" style="fill: #40384e; stroke-width: 0px;"/>
      <path d="m16.8,3.15s-.13.04-.13.04c0,0-.14-.03-.14-.03.09,0,.18,0,.27-.01Z" style="fill: #c7cacb; stroke-width: 0px;"/>
      <path d="m1.25,102.06c-.15.16-.3.31-.44.47.15-.16.3-.31.44-.47Z" style="fill: #2a2844; stroke-width: 0px;"/>
      <path d="m2.52,108.31c.11,0,.23.02.34.02-.11,0-.23-.02-.34-.02Z" style="fill: #b8a4a3; stroke-width: 0px;"/>
      <path d="m34.22,16.77c.23-.18.47-.37.7-.55.33,0,.66,0,.99.01-.04.1-.05.19-.03.29-.11.26-.34.49-.15.8-.33.34-.29.78-.28,1.19.03,2.83.08,5.66.12,8.49,0,5.08,2.23,9.17,5.88,12.49,3.55,3.22,7.82,4.61,12.63,4.6,22.79-.03,45.58,0,68.36,0,26.96,0,53.93,0,80.89,0,8.88,0,16.02-5.32,18.06-13.51.84-3.38.42-6.83.43-10.26,0-.94,0-1.88,0-2.83.1-.38-.07-.69-.28-.98-.11-.32-.22-.63-.33-.95.51-.49-.11-1.05.11-1.55.6.95,1.21,1.89,1.81,2.84-.11,3.84.06,7.69-.22,11.54-.44,6.1-3.03,10.97-7.71,14.8-1.1-.66-2.03-.35-2.92.45-.26.24-.65.35-.99.47-3.2,1.09-6.41,2.1-9.86,1.93-.41-.02-.98-.16-1.2.21-.61,1-1.55.72-2.4.74-6.18.14-12.33-.6-18.49-.59-33.61.07-67.23-.41-100.84.27-4.69.09-9.39.21-14.08.32-.51.01-1.11-.11-1.24.64-.65.02-1.3.04-1.95.06,0-.24.02-.47.03-.71.03-.66-.29-1.01-.95-.94-4.05.38-8.03-.65-12.06-.64-2.2-.43-4.16-1.36-5.99-2.65-1.91-1.35-3.28-3.25-5.1-4.68-1.76-2.76-2.75-5.78-2.84-9.04-.11-4.1-.06-8.2-.09-12.3Z" style="fill: #2a2844; stroke-width: 0px;"/>
      <path d="m55.56,16.59c3.01-.01,6.03-.04,9.04-.04,45.81,0,91.62,0,137.43,0,.48,0,.95.02,1.43.04,0,.3,0,.59,0,.89-1.8.02-3.6.05-5.39.05-39.83,0-79.67.02-119.5.02-7.67,0-15.34-.05-23.01-.07,0-.29,0-.59,0-.88Z" style="fill: #b8a4a3; stroke-width: 0px;"/>
      <path d="m55.56,16.59c0,.29,0,.59,0,.88-5.62,0-11.23.02-16.85.01-.99,0-2,.15-2.97-.17-.19-.31.04-.54.15-.8,5.82,0,11.65,0,17.47,0,.73,0,1.47.04,2.2.06Z" style="fill: #afacaf; stroke-width: 0px;"/>
      <path d="m203.46,17.48c0-.3,0-.59,0-.89,6.03-.02,12.06-.04,18.09-.05.21.29.38.6.28.98-6.12-.01-12.25-.03-18.37-.04Z" style="fill: #afacaf; stroke-width: 0px;"/>
      <path d="m35.91,16.23c-.33,0-.66,0-.99-.01,2.37-3.96,4.85-7.85,7.68-11.5-.86,2.27-2.38,4.17-3.32,6.38-1.12,1.71-2.25,3.42-3.37,5.14Z" style="fill: #40384e; stroke-width: 0px;"/>
      <path d="m221.32,14.03c-.21.51.4,1.07-.11,1.55-2.28-3.47-4.31-7.09-6.16-10.81.26.02.52.05.77.07,1.4,2.09,2.68,4.25,3.84,6.49.1.15.2.3.29.45.57.68,1.03,1.43,1.36,2.25Z" style="fill: #445068; stroke-width: 0px;"/>
      <path d="m39.34,101.32c-1.47.17-2.95.17-4.42,0-.52-.53-1.19-.34-1.81-.34-6.61-.01-13.22,0-19.84,0q-2.18,0-2.18-2.14c0-26.55,0-53.11,0-79.66,0-.37.02-.74,0-1.11-.06-.88.33-1.22,1.21-1.21,6.19.04,12.38.05,18.56.08-.02,4.17-.09,8.34-.01,12.51.03,1.45.3,2.91.74,4.34,1.37,4.51,4.1,8.08,7.68,10.99,2.79,2.27,6.05,3.67,9.63,4.11,4.51.55,9.06.3,13.59.3.63.02,1.27.06,1.9.06,45.94,0,91.88,0,137.83,0,.63,0,1.27-.04,1.9-.07,3.04.1,6-.4,8.79-1.57,7.89-3.29,12.37-9.34,13.29-17.73.47-4.27.07-8.64.06-12.97l.08-.04c4.43,0,8.86,0,13.3,0,.1,0,.21,0,.31,0,0,28.04,0,56.08,0,84.13-15.95,0-31.91,0-47.86,0-.04-1.69-.71-2.98-2.3-3.7-.4-.62-1.03-.43-1.58-.43-7.42-.01-14.83,0-22.25,0-.52,0-1.06-.11-1.52.25-1.83-.48-2.58-1.25-2.61-3.01-.06-4.49-.15-8.99,0-13.48.08-2.56-1.51-4.17-4.08-4.16-19.83.1-39.66.05-59.49.04-2.75,0-3.67.92-3.68,3.7,0,4.44.02,8.88,0,13.33-.01,2.17-.74,3.14-2.55,3.59-.36-.3-.79-.26-1.21-.26-7.39,0-14.79,0-22.18,0-.47,0-.96-.08-1.35.3-1.6.52-2.59,1.53-2.58,3.28,0,.73-.26,1.08-.99,1.04-.93-.04-1.87.13-2.79-.14-.4-.49-.96-.36-1.47-.36-6.21,0-12.42,0-18.64,0-.51,0-1.07-.12-1.48.34Zm-15.96-27.53c0,8.57,7.15,15.69,15.77,15.7,8.8,0,16.09-7.23,16.09-15.96,0-8.48-7.37-15.72-16-15.71-8.78.01-15.84,7.12-15.85,15.97Zm64.53,1.78c.15-5.03-4.4-10.12-9.82-10.06-6.06.07-10.11,4.56-10.06,9.92.06,5.84,4.13,10.08,10.21,10.15,5.35.06,9.71-4.9,9.67-10.01Zm89.69,9.85c5.06.48,10-4.32,9.98-10.06-.02-5.08-4.89-9.96-9.87-9.93-5.32.03-10.15,4.79-10.1,10.01.05,4.83,4.59,10.49,9.99,9.99Zm32.19-9.1c0,5.57,4.52,10.14,10.02,10.13,5.63-.01,10.3-4.62,10.27-10.13-.03-5.6-4.58-10.06-10.28-10.07-5.64-.01-10.01,4.38-10.01,10.07Zm-12.98,1.22c1.28.02,2.19-.78,2.17-1.81-.02-1.16-.68-1.87-1.82-2-1.08-.12-2.01.82-2,1.95,0,1.22.68,1.81,1.65,1.87Z" style="fill: #e5e2d6; stroke-width: 0px;"/>
      <path d="m94.89,96.83c.61-1.1.7-2.27.69-3.51-.03-3.05-.02-6.09.2-9.14.09-1.22.65-1.33,1.62-1.33,4.39.02,8.78,0,13.17,0,16.03,0,32.05.03,48.08-.03,1.66,0,2.07.5,2,2.07-.12,2.64.01,5.29-.05,7.93-.03,1.3.17,2.51.65,3.7-.28.16-.52.35-.51.73.02,1.89,1.49,3.39,3.44,3.39,7.76.02,15.53,0,23.29.02.66,0,1.26-.05,1.7-.62,0,2.06-.03,4.12.05,6.18.04,1.13-.4,1.54-1.48,1.44-.47-.04-.95,0-1.43,0-38.8,0-77.59,0-116.39,0-2.31,0-2.4,0-2.28-2.32.08-1.47-.73-2.92-.03-4.37,3.16-.04,6.3-.39,9.46-.33,4.9.09,9.81.04,14.72.01,2.29-.01,3.69-1.77,3.12-3.81Zm53.55-9.84h0c-2.01,0-4.01-.01-6.02.02-1.62.02-2.68.92-2.76,2.24-.08,1.26.84,2.41,2.38,2.42,4.37.05,8.75.37,13.11-.19.74-.09,1.29-.33,1.61-1.06.77-1.71-.21-3.35-2.16-3.42-2.05-.08-4.12-.02-6.17-.02Zm-40.73,0v.02c-2.11,0-4.22,0-6.33,0-1.39,0-2.44.65-2.58,2.04-.14,1.4.82,2.2,2.13,2.53.4.1.83.17,1.25.15,3.84-.09,7.69.26,11.52-.27,1.63-.23,2.45-.83,2.45-2.09,0-1.32-1.09-2.36-2.59-2.38-1.95-.03-3.9,0-5.85,0Zm22.34,2.51c-.28-.83-.71-1.63-1.91-1.55-1.26.08-1.77.94-1.72,2.01.05.96.75,1.61,1.77,1.67.88.05,1.91-1.09,1.86-2.12Zm21.01,4.96c.52.57,1.15.48,1.69.63.62.17.86-.28.83-.82-.03-.58-.48-.67-.91-.53-.53.17-1.14.21-1.61.72Zm-46.14.73c.44-.11.98-.17,1.01-.76.02-.49-.36-.72-.83-.73-.46-.02-.83.18-.9.66-.07.51.24.75.72.83Zm40.71-1.06c-.01.1-.02.2-.04.3.52.14,1.04.3,1.57.42.43.09.72-.1.7-.57-.02-.49-.33-.6-.75-.5-.5.11-.99.24-1.48.36Zm-32.02.18c-.01-.42-.25-.65-.7-.6-.39.04-.74.22-.76.65-.02.53.39.72.83.73.44,0,.61-.34.63-.78Zm1.75.82c.33-.18.71-.39.66-.89-.04-.36-.34-.51-.68-.5-.4.02-.7.25-.7.68,0,.4.22.68.72.71Zm33.77,0c.45-.04.63-.34.66-.73.03-.33-.08-.67-.48-.66-.42,0-.9.14-.9.66,0,.37.34.62.72.73Z" style="fill: #46546a; stroke-width: 0px;"/>
      <path d="m239.95,100.98c0-28.04,0-56.08,0-84.13,5.18,0,10.35,0,15.53,0,.43.62.31,1.32.31,2,0,26.57,0,53.14.02,79.72,0,1.06-.17,1.98-.98,2.71-.41.07-.81.14-1.22.2-.63-.04-1.25-.1-1.88-.1-3.93-.03-7.86-.05-11.79-.07,0-.11-.01-.21-.02-.32Z" style="fill: #c7cacb; stroke-width: 0px;"/>
      <path d="m21.57,110.83c12.96,0,25.92-.03,38.88,0,1.54,0,2.84-.26,3.74-1.58.46-.67.75-.52,1.15.04.88,1.23,2.11,1.54,3.6,1.54,39.52-.03,79.03-.03,118.55,0,1.33,0,2.53-.14,3.41-1.26.41-.52.83-.6,1.28-.04.93,1.14,2.21,1.3,3.58,1.29,15.13-.01,30.26-.02,45.39.02,1.02,0,2.76-.86,2.65,1.49-.09,1.92-.49,2.28-2.91,2.28-13.54,0-27.08,0-40.63,0-58.98,0-117.97,0-176.95,0-.58,0-1.16-.02-1.74-.03,0-1.25,0-2.51,0-3.76Z" style="fill: #3a4665; stroke-width: 0px;"/>
      <path d="m30.88,16.92c-6.19-.02-12.38-.04-18.56-.08-.88,0-1.28.33-1.21,1.21.03.37,0,.74,0,1.11,0,26.55,0,53.11,0,79.66q0,2.14,2.18,2.14c6.61,0,13.22,0,19.84,0,.61,0,1.28-.19,1.81.34-7.28.03-14.56.06-21.85.08-3.06,0-6.12,0-9.18,0-1.05,0-2.02-.15-2.37-1.38,0-1.17-.01-2.34-.02-3.51.02-4.39.05-8.78.05-13.17,0-20.05,0-40.1,0-60.15,0-.53.03-1.06.05-1.58.54,0,.91-.16.91-.79,0-.63-.37-.8-.91-.8,0-.32,0-.63,0-.95.35-.07.54-.28.63-.62.61-2.25,2.19-2.91,4.37-2.89,8.27.05,16.54.02,24.81.02-.02.4-.05.8-.07,1.2-.16.04-.33.09-.49.13Z" style="fill: #f6f4e1; stroke-width: 0px;"/>
      <path d="m1.61,106.67c-.12-.31-.24-.63-.35-.94.01-.53.02-1.06.03-1.58.31-.51.62-1.03.93-1.54,1.79-.04,3.59-.11,5.38-.11,18.39,0,36.78.04,55.18-.01,1.64,0,2.06.48,2,2.05-.12,3.07-.03,3.07-3.16,3.07-15.38,0-30.76.03-46.14,0-4.06,0-8.13-.18-12.19-.24-.7,0-1.22-.24-1.68-.71Z" style="fill: #5b687c; stroke-width: 0px;"/>
      <path d="m239.92,107.51c-8.02.12-16.04.24-24.06-.08-2.94-.12-5.9.15-8.85.17-4.49.04-8.98-.02-13.46.03-1.16.01-1.64-.31-1.54-1.52.09-1.1,0-2.22,0-3.32,1.79-.84,3.64-.26,5.47-.26,12.53.01,25.07,0,37.6,0,1.63,0,3.26-.47,4.88.04,0,1.64-.02,3.28-.03,4.93Z" style="fill: #5b687c; stroke-width: 0px;"/>
      <path d="m128.28,78.44c9.51,0,19.03,0,28.54,0,.98,0,1.96-.05,2.19,1.26.27,1.49-.06,1.89-1.58,1.92-.37,0-.74,0-1.11,0-10.83-.25-21.65.59-32.47.27-8.18-.24-16.37-.26-24.55-.26-1.17,0-1.92-.16-1.89-1.61.03-1.48.93-1.57,2.01-1.57,9.62,0,19.24,0,28.86,0Z" style="fill: #3a4665; stroke-width: 0px;"/>
      <path d="m239.92,107.51c0-1.64.02-3.28.03-4.93,3.93-.09,7.85-.34,11.78-.05.47,0,.95.02,1.42.02,2.27.02,2.89.71,2.7,2.97-.1,1.21-.72,1.8-1.93,1.8-2.05,0-4.1.09-6.15-.02-2.63-.14-5.22.6-7.85.2Z" style="fill: #46546a; stroke-width: 0px;"/>
      <path d="m251.73,102.53c-3.93-.29-7.85-.03-11.78.05-1.62-.51-3.25-.04-4.88-.04-12.53,0-25.07,0-37.6,0-1.83,0-3.68-.58-5.47.26.01-.5.02-.99.03-1.49.63.03,1.26.1,1.89.1,14.35,0,28.7,0,43.05,0,1,0,2-.06,3-.09,3.93.02,7.86.04,11.79.07.63,0,1.25.07,1.88.1-.34.89-1.71-.08-1.91,1.06Z" style="fill: #40384e; stroke-width: 0px;"/>
      <path d="m94.89,96.83c.57,2.04-.83,3.8-3.12,3.81-4.91.03-9.81.08-14.72-.01-3.17-.06-6.31.3-9.46.33-.23-1.67.41-2.63,2.19-2.68.68-.02,1.36-.15,2.04-.15,6.33-.01,12.65-.05,18.98.01,1.56.01,2.9-.35,4.1-1.32Z" style="fill: #3a4665; stroke-width: 0px;"/>
      <path d="m189.15,100.05c-.44.56-1.04.62-1.7.62-7.76-.01-15.53,0-23.29-.02-1.94,0-3.42-1.5-3.44-3.39,0-.38.23-.56.51-.73,1.27,1.45,2.91,1.57,4.73,1.64,6.97.29,13.95.23,20.92.25,1.16,0,2.13.21,2.26,1.63Z" style="fill: #3a4665; stroke-width: 0px;"/>
      <path d="m21.57,110.83c0,1.25,0,2.51,0,3.76-2,0-4,.02-6,.03-1.06,0-1.83-.41-2.15-1.48-.52-1.73-.11-2.31,1.68-2.32,2.16,0,4.32,0,6.47.01Z" style="fill: #46546a; stroke-width: 0px;"/>
      <path d="m239.97,101.3c-1,.03-2,.09-3,.09-14.35,0-28.7.01-43.05,0-.63,0-1.26-.06-1.89-.1.02-.11.04-.22.06-.33,15.95,0,31.91,0,47.86,0,0,.11.01.21.02.32Z" style="fill: #efecdc; stroke-width: 0px;"/>
      <path d="m164.44,97.1c.46-.36,1.01-.25,1.52-.25,7.42,0,14.83,0,22.25,0,.55,0,1.18-.19,1.58.43-7.34-.03-14.69-.06-22.03-.09-1.11,0-2.22-.06-3.32-.09Z" style="fill: #f6f4e1; stroke-width: 0px;"/>
      <path d="m67.29,97.15c.38-.39.88-.3,1.35-.3,7.39,0,14.79,0,22.18,0,.42,0,.85-.05,1.21.26-8.25.02-16.49.03-24.74.05Z" style="fill: #f6f4e1; stroke-width: 0px;"/>
      <path d="m39.34,101.32c.41-.46.97-.34,1.48-.34,6.21,0,12.42,0,18.64,0,.51,0,1.07-.13,1.47.36-7.2,0-14.39-.01-21.59-.02Z" style="fill: #f6f4e1; stroke-width: 0px;"/>
      <path d="m31.44,15.59c-8.27,0-16.54.03-24.81-.02-2.18-.01-3.76.65-4.37,2.89-.09.34-.29.55-.63.62-.33-1.52.31-2.62,1.44-3.59,3.84-3.27,7.68-6.55,11.47-9.89,1.1-.97,2.27-1.41,3.73-1.39,4.91.06,9.82.06,14.73.08.43.62.87.62,1.31,0,1.26,0,2.51,0,3.77-.01.96.59.93,1.21.26,2.1-2.31,3.06-4.22,6.42-6.89,9.21Z" style="fill: #efecdc; stroke-width: 0px;"/>
      <path d="m1.62,20.03c.54,0,.91.17.91.8,0,.63-.37.8-.91.79,0-.53,0-1.06,0-1.59Z" style="fill: #efecdc; stroke-width: 0px;"/>
      <path d="m34.3,4.3c-.44.61-.88.62-1.31,0,.44,0,.87,0,1.31,0Z" style="fill: #c7cacb; stroke-width: 0px;"/>
      <path d="m227.24,4.38c4.42-.29,8.84-.12,13.27-.09,1.31,0,2.17.97,3.09,1.76,2.47,2.13,4.94,4.26,7.42,6.39,1.09,1.03,2.17,2.05,3.26,3.08-.5.58-1.18.37-1.79.37-4.39.02-8.77.02-13.16.02-.62-.29-1.15-.71-1.64-1.19-3.08-2.99-6.19-5.96-9.26-8.96-.43-.42-1.15-.62-1.18-1.38Z" style="fill: #c7cacb; stroke-width: 0px;"/>
      <path d="m239.33,15.91c4.39,0,8.77,0,13.16-.02.61,0,1.29.21,1.79-.37.48.37,1.06.65,1.21,1.33-5.18,0-10.35,0-15.53,0-.1,0-.21,0-.31,0-.11-.31-.21-.63-.32-.94Z" style="fill: #e4e2d7; stroke-width: 0px;"/>
      <path d="m34.22,16.77c.02,4.1-.03,8.2.09,12.3.09,3.25,1.07,6.28,2.84,9.04-.11.64.3,1.08.6,1.57.61,1.01,1.61,1.63,2.45,2.41,2.31,2.14,5.01,3.52,8.05,4.29,1.48.37,2.99.37,4.49.32.83-.03,1.31.23,1.24,1.14-1.53.23-3.05.02-4.58-.12-9.26-.87-17.53-9.82-17.6-19.09-.03-3.91-.02-7.83-.02-11.74.82-.04,1.63-.07,2.45-.11Z" style="fill: #46546a; stroke-width: 0px;"/>
      <path d="m31.78,16.88c0,3.91,0,7.83.02,11.74.07,9.27,8.34,18.22,17.6,19.09,1.53.14,3.05.35,4.58.12.2,0,.39,0,.59,0,.76.15,1.52.15,2.28,0l3.43-.03c.33.14.64.12.95-.07.65-.02,1.3-.04,1.95-.06,2.88.32,5.77.19,8.66.23,4.2.05,8.41.09,12.61.14-.3.87-1.04.57-1.62.57-6.17.02-12.35,0-18.52.03-.63,0-1.42-.33-1.8.56-4.53,0-9.08.25-13.59-.3-3.58-.44-6.84-1.84-9.63-4.11-3.58-2.91-6.31-6.49-7.68-10.99-.44-1.43-.71-2.89-.74-4.34-.08-4.17,0-8.34.01-12.51.16-.04.33-.09.49-.13.14.03.27.06.41.09Z" style="fill: #afacaf; stroke-width: 0px;"/>
      <path d="m239.33,15.91c.11.31.21.63.32.94-4.43,0-8.86,0-13.3,0-1.06-2.31-2.64-4.28-4.04-6.38-1.33-2.01-2.88-3.88-3.89-6.1,2.94-.21,5.88-.14,8.82.01.03.76.75.96,1.18,1.38,3.07,3,6.18,5.97,9.26,8.96.5.48,1.02.9,1.64,1.19Z" style="fill: #efecdc; stroke-width: 0px;"/>
      <path d="m218.42,4.37c1.01,2.22,2.56,4.09,3.89,6.1,1.39,2.1,2.98,4.07,4.04,6.38,0,0-.08.04-.08.04-.5.41-.06,1.17-.59,1.56q-.1-1.75-2.55-1.58c-.6-.95-1.21-1.89-1.81-2.84-.34-.82-.79-1.57-1.36-2.25-.1-.15-.2-.3-.29-.45-1.16-2.23-2.44-4.39-3.84-6.49.42-.54,1.25-.44,1.63-1.05.32.19.64.38.96.57Z" style="fill: #c7cacb; stroke-width: 0px;"/>
      <path d="m1.29,104.14c-.01.53-.02,1.06-.03,1.58-.46-.54-.46-1.07.03-1.58Z" style="fill: #2a2844; stroke-width: 0px;"/>
      <path d="m221.83,20.34c0,3.43.42,6.88-.43,10.26-2.04,8.19-9.18,13.51-18.06,13.51-26.96,0-53.93,0-80.89,0-22.79,0-45.58-.04-68.36,0-4.81,0-9.08-1.38-12.63-4.6-3.66-3.32-5.88-7.41-5.88-12.49.4-.45.28-1,.28-1.52.01-1.16.08-2.33-.02-3.49-.12-1.37.46-1.82,1.74-1.66.31.04.63,0,.95,0,61.1,0,122.2,0,183.3,0Z" style="fill: #e4e2d7; stroke-width: 0px;"/>
      <path d="m221.83,20.34c-61.1,0-122.2,0-183.3,0-.32,0-.64.03-.95,0-1.28-.16-1.85.29-1.74,1.66.1,1.16.03,2.33.02,3.49,0,.52.12,1.07-.28,1.52-.04-2.83-.09-5.66-.12-8.49,0-.41-.05-.85.28-1.19.97.32,1.98.17,2.97.17,5.62,0,11.23,0,16.85-.01,7.67.02,15.34.07,23.01.07,39.83,0,79.67,0,119.5-.02,1.8,0,3.6-.03,5.39-.05,6.12.01,12.25.03,18.37.04,0,.94,0,1.88,0,2.83Z" style="fill: #f6f4e1; stroke-width: 0px;"/>
      <path d="m84.44,48.02c-4.2-.05-8.41-.09-12.61-.14-2.89-.04-5.78.09-8.66-.23.13-.75.73-.63,1.24-.64,4.69-.11,9.39-.22,14.08-.32,33.61-.68,67.23-.2,100.84-.27,6.16-.01,12.32.73,18.49.59.86-.02,1.79.25,2.4-.74.23-.37.79-.23,1.2-.21,3.45.17,6.66-.84,9.86-1.93.35-.12.73-.24.99-.47.89-.8,1.82-1.11,2.92-.45-.9,1.44-2.17,2.39-3.81,2.83-.68-.56-1.13-.08-1.59.34l-.6.03c-.41-.02-.62.19-.69.57-2.02.53-4.08.26-6.12.35-.54.02-1.2-.21-1.51.52-.95,0-1.9.04-2.85,0-4.86-.2-9.72,0-14.58.15-.47-.02-.95-.07-1.42-.07-31.95,0-63.9,0-95.85,0-.58,0-1.16.05-1.74.08Z" style="fill: #40384e; stroke-width: 0px;"/>
      <path d="m211.4,46.04c1.64-.44,2.91-1.39,3.81-2.83,4.68-3.84,7.27-8.7,7.71-14.8.28-3.85.11-7.69.22-11.54q2.44-.17,2.55,1.58c-.09,3.37-.25,6.74-.27,10.11-.02,5.38-2.15,9.85-5.87,13.56-5.17,5.17-11.63,6.45-18.66,5.74.31-.73.97-.49,1.51-.52,2.04-.09,4.1.17,6.12-.35.4.01.62-.19.69-.57.2-.01.4-.02.6-.03.68.58,1.13.08,1.59-.34Z" style="fill: #5b687c; stroke-width: 0px;"/>
      <path d="m60.27,47.8c-1.14,0-2.29.02-3.43.03-.72-1.16-1.58-1.16-2.28,0-.2,0-.39,0-.59,0,.07-.91-.41-1.17-1.24-1.14-1.51.05-3.01.05-4.49-.32,0-.31,0-.63,0-.94,4.03-.02,8.01,1.02,12.06.64.66-.06.98.28.95.94-.55-.02-.96.14-.97.78Z" style="fill: #40384e; stroke-width: 0px;"/>
      <path d="m48.24,45.43c0,.31,0,.63,0,.94-3.04-.76-5.75-2.14-8.05-4.29-.84-.78-1.84-1.39-2.45-2.41-.3-.49-.71-.93-.6-1.57,1.82,1.43,3.19,3.33,5.1,4.68,1.83,1.29,3.79,2.22,5.99,2.65Z" style="fill: #3a4665; stroke-width: 0px;"/>
      <path d="m60.27,47.8c.01-.65.42-.8.97-.78,0,.24-.02.47-.03.71-.3.19-.62.22-.95.07Z" style="fill: #46546a; stroke-width: 0px;"/>
      <path d="m219.67,11.33c.1.15.2.3.29.45-.1-.15-.2-.3-.29-.45Z" style="fill: #2a2844; stroke-width: 0px;"/>
      <path d="m84.44,48.02c.58-.03,1.16-.08,1.74-.08,31.95,0,63.9,0,95.85,0,.47,0,.95.05,1.42.07.28.88,1.03.58,1.61.58,5.8.02,11.61,0,17.41.03.59,0,1.31-.27,1.65.54-.63.02-1.27.07-1.9.07-45.94,0-91.88,0-137.83,0-.63,0-1.27-.04-1.9-.06.38-.89,1.17-.55,1.8-.56,6.17-.02,12.35,0,18.52-.03.57,0,1.32.3,1.62-.57Z" style="fill: #c1c2c4; stroke-width: 0px;"/>
      <path d="m23.39,73.79c0-8.84,7.07-15.95,15.85-15.97,8.63-.01,16,7.23,16,15.71,0,8.73-7.29,15.96-16.09,15.96-8.62,0-15.77-7.13-15.77-15.7Zm30.6-.08c.58-7.48-7-14.63-14.41-14.71-7.95-.08-14.86,5.94-15.04,14.91-.15,7.58,6.83,14.4,14.32,14.46,7.58.07,15.64-6.71,15.13-14.66Z" style="fill: #2a2844; stroke-width: 0px;"/>
      <path d="m87.92,75.57c.04,5.11-4.32,10.07-9.67,10.01-6.07-.07-10.15-4.31-10.21-10.15-.05-5.36,4-9.86,10.06-9.92,5.42-.06,9.97,5.03,9.82,10.06Zm-9.86,7.95c4.55-.02,8-3.5,7.97-8.04-.03-4.4-3.83-8.07-8.29-8.01-4.19.05-7.82,3.9-7.77,8.22.05,4.33,3.69,7.85,8.1,7.83Z" style="fill: #c1c2c4; stroke-width: 0px;"/>
      <path d="m177.6,85.43c-5.4.5-9.95-5.16-9.99-9.99-.05-5.22,4.78-9.97,10.1-10.01,4.98-.03,9.84,4.85,9.87,9.93.03,5.74-4.92,10.54-9.98,10.06Zm-.13-1.89c4.63.04,8.25-3.45,8.15-8.03-.1-4.5-3.18-7.9-8.18-8.1-4.23-.17-7.91,3.79-7.89,8.25.02,4.15,3.74,7.85,7.92,7.88Z" style="fill: #c1c2c4; stroke-width: 0px;"/>
      <path d="m209.8,76.32c0-5.69,4.36-10.08,10.01-10.07,5.7.01,10.25,4.46,10.28,10.07.03,5.51-4.64,10.11-10.27,10.13-5.5.01-10.02-4.55-10.02-10.13Zm18.58,1.27c.75-5.34-2.71-9.62-7.76-9.61-.45-.86-1.24-.71-1.95-.57-3.55.68-6.08,2.64-7.15,6.14-1.19,3.89-.13,7.19,3.02,9.75,2.77,2.25,5.86,2.37,9.06,1.06,3.04-1.25,5.07-4.17,4.78-6.76Z" style="fill: #40384e; stroke-width: 0px;"/>
      <path d="m204.13,49.15c-.34-.81-1.07-.54-1.65-.54-5.8-.02-11.61,0-17.41-.03-.57,0-1.32.3-1.61-.58,4.86-.16,9.72-.35,14.58-.15.95.04,1.9,0,2.85,0,7.03.71,13.48-.57,18.66-5.74,3.71-3.71,5.85-8.18,5.87-13.56.01-3.37.17-6.74.27-10.11.54-.39.09-1.15.59-1.56,0,4.33.41,8.69-.06,12.97-.93,8.39-5.4,14.44-13.29,17.73-2.8,1.17-5.75,1.67-8.79,1.57Z" style="fill: #afacaf; stroke-width: 0px;"/>
      <path d="m196.81,77.54c-.98-.06-1.65-.64-1.65-1.87,0-1.13.92-2.07,2-1.95,1.15.13,1.8.84,1.82,2,.02,1.04-.89,1.83-2.17,1.81Z" style="fill: #2a2844; stroke-width: 0px;"/>
      <path d="m148.45,87c2.06,0,4.12-.06,6.17.02,1.95.07,2.93,1.72,2.16,3.42-.32.72-.87.96-1.61,1.06-4.36.56-8.74.24-13.11.19-1.54-.02-2.46-1.16-2.38-2.42.08-1.33,1.14-2.22,2.76-2.24,2-.03,4.01,0,6.02,0h0Zm-5.94,2.6c.22.7.81.56,1.31.56,3.27.01,6.54.02,9.81.01.5,0,1.1.15,1.32-.55.38-1.1.02-1.48-1.16-1.4-1.68.1-3.37.04-5.05.04-2,0-4,0-6,0-.55,0-1.13.11-1.16.79-.02.6.53.53.94.56Z" style="fill: #2a2844; stroke-width: 0px;"/>
      <path d="m107.72,86.99c1.95,0,3.9-.02,5.85,0,1.5.02,2.59,1.06,2.59,2.38,0,1.26-.83,1.87-2.45,2.09-3.83.53-7.68.17-11.52.27-.41.01-.84-.05-1.25-.15-1.31-.33-2.27-1.13-2.13-2.53.14-1.4,1.19-2.04,2.58-2.04,2.11,0,4.22,0,6.33,0v-.02Zm5.95,2.3c.57-.49.85-1.03-.22-1.04-3.94-.05-7.87-.02-11.81-.01-.52,0-.98.2-1.02.77-.04.61.42.78.95.78.17.11.34.32.52.32,3.57.03,7.15.04,10.72.06.61,0,.84-.33.86-.88Z" style="fill: #2a2844; stroke-width: 0px;"/>
      <path d="m130.05,89.5c.05,1.02-.98,2.17-1.86,2.12-1.02-.06-1.72-.71-1.77-1.67-.05-1.07.47-1.93,1.72-2.01,1.19-.07,1.63.72,1.91,1.55Z" style="fill: #2a2844; stroke-width: 0px;"/>
      <path d="m151.06,94.46c.47-.5,1.08-.54,1.61-.72.43-.14.88-.05.91.53.03.54-.21.99-.83.82-.54-.15-1.17-.06-1.69-.63Z" style="fill: #40384e; stroke-width: 0px;"/>
      <path d="m104.92,95.19c-.49-.08-.8-.33-.72-.83.07-.49.44-.68.9-.66.47.02.85.24.83.73-.03.59-.56.66-1.01.76Z" style="fill: #40384e; stroke-width: 0px;"/>
      <path d="m145.63,94.14c.49-.12.99-.25,1.48-.36.42-.1.73.02.75.5.02.47-.26.66-.7.57-.53-.11-1.05-.27-1.57-.42.01-.1.02-.2.04-.3Z" style="fill: #40384e; stroke-width: 0px;"/>
      <path d="m113.61,94.32c-.02.44-.19.78-.63.78-.44,0-.85-.2-.83-.73.02-.43.37-.61.76-.65.44-.05.68.18.7.6Z" style="fill: #2a2844; stroke-width: 0px;"/>
      <path d="m115.36,95.14c-.5-.03-.72-.3-.72-.71,0-.43.29-.66.7-.68.33-.02.64.14.68.5.06.5-.32.71-.66.89Z" style="fill: #2a2844; stroke-width: 0px;"/>
      <path d="m149.13,95.14c-.38-.11-.72-.36-.72-.73,0-.52.47-.65.9-.66.4,0,.51.32.48.66-.03.39-.21.7-.66.73Z" style="fill: #40384e; stroke-width: 0px;"/>
      <path d="m54.57,47.83c.7-1.17,1.56-1.17,2.28,0-.76.16-1.52.16-2.28,0Z" style="fill: #46546a; stroke-width: 0px;"/>
      <path d="m211.4,46.04c-.46.42-.91.92-1.59.34.47-.42.92-.9,1.59-.34Z" style="fill: #46546a; stroke-width: 0px;"/>
      <path d="m209.21,46.41c-.07.38-.29.59-.69.57.07-.39.28-.6.69-.57Z" style="fill: #46546a; stroke-width: 0px;"/>
      <path d="m53.98,73.71c.51,7.96-7.56,14.73-15.13,14.66-7.48-.07-14.47-6.88-14.32-14.46.18-8.97,7.1-14.99,15.04-14.91,7.41.07,14.99,7.23,14.41,14.71Zm-22.47-4.17c-.58,0-1.17.05-1.74-.01-1.57-.18-2.29.7-2.41,2.07-.11,1.31-.11,2.65.02,3.95.15,1.46,1.06,2.25,2.58,2.24,1,0,2.02.09,3.01-.02,1.49-.15,2.09.33,1.98,1.91-.38,5.18,1.02,5.6,5.48,5.43,2.08-.08,2.97-.91,3.04-3.01.03-1.06.03-2.12,0-3.17-.02-.81.32-1.15,1.13-1.13,1.11.03,2.22,0,3.33,0,2.7-.02,3.47-.8,3.48-3.52.02-4.34-.13-4.49-4.41-4.73q-3.52-.19-3.52-3.74c0-.32,0-.63,0-.95-.04-1.95-.76-3-2.62-3.14-5.28-.38-6.09.02-5.97,4.78.09,3.45.32,3.04-3.38,3.06Z" style="fill: #445068; stroke-width: 0px;"/>
      <path d="m78.05,83.52c-4.41.02-8.05-3.5-8.1-7.83-.05-4.33,3.58-8.17,7.77-8.22,4.47-.06,8.26,3.61,8.29,8.01.03,4.54-3.42,8.02-7.97,8.04Zm-.28-14.68c-3.59-.06-6.42,2.88-6.5,6.77-.08,3.57,2.98,6.65,6.63,6.69,3.74.04,6.79-2.93,6.84-6.66.05-3.87-2.87-6.73-6.97-6.8Z" style="fill: #40384e; stroke-width: 0px;"/>
      <path d="m177.47,83.53c-4.18-.03-7.9-3.73-7.92-7.88-.02-4.46,3.66-8.41,7.89-8.25,5,.2,8.08,3.59,8.18,8.1.1,4.58-3.51,8.07-8.15,8.03Zm.12-14.69c-3.79-.06-6.72,2.8-6.79,6.64-.07,3.69,3.07,6.84,6.87,6.87,3.47.04,6.67-3.25,6.72-6.9.05-3.75-2.83-6.55-6.79-6.61Z" style="fill: #40384e; stroke-width: 0px;"/>
      <path d="m228.38,77.6c.3,2.59-1.73,5.51-4.78,6.76-3.2,1.31-6.29,1.19-9.06-1.06-3.15-2.55-4.21-5.86-3.02-9.75,1.08-3.5,3.6-5.46,7.15-6.14.71-.14,1.5-.29,1.95.57-.04.57.22.84.79.96,4.26.88,5.94,3.82,6.19,7.86.03.52.03,1,.77.8Z" style="fill: #46546a; stroke-width: 0px;"/>
      <path d="m228.38,77.6c-.74.2-.74-.28-.77-.8-.26-4.04-1.94-6.98-6.19-7.86-.57-.12-.83-.39-.79-.96,5.05,0,8.51,4.28,7.76,9.61Z" style="fill: #afacaf; stroke-width: 0px;"/>
      <path d="m154.94,89.62c-.22.71-.81.55-1.32.55-3.27,0-6.54,0-9.81-.01-.5,0-1.1.14-1.31-.56.38-.78,1.1-.69,1.77-.69,2.67,0,5.35.03,8.02-.02.98-.02,1.85.15,2.64.73Z" style="fill: #445068; stroke-width: 0px;"/>
      <path d="m154.94,89.62c-.79-.58-1.66-.75-2.64-.73-2.67.05-5.35.02-8.02.02-.68,0-1.4-.09-1.77.69-.41-.03-.96.05-.94-.56.03-.68.61-.78,1.16-.79,2,0,4,0,6,0,1.69,0,3.38.06,5.05-.04,1.18-.07,1.53.31,1.16,1.4Z" style="fill: #5b687c; stroke-width: 0px;"/>
      <path d="m113.66,89.29c-.02.55-.26.88-.86.88-3.57-.02-7.15-.03-10.72-.06-.17,0-.34-.21-.52-.32.01-.18.02-.37.04-.55,2.88,0,5.75.01,8.63-.03.81-.01,1.68.25,2.44-.27.33.12.66.23.99.35Z" style="fill: #3a4665; stroke-width: 0px;"/>
      <path d="m113.66,89.29c-.33-.12-.66-.23-.99-.35-.18-.1-.36-.29-.54-.29-3.26-.02-6.51-.03-9.77-.03-.42,0-.71.17-.77.62-.01.18-.02.37-.04.55-.53,0-.99-.17-.95-.78.04-.56.49-.76,1.02-.77,3.94,0,7.87-.04,11.81.01,1.07.01.79.55.22,1.04Z" style="fill: #5b687c; stroke-width: 0px;"/>
      <path d="m31.51,69.53c3.7-.02,3.48.39,3.38-3.06-.13-4.76.69-5.15,5.97-4.78,1.86.13,2.58,1.19,2.62,3.14,0,.32,0,.63,0,.95q0,3.55,3.52,3.74c4.29.24,4.43.39,4.41,4.73,0,2.72-.78,3.5-3.48,3.52-1.11,0-2.22.03-3.33,0-.81-.02-1.15.33-1.13,1.13.02,1.06.03,2.12,0,3.17-.07,2.11-.96,2.93-3.04,3.01-4.46.17-5.86-.25-5.48-5.43.12-1.58-.49-2.07-1.98-1.91-.99.1-2.01.01-3.01.02-1.52,0-2.43-.78-2.58-2.24-.13-1.31-.13-2.65-.02-3.95.12-1.38.83-2.25,2.41-2.07.57.07,1.16.01,1.74.01Zm10.24-3.21c.52-1.17.82-2.35-.39-3.28-.68-.52-4.29-.24-4.74.3-.14.17-.07.5-.1.76-.45,1.2-.32,2.46-.33,3.7-.03,2.23-.42,2.68-2.66,2.99-1.17-.37-2.36-.09-3.54-.08-1.1,0-1.51.49-1.32,1.55-.03.53-.1,1.05-.09,1.58.06,2.08.34,2.34,2.43,2.34.85,0,1.69,0,2.54,0,2.2,0,2.62.42,2.63,2.56q.04,4.82,4.86,4.35c1.05.03.98-.77,1.01-1.43.06-1.26.06-2.53.08-3.79.25-1.34,1.15-1.63,2.39-1.72,1.66-.11,3.45.62,4.98-.58.94-1.03.53-2.29.53-3.46,0-.65-.26-1.26-1.1-1.25-1.52-.71-3.13-.28-4.69-.35-1.43-.06-2.15-.61-2.08-2.13.03-.69.31-1.5-.43-2.06Z" style="fill: #2a2844; stroke-width: 0px;"/>
      <path d="m77.77,68.84c4.09.07,7.02,2.92,6.97,6.8-.05,3.73-3.1,6.7-6.84,6.66-3.65-.04-6.71-3.12-6.63-6.69.08-3.88,2.91-6.82,6.5-6.77Z" style="fill: #f33c43; stroke-width: 0px;"/>
      <path d="m177.6,68.84c3.96.06,6.84,2.87,6.79,6.61-.05,3.65-3.25,6.93-6.72,6.9-3.79-.04-6.93-3.18-6.87-6.87.07-3.84,3-6.7,6.79-6.64Z" style="fill: #f33c43; stroke-width: 0px;"/>
      <path d="m101.6,89.24c.06-.45.35-.62.77-.62,3.26,0,6.51,0,9.77.03.18,0,.36.19.54.29-.76.53-1.63.26-2.44.27-2.88.04-5.75.02-8.63.03Z" style="fill: #46546a; stroke-width: 0px;"/>
      <path d="m33.53,70.81c2.24-.31,2.64-.76,2.66-2.99.01-1.24-.12-2.5.33-3.7.31-.04.63-.06.94-.12q2.81-.49,3.92,2.03c.06.13.23.2.35.31.73.56.46,1.37.43,2.06-.07,1.52.65,2.07,2.08,2.13,1.57.07,3.18-.36,4.69.35.36,1.55.05,3.18.57,4.71-1.54,1.2-3.32.47-4.98.58-1.24.08-2.14.38-2.39,1.72-1.05-.09-1,.72-1.03,1.36-.07,1.29-.05,2.58-.06,3.86q-4.81.47-4.86-4.35c-.02-2.14-.44-2.55-2.63-2.56-.85,0-1.69,0-2.54,0-2.09,0-2.37-.26-2.43-2.34-.02-.52.06-1.05.09-1.58,1.49-.91,3.11-1.4,4.85-1.47Z" style="fill: #46546a; stroke-width: 0px;"/>
      <path d="m41.75,66.32c-.12-.1-.3-.18-.35-.31q-1.12-2.52-3.92-2.03c-.31.05-.63.08-.94.12.03-.26-.04-.59.1-.76.44-.55,4.05-.83,4.74-.3,1.2.92.9,2.11.39,3.28Z" style="fill: #afacaf; stroke-width: 0px;"/>
      <path d="m41.05,83.1c.02-1.29,0-2.58.06-3.86.03-.63-.01-1.44,1.03-1.36-.02,1.26-.02,2.53-.08,3.79-.03.66.04,1.46-1.01,1.43Z" style="fill: #afacaf; stroke-width: 0px;"/>
      <path d="m49.52,75.58c-.52-1.53-.21-3.16-.57-4.71.85,0,1.11.6,1.1,1.25,0,1.17.4,2.43-.53,3.46Z" style="fill: #afacaf; stroke-width: 0px;"/>
      <path d="m33.53,70.81c-1.74.07-3.36.56-4.85,1.47-.2-1.06.21-1.54,1.32-1.55,1.18,0,2.37-.29,3.54.08Z" style="fill: #afacaf; stroke-width: 0px;"/>
    </g>
  </g>
</svg>