<?xml version="1.0" encoding="UTF-8"?>
<svg id="Calque_2" data-name="Calque 2" xmlns="http://www.w3.org/2000/svg" viewBox="0 0 247.87 124.1">
  <g id="Calque_1-2" data-name="Calque 1">
    <g>
      <path d="m233.09,108.87c-1.08,16.28-19.58,6.21-21.74,10.94.02,3.48-.84,4.29-4.28,4.28-8.5,0-16.99,0-25.49,0-3.06,0-4.13-1-4.1-4.04-32.39-4.36-71.14,0-105.61-1.46-4.68-.59-.17,5.45-5.72,5.48-9.08.03-18.15.03-27.23.01-2.2,0-3.43-1.22-3.28-3.51.11-1.72-.47-2.08-2.07-2.01-8.24.36-19.25,1.28-19.47-9.86,1-7.32-15.94,5.71-13.82-14.52,1.78-.8.5,2.48,1.9,3.04.82,3.31,1.27,6.45,5.43,6.63,4.56-.45,9.22.33,13.69-.05,8.04.4,16.62-1.21,24.37.79.05,1.22-.91.86-1.52.92-3.73.31-7.47.16-11.2.16-.84,0-1.56.09-2.02.88-3.86,1.03-8.24.22-12.26.37-5.01-.11.88,10.68,4.75,8.86,66.5-.01,132.99,0,199.49,0,4.41.65,7.77-3.31,7.33-7.54-.6-2.83-7.4-.21-9.53-1.6-1.61-2.63,4.34-1.33,5.61-1.41,1.83.3,2.45-1.91,4.3-1.36,2.91.96,5.81-.6,8.79-.03,6.96.72,4.95-8.52,5.47-12.9,1.19-.74.83-4.21,2.71-3.04-.13,4,.29,8.13-.15,12.06-2.04,11.7-15.98,2.31-14.33,8.94Z" style="fill: #322034; stroke-width: 0px;"/>
      <path d="m224.04,1.59c.3.09.59.17.89.26.29,1.31-.58,1.74-1.58,2.06-63.51-1.84-127.2-.34-190.78-.8-1.73.12-3.85,1.31-5.16-.43-.33-1.27.32-1.82,1.48-1.81,64.94.61,130.32-1.28,195.15.72Z" style="fill: #291223; stroke-width: 0px;"/>
      <path d="m1.95,97.43c-1.81-.45-.74-2.36-1.52-3.48-.47-20.72,0-41.62-.17-62.4-.73-7.39,2.29-14.43,7.05-19.97,1.62-1.08,3.26-4.61,5.51-3.01.11,2.25-2.18,2.93-3.35,4.37-3.16,3.32-5.63,8.07-5.95,12.71-2.93,23.49,1.2,48.58-1.56,71.78Z" style="fill: #34222b; stroke-width: 0px;"/>
      <path d="m224.04,1.59c-60-1.07-121.63-.07-182.09-.41-2.93,1.09-14.28-1.93-14.28,1.51-1.05,1.14-2.65.6-3.86,1.24-1.43.52-2.81,1.33-4.44.82-.8-1.27.55-1.62,1.01-2.35,51.58-5.09,104.69-.26,156.76-1.86,15.58.65,31.51-1.43,46.91,1.04Z" style="fill: #342736; stroke-width: 0px;"/>
      <path d="m223.5,3.49c.71-.34,1.12-.96,1.43-1.65,16.98,4.69,24.42,21.56,22.65,38.06-2.25,1.36-1.87-3.79-1.87-4.98-1.81-9.27-2.4-17.45-10.34-24.24-2.98-2.58-6.29-4.59-10.02-5.88-.72-.25-1.57-.38-1.84-1.31Z" style="fill: #342736; stroke-width: 0px;"/>
      <path d="m247.34,40.12c.01-4.01.02-8.03.04-12.04.71,23.64.59,48.19.04,71.86-.02-4.11-.05-8.22-.07-12.33-.53-.53-.59-1.21-.59-1.91.51-15.09-1.06-30.78.58-45.59Z" style="fill: #e6ded3; stroke-width: 0px;"/>
      <path d="m.12,29.67c.6,23.43.48,47.38.05,70.9C-.12,76.95.03,53.3.12,29.67Z" style="fill: #191314; stroke-width: 0px;"/>
      <path d="m12.81,8.77c-1.32-.66-2.28.7-3.5.63,1.83-1.94,3.89-3.58,6.29-4.77.9.2,2.04-.47,2.68.73-.92,1.64-4.08,3.61-5.47,3.41Z" style="fill: #342736; stroke-width: 0px;"/>
      <path d="m18.2,5.29c-1.18-.72-1.79,1.02-2.6-.66,1.47-.94,3.08-1.76,4.77-2.23.17.96-1.21,1.28-.94,2.29-.13.78-.56.95-1.24.61Z" style="fill: #34222b; stroke-width: 0px;"/>
      <path d="m9.3,9.42c-.12,1.22-.84,1.9-2,2.16.53-.84,1.22-1.54,2-2.16Z" style="fill: #342736; stroke-width: 0px;"/>
      <path d="m18.13,3.32c-.16.27-.41.35-.71.34.16-.27.43-.31.71-.34Z" style="fill: #342736; stroke-width: 0px;"/>
      <path d="m18.2,5.29c1.71-.69,3.48-1.37,5.34-1.84,1.68.53,3.44-.74,5.22-.25.26.07.55-.02.35-.42,36.62-.16,15.39-4.84,28.07,19.79.46.84,1.41,1.72.47,2.85-4.53.24-10.36-.26-14.25.13,2.68.25,14.03-1.27,15.9,1.01,4.01,8.1,8.27,16.08,12.56,24.04,1.55,3.12,4.9,4.97,8.39,4.52,21.17-1.08,42.45.71,63.66-.04,7.05-.07,14.11-.15,21.15-.22,3.5.51,6.03-1.01,7.77-3.9,3.84-6.4,7.55-12.87,11.25-19.35,1.86-2.4,2.46-6.97,6.38-6.05-2.5.35-2.67-1-1.3-2.79,2.25-3.95,4.02-8.08,4.75-12.6.51-2.47-.44-5.15.67-7.47,13.83.38,30.28-3.17,41.12,7.64.94,4.94,6.45,10.07,4.41,15.09-2.65.3-5.3.03-7.51.13,2.24.28,5.78-.61,8.13.4.48,22.55-.22,45.41.09,68.08.72,14.57,1.83,9.68-12.1,10.41-31.87,1.41-64.73-.06-97.01.64-20.6-.1-41.21-.07-61.83-.07-7.49.24-14.99-.23-22.47.16-.55.05-1.39.32-1.46-.74-12.57-.01-25.09.04-37.64,0-7.78.76-6.3-8.69-6.34-14.28,0-19.36,0-38.73,0-58.09.37-1.84-.81-5.82,1.44-6.31-.08-.09-.08-.18-.01-.27,0,0,.13.03.13.03,0,0-.05-.13-.05-.13-.1,0-.17-.05-.23-.13-1.93-.99,3.31-9.37,4.41-10.83h-.01c.81-.58,1.33-1.37,1.83-2.22,2.52-2.77,5.47-4.95,8.7-6.91Z" style="fill: #e7e1d5; stroke-width: 0px;"/>
      <path d="m220.5,106.22c2.32.59,10.71-1.35,10.48,1.49.38,4.23-2.24,9.04-7.03,8.74-40.61-.01-81.22-.01-121.84-.01-25.63,0-51.27,0-76.9,0-4.94.75-9.42-5.83-7.1-10.09,4.24-.05,8.48-.1,12.72-.15,62.8-.91,126.83-.89,189.67.02Z" style="fill: #5e5a64; stroke-width: 0px;"/>
      <path d="m240.77,104.31c-1.32-26.04-.61-52.33-.31-78.43,1.25-.82,3.34-.8,4.28.3,2.36,20.13.71,40.7,1.09,61.01-2.42,5.33,2.52,15.95-5.06,17.12Z" style="fill: #e0d8cb; stroke-width: 0px;"/>
      <path d="m245.19,87.3c.2-18.37-.06-36.74.12-55.1,2.11,1.94-.3,6.04,2.03,7.92.11,15.83.03,31.66,0,47.49-1.28.69-.59,3-2.06,3.17-.43-1.15-.27-2.31-.1-3.48Z" style="fill: #34222b; stroke-width: 0px;"/>
      <path d="m194.44,118.62c2.19.51,15.81-1.26,15,1.16.11,1.45-.56,2.62-2.28,2.36-3.78-.65-28.28,1.54-27.77-1.34-.35-1.75-.03-2.17,1.75-2.17,4.43,0,8.86,0,13.29,0h0Z" style="fill: #5d5963; stroke-width: 0px;"/>
      <path d="m52.67,118.62c2.18.5,15.62-1.23,14.9,1.13.2,1.68-.9,2.64-2.61,2.38-8.34,0-16.67-.01-25.01-.01-1.09,0-2.16,0-2.43-1.42-.31-1.67,0-2.06,1.7-2.06,4.49,0,8.97,0,13.46,0,0,0,0-.01,0-.02Z" style="fill: #5d5963; stroke-width: 0px;"/>
      <path d="m99.85,106.22c-18.95-.11-38.09-.75-57,0-4,0-8.01-.01-12.01-.02-.46-2.98,13.43.28,15.13-1.78,1.8.36,71.85-1.29,53.88,1.8Z" style="fill: #2d1825; stroke-width: 0px;"/>
      <path d="m18.12,106.35c-.48,4.11,1.41,7.66,4.73,10.02-5.69.74-9.26-11.13-4.73-10.02Z" style="fill: #87898f; stroke-width: 0px;"/>
      <path d="m220.5,106.22c-2.95,0-5.9,0-8.85,0-2.31-2.21,3.64-1.35,4.74-1.79.95.67,1.9.67,2.85,0,.63,0,1.26,0,1.9,0,.58.64-.33,1.24-.64,1.79Z" style="fill: #2d1825; stroke-width: 0px;"/>
      <path d="m222.41,104.44c2.11-.01,4.22-.06,6.33,0-.67,2.42-4.43.76-6.34,1.23-.33-.41-.35-.82,0-1.23Z" style="fill: #2d1825; stroke-width: 0px;"/>
      <path d="m245.19,87.3c.18,4.22,0,8.44-.03,12.65-.72-3.52-.06-7.36-.26-10.99,0-.57-.14-1.17.29-1.66Z" style="fill: #e7e1d5; stroke-width: 0px;"/>
      <path d="m230.65,104.43c1.47,0,2.95,0,4.42,0-1.47.45-2.95.45-4.42,0Z" style="fill: #291223; stroke-width: 0px;"/>
      <path d="m222.41,104.44c0,.41,0,.82,0,1.23-.42-.11-.83-.21-1.25-.32,0-.3,0-.61,0-.91.42,0,.85,0,1.27,0Z" style="fill: #34222b; stroke-width: 0px;"/>
      <path d="m18.47,104.42c.84,0,1.68,0,2.52,0-.84.44-1.68.45-2.52,0Z" style="fill: #2d1825; stroke-width: 0px;"/>
      <path d="m240.77,104.31c.11.03.21.07.32.1-.41.39-.83.39-1.26.03.31-.04.63-.08.94-.12Z" style="fill: #291223; stroke-width: 0px;"/>
      <path d="m7.71,104.43c.21,0,.42,0,.62,0-.21.25-.42.26-.62,0Z" style="fill: #2d1825; stroke-width: 0px;"/>
      <path d="m52.9,2.73c46.72-.54,93.74.05,140.56-.23,2.85,4.41-2.43,21.1-7.02,23.19-41.93.04-83.86,0-125.79.01-4.96.25-9.87-19.13-7.76-22.97Z" style="fill: #e7e0d4; stroke-width: 0px;"/>
      <path d="m186.31,25.23c5.57-5.01,8.04-15.12,7.15-22.73.38.06.76.13,1.14.19.66,7.85-1.61,14.93-5.64,21.55-.18.3-.5.56-.42.98-.03.26.42.24.31.54-2.27.8-2.77,4.36-4.35,6.16-3.81,6.5-7.59,13.22-11.51,19.72-1.6,2.67-4.12,3.95-7.29,3.78-.97-1.33,5.18-1.94,6.27-5.18,4.77-8.27,10.15-16.71,14.34-25.02Z" style="fill: #3e373a; stroke-width: 0px;"/>
      <path d="m52.9,2.73c-.81,5.12,2.53,20.78,7.38,22.54.65.76-.59,2.17-1.44,1.61-1.59-1.96-2.05-4.59-3.48-6.72-2.83-5.47-3.74-11.29-3.41-17.37l.95-.06Z" style="fill: #3e373a; stroke-width: 0px;"/>
      <path d="m29.1,2.78c-1.18,1.07-4.52,1.47-5.57.67,1.85-.27,3.68-.93,5.57-.67Z" style="fill: #e0d8cb; stroke-width: 0px;"/>
      <path d="m9.27,12.52c.01,1.09-.56,1.7-1.6,1.92.37-.78.92-1.4,1.6-1.92Z" style="fill: #e0d8cb; stroke-width: 0px;"/>
      <path d="m7.68,14.42c-.14,1.01-.52,1.86-1.55,2.26.35-.87.85-1.63,1.55-2.26Z" style="fill: #e0d8cb; stroke-width: 0px;"/>
      <path d="m10.23,11.55c-.05.43-.29.65-.73.65.16-.31.31-.63.73-.65Z" style="fill: #e0d8cb; stroke-width: 0px;"/>
      <path d="m3.26,25.25c.11,0,.22,0,.33.01.12.23.04.37-.17.49-.05-.17-.11-.33-.16-.5Z" style="fill: #494140; stroke-width: 0px;"/>
      <path d="m240.14,25.16c.53-5.59-4.57-9.48-4.42-14.84,4.63,3.95,7.41,9,8.85,14.85-1.48.57-2.95.61-4.42-.02Z" style="fill: #e0d8cb; stroke-width: 0px;"/>
      <path d="m240.14,25.16c1.47,0,2.95.01,4.42.02-.01.24.11,1.07-.3.67-5.04.03-10.07.02-15.11.02,0-.24,0-.47,0-.71h10.99Z" style="fill: #191314; stroke-width: 0px;"/>
      <path d="m244.26,25.85c.1-.03.21-.07.31-.1.06.14.11.28.17.42-.16-.11-.32-.21-.48-.32Z" style="fill: #e7e1d5; stroke-width: 0px;"/>
      <path d="m55.99,96.48c-2.42.17-4.87-.33-7.28.32-1.55-.47-3.12-.03-4.68-.16-5.84-1.09-3.21-8.41,2.25-7.13,51.75,0,103.48,0,155.22,0,3.06-.47,5.79,2.96,3.93,5.42-2.4,3.28-7.62,1.1-11.14,1.71-46.06-.19-92.39.34-138.31-.16Z" style="fill: #e8dfd5; stroke-width: 0px;"/>
      <path d="m155.26,63.2c3.26-.07,9.17-.84,9.55,3.65-.26,5.17,2.99,16.32-5.13,16.05-24.85,0-49.69,0-74.54-.01-8.05.32-4.51-9.87-5.23-14.94-.27-5.32,5-4.99,8.86-4.74,5.36,3.68-3.46,1.72-5.4,2.84-1.78.05-1.5,12.99-.23,13.41,1.05,1.03,2.38,1.01,3.7,1.01,9.01,0,18.02.05,27.03-.01,13.48.01,26.96,0,40.45.02,3.6-.3,8.8.92,8.08-4.5-.19-3.35.49-6.87-.68-10.1-1.75-.84-4.05.13-5.96-.47q-.41-1.11.98-1.4c-.56-.13-1.43.28-1.47-.82Z" style="fill: #322034; stroke-width: 0px;"/>
      <path d="m49,50.27c1.83.31,5.55-1.08,5.33,1.89.5,1.92-1.42,8.3,1.41,8.05,2.33.44,7.68-1.76,7.59,1.92-.58,2.36,1.65,8.29-1.86,8.4-2.14.49-7.08-1.52-7.18,1.73.44,10.01.15,7.74-8.85,8.01-4.56-.2,1.07-9.72-3.53-9.78-2.13-.46-6.87,1.44-7.19-1.59.35-7.18-2.37-9.63,6.74-8.74,2.2,0,2.23-.03,2.23-2.15,0-1.85-.02-3.69-.06-5.54-.4-3.28,3.37-1.91,5.37-2.19Z" style="fill: #352334; stroke-width: 0px;"/>
      <path d="m195.12,78.13c-18.08-.53-17.52-26.8.39-26.93,17.69.23,17.94,26.99-.39,26.93Z" style="fill: #322034; stroke-width: 0px;"/>
      <path d="m156.54,90.09c-37.18.08-74.36.03-111.54.06-5.04-.27-4.9,6.22.03,6,.65.23,4.49-.56,3.68.65,0,.49-.39.42-.67.42-3.06.11-7.68.37-8.03-3.66-.19-2.12.99-3.86,3.04-4.38,37.78-.54,75.67-.15,113.47-.08.37.33.31.66,0,.99Z" style="fill: #2d2024; stroke-width: 0px;"/>
      <path d="m55.99,96.48c45.9-.77,92.43-.08,138.53-.24.3.29.26.6.03.91-45.58-.6-94.7,1.41-138.56-.67Z" style="fill: #191314; stroke-width: 0px;"/>
      <path d="m155.26,63.2c.85.94,3.25-.37,3.58.79-.16,1.29-2.67-.22-3.26.98-12.58,1.79-26.65.05-39.73.64-7.8,0-15.59,0-23.39-.02-.74,0-1.62.29-2.12-.62-.64-1.08-2.79.28-1.58-1.75,22.16-.09,44.34-.23,66.49-.01Z" style="fill: #2b142f; stroke-width: 0px;"/>
      <path d="m131.83,106.21c-1.23-.06-8.38.14-7.59-1.77,20.46.19,41.22-.72,61.51.56.55,2.29-9.81.13-11.48,1.23-.2,0-.41,0-.61,0-.32-.3-.7-.44-1.15-.41-2.83.46-6.06-.65-8.69.4-10.66.26-21.4-.79-31.98-.02Z" style="fill: #2d1825; stroke-width: 0px;"/>
      <path d="m203.68,90.32c-14.82-.51-29.75.08-44.61-.22-.3-.34-.36-.67,0-1,14.95-.01,30.06-.56,44.95.17.33.5.1.81-.35,1.05Z" style="fill: #2d2024; stroke-width: 0px;"/>
      <path d="m124.24,104.44c.85,1.29,3.15.18,4.12,1.76-9.51.02-19.01.17-28.52.02.71-1.16,2-.13,3.12-.94-1.87-.83-4.92.63-5.96-.86,9.1.04,18.12.01,27.23.02Z" style="fill: #322034; stroke-width: 0px;"/>
      <path d="m165.74,54.95c-.01.16-.03.32-.04.48-28.58.12-57.16.03-85.74.04-.49-1.23,1.61-1.17,2.34-1.13,27.68.58,56.12-1.16,83.44.62Z" style="fill: #191314; stroke-width: 0px;"/>
      <path d="m58.84,26.88c.32-.06.62-.16.82-.44.87,0,1.09.74,1.39,1.31,3.44,6.62,6.96,13.19,10.39,19.81,1.29,2.49,2.59,4.95,5.3,6.24.53.26.81,1.06.3,1.49-6.56-.6-14.04-22.2-18.21-28.41Z" style="fill: #494140; stroke-width: 0px;"/>
      <path d="m221.51,37.48c.17,5.03-7.6,5.02-7.59.13-.04-4.69,7.55-4.93,7.59-.13Z" style="fill: #322034; stroke-width: 0px;"/>
      <path d="m22.23,37.53c-.06-4.83,7.54-4.73,7.43.1.06,4.86-7.64,4.86-7.43-.1Z" style="fill: #322034; stroke-width: 0px;"/>
      <path d="m174.27,106.23c.98-1.77,10.63.67,11.41-1.2,1.11-.8,2.46.07,3.68-.31,1.19-.15,2.24.67,3.44.46,4.14-.42,8.59.35,12.51-.76.95,0,1.9,0,2.85,0,.96.72,2.22-.16,3.17.61.11.4.22.79.33,1.19-12.46.02-24.92.12-37.39.01Z" style="fill: #322034; stroke-width: 0px;"/>
      <path d="m203.68,90.32c.12-.35.23-.7.35-1.05,4.47,1.61,3.11,7.93-1.27,7.97-2.73.06-5.47-.04-8.2-.08-.01-.3-.02-.61-.03-.91,3.36-.6,9.41,1.62,10.86-2.43.47-1.65-.39-2.69-1.7-3.49Z" style="fill: #3e373a; stroke-width: 0px;"/>
      <path d="m203.09,105.02c-1.41,1.55-8.81.22-11.4.64-.52,0-1.1.08-1.27-.63,1.41-.79,3.01.09,4.43-.6,2.75,0,5.5,0,8.25,0,.18.2.18.39,0,.59Z" style="fill: #2d1825; stroke-width: 0px;"/>
      <path d="m36.42,25.71H13.38c0-.1,0-.2,0-.3h23.04c0,.1,0,.2,0,.3Z" style="fill: #191314; stroke-width: 0px;"/>
      <path d="m194.22,104.72c-5.22.87-10.61.06-15.96.3-.55,0-1.21.18-1.45-.6,5.81.09,11.66-.23,17.42.29Z" style="fill: #34222b; stroke-width: 0px;"/>
      <path d="m53.62,25.79h-14.47c0-.18,0-.35,0-.53h14.47c.13.17.13.35,0,.53Z" style="fill: #191314; stroke-width: 0px;"/>
      <path d="m211.33,105.03c-1.05-.25-2.3.59-3.17-.61,2.43,0,4.86,0,7.28,0-.65,1.23-2.91.38-4.12.6Z" style="fill: #34222b; stroke-width: 0px;"/>
      <path d="m159.08,89.09c0,.33,0,.67,0,1-.85,0-1.69,0-2.54,0,0-.33,0-.66,0-.99.85-.16,1.7-.17,2.55,0Z" style="fill: #34222b; stroke-width: 0px;"/>
      <path d="m188.85,25.76c-2.27-.95,3.75-.51,4.34-.23-1.43.43-2.89.24-4.34.23Z" style="fill: #191314; stroke-width: 0px;"/>
      <path d="m77.05,55.28c0-.28,0-.56,0-.84,1.39-.71,2.03-.59,2.86.52.02.17.03.33.05.5-.99.29-1.95,0-2.91-.18Z" style="fill: #574f4b; stroke-width: 0px;"/>
      <path d="m53.62,25.79c0-.18,0-.35,0-.53,1.37-.01,2.74-.03,4.11-.04.11.2.23.4.34.59-1.48,0-2.96-.02-4.44-.03Z" style="fill: #494140; stroke-width: 0px;"/>
      <path d="m219.24,104.43c0,1.04-.77.91-1.43.91-.66,0-1.42.12-1.42-.91h2.85Z" style="fill: #34222b; stroke-width: 0px;"/>
      <path d="m227.8,104.42c-.96.47-1.91.49-2.87,0,.96-.52,1.91-.53,2.87,0Z" style="fill: #e0d8cb; stroke-width: 0px;"/>
      <path d="m194.22,104.72c-1.57-.17-3.19.33-4.74-.29,1.79,0,3.58,0,5.36,0-.21.1-.42.19-.63.29Z" style="fill: #191314; stroke-width: 0px;"/>
      <path d="m3.44,25.74c.05-.16.1-.31.15-.47.61,0,1.25-.14,2.22.26-1.03.39-1.71.26-2.37.22Z" style="fill: #191314; stroke-width: 0px;"/>
      <path d="m203.09,105.02c0-.2,0-.39,0-.59.52,0,1.05,0,1.57,0,.2.19.16.39,0,.58-.53,0-1.05,0-1.58,0Z" style="fill: #191314; stroke-width: 0px;"/>
      <path d="m210,25.64c.99-.66,1.99-.31,2.99-.22-.99.66-1.99.31-2.99.22Z" style="fill: #191314; stroke-width: 0px;"/>
      <path d="m7.47,25.51c.49-.29.97-.37,1.75.04-.8.32-1.28.29-1.75-.04Z" style="fill: #191314; stroke-width: 0px;"/>
      <path d="m204.67,105.02c0-.19,0-.39,0-.58.21,0,.43,0,.64-.01-.11.31.2,1.06-.64.6Z" style="fill: #2d1825; stroke-width: 0px;"/>
      <path d="m108.4,104.43c-.52.39-1.05.4-1.57,0,.52,0,1.05,0,1.57,0Z" style="fill: #2d1825; stroke-width: 0px;"/>
      <path d="m184.12,32.56c0-.29.13-.5.38-.65l-.38.65Z" style="fill: #574f4b; stroke-width: 0px;"/>
      <path d="m166.96,107.55c4.41.95,21.51-2.78,20.92,3.42-.04,2.25-1.54,3.57-4.11,3.57-11.29,0-22.58,0-33.87-.02-3.08,0-4.78-2.25-3.72-4.87,1.44-4.19,16.32-1.28,20.78-2.1Z" style="fill: #322034; stroke-width: 0px;"/>
      <path d="m55.87,112.61c-1.11-2.95.22-5.03,3.28-5.03,12.76-.02,25.52-.02,38.28,0,4.29-.18,4.9,5.78.83,6.68-1.26-2.73,3.38-4.63-2.76-4.78-12.11-.25-24.28-.7-36.36.05-2.33-.16-1.08,3.27-3.27,3.09Z" style="fill: #2d1825; stroke-width: 0px;"/>
      <path d="m98.27,113.25c0,.33,0,.67,0,1-12.78.79-25.84,0-38.72.29-1.63,0-2.88-.48-3.68-1.93.4-.21.7-.52.91-.92,12.75,2.34,26.03.25,38.99.92.87,0,1.83-.21,2.49.64Z" style="fill: #322034; stroke-width: 0px;"/>
      <path d="m42.85,106.22c.35-.8,1.07-.54,1.66-.54,5.16-.02,10.33-.1,15.49.01,8.58.5,18.17-1.54,26.25.54-14.47.14-28.93.03-43.4,0Z" style="fill: #322034; stroke-width: 0px;"/>
      <path d="m131.83,106.21c2.14-1.4,9.01-.11,12.1-.56,1.57.07,3.83-.86,5.02.54-5.71.18-11.41.15-17.12.02Z" style="fill: #322034; stroke-width: 0px;"/>
      <path d="m163.81,106.23c.76-2.07,6.68-.12,8.82-.87.62-.06,1.01.2,1.03.87-3.28.12-6.56.13-9.84,0Z" style="fill: #322034; stroke-width: 0px;"/>
      <path d="m60.29,25.75c0-.16,0-.32,0-.48,41.16-.08,82.33-.09,123.49-.02.11.1.22.1.33,0,.42,0,.84,0,1.25,0,.58,1.39-1.73,1.32-2.55,1.27-40.64-.73-82.43,1.47-122.51-.78Z" style="fill: #191314; stroke-width: 0px;"/>
      <path d="m185.34,25.77c0-.17,0-.35.01-.52.32,0,.64-.02.96-.03,0,.19,0,.37,0,.56-.33.35-.65.36-.97-.01Z" style="fill: #494140; stroke-width: 0px;"/>
      <path d="m184.1,25.25c-.11.13-.22.13-.33,0,.11,0,.22,0,.33,0Z" style="fill: #494140; stroke-width: 0px;"/>
      <path d="m185.34,25.77c.47-.04,1.8-.04,1.22.69-4.1,7.04-8.2,14.07-12.3,21.11-1.89,3.59-4.09,6.93-8.52,7.37-28.61,0-57.22.01-85.83.02-3.53-.24-6.53-2.04-8.01-5.32-4.08-7.73-8.03-15.55-12.23-23.21-.24-.63.25-.61.62-.69,41.68.05,83.37.1,125.05.03Z" style="fill: #e6ded3; stroke-width: 0px;"/>
      <path d="m186.56,26.46c0-.11.04-.21.12-.29-.04.1-.08.19-.12.29Z" style="fill: #574f4b; stroke-width: 0px;"/>
      <path d="m162.6,79.51c-.49,1.36-1.61,1.48-2.83,1.48-24.78-.02-49.57,0-74.35-.02-2.24.47-3.64-1.27-3.3-3.5.54-3.9-1.32-8.8,1.21-12.09l.02.02c26,.42,53.61-1.45,78.92.65h0c.15.19.09.5.34.64h-.02c.21,4.27.2,8.54.01,12.82Z" style="fill: #f0575f; stroke-width: 0px;"/>
      <path d="m161.6,65.44c-26.08-.04-52.16.07-78.24-.04,25.87-.96,52.19-.26,78.2-.2l.12.11-.08.14Z" style="fill: #e9555f; stroke-width: 0px;"/>
      <path d="m83.33,65.39c-1.96,4.55-.47,9.63-.94,14.43-1.3-3.61-.18-8.01-.51-11.88.01-1.08.22-2.12,1.45-2.54Z" style="fill: #e9555f; stroke-width: 0px;"/>
      <path d="m162.6,79.51c0-4.28,0-8.55-.01-12.83.37.32.3.76.3,1.17-.23,3.83.51,7.98-.29,11.66Z" style="fill: #e9555f; stroke-width: 0px;"/>
      <path d="m161.6,65.44c-.01-.08-.02-.16-.04-.24.88-.58.56.25.68.58-.24.23-.44-.22-.64-.33Z" style="fill: #2b142f; stroke-width: 0px;"/>
      <path d="m162.61,66.69c-.25-.14-.34-.36-.34-.64.28.12.33.37.34.64Z" style="fill: #e9555f; stroke-width: 0px;"/>
      <path d="m161.95,65.76c.1,0,.19.01.29.02.03.09.04.19.04.28-.11-.1-.22-.2-.33-.3Z" style="fill: #e9555f; stroke-width: 0px;"/>
      <path d="m52.28,53.05c.29,10.61-1.35,9.07,8.94,9.56-.47,1.74,1.26,5.87-1.27,6.02-7.02-.68-8.24.82-7.59,7.73.09,1.34-.29,1.97-1.74,1.82-6.48.33-4.68-.58-4.95-6.03.18-4.48-4.71-3.46-7.76-3.52-2.25-.3-.64-4.06-1.1-5.7,2.38-1.51,6.1.78,8.23-1.61v.02c.2-.19.17-.53.44-.67.37-2.51.05-5.04.2-7.56,1.76-.87,4.64-.7,6.58-.05Z" style="fill: #5d5963; stroke-width: 0px;"/>
      <path d="m61.23,62.6c-2.41-.11-8.25,1.88-8.62-1.63,1.65,2.39,7.34-.29,8.62,1.63Z" style="fill: #87898f; stroke-width: 0px;"/>
      <path d="m45.06,61.31c-1.47,2.87-5.61,1.17-8.23,1.61-.24-2.07,6.47-.23,8.23-1.61Z" style="fill: #87898f; stroke-width: 0px;"/>
      <path d="m52.28,53.05c-2.19.02-4.39.03-6.58.05.02-2,4.28-.52,5.73-.99.69-.01.99.24.85.94Z" style="fill: #87898f; stroke-width: 0px;"/>
      <path d="m45.51,60.66c-.15.22-.3.45-.45.67-.03-.34.16-.55.45-.67Z" style="fill: #87898f; stroke-width: 0px;"/>
      <path d="m200.52,54.4c9.9,4.53,7.7,20.11-3.34,21.55-3.39.44-7.89-.1-9.75-3.2-.2-.06-.35-.19-.5-.33h0c-4.79-8.7,3.53-19.65,13.59-18.02Z" style="fill: #5e5a64; stroke-width: 0px;"/>
      <path d="m200.52,54.4c-9.96.3-16.95,8.11-13.59,18.03-8.56-8.3,1.05-23.45,13.59-18.03Z" style="fill: #87898f; stroke-width: 0px;"/>
      <path d="m186.93,72.41c.17.11.33.22.5.33-.26.04-.44-.06-.5-.33Z" style="fill: #87898f; stroke-width: 0px;"/>
      <path d="m216.08,37.93c-.41-2.42,3.35-2.7,3.39-.52.4,2.26-3.26,2.7-3.39.52Z" style="fill: #615863; stroke-width: 0px;"/>
      <path d="m24.19,37.7c-.24-2.33,3.51-2.61,3.49-.3.23,2.48-3.43,2.65-3.49.3Z" style="fill: #5d5963; stroke-width: 0px;"/>
      <path d="m187.89,105.03h1.27c-.42.4-.85.4-1.27,0Z" style="fill: #2d1825; stroke-width: 0px;"/>
      <path d="m167,113.26c-3.65-.76-19.56,1.98-19.63-2.02-1.07-4.69,15.75-2.01,19.04-2.69,3.61.78,20.29-1.73,20.13,2.4.37,4.47-15.96,1.54-19.54,2.33v-.02Z" style="fill: #615863; stroke-width: 0px;"/>
      <path d="m98.27,113.25c-12.87,0-25.73-.01-38.6.03-1.33,0-2.18-.59-2.88-1.59-.05-2.37.42-2.81,2.82-2.93,9.65-.47,19.31-.19,28.96-.17,2.79.6,9.66-1.17,10.92,1.53.4,1.31-.06,2.38-1.22,3.13Z" style="fill: #615863; stroke-width: 0px;"/>
      <path d="m73.91,33.66c33.01.37,66.91-.94,99.49.44-7.99,1.61-17.03-.58-25.1.82-16.25.06-32.5.14-48.75.01-7.91-.91-16.32.06-24.38-.35-.58-.05-1.36.08-1.26-.93Z" style="fill: #191314; stroke-width: 0px;"/>
      <path d="m155.59,43.91c-26-.01-52.04.38-78.01-.28-.42-.86.12-1.01.79-1.03,25.74-.01,51.48-.05,77.22.07.36.41.34.82,0,1.24Z" style="fill: #291223; stroke-width: 0px;"/>
      <path d="m94.01,38.22c19.36-.13,38.74-.13,58.1,0,.29.57,1.78-.06,1.28,1.29-20.24.05-40.5.23-60.73-.02.44-.43,1.04-.69,1.35-1.26Z" style="fill: #3a0f14; stroke-width: 0px;"/>
      <path d="m73.91,33.66c7.53,1.22,16.07.03,23.94.46.65,0,1.58-.38,1.7.82-4.2.06-8.39.12-12.59.18-.01.08-.02.16-.04.24,0-.08.01-.16.02-.25-.76,0-1.53,0-2.29-.01-.42.29-.85.29-1.27,0-.63,0-1.26,0-1.9,0-.5.11-1,.78-1.51,0-.76,0-1.53,0-2.29,0-.71.14-1.43.85-2.14,0-.83-.23-2.5.49-2.65-.71,0-.71.39-.87,1.01-.72Z" style="fill: #2d2024; stroke-width: 0px;"/>
      <path d="m148.3,34.92c.13-1.19,1.07-.8,1.72-.8,7.8-.02,15.59-.01,23.39-.01.65,1.85-4.4.66-5.54.99-5.73.84-13.22-.55-19.56-.17Z" style="fill: #2d2024; stroke-width: 0px;"/>
      <path d="m153.39,39.51c0-.85-1.23-.48-1.28-1.29,6.13.12,12.24.21,18.37.02.09.09.19.1.3.04.54.38.48.76,0,1.13-5.86-.25-11.51.46-17.38.1Z" style="fill: #34222b; stroke-width: 0px;"/>
      <path d="m94.01,38.22c-.17.45-1.66,1.88-1.87,1.02-4.69.35-9.53-.31-14.14.26-.9-.16-2.97.68-3.18-.53-.07-.9.6-.79,1.15-.81,6.01.52,12.02-.03,18.04.06Z" style="fill: #2d2024; stroke-width: 0px;"/>
      <path d="m155.59,43.91c0-.41,0-.82,0-1.24,3.06,0,6.13,0,9.19-.01.42.46,1.27.1,1.66.88-3.57.6-7.23-.08-10.85.37Z" style="fill: #34222b; stroke-width: 0px;"/>
      <path d="m156.23,43.91c3.11-.86,6.44-.07,9.83-.32-.44-.48-1.24-.21-1.28-.93.9.21,2.89-.67,3.04.61-1.2,1.88-9,.18-11.59.64Z" style="fill: #291223; stroke-width: 0px;"/>
      <path d="m78,39.5c4.44-.94,9.5.01,14.14-.26-4.23.95-9.55-.03-14.14.26Z" style="fill: #191314; stroke-width: 0px;"/>
      <path d="m160.97,35.08c2.3,0,4.59,0,6.89,0,.08.9-6.96.92-6.89,0Z" style="fill: #e0d8cb; stroke-width: 0px;"/>
      <path d="m77.58,43.63c3.99.25,8.31-.56,12.14.29-3.95-.29-8.47.67-12.14-.29Z" style="fill: #191314; stroke-width: 0px;"/>
      <path d="m167.94,38.23c-.43.43-.99.3-1.5.3-3.36-.23-6.99.48-10.2-.3,3.9,0,7.8,0,11.7,0Z" style="fill: #191314; stroke-width: 0px;"/>
      <path d="m88.45,38.23c-3.16.8-6.75.07-10.05.3-.56,0-1.17.16-1.66-.31,3.9,0,7.81,0,11.71.01Z" style="fill: #191314; stroke-width: 0px;"/>
      <path d="m165.07,39.53c1.89-.68,3.79-.5,5.7-.12-1.89.4-3.8.16-5.7.12Z" style="fill: #191314; stroke-width: 0px;"/>
      <path d="m75.55,35.09c.71,0,1.43,0,2.14,0-.72.89-1.43.9-2.14,0Z" style="fill: #e0d8cb; stroke-width: 0px;"/>
      <path d="m83.39,35.1c.42,0,.85,0,1.27,0-.42.83-.85.83-1.27,0Z" style="fill: #e0d8cb; stroke-width: 0px;"/>
      <path d="m79.98,35.1c.5,0,1,0,1.51,0-.5.8-1,.85-1.51,0Z" style="fill: #e0d8cb; stroke-width: 0px;"/>
      <path d="m160.64,39.53c.64-.56,1.29-.55,1.94,0-.65,0-1.29,0-1.94,0Z" style="fill: #191314; stroke-width: 0px;"/>
      <path d="m86.95,35.11s.02,0,.02,0c0,0-.01,0-.02,0Z" style="fill: #e0d8cb; stroke-width: 0px;"/>
      <path d="m170.78,38.28c-.1-.01-.2-.03-.3-.04.11-.04.21-.03.3.04Z" style="fill: #191314; stroke-width: 0px;"/>
      <path d="m144.5,77.47c3.24,1.54,7.44-.09,10.88,1.7,1.38.07,1.45,1.74-.08,1.47-11.87-.42-24.42.83-35.95-.45,5.75-1.28,11.39-1.8,17.24-2.08.54,0,.89-.23.97-.81.49-.82,1.23-1.41,1.91-2.05,1.9-1.49,1.87-1.13,2.93.75.31,1.1,1.55.75,2.09,1.47Z" style="fill: #f4515b; stroke-width: 0px;"/>
      <path d="m109.24,77.42c4.38-1.09,1.75,2.32,4.95,2.29.38-.04,1-.13,1,.45-.81,1.17-5.63.17-7.31.48-7.34-.37-15.48.72-22.44-.39.9-5.09,20.01-.4,23.6-2.77.07-.02.13-.04.2-.06Z" style="fill: #f4515b; stroke-width: 0px;"/>
      <path d="m109.24,77.42h-.11s-.09.06-.09.06c-5,0-10.01,0-15.01-.02-6.08.33-6.22-8.84-.02-8.48,5.17.95,16.11-2.76,18.12,3.43.48,2.02-.52,3.76-2.89,5.02Z" style="fill: #402135; stroke-width: 0px;"/>
      <path d="m141.38,74.48c.05-.06.04-.12-.03-.16-.73-6.38,5.52-5.37,9.94-5.31,2.53.12,4.35,1.99,4.27,4.32-.26,5.58-7.31,4.02-11.15,4.09-1.09.03-1.99-.52-2.39-1.57h.01c-.54-.31-.5-.89-.66-1.37Z" style="fill: #402135; stroke-width: 0px;"/>
      <path d="m139.15,76.22c-.33.31-.65.66-1.01.93l.02-.02c-.16.23-.46.16-.65.33,0,0,0,0,0,0-4.92,1.38-7.94-3.75-4.99-7.15,3.19-3.3,8.9.19,7.48,4.58,0,0,.03.02.03.02-.14.21-.08.52-.34.67l.04-.04c-.13.28-.41.44-.58.69Z" style="fill: #322034; stroke-width: 0px;"/>
      <path d="m161.61,65.45c.11.1.21.19.32.29-.11-.1-.21-.19-.32-.29Z" style="fill: #e9555f; stroke-width: 0px;"/>
      <path d="m49.17,62.56c3.07.06,2.53,4.57-.24,4.45-2.49-.22-2.83-4.74.24-4.45Z" style="fill: #34222b; stroke-width: 0px;"/>
      <path d="m142.02,75.85c.7.62,1.41,1.22,2.29,1.59-1.2.1-2.24-.03-2.29-1.59Z" style="fill: #f0575f; stroke-width: 0px;"/>
      <path d="m141.38,74.48c.22.46.44.91.66,1.37-.92-.12-.63-.82-.66-1.37Z" style="fill: #f0575f; stroke-width: 0px;"/>
      <path d="m137.52,77.47c.15-.24.38-.31.65-.33-.15.24-.38.33-.65.33Z" style="fill: #f0575f; stroke-width: 0px;"/>
      <path d="m139.7,75.57c.03-.27.08-.52.34-.67.01.28-.07.52-.34.67Z" style="fill: #f0575f; stroke-width: 0px;"/>
      <path d="m138.14,77.15c.12-.1.23-.19.35-.29-.12.1-.23.19-.35.29Z" style="fill: #f0575f; stroke-width: 0px;"/>
      <path d="m139.15,76.22c.1-.1.19-.21.29-.31-.1.1-.19.21-.29.31Z" style="fill: #f0575f; stroke-width: 0px;"/>
      <path d="m139.45,75.9c.1-.12.19-.24.29-.37-.1.12-.19.24-.29.37Z" style="fill: #f0575f; stroke-width: 0px;"/>
      <path d="m100.77,76.16c-3.22-.46-9.77,1.72-10.05-3.09,0-1.57,1.33-2.79,3.19-2.8,4.53-.03,9.05-.03,13.58,0,2.1.02,3.29,1.2,3.25,3.04-.19,4.61-6.88,2.36-9.97,2.87v-.03Z" style="fill: #e9555f; stroke-width: 0px;"/>
      <path d="m148.51,76.17c-6.13,1.32-7.87-5.12-2.92-5.89,2.8.15,8.61-1.2,8.47,3,.12,3.06-3.19,3.02-5.55,2.9h0Z" style="fill: #e9555f; stroke-width: 0px;"/>
      <path d="m133.4,73.17c-.17-3.28,5-2.97,4.79.19,0,3.38-4.96,3.22-4.79-.19Z" style="fill: #615863; stroke-width: 0px;"/>
    </g>
  </g>
</svg>