<?xml version="1.0" encoding="UTF-8"?>
<svg id="Calque_2" data-name="Calque 2" xmlns="http://www.w3.org/2000/svg" viewBox="0 0 224.97 103.09">
  <g id="Calque_1-2" data-name="Calque 1">
    <g>
      <path d="m109.44,102.78c-4.38-.47-7.53-2.74-9.61-6.57-.18-.2-.27-.42-.24-.69.22-.68.71-.89,1.38-.81,1.07.4,1.19,1.57,1.87,2.29.42.44.61,1.05,1.11,1.42,5.74,4.38,12.59,2.25,15.93-2.82,2.47-3.75,4.42-7.8,6.32-11.87,1.35-2.89,2.82-5.73,4.09-8.8-5.04,1.08-9.84.78-14.23-2.1-2.98-1.8-5.21-4.3-6.83-7.35-.28-.52-.51-1.13-.36-1.77.61-.54-.1-.59-.31-.83-.14-.21-.17-.45-.18-.7.04-1.21.61-1.62,1.75-1.14.86.45.94,1.39,1.33,2.13,2.4,4.96,6.37,7.67,11.82,8.37,2.51.33,4.83-.16,7.09-1.15,2.51-1.1,2.64-1.08,3.27,1.63,1.61,6.9,9.77,9.02,14.53,5.61,3.06-2.19,4.67-6.02,2.4-10.71,2.2,3.38-.44,8.93-4.36,10.5-4.12,1.65-8.95-.32-10.59-4.42-.8-2-.65-4.06.15-6.05.42-1.06,1.02-2.03,1.7-2.95,2.28-3.08,2.79-6.47,1.86-10.14-.16-.65-.39-1.3.02-1.95,1.45-.43,1.63.78,1.82,1.63.18.78.5,1.3,1.14,1.68.79,1.03.69,2.23.62,3.41-.11,1.84-.14,1.86,1.71,2.15,3.48.55,6.04,2.43,7.89,5.36.41.65.77,1.34.96,2.09.75,1.31.71,2.76.67,4.19-.04,1.26.5,1.76,1.74,1.72,1.12-.04,2.25-.07,3.38.09,1.2-.24,2.71.42,3.56-.46.78-.8.27-2.26.49-3.42.92-4.84,3.75-7.88,8.41-9.3.2-.06.4-.12.6-.15,2.26-.41,2.27-.41,2.24-2.79-.03-2.29.31-4.51,1.26-6.61.15-.21.35-.36.6-.43,1.56.33,1.2,1.43.86,2.39-.79,2.23-.19,4.39.21,6.56.92,1.12.98,2.77,2.24,3.67.55.68,1.01,1.44,1.47,2.18,1.69,2.69,1.8,5.47.26,8.23-1.54,2.75-4.03,3.72-7.11,3.85-5.15.22-9.86-5.52-7.13-11.56-.69,1.49-1.43,2.95-1.62,4.65-.45,3.99,3.05,6.88,5.57,7.7,5.79,1.88,11.3-1.28,12.73-7.2.48-1.98.98-2.27,2.8-1.36,7.87,3.96,18.11-.7,20.49-10.55,1.28-5.3-2.23-11.73-6.54-14.32-2.48-1.49-5.19-2.26-8.04-2.62-.78-.1-1.55.03-2.29.26-.85.04-1.66.6-2.53.17-.41-.28-.53-.66-.41-1.13.74-1.15,1.96-1.25,3.13-1.33,2.64-.17,5.26-.04,7.78.91.31.12.65.36,1.16.07-.48-.89-1.4-.95-2.18-1.2-.68-.22-1.44-.24-1.91-.89.36-.4-.15-1.02.35-1.39,1.22-.39,2.31.1,3.41.5,1.71.4,2.72,1.41,2.79,3.22.03.73.33,1.28.92,1.69,4.77,3.28,7.11,7.99,8.1,13.54.38,2.13,1.03,4.2,1.52,6.31.11.48.26.89.74,1.1,2.04.84,4.19.41,6.29.5.93.04,1.86-.02,2.79.02.54.02,1.18-.08,1.39.92-3.33,0-6.6,0-9.87-.04-.21-.05.04.31-.03.11-.01-.03.03-.06.12-.05,3.14.04,6.28-.18,9.41.12-.01,1.12-.91.93-1.54.95-2.21.08-4.43.01-6.65.04-1.6.02-1.73.17-1.36,1.71,1,4.2,1.96,8.41,3.03,12.6.17.68.13,1.59.96,1.78.92.22,1.52-.44,1.99-1.17.14-.22.3-.42.51-.58.52-.2.96-.74,1.61-.41.57,1.81-.3,3.56-2.38,4.32-1.22.45-1.58.96-1.21,2.24.42,1.47.76,2.99.9,4.52.15,1.56.11,3.1-1.37,4.15-.47.71-.93,1.43-1.4,2.14.11.91-.54,1.39-1.11,1.89-1.87,1.63-3.99,2.65-6.55,2.46-.1,0-.2,0-.3.02-1.14.2-2.28.19-3.43,0-.2-.01-.41-.02-.61-.04-3.38.18-5.69-1.75-7.83-4.01-.58-.9-1.44-1.6-1.83-2.63-.92-1.32-1.74-2.7-2.42-4.15-.54-1.14-1.34-1.64-2.57-1.57-.46.03-.93,0-1.4,0-19.6,0-39.2.04-58.8-.06-2.39-.01-3.78.76-4.66,2.88-.43,1.05-1.13,1.97-1.79,2.89-.36,1.05-1.33,1.68-1.86,2.62-2.41,2.16-4.83,4.31-8.41,4.03-.1,0-.2,0-.3.03-1.04.2-2.08.19-3.11,0Z" style="fill: #1f1a31; stroke-width: 0px;"/>
      <path d="m72.84.07c9.56-.02,19.12-.06,28.68-.06,32.25,0,64.5.02,96.75,0,1.74,0,3.36.27,4.98.89,5.53,2.14,11.08,4.23,16.68,6.37-.54.48-1.17.11-1.67.38-.41.78-1.15.57-1.79.57-5.53.01-11.05,0-16.58,0-22.88,0-45.75,0-68.63,0-.82,0-1.65.09-2.46-.13-.65-.78-1.51-1.17-2.46-1.45-7.04-2.02-14.18-3.66-21.29-5.44-.92-.23-1.84-.21-2.77-.21-9.04,0-18.08.02-27.12-.03-.84,0-1.94.38-2.34-.9Z" style="fill: #e5daca; stroke-width: 0px;"/>
      <path d="m72.84.07c.56.37,1.2.24,1.81.24,7.85,0,15.69.08,23.54-.02,4.26-.06,8.39.33,12.51,1.54,5.49,1.61,11.13,2.64,16.59,4.39.75.24,1.55.42,1.39,1.5-.53.71-1.28.48-1.98.46-1.01-.29-2.05-.24-3.08-.24-21.1,0-42.2,0-63.3,0-.82,0-1.66.13-2.45-.17-.9-.99.09-1.38.66-1.75,2.46-1.6,5.01-3.05,7.53-4.53.85-.5,1.74-.88,2.75-.91,1.27-.81,2.67-.51,4.04-.49Z" style="fill: #f0e9d8; stroke-width: 0px;"/>
      <path d="m4.61,7.7C11.33,5.04,18.18,2.75,24.99.35c.79-.28,1.62-.3,2.45-.3,12.35.01,24.7.02,37.05.04.49,0,1.04-.2,1.45.27-.14.98-1,1.28-1.69,1.65-3.8,2.04-7.52,4.24-11.4,6.13-3.82.21-7.65.08-11.47.09-7.59.01-15.18.2-22.78.06-4.02-.07-8.05.1-12.08.1-.71,0-1.49.13-1.91-.69Z" style="fill: #f0e9d6; stroke-width: 0px;"/>
      <path d="m126.81,7.72c.62,0,1.24,0,1.87,0,10.33,0,20.66,0,31,0,19.53-.01,39.06-.03,58.59-.05.67.03,1.34.07,2.01.09,3,.11,4.6,1.77,4.62,4.82.01,2.48,0,4.96,0,7.45,0,12.41-.15,24.83.07,37.23.11,6.31-.72,12.44-2.05,18.56-.33,1.51-.56,3.04-.84,4.56-.11.23-.23.45-.34.68-.31.34-.63.63-1.14.59-.7-.49-.51-1.2-.38-1.84.74-3.95,1.52-7.9,2.27-11.85.1-.55.31-1.1.83-1.44-.48-.58-1.14-.39-1.74-.4-2.76-.02-5.53,0-8.29-.31h9.86c0-.09,0-.19,0-.28-3.07,0-6.14,0-9.22,0-.6,0-1.25.18-1.77-.33.51-.66,1.23-.67,1.97-.68,2.12-.03,4.24,0,6.36-.02,2.3-.02,2.47-.17,2.48-2.47,0-14.42,0-28.84,0-43.26,0-2.12.04-4.24-.03-6.36-.03-1.02-.23-1.97-1.3-2.43-.54-.13-1.02-.41-1.55-.56-2.02-.51-4.07-.15-6.11-.26-1.36,0-2.71,0-4.07,0-4.12,0-8.24,0-12.36,0-22.73,0-45.46,0-68.18,0-1.19,0-2.37.03-3.54.28-.51.02-1.01-.02-1.52.01-1.36-.36-2.72-.26-4.09,0-6.6-.12-13.19-.12-19.79.02-1.78-.36-3.59-.31-5.39-.31-9.8,0-19.59,0-29.39,0-1.29,0-2.57.03-3.84.29-1.02-.08-2.03-.07-3.05-.02-.63-.23-1.74-.12-1.64-.98.08-.71,1.12-.52,1.77-.52,14.36-.01,28.73-.29,43.08.08,11.1.29,22.19-.05,31.11.22-7.89,0-17.94,0-28-.03-.5,0-1.28.5-1.55-.46.28-.17.6-.13.91-.13,7.21,0,14.42,0,21.63,0,.26,0,.52,0,.76.1Z" style="fill: #332b3c; stroke-width: 0px;"/>
      <path d="m3.27,83.59c-.64-.57-.67-1.4-.79-2.13-.81-4.99-1.6-9.98-2.32-14.98C-.03,65.15,0,63.8,0,62.46,0,45.97,0,29.49,0,13c0-1.97.44-3.69,2.36-4.68.44.47.41,1.03.31,1.61-.65,1.33-.87,2.73-.87,4.2.01,16.12,0,32.24.02,48.36,0,.76-.16,1.56.4,2.23.91.64,1.95.62,2.99.62,14.58,0,29.16,0,43.75.02.82,0,2.2-.42,2.31.54.12.95-1.37.64-2.09,1.01-.22.11-.5.12-.76.14-13.58.13-27.16.02-40.74.06-1.24,0-2.48-.03-3.72.02-1.57.06-1.82.33-1.6,1.88.56,3.88,1.2,7.74,1.82,11.61.09.56.27,1.11.17,1.69-.17.59-.5,1.05-1.09,1.29Z" style="fill: #302130; stroke-width: 0px;"/>
      <path d="m2.47,9.36c-.46-.3-.21-.68-.1-1.04.64-.59,1.47-.53,2.24-.63,15.66.01,31.32.03,46.98.02.56,0,1.12-.17,1.68-.26,1.33-.1,2.64-.69,3.99-.1.62.39,1.31.25,1.97.25,14.22,0,28.44,0,42.66.01.55,0,1.14-.18,1.66.18.6.44,1.3.27,1.96.27,9.88.01,19.75,0,29.63.01.56,0,1.12,0,1.68.26H57.48c0,.08,0,.17-.01.25.5.06.99.11,1.49.17-.2.76-.81.86-1.44.89-.97.04-1.95.12-2.91-.1-4.21-1.03-8.51-.66-12.78-.66-2.11,0-4.19-.2-6.28-.38.65.18,1.37-.22,1.97.32-.28.82-.99.85-1.66.84-4.34-.05-8.68.23-13.02-.2-2.05-.2-4.12-.06-6.19.1-4.49.33-8.99.09-13.49.12-.27,0-.49-.14-.68-.33Z" style="fill: #3e3247; stroke-width: 0px;"/>
      <path d="m3.27,83.59c.06-.43.23-.79.62-1.02,1.8.96,3.76.87,5.72.87,13-.01,26-.01,39,0,.96,0,1.97-.19,2.87.34.65.61.11.89-.36,1.12-.52.26-1.11.18-1.68.19-3.77.02-7.53.01-11.3,0-.9,0-1.66.09-2.35.85-.95,1.05-2.41.79-3.65.95-2.52.33-5.04-.16-7.55-.3-.37-.02-.77-.11-.99-.38-1.04-1.24-2.43-1.13-3.83-1.12-2.73.02-5.47.03-8.2,0-.61,0-1.97,2.02-1.73,2.58.18.4.57.43.92.43,1.29.01,2.55.39,3.84.37.83-.01,1.68.07,2.1.98-.7,2.22-.96,2.42-3.16,2.44-1.01,0-2.03,0-3.04,0-.53-1.46-1.21-2.72-3.11-2.45-.76.11-1-.32-.94-1.01.02-.2,0-.41,0-.61-.04-1.29.45-2.81-1.71-3.01-.49-.04-1.17-.55-1.48-1.19Z" style="fill: #221a33; stroke-width: 0px;"/>
      <path d="m57.01,7.75c-1.25-.03-2.53.23-3.75-.3,4.07-2.64,8.49-4.66,12.68-7.1.96.03,1.94-.27,2.86.21-3.72,2.22-7.44,4.45-11.15,6.67-.17.23-.41.37-.64.52Z" style="fill: #73676f; stroke-width: 0px;"/>
      <path d="m109.44,102.78c1.04,0,2.08,0,3.11,0-1.04.39-2.08.45-3.11,0Z" style="fill: #a7414c; stroke-width: 0px;"/>
      <path d="m54.5,8.99c1.48-.08,2.97-.15,4.45-.23.84.08,1.68.16,2.52-.04.44.2.91.13,1.37.13,12.13,0,24.26,0,36.38,0,.46,0,.93.07,1.38-.13,4.05.25,8.1.07,12.15.07,2.46,0,4.92.2,7.37-.08,1.46.22,2.92.22,4.39,0,.3.17.59.17.89,0,.65.25,1.33.13,2,.13,23.37,0,46.74,0,70.11,0,4.13,0,8.26,0,12.38,0,1.38,0,2.76,0,4.15,0,2.06.09,4.13-.19,6.18.16.52.01,1.03.03,1.55.04-.07.77-.68.82-1.24.88-.72.08-1.45.05-2.17.05-24.46,0-48.93,0-73.39,0-.97,0-1.94.03-2.89-.19,5.32,1.27,10.59,2.76,15.8,4.44,7.98,2.57,15.79,5.57,23.21,9.5,6.29,3.33,12.14,7.26,17.12,12.41.47.48,1.04.91,1.24,1.57.15.49.65,1.19-.37,1.43-1.12-.22-2.24-.43-3.36-.65-1.56.41-3.14-.07-4.72.13-1.74.23-3.41.68-5.07,1.2-1.21.38-1.81,1.24-1.99,2.49-.31,2.13-1.28,3.08-3.57,3.62-.53-.07-.98-.28-1.28-.75-.08-.14-.13-.3-.15-.46.15-1.04.29-2.08-.15-3.09-.29-1.12-1.26-1.19-2.15-1.36-3.7-.66-7.4-.47-11.1-.09-7.75-.15-15.51-.17-23.26.02-2.94.07-5.88.05-8.82.17-.71.03-1.32-.22-1.93-.47-3.93-1.61-7.93-1.77-11.95-.38-2.19.76-4.48.84-6.73.8-9.61-.21-19.21-.21-28.82-.21-3.72,0-7.45-.12-11.16.03-5.53.22-11.05.21-16.58.22-2.3,0-2.74-.4-2.75-2.7-.03-8.84-.03-17.68,0-26.52,0-.81-.24-1.83.96-2.15Z" style="fill: #f1ead6; stroke-width: 0px;"/>
      <path d="m199.08,39.14c.33-.7-.07-1.19-.49-1.64-3.22-3.45-6.84-6.43-10.79-9-10-6.5-21-10.77-32.33-14.27-4.64-1.44-9.32-2.68-14-3.96-.49-.13-.97-.24-1.36-.69.66-.43,1.29-.24,1.87-.24,25.89-.01,51.78,0,77.67-.02.71,0,1.45.19,2.11-.26,1.49.54,1.92,1.74,1.92,3.18,0,4.76,0,9.51-.01,14.27,0,12.41-.03,24.82.01,37.22,0,1.28-.31,1.66-1.61,1.61-3.3-.13-6.61-.11-9.92-.14-.92-3.85-1.75-7.72-2.77-11.54-1.09-4.1-3.54-7.28-7.08-9.6-.56-.36-1.03-.73-.91-1.46.31-1.89-.72-2.85-2.32-3.45Z" style="fill: #e5dac9; stroke-width: 0px;"/>
      <path d="m185.53,73.95c0-.73.41-.57.82-.39,9.01,4.1,18.09-.95,21.85-8.02.17-.32.37-.61.61-1,.67.66.55,1.53.73,2.27,1.96,7.96,3.89,15.92,5.81,23.88,1.58,6.53-3.83,11.55-10.27,10.64-1.1-.16-2.27-.24-3.18-1.04-5.99-7.36-10.33-15.76-15.06-23.91-.46-.8-1.11-1.5-1.31-2.44Z" style="fill: #49485e; stroke-width: 0px;"/>
      <path d="m179.33,44.7c0,.11-.01.22-.02.32.04.3-.13.4-.39.43-.55-.07-.88-.41-1.05-.92-.06-.2-.09-.4-.09-.61-.01-1.96-.27-2.26-2.22-2.26-9.15-.02-18.3,0-27.45,0-3.93,0-7.86-.01-11.79.01-.63,0-1.5-.31-1.79.51-.34.97.58,1.3,1.21,1.72.69.46,1.35.95,2,1.47.26.21.41.51.57.8.02,1.02.87,1.41,1.51,1.96.72.72,1.28,1.54,1.56,2.53.27.3.42.66.5,1.05.29,1.18,1.21,2.34.11,3.56-1.06.46-1.06-.38-1.18-.99-.19-.96-.41-1.87-1.34-2.42-1.16-.08-1.35-1.15-1.83-1.87-3.2-4.76-7.8-6.91-13.37-7.29-.57-.04-1.13.02-1.66.24-5.15,1.27-9.14,4-11.3,9.03-.96,2.49-1.07,5.07-.75,7.68.08.68.15,1.33-.46,1.82-1.15-.59-1.28.15-1.31,1.01-.92,1.57-.94,3.38-1.31,5.09-1.69,7.82-3.65,15.57-5.5,23.34-.27,1.14-.54,2.3-.47,3.5-.08.26-.22.46-.46.58-.47.07-.89.24-1.21.61-.98-1.87-.66-3.75-.06-5.63.35-1.13.56-2.3.7-3.47.1-.86-.29-1.26-1.1-1.34-.62-.06-1.24-.04-1.86-.04-13.23,0-26.46,0-39.69,0-.78,0-1.55.02-2.32-.05-.63-.06-1.26-.14-1.35-.97.69-.89,1.69-.64,2.59-.64,10.23-.03,20.46-.01,30.69-.02,3.62,0,7.23.02,10.85,0,1.86-.01,2.07-.19,2.55-2.01,1.08-4.04,1.88-8.15,2.9-12.21.45-1.78.19-2.09-1.71-2.09-8.68-.02-17.36,0-26.04-.01-3.26,0-6.51.06-9.77-.05-3.32-.8-6.69-.34-10.04-.48-.69-.03-1.87.23-1.87-.55,0-1,1.21-.67,1.91-.67,15.09-.02,30.19-.02,45.28-.02.93,0,1.87.06,2.71-.44.96-.52.94-1.54,1.15-2.41.62-2.59,1.18-5.2,1.83-7.78.55-2.16,1.36-4.19,2.52-6.08.62-.72.56-1.2-.46-1.35-.2-.03-.41-.03-.62-.03-7.96.02-15.91-.07-23.87.05-1.27-.25-2.56-.28-3.85-.28-5.42.01-10.84.02-16.26,0-.62,0-1.62.22-1.65-.63-.03-.79.94-.76,1.6-.79,1.39-.06,2.79.01,4.18-.05,1.49-.06,1.83-.47,1.8-2.05-.03-1.46-.33-1.81-1.86-1.82-6.4-.05-12.8-.01-19.2-.02-2.22,0-4.44-.02-6.66.01-.67,0-1.35-.05-1.94.37-1.93.47-3.9.19-5.84.23-1.8.03-3.61.09-5.41-.07-2.81-.86-5.69-.6-8.55-.45-1.38.07-1.51,1.27-1.62,2.41-.07.76.63,1.61-.25,2.28-.63.12-1.13-.16-1.49-.62-1.04-1.35-1.07-2.91-.55-4.41.49-1.43,1.63-2.21,3.18-2.3.1,0,.21-.01.31-.01,4.64-.01,9.27-.15,13.9-.29,4.68-.14,9.36.46,14.05.26.76-.03,1.56.13,2.22-.42.57-.86.7-1.82.7-2.82,0-7.76,0-15.52,0-23.27,0-1-.12-1.96-.75-2.79-.64-.47-1.38-.36-2.09-.37-3.08-.02-6.17.02-9.25-.02-.7,0-1.47.1-1.96-.62h-3.81c.62-.5,1.06-.33,1.44-.34,5.2-.02,10.39-.02,15.59,0,1.28,0,2.54.19,3.76.58-.48.53-.29,1.18-.29,1.78,0,9.15,0,18.3,0,27.45,0,.81-.1,1.44,1.14,1.44,19.8-.06,39.6-.07,59.4-.07,1.88,0,3.68-.31,5.47-.85,3.74-1.12,7.44-.91,11.07.45.89.33,1.76.47,2.7.46,9.93-.05,19.85-.06,29.78-.1.57,0,1.13-.05,1.7-.08,3.11.27,6.23.04,9.34.12.87.02,1.74-.11,2.6.09.72.43,1.44.87,1.89,1.61.22,1.13.16,2.27.03,3.41Z" style="fill: #242335; stroke-width: 0px;"/>
      <path d="m190.42,42.48c1.18-.57,2.45-.37,3.65-.23,7.01.86,12.4,5.7,13.84,12.57.86,4.1-.58,7.72-2.85,11.08-3.48,5.16-12.01,8.85-20.12,4.18-.15.68-.29,1.31-.42,1.95-.71,3.43-4.24,7.01-7.58,7.68-4.42.89-8.69-.73-10.91-4.14-2.07-3.17-1.09-8.21,2.29-10.91-.66,2.03-1.28,3.83-1.2,5.81.15,3.31,2.94,6.49,6.12,6.8,4.41.43,7.67-1.72,8.49-5.49.46-2.11-.02-3.98-1.15-5.74-.45-.69-.88-1.39-1.32-2.09-1.41-2.89-1.97-5.94-1.7-9.14.2-2.78,1.75-4.91,3.55-6.81,2.71-2.87,5.97-4.86,9.95-5.33-.19-.02-.47.08-.63-.2Z" style="fill: #4b4a5f; stroke-width: 0px;"/>
      <path d="m122.47,42.5c2.55-.79,5.01-.2,7.4.64,4.41,1.55,7.6,4.48,9.6,8.71.71,2.49,1.27,4.95.76,7.6-.36,1.9-1.2,3.48-2.27,5.01-1.26,1.79-2.23,3.66-2.18,5.99.06,2.94,1.59,4.91,4.01,6.12,2.62,1.31,5.37,1.16,7.75-.66,3.15-2.4,3.96-6.06,2.33-9.68-.1-.22-.18-.44-.34-.85,4.14,3.45,3.58,9.68-.98,12.82-5.72,3.94-14.74.96-15.82-7.28-.03-.25-.06-.5-.12-.96-4.72,2.96-9.61,3.05-14.43.87-3.3-1.49-5.96-3.88-7.2-7.49.05-.91.59-1.05,1.38-.86-1.34-.86-1.57-1.82-.77-3.2,1.26-1.47,2.42-1.41,3.14.3.6,1.41,1.52,1.99,2.99,1.83.46-.05.93-.02,1.39.01,1.52.1,1.86.49,1.81,2.04-.08,2.54.57,3.21,3.1,3.22.62,0,1.24,0,1.86,0,2.25-.02,2.45-.2,2.73-2.4.35-2.74.4-2.93,3.11-2.83,2.28.08,3.37-1.42,4.63-2.81.36-.4.05-.78-.26-1.07-.83-.77-1.67-1.53-2.16-2.6-.21-.48-.7-.57-1.18-.6-.67-.04-1.34-.01-2.01-.05-1.69-.09-2.29-.7-2.39-2.39-.17-2.95-.42-3.19-3.37-3.22-.57,0-1.14-.01-1.7,0-1.84.05-2.45.63-2.6,2.51-.03.36-.01.72-.04,1.08-.13,1.43-.69,1.93-2.1,1.82-.46-.04-.93-.06-1.39-.11-1.3-.12-2.15.31-2.53,1.67-.47,1.69-2.18,2.37-3.22,3.61-.6-.29-.69-.84-.73-1.42-.12-2.21-.04-4.4.78-6.49,2.85-5.44,7.36-8.34,13.22-8.78-.54-.16-1.43.66-2.2-.14Z" style="fill: #4c4a60; stroke-width: 0px;"/>
      <path d="m141.98,55.26c.17-1.29-.63-2.42-.6-3.69.36-.66.99-.65,1.62-.66,10.52,0,21.03,0,31.55,0,.63,0,1.26,0,1.63.64-.3,2.24-1.08,4.39-.98,6.71.04.98.75,2.13.15,2.84-.59.7-1.86.23-2.81.4-5.24.95-9.37,6.42-8.66,11.72.19,1.46-.26,1.7-1.5,1.6-.98-.08-1.96-.05-2.94-.07-1.4-1.11-.91-2.67-1-4.09.63-1.33,1.98-2.08,2.71-3.33.23-.39.7-.73.46-1.23-.23-.49-.77-.44-1.24-.45-.83-.01-1.65,0-2.48,0q-1.96,0-2.35,1.83c-.71.79-1.52,1.26-2.61.75-1.97-4.24-5.2-6.72-9.93-7.01-.95-.06-1.13-.4-.96-1.21.34-1.59.35-3.18-.07-4.76Z" style="fill: #74737e; stroke-width: 0px;"/>
      <path d="m116.26,72.34c3.34,1.97,6.93,2.77,10.82,2.51,1.48-.1,2.78-.67,4.51-1.13-.82,1.83-1.51,3.44-2.27,5.03-2.46,5.17-4.94,10.33-7.66,15.37-2.15,3.99-5.29,6.73-9.94,7.26-3.08.35-5.9-.42-8.18-2.69-.23-.64.12-1.11.51-1.53,3.81-4.04,5.85-9.08,7.97-14.08,1.27-3,2.27-6.1,3.29-9.19.19-.59.34-1.2.94-1.55Z" style="fill: #49485e; stroke-width: 0px;"/>
      <path d="m116.26,72.34c-.18,2.3-1.18,4.38-1.92,6.51-1.76,5.03-3.84,9.92-6.55,14.52-1.17,1.98-2.77,3.58-4.23,5.31-1.33-.9-1.91-2.3-2.51-3.69.02-.22.04-.44.07-.66,1.11-3.94,1.92-7.96,2.91-11.93,1.48-5.98,2.95-11.95,4.07-18.01.08-.41.24-.79.59-1.06.31-.12.49-.04.5.31,1.29,3.78,3.94,6.45,7.1,8.7Z" style="fill: #7c7c85; stroke-width: 0px;"/>
      <path d="m184.88,76.62c1.17,2.24,2.19,4.27,3.28,6.26.57,1.05.23,1.38-.84,1.35-.98-.03-1.96-.05-2.94-.05-17.79-.01-35.58-.02-53.38-.03-.56,0-1.12,0-1.97,0,1.31-2.65,2.51-5.08,3.79-7.65.73,1.01,1.35,1.97,2.07,2.86,3.82,4.72,9.89,5.45,14.72,1.73.95-.73,1.88-1.09,3.09-1.07,4.29.06,8.59.02,12.88,0,.73,0,1.37.07,2,.61,5.49,4.79,13.12,3.4,16.72-3,.15-.26.3-.52.58-1.02Z" style="fill: #6d6572; stroke-width: 0px;"/>
      <path d="m223.31,66.52c-.4,3.73-1.34,7.36-2,11.04-.24,1.36-.48,2.72-.72,4.09-.18.43-.28.9-.55,1.27-.66.91-1.65,1.24-2.72,1.16-1.02-.07-.85-1.07-1.01-1.69-1.21-4.83-2.33-9.68-3.53-14.52-.26-1.04-.11-1.46,1.1-1.43,3.14.09,6.28.06,9.42.09Z" style="fill: #756773; stroke-width: 0px;"/>
      <path d="m140.73,50.92c-.02-1-.66-1.7-1.19-2.46.64-.98,1.66-.7,2.55-.7,9.67-.03,19.34-.02,29-.02,1.09,0,2.17-.05,3.26.01,2.05.12,3.93-.12,5.28-1.9.12-.16.37-.18.57-.21.89-.54,1.78-1.08,2.68-1.61.54-.31.63-.82.53-1.34-.31-1.73.4-2.84,2.01-3.39,3.36-1.13,6.76-1.75,10.29-.82.3.43.13.7-.3.88-.66.8-1.54.31-2.32.4-.77.09-1.54-.13-2.31,0-1.6.28-3.18.64-4.67,1.3-.78.35-.77.43-.11.89.55-.1,1.11-.58,1.65.03,0,.37.09.69.41.91-.05.77-.74.74-1.22.98-4.59,2.32-8.16,5.52-9.25,10.83-.04,1.43-.14,2.86.06,4.29.08.59,0,1.13-.53,1.5-.34-.16-.68-.42-.6-.8.49-2.22-.83-4.54.4-6.73.33-.59.26-1.31-.44-1.75-.66-.39-1.39-.31-2.11-.31-10.3,0-20.61,0-30.91.02-.92,0-1.83-.24-2.75,0Z" style="fill: #302633; stroke-width: 0px;"/>
      <path d="m185.53,73.95c4.65,6.55,8.35,13.69,12.7,20.42,1,1.55,2.11,3.04,3.12,4.59.26.39.8.71.55,1.33-2.61-1.32-4.56-3.32-5.96-5.88-3.4-6.18-6.92-12.31-9.89-18.72-.26-.56-.61-1.09-.51-1.75Z" style="fill: #797680; stroke-width: 0px;"/>
      <path d="m140.73,50.92c0-1.17.91-.61,1.36-.61,6.76-.05,13.53-.05,20.29-.05,4.44,0,8.88.02,13.32.02.67,0,1.27,0,.8.94l-.32.33c-11.6,0-23.2.01-34.8.02-.22-.22-.43-.43-.65-.65Z" style="fill: #e6e2e2; stroke-width: 0px;"/>
      <path d="m172.4,63.6c1.52-.68,2.94-.23,4.34.41-.17,2.33-.74,4.58-1.85,6.63-.67,1.24-1.8,1.99-3.36,1.66-1.13-.79-2.19-1.64-2.46-3.11-.23-2.66,1.23-4.31,3.33-5.59Z" style="fill: #a6a298; stroke-width: 0px;"/>
      <path d="m143.24,63.38c.84-.19,1.43.48,2.17.62-.11,2.37-.64,4.65-1.88,6.67-.86,1.4-2.11,1.74-3.69,1.35-.79-.58-1.53-1.2-1.79-2.21-.09-3.98,1.03-5.37,5.2-6.43Z" style="fill: #a1a19a; stroke-width: 0px;"/>
      <path d="m139.84,72.02c2.2-.33,3.52-1.51,4.11-3.74.38-1.44.28-3.1,1.46-4.28,1.84.81,2.8,2.29,2.78,4.24-.01,2.01-1.01,3.59-2.89,4.38-1.88.79-3.79.95-5.47-.59Z" style="fill: #888788; stroke-width: 0px;"/>
      <path d="m152.94,68.24c.82-.29,1.64-.58,2.46-.86,1.89.24,2.65,1.69,3.41,3.15.49,1.37.26,2.84.63,4.23-1.55.02-3.1,0-4.65.07-1.06.05-1.34-.44-1.29-1.39.08-1.76.08-3.51-.56-5.2Z" style="fill: #524e60; stroke-width: 0px;"/>
      <path d="m171.53,72.31c3.3-.9,3.67-3.77,4.27-6.44.16-.73.31-1.38.93-1.84,2.64,1.56,3.32,4.33,1.77,6.84-1.41,2.28-5.36,3.2-6.98,1.45Z" style="fill: #89878f; stroke-width: 0px;"/>
      <path d="m108.83,63.32c-1.77,9.56-4.31,18.95-6.57,28.4-.22.92-.24,1.97-1.16,2.6-.13-3.04,1-5.86,1.65-8.75,1.8-8.02,3.71-16.02,5.59-24.04.43.14.11.72.44.95.02.18.05.36.07.54.08.08.1.15.06.21-.03.06-.06.1-.09.1Z" style="fill: #d8d2c9; stroke-width: 0px;"/>
      <path d="m190.42,39.39c1.66-.61,3.33-.22,4.99-.02,1.05.25,2.11.49,3.16.74,1.49.36,2,1.29,1.63,2.9-4.1-1.74-8.24-2.5-12.54-1.02-.54.16-1.08.33-1.63.49-1-.89-.16-1.3.48-1.67,1.21-.71,2.65-.83,3.91-1.43Z" style="fill: #5c596d; stroke-width: 0px;"/>
      <path d="m111.9,51.18c-.41,2.2-.72,4.41-.62,6.65.02.5-.06,1.03.34,1.44h0c-.01,2.06.25,2.68,1.49,3.37-.83.07-1.65-.05-2.14.7-.29-.63-.59-1.26-.88-1.89-.33-2.56-.77-5.12-.05-7.68.22-.79.36-1.62.96-2.25.28-.18.48-.54.9-.35Z" style="fill: #716e7a; stroke-width: 0px;"/>
      <path d="m177.38,54.31c1-5.41,4.68-8.51,9.29-10.81.45-.23.94-.4,1.41-.59.78-.14,1.57-.28,2.35-.42.66,0,1.32,0,1.98,0-6.87,1.64-12.26,4.93-14.41,12.12-.37.25-.63.26-.62-.29Z" style="fill: #c8c2c6; stroke-width: 0px;"/>
      <path d="m177.38,54.31c.21.1.41.19.62.29-.37,3.23,1.06,6.22,1.27,9.37-1.15-.88-1.46-2.27-2.13-3.45,0-2.07-.53-4.16.24-6.2Z" style="fill: #818085; stroke-width: 0px;"/>
      <path d="m152.97,77.43h12.04c0,.1,0,.2,0,.3h-12.05c0-.1.01-.2.02-.3Z" style="fill: #403f53; stroke-width: 0px;"/>
      <path d="m143.24,63.38c-.43.42-1.01.5-1.52.73-2.5,1.08-3.61,3.06-3.67,5.71-1.11-3.6,1.25-6.52,5.2-6.43Z" style="fill: #cfd1cd; stroke-width: 0px;"/>
      <path d="m172.4,63.6c.1.11.57.19.22.35-2.28,1.03-3.38,2.81-3.55,5.24-.49-2.66.6-4.49,3.33-5.59Z" style="fill: #d1d3d2; stroke-width: 0px;"/>
      <path d="m108.83,63.32c0-.1.02-.21.03-.31.29-.16.31-.71.77-.61.13.03.27.31.3.48.06.54-.34.66-.76.75-.11-.11-.22-.21-.33-.32Z" style="fill: #242335; stroke-width: 0px;"/>
      <path d="m104.68,65.44s.12.03.14.06c.05.07.07.16.1.24-.51.02-1.02.06-1.53.06-15.72,0-31.44,0-47.16,0-.51,0-1.01,0-1.52,0,0,.1,0,.21,0,.31,3.21,0,6.43,0,9.64,0,.66,0,1.35-.17,1.95.28-.45.76-1.22.67-1.93.68-2.52.05-5.04-.02-7.56.03-1.61.03-1.89.31-1.91,1.92-.05,4.27,0,8.54-.03,12.81,0,.82.08,1.67-.68,2.27.58.49,1.29.3,1.94.3,14.36,0,28.71,0,43.07,0,2.33,0,2.38.08,1.97,2.36-.16.86-.18,1.75-.58,2.55-.16.31-.17.91-.82.61-.23-.45-.62-.45-1.06-.44-12.91.25-25.83.08-38.74.09-2.63,0-5.26-.12-7.9-.19-1.44,1.12-2.92.43-4.36.05-.66-.17-1.25-.34-1.9-.07-9.7.35-19.4.27-29.11.03-1.94-.22-3.87-.5-5.82-.64-.97-.07-1.82-.28-2.75-.99,1.3-.28.8-2.07,2.22-2.17-.13-.7-.96-.4-1.14-.96.35-.44.85-.23,1.27-.23,3.87-.02,7.74-.02,11.61,0,.62,0,1.44-.34,1.38.93-.03.52.74.6,1.27.62,3.18.11,6.36.66,9.53-.01.51-.11,1.64.37,1-1.1-.27-.63.75-.41,1.16-.41,4.49-.03,8.98-.01,13.47-.02.61,0,1.25.13,1.8-.28-.74-.6-.68-1.45-.68-2.27-.02-4.02,0-8.03-.01-12.05q0-2.14-2.04-2.85c-.3-.11-.55-.28-.69-.57.79-.55,1.72-.1,2.57-.59h-1.49c-15.48,0-30.96,0-46.44-.02-.46,0-1.09.38-1.4-.35.55-.75,1.38-.59,2.14-.61,3.51-.08,7.02.08,10.52-.1,1.68.33,3.39.31,5.09.31,6.46-.01,12.92-.01,19.39,0,1.3,0,2.58-.03,3.85-.29,2.29.14,4.58.06,6.88.06.51,0,1.02-.01,1.45-.36.58-.79.7-1.69.7-2.63,0-3.85,0-7.71,0-11.56,0-.84-.11-1.64-.51-2.38-.11-.13-.23-.25-.38-.34-.8-.41-1.67-.48-2.55-.55-.32-.03-.63-.17-.72-.49-.07-.28.17-.45.38-.59,1.2-.82,5.83-.23,6.77.87.11.38.27.75.21,1.16.24,4.81.05,9.62.11,14.42.03,2.26.21,2.47,2.51,2.47,14.79.01,29.58,0,44.37.02.99,0,2.1-.33,2.91.61Z" style="fill: #1f1a31; stroke-width: 0px;"/>
      <path d="m45.82,89.4c1.2-.62,2.48-.36,3.7-.21.85.1,1.7.18,2.55.23-.33.91-.49,2.11-1.55,2.33-1.39.29-2.9.35-4.27-.09-.62-.2-1.21-1.06-1.03-1.73.18-.64,1.09-.12,1.69-.39-.4-.05-.75-.09-1.1-.13Z" style="fill: #221a32; stroke-width: 0px;"/>
      <path d="m57.01,7.75c.12-.29.34-.44.64-.52.68.38,1.42.22,2.13.22,21.64,0,43.28,0,64.91.02.71,0,1.45-.17,2.12.25-6.88.01-13.75.02-20.63.04-.88,0-1.76.03-2.63.05-1.6-.02-3.2-.07-4.8-.07-13.91,0-27.82,0-41.73.02Z" style="fill: #e5daca; stroke-width: 0px;"/>
      <path d="m197.45,8.96c-.62-.02-1.23-.07-1.85-.07-22.68,0-45.36,0-68.04-.02-.71,0-1.45.12-2.15-.15,9.1-.01,18.2-.03,27.3-.03,14.27,0,28.55,0,42.82,0,.72,0,1.44.05,2.17.08-.05.11-.13.17-.25.19Z" style="fill: #3e3247; stroke-width: 0px;"/>
      <path d="m100.61,8.73c-.41.05-.81.13-1.22.13-12.18.01-24.36.02-36.55.02-.46,0-.91-.1-1.37-.15,13.04,0,26.09,0,39.13,0Z" style="fill: #3e3247; stroke-width: 0px;"/>
      <path d="m197.45,8.96c.08-.06.17-.13.25-.19,4.04,0,8.09-.01,12.13-.02.13.01.21.08.25.21-4.21.14-8.42.14-12.64,0Z" style="fill: #e5dac9; stroke-width: 0px;"/>
      <path d="m220.22,9.02c-2.1-.02-4.19-.04-6.29-.06.05-.12.13-.19.26-.21,2,.31,4.03-.21,6.02.27Z" style="fill: #e5dac9; stroke-width: 0px;"/>
      <path d="m214.2,8.75c-.09.07-.18.14-.26.21-1.28,0-2.57,0-3.85,0-.08-.07-.17-.14-.25-.21,1.46,0,2.91,0,4.37,0Z" style="fill: #3e3247; stroke-width: 0px;"/>
      <path d="m124.51,8.72c-1.46.25-2.92.23-4.39,0,1.46,0,2.92,0,4.39,0Z" style="fill: #3e3247; stroke-width: 0px;"/>
      <path d="m51.57,65.44c-2.89.07-5.79-.23-8.68.04-.39-.18-.81-.14-1.22-.14-8.82,0-17.64,0-26.47,0-.41,0-.83-.04-1.22.14-4.15-.24-8.3-.1-12.44-.04-.53-.37-.36-.93-.36-1.42,0-17.21,0-34.41-.01-51.62,0-1.23.53-2.17,1.3-3.04.76-.35,1.57-.43,2.4-.43,10.27-.01,20.54-.04,30.81-.06.61,0,1.23-.08,1.84-.12,4.69,0,9.37,0,14.06,0,.54.24.28.72.29,1.08.02,9.57.02,19.15,0,28.72,0,.39.17.83-.23,1.15-7.93-.04-15.87-.08-23.8-.11-2.37,0-4.74-.03-7.11.07-1.83.07-2.86.87-3,2.3-.25,2.48-.02,3.91,1.72,4.45.4-.23.81-.41,1.31-.38,7.01.37,14.03.17,21.04.12,3.35-.03,6.62.74,9.95.69l.02.03c.26,2.63.08,5.26.11,7.89.04,3.1.02,6.2,0,9.3,0,.46.32,1.03-.28,1.39Z" style="fill: #f1e9d6; stroke-width: 0px;"/>
      <path d="m48.3,66.4q3.43.21,3.43,3.72c0,4.68,0,9.35,0,14.03-6.31.01-12.62.03-18.92.03-8.74,0-17.48-.02-26.22-.04-1.18,0-2.3-.18-2.69-1.56-.81-4.82-1.6-9.65-2.44-14.46-.24-1.39.37-1.62,1.6-1.62,14.47.02,28.93,0,43.4-.02.62,0,1.24-.04,1.86-.07Z" style="fill: #807f88; stroke-width: 0px;"/>
      <path d="m25.25,84.76c.5-.49.97-.27,1.43-.17-.37.27-.73.58-1.43.17Z" style="fill: #1f1a31; stroke-width: 0px;"/>
      <path d="m180.21,45.65c-1.05,2.07-2.58,2.89-5.04,2.86-11.87-.13-23.75-.05-35.62-.04-.89-.3-1.38-.94-1.54-1.85,1.65-.32,3.32-.5,4.99-.5,10.85-.02,21.71-.02,32.56,0,1.22,0,2.36-.1,3.4-.77.11-.11.23-.21.34-.32.3.21.6.42.9.62Z" style="fill: #e9e8ea; stroke-width: 0px;"/>
      <path d="m177.4,39.68c-3.98-.17-7.96.12-11.94-.21,3.69-.02,7.38-.05,11.07-.05.29,0,.58.17.86.26Z" style="fill: #e5dac9; stroke-width: 0px;"/>
      <path d="m179.33,44.7c-.01-1.14-.02-2.27-.03-3.41.5,1.13.46,2.27.03,3.41Z" style="fill: #e5dac9; stroke-width: 0px;"/>
      <path d="m104.68,65.44c-10.74-.02-21.47-.06-32.21-.07-5.78,0-11.56-.03-17.34.05-.83.01-.93-.19-.93-.89.03-5.57.04-11.15.05-16.72.55-.4,1.18-.31,1.8-.31,16.91.05,33.82-.1,50.73-.07.72,0,1.46-.05,2.17.09.85.16,1.45.58,1.15,1.6-2.55,4.62-3.07,9.84-4.39,14.83-.16.6-.1,1.39-1.02,1.49Z" style="fill: #f1e9d6; stroke-width: 0px;"/>
      <path d="m54.2,84.13c0-5.32.05-10.64-.03-15.96-.02-1.41.43-1.74,1.76-1.71,3.46.07,6.92-.02,10.38-.04,9.93.02,19.85.04,29.78.06,2.53,0,5.07.04,7.6,0,1-.01,1.4.22,1.12,1.33-1.25,5.11-2.48,10.22-3.62,15.35-.28,1.24-1.07,1.03-1.86,1.03-13.5,0-26.99,0-40.49,0-1.55,0-3.1-.04-4.65-.06Z" style="fill: #7f7e86; stroke-width: 0px;"/>
      <path d="m51.73,46.83c-9.71,0-19.41,0-29.12,0-1.08,0-2.16.02-3.19-.42-.7-.99-.69-2.13-.57-3.25.1-.98.64-2.02,1.58-2.04,2.99-.06,6.03-.68,8.95.49.13.23.22.46.22.73.01,1.98.03,2.01,2.05,2.03,2.41.02,4.82.03,7.24,0,1.9-.03,2.07-.26,1.83-2.16-.03-.21.03-.4.13-.59.37-.66,1.01-.62,1.63-.62,9.09,0,18.18.01,27.27-.02,1.14,0,1.55.37,1.53,1.52-.11,4.54.59,3.68-3.74,3.77-1.38.03-2.77,0-4.15.29.6,0,1.19,0,1.79,0,6.61.02,13.22.05,19.83.07-.22.85-.92.88-1.6.88-9.22.01-18.44,0-27.66,0-.6,0-1.12-.13-1.53-.59-.71-.81-1.67-.63-2.57-.64-1.26-.02-2.52,0-3.77.07,1.26.47,2.64-.22,3.86.49Z" style="fill: #37374d; stroke-width: 0px;"/>
      <path d="m137.69,45.98c-1.14-.68-2.32-1.33-3.43-2.06-1-.67-.55-1.81-.66-2.73-.04-.33.8-.19,1.23-.19,8.99-.03,17.98-.04,26.98-.05,4.7,0,9.41.02,14.11.03,2.43,0,2.77.39,2.55,2.8-.04.41-.09.82-.14,1.23-.12.73-.58,1.03-1.29,1.09-.87.07-1.74.16-2.62.16-10.62-.01-21.24,0-31.86-.01-1.63,0-3.29.55-4.87-.27Z" style="fill: #c8bdbd; stroke-width: 0px;"/>
      <path d="m93.51,45.77c-6.1,0-12.2-.03-18.29.03-1.22.01-1.55-.36-1.54-1.56.03-3.25-.03-3.26,3.19-3.26,12.35,0,24.7,0,37.06.02.56,0,1.51-.34,1.62.33.16.95.43,2.11-.47,2.92-1,.91-2.09,1.54-3.58,1.52-5.99-.07-11.99-.03-17.98-.03,0,0,0,.02,0,.03Z" style="fill: #c6bcbe; stroke-width: 0px;"/>
      <path d="m54.22,46.91c9.7-.06,19.4-.12,29.1-.18.56,0,1.12-.07,1.69-.11,7.83.02,15.66.04,23.49.06,1.11,0,2.23,0,3.65,0-.86,1.02-1.46,1.74-2.06,2.45-.2-1.19-1.14-1-1.94-1-5.74-.01-11.47,0-17.21,0-11.52,0-23.05,0-34.57,0-.72,0-1.45.09-2.12-.31-.01-.3-.02-.6-.03-.9Z" style="fill: #f4f2ee; stroke-width: 0px;"/>
      <path d="m40.86,41.61c.58.66,1.22,1.33.78,2.31-.45,1-1.33,1.16-2.31,1.15-2.62-.02-5.24,0-7.86,0-2.85,0-3.42-.97-2.08-3.46,3.82,0,7.65,0,11.47,0Z" style="fill: #c62f46; stroke-width: 0px;"/>
      <path d="m137.69,45.98c9.86-.24,19.72-.1,29.57-.11,2.79,0,5.58,0,8.36-.05.95-.02,2,.11,2.7-.81.35-.15.6-.11.64.33-.21,1.13-1.09,1.24-1.98,1.26-3.15.04-6.29.06-9.44.08-9.34.03-18.67.06-28.01.08-.51,0-1.02-.09-1.53-.14-.11-.21-.22-.42-.32-.64Z" style="fill: #1f1a31; stroke-width: 0px;"/>
      <path d="m127.09,39.46c1.48-.1,2.83.41,4.16.96.28.11.55.3.75.53.4.46.57,1.06.26,1.57-.32.53-.87.15-1.25-.03-2.4-1.14-4.93-1.39-7.53-1.2-.76.05-1.52.18-2.28.28-.83-.98.06-1.28.69-1.43,1.7-.4,3.4-.99,5.2-.68Z" style="fill: #545367; stroke-width: 0px;"/>
      <path d="m111.9,51.18c-.32.08-.44.64-.9.35,2.2-5.07,6.23-7.82,11.47-9.03,1.18,0,2.35,0,3.53,0-6.15.61-10.89,3.37-14.09,8.68Z" style="fill: #cbc6cc; stroke-width: 0px;"/>
      <path d="m51.63,39.7c.05-.41.14-.81.15-1.22,0-9.46,0-18.91,0-28.37,0-.46.06-.93-.2-1.36.65.35.47.98.47,1.52,0,9.29,0,18.59,0,27.88,0,.54.19,1.16-.42,1.55Z" style="fill: #3e3247; stroke-width: 0px;"/>
      <path d="m127.09,39.46c-1.76.11-3.32.99-5.05,1.22-.55.07-1.06.12-.84.89-1.33.54-2.65,1.07-3.98,1.61-.48-1.02.21-1.54.93-1.95.71-.4,1.43-.78,2.12-1.21.84-.56,1.8-.6,2.76-.67,1.26-.06,2.53-.21,3.78.09.09,0,.18.02.27.03Z" style="fill: #767381; stroke-width: 0px;"/>
      <path d="m120.28,40.01c-.3.9-1.31.96-1.87,1.57-.46.5-.96.93-1.18,1.59-.2.05-.51.47-.58.09-.17-.86-.08-1.79.83-2.22.9-.42,1.77-.95,2.8-1.04Z" style="fill: #d5d3d5; stroke-width: 0px;"/>
      <path d="m126.82,39.43c-1.26-.03-2.52-.06-3.78-.09,1.27-.31,2.53-.4,3.78.09Z" style="fill: #545367; stroke-width: 0px;"/>
      <path d="m197.89,65.72c.4,3.13-1.81,4.4-4.39,4.43-2.99.04-4.54-1.59-4.63-4.51-.1-3.1.56-4.58,4.69-4.78,2.98-.15,4.34,1.48,4.33,4.86Z" style="fill: #1e1f3b; stroke-width: 0px;"/>
      <path d="m197.89,48.77c.05,1.87-.05,3.86-2.34,4.87-2.86,1.26-7.22-.27-6.69-4.13.07-.51.02-1.03.02-1.55.03-2.94.93-3.83,3.92-3.86.21,0,.41,0,.62,0,3.36.07,4.46,1.17,4.46,4.67Z" style="fill: #262438; stroke-width: 0px;"/>
      <path d="m179.21,57.13c.07-.72.08-1.44.22-2.14.25-1.22,1.04-1.86,2.29-1.88,1.08-.02,2.16-.01,3.25-.01,2.41,0,4.11,1.64,4.17,3.99.07,2.52-1.6,4.51-3.96,4.67-.51.04-1.03.03-1.55,0-3.39-.21-4.35-1.23-4.42-4.63Z" style="fill: #251c38; stroke-width: 0px;"/>
      <path d="m202.61,61.76c-3.02-.02-5-1.86-4.93-4.58.06-2.42,2.02-4.15,4.68-4.13,2.82.02,4.54,1.75,4.53,4.55-.02,2.67-1.57,4.18-4.27,4.16Z" style="fill: #1d1a33; stroke-width: 0px;"/>
      <path d="m111.62,59.28c.11-1.06.28-2.08,1.52-2.43.39-.11.52-.41.66-.77,1.15-2.93,1.16-2.93,4.21-2.65q1.98.18,2-1.8c0-.36-.02-.73.02-1.08.23-1.94.83-2.49,2.78-2.44,1.49.04,2.98-.09,4.48.19,1.24.23,1.75.82,1.74,2.09,0,3.55-.55,3.36,3.32,3.29,1.37-.02,2.25.25,2.59,1.74.22.96,1.26,1.33,1.97,1.87,1.08.82.81,1.51-.1,2.03-.72.42-1.11.95-1.48,1.66-.6,1.16-1.87.91-2.9,1.07-.91.15-2-.16-2.73.24-.87.49-.29,1.71-.46,2.6-.47,2.47-.47,2.5-2.96,2.51-1.03,0-2.07.01-3.1,0-2.16-.01-3.59-1.7-2.97-3.82.42-1.45-.14-1.6-1.3-1.51-.67.05-1.35-.05-2.01.02-1.35.15-2.11-.46-2.59-1.68-.74-1.87-.78-1.86-2.7-1.13,0,0,0,0,0,0Z" style="fill: #202133; stroke-width: 0px;"/>
      <path d="m124.43,47.58c-.59-.28-1.45.37-1.74-.54-.18-.57,1.39-2.01,2.07-2.01,1.24,0,1.43,1.06,1.42,1.83-.03,1.32-1.22.3-1.75.72Z" style="fill: #1c1a2a; stroke-width: 0px;"/>
      <path d="m124.6,67.93c.61.26,1.75-.35,1.68.77-.04.66-.64,1.73-1.57,1.63-.88-.09-1.67-.95-1.69-1.79-.02-1.06,1.06-.3,1.58-.61Z" style="fill: #232132; stroke-width: 0px;"/>
      <path d="m163.97,58.95c.03-2.96.07-2.99,2.84-1.9.91.36,1.83.69,2.71,1.13.82.41.86,1.01.08,1.51-1.27.82-2.68,1.32-4.12,1.72-.99.27-1.62-.03-1.51-1.22.04-.41,0-.82,0-1.24Z" style="fill: #232132; stroke-width: 0px;"/>
      <path d="m150.74,61.21c-.05,0-.1,0-.15,0-2.65-.04-3.3-.94-2.63-3.59.13-.53.4-.81.95-.82.62-.01,1.24-.06,1.86-.07,3.59-.01,2.96-.25,3.07,3.05.03,1.05-.27,1.56-1.39,1.45-.56-.05-1.13,0-1.7,0h0Z" style="fill: #24202f; stroke-width: 0px;"/>
      <path d="m158.81,70.52c-1.14-1.05-2.28-2.1-3.41-3.15-.13-.33-.25-.67-.4-.98-.39-.8-.09-1.18.74-1.19,2-.02,4-.02,6,0,1.13.01,1.19.71.7,1.43-1,1.48-1.96,3.02-3.62,3.89Z" style="fill: #211f31; stroke-width: 0px;"/>
      <path d="m190.42,39.39c.1.03.21.03.29.08.48.29-.02.21-.1.23-1.4.3-2.76.73-3.97,1.51-.44.28-1.1.53-.61,1.28-.57-.13-.81.6-1.37.52-.2-1.33.43-2.11,1.64-2.54,1.34-.48,2.7-.91,4.12-1.08Z" style="fill: #c8c5cc; stroke-width: 0px;"/>
      <path d="m13.99,65.48c1.74-.32,3.49-.16,5.24-.17,7.48-.02,14.97.01,22.45.03.4,0,.81.09,1.21.13-9.64,0-19.27,0-28.91,0Z" style="fill: #302130; stroke-width: 0px;"/>
      <path d="m51.57,65.44c.06-.45.18-.91.18-1.36,0-5.74,0-11.47,0-17.21.42.42.3.96.3,1.46,0,5.15,0,10.3-.01,15.45,0,.58.24,1.27-.48,1.66Z" style="fill: #37374d; stroke-width: 0px;"/>
      <path d="m31.15,59.43c-1.6,0-3.2-.01-4.8,0-.91,0-1.74-.16-1.75-1.26,0-.98.76-1.29,1.6-1.3,3.41-.01,6.81,0,10.22.02.77,0,1.53.25,1.55,1.15.02.95-.66,1.3-1.56,1.3-1.75-.01-3.51,0-5.26,0,0,.03,0,.05,0,.08Z" style="fill: #c53347; stroke-width: 0px;"/>
      <path d="m27.8,69.81c4.18,0,8.36-.02,12.54,0,2.29.01,3,.75,3.08,3.08.04,1.29.11,2.58.11,3.87,0,2.29-1.01,3.31-3.31,3.31-8.21,0-16.42,0-24.62,0-2.44,0-3.24-.86-3.22-3.28.01-1.45-.02-2.89.03-4.34.07-1.89.79-2.61,2.68-2.62,4.23-.03,8.47,0,12.7,0,0,0,0,0,0-.01Z" style="fill: #20212f; stroke-width: 0px;"/>
      <path d="m73.28,55.91c2.43,0,4.86.01,7.28,0,1.27,0,2.19.48,2.17,1.83-.02,1.28-.85,1.88-2.15,1.89-4.86,0-9.71.05-14.57.05-1.5,0-2.28-.71-2.24-1.95.05-1.42,1.01-1.79,2.21-1.8,2.43-.01,4.86,0,7.28,0v-.02Z" style="fill: #3f1f42; stroke-width: 0px;"/>
      <path d="m64.15,77.94c-.79-.03-1.22-.35-1.2-1.23.04-1.49.06-2.99,0-4.48-.03-.98.41-1.22,1.3-1.22,6.8.02,13.6.01,20.4-.01.9,0,1.37.27,1.26,1.24-.22,1.91.46,3.88-.41,5.74-.51.47-1.14.4-1.75.4-5.96,0-11.93,0-17.89,0-.6,0-1.26.17-1.71-.43Z" style="fill: #20202f; stroke-width: 0px;"/>
      <path d="m64.15,77.94c7.12.01,14.24.02,21.36.04-.05.93-.76.85-1.36.85-6.34,0-12.69,0-19.03-.05-.39,0-1.46.37-.97-.84Z" style="fill: #c5c2c6; stroke-width: 0px;"/>
      <path d="m193.94,64.99c.18.15.27.2.33.28.47.56,1.76,1.03,1.29,1.61-.6.74-1.07-.53-1.6-.88-.5-.34-.79-.35-1.15.07-.3.35-.6.7-.89,1.06-.19.23-.44.34-.67.19-.2-.13-.4-.36-.45-.59-.1-.4.3-.28.5-.38.23-.11.42-.28.63-.42.82-.56.96-1.05.02-1.72-.43-.31-1.61-.65-.96-1.37.85-.93,1.12.39,1.44.81,1.08,1.41,1.65.24,2.37-.35.27-.22.37-.97.89-.48.4.38-.05.73-.37,1-.43.37-.86.73-1.39,1.17Z" style="fill: #9abad3; stroke-width: 0px;"/>
      <path d="m193.22,50.9q-3.43-.09-1.73-2.87c1.57-2.56,1.61-2.58,3.16.03.48.8,1.78,1.52,1.23,2.45-.55.92-1.91.18-2.66.39Z" style="fill: #37bc8f; stroke-width: 0px;"/>
      <path d="m183.89,54.4c.46,0,.93,0,1.39,0,.88-.01,1.35.38,1.31,1.3,0,.1,0,.21,0,.31.11,3.42-1.21,4.45-4.54,3.59-.51-.13-.49-.45-.5-.8,0-.72,0-1.44,0-2.17q.01-2.25,2.33-2.22Z" style="fill: #d2a0b1; stroke-width: 0px;"/>
      <path d="m202.22,59.91c-1.65.02-3.03-1.25-3.07-2.83-.04-1.68,1.31-3.07,2.99-3.07,1.59,0,3.06,1.43,3.12,3.04.06,1.48-1.38,2.84-3.04,2.86Z" style="fill: #d23044; stroke-width: 0px;"/>
      <path d="m118.71,59.67c-2.48.08-3.73-1.83-2.4-3.98.92-1.49,2.53-.72,3.8-.39,1.11.29,2.17.97,1.98,2.38-.18,1.35-1.26,1.92-3.38,1.99Z" style="fill: #b6b6a9; stroke-width: 0px;"/>
      <path d="m130.38,59.61c-.55.02-1.56.15-2.29-.71-.48-.56-1.54-1.11-1.23-1.72.48-.93,1.22-1.94,2.54-1.97.56-.01,1.13-.03,1.69-.02,2.04.04,2.21.21,2.14,2.2q-.08,2.22-2.86,2.22Z" style="fill: #d5d0c0; stroke-width: 0px;"/>
      <path d="m122.76,49.65c.39-.34.89-.3,1.33-.24,1.11.15,2.68-.56,3.02,1.23.41,2.13-.75,4.43-2.34,4.82-.82.2-1.24-.52-1.69-1.07-.32-1.23-.15-2.48.39-3.55.37-.73.19-.77-.39-.87-.15-.03-.23-.19-.31-.32Z" style="fill: #c7c5b2; stroke-width: 0px;"/>
      <path d="m124.94,59.33c.87.47,1.61,1.15,2.05,1.99.43.82.3,1.84.09,2.71-.29,1.26-1.43.53-2.16.62-.77.09-1.61.31-2.38-.11.59-.49.49-1.17.58-1.83.17-1.35.15-2.84,1.82-3.39Z" style="fill: #c4bcb5; stroke-width: 0px;"/>
      <path d="m124.94,59.33c-.92,1.11-1.18,2.43-1.22,3.81-.02.82-.25,1.38-1.18,1.4-.34-1.63-.46-3.24.72-4.62.42-.5.9-1.03,1.68-.6Z" style="fill: #eae5e1; stroke-width: 0px;"/>
      <path d="m122.76,49.65c1.15-.09,1.55.38,1.21,1.51-.33,1.07-.6,2.15-.89,3.23-1.35-1.5-.75-3.13-.32-4.74Z" style="fill: #eeeae1; stroke-width: 0px;"/>
      <path d="m150.95,57.43c.5.34,1.55-.46,1.55.6,0,.86-1.01.77-1.61.67-.69-.12-2,.57-1.96-.63.04-1.16,1.34-.26,2.02-.64Z" style="fill: #a7a1aa; stroke-width: 0px;"/>
      <path d="m160.7,66.27s.06.11.04.14c-1.86,3.17-2.26,3.16-4.31-.08,1.12-.3,2.66-.32,4.27-.06Z" style="fill: #736f82; stroke-width: 0px;"/>
      <path d="m41.75,72.29c.38,1.72.5,3.45.08,5.19-.15.63-.44,1.04-1.12,1.04-3.7,0-7.4,0-11.1-.03-.18,0-.36-.17-.54-.27.16-.16.38-.15.57-.2-1.25-1.57-.28-3.39-.55-5.08-.13-.81.28-1.24,1.15-1.24,3.46-.02,6.92,0,10.37.16.44.02.78.24,1.15.43Z" style="fill: #4f475c; stroke-width: 0px;"/>
      <path d="m26.92,71.69c.69,2.01.2,4.08.26,6.12.02.5-.37.72-.84.72-3.82-.02-7.64-.05-11.47-.08-.13,0-.26-.15-.39-.23,1.21-.33,2.45-.04,3.34-.14.45-.01.42-.01.24-.01q-3.59,0-3.59-3.56c0-3.08-.26-2.79,2.86-2.8,3.19,0,6.39.01,9.58-.01Z" style="fill: #4e485e; stroke-width: 0px;"/>
      <path d="m26.92,71.69c-.22.78-.86.41-1.3.41-3.1,0-6.21,0-9.31-.09-1.1-.03-1.54.2-1.57,1.42-.1,4.56-.15,4.56,4.47,4.57.31,0,.62,0,.92.21h-5.66c-.85-2.04-.25-4.15-.29-6.22,0-.49.46-.61.92-.6,3.81.03,7.61.06,11.42.1.13,0,.26.13.39.21Z" style="fill: #ada7b2; stroke-width: 0px;"/>
      <path d="m41.75,72.29c-3.67-.08-7.33-.11-11-.25-1.14-.04-1.44.39-1.37,1.42.06.82.08,1.66-.02,2.48-.19,1.55.26,2.4,1.98,2.18-.76.03-1.52.07-2.28.1-.6-2.02-.16-4.08-.22-6.12-.02-.64.45-.7.96-.69,3.56.02,7.11.04,10.67.02.69,0,1.05.29,1.28.86Z" style="fill: #a8a4ae; stroke-width: 0px;"/>
      <path d="m73.05,58.63c-2.34,0-4.6,0-6.87,0-.57,0-1.25.04-1.28-.76-.03-.77.53-1.06,1.24-1.07,4.75,0,9.49,0,14.24,0,.59,0,1.03.21,1,.89-.03.6-.47.72-.98.75-2.47.15-4.95-.15-7.35.19Z" style="fill: #d1263c; stroke-width: 0px;"/>
      <path d="m82.09,73.61c.95,1.74.59,2.47-1.24,2.47-4.28,0-8.56,0-12.85-.02-1.9,0-2.21-.57-1.37-2.45.35.27.77.26,1.18.26,4.15,0,8.31,0,12.46,0,.62,0,1.22-.11,1.82-.26Z" style="fill: #777784; stroke-width: 0px;"/>
      <path d="m82.09,73.61c-.65.54-1.43.53-2.2.53-3.96.02-7.93.05-11.89.04-.49,0-1.2.3-1.37-.57,5.15,0,10.3,0,15.45,0Z" style="fill: #b4afb6; stroke-width: 0px;"/>
      <path d="m192.85,46.65c.49,1.29,1.7,1.89,1.07,3.04-.29.52-1.23.51-1.51.15-.71-.93,0-1.85.44-3.18Z" style="fill: #0e6571; stroke-width: 0px;"/>
      <path d="m185.71,56.93c.4,1.51-.18,2.04-1.71,1.98-1.15-.05-1.96-.2-1.64-1.58.2-.87-.8-2.43,1.34-2.29,1.32.09,2.6-.06,2.01,1.89Z" style="fill: #680c5c; stroke-width: 0px;"/>
      <path d="m201.99,54.94c1.26,0,2.25,1.02,2.19,2.11-.07,1.21-.84,1.68-1.95,1.7-1.23.02-1.97-.56-1.93-1.83.03-1.19.68-1.88,1.7-1.98Z" style="fill: #261d3e; stroke-width: 0px;"/>
      <path d="m36.22,74.58c.66,0,1.33-.02,1.99,0,.38.02.73.19.73.63,0,.48-.34.82-.79.75-1.47-.24-2.95-.2-4.43-.22-.33,0-.59-.19-.56-.58.03-.37.3-.56.61-.57.82-.04,1.63-.01,2.45-.01h0Z" style="fill: #b12d41; stroke-width: 0px;"/>
      <path d="m21.09,75.73c-.67,0-1.34.01-2.01,0-.36,0-.77-.03-.75-.55.01-.36.29-.58.61-.59,1.49-.02,2.98-.02,4.47,0,.26,0,.51.17.53.46.03.37-.23.61-.54.63-.77.04-1.54.01-2.31.01,0,0,0,.02,0,.03Z" style="fill: #b13146; stroke-width: 0px;"/>
    </g>
  </g>
</svg>