<?xml version="1.0" encoding="UTF-8"?>
<svg id="Calque_2" data-name="Calque 2" xmlns="http://www.w3.org/2000/svg" viewBox="0 0 627.14 136.96">
  <g id="Calque_1-2" data-name="Calque 1">
    <g>
      <path d="m347.97,136.96c-6.36-2.37-9.23-7.36-11.07-13.62-9.41-32.03-19.07-63.99-28.52-96.01-.8-2.7-1.55-4.43-4.83-4.42-3.98.01-2.21-3.32-2.44-5.28-.25-2.19-.11-4.27,3.04-4.67,5.9-.74,11.21,2.36,13,8.3,7.92,26.23,15.75,52.5,23.62,78.75,2.1,7,4.11,14.03,6.35,20.99.61,1.89.5,4.74,3.4,4.94,3.19.22,3.55-2.78,4.2-4.78,5.52-17.07,10.82-34.21,16.29-51.29,5.22-16.3,10.43-32.61,15.91-48.83,1.65-4.89,5.28-8.08,10.83-8.02,2.44.02,5.79-1.15,6.08,3.09.24,3.51.85,7.37-4.85,6.97-2.67-.19-3.04,2.22-3.64,4.06-5.8,18.03-11.59,36.06-17.3,54.12-4.45,14.09-8.94,28.18-13.09,42.36-1.92,6.55-5.55,11.11-12.01,13.36h-5Z" style="fill: #fff; stroke-width: 0px;"/>
      <path d="m185.95,51.98c5.39-2.79,10.18-6.28,12.95-11.88,1.29-2.6,3.36-2.45,5.51-1.75,4.18,1.36,7.23,4.03,8.79,8.24,2.42,6.55,4.98,13.05,7.22,19.66,2.26,6.67-3.06,14.16-10.24,14.59-3.22.19-6.46.03-9.82.03.42,2.7,1.85,2.2,2.86,2.22,4,.07,8-.04,11.99.03,9.5.16,12.36,2.12,15.56,10.93,1.14,3.15,1.7,5.96,6.26,6.42,3.52.35,1.7,4.39,1.98,6.82.26,2.27-1.35,2.58-3.23,2.7-6.44.43-10.41-1.94-12.91-7.91-.64-1.53-1.44-3.04-1.82-4.64-.85-3.56-2.96-4.74-6.55-4.52-4.65.28-9.33.23-13.99.07-6.36-.21-11.21-4.82-11.33-10.48-.11-5.32,4.94-10.75,10.68-11.43.99-.12,2-.05,3-.06,8.21-.09,8.5-.56,5.39-8.46-1.46-3.71-2.86-7.45-4.26-11.19-.65-1.74-1.16-3.54-3.56-3.53-2.43.02-2.82,1.88-3.45,3.62-5.87,16.26-11.79,32.51-17.64,48.77-2.68,7.44-5.76,9.7-13.69,9.72-8.66.02-17.32.01-25.98.02-15.87.02-20.29-14.83-16.78-26.32,1.93-6.3,8.01-7.44,13.91-7.57,5.87-.13,11.75-.03,17.94-.03-.84-2.76-2.42-2.1-3.56-2.12-5.83-.07-11.66,0-17.49-.02-4.51,0-8.05-1.67-10.2-5.86-1.63-3.18-2.08-5.47,1.12-8.62,5.24-5.16,8.56-11.75,8.38-19.53l-.04.04c5.96-1.27,12.01-.83,18.03-1l-.04-.04c1.76,3.68,4.33,6.75,8.18,10.05-5.49,0-9.93-.04-14.37.02-2.47.03-4.96-.27-7.41.61-4.41,1.59-6.34,5.67-5.31,11.47.8,4.48,4.32,2.72,6.79,2.84,4.98.25,9.98-.04,14.97.13,6.79.24,11.41,5.04,11.25,11.39-.15,6.1-4.86,10.44-11.51,10.54-4.99.07-9.98.02-14.97.03-6.43.01-7.95,1.92-6.31,8.17,1.18,4.53,4.57,6.53,8.9,6.59,8.29.13,16.6.44,24.88-.65,1.94-.25,3.07-1.02,3.68-2.74,5.43-15.15,10.85-30.3,16.27-45.45,0,0-.04.04-.04.04Z" style="fill: #fff; stroke-width: 0px;"/>
      <path d="m608.85,100.95c.39-4.3.95-7.86.98-11.43.13-13,.04-26,.11-38.99.04-6.97,2.85-10.37,9.58-11.92,6.66-1.53,8.2-.09,7.42,6.66-.21,1.82-.79,2.87-2.69,2.73-3.83-.28-4.26,2.02-4.25,5.08.06,15,.03,30-.04,44.99-.04,7.04-3.41,11.84-8.75,12.78-6.38,1.13-11.66-2.26-14.15-9.05-6.07-16.55-12.13-33.1-18.23-49.63-.55-1.5-.8-3.3-2.77-3.94-1.86,1.38-1.01,3.37-1.02,5.05-.07,14.83.02,29.66-.03,44.49-.03,7.76-3.72,11.41-11.33,11.27-1.96-.04-4.92.84-4.68-2.68.17-2.48-2.06-6.4,3.3-6.61,3.18-.12,2.69-2.82,2.69-4.94-.02-15-.04-29.99-.13-44.99-.03-4.44,1.2-8.29,5.01-10.8,6.53-4.31,14.21-1.87,17.1,5.76,6.43,16.95,12.56,34,18.8,51.02.61,1.65.97,3.42,3.06,5.14Z" style="fill: #fff; stroke-width: 0px;"/>
      <path d="m150.99,38.98c-2.92-8.85-3.45-17.51,1.4-26,6.25-10.94,20.91-16.02,32.52-11.11,12.67,5.36,19.86,19.2,16.23,31.15-.54,1.79-.98,3.56-2.97,4.3-6.85,2.57-9.98,8.23-12.21,14.65,0,0,.04-.04.04-.04-7.52,1.03-15.06,2.53-22.37-1.36.24-.28.34-.42.47-.53,3.43-2.75,2.17-6.62,1.49-9.7-.62-2.81-4.01-1.13-6.14-1.33-2.8-.27-5.65-.08-8.48-.08l.04.04Z" style="fill: #fff; stroke-width: 0px;"/>
      <path d="m559.92,74.74c.15,20.24-16.59,36.98-37.09,37.12-19.71.13-37.8-16.72-37.69-35.77.13-21.9,16.05-37.27,36.93-37.95,20.06-.65,37.71,16.74,37.86,36.61Zm-10.81.99c1.23-14.73-11.13-27.38-27.16-27.65-14.23-.24-26.04,11.8-26.11,26.07-.07,15.73,11.38,27.58,26.48,27.86,14.96.28,28.3-13.44,26.79-26.28Z" style="fill: #fff; stroke-width: 0px;"/>
      <path d="m61.96,85.78c-7.36,9.7-18.73,14.29-27.65,11.15-10.26-3.61-17.54-13.56-17.32-23.65.27-12.09,8.12-22.63,19.57-24.88,5.45-1.07,11.27-.65,16.9-.35,4.81.26,7.48-.97,6.41-6.92,3.69,2.36,5.69,4.6,4.04,8.7-1.92,4.79-.75,9.86-.91,14.8-.23,6.81-.2,13.63-.28,20.44-.26.23-.52.47-.77.71Z" style="fill: #fff; stroke-width: 0px;"/>
      <path d="m132.99,39.94c-7.86,2.81-10.87,9.1-11.98,16.73-1,6.88-2.63,8.49-10.51,9.98,1.54-4.99,4.56-9.47,2.83-15.11-2.36-7.71-9.65-13.55-17.32-13.82-7.77-.27-15.4-1.69-22.89,1.58-2.65,1.16-2.04-1.24-2.11-2.49-.8-13.61,12.7-28.54,26.28-29.95,22.28-2.3,36.58,14.32,35.67,33.12,0,0,.04-.05.04-.05Z" style="fill: #fff; stroke-width: 0px;"/>
      <path d="m255.93,99.74c1.79-1.77,1.07-3.68,1.08-5.35.07-13.83.01-27.66.05-41.49.03-10.28,4.57-14.76,15-14.84,4.33-.04,8.67.02,13-.05,4.55-.07,3.63,3.21,3.86,5.96.26,3.04-.91,4.2-3.98,4.06-3.99-.18-8.01.15-11.99-.07-3.93-.21-5.23,1.35-5.19,5.25.17,14.66.16,29.33.05,43.99-.08,10.71-8.76,16.24-17.62,11.4-3.97-2.17-5.31-5.71-5.31-9.99.01-15-.13-30,.1-44.99.07-4.41-1.36-6.03-5.74-5.66-3.64.31-7.34-.15-10.99.13-3.69.28-4.52-1.34-4.44-4.67.07-3.23.34-5.65,4.49-5.34,5.63.41,11.33-.69,16.93.52,6.37,1.38,9.65,5.41,9.67,11.96.05,15.16.02,30.33.04,45.49,0,1.14-.24,2.35.98,3.68Z" style="fill: #fff; stroke-width: 0px;"/>
      <path d="m433.11,109.9c-4.33,0-8.66-.13-12.98.04-3.98.16-4.06-2.31-4.12-5.21-.06-2.97.62-4.75,4.11-4.69,7.82.14,15.65.07,23.47.02,6.33-.04,11.34-4.6,11.28-10.17-.05-4.36-4.9-10.93-11.34-10.15-6.28.76-12.61.12-18.22-3.57-7.63-5.03-11.34-14.27-8.96-22.56,2.54-8.83,10.27-14.61,19.76-14.68,7.99-.06,15.98.15,23.97-.06,3.68-.1,4,1.79,3.95,4.65-.05,2.85.05,5.39-3.97,5.35-7.82-.09-15.65-.04-23.47.03-5.69.05-9.68,3.37-10.54,8.61-.88,5.41,2.14,9.81,7.82,11.7,3.6,1.2,7.26.64,10.89.7,11.55.2,20.27,8.93,20.13,20.31-.13,10.8-9.22,19.65-20.31,19.72-3.83.02-7.66,0-11.49,0v-.03Z" style="fill: #fff; stroke-width: 0px;"/>
      <path d="m61.96,85.78c.26-.24.52-.47.77-.71,4.6-3.87,6.17-9.48,6.99-14.86,1.05-6.85.51-13.87-2.38-20.47-1.71-3.92-1.42-4.47,2.77-7.38,3.17,6.47,4.09,13.26,3.86,20.46-.35,10.8-.07,21.62-.11,32.44-.04,9.54-4.14,13.76-13.7,13.6-8.45-.14-16.95,1-25.34-.95-6.63-1.54-12.33-4.8-17.41-9.23-1.37-1.19-2.82-2.43-2.57-4.57l.16-.19c6.29,3.62,12.93,5.51,20.32,5.13,6.95-.35,13.93-.01,20.9,0,6.71,0,6.89-.02,6.81-6.59-.03-2.18,2.3-4.97-1.08-6.66Z" style="fill: #fff; stroke-width: 0px;"/>
      <path d="m470.07,74.47c0-10.49.11-20.98-.06-31.47-.06-3.69,1.21-5.08,4.92-4.94,3.38.13,5.95.56,5.94,4.8-.06,21.14-.06,42.29-.06,63.43,0,3.92-2.41,4.56-5.64,4.53-3.34-.04-5.24-.96-5.17-4.88.19-10.49.07-20.98.07-31.47h.02Z" style="fill: #fff; stroke-width: 0px;"/>
      <path d="m83.96,62.95c5.99,5.22,13.31,5.94,21.32,6.13-5.27,5.27-12.09,3.05-19.37,4.43,3.51,2.05,5.84,1.43,8,1.5,11.82.37,18.82,7.25,19.08,19,.07,3.11-.19,5.72,4.35,6.2,3.07.33,1.36,3.85,1.65,5.95.29,2.13-1,2.76-3.01,2.94-7.55.67-12.86-3.99-12.99-11.58-.18-10.99-1.79-12.68-12.8-12.53-4.72.06-9.02-.62-11.97-4.66-4.73-6.49-2.52-12.94,5.78-17.34l-.06-.04Z" style="fill: #fff; stroke-width: 0px;"/>
      <path d="m400.06,72.79c0-9.98.13-19.97-.07-29.95-.08-3.84,1.5-4.83,5.05-4.81,3.53.01,5.29.98,5.04,4.83-.24,3.64-.09,7.32-.04,10.98.25,16.78.51,33.56.82,50.34.06,3.18.25,5.73-4.41,5.93-4.69.19-6.33-1.6-6.32-5.87.02-10.48,0-20.96,0-31.45h-.08Z" style="fill: #fff; stroke-width: 0px;"/>
      <path d="m293.98,73.96c0-10.31.16-20.62-.08-30.93-.1-4.1,1.57-4.95,5.29-5.11,4.2-.18,4.95,1.49,4.92,5.22-.15,20.45-.14,40.91-.03,61.36.02,3.58-.6,5.53-4.87,5.5-4.21-.03-5.42-1.57-5.32-5.61.23-10.14.08-20.28.08-30.43h.02Z" style="fill: #fff; stroke-width: 0px;"/>
      <path d="m56.11,37.06c-14.51-.33-27.82-1.09-38.69,9.72-10.46,10.4-13.26,22.39-10.19,36.66-8.26-6.14-11.16-27.15.59-41.62,11.41-14.05,34.06-16.76,48.29-4.76Z" style="fill: #fff; stroke-width: 0px;"/>
      <path d="m84.02,63c-2.65-2.69-5.69-4.96-7.71-8.28-1.99-3.26-.88-5.38,2.44-5.6,6.1-.4,12.28-.44,18.37,0,3.62.27,5.1,3.14,4.87,6.81-.23,3.73-2.06,5.71-5.8,6.04-4.08.35-8.28-.96-12.23.98,0,0,.06.04.06.04Z" style="fill: #fff; stroke-width: 0px;"/>
      <path d="m14.85,94.1l-1.24-.54c.1-.12.27-.36.29-.35.38.21.74.46,1.11.7,0,0-.16.19-.16.19Z" style="fill: #fff; stroke-width: 0px;"/>
    </g>
  </g>
</svg>