<svg xmlns="http://www.w3.org/2000/svg" viewBox="0 0 382.78 105.59"><path d="M46.58,58.23a32.65,32.65,0,0,1-4,2.18,29,29,0,0,1-5.86,2,31.21,31.21,0,0,1-7.32.81,31.88,31.88,0,0,1-12.25-2.43,27.18,27.18,0,0,1-9.26-6.39,28.76,28.76,0,0,1-5.87-9.34A30.9,30.9,0,0,1,0,33.81,33.18,33.18,0,0,1,2.14,21.72a28.9,28.9,0,0,1,6-9.63,27.43,27.43,0,0,1,9.18-6.35A29.2,29.2,0,0,1,29,3.48,30.46,30.46,0,0,1,38.5,4.89a34,34,0,0,1,7.36,3.36L42.7,15.53a35.67,35.67,0,0,0-5.86-3.07A19.24,19.24,0,0,0,29.2,11a19.63,19.63,0,0,0-8.09,1.7,20.79,20.79,0,0,0-6.71,4.77,22.59,22.59,0,0,0-4.57,7.16A23,23,0,0,0,8.17,33.4a25.51,25.51,0,0,0,1.5,8.86A20.49,20.49,0,0,0,14,49.33,19.8,19.8,0,0,0,20.7,54a22.45,22.45,0,0,0,8.9,1.69,21.37,21.37,0,0,0,7.93-1.37,25.09,25.09,0,0,0,5.74-3.07Z" fill="#fff"/><path d="M55,45.53a17.46,17.46,0,0,1,2.39-9.05A17.22,17.22,0,0,1,64,30.09a19.2,19.2,0,0,1,9.55-2.35,19.07,19.07,0,0,1,9.62,2.35,16.49,16.49,0,0,1,6.39,6.39,18.17,18.17,0,0,1,2.26,9.05,18.42,18.42,0,0,1-2.26,9.1,16.36,16.36,0,0,1-6.43,6.43,19.42,19.42,0,0,1-9.67,2.35,19.8,19.8,0,0,1-9.5-2.23A16.55,16.55,0,0,1,57.38,55,18.08,18.08,0,0,1,55,45.53Zm7.53.08A11.91,11.91,0,0,0,64,51.48a11.2,11.2,0,0,0,3.92,4.16,10.1,10.1,0,0,0,5.46,1.54A10.33,10.33,0,0,0,79,55.64a10.57,10.57,0,0,0,3.85-4.16,13.24,13.24,0,0,0,0-11.73A11,11,0,0,0,79,35.54,10.18,10.18,0,0,0,73.35,34a9.88,9.88,0,0,0-5.54,1.62,11.47,11.47,0,0,0-3.88,4.24A12,12,0,0,0,62.52,45.61Z" fill="#fff"/><path d="M102,0h7.52V62.6H102Z" fill="#fff"/><path d="M122.53,0h7.52V62.6h-7.52Z" fill="#fff"/><path d="M158.6,63.41a19.9,19.9,0,0,1-9.87-2.31,16.06,16.06,0,0,1-6.35-6.31,18.59,18.59,0,0,1-2.22-9.18,16.69,16.69,0,0,1,2.5-9,18.7,18.7,0,0,1,6.72-6.47,18.4,18.4,0,0,1,9.38-2.43,15.93,15.93,0,0,1,11,3.88,19.59,19.59,0,0,1,5.9,10.68L148.08,52l-1.78-4.44L169,39.31l-1.62,1a11.3,11.3,0,0,0-3.23-4.65,8.65,8.65,0,0,0-5.91-2,10.24,10.24,0,0,0-5.5,1.49,10.48,10.48,0,0,0-3.8,4.09,12.32,12.32,0,0,0-1.37,5.9A12.43,12.43,0,0,0,149,51.32a10.73,10.73,0,0,0,4,4.12,11.14,11.14,0,0,0,5.78,1.5,11.49,11.49,0,0,0,4.24-.81,17.31,17.31,0,0,0,3.85-2.1l3.47,5.58a23.13,23.13,0,0,1-5.62,2.75A19,19,0,0,1,158.6,63.41Z" fill="#fff"/><path d="M212.3,59.52a17.74,17.74,0,0,1-5.42,2.84,19.88,19.88,0,0,1-6.31,1A20.2,20.2,0,0,1,191,61.22a15.89,15.89,0,0,1-6.43-6.1,17.93,17.93,0,0,1-2.31-9.26,17.18,17.18,0,0,1,2.47-9.3,16.93,16.93,0,0,1,6.47-6.11,18,18,0,0,1,8.61-2.14A21.45,21.45,0,0,1,207,29.44a17,17,0,0,1,5.46,3.07l-3.72,4.85a16.31,16.31,0,0,0-3.56-2,12.18,12.18,0,0,0-4.77-.89A10.16,10.16,0,0,0,195,36,10.64,10.64,0,0,0,191.15,40a11.9,11.9,0,0,0-1.42,5.83,11.57,11.57,0,0,0,1.46,5.7,10.6,10.6,0,0,0,4,4.12,12.49,12.49,0,0,0,9.91.85,11.36,11.36,0,0,0,3.27-1.78Z" fill="#fff"/><path d="M225.24,14.4h7.52V29.28H242v5.9h-9.22V62.6h-7.52V35.18h-6.15v-5.9h6.15Z" fill="#fff"/><path d="M250.47,17a3.8,3.8,0,0,1,1.41-3A4.7,4.7,0,0,1,255,12.78,4.37,4.37,0,0,1,258,14a3.89,3.89,0,0,1,1.34,3A3.85,3.85,0,0,1,258,20a4.47,4.47,0,0,1-3,1.17A4.7,4.7,0,0,1,251.88,20,3.81,3.81,0,0,1,250.47,17ZM251,29.12h7.52V62.6H251Z" fill="#fff"/><path d="M268.67,45.53a17.45,17.45,0,0,1,2.38-9.05,17.22,17.22,0,0,1,6.59-6.39,20.72,20.72,0,0,1,19.17,0,16.49,16.49,0,0,1,6.39,6.39,18.17,18.17,0,0,1,2.26,9.05,18.42,18.42,0,0,1-2.26,9.1,16.36,16.36,0,0,1-6.43,6.43,19.41,19.41,0,0,1-9.66,2.35,19.81,19.81,0,0,1-9.51-2.23A16.62,16.62,0,0,1,271.05,55,18.08,18.08,0,0,1,268.67,45.53Zm7.52.08a11.91,11.91,0,0,0,1.45,5.87,11.15,11.15,0,0,0,3.93,4.16A10,10,0,0,0,287,57.18a10.39,10.39,0,0,0,5.63-1.54,10.62,10.62,0,0,0,3.84-4.16,13.24,13.24,0,0,0,0-11.73,11,11,0,0,0-3.84-4.21A10.24,10.24,0,0,0,287,34a9.88,9.88,0,0,0-5.54,1.62,11.47,11.47,0,0,0-3.88,4.24A12,12,0,0,0,276.19,45.61Z" fill="#fff"/><path d="M322.37,29.12l.64,8.16L322.69,36A12.85,12.85,0,0,1,328,30.05a15.73,15.73,0,0,1,8.41-2.23,11.06,11.06,0,0,1,7.8,2.79,9.65,9.65,0,0,1,3.12,7.24V62.6h-7.61V40.52A7,7,0,0,0,338.1,36a5.81,5.81,0,0,0-4.65-1.74,9,9,0,0,0-5.26,1.62,11,11,0,0,0-3.68,4.45,15.2,15.2,0,0,0-1.33,6.55V62.6h-7.53V29.12Z" fill="#fff"/><path d="M369.76,63.25A19.47,19.47,0,0,1,362.85,62a13.33,13.33,0,0,1-5.54-3.76l3.15-4.37a15.63,15.63,0,0,0,4.33,3,10.5,10.5,0,0,0,7.4.6,4.78,4.78,0,0,0,2.22-1.33,4.12,4.12,0,0,0-.32-5.38,8.83,8.83,0,0,0-3-1.7c-1.21-.43-2.49-.83-3.84-1.21a14.36,14.36,0,0,1-6.3-3.8,8.51,8.51,0,0,1-2.19-5.91,9.75,9.75,0,0,1,1.34-5,10.06,10.06,0,0,1,4-3.76A13.28,13.28,0,0,1,370.57,28a21.33,21.33,0,0,1,6.23.85A15.72,15.72,0,0,1,382,31.62l-3,4.69a8.82,8.82,0,0,0-3.48-2.26,12.5,12.5,0,0,0-3.64-.81,6.27,6.27,0,0,0-2.62.4A5.46,5.46,0,0,0,367.17,35a3,3,0,0,0-.81,2.1,3.57,3.57,0,0,0,1.14,2.75,7.91,7.91,0,0,0,2.95,1.66c1.21.4,2.41.82,3.6,1.25a18.24,18.24,0,0,1,4.45,1.94,10,10,0,0,1,3.11,3,7.92,7.92,0,0,1,1.17,4.45,11.27,11.27,0,0,1-1.41,5.54,10.18,10.18,0,0,1-4.29,4A15.72,15.72,0,0,1,369.76,63.25Z" fill="#fff"/><path d="M26.91,103.33a12.66,12.66,0,0,1-1.84.88,17.14,17.14,0,0,1-2.23.73,22.37,22.37,0,0,1-2.41.49,17,17,0,0,1-2.3.16,16.23,16.23,0,0,1-6.23-1.15,13.81,13.81,0,0,1-4.78-3.2A14.11,14.11,0,0,1,4.06,96.5,15.73,15.73,0,0,1,3,90.67a15.34,15.34,0,0,1,4.45-10.9A15.2,15.2,0,0,1,22.31,76,15.44,15.44,0,0,1,26,77.58l-.58,1.25a11.48,11.48,0,0,0-2.2-1.06,14.44,14.44,0,0,0-2.46-.69,13.09,13.09,0,0,0-2.57-.25,13.56,13.56,0,0,0-9.77,4,13.49,13.49,0,0,0-2.9,4.39,13.81,13.81,0,0,0-1,5.39,14.43,14.43,0,0,0,1,5.33,13.1,13.1,0,0,0,2.74,4.31,12.54,12.54,0,0,0,4.29,2.91,14.55,14.55,0,0,0,5.6,1,17.59,17.59,0,0,0,3.89-.46,13,13,0,0,0,3.55-1.29V93.51h-6.9V92.17h8.32Z" fill="#fff"/><path d="M41.63,105.26,54,74.44h.12l12.34,30.82H64.88L53.63,76.74l1-.46-11.54,29Zm5.56-11.75H61l.33,1.34H46.9Z" fill="#fff"/><path d="M82.06,105.26V75.15h0L96.36,95.39l-.62,0L110,75.15h0v30.11h-1.38V78.54l.12.67L96,97.06H96L83.24,79.21l.25-.63v26.68Z" fill="#fff"/><path d="M128.06,75.74H146v1.38H129.48V89.7h14.84V91H129.48v12.84h17.06v1.38H128.06Z" fill="#fff"/><path d="M177.23,78.46a19.15,19.15,0,0,0-3.09-1.11,14.17,14.17,0,0,0-3.81-.52,7.4,7.4,0,0,0-4.93,1.54,4.86,4.86,0,0,0-1.84,3.89,4.23,4.23,0,0,0,1,2.91,8.37,8.37,0,0,0,2.7,1.94c1.11.53,2.3,1,3.55,1.55,1,.36,2,.77,2.95,1.21a13.13,13.13,0,0,1,2.63,1.61,7,7,0,0,1,1.91,2.36,7.78,7.78,0,0,1,.71,3.47,8,8,0,0,1-1.17,4.37,7.91,7.91,0,0,1-3.22,2.89,10.4,10.4,0,0,1-4.69,1,13.67,13.67,0,0,1-4.14-.58,16.74,16.74,0,0,1-3.11-1.3c-.85-.47-1.5-.85-1.94-1.13l.66-1.21a17,17,0,0,0,2.24,1.34,18.38,18.38,0,0,0,2.91,1.15,11,11,0,0,0,3.18.48,9.26,9.26,0,0,0,3.72-.78,6.92,6.92,0,0,0,2.94-2.32,6.29,6.29,0,0,0,1.15-3.88,5.93,5.93,0,0,0-1.1-3.75,8.19,8.19,0,0,0-2.85-2.25A33.85,33.85,0,0,0,170,89.79c-.94-.36-1.88-.75-2.82-1.15a14.86,14.86,0,0,1-2.55-1.42,6.27,6.27,0,0,1-1.82-2,5.6,5.6,0,0,1-.67-2.8,6.1,6.1,0,0,1,1.07-3.58A7.2,7.2,0,0,1,166,76.47a10.09,10.09,0,0,1,4.12-.9,17.75,17.75,0,0,1,4,.5,16.61,16.61,0,0,1,3.68,1.3Z" fill="#fff"/></svg>