<svg xmlns="http://www.w3.org/2000/svg" viewBox="0 0 385.48 107.51"><path d="M46.91,102.3a33.88,33.88,0,0,1-4,2.19,28.81,28.81,0,0,1-5.9,2,32.74,32.74,0,0,1-19.71-1.63A27.47,27.47,0,0,1,8,98.47a28.87,28.87,0,0,1-5.9-9.41A30.89,30.89,0,0,1,0,77.7,33.46,33.46,0,0,1,2.16,65.52a29.11,29.11,0,0,1,6.07-9.69,27.44,27.44,0,0,1,9.24-6.39,29.44,29.44,0,0,1,11.69-2.28,30.55,30.55,0,0,1,9.61,1.42A33.59,33.59,0,0,1,46.18,52L43,59.29a35.35,35.35,0,0,0-5.9-3.09,19.5,19.5,0,0,0-7.7-1.47,19.71,19.71,0,0,0-8.14,1.71,21,21,0,0,0-6.76,4.81,22.68,22.68,0,0,0-4.6,7.2,23.18,23.18,0,0,0-1.67,8.84,25.81,25.81,0,0,0,1.5,8.92,21,21,0,0,0,4.32,7.13,19.82,19.82,0,0,0,6.8,4.72,22.54,22.54,0,0,0,9,1.71,21.64,21.64,0,0,0,8-1.38,25,25,0,0,0,5.78-3.1Z" fill="#fff"/><path d="M55.38,89.51a17.45,17.45,0,0,1,9-15.56A19.47,19.47,0,0,1,74,71.59,19.33,19.33,0,0,1,83.73,74a16.65,16.65,0,0,1,6.43,6.44,18.32,18.32,0,0,1,2.28,9.12,18.55,18.55,0,0,1-2.28,9.16,16.59,16.59,0,0,1-6.47,6.48A19.59,19.59,0,0,1,74,107.51a20.06,20.06,0,0,1-9.57-2.24A16.57,16.57,0,0,1,57.79,99,18.12,18.12,0,0,1,55.38,89.51Zm7.58.08a12,12,0,0,0,1.46,5.9,11.32,11.32,0,0,0,4,4.2,10.22,10.22,0,0,0,5.5,1.55,10.49,10.49,0,0,0,9.53-5.75,13.3,13.3,0,0,0,0-11.8,10.91,10.91,0,0,0-3.87-4.24,10.27,10.27,0,0,0-5.66-1.59,9.94,9.94,0,0,0-5.58,1.63,11.58,11.58,0,0,0-3.91,4.28A12.05,12.05,0,0,0,63,89.59Z" fill="#fff"/><path d="M102.7,43.65h7.58v63H102.7Z" fill="#fff"/><path d="M123.39,43.65H131v63h-7.57Z" fill="#fff"/><path d="M159.71,107.51a20.14,20.14,0,0,1-9.93-2.32,16.25,16.25,0,0,1-6.4-6.36,18.69,18.69,0,0,1-2.23-9.24,16.86,16.86,0,0,1,2.52-9A19,19,0,0,1,150.43,74a18.54,18.54,0,0,1,9.45-2.44A16,16,0,0,1,171,75.5a19.69,19.69,0,0,1,6,10.75L149.13,96l-1.8-4.48,22.81-8.3-1.63,1.06a11.25,11.25,0,0,0-3.26-4.69,8.69,8.69,0,0,0-5.94-2,10.36,10.36,0,0,0-5.54,1.5,10.56,10.56,0,0,0-3.83,4.12A13.58,13.58,0,0,0,150,95.33a10.82,10.82,0,0,0,4,4.16,11.35,11.35,0,0,0,5.83,1.5,11.65,11.65,0,0,0,4.27-.81A16.91,16.91,0,0,0,168,98.06l3.5,5.62a23.46,23.46,0,0,1-5.66,2.77A19.31,19.31,0,0,1,159.71,107.51Z" fill="#fff"/><path d="M213.79,103.6a18,18,0,0,1-5.45,2.85,20.2,20.2,0,0,1-6.36,1.06,20.49,20.49,0,0,1-9.69-2.2,16,16,0,0,1-6.47-6.15,18,18,0,0,1-2.32-9.33A17.31,17.31,0,0,1,186,80.47a17.09,17.09,0,0,1,6.52-6.15,18,18,0,0,1,8.67-2.16,21.75,21.75,0,0,1,7.29,1.14,17.09,17.09,0,0,1,5.5,3.1l-3.75,4.88a15.71,15.71,0,0,0-3.58-2,12.24,12.24,0,0,0-4.81-.9,10.24,10.24,0,0,0-5.42,1.51A10.71,10.71,0,0,0,192.5,84a12,12,0,0,0-1.43,5.86,11.66,11.66,0,0,0,1.47,5.75,10.61,10.61,0,0,0,4.07,4.15,11.62,11.62,0,0,0,5.95,1.51,12.12,12.12,0,0,0,4-.65,12,12,0,0,0,3.3-1.8Z" fill="#fff"/><path d="M226.83,58.15h7.57v15h9.29v5.94H234.4v27.61h-7.57V79.08h-6.19V73.14h6.19Z" fill="#fff"/><path d="M252.24,60.76a3.83,3.83,0,0,1,1.42-3,4.74,4.74,0,0,1,3.14-1.22,4.43,4.43,0,0,1,3.05,1.22,3.91,3.91,0,0,1,1.34,3,3.84,3.84,0,0,1-1.34,3.05A4.48,4.48,0,0,1,256.8,65a4.69,4.69,0,0,1-3.14-1.22A3.81,3.81,0,0,1,252.24,60.76ZM252.81,73h7.57v33.71h-7.57Z" fill="#fff"/><path d="M270.56,89.51a17.6,17.6,0,0,1,2.4-9.12A17.41,17.41,0,0,1,279.6,74a20.91,20.91,0,0,1,19.3,0,16.68,16.68,0,0,1,6.44,6.44,18.32,18.32,0,0,1,2.28,9.12,18.55,18.55,0,0,1-2.28,9.16,16.55,16.55,0,0,1-6.48,6.48,19.53,19.53,0,0,1-9.73,2.36,20.06,20.06,0,0,1-9.57-2.24A16.6,16.6,0,0,1,273,99,18.21,18.21,0,0,1,270.56,89.51Zm7.58.08a11.92,11.92,0,0,0,1.46,5.9,11.32,11.32,0,0,0,3.95,4.2,10.22,10.22,0,0,0,5.5,1.55,10.5,10.5,0,0,0,5.66-1.55,10.67,10.67,0,0,0,3.87-4.2,13.3,13.3,0,0,0,0-11.8,11,11,0,0,0-3.87-4.24,10.27,10.27,0,0,0-5.66-1.59,9.92,9.92,0,0,0-5.58,1.63,11.58,11.58,0,0,0-3.91,4.28A12.05,12.05,0,0,0,278.14,89.59Z" fill="#fff"/><path d="M324.64,73l.65,8.22L325,79.9a13,13,0,0,1,5.29-6,15.94,15.94,0,0,1,8.47-2.24,11.15,11.15,0,0,1,7.86,2.81,9.72,9.72,0,0,1,3.14,7.29v24.92h-7.66V84.46a7,7,0,0,0-1.59-4.52,5.82,5.82,0,0,0-4.68-1.75,9.07,9.07,0,0,0-5.29,1.63,11,11,0,0,0-3.71,4.48,15.24,15.24,0,0,0-1.34,6.59v15.8h-7.58V73Z" fill="#fff"/><path d="M372.37,107.35a19.85,19.85,0,0,1-7-1.27,13.47,13.47,0,0,1-5.57-3.78L363,97.9a15.73,15.73,0,0,0,4.36,3,10.62,10.62,0,0,0,4.44,1,10.33,10.33,0,0,0,3-.41,4.82,4.82,0,0,0,2.24-1.34,4.14,4.14,0,0,0-.32-5.42,9.22,9.22,0,0,0-3-1.71c-1.22-.43-2.51-.84-3.87-1.22A14.49,14.49,0,0,1,363.49,88a8.55,8.55,0,0,1-2.2-5.94,9.81,9.81,0,0,1,1.35-5,10.08,10.08,0,0,1,4-3.79,13.33,13.33,0,0,1,6.55-1.47,21.17,21.17,0,0,1,6.27.86,15.82,15.82,0,0,1,5.22,2.81l-3,4.72a8.87,8.87,0,0,0-3.5-2.28,12.69,12.69,0,0,0-3.66-.81,6.23,6.23,0,0,0-2.65.41,5.27,5.27,0,0,0-2.08,1.38A3.05,3.05,0,0,0,369,81a3.61,3.61,0,0,0,1.14,2.77,8.16,8.16,0,0,0,3,1.67c1.22.4,2.43.83,3.63,1.26a17.87,17.87,0,0,1,4.47,2,10.09,10.09,0,0,1,3.14,3,8,8,0,0,1,1.18,4.48,11.3,11.3,0,0,1-1.42,5.58,10.15,10.15,0,0,1-4.32,4.07A16,16,0,0,1,372.37,107.35Z" fill="#fff"/><path d="M6.42,30.11V0h0L20.72,20.24l-.63,0L34.31,0h0V30.11H33V3.39l.12.67L20.38,21.91H20.3L7.59,4.06l.25-.63V30.11Z" fill="#fff"/><path d="M58.22,30.4a8.4,8.4,0,0,1-4.32-1.11,8.12,8.12,0,0,1-3-3A8.26,8.26,0,0,1,49.78,22a8.19,8.19,0,0,1,1.13-4.27,8.41,8.41,0,0,1,3.05-3,8.27,8.27,0,0,1,4.26-1.13,7.06,7.06,0,0,1,4.71,1.61,9.32,9.32,0,0,1,2.78,4.12L51.41,25,51,24,64.5,18.61l-.34.5a8.58,8.58,0,0,0-2.32-3.05,5.5,5.5,0,0,0-3.7-1.3,6.73,6.73,0,0,0-3.55,1,7,7,0,0,0-2.53,2.61A7.28,7.28,0,0,0,51.12,22,7.38,7.38,0,0,0,52,25.53a7.12,7.12,0,0,0,2.49,2.65,6.82,6.82,0,0,0,3.72,1,7,7,0,0,0,2.7-.53,8,8,0,0,0,2.24-1.36l.79,1a9.79,9.79,0,0,1-2.65,1.54A8.35,8.35,0,0,1,58.22,30.4Z" fill="#fff"/><path d="M83.23,30.44A8.82,8.82,0,0,1,80.47,30,5.29,5.29,0,0,1,78,28.35l.71-.92a5.24,5.24,0,0,0,1.88,1.36,6.1,6.1,0,0,0,2.51.52A5.75,5.75,0,0,0,85.05,29,3.2,3.2,0,0,0,86.53,28a3.09,3.09,0,0,0,.59-2,2.7,2.7,0,0,0-.65-1.91A4.39,4.39,0,0,0,84.8,23c-.69-.27-1.39-.53-2.12-.78a8.94,8.94,0,0,1-2.82-1.46A3.3,3.3,0,0,1,78.71,18,3.93,3.93,0,0,1,81,14.26a5.17,5.17,0,0,1,2.3-.5,7.74,7.74,0,0,1,2.38.41,5.41,5.41,0,0,1,2.22,1.43l-.67.92a3.52,3.52,0,0,0-1.8-1.24,7.86,7.86,0,0,0-2-.39A4.08,4.08,0,0,0,82,15.2a3.52,3.52,0,0,0-1.36,1,2.44,2.44,0,0,0-.56,1.65,2.43,2.43,0,0,0,.52,1.63,3.7,3.7,0,0,0,1.36,1c.56.25,1.14.48,1.76.71q1.17.42,2.28.9a5,5,0,0,1,1.81,1.31,3.35,3.35,0,0,1,.72,2.26,5.1,5.1,0,0,1-.61,2.51,4.16,4.16,0,0,1-1.76,1.69A6.08,6.08,0,0,1,83.23,30.44Z" fill="#fff"/></svg>