<?xml version="1.0" encoding="UTF-8"?>
<svg id="Calque_2" data-name="Calque 2" xmlns="http://www.w3.org/2000/svg" viewBox="0 0 636.99 211.41">
  <g id="Calque_1-2" data-name="Calque 1">
    <g>
      <path d="m636.99,181.01c-.94.3-1.86.75-2.83.89-5.08.72-5.08.69-5.17,5.97q-.09,5.12-5.41,5.16c-2.99.02-5.98-.07-8.96.02-2.52.07-3.47-.99-3.6-3.53-.4-7.53-.5-7.52-8-7.52-4.48,0-8.96-.07-13.44.01-2.55.05-3.69-1.05-3.51-3.58.02-.33,0-.66,0-1-.3-11.7-.23-11.64,7.77-20.69,5.38-6.08,10.56-12.33,15.75-18.57,1.84-2.22,3.71-3.6,6.83-2.61,2.55.8,5.26.5,7.9.14,4.07-.55,4.58-.17,4.65,4.03.09,5.32.02,10.64.02,15.96,0,.83-.03,1.66,0,2.49.11,2.48-.66,5.16.38,7.41,1.29,2.82,4.65.67,6.71,2.04.27.18.61.27.91.4v13Zm-25.97-27.03c-.43-.11-.87-.22-1.3-.32-2.85,4.58-7.52,7.7-10.13,12.98,3.11.69,5.9.31,8.65.36,1.8.03,2.77-.9,2.78-2.72.01-3.43,0-6.87,0-10.3Z" style="fill: #fff; stroke-width: 0px;"/>
      <path d="m350.42,163.85c0-7.64,0-15.27,0-22.91,0-1.33.03-2.66.02-3.99,0-1.8.81-2.84,2.66-2.86,3.65-.02,7.31-.03,10.96,0,2.27.02,3.27,1.32,3.28,3.5.01,1.66.03,3.33.03,4.99,0,14.65,0,29.29,0,43.94,0,1.33-.02,2.66-.06,3.99-.05,1.61-.93,2.46-2.51,2.47-4.32.03-8.64.03-12.96,0-2.46-.02-3.27-2.11-4.23-3.77-2.41-4.17-4.61-8.47-6.96-12.67-2.58-4.62-5.24-9.19-7.9-13.84-1.77.88-1.21,2.2-1.22,3.21-.05,7.49,0,14.98-.04,22.47-.03,4.49-.19,4.59-4.91,4.65-2.33.03-4.65.02-6.98,0-5.02-.06-5.08-.08-5.09-4.97-.03-11.32-.01-22.63-.01-33.95,0-4.99-.05-9.99.02-14.98.06-4.45.53-4.94,4.8-5.04,3.32-.08,6.65.12,9.97-.06,2.71-.15,4.17.96,5.44,3.34,4.77,8.92,9.77,17.73,14.68,26.58l1-.07Z" style="fill: #fff; stroke-width: 0px;"/>
      <path d="m.01,163.47c0-7.98-.04-15.96.02-23.94.03-4.33.22-4.54,4.5-4.56,8.8-.06,17.6.09,26.4-.05,11.01-.17,19,4.32,22.83,14.87,3.65,10.07,3.41,20.25-.9,30.1-2.39,5.47-7.09,8.7-12.51,10.78-3.88,1.49-7.96,2.32-12.15,2.33-7.47.02-14.94.03-22.41,0-5.39-.02-5.73-.34-5.75-5.58-.04-7.98-.01-15.96-.01-23.94Zm18-.15c0,2.32-.02,4.64,0,6.96.08,8.31-1.13,7.82,8.26,7.67,6.4-.1,10.17-3.33,11.53-9.52.28-1.29.54-2.59.7-3.9.7-5.8-3.05-12.61-8.04-14.07-2.67-.78-5.5-1.12-8.29-1.36-3.46-.3-4.07.31-4.16,3.78-.09,3.48-.02,6.96-.02,10.44Z" style="fill: #fff; stroke-width: 0px;"/>
      <path d="m228.86,10.95h14.49c1.33,0,2.66.03,3.99,0,5.84-.14,11.91-.94,14.86,5.42,2.21-.22,3.04-1.4,3.79-2.4,2.37-3.14,5.59-3.46,8.98-2.8,14.39,2.8,24.86,17.99,21.99,31.45-1.06,4.98-2.71,9.57-5.39,13.84-.62.98-1.34,1.91-1.35,3.19,1.29,1.91,3.29,1.26,5,1.26,11.97.06,23.95.03,35.92.03,21.12,0,42.26.56,63.35-.17,17.78-.61,33.88,20.5,23.85,40.13-2.07,4.06-4.47,7.43-9.84,6.19-1.25-.29-2.6.67-4.17-.49,1.54-2.84,3.07-5.73,4.65-8.59,7.6-13.75-2.26-28.23-15.91-28.1-32.42.31-64.85.1-97.28.1-1.16,0-2.34-.12-3.49.02-8.45,1.02-15.26-4.8-10.11-16.15.96-2.11,2.45-3.98,3.38-6.1,2.74-6.24,3.2-12.54-.35-18.67-3.48-6-8.93-8.87-15.68-9-9.48-.19-18.96-.05-28.44-.05q-8.43,0-12.25-9.1Z" style="fill: #fff; stroke-width: 0px;"/>
      <path d="m108.17,165.86c5.94,5.07,8,11.28,7.72,18.5-.07,1.79.55,3.59.8,5.4.29,2.04-.53,3.21-2.69,3.21-3.99,0-7.97.01-11.96-.04-2-.03-2.95-1.19-3.17-3.13-.3-2.64-.74-5.25-1.01-7.89-.64-6.33-2.49-8.4-8.71-9.56-.49-.09-.98-.17-1.48-.22-6.32-.63-6.83-.17-6.84,6.16,0,3.66.07,7.32-.03,10.98-.09,3.33-.39,3.61-3.83,3.7-3.49.09-6.98.1-10.47,0-3.31-.1-3.62-.4-3.65-3.88-.07-8.99-.03-17.97-.03-26.96,0-7.32-.02-14.64,0-21.97.02-5.15.07-5.19,5.37-5.21,10.14-.03,20.27-.04,30.41,0,7.98.03,13.83,3.86,16.44,10.64,2.46,6.38.35,13.75-5.39,18.89-.37.33-.72.66-1.5,1.38Zm-20.55-5.85c2.23-.1,4.9.34,7.38-1.08,2.35-1.34,3.05-3.35,2.75-5.88-.27-2.28-1.61-3.57-3.8-4-1.78-.36-3.56-.84-5.36-.95-7.79-.47-8.05-.17-7.74,7.74.15,3.9.31,4.05,4.38,4.17.66.02,1.33,0,2.39,0Z" style="fill: #fff; stroke-width: 0px;"/>
      <path d="m278.36,194.09c-11.51.3-20.38-4.06-26.14-13.76-10.09-17.01-2.82-38.88,14.04-45.23,18.17-6.84,38.05,3.67,40.46,23.63.77,6.36-.04,12.25-2.16,18.01-4.13,11.22-15.78,18.19-26.2,17.35Zm10.18-30.04c-.08-2.98.27-5.95-.76-8.9-1.84-5.28-6.99-7.57-10.64-7.85-3.62-.28-8.4,3.32-9.8,7.33-2.08,5.97-2.5,12.01.04,18,2.26,5.34,6.74,8.09,11.72,7.21,5.17-.92,9.02-5.28,9.42-10.8.12-1.66.02-3.33.02-4.99Z" style="fill: #fff; stroke-width: 0px;"/>
      <path d="m226.34,188.38c-2.42,1.44-4.7,3.17-7.26,4.25-10.77,4.55-23.93.25-30.91-9.24-7.26-9.87-7.81-28.17,0-39.12,5.72-8.03,18.53-12.77,28.36-10.86,10.25,2,17.13,7.6,20.27,17.64,1.04,3.34.75,3.81-2.7,3.92-3.32.11-6.65-.03-9.98.04-1.87.04-2.96-.65-3.9-2.38-2.12-3.89-5.46-5.57-9.99-4.75-4.53.82-7.58,3.34-8.86,7.72-1.37,4.72-1.25,9.66-.36,14.36,1.47,7.79,9.74,11.97,16.97,9.06.91-.36,1.82-.86,2.54-1.5.97-.85,2.21-1.78,1.67-3.33-.49-1.42-1.91-1.03-3.02-1.13-4.59-.45-4.64-.45-4.01-5.06.16-1.19.02-2.28-.12-3.44-.37-3.04-.03-3.48,3.12-3.54,5.65-.1,11.31.03,16.96-.05,2.62-.04,3.5,1.16,3.48,3.64-.06,8.33-.05,16.66-.01,24.98.01,2.25-.82,3.48-3.19,3.39-.83-.03-1.66.01-2.49.01q-5.03,0-6.58-4.62Z" style="fill: #fff; stroke-width: 0px;"/>
      <path d="m382.46,106.99c3.52-6.21,6.58-11.61,9.69-17.1-2.25-1.36-4.28-.88-6.21-.88-31.26-.03-62.52-.03-93.77-.02-2.66,0-5.26-.28-7.9-.75-17.69-3.18-28.2-23.11-19.73-40.26,1.3-2.63,2.97-5.13,3.68-7.9-1.49-1.5-3.07-1.02-4.5-1.04-4.65-.06-9.33-.26-13.96.05-4.08.27-6.74-1.13-8.12-4.96-.49-1.37-1.72-2.48-1.5-4.08.81-1.27,2.08-.96,3.18-.97,8.15-.03,16.29-.03,24.44,0,1.15,0,2.33.11,3.45.39,6,1.47,8.95,6.91,6.7,12.69-1.08,2.78-2.63,5.38-3.97,8.06-1.58,3.17-2.08,6.53-2.52,10.06-1.27,10,9.06,19.05,18.67,18.93,33.41-.42,66.84-.17,100.26-.15,1.98,0,4.04-.34,5.92.51,5.28,2.4,8.03,6.39,5.19,13.01-1.89,4.4-4.74,8.38-7.16,12.55-.62,1.08-1.5,1.84-2.76,1.86-2.75.06-5.51.02-9.06.02Z" style="fill: #fff; stroke-width: 0px;"/>
      <path d="m180.72,192.69c-5.04.67-10.17.16-15.28.29-2.16.06-2.67-1.5-3.3-3.1-1.89-4.86-1.92-4.86-7.08-4.87-3.16-.01-6.32.1-9.47-.03-2.52-.1-4.22.75-4.75,3.32-.79,3.81-3.16,5.06-6.88,4.76-2.97-.24-5.98.04-8.97-.09-3.1-.13-3.47-.65-2.39-3.73,2.42-6.9,4.97-13.76,7.49-20.62,3.49-9.52,7.02-19.02,10.5-28.54,1.8-4.93,1.94-5.08,7.09-5.12,3.16-.02,6.32.08,9.47-.02,2.34-.08,3.68.87,4.46,3.08,1.89,5.32,3.97,10.58,5.9,15.89,4.1,11.24,8.17,22.49,12.21,33.76.55,1.52,1.46,3.02,1,5.03Zm-24.22-21.09c-1.25-5.87-2.76-10.98-4.75-17.13-2.53,6.28-4.25,11.5-5.77,17.16,3.77.52,6.85.56,10.51-.04Z" style="fill: #fff; stroke-width: 0px;"/>
      <path d="m550.33,157.66c5.78-3.85,11.64-4.56,17.58-3.13,7.32,1.76,12.71,6.11,13.94,13.9,1.33,8.44-.7,16.14-8.14,21.11-10.28,6.87-24.6,5.91-33.21-3.55-3.8-4.17-5.46-9.23-6.1-14.47-.98-8-.12-15.88,3.55-23.32,3.49-7.08,8.92-11.61,16.67-12.78,7.13-1.08,14.25-1.05,20.51,3.58,2.97,2.19,4.67,5.15,5.6,8.58.67,2.47.02,3.29-2.69,3.41-2.98.14-5.98.02-8.97.05-1.59.02-2.8-.63-4.04-1.61-4.73-3.78-9.83-2.75-12.84,2.5-.9,1.57-1.42,3.26-1.86,5.72Zm8.13,22.37c4.82.09,8.32-2.96,8.39-7.32.05-3.48-4.16-7.36-8.09-7.45-4.19-.1-7.57,3.26-7.61,7.57-.04,3.88,3.25,7.12,7.31,7.2Z" style="fill: #fff; stroke-width: 0px;"/>
      <path d="m460.04,178.68c5.1.66,10.03.25,14.94.31,9.72.1,9.23-1.07,9.2,9.67,0,.67-.03,1.33-.08,1.99-.09,1.34-.77,2.17-2.15,2.28-.99.08-1.99.1-2.99.1-13.13,0-26.26,0-39.4,0-.66,0-1.33.03-1.99-.02-2.91-.24-3.38-.7-3.25-3.75.22-5.09,2.71-9.18,6.03-12.81,5.02-5.47,11.42-9.06,17.68-12.82,1.57-.94,3.17-1.84,4.64-2.92,3.03-2.21,4.14-5.22,3.17-8.22-.86-2.67-3.41-4.33-6.61-4.32-3.35.01-6.28,1.95-7.41,4.94-.23.62-.37,1.27-.48,1.93q-.84,4.95-5.68,4.99c-2.16.01-4.32.06-6.48-.02-3.56-.13-4.09-.52-3.83-4.17.61-8.8,4.47-15.1,12.32-18.39,8.34-3.49,17.02-3.68,25.21.1,11.54,5.32,13.21,18.37,5.65,27.64-3.99,4.89-9.65,7.53-14.91,10.67-1.21.72-2.85.91-3.58,2.82Z" style="fill: #fff; stroke-width: 0px;"/>
      <path d="m423.83,162.4c12.37,6.32,9.54,21.88-.16,27.42-6.43,3.68-13.28,4.76-20.63,3.68-6.07-.89-11.69-2.35-15.94-7.22-3-3.44-4.09-7.55-4.65-11.89-.24-1.9.43-3.31,2.66-3.32,3.49-.02,6.99,0,10.48-.01,1.85,0,2.54,1.03,2.94,2.71.94,4.01,3.69,6.24,7.63,6.94,5.23.93,9-2.73,8.14-7.75-.35-2.03-1.45-3.32-3.44-3.79-.64-.15-1.33-.21-1.98-.17-6.96.43-6.51.19-6.55-7.55-.01-2.61,1.13-3.63,3.62-3.48,2.02.13,3.95-.26,5.87-.94,1.78-.63,2.83-1.91,3.03-3.63.24-2.01-.94-3.43-2.67-4.41-4.02-2.27-9.59-.98-11.62,3.15-1.08,2.2-2.39,2.94-4.61,2.88-2.66-.06-5.33.07-7.98-.04-3.4-.13-4.03-1.02-3.28-4.39,1.42-6.31,5.11-10.81,11.1-13.18,8.41-3.33,16.76-3.26,25.2.37,8.82,3.8,14.23,16.26,2.82,24.62Z" style="fill: #fff; stroke-width: 0px;"/>
      <path d="m396.73,106.45c2.5-4.7,4.93-9.03,7.14-13.47,2.39-4.8,1.68-8.95-1.92-12.85-2.04-2.21-4.54-3.2-7.56-3.16-4.99.07-9.98.01-14.97.01-29.27,0-58.54.02-87.81-.02-6.29,0-11.74-1.87-15.42-7.47-4.33-6.58-2.84-13.02.39-19.37,1.2-2.36,2.85-4.5,3.78-7.02,2.99-8.09-2.19-15.97-10.77-16.07-11.64-.13-23.28-.06-34.92,0-1.3,0-3.19-.78-3.44,1.66-.1.93-.82.96-1.5.73-4.07-1.36-8.13-2.74-13.02-4.4,2.75-2.29,5.5-3.23,8.09-4.41.37-.17,1.16-.1,1.37.17,2.52,3.28,6.09,2.09,9.26,2.12,11.31.11,22.63.31,33.93-.02,12.21-.36,19.69,12.59,14.45,22.67-1.53,2.96-3.02,5.94-4.46,8.94-1.65,3.43-2.21,6.88-.66,10.59,1.92,4.59,4.85,6.87,9.87,6.94,5.99.08,11.97.02,17.96.02,27.61,0,55.22.02,82.82-.03,3.03,0,5.98.32,8.86,1.15,8.65,2.51,13.08,11.03,10.41,19.69-1.4,4.53-4.43,8.18-6.47,12.36-.94,1.92-2.74,2.2-5.39,1.24Z" style="fill: #fff; stroke-width: 0px;"/>
      <path d="m329.67,57.11c2.8-5.04,5.48-9.95,8.26-14.82,3.29-5.78,6.73-11.48,9.97-17.28,2.01-3.59,4.6-6.06,8.97-6.07,13.45-.02,26.9-.07,40.35-.09.11,0,.23.21.64.61-3.33,5.78-6.69,11.66-10.12,17.49-1.18,2.01-3.24,2.06-5.29,2.05-8.98-.02-17.97.15-26.94-.08-3.66-.09-5.78,1.1-7.35,4.46-1.82,3.9-4.46,7.42-6.38,11.28-1.33,2.66-3.15,3.66-5.95,3.34-1.91-.22-3.94.42-6.16-.89Z" style="fill: #fff; stroke-width: 0px;"/>
      <path d="m407.83.74c.05,2.03-1.12,3.32-1.83,4.78-1.3,2.68-3.36,3.65-6.41,3.61-13.29-.15-26.58-.13-39.86-.03-7.49.06-14.11,2.19-18.31,9.03-2.08,3.4-4.11,6.83-6.11,10.28-4.99,8.62-9.96,17.26-14.93,25.9-.82,1.41-1.3,3.23-3.25,3.49-2.47.32-5.06.65-7.4-.17-1.85-.66-.77-2.14-.11-3.29,3.47-6.05,6.93-12.11,10.4-18.16,3.63-6.34,7.36-12.63,10.88-19.03,4.6-8.39,10.82-14.66,20.54-16.61,1.45-.29,2.95-.5,4.43-.5,16.11-.04,32.22-.03,48.34-.01,1.14,0,2.34-.19,3.63.73Z" style="fill: #fff; stroke-width: 0px;"/>
      <path d="m528.01,132.96c-2.49,6.75-4.6,12.49-6.73,18.22-4.82,12.91-9.75,25.77-14.4,38.74-1.16,3.24-2.9,4.49-6.22,4.2-2.44-.22-4.91-.04-7.79-.04,1.74-7.12,4.46-13.32,6.76-19.64,4.54-12.48,9.33-24.86,13.99-37.3,1.52-4.05,1.49-4.08,5.62-4.16,2.62-.05,5.25,0,8.76,0Z" style="fill: #fff; stroke-width: 0px;"/>
      <path d="m321.61,57.29c3.45-6.02,6.64-11.62,9.86-17.21,3.65-6.34,7.39-12.62,10.95-19.01,3.5-6.29,8.71-9.19,15.88-9.12,12.46.12,24.93-.02,37.39.09,1.75.02,4.29-1.2,5.12,1.42.51,1.62-1.61,2.57-5.57,2.57-11.14.02-22.27,0-33.41,0-1.16,0-2.33,0-3.49,0-5.38.07-9.57,2.08-12.29,7-4.42,8-9.01,15.9-13.53,23.85-1.64,2.89-3.3,5.77-4.87,8.7-1.25,2.33-3.03,2.82-6.04,1.69Z" style="fill: #fff; stroke-width: 0px;"/>
      <path d="m300.79,107.04c2.63-4.67,4.79-8.38,6.8-12.17,1.47-2.77,3.45-4.33,6.75-3.85,1.77.26,3.64-.36,5.72.74-2.01,4.86-5.03,9.15-7.61,13.66-.7,1.22-2.05,1.61-3.45,1.61-2.46,0-4.92,0-8.2,0Z" style="fill: #fff; stroke-width: 0px;"/>
      <path d="m279.74,107.06c1.7-4.72,4.5-8.29,6.55-12.25,1.46-2.82,3.55-4.27,6.81-3.78,1.59.24,3.32-.43,5.06.94-1.54,5.06-4.71,9.31-7.51,13.74-.82,1.3-2.19,1.35-3.55,1.35-2.3,0-4.6,0-7.36,0Z" style="fill: #fff; stroke-width: 0px;"/>
      <path d="m354.44,205.67c.02-4.86.75-5.72,4.72-5.63,3.8.09,5.38,1.76,5.31,5.62-.07,3.67-2.02,5.32-6.28,5.32-3.44,0-3.77-.47-3.75-5.31Z" style="fill: #fff; stroke-width: 0px;"/>
      <path d="m285.52,205.33c.02-4.83.31-5.26,3.68-5.3,3.97-.05,6.24,1.87,6.29,5.32.05,3.24-2.51,5.58-6.15,5.62-3.49.04-3.84-.46-3.82-5.65Z" style="fill: #fff; stroke-width: 0px;"/>
      <path d="m293.56,106.93c2.18-5.14,5.03-9.72,7.93-14.24.89-1.39,1.1-1.25,4.81-.98-2.29,5.26-5.13,10.02-8.28,14.56-.83,1.2-2.59,1.17-4.45.66Z" style="fill: #fff; stroke-width: 0px;"/>
      <path d="m306.35,211.41c-3.76-2.7-6.89-1.24-10.38-.54.42-3.46,1.77-6.1,2.8-8.79.93-2.43,3.19-2.62,4.46-.42,1.54,2.67,2.42,5.62,3.12,9.75Z" style="fill: #fff; stroke-width: 0px;"/>
      <path d="m323.67,210.78c-3.24-2.29-6.27-.68-9.68.2.31-3.49,1.86-6.05,2.66-8.81.29-.99.93-1.76,2.05-1.9,1.36-.18,2.22.59,2.71,1.71,1.17,2.67,2.29,5.37,2.26,8.81Z" style="fill: #fff; stroke-width: 0px;"/>
      <path d="m271.61,9.23c-4.68,1.85-5.72-2.73-8.56-3.57-2.73.84-3.82,5.29-8.15,3.79,1.59-3.65,4.51-5.74,7.22-7.98.87-.71,1.95-.25,2.71.47,2.24,2.14,4.64,4.15,6.78,7.29Z" style="fill: #fff; stroke-width: 0px;"/>
      <path d="m344.22,201.35c3.21-1.97,5.94-1.48,9.19-.55-1.42,2.66-2.29,5.22-2.26,8.02.01,1.01-.79,1.84-1.96,1.86-1.3.03-1.78-.96-1.67-1.98.32-2.94-.58-5.36-3.3-7.35Z" style="fill: #fff; stroke-width: 0px;"/>
      <path d="m345.58,209.09c-1.84,2.77-4.12,1.98-6.05,1.59-2.06-.41-2.02-2.37-2.01-4.05,0-1.49,0-2.99.21-4.46.14-1.04.85-1.84,2.02-1.83,1.3.01,1.71,1.05,1.61,2.06-.31,3.23.51,5.75,4.22,6.69Z" style="fill: #fff; stroke-width: 0px;"/>
      <path d="m314.92,201.5c-2.73,1.42-3.79,3.38-3.38,6.14.05.32,0,.66-.05.99-.13,1.01-.33,2.06-1.66,1.94-1-.09-1.33-1.01-1.26-1.83.25-2.9-.41-5.42-3.4-7.31,3.55-2.06,6.5-1.73,9.74.07Z" style="fill: #fff; stroke-width: 0px;"/>
    </g>
  </g>
</svg>