<?xml version="1.0" encoding="UTF-8"?>
<svg id="Calque_2" data-name="Calque 2" xmlns="http://www.w3.org/2000/svg" viewBox="0 0 638 130.58">
  <g id="Calque_1-2" data-name="Calque 1">
    <g>
      <path d="m638,91.74c-12.26,4.53-24.67,7.51-37.98,7.19-25.75-.63-42.42-16.74-43.08-42.57-.02-.94.33-1.99-.81-3.04-7.7,12.55-19.84,14.76-33.24,14.59-13.55-.18-11.77-1.65-11.91,11.98-.04,4.33-.07,8.66-.01,12.99.05,3.35-1.51,4.88-4.85,4.82-4.5-.07-9-.05-13.49-.02-3.12.02-4.56-1.48-4.56-4.58,0-25.32-.03-50.64-.06-75.96,0-2.4.54-4.42,3.48-4.41,14.15.05,28.39-.74,42.44.47,14.83,1.28,21.82,9.05,24.73,24.51,2.75-3.94,4.33-8.06,7.16-11.41,8.92-10.57,20.83-14.58,34.01-15.51,10.23-.73,20.22.9,29.96,4.24,3.66,1.26,5.32,3.07,5.32,7.16,0,12.33.13,12.38-11.41,8.27-8.88-3.16-17.94-3.93-27-1.55-8.22,2.16-13.55,7.73-15.42,16.09-2.21,9.83-2.39,19.57,3.58,28.38,5.29,7.79,20.88,12.02,29.44,8.24,1.56-.69,2.43-1.69,2.52-3.35.08-1.33.13-2.66.11-3.99-.12-8.41,1.38-9.99-8.51-9.44-3.14.17-4.3-1.31-4.6-4.44-1.05-10.71-1.16-10.7,9.68-10.7,8.16,0,16.33.03,24.49.04v42Zm-126.97-51.44c.21,12.61-1.96,11.45,12,11.33,7.4-.06,11.69-4.11,11.93-10.65.25-7.04-3.6-11.25-11.05-12.1-12.48-1.43-12.88-1.07-12.88,11.42Z" style="fill: #fff; stroke-width: 0px;"/>
      <path d="m0,73.74c3.17-5.37,2.92-11.52,3.87-17.39,2.87-17.67,11.9-31.18,27.12-40.54,1.99-1.23,3.9-2.49,5.6-4.13,14.57-14.16,35.82-16.12,50.45-2.11,10.66,10.21,22.51,20.52,27.07,35.63,2.77,9.19,6.14,18.15,9.12,27.24,6.44,19.57-6.59,41.31-26.66,45.85-1.6.36-3.58.9-4.9.29-5.49-2.5-10.25-.03-15.32,1.4-8.73,2.46-17.65,3.16-26.63,1.23-6.64-1.43-13.2-3.01-19.98-4.01-13.71-2.02-22.36-10.94-27.59-23.43C1.44,92.09.72,90.41,0,88.74c0-5,0-10,0-15Zm98.97,15.88c-1.95-3.6-1.88-7.86-4.15-11.17-2.24-3.27-5.09-5.42-9.26-4.18-4.05,1.21-5.88,4.16-5.56,8.37.14,1.82.27,3.66.68,5.43,1.45,6.16,2.97,12.3,4.57,18.43,1.55,5.94,4.52,7.9,10.59,7.13,3.2-.4,6.08-1.71,8.8-3.37,12.98-7.89,18.63-23.54,13.63-37.75-5.36-15.25-18.92-23.75-35.15-21.49-6.67.93-13.29.8-19.93.71-9.04-.13-15.43-8.02-14.05-16.92,1.06-6.86,8.96-12.29,16.49-9.18-3.4,2.65-6.47,4.5-8.85,7.01-3.32,3.51-2.99,7.25.25,10.68,3.4,3.6,8.21,4.36,11.57,1.2,6.3-5.93,12.44-12.06,18.33-18.4,3.19-3.43,2.64-7.11-.63-10.65-6.92-7.49-15.47-10.95-25.58-9.65-11.92,1.54-21.62,6.66-26.46,18.44-4.56,11.08-4.35,21.83,3.35,31.55,4.56,5.75,9.02,11.53,12.38,18.08,3.03,5.9,1.71,12.84-3.39,17.77-3.64,3.52-12.27,4.55-16.87,1.84-2.2-1.3-4.34-2.84-4.78-6.12,4.23.42,7.71,2.38,11.57,2.32,4.62-.07,8.03-2.81,8.94-7.2.84-4.05-1.56-8.55-5.75-9.88-7.3-2.31-14.64-4.52-22.07-6.36-5.52-1.37-10.2,1.7-11.39,7.03-4.17,18.7,3.56,31.91,20.45,38.19,13.26,4.93,33.66-.61,39.97-19.07,2.07-6.06,5.1-11.53,8.49-16.88,6.05-9.55,20.15-9.13,25.53.77,2.44,4.48,1.86,9.53-1.73,13.34Z" style="fill: #fff; stroke-width: 0px;"/>
      <path d="m410.05,16.71c-10.24,25.39-20.1,49.96-30.07,74.48-3.57,8.79-6.75,17.77-11.3,26.13-5.51,10.11-19.36,15.71-30.16,12.21-3.91-1.27-2.21-4.69-2.47-7.26-.23-2.32.35-4.79,3.31-4.45,13.96,1.63,18.46-7.68,22.01-18.43.83-2.52,1.01-4.62-.05-7.15-8.17-19.52-16.22-39.09-24.22-58.67-1.18-2.89-2.59-5.3-5.62-6.61-10.6-4.59-21.57-5.56-32.75-3.07-6.17,1.38-9.58,5.51-9.45,10.72.14,5.52,3.82,8.36,8.57,9.79,5.9,1.77,11.91,3.15,17.88,4.7,3.88,1,7.64,2.3,11.26,4.06,8.28,4.02,12.81,10.55,12.93,19.74.12,9.41-3.88,16.86-12.2,21.44-11.88,6.54-24.61,6.25-37.49,3.96-.16-.03-.33-.06-.49-.11-6.81-2.14-13.52-1.79-20.6-.73-7.5,1.12-7.62.26-8.12-7.31-.04-.64-.24-1.27-.36-1.84-1.65-.56-2.24.72-3.01,1.46-13.14,12.51-31.4,13.51-45.81,2.49-.8-.62-1.2-1.65-2.83-.56-11.63,7.81-24.86,8.96-38.2,7.58-31.47-3.27-43.42-32.33-35.24-60.98,8.66-30.32,46.35-35.82,64.36-19.62,7.85,7.06,11.55,16.19,12.03,26.57.19,4.02.58,5.65,4.97,3.15,9.5-5.42,20.28-4.62,30.67-5.54,2.48-.22,5,0,7.5-.04,5.75-.09,7.03-1.99,5.06-7.49-2.6-7.27-9.79-12.03-18.76-12.53-9.13-.51-18.01.65-26.31,4.57-3.8,1.8-5.28,1.56-5.21-3.14.12-8.58-.11-8.66,8.14-10.98,8.2-2.31,16.51-4.09,25.12-3.34,15.02,1.32,26.45,7.63,31.14,23.41,6.37-18.67,19.06-26.12,39.3-23.33,8.08,1.11,16.14,2.43,24.32,1.7,4.35-.39,6.61,1.4,8.17,5.47,7,18.19,14.25,36.28,21.48,54.39.58,1.46.7,3.88,2.5,3.94,1.94.06,1.92-2.42,2.5-3.86,7.31-18.25,14.62-36.5,21.72-54.83,1.41-3.65,3.35-5.42,7.35-5.09,16.95,1.42,33.96.44,50.93,1.09,18.56.71,28.2,13.96,23.23,31.13-1.53,5.27-4.78,9.11-9.56,11.63-2.81,1.48-2.97,2.79-.22,4.47,3.87,2.36,6.03,6.22,8.05,10.02,3.99,7.5,7.61,15.2,11.49,22.76,1.75,3.42.96,4.96-2.95,4.91-4.83-.07-9.67-.11-14.5.02-3.12.08-4.86-1.37-6.16-4.07-3.25-6.76-6.7-13.42-10.02-20.14-2.74-5.55-7.13-7.91-13.31-7.87-4.02.02-5.75,1.27-5.62,5.47.22,7.16-.05,14.33.09,21.49.07,3.57-1.23,5.26-4.94,5.12-3.83-.15-7.68-.22-11.49.03-4.39.28-5.79-1.55-5.76-5.85.14-23,.08-45.99.04-68.99,0-1.77.44-3.61-.88-6.21Zm-232.17,42.07c-8.15,0-16.3.07-24.44-.03-3.62-.04-4.61,1.71-4.28,5.01,1.14,11.52,10.3,21.47,21.8,22.73,9.99,1.1,19.91.45,29.46-3.32,2.87-1.13,4.23-2.29,3.79-5.78-.59-4.57-.84-9.33.74-13.84,1.25-3.59.04-4.86-3.61-4.81-7.81.11-15.63.03-23.45.04Zm98.17-12.88c0,10.14,0,20.28,0,30.42,0,1.72.26,3.47,1.98,4.29,12.79,6.12,25.98,9.48,39.94,4.38,4.61-1.68,6.9-5.56,6.94-10.58.04-4.78-2.59-7.75-6.71-9.58-2.12-.94-4.31-1.78-6.54-2.38-5.14-1.39-10.35-2.5-15.49-3.9-7.85-2.14-15.22-5.08-20.13-12.65Zm-15.04,15.32c-.34-2.39,1.21-6.2-3.64-6.37-9.48-.34-18.95-.2-28.21,2.15-6.99,1.77-11.07,7.42-11.02,14.73.05,6.97,4.64,12.99,11.25,14.76,16.5,4.42,31.21-7.19,31.61-25.28Zm-87.96-14.54c6.82,0,13.64-.06,20.46.03,3.31.04,4.28-1.09,3.71-4.52-2-12.12-10.11-19.39-22.15-19.4-13.44-.01-23.35,7.92-25.37,20.02-.52,3.14.75,3.88,3.39,3.88,6.65-.01,13.31,0,19.96,0Zm267.36,2.99c1,0,2,.04,2.99,0,7.82-.36,10.79-3.53,10.58-11.26-.2-7.14-4.22-9.74-14.9-9.62q-6.04.07-6.04,9.36c0,1.33,0,2.66,0,3.99q.02,7.55,7.37,7.52Z" style="fill: #fff; stroke-width: 0px;"/>
    </g>
  </g>
</svg>