<?xml version="1.0" encoding="UTF-8"?>
<svg id="Calque_2" data-name="Calque 2" xmlns="http://www.w3.org/2000/svg" viewBox="0 0 270.48 208.6">
  <g id="Calque_1-2" data-name="Calque 1">
    <g>
      <path d="m262.87,205.32c-7.64,5.79-18.67,3.69-23.86-4.54-1.49-2.37-2.45-4.97-3.34-7.6-.43-1.27-1.04-1.72-2.39-1.66-3.09.12-6.19.11-9.29.07-1.11-.01-1.61.32-1.51,1.49.42,5.33-2.68,6.86-7.39,6.8-11.67-.16-23.35-.07-35.02-.08-4.9,0-6.68-1.69-6.87-6.68-.04-1.1-.27-1.53-1.44-1.52-4.53.04-9.05.03-13.58-.03-1.2-.02-1.82.38-2.28,1.55-1.11,2.88-2.18,5.8-4.04,8.3-3.98,5.35-9.35,7.95-15.94,6.92-7.18-1.12-11.69-5.57-13.62-12.59-.27-4.14-.27-4.11-4.41-4.1-15.44.02-30.88.03-46.32.03-3.41,0-3.41-.02-3.41,3.5-1.27,3.62-2.64,4.62-6.49,4.62-12.47.01-24.94.01-37.4,0-4.16,0-6.18-1.89-6.14-6.09.02-1.91-.72-2.2-2.36-2.17-3.01.06-6.04.14-8.96-.83-3.23-1.96-5.6-4.53-6.05-8.47.04-.64.07-1.28.11-1.92,1.98-.39,2.22,1.61,3.34,2.42.36,1.25.79,2.46,1.96,3.21,1.39,1.9,3.43,2.03,5.53,2.03,31.9,0,63.8.02,95.7.02,4.76,0,9.52-.05,14.28-.08.34.06.52-.06.47-.42,0-.48,0-.95,0-1.43.04-.95.11-1.9.11-2.85.06-15.73.12-31.45.17-47.18.41-4.37,1.53-8.56,3.1-12.64.59-.81,1.31-1.56,1.38-2.67-.95-.41-1.9-.24-2.83-.24-33.47.04-66.94.09-100.41.15-1.76,0-3.47-.19-5.07-.99-1.4-1.34-1.91-2.96-1.87-4.91.09-4.91.02-9.83.06-14.75.02-3.24,1.52-4.79,4.74-4.92,1.1-.04,2.21.06,3.32.1-.54,1.13-1.66,1.04-2.64,1.23-.72.14-1.89-.14-1.75.96.1.83,1.2.47,1.86.47,36.05.02,72.1.02,108.15,0,.61,0,1.45.39,1.84-.64-1.64-.75-3.99.28-4.95-2.01,2.51-.04,5.02-.12,7.53-.1,3.48.02,4.77,1.08,5.55,4.48.16.71.1,1.5,1.2,1.04.04,1.07.08,2.15.12,3.22-1.38.75-2.82,1.43-3.9,2.62-.93.55-1.49,1.44-1.81,2.41-.21.64-.36,1.5.32,1.98.6.42.94-.36,1.38-.6,4.06-2.18,8.43-3.12,13-3.27,2.06.67,4.12.72,6.17-.04,2.7-.02,5.4-.04,8.1-.06.3.62.79,1,1.49.97,1.66-.05,1.95.98,1.87,2.32h-8.59c1.35,1.24,2.6,1.55,3.83,1.9,1.8,1.64,3.81,3.1,5.36,4.95,4.34,5.21,6.77,11.22,6.52,18.11-.06,1.72.43,2.21,2.2,2.4,6.48.66,12.73,6.19,13.68,11.79-2.67-.26-2.63-2.87-3.62-4.46-.79-1.27-1.37-1.23-2.38-.68-1.56-.94-2.79-2.39-4.63-2.88-2.22-1.01-4.58-1.22-6.98-1.05-1.23.08-1.82-.24-1.42-1.59.52-1.78.3-3.62.3-5.44-.05-11.41-7.62-20.63-18.78-22.72-1.82-.34-3.8-.92-5.58.38-.6-.33-1.24-.19-1.85-.1-7.99,1.11-16.61,8.82-18.62,16.65-1.76,4.11-1.67,8.37-.64,12.56,3.34,13.6,14.63,22.47,28.64,22.79,3.24.07,6.5-.31,9.72.31.18,1.37.36,2.74.55,4.11-.26.82-.48,1.66-.8,2.47-2.09,5.28-4.21,10.55-6.3,15.84-.96,2.44-.93,2.47,1.79,2.48,2.85,0,5.7-.03,8.55-.04,11.2.04,22.39.1,33.59.11,9.53.01,19.06-.06,28.59-.02,1.66,0,2.11-.31,1.36-1.96-1.28-2.8-2.37-5.69-3.55-8.55-1.11-3.03-2.32-6.02-3.3-9.1-.51-1.61-1.15-1.6-2.5-.97-3.15,1.47-6.47,1.92-9.91,1.2.93-.87,1.97-1.55,3.27-1.66.93-.08,1.48-.48,1.56-1.44.29-.04.59-.09.88-.13.65.81.89.38,1.03-.34.46-.2.92-.4,1.38-.59.17,1.05.84,1.17,1.71.9.99-.31,1.3-1.01,1.13-1.98,4.21-.66,8.47-.32,12.69-.72,4.25-.4,8.31-1.45,11.95-3.78,1.77-.35,2.87-1.85,4.45-2.55.5,1.05.92,2.21,2.44,2.02-.26.64-.86.89-1.4,1.22-2.39,1.48-4.78,2.96-7.17,4.43-5.41,1.71-10.97,2.43-16.63,2.38-1.66-.01-2.15.42-1.47,2.03.92,2.19,1.67,4.45,2.58,6.65,3.14,7.63,5.7,15.49,9.33,22.92,2.3,4.71,6.17,7.08,11.44,7.1,2.31.36,4.43-.58,6.63-.98,1.16.34,2.8-.8,3.43,1.13ZM20.16,108.81c-.03.3-.05.6-.08.9-.01,1.19-.04,2.38-.04,3.57-.02,4.04-.01,4.05,3.99,4.05,34.55,0,69.1,0,103.65.04,1.29,0,2.09-.54,3.11-1.26,2.41-1.71,2.65-3.89,2.17-6.44.04-.52.31-1.09-.26-1.51.17-.52.34-1.03.51-1.55,1.25-1.18,2.59-2.3,3.74-3.58.96-1.07.49-2.41.16-3.62-.32-1.14-1.33-.92-2.19-.92-7.07,0-14.13,0-21.2,0-30.09,0-60.18.01-90.26.03-3.42,0-3.43.04-3.43,3.36,0,1.51.05,3.02.07,4.52,0,.7.02,1.4.03,2.1-.03.1-.02.19.04.28Zm1.52,85.52c-.27,2.06,1.2,1.87,2.46,1.87,7.45.02,14.9-.01,22.35.03,5.14.03,10.28.16,15.42.24,1.51.02,2.77-.24,2.46-2.23.54-2.92.54-2.93-2.46-2.93-12.58,0-25.15,0-37.73,0-2.82,0-2.82,0-2.5,3.01Zm196.78-.14c.86-2.57.66-2.88-2.01-2.88-12.47,0-24.95,0-37.42.02-2.78,0-2.79.03-2.04,2.88-.39,1.76.65,1.96,2.02,1.96,12.49,0,24.99,0,37.48.06,1.51,0,2.26-.45,1.97-2.05Zm-80.61,10.96c1.41-.07,2.8.06,4.23-.39,4.93-1.57,7.56-5.28,9.41-9.75,3.7-8.93,7.34-17.89,11.08-26.8.55-1.31.15-1.73-1-1.95-2.05-.39-4.11-.2-6.17-.11-14.14-.41-23.58-7.82-29.93-20.37,0,16.3-.12,32.22.06,48.14.07,6.09,6.06,11.23,12.3,11.23Z" style="fill: #272735; stroke-width: 0px;"/>
      <path d="m166.09,167.2c-.18-1.37-.36-2.74-.55-4.11,2.61-.07,4.52,2.21,7.13,2.15,1.67,1.16,3.42.74,5.19.29,5.59-1.41,9.32-4.68,10.71-10.43,1.03-4.27-.73-7.69-3.19-10.92,1.02-.55,1.6-.59,2.38.68.99,1.6.95,4.2,3.62,4.46.86,3.05.74,6.09-.05,9.13-.56.99-.54,1.59.87,1.55,2.21-.06,4.42-.06,6.62-.04,1.72.01,1.9-.72,1.04-2.02-.01-.56.05-1.13-.06-1.66-1.39-6.87,1.22-12.3,6.77-15.97,2.91-1.92,4.57-3.27,4.53-7.29-.07-5.89,3.09-10.99,6.62-15.72,1.55-2.08,3.99-3.08,5.5-5.13,1.51-.21,2.84-.81,4.12-1.81-1.6-.4-3.11-.34-4.61-.33-18.12.07-36.23.11-54.35.16.08-1.34-.21-2.37-1.87-2.32-.7.02-1.18-.36-1.49-.97-.3-.31-.6-.62-.89-.93-.41-.85-1.23-1.23-1.99-1.59-6.71-3.18-13.52-3.01-20.39-.53-.04-1.07-.08-2.15-.12-3.22,4.3-1.72,8.8-1.51,13.29-1.34,4.86.18,8.67-1.58,11.17-5.91,1.12-1.94,2.62-3.59,4.33-5.04,9.71-8.27,24.8-5.34,31.85,6.2.8,1.31,1.77,2.38,2.88,3.42,2.38,2.22,4.86,4.41,6.79,6.99,1.53,2.05,3.34,2.03,5.39,2.03,2.02,0,4.05.4,5.22-2.09.67-1.42,2.29-2.14,3.61-3.03,2.13-1.44,4.7-1.65,7.02-2.57.04-.16.07-.31.11-.47,0-.47,0-.94,0-1.4,0-.81,0-1.61,0-2.42.3-4.28.22-8.56,0-12.84,0-1.92,0-3.84,0-5.76,0-.3,0-.61,0-.91.03-7.95.06-15.89.1-23.84,0-.33.02-.67.02-1,0-.48,0-.95-.01-1.43,0-.58.02-1.15.03-1.73.01-1.04.02-2.09.03-3.13-.04-1.24-.09-2.49-.13-3.73.2-4.13.17-8.26-.08-12.38-.03-.48-.06-.95-.09-1.43-.33-2.76-2.49-3.67-4.65-4.58-.94-1.08-2.11-.62-3.23-.46-.16.11-.31.22-.47.33.33-2.87,2.94-2.08,4.58-2.84,4.61.72,6.42,4.1,7.63,8.05-.03.39-.08.79-.08,1.18,0,22.09.02,44.18.02,66.27,0,4.3-.01,4.3,4.34,4.41l4.31.62c3.14,1.12,6.25,2.26,8.77,4.59,2.3,2.12,3.63,4.61,3.2,7.8-.14,1,.14,1.61.94,2.2,1.93,1.42,3.43,3.29,4.99,5.09.91,1.66,2.18,3.12,2.73,4.98-1.73,1.06-.72,1.8.3,2.53.04.13.07.27.08.41-1.14,2.51,2,4.43.31,7.2,1.6-.65,1.34-1.78,1.97-2.35.34,1.91.68,3.83,1.02,5.74-.06.64-.13,1.27-.19,1.91-1.17.06-2.77-.47-1.65,1.88.47,1,.6,2.71-1.46,2.85-.04-.14-.07-.29-.14-.43-.02-.05-.16-.1-.18-.08-.86.79-.61,2.19-1.6,2.91-.47-.99-.93-1.99-2.04-2.44,1.46-3.99,2.22-8.09,2.03-12.35.79-.72.09-1.04-.38-1.41-.01-.17-.03-.34-.04-.51.61-.68.51-1.16-.39-1.42-.97-2.74-1.76-5.58-3.92-7.72-6.95-10.65-22.92-14.25-34.08-7.82-8.2,4.73-13.87,14.57-12.07,24.22.38,2.02-.16,2.23-1.83,2.59-6.62,1.43-11.03,8.39-9.37,14.56.52,3.27,2.35,5.66,4.78,7.82,3.24,2.89,7.03,3.28,11.05,3.07-.08.96-.63,1.36-1.56,1.44-1.3.11-2.34.78-3.27,1.66-2.33-.2-4.83-.73-6.34-2.32-3.24-3.43-7.14-3.12-11.16-2.96-1.51.06-3.02.02-4.53.06-1.88.04-3.62.32-5.2,1.62-5.54,4.55-11.68,5.02-18.19,2.38-.68-.28-1.32-.99-2.13-.24Zm3.55-74.18c-.04.12-.07.25-.11.37.12-.04.24-.09.36-.13.12-.15.4-.28.08-.48-.04-.03-.22.16-.33.24Zm-1.33,2.38c-1.6,1.61-2.07,3.89-3.4,5.66-.29.38-.52.95,0,1.25.53.29.87-.23,1.06-.66.86-2.03,2.03-3.94,2.47-6.14.37-.26.79-.5.7-1.05-.01-.09-.23-.23-.31-.2-.57.18-.42.72-.52,1.14Zm59.18,11.44c2.05,0,4.12.16,6.15-.04,4.85-.48,9.64-.25,14.3,1.2,2.07.64,4.06,1.55,6.32,2.43-.28-2.3-1.45-3.61-3.22-4.49-.22-.16-.43-.31-.65-.47l-.09-.08-.1.07c-5.55-4.69-21.38-4.63-24.84,1.37h2.12Zm-34.62-6.45c-1.47-3.93-4.69-6.18-9.06-6.33-4.44-.15-7.04,1.47-8.82,5.69-.92,2.17-1.64,4.42-2.45,6.63-.04.12-.14.32-.1.35.11.09.28.17.42.17,7.61,0,15.21,0,22.98,0-.92-2.29-1.65-4.53-2.97-6.51Zm-9.13-9.19c5.62-.58,10.42,3.98,12.17,8.39.82,2.06,1.72,4.08,2.61,6.11.29.66.67,1.42,1.56,1.11,1.12-.39.35-1.24.17-1.77-1.07-3.16-2.4-6.29-4.46-8.89-2.68-3.39-6.08-6.12-10.51-6.83-3.99-.64-7.69.33-10.81,3.12-3.88,3.47-5.09,8.26-6.54,12.93-.12.4-.17,1.06.4,1.23.76.22.86-.49,1.04-.99.8-2.23,1.71-4.43,2.37-6.7,1.02-3.47,3.22-5.72,6.56-6.93,1.81-.65,3.67-.97,5.45-.78Zm20.89,15.56c.31-.77-.11-1.41-.37-2.03-1.93-4.57-3.95-8.91-7.37-12.82-5.75-6.55-16.9-8.15-23.65-2.9-.62.49-1.43.92-1.41,2.27.91-.55,1.58-.92,2.22-1.34,7.58-4.93,17.03-3.2,22.73,3.89,2.73,3.41,4.22,7.41,6.21,11.17.36.68.38,1.8,1.64,1.74Zm-34.16-14.85l.11.08.02-.12-.12.04Z" style="fill: #252530; stroke-width: 0px;"/>
      <path d="m229.42,19.24c-1.64.76-4.25-.04-4.58,2.84-.55.04-1.1.12-1.65.12-44.43.04-88.87.07-133.3.13-2.69,0-4.59-.97-5.46-3.61-.05-3.19-.1-6.38-.15-9.57-.39-4.11-2.49-6.11-6.61-6.11-21.85-.02-43.69.04-65.54-.04-3.64-.01-6.54.86-8.28,4.27-.95.81-1.89.2-2.84,0-.03-.53-.06-1.06.39-1.46.4-.24.5-.59.43-1.03l.09.08s-.1-.07-.1-.07c.45-.16.58-.51.56-.95C4.17.82,6.97,0,10.27,0c19.13.04,38.26.02,57.38.03,3.1,0,6.19,0,9.29,0,6.52,0,8.71,1.55,10.88,7.69,0,1.34-.07,2.68.05,4.01.22,2.44-1.2,5.81.7,7.09,1.72,1.15,4.86.19,7.37.15.71.03,1.43.08,2.14.08,43.62,0,87.24,0,130.86-.01.16.07.32.13.47.2Z" style="fill: #1c1e28; stroke-width: 0px;"/>
      <path d="m1.02,7.26c.95.2,1.89.8,2.84,0,0,11.45,0,22.89,0,34.34-.72.03-1.27.38-1.36,1.09-.23,1.88-.4,3.77-.54,5.65-.1,1.44.92,1.42,1.93,1.37.03.63.1,1.26.1,1.89,0,38.33,0,76.66.02,114.98,0,5.39.13,10.78.2,16.18-1.11-.8-1.36-2.8-3.34-2.42-.1-4.61-.19-9.21-.29-13.82.19-.94.2-1.89,0-2.83,0-9.71,0-19.41,0-29.12,0-8.26-.02-16.52-.03-24.78,0-5.09,0-10.18,0-15.27v-.95c.03-.55.09-1.11.09-1.66.01-27.92.02-55.84.02-83.77.12-.3.24-.59.36-.89Z" style="fill: #383945; stroke-width: 0px;"/>
      <path d="m245.64,99.77c-1.44-.21-2.87-.42-4.31-.62-.15-.52-.51-.86-1.04-.77-2.76.47-2.8-1.18-2.79-3.24.06-11.12.04-22.24.02-33.36-.02-11.51-.06-23.03-.08-34.54.81-.82,1.44-.19,2.07.27,4.16,3.04,6.06,7.33,6.09,12.29.1,19.99.04,39.98.05,59.97Z" style="fill: #d0c3b2; stroke-width: 0px;"/>
      <path d="m228.94,19.04c-43.62,0-87.24,0-130.86.01-.71,0-1.43-.05-2.14-.08.14-.25.29-.5.43-.75,43.21,0,86.42,0,129.63.03.99,0,2.29-.66,2.94.79Z" style="fill: #f8f5e5; stroke-width: 0px;"/>
      <path d="m96.38,18.22c-.14.25-.29.5-.43.75-2.51.03-5.65,1-7.37-.15-1.9-1.28-.48-4.64-.7-7.09-.12-1.33-.04-2.67-.05-4.01,4.75,1.95,7.86,5.24,8.56,10.5Z" style="fill: #d0c3b2; stroke-width: 0px;"/>
      <path d="m.65,8.15c0,27.92-.01,55.84-.02,83.77,0,.55-.06,1.11-.09,1.66-.77-.7-.49-1.63-.49-2.47-.01-26.76,0-53.53,0-80.29,0-.91-.32-1.94.6-2.66Z" style="fill: #f8f5e5; stroke-width: 0px;"/>
      <path d="m237.44,27.23c.03,11.51.07,23.03.08,34.54.02,11.12.04,22.24-.02,33.36-.01,2.06.03,3.71,2.79,3.24.54-.09.89.25,1.04.77-4.35-.11-4.34-.11-4.34-4.41,0-22.09-.02-44.18-.02-66.27,0-.39.05-.79.08-1.18.13-.02.26-.04.38-.05Z" style="fill: #dbd5d4; stroke-width: 0px;"/>
      <path d="m.57,134.57c0,9.71,0,19.41,0,29.12-.67-.52-.53-1.27-.53-1.97,0-8.39,0-16.78,0-25.17,0-.7-.14-1.45.52-1.98Z" style="fill: #f8f5e5; stroke-width: 0px;"/>
      <path d="m.57,166.52c.1,4.61.19,9.21.29,13.82-.04.64-.07,1.28-.11,1.92-.51-.19-.7-.58-.7-1.1,0-4.54,0-9.09.03-13.63,0-.34.32-.67.49-1.01Z" style="fill: #f8f5e5; stroke-width: 0px;"/>
      <path d="m.54,94.52c0,5.09,0,10.18,0,15.27-.64-.54-.49-1.28-.5-1.97-.01-3.77-.01-7.55,0-11.32,0-.69-.15-1.44.5-1.97Z" style="fill: #f8f5e5; stroke-width: 0px;"/>
      <path d="m1.84,4.77c.07.43-.03.79-.43,1.03,0-.4,0-.8.43-1.03Z" style="fill: #383945; stroke-width: 0px;"/>
      <path d="m2.39,3.83c.02.44-.11.79-.56.95.05-.4.15-.77.56-.95Z" style="fill: #383945; stroke-width: 0px;"/>
      <path d="m262.87,205.32c-.63-1.93-2.28-.79-3.43-1.13.14-.19.23-.45.42-.57,6.07-3.9,7.35-9.82,7.29-16.51-.04-4.52-.52-9.01-.49-13.52.05-7.76.28-15.52.43-23.28,1.16.09,1.51-.54,1.45-1.59-.05-.91,0-1.79,1.27-1.74.02,15.57.05,31.15.07,46.72-.73,2.69-1.24,5.48-3.2,7.66-.15.19-.3.39-.46.58,0,0,.06-.05.06-.05-.43.1-.58.41-.63.81-.7,1.12-1.64,1.98-2.78,2.62Zm5.42-47.5c-.46-.1-.61.11-.61.34,0,.29.02.71.2.84.33.23.57-.09.58-.42,0-.27-.12-.55-.17-.76Z" style="fill: #252530; stroke-width: 0px;"/>
      <path d="m68.16,195.19c0-3.53,0-3.5,3.41-3.5,15.44,0,30.88,0,46.32-.03,4.13,0,4.13-.04,4.41,4.1-.11-.11-.32-.23-.31-.34.17-3.46-2.12-3.18-4.5-3.17-14.82.06-29.65.07-44.47-.02-2.41-.02-4.45-.03-4.85,2.96Z" style="fill: #dbd5d4; stroke-width: 0px;"/>
      <path d="m269.88,193.7c-.02-15.57-.05-31.15-.07-46.72.15-2.37.2-4.75-.05-7.12.06-.64.13-1.27.19-1.91.78.6.46,1.46.47,2.21.02,17.03.02,34.06,0,51.1,0,.83.29,1.77-.54,2.44Z" style="fill: #dbd5d4; stroke-width: 0px;"/>
      <path d="m268.93,132.21c-.63.57-.36,1.71-1.97,2.35,1.69-2.77-1.45-4.69-.31-7.2,1.01-.01,1.49.62,1.4,1.5-.13,1.26,1.01,2.13.88,3.35Z" style="fill: #272735; stroke-width: 0px;"/>
      <path d="m266.57,126.95c-1.03-.73-2.04-1.46-.3-2.53,0,0-.01.03-.01.03-.08.44,0,.82.4,1.07-.03.48-.05.95-.08,1.43Z" style="fill: #272735; stroke-width: 0px;"/>
      <path d="m266.65,125.53c-.41-.25-.48-.64-.4-1.07.39.26.48.64.4,1.07Z" style="fill: #252530; stroke-width: 0px;"/>
      <path d="m265.65,202.7c.05-.39.21-.71.63-.81-.21.27-.42.54-.63.81Z" style="fill: #272735; stroke-width: 0px;"/>
      <path d="m266.23,201.95c.15-.19.3-.39.46-.58-.15.19-.3.39-.46.58Z" style="fill: #272735; stroke-width: 0px;"/>
      <path d="m233.2,99.28c-2.32.92-4.89,1.13-7.02,2.57-1.32.89-2.94,1.61-3.61,3.03-1.17,2.49-3.2,2.09-5.22,2.09-2.06,0-3.86.03-5.39-2.03-1.93-2.58-4.41-4.78-6.79-6.99-1.12-1.04-2.09-2.12-2.88-3.42-7.05-11.55-22.14-14.47-31.85-6.2-1.71,1.45-3.21,3.1-4.33,5.04-2.5,4.33-6.31,6.09-11.17,5.91-4.49-.16-8.99-.37-13.29,1.34-1.1.46-1.04-.33-1.2-1.04-.77-3.41-2.07-4.46-5.55-4.48-2.51-.01-5.02.06-7.53.1-.79-.03-1.59-.09-2.38-.09-32.67,0-65.33,0-98,0-.71,0-1.43.05-2.14.08-1.11-.04-2.22-.14-3.32-.1-3.22.13-4.72,1.68-4.74,4.92-.04,4.92.03,9.83-.06,14.75-.04,1.95.48,3.57,1.87,4.91.58,2.7,2.63,3,4.89,3,33,0,66.01,0,99.01.02,1.03,0,2.27-.51,3.03.73-1.57,4.08-2.69,8.27-3.1,12.64-1.18.56-.76,1.65-.76,2.52-.02,15.01-.02,30.02,0,45.03,0,.84-.27,1.77.48,2.48,0,.48,0,.95,0,1.43-.16.14-.32.28-.47.42-4.76.03-9.52.08-14.28.08-31.9,0-63.8-.01-95.7-.02-2.09,0-4.13-.13-5.53-2.03.03-1.43.08-2.86.08-4.29,0-42.91,0-85.82,0-128.73q0-3.72,3.61-3.72c18.36,0,36.71,0,55.07,0,55.94,0,111.88.02,167.82.02.04.55-.04,1.17.7,1.38,0,.33-.02.67-.02,1-.87.4-.63,1.2-.63,1.87-.01,6.67-.01,13.33,0,20,0,.7-.14,1.45.54,1.97,0,.3,0,.61,0,.91-.87,1.92-.87,3.84,0,5.76.23,4.28.3,8.56,0,12.84-.77.81-.78,1.61,0,2.42,0,.47,0,.94,0,1.4-.06.04-.18.07-.18.11,0,.12.04.24.07.36Zm-142.5,74.76c.1,2.62,2.3,2.31,3.83,2.45,2.67.23,5.37.08,8.06.06,4.14-.02,7-2.4,7.66-6.5.44-2.73-.14-5.47-.16-8.2,0-1.08-.85-1.64-2.01-1.45-1.06-1.46-2.36-2.74-4.22-2.78-4.11-.09-8.24-.38-12.34.26-1.79.28-3.06,1.28-3.79,2.9-1.75,3.88-.23,10.57,2.97,13.26Zm-27.13-11.3c-1.09-5.71-4.61-8.66-10.38-8.68-6.03-.02-12.06-.02-18.09-.01-1.18,0-2.35.06-3.53.39-5.58,1.59-9.51,9.2-4.82,15.98-.15,1.45.63,2.35,1.71,3.16,2.3,1.71,5.03,1.95,7.69,1.96,6.02.02,12.03.21,18.06-.34,4.7-.43,8.48-2.73,9.86-7.22.51-1.66,1.21-3.65-.5-5.24Zm11.43-1.02h0c-1.74.01-3.49.06-5.23,0-1.78-.06-2.78.8-2.75,2.49.02,1.56.83,2.79,2.59,2.81,3.64.04,7.29.06,10.93-.04,1.67-.05,2.59-1.08,2.51-2.81-.07-1.61-.95-2.45-2.58-2.46-1.82,0-3.64,0-5.46,0Zm-53.51-20.58c-1.79.18-2.82,1.22-2.72,2.96.09,1.68,1.13,2.88,2.92,2.8,1.73-.08,2.76-1.2,2.72-2.98-.04-1.82-1.17-2.65-2.92-2.78Z" style="fill: #dcd6d6; stroke-width: 0px;"/>
      <path d="m223.23,112.17c-1.51,2.05-3.95,3.05-5.5,5.13-3.53,4.73-6.69,9.84-6.62,15.72.04,4.02-1.62,5.37-4.53,7.29-5.55,3.67-8.16,9.09-6.77,15.97.11.54.04,1.11.06,1.66-2.82.58-5.68.44-8.53.51.79-3.04.91-6.08.05-9.13-.95-5.6-7.2-11.13-13.68-11.79-1.77-.18-2.27-.68-2.2-2.4.26-6.89-2.17-12.9-6.52-18.11-1.54-1.85-3.56-3.31-5.36-4.95.53-.49,1.19-.35,1.81-.35,18.53-.03,37.06-.05,55.59-.05.75,0,1.61-.28,2.21.49Z" style="fill: #575966; stroke-width: 0px;"/>
      <path d="m137.86,205.16c-6.24,0-12.23-5.15-12.3-11.23-.19-15.92-.06-31.85-.06-48.14,6.35,12.55,15.79,19.96,29.93,20.37.33,1.07,1.38,1.24,2.19,1.67,1,.53,1.39,1.1.91,2.27-2.96,7.26-5.8,14.56-8.79,21.81-2.06,4.99-5.1,9.12-10.49,10.99-1.01.35-1.44,1.19-1.38,2.26Z" style="fill: #575966; stroke-width: 0px;"/>
      <path d="m252.81,205.17c-5.27-.02-9.14-2.39-11.44-7.1-3.63-7.42-6.19-15.29-9.33-22.92-.91-2.2-1.66-4.46-2.58-6.65-.68-1.61-.19-2.05,1.47-2.03,5.66.05,11.22-.67,16.63-2.38,1.34,1.61,3.04,1.7,4.92,1.2,3.39-.91,6.15-2.82,8.56-5.3.36-.38.71-1.01,1.34-.77.66.25.46.96.42,1.47-.14,2.15.42,4.25.44,6.38.07,7.53.19,15.06,0,22.59-.14,5.4-2.5,9.73-7.45,12.38-1.34.72-2.63,1.49-2.97,3.15Z" style="fill: #575966; stroke-width: 0px;"/>
      <path d="m20.1,106.43c-.03-1.51-.07-3.02-.07-4.52,0-3.32,0-3.36,3.43-3.36,30.09-.02,60.18-.02,90.26-.03,7.07,0,14.13,0,21.2,0,.85,0,1.87-.22,2.19.92.34,1.21.81,2.55-.16,3.62-1.15,1.28-2.48,2.39-3.74,3.58-1.5-.07-3-.2-4.5-.2-36.2,0-72.4,0-108.6,0Z" style="fill: #e9474e; stroke-width: 0px;"/>
      <path d="m132.96,109.67c.48,2.55.24,4.74-2.17,6.44-1.02.72-1.82,1.26-3.11,1.26-34.55-.04-69.1-.03-103.65-.04-4,0-4.01-.01-3.99-4.05,0-1.19.03-2.38.04-3.57,6.7-.03,13.41.3,20.1-.27,3.22.56,6.46.19,9.69.17.64,0,1.48-.18,1.47-1.19,10-.03,20-.08,30-.08,8.25,0,16.51.08,24.76.12-.57.26-1.15.53-1.72.79.03.14.07.28.1.41h28.47Z" style="fill: #e9474e; stroke-width: 0px;"/>
      <path d="m166.09,167.2c.8-.75,1.44-.04,2.13.24,6.51,2.64,12.65,2.17,18.19-2.38,1.58-1.3,3.32-1.58,5.2-1.62,1.51-.03,3.02,0,4.53-.06,4.02-.17,7.92-.47,11.16,2.96,1.5,1.59,4.01,2.12,6.34,2.32,3.44.71,6.77.26,9.91-1.2,1.34-.63,1.99-.64,2.5.97.97,3.07,2.18,6.07,3.3,9.1-.51,1.51-1.58,2.09-3.14,2.41-6.14,1.25-11.22-.7-15.6-4.88-.99-.94-1.96-1.44-3.35-1.4-3.33.08-6.67.08-10,0-1.39-.03-2.37.44-3.34,1.41-5.14,5.09-11.53,6.25-18.33,3.4-.74-.31-1.48-.81-2.04.23-1.6,2.99-2.99,6.07-4.19,9.24-2.85.01-5.7.04-8.55.04-2.72,0-2.75-.03-1.79-2.48,2.08-5.29,4.21-10.55,6.3-15.84.32-.8.53-1.64.8-2.47Z" style="fill: #d0c3b2; stroke-width: 0px;"/>
      <path d="m232.74,49.25c-55.94,0-111.88-.02-167.82-.02-18.36,0-36.71,0-55.07,0q-3.61,0-3.61,3.72c0,42.91,0,85.82,0,128.73,0,1.43-.05,2.86-.08,4.29-1.17-.75-1.6-1.96-1.96-3.21-.07-5.39-.19-10.78-.2-16.18-.02-38.33-.01-76.66-.02-114.98,0-.63-.06-1.26-.1-1.89.07-.77.13-1.54.2-2.3,16.26,0,32.51,0,48.77-.03,13.08-.02,26.17-.06,39.25-.1.79.01,1.59.04,2.38.04,45.3,0,90.59-.01,135.89-.01,1.03,0,2.05.11,3.08.17,0,.58-.02,1.15-.03,1.73-.23.02-.46.04-.68.05Z" style="fill: #f8f5e5; stroke-width: 0px;"/>
      <path d="m169.34,187.94c1.2-3.17,2.6-6.25,4.19-9.24.55-1.04,1.3-.54,2.04-.23,6.8,2.85,13.19,1.69,18.33-3.4.97-.96,1.95-1.44,3.34-1.41,3.33.08,6.67.08,10,0,1.39-.03,2.36.46,3.35,1.4,4.38,4.18,9.46,6.13,15.6,4.88,1.57-.32,2.63-.9,3.14-2.41,1.17,2.85,2.27,5.74,3.55,8.55.76,1.66.3,1.97-1.36,1.96-9.53-.04-19.06.03-28.59.02-11.2-.01-22.39-.07-33.59-.11Z" style="fill: #dcd6d6; stroke-width: 0px;"/>
      <path d="m252.81,205.17c.34-1.66,1.63-2.44,2.97-3.15,4.95-2.65,7.3-6.98,7.45-12.38.2-7.52.08-15.06,0-22.59-.02-2.12-.57-4.22-.44-6.38.03-.51.23-1.22-.42-1.47-.63-.23-.98.4-1.34.77-2.41,2.49-5.17,4.4-8.56,5.3-1.87.5-3.57.41-4.92-1.2,2.39-1.48,4.78-2.95,7.17-4.43.53-.33,1.14-.58,1.4-1.22,3.25-2.61,5.81-5.79,7.65-9.53.31-.63.63-1.27.94-1.9.99-.72.75-2.12,1.6-2.91.02-.02.16.03.18.08.06.13.09.29.14.43-.12,1.93.01,3.83.44,5.72-.15,7.76-.37,15.52-.43,23.28-.03,4.51.44,9,.49,13.52.07,6.68-1.21,12.61-7.29,16.51-.19.12-.28.38-.42.57-2.2.41-4.32,1.34-6.63.98Z" style="fill: #383945; stroke-width: 0px;"/>
      <path d="m24.85,95.19c.71-.03,1.43-.08,2.14-.08,32.67,0,65.33,0,98,0,.79,0,1.59.06,2.38.09.95,2.29,3.31,1.26,4.95,2.01-.39,1.03-1.23.64-1.84.64-36.05.02-72.1.02-108.15,0-.65,0-1.76.35-1.86-.47-.13-1.1,1.03-.82,1.75-.96.97-.19,2.1-.1,2.64-1.23Z" style="fill: #1c1e28; stroke-width: 0px;"/>
      <path d="m106.1,108.47c-8.25-.04-16.51-.12-24.76-.12-10,0-20,.05-30,.08-3.73.06-7.46.12-11.19.17-6.44-.15-12.88-.36-19.31.1-.24-.06-.47-.11-.71-.17,0-.7-.02-1.4-.03-2.1,36.2,0,72.4-.02,108.6,0,1.5,0,3,.13,4.5.2-.17.52-.34,1.04-.51,1.55-.62.08-1.24.23-1.86.23-8.24.03-16.49.05-24.73.07Z" style="fill: #84364f; stroke-width: 0px;"/>
      <path d="m125.53,123.41c-.76-1.24-2-.73-3.03-.73-33-.03-66.01-.02-99.01-.02-2.26,0-4.3-.3-4.89-3,1.6.8,3.31,1,5.07.99,33.47-.06,66.94-.11,100.41-.15.93,0,1.88-.17,2.83.24-.07,1.11-.79,1.86-1.38,2.67Z" style="fill: #f8f5e5; stroke-width: 0px;"/>
      <path d="m137.86,205.16c-.07-1.07.37-1.91,1.38-2.26,5.39-1.87,8.43-6.01,10.49-10.99,2.99-7.24,5.84-14.55,8.79-21.81.48-1.17.09-1.74-.91-2.27-.81-.43-1.86-.59-2.19-1.67,2.06-.09,4.12-.27,6.17.11,1.14.22,1.54.64,1,1.95-3.75,8.91-7.39,17.87-11.08,26.8-1.85,4.48-4.48,8.18-9.41,9.75-1.43.45-2.81.33-4.23.39Z" style="fill: #383945; stroke-width: 0px;"/>
      <path d="m172.68,165.24c-2.61.06-4.52-2.22-7.13-2.15-3.22-.62-6.48-.24-9.72-.31-14.01-.32-25.3-9.19-28.64-22.79-1.03-4.19-1.12-8.45.64-12.56.47,0,.94-.01,1.41-.02-.93,4.5-1.36,8.94-.02,13.5,3.35,11.34,14.35,19.78,26.13,19.96,4.66.07,9.36-.51,13.98.55.41,1.89,3.02,1.85,3.34,3.82Z" style="fill: #8c8c90; stroke-width: 0px;"/>
      <path d="m177,194.22c-.74-2.86-.74-2.88,2.04-2.88,12.47-.01,24.95-.02,37.42-.02,2.67,0,2.87.31,2.01,2.88-13.82,0-27.65.02-41.47.03Z" style="fill: #484a56; stroke-width: 0px;"/>
      <path d="m21.69,194.33c-.32-3-.32-3.01,2.5-3.01,12.58,0,25.15,0,37.73,0,3,0,3,.01,2.46,2.93-14.23.03-28.46.06-42.69.09Z" style="fill: #484a56; stroke-width: 0px;"/>
      <path d="m148.3,110.88c1.77-1.3,3.76-.72,5.58-.38,11.16,2.09,18.73,11.3,18.78,22.72,0,1.81.23,3.66-.3,5.44-.4,1.36.19,1.68,1.42,1.59,2.4-.16,4.75.04,6.98,1.05-.45,1-1.23.49-1.97.54-1.42.09-3.11-1-4.22.78-1.74.36-3.49.72-5.23,1.08,2.01-3.77,1.61-7.87,1.36-11.85-.38-6.2-3.17-11.32-8.01-15.25-4.18-3.4-9.02-4.75-14.35-4.47-.01-.42-.02-.84-.04-1.26Z" style="fill: #8c8c90; stroke-width: 0px;"/>
      <path d="m174.57,142.63c1.11-1.79,2.8-.69,4.22-.78.74-.05,1.52.46,1.97-.54,1.83.5,3.07,1.95,4.63,2.88,2.45,3.23,4.21,6.65,3.19,10.92-1.38,5.75-5.12,9.02-10.71,10.43-1.76.44-3.52.86-5.19-.29-.32-1.97-2.93-1.93-3.34-3.82,0-.2,0-.39,0-.58.56.28,1.15.53,1.69.86,7.75,4.74,16.46-2.1,14.99-9.48.34-.15.42-.44.37-.77,0-.06-.18-.08-.27-.13-.02.31-.04.62-.06.92-1.47-6.02-5.18-9.36-11.48-9.62Z" style="fill: #787880; stroke-width: 0px;"/>
      <path d="m223.23,112.17c-.6-.77-1.46-.49-2.21-.49-18.53,0-37.06.03-55.59.05-.62,0-1.28-.14-1.81.35-1.23-.34-2.48-.66-3.83-1.9h8.59c18.12-.05,36.23-.1,54.35-.16,1.51,0,3.01-.06,4.61.33-1.28,1-2.61,1.6-4.12,1.81Z" style="fill: #aca7a7; stroke-width: 0px;"/>
      <path d="m21.69,194.33c14.23-.03,28.46-.06,42.69-.09.31,1.99-.95,2.25-2.46,2.23-5.14-.08-10.28-.21-15.42-.24-7.45-.05-14.9-.01-22.35-.03-1.26,0-2.73.19-2.46-1.87Z" style="fill: #787880; stroke-width: 0px;"/>
      <path d="m264.72,132.2c.19,4.26-.57,8.36-2.03,12.35-.47.95-.93,1.9-1.4,2.86-.46.77-.91,1.55-1.37,2.32-.16.2-.32.39-.48.59-1.91,2.03-3.83,4.06-5.74,6.09-1.57.69-2.68,2.2-4.45,2.55-.73-.26-.74-.88-.74-1.5.3-.73,1.03-.97,1.62-1.34,5.14-3.26,8.52-7.92,10.81-13.47,1.85-4.5,1.64-9.11.91-13.77.35-.29.25-.65.25-1.05.02-2.46-2.09-4.24-2.11-6.68,2.15,2.14,2.94,4.98,3.91,7.72.13.47.26.95.39,1.42.01.17.03.34.04.51-.05.52-.09,1.04.38,1.41Z" style="fill: #787880; stroke-width: 0px;"/>
      <path d="m164.14,105.96c.3.31.6.62.89.93-2.7.02-5.4.04-8.1.06-2.06.01-4.11.02-6.17.04-4.57.14-8.94,1.08-13,3.27-.44.24-.78,1.03-1.38.6-.68-.48-.53-1.33-.32-1.98.31-.98.87-1.86,1.81-2.41.68.79,1.24.24,1.84-.14,5.14-3.18,10.76-3.03,16.48-2.46,2.79.28,5.14,2.02,7.95,2.1Z" style="fill: #d0c3b2; stroke-width: 0px;"/>
      <path d="m177,194.22c13.82,0,27.65-.02,41.47-.03.29,1.6-.45,2.05-1.97,2.05-12.49-.05-24.99-.06-37.48-.06-1.37,0-2.42-.2-2.02-1.96Z" style="fill: #787880; stroke-width: 0px;"/>
      <path d="m248.5,157.45c0,.62,0,1.24.74,1.5-3.65,2.33-7.7,3.38-11.95,3.78-4.22.4-8.49.06-12.69.72-.76.19-1.52.39-2.28.58-.02-.29-.04-.58-.07-.87.96-.78,1.92-1.55,2.88-2.33,8.11,1.11,15.95.32,23.37-3.38Z" style="fill: #8c8c90; stroke-width: 0px;"/>
      <path d="m148.3,110.88c.01.42.02.84.04,1.26-1.6.41-3.24.72-4.8,1.24-7.05,2.33-11.23,7.62-14.29,14.03-.47,0-.94.01-1.41.02,2.01-7.83,10.63-15.54,18.62-16.65.61-.08,1.25-.23,1.85.1Z" style="fill: #aca7a7; stroke-width: 0px;"/>
      <path d="m222.25,163.16c.02.29.04.58.07.87-.19.16-.38.33-.57.49-.46.2-.92.4-1.38.59-.34.11-.69.23-1.03.34-.29.04-.59.09-.88.13-4.02.2-7.82-.18-11.05-3.07-2.43-2.17-4.26-4.56-4.78-7.82.87-.39.23-1.91,1.5-1.99.2.84.38,1.68.61,2.5,1.07,3.89,5.85,8.17,9.43,8.47,2.77,1.1,5.4-.11,8.08-.51Z" style="fill: #787880; stroke-width: 0px;"/>
      <path d="m106.1,108.47c8.24-.02,16.49-.03,24.73-.07.62,0,1.24-.15,1.86-.23.57.42.3.98.26,1.51-9.49,0-18.98,0-28.47,0-.03-.14-.07-.28-.1-.41.57-.26,1.15-.53,1.72-.79Z" style="fill: #d0c3b2; stroke-width: 0px;"/>
      <path d="m253.69,156.4c1.91-2.03,3.83-4.06,5.74-6.09.16-.2.32-.39.48-.59.46-.77.91-1.55,1.37-2.32.83.5,1.66.99,2.5,1.49-1.84,3.74-4.4,6.92-7.65,9.53-1.53.19-1.94-.97-2.44-2.02Z" style="fill: #252530; stroke-width: 0px;"/>
      <path d="m164.14,105.96c-2.81-.08-5.16-1.82-7.95-2.1-5.72-.57-11.34-.72-16.48,2.46-.6.37-1.17.93-1.84.14,1.09-1.19,2.52-1.87,3.9-2.62,6.87-2.48,13.68-2.64,20.39.53.76.36,1.58.75,1.99,1.59Z" style="fill: #dcd6d6; stroke-width: 0px;"/>
      <path d="m20.84,108.7c6.43-.45,12.87-.25,19.31-.1.01.28.02.56.04.84-6.69.57-13.4.25-20.1.27.03-.3.05-.6.08-.9.22-.04.45-.08.67-.12Z" style="fill: #d0c3b2; stroke-width: 0px;"/>
      <path d="m122.15,186.09c-.75-.71-.48-1.64-.48-2.48-.02-15.01-.02-30.02,0-45.03,0-.88-.42-1.97.76-2.52-.06,15.73-.11,31.45-.17,47.18,0,.95-.07,1.9-.11,2.85Z" style="fill: #eee7dc; stroke-width: 0px;"/>
      <path d="m221.75,164.51c.19-.16.38-.33.57-.49.76-.19,1.52-.39,2.27-.58.17.97-.15,1.67-1.13,1.98-.87.27-1.54.15-1.71-.9Z" style="fill: #252530; stroke-width: 0px;"/>
      <path d="m150.76,106.98c2.06-.01,4.11-.02,6.17-.04-2.05.76-4.11.71-6.17.04Z" style="fill: #1c1e28; stroke-width: 0px;"/>
      <path d="m219.34,165.45c.34-.11.69-.23,1.03-.34-.14.72-.38,1.15-1.03.34Z" style="fill: #252530; stroke-width: 0px;"/>
      <path d="m20.84,108.7c-.22.04-.45.08-.67.12-.05-.09-.06-.18-.04-.28.24.06.47.11.71.17Z" style="fill: #aca7a7; stroke-width: 0px;"/>
      <path d="m121.66,187.94c.16-.14.32-.28.47-.42.04.37-.14.48-.47.42Z" style="fill: #eee7dc; stroke-width: 0px;"/>
      <path d="m84.27,9.15c.05,3.19.1,6.38.15,9.57-.21,3.2,2.55,6.15,5.86,6.16,8.86.03,17.73.01,26.59.01,31.78,0,63.56,0,95.34,0,.87,0,1.74-.05,2.61-.15,4.58-.48,9.14-.38,13.74-.02,1.97.15,2.71,2.28,4.62,2.08.03.48.06.95.09,1.43-1.15,3.77-.21,7.63-.49,11.43-.03.43.19.75.57.95.04,1.24.09,2.49.13,3.73-.12,0-.22.04-.31.11-.14.17-.28.33-.41.5-14.91.21-29.83.18-44.75.32-31.98.3-63.97.08-95.96.08-1.15-.32-2.33-.41-3.52-.41-8.48,0-16.97,0-25.45-.01-18.95-.01-37.89-.02-56.84-.03,0-11.66,0-23.32.01-34.98,0-3.9.66-4.56,4.53-4.56,21.42,0,42.84.07,64.25-.08,3.82-.03,7.16.19,9.25,3.87ZM18.19,33.03c-2.05-.28-1.32,1.3-1.32,2.16,0,1.33.87,1.21,1.77.74,17.01-.02,34.03-.04,51.04-.05,1.24.28,1.45-.4,1.44-1.44,0-1.06-.25-1.69-1.47-1.41-17.15,0-34.31,0-51.46,0Zm51.47-8.15c1.23.27,1.44-.4,1.46-1.44.02-1.06-.18-1.71-1.42-1.42-16.68-.04-33.37-.08-50.05-.08-.91,0-2.36-.56-2.35,1.39.01,1.81,1.27,1.53,2.31,1.53,16.68.02,33.37.02,50.05.02Zm-25.8,5.61s0,0,0-.01c8.34,0,16.69.02,25.03-.03.89,0,2.13.38,2.17-1.37.03-1.34-.53-1.59-1.67-1.59-16.69-.03-33.38-.08-50.07-.12-1.22,0-2.39-.01-2.27,1.86.12,1.8,1.37,1.23,2.24,1.24,8.19.04,16.37.02,24.56.02Zm.16,11.06h0c8.34.01,16.69.02,25.03,0,.99,0,2.02.12,2.06-1.53.03-1.58-.83-1.63-1.92-1.63-16.61,0-33.22,0-49.82.03-1.16,0-2.39-.13-2.29,1.81.11,2,1.49,1.29,2.39,1.3,8.18.06,16.37.03,24.55.03Zm-.1-21.95s0-.02,0-.02c8.26,0,16.52.01,24.79,0,2.05,0,2.97-1.03,2.18-2.43-.58-1.03-1.69-.65-2.58-.65-14.78-.03-29.55-.03-44.33-.03-1.83,0-3.65.03-5.48,0-1.03-.02-1.29.46-1.4,1.43-.22,2,1.14,1.71,2.27,1.71,8.18.02,16.37,0,24.55,0Z" style="fill: #dbd5d4; stroke-width: 0px;"/>
      <path d="m233.19,26.8c-1.91.2-2.65-1.93-4.62-2.08-4.6-.36-9.16-.46-13.74.02-.87.09-1.74.15-2.61.15-31.78,0-63.56,0-95.34,0-8.86,0-17.73.01-26.59-.01-3.32,0-6.07-2.96-5.86-6.16.87,2.64,2.77,3.61,5.46,3.61,44.43-.06,88.87-.09,133.3-.13.55,0,1.1-.08,1.65-.12.16-.11.31-.22.47-.33.97.9,2.17.21,3.23.47,2.15.91,4.32,1.82,4.65,4.58Z" style="fill: #eee7dc; stroke-width: 0px;"/>
      <path d="m233.17,44.45c.09-.07.2-.11.31-.11-.01,1.04-.02,2.09-.03,3.13-1.03-.06-2.05-.17-3.08-.17-45.3,0-90.59,0-135.89.01-.79,0-1.59-.03-2.38-.04-.02-.64-.04-1.28-.05-1.92,31.99,0,63.98.23,95.96-.08,14.92-.14,29.83-.11,44.75-.32.31-.02.4-.23.41-.5Z" style="fill: #8c8c90; stroke-width: 0px;"/>
      <path d="m204.13,152.69c-1.27.08-.63,1.6-1.5,1.99-1.66-6.16,2.75-13.13,9.37-14.56,1.67-.36,2.2-.57,1.83-2.59-1.8-9.65,3.88-19.5,12.07-24.22,11.16-6.43,27.13-2.83,34.08,7.82.02,2.44,2.12,4.22,2.11,6.68,0,.4.1.76-.25,1.05-.13-.2-.32-.38-.38-.59-2.87-10.02-15.25-18.61-27.2-16.06-5.62,1.2-10.58,3.84-14.04,8.27-4.32,5.53-5.78,12.1-4.05,19.08.45,1.82-.05,2.09-1.72,2.22-5.13.39-10.93,4.9-10.32,10.91Z" style="fill: #8c8c90; stroke-width: 0px;"/>
      <path d="m172.55,106.38c.81-2.21,1.53-4.46,2.45-6.63,1.78-4.21,4.38-5.84,8.82-5.69,4.37.15,7.58,2.4,9.05,6.33-.37.76-1.12.83-1.81.94-3.23.47-5.95,2.03-8.4,4.06-1,.83-2.01,1.12-3.24,1.08-2.29-.07-4.58-.06-6.87-.09Z" style="fill: #d0c3b2; stroke-width: 0px;"/>
      <path d="m183.75,91.2c-1.78-.18-3.64.13-5.45.78-3.34,1.21-5.54,3.46-6.56,6.93-.67,2.27-1.57,4.47-2.37,6.7-.18.5-.28,1.21-1.04.99-.57-.16-.52-.83-.4-1.23,1.45-4.68,2.66-9.46,6.54-12.93,3.13-2.79,6.82-3.76,10.81-3.12,4.43.71,7.82,3.44,10.51,6.83,2.06,2.6,3.38,5.72,4.46,8.89.18.53.95,1.38-.17,1.77-.88.31-1.27-.45-1.56-1.11-.89-2.03-1.8-4.05-2.61-6.11-1.75-4.42-6.55-8.98-12.17-8.39Z" style="fill: #383945; stroke-width: 0px;"/>
      <path d="m251.05,105.95c1.77.88,2.93,2.19,3.22,4.49-2.27-.88-4.25-1.79-6.32-2.43-4.67-1.45-9.45-1.67-14.3-1.2-2.03.2-4.1.04-6.15.04.53-1.93,2.14-2.43,3.8-2.71,4.63-.77,9.23-.84,13.86.24,1.67.39,3.26,1.26,5.06,1.1l.1-.07s.09.08.09.08c.22.16.43.31.65.47Z" style="fill: #aca7a7; stroke-width: 0px;"/>
      <path d="m172.55,106.38c2.29.03,4.58.02,6.87.09,1.24.04,2.24-.25,3.24-1.08,2.45-2.03,5.17-3.59,8.4-4.06.69-.1,1.44-.18,1.81-.94,1.32,1.98,2.05,4.21,2.97,6.51-7.77,0-15.38,0-22.98,0-.14,0-.31-.08-.42-.17-.04-.03.07-.23.1-.35Z" style="fill: #dcd6d6; stroke-width: 0px;"/>
      <path d="m204.64,106.76c-1.26.06-1.28-1.05-1.64-1.74-2-3.76-3.48-7.77-6.21-11.17-5.69-7.1-15.15-8.82-22.73-3.89-.64.42-1.31.79-2.22,1.34-.02-1.35.79-1.79,1.41-2.27,6.75-5.25,17.9-3.66,23.65,2.9,3.43,3.91,5.44,8.25,7.37,12.82.26.62.68,1.25.37,2.03Z" style="fill: #575966; stroke-width: 0px;"/>
      <path d="m250.21,105.47c-1.79.17-3.39-.71-5.06-1.1-4.63-1.08-9.24-1.01-13.86-.24-1.66.28-3.27.77-3.8,2.71-.71,0-1.41,0-2.12,0,3.45-6,19.29-6.06,24.84-1.37Z" style="fill: #dbd5d4; stroke-width: 0px;"/>
      <path d="m267.08,150.31c-.42-1.89-.56-3.79-.44-5.72,2.06-.14,1.94-1.85,1.46-2.85-1.11-2.35.48-1.82,1.65-1.88.25,2.37.2,4.74.05,7.12-1.28-.05-1.33.83-1.27,1.74.06,1.04-.29,1.67-1.45,1.59Z" style="fill: #272735; stroke-width: 0px;"/>
      <path d="m233.31,75.47c-.68-.52-.54-1.27-.54-1.97,0-6.67,0-13.33,0-20,0-.68-.24-1.47.63-1.87-.03,7.95-.06,15.89-.1,23.84Z" style="fill: #eee7dc; stroke-width: 0px;"/>
      <path d="m191.34,158.46c2.85-.07,5.71.07,8.53-.51.86,1.29.68,2.03-1.04,2.02-2.21-.01-4.42-.02-6.62.04-1.4.04-1.43-.56-.87-1.55Z" style="fill: #787880; stroke-width: 0px;"/>
      <path d="m263.78,148.89c-.83-.5-1.66-.99-2.5-1.49.47-.95.93-1.9,1.4-2.86,1.11.45,1.57,1.45,2.04,2.44-.31.63-.63,1.27-.94,1.9Z" style="fill: #272735; stroke-width: 0px;"/>
      <path d="m168.44,95.52c-.44,2.2-1.61,4.11-2.47,6.14-.18.43-.52.95-1.06.66-.53-.29-.3-.86,0-1.25,1.33-1.77,1.8-4.06,3.4-5.66l.13.11Z" style="fill: #484a56; stroke-width: 0px;"/>
      <path d="m233.35,40.61c-.38-.21-.6-.52-.57-.95.28-3.81-.66-7.66.49-11.43.25,4.13.27,8.25.08,12.38Z" style="fill: #eee7dc; stroke-width: 0px;"/>
      <path d="m233.31,82.14c-.86-1.92-.87-3.84,0-5.76,0,1.92,0,3.84,0,5.76Z" style="fill: #eee7dc; stroke-width: 0px;"/>
      <path d="m232.74,49.25c.23-.02.46-.04.68-.05,0,.48,0,.95.01,1.43-.73-.21-.65-.82-.7-1.38Z" style="fill: #eee7dc; stroke-width: 0px;"/>
      <path d="m228.54,22.22c-1.06-.26-2.26.43-3.23-.47,1.12-.15,2.29-.62,3.23.47Z" style="fill: #1c1e28; stroke-width: 0px;"/>
      <path d="m233.31,97.4c-.78-.81-.77-1.62,0-2.42,0,.81,0,1.61,0,2.42Z" style="fill: #eee7dc; stroke-width: 0px;"/>
      <path d="m264.29,130.28c-.13-.47-.26-.95-.39-1.42.9.26,1,.74.39,1.42Z" style="fill: #272735; stroke-width: 0px;"/>
      <path d="m168.31,95.41c.1-.42-.05-.96.52-1.14.08-.03.3.11.31.2.09.55-.34.79-.7,1.05,0,0-.13-.11-.13-.11Z" style="fill: #484a56; stroke-width: 0px;"/>
      <path d="m264.72,132.2c-.47-.38-.43-.89-.38-1.41.47.38,1.18.69.38,1.41Z" style="fill: #272735; stroke-width: 0px;"/>
      <path d="m251.05,105.95c-.22-.16-.43-.31-.65-.47.22.16.43.31.65.47Z" style="fill: #dbd5d4; stroke-width: 0px;"/>
      <path d="m233.2,99.28c-.03-.12-.07-.24-.07-.36,0-.04.12-.07.18-.11-.04.16-.07.31-.11.47Z" style="fill: #eee7dc; stroke-width: 0px;"/>
      <path d="m169.89,93.27c-.12.04-.24.09-.36.13.04-.12.07-.25.11-.37.11.05.19.13.24.24Z" style="fill: #484a56; stroke-width: 0px;"/>
      <path d="m169.64,93.03c.11-.09.29-.27.33-.24.32.2.03.33-.08.48-.05-.11-.14-.19-.24-.24Z" style="fill: #575966; stroke-width: 0px;"/>
      <polygon points="170.48 91.92 170.6 91.88 170.58 91.99 170.48 91.92" style="fill: #575966; stroke-width: 0px;"/>
      <path d="m84.27,9.15c-2.09-3.68-5.43-3.9-9.25-3.87-21.42.15-42.83.07-64.25.08-3.87,0-4.53.67-4.53,4.56,0,11.66,0,23.32-.01,34.98-.74,0-1.47-.02-2.21-.03-.06-1.09-.11-2.18-.17-3.27,0-11.45,0-22.89,0-34.34,1.74-3.4,4.64-4.28,8.28-4.27,21.84.08,43.69.03,65.54.04,4.12,0,6.22,2,6.61,6.11Z" style="fill: #eee7dc; stroke-width: 0px;"/>
      <path d="m3.86,41.59c.06,1.09.11,2.18.17,3.27l.06,2.54c-.07.77-.13,1.54-.2,2.3-1,.05-2.03.06-1.93-1.37.13-1.89.31-3.77.54-5.65.09-.71.64-1.06,1.36-1.09Z" style="fill: #1c1e28; stroke-width: 0px;"/>
      <path d="m268.29,157.82c.05.21.18.49.17.76-.01.33-.25.65-.58.42-.18-.12-.2-.55-.2-.84,0-.23.16-.44.61-.34Z" style="fill: #272735; stroke-width: 0px;"/>
      <path d="m26.74,170.41c-4.69-6.78-.76-14.39,4.82-15.98,1.17-.33,2.34-.39,3.53-.39,6.03,0,12.06,0,18.09.01,5.77.02,9.29,2.97,10.38,8.68-.35,7.88-3.51,10.93-11.38,10.95-5.63.02-11.27-.1-16.9.06-3.4.1-6.21-.91-8.54-3.34Zm32.47-10.08c0-.32-.11-.56-.5-.51h.02c-1.24-2.17-3.26-2.79-5.59-2.79-5.88,0-11.76-.07-17.63,0-4.92.06-7.64,2.94-7.72,7.98.5,3.43,2.96,5.71,6.39,5.75,4.28.05,8.56.02,12.84-.02,2.77-.02,5.55.22,8.29-.36,4.29-.91,6.46-5.67,4.37-9.6-.16-.16-.32-.32-.49-.49l.02.03Z" style="fill: #252530; stroke-width: 0px;"/>
      <path d="m90.7,174.03c-3.2-2.7-4.72-9.38-2.97-13.26.73-1.62,2-2.62,3.79-2.9,4.1-.64,8.23-.35,12.34-.26,1.86.04,3.16,1.32,4.22,2.78.99,3.33.6,6.72.22,10.05-.19,1.61-1.08,3.08-3.05,3.3-.49-.05-.96-.06-1.25.44-3.32.42-6.65.24-9.98.05-.16-.34-.32-.37-.49,0-.98.47-1.89-.1-2.83-.2Zm.37-4.59c1.86,1.54,4.02,1.49,6.23,1.14,1.81.48,3.58-.05,5.37-.22.9-.09,1.75-.12,2.12-1.12.77-2.06,1.15-4.14.21-6.27-.06-1.81-1.37-2.15-2.76-2.19-2.37-.08-4.75-.07-7.12-.02-4,.09-5.46,1.68-5.37,5.76-.13,1.23.28,2.22,1.33,2.92Z" style="fill: #383945; stroke-width: 0px;"/>
      <path d="m26.74,170.41c2.33,2.43,5.14,3.43,8.54,3.34,5.63-.16,11.27-.04,16.9-.06,7.87-.02,11.03-3.07,11.38-10.95,1.7,1.59,1.01,3.58.5,5.24-1.38,4.49-5.17,6.79-9.86,7.22-6.03.55-12.04.35-18.06.34-2.66,0-5.38-.24-7.69-1.96-1.09-.81-1.86-1.71-1.71-3.16Z" style="fill: #f8f5e5; stroke-width: 0px;"/>
      <path d="m105.25,173.74c1.97-.22,2.86-1.69,3.05-3.3.39-3.34.78-6.72-.22-10.05,1.16-.19,2,.37,2.01,1.45.02,2.74.6,5.48.16,8.2-.66,4.1-3.53,6.48-7.66,6.5-2.69.01-5.39.17-8.06-.06-1.53-.13-3.73.18-3.83-2.45.94.09,1.85.67,2.83.2h.49c3.33.2,6.66.37,9.98-.05.45-.05,1.02.24,1.25-.44Z" style="fill: #eee7dc; stroke-width: 0px;"/>
      <path d="m75,161.71c1.82,0,3.64,0,5.46,0,1.63,0,2.51.84,2.58,2.46.08,1.72-.84,2.76-2.51,2.81-3.64.1-7.29.08-10.93.04-1.76-.02-2.57-1.25-2.59-2.81-.02-1.69.98-2.55,2.75-2.49,1.74.06,3.48.01,5.23.01h0Zm6.18,3.32c.09-.14.18-.28.26-.42.54-1.29-.18-1.79-1.29-1.84-1.09-.05-2.18.09-3.28.15-2.1.02-4.21.02-6.31.08-.72.02-1.65-.2-1.83.94-.12,1.01.46,1.52,1.34,1.51,3.65-.04,7.3.13,10.94-.31,0,0,.17-.11.17-.11Z" style="fill: #272735; stroke-width: 0px;"/>
      <path d="m21.48,141.14c1.75.12,2.88.96,2.92,2.78.04,1.78-.99,2.9-2.72,2.98-1.79.08-2.83-1.12-2.92-2.8-.09-1.73.93-2.77,2.72-2.96Z" style="fill: #575966; stroke-width: 0px;"/>
      <path d="m40.18,109.44c-.01-.28-.02-.56-.04-.84,3.73-.06,7.46-.12,11.19-.17,0,1.01-.83,1.18-1.47,1.19-3.23.02-6.47.39-9.69-.17Z" style="fill: #aca7a7; stroke-width: 0px;"/>
      <path d="m4.09,47.4c-.02-.85-.04-1.69-.06-2.54.74,0,1.47.02,2.21.03,18.95.01,37.89.02,56.84.03,8.48,0,16.97.02,25.45.01,1.2,0,2.37.09,3.52.41.02.64.04,1.28.05,1.92-13.08.03-26.17.08-39.25.1-16.26.02-32.51.02-48.77.03Z" style="fill: #aca7a7; stroke-width: 0px;"/>
      <path d="m129.25,127.41c3.06-6.41,7.24-11.69,14.29-14.03,1.57-.52,3.2-.83,4.8-1.24,5.34-.28,10.17,1.07,14.35,4.47,4.84,3.94,7.63,9.05,8.01,15.25.24,3.98.65,8.08-1.36,11.85-.2,1.22-1.13,2.02-1.72,3.02-1.72,2.88-2.51,5.9-1.55,9.25.57,2,2.11,3.28,3.27,4.85,0,.19,0,.39,0,.58-4.62-1.05-9.32-.47-13.98-.55-11.78-.18-22.77-8.62-26.13-19.96-1.35-4.56-.92-9,.02-13.5Zm19.11,23.88c4.37,4.87,5.87,3.7,8.51-.15.22-.32.45-.65.66-.98.32-.51.82-.88,1.37-.76,3.96.89,5.78-1.14,6.72-4.65.34-1.25.78-2.39-.18-3.52.7-2.4.65-4.87.51-7.32-.19-3.24-1.43-4.46-4.3-4.53-1.58-.04-3.56.46-4.65-.3-1.35-.95-.4-3.1-.56-4.72-.28-2.76-1.12-3.58-3.96-3.61-1.83-.02-3.65-.02-5.48.02-2.52.05-3.34.92-3.38,3.51,0,.64,0,1.27.01,1.91q.03,3.16-3.03,3.16-6.51.01-6.51,6.69c0,5.88.32,6.19,6.15,6.19q3.37,0,3.38,3.31c0,4.6.26,4.91,4.73,5.75Z" style="fill: #575966; stroke-width: 0px;"/>
      <path d="m169.34,160.84c-1.16-1.57-2.7-2.85-3.27-4.85-.96-3.35-.17-6.37,1.55-9.25.59-1,1.52-1.8,1.72-3.02,1.74-.36,3.49-.72,5.23-1.08,6.3.25,10.01,3.6,11.48,9.62l-.03-.03c1.48,7.38-7.24,14.22-14.99,9.48-.54-.33-1.12-.58-1.69-.86Zm.4-3.84c.17.22.35.44.52.65.97,1.3,2.29,1.75,3.85,1.61,2.32.85,5.38-.21,6.97-2.4,2.03-2.8,1.92-5.88-.26-7.74-2.26-3.25-6.38-3.91-9.62-1.55-3.17,2.3-3.76,6.25-1.43,9.5l-.03-.07Z" style="fill: #272735; stroke-width: 0px;"/>
      <path d="m186.05,152.25c.02-.31.04-.62.06-.92.09.04.26.07.27.13.06.33-.03.62-.37.77,0,0,.03.03.03.03Z" style="fill: #272735; stroke-width: 0px;"/>
      <path d="m204.13,152.69c-.61-6.01,5.18-10.52,10.32-10.91,1.67-.13,2.17-.4,1.72-2.22-1.73-6.97-.26-13.55,4.05-19.08,3.46-4.43,8.42-7.07,14.04-8.27,11.96-2.54,24.33,6.05,27.2,16.06.06.22.25.4.38.59.74,4.66.94,9.27-.91,13.77-2.29,5.55-5.67,10.21-10.81,13.47-.59.37-1.31.61-1.62,1.34-7.42,3.7-15.25,4.49-23.37,3.38,2.1-3.08,2.72-6.24.52-9.56-2.2-7.45-8.81-8.79-13.39-7.04-3.05,1.19-5.22,3.14-5.67,6.57-.4,6.91,1.35,9.68,7.56,11.95,0,.31.01.61.02.92-3.58-.3-8.36-4.59-9.43-8.47-.23-.83-.41-1.67-.61-2.5Zm42.49-4.74c0-4.73-3.22-8.12-7.7-8.11-4.4.01-8.06,3.37-8.06,7.37,0,4.38,4.21,8.42,8.67,8.34,4.08-.08,7.08-3.3,7.08-7.59Zm-7.27-17.18c4.24.03,7.21-2.76,7.23-6.79.03-4.92-3.59-8.87-8.1-8.85-4.23.02-7.91,3.38-7.97,7.28-.06,4.66,3.81,8.33,8.83,8.36Zm-13.26-2.89c-5.61-.28-7.8,3.93-7.96,7.27-.2,4.12,3.97,8.09,8.2,7.85,4.6-.26,7.55-2.62,7.41-7.39-.14-4.79-2.96-7.76-7.65-7.74Zm25.58.01c-4.32,0-7.92,3.42-7.89,7.48.04,4.2,4.05,7.85,8.58,7.79,4.04-.05,7.1-3.2,7.13-7.33.03-4.67-3.19-7.94-7.82-7.94Z" style="fill: #575966; stroke-width: 0px;"/>
      <path d="m259.91,149.72c-.16.2-.32.39-.48.59.16-.2.32-.39.48-.59Z" style="fill: #272735; stroke-width: 0px;"/>
      <path d="m225.66,151.27c2.2,3.31,1.58,6.48-.52,9.56-.96.78-1.92,1.55-2.88,2.33-2.68.4-5.31,1.61-8.08.51,0-.31-.01-.61-.02-.92,4.35.02,8.05-1.17,10.46-5.16,1.21-2.01.76-4.2,1.04-6.32Z" style="fill: #484a56; stroke-width: 0px;"/>
      <path d="m43.86,30.49c-8.19,0-16.37.02-24.56-.02-.88,0-2.13.56-2.24-1.24-.12-1.87,1.05-1.86,2.27-1.86,16.69.04,33.38.09,50.07.12,1.14,0,1.7.24,1.67,1.59-.04,1.74-1.28,1.36-2.17,1.37-8.34.04-16.69.03-25.03.03,0,0,0,0,0,.01Z" style="fill: #383945; stroke-width: 0px;"/>
      <path d="m44.02,41.55c-8.18,0-16.37.02-24.55-.03-.9,0-2.28.7-2.39-1.3-.1-1.94,1.12-1.81,2.29-1.81,16.61-.02,33.22-.02,49.82-.03,1.09,0,1.95.05,1.92,1.63-.03,1.65-1.06,1.53-2.06,1.53-8.34.02-16.69.01-25.03.01h0Z" style="fill: #383945; stroke-width: 0px;"/>
      <path d="m43.92,19.6c-8.18,0-16.37,0-24.55,0-1.13,0-2.5.29-2.27-1.71.11-.97.37-1.45,1.4-1.43,1.83.04,3.65,0,5.48,0,14.78,0,29.55,0,44.33.03.89,0,2.01-.38,2.58.65.78,1.4-.13,2.43-2.18,2.43-8.26.02-16.52,0-24.79,0,0,0,0,.02,0,.02Z" style="fill: #383945; stroke-width: 0px;"/>
      <path d="m69.66,24.88c-16.68,0-33.37,0-50.05-.02-1.05,0-2.3.28-2.31-1.53-.01-1.95,1.44-1.39,2.35-1.39,16.68,0,33.37.04,50.05.08-.01.96-.02,1.91-.04,2.87Z" style="fill: #252530; stroke-width: 0px;"/>
      <path d="m69.68,35.88c-17.01.02-34.03.04-51.04.05-.15-.97-.3-1.93-.45-2.9,17.15,0,34.31,0,51.46,0,0,.95.01,1.9.02,2.85Z" style="fill: #272735; stroke-width: 0px;"/>
      <path d="m18.19,33.03c.15.97.3,1.93.45,2.9-.9.47-1.77.6-1.77-.74,0-.87-.73-2.45,1.32-2.16Z" style="fill: #8c8c90; stroke-width: 0px;"/>
      <path d="m69.66,24.88c.01-.96.02-1.91.04-2.87,1.24-.29,1.44.37,1.42,1.42-.02,1.04-.23,1.71-1.46,1.44Z" style="fill: #787880; stroke-width: 0px;"/>
      <path d="m69.68,35.88c0-.95-.01-1.9-.02-2.85,1.22-.28,1.46.35,1.47,1.41,0,1.04-.2,1.72-1.44,1.44Z" style="fill: #787880; stroke-width: 0px;"/>
      <path d="m233.17,44.45c-.01.27-.11.47-.41.5.14-.17.28-.33.41-.5Z" style="fill: #eee7dc; stroke-width: 0px;"/>
      <path d="m59.68,160.79c2.09,3.93-.08,8.69-4.37,9.6-2.75.58-5.52.34-8.29.36-4.28.03-8.56.07-12.84.02-3.43-.04-5.89-2.32-6.39-5.75.64-1.09,1.28-2.17,1.92-3.26,1.34-2.26,3.37-3.41,5.93-3.27,7.7.42,15.52-1.24,23.09,1.35,0,0-.02-.01-.02-.01.02.31.18.48.5.51,0,0-.02-.03-.02-.03.06.26-.13.78.49.49Zm-12.36,2.89c-.08-1.45-.77-2.8-2.62-2.72-1.75.08-2.87,1.28-3.1,3.04-.17,1.35,1.6,2.98,3.16,2.93,1.89-.06,2.56-1.27,2.55-3.26Z" style="fill: #787880; stroke-width: 0px;"/>
      <path d="m58.74,159.83c-7.57-2.59-15.39-.93-23.09-1.35-2.56-.14-4.6,1.01-5.93,3.27-.64,1.09-1.28,2.17-1.92,3.26.07-5.04,2.79-7.93,7.72-7.98,5.88-.07,11.75,0,17.63,0,2.34,0,4.36.62,5.59,2.8Z" style="fill: #d0c3b2; stroke-width: 0px;"/>
      <path d="m59.68,160.79c-.62.29-.42-.22-.49-.49.16.16.32.32.49.49Z" style="fill: #d0c3b2; stroke-width: 0px;"/>
      <path d="m59.21,160.33c-.31-.03-.48-.2-.5-.51.39-.05.49.19.5.51Z" style="fill: #d0c3b2; stroke-width: 0px;"/>
      <path d="m104.99,162.97c.94,2.12.56,4.2-.21,6.27-.37,1-1.22,1.04-2.12,1.12-1.79.17-3.55.7-5.37.23,1.14-1.91,3.35-3.75.43-5.96-.17-.17-.34-.35-.51-.52.02-.1.02-.2,0-.29.71-.63-.12-1.35.12-2.01,2.64-.19,5.27-.32,7.65,1.17Z" style="fill: #787880; stroke-width: 0px;"/>
      <path d="m104.99,162.97c-2.38-1.48-5.01-1.35-7.65-1.17-.44-.05-.87-.05-1.12.41-3.65-.56-5.35.8-5.67,4.56-.27-.08-.54-.16-.81-.24-.09-4.08,1.37-5.67,5.37-5.76,2.37-.05,4.75-.06,7.12.02,1.39.04,2.7.38,2.76,2.19Z" style="fill: #dbd5d4; stroke-width: 0px;"/>
      <path d="m97.72,164.63c2.91,2.21.71,4.05-.43,5.96-2.21.35-4.37.4-6.23-1.14.37-.08.74-.15,1.1-.23,4.17.71,5.72-.43,5.52-4.04.01-.18.02-.37.04-.55Z" style="fill: #8c8c90; stroke-width: 0px;"/>
      <path d="m92.17,169.22c-.37.08-.74.15-1.1.23-1.05-.7-1.45-1.69-1.33-2.92.27.08.54.16.81.24.17.11.35.21.52.32v-.02c-.16.99.48,1.56,1.1,2.15Z" style="fill: #aca7a7; stroke-width: 0px;"/>
      <path d="m105.25,173.74c-.23.68-.8.39-1.25.44.29-.5.76-.49,1.25-.44Z" style="fill: #1c1e28; stroke-width: 0px;"/>
      <path d="m94.02,174.23h-.49c.16-.37.33-.34.49,0Z" style="fill: #1c1e28; stroke-width: 0px;"/>
      <path d="m81.01,165.14c-3.64.44-7.29.27-10.94.31-.88.01-1.47-.5-1.34-1.51.89-.41,1.84-.32,2.78-.34,2.75-.06,5.5.23,8.24-.21.82.05,1.39.46,1.7,1.22-.09.14-.18.28-.26.42,0,0-.17-.05-.17-.05v.16Z" style="fill: #e9474e; stroke-width: 0px;"/>
      <path d="m79.75,163.39c-2.74.45-5.49.15-8.24.21-.94.02-1.89-.07-2.78.34.18-1.15,1.11-.92,1.83-.94,2.1-.07,4.21-.06,6.31-.08.96.16,1.92.31,2.87.47Z" style="fill: #d0c3b2; stroke-width: 0px;"/>
      <path d="m79.75,163.39c-.96-.16-1.92-.31-2.87-.47,1.09-.06,2.19-.2,3.28-.15,1.1.05,1.83.55,1.29,1.84-.3-.77-.87-1.17-1.69-1.22Z" style="fill: #8c8c90; stroke-width: 0px;"/>
      <polygon points="81.01 165.14 81.01 164.98 81.18 165.03 81.01 165.14" style="fill: #8c8c90; stroke-width: 0px;"/>
      <path d="m148.35,151.29c-4.47-.85-4.72-1.15-4.73-5.75q0-3.31-3.38-3.31c-5.83,0-6.14-.31-6.15-6.19q0-6.68,6.51-6.69,3.05,0,3.03-3.16c0-.64-.02-1.27-.01-1.91.04-2.59.85-3.45,3.38-3.51,1.83-.04,3.65-.04,5.48-.02,2.84.03,3.68.85,3.96,3.61.16,1.62-.78,3.77.56,4.72,1.08.76,3.06.26,4.65.3,2.87.07,4.11,1.29,4.3,4.53.14,2.45.19,4.92-.51,7.32-2.24,1.85-4.88.84-7.34.94-1.72.06-2.3.66-2.08,2.25.08.63.18,1.25.28,1.87.49,2.99-.85,4.73-3.9,4.95-1.34.1-2.7.04-4.04.05Zm14.65-19.09c.1-.32-.04-.43-.34-.4-2.05-.27-4.1-.18-6.15-.01-2.27-.12-2.91-1.53-2.79-3.54.09-1.41.5-2.8.19-4.23-.42-1.66-1.79-.97-2.74-.98-5.4-.1-5.4-.07-5.14,5.29-.09,1.67-.07,3.42-2.47,3.42-.39-.04-.78-.1-1.17-.1-6.39-.08-6.35-.08-5.9,6.41.09,1.31.57,1.68,1.75,1.4,1.58.57,3.22.19,4.83.26,1.1.04,2.19-.02,2.85,1.09,0,1.67.12,3.35-.02,5-.15,1.79.35,2.45,2.3,2.44,5.99-.05,5.99.04,5.44-5.96.13-2.19,1.33-2.83,3.42-2.59,1.37.16,2.79-.04,4.19-.09,1.37.2,1.84-.56,1.83-1.77-.01-1.56-.06-3.13-.1-4.69,0-.31,0-.62,0-.93Z" style="fill: #252530; stroke-width: 0px;"/>
      <path d="m148.35,151.29c1.35-.01,2.7.04,4.04-.05,3.05-.22,4.38-1.96,3.9-4.95-.1-.62-.19-1.25-.28-1.87-.22-1.59.36-2.19,2.08-2.25,2.45-.09,5.1.92,7.34-.94.96,1.13.52,2.26.18,3.52-.94,3.51-2.76,5.55-6.72,4.65-.55-.12-1.05.25-1.37.76-.21.33-.44.66-.66.98-2.64,3.85-4.14,5.03-8.51.15Z" style="fill: #484a56; stroke-width: 0px;"/>
      <path d="m174.12,159.26c-1.57.14-2.89-.31-3.85-1.61-.17-.22-.35-.44-.52-.65,0,0,.03.07.03.07,0-1.11.02-2.21.03-3.32.02-3.27,1.31-4.88,4.53-5.65,1.79-.43,3.43.03,5.03.8.08.46.14.93.24,1.39.9,3.93-.24,6.33-3.86,8.07-.56.27-1.09.6-1.63.9Z" style="fill: #d0c3b2; stroke-width: 0px;"/>
      <path d="m174.12,159.26c.54-.3,1.07-.63,1.63-.9,3.61-1.75,4.76-4.15,3.86-8.07-.11-.46-.16-.93-.24-1.39.49.07.97.15,1.46.22,2.18,1.86,2.29,4.94.26,7.74-1.59,2.2-4.65,3.25-6.97,2.4Z" style="fill: #8c8c90; stroke-width: 0px;"/>
      <path d="m180.83,149.12c-.49-.07-.97-.15-1.46-.22-1.6-.77-3.24-1.23-5.03-.8-3.23.77-4.52,2.38-4.53,5.65,0,1.11-.02,2.21-.03,3.32-2.33-3.25-1.74-7.2,1.43-9.5,3.24-2.36,7.37-1.69,9.62,1.55Z" style="fill: #dcd6d6; stroke-width: 0px;"/>
      <path d="m169.75,157c.17.22.35.44.52.65-.17-.22-.35-.44-.52-.65Z" style="fill: #dcd6d6; stroke-width: 0px;"/>
      <path d="m225.66,151.27c-.28,2.12.17,4.31-1.04,6.32-2.41,4-6.11,5.18-10.46,5.16-6.2-2.27-7.96-5.04-7.56-11.95.81,0,1.63-.02,2.08.85-.17,1.91-.26,3.81,1.2,5.36.62,1.14,1.67,1.66,2.84,2.01,1.75.91,3.56.66,5.29.1,4.1-1.33,5.82-5.67,3.77-9.27-2.71-3.94-7.45-4.72-10.91-1.79-.46-1.62,1.63-2.3,1.4-3.83,4.58-1.75,11.19-.41,13.39,7.04Z" style="fill: #252530; stroke-width: 0px;"/>
      <path d="m246.62,147.95c0,4.29-3,7.51-7.08,7.59-4.45.09-8.66-3.96-8.67-8.34,0-4.01,3.66-7.36,8.06-7.37,4.48-.01,7.7,3.39,7.7,8.11Zm-4.32-4.35l.1-.02c-1.09-2.09-3.07-2.16-4.88-1.69-2.45.64-4.01,2.36-4.24,5.04-.15,2.85.79,4.36,3.29,5.27,2.35.85,4.61.11,6.23-2.04,1.51-2.01,1.51-4.2,0-6.25-.12-.19-.18-.45-.5-.31Z" style="fill: #272735; stroke-width: 0px;"/>
      <path d="m239.36,130.77c-5.02-.03-8.9-3.7-8.83-8.36.05-3.89,3.74-7.26,7.97-7.28,4.51-.02,8.13,3.94,8.1,8.85-.02,4.03-3,6.82-7.23,6.79Zm-6.43-7.95c.13,2.65,1.61,4.29,4.05,4.94,2.45.65,4.33-.55,5.77-2.44,1.4-1.83,1.55-3.75.11-5.67-1.78-2.4-3.56-3.08-6.07-2.31-2.59.8-3.73,2.4-3.87,5.48Z" style="fill: #252530; stroke-width: 0px;"/>
      <path d="m226.1,127.87c4.69-.02,7.51,2.95,7.65,7.74.14,4.76-2.81,7.13-7.41,7.39-4.23.24-8.4-3.74-8.2-7.85.16-3.34,2.35-7.56,7.96-7.27Zm4.26,4.61c-.13-.11-.25-.23-.38-.34l-.04-.09c-2.31-3.55-6.63-3.19-9.13.77-.08.15-.16.29-.23.44-.05.28-.1.57-.15.85-.26,3.61,1.54,5.81,4.81,5.89,3.37.08,5.58-2.29,5.53-5.92-.06-.4-.13-.79-.19-1.19-.08-.14-.15-.27-.23-.41Z" style="fill: #272735; stroke-width: 0px;"/>
      <path d="m251.68,127.89c4.62,0,7.84,3.27,7.82,7.94-.02,4.13-3.09,7.29-7.13,7.33-4.53.05-8.54-3.59-8.58-7.79-.04-4.06,3.56-7.48,7.89-7.48Zm4.63,4.82c.01-.11-.03-.19-.14-.24-1.5-2.44-3.69-3.34-6.22-2.55-2.45.76-3.83,2.85-3.7,5.62.53,3.41,2.76,5.25,5.78,4.77,3.09-.5,5.02-3.28,4.57-6.59-.09-.34-.18-.67-.28-1.01Z" style="fill: #252530; stroke-width: 0px;"/>
      <path d="m212.27,144.23c.24,1.53-1.86,2.22-1.4,3.83-.96,1.06-1.76,2.21-2.19,3.59-.45-.87-1.27-.86-2.08-.85.45-3.44,2.62-5.38,5.67-6.57Z" style="fill: #272735; stroke-width: 0px;"/>
      <path d="m47.32,163.68c0,1.98-.66,3.2-2.55,3.26-1.56.05-3.33-1.58-3.16-2.93.22-1.76,1.34-2.97,3.1-3.04,1.84-.08,2.54,1.27,2.62,2.72Zm-2.7-1.38c-.98.13-1.55.72-1.58,1.69-.03.85.54,1.26,1.35,1.26,1.07,0,1.51-.68,1.56-1.65.04-.88-.51-1.22-1.32-1.3Z" style="fill: #383945; stroke-width: 0px;"/>
      <path d="m97.72,164.63c-.01.18-.02.37-.04.55-2,1.36-4.28,1.76-6.63,1.89,0,0,.01.02.01.02,1.13-3.23,1.79-3.62,4.97-3.01.38.07.79.03,1.18.03.17.17.34.35.51.52Z" style="fill: #575966; stroke-width: 0px;"/>
      <path d="m97.22,164.11c-.39,0-.8.04-1.18-.03-3.18-.61-3.84-.22-4.97,3.01-.17-.11-.35-.21-.52-.32.32-3.76,2.02-5.12,5.67-4.55.34.54.67,1.07,1.01,1.6.01.1,0,.2,0,.29Z" style="fill: #484a56; stroke-width: 0px;"/>
      <path d="m97.22,163.81c-.34-.53-.67-1.06-1.01-1.6.26-.46.68-.46,1.12-.41-.23.66.59,1.38-.12,2.01Z" style="fill: #8c8c90; stroke-width: 0px;"/>
      <path d="m91.06,167.07c2.35-.13,4.63-.53,6.63-1.89.19,3.62-1.36,4.75-5.52,4.04-.61-.59-1.26-1.17-1.11-2.15Z" style="fill: #484a56; stroke-width: 0px;"/>
      <path d="m143.57,131.75c2.4,0,2.38-1.75,2.47-3.42.12-.44.4-.9.35-1.32-.28-2.39.96-3.02,3.08-2.9,1.48.08,2.97-.05,4.46-.08.3,1.43-.11,2.82-.19,4.23-.12,2.01.51,3.42,2.79,3.54,1.27,1.54,3.21.75,4.75,1.35-.06,2.15.9,4.3.02,6.46-1.4.04-2.82.25-4.19.09-2.08-.25-3.28.4-3.42,2.59-2.82.77-5.39.29-7.72-1.47-.67-1.11-1.76-1.05-2.85-1.09-1.61-.06-3.25.31-4.83-.26-.57-1.53-.35-3.11-.29-4.68.06-1.51.79-2.22,2.42-2.11,1.11.07,2.42.41,3.19-.92Z" style="fill: #aca7a7; stroke-width: 0px;"/>
      <path d="m145.94,140.8c2.33,1.77,4.91,2.25,7.72,1.47.55,6,.55,5.91-5.44,5.96-1.95.02-2.45-.64-2.3-2.44.14-1.66.02-3.33.02-5Z" style="fill: #d0c3b2; stroke-width: 0px;"/>
      <path d="m143.57,131.75c-.76,1.33-2.08.99-3.19.92-1.63-.11-2.35.6-2.42,2.11-.07,1.56-.29,3.15.29,4.68-1.19.28-1.66-.09-1.75-1.4-.45-6.49-.49-6.49,5.9-6.41.39,0,.78.07,1.17.1Z" style="fill: #dcd6d6; stroke-width: 0px;"/>
      <path d="m161.27,139.6c.88-2.15-.07-4.31-.02-6.46.58,0,1.17,0,1.75,0,.03,1.56.08,3.13.1,4.69,0,1.21-.46,1.97-1.83,1.77Z" style="fill: #d0c3b2; stroke-width: 0px;"/>
      <path d="m153.92,124.03c-1.49.04-2.98.17-4.46.08-2.12-.12-3.35.51-3.08,2.9.05.42-.22.88-.35,1.32-.26-5.36-.26-5.39,5.14-5.29.95.02,2.32-.68,2.74.98Z" style="fill: #eee7dc; stroke-width: 0px;"/>
      <path d="m163.01,133.14c-.58,0-1.17,0-1.75,0-1.54-.59-3.47.19-4.75-1.35,2.05-.17,4.1-.26,6.15.01.11.13.23.26.34.4,0,.31,0,.62,0,.93Z" style="fill: #eee7dc; stroke-width: 0px;"/>
      <path d="m163,132.2c-.11-.13-.23-.26-.34-.4.3-.03.44.08.34.4Z" style="fill: #d0c3b2; stroke-width: 0px;"/>
      <path d="m212.72,159.03c-1.17-.35-2.22-.87-2.84-2.01,0-.95.01-1.9,0-2.85-.06-2.44.86-4.53,3.16-5.33,2.27-.79,4.8-1.18,6.85.87,1.08,4.24-.04,6.94-3.37,8.49-1.23.58-2.73-.34-3.79.82Z" style="fill: #d0c3b2; stroke-width: 0px;"/>
      <path d="m219.88,149.71c-2.05-2.06-4.58-1.67-6.85-.87-2.29.8-3.21,2.89-3.16,5.33.02.95,0,1.9,0,2.85-1.46-1.55-1.37-3.45-1.2-5.36.44-1.38,1.23-2.54,2.19-3.59,3.46-2.93,8.2-2.15,10.91,1.79-.69.66-1.27-.17-1.91-.14Z" style="fill: #dbd5d4; stroke-width: 0px;"/>
      <path d="m219.88,149.71c.64-.03,1.22.81,1.91.14,2.05,3.6.33,7.94-3.77,9.27-1.73.56-3.55.81-5.29-.1,1.06-1.16,2.56-.24,3.79-.82,3.32-1.55,4.45-4.25,3.37-8.49Z" style="fill: #8c8c90; stroke-width: 0px;"/>
      <path d="m242.8,143.91c1.51,2.04,1.51,4.23,0,6.25-1.62,2.15-3.88,2.89-6.23,2.04-2.5-.91-3.44-2.41-3.29-5.26,2.37-2.93,5.09-4.92,9.12-3.36,0,0-.1.02-.1.02.17.1.33.21.5.31Z" style="fill: #e9474e; stroke-width: 0px;"/>
      <path d="m242.4,143.58c-4.03-1.57-6.75.43-9.12,3.36.23-2.68,1.79-4.41,4.24-5.04,1.81-.47,3.79-.41,4.88,1.69Z" style="fill: #d0c3b2; stroke-width: 0px;"/>
      <path d="m242.8,143.91c-.17-.1-.33-.21-.5-.31.32-.14.39.12.5.31Z" style="fill: #d0c3b2; stroke-width: 0px;"/>
      <path d="m242.86,119.65c1.44,1.92,1.29,3.84-.11,5.67-1.44,1.88-3.32,3.09-5.77,2.44-2.44-.65-3.93-2.28-4.05-4.93,1.71-3.75,4.98-4.79,9.93-3.17Z" style="fill: #e9474e; stroke-width: 0px;"/>
      <path d="m242.86,119.65c-4.95-1.62-8.22-.57-9.93,3.17.14-3.08,1.27-4.69,3.87-5.48,2.5-.77,4.28-.09,6.07,2.31Z" style="fill: #d0c3b2; stroke-width: 0px;"/>
      <path d="m230.78,134.08c.04,3.63-2.17,5.99-5.53,5.92-3.27-.08-5.07-2.28-4.81-5.88.4-.22.19-.56.15-.86.08-.15.16-.29.23-.44.37.26.81.24,1.09-.04,2.49-2.45,5.23-1.93,8.04-.74,0,0,.04.09.04.09.13.11.25.23.38.34.08.14.15.27.23.4.03.4-.22.85.19,1.19Z" style="fill: #e9474e; stroke-width: 0px;"/>
      <path d="m229.95,132.05c-2.81-1.2-5.55-1.71-8.04.74-.28.27-.72.29-1.09.04,2.5-3.96,6.81-4.32,9.13-.77Z" style="fill: #d0c3b2; stroke-width: 0px;"/>
      <path d="m230.78,134.08c-.41-.34-.16-.79-.19-1.19.06.4.13.8.19,1.19Z" style="fill: #d0c3b2; stroke-width: 0px;"/>
      <path d="m220.59,133.26c.04.3.25.64-.15.86.05-.29.1-.57.15-.86Z" style="fill: #d0c3b2; stroke-width: 0px;"/>
      <path d="m230.36,132.48c-.13-.12-.26-.23-.38-.34.13.12.25.23.38.34Z" style="fill: #d0c3b2; stroke-width: 0px;"/>
      <path d="m256.58,133.72c.45,3.31-1.48,6.1-4.57,6.59-3.02.49-5.25-1.36-5.78-4.76.11-1.06.61-1.88,1.4-2.62,2.51-2.32,4.84-2.47,8.53-.46.11.04.15.12.14.23.04.35-.18.77.28,1.01Z" style="fill: #e9474e; stroke-width: 0px;"/>
      <path d="m256.17,132.47c-3.68-2.01-6.01-1.86-8.53.46-.79.73-1.29,1.55-1.4,2.62-.12-2.77,1.26-4.87,3.7-5.63,2.54-.79,4.72.11,6.22,2.55Z" style="fill: #d0c3b2; stroke-width: 0px;"/>
      <path d="m256.58,133.72c-.45-.24-.24-.66-.28-1.01.09.34.19.68.28,1.01Z" style="fill: #d0c3b2; stroke-width: 0px;"/>
      <path d="m44.62,162.3c.81.08,1.37.42,1.32,1.3-.05.97-.49,1.65-1.56,1.65-.81,0-1.38-.41-1.35-1.26.04-.97.6-1.55,1.58-1.69Z" style="fill: #e9474e; stroke-width: 0px;"/>
    </g>
  </g>
</svg>