<?xml version="1.0" encoding="UTF-8"?>
<svg id="Calque_2" data-name="Calque 2" xmlns="http://www.w3.org/2000/svg" viewBox="0 0 743.33 177.63">
  <g id="BANDES">
    <g>
      <polygon points="25.75 58.49 717.17 58.49 724.4 49.49 18.57 49.49 25.75 58.49" style="fill: none; stroke-width: 0px;"/>
      <polygon points="12.99 42.49 730.03 42.49 738.06 32.49 5.01 32.49 12.99 42.49" style="fill: none; stroke-width: 0px;"/>
      <polygon points="38.52 74.49 704.32 74.49 711.55 65.49 31.34 65.49 38.52 74.49" style="fill: none; stroke-width: 0px;"/>
      <polygon points="65.65 108.49 677.01 108.49 685.04 98.49 57.67 98.49 65.65 108.49" style="fill: none; stroke-width: 0px;"/>
      <polygon points="52.09 91.49 690.67 91.49 698.7 81.49 44.11 81.49 52.09 91.49" style="fill: none; stroke-width: 0px;"/>
      <polygon points="78.42 124.49 664.16 124.49 671.39 115.49 71.24 115.49 78.42 124.49" style="fill: none; stroke-width: 0px;"/>
      <polygon points="738.06 32.49 743.33 25.93 743.33 25.49 0 25.49 0 26.22 5.01 32.49 738.06 32.49" style="fill: #d82126; stroke-width: 0px;"/>
      <polygon points="18.57 49.49 724.4 49.49 730.03 42.49 12.99 42.49 18.57 49.49" style="fill: #d82126; stroke-width: 0px;"/>
      <polygon points="31.34 65.49 711.55 65.49 717.17 58.49 25.75 58.49 31.34 65.49" style="fill: #d82126; stroke-width: 0px;"/>
      <polygon points="44.11 81.49 698.7 81.49 704.32 74.49 38.52 74.49 44.11 81.49" style="fill: #d82126; stroke-width: 0px;"/>
      <polygon points="57.67 98.49 685.04 98.49 690.67 91.49 52.09 91.49 57.67 98.49" style="fill: #d82126; stroke-width: 0px;"/>
      <polygon points="71.24 115.49 671.39 115.49 677.01 108.49 65.65 108.49 71.24 115.49" style="fill: #d82126; stroke-width: 0px;"/>
      <polygon points="78.42 124.49 84 131.49 658.54 131.49 664.16 124.49 78.42 124.49" style="fill: #d82126; stroke-width: 0px;"/>
    </g>
  </g>
  <g id="RECALBOX3">
    <path d="m588.99,108.94l-22.2-33.32h29.08l5.73,11.07q2,4.35,2,4.35h.26s0,0,1.88-4.35l5.59-11.07h29.13l-22.2,33.32,24.85,38.42h-29.08l-8.47-15.64q-1.71-3.35-1.71-3.35h-.35s0,0-1.7,3.35l-8.57,15.64h-29.13l24.89-38.42Z" style="fill: none; stroke: #6da6ba; stroke-miterlimit: 10; stroke-width: 36px;"/>
    <path d="m491.15,139.63c-3.68-6.35-5.51-13.66-5.51-21.92s1.84-15.57,5.51-21.92c3.68-6.35,8.85-11.27,15.53-14.77,6.67-3.49,14.35-5.24,23.02-5.24s16.22,1.74,22.88,5.21c6.66,3.48,11.82,8.4,15.5,14.77,3.68,6.37,5.51,13.68,5.51,21.94s-1.84,15.58-5.51,21.94-8.84,11.29-15.5,14.77c-6.66,3.47-14.28,5.21-22.88,5.21s-16.34-1.75-23.02-5.24c-6.68-3.49-11.85-8.41-15.53-14.77Zm38.54-38.02c-4.21,0-7.68,1.52-10.42,4.56-2.74,3.04-4.11,6.89-4.11,11.54s1.37,8.51,4.11,11.54c2.74,3.04,6.22,4.56,10.42,4.56s7.59-1.53,10.26-4.58c2.67-3.06,4-6.93,4-11.63s-1.35-8.4-4.06-11.44c-2.71-3.04-6.11-4.56-10.2-4.56Z" style="fill: none; stroke: #6da6ba; stroke-miterlimit: 10; stroke-width: 36px;"/>
    <path d="m424.82,75.63h35.2c6.77,0,12.33,1.84,16.66,5.51,4.33,3.68,6.5,8.38,6.5,14.11,0,3.56-.88,6.65-2.62,9.28-1.75,2.62-4.2,4.53-7.34,5.73,4.08,1.23,7.28,3.37,9.61,6.41,2.33,3.04,3.49,6.64,3.49,10.78,0,5.89-2.2,10.68-6.6,14.38s-10.11,5.54-17.14,5.54h-37.75v-71.73Zm24.41,54.54h6.55c1.93,0,3.47-.54,4.65-1.63,1.17-1.08,1.76-2.5,1.76-4.25,0-4.05-2.5-6.07-7.51-6.07h-5.44v11.95Zm.1-26.95h4.19c1.93,0,3.44-.49,4.55-1.46,1.11-.97,1.66-2.28,1.66-3.93,0-1.52-.51-2.74-1.54-3.67-1.03-.92-2.36-1.38-4-1.38h-4.86v10.44Z" style="fill: none; stroke: #6da6ba; stroke-miterlimit: 10; stroke-width: 36px;"/>
    <path d="m367.61,75.52h29.19v54.15h24.36v26.47h-53.55v-80.62Z" style="fill: none; stroke: #6da6ba; stroke-miterlimit: 10; stroke-width: 36px;"/>
    <path d="m311.78,75.63h29.32l24.56,71.73h-26.82l-2.7-9.13h-19.41l-2.65,9.13h-26.87l24.56-71.73Z" style="fill: none; stroke: #6da6ba; stroke-miterlimit: 10; stroke-width: 36px;"/>
    <path d="m284.88,105.16c-2.27-1.93-4.53-3.25-6.78-3.96-2.25-.71-4.82-1.06-7.71-1.06-4.65,0-8.52,1.53-11.63,4.59-3.11,3.06-4.66,6.82-4.66,11.3s1.54,8.2,4.64,11.16c3.09,2.97,6.94,4.45,11.55,4.45,3,0,5.6-.26,7.82-.79,2.21-.53,4.47-1.59,6.78-3.19v27.4c-3.73,1.16-6.93,1.92-9.6,2.27-2.67.35-5.58.52-8.72.52-5.96,0-11.57-1.05-16.82-3.14-5.25-2.09-9.74-4.95-13.47-8.57-3.73-3.62-6.67-7.97-8.83-13.05-2.16-5.08-3.24-10.47-3.24-16.18s1.1-11.35,3.29-16.59c2.2-5.24,5.17-9.75,8.92-13.54,3.75-3.78,8.22-6.79,13.41-9.01,5.19-2.22,10.66-3.33,16.4-3.33,6.95,0,13.17.96,18.65,2.89v27.84Z" style="fill: none; stroke: #6da6ba; stroke-miterlimit: 10; stroke-width: 36px;"/>
    <path d="m177.27,75.63h47.33v19.43h-21.81v6.75h19.84v18.8h-19.84v6.65h22.39v20.11h-47.91v-71.73Z" style="fill: none; stroke: #6da6ba; stroke-miterlimit: 10; stroke-width: 36px;"/>
    <path d="m106.88,75.39h38.19c9,0,16.45,2.62,22.36,7.84,5.91,5.23,8.86,11.8,8.86,19.71,0,11.15-4.9,18.35-14.7,21.59l21.01,31.6h-75.71v-80.75Z" style="fill: none; stroke: #6da6ba; stroke-miterlimit: 10; stroke-width: 36px;"/>
  </g>
  <g id="SUPER2_-_copie_2" data-name="SUPER2 - copie 2">
    <g>
      <path d="m255.69,54.61c4.69,3.8,9.14,5.71,13.33,5.71,1.48,0,2.67-.3,3.57-.91.9-.6,1.35-1.38,1.35-2.34,0-.65-.14-1.16-.41-1.53-.27-.37-.84-.69-1.7-.98-.86-.29-2.21-.59-4.04-.89-5.53-1.08-9.62-2.83-12.26-5.25-2.64-2.42-3.96-5.96-3.96-10.62,0-5.77,2.17-10.51,6.5-14.23,4.33-3.72,9.91-5.57,16.72-5.57,3.14,0,6.06.4,8.78,1.19,2.72.79,5.68,2.07,8.89,3.83l-5.45,14.17c-3.48-2.85-7.2-4.27-11.15-4.27-1.38,0-2.49.26-3.32.77-.83.52-1.24,1.22-1.24,2.1,0,.76.31,1.35.94,1.78s1.75.79,3.35,1.1l3.59.83c5.19,1.21,8.96,3.08,11.32,5.61,2.36,2.53,3.54,6.08,3.54,10.64,0,6-2.17,10.83-6.52,14.49-4.35,3.67-10.06,5.5-17.15,5.5s-14.14-1.89-20.85-5.67l6.15-15.45Z" style="fill: #6da6ba; stroke: #6da6ba; stroke-miterlimit: 10; stroke-width: 36px;"/>
      <path d="m347.37,52.57c0,7.38-2.11,13.07-6.32,17.08-4.21,4.01-10.45,6.01-18.72,6.01-3.85,0-7.29-.45-10.32-1.34-3.03-.89-5.64-2.27-7.85-4.12-2.21-1.85-3.9-4.26-5.07-7.22s-1.76-6.43-1.76-10.41V18.76h19.48v31.44c0,3.17.41,5.33,1.24,6.48.83,1.15,2.25,1.72,4.28,1.72.91,0,1.67-.09,2.28-.28.6-.19,1.19-.56,1.74-1.11.56-.55.96-1.39,1.22-2.51.26-1.12.39-2.55.39-4.29v-31.44h19.41v33.82Z" style="fill: #6da6ba; stroke: #6da6ba; stroke-miterlimit: 10; stroke-width: 36px;"/>
      <path d="m352.22,18.76h26.67c6.07,0,11.05,1.88,14.93,5.63s5.82,8.56,5.82,14.43-1.61,10.28-4.83,13.75-7.49,5.21-12.8,5.21h-10.22v16.78h-19.56V18.76Z" style="fill: #6da6ba; stroke: #6da6ba; stroke-miterlimit: 10; stroke-width: 36px;"/>
      <path d="m437.31,39.12v14.62m1.96,20.82h-36.86V18.76h36.41" style="fill: #6da6ba; stroke: #6da6ba; stroke-miterlimit: 10; stroke-width: 36px;"/>
      <path d="m462.9,74.56h-19.63V18.76h25.78c6.08,0,11.11,1.81,15.09,5.42,3.99,3.61,5.98,8.16,5.98,13.62,0,7.71-3.31,12.68-9.93,14.92l14.19,21.84h-22.6" style="fill: #6da6ba; stroke: #6da6ba; stroke-miterlimit: 10; stroke-width: 36px;"/>
    </g>
  </g>
  <g id="RECALBOX2">
    <polyline points="284.88 135.38 247.56 126.99 271.8 73.49 299.2 62.64 417.78 60.99 476 68.99 468.94 133.81 284.88 135.38" style="fill: #0077a1; stroke-width: 0px;"/>
    <path d="m588.99,108.94l-22.2-33.32h29.08l5.73,11.07q2,4.35,2,4.35h.26s0,0,1.88-4.35l5.59-11.07h29.13l-22.2,33.32,24.85,38.42h-29.08l-8.47-15.64q-1.71-3.35-1.71-3.35h-.35s0,0-1.7,3.35l-8.57,15.64h-29.13l24.89-38.42Z" style="fill: #0077a1; stroke: #0077a1; stroke-miterlimit: 10; stroke-width: 18px;"/>
    <path d="m491.15,139.63c-3.68-6.35-5.51-13.66-5.51-21.92s1.84-15.57,5.51-21.92c3.68-6.35,8.85-11.27,15.53-14.77,6.67-3.49,14.35-5.24,23.02-5.24s16.22,1.74,22.88,5.21c6.66,3.48,11.82,8.4,15.5,14.77,3.68,6.37,5.51,13.68,5.51,21.94s-1.84,15.58-5.51,21.94-8.84,11.29-15.5,14.77c-6.66,3.47-14.28,5.21-22.88,5.21s-16.34-1.75-23.02-5.24c-6.68-3.49-11.85-8.41-15.53-14.77Zm38.54-38.02c-4.21,0-7.68,1.52-10.42,4.56-2.74,3.04-4.11,6.89-4.11,11.54s1.37,8.51,4.11,11.54c2.74,3.04,6.22,4.56,10.42,4.56s7.59-1.53,10.26-4.58c2.67-3.06,4-6.93,4-11.63s-1.35-8.4-4.06-11.44c-2.71-3.04-6.11-4.56-10.2-4.56Z" style="fill: #0077a1; stroke: #0077a1; stroke-miterlimit: 10; stroke-width: 18px;"/>
    <path d="m424.82,75.63h35.2c6.77,0,12.33,1.84,16.66,5.51,4.33,3.68,6.5,8.38,6.5,14.11,0,3.56-.88,6.65-2.62,9.28-1.75,2.62-4.2,4.53-7.34,5.73,4.08,1.23,7.28,3.37,9.61,6.41,2.33,3.04,3.49,6.64,3.49,10.78,0,5.89-2.2,10.68-6.6,14.38s-10.11,5.54-17.14,5.54h-37.75v-71.73Zm24.41,54.54h6.55c1.93,0,3.47-.54,4.65-1.63,1.17-1.08,1.76-2.5,1.76-4.25,0-4.05-2.5-6.07-7.51-6.07h-5.44v11.95Zm.1-26.95h4.19c1.93,0,3.44-.49,4.55-1.46,1.11-.97,1.66-2.28,1.66-3.93,0-1.52-.51-2.74-1.54-3.67-1.03-.92-2.36-1.38-4-1.38h-4.86v10.44Z" style="fill: #0077a1; stroke: #0077a1; stroke-miterlimit: 10; stroke-width: 18px;"/>
    <path d="m367.61,75.52h29.19v54.15h24.36v26.47h-53.55v-80.62Z" style="fill: #0077a1; stroke: #0077a1; stroke-miterlimit: 10; stroke-width: 18px;"/>
    <path d="m311.78,75.63h29.32l24.56,71.73h-26.82l-2.7-9.13h-19.41l-2.65,9.13h-26.87l24.56-71.73Z" style="fill: #0077a1; stroke: #0077a1; stroke-miterlimit: 10; stroke-width: 18px;"/>
    <path d="m284.88,105.16c-2.27-1.93-4.53-3.25-6.78-3.96-2.25-.71-4.82-1.06-7.71-1.06-4.65,0-8.52,1.53-11.63,4.59-3.11,3.06-4.66,6.82-4.66,11.3s1.54,8.2,4.64,11.16c3.09,2.97,6.94,4.45,11.55,4.45,3,0,5.6-.26,7.82-.79,2.21-.53,4.47-1.59,6.78-3.19v27.4c-3.73,1.16-6.93,1.92-9.6,2.27-2.67.35-5.58.52-8.72.52-5.96,0-11.57-1.05-16.82-3.14-5.25-2.09-9.74-4.95-13.47-8.57-3.73-3.62-6.67-7.97-8.83-13.05-2.16-5.08-3.24-10.47-3.24-16.18s1.1-11.35,3.29-16.59c2.2-5.24,5.17-9.75,8.92-13.54,3.75-3.78,8.22-6.79,13.41-9.01,5.19-2.22,10.66-3.33,16.4-3.33,6.95,0,13.17.96,18.65,2.89v27.84Z" style="fill: #0077a1; stroke: #0077a1; stroke-miterlimit: 10; stroke-width: 18px;"/>
    <path d="m177.27,75.63h47.33v19.43h-21.81v6.75h19.84v18.8h-19.84v6.65h22.39v20.11h-47.91v-71.73Z" style="fill: #0077a1; stroke: #0077a1; stroke-miterlimit: 10; stroke-width: 18px;"/>
    <path d="m106.88,75.39h38.19c9,0,16.45,2.62,22.36,7.84,5.91,5.23,8.86,11.8,8.86,19.71,0,11.15-4.9,18.35-14.7,21.59l21.01,31.6h-75.71v-80.75Z" style="fill: #0077a1; stroke: #0077a1; stroke-miterlimit: 10; stroke-width: 18px;"/>
  </g>
  <g id="SUPER2">
    <g>
      <path d="m255.8,54.27c4.69,3.8,9.14,5.71,13.33,5.71,1.48,0,2.67-.3,3.57-.91.9-.6,1.35-1.38,1.35-2.34,0-.65-.14-1.16-.41-1.53-.27-.37-.84-.69-1.7-.98-.86-.29-2.21-.59-4.04-.89-5.53-1.08-9.62-2.83-12.26-5.25-2.64-2.42-3.96-5.96-3.96-10.62,0-5.77,2.17-10.51,6.5-14.23,4.33-3.72,9.91-5.57,16.72-5.57,3.14,0,6.06.4,8.78,1.19,2.72.79,5.68,2.07,8.89,3.83l-5.45,14.17c-3.48-2.85-7.2-4.27-11.15-4.27-1.38,0-2.49.26-3.32.77-.83.52-1.24,1.22-1.24,2.1,0,.76.31,1.35.94,1.78s1.75.79,3.35,1.1l3.59.83c5.19,1.21,8.96,3.08,11.32,5.61,2.36,2.53,3.54,6.08,3.54,10.64,0,6-2.17,10.83-6.52,14.49-4.35,3.67-10.06,5.5-17.15,5.5s-14.14-1.89-20.85-5.67l6.15-15.45Z" style="fill: none; stroke: #0077a1; stroke-miterlimit: 10; stroke-width: 18px;"/>
      <path d="m347.48,52.23c0,7.38-2.11,13.07-6.32,17.08-4.21,4.01-10.45,6.01-18.72,6.01-3.85,0-7.29-.45-10.32-1.34-3.03-.89-5.64-2.27-7.85-4.12-2.21-1.85-3.9-4.26-5.07-7.22s-1.76-6.43-1.76-10.41V18.42h19.48v31.44c0,3.17.41,5.33,1.24,6.48.83,1.15,2.25,1.72,4.28,1.72.91,0,1.67-.09,2.28-.28.6-.19,1.19-.56,1.74-1.11.56-.55.96-1.39,1.22-2.51.26-1.12.39-2.55.39-4.29v-31.44h19.41v33.82Z" style="fill: none; stroke: #0077a1; stroke-miterlimit: 10; stroke-width: 18px;"/>
      <path d="m352.33,18.42h26.67c6.07,0,11.05,1.88,14.93,5.63s5.82,8.56,5.82,14.43-1.61,10.28-4.83,13.75-7.49,5.21-12.8,5.21h-10.22v16.78h-19.56V18.42Zm19.63,24.86h3.56c1.75,0,3.11-.47,4.06-1.42.95-.94,1.43-2.26,1.43-3.95,0-1.26-.44-2.31-1.32-3.14-.88-.83-1.98-1.25-3.31-1.25h-4.41v9.75Z" style="fill: none; stroke: #0077a1; stroke-miterlimit: 10; stroke-width: 18px;"/>
      <path d="m402.52,18.42h36.41v15.11h-16.78v5.25h15.26v14.62h-15.26v5.18h17.22v15.64h-36.86V18.42Z" style="fill: none; stroke: #0077a1; stroke-miterlimit: 10; stroke-width: 18px;"/>
      <path d="m443.38,18.42h25.78c6.08,0,11.11,1.81,15.09,5.42,3.99,3.61,5.98,8.16,5.98,13.62,0,7.71-3.31,12.68-9.93,14.92l14.19,21.84h-22.6l-7.37-15.34c-.25-.45-.48-.92-.69-1.4-.21-.48-.48-1.12-.81-1.93,0,0,.31.74-.02-.05v18.72h-19.63V18.42Zm19.71,24.94h2.59c1.68,0,2.99-.44,3.95-1.32.95-.88,1.43-2.09,1.43-3.63s-.49-2.7-1.46-3.57c-.98-.87-2.28-1.3-3.91-1.3h-2.59v9.82Z" style="fill: none; stroke: #0077a1; stroke-miterlimit: 10; stroke-width: 18px;"/>
    </g>
  </g>
  <g id="RECALBOX1">
    <g>
      <path d="m588.99,108.94l-22.2-33.32h29.08l5.73,11.07q2,4.35,2,4.35h.26s0,0,1.88-4.35l5.59-11.07h29.13l-22.2,33.32,24.85,38.42h-29.08l-8.47-15.64q-1.71-3.35-1.71-3.35h-.35s0,0-1.7,3.35l-8.57,15.64h-29.13l24.89-38.42Z" style="fill: #d82126; stroke: #fff; stroke-width: 2px;"/>
      <path d="m491.15,139.63c-3.68-6.35-5.51-13.66-5.51-21.92s1.84-15.57,5.51-21.92c3.68-6.35,8.85-11.27,15.53-14.77,6.67-3.49,14.35-5.24,23.02-5.24s16.22,1.74,22.88,5.21c6.66,3.48,11.82,8.4,15.5,14.77,3.68,6.37,5.51,13.68,5.51,21.94s-1.84,15.58-5.51,21.94-8.84,11.29-15.5,14.77c-6.66,3.47-14.28,5.21-22.88,5.21s-16.34-1.75-23.02-5.24c-6.68-3.49-11.85-8.41-15.53-14.77Zm38.54-38.02c-4.21,0-7.68,1.52-10.42,4.56-2.74,3.04-4.11,6.89-4.11,11.54s1.37,8.51,4.11,11.54c2.74,3.04,6.22,4.56,10.42,4.56s7.59-1.53,10.26-4.58c2.67-3.06,4-6.93,4-11.63s-1.35-8.4-4.06-11.44c-2.71-3.04-6.11-4.56-10.2-4.56Z" style="fill: #d82126; stroke: #fff; stroke-width: 2px;"/>
      <path d="m424.82,75.63h35.2c6.77,0,12.33,1.84,16.66,5.51,4.33,3.68,6.5,8.38,6.5,14.11,0,3.56-.88,6.65-2.62,9.28-1.75,2.62-4.2,4.53-7.34,5.73,4.08,1.23,7.28,3.37,9.61,6.41,2.33,3.04,3.49,6.64,3.49,10.78,0,5.89-2.2,10.68-6.6,14.38s-10.11,5.54-17.14,5.54h-37.75v-71.73Zm24.41,54.54h6.55c1.93,0,3.47-.54,4.65-1.63,1.17-1.08,1.76-2.5,1.76-4.25,0-4.05-2.5-6.07-7.51-6.07h-5.44v11.95Zm.1-26.95h4.19c1.93,0,3.44-.49,4.55-1.46,1.11-.97,1.66-2.28,1.66-3.93,0-1.52-.51-2.74-1.54-3.67-1.03-.92-2.36-1.38-4-1.38h-4.86v10.44Z" style="fill: #d82126; stroke: #fff; stroke-width: 2px;"/>
      <path d="m367.61,75.52h29.19v54.15h24.36v26.47h-53.55v-80.62Z" style="fill: #d82126; stroke: #fff; stroke-width: 2px;"/>
      <path d="m311.78,75.63h29.32l24.56,71.73h-26.82l-2.7-9.13h-19.41l-2.65,9.13h-26.87l24.56-71.73Zm9.2,45.65h10.74l-3.37-13.6c-1-4.76-1.64-9.06-1.93-12.92-.38,5.15-1.01,9.45-1.88,12.92l-.53,1.8-3.03,11.8Z" style="fill: #d82126; stroke: #fff; stroke-width: 2px;"/>
      <path d="m284.88,105.16c-2.27-1.93-4.53-3.25-6.78-3.96-2.25-.71-4.82-1.06-7.71-1.06-4.65,0-8.52,1.53-11.63,4.59-3.11,3.06-4.66,6.82-4.66,11.3s1.54,8.2,4.64,11.16c3.09,2.97,6.94,4.45,11.55,4.45,3,0,5.6-.26,7.82-.79,2.21-.53,4.47-1.59,6.78-3.19v27.4c-3.73,1.16-6.93,1.92-9.6,2.27-2.67.35-5.58.52-8.72.52-5.96,0-11.57-1.05-16.82-3.14-5.25-2.09-9.74-4.95-13.47-8.57-3.73-3.62-6.67-7.97-8.83-13.05-2.16-5.08-3.24-10.47-3.24-16.18s1.1-11.35,3.29-16.59c2.2-5.24,5.17-9.75,8.92-13.54,3.75-3.78,8.22-6.79,13.41-9.01,5.19-2.22,10.66-3.33,16.4-3.33,6.95,0,13.17.96,18.65,2.89v27.84Z" style="fill: #d82126; stroke: #fff; stroke-width: 2px;"/>
      <path d="m177.27,75.63h47.33v19.43h-21.81v6.75h19.84v18.8h-19.84v6.65h22.39v20.11h-47.91v-71.73Z" style="fill: #d82126; stroke: #fff; stroke-width: 2px;"/>
      <path d="m106.88,75.39h38.19c9,0,16.45,2.62,22.36,7.84,5.91,5.23,8.86,11.8,8.86,19.71,0,11.15-4.9,18.35-14.7,21.59l21.01,31.6h-33.47l-10.92-22.2c-.37-.66-.7-1.33-1.02-2.02-.31-.69-.71-1.62-1.21-2.79,0,0,.46,1.07-.03-.08v27.08h-29.08v-80.75Zm29.19,36.08h3.84c2.49,0,4.43-.64,5.84-1.91,1.41-1.28,2.11-3.02,2.11-5.25s-.72-3.91-2.17-5.17c-1.45-1.26-3.37-1.89-5.79-1.89h-3.84v14.21Z" style="fill: #d82126; stroke: #fff; stroke-linecap: square; stroke-miterlimit: 10; stroke-width: 2px;"/>
    </g>
  </g>
  <g id="SUPER1">
    <g>
      <path d="m255.8,54.27c4.69,3.8,9.14,5.71,13.33,5.71,1.48,0,2.67-.3,3.57-.91.9-.6,1.35-1.38,1.35-2.34,0-.65-.14-1.16-.41-1.53-.27-.37-.84-.69-1.7-.98-.86-.29-2.21-.59-4.04-.89-5.53-1.08-9.62-2.83-12.26-5.25-2.64-2.42-3.96-5.96-3.96-10.62,0-5.77,2.17-10.51,6.5-14.23,4.33-3.72,9.91-5.57,16.72-5.57,3.14,0,6.06.4,8.78,1.19,2.72.79,5.68,2.07,8.89,3.83l-5.45,14.17c-3.48-2.85-7.2-4.27-11.15-4.27-1.38,0-2.49.26-3.32.77-.83.52-1.24,1.22-1.24,2.1,0,.76.31,1.35.94,1.78s1.75.79,3.35,1.1l3.59.83c5.19,1.21,8.96,3.08,11.32,5.61,2.36,2.53,3.54,6.08,3.54,10.64,0,6-2.17,10.83-6.52,14.49-4.35,3.67-10.06,5.5-17.15,5.5s-14.14-1.89-20.85-5.67l6.15-15.45Z" style="fill: #d82126; stroke: #fff; stroke-linecap: square; stroke-miterlimit: 10; stroke-width: 2px;"/>
      <path d="m347.48,52.23c0,7.38-2.11,13.07-6.32,17.08-4.21,4.01-10.45,6.01-18.72,6.01-3.85,0-7.29-.45-10.32-1.34-3.03-.89-5.64-2.27-7.85-4.12-2.21-1.85-3.9-4.26-5.07-7.22s-1.76-6.43-1.76-10.41V18.42h19.48v31.44c0,3.17.41,5.33,1.24,6.48.83,1.15,2.25,1.72,4.28,1.72.91,0,1.67-.09,2.28-.28.6-.19,1.19-.56,1.74-1.11.56-.55.96-1.39,1.22-2.51.26-1.12.39-2.55.39-4.29v-31.44h19.41v33.82Z" style="fill: #d82126; stroke: #fff; stroke-linecap: square; stroke-miterlimit: 10; stroke-width: 2px;"/>
      <path d="m352.33,18.42h26.67c6.07,0,11.05,1.88,14.93,5.63s5.82,8.56,5.82,14.43-1.61,10.28-4.83,13.75-7.49,5.21-12.8,5.21h-10.22v16.78h-19.56V18.42Zm19.63,24.86h3.56c1.75,0,3.11-.47,4.06-1.42.95-.94,1.43-2.26,1.43-3.95,0-1.26-.44-2.31-1.32-3.14-.88-.83-1.98-1.25-3.31-1.25h-4.41v9.75Z" style="fill: #d82126; stroke: #fff; stroke-linecap: square; stroke-miterlimit: 10; stroke-width: 2px;"/>
      <path d="m402.52,18.42h36.41v15.11h-16.78v5.25h15.26v14.62h-15.26v5.18h17.22v15.64h-36.86V18.42Z" style="fill: #d82126; stroke: #fff; stroke-linecap: square; stroke-miterlimit: 10; stroke-width: 2px;"/>
      <path d="m443.38,18.42h25.78c6.08,0,11.11,1.81,15.09,5.42,3.99,3.61,5.98,8.16,5.98,13.62,0,7.71-3.31,12.68-9.93,14.92l14.19,21.84h-22.6l-7.37-15.34c-.25-.45-.48-.92-.69-1.4-.21-.48-.48-1.12-.81-1.93,0,0,.31.74-.02-.05v18.72h-19.63V18.42Zm19.71,24.94h2.59c1.68,0,2.99-.44,3.95-1.32.95-.88,1.43-2.09,1.43-3.63s-.49-2.7-1.46-3.57c-.98-.87-2.28-1.3-3.91-1.3h-2.59v9.82Z" style="fill: #d82126; stroke: #fff; stroke-linecap: square; stroke-miterlimit: 10; stroke-width: 2px;"/>
    </g>
  </g>
</svg>