<?xml version="1.0" encoding="UTF-8"?>
<svg id="Calque_2" data-name="Calque 2" xmlns="http://www.w3.org/2000/svg" viewBox="0 0 579.64 146.44">
  <g id="BANDES">
    <g>
      <polygon points="20.08 49.58 559.25 49.58 564.88 42.56 14.48 42.56 20.08 49.58" style="fill: none; stroke-width: 0px;"/>
      <polygon points="10.13 37.1 569.27 37.1 575.53 29.3 3.91 29.3 10.13 37.1" style="fill: none; stroke-width: 0px;"/>
      <polygon points="30.04 62.05 549.22 62.05 554.86 55.04 24.44 55.04 30.04 62.05" style="fill: none; stroke-width: 0px;"/>
      <polygon points="51.19 88.57 527.93 88.57 534.19 80.77 44.97 80.77 51.19 88.57" style="fill: none; stroke-width: 0px;"/>
      <polygon points="40.62 75.31 538.57 75.31 544.84 67.51 34.39 67.51 40.62 75.31" style="fill: none; stroke-width: 0px;"/>
      <polygon points="61.15 101.04 517.9 101.04 523.54 94.03 55.55 94.03 61.15 101.04" style="fill: none; stroke-width: 0px;"/>
      <polygon points="575.53 29.3 579.64 24.18 579.64 23.84 0 23.84 0 24.41 3.91 29.3 575.53 29.3" style="fill: #d82126; stroke-width: 0px;"/>
      <polygon points="14.48 42.56 564.88 42.56 569.27 37.1 10.13 37.1 14.48 42.56" style="fill: #d82126; stroke-width: 0px;"/>
      <polygon points="24.44 55.04 554.86 55.04 559.25 49.58 20.08 49.58 24.44 55.04" style="fill: #d82126; stroke-width: 0px;"/>
      <polygon points="34.39 67.51 544.84 67.51 549.22 62.05 30.04 62.05 34.39 67.51" style="fill: #d82126; stroke-width: 0px;"/>
      <polygon points="44.97 80.77 534.19 80.77 538.57 75.31 40.62 75.31 44.97 80.77" style="fill: #d82126; stroke-width: 0px;"/>
      <polygon points="55.55 94.03 523.54 94.03 527.93 88.57 51.19 88.57 55.55 94.03" style="fill: #d82126; stroke-width: 0px;"/>
      <polygon points="61.15 101.04 65.5 106.5 513.52 106.5 517.9 101.04 61.15 101.04" style="fill: #d82126; stroke-width: 0px;"/>
    </g>
  </g>
  <g id="RECALBOX3">
    <path d="m459.29,88.92l-17.31-25.98h22.68l4.47,8.63q1.56,3.39,1.56,3.39h.2s0,0,1.47-3.39l4.36-8.63h22.72l-17.31,25.98,19.38,29.96h-22.68l-6.61-12.19q-1.33-2.61-1.33-2.61h-.28s0,0-1.32,2.61l-6.68,12.19h-22.72l19.41-29.96Z" style="fill: none; stroke: #6da6ba; stroke-miterlimit: 10; stroke-width: 36px;"/>
    <path d="m382.99,112.84c-2.87-4.95-4.3-10.65-4.3-17.09s1.43-12.14,4.3-17.09c2.87-4.95,6.9-8.79,12.11-11.51,5.2-2.72,11.19-4.09,17.95-4.09s12.65,1.36,17.84,4.06c5.19,2.71,9.22,6.55,12.09,11.51,2.87,4.97,4.3,10.67,4.3,17.11s-1.43,12.15-4.3,17.11-6.9,8.8-12.09,11.51c-5.19,2.71-11.14,4.06-17.84,4.06s-12.74-1.36-17.95-4.09c-5.21-2.72-9.24-6.56-12.11-11.51Zm30.05-29.65c-3.28,0-5.99,1.19-8.13,3.55-2.14,2.37-3.21,5.37-3.21,9s1.07,6.63,3.21,9c2.14,2.37,4.85,3.55,8.13,3.55s5.92-1.19,8-3.58c2.08-2.38,3.12-5.41,3.12-9.07s-1.06-6.55-3.17-8.92c-2.11-2.37-4.76-3.55-7.96-3.55Z" style="fill: none; stroke: #6da6ba; stroke-miterlimit: 10; stroke-width: 36px;"/>
    <path d="m331.27,62.94h27.45c5.28,0,9.61,1.43,12.99,4.3,3.38,2.87,5.07,6.53,5.07,11,0,2.78-.68,5.19-2.05,7.23-1.36,2.05-3.27,3.54-5.73,4.47,3.18.96,5.68,2.63,7.49,5,1.81,2.37,2.72,5.18,2.72,8.41,0,4.6-1.71,8.33-5.14,11.21-3.43,2.88-7.88,4.32-13.37,4.32h-29.44v-55.94Zm19.04,42.53h5.11c1.5,0,2.71-.42,3.62-1.27.91-.85,1.37-1.95,1.37-3.31,0-3.16-1.95-4.73-5.86-4.73h-4.24v9.32Zm.08-21.02h3.27c1.5,0,2.68-.38,3.55-1.14.86-.76,1.3-1.78,1.3-3.07,0-1.19-.4-2.14-1.2-2.86-.8-.72-1.84-1.08-3.12-1.08h-3.79v8.14Z" style="fill: none; stroke: #6da6ba; stroke-miterlimit: 10; stroke-width: 36px;"/>
    <path d="m286.66,62.85h22.76v42.22h19v20.64h-41.76v-62.87Z" style="fill: none; stroke: #6da6ba; stroke-miterlimit: 10; stroke-width: 36px;"/>
    <path d="m243.12,62.94h22.87l19.15,55.94h-20.91l-2.1-7.12h-15.13l-2.07,7.12h-20.95l19.15-55.94Z" style="fill: none; stroke: #6da6ba; stroke-miterlimit: 10; stroke-width: 36px;"/>
    <path d="m222.15,85.96c-1.77-1.5-3.53-2.53-5.28-3.09-1.75-.55-3.76-.83-6.01-.83-3.62,0-6.65,1.19-9.07,3.58-2.42,2.38-3.64,5.32-3.64,8.81s1.2,6.39,3.61,8.7c2.41,2.31,5.41,3.47,9.01,3.47,2.34,0,4.37-.21,6.1-.62,1.73-.41,3.49-1.24,5.28-2.49v21.37c-2.91.91-5.41,1.5-7.49,1.77-2.08.27-4.35.4-6.8.4-4.65,0-9.02-.82-13.11-2.45-4.09-1.63-7.59-3.86-10.5-6.68-2.91-2.82-5.2-6.21-6.89-10.17-1.68-3.96-2.52-8.16-2.52-12.62s.86-8.85,2.57-12.94c1.71-4.09,4.03-7.6,6.95-10.56,2.92-2.95,6.41-5.29,10.46-7.02,4.05-1.73,8.31-2.6,12.79-2.6,5.42,0,10.27.75,14.55,2.26v21.71Z" style="fill: none; stroke: #6da6ba; stroke-miterlimit: 10; stroke-width: 36px;"/>
    <path d="m138.23,62.94h36.91v15.15h-17.01v5.26h15.47v14.66h-15.47v5.19h17.46v15.68h-37.36v-55.94Z" style="fill: none; stroke: #6da6ba; stroke-miterlimit: 10; stroke-width: 36px;"/>
    <path d="m83.34,62.76h29.78c7.02,0,12.83,2.04,17.43,6.12,4.61,4.08,6.91,9.2,6.91,15.37,0,8.7-3.82,14.31-11.46,16.84l16.38,24.64h-59.04v-62.96Z" style="fill: none; stroke: #6da6ba; stroke-miterlimit: 10; stroke-width: 36px;"/>
  </g>
  <g id="SUPER2_-_copie_2" data-name="SUPER2 - copie 2">
    <g>
      <path d="m199.39,46.55c3.66,2.97,7.12,4.45,10.4,4.45,1.16,0,2.08-.24,2.79-.71.7-.47,1.05-1.08,1.05-1.83,0-.51-.11-.91-.32-1.19-.21-.28-.65-.54-1.33-.77-.67-.23-1.72-.46-3.15-.69-4.31-.84-7.5-2.21-9.56-4.1-2.06-1.89-3.09-4.65-3.09-8.28,0-4.5,1.69-8.2,5.07-11.09,3.38-2.9,7.73-4.35,13.04-4.35,2.45,0,4.73.31,6.85.93,2.12.62,4.43,1.62,6.93,2.99l-4.25,11.05c-2.72-2.22-5.61-3.33-8.69-3.33-1.08,0-1.94.2-2.59.6-.65.4-.97.95-.97,1.64,0,.59.25,1.05.74,1.38s1.36.62,2.61.85l2.8.65c4.04.94,6.99,2.4,8.82,4.38,1.84,1.97,2.76,4.74,2.76,8.29,0,4.67-1.69,8.44-5.08,11.3-3.39,2.86-7.85,4.29-13.37,4.29s-11.02-1.47-16.26-4.42l4.79-12.05Z" style="fill: #6da6ba; stroke: #6da6ba; stroke-miterlimit: 10; stroke-width: 36px;"/>
      <path d="m270.88,44.96c0,5.76-1.64,10.19-4.92,13.32-3.28,3.12-8.15,4.68-14.6,4.68-3,0-5.69-.35-8.04-1.05-2.36-.7-4.4-1.77-6.12-3.21-1.72-1.44-3.04-3.32-3.96-5.63s-1.37-5.01-1.37-8.12v-26.37h15.19v24.51c0,2.47.32,4.16.97,5.05.64.89,1.76,1.34,3.34,1.34.71,0,1.3-.07,1.78-.22.47-.15.92-.44,1.36-.87.43-.43.75-1.09.95-1.96.2-.87.3-1.99.3-3.34v-24.51h15.14v26.37Z" style="fill: #6da6ba; stroke: #6da6ba; stroke-miterlimit: 10; stroke-width: 36px;"/>
      <path d="m274.66,18.59h20.8c4.74,0,8.62,1.46,11.64,4.39s4.53,6.68,4.53,11.25-1.26,8.01-3.77,10.72-5.84,4.07-9.98,4.07h-7.97v13.08h-15.25V18.59Z" style="fill: #6da6ba; stroke: #6da6ba; stroke-miterlimit: 10; stroke-width: 36px;"/>
      <path d="m341.01,34.47v11.4m1.53,16.23h-28.74V18.59h28.39" style="fill: #6da6ba; stroke: #6da6ba; stroke-miterlimit: 10; stroke-width: 36px;"/>
      <path d="m360.97,62.11h-15.31V18.59h20.1c4.74,0,8.66,1.41,11.77,4.23,3.11,2.82,4.67,6.36,4.67,10.62,0,6.01-2.58,9.89-7.74,11.64l11.06,17.03h-17.62" style="fill: #6da6ba; stroke: #6da6ba; stroke-miterlimit: 10; stroke-width: 36px;"/>
    </g>
  </g>
  <g id="RECALBOX2">
    <polyline points="222.15 109.53 193.04 102.99 211.95 61.27 233.31 52.81 325.78 51.53 371.18 57.76 365.68 108.31 222.15 109.53" style="fill: #0077a1; stroke-width: 0px;"/>
    <path d="m459.29,88.92l-17.31-25.98h22.68l4.47,8.63q1.56,3.39,1.56,3.39h.2s0,0,1.47-3.39l4.36-8.63h22.72l-17.31,25.98,19.38,29.96h-22.68l-6.61-12.19q-1.33-2.61-1.33-2.61h-.28s0,0-1.32,2.61l-6.68,12.19h-22.72l19.41-29.96Z" style="fill: #0077a1; stroke: #0077a1; stroke-miterlimit: 10; stroke-width: 18px;"/>
    <path d="m382.99,112.84c-2.87-4.95-4.3-10.65-4.3-17.09s1.43-12.14,4.3-17.09c2.87-4.95,6.9-8.79,12.11-11.51,5.2-2.72,11.19-4.09,17.95-4.09s12.65,1.36,17.84,4.06c5.19,2.71,9.22,6.55,12.09,11.51,2.87,4.97,4.3,10.67,4.3,17.11s-1.43,12.15-4.3,17.11-6.9,8.8-12.09,11.51c-5.19,2.71-11.14,4.06-17.84,4.06s-12.74-1.36-17.95-4.09c-5.21-2.72-9.24-6.56-12.11-11.51Zm30.05-29.65c-3.28,0-5.99,1.19-8.13,3.55-2.14,2.37-3.21,5.37-3.21,9s1.07,6.63,3.21,9c2.14,2.37,4.85,3.55,8.13,3.55s5.92-1.19,8-3.58c2.08-2.38,3.12-5.41,3.12-9.07s-1.06-6.55-3.17-8.92c-2.11-2.37-4.76-3.55-7.96-3.55Z" style="fill: #0077a1; stroke: #0077a1; stroke-miterlimit: 10; stroke-width: 18px;"/>
    <path d="m331.27,62.94h27.45c5.28,0,9.61,1.43,12.99,4.3,3.38,2.87,5.07,6.53,5.07,11,0,2.78-.68,5.19-2.05,7.23-1.36,2.05-3.27,3.54-5.73,4.47,3.18.96,5.68,2.63,7.49,5,1.81,2.37,2.72,5.18,2.72,8.41,0,4.6-1.71,8.33-5.14,11.21-3.43,2.88-7.88,4.32-13.37,4.32h-29.44v-55.94Zm19.04,42.53h5.11c1.5,0,2.71-.42,3.62-1.27.91-.85,1.37-1.95,1.37-3.31,0-3.16-1.95-4.73-5.86-4.73h-4.24v9.32Zm.08-21.02h3.27c1.5,0,2.68-.38,3.55-1.14.86-.76,1.3-1.78,1.3-3.07,0-1.19-.4-2.14-1.2-2.86-.8-.72-1.84-1.08-3.12-1.08h-3.79v8.14Z" style="fill: #0077a1; stroke: #0077a1; stroke-miterlimit: 10; stroke-width: 18px;"/>
    <path d="m286.66,62.85h22.76v42.22h19v20.64h-41.76v-62.87Z" style="fill: #0077a1; stroke: #0077a1; stroke-miterlimit: 10; stroke-width: 18px;"/>
    <path d="m243.12,62.94h22.87l19.15,55.94h-20.91l-2.1-7.12h-15.13l-2.07,7.12h-20.95l19.15-55.94Z" style="fill: #0077a1; stroke: #0077a1; stroke-miterlimit: 10; stroke-width: 18px;"/>
    <path d="m222.15,85.96c-1.77-1.5-3.53-2.53-5.28-3.09-1.75-.55-3.76-.83-6.01-.83-3.62,0-6.65,1.19-9.07,3.58-2.42,2.38-3.64,5.32-3.64,8.81s1.2,6.39,3.61,8.7c2.41,2.31,5.41,3.47,9.01,3.47,2.34,0,4.37-.21,6.1-.62,1.73-.41,3.49-1.24,5.28-2.49v21.37c-2.91.91-5.41,1.5-7.49,1.77-2.08.27-4.35.4-6.8.4-4.65,0-9.02-.82-13.11-2.45-4.09-1.63-7.59-3.86-10.5-6.68-2.91-2.82-5.2-6.21-6.89-10.17-1.68-3.96-2.52-8.16-2.52-12.62s.86-8.85,2.57-12.94c1.71-4.09,4.03-7.6,6.95-10.56,2.92-2.95,6.41-5.29,10.46-7.02,4.05-1.73,8.31-2.6,12.79-2.6,5.42,0,10.27.75,14.55,2.26v21.71Z" style="fill: #0077a1; stroke: #0077a1; stroke-miterlimit: 10; stroke-width: 18px;"/>
    <path d="m138.23,62.94h36.91v15.15h-17.01v5.26h15.47v14.66h-15.47v5.19h17.46v15.68h-37.36v-55.94Z" style="fill: #0077a1; stroke: #0077a1; stroke-miterlimit: 10; stroke-width: 18px;"/>
    <path d="m83.34,62.76h29.78c7.02,0,12.83,2.04,17.43,6.12,4.61,4.08,6.91,9.2,6.91,15.37,0,8.7-3.82,14.31-11.46,16.84l16.38,24.64h-59.04v-62.96Z" style="fill: #0077a1; stroke: #0077a1; stroke-miterlimit: 10; stroke-width: 18px;"/>
  </g>
  <g id="SUPER2">
    <g>
      <path d="m199.47,46.29c3.66,2.97,7.12,4.45,10.4,4.45,1.16,0,2.08-.24,2.79-.71.7-.47,1.05-1.08,1.05-1.83,0-.51-.11-.91-.32-1.19-.21-.28-.65-.54-1.33-.77-.67-.23-1.72-.46-3.15-.69-4.31-.84-7.5-2.21-9.56-4.1-2.06-1.89-3.09-4.65-3.09-8.28,0-4.5,1.69-8.2,5.07-11.09,3.38-2.9,7.73-4.35,13.04-4.35,2.45,0,4.73.31,6.85.93,2.12.62,4.43,1.62,6.93,2.99l-4.25,11.05c-2.72-2.22-5.61-3.33-8.69-3.33-1.08,0-1.94.2-2.59.6-.65.4-.97.95-.97,1.64,0,.59.25,1.05.74,1.38s1.36.62,2.61.85l2.8.65c4.04.94,6.99,2.4,8.82,4.38,1.84,1.97,2.76,4.74,2.76,8.29,0,4.67-1.69,8.44-5.08,11.3-3.39,2.86-7.85,4.29-13.37,4.29s-11.02-1.47-16.26-4.42l4.79-12.05Z" style="fill: #0077a1; stroke: #0077a1; stroke-miterlimit: 10; stroke-width: 18px;"/>
      <path d="m270.96,44.69c0,5.76-1.64,10.19-4.92,13.32-3.28,3.12-8.15,4.68-14.6,4.68-3,0-5.69-.35-8.04-1.05-2.36-.7-4.4-1.77-6.12-3.21-1.72-1.44-3.04-3.32-3.96-5.63s-1.37-5.01-1.37-8.12v-26.37h15.19v24.51c0,2.47.32,4.16.97,5.05.64.89,1.76,1.34,3.34,1.34.71,0,1.3-.07,1.78-.22.47-.15.92-.44,1.36-.87.43-.43.75-1.09.95-1.96.2-.87.3-1.99.3-3.34v-24.51h15.14v26.37Z" style="fill: #0077a1; stroke: #0077a1; stroke-miterlimit: 10; stroke-width: 18px;"/>
      <path d="m274.75,18.32h20.8c4.74,0,8.62,1.46,11.64,4.39s4.53,6.68,4.53,11.25-1.26,8.01-3.77,10.72-5.84,4.07-9.98,4.07h-7.97v13.08h-15.25V18.32Zm15.31,19.39h2.77c1.37,0,2.42-.37,3.16-1.1.74-.74,1.11-1.76,1.11-3.08,0-.98-.34-1.8-1.03-2.45-.68-.65-1.55-.97-2.58-.97h-3.44v7.6Z" style="fill: #0077a1; stroke: #0077a1; stroke-miterlimit: 10; stroke-width: 18px;"/>
      <path d="m313.88,18.32h28.39v11.79h-13.09v4.1h11.9v11.4h-11.9v4.04h13.43v12.2h-28.74V18.32Z" style="fill: #0077a1; stroke: #0077a1; stroke-miterlimit: 10; stroke-width: 18px;"/>
      <path d="m345.74,18.32h20.1c4.74,0,8.66,1.41,11.77,4.23,3.11,2.82,4.67,6.36,4.67,10.62,0,6.01-2.58,9.89-7.74,11.64l11.06,17.03h-18.83s-.87,0-.87,0h-3.75s-1.1,0-1.1,0h-15.31V18.32Z" style="fill: #0077a1; stroke: #0077a1; stroke-miterlimit: 10; stroke-width: 18px;"/>
    </g>
  </g>
  <g id="RECALBOX1">
    <g>
      <path d="m459.29,88.92l-17.31-25.98h22.68l4.47,8.63q1.56,3.39,1.56,3.39h.2s0,0,1.47-3.39l4.36-8.63h22.72l-17.31,25.98,19.38,29.96h-22.68l-6.61-12.19q-1.33-2.61-1.33-2.61h-.28s0,0-1.32,2.61l-6.68,12.19h-22.72l19.41-29.96Z" style="fill: #d82126; stroke: #fff; stroke-width: 1.5px;"/>
      <path d="m382.99,112.84c-2.87-4.95-4.3-10.65-4.3-17.09s1.43-12.14,4.3-17.09c2.87-4.95,6.9-8.79,12.11-11.51,5.2-2.72,11.19-4.09,17.95-4.09s12.65,1.36,17.84,4.06c5.19,2.71,9.22,6.55,12.09,11.51,2.87,4.97,4.3,10.67,4.3,17.11s-1.43,12.15-4.3,17.11-6.9,8.8-12.09,11.51c-5.19,2.71-11.14,4.06-17.84,4.06s-12.74-1.36-17.95-4.09c-5.21-2.72-9.24-6.56-12.11-11.51Zm30.05-29.65c-3.28,0-5.99,1.19-8.13,3.55-2.14,2.37-3.21,5.37-3.21,9s1.07,6.63,3.21,9c2.14,2.37,4.85,3.55,8.13,3.55s5.92-1.19,8-3.58c2.08-2.38,3.12-5.41,3.12-9.07s-1.06-6.55-3.17-8.92c-2.11-2.37-4.76-3.55-7.96-3.55Z" style="fill: #d82126; stroke: #fff; stroke-width: 1.5px;"/>
      <path d="m331.27,62.94h27.45c5.28,0,9.61,1.43,12.99,4.3,3.38,2.87,5.07,6.53,5.07,11,0,2.78-.68,5.19-2.05,7.23-1.36,2.05-3.27,3.54-5.73,4.47,3.18.96,5.68,2.63,7.49,5,1.81,2.37,2.72,5.18,2.72,8.41,0,4.6-1.71,8.33-5.14,11.21-3.43,2.88-7.88,4.32-13.37,4.32h-29.44v-55.94Zm19.04,42.53h5.11c1.5,0,2.71-.42,3.62-1.27.91-.85,1.37-1.95,1.37-3.31,0-3.16-1.95-4.73-5.86-4.73h-4.24v9.32Zm.08-21.02h3.27c1.5,0,2.68-.38,3.55-1.14.86-.76,1.3-1.78,1.3-3.07,0-1.19-.4-2.14-1.2-2.86-.8-.72-1.84-1.08-3.12-1.08h-3.79v8.14Z" style="fill: #d82126; stroke: #fff; stroke-width: 1.5px;"/>
      <path d="m286.66,62.85h22.76v42.22h19v20.64h-41.76v-62.87Z" style="fill: #d82126; stroke: #fff; stroke-width: 1.5px;"/>
      <path d="m243.12,62.94h22.87l19.15,55.94h-20.91l-2.1-7.12h-15.13l-2.07,7.12h-20.95l19.15-55.94Zm7.17,35.6h8.37l-2.63-10.6c-.78-3.71-1.28-7.07-1.5-10.07-.3,4.01-.79,7.37-1.46,10.07l-.41,1.4-2.37,9.2Z" style="fill: #d82126; stroke: #fff; stroke-width: 1.5px;"/>
      <path d="m222.15,85.96c-1.77-1.5-3.53-2.53-5.28-3.09-1.75-.55-3.76-.83-6.01-.83-3.62,0-6.65,1.19-9.07,3.58-2.42,2.38-3.64,5.32-3.64,8.81s1.2,6.39,3.61,8.7c2.41,2.31,5.41,3.47,9.01,3.47,2.34,0,4.37-.21,6.1-.62,1.73-.41,3.49-1.24,5.28-2.49v21.37c-2.91.91-5.41,1.5-7.49,1.77-2.08.27-4.35.4-6.8.4-4.65,0-9.02-.82-13.11-2.45-4.09-1.63-7.59-3.86-10.5-6.68-2.91-2.82-5.2-6.21-6.89-10.17-1.68-3.96-2.52-8.16-2.52-12.62s.86-8.85,2.57-12.94c1.71-4.09,4.03-7.6,6.95-10.56,2.92-2.95,6.41-5.29,10.46-7.02,4.05-1.73,8.31-2.6,12.79-2.6,5.42,0,10.27.75,14.55,2.26v21.71Z" style="fill: #d82126; stroke: #fff; stroke-width: 1.5px;"/>
      <path d="m138.23,62.94h36.91v15.15h-17.01v5.26h15.47v14.66h-15.47v5.19h17.46v15.68h-37.36v-55.94Z" style="fill: #d82126; stroke: #fff; stroke-width: 1.5px;"/>
      <path d="m83.34,62.91h29.78c7.02,0,12.83,2.03,17.43,6.1,4.61,4.07,6.91,9.18,6.91,15.33,0,8.68-3.82,14.27-11.46,16.8l16.38,24.58h-26.1l-6.54-11.84-2.34-3.82-1.39-2.25v1.77s0,1.51,0,1.51v14.63h-22.68v-62.81Zm22.76,28.07h2.99c1.94,0,3.46-.5,4.56-1.49,1.1-.99,1.65-2.35,1.65-4.08s-.56-3.04-1.69-4.02c-1.13-.98-2.63-1.47-4.51-1.47h-2.99v11.06Z" style="fill: #d82126; stroke: #fff; stroke-miterlimit: 10; stroke-width: 1.5px;"/>
    </g>
  </g>
  <g id="SUPER1">
    <g>
      <path d="m199.47,46.29c3.66,2.97,7.12,4.45,10.4,4.45,1.16,0,2.08-.24,2.79-.71.7-.47,1.05-1.08,1.05-1.83,0-.51-.11-.91-.32-1.19-.21-.28-.65-.54-1.33-.77-.67-.23-1.72-.46-3.15-.69-4.31-.84-7.5-2.21-9.56-4.1-2.06-1.89-3.09-4.65-3.09-8.28,0-4.5,1.69-8.2,5.07-11.09,3.38-2.9,7.73-4.35,13.04-4.35,2.45,0,4.73.31,6.85.93,2.12.62,4.43,1.62,6.93,2.99l-4.25,11.05c-2.72-2.22-5.61-3.33-8.69-3.33-1.08,0-1.94.2-2.59.6-.65.4-.97.95-.97,1.64,0,.59.25,1.05.74,1.38s1.36.62,2.61.85l2.8.65c4.04.94,6.99,2.4,8.82,4.38,1.84,1.97,2.76,4.74,2.76,8.29,0,4.67-1.69,8.44-5.08,11.3-3.39,2.86-7.85,4.29-13.37,4.29s-11.02-1.47-16.26-4.42l4.79-12.05Z" style="fill: #d82126; stroke: #fff; stroke-miterlimit: 10; stroke-width: 1.5px;"/>
      <path d="m270.96,44.69c0,5.76-1.64,10.19-4.92,13.32-3.28,3.12-8.15,4.68-14.6,4.68-3,0-5.69-.35-8.04-1.05-2.36-.7-4.4-1.77-6.12-3.21-1.72-1.44-3.04-3.32-3.96-5.63s-1.37-5.01-1.37-8.12v-26.37h15.19v24.51c0,2.47.32,4.16.97,5.05.64.89,1.76,1.34,3.34,1.34.71,0,1.3-.07,1.78-.22.47-.15.92-.44,1.36-.87.43-.43.75-1.09.95-1.96.2-.87.3-1.99.3-3.34v-24.51h15.14v26.37Z" style="fill: #d82126; stroke: #fff; stroke-miterlimit: 10; stroke-width: 1.5px;"/>
      <path d="m274.75,18.32h20.8c4.74,0,8.62,1.46,11.64,4.39s4.53,6.68,4.53,11.25-1.26,8.01-3.77,10.72-5.84,4.07-9.98,4.07h-7.97v13.08h-15.25V18.32Zm15.31,19.39h2.77c1.37,0,2.42-.37,3.16-1.1.74-.74,1.11-1.76,1.11-3.08,0-.98-.34-1.8-1.03-2.45-.68-.65-1.55-.97-2.58-.97h-3.44v7.6Z" style="fill: #d82126; stroke: #fff; stroke-miterlimit: 10; stroke-width: 1.5px;"/>
      <path d="m313.88,18.32h28.39v11.79h-13.09v4.1h11.9v11.4h-11.9v4.04h13.43v12.2h-28.74V18.32Z" style="fill: #d82126; stroke: #fff; stroke-miterlimit: 10; stroke-width: 1.5px;"/>
      <path d="m345.74,18.32h20.1c4.74,0,8.66,1.41,11.77,4.23,3.11,2.82,4.67,6.36,4.67,10.62,0,6.01-2.58,9.89-7.74,11.64l11.06,17.03h-17.62l-4.42-8.2-1.58-2.65-.94-1.56v1.23s0,1.05,0,1.05v10.14h-15.31V18.32Zm15.37,19.45h2.02c1.31,0,2.33-.34,3.08-1.03.74-.69,1.11-1.63,1.11-2.83s-.38-2.11-1.14-2.78c-.76-.68-1.78-1.02-3.05-1.02h-2.02v7.66Z" style="fill: #d82126; stroke: #fff; stroke-miterlimit: 10; stroke-width: 1.5px;"/>
    </g>
  </g>
</svg>