<?xml version="1.0" encoding="UTF-8" standalone="no"?>
<svg
   viewBox="0 0 386.78 84.62"
   version="1.1"
   id="svg19"
   sodipodi:docname="GENRES.svg"
   inkscape:version="1.3 (0e150ed6c4, 2023-07-21)"
   xml:space="preserve"
   xmlns:inkscape="http://www.inkscape.org/namespaces/inkscape"
   xmlns:sodipodi="http://sodipodi.sourceforge.net/DTD/sodipodi-0.dtd"
   xmlns="http://www.w3.org/2000/svg"
   xmlns:svg="http://www.w3.org/2000/svg"><defs
     id="defs19"><rect
       x="353.62743"
       y="-2.5734873"
       width="30.124939"
       height="50.712837"
       id="rect20" /></defs><sodipodi:namedview
     id="namedview19"
     pagecolor="#ffffff"
     bordercolor="#000000"
     borderopacity="0.25"
     inkscape:showpageshadow="2"
     inkscape:pageopacity="0.0"
     inkscape:pagecheckerboard="0"
     inkscape:deskcolor="#d1d1d1"
     inkscape:zoom="2.3355109"
     inkscape:cx="230.35645"
     inkscape:cy="26.974825"
     inkscape:window-width="1918"
     inkscape:window-height="1360"
     inkscape:window-x="1433"
     inkscape:window-y="0"
     inkscape:window-maximized="0"
     inkscape:current-layer="svg19" /><text
     xml:space="preserve"
     style="font-style:normal;font-variant:normal;font-weight:bold;font-stretch:normal;font-size:48.7192px;font-family:'Josefin Sans';-inkscape-font-specification:'Josefin Sans Bold';fill:#000000;stroke:#75a5bd;stroke-width:0;stroke-linecap:round;stroke-miterlimit:4.7;paint-order:markers stroke fill"
     x="109.00097"
     y="37.203159"
     id="text19"><tspan
       sodipodi:role="line"
       id="tspan19"
       x="109.00097"
       y="37.203159"
       style="font-style:normal;font-variant:normal;font-weight:300;font-stretch:normal;font-family:'Josefin Sans';-inkscape-font-specification:'Josefin Sans Light';stroke-width:0">SHOOT'</tspan></text><text
     xml:space="preserve"
     id="text20"
     style="white-space:pre;shape-inside:url(#rect20);display:inline;fill:#000000;stroke:#75a5bd;stroke-width:0;stroke-linecap:round;stroke-miterlimit:4.7;paint-order:markers stroke fill" /><text
     xml:space="preserve"
     style="font-size:57.4489px;fill:#000000;stroke:#75a5bd;stroke-width:0;stroke-linecap:round;stroke-miterlimit:4.7;paint-order:markers stroke fill"
     x="105.78881"
     y="83.120667"
     id="text21"><tspan
       sodipodi:role="line"
       id="tspan21"
       x="105.78881"
       y="83.120667"
       style="font-style:normal;font-variant:normal;font-weight:bold;font-stretch:normal;font-family:'Josefin Sans';-inkscape-font-specification:'Josefin Sans Bold';stroke-width:0">EM UP</tspan></text><path
     fill="#000000"
     d="M 50.26075,2.0932041 19.9526,21.431876 50.26075,20.777491 Z m 2.75529,0 V 20.777491 l 30.256483,0.654385 z m 7.422053,8.6051099 c 0.482173,0.01037 0.998785,0.129148 1.584284,0.358186 0.396075,0.156702 0.706044,0.328914 0.964354,0.528672 0.25831,0.198034 0.482174,0.430507 0.637158,0.652653 0.25831,0.354743 0.378855,0.695709 0.447734,1.076289 0.413295,-0.304809 0.895468,-0.513178 1.412088,-0.66127 0.585499,-0.125712 1.239876,-0.0603 1.911481,0.211811 0.792142,0.313412 1.394861,0.721539 1.773708,1.224382 0.378856,0.50456 0.602726,1.028065 0.688825,1.572232 0.05167,0.294475 0.05167,0.587224 0.01725,0.862754 -0.01725,0.292749 -0.103318,0.568271 -0.206644,0.809362 -0.08611,0.25831 -0.206651,0.51662 -0.396075,0.740483 -0.172204,0.223871 -0.361628,0.447734 -0.602718,0.619938 -0.430515,0.344416 -0.947127,0.568279 -1.567065,0.671605 -0.619946,0.103318 -1.325982,0 -2.118132,-0.309969 -0.688817,-0.27553 -1.205437,-0.654385 -1.549846,-1.153778 -0.275529,-0.447734 -0.499392,-0.947135 -0.585498,-1.446527 -0.344409,0.25831 -0.723264,0.430514 -1.188218,0.499392 -0.51662,0.103326 -1.119338,0 -1.842594,-0.275522 -0.413295,-0.172212 -0.77493,-0.361635 -1.06768,-0.568279 -0.309969,-0.223871 -0.551052,-0.449459 -0.740483,-0.702601 -0.361628,-0.444292 -0.551052,-0.92474 -0.602719,-1.43791 -0.03442,-0.499401 0.03442,-0.972964 0.189432,-1.403479 0.0861,-0.222145 0.223863,-0.442566 0.361628,-0.675047 0.172204,-0.189423 0.344408,-0.380572 0.53384,-0.561386 0.413287,-0.304802 0.895468,-0.511453 1.463739,-0.607886 0.154992,-0.02065 0.309977,-0.02928 0.482181,-0.02414 z m -17.065556,0.910963 c 0.826582,0.0086 1.877034,0.614771 1.549845,1.728942 -0.688816,1.188217 -1.773716,2.095737 -3.099698,2.548638 -1.274315,0.430515 -2.583078,0.757703 -3.788515,0.327189 -0.51662,-0.396067 -2.238669,-1.618724 -2.583085,-0.585491 -0.206644,2.634737 0.172211,2.238669 -1.894254,3.065251 v -4.201809 c 1.722049,-0.671605 3.616311,-0.774923 5.338368,0.223863 1.377641,0.723263 3.271902,0.25831 4.132923,-0.998786 0.172212,-1.119339 -1.377641,-0.77493 -2.066458,-0.568279 -0.51662,-1.429308 1.343202,-1.451695 2.23867,-1.532626 0.05167,-0.0053 0.103318,-0.0068 0.172204,-0.0068 z m 17.306638,0.768038 c -0.154984,0.0015 -0.309969,0.02413 -0.482173,0.06196 -0.413294,0.105043 -0.723263,0.373688 -0.878248,0.804195 -0.172204,0.416737 -0.137765,0.816254 0.103326,1.184775 0.241082,0.382297 0.568279,0.642325 1.033232,0.823146 0.499393,0.198034 0.929907,0.242808 1.377641,0.125705 0.430515,-0.09643 0.740484,-0.36507 0.895468,-0.781807 0.172204,-0.430514 0.137765,-0.830032 -0.120545,-1.207162 -0.241083,-0.36852 -0.602718,-0.649218 -1.102111,-0.847251 -0.27553,-0.113653 -0.55106,-0.16532 -0.82659,-0.163595 z m 4.97674,1.747886 c -0.189424,0.0086 -0.378855,0.04653 -0.551059,0.111928 -0.464954,0.201484 -0.774923,0.509728 -0.929907,0.92819 -0.172205,0.430514 -0.154985,0.876523 0.06885,1.307037 0.206651,0.447734 0.619946,0.79215 1.239884,1.050453 0.499393,0.189431 0.998786,0.22387 1.480966,0.103325 0.482174,-0.137765 0.809362,-0.464953 0.998786,-0.964346 0.189432,-0.499401 0.189432,-0.952302 -0.0861,-1.379366 -0.25831,-0.425347 -0.637158,-0.752544 -1.136558,-0.948852 -0.396075,-0.154985 -0.757703,-0.222146 -1.084892,-0.208369 z m -16.428398,9.4248 -32.202411,0.706044 12.398793,33.218416 z m 4.821755,0 19.872505,33.92446 12.26102,-33.218416 z m -2.410881,1.291535 -20.148026,34.475527 h 40.31328 z m 20.079156,2.824168 3.306341,7.318735 1.239876,-0.568279 0.706044,1.584292 -1.222656,0.551052 1.084892,2.410881 -1.790936,0.809362 -1.084892,-2.410873 -5.200603,2.341995 -0.671604,-1.498194 c 0.24109,-1.584285 0.757703,-4.787308 1.532633,-9.591836 l 0.309969,-0.137765 0.137765,-0.05167 0.533832,-0.25831 z m -38.9012,2.083693 h 0.223863 c 0.4994,0 0.947134,0.0861 1.343202,0.275522 1.188217,0.55106 1.842602,1.446527 2.014806,2.634745 0.154985,1.188217 -0.172204,2.634744 -0.981574,4.322354 -0.809362,1.670391 -1.722049,2.841388 -2.720843,3.495773 -1.033232,0.654378 -2.118124,0.706044 -3.289122,0.172205 -1.016013,-0.482174 -1.618731,-1.153778 -1.825375,-2.049246 -0.206651,-0.912688 -0.154992,-1.670391 0.154985,-2.324776 l 1.653171,0.757711 c -0.154985,0.292749 -0.189432,0.654377 -0.137765,1.084892 0.05167,0.447734 0.327189,0.774922 0.861028,1.033232 0.533833,0.241083 1.050453,0.223863 1.584285,-0.03442 0.53384,-0.24109 1.084899,-0.895468 1.670391,-1.945928 0.0861,-0.172204 0.189431,-0.361628 0.292749,-0.568271 -0.309969,0.206643 -0.619938,0.344408 -0.947127,0.447734 -0.551059,0.154984 -1.136558,0.0861 -1.773716,-0.206651 -0.740483,-0.344409 -1.291543,-0.947127 -1.635951,-1.825375 -0.361628,-0.861029 -0.25831,-1.842595 0.27553,-2.961934 l 0.01725,-0.01725 c 0.189423,-0.396075 0.413294,-0.757703 0.688824,-1.033232 0.241083,-0.29275 0.533832,-0.53384 0.826582,-0.723264 0.533839,-0.327189 1.102118,-0.516613 1.704837,-0.533832 z M 16.508494,30.627638 V 60.453614 L 27.18523,59.472048 Z m 70.259802,0 -10.659516,28.84441 10.659516,0.981566 z m -15.82568,0.103325 c -0.275522,1.670391 -0.619938,3.874621 -1.067672,6.578244 l 3.375228,-1.515406 -1.412088,-3.082478 z m -37.83352,0.706044 c -0.25831,0.01725 -0.4994,0.06885 -0.740483,0.189424 -0.51662,0.24109 -0.878248,0.602718 -1.119339,1.119339 -0.27553,0.585498 -0.361628,1.119331 -0.206643,1.65317 0.154984,0.516613 0.464953,0.878249 0.929907,1.102112 0.482173,0.22387 0.981574,0.22387 1.463747,0 0.482173,-0.223863 0.878248,-0.619938 1.170997,-1.205437 0.241083,-0.499393 0.29275,-1.016013 0.172205,-1.549845 -0.137765,-0.53384 -0.447734,-0.912688 -0.929908,-1.136559 -0.24109,-0.120545 -0.4994,-0.172204 -0.740483,-0.172204 z m 17.771592,8.214195 h 2.686404 V 54.1509 H 50.880688 V 42.062076 c -1.515406,0.998793 -2.634737,1.653178 -3.340781,1.928701 l -1.084892,0.48218 v -2.410881 l 1.084892,-0.482173 c 0.706044,-0.309969 1.825375,-0.929907 3.340781,-1.928701 z m 34.73383,1.067672 h 0.08611 c 0.619938,0.05167 0.981566,1.205437 0.809362,1.911481 -0.01725,3.203024 0.189431,6.750456 -1.670391,9.522958 -0.154984,0.206651 -0.378855,0.327196 -0.637158,0.430514 -0.998793,-0.706036 -0.51662,-1.94592 0.206644,-2.669184 0.172204,1.257104 0.947127,-0.499393 1.136558,-0.964346 0.223863,-0.55106 0.619938,-3.04804 -0.172204,-1.756497 0.120538,0.688825 -1.170998,2.25589 -1.601512,1.394861 -0.861028,-2.479752 0,-5.252262 1.205437,-7.490931 0.223863,-0.241091 0.430514,-0.361636 0.637158,-0.378856 z m -67.728383,0.154985 c 0.172204,0.01725 0.172204,0.172212 0.344416,0.619945 v 10.521744 c -1.205445,-1.205437 -0.51662,-2.996373 -0.688825,-4.546218 -0.172204,-1.308762 0.344409,-2.806949 -0.172204,-3.995166 -0.861028,-0.292749 -1.033232,-2.927494 -0.51662,-2.187011 0.688824,0.82659 0.688824,-0.464953 1.033233,-0.413294 z m 67.315088,1.825382 c -0.172204,0 -0.344408,0.172205 -0.482173,0.637158 -0.27553,1.016013 -0.568279,2.307556 -0.120545,3.323561 0.878248,-0.344408 0.929915,-1.65317 1.136558,-2.496972 0.206644,-0.568279 -0.154984,-1.446527 -0.53384,-1.463747 z M 20.46922,44.782926 c 0.688817,-0.0861 1.205437,1.239877 1.549846,1.859815 0.564836,2.18701 0.724988,2.393654 0.51662,2.893054 -0.861029,-0.637165 -0.838642,-1.274323 -0.923022,-1.532633 -0.172205,-0.516612 -0.282423,-0.912687 -0.626831,-1.44652 -0.575164,0.482174 -0.516613,1.567065 -0.516613,2.307549 0,-0.27553 0.172205,-0.396068 0.688817,-0.120545 1.205437,2.169791 2.066466,5.011179 1.205437,7.490939 l -0.344408,0.189423 C 20.124804,55.425223 19.9526,53.083227 19.608192,51.257845 19.435988,49.13972 19.435988,47.004376 19.9526,44.937911 c 0.172204,-0.103326 0.344409,-0.154985 0.51662,-0.154985 z m 61.683972,0.826582 c 0.774922,0.05167 0.137765,6.061631 0.137765,9.471299 l -0.757703,1.153778 v -7.284288 c -0.79215,1.291535 -1.567073,1.567065 -1.050453,-0.154985 0.843801,-2.307556 1.360422,-3.203024 1.670391,-3.185804 z m -61.339563,4.511786 c -0.688825,0.809362 -0.344409,2.20423 -0.172204,3.168577 0.344408,0.947127 1.205437,1.756496 1.033232,0.27553 0,-0.981574 0.172205,-2.032026 -0.51662,-2.824169 0,-0.103325 -0.172204,-0.327188 -0.344408,-0.619938 z M 32.179181,62.072345 51.638391,83.27083 71.063162,62.072345 Z m -3.61631,0.05167 -9.299095,0.843802 11.021152,7.077644 c -0.344416,-0.464949 -0.861029,-0.98157 -1.205437,-1.515402 -0.861029,-1.188217 -1.722057,-2.341995 -3.271903,-2.858615 -1.549852,-1.119331 -0.688824,-0.912688 0.516613,-0.447734 -0.172204,-0.309969 -0.172204,-0.447734 0,-0.447734 0.344408,-0.03442 1.549845,0.723264 1.722057,1.084899 l 4.305135,5.441686 11.193348,7.180969 z m 46.185488,0 -7.301508,7.973105 c 1.102111,-0.533832 1.94592,-1.463747 2.927494,-2.135344 0.413287,-0.24109 0.637158,-0.327189 0.740483,-0.327189 0.361628,0 -0.929915,1.222657 -1.325982,1.773716 -1.618731,1.687611 -2.75529,3.960719 -4.925073,5.011172 l 3.254675,-4.219029 c -0.396067,0.22387 -1.033233,0.551059 -1.41208,0.706044 l -6.93988,7.577036 12.829307,-8.196974 c 0.929907,-1.153778 0.327188,-0.964355 -0.981574,-0.154985 l -1.96314,1.033225 c 1.96314,-2.359207 4.615104,-4.064044 6.888213,-6.13051 0.55106,-0.25831 1.635951,-0.964346 1.894261,-0.981566 0.137765,-0.01725 0.03442,0.172204 -0.482173,0.723256 l -2.169791,2.75529 c 1.722057,-1.308763 0.154985,0.671604 -0.774922,0.947127 -0.120546,0.172211 -0.241091,0.344416 -0.378856,0.4994 l 9.385193,-6.009972 z m -27.260111,2.875828 c 0.241083,0 0.464954,0.01725 0.706037,0.03442 v 7.473719 h -2.23867 v -5.166163 c -0.861029,-0.241091 -1.894261,0.292749 -2.755282,-0.05167 -0.688825,-0.499393 0.172204,-1.17099 0.861021,-1.016006 0.51662,-0.01725 1.205444,0.03442 1.549853,-0.551059 0.585498,-0.53384 1.205437,-0.723264 1.877041,-0.723264 z m 5.699996,0.120545 c 0,0 0.172204,0.01725 0.172204,0.03442 0.688824,0.137765 1.205437,0.05167 1.722057,0.06885 h 4.408453 c 0.25831,0.51662 0.137765,1.343209 -0.568271,1.360429 -0.671605,0.0861 -1.34321,-0.06885 -2.014807,0.03442 -0.809369,0.03442 -1.653171,-0.309969 -2.514199,0.06885 -0.516613,0.29275 -0.688824,1.463747 0.172204,1.050453 0.688824,-0.189424 1.257104,-0.30997 1.859822,-0.154985 1.205437,0.189431 2.583078,0.4994 3.289122,1.584292 0.361628,0.53384 0.464954,1.257104 0.120545,1.842595 -0.619946,1.119338 -1.997587,1.446527 -3.151365,1.670398 -0.413287,0.06885 -0.809361,0.241083 -1.257095,0.206643 -1.205437,-0.103325 -2.583078,-0.189423 -3.444107,-1.222656 -0.51662,-0.430514 -0.51662,-1.222657 0.344408,-1.153778 0.516621,-0.01725 1.377642,-0.06885 1.722057,0.602718 0.516613,0.637158 1.549846,0.516621 2.23867,0.344409 0.619938,-0.0861 1.291535,-0.447734 1.308763,-1.153771 0.103318,-0.723263 -0.53384,-1.239883 -1.188218,-1.343201 -0.981573,-0.396075 -2.014806,0.241082 -3.048039,0.309969 -0.516612,0.189424 -1.549845,0.0861 -1.549845,-0.757703 0.172204,-0.723264 0.516612,-1.394869 0.516612,-2.152572 0,-0.516612 0.344409,-1.205436 0.861029,-1.239876 z m 22.989422,0.861029 c -0.03442,-0.03442 -1.205437,0.998785 -1.704837,1.39486 l -2.720843,2.25589 c 1.480967,-0.757703 2.841388,-1.653171 3.840181,-2.996373 0.447734,-0.447734 0.602719,-0.637158 0.585499,-0.654377 z M 33.55683,68.42673 c 0.516613,0 1.377641,0.792142 1.722049,1.205437 l 4.47734,5.355587 c -1.377641,-0.361628 -2.23867,-1.222657 -3.099691,-2.359215 -1.033233,-1.257096 -1.894261,-2.858608 -3.616318,-3.37522 -1.549845,-0.861029 -0.861029,-1.102119 0.344416,-0.378855 0,-0.327189 0,-0.447734 0.172204,-0.447734 z"
     id="path1"
     style="stroke-width:0.172206" /></svg>
