<?xml version="1.0" encoding="UTF-8"?>
<svg id="Calque_2" data-name="Calque 2" xmlns="http://www.w3.org/2000/svg" viewBox="0 0 50 39.86">
  <g id="svg8">
    <g id="g824">
      <path id="path2" d="m11.92,6.23c-1.18-1.68-3.5-2.07-5.18-.89-1.68,1.18-2.07,3.5-.89,5.18,1.18,1.68,3.5,2.07,5.18.89.53-.37.95-.88,1.22-1.46h-3.28v-1.69h5.24c.01.57-.06,1.14-.23,1.69-.69,2.23-2.75,3.76-5.09,3.76-2.94,0-5.33-2.39-5.33-5.33s2.39-5.33,5.33-5.33c2.11,0,4.03,1.25,4.88,3.19h-1.85Zm7.95-3.08l-6.73,10.14h2.08l1.44-2.17h3.21v2.17h1.74V3.15h-1.74Zm-2.06,6.24l2.06-3.1v3.1h-2.06Zm17.39-6.24l-4.64,6.99V3.15h-1.74l-6.73,10.14h2.09l4.65-7v7h1.74s4.64-7,4.64-7v7h1.74V3.15h-1.74Zm8.41,1.74v-1.74h-5.28v10.15h1.74s3.54,0,3.54,0v-1.74h-3.54v-2.37h3.54v-1.74h-3.54v-2.57h3.54Zm-16.96,16.75l1.39-3.14h-1.7l-.9,2.02-1.34-1.23c.61-.49,1.15-1.11,1.15-2.15,0-.56-.22-1.08-.62-1.48-.47-.46-1.1-.71-1.75-.71-1.15,0-2.33.82-2.33,2.19,0,.96.53,1.57,1.05,2.03-.97.69-1.81,1.42-1.81,2.92,0,.85.31,1.63.87,2.19.57.57,1.35.88,2.22.88,1.65,0,2.46-.8,3.09-2.03l2.02,1.87,1.06-1.14-2.4-2.22Zm-4.38-4.89c.17-.15.39-.24.61-.24.24,0,.48.09.65.26.11.11.16.23.16.38,0,.44-.21.68-.78,1.1-.5-.4-.81-.68-.81-1.1,0-.15.06-.29.16-.4m2.47,5.35c-.54,1.2-.92,1.51-1.86,1.51-.46,0-.85-.15-1.12-.42-.27-.27-.41-.65-.41-1.09,0-.82.42-1.14,1.46-1.86,0,0,.01,0,.01-.01l1.95,1.81-.03.07Zm-5.15,4.31l-6.73,10.14h2.08l1.44-2.16h3.21v2.17h1.74v-10.14h-1.74Zm-2.06,6.24l2.06-3.1v3.1h-2.06Zm-12.15,3.91l4.64-6.99v6.99h1.74l6.73-10.14h-2.09l-4.65,7v-7h-1.74s-4.64,7-4.64,7v-7h-1.74v10.14h1.74Zm37.22-10.14v4.08h-3.14v-4.08h-1.74v10.14h1.74v-4.32h3.14v4.32h1.74v-10.14h-1.74Zm-14.93,0h-5.67v1.74h1.97v8.41h1.74v-8.41h1.97v-1.74Z" style="fill: #fff; stroke-width: 0px;"/>
      <path id="path4" d="m35.3,33.82c-1.34,1.5-3.65,1.62-5.14.27-1.5-1.34-1.62-3.65-.27-5.14.69-.77,1.68-1.21,2.71-1.21,1.06,0,2.01.48,2.68,1.21h2.03c-.89-1.69-2.67-2.89-4.71-2.89-2.94,0-5.32,2.38-5.32,5.32s2.38,5.32,5.32,5.32c1.99,0,3.82-1.12,4.73-2.89h-2.02Zm13.31,4.5v.23h-.38v1.05h-.27v-1.05h-.38v-.23h1.03Zm1.01,0h.38v1.28h-.25v-.97s0-.1,0-.1l-.24,1.07h-.26l-.24-1.07v.1s0,.97,0,.97h-.25v-1.28h.39l.23,1,.23-1Z" style="fill: #fff; stroke-width: 0px;"/>
      <path id="path6" d="m.25,3.08v34.01s0,2.52,2.83,2.52h41.56s2.52,0,2.52-2.52V3.08s0-2.83-2.52-2.83H3.08S.25.25.25,3.08Z" style="fill: none; stroke: #fff; stroke-miterlimit: 4.23; stroke-width: .5px;"/>
    </g>
  </g>
</svg>