<svg xmlns="http://www.w3.org/2000/svg" viewBox="0 0 308.51 110.73"><path d="M.45,4H8.12V53.82h29v7.35H.45Z" fill="#fff"/><path d="M47.24,16.6a3.72,3.72,0,0,1,1.38-2.93,4.55,4.55,0,0,1,3-1.18,4.25,4.25,0,0,1,3,1.18,3.81,3.81,0,0,1,1.31,2.93,3.75,3.75,0,0,1-1.31,3,4.36,4.36,0,0,1-3,1.15,4.56,4.56,0,0,1-3-1.19A3.7,3.7,0,0,1,47.24,16.6Zm.55,11.85h7.35V61.17H47.79Z" fill="#fff"/><path d="M83.59,77.37a22.43,22.43,0,0,1-6.4-.83,18.48,18.48,0,0,1-5-2.33,34.4,34.4,0,0,1-4.31-3.4l4.27-5a22.64,22.64,0,0,0,5.3,3.8,13.29,13.29,0,0,0,6,1.34,14.59,14.59,0,0,0,6.28-1.22,9.11,9.11,0,0,0,3.92-3.4,9.42,9.42,0,0,0,1.34-5l.08-8.85.63,1.42a12.47,12.47,0,0,1-5.14,5.73,16.64,16.64,0,0,1-9,2.33,15.5,15.5,0,0,1-8.25-2.29,17.13,17.13,0,0,1-6-6.21A17.32,17.32,0,0,1,65,44.65a17.14,17.14,0,0,1,2.37-9,17.89,17.89,0,0,1,6.24-6.2,16.28,16.28,0,0,1,8.46-2.29A17.63,17.63,0,0,1,90,28.89a12.2,12.2,0,0,1,5.26,4.54l-.4,1.34.79-6.32h6.72v33a14.89,14.89,0,0,1-2.29,8.06,16.2,16.2,0,0,1-6.48,5.77A21.94,21.94,0,0,1,83.59,77.37ZM72.37,44.49a11.36,11.36,0,0,0,1.5,5.77,11.12,11.12,0,0,0,9.8,5.62,12.47,12.47,0,0,0,5.25-1.07,11.16,11.16,0,0,0,3.92-2.93,10.62,10.62,0,0,0,2.21-4.3V41.1A10.47,10.47,0,0,0,92.68,37a11.72,11.72,0,0,0-4-2.77,12.65,12.65,0,0,0-5.06-1,11.6,11.6,0,0,0-5.73,1.43,10.54,10.54,0,0,0-4.07,4A11.43,11.43,0,0,0,72.37,44.49Z" fill="#fff"/><path d="M115.12,61.17V0h7.19V36l-.15-1.35a13.54,13.54,0,0,1,5.09-5.37,15.08,15.08,0,0,1,8.1-2.13A10.87,10.87,0,0,1,143,29.91,9.41,9.41,0,0,1,146,37V61.17h-7.43V39.59a6.74,6.74,0,0,0-1.54-4.38,5.68,5.68,0,0,0-4.54-1.7,8.7,8.7,0,0,0-5.14,1.62,10.92,10.92,0,0,0-3.59,4.39,14.63,14.63,0,0,0-1.31,6.32V61.17Z" fill="#fff"/><path d="M162,14.07h7.35V28.61h9v5.77h-9V61.17H162V34.38h-6V28.61h6Z" fill="#fff"/><path d="M202.92,77.37a22.48,22.48,0,0,1-6.4-.83,18.76,18.76,0,0,1-5-2.33,34.31,34.31,0,0,1-4.3-3.4l4.27-5a22.6,22.6,0,0,0,5.29,3.8,13.31,13.31,0,0,0,6,1.34,14.62,14.62,0,0,0,6.28-1.22,9.13,9.13,0,0,0,3.91-3.4,9.34,9.34,0,0,0,1.35-5l.07-8.85L215,53.9a12.47,12.47,0,0,1-5.14,5.73,16.66,16.66,0,0,1-9,2.33,15.53,15.53,0,0,1-8.26-2.29,17.28,17.28,0,0,1-8.26-15,17.14,17.14,0,0,1,2.37-9A17.92,17.92,0,0,1,193,29.4a16.27,16.27,0,0,1,8.45-2.29,17.64,17.64,0,0,1,8,1.78,12.23,12.23,0,0,1,5.25,4.54l-.39,1.34.79-6.32h6.71v33a14.8,14.8,0,0,1-2.29,8.06A16.2,16.2,0,0,1,213,75.24,21.92,21.92,0,0,1,202.92,77.37ZM191.7,44.49a11.36,11.36,0,0,0,1.5,5.77,11.12,11.12,0,0,0,9.8,5.62,12.55,12.55,0,0,0,5.26-1.07,11.13,11.13,0,0,0,3.91-2.93,10.5,10.5,0,0,0,2.21-4.3V41.1A10.24,10.24,0,0,0,212,37a11.52,11.52,0,0,0-3.95-2.77,12.62,12.62,0,0,0-5.06-1,11.63,11.63,0,0,0-5.73,1.43,10.54,10.54,0,0,0-4.07,4A11.43,11.43,0,0,0,191.7,44.49Z" fill="#fff"/><path d="M244.81,62.43a10.2,10.2,0,0,1-7.31-2.72,9.82,9.82,0,0,1-3-7.08V28.45h7.35V50a7.21,7.21,0,0,0,1.54,4.34,5.56,5.56,0,0,0,4.38,1.74,8,8,0,0,0,4.94-1.62,11.7,11.7,0,0,0,3.52-4.42,14.5,14.5,0,0,0,1.34-6.37V28.45h7.35V61.17h-6.71l-.64-8.06.4,1.42a11.32,11.32,0,0,1-2.88,4.07,14.64,14.64,0,0,1-4.55,2.81A15.47,15.47,0,0,1,244.81,62.43Z" fill="#fff"/><path d="M284.17,28.45l.63,8-.32-1.26a12.65,12.65,0,0,1,5.14-5.81,15.43,15.43,0,0,1,8.22-2.17,10.87,10.87,0,0,1,7.63,2.72,9.48,9.48,0,0,1,3,7.08V61.17h-7.43V39.59a6.8,6.8,0,0,0-1.54-4.38,5.7,5.7,0,0,0-4.55-1.7,8.84,8.84,0,0,0-5.13,1.58,10.62,10.62,0,0,0-3.6,4.35,14.84,14.84,0,0,0-1.3,6.4V61.17h-7.35V28.45Z" fill="#fff"/><path d="M23.92,108.48a14.44,14.44,0,0,1-1.84.87,19.6,19.6,0,0,1-2.24.74,22.15,22.15,0,0,1-2.4.48,17.12,17.12,0,0,1-2.3.16,16.16,16.16,0,0,1-6.23-1.15,13.87,13.87,0,0,1-4.79-3.19,14.23,14.23,0,0,1-3-4.75A15.74,15.74,0,0,1,0,95.81,15.3,15.3,0,0,1,4.45,84.92a15,15,0,0,1,10.64-4.38,15.06,15.06,0,0,1,4.23.59A15.62,15.62,0,0,1,23,82.72L22.41,84a12.34,12.34,0,0,0-2.19-1.06,15.84,15.84,0,0,0-2.47-.69A13.09,13.09,0,0,0,15.18,82a13.56,13.56,0,0,0-9.77,4,13.82,13.82,0,0,0-3.95,9.78,14.29,14.29,0,0,0,1,5.34,13.13,13.13,0,0,0,2.73,4.3,12.64,12.64,0,0,0,4.29,2.91,14.37,14.37,0,0,0,5.6,1,17.52,17.52,0,0,0,3.89-.46,13.06,13.06,0,0,0,3.56-1.29V98.65H15.6V97.31h8.32Z" fill="#fff"/><path d="M38.63,110.4,51,79.58h.13L63.47,110.4H61.88L50.63,81.88l1-.46-11.54,29ZM44.2,98.65H58l.34,1.34H43.9Z" fill="#fff"/><path d="M79.07,110.4V80.29h0l14.26,20.24-.63,0L107,80.29h0V110.4h-1.38V83.68l.12.67L93,102.2H93L80.24,84.35l.25-.63V110.4Z" fill="#fff"/><path d="M125.06,80.88H143v1.38H126.48V94.84h14.85v1.34H126.48V109h17.06v1.38H125.06Z" fill="#fff"/><path d="M174.23,83.6a19.15,19.15,0,0,0-3.09-1.11,14.11,14.11,0,0,0-3.81-.52,7.42,7.42,0,0,0-4.93,1.54,4.88,4.88,0,0,0-1.84,3.89,4.23,4.23,0,0,0,1,2.91,8.44,8.44,0,0,0,2.7,1.94c1.12.53,2.3,1,3.55,1.55,1,.36,2,.77,2.95,1.21a14,14,0,0,1,2.64,1.61,7,7,0,0,1,1.9,2.36,7.79,7.79,0,0,1,.71,3.48,8,8,0,0,1-1.17,4.36,7.78,7.78,0,0,1-3.22,2.89,10.39,10.39,0,0,1-4.68,1,13.58,13.58,0,0,1-4.14-.58,16.57,16.57,0,0,1-3.12-1.3c-.85-.47-1.5-.85-1.94-1.13l.67-1.21a16.8,16.8,0,0,0,2.23,1.34,18.38,18.38,0,0,0,2.91,1.15,11,11,0,0,0,3.18.48,9.43,9.43,0,0,0,3.72-.77,7.17,7.17,0,0,0,2.95-2.32,6.41,6.41,0,0,0,1.15-3.89,5.89,5.89,0,0,0-1.11-3.75,8.25,8.25,0,0,0-2.84-2.25A38,38,0,0,0,167,94.93c-1-.36-1.89-.75-2.83-1.15a14.22,14.22,0,0,1-2.55-1.42,6.23,6.23,0,0,1-1.81-2,5.5,5.5,0,0,1-.67-2.8A6,6,0,0,1,160.16,84a7.1,7.1,0,0,1,2.89-2.39,10,10,0,0,1,4.12-.9,17.67,17.67,0,0,1,4,.5,16.43,16.43,0,0,1,3.68,1.3Z" fill="#fff"/></svg>