<svg enable-background="new 0 0 407.918 47.998" viewBox="0 0 407.918 47.998" xmlns="http://www.w3.org/2000/svg" xmlns:xlink="http://www.w3.org/1999/xlink"><linearGradient id="a" gradientUnits="userSpaceOnUse" x1="359.9596" x2="359.9596" y1="47.998" y2="0"><stop offset="0" stop-color="#f15822"/><stop offset="1" stop-color="#f6891f"/></linearGradient><path d="m407.918 0h-9.833-10.64-7.002-20.442-.083-23.972-3.475-20.47v47.998h47.917.083 38.084 9.833v-20.462l-6.463-6.543 6.463-6.543z" fill="url(#a)"/><path d="m341.946 6v12.056l-11.973-12.056h-11.972v35.998h11.972v-17.998l11.973 12.056v5.942h11.972v-35.998z" fill="#222"/><text fill="#ed1c24" font-family="ArialMT" font-size="1" transform="translate(392.6491 39.7607)">I hate bugs!</text><path d="m401.918 6h-11.972l-5.934 5.986-6.039-5.986h-11.972v5.986l9 9.007-9 9.007v2.542 1.236 8.22h11.972v-8.22-1.236l6.039-5.542 5.934 5.542v1.236 8.22h11.972v-8.22-1.236-2.542l-8.896-9.007 8.896-9.007z" fill="#222"/><path d="m249.46 0-9.459 9.459v-9.459h-48v9.509h-.021l-9.541-9.509h-29.438-8.996-.087-23.913-.004-24v9.516l-9.51-9.516h-28.975l-9.515 9.515v20.484h-12.028v-17.999l-11.971-12h-24.002v47.998h36.335 11.666 9.516 28.974 9.51 6 8.485l9.517-9.514 9.518 9.514h14.397.087 16.83 7.083 6.536 17.526.021 12 35.986.014 38.527l9.473-9.473v-4.025-13.011-3.531-5.958-12z" fill="#fff"/><g fill="#222"><path d="m18.003 6h-12.003v35.998h6.376 5.627 23.998v-5.999h-23.998z"/><path d="m60.001 6-6 6v24l6 5.998h24.004l5.996-5.998v-24l-5.996-6zm18 29.998h-12v-23.998h12z"/><path d="m126.005 24-6.002-5.5-6.002 5.5v-18h-12v35.998h6l12.002-11.998 12.002 11.998h6v-35.998h-12z"/><path d="m161.918 6h-12v18 17.998h12v-15.081l15.028 15.081h9.035v-5.998l-11.978-12h5.957l6.021-6v-6l-6.021-6zm12.083 12h-12.083v-6h12.083z"/><path d="m200.168 6h-2.167v35.998h2.167 9.833 24v-6h-24v-11.998h12v-6h-12v-6h24v-6h-24z"/><path d="m245.987 11.958v6.084l5.959 5.958h18.083v12.04h-24.042v5.958h30.056l5.958-5.958v-12.041l-6.041-5.957h-18.014v-6.084h24.055v-5.958h-30.055z"/></g></svg>