<?xml version="1.0" encoding="UTF-8"?>
<svg id="Calque_2" data-name="Calque 2" xmlns="http://www.w3.org/2000/svg" viewBox="0 0 571.31 212.24">
  <g id="Calque_1-2" data-name="Calque 1">
    <g>
      <path d="m65.71,212.18C31.71,213.21-.21,183.48,0,144.84c.19-35.18,28.33-66.83,67.93-66.56,35.04.24,65.38,30.23,65.25,67.75-.12,35.09-30.09,67.76-67.47,66.14Zm9.27-94.54c0,11.18,8.03,19.4,18.97,19.42,10.8.02,19.71-8.56,19.74-19.02.03-10.65-9.05-19.85-19.61-19.89-8.94-.04-19.8,7.86-19.09,19.49Zm24.68,29.49c-5.34-.05-9.72,1.73-11.45,4.79-.81,1.44-1.86,3.2-.12,4.48,1.45,1.07,2.95.09,3.81-1.27,2.46-3.87,6.23-3.26,9.86-2.95,2.45.21,3.97,1.65,4.13,4.2.15,2.42-1.34,3.71-3.45,4.24-2.41.61-4.89,1-7.33,1.5-7.36,1.5-10.52,4.78-9.87,10.24.62,5.25,5.62,8.31,12.58,7.72.17-.01.35.02.5-.04,4.3-1.62,8.59-2.28,12.99-.26.89.41,2.03.11,2.66-.83.68-1.03.17-1.93-.64-2.62-2.34-1.97-2.27-4.66-2.27-7.35,0-3.5,0-7-.01-10.5-.04-8.57-2.76-11.28-11.37-11.36Zm-20.64,16.77s.02,0,.03,0c0-3.83.05-7.66-.02-11.48-.03-1.59.3-3.7-2.06-3.88-2.6-.19-2.76,1.93-2.79,3.8-.08,4.33-.08,8.65-.08,12.98,0,2.37-.29,4.67-1.58,6.71-1.85,2.95-4.44,4.42-7.99,3.84-3.61-.59-4.83-3.2-5.23-6.39-.19-1.48-.18-2.99-.18-4.48.01-4.49.02-8.99.12-13.48.03-1.63,0-3.12-2.13-3.17-1.83-.04-2.69,1.09-2.88,2.79-.11.99-.12,1.99-.12,2.99,0,5.33-.04,10.65.03,15.98.09,7.48,2.89,10.08,10.43,10.04,2.76-.01,5.24-.73,7.55-2.18,1.15-.72,2.11-1.32,3.54-.16,2.41,1.96,3.26.22,3.32-1.94.12-3.99.04-7.99.04-11.98Zm-56.95-6.46h.02c0,5.82.05,11.64-.02,17.46-.04,2.94,1.22,4.23,4.17,4.2,6.14-.07,12.28.02,18.42-.04,1.58-.01,3.7.33,3.89-2.03.2-2.6-1.93-2.78-3.79-2.8-4.65-.05-9.31-.19-13.93.13-2.94.2-3.86-.82-3.83-3.58.08-7.15.02-14.3.01-21.45,0-3.32,0-6.65-.06-9.97-.03-1.61-.46-3.09-2.47-3.04-2,.05-2.29,1.59-2.37,3.17-.05,1-.05,1.99-.05,2.99,0,4.99,0,9.97,0,14.96Z" style="fill: #fff; stroke-width: 0px;"/>
      <path d="m571.27,92.93c.16,8.98-.99,17.51-4.05,25.73-5.85,15.7-20.98,25.77-37.66,26.52-26.16,1.18-43.08-18.96-44.44-41.52-.67-11.09-1.02-21.94,2.43-32.59,5.65-17.45,20.4-29.27,38.57-29.63,18.67-.37,32.75,7.27,41.09,27.26,3.24,7.75,4.36,16.04,4.06,24.23Zm-23.02-.23c.31-4.98-.18-9.9-1.81-14.7-3.27-9.61-10.4-13.93-21.41-12.89-8.22.78-15.2,7.61-16.59,16.24-.95,5.92-1.45,11.9-.97,17.87.55,6.89,1.83,13.92,7.51,18.4,10.37,8.17,27.06,4.74,31.31-9.14,1.57-5.13,2.29-10.37,1.95-15.79Z" style="fill: #fff; stroke-width: 0px;"/>
      <path d="m292.7,78.94c-.5,10.3.61,20.62-.9,30.92-2.83,19.38-19.59,34.87-40.65,35.5-23.14.7-41.71-20.92-41.68-40.92.02-12.44-.33-24.95-.64-37.42-.13-5.36.64-10.63,1.01-15.93.41-5.78,5.36-10.05,11.13-9.93,6.22.13,11.64,4.84,11.75,10.64.19,9.82.31,19.66.07,29.48-.21,8.85.6,17.64,1.14,26.42.68,10.99,9.03,15.38,20.56,14,8.95-1.07,14.04-7.38,14.18-17.05.2-13.15.1-26.31.1-39.47,0-4.17.54-8.31.67-12.44.19-6.49,5.5-11.42,11.55-11.41,6.23.01,11.35,5.29,11.61,12.13.25,6.82.1,13.65.12,20.48,0,1.67,0,3.33,0,5Z" style="fill: #fff; stroke-width: 0px;"/>
      <path d="m333.84,0c7.39.06,11.72,4.36,11.76,11.76.05,8,0,15.99.09,23.99.05,4.98.39,5.23,5.49,5.36,3.65.09,7.32-.32,10.95.39,5.1,1,8.21,4.23,9.69,9.03,1.38,4.5-.64,8.11-3.55,11.33-2.16,2.39-5.08,3.08-8.14,3.17-3.49.11-6.99.13-10.48.08-2.67-.04-4.05,1.05-3.97,3.84.32,11.81-.65,23.64.61,35.44.3,2.81.2,5.65.26,8.48.15,6.24,2.97,9.11,9.23,9.1,1.97,0,3.94-.56,5.91-.79,7.67-.9,13.09,2.81,13.87,9.48.95,8.13-2.97,13.29-10.86,14.39-10.2,1.43-20.1.45-28.55-5.79-7.32-5.4-11.76-12.79-12.68-22.26-1.48-15.3-.47-30.62-.84-45.93-.14-5.71-.08-5.71-5.87-5.99-7.55-.37-12.03-4.68-12.17-11.73-.14-6.96,4.24-11.5,11.79-12.21q6.21-.58,6.24-6.66c.03-7.66-.12-15.33.12-22.99C322.98,4.43,327.5-.05,333.84,0Z" style="fill: #fff; stroke-width: 0px;"/>
      <path d="m429.91,40.85c15.91-.07,27.3,7.34,35.15,20.76,2.54,4.35,3.12,8.72-.05,13.1-2.75,3.8-6.26,5.84-11.08,5.31-3.84-.43-6.27-2.8-8.35-5.73-6.45-9.07-12.72-11.47-23.53-8.77-5.78,1.44-8.81,5.7-10.33,11.13-.85,3.04-1.18,6.19-1.17,9.39.03,14.33-.04,28.66-.07,42.98,0,2.34-.09,4.65-.69,6.94-1.33,5.07-5.29,8.49-10.24,8.73-4.79.24-9.85-3.42-11.37-8.19-.57-1.78-.64-3.6-.64-5.44,0-15.66-.15-31.32.08-46.98.13-8.39,1.61-16.65,6.2-23.88,8.37-13.2,20.81-18.99,36.08-19.35Z" style="fill: #fff; stroke-width: 0px;"/>
      <path d="m188.86,73.03c0,19.98.04,39.95-.02,59.93-.03,8.69-7.93,13.96-15.84,10.57-3.35-1.43-5.8-3.76-6.24-7.74-.34-3.14-.86-6.24-.86-9.43.04-35.96.04-71.91.02-107.87,0-3.02.21-5.99,1.03-8.89,1.51-5.33,5.4-7.92,11.33-7.6,5.19.28,9.71,4.19,10.37,9.12.22,1.64.15,3.32.15,4.99,0,18.98,0,37.95,0,56.93h.05Z" style="fill: #fff; stroke-width: 0px;"/>
      <path d="m133.29,59.03c10.9-.01,19.7,8.88,19.53,19.74-.16,10.54-8.99,19.23-19.63,19.32-11.22.09-19.28-8.12-19.3-19.67-.03-11.6,7.76-19.38,19.41-19.39Z" style="fill: #fff; stroke-width: 0px;"/>
      <path d="m452.97,168.92c1.07-3.14,2.21-6.25,3.17-9.42.76-2.49,2.41-3.38,4.87-3.35,2.58.03,5.1.1,6.19,3.05,1.2,3.26,2.34,6.54,3.53,9.86,2.09-.4,1.81-2.02,2.16-3.11.76-2.38,1.14-4.89,2.05-7.19.94-2.35,5.51-3.57,7.87-2.21,2.63,1.51.89,3.49.26,5.21-1.9,5.16-4.02,10.23-5.85,15.41-1.07,3.04-3.09,3.92-6.1,3.95-2.9.03-4.6-.96-5.65-3.75-1.04-2.75-1.6-5.74-3.53-8.62-2.34,2.39-2.57,5.3-3.46,7.84-.99,2.83-2.44,4.46-5.7,4.52-3.31.05-5.23-1.15-6.35-4.33-1.78-5.02-4.03-9.87-5.78-14.9-.58-1.67-3.16-3.92.19-5.46,2.96-1.36,6.9.06,8.07,2.81.71,1.67,1.07,3.5,1.6,5.25.47,1.54.95,3.07,1.43,4.6.34-.05.68-.1,1.02-.15Z" style="fill: #fff; stroke-width: 0px;"/>
      <path d="m165.45,163.16c8.92,0,10,1.68,6.46,9.86-1.71,3.96-4.57,6.37-8.75,7.45-8.26,2.12-16.86-1.5-19.72-8.42-3.54-8.56-1.01-18.72,5.67-22.77,6.71-4.08,17.38-2.55,21.93,3.22,1.44,1.83,2.98,3.92,2.15,6.33-.67,1.94-2.85,1.26-4.42,1.31-2.64.08-5.47.45-6.49-3.07-.27-.94-.75-1.87-1.3-2.69-1.98-2.98-4.78-2.96-5.98.3-2.31,6.24-2.39,12.69-.54,19.1.46,1.6,1.82,2.35,3.52,2.16,2.57-.28,3.58-2.12,4.19-4.33.41-1.47.16-2.69-1.46-3.18-1.7-.52-4.06-.49-3.33-3.22.61-2.29,2.8-1.95,4.59-2.04,1.16-.06,2.33-.01,3.49-.02Z" style="fill: #fff; stroke-width: 0px;"/>
      <path d="m205.77,169.41c0-2.33.08-4.66-.02-6.99-.14-3.17,1.23-4.84,4.41-4.38,3.34.48,6.48.2,9.72-.81,2.16-.68,4.95-.93,6.77.52,3.04,2.42,5.29,1.24,7.99-.44,5.19-3.22,12.74.49,12.24,7.17-.3,4.14-.12,8.31-.04,12.47.06,3.02-1.38,4.13-4.27,4.08-2.78-.05-3.86-1.36-3.82-4.02.05-3.16,0-6.32-.03-9.48-.03-2.52-.68-4.71-3.61-5.13-2.45-.35-4.83,1.88-5.1,5.01-.24,2.81-.18,5.65-.11,8.48.07,2.99-.37,5.22-4.21,5.18-4-.04-4-2.58-3.98-5.4.02-2.99.04-5.99-.07-8.98-.09-2.3-.68-4.49-3.56-4.47-2.96.03-3.28,2.3-3.32,4.59-.05,3.33-.07,6.65-.06,9.98.02,3.26-1.77,4.27-4.77,4.28-2.95,0-4.28-1.22-4.18-4.18.09-2.49.02-4.99.02-7.48Z" style="fill: #fff; stroke-width: 0px;"/>
      <path d="m368.49,169.47c0-2.5.04-4.99,0-7.49-.05-2.65,1.12-4.31,3.84-3.92,3.85.56,7.49-.09,11.2-.95,2.06-.48,4.57-.63,6.27.8,2.67,2.25,4.7,1.3,7.07-.35,5.14-3.57,13.39-.2,12.76,7.36-.32,3.8-.13,7.65-.03,11.47.08,3-.85,4.72-4.23,4.65-3.15-.06-3.97-1.72-3.91-4.47.07-2.99.03-5.99-.02-8.98-.04-2.72-.74-5.23-4.03-5.15-2.92.06-4.47,2.14-4.66,4.92-.22,3.15-.19,6.32-.13,9.48.06,2.92-1.15,4.23-4.14,4.23-3.06,0-4.1-1.49-4.04-4.33.06-3.32.04-6.65-.07-9.98-.08-2.56-.9-4.7-4.01-4.59-2.81.1-3.55,2.14-3.62,4.47-.11,3.49-.12,6.99-.09,10.48.02,2.7-1.2,3.89-3.92,3.94-2.91.05-4.35-1.09-4.25-4.1.08-2.49.02-4.99.02-7.49Z" style="fill: #fff; stroke-width: 0px;"/>
      <path d="m551.97,169.23c-.04,2.93.02,5.06-.38,7.17-.79,4.12-5.21,6.29-8.8,4.2-1.18-.69-1.43-1.79-1.43-2.97-.02-8.82-.02-17.65-.01-26.47,0-3.84,2.66-3.96,5.5-4.04,3.09-.08,4.65,1.08,4.56,4.36-.07,2.45-.31,4.96.5,7.87,2.46-1.06,3.54-3.15,5-4.79.88-.99,1.6-2.14,2.57-3.03,1.3-1.19,3.04-2,4.44-.55,1.28,1.32-.35,2.49-1.17,3.33-3.43,3.54-3.63,6.85-.57,10.93,2.87,3.84,4.94,8.27,7.46,12.39,1.43,2.34.8,3.2-1.83,3.44-4.63.42-8.46-.3-10.71-5.1-1.03-2.2-2.38-4.38-5.12-6.74Z" style="fill: #fff; stroke-width: 0px;"/>
      <path d="m297.42,147.15c3.33,0,6.65,0,9.98,0,2.55,0,4.14,1.03,4.09,3.84-.06,2.8-1.95,3.12-4.11,3.13-2.33,0-4.66,0-6.99.02-5.73.02-6.8.58-6.64,3.61.24,4.61,3.85,3.05,6.39,3.36,1.31.16,2.66.03,3.99.12,1.84.12,3.25.84,3.32,2.95.08,2.26-1.43,2.65-3.26,2.85-3.24.37-7.14-1.36-9.58,1.17-2.25,2.33-.71,6.08-.98,9.18-.32,3.56-2.74,3.61-5.36,3.68-2.69.07-4.56-.61-4.54-3.81.05-8.83.03-17.66.02-26.49,0-2.51,1.26-3.63,3.7-3.62,3.33.02,6.65,0,9.98,0Z" style="fill: #fff; stroke-width: 0px;"/>
      <path d="m366.61,169.48c0,2.49-.07,4.98.02,7.46.1,3-1.35,4.17-4.23,4.12-4.3-.08-8.62.16-12.91-.11-6.42-.4-10.57-4.98-10.77-11.47-.19-6.29,4.34-11.85,10.55-12.31,4.61-.34,9.27-.04,13.9,0,2.55.02,3.47,1.5,3.45,3.85-.02,2.82,0,5.64,0,8.46Zm-10.08-.43s-.03,0-.04,0c0-1.98.09-3.97-.03-5.94-.09-1.44-.94-2.49-2.42-2.75-1.44-.25-2.58.4-3.43,1.53-1.61,2.13-1.41,11.8.3,13.92.85,1.05,1.83,1.99,3.35,1.61,1.48-.37,2.18-1.48,2.25-2.91.09-1.81.02-3.63.02-5.45Z" style="fill: #fff; stroke-width: 0px;"/>
      <path d="m203.86,169.41c0,2.66-.02,5.33,0,7.99.02,2.5-1.25,3.64-3.69,3.63-4.49-.02-8.99.19-13.46-.08-6.27-.38-10.47-4.89-10.7-11.06-.23-6.22,4.42-12.22,10.35-12.69,4.62-.37,9.3-.05,13.95-.04,2.51,0,3.58,1.34,3.55,3.76-.03,2.83,0,5.66-.01,8.49Zm-10.03-.19c.05,0,.11,0,.16,0-.1-2.14-.14-4.28-.33-6.41-.11-1.24-.9-2.11-2.16-2.41-1.46-.34-2.54.27-3.4,1.43-1.72,2.34-1.77,11.56-.02,13.86.82,1.08,1.8,2.04,3.29,1.74,1.72-.34,2.38-1.66,2.44-3.28.06-1.65.01-3.3.01-4.94Z" style="fill: #fff; stroke-width: 0px;"/>
      <path d="m500.04,157.03c10.35.06,16.07,7.1,13.08,16.08-1.74,5.23-6.24,6.85-10.85,7.57-5.1.79-10.12-.33-13.41-4.79-2.75-3.72-3.04-8-1.15-12.32,2.39-5.43,7.06-6.56,12.33-6.54Zm-3.74,10.95c.12,2.67-.16,4.53.51,6.29.57,1.52,1.65,2.51,3.32,2.61,1.74.1,2.93-.88,3.39-2.41,1.18-3.92,1.18-7.88-.26-11.75-.57-1.53-1.84-2.39-3.52-2.24-1.69.16-2.75,1.32-3.04,2.88-.33,1.78-.32,3.63-.4,4.61Z" style="fill: #fff; stroke-width: 0px;"/>
      <path d="m424.81,181.04c-6.29-.05-11.54-3.64-12.98-8.9-1.41-5.13.78-10.36,5.54-13.24,4.79-2.91,12.45-2.35,16.37,1.18,1.01.91,1.71,2.02,2.26,3.24,2,4.44,1.28,5.63-3.52,5.75-2.65.06-5.3.03-7.96.09-1.7.04-2.86.84-2.98,2.66-.14,2.03-.2,4.25,1.9,5.26,2.27,1.09,3.49-.61,3.91-2.5.81-3.62,3.42-3.59,6.16-3.38,2.86.22,3.28,1.81,2.07,4.12-2.29,4.35-6.15,5.76-10.77,5.72Zm2.34-18.02c-.09-1.6-.95-2.53-2.46-2.67-1.52-.13-2.61.64-2.86,2.17-.29,1.78.9,2.35,2.4,2.41,1.39.05,2.71-.15,2.92-1.91Z" style="fill: #fff; stroke-width: 0px;"/>
      <path d="m262.18,181.01c-6.76-.02-11.23-3.09-12.88-8.83-1.44-5.03.74-10.4,5.4-13.31,4.62-2.88,12.49-2.27,16.35,1.26,1,.91,1.7,2.02,2.24,3.25,1.95,4.43,1.23,5.58-3.6,5.69-2.32.05-4.64.01-6.96.03-1.93.02-3.77.28-3.92,2.76-.12,2.01-.24,4.22,2.27,4.9,2.12.57,3.44-.71,4.24-2.56.45-1.06.65-2.35,1.95-2.69,1.94-.51,4.24-1.05,5.64.57,1.62,1.88-.03,3.76-1.25,5.29-1.73,2.17-5.84,3.65-9.48,3.64Zm-.65-20.7c-1.51.25-2.51,1.06-2.46,2.63.05,1.82,1.47,2.02,2.86,1.98,1.49-.04,2.69-.62,2.43-2.39-.22-1.55-1.33-2.2-2.83-2.23Z" style="fill: #fff; stroke-width: 0px;"/>
      <path d="m312.7,169.16c0-1.16,0-2.32,0-3.48.01-7.82.49-8.34,8.12-7.6,2.49.24,4.87.68,7.26-.49,1.06-.52,2.27-.28,3.42,0,2.56.62,4.61,1.84,5.5,4.49.34,1.03.32,2.2-.8,2.55-2.44.76-4.69.61-6.99-1.08-3.52-2.59-5.4-1.56-5.59,2.82-.14,3.31.04,6.64-.09,9.95-.16,4.05-.96,4.7-5.25,4.74-4.53.04-5.35-.68-5.58-4.92-.02-.33-.01-.66-.01-1,0-1.99,0-3.98,0-5.97Z" style="fill: #fff; stroke-width: 0px;"/>
      <path d="m515.35,169.39c0-1.49,0-2.99,0-4.48.02-6.84.29-7.15,6.9-6.91,2.96.11,5.83.3,8.83-.44,3.23-.8,6.27.42,8.09,3.5,1.39,2.36.62,3.71-2.13,3.97-2.05.19-3.73-.45-5.48-1.73-3.03-2.22-4.75-1.32-5.3,2.45-.52,3.61-1.08,7.23-.83,10.9.25,3.66-1.79,4.47-4.95,4.44-3-.03-5.32-.42-5.14-4.24.12-2.48.02-4.98.02-7.47h-.02Z" style="fill: #fff; stroke-width: 0px;"/>
      <path d="m97.71,176.06c-3.09,0-5.76-1.09-6.38-4.3-.6-3.16,1.8-4.79,4.44-5.68,2.18-.73,4.48-1.11,6.73-1.59,2.35-.5,3.35.59,3.41,2.91.12,5.03-3.24,8.62-8.2,8.65Z" style="fill: #fff; stroke-width: 0px;"/>
    </g>
  </g>
</svg>