<?xml version="1.0" encoding="UTF-8"?>
<svg id="Calque_2" data-name="Calque 2" xmlns="http://www.w3.org/2000/svg" viewBox="0 0 632.57 154.89">
  <g id="Calque_1-2" data-name="Calque 1">
    <g>
      <path d="m0,83.96c.57-20.06,7.26-35.54,25.18-44.6,7.91-4,16.13-4.91,24.65-2.16,2.69.87,5.43,1.61,8.04,2.68,8.01,3.29,15.72,2.65,23.7-.57,16.74-6.77,31.7-3.59,43.45,8.46,2.68,2.75,2.98,4.35-.39,6.97-19.91,15.52-17.55,43.81,4.61,56.33,2.56,1.45,3.84,2.69,2.31,5.78-5.54,11.18-11.66,21.95-20.79,30.7-8.17,7.84-15.66,9.23-25.89,4.55-10.13-4.62-20.13-4.71-30.35-.21-11.8,5.19-19.48,3.86-28.32-5.62C9.61,128.45,1.17,107.15,0,83.96Z" style="fill: #fff; stroke-width: 0px;"/>
      <path d="m246.75,136.77c-1.11,1.77-2.84,2.13-4.75,2.13-7.65,0-15.31.02-22.96-.02-1.28,0-3.14.22-3.37-1.37-.28-1.99,1.82-2.13,3.16-2.41,4.45-.93,6.03-3.94,5.83-7.99-1.08-22.64-1.81-45.29-2.06-67.96,0-.4-.36-.8-1-2.12-2.68,8.98-5.18,17.12-7.54,25.3-5.1,17.66-10.13,35.33-15.17,53.01-.37,1.3-.58,2.86-2.3,2.73-2.04-.16-2.38-2.03-2.86-3.61-4.5-14.9-8.99-29.8-13.52-44.7-2.12-6.97-4.39-13.89-5.79-21.06-.71-3.65-1.7-7.3-3.48-10.68-1.25.66-.96,1.57-.98,2.32-.37,13.73-.89,27.45-1.01,41.18-.07,7.29-.62,14.54-.97,21.81-.26,5.49,1.74,9.7,7.39,11.58,1.19.4,2.93.69,2.74,2.39-.19,1.76-1.94,1.57-3.2,1.58-6.49.06-12.98.05-19.46.01-1.3,0-3.01.12-3.36-1.46-.37-1.69,1.27-2.23,2.54-2.45,6.48-1.12,8.59-5.56,8.91-11.39.15-2.81.25-5.62.25-8.44.04-20.35.73-40.69,1.93-61,.06-.99.07-1.99.08-2.98.09-7.56-.46-8.2-7.86-10.25-1.56-.43-4.35-.01-3.93-2.66.3-1.88,2.63-1.69,4.25-1.71,4.66-.07,9.32.08,13.97-.08,3.26-.11,4.77,1.45,5.65,4.37,7.18,23.76,14.43,47.5,21.99,72.34,2.04-6.82,3.88-12.84,5.65-18.89,5.02-17.17,10.14-34.3,14.91-51.54,1.34-4.84,3.7-6.96,8.78-6.36,3.29.39,6.65.14,9.96.32,1.14.06,2.45.41,2.68,1.8.25,1.5-1.09,1.83-2.12,2.33-7.18,3.44-6.98,3.7-6.39,11.71.79,10.72,1.12,21.48,1.36,32.22.28,12.9,1.66,25.78,1.65,38.64,0,8.01,2.99,11.99,10.42,13.45l-.05-.07Z" style="fill: #fff; stroke-width: 0px;"/>
      <path d="m246.81,136.84c-5.58-10.24-1.9-18.24,5.89-25.55,6.45-6.05,14.29-10.26,20.74-16.27.48-.45,1.09-.78,1.55-1.25,2.39-2.49,2.48-21.45.14-24.01-2.48-2.7-8.71-1.68-12,2.1-2.54,2.92-3.98,6.47-5.42,10.01-1.12,2.76-2.16,5.61-4.28,7.79-2.11,2.17-4.83,3.33-7.69,1.93-2.79-1.37-2.13-4.26-1.77-6.67.41-2.83,1.87-5.32,3.46-7.64,5.88-8.62,22.51-15.12,32.77-13.1,4.7.92,7.43,3.49,8.01,8.19.3,2.45.5,4.94.51,7.41.05,14.57.01,29.13.04,43.7,0,1.81.04,3.65.35,5.43.29,1.69,1.2,3.18,3.07,3.53,2.05.38,2.98-1.02,3.68-2.64.13-.3.2-.71.43-.89,5.42-4.16,3.05-9.12,1.97-14.32-3.3-15.86-1.54-30.85,10.57-42.86,8.33-8.26,18.66-10.48,29.97-7.12,7.08,2.1,11.06,14.12,6.78,20.15-1.95,2.74-4.14,1.87-5.6-.42-1.5-2.35-2.53-5.01-3.68-7.58-4.7-10.49-12.76-11.47-19.58-2.15-6.58,8.99-8.17,19.47-7.6,30.2.39,7.41,1.56,14.79,5.99,21.25,3.8,5.54,8.67,8.49,15.56,7.78,6.5-.67,9.8-4.88,12.2-10.35.67-1.52.33-4.84,3.31-3.69,2.23.86,1.33,3.43.82,5.34-2.31,8.58-7.75,14.37-16.42,16.27-9.11,2.01-17.13-.62-23.31-7.83-1.7-1.98-3.17-4.16-5.17-6.81-1.13,4.28-2.95,7.58-5.48,10.44-6.05,6.83-13.45,5.81-17.43-2.37-2.53-5.21-2.58-5.25-6.8-.98-2.36,2.39-4.91,4.48-7.93,5.94-6.86,3.32-11.74,2.44-17.68-3.04,0,0,.05.07.05.07Zm29.87-25.68c0-2.48.08-4.96-.03-7.44-.06-1.41.74-3.42-.81-4.08-1.72-.74-2.97,1.06-4.13,2.15-3.51,3.28-6.93,6.67-10.36,10.03-2.43,2.37-4.02,5.29-5.06,8.45-1.64,5.01-.24,10.17,3.07,12.11,3.65,2.15,8.16.33,12.44-3.38,5.84-5.07,4.94-11.45,4.88-17.83Z" style="fill: #fff; stroke-width: 0px;"/>
      <path d="m447.43,101.03c0-7.94-.04-15.89.01-23.83.02-2.76-.47-4.72-3.83-5.22-3.57-.53-3.86-3.02-1.84-5.43,5.13-6.12,9.66-12.62,13.62-19.53.47-.82,1.08-1.89,2.27-1.58,1.37.35,1.51,1.71,1.55,2.82.13,3.47.38,6.97.11,10.41-.39,4.84,1.22,7.26,6.42,6.65,1.45-.17,3,.03,4.45.32,1.57.32,2.77,1.34,2.79,3.06.01,1.72-1.18,2.69-2.74,3.1-.95.25-1.97.3-2.96.35q-7.88.4-7.89,8.08c0,13.57,0,27.14,0,40.71,0,.83-.02,1.66.01,2.48.13,2.96-.22,6.2,2.97,7.89,1.95,1.04,4.01.38,5.54-1.06,2.68-2.53,4.27-5.58,2.95-9.35-1.85-5.33-3.54-10.72-3.96-16.36-.86-11.45,1.47-22.17,8.93-31.17,12.91-15.58,31.51-14.5,43.08,2.28,11.73,17,9.65,42.27-4.68,56.89-10.48,10.69-23,11.13-33.82.71-3.43-3.3-5.61-4.55-8.31.39-.84,1.53-2.43,2.72-3.84,3.86-7.94,6.41-17.03,3.5-19.74-6.28-.76-2.72-1.11-5.5-1.09-8.34.05-7.28.02-14.56.01-21.84Zm67.01,2.69c-1.49-8.61-.55-17.23-4.31-25.14-3.09-6.49-7.72-10.88-15.21-10.94-5.9-.05-10.8,5.2-13.2,13.1-2.84,9.37-2.92,18.98-1.96,28.52.82,8.1,3.13,15.89,8.53,22.42,2.27,2.74,5.03,4.14,8.61,4.2,7.24.12,13.29-5.05,15.09-13.83,1.25-6.13,1.7-12.42,2.46-18.33Z" style="fill: #fff; stroke-width: 0px;"/>
      <path d="m379.37,138.89c-7.82,0-15.64.03-23.46-.03-1.38-.01-3.38.37-3.57-1.71-.15-1.67,1.62-1.93,2.85-2.22,3.4-.8,4.39-3.11,4.39-6.27-.03-15.24-.03-30.47,0-45.71,0-3.72-1.43-6.32-5.09-7.64-3.26-1.18-2.8-2.9-.28-4.43,3.69-2.24,7.44-4.39,11.22-6.47,3-1.65,4.99-.7,5,2.74.05,11.58.58,23.18-.3,34.75-.65,8.6-.88,17.22.04,25.78.63,5.83,4.7,8.09,10.37,6.61,2.96-.77,4.78-2.55,4.8-5.55.1-16.23.09-32.46.07-48.69,0-2.96-1.68-4.5-4.67-4.74-1.25-.1-2.99.23-3.26-1.51-.23-1.49,1.23-2.26,2.29-3,3.82-2.65,7.73-5.17,11.53-7.85,2.39-1.69,3.64-1.08,4.05,1.68.1.65.02,1.33.13,1.98.24,1.56-.69,3.72,1.15,4.48,1.73.71,2.88-1.26,4.21-2.14,3.48-2.29,6.92-4.54,11.06-5.58,12.5-3.16,22.44,3.01,24.67,15.61,1.8,10.19.54,20.49.82,30.74.15,5.63.1,11.26.01,16.89-.06,4.2.82,7.59,5.72,8.46,1.12.2,2.43.74,2.23,2.21-.2,1.48-1.6,1.54-2.75,1.55-7.32.03-14.64.02-21.96-.02-.99,0-2.17-.19-2.37-1.37-.2-1.22.93-1.68,1.86-1.97,4.75-1.49,5.44-5.09,5.4-9.43-.12-13.75-.01-27.49-.06-41.24-.03-9.23-4.14-14.7-11.46-15.46-8.23-.85-16.11,5.04-17.64,13.46-1.58,8.7-.57,17.51-.66,26.27-.07,6.44-.49,12.9.44,19.34.57,3.96,2.09,6.51,6.56,6.52,1.54,0,3.94-.02,3.74,2.22-.19,2.12-2.55,1.7-4.12,1.71-7.65.07-15.31.03-22.96.03Z" style="fill: #fff; stroke-width: 0px;"/>
      <path d="m626.28,105.37c0,6.62.06,13.25-.02,19.87-.05,4.17.42,7.98,4.79,10.04.9.42,1.83,1.1,1.42,2.29-.38,1.1-1.51,1.25-2.5,1.25-6.49.04-12.97.04-19.46,0-.99,0-2.17-.09-2.5-1.22-.35-1.22.72-1.76,1.64-2.1,4.78-1.78,5.52-5.61,5.49-10.05-.09-11.92,0-23.84-.06-35.77-.01-2.3-.31-4.62-.74-6.89-1.53-8-5.59-12.15-12-12.45-7.13-.34-13.75,4.29-15.89,11.2-.49,1.57-.98,3.23-.99,4.85-.1,13.58-.16,27.15-.05,40.73.03,4.34,2.65,6.95,6.75,8.22,1.07.33,2.56.67,2.25,2.16-.29,1.37-1.77,1.33-2.91,1.34-7.49.03-14.97.04-22.46,0-1.09,0-2.61.19-2.75-1.39-.11-1.18,1.17-1.5,2.08-1.81,4.69-1.61,5.96-5.05,5.94-9.71-.12-25.33-.11-50.67,0-76,.02-4.34-1.12-7.4-5.74-8.5-3.47-.83-3.18-2.53-.52-4.12,3.99-2.38,8.13-4.52,12.16-6.82,3.69-2.11,5.13-.91,5.11,3.11-.06,10.27-.05,20.53.03,30.8.02,2.09-1.05,5,.72,6.09,1.94,1.2,3.73-1.42,5.46-2.52,3.72-2.36,7.7-4.01,12.03-4.54,12.28-1.5,22.06,6.88,22.6,19.58.32,7.44.06,14.9.06,22.35.03,0,.06,0,.08,0Z" style="fill: #fff; stroke-width: 0px;"/>
      <path d="m525.16,126.48c.21-2.63.29-5.28.68-7.89.22-1.46.93-2.98,2.72-3.15,1.83-.17,2.61,1.26,3.19,2.65,1.29,3.05,2.54,6.12,3.7,9.22,1.91,5.07,5,8.53,10.91,8.56,5.46.03,9.25-2.63,11.38-7.39,2.38-5.33,2.46-10.69-1.76-15.31-4.41-4.83-10.2-7.92-15.52-11.59-3.31-2.29-6.44-4.75-8.75-8.03-6.74-9.55-3.46-22.8,7.07-27.97,8.03-3.95,16.31-4.02,24.64-.67,2.65,1.06,3.99,2.72,3.9,5.62-.1,3.31,0,6.62-.04,9.93-.02,1.33-.14,2.82-1.75,3.2-1.84.44-2.75-.87-3.32-2.32-.73-1.85-1.26-3.77-1.94-5.63-1.97-5.41-5.83-8.35-11.13-8.36-5,0-8.54,2.33-10.57,6.9-2.11,4.77-1.2,8.75,3.22,12.93,4.61,4.37,10.33,7.22,15.48,10.84,9.63,6.78,13.49,15.8,10.86,25.57-3.12,11.6-14.02,19.07-26.06,17.83-1.16-.12-2.3-.36-3.46-.47-11.53-1.14-13.28-3.04-13.45-14.47Z" style="fill: #fff; stroke-width: 0px;"/>
      <path d="m63.96,31.95c.21-14.53,12.95-28.61,28.25-31.81,2.6-.54,3.55.58,3.86,3.07,1.8,14.28-12.5,32.44-26.83,34.16-5,.6-5.59-2.17-5.28-5.42Z" style="fill: #fff; stroke-width: 0px;"/>
      <path d="m371.39,45.39c-.24,4.94-2.8,8.16-6.29,7.94-3.67-.24-6.63-4.22-6.4-8.61.27-5.05,3.33-9.09,6.79-8.96,3.15.11,6.13,4.99,5.9,9.64Z" style="fill: #fff; stroke-width: 0px;"/>
    </g>
  </g>
</svg>