<?xml version="1.0" encoding="UTF-8"?>
<svg id="Calque_2" data-name="Calque 2" xmlns="http://www.w3.org/2000/svg" viewBox="0 0 346.68 215">
  <g id="Calque_1-2" data-name="Calque 1">
    <g>
      <path d="m88.19,0c3.98,1.78,4.69,5.04,4.53,9.04-.47,11.95-.66,23.86.08,35.86.92,14.77.35,29.63.18,44.45-.03,2.81-.14,6.88-4.14,6.86-3.86-.02-5.11-3.36-5.76-6.99-1.04-5.8-1.05-11.6-.89-17.42.46-16.67-1.77-33.21-2.08-49.84,0-.33.01-.68-.09-.99-.74-2.26-.26-5.79-3.26-6.09-2.91-.29-4.36,2.58-5.35,5.16-7.46,19.55-15.75,38.8-21.74,58.9-1.74,5.85-6.2,9.8-10.99,13.18-2.54,1.79-5.69-.12-6.29-4.01-1.08-6.92-3.07-13.63-4.43-20.48-1.69-8.5-3.77-16.89-6.42-25.13-.72-2.25-1.1-5.76-4.16-5.4-3.38.39-2.98,3.91-3,6.52-.09,13.33-.06,26.65-.19,39.98-.03,3.02.78,7.16-3.44,7.75-3.84.53-7.02-1.72-8.54-5.59-.67-1.7-1.61-3.46-1.65-5.21C.25,68.1-.19,55.63.09,43.18c.18-8.29.17-16.6,1-24.91C1.88,10.25,3.85,3.91,12.43,1.56c.71-.2,1.26-1.03,1.88-1.56,2.66,0,5.32,0,7.99,0,3.17,5.82,6,11.74,6.01,18.6,0,2.15-.24,4.49.5,6.4,4.11,10.67,7.05,21.72,10.73,32.52.5,1.46,1.12,2.92,2.91,2.96,1.62.03,2.26-1.36,2.57-2.63,2.62-10.79,8.27-20.49,10.57-31.49C57.74,16.07,62.11,6.46,71.22,0h16.97Z" style="fill: #fff; stroke-width: 0px;"/>
      <path d="m82.2,215c-2.77-2.87-3.77-6.24-2.67-10.1,3.44-12.07,3.33-24.69,5.6-36.94.85-4.57,1.11-9.24,1.74-13.86.46-3.36.2-6.61-.7-9.88-1.08-3.89-1.55-7.87-.48-11.84.54-2.02,1.7-3.68,3.95-4.05,2.19-.35,4.03.52,5.14,2.35,2.91,4.82,5.5,9.5,5.66,15.64.32,12.6-2.25,24.8-3.71,37.16-.2,1.67-.32,3.27,0,4.95.72,3.83,2.6,5,6.38,3.6,7.23-2.69,13.68-6.8,20.31-10.6.86-.49,1.59-1.31,2.49-1.64,14.4-5.34,14.28-17.25,12.98-29.39-.98-9.18-13.53-21.27-23.83-23.28-7.98-1.56-16.05-2.71-24.07-4.03-4.58-.75-7.98-2.88-9.77-7.46-1.88-4.81-.44-7.25,4.78-6.52,6.57.91,13.07,2.4,19.58,3.78,7.48,1.58,14.89,3.52,22.41,4.93,10.06,1.89,16.94,7.9,20.82,16.87,5.69,13.16,6.91,27.12,3.74,41.09-1.94,8.58-9.3,12.8-16.68,16.03-8.22,3.59-16.77,6.41-25.19,9.53-8.62,3.2-16.56,7.56-23.48,13.67h-4.99Z" style="fill: #fff; stroke-width: 0px;"/>
      <path d="m207.5,43.47c.06,17.15-3.12,34.12-2.7,51.3.23,9.46-7.02,13.86-14.82,17.42-11.72,5.35-23.9,4.86-36.17,3.49-2.8-.31-6.86-.48-6.97-4.22-.1-3.3,3.73-3.76,6.34-4.62,5.78-1.9,11.53.29,17.3.43,8.29.2,14.44-3.12,18.8-9.96,1.56-2.44,2.57-5.31.97-8.03-1.78-3.02-4.92-2.17-7.69-1.86-6.01.67-12.09.34-17.75-1.37-13.3-4.03-16.57-10.16-15.78-21.21,1.02-14.42,18.51-32.51,32.13-32.91,1-.03,2-.06,2.99.04,1.32.14,2.78.27,3.19,1.86.34,1.33-.66,2.26-1.56,2.91-3.77,2.71-7.55,5.44-11.49,7.89-5.06,3.15-8.89,7.14-11.62,12.58-5.27,10.52,3.76,18.52,11.52,18.7,5.09.12,9.88-1.41,14.39-3.57,3.05-1.46,4.46-4.12,4.52-7.71.11-6.8.52-13.61.89-20.4.34-6.46,2.74-12.28,5.69-17.93,1.22-2.34,2.96-3.72,5.63-2.75,2.58.94,2.32,3.18,2.25,5.45-.16,4.81-.05,9.64-.05,14.46Z" style="fill: #fff; stroke-width: 0px;"/>
      <path d="m267.91,44.64c.25,10.28-1.96,20.53-.1,30.85.52,2.91.29,5.95,1.53,8.77.75,1.72.65,3.58.5,5.42-.15,1.82-1.02,3.2-2.73,3.84-1.77.66-3.32-.03-4.48-1.37-2.4-2.77-4.57-5.7-6.09-9.08-1.63-3.64-3.73-3.79-6.41-.93-2.7,2.87-5.04,6.08-9.29,7.18-9.4,2.44-16.53-1.15-21.5-8.65-8.3-12.5-10.74-26.44-4.66-40.29,3.88-8.83,10.72-15.95,21.27-17.93,4.72-.89,8.41,1.15,12.27,3.09q6.29,3.15,9.34-2.94c.15-.3.28-.61.43-.9,1.26-2.41,2.56-5.09,5.9-4.2,3.28.88,4.38,3.91,3.86,6.74-1.02,5.53.36,10.93.18,16.39-.04,1.33,0,2.66,0,4Zm-44,11.8c-.19,7.51,1.22,13.75,5.53,19,3.62,4.41,6.66,4.22,9.95-.44,2.01-2.85,3.98-5.74,5.69-8.76,4.76-8.43,8.33-17.34,9.47-27.03.27-2.32.68-5.82-3.34-4.94-3.61.79-6.97.24-10.31-.52-4.12-.94-7.15.4-9.66,3.47-4.78,5.82-7.95,12.24-7.32,19.22Z" style="fill: #fff; stroke-width: 0px;"/>
      <path d="m291.92,140.4c-.48,5.8.02,11.88,2.21,17.78,1.53,4.12,3.95,5.43,8.06,3.2,4.39-2.38,9.06-4.17,13.85-5.58,6.18-1.82,11.94-.47,17,3.23,6.66,4.88,7.5,10.13,2.71,16.95-2.24,3.19-1.58,5.52,1,7.78,2.49,2.19,5.12,4.24,7.6,6.44,1.68,1.5,3.14,3.38,1.81,5.66-1.47,2.53-3.91,2.04-6.2,1.14-10.67-4.17-20.57-10.12-31.47-13.78-1.57-.53-3.09-1.24-4.69-1.67-5.08-1.36-6.74-.16-6.92,5.08-.08,2.51-.21,5-1.16,7.35-.89,2.2-2.01,4.63-4.81,4.28-2.93-.37-3.89-2.86-3.97-5.55-.19-6.64.48-13.38-1.07-19.89-2.21-9.25-1.44-18.83-3.55-28.12-1.08-4.74-1.43-9.99,1.15-14.64,1.2-2.17,2.82-4.48,5.8-3.82,3.08.68,2.57,3.47,2.64,5.73.08,2.66.02,5.32.02,8.4Zm26.01,33.73c1.4-.08,3.07-.02,4.68-.29,2.44-.41,4.65-1.68,4.67-4.32.02-2.62-2.34-3.3-4.58-3.59-1.63-.21-3.31-.64-4.9-.45-3.61.44-9.04-.13-8.95,4.7.09,4.64,5.32,3.68,9.08,3.95Z" style="fill: #fff; stroke-width: 0px;"/>
      <path d="m148.64,99.07c-13.01-1.09-25.36-4.39-37.47-8.44-6.58-2.2-10.61-7.01-11.35-14.37-1.03-10.28-1.57-20.52.12-30.77.16-.98.12-2.34.73-2.85,7.13-5.93,12.69-14.42,22.95-15.47,7.77-.79,12.11,2.73,14.48,10.78,1.8,6.11-.92,14.19-6.23,17.05-4.38,2.36-9.01,4.29-13.64,6.09-3.51,1.36-7.24,2.48-7.58,6.89-.35,4.54,1.34,8.31,5.1,11.28,6.37,5.04,13.75,7.51,21.55,8.42,5.45.64,10.84,1.63,16.28,2.23,2.56.28,4.79,1.14,5.06,3.87.31,3.12-2.24,4.26-4.72,4.86-1.75.42-3.62.31-5.28.42Zm-31.95-48.01c5.79-.04,10.16-3.35,10.28-7.58.09-3.23-1.8-4.4-4.72-4.34-5.16.11-11.03,4.55-10.98,8.34.05,4.12,3.22,3.35,5.42,3.57Z" style="fill: #fff; stroke-width: 0px;"/>
      <path d="m189.44,188.97c6.25.08,12.64-5.87,14.46-13.05,1.91-7.52.32-15.31,2.03-22.83.66-2.89.57-6.77,4.62-6.46,3.95.3,4.98,4.2,4.32,7.27-2.83,13.3,2.81,25.23,5.48,37.63.42,1.95,1.1,3.84.82,5.88-.33,2.44-2.03,3.76-4.03,4.72-1.94.93-3.52-.34-4.18-1.75-3.9-8.29-9.46-6.24-16.02-3.5-13.15,5.5-28.47-.5-33.08-12.61-1.35-3.54-2.23-7.38-2.57-11.15-.88-9.76-1.39-19.56-1.91-29.35-.13-2.36,1.17-4.17,3.43-5.01,2.26-.84,3.79.47,5.13,2.09,1.93,2.35,2.49,5.01,1.89,7.96-1.79,8.88-.25,17.6,1.75,26.16,2.34,9.98,7.71,13.84,17.86,13.98Z" style="fill: #fff; stroke-width: 0px;"/>
      <path d="m254.68,188.11c5.48.62,11.18-2.11,17.14-3.49,2.38-.55,5.48-1.71,6.8.87,1.23,2.4-1.66,4.01-3.28,5.57-15.3,14.71-41.67,8.66-49.93-11.17-7.29-17.51-2.48-32.94,7.74-47.3,3.91-5.49,10.32-7.06,16.97-6.48,7.12.62,13.32,3.88,19.33,7.45,2.14,1.27,3.51,3.5,2.25,5.94-1.25,2.41-3.52.92-5.36.48-.96-.23-1.87-.69-2.78-1.09-13.92-6.11-25.69-.64-30.32,14.1-3.6,11.46.77,25.42,10.12,32.82,3.19,2.52,6.84,2.18,11.33,2.3Z" style="fill: #fff; stroke-width: 0px;"/>
    </g>
  </g>
</svg>