<?xml version="1.0" encoding="UTF-8"?>
<svg id="Calque_2" data-name="Calque 2" xmlns="http://www.w3.org/2000/svg" viewBox="0 0 635.45 159.7">
  <g id="Calque_1-2" data-name="Calque 1">
    <g>
      <path d="m133.08,71.43c-7.77,7.07-13.82,15.64-20.62,23.55-18.05,21.01-35.83,42.25-53.74,63.38-.28.33-.78.49-2.19,1.33,6.5-24.23,12.77-47.57,19.03-70.91-.28-.16-.56-.32-.85-.48-12.55,12.92-25.1,25.83-37.89,39-13.22-4.51-25.45-9.89-32.77-22.29-6.9-11.69-4.76-25.32,4.64-35.79,8.9-9.91,20.08-16.24,32.12-21.36,21.07-8.96,43.23-12.74,66-14.5,13.88-1.07,27.57.59,41.95.56,9.56-11.14,19.34-22.54,29.12-33.93.33.13.67.27,1,.4-3.54,12.19-7.07,24.38-10.71,36.92,6.35,2.27,12.12,4.27,17.84,6.41,9.46,3.55,18.01,8.46,24.96,15.97,9.86,10.66,10.85,25.03,2.36,36.72-9.46,13.01-22.84,20.49-37.44,26.23-16.97,6.67-34.51,11.13-52.65,13.19-2.28.26-4.62.62-6.84-.3-1.28-1.71-.2-3.25.23-4.76,5.09-17.84,10.24-35.66,15.32-53.5.54-1.9.78-3.88,1.16-5.82.11-.2.23-.4.34-.59-.01,0-.03-.01-.04-.02-.11.2-.22.39-.33.59Zm11.01-32.03c-6.77-.64-12.51-1.48-18.27-1.66-21.5-.65-42.62,2.09-62.96,9.07-13.94,4.78-27.18,11.03-36.21,23.55-10.05,13.94-3.13,30.84,14.76,34.19,21.89-20.15,44.1-40.59,66.31-61.04.31.24.63.49.94.73-4.13,16.51-8.27,33.01-12.4,49.52.38.13.76.27,1.13.4,15.33-17.98,30.66-35.97,46.69-54.76Zm21.7,6.08c-6.47,21.75-12.75,42.86-19.42,65.3,16.69-4.12,32.08-7.25,44.05-18.29,10.3-9.5,10.75-22.38,1.22-32.59-6.72-7.2-15.5-11.18-25.85-14.42Z" style="fill: #fff; stroke-width: 0px;"/>
      <path d="m239.35,46.89h31.55c-1.07,12.55-2.12,24.75-3.16,36.94.3.13.6.26.9.39,7.46-12.41,14.91-24.82,22.39-37.26h32.06c-8,25.58-15.79,50.45-23.61,75.44-7.07,1.02-13.58.9-21.14.09,5.2-15.97,10.19-31.26,15.17-46.55-.22-.09-.44-.18-.66-.27-8.81,15.51-17.63,31.03-26.55,46.74-5.51.95-10.86,1.09-16.8-.17.86-15.46,1.7-30.58,2.54-45.69-.32-.08-.65-.16-.97-.24-4.58,15.32-9.17,30.65-13.8,46.14-6.95,1.04-13.45.71-21.06.2,7.88-25.8,15.5-50.7,23.15-75.75Z" style="fill: #fff; stroke-width: 0px;"/>
      <path d="m459.61,122.53c1.33-12.42,2.58-24.02,3.83-35.63l-.82-.29c-6.05,11.89-12.09,23.78-18.21,35.82-7.18,1.03-14.05.88-21.84.07,1.11-25.26,2.21-50.17,3.32-75.31,7.76-1.04,14.44-.87,21.73-.17-.66,13.87-2.82,27.18-3.38,40.85,6.9-13.67,13.8-27.34,20.67-40.96,6.71-.56,12.78-.58,19.74,0-1.42,13.51-2.8,26.57-4.17,39.63.26.11.52.22.78.33,6.73-13.34,13.45-26.67,20.17-39.98h22.71c-14.52,25.71-28.56,50.58-42.66,75.55-7.21,1.04-14.07.86-21.86.11Z" style="fill: #fff; stroke-width: 0px;"/>
      <path d="m337.1,121.4c7.53-24.59,15.11-49.34,22.48-73.42,2.52-1.8,4.58-1.44,6.54-1.45,8.16-.04,16.32-.02,24.47-.02,20,0,29.71,9.75,28.38,29.58-1,14.87-6.56,27.9-18.73,37.52-8.37,6.62-18.25,8.78-28.47,9.3-10.13.51-20.31.13-30.46.12-1.16,0-2.34-.05-4.21-1.63Zm28.69-19.36c8.7.22,16.48,2.01,22.25-4.38,6.39-7.09,9.39-15.49,7.03-25.14-.76-3.11-2.79-5.47-6.07-5.82-3.91-.41-7.91-.71-12.45.55-3.42,11.07-6.9,22.33-10.75,34.79Z" style="fill: #fff; stroke-width: 0px;"/>
      <path d="m533.64,46.87c7.45-.56,14.37-.52,22.19-.03,3.82,24.97,5.8,49.92,9.03,75.21-7.58,1.84-14.53.86-21,.69-2.79-3.46-.82-7.23-3.01-10.69-6.78-1.44-14-.63-20.93-.45-3.69,3.16-4.03,8.1-7.99,11.11-6.67.59-13.72.42-22.2.08,15.06-26.04,29.5-51,43.92-75.93Zm-5.14,47.5c4.07,1.12,7.4,1.18,11.07-.11,1.17-6.2.24-12.18-1.18-19.56-3.31,7.32-7.38,12.74-9.89,19.66Z" style="fill: #fff; stroke-width: 0px;"/>
      <path d="m609.29,46.9h26.16c-3.6,6.03-7.96,10.55-11.84,15.39-7.77,9.71-15.73,19.27-23.65,28.86-2.27,2.75-3.58,5.87-4.46,9.31-1.87,7.33-3.96,14.61-5.99,22.03-7.68.83-14.68.93-22.67-.09,1.48-5.5,2.53-10.47,4.17-15.24,2.71-7.89,3.25-15.55.77-23.75-2.88-9.49-4.7-19.29-6.93-28.97-.51-2.22-.81-4.49-1.35-7.55,7.51-.7,14.51-.39,21.82-.15,3.05,8.42,2.56,17.18,5.08,26.79,6.74-9.5,12.78-18.03,18.88-26.63Z" style="fill: #fff; stroke-width: 0px;"/>
      <path d="m329.16,122.69c-7.78.37-14.63.99-22.49-.5,7.84-25.48,15.48-50.33,23.14-75.23,7.66-.62,14.54-.77,22.67.14-7.87,25.5-15.54,50.35-23.33,75.6Z" style="fill: #fff; stroke-width: 0px;"/>
    </g>
  </g>
</svg>