<?xml version="1.0" encoding="UTF-8"?>
<svg id="Calque_2" data-name="Calque 2" xmlns="http://www.w3.org/2000/svg" viewBox="0 0 320.29 108">
  <g id="Calque_1-2" data-name="Calque 1">
    <path d="m.5.5h265.67v107H.5V.5Z" style="fill: none; stroke: #fff;"/>
    <path d="m245.57,15.2l-25.35,37.03,27.57,40.45h-25.46l-15.15-21.66-15.27,21.71h-25.3c.69-1.43,27.69-40.51,27.69-40.51l-11.51-16.01-48.82.06c-2.28.18-5.07-.51-6.21,2.06-.4.85-.57,2.1-.11,2.96.39.97,1.31,1.88,2.33,2.16l1.54.12h19.54c9.06.23,17.43,5.86,21.36,14.01,3.48,6.84,2.96,16.18-.91,22.68-4.9,8.26-13.62,12.87-23.07,12.53h-54.35s-8.32-30.03-8.38-30.08l-8.38,30.08h-19.82s-7.98-30.2-7.98-30.2l-8.72,30.14h-21.93S39.04,20.16,40.35,15.37h18.52l8.72,32.36,8.89-32.36h18.17s15.55,56.35,15.55,56.35h36.23c2.5-.12,5.98.56,7.01-2.51.4-1.37.06-2.8-.91-3.76-.91-.8-2.05-1.02-3.25-1.02h-19.49c-9.23-.29-18.4-6.33-21.82-15.21-3.7-8.89-1.54-19.55,5.24-26.43,4.79-4.8,10.48-7.19,17.15-7.47l63.92-.06,12.88,18.57,13.33-18.63h25.07Z" style="fill: #fff; stroke-width: 0px;"/>
    <path d="m270.79,108c.53-4.86.89-9.74,1.62-14.57,1.27-8.35,6.21-14.56,12.26-20.03,4.42-3.99,8.95-7.85,13.25-11.98,2.93-2.81,3.54-6.93,1.95-9.86-1.24-2.27-3.27-3.27-5.71-2.74-2.4.51-3.67,2.06-3.79,4.46-.1,1.94-.02,3.9-.02,6.03h-19.29c-2.16-12.13,7.04-24.95,19.45-27.24,4.43-.82,8.78-.6,13.08.6,13.19,3.68,19.49,15.88,15.51,29.93-1.57,5.53-4.62,9.91-9.36,13.31-4.89,3.5-9.49,7.42-14.19,11.19-1.05.86-1.17,1.15-1.61,2.21h25.34v18.7c-16.17,0-32.34,0-48.5,0Z" style="fill: #fff; stroke-width: 0px;"/>
  </g>
</svg>