<?xml version="1.0" encoding="UTF-8"?>
<svg id="Calque_2" data-name="Calque 2" xmlns="http://www.w3.org/2000/svg" viewBox="0 0 597.06 215">
  <g id="Calque_1-2" data-name="Calque 1">
    <g>
      <path d="m597.06,215H0V0h597.06v215ZM367.29,9.43v194.79h217.08V9.43h-217.08ZM104.47,28.66c-3.76,12.69-7.45,25.19-11.15,37.68-.49.02-.98.04-1.47.05-3.6-12.64-7.2-25.29-10.76-37.83-7.93-.8-14.8-1.09-22.52.25-7.8,30.88-15.6,61.74-23.62,93.48,8.95.62,16.6,1.06,24.99-.24,3.26-13.09,6.48-26.08,9.71-39.06.45,0,.89,0,1.34-.01,3.73,13,7.45,26,11.18,39,7.47,1.22,14.15,1.27,21.53,0,3.57-13.11,7.12-26.16,10.67-39.2,3.12,6.49,4.67,13.05,6.64,19.49,2.02,6.61,2.69,13.68,6.47,20.58,9.05,0,18.16,0,27.27,0,12.81-.02,25.63.24,38.43-.14,17.21-.51,28.85-13.51,28.56-31.29-.27-16.29-12.44-28.03-29.31-28.26-6.32-.09-12.64-.08-18.97-.16-3.77-.05-8.04-.15-8.16-5.15-.13-5.26,4.21-5.72,8.2-5.74,17.64-.06,35.27-.04,52.91-.03,2.16,0,4.63-.24,6.04,1.69,4.77,6.55,9.33,13.25,14.09,20.06-11.22,16.22-22.05,31.88-33.93,49.05,7.39,0,13.16-.5,18.81.12,7.9.86,13.11-1.78,17.03-8.86,3.64-6.56,8.47-12.46,13.35-19.48,6.16,8.58,11.57,16.11,17,23.65,1.16,1.61,2.11,3.84,4.2,4.06,8.7.91,17.41.82,27.71-.07-11.85-16.9-22.94-32.72-34.23-48.82,10.55-15.01,20.79-29.57,31.99-45.51-9.12,0-16.39.16-23.66-.06-4.09-.12-6.84,1.31-9.12,4.75-4.28,6.44-8.94,12.62-14.14,19.88-5.31-7.19-10.06-13.32-14.46-19.7-2.43-3.52-5.34-4.92-9.61-4.89-21.46.16-42.93.09-64.39.09-5.06,0-9.92.9-14.59,2.87-13.05,5.51-19.9,18.56-17.09,32.57,2.97,14.83,12.99,23.24,27.85,23.36,6.66.05,13.31.1,19.97.14,3.75.02,7.36.53,7.29,5.4-.08,4.72-3.62,5.46-7.38,5.47-12.81.03-25.62.04-38.43.02-1.82,0-3.69-.03-6.07-2.15-6.14-21.71-12.55-44.38-19.01-67.21-7.29-.7-13.67-.91-21.15.17Zm97.84,160.46c9.95,0,19.03,0,28.11,0,19.61-.02,21.89-2.43,21.01-22.18-.02-.5-.04-1-.08-1.5-.88-11.44-3.95-14.39-15.4-15.24-4.73-.35-9.61.84-13.96-.95-2.65-3.2-.24-7.33-3.3-10.86-4.93-.39-10.4-1.22-16.37.67v50.06Zm-60.82-.84c.38-11.72.73-23.83-.24-36.55-6.29-.6-11.88-1.41-17.71.52-1.78,9.36.66,18.77-1.57,27.98-3.51.76-6.52,1.5-9.74-.89-1.84-8.82.81-18.26-1.68-27.7-5.71-.62-11.03-1.09-17.53.5,0,9.33.14,18.56-.05,27.79-.14,7.06,3.36,9.97,10.05,9.95,9.13-.02,18.26.12,27.39.01,3.41-.04,6.97.8,11.06-1.6Zm145.79-37.15c-4.16,0-8.34-.25-12.47.06-5.67.43-9.34,3.65-9.98,9.38-.65,5.77-1.36,11.54-.53,17.43,1.13,8.06,4.33,11.41,12.62,11.75,6.15.25,12.31.15,18.47.1,11.7-.09,15.08-3.49,15.26-15.23.36-22.65-.6-23.63-23.35-23.49Zm-242.23,9.55c0,7.07-.01,13.51,0,19.95,0,3.51.65,7.38,4.36,8.17,10.41,2.21,20.93,1.34,30.96.54,1.51-2.75,1.52-4.6.04-6.38-4.9-2.94-12.84,2.2-15.65-4.67-2.19-5.36-1.57-11.67.04-17.31,5.34-2.58,11.07.39,15.83-2.37,1.26-2.41,1.44-4.57-.46-6.96-4.75-1.81-10.37.62-15.05-1.61-2.54-3.86.06-8.37-2.93-12.47-5.09-.5-10.56-1.1-15.74.27-2.88,4.01.1,8.82-2.76,12.16-3.41,2.1-7.54-.18-10.72,2.29-1.24,2.22-1.36,4.37.52,6.94,3.21.4,6.74.85,11.55,1.45Zm145.84-9.12c-9.44-.79-19.11-.84-28.69,1.4-2.17.51-4.15,2.12-4.54,4.28-1.92,10.62-1.14,21.24-.41,32.02,5.95,1.04,10.93,1.25,16.27,0,.69-9.83,0-19.46,1.82-28.82,5.29-2.88,11.24.28,15.96-2.4,1.28-2.01,1.25-3.72-.42-6.47Z" style="fill: #fff; stroke-width: 0px;"/>
      <path d="m532.69,93.96c-9.92,1.88-18.91.25-29.01,1.26,2.91,2.41,5.04,4.32,7.31,6.04,8.62,6.53,17.28,13.01,25.94,19.51,2.35,1.76,4.26,3.78,4.26,6.95.02,18.99.03,37.98,0,56.98,0,.95-.48,1.89-1,3.77-11.65.7-23.39.74-36.26-.09v-61.65h-53.51v61.9c-12.23.81-23.36.63-35.26.09V28.94c2.16-2.24,4.77-1.82,7.21-1.82,22.46-.03,44.91.03,67.37-.04,3.83-.01,7.11.91,10.18,3.27,9.5,7.31,19.12,14.45,28.67,21.69,1.87,1.41,4.03,2.93,4.06,5.44.14,12.09.06,24.18.06,36.48Zm-81.92-3.71h42.71c.81-9.43.92-18.2-.03-27.48h-42.6c-.79,9.3-.67,17.96-.09,27.48Z" style="fill: #fff; stroke-width: 0px;"/>
      <path d="m231.23,179.38c-3.34,2.05-6.31,1.9-9.78.37-1.65-6.22-.65-12.57-.54-18.59,3.48-2.78,6.67-2.01,10.37-1.34.91,6.74.87,13.22-.05,19.56Z" style="fill: #fff; stroke-width: 0px;"/>
      <path d="m282.45,160.52c3.63-1.81,6.74-1.79,10.28.02,1.35,6.37.93,12.81.25,19.03-3.63,1.95-6.63,1.65-10.2.46-1.85-6.46-1.41-13.02-.34-19.5Z" style="fill: #fff; stroke-width: 0px;"/>
    </g>
  </g>
</svg>