<?xml version="1.0" encoding="UTF-8" standalone="no"?>
<svg
   viewBox="0 0 338.339 52.948"
   version="1.1"
   id="svg10"
   sodipodi:docname="multivision - whlogo.svg"
   inkscape:version="1.3 (0e150ed6c4, 2023-07-21)"
   xmlns:inkscape="http://www.inkscape.org/namespaces/inkscape"
   xmlns:sodipodi="http://sodipodi.sourceforge.net/DTD/sodipodi-0.dtd"
   xmlns="http://www.w3.org/2000/svg"
   xmlns:svg="http://www.w3.org/2000/svg">
  <defs
     id="defs10" />
  <sodipodi:namedview
     id="namedview10"
     pagecolor="#ffffff"
     bordercolor="#000000"
     borderopacity="0.25"
     inkscape:showpageshadow="2"
     inkscape:pageopacity="0.0"
     inkscape:pagecheckerboard="0"
     inkscape:deskcolor="#d1d1d1"
     inkscape:zoom="12.576144"
     inkscape:cx="169.16949"
     inkscape:cy="26.438946"
     inkscape:window-width="5104"
     inkscape:window-height="1353"
     inkscape:window-x="1433"
     inkscape:window-y="0"
     inkscape:window-maximized="0"
     inkscape:current-layer="svg10" />
  <text
     transform="translate(262.754 30.097)"
     fill="#c23334"
     font-family="ArialMT"
     font-size="1"
     id="text1">I don’t like bugs!</text>
  <g
     fill="#183b67"
     id="g3"
     style="fill:#ffffff">
    <path
       d="M99.525 31.555H94.45a.914.914 0 0 1-.911-.911V2.02c0-.501.41-.911.911-.911h5.076c.501 0 .911.41.911.911v28.625a.915.915 0 0 1-.912.91zM107.244 31.555h-5.076a.914.914 0 0 1-.911-.911V2.02c0-.501.41-.911.911-.911h5.076c.501 0 .911.41.911.911v28.625c0 .5-.41.91-.911.91zM44.011 26.932c-1.724 0-1.806-1.24-1.806-2.443V14.077h2.702c.524 0 .952-.392.952-.872v-2.768c0-.479-.428-.872-.952-.872h-2.702V3.334c0-.479-.428-.872-.952-.872H36.26c-.524 0-.952.392-.952.872v6.233H30.06c-.524 0-.952.392-.952.872v2.768c0 .479.428.872.952.872h5.247V26.37c0 3.352 2.504 5.187 5.501 5.187h7.636v-4.623c.001-.002-2.709-.002-4.433-.002z"
       id="path1"
       style="fill:#ffffff" />
    <path
       d="M60.658 8.683c-2.782 0-5.261 1.116-7.041 3.157V1.98c0-.479-.428-.872-.952-.872h-4.993c-.524 0-.952.392-.952.872v28.703c0 .479.428.872.952.872h4.993c.524 0 .952-.392.952-.872V18.127c0-2.283 2.053-4.05 4.547-4.05s4.005 1.814 4.005 3.496V30.685c0 .479.428.872.952.872h4.993c.524 0 .952-.392.952-.872V18.445v-2.112c0-3.111-2.865-7.65-8.408-7.65z"
       id="path2"
       style="fill:#ffffff" />
    <path
       d="M90.834 22.327h3.106c.103-.632.158-1.281.158-1.945 0-6.742-5.488-12.207-12.563-12.207-7.074 0-12.563 5.465-12.563 12.207s5.488 11.981 12.563 11.981c5.4 0 9.873-3.055 11.689-7.499h-6.622c-1.055 1.418-2.85 2.312-5.283 2.312-2.583 0-4.768-2.039-5.498-4.849H90.834zm-9.515-8.964c2.352 0 4.373 1.692 5.267 4.116H76.052c.894-2.424 2.915-4.116 5.267-4.116zM120.916 8.175c-7.404 0-13.148 5.465-13.148 12.207s5.744 11.981 13.148 11.981 13.148-5.24 13.148-11.981-5.744-12.207-13.148-12.207zm0 19.23c-4.649 0-5.916-3.091-5.916-7.069s1.637-7.202 5.916-7.202 5.916 3.224 5.916 7.202-1.266 7.069-5.916 7.069zM17.027 0C7.623 0 0 7.333 0 16.379s7.623 16.379 17.027 16.379 17.027-7.333 17.027-16.379S26.431 0 17.027 0zm.321 27.189c-6.201 0-9.025-4.84-9.025-10.81s3.131-10.81 9.025-10.81 9.025 4.84 9.025 10.81-2.824 10.81-9.025 10.81z"
       id="path3"
       style="fill:#ffffff" />
  </g>
  <g
     fill="#183b67"
     id="g6"
     style="fill:#ffffff">
    <path
       d="M289.989 7.142h-5.677a.612.612 0 0 1-.61-.61V3.467c0-.335.274-.61.61-.61h5.677c.335 0 .61.274.61.61v3.065c0 .335-.275.61-.61.61zM259.713 7.142h-5.694a.604.604 0 0 1-.602-.602V3.458c0-.331.271-.602.602-.602h5.694c.331 0 .602.271.602.602V6.54a.604.604 0 0 1-.602.602zM230.915 7.142h-5.751a.575.575 0 0 1-.573-.573V3.43c0-.315.258-.573.573-.573h5.751c.315 0 .573.258.573.573v3.139a.574.574 0 0 1-.573.573zM209.429 31.95h-5.076a.914.914 0 0 1-.911-.911V2.414c0-.501.41-.911.911-.911h5.076c.501 0 .911.41.911.911v28.625c0 .501-.41.911-.911.911zM289.688 31.95h-5.076a.914.914 0 0 1-.911-.911V9.857c0-.501.41-.911.911-.911h5.076c.501 0 .911.41.911.911v21.182c0 .501-.41.911-.911.911zM259.404 31.95h-5.076a.914.914 0 0 1-.911-.911V9.857c0-.501.41-.911.911-.911h5.076c.501 0 .911.41.911.911v21.182c0 .501-.41.911-.911.911zM230.578 31.95h-5.076a.914.914 0 0 1-.911-.911V9.857c0-.501.41-.911.911-.911h5.076c.501 0 .911.41.911.911v21.182c0 .501-.41.911-.911.911z"
       id="path4"
       style="fill:#ffffff" />
    <path
       d="M221.794 27.327c-1.724 0-1.806-1.24-1.806-2.443V14.472h3.018c.35 0 .635-.262.635-.582v-3.347c0-.32-.286-.582-.635-.582h-3.018V3.432c0-.316-.283-.575-.628-.575h-5.642c-.345 0-.628.259-.628.575v6.529h-5.564c-.349 0-.635.262-.635.582v3.347c0 .32.286.582.635.582h5.564v12.291c0 3.352 2.504 5.187 5.501 5.187h7.636v-4.623h-4.433zM329.931 9.078c-2.782 0-5.261 1.116-7.041 3.157V9.366c0-.479-.428-.872-.952-.872h-4.993c-.524 0-.952.392-.952.872v21.712c0 .479.428.872.952.872h4.993c.524 0 .952-.392.952-.872V18.521c0-2.283 2.053-4.05 4.547-4.05 2.494 0 4.005 1.814 4.005 3.496V31.079c0 .479.428.872.952.872h4.993c.524 0 .952-.392.952-.872V18.839v-2.112c0-3.111-2.865-7.649-8.408-7.649zM187.685 31.367c2.782 0 5.261-1.116 7.041-3.157v2.868c0 .479.428.872.952.872h4.993c.524 0 .952-.392.952-.872V9.366c0-.479-.428-.872-.952-.872h-4.993c-.524 0-.952.392-.952.872v12.557c0 2.283-2.053 4.05-4.547 4.05-2.494 0-4.005-1.814-4.005-3.496V9.366c0-.479-.428-.872-.952-.872h-4.993c-.524 0-.952.392-.952.872V23.718c0 3.111 2.866 7.649 8.408 7.649z"
       id="path5"
       style="fill:#ffffff" />
    <path
       d="M303.377 8.57c-7.404 0-13.148 5.465-13.148 12.207s5.744 11.981 13.148 11.981 13.148-5.24 13.148-11.981S310.781 8.57 303.377 8.57zm0 19.23c-4.649 0-5.917-3.091-5.917-7.069s1.637-7.202 5.917-7.202c4.28 0 5.917 3.224 5.917 7.202s-1.267 7.069-5.917 7.069zM253.372 8.946h-4.993c-.524 0-1.067.392-1.207.872l-4.476 15.294-5.352-15.294c-.168-.479-.733-.872-1.257-.872h-4.993c-.524 0-.815.392-.647.872l5.395 15.42c.047.177.098.359.153.548 1.909 6.524 6.7 6.164 6.7 6.164s4.791.36 6.7-6.164l4.673-15.968c.141-.48-.172-.872-.696-.872zM271.592 13.682h14.985V8.946h-16.463c-4.019 0-7.308 3.011-7.308 6.691 0 3.68 3.288 6.691 7.308 6.691h1.684c1.446 0 2.668 1.119 2.668 2.443s-1.222 2.443-2.669 2.443h-12.85v4.736h14.821c4.313 0 7.841-3.231 7.841-7.179 0-3.949-3.529-7.179-7.841-7.179h-2.176c-1.157 0-2.135-.895-2.135-1.955s.978-1.955 2.135-1.955zM177.036 4.341l-.002-.012c-.079-.696-.407-1.373-.986-1.904s-1.319-.831-2.079-.903l-.013-.002a3.684 3.684 0 0 0-.348-.016h-.002l-.057.003a4.37 4.37 0 0 0-.28.013c-.048.004-.095.013-.143.019-.065.008-.131.016-.196.028-.038.007-.076.017-.113.025-.075.016-.15.032-.223.053-.019.005-.037.012-.055.018-.5.149-.971.401-1.367.763l-2.415 2.211-3.043 2.786-3.439 3.149-3.439-3.149-3.043-2.786-2.415-2.211a3.477 3.477 0 0 0-1.367-.763l-.055-.018c-.074-.021-.149-.037-.223-.053-.038-.008-.075-.018-.113-.025-.065-.012-.13-.019-.196-.028-.048-.006-.095-.014-.143-.019a3.722 3.722 0 0 0-.28-.013l-.057-.003h-.002c-.116 0-.232.006-.348.016l-.013.002c-.761.072-1.5.372-2.079.903a3.036 3.036 0 0 0-.986 1.904l-.002.012a2.83 2.83 0 0 0-.018.319V31.08c0 .479.428.872.952.872h4.993c.524 0 .952-.392.952-.872V12.297l6.837 6.26a1.577 1.577 0 0 0 2.09 0l6.837-6.26V31.08c0 .479.428.872.952.872h4.993c.524 0 .952-.392.952-.872V4.661v-.002c0-.106-.006-.213-.018-.318z"
       id="path6"
       style="fill:#ffffff" />
  </g>
  <path
     d="M131.775 5.475a2.12 2.12 0 1 0 0 4.239 2.12 2.12 0 0 0 0-4.239zm0 3.931a1.812 1.812 0 1 1 0-3.623 1.812 1.812 0 0 1 0 3.623z"
     id="path7"
     style="fill:#ffffff" />
  <path
     d="M132.979 8.928h-.488l-.841-1.06h-.667v1.06h-.413V6.261h1.333c.309 0 .56.073.754.22a.695.695 0 0 1 .291.584.671.671 0 0 1-.251.548 1.057 1.057 0 0 1-.614.228l.896 1.087zm-1.125-1.352a.764.764 0 0 0 .48-.144.447.447 0 0 0 .187-.368.437.437 0 0 0-.187-.368.781.781 0 0 0-.48-.14h-.871v1.02h.871z"
     id="path8"
     style="fill:#ffffff" />
  <path
     id="path9"
     d="M 55.919922 38.822266 L 55.919922 52.822266 L 282.41992 52.822266 L 282.41992 38.822266 L 55.919922 38.822266 z M 171.64453 40.882812 C 171.82653 41.168812 171.99725 41.465438 172.15625 41.773438 L 176.28516 41.773438 L 176.28516 43.837891 L 175.29492 43.837891 L 175.29492 42.673828 L 167.89648 42.673828 L 167.89648 43.837891 L 166.89062 43.837891 L 166.89062 41.773438 L 170.99805 41.773438 A 4.224 4.224 0 0 0 170.56445 41.099609 L 171.64453 40.882812 z M 183.18555 40.904297 C 183.25555 40.997297 183.42627 41.286438 183.69727 41.773438 L 187.73438 41.773438 L 187.73438 42.71875 L 179.67383 42.71875 L 179.67383 46.664062 C 179.67383 48.371061 179.33239 49.811376 178.65039 50.984375 L 177.82617 50.355469 C 178.39017 49.32047 178.67187 48.055545 178.67188 46.560547 L 178.67188 41.773438 L 182.53516 41.773438 A 3.306 3.306 0 0 0 182.10156 41.132812 L 183.18555 40.904297 z M 153.22266 40.927734 L 154.23633 40.927734 L 154.23633 41.599609 L 155.41016 41.599609 L 155.41016 42.490234 L 154.23633 42.490234 L 154.23633 43.197266 L 153.22266 43.197266 L 153.22266 42.490234 L 150.67969 42.490234 L 150.67969 41.599609 L 153.22266 41.599609 L 153.22266 40.927734 z M 157.09766 40.927734 L 158.13867 40.927734 L 158.13867 41.599609 L 160.60938 41.599609 L 160.60938 42.490234 L 158.13867 42.490234 L 158.13867 42.796875 L 157.09766 42.796875 L 157.09766 42.490234 L 155.88867 42.490234 L 155.88867 41.599609 L 157.09766 41.599609 L 157.09766 40.927734 z M 144.32031 40.953125 L 145.33984 40.964844 A 76.47 76.47 0 0 1 145.25586 42.685547 L 149.23633 42.685547 L 149.23633 49.705078 C 149.23633 50.510077 148.77547 50.912109 147.85547 50.912109 A 19.57 19.57 0 0 1 146.46484 50.880859 L 146.11328 49.878906 C 146.32828 49.893906 146.90475 49.900391 147.84375 49.900391 C 148.09575 49.900391 148.22266 49.782828 148.22266 49.548828 L 148.22266 43.632812 L 145.14453 43.632812 A 5.582 5.582 0 0 1 145.02734 44.255859 A 31.586 31.586 0 0 1 147.98242 48.441406 L 147.16992 49.09375 C 146.41292 47.672751 145.60319 46.443202 144.74219 45.408203 C 144.30819 46.662202 143.50041 47.876829 142.31641 49.048828 L 141.57617 48.330078 C 143.04517 47.016079 143.895 45.450811 144.125 43.632812 L 141.23047 43.632812 L 141.23047 50.867188 L 140.18359 50.867188 L 140.18359 42.685547 L 144.25391 42.685547 A 37.19 37.19 0 0 0 144.32031 40.953125 z M 189.83008 41.193359 L 198.26758 41.193359 L 198.26758 49.755859 L 198.26953 49.755859 C 198.26953 50.063859 198.15855 50.3325 197.93555 50.5625 C 197.71255 50.7925 197.32172 50.90625 196.76172 50.90625 C 196.50572 50.90625 196.23984 50.897906 195.96484 50.878906 L 195.6582 49.876953 L 196.93359 49.865234 A 0.318 0.318 0 0 0 197.17188 49.751953 A 0.357 0.357 0 0 0 197.27734 49.503906 L 197.27734 47.449219 L 194.47266 47.449219 L 194.47266 50.638672 L 193.50391 50.638672 L 193.50391 47.449219 L 190.74219 47.449219 C 190.61619 48.915217 190.27947 50.083173 189.73047 50.951172 L 188.82812 50.367188 C 189.14712 49.892188 189.39436 49.263421 189.56836 48.482422 A 10.31 10.31 0 0 0 189.83008 46.242188 L 189.83008 41.193359 z M 115.0625 41.216797 C 115.4445 41.613796 115.79152 42.118469 116.10352 42.730469 L 115.41992 43.097656 C 115.18592 42.629657 114.83891 42.127843 114.37891 41.589844 L 115.0625 41.216797 z M 242.15039 41.216797 C 242.53339 41.613796 242.88041 42.118469 243.19141 42.730469 L 242.50781 43.097656 C 242.27381 42.629657 241.9258 42.127843 241.4668 41.589844 L 242.15039 41.216797 z M 230.43164 41.271484 C 230.80664 41.664484 231.163 42.162672 231.5 42.763672 L 230.84375 43.208984 A 7.926 7.926 0 0 0 229.79102 41.683594 L 230.43164 41.271484 z M 78.597656 41.349609 L 79.599609 41.349609 L 79.599609 43.537109 L 82.789062 43.537109 L 82.789062 44.427734 L 79.599609 44.427734 L 79.599609 50.322266 C 79.599609 50.659265 78.597656 50.326062 78.597656 50.289062 L 78.597656 45.601562 C 77.740657 46.926561 76.417904 48.265236 74.628906 49.615234 L 73.898438 48.851562 C 75.824436 47.385564 77.181751 45.911733 77.96875 44.427734 L 73.976562 44.427734 L 73.976562 43.535156 L 78.597656 43.535156 L 78.597656 41.349609 z M 109.30859 41.488281 L 110.25391 41.761719 C 110.14291 42.225718 109.93958 42.852579 109.64258 43.642578 L 115.08594 43.642578 L 115.08594 44.578125 L 112.9707 44.578125 C 112.7627 47.046123 111.6787 49.074111 109.7207 50.662109 L 108.89648 50.005859 C 110.74848 48.532861 111.76341 46.723123 111.94141 44.578125 L 109.20703 44.578125 A 12.079 12.079 0 0 1 107.54297 47.037109 L 106.70703 46.425781 C 107.82403 45.189782 108.69159 43.545279 109.30859 41.488281 z M 236.39453 41.488281 L 237.3418 41.761719 C 237.2308 42.225718 237.02552 42.852579 236.72852 43.642578 L 242.17383 43.642578 L 242.17383 44.578125 L 240.05859 44.578125 C 239.84959 47.046123 238.76764 49.074111 236.80664 50.662109 L 235.98438 50.005859 C 237.83637 48.532861 238.8493 46.723123 239.0293 44.578125 L 236.29688 44.578125 C 235.86688 45.432124 235.31086 46.25111 234.63086 47.037109 L 233.79688 46.425781 C 234.91287 45.189782 235.77953 43.545279 236.39453 41.488281 z M 113.87891 41.695312 C 114.23391 42.077312 114.56405 42.544657 114.87305 43.097656 L 114.15625 43.425781 A 8.648 8.648 0 0 0 113.17188 42.046875 L 113.87891 41.695312 z M 240.96484 41.695312 C 241.32284 42.077312 241.65494 42.544657 241.96094 43.097656 L 241.24414 43.425781 A 8.655 8.655 0 0 0 240.25781 42.046875 L 240.96484 41.695312 z M 86.292969 41.828125 L 87.351562 41.828125 L 87.351562 44.460938 L 91.765625 43.787109 L 91.947266 44.751953 C 91.213266 45.968952 90.490343 46.925048 89.777344 47.623047 L 89.003906 46.960938 A 12.202 12.202 0 0 0 90.601562 45.001953 L 87.351562 45.490234 L 87.351562 48.785156 C 87.351562 48.974156 87.45411 49.070312 87.662109 49.070312 L 91.753906 49.070312 L 91.753906 50.060547 L 87.361328 50.060547 C 87.064328 50.060547 86.813469 49.952375 86.605469 49.734375 A 1.063 1.063 0 0 1 86.292969 48.974609 L 86.292969 45.634766 L 83.783203 46.025391 L 83.638672 45.033203 L 86.292969 44.632812 L 86.292969 41.828125 z M 132.25195 41.873047 L 133.27539 42.150391 A 43.843 43.843 0 0 1 130.95508 48.40625 C 132.26508 48.35425 133.69324 48.236781 135.24023 48.050781 A 14.694 14.694 0 0 0 133.71094 46.353516 L 134.57812 45.740234 C 135.83512 47.021233 136.76805 48.214314 137.37305 49.320312 L 136.56055 49.933594 A 10.97 10.97 0 0 0 135.94727 48.974609 C 134.01727 49.256609 131.55178 49.444109 128.55078 49.537109 L 128.2832 48.462891 L 129.75781 48.462891 C 130.73781 46.588892 131.56895 44.392044 132.25195 41.873047 z M 259.31836 41.873047 L 260.34375 42.150391 A 43.964 43.964 0 0 1 258.02148 48.40625 A 54.08 54.08 0 0 0 262.30859 48.050781 A 14.88 14.88 0 0 0 260.77734 46.353516 L 261.64453 45.740234 C 262.90353 47.021233 263.83445 48.214314 264.43945 49.320312 L 263.62695 49.933594 C 263.37395 49.502594 263.17062 49.182609 263.01562 48.974609 C 261.08563 49.256609 258.61918 49.444109 255.61719 49.537109 L 255.34961 48.462891 L 256.82422 48.462891 C 257.80322 46.588892 258.63636 44.392044 259.31836 41.873047 z M 229.45117 41.933594 C 229.88617 42.401593 230.23877 42.903501 230.50977 43.4375 L 229.84766 43.849609 A 10.137 10.137 0 0 0 228.81055 42.363281 L 229.45117 41.933594 z M 212.70117 41.945312 L 213.73633 41.945312 L 213.73633 48.580078 C 214.78633 48.353078 215.71639 47.981843 216.52539 47.464844 C 217.33439 46.946844 218.2225 46.029889 219.1875 44.712891 L 219.92773 45.46875 C 218.88174 46.893749 217.81537 47.919876 216.73438 48.546875 C 215.65238 49.173874 214.30817 49.588063 212.70117 49.789062 L 212.70117 41.945312 z M 223.82812 41.945312 L 224.90234 41.945312 L 224.90234 44.863281 C 226.56534 44.659281 228.08589 44.317843 229.46289 43.839844 L 229.98438 44.701172 A 22.676 22.676 0 0 1 224.90234 45.820312 L 224.90234 48.488281 C 224.90234 48.548281 224.93872 48.610781 225.01172 48.675781 C 225.08372 48.740781 225.14803 48.771484 225.20703 48.771484 L 230.08398 48.771484 L 230.08398 49.755859 L 225.00391 49.755859 C 224.68891 49.755859 224.41369 49.651406 224.17969 49.441406 A 1.021 1.021 0 0 1 223.82812 48.648438 L 223.82812 41.945312 z M 201.99805 42.044922 L 207.66602 42.044922 L 207.66602 43.003906 L 201.99805 43.003906 L 201.99805 42.044922 z M 190.84375 42.185547 L 190.84375 43.837891 L 193.50391 43.837891 L 193.50391 42.185547 L 190.84375 42.185547 z M 194.47266 42.185547 L 194.47266 43.837891 L 197.27734 43.837891 L 197.27734 42.185547 L 194.47266 42.185547 z M 158.94531 42.558594 C 159.34131 42.702594 159.74158 42.879891 160.14258 43.087891 L 159.61914 43.677734 C 159.54514 43.629734 159.14116 43.44314 158.41016 43.119141 L 158.94531 42.558594 z M 96.847656 42.751953 L 103.23828 42.751953 L 103.23828 49.34375 L 102.20312 49.34375 L 102.20312 48.841797 L 97.884766 48.841797 L 97.884766 49.34375 L 96.847656 49.34375 L 96.847656 42.751953 z M 156.74805 43.085938 L 157.72656 43.107422 A 6.325 6.325 0 0 0 157.72656 43.753906 L 160.60938 43.753906 L 160.60938 44.587891 L 157.74805 44.587891 C 157.78505 45.786889 157.91939 46.800813 158.15039 47.632812 C 158.45439 47.068813 158.78363 46.213405 159.14062 45.066406 L 160.04297 45.328125 C 159.62697 46.690124 159.13812 47.850595 158.57812 48.808594 C 158.70412 49.101593 158.86092 49.344063 159.04492 49.539062 C 159.22892 49.734062 159.36127 49.832031 159.44727 49.832031 C 159.62127 49.832031 159.77058 49.37589 159.89258 48.462891 L 160.74805 48.931641 C 160.73305 49.29164 160.62116 49.713219 160.41016 50.199219 C 160.19916 50.685218 159.89781 50.929688 159.50781 50.929688 C 159.03281 50.929688 158.52256 50.530421 157.97656 49.732422 C 157.69856 50.103422 157.32914 50.523141 156.86914 50.994141 L 156.05273 50.515625 C 156.67273 49.862626 157.15028 49.289875 157.48828 48.796875 C 157.10628 47.709876 156.87025 46.305889 156.78125 44.587891 L 152.33398 44.587891 L 152.33398 47.164062 C 152.33398 48.697061 152.01123 49.956454 151.36523 50.939453 L 150.60156 50.220703 C 151.11756 49.448704 151.37695 48.376905 151.37695 47.003906 L 151.37695 43.753906 L 156.74805 43.753906 A 4.96 4.96 0 0 1 156.74805 43.085938 z M 187.02734 43.142578 L 187.57227 43.982422 C 186.90827 44.175422 186.30939 44.31725 185.77539 44.40625 L 185.77539 45.697266 L 187.21094 45.697266 L 187.21094 46.615234 L 185.77539 46.615234 L 185.77539 48.0625 L 187.60742 48.0625 L 187.60742 48.998047 L 182.91406 48.998047 L 182.91406 48.0625 L 184.76758 48.0625 L 184.76758 46.615234 L 183.28711 46.615234 L 183.28711 45.697266 L 184.76758 45.697266 L 184.76758 44.578125 C 184.19958 44.634125 183.72852 44.675172 183.35352 44.701172 L 182.9707 43.789062 C 184.5337 43.704063 185.88434 43.488578 187.02734 43.142578 z M 168.37695 43.324219 L 174.81641 43.324219 L 174.81641 44.210938 L 172.47852 44.210938 C 172.29252 44.396937 172.06025 44.569422 171.78125 44.732422 C 172.25625 45.252421 172.59864 45.793516 172.80664 46.353516 C 173.58964 45.963516 174.33869 45.415937 175.05469 44.710938 L 175.77344 45.351562 A 10.438 10.438 0 0 1 173.39062 47.037109 C 174.09562 47.995108 175.1842 48.85247 176.6582 49.605469 L 176.08008 50.435547 C 174.76308 49.697548 173.78734 48.918562 173.15234 48.101562 C 173.16334 48.257562 173.16992 48.435719 173.16992 48.636719 C 173.16992 49.508718 173.04302 50.106735 172.79102 50.427734 C 172.53902 50.748734 172.04917 50.908203 171.32617 50.908203 C 171.13717 50.908203 170.89189 50.902625 170.58789 50.890625 L 170.25391 49.921875 C 170.77691 49.940875 171.14809 49.949219 171.37109 49.949219 C 171.64909 49.949219 171.83292 49.910031 171.91992 49.832031 A 0.792 0.792 0 0 0 172.12305 49.546875 C 172.17105 49.433875 172.19531 49.084953 172.19531 48.501953 C 172.19531 48.315953 172.19059 48.144375 172.18359 47.984375 C 170.7546 49.190374 169.03629 50.048547 167.0293 50.560547 L 166.58594 49.703125 A 11.48 11.48 0 0 0 172.02344 46.958984 A 2.991 2.991 0 0 0 171.7832 46.363281 C 170.4252 47.41328 168.87114 48.120375 167.11914 48.484375 L 166.68555 47.654297 C 168.32555 47.380297 169.87961 46.714249 171.34961 45.65625 C 171.32761 45.62625 171.19894 45.484515 170.96094 45.228516 C 169.91494 45.773515 168.69845 46.169063 167.31445 46.414062 L 166.85742 45.546875 A 11.027 11.027 0 0 0 171.14258 44.210938 L 168.37695 44.210938 L 168.37695 43.324219 z M 180.12109 43.470703 L 182.62695 43.470703 L 182.62695 44.404297 A 9.797 9.797 0 0 1 181.41992 45.947266 L 182.76562 45.947266 L 182.76562 46.882812 C 182.63563 47.828812 182.4118 48.602126 182.0918 49.203125 C 182.6448 49.585125 183.42841 49.775391 184.44141 49.775391 L 187.87305 49.775391 L 187.87305 49.777344 L 187.57227 50.757812 L 184.51758 50.757812 C 183.32658 50.757812 182.33864 50.485359 181.55664 49.943359 C 181.22564 50.288359 180.76478 50.628891 180.17578 50.962891 L 179.52539 50.171875 C 180.06739 49.915875 180.51233 49.608047 180.86133 49.248047 C 180.57533 48.921047 180.28242 48.358546 179.98242 47.560547 L 180.89453 47.255859 C 181.09153 47.834859 181.25477 48.220969 181.38477 48.417969 C 181.59977 47.990969 181.72667 47.480812 181.76367 46.882812 L 180.12109 46.882812 L 180.12109 45.947266 C 180.51809 45.613266 180.97247 45.098296 181.48047 44.404297 L 180.12109 44.404297 L 180.12109 43.470703 z M 97.884766 43.720703 L 97.884766 47.884766 L 102.20312 47.884766 L 102.20312 43.720703 L 97.884766 43.720703 z M 200.65039 44.294922 L 208.98438 44.294922 L 208.98438 45.230469 L 205.51172 45.230469 C 205.51172 46.143468 205.45666 46.899047 205.34766 47.498047 C 205.23766 48.098046 204.97827 48.658641 204.57227 49.181641 C 204.16627 49.70464 203.54408 50.157063 202.70508 50.539062 L 202.01953 49.765625 C 202.79553 49.409625 203.35803 49.031859 203.70703 48.630859 C 204.05603 48.23086 204.26961 47.80914 204.34961 47.369141 C 204.42961 46.930141 204.46503 46.215515 204.45703 45.228516 L 200.65039 45.228516 L 200.65039 44.294922 z M 190.84375 44.783203 L 190.84375 46.492188 L 193.50391 46.492188 L 193.50391 44.783203 L 190.84375 44.783203 z M 194.47266 44.783203 L 194.47266 46.492188 L 197.27734 46.492188 L 197.27734 44.783203 L 194.47266 44.783203 z M 152.80078 45.101562 L 156.55273 45.101562 L 156.55273 45.863281 L 155.37695 45.863281 L 155.37695 46.492188 L 156.35742 46.492188 L 156.35742 48.591797 L 155.37695 48.591797 L 155.37695 49.265625 L 156.37891 49.265625 L 156.37891 50.050781 L 152.80078 50.050781 L 152.80078 45.101562 z M 117.84961 45.419922 L 126.22656 45.419922 L 126.22656 46.425781 L 117.84961 46.425781 L 117.84961 45.419922 z M 244.97852 45.419922 L 253.35547 45.419922 L 253.35547 46.425781 L 244.97852 46.425781 L 244.97852 45.419922 z M 153.72461 45.863281 L 153.72461 46.492188 L 154.47656 46.492188 L 154.47656 45.863281 L 153.72461 45.863281 z M 153.72461 47.177734 L 153.72461 47.896484 L 155.44336 47.896484 L 155.44336 47.177734 L 153.72461 47.177734 z M 153.72461 48.591797 L 153.72461 49.265625 L 154.47656 49.265625 L 154.47656 48.591797 L 153.72461 48.591797 z "
     style="fill:#ffffff" />
  <g
     id="g10" />
</svg>
