<?xml version="1.0" encoding="utf-8"?>
<!-- Generator: Adobe Illustrator 24.0.2, SVG Export Plug-In . SVG Version: 6.00 Build 0)  -->
<svg version="1.1" id="Capa_1" xmlns="http://www.w3.org/2000/svg" xmlns:xlink="http://www.w3.org/1999/xlink" x="0px" y="0px"
	 viewBox="0 0 458.4 138.2" style="enable-background:new 0 0 458.4 138.2;" xml:space="preserve">
<style type="text/css">
	.st0{fill:#FFFFFF;}
	.st1{font-family:'ArialMT';}
	.st2{font-size:1px;}
</style>
<g>
	<text transform="matrix(1 0 0 1 412.3013 85.0181)" class="st0 st1 st2">I don’t like bugs!</text>
	<polyline class="st0" points="78.6,86.4 78.6,2.1 64.6,2.1 64.8,56.3 0,2.8 0.2,87.3 12.4,87.3 12.4,32.6 78.6,86.4 	"/>
	<path class="st0" d="M87.5,87.8l10.8-18.4h-9.9V56.5h16.3l29.6-53.8l47.3,85H165l-9.6-18.4h-42l-10.1,18.4L87.5,87.8 M119,56.3
		h30.3l-15.2-27.8L119,56.3"/>
	<polyline class="st0" points="301.7,87.8 287.9,87.8 287.9,3 334.8,57.4 382.1,1.8 382.1,87.8 367.4,87.8 367.2,41.6 334.6,80.9 
		301.7,41.8 301.7,87.8 	"/>
	<rect x="409" y="0.9" class="st0" width="13.8" height="86.9"/>
	<polygon class="st0" points="435.9,15.4 435.9,3.2 432,3.2 432,0.9 442.8,0.9 442.8,3.2 438.7,3.2 438.7,15.4 	"/>
	<path class="st0" d="M181.3,46.2C181.3,20.7,202,0,227.5,0s46.2,20.7,46.2,46.2S253,92.4,227.5,92.4S181.3,71.7,181.3,46.2
		 M227.5,78.6c17.9,0,32.4-14.5,32.4-32.4c0-17.7-14.5-32.2-32.4-32.2c-17.7,0-32.2,14.5-32.2,32.2
		C195.3,64.1,209.8,78.6,227.5,78.6"/>
	<polygon class="st0" points="451.5,15.3 447.4,6 447.4,15.4 444.6,15.4 444.6,0.9 447.6,0.9 451.5,9.9 455.4,1 458.4,1 458.4,15.5 
		455.7,15.5 455.7,6.1 	"/>
	<path class="st0" d="M28.4,116.7L28.4,116.7c0-1.1-0.3-1.9-1-2.3c-0.6-0.4-2.1-0.6-4.4-0.6h-4.1c-2.4,0-4,0.3-4.7,0.9s-1,1.8-1,3.7
		v3.2c0,1.7,0.4,2.8,1.2,3.5s2.3,0.9,4.6,0.9h4c2,0,3.5-0.2,4.2-0.6c0.8-0.4,1.2-1,1.2-1.9c0-0.1,0-0.3-0.1-0.6v-0.1H20v-4.7h15.8
		v7.6c0,2.2-0.8,3.7-2.4,4.7c-1.6,0.9-4.4,1.4-8.5,1.4H17c-2.4,0-4.2-0.1-5.4-0.4c-1.2-0.3-2.1-0.7-2.9-1.3c-0.9-0.7-1.6-1.6-2-2.7
		c-0.4-1.1-0.6-2.4-0.6-4.1V117c0-3.3,0.8-5.7,2.4-7s4.4-2,8.6-2H25c2.6,0,4.5,0.1,5.7,0.3s2.2,0.6,2.9,1.2s1.3,1.3,1.6,2.3
		s0.5,2.2,0.5,3.6c0,0.3,0,0.6,0,0.8c0,0.2,0,0.4,0,0.5H28.4L28.4,116.7z"/>
	<path class="st0" d="M68.2,110.1c-1.6-1.2-4.2-1.9-7.8-1.9H40v23.3h22.5c2.8,0,4.9-0.6,6.2-1.8c1.3-1.2,1.9-3.1,1.9-5.7v-8
		C70.7,113.4,69.8,111.4,68.2,110.1z M63.6,122.1c0,1.3-0.3,2.3-1,2.9s-1.8,0.9-3.3,0.9h-12V114h11.1c1.8,0,3.1,0.3,4,1
		c0.8,0.6,1.3,1.6,1.3,3L63.6,122.1L63.6,122.1z"/>
	<rect x="75" y="120.2" class="st0" width="10.5" height="6"/>
	<path class="st0" d="M113.6,122.4c1.4-0.3,2.4-1,3-2s0.9-2.5,0.9-4.5c0-2.9-0.7-4.9-2-6s-3.8-1.6-7.5-1.6H89.2v23.3h7.1v-6H107
		c1.3,0,2.1,0.2,2.6,0.5c0.4,0.3,0.6,1,0.6,1.9v3.6h7.1v-4.8c0-1.2-0.3-2.1-0.9-2.9C115.7,123.2,114.8,122.7,113.6,122.4z
		 M109.7,119.1c-0.4,0.4-1,0.7-2,0.7H96.4v-5.7h11.3c0.9,0,1.5,0.2,2,0.6c0.4,0.4,0.6,1.1,0.6,2C110.2,117.9,110,118.7,109.7,119.1z
		"/>
	<path class="st0" d="M152.3,112.3c-0.4-1.1-1-2-1.9-2.7c-0.8-0.6-1.8-1-3.1-1.3s-3.3-0.4-5.9-0.4H133c-2.6,0-4.6,0.1-5.9,0.4
		c-1.3,0.3-2.3,0.7-3.1,1.3c-0.9,0.7-1.5,1.6-1.9,2.7s-0.6,2.7-0.6,4.6v6.3c0,1.8,0.2,3.2,0.6,4.3c0.4,1.1,1,2,1.9,2.6
		c0.8,0.6,1.8,1,3.1,1.3c1.3,0.2,3.3,0.4,6,0.4h8.3c2.7,0,4.7-0.1,6-0.4c1.3-0.2,2.3-0.7,3.1-1.3c0.9-0.7,1.5-1.6,1.9-2.7
		c0.4-1.1,0.6-2.6,0.6-4.4v-6.5C152.9,114.9,152.7,113.4,152.3,112.3z M145.7,121.6c0,1.7-0.4,2.9-1.2,3.5s-2.5,0.9-5,0.9H135
		c-2.5,0-4.2-0.3-5-0.9s-1.3-1.8-1.3-3.5v-3.2c0-1.8,0.4-3,1.2-3.6s2.5-1,5-1h4.6c2.5,0,4.2,0.3,5,0.9s1.2,1.8,1.2,3.5V121.6
		L145.7,121.6z"/>
	<polygon class="st0" points="164.2,131.6 157.3,131.6 157.3,108.3 167.7,108.3 176,122.8 184.5,108.3 194.8,108.3 194.8,131.6 
		188,131.6 188,115 178.3,131.6 173.7,131.6 164.2,115 	"/>
	<path class="st0" d="M219.5,123.8h7v0.4c0,0.9,0.2,1.5,0.6,1.8c0.4,0.3,1.3,0.5,2.7,0.5h8.9c0.9,0,1.5-0.1,1.9-0.4s0.6-0.8,0.6-1.5
		s-0.2-1.2-0.6-1.5c-0.4-0.3-1.4-0.5-2.8-0.6l-11.2-0.3c-2.8-0.1-4.7-0.6-5.7-1.6s-1.5-2.8-1.5-5.3c0-1.3,0.1-2.4,0.4-3.3
		c0.3-0.9,0.7-1.6,1.3-2.2c0.7-0.6,1.6-1.1,2.7-1.4s2.9-0.4,5.3-0.4H240c2.7,0,4.6,0.5,5.8,1.5s1.8,2.6,1.8,4.8c0,0.1,0,0.3,0,0.5
		s0,0.4-0.1,0.8h-6.9v-0.1c0-0.8-0.2-1.3-0.6-1.7c-0.4-0.4-1-0.6-1.8-0.6H230c-1.4,0-2.3,0.1-2.7,0.4s-0.7,0.7-0.7,1.4
		c0,0.7,0.2,1.2,0.6,1.4c0.4,0.3,1.1,0.5,2.2,0.6l11.7,0.2c2.7,0.1,4.5,0.7,5.6,1.8c1.1,1.1,1.6,3.1,1.6,5.8c0,1.6-0.2,2.9-0.6,3.8
		c-0.4,0.9-1.1,1.6-2,2.3c-0.6,0.4-1.5,0.7-2.6,0.9s-2.6,0.3-4.7,0.3h-9.5c-3.9,0-6.5-0.4-7.8-1.3c-1.3-0.9-2-2.5-2-4.9
		c0-0.1,0-0.4,0-0.7C219.5,124.7,219.5,124.3,219.5,123.8z"/>
	<polygon class="st0" points="270.1,131.6 263,131.6 263,123.2 250.2,108.3 258.9,108.3 266.5,117.5 274.5,108.3 283,108.3 
		270.1,123.2 	"/>
	<path class="st0" d="M285.2,123.8h7v0.4c0,0.9,0.2,1.5,0.6,1.8s1.3,0.5,2.7,0.5h8.9c0.9,0,1.5-0.1,1.9-0.4s0.6-0.8,0.6-1.5
		s-0.2-1.2-0.6-1.5s-1.4-0.5-2.8-0.6l-11.2-0.3c-2.8-0.1-4.7-0.6-5.7-1.6s-1.5-2.8-1.5-5.3c0-1.3,0.1-2.4,0.4-3.3s0.7-1.6,1.3-2.2
		c0.7-0.6,1.6-1.1,2.7-1.4s2.9-0.4,5.3-0.4h10.9c2.7,0,4.6,0.5,5.8,1.5s1.8,2.6,1.8,4.8c0,0.1,0,0.3,0,0.5s0,0.4-0.1,0.8h-6.9v-0.1
		c0-0.8-0.2-1.3-0.6-1.7c-0.4-0.4-1-0.6-1.8-0.6h-8.2c-1.4,0-2.3,0.1-2.7,0.4c-0.4,0.3-0.7,0.7-0.7,1.4c0,0.7,0.2,1.2,0.6,1.4
		c0.4,0.3,1.1,0.5,2.2,0.6l11.7,0.2c2.7,0.1,4.5,0.7,5.6,1.8c1.1,1.1,1.6,3.1,1.6,5.8c0,1.6-0.2,2.9-0.6,3.8c-0.4,0.9-1.1,1.6-2,2.3
		c-0.6,0.4-1.5,0.7-2.5,0.9c-1.1,0.2-2.6,0.3-4.7,0.3h-9.5c-3.9,0-6.5-0.4-7.8-1.3c-1.3-0.9-2-2.5-2-4.9c0-0.1,0-0.4,0-0.7
		C285.2,124.7,285.2,124.3,285.2,123.8z"/>
	<polygon class="st0" points="334.3,131.6 327.2,131.6 327.2,114 317.5,114 317.5,108.3 344,108.3 344,114 334.3,114 	"/>
	<polygon class="st0" points="374.3,113.9 355.9,113.9 355.9,117.5 373.2,117.5 373.2,122.4 355.9,122.4 355.9,125.9 374.6,125.9 
		374.6,131.6 348.8,131.6 348.8,108.3 374.3,108.3 	"/>
	<polygon class="st0" points="386.2,131.6 379.3,131.6 379.3,108.3 389.8,108.3 398.1,122.8 406.5,108.3 416.9,108.3 416.9,131.6 
		410,131.6 410,115 400.4,131.6 395.7,131.6 386.2,115 	"/>
</g>
</svg>
