<?xml version="1.0" encoding="UTF-8"?>
<svg id="Calque_2" data-name="Calque 2" xmlns="http://www.w3.org/2000/svg" viewBox="0 0 633.22 114.6">
  <g id="Calque_1-2" data-name="Calque 1">
    <g>
      <path d="m354.09,4.97c9.98,11.44,19.53,22,28.63,32.92,9.13,10.95,19.12,21.15,27.97,33.21,19.4-22.79,38.38-45.09,57.53-67.58,1.42,3.66,1.9,96.57.63,105.15-5.68.61-11.5.54-17.99-.03-.79-6.27-.32-12.23-.4-18.14-.09-6.16-.03-12.33-.03-18.5,0-5.95,0-11.9,0-17.85-.32-.13-.64-.25-.97-.38-12.75,15.39-25.51,30.77-38.71,46.7-13.34-15.83-26.29-31.19-39.25-46.56l-.9.18v54.42c-5.86.81-11.05.65-16.14.23-1.14-4.01-1.51-95.13-.38-103.78Z" style="fill: #fff; stroke-width: 0px;"/>
      <path d="m278.77,1.01c32.82-1.76,58.09,27,57.7,56.59-.41,30.88-23.9,57.06-56.91,57-31.27-.05-56.48-23.28-56.88-57.2-.38-32.22,27.49-58.06,56.09-56.39Zm39.85,56.83c.45-21.79-16.78-39.49-38.95-39.55-21.22-.06-38.82,15.89-39.05,38.81-.24,24.13,18.51,39.72,38.59,39.83,23,.13,39.57-18.28,39.41-39.09Z" style="fill: #fff; stroke-width: 0px;"/>
      <path d="m79.92,3.31c6.06-.33,11.13-.45,16.08,0,1.22,4,1.67,93.3.54,103.42-13.75-10.7-26.8-21.52-39.93-32.24-13.08-10.68-26.25-21.24-40.36-32.65v65.66c-5.44,1.12-10.33.4-15.04.53C-.13,104.09-.46,10.86.74,4.8c5.31,3.27,10.04,7.15,14.63,11.14,9.39,8.18,19.16,15.89,28.74,23.84,8.56,7.1,16.99,14.34,25.59,21.39,3.03,2.49,5.91,5.27,10.23,7.57V3.31Z" style="fill: #fff; stroke-width: 0px;"/>
      <path d="m165.16,3.96c4.1,7.01,8.02,13.01,11.22,19.36,5.17,10.27,11.57,19.84,16.77,30.04,4.91,9.65,10.98,18.63,15.73,28.3,4.4,8.95,9.9,17.26,14.38,26.15-3.1,1.46-12.95,1.81-20.28.71-5.39-6.36-7.5-14.85-12.28-22.09h-50.97c-4.91,6.94-8.39,14.85-12.69,22.4-6.38.3-12.41.31-19.26,0,4.06-7.86,7.72-14.82,12.14-21.65-3.48-2.11-7.04-.19-10.58-1.9-.86-4.57-.39-9.45-.24-14.56,6.64-1.71,13.19.16,19.38-1.15,12.72-21.36,24.03-43.32,36.68-65.62Zm17.41,65.64c-5.38-11.62-11.12-22.01-17.77-32.7-6.14,11.1-11.93,21.58-18.08,32.7h35.85Z" style="fill: #fff; stroke-width: 0px;"/>
      <path d="m587.51,96.42h44.9c1.18,4.14.92,7.99.15,12.23h-66.42c-1.57-2.86-.8-5.82-.73-8.81,2.67-3.46,5.84-6.38,9.04-9.28,13.09-11.83,25.87-23.95,35.57-38.88,3.77-5.79,5.99-12.04,6.22-19.17.47-14.86-12.78-22-24.89-19.95-6,1.02-11.34,3.7-16.39,7.01-.67.44-1.47.68-2.38,1.09-2.55-2.76-3.42-6.07-4.36-9.39,2-2.89,4.84-4.41,7.6-5.77,10.1-5,20.67-6.84,31.89-4.49,10.98,2.29,20,11.27,22.45,22.23,2.66,11.91-1.03,22.27-6.95,32.26-6.53,11.02-15.7,19.73-24.57,28.73-3.84,3.9-7.4,8.08-11.14,12.2Z" style="fill: #fff; stroke-width: 0px;"/>
      <path d="m519.33,108.64c-6.14.59-11.5.64-16.44.08-1.92-1.95-1.51-3.87-1.51-5.66-.02-31.79-.01-63.58.01-95.37,0-1.63-.33-3.34,1.01-5.34,5.05-.69,10.44-.33,16.58-.18.71,8.95.24,17.7.32,26.42.09,8.99.02,17.98.02,26.96v26.46c0,8.76,0,17.53,0,26.62Z" style="fill: #fff; stroke-width: 0px;"/>
      <path d="m548.79,15.84c-3.21-1.23-2.08-3.69-2.83-5.48-2.07,1.18-.96,4.54-3.81,5.31-2.59-.81-2.33-3.59-3.28-5.56-1.89.91-.96,3.23-2.74,4.5-1.83-3.76-.05-6.91.6-10.31q3.13,1.11,5.36,5.19c2.27-1.07,1.4-5.04,5.04-5.14,2.79,3.2,2.3,7.04,1.66,11.5Z" style="fill: #fff; stroke-width: 0px;"/>
      <path d="m530.33,15.96c-1.85-3.26-.45-6.23-1.37-8.53-.68-1.42-2.26-1.07-3.11-2.48,2.94-1.51,5.77-1.02,8.74-.36-.26,1.92-2.31,1.55-2.69,2.74-1.21,2.56.15,5.4-1.58,8.62Z" style="fill: #fff; stroke-width: 0px;"/>
    </g>
  </g>
</svg>