<?xml version="1.0" encoding="UTF-8"?>
<svg id="Calque_2" data-name="Calque 2" xmlns="http://www.w3.org/2000/svg" viewBox="0 0 786.87 223.59">
  <g id="Calque_1-2" data-name="Calque 1">
    <g id="Layer_1" data-name="Layer 1">
      <g id="svg_1" data-name="svg 1">
        <g>
          <path d="m417.2,147.31h-60.66l42.01,70.84h60.78v-15.04c-4.06-1.27-7.2-2.88-9.44-4.8-2.38-2.06-4.48-4.42-6.24-7.03-.62-.83-1.22-1.68-1.77-2.56-.62-1.04-1.21-2.11-1.75-3.2,0,0-22.93-38.21-22.93-38.21h0Zm-90.29,0h-53.76v38.86c0,4.9-1,8.84-3.03,11.83-2.03,2.99-5.48,4.59-10.38,4.81v15.35h80.6v-15.04c-5.32-.42-8.9-2.07-10.72-4.95-1.8-2.88-2.7-6.98-2.7-12.31v-38.54h0Zm-265.52,0c2.39,6.54,5.45,12.8,9.15,18.7,10.13,16.21,26.17,24.31,48.13,24.31,19.62,0,34.5-7.35,44.63-22.07,4.51-6.51,8.22-13.54,11.05-20.94l56.4-.09c-5.49,17.33-15.24,32.33-29.22,45.01-23.04,20.9-50.85,31.35-83.5,31.35s-60.72-10.03-83.63-30.07c-14.41-12.58-24.29-27.95-29.65-46.1l56.64-.1h0Zm426.4-.1h53.73v38.64c0,5.34.9,9.44,2.73,12.31,1.8,2.88,5.37,4.52,10.72,4.95v15.04h-80.62v-15.35c4.91-.22,8.38-1.81,10.41-4.81,2-2.98,3.03-6.93,3.03-11.83v-38.95h0Zm162.43,0h-63.26c.84,2.01,1.75,4.02,2.72,6.01,7.23,14.98,17.65,28.19,30.54,38.71,13.21,10.76,28.51,18.66,44.94,23.19,16.44,4.57,33.34,7.3,50.39,8.15,2.34.21,4.68.32,7.02.32h7.04c6.72,0,13.44-.22,20.15-.65,5.11-.42,10.18-1.01,15.2-1.76s9.95-1.75,14.86-3.03v-52.13l-17.28.32c-2.34,7.47-6.66,12.9-12.93,16.31-6.3,3.4-13.19,5.58-20.31,6.4-3.72.41-7.47.62-11.21.63-23.88,0-43.19-9.22-57.89-27.66-3.72-4.66-7.05-9.61-9.97-14.81h0Z" style="fill: #fff; stroke-width: 0px;"/>
          <path d="m61.61,76.28c2.36-6.36,5.35-12.46,8.94-18.21,10.13-16.31,26.27-24.47,48.46-24.47,19.62,0,34.37,7.25,44.29,21.75,4.49,6.52,8.19,13.55,11.03,20.95,0,0,56.69,0,56.69-.01-5.51-17.34-15.5-32.42-29.98-45.25C177.7,10.35,150.35,0,119.01,0S58.92,10.4,35.35,31.18c-14.42,12.73-24.43,27.76-30.03,45.09h56.29Zm479.92,0h-53.73v-38.84c0-5.55-.9-9.55-2.73-12.01-1.8-2.44-5.37-4.1-10.72-4.95V4.8h80.62v15.36l-3.86.64c-3.39.63-5.76,2.24-7.02,4.8-1.3,2.61-2.17,5.42-2.57,8.31v42.37s0,0,0,0Zm100.16-2.19c2.29-7.92,5.9-15.39,10.67-22.11,9.49-13.33,24.47-19.99,44.94-19.99,10.03,0,19.1,2.66,27.2,8s12.16,13.43,12.16,24.31c-.22,1.92-.71,3.8-1.44,5.59-.72,1.75-1.63,3.42-2.73,4.96l2.29,1.43h19.29l32.79-34.37c-11.52-14.5-24.94-25.11-40.31-31.82-15.35-6.73-32.19-10.09-50.52-10.09-30.08,0-57.15,9.5-81.26,28.47-16.36,12.89-27.17,28.82-32.41,47.8h58.74l.59-2.19h0Zm-314.78,2.19v-41.09h27.82c10.67,0,19.72,2.25,27.2,6.72,7.46,4.47,11.18,12.69,11.18,24.63,0,3.6-.38,6.86-1.14,9.75h55c.99-4.49,1.49-9.23,1.49-14.23-1.08-20.04-9.02-34.5-23.83-43.35-14.83-8.84-31.08-13.38-48.79-13.6h-.8c-.39-.02-.77-.13-1.11-.32h-114.2v15.68c5.32.85,8.9,2.51,10.72,4.95,1.8,2.45,2.7,6.45,2.7,12.01v38.85h53.76,0Z" style="fill: #fff; stroke-width: 0px;"/>
          <path d="m754.08,76.28h-19.29l12.1,7.53,7.19-7.53ZM61.39,147.41H4.76c-3.17-10.74-4.76-22.46-4.76-35.14v-.31c0-12.82,1.77-24.71,5.32-35.68,0,0,56.3,0,56.29,0-4.17,11.28-6.25,23.28-6.25,35.99v-.31c0,12.5,6.04,35.45,6.04,35.45h0Zm112.96-.1c3.37-8.88,5.41-18.2,6.07-27.68.21-1.27.31-2.56.31-3.84v-3.83c0-1.49-.05-2.99-.16-4.49-.1-1.49-.16-2.98-.16-4.47-.78-9.15-2.82-18.14-6.07-26.73h56.67c3.37,10.62,5.06,22.09,5.06,34.4,0,13.16-1.78,25.34-5.33,36.55l-56.4.09h0Zm367.17-71.04v70.94h-53.73v-70.94h53.73Zm99.56,0h-58.74c-2.48,8.97-3.73,18.63-3.73,28.96,0,14.64,2.78,28.63,8.34,41.98v.09h63.26v-.09c-8.06-14.45-12.09-30.05-12.09-46.77,0-8.64.98-16.7,2.95-24.17h0Zm-194.14,0c-1.85,8.6-5.78,16.62-11.44,23.35-8.64,10.35-19.9,17.65-33.75,21.92l15.45,25.76h-60.66l-12.05-20.32h-17.58v20.32h-53.76v-71.03h53.76v20.32h26.22c10.03.22,19.18-1.76,27.51-5.91,5.8-2.91,9.58-7.7,11.33-14.4l54.98-.02h0Z" style="fill: #fff; stroke-width: 0px;"/>
        </g>
      </g>
    </g>
  </g>
</svg>