<?xml version="1.0" encoding="UTF-8"?>
<svg id="Calque_2" data-name="Calque 2" xmlns="http://www.w3.org/2000/svg" viewBox="0 0 325.01 172.8">
  <g id="Calque_1-2" data-name="Calque 1">
    <g id="Page-1">
      <g id="syslogo">
        <g id="Group-31">
          <g id="Group-35">
            <g id="path22">
              <path d="m39.15,144.39c-.14,0-.28-.02-.42-.06C15.25,137.65,1.92,127.38.19,114.64c-2.85-20.87,25.98-43.79,77.1-61.32.81-.28,1.68.15,1.96.96.28.8-.15,1.68-.96,1.96C29.41,72.99.65,95.21,3.24,114.22c1.53,11.27,14.43,20.92,36.32,27.15.82.23,1.29,1.08,1.06,1.9-.19.68-.81,1.12-1.48,1.12Z" style="fill: #fff; stroke-width: 0px;"/>
            </g>
            <g id="path24">
              <path d="m162.75,37.08c-.76,0-1.43-.57-1.53-1.35-.11-.84.49-1.61,1.33-1.72,17.55-2.24,34.84-3.47,51.39-3.66h.02c.84,0,1.53.68,1.54,1.52,0,.85-.67,1.55-1.52,1.56-16.44.19-33.61,1.42-51.04,3.64-.07,0-.13.01-.2.01Z" style="fill: #fff; stroke-width: 0px;"/>
            </g>
            <g id="path26">
              <path d="m183.23,145.62c-.73,0-1.38-.53-1.51-1.28-.15-.84.42-1.63,1.25-1.78,81.78-14.19,142.74-46.77,138.78-74.17-2.81-19.52-37.86-32.79-91.46-34.64-.85-.03-1.51-.74-1.49-1.59.03-.85.73-1.54,1.59-1.49,55.19,1.9,91.36,16.18,94.4,37.27,4.27,29.54-56.48,62.92-141.3,77.64-.09.02-.18.02-.27.02Z" style="fill: #fff; stroke-width: 0px;"/>
            </g>
            <g id="path28">
              <polyline points="198.31 61.59 232.95 24.02 189.25 51.08 173.61 39.66 181.18 57.97 146.53 95.54 190.24 68.48 205.88 79.9 198.31 61.59" style="fill: #fff; stroke-width: 0px;"/>
            </g>
            <g id="Shape">
              <path d="m101.45,62.33l.16-17.47,11.46-3.95c1.5-.52,2.45.22,2.43,1.91l-.11,11.95c-.02,1.69-.98,3.09-2.48,3.6l-11.46,3.95Zm142.59,24.83l.17-17.86c.05-5.65,4.99-12.06,9.85-13.74l21.06-7.25c3.55-1.22,6.8,2.41,6.76,6.53l-.08,5.75c-.04,4.12-3.37,9.08-6.92,10.31l-21.86,7.54.03,2.08c-.02,2.37,1.82,3.89,3.86,3.19l24.43-8.44-.09,9.42-27.56,9.5c-4.79,1.65-9.56-1.27-9.66-6.75v-.26Zm-59.3-7.71l8.8-3.03-.36,38.61-9,3.1.36-38.61.2-.08Zm-52.14,56.46l-9.01,3.1.23-25.07c.03-3.14-1.06-3.97-3.91-2.99l-15.69,5.41-.27,29.42-9.01,3.11.36-38.61,30.09-10.37c4.52-1.56,7.54.82,7.49,5.89l-.28,30.11Zm-44.94,5.4l-.09,10.11-37.66,12.98.62-67.11,31.11-10.72-.08,9.19-22.1,7.62-.18,19.31,18.01-6.21-.09,9.19-18.01,6.21-.18,19.31,28.66-9.88Zm.07-7.36l-21.29,7.33.04-4.59,17.19-5.93.22-23.9-17.19,5.93.04-4.6,21.29-7.34-.3,33.09Zm51.35,7.05v-.8c.62-.06,1.46.03,2.15-.2l17.71-6.07c-.04,3.75-4.67,5.51-11.79,7.96l-8.1,2.79-.23,24.82,10.64-3.66c26.49-7.41,34.29-23.16,34.65-40.35l31.93-11.01.27-29.42,2.6-.9c2.79-.96,2.34-1.42,2.3,1.52l-.25,27.1,22.92-7.9.02-1.79c1.92.47,4.05.38,6.19-.35l39.64-13.66.19-21.14-2.98-1.42c1.81-3.12,3.01-6.75,3.04-9.63l.07-3.34c-.09-12.43-11.79-13.68-16.73-11.97l-22.75,7.84c-4.03,1.39-8.08,5.08-10.73,9.49-3.61-2.5-8.56-2.85-11.24-1.92l-25.33,8.73,4.05,5.93,22.85-7.87c3.29-1.14,5.79-.18,6.89,2.39v.08c-.14,1.98-.49,33.81-.49,33.81l-8.19,2.82.23-25.08c.03-3.14-1.07-3.96-3.91-2.98l-15.69,5.41-.28,29.42-9,3.11.31-33.68-9.21-7.65-25.7,14.76,12.64-4.36.2-.07-.42,45.96c-.11,11.68-10.27,24.61-20.67,28.2l-10.64,3.67.09-9.2,8.1-2.79c7.12-2.46,14.07-11.24,14.14-19.15l.05-4.98-21.08,7.26c-4.52,1.56-7.54-.82-7.49-5.9l.2-21.61c.03-3.84,1.81-7.34,4.63-9.49l-.05-.57,9.4-10.29-6.17,2.19c-3.29,1.13-9.11,4.77-12.2,10.56-3.65-3.06-9.17-3.54-12.05-2.55l-22.72,7.83.2-21.15,16.58-5.71c8.83-3.04,17.07-15.02,17.16-24.93l.13-14.25c.09-9.91-7.99-16.27-16.81-13.23l-36.23,12.48-.41,44.13-33.36,11.5c-2.82.97-5.14,4.34-5.17,7.51l-.66,71.25c-.03,3.17,2.24,4.96,5.06,3.98l63.66-21.94.28-29.42,2.92-1.01c2.48-.89,2-1.19,1.97,1.83l-.25,26.91,22.93-7.9Zm114.03-72.17v1.12s17.02-5.87,17.02-5.87c1.34-.47,2.44-2.1,2.46-3.66.01-1.56-1.07-2.45-2.41-1.99l-4.38,1.5-6.98,2.41-1.77.61c-1.98.69-3.82,3.34-3.94,5.67v.22Zm-104.72,36.64l-.11,11.53c-.03,3.15,1.06,3.97,3.91,2.99l16.51-5.69.19-20.22-16.51,5.68c-2.85.98-3.97,2.56-3.99,5.71Zm6.5,3.05c.07-2.85,1.14-2.71,3.76-3.59l2.81-.97-.05,4.59-2.59.9c-2.78.96-3.91,1.95-3.93-.94Z" style="fill: #fff; stroke-width: 0px;"/>
            </g>
            <g id="path32">
              <path d="m178.22,56.95l-4.25-9.47-1.38.42-.02,2.52c-.01,1.75-1.14,3.37-2.69,3.91l-9.42,3.24c-1.55.54-2.65-.32-2.63-2.07l.25-27.12c.02-1.74,1.14-3.37,2.69-3.9l9.42-3.24c1.55-.54,2.65.32,2.63,2.07l-.04,3.45,19.04-6.56.04-4.13c.09-10.43-8.13-16.9-17.42-13.7l-18.21,6.28c-9.29,3.2-17.69,15.4-17.79,25.83l-.27,28.96c-.1,10.43,8.13,16.9,17.42,13.7l6.09-2.09,16.54-18.08" style="fill: #fff; stroke-width: 0px;"/>
            </g>
            <g id="path34">
              <path d="m191.05,48.52c.27-1.47.53-2.05.54-3.51l.04-3.68-7.58,2.61,7,4.58" style="fill: #fff; stroke-width: 0px;"/>
            </g>
          </g>
          <g id="NEC_logo_1963" data-name="NEC logo 1963">
            <g id="Path">
              <path d="m25.19,1.05h18.34l-1.22,6.97s-.54-3.78-2.8-5.26c-.56-.26-2-.24-5.59-.24l-1.41,8.31c2.87.67,6.05-3.7,6.05-3.7l-1.83,9.66s-1.12-4.38-4.64-4.23l-1.56,8.6c5.12,0,5.02-.04,6.26-.79,1.19-.73,3.98-4.32,4.09-4.82l-1.14,7.2h-18.54c.14-.96,1.94-1.06,2.75-1.61l1.52-8.36c-.12-.75-1.59-.1-1.89-.75.25-.69,1.73-.24,2.15-.73l1.54-8.48c-.27-.64-2.09-.96-2.09-1.76Z" style="fill: #fff; stroke-width: 0px;"/>
            </g>
            <g id="Path-2" data-name="Path">
              <path d="m59.79.4c.81,1.67,1.46,3.49,2.05,5.38-1.12.44-2.68,1.14-2.68,1.14l-2.95-4.1c-3.08-.24-7.23,4.34-7.55,7.2-.37,3.39,1.74,6.73,5.04,7.02,3.44.3,7.56-2.61,7.56-2.61l-3.78,8.32c-7.79,2.77-13.56-2.32-13.86-8.32C43.18,5.27,51.47.22,59.79.4Z" style="fill: #fff; stroke-width: 0px;"/>
            </g>
            <g id="Path-3" data-name="Path">
              <path d="m17.17,12.42L19.84,0l5.07,3.12-4.05,2.39-3.67,17.91L5.33,10.08l-1.62,8.26,2.88,2.38-6.06,2.7,2.94-13.95c.32-2.11-1.14-2.83-2.42-3.27L6.25.22l10.93,12.21Z" style="fill: #fff; stroke-width: 0px;"/>
            </g>
          </g>
        </g>
      </g>
    </g>
  </g>
</svg>