<?xml version="1.0" encoding="utf-8"?>
<!-- Generator: Adobe Illustrator 27.8.0, SVG Export Plug-In . SVG Version: 6.00 Build 0)  -->
<svg version="1.1" id="Calque_1" xmlns="http://www.w3.org/2000/svg" xmlns:xlink="http://www.w3.org/1999/xlink" x="0px" y="0px"
	 viewBox="0 0 423.2 68.7" style="enable-background:new 0 0 423.2 68.7;" xml:space="preserve">
<style type="text/css">
	.st0{fill:#FFFFFF;}
	.st1{fill:#C12E3A;}
	.st2{font-family:'ArialMT';}
	.st3{font-size:1px;}
</style>
<ellipse transform="matrix(0.9396 -0.3424 0.3424 0.9396 -2.4509 10.2067)" class="st0" cx="27.7" cy="12" rx="7.6" ry="12.5"/>
<path class="st0" d="M47.5,38.9c-0.1,4,4.1,8.1,8.6,11.4c3.1,2.3,6.2,3.9,8.7,5.2C44.6,50.1,32,47.2,14.5,35.8
	c-2.4-1.5-10.1-6.7-13.2-15.3c-0.7-1.9-2.5-7-0.1-10.5C2,8.8,3.1,8.1,3.7,7.8c5-2.6,13.3-0.7,14.6-0.4c-4.4-0.6-7.7,0.2-9,2.4
	c-2.8,4.8,4.9,14.6,17.2,21.9C34.4,36.3,42.1,38.8,47.5,38.9z"/>
<path class="st0" d="M37.2,14.1c10.5,3.1,11.4,8.3,11.2,9.9c-0.4,2.4-4.7,4-14.7,3.9c13.7,1.8,24.6,1.8,25.5-1.9
	C60,22.4,49.9,17.8,37.2,14.1z"/>
<text transform="matrix(1 0 0 1 366.7751 34.3278)" class="st1 st2 st3">I hate bugs!</text>
<g>
	<path class="st0" d="M112.3,13.4l0.3-1.8c0.1-0.7-0.4-1.3-1.1-1.3h-11l-0.8,5h10.5C111.2,15.3,112.2,14.5,112.3,13.4z"/>
	<polygon class="st0" points="153,45.1 157.8,45.1 156.3,38.7 	"/>
	<path class="st0" d="M126.1,22h8.4c1,0,1.8-0.7,1.9-1.6l1.3-7.8c0.2-1.2-0.7-2.3-1.9-2.3h-8.4c-1,0-1.8,0.7-1.9,1.6l-1.3,7.8
		C124,20.9,124.9,22,126.1,22z"/>
	<path class="st0" d="M400.5,17.6l22.7-15.4h-49.4l-13.5,5.2l-18.3,25l-15.9,11.9h-5.4l-0.7-1.3l17.8-40.9h-21.5l-6.3,27.7h-43.4
		c-1.4,0-2.6,0.4-3.7,1l1.8-12.9l-13,6.2l-2.1,15.1l-7-9.4h-14.8l9.1-4.8l2.2-12.6h8l9-10.4h-105c-2.3,0-4.4,1.1-5.8,2.8
		c0,0-0.2-0.2-0.3-0.3c-1.3-1.6-3.2-2.4-5.2-2.4H84.8l5.8,8.7l-0.4,2.2h-7.7L71.8,23.5h16.3l-4.3,26.7c-0.3,2,0.2,4,1.5,5.5
		c1.3,1.5,3.2,2.4,5.2,2.4h27.9l1.2-5.9l7.6,0L126,58h22.9l3.1-6h5.1l1.4,6h68.6l-2.2,10.6l14.5-7.2l2-10.8l5.7,7.4H259
		c0,0,0.2-1.6,0.2-1.5c1.2,1,2.7,1.5,4.3,1.5h15c1.5,0,2.8-0.4,4-1l-0.1,1h98.9l6.6-14.5h-5.7l-0.7,0.9l-0.2,0.2
		c-0.5,0.6-1.5,2-2.9,2h-8.9c4.4-2.3,7.5-3.8,9.4-4.7c0.6-0.3,1.8-0.9,3.3-1.8c2.2-1.4,4.1-2.6,5.6-4.9c0.6-1,2.1-3.3,1.7-6.3
		c-0.2-1.7-1-3.2-2.2-4.7c-2.2-2.5-5.8-3.7-10.6-3.8l6-2.9H400.5z M250.9,4.4l-5.1,5.9H237l-2.4,13.4l-8.1,4.3l3.2-17.7h-10.1
		l3.6-5.9H250.9z M221.7,4.4l-3.6,5.9h-12.9l-0.3,3.1h12l-2.7,5h-9.9l-0.4,3.6h15l3.3,5.9h-26.1l2.5-23.6H221.7z M197.1,4.4
		l-10,11.8l7.6,11.8h-9.9l-7.6-11.8l10-11.8H197.1z M145.9,8.6c0.4-2.5,2.5-4.3,5-4.3h30.5l-4.7,5.9h-20.9c-1.5,0-2.7,0.9-3,2.1
		l-1.4,7c-0.3,1.4,1,2.6,2.6,2.6h8l3.1,5.9h-17.3c-2.8,0-4.9-2.5-4.4-5.2L145.9,8.6z M176.4,12.3l-1.9,15.6h-7.7l1.9-15.6H176.4z
		 M139.6,4.4c2.8,0,5,2.6,4.5,5.3c0,0-2,11.3-2.6,15.8c0,0.3-0.1,0.9,0.2,1.6c0.1,0.4,0.3,0.7,0.5,0.9h-19.9c-2.8,0-5-2.6-4.5-5.3
		c0,0,2-11.3,2.6-15.8c0-0.3,0.1-0.9-0.2-1.6c-0.1-0.4-0.3-0.7-0.5-0.9H139.6z M77.4,21.2l6.2-6h8.7l0.8-5l-4-5.9h26.5
		c2,0,3.5,1.8,3.2,3.8l-1.7,10c-0.3,1.8-1.8,3-3.6,3H98.9l-1,6.8l-9.1,4.2l2-11H77.4z M90.4,55.8c-2.8,0-4.9-2.5-4.4-5.2l2.3-14.1
		c0.4-2.5,2.5-4.3,5-4.3H125l-4.7,5.9h-22c-1.5,0-2.7,0.9-3,2.1l-1.4,7c-0.3,1.4,1,2.6,2.6,2.6h8l3.1,5.9H90.4z M128.8,55.8l1.2-5.9
		l-12.3,0l-1.2,5.9H109l3.3-15.8h7.6l-0.6,3.1h12.2l2.3-10.9h7.6l-4.9,23.6H128.8z M160.3,55.8l-1.4-6h-8.3l-3.1,6h-9.1l13.8-23.6
		h10.6l6.4,23.6H160.3z M170.8,55.8l3.8-23.6h6.7l-2.8,17.5l6.3,0.1l2.3,6H170.8z M188.9,55.8l3.8-23.6h6.7l-2.8,17.5l6.3,0.1l2.3,6
		H188.9z M207.1,55.8l2.5-23.6h23l-3.6,5.9h-12.9l-0.3,3.1h12l-2.7,5h-9.9l-0.4,3.6h10.7l3.3,5.9H207.1z M257,55.8h-8.8l-8.1-10.5
		l-2.8,14.7l-9.3,4.6l6.6-32.4h6.6l9.6,12.9l2.8-19.4l8.1-3.9L257,55.8z M385.5,25.8c0.4,0.4,1.4,1.6,1.7,3.4c0.3,2.2-0.8,4-1.4,4.8
		c-1.2,1.9-2.8,2.9-4.9,4.2c-1.5,1-2.8,1.5-3,1.6c-2.8,1.3-8.2,4-17.8,9h15.7c0.8,0,1.5,0,2.5,0c2.7,0,4.3-2.4,4.8-3h1.1l-4.5,9.9
		h-39.6c0.2-1,0.6-2.9,1.8-4.4c0.6-0.7,1.4-1.6,4.2-3.1c2.9-1.7,4.9-2.5,4.9-2.5c2-0.8,18.4-7.1,22.5-10.7c1.5-1.3,1.5-2.3,1.5-2.5
		c0-0.9-0.7-1.5-0.8-1.6c-0.2-0.1-0.6-0.5-2.2-0.7c-2.1-0.3-3.6,0-4,0.1c-0.8,0.2-1.3,0.3-1.9,0.6c-0.5,0.3-1.5,0.9-1.8,2.1
		c-0.4,1.5,0.8,2.8,0.9,2.9h-14.5c1.4-2,4.8-6.9,9.4-9.4c2.4-1.4,4.5-1.9,6.1-2.4C367.6,23.9,380.6,20.3,385.5,25.8z M370.5,21
		c-2.6,0.2-12.6,1.2-19.2,9.4c-2,2.5-3.6,5.9-4.3,8.1h8.9l-3,3.8c-3.1,1-14,4.8-15.1,12.2c-0.1,0.4-0.1,0.8-0.1,1.3H314l-5.6-9.1
		l2-8.6H294l-0.3,3.1h12l-2.7,5h-9.9l-0.4,3.6h14.2l3.3,5.9h-25.3l1.9-17.7h-15.4c-1.5,0-2.7,0.9-3,2.1l-1.4,7
		c-0.3,1.4,1,2.6,2.6,2.6h4.8c1.8,0,3.3-1.5,3.3-3.3h0v-1.4h-5.5l3.5-4.5h9.5l-0.6,8.4c-0.2,3.7-2.4,6.7-6.1,6.7h-15
		c-2.8,0-4.9-2.5-4.4-5.2l2.3-14.1c0.4-2.5,2.5-4.3,5-4.3h21l0,0h24.3L318,4.5h16.2l-16.8,38.7l1.9,3.4h7.5l16.8-12.6l18.1-24.8
		l12.5-4.8h41.6l-16,10.8h-17.7L370.5,21z"/>
	<polygon class="st0" points="297,32.2 287.4,32.2 286.8,38.1 292.2,38.1 	"/>
	<polygon class="st0" points="314,32.2 311.7,32.2 310.4,38.1 310.4,38.1 	"/>
</g>
</svg>
