<svg enable-background="new 0 0 423.169 68.655" viewBox="0 0 423.169 68.655" xmlns="http://www.w3.org/2000/svg"><ellipse cx="27.683" cy="12.045" fill="#40256c" rx="7.618" ry="12.513" transform="matrix(.9396 -.3424 .3424 .9396 -2.4509 10.2066)"/><path d="m47.525 38.878c-.062 3.996 4.113 8.097 8.563 11.434 3.057 2.292 6.188 3.938 8.688 5.188-20.188-5.438-32.793-8.318-50.25-19.688-2.357-1.535-10.079-6.745-13.188-15.313-.707-1.949-2.55-7.028-.125-10.5.821-1.176 1.898-1.917 2.523-2.24 4.977-2.572 13.296-.658 14.594-.449-4.384-.557-7.685.178-8.988 2.363-2.838 4.756 4.867 14.581 17.208 21.944 7.8 4.654 15.585 7.21 20.975 7.261z" fill="#c12a2b"/><path d="m37.171 14.07c10.52 3.094 11.435 8.348 11.153 9.93-.424 2.375-4.736 3.969-14.736 3.938 13.688 1.75 24.626 1.804 25.5-1.875.874-3.68-9.167-8.243-21.917-11.993z" fill="#c12a2b"/><text fill="#c12e3a" font-family="ArialMT" font-size="1" transform="translate(366.7751 34.3277)">I hate bugs!</text><path d="m376.479 20.611 6.155-3.011h17.837l22.698-15.369h-49.399l-13.516 5.226-18.276 25.015-15.875 11.926h-5.409l-.725-1.303 17.766-40.863h-21.519l-6.298 27.708h-43.442c-1.358 0-2.636.364-3.735 1.008l.008-.004 1.789-12.944-12.962 6.23-2.147 15.124-7.015-9.414h-14.826l9.102-4.831 2.236-12.592h7.952l8.971-10.41h-104.957c-2.324 0-4.416 1.068-5.773 2.776 0 0-.163-.226-.253-.333-1.294-1.553-3.196-2.443-5.217-2.443h-54.845l5.834 8.659-.366 2.174h-7.669l-10.827 10.535h16.323l-4.322 26.702c-.327 1.961.223 3.956 1.509 5.473 1.285 1.517 3.163 2.387 5.151 2.387h27.929l1.241-5.909 7.616-.004-1.242 5.913h22.925l3.09-5.991h5.092l1.381 5.991h68.627l-2.154 10.618 14.478-7.19 2.027-10.825 5.713 7.398h11.839s.214-1.551.214-1.55c1.201.996 2.718 1.55 4.306 1.55h14.995c1.472 0 2.814-.359 3.971-1.018l-.111 1.018h98.863l6.554-14.473h-5.673l-.682.856-.172.223c-.485.637-1.496 1.962-2.865 1.962h-8.91c4.384-2.253 7.491-3.794 9.413-4.669.596-.271 1.813-.86 3.261-1.765 2.195-1.371 4.093-2.555 5.586-4.893.631-.988 2.108-3.303 1.711-6.327-.22-1.675-.977-3.242-2.248-4.657-2.244-2.499-5.869-3.766-10.773-3.766" fill="#40256c"/><g fill="#fff"><path d="m115.557 4.374h-26.49l3.958 5.875-.833 4.958h-8.667l-6.167 6h13.458l-2 11 9.125-4.25.958-6.75h14.577c1.783 0 3.304-1.29 3.596-3.048l1.664-10.034c.326-1.964-1.189-3.751-3.179-3.751zm-2.962 7.191-.255 1.801c-.156 1.104-1.102 1.925-2.217 1.925h-10.515l.833-5h11.046c.681 0 1.203.601 1.108 1.274z"/><path d="m176.662 10.265h-20.881c-1.48 0-2.742.902-2.985 2.133l-1.389 7.038c-.27 1.366.98 2.61 2.622 2.61h8.049l3.134 5.891h-17.276c-2.771 0-4.878-2.487-4.423-5.22l2.343-14.075c.41-2.462 2.54-4.267 5.036-4.267h30.487z"/><path d="m144.099 9.713c.509-2.779-1.625-5.339-4.45-5.339h-19.853c.154.195.343.481.485.862.252.677.211 1.278.17 1.593-.55 4.516-2.573 15.769-2.573 15.769-.509 2.779 1.625 5.339 4.45 5.339h19.853c-.154-.195-.343-.481-.484-.862-.252-.677-.211-1.278-.17-1.593.55-4.516 2.572-15.769 2.572-15.769zm-6.333 2.845-1.301 7.836c-.157.944-.974 1.637-1.931 1.637h-8.393c-1.209 0-2.129-1.085-1.931-2.278l1.301-7.836c.157-.944.974-1.637 1.931-1.637h8.393c1.209 0 2.129 1.085 1.931 2.278z"/><path d="m120.308 38.098h-22.027c-1.48 0-2.742.902-2.985 2.133l-1.389 7.038c-.27 1.366.98 2.61 2.622 2.61h8.049l3.134 5.891h-17.275c-2.771 0-4.878-2.487-4.423-5.22l2.343-14.075c.41-2.462 2.54-4.267 5.036-4.267h31.633z"/><path d="m174.496 27.937h-7.69l1.875-15.594h7.689z"/><path d="m177.15 16.155 7.583 11.782h9.875l-7.583-11.782 10.042-11.781h-9.875z"/><path d="m203.901 21.999h14.999l3.292 5.938h-26.084l2.542-23.563h23.042l-3.646 5.854h-12.871l-.344 3.146h12.027l-2.708 5.042h-9.863z"/><path d="m214.859 49.832h10.666l3.292 5.938h-21.75l2.541-23.563h23.042l-3.646 5.855h-12.87l-.345 3.145h12.027l-2.708 5.042h-9.863z"/><path d="m292.692 49.832h14.229l3.292 5.938h-25.313l2.542-23.563h26.604l-3.646 5.855h-16.433l-.344 3.145h12.027l-2.708 5.042h-9.863z"/><path d="m219.588 10.249 3.562-5.875h27.75l-5.062 5.875h-8.813l-2.375 13.375-8.125 4.313 3.188-17.688z"/><path d="m119.195 43.058.643-3.059h-7.563l-3.312 15.771h7.562l1.241-5.908 12.251-.007-1.242 5.915h7.563l4.949-23.563h-7.563l-2.279 10.851z"/><path d="m162.9 32.207h-10.625l-13.812 23.563h9.063l3.09-5.991h8.279l1.381 5.991h9.062zm-9.895 12.939 3.332-6.46 1.489 6.46z"/><path d="m178.463 49.749 6.312.063 2.333 5.958h-16.333l3.75-23.563h6.729z"/><path d="m196.588 49.749 6.312.063 2.333 5.958h-16.333l3.75-23.563h6.729z"/><path d="m234.65 32.207-6.562 32.355 9.312-4.625 2.75-14.688 8.125 10.521h8.75l4.688-33.896-8.063 3.875-2.75 19.375-9.625-12.917z"/><path d="m277.662 46.621c0 1.8-1.459 3.259-3.259 3.259h-4.791c-1.642 0-2.892-1.244-2.622-2.61l1.389-7.038c.243-1.231 1.506-2.133 2.985-2.133h20.881l4.717-5.891h-30.487c-2.496 0-4.626 1.805-5.036 4.267l-2.343 14.075c-.455 2.733 1.653 5.22 4.423 5.22h14.994c3.688 0 5.802-2.979 6.052-6.677l.625-8.427h-9.5l-3.542 4.542h5.512v1.413z"/><path d="m350.838 36.062h14.5c-.102-.105-1.314-1.388-.938-2.938.285-1.175 1.309-1.782 1.781-2.063.598-.354 1.089-.456 1.906-.625.377-.078 1.883-.37 3.969-.109 1.66.207 2.091.565 2.246.707.096.088.737.692.785 1.559.014.254.018 1.247-1.484 2.531-4.163 3.558-20.512 9.874-22.536 10.667 0 0-2 .783-4.948 2.458-2.758 1.567-3.592 2.395-4.156 3.125-1.169 1.511-1.583 3.358-1.75 4.396h39.563l4.5-9.937h-1.063c-.505.637-2.101 3.042-4.812 3.042-1.016 0-1.719 0-2.5 0h-15.688c9.581-5.025 14.993-7.745 17.75-9 .215-.098 1.458-.662 3-1.625 2.058-1.285 3.659-2.285 4.875-4.188.537-.84 1.665-2.606 1.375-4.813-.24-1.826-1.333-3.043-1.688-3.438-4.919-5.476-17.89-1.891-19.25-1.5-1.58.454-3.617 1.019-6.063 2.375-4.525 2.51-7.985 7.332-9.374 9.376z"/><path d="m347.025 38.437h8.938l-3 3.813c-3.115 1.007-13.973 4.845-15.094 12.25-.062.41-.095.833-.094 1.271h-23.729l-5.604-9.104 9.583-42.167h16.25l-16.833 38.719 1.917 3.448h7.5l16.75-12.583 18.083-24.75 12.5-4.833h41.583l-16 10.833h-17.667l-11.583 5.667c-2.555.188-12.584 1.226-19.188 9.375-2.046 2.524-3.572 5.924-4.312 8.061z"/></g></svg>