<?xml version="1.0" encoding="utf-8"?>
<!-- Generator: Adobe Illustrator 27.8.0, SVG Export Plug-In . SVG Version: 6.00 Build 0)  -->
<svg version="1.1" id="Layer_1" xmlns="http://www.w3.org/2000/svg" xmlns:xlink="http://www.w3.org/1999/xlink" x="0px" y="0px"
	 viewBox="0 0 382.6 91.6" style="enable-background:new 0 0 382.6 91.6;" xml:space="preserve">
<style type="text/css">
	.st0{fill:none;stroke:#FFFFFF;stroke-miterlimit:10;}
	.st1{fill:#FFFFFF;}
</style>
<path class="st0" d="M303,3.4l-70.6,15.5L137.7,18L43.9,7L0,19.6l18.4,59.6L87,91.6l70.4-7.7l85.7,6.3l109,0.5l30.5-70L303,3.4z"/>
<path class="st1" d="M73.3,23.1c-8.3-2.4-22.7-2.7-31.4-1.9c-3.1,0.3-6.6,2.1-8,4.9c-0.6,1.2-0.3,2.5-0.7,3.5
	c-0.5,1.3-1.7,1.5-3.1,1.6c-2.3,0.2-5.7,1.7-3.9,5.6c0,0,3.4,5.6,5.4,14S35.4,68,45.5,68.6c10.1,0.7,14.5-1.9,12.8-7.4
	c-1.7-5.6-3.7-9.8,0.4-9.3c4,0.5,13.9,0,21-4.4s7.4-5.7,7.4-12.4C87.1,28.8,82.5,25.7,73.3,23.1z M58,41.3c-3,0.9-6.1-0.3-7.7-3
	l-1-1.7c-0.9-1.2-0.6-2.9,0.6-3.7c6.6-4.2,15.5-1.7,16.9,3C66.3,38.4,61.7,40.2,58,41.3z M137.2,42.9c-3.1-1-8.6-1-8.6-1
	c-5.1-0.3-9.9,3.2-10.6,8.2c-0.9,6.2-1.8,17.1-1.2,19.6c0.9,3.5,6.2,6.4,11.2,6.4c5,0,10.4-3.6,11.3-8.5
	C140.1,62.7,143.1,44.8,137.2,42.9L137.2,42.9z M237.1,56.8c-1.7-1-4.6-1.2-6.6-1.1h-0.3c-3.4,0.2-6.7,0.8-9.8,2.3
	c-3.9,1.9-10.1,4.4-15.9,4.3c-9.6-0.2-11.2-6.3-8.6-9.8c2.6-3.5,8-7,19-8.1c6.4-0.7,9.5-1,11.7-1.8c3.3-1.3,3.7-3.9,0.9-6.1
	c-1.9-1.5-4.6-2.8-8.1-3c-7.5-0.4-24.8,0.6-39.1,10.4c-12.4,7-7.4,16.4-4.5,19.2c3.9,3.9,10.2,9.6,29.6,9.6c17.4,0,25.1-3.9,30-5.9
	c1.3-0.5,2.6-2,3.5-3.1l0.8-0.9c1.2-1.4,0.1-3.7-0.6-4.3L237.1,56.8L237.1,56.8z M319.1,51c-3.5,0.5-8.2,0.3-11.5,0.3
	s-6.1,0.1-8.8-1.7l-0.8-0.5c-0.7-0.4-1.6-0.2-2.1,0.4c-0.4,0.7-0.2,1.6,0.4,2.1l0.8,0.5c3.4,2.2,6.8,2.5,10.1,2.5h0.4
	c3.4,0,8.3-0.2,11.9-0.7c0.8-0.1,1.4-0.9,1.3-1.7S320,50.9,319.1,51L319.1,51z"/>
<path class="st1" d="M334.5,34.3c-6.3-3.5-19.1-5.3-30.1-5.3c0,0-10.8-1-23.4,7.4s-8.7,17.3-5.3,21.1c3.4,3.8,18.5,11.6,36,10.1
	c17.5-1.6,26.7-6.8,28.1-14.4C341.4,44.6,340.7,37.9,334.5,34.3L334.5,34.3z M328.6,48.2l-0.5,1.3c-3,7.8-10.9,9.2-19.8,9.2
	c-9,0-13.7-1.6-17.4-4.6c-3.7-3-4.4-6.6,0-10.8c2.3-2.2,5.3-3.5,8.2-4.3c0.4,2.9,1.7,6.2,5.2,5.1c6-1.8,2.7-3.2,2.7-3.2
	s-4.2,0.3-1.2-3c1.8-0.1,3,0,3,0c0.9,0.1,1.8,0.1,2.7,0.2c-0.6,2.1-0.7,5.1,2.9,6.2c5.6,1.8,5-1.3,5-1.3c0.4,0.2-2.7-1.3-1.2-3.9
	c3,0.7,5.2,1.5,7,2.4C327.6,42.9,329.5,45.6,328.6,48.2L328.6,48.2z M315.7,25.8c5.8,0,8.6-5.8,9.8-9.1c0.5-1.3,0.2-2.4-0.6-2.4
	c-4.2-0.2-7.7,4.9-9.5,8.3C314.5,24.2,314.7,25.8,315.7,25.8L315.7,25.8z M337.8,32.2c5.1,2.2,10.5-1.9,13.2-4.4
	c1.1-1,1.4-2.1,0.7-2.5c-3.6-1.8-9.2,1.5-12.6,3.9C337.6,30.2,336.9,31.8,337.8,32.2L337.8,32.2z M359.7,50
	c-3.3-4.5-10-3.6-13.6-2.7c-1.4,0.3-2.3,1.2-1.9,1.8c2.2,3.3,8.7,3.3,12.8,2.9C358.9,51.8,360.3,50.8,359.7,50z M339,62.7
	c-1.4-0.3-2.6,0.2-2.4,0.9c0.6,4.1,6.6,6.8,10.5,8.2c1.7,0.6,3.4,0.2,3.2-0.7C349.1,65.4,342.6,63.4,339,62.7L339,62.7z M319.2,69.9
	c-2.1,3.7,0.8,9.1,3,12.3c0.9,1.4,2.5,1.9,3,1.1c2.7-5.3-1.2-10.3-3.6-12.8C320.8,69.4,319.6,69.2,319.2,69.9z M300.9,70.5
	c-4.2,0.6-6.4,5.9-7.5,9.3c-0.4,1.5,0.1,3,1.1,2.8c5.7-1.1,7.2-6.8,7.5-10C302.2,71.4,301.6,70.4,300.9,70.5z M281.4,65.5
	c-3.9-1.5-8.8,2.3-11.6,4.9c-1.2,1.1-1.5,2.8-0.6,3.1c5.5,1.8,9.9-2.8,12-5.5C282.1,66.9,282.1,65.7,281.4,65.5z M270.5,53.8
	c0.4-0.5-0.5-1.3-1.9-1.7c-3.6-0.9-10.2-1.9-13.5,2.1c-0.5,0.7,0.9,1.7,2.6,1.9C261.8,56.6,268.3,56.8,270.5,53.8z M261.2,32.9
	c3.1,2.7,8.3,6.6,11.8,5.4c0.6-0.2,0.4-1.3-0.6-2.4c-2.4-2.8-7.3-7.4-12.3-5.9C259.3,30.1,259.8,31.7,261.2,32.9z M295.2,25.3
	c0.7-0.1,0.8-1.1,0.3-2.3c-1.3-3-4.4-8.2-9.7-7.9c-0.9,0-0.9,1.6,0,3C287.8,21.2,291.5,25.7,295.2,25.3L295.2,25.3z M123,7.5
	c-6.5,2.6-8.1,9.8-3.1,13.5c2.3,1.7,4.8,4.3,6.9,6.6c0,0,0.6,1.4,1.1,3.3c-0.9-0.3-1.9-0.3-2.2,0.4c-1,2.1,0.8,2.3,2.9,2.8
	c0.1,0.5,0.1,1,0.1,1.5c0.2,3.9,2.7,3.1,3.2,1.7c0.1-0.4,0.3-1.2,0.4-2.1c1.8,0.5,3.4,0.6,3.4-0.8c0-1.2-1.5-1.9-2.7-2.3
	c0.1-0.4,0.2-0.9,0.4-1.3c1.2,0.3,2.3,0.4,2.7-0.5c0.3-0.8-0.6-1.3-1.8-1.7c0.2-0.5,0.5-0.9,0.8-1.3c5.8-8,8.3-10.7,8-13.6
	C142.7,10.1,135.7,2.4,123,7.5z M131.2,25.1c0,0-4.4-4.8-7.8-7.3s-1.7-7.3,2.4-8.3c5.6-1.3,11.8,1.4,12.5,3.6
	C139,15.4,138.6,17.5,131.2,25.1L131.2,25.1z"/>
<path class="st1" d="M147.8,6.9c0-0.3-0.2-0.6-0.5-0.6c-0.1,0-0.3,0-0.4-0.1c-0.1-0.1-0.2-0.1-0.4-0.1c-0.1,0-0.3,0.1-0.4,0.1
	c-0.2,0-0.4,0.1-0.5,0.2c-0.5,0.2-0.9,0.5-1.3,0.9c-0.3,0.2-0.6,0.5-0.8,0.8c-0.2,0.4-0.1,0.9,0.3,1.2c0.4,0.3,0.9,0.2,1.3,0.1
	c0.4-0.2,0.9-0.4,1.3-0.6C147.1,8.5,147.8,7.8,147.8,6.9L147.8,6.9z M139.2,0.4c-0.9-0.1-1.6,0.6-2.1,1.2c-0.2,0.3-0.4,0.7-0.6,1.1
	c-0.1,0.4-0.3,0.9-0.2,1.3c0.1,0.5,0.6,1,1.1,0.8l0.6-0.3c0.1,0,0.3,0,0.4-0.1c0.3-0.3,0.6-0.6,0.9-1c0.3-0.3,0.5-0.7,0.7-1.1
	s0.3-0.9,0.1-1.4C139.9,0.7,139.6,0.4,139.2,0.4z M127.5,0.5c-0.4-0.5-1.3-0.6-1.8-0.2c-0.3,0.2-0.3,0.6-0.4,1c0,0.3,0,0.7,0.1,1
	s0.2,0.7,0.5,0.9c0.3,0.3,0.8,0.3,1.2,0.1c0.3-0.2,0.6-0.4,0.7-0.8V2.1C128,1.5,127.9,0.9,127.5,0.5L127.5,0.5z M118.1,3.5
	c-0.3-0.3-0.6-0.6-1-0.8s-0.9-0.4-1.3-0.2c-0.4,0.3-0.5,0.7-0.5,1.2s0.1,0.9,0.4,1.3c0.2,0.4,0.5,0.7,0.8,1s0.6,0.6,1,0.8
	c0.5,0.2,1,0.1,1.3-0.3c0.1-0.1,0.2-0.3,0.3-0.4c0.2,0,0.5-0.2,0.4-0.5C119.3,4.7,118.7,4.1,118.1,3.5z M113.4,11.2
	c-0.1-0.2-0.3-0.3-0.5-0.5c-0.4-0.4-1-0.9-1.6-0.5c-0.3,0.2-0.4,0.6-0.4,0.9c0,0.3,0,0.7,0.1,1c0.2,0.6,0.5,1.2,0.9,1.7
	c0.3,0.5,0.7,1,1.1,1.4s1.1,0.5,1.6,0.2s0.6-1,0.4-1.5C114.8,12.8,114.2,11.9,113.4,11.2z"/>
</svg>
