<?xml version="1.0" encoding="utf-8"?>
<!-- Generator: Adobe Illustrator 27.8.0, SVG Export Plug-In . SVG Version: 6.00 Build 0)  -->
<svg version="1.1" id="Layer_1" xmlns="http://www.w3.org/2000/svg" xmlns:xlink="http://www.w3.org/1999/xlink" x="0px" y="0px"
	 viewBox="0 0 382.6 91.6" style="enable-background:new 0 0 382.6 91.6;" xml:space="preserve">
<style type="text/css">
	.st0{fill:#FFFFFF;}
</style>
<g>
	<path class="st0" d="M303,3.4l-70.6,15.5L141.7,18c-1.3,2.1-3.5,4.9-6.6,9.3c-0.3,0.4-0.6,0.8-0.8,1.3c1.2,0.4,2.1,0.9,1.8,1.7
		c-0.4,0.9-1.5,0.8-2.7,0.5c-0.2,0.4-0.3,0.9-0.4,1.3c1.2,0.4,2.7,1.1,2.7,2.3c0,1.4-1.6,1.3-3.4,0.8c-0.1,0.9-0.3,1.7-0.4,2.1
		c-0.5,1.4-3,2.2-3.2-1.7c0-0.5,0-1-0.1-1.5c-2.1-0.5-3.9-0.7-2.9-2.8c0.3-0.7,1.3-0.7,2.2-0.4c-0.5-1.9-1.1-3.3-1.1-3.3
		c-2.1-2.3-4.6-4.9-6.9-6.6c-1.9-1.4-2.9-3.4-2.9-5.4L43.9,7L0,19.6l18.4,59.6L87,91.6l70.4-7.7l85.7,6.3l109,0.5l30.5-70L303,3.4z
		 M79.7,47.5c-7.1,4.4-17,4.9-21,4.4c-4.1-0.5-2.1,3.7-0.4,9.3c1.7,5.5-2.7,8.1-12.8,7.4C35.4,68,33.6,59.2,31.6,50.8
		c-2-8.4-5.4-14-5.4-14c-1.8-3.9,1.6-5.4,3.9-5.6c1.4-0.1,2.6-0.3,3.1-1.6c0.4-1,0.1-2.3,0.7-3.5c1.4-2.8,4.9-4.6,8-4.9
		c8.7-0.8,23.1-0.5,31.4,1.9c9.2,2.6,13.8,5.7,13.8,12C87.1,41.8,86.8,43.1,79.7,47.5z M139.3,67.6c-0.9,4.9-6.3,8.5-11.3,8.5
		s-10.3-2.9-11.2-6.4c-0.6-2.5,0.3-13.4,1.2-19.6c0.7-5,5.5-8.5,10.6-8.2c0,0,5.5,0,8.6,1C143.1,44.8,140.1,62.7,139.3,67.6z
		 M239.7,62.8l-0.8,0.9c-0.9,1.1-2.2,2.6-3.5,3.1c-4.9,2-12.6,5.9-30,5.9c-19.4,0-25.7-5.7-29.6-9.6c-2.9-2.8-7.9-12.2,4.5-19.2
		c14.3-9.8,31.6-10.8,39.1-10.4c3.5,0.2,6.2,1.5,8.1,3c2.8,2.2,2.4,4.8-0.9,6.1c-2.2,0.8-5.3,1.1-11.7,1.8c-11,1.1-16.4,4.6-19,8.1
		c-2.6,3.5-1,9.6,8.6,9.8c5.8,0.1,12-2.4,15.9-4.3c3.1-1.5,6.4-2.1,9.8-2.3h0.3c2-0.1,4.9,0.1,6.6,1.1h0l2,1.7
		C239.8,59.1,240.9,61.4,239.7,62.8z M339.1,29.2c3.4-2.4,9-5.7,12.6-3.9c0.7,0.4,0.4,1.5-0.7,2.5c-2.7,2.5-8.1,6.6-13.2,4.4h0
		C336.9,31.8,337.6,30.2,339.1,29.2z M315.4,22.6c1.8-3.4,5.3-8.5,9.5-8.3c0.8,0,1.1,1.1,0.6,2.4c-1.2,3.3-4,9.1-9.8,9.1
		C314.7,25.8,314.5,24.2,315.4,22.6z M285.8,15.1c5.3-0.3,8.4,4.9,9.7,7.9c0.5,1.2,0.4,2.2-0.3,2.3c-3.7,0.4-7.4-4.1-9.4-7.2
		C284.9,16.7,284.9,15.1,285.8,15.1z M260.1,30c5-1.5,9.9,3.1,12.3,5.9c1,1.1,1.2,2.2,0.6,2.4c-3.5,1.2-8.7-2.7-11.8-5.4
		C259.8,31.7,259.3,30.1,260.1,30z M257.7,56.1c-1.7-0.2-3.1-1.2-2.6-1.9c3.3-4,9.9-3,13.5-2.1c1.4,0.4,2.3,1.2,1.9,1.7
		C268.3,56.8,261.8,56.6,257.7,56.1z M281.2,68c-2.1,2.7-6.5,7.3-12,5.5c-0.9-0.3-0.6-2,0.6-3.1c2.8-2.6,7.7-6.4,11.6-4.9
		C282.1,65.7,282.1,66.9,281.2,68z M302,72.6c-0.3,3.2-1.8,8.9-7.5,10c-1,0.2-1.5-1.3-1.1-2.8c1.1-3.4,3.3-8.7,7.5-9.3
		C301.6,70.4,302.2,71.4,302,72.6z M325.2,83.3c-0.5,0.8-2.1,0.3-3-1.1c-2.2-3.2-5.1-8.6-3-12.3c0.4-0.7,1.6-0.5,2.4,0.6
		C324,73,327.9,78,325.2,83.3z M311.7,67.6c-17.5,1.5-32.6-6.3-36-10.1c-3.4-3.8-7.3-12.7,5.3-21.1c12.6-8.4,23.4-7.4,23.4-7.4
		c11,0,23.8,1.8,30.1,5.3h0c6.2,3.6,6.9,10.3,5.3,18.9C338.4,60.8,329.2,66,311.7,67.6z M347.1,71.8c-3.9-1.4-9.9-4.1-10.5-8.2
		c-0.2-0.7,1-1.2,2.4-0.9h0c3.6,0.7,10.1,2.7,11.3,8.4C350.5,72,348.8,72.4,347.1,71.8z M357,52c-4.1,0.4-10.6,0.4-12.8-2.9
		c-0.4-0.6,0.5-1.5,1.9-1.8c3.6-0.9,10.3-1.8,13.6,2.7C360.3,50.8,358.9,51.8,357,52z"/>
	<path class="st0" d="M325.2,41.5c-1.8-0.9-4-1.7-7-2.4c-1.5,2.6,1.6,4.1,1.2,3.9c0,0,0.6,3.1-5,1.3c-3.6-1.1-3.5-4.1-2.9-6.2
		c-0.9-0.1-1.8-0.1-2.7-0.2c0,0-1.2-0.1-3,0c-3,3.3,1.2,3,1.2,3s3.3,1.4-2.7,3.2c-3.5,1.1-4.8-2.2-5.2-5.1c-2.9,0.8-5.9,2.1-8.2,4.3
		c-4.4,4.2-3.7,7.8,0,10.8s8.4,4.6,17.4,4.6c8.9,0,16.8-1.4,19.8-9.2l0.5-1.3C329.5,45.6,327.6,42.9,325.2,41.5z M319.5,53.9
		c-3.6,0.5-8.5,0.7-11.9,0.7h-0.4c-3.3,0-6.7-0.3-10.1-2.5l-0.8-0.5c-0.6-0.5-0.8-1.4-0.4-2.1c0.5-0.6,1.4-0.8,2.1-0.4l0.8,0.5
		c2.7,1.8,5.5,1.7,8.8,1.7s8,0.2,11.5-0.3h0h0l0,0c0.9-0.1,1.6,0.4,1.7,1.2C320.9,53,320.3,53.8,319.5,53.9z"/>
	<path class="st0" d="M49.9,32.9c-1.2,0.8-1.5,2.5-0.6,3.7l1,1.7c1.6,2.7,4.7,3.9,7.7,3c3.7-1.1,8.3-2.9,8.8-5.4
		C65.4,31.2,56.5,28.7,49.9,32.9z"/>
	<path class="st0" d="M123.4,17.8c3.4,2.5,7.8,7.3,7.8,7.3c3.1-3.2,5-5.5,6.1-7.1L122,16.2C122.3,16.8,122.8,17.3,123.4,17.8z"/>
	<path class="st0" d="M125.8,9.5c5.6-1.3,11.8,1.4,12.5,3.6c0.4,1.3,0.4,2.6-1,4.9l0.4,0l4,0c1.1-1.7,1.5-3,1.4-4.3
		c-0.4-3.6-7.4-11.3-20.1-6.2c-4,1.6-6.1,4.9-6,8.1l5,0.6C120.7,13.6,122.5,10.3,125.8,9.5z"/>
</g>
<path class="st0" d="M147.8,6.9c0-0.3-0.2-0.6-0.5-0.6c-0.1,0-0.3,0-0.4-0.1c-0.1-0.1-0.2-0.1-0.4-0.1c-0.1,0-0.3,0.1-0.4,0.1
	c-0.2,0-0.4,0.1-0.5,0.2c-0.5,0.2-0.9,0.5-1.3,0.9c-0.3,0.2-0.6,0.5-0.8,0.8c-0.2,0.4-0.1,0.9,0.3,1.2c0.4,0.3,0.9,0.2,1.3,0.1
	c0.4-0.2,0.9-0.4,1.3-0.6C147.1,8.5,147.8,7.8,147.8,6.9L147.8,6.9z M139.2,0.4c-0.9-0.1-1.6,0.6-2.1,1.2c-0.2,0.3-0.4,0.7-0.6,1.1
	c-0.1,0.4-0.3,0.9-0.2,1.3c0.1,0.5,0.6,1,1.1,0.8l0.6-0.3c0.1,0,0.3,0,0.4-0.1c0.3-0.3,0.6-0.6,0.9-1c0.3-0.3,0.5-0.7,0.7-1.1
	s0.3-0.9,0.1-1.4C139.9,0.7,139.6,0.4,139.2,0.4z M127.5,0.5c-0.4-0.5-1.3-0.6-1.8-0.2c-0.3,0.2-0.3,0.6-0.4,1c0,0.3,0,0.7,0.1,1
	s0.2,0.7,0.5,0.9c0.3,0.3,0.8,0.3,1.2,0.1c0.3-0.2,0.6-0.4,0.7-0.8V2.1C128,1.5,127.9,0.9,127.5,0.5L127.5,0.5z M118.1,3.5
	c-0.3-0.3-0.6-0.6-1-0.8s-0.9-0.4-1.3-0.2c-0.4,0.3-0.5,0.7-0.5,1.2s0.1,0.9,0.4,1.3c0.2,0.4,0.5,0.7,0.8,1s0.6,0.6,1,0.8
	c0.5,0.2,1,0.1,1.3-0.3c0.1-0.1,0.2-0.3,0.3-0.4c0.2,0,0.5-0.2,0.4-0.5C119.3,4.7,118.7,4.1,118.1,3.5z M113.4,11.2
	c-0.1-0.2-0.3-0.3-0.5-0.5c-0.4-0.4-1-0.9-1.6-0.5c-0.3,0.2-0.4,0.6-0.4,0.9c0,0.3,0,0.7,0.1,1c0.2,0.6,0.5,1.2,0.9,1.7
	c0.3,0.5,0.7,1,1.1,1.4s1.1,0.5,1.6,0.2s0.6-1,0.4-1.5C114.8,12.8,114.2,11.9,113.4,11.2z"/>
</svg>
