<svg version="1.1" id="Layer_1" xmlns="http://www.w3.org/2000/svg" x="0" y="0" viewBox="0 0 382.6 91.6" style="enable-background:new 0 0 382.6 91.6" xml:space="preserve">
    <style>
        .st1{fill:#fcc927}.st2{fill:#fbc82a}
    </style>
    <path style="fill:#034e95" d="m303 3.4-70.6 15.5-94.7-.9L43.9 7 0 19.6l18.4 59.6L87 91.6l70.4-7.7 85.7 6.3 109 .5 30.5-70z"/>
    <path class="st1" d="M73.3 23.1c-8.3-2.4-22.7-2.7-31.4-1.9-3.1.3-6.6 2.1-8 4.9-.6 1.2-.3 2.5-.7 3.5-.5 1.3-1.7 1.5-3.1 1.6-2.3.2-5.7 1.7-3.9 5.6 0 0 3.4 5.6 5.4 14 2 8.4 3.8 17.2 13.9 17.8 10.1.7 14.5-1.9 12.8-7.4-1.7-5.6-3.7-9.8.4-9.3 4 .5 13.9 0 21-4.4s7.4-5.7 7.4-12.4c0-6.3-4.6-9.4-13.8-12zM58 41.3c-3 .9-6.1-.3-7.7-3l-1-1.7c-.9-1.2-.6-2.9.6-3.7 6.6-4.2 15.5-1.7 16.9 3-.5 2.5-5.1 4.3-8.8 5.4zM137.2 42.9c-3.1-1-8.6-1-8.6-1-5.1-.3-9.9 3.2-10.6 8.2-.9 6.2-1.8 17.1-1.2 19.6.9 3.5 6.2 6.4 11.2 6.4 5 0 10.4-3.6 11.3-8.5.8-4.9 3.8-22.8-2.1-24.7zM237.1 56.8c-1.7-1-4.6-1.2-6.6-1.1h-.3c-3.4.2-6.7.8-9.8 2.3-3.9 1.9-10.1 4.4-15.9 4.3-9.6-.2-11.2-6.3-8.6-9.8 2.6-3.5 8-7 19-8.1 6.4-.7 9.5-1 11.7-1.8 3.3-1.3 3.7-3.9.9-6.1-1.9-1.5-4.6-2.8-8.1-3-7.5-.4-24.8.6-39.1 10.4-12.4 7-7.4 16.4-4.5 19.2 3.9 3.9 10.2 9.6 29.6 9.6 17.4 0 25.1-3.9 30-5.9 1.3-.5 2.6-2 3.5-3.1l.8-.9c1.2-1.4.1-3.7-.6-4.3l-2-1.7zM319.1 51c-3.5.5-8.2.3-11.5.3-3.3 0-6.1.1-8.8-1.7l-.8-.5c-.7-.4-1.6-.2-2.1.4-.4.7-.2 1.6.4 2.1l.8.5c3.4 2.2 6.8 2.5 10.1 2.5h.4c3.4 0 8.3-.2 11.9-.7.8-.1 1.4-.9 1.3-1.7-.1-.8-.8-1.3-1.7-1.2z"/>
    <path class="st1" d="M334.5 34.3c-6.3-3.5-19.1-5.3-30.1-5.3 0 0-10.8-1-23.4 7.4s-8.7 17.3-5.3 21.1c3.4 3.8 18.5 11.6 36 10.1 17.5-1.6 26.7-6.8 28.1-14.4 1.6-8.6.9-15.3-5.3-18.9zm-5.9 13.9-.5 1.3c-3 7.8-10.9 9.2-19.8 9.2-9 0-13.7-1.6-17.4-4.6-3.7-3-4.4-6.6 0-10.8 2.3-2.2 5.3-3.5 8.2-4.3.4 2.9 1.7 6.2 5.2 5.1 6-1.8 2.7-3.2 2.7-3.2s-4.2.3-1.2-3c1.8-.1 3 0 3 0 .9.1 1.8.1 2.7.2-.6 2.1-.7 5.1 2.9 6.2 5.6 1.8 5-1.3 5-1.3.4.2-2.7-1.3-1.2-3.9 3 .7 5.2 1.5 7 2.4 2.4 1.4 4.3 4.1 3.4 6.7zM315.7 25.8c5.8 0 8.6-5.8 9.8-9.1.5-1.3.2-2.4-.6-2.4-4.2-.2-7.7 4.9-9.5 8.3-.9 1.6-.7 3.2.3 3.2zM337.8 32.2c5.1 2.2 10.5-1.9 13.2-4.4 1.1-1 1.4-2.1.7-2.5-3.6-1.8-9.2 1.5-12.6 3.9-1.5 1-2.2 2.6-1.3 3zM359.7 50c-3.3-4.5-10-3.6-13.6-2.7-1.4.3-2.3 1.2-1.9 1.8 2.2 3.3 8.7 3.3 12.8 2.9 1.9-.2 3.3-1.2 2.7-2zM339 62.7c-1.4-.3-2.6.2-2.4.9.6 4.1 6.6 6.8 10.5 8.2 1.7.6 3.4.2 3.2-.7-1.2-5.7-7.7-7.7-11.3-8.4zM319.2 69.9c-2.1 3.7.8 9.1 3 12.3.9 1.4 2.5 1.9 3 1.1 2.7-5.3-1.2-10.3-3.6-12.8-.8-1.1-2-1.3-2.4-.6zM300.9 70.5c-4.2.6-6.4 5.9-7.5 9.3-.4 1.5.1 3 1.1 2.8 5.7-1.1 7.2-6.8 7.5-10 .2-1.2-.4-2.2-1.1-2.1zM281.4 65.5c-3.9-1.5-8.8 2.3-11.6 4.9-1.2 1.1-1.5 2.8-.6 3.1 5.5 1.8 9.9-2.8 12-5.5.9-1.1.9-2.3.2-2.5zM270.5 53.8c.4-.5-.5-1.3-1.9-1.7-3.6-.9-10.2-1.9-13.5 2.1-.5.7.9 1.7 2.6 1.9 4.1.5 10.6.7 12.8-2.3zM261.2 32.9c3.1 2.7 8.3 6.6 11.8 5.4.6-.2.4-1.3-.6-2.4-2.4-2.8-7.3-7.4-12.3-5.9-.8.1-.3 1.7 1.1 2.9zM295.2 25.3c.7-.1.8-1.1.3-2.3-1.3-3-4.4-8.2-9.7-7.9-.9 0-.9 1.6 0 3 2 3.1 5.7 7.6 9.4 7.2zM123 7.5c-6.5 2.6-8.1 9.8-3.1 13.5 2.3 1.7 4.8 4.3 6.9 6.6 0 0 .6 1.4 1.1 3.3-.9-.3-1.9-.3-2.2.4-1 2.1.8 2.3 2.9 2.8.1.5.1 1 .1 1.5.2 3.9 2.7 3.1 3.2 1.7.1-.4.3-1.2.4-2.1 1.8.5 3.4.6 3.4-.8 0-1.2-1.5-1.9-2.7-2.3.1-.4.2-.9.4-1.3 1.2.3 2.3.4 2.7-.5.3-.8-.6-1.3-1.8-1.7.2-.5.5-.9.8-1.3 5.8-8 8.3-10.7 8-13.6-.4-3.6-7.4-11.3-20.1-6.2zm8.2 17.6s-4.4-4.8-7.8-7.3c-3.4-2.5-1.7-7.3 2.4-8.3 5.6-1.3 11.8 1.4 12.5 3.6.7 2.3.3 4.4-7.1 12z"/>
    <path class="st2" d="M147.8 6.9c0-.3-.2-.6-.5-.6-.1 0-.3 0-.4-.1-.1-.1-.2-.1-.4-.1-.1 0-.3.1-.4.1-.2 0-.4.1-.5.2-.5.2-.9.5-1.3.9-.3.2-.6.5-.8.8-.2.4-.1.9.3 1.2.4.3.9.2 1.3.1.4-.2.9-.4 1.3-.6.7-.3 1.4-1 1.4-1.9zM139.2.4c-.9-.1-1.6.6-2.1 1.2-.2.3-.4.7-.6 1.1-.1.4-.3.9-.2 1.3.1.5.6 1 1.1.8l.6-.3c.1 0 .3 0 .4-.1.3-.3.6-.6.9-1 .3-.3.5-.7.7-1.1.2-.4.3-.9.1-1.4-.2-.2-.5-.5-.9-.5zM127.5.5c-.4-.5-1.3-.6-1.8-.2-.3.2-.3.6-.4 1 0 .3 0 .7.1 1 .1.3.2.7.5.9.3.3.8.3 1.2.1.3-.2.6-.4.7-.8v-.4c.2-.6.1-1.2-.3-1.6zM118.1 3.5c-.3-.3-.6-.6-1-.8-.4-.2-.9-.4-1.3-.2-.4.3-.5.7-.5 1.2s.1.9.4 1.3c.2.4.5.7.8 1 .3.3.6.6 1 .8.5.2 1 .1 1.3-.3.1-.1.2-.3.3-.4.2 0 .5-.2.4-.5-.2-.9-.8-1.5-1.4-2.1zM113.4 11.2c-.1-.2-.3-.3-.5-.5-.4-.4-1-.9-1.6-.5-.3.2-.4.6-.4.9 0 .3 0 .7.1 1 .2.6.5 1.2.9 1.7.3.5.7 1 1.1 1.4.4.4 1.1.5 1.6.2s.6-1 .4-1.5c-.2-1.1-.8-2-1.6-2.7z"/>
</svg>
