<?xml version="1.0" encoding="UTF-8"?>
<svg id="Calque_2" data-name="Calque 2" xmlns="http://www.w3.org/2000/svg" viewBox="0 0 637.2 99.71">
  <g id="Calque_1-2" data-name="Calque 1">
    <g>
      <path d="m187.81,99.63c-5.9-2.13-11.66-4.72-18.18-1.82-2.01.9-4.57.73-6.88.76-11.89.15-23.76-1.36-35.69-.07-5.49.6-11-.15-15.31-4.43-1.91-1.89-3.71-.37-5.47.4-12.53,5.51-24.89,5.03-37.03-1.17-7.56-3.87-12.96-9.79-15.98-17.76-.77-2.02-1.42-4.08-4.06-3.04-2.92,1.16-7.61-.44-8.09,4.78-.29,3.14-.18,6.33-.64,9.44-.79,5.38-4.2,8.57-9.34,9.85-6.39,1.59-12.91,1.48-19.32.4-7.86-1.33-11.48-5.16-11.6-13.23-.29-20.32-.31-40.65-.01-60.97.13-9.04,4.93-13.17,14-13.25,8.48-.07,16.97-.15,25.45.02,12.19.23,21.95,5.18,28.14,15.93,1.9,3.3,3.64,4.02,7.11,2.52,9.69-4.2,19.46-3.6,29.04.5,3.42,1.46,4.97,1.4,5.03-3.11.23-17.4,2.8-19.78,20.19-19.78,1.33,0,2.66-.01,3.99,0,10.24.13,14.6,3.55,15.35,13.6.4,5.31,2.31,6.65,7.3,6.65,5.28,0,9.29-.33,10.67-6.66.62-2.85,3.67-4.63,6.36-6.05,6.76-3.58,13.49-7.23,20.34-10.65,10.08-5.04,17.02-2.43,21.08,7.93,1.92,4.9,4.85,9.57,3.89,15.25-.33,1.98,1.16,2.09,2.59,1.96,8.72-.78,17.57,1.43,26.23-1.45,3.81-1.26,7.57.58,11.21,1.61,3.32.94,6.37,1.13,9.72.06,10.58-3.38,20.38-1.88,28.91,5.54,1.79,1.56,3.02,1.23,4.77.02,13.5-9.31,27.68-9.05,42.11-2.56,2.3,1.03,3.85,1.25,5.75-.54,2.44-2.3,5.63-2.67,8.85-2.77,9.58-.29,19.14-.54,28.73-1.2,15.22-1.04,27.28,9.46,28.38,26.59.72,11.12.16,22.32.13,33.48-.02,6.92-3.62,11.17-10.06,13.21h-87.86c-7.63-1.67-14.83-7.46-23.22-1.87-1.7,1.14-4.52.81-6.82.8-9.52-.03-18.96-.89-28.58-.31-10.59.65-21.34-.81-32.03.28-2.26.23-4.78.13-6.88-.64-6.46-2.39-12.32-.2-18.28,1.74h-13.98Zm47.63-55.32c-1.79-4.63-4.46-5.66-10.47-4.64-4.33.73-3.22,4.07-3.24,6.66-.1,11.67.13,23.34-.11,35-.13,5.91,3.69,5.14,7.35,5.22,3.72.08,7.01.19,6.79-5.24-.29-7.49-.18-15,.03-22.49.13-4.76,2.95-7.37,7.17-7.17,4.55.21,5.82,3.21,5.84,7.15.03,5.83.03,11.67.03,17.5,0,10.71,0,10.59,10.88,10.29,3.63-.1,5.07-1.42,4.99-5.06-.15-7.16-.07-14.33-.02-21.5.04-5.97,2.1-8.5,6.7-8.43,4.51.07,6.33,2.32,6.38,8.16.06,6.5,0,13,.02,19.5.02,7.03.26,7.25,7.34,7.27,1,0,2-.06,2.99,0,3.16.17,4.5-1.29,4.48-4.47-.09-10.17.17-20.34-.13-30.5-.22-7.72-5.53-12.64-13.12-12.98-5.31-.24-10.36.26-14.02,4.83-1.39,1.73-2.43,1.32-4.04-.1-7.91-6.99-17.34-6.66-25.85,1ZM29.21,21.57v-.02c-3.82,0-7.65.19-11.45-.05-4.4-.28-5.77,1.63-5.72,5.87.16,15.63-.03,31.26.09,46.89.09,12.23-2.28,11.28,12.12,11.22.17,0,.33-.02.5-.02,2.87,0,4.25-1.41,4.24-4.3-.02-4.49.18-8.98,0-13.47-.16-3.93,1.55-5.46,5.34-5.18,3.34.24,6.62-.31,9.88-1,11.68-2.45,16.89-9.89,15.8-22.53-.81-9.44-9.21-17.06-19.33-17.4-3.81-.13-7.64-.02-11.45-.02Zm107.57,45.05c.43-.17.86-.33,1.29-.5,1.41,2.76,2.77,5.54,4.24,8.26,8.11,15.06,4.36,11.7,20.29,12.15.33,0,.67-.01,1,0,3.31.11,3.78-1.13,2.02-3.84-3.89-6-7.47-12.22-11.55-18.08-2.33-3.33-2.71-5.93-.09-9.32,3.35-4.33,6.19-9.06,9.18-13.67.77-1.19,1.9-2.6-.37-3.63-4.86-2.21-14.14.49-17.13,4.96-2.69,4.02-4.7,8.54-8.87,12.88,0-11.36-.19-21.67.08-31.96.13-4.77-1.5-6.86-6.3-6.26-.98.12-1.99.01-2.99.02-6.49.05-6.66.19-6.67,6.79-.02,17.32,0,34.63,0,51.95,0,10.72,0,10.58,10.76,10.24,3.97-.13,5.25-1.87,5.14-5.55-.14-4.81-.03-9.62-.03-14.43Zm235.29-20.99q-1.38-5.99-7.09-6.03-8.38-.06-8.38,8.55c0,9.65,0,19.31,0,28.96,0,10.96,0,10.83,10.92,10.55,3.65-.1,5.04-1.46,4.96-5.07-.15-6.65-.09-13.31-.01-19.97.07-6.55,3.11-10.05,8.5-9.96,4.77.07,7.26,3.26,7.42,9.87.13,5.16.04,10.32.04,15.48,0,10.16,0,10.05,10.36,9.64,3.4-.13,4.76-1.43,4.73-4.8-.09-9.65.12-19.31-.08-28.96-.19-9.45-6.55-15.23-16.01-15.38-6.1-.1-10.92,2.29-15.36,7.12Zm-47.97,41.99c16.6-.01,26.39-8.84,26.45-23.82.05-15.8-9.79-25.27-26.25-25.26-15.12.01-24.53,9.42-24.56,24.58-.04,15.72,8.7,24.51,24.36,24.5ZM63,61.85c-.06,14.14,10.64,24.43,25.66,24.66,14.51.22,25.2-10.18,25.12-24.46-.08-14.3-11.27-25.4-25.4-25.2-13.65.19-25.31,11.68-25.37,24.99Zm135.5,4.9s0-.04,0-.06c3.49,0,6.98-.1,10.47.03,3.7.14,4.95-1.62,4.93-5.15-.05-8.47-2.08-16.47-9.95-20.43-8.45-4.25-17.67-4.14-26.37.4-3.54,1.85-5.75,4.99-7.29,8.58-4.54,10.59-2.38,23.33,5.14,30.63,7.27,7.05,22.3,9.32,31.89,4.81,2.96-1.39,4.84-6.78,3.12-10.49-1.88-4.04-4.22-.2-6.1.33-3.6,1.01-7.13,1.56-10.81,1.08-3.5-.45-6.23-2.21-8.14-5.18-1.68-2.61-1.48-4.47,2.15-4.53,3.65-.07,7.31-.01,10.96-.01Zm7.28-45.49c-.69-1.75-1.62-4.05-2.49-6.38-.91-2.44-2.42-2.86-4.65-1.66-6.42,3.43-12.92,6.71-19.28,10.24-4.05,2.24-.96,5.22-.38,7.83.61,2.74,2.46,2.55,4.6,1.67,6.57-2.72,13.18-5.34,19.78-8,1.41-.57,2.86-1.1,2.43-3.7Z" style="fill: #fff; stroke-width: 0px;"/>
      <path d="m437.42,99.63c-14.25-4.68-17.05-13.58-16.96-25.93.07-9.15,0-18.31,0-27.46,0-13.49,6.83-20.5,20.14-20.53,19.27-.05,38.55-.01,57.83-.01,5.95,0,11.62,1.01,16.31,5,1.86,1.58,3.42,1.21,5.43.29,6.94-3.16,13.87-3.21,20.47.96,2.07,1.31,3.61,1.02,5.36-.43,3.63-3.03,8-3.94,12.58-3.96,9.8-.05,19.61-.07,29.41,0,4.9.04,9.6,1.05,13.6,4.11,1.62,1.24,2.96,1.46,4.95.48,14.52-7.17,24.1-3.52,30.58,11.48,0,17.5-.09,35,.09,52.5.03,2.99-.6,3.59-3.58,3.58-65.4-.11-130.79-.08-196.19-.08Zm32.72-61.87c-9.81,0-19.61-.02-29.42,0-6.44.02-8.17,1.77-8.2,8.38-.04,8.16-.04,16.31.02,24.47.03,3.48-.43,7.01.58,10.43,1.3,4.44,5.18,7.08,9.41,6.38,4.51-.74,5.82-3.9,5.82-7.98,0-6.16-.02-12.32.03-18.48.05-5.86.59-6.28,7.35-6.29,6.95-.01,7.49.38,7.56,6.09.08,6.32-.11,12.66.14,18.97.2,4.88,3.48,7.81,8.01,7.77,4.58-.04,6.81-2.49,6.9-7.81.08-4.99.03-9.99.03-14.98,0-10.35,0-10.21,10.13-10.1,4.2.05,6.06,1.48,5.93,5.86-.2,6.65-.18,13.32.04,19.97.17,5.19,3.77,7.97,8.7,6.98,4.59-.93,5.96-4.38,5.98-8.56.06-10.49.07-20.97.04-31.46-.02-7.09-2.46-9.57-9.65-9.62-9.81-.08-19.61-.02-29.42-.03Zm127.02,25.87c0-4.99.1-9.98-.03-14.97-.16-6.43-2.79-9.01-9.25-9.06-9.47-.08-18.93-.07-28.4,0-6.42.05-9.12,2.63-9.21,9.07-.14,9.65-.12,19.29,0,28.94.07,5.59,3.52,9.74,7.84,9.92,4.63.2,7.58-3.14,7.87-9.55.27-5.81.29-11.65.06-17.46-.17-4.28,1.39-6.26,5.75-5.84,1.32.13,2.66.12,3.98,0,4.05-.34,5.68,1.38,5.57,5.51-.17,6.31-.23,12.65.22,18.95.37,5.29,4.27,8.63,8.76,8.39,4.01-.22,6.65-3.55,6.79-8.93.13-4.99.03-9.98.03-14.97Zm-74.8,10.33s-.02,0-.03,0c0,2.17-.12,4.34.02,6.49.32,4.89,3.04,7.34,7.73,7.11,4.25-.21,7.41-3.65,6.8-8.13-.57-4.16-.7-8.28-.6-12.44.11-4.16-1.77-6.7-5.99-7.12-4.02-.4-7.53,2.49-7.89,6.59-.22,2.48-.04,4.99-.04,7.49Zm88.77-.29c0,2.33-.13,4.67.03,6.99.25,3.74,2.03,6.46,6,6.76,4.09.31,6.84-2.01,7.52-5.85.93-5.25.88-10.66.03-15.91-.63-3.95-3.61-6-7.6-5.73-3.99.26-5.76,2.98-5.97,6.75-.13,2.32-.02,4.66-.02,6.99Zm-74.3-25.69c.06-4.1-3.15-7.35-7.2-7.3-3.86.05-7.09,3.08-7.24,6.79-.17,4.21,2.75,7.12,7.17,7.15,3.94.03,7.22-2.97,7.27-6.65Zm81.35-7.27c-4.22-.06-6.94,2.47-7.07,6.6-.15,4.61,2.27,7.24,6.78,7.35,4.44.11,7.16-2.57,7.13-7.02-.02-4.13-2.72-6.86-6.84-6.92Z" style="fill: #fff; stroke-width: 0px;"/>
      <path d="m29.01,42.09c0-.5-.07-1,.01-1.49.42-2.53-1.33-6.2,2.84-6.89,4.11-.68,8.16.13,10.35,4.15,1.69,3.1,1.52,6.48-1.15,9.18-2.48,2.51-5.8,3.05-9.13,3.28-1.8.13-2.73-1.05-2.82-2.77-.09-1.82-.02-3.64-.02-5.46h-.1Z" style="fill: #fff; stroke-width: 0px;"/>
      <path d="m334.86,63.37c-.26,1.97-.26,4.01-.82,5.89-1.28,4.33-3.86,7.32-8.82,7.34-4.92.02-7.55-2.75-8.86-7.21-1.01-3.43-1.05-6.91-.5-10.37.91-5.71,4.41-8.63,9.81-8.46,5.44.17,8.37,3.21,8.91,9.31.1,1.15.01,2.32.01,3.48.09,0,.17.02.26.02Z" style="fill: #fff; stroke-width: 0px;"/>
      <path d="m78.88,63.34c0-5.18.25-9.15,3.17-12.35,4.5-4.93,10.99-4.05,13.78,2.01,2.14,4.65,2.77,9.52,1.39,14.57-1.37,5.02-4.6,7.92-8.93,7.9-4.61-.02-8.08-3.14-9.09-8.32-.31-1.62-.29-3.3-.33-3.81Z" style="fill: #fff; stroke-width: 0px;"/>
      <path d="m192.46,47.75c2.24.14,4.74.97,6.41,3.31,1.06,1.48,2.17,3.2,1.3,5.07-.86,1.85-2.84,1.37-4.45,1.44-1.99.08-4,.13-5.98,0-2.02-.14-4.81.86-5.51-2.02-.71-2.91,1.04-5.09,3.42-6.64,1.28-.83,2.74-1.18,4.81-1.15Z" style="fill: #fff; stroke-width: 0px;"/>
    </g>
  </g>
</svg>