<svg xmlns="http://www.w3.org/2000/svg" viewBox="0 0 378.58 112.59"><path d="M46.26,4.12V62.6H38.5V37H7.84V62.6H0V4.12H7.84v25.4H38.5V4.12Z" fill="#fff"/><path d="M58.31,45.53a17.46,17.46,0,0,1,2.39-9.05,17.15,17.15,0,0,1,6.59-6.39,19.17,19.17,0,0,1,9.54-2.35,19.09,19.09,0,0,1,9.63,2.35,16.56,16.56,0,0,1,6.39,6.39,18.28,18.28,0,0,1,2.26,9.05,18.52,18.52,0,0,1-2.26,9.1,16.49,16.49,0,0,1-6.43,6.43,19.42,19.42,0,0,1-9.67,2.35,19.75,19.75,0,0,1-9.5-2.23A16.55,16.55,0,0,1,60.7,55,18.08,18.08,0,0,1,58.31,45.53Zm7.52.08a11.91,11.91,0,0,0,1.46,5.87,11.2,11.2,0,0,0,3.92,4.16,10.05,10.05,0,0,0,5.46,1.54,10.36,10.36,0,0,0,5.62-1.54,10.48,10.48,0,0,0,3.84-4.16,13.15,13.15,0,0,0,0-11.73,10.89,10.89,0,0,0-3.84-4.21A10.21,10.21,0,0,0,76.67,34a9.86,9.86,0,0,0-5.54,1.62,11.39,11.39,0,0,0-3.88,4.24A11.92,11.92,0,0,0,65.83,45.61Z" fill="#fff"/><path d="M112,29.12l.65,7.52-.32-.65a14.24,14.24,0,0,1,13.18-8.17,13.21,13.21,0,0,1,5,.89,9.18,9.18,0,0,1,3.6,2.55A8.26,8.26,0,0,1,136,35.34l-.4.25a14.37,14.37,0,0,1,5.38-5.71,13.88,13.88,0,0,1,7.23-2.06A10.74,10.74,0,0,1,156,30.61a9.92,9.92,0,0,1,2.95,7.24V62.6H151.4V40.52a8.1,8.1,0,0,0-1.25-4.33,5,5,0,0,0-4.09-1.9,8.37,8.37,0,0,0-5.22,1.78,12.14,12.14,0,0,0-3.59,4.57,14.88,14.88,0,0,0-1.38,6V62.6h-7.52V40.52A7.64,7.64,0,0,0,127,36.19a5.19,5.19,0,0,0-4.17-1.9,8.3,8.3,0,0,0-5.26,1.78,11.77,11.77,0,0,0-3.51,4.61,14.76,14.76,0,0,0-1.26,6.07V62.6H105.3V29.12Z" fill="#fff"/><path d="M187.55,63.41a19.9,19.9,0,0,1-9.87-2.31,16.13,16.13,0,0,1-6.35-6.31,18.59,18.59,0,0,1-2.22-9.18,16.69,16.69,0,0,1,2.51-9,18.75,18.75,0,0,1,6.71-6.47,18.4,18.4,0,0,1,9.38-2.43,15.93,15.93,0,0,1,11,3.88,19.59,19.59,0,0,1,5.9,10.68L177,52l-1.78-4.44,22.64-8.25-1.62,1a11.12,11.12,0,0,0-3.23-4.65,8.64,8.64,0,0,0-5.9-2,10.22,10.22,0,0,0-5.5,1.49,10.41,10.41,0,0,0-3.8,4.09,12.32,12.32,0,0,0-1.38,5.9,12.44,12.44,0,0,0,1.46,6.11,10.7,10.7,0,0,0,4,4.12,11.19,11.19,0,0,0,5.78,1.5,11.54,11.54,0,0,0,4.25-.81A17.46,17.46,0,0,0,195.8,54l3.48,5.58a23.5,23.5,0,0,1-5.62,2.75A19.1,19.1,0,0,1,187.55,63.41Z" fill="#fff"/><path d="M234.46,63.41a16.1,16.1,0,0,1-8.13-2,16.8,16.8,0,0,1-5.62-5.1l.89-2.35V62.6h-7.52V0h7.44V36.8L221.27,34a14.62,14.62,0,0,1,5.79-4.49,19.65,19.65,0,0,1,8.37-1.74,16,16,0,0,1,8.25,2.18A16.22,16.22,0,0,1,249.62,36a18.68,18.68,0,0,1,2.23,9.34,18.79,18.79,0,0,1-2.39,9.71,16.24,16.24,0,0,1-6.35,6.18A17.89,17.89,0,0,1,234.46,63.41ZM232.92,57a11.1,11.1,0,0,0,5.82-1.54,10.86,10.86,0,0,0,4-4.16,12.26,12.26,0,0,0,1.45-6,11.69,11.69,0,0,0-1.49-5.86,11.41,11.41,0,0,0-4.05-4.17,11,11,0,0,0-5.78-1.53,12.3,12.3,0,0,0-5.09,1.05,11.42,11.42,0,0,0-4,2.87,10.24,10.24,0,0,0-2.26,4.24v6.72a11.53,11.53,0,0,0,2.18,4.32,10.81,10.81,0,0,0,3.88,3A12.47,12.47,0,0,0,232.92,57Z" fill="#fff"/><path d="M268.75,29.12l.73,9.7-.41-1.29a14,14,0,0,1,3.76-5.22A20.29,20.29,0,0,1,278,29a12.2,12.2,0,0,1,4.73-1.17l-.4,7.44a11.44,11.44,0,0,0-6.68,1.46,12.61,12.61,0,0,0-4.53,4.53,11.82,11.82,0,0,0-1.65,6.06V62.6H262V29.12Z" fill="#fff"/><path d="M306.52,63.41a19.9,19.9,0,0,1-9.87-2.31,16.06,16.06,0,0,1-6.35-6.31,18.59,18.59,0,0,1-2.22-9.18,16.69,16.69,0,0,1,2.5-9,18.78,18.78,0,0,1,6.72-6.47,18.4,18.4,0,0,1,9.38-2.43,15.93,15.93,0,0,1,11,3.88,19.59,19.59,0,0,1,5.9,10.68L296,52l-1.78-4.44,22.65-8.25-1.62,1A11.21,11.21,0,0,0,312,35.71a8.65,8.65,0,0,0-5.91-2,10.24,10.24,0,0,0-5.5,1.49,10.55,10.55,0,0,0-3.8,4.09,12.44,12.44,0,0,0-1.37,5.9,12.43,12.43,0,0,0,1.45,6.11,10.73,10.73,0,0,0,4,4.12,11.14,11.14,0,0,0,5.78,1.5,11.58,11.58,0,0,0,4.25-.81,17.46,17.46,0,0,0,3.84-2.1l3.47,5.58a23.13,23.13,0,0,1-5.62,2.75A19,19,0,0,1,306.52,63.41Z" fill="#fff"/><path d="M353.59,29.12l9.86,22.56-1.45.16,9.22-22.72h7.36l-15.37,35.5-10.76-23-9.78,23-15.53-35.5h7.36l10.43,23.61-2.58-.48,7.44-17.31-2.67-5.82Z" fill="#fff"/><path d="M24.05,110.33a12.66,12.66,0,0,1-1.84.88,17.14,17.14,0,0,1-2.23.73,22.37,22.37,0,0,1-2.41.49,17,17,0,0,1-2.3.16A16.23,16.23,0,0,1,9,111.44a13.85,13.85,0,0,1-4.79-3.2,14.24,14.24,0,0,1-3-4.74A15.73,15.73,0,0,1,.14,97.67a15.34,15.34,0,0,1,4.45-10.9A14.94,14.94,0,0,1,15.23,82.4a14.94,14.94,0,0,1,4.22.59,15.44,15.44,0,0,1,3.68,1.59l-.58,1.25a11.48,11.48,0,0,0-2.2-1.06,14.44,14.44,0,0,0-2.46-.69,13.19,13.19,0,0,0-2.58-.25,13.55,13.55,0,0,0-12.67,8.4,14,14,0,0,0-1,5.39,14.43,14.43,0,0,0,1,5.33,12.94,12.94,0,0,0,2.74,4.31,12.44,12.44,0,0,0,4.29,2.91,14.51,14.51,0,0,0,5.6,1,17.65,17.65,0,0,0,3.89-.46,13,13,0,0,0,3.55-1.29v-8.95h-6.9V99.17h8.32Z" fill="#fff"/><path d="M38.77,112.26,51.15,81.44h.12l12.34,30.82H62L50.77,83.74l1-.46-11.54,29Zm5.56-11.75H58.09l.33,1.34H44Z" fill="#fff"/><path d="M79.2,112.26V82.15h0L93.5,102.39l-.62,0,14.21-20.2h0v30.11h-1.38V85.54l.13.67L93.17,104.06h-.09L80.37,86.21l.25-.63v26.68Z" fill="#fff"/><path d="M125.2,82.74h17.89v1.38H126.62V96.7h14.84V98H126.62v12.84h17.06v1.38H125.2Z" fill="#fff"/><path d="M174.37,85.46a19,19,0,0,0-3.1-1.11,14,14,0,0,0-3.8-.52,7.4,7.4,0,0,0-4.93,1.54,4.86,4.86,0,0,0-1.84,3.89,4.23,4.23,0,0,0,1,2.91,8.37,8.37,0,0,0,2.7,1.94c1.11.53,2.3,1,3.55,1.55,1,.36,2,.77,2.95,1.21a13.13,13.13,0,0,1,2.63,1.61,7,7,0,0,1,1.91,2.36,7.78,7.78,0,0,1,.71,3.47,7.77,7.77,0,0,1-4.39,7.26,10.4,10.4,0,0,1-4.69,1A13.67,13.67,0,0,1,163,112a16.74,16.74,0,0,1-3.11-1.3c-.85-.47-1.5-.85-2-1.13l.67-1.21a17,17,0,0,0,2.24,1.34,18.38,18.38,0,0,0,2.91,1.15,10.89,10.89,0,0,0,3.17.48,9.19,9.19,0,0,0,3.72-.78,7,7,0,0,0,3-2.32,6.29,6.29,0,0,0,1.15-3.88,5.87,5.87,0,0,0-1.11-3.75,8.07,8.07,0,0,0-2.84-2.25,35.65,35.65,0,0,0-3.66-1.57c-.94-.36-1.89-.75-2.82-1.15a14.86,14.86,0,0,1-2.55-1.42,6.27,6.27,0,0,1-1.82-2,5.5,5.5,0,0,1-.67-2.8,6.1,6.1,0,0,1,1.07-3.58,7.2,7.2,0,0,1,2.88-2.38,10.09,10.09,0,0,1,4.12-.9,17.6,17.6,0,0,1,4,.5,16.25,16.25,0,0,1,3.68,1.3Z" fill="#fff"/></svg>