<?xml version="1.0" encoding="UTF-8"?>
<svg id="Calque_2" data-name="Calque 2" xmlns="http://www.w3.org/2000/svg" viewBox="0 0 633.2 150.34">
  <g id="Calque_1-2" data-name="Calque 1">
    <g>
      <path d="m178.26,85.04V4.48c10.91-.87,21.45-.2,32.42-.42,16.79,25.86,33.52,51.64,50.25,77.42.36-.09.71-.17,1.07-.26V6.45c4.05-1.6,23.45-2.04,33.16-.87,30.46,47.16,61.24,94.83,92.49,143.23h-43.57c-14.88-22.49-29.93-45.24-44.99-67.99-.33.07-.66.15-.99.22v67.8c-4.03,1.63-30.04,2.04-37.27.72-14.66-22.45-29.56-45.26-44.46-68.08-.44.11-.87.23-1.31.34v66.99h-41.24c-4.98-6.21-8.43-13.64-13.59-20.18h-31.28c-1.51,6.9.09,13.89-1.12,21.42-11.89.39-23.59.12-34.87.19-2.27-2.47-1.58-4.91-1.59-7.14-.09-37.91-.17-75.82-.12-113.73,0-5.97-1.39-11.84-.92-17.82.14-1.79-.28-3.65.59-5.35,3.42-1.34,23.74-1.79,33.66-.6,17.25,26.2,34.87,52.99,52.5,79.77.39-.11.78-.22,1.17-.33Zm-37.05,14.01c-1.45-4.19-8.72-14.81-12.82-18.59-.01,6.41-.41,12.35.3,18.38,4.45.98,8.43.87,12.51.21Z" style="fill: #fff; stroke-width: 0px;"/>
      <path d="m444.56,73.1c-8.63-1.75-14.54,2.22-19.65,7.89-5.03,5.59-9.12,11.8-12,18.74-3.06,7.37-4.85,14.87-.76,22.68-4.78,9.3-11.59,16.93-17.73,26.09-30.77-47.87-61.01-94.9-91.05-141.63.3-.73.34-.89.43-1.03.09-.13.21-.29.35-.32.8-.17,1.61-.42,2.42-.42,59.54,0,119.09,0,178.63.05.43,0,.87.33,1.88.73-14.15,22.38-28.2,44.57-42.52,67.21Z" style="fill: #fff; stroke-width: 0px;"/>
      <path d="m81.97,47.47c-8.85.77-17.24.47-25.38.21-1.68-1.91-1.69-4-2.38-5.83-2.4-6.44-8.62-9.58-14.69-7.37-5.21,1.89-7.71,9.3-5.17,15.25,1.28,3,3.47,5.18,6.07,7.08,5.4,3.95,11.44,6.73,17.39,9.68,4.02,1.99,7.92,4.19,11.62,6.73,8.69,5.96,13.88,14.1,15.4,24.49,2.77,18.99-3.76,35.45-20.04,46.5-6.03,4.09-12.83,6.14-20.23,6.05-5.98-.07-11.91.09-17.78-1.71-12.89-3.97-20.73-12.54-24.4-25.26-1.75-6.07-2.32-12.24-2.37-19.13,8.71-1.22,17.2-.39,25.14-.51,1.97,2.27,2.01,4.3,2.38,6.24,1.65,8.58,9.8,12.3,18.06,9.78,4.73-1.45,6.55-5.27,7.38-9.74.78-4.21-.9-7.54-4.11-10-6.47-4.96-13.61-8.88-20.9-12.52-4.74-2.37-9.56-4.58-13.6-8.19-7.71-6.89-11.66-15.67-12.78-25.64C.06,40.04,2.93,27.56,11.84,16.82c5.28-6.37,12.01-10.54,20.01-12.22,13.47-2.84,26.03-.48,37.36,7.63,8.31,5.95,11.9,14.43,13.05,24.13.4,3.41.32,6.92-.29,11.11Z" style="fill: #fff; stroke-width: 0px;"/>
      <path d="m529.82,91.44c3.49-1.19,5.23-3.83,7.1-6.35,8.38-11.26,14.49-23.72,19.6-36.7,1.65-4.19,3.95-8.03,6.33-11.8,1.53-2.43,3.49-4.48,6.93-3.14,1.22,2.79-.33,4.97-1.16,7.21-2.87,7.73-5.73,15.45-6.88,24.69,4.27-5.36,7.52-10.35,11.99-14.29,2.34-2.07,4.55-5.05,8.08-3.7,3.82,1.46,2.74,5.28,2.69,8.29-.07,4.7-1.62,9.09-3.6,13.32-1.86,3.97-3.7,7.95-5.81,12.49,3.9-.45,6.71-1.57,8.98-3.91,4.65-4.81,8.38-9.93,9.49-16.95,1.76-11.14,7.88-19.86,17.27-26.2,2.33-1.57,4.85-2.95,7.72-3.34,4.92-.68,7.33,1.56,6.86,6.45-.48,4.93-2.47,9.25-5.92,12.84-3.22,3.35-6.46,6.67-10.46,9.16-1.82,1.13-3.61,2.35-4.91,4.07,2.03,6.62,6.63,8.69,12.51,5.59,4.95-2.61,8.8-6.45,12.02-10.97,1.24-1.74,2.58-3.41,4.56-6.02-.21,3.79-1.46,6.18-2.58,8.55-3.74,7.92-8.37,15.06-16.83,18.85-7.76,3.47-12.08,2.35-17.17-4.58-.38-.52-.82-1-1.38-1.69-3.49,1.55-4.83,4.98-6.99,7.52-2.71,3.17-5.56,6.08-8.83,8.69-3.7,2.94-7.67,4.52-12.42,4.11-3.77-.32-7.22.82-10.95,2.61-2.6,9.75-1.23,20.81-6.98,30.08-3.58-.62-3.91-2.98-4.49-5.21-2.18-8.35-.51-16.39,1.77-24.43,2.66-9.37,5.11-18.79,6.73-28.47-4.06,5.12-6.65,11.1-10.05,16.59-3.93,6.34-7.68,12.76-13.1,18.05-2.7,2.63-5.54,3.44-9.09,1.97-3.43-3.25-1.72-8.17-3.87-12.14-2.74,3.72-4.69,7.72-7.15,11.4-3.88,5.79-8.79,5.41-13.78.76-1.44-1.35-1.95-3.47-4.01-4.67-3.23,4.07-7.09,7.36-12.02,8.85-12.29,17.41-21.19,13.86-29.04,2.15-2.42,3.43-4.77,6.76-7.13,10.1-1.84,2.6-4.07,4.78-6.73,6.56-6.07,4.04-12.18,3.16-16.72-2.56-4.58-5.77-6.71-12.15-4.43-19.46,3.2-10.29,8.92-18.79,18.15-24.69,1.82-1.16,3.81-2.02,6.02-1.89,5.81,4.48,4.24,15.19-2.97,20.76-1.79.4-3.08-1.14-4.75-1.18-5.86,3-9.28,8.67-8.61,14.3.65,5.42,5.15,8.51,9.99,6.01,7.74-3.99,14.64-8.92,16.27-18.6,1.93-11.48,7.64-20.71,18-26.67,2.61-1.5,5.31-2.84,8.6-1.37,1.51,1.8,2.68,3.96,4.65,5.6,1.99,1.66,2.31,4.35,2.34,6.86.05,3.8.37,7.61-.62,11.36-.34,1.28-.43,2.59.15,4.56,5.36-2.53,8.28-6.56,9.48-11.9,1.24-5.51,2.66-10.93,5.32-15.96,1.43-2.7,3.38-4.96,5.86-6.66,2.26-1.55,4.75-2.51,7.3-.11.92,2.81-.44,5.12-1.76,7.41-2.81,4.87-6.04,9.53-7.83,14.93-.72,2.18-1.59,4.42.4,6.32,2.49.52,3.42-1.24,4.61-2.57,6.26-6.99,10.29-15.4,14.98-23.39,2.01-3.43,4.03-6.85,6.15-10.21.95-1.51,1.91-3.14,3.94-3.46,3.24,2.97,3.92,5.88,2.14,10.11-1.03,2.44-2.26,4.8-3.53,7.12-2.02,3.72-2.8,7.78-3.41,11.87-.4,2.69-.02,5.29,3,7.11Zm-57.6-7.47c-6.46,5.18-10.55,11.01-12.85,18.11-.7,2.14-.64,4.22.16,6.31,1.38,3.58,4.6,4.84,8.03,3.07,2.7-1.39,4.25-3.62,4.62-6.64q-2.1-5.67.03-20.84Zm101.45-22.44c-5.76,1.58-12.81,13.31-12.24,20.37,8.46-1.14,14.89-11.85,12.24-20.37Zm30.55-5.56c7.26-3.02,14.29-12.57,12.82-17.39-6.62,2.3-12.77,10.64-12.82,17.39Z" style="fill: #fff; stroke-width: 0px;"/>
      <path d="m623.56,0c6.04,3.94,6.57,11.49,1.63,15.48-3.08,2.49-6.42,4.66-9.62,7-2.41,1.75-4.75,3.57-6.86,5.68-1.37,1.37-2.84,2.82-5.12,2.35-1.69-1.63-.87-3.41-.37-5.1,3.3-11.21,11.41-18.52,20.35-25.41Z" style="fill: #fff; stroke-width: 0px;"/>
    </g>
  </g>
</svg>