<?xml version="1.0" encoding="UTF-8"?>
<svg id="Calque_2" data-name="Calque 2" xmlns="http://www.w3.org/2000/svg" viewBox="0 0 633.77 165.61">
  <g id="Calque_1-2" data-name="Calque 1">
    <g>
      <path d="m98.85,5.55c-1.62,3.9-6.5,4.96-8.28,8.82,1.15,1.94,3.19,1.69,4.84,2.23,22.78,7.5,40.12,21.29,47.53,44.66,8.76,27.63-3,55.65-28.19,71.5-29.37,18.48-74.85,16.64-101.81-14.59-6.37-7.38-10.96-15.76-12.93-25.83,14.75-12.9,29.35-25.66,43.9-38.37-1.18-2.79-3.59-3.01-5.36-4.07-6.73-4.03-12.48-8.75-14.39-16.97-1.57-6.78-.02-12.47,4.74-17.44C37.63,6.37,48.78,2.16,60.88.75c10.9-1.27,21.93-1.14,32.66,1.96,1.84.53,3.99.64,5.32,2.83Zm-27.69,24.69c-4.68,4.26-8.68,7.97-12.75,11.6-4.18,3.73-8.43,7.38-12.37,10.81.2,3.83,1.69,6.34,3.77,8.6,9.03,9.82,27.05,12.21,38.09,4.68,6.38-4.35,10.45-10.25,9.42-18.53-.97-7.8-7.96-14.3-17.77-16.73-1.99-.49-4.34-.12-6.11-2.35,2.48-2.24,4.9-4.43,7.33-6.62,2.4-2.16,5.52-3.63,6.8-6.85-6.66-5.75-19.68-6.7-28.43-2.36-3.28,1.63-5.41,4.07-5.33,7.73.08,3.42,2.77,5.3,5.57,6.41,3.49,1.39,7.21,2.23,11.78,3.6Z" style="fill: #fff; stroke-width: 0px;"/>
      <path d="m555.55,135.05c-8.12.53-16.31.67-24.08-.07-2.05-2.58-1.58-4.99-1.59-7.27-.06-18.32-.08-36.65-.09-54.97,0-3.61-1.04-6.26-5.25-6.35-4.25-.09-6.57,1.88-6.67,6.23-.05,2.16-.09,4.33-.1,6.49,0,16.32.01,32.65-.03,48.97,0,2.12.45,4.35-1.24,6.86-7.66.92-15.66.39-24.31.28-1.41-22.79.83-45.06-1.31-66.6-7.15-4.14-10.97-2.27-11.02,4.71-.12,18.32-.06,36.65-.11,54.97,0,2.12.45,4.36-1.34,6.74-7.87.98-16.07.31-24.9.39V46.97c7.98-1.14,15.67-.53,22.62-.39,2.21,1.82,1.36,3.8,2.45,5.63,12.27-10.53,24.63-11.7,36.8.2,1.74-.41,2.57-2,3.85-3.02,7.68-6.14,16.04-7.71,25.18-3.68,8.75,3.86,12.54,10.52,12.4,20.19-.31,20.65-.08,41.31-.11,61.96,0,2.13.39,4.34-1.17,7.17Z" style="fill: #fff; stroke-width: 0px;"/>
      <path d="m398.56,53.33c5.62-6.79,11.95-10.5,20.32-10.03,11.63.66,20.61,8.71,20.79,20.19.37,22.66.13,45.32.1,67.99,0,.95-.4,1.91-.76,3.5-8.02.74-16.02.56-23.64.11-2.04-2.35-1.52-4.61-1.53-6.71-.05-14.16-.1-28.33.02-42.49.04-4.86-.54-9.64-.99-14.44-.35-3.7-2.21-5.98-6.05-5.87-3.77.11-5.54,2.37-5.89,6.1-1.74,18.63-.41,37.3-.86,55.94-.05,2.28.5,4.68-1.32,7.41-7.63.72-15.63.43-23.18.13-1.94-2.57-1.47-4.81-1.48-6.92-.05-18,0-35.99-.08-53.99-.03-7.5-2.33-9.11-9.81-6.91-1.99,3.28-2.09,7.11-2.09,10.92-.04,16.5,0,33-.03,49.49,0,2.15.28,4.34-.91,7.1-7.87,1.15-16.01.41-24.68.39V46.25c7.96.19,15.81-.5,23.7.55.5,1.97.89,3.54,1.57,6.22,5.11-5.92,10.84-9.75,18.27-9.52,7.31.22,13.67,2.68,18.52,9.83Z" style="fill: #fff; stroke-width: 0px;"/>
      <path d="m169.25,95.75c8.4-.46,16.58-.69,24.76.14.5,3.79.73,7.1,1.4,10.32,1.16,5.62,5.28,8.91,10.95,9.09,5.32.17,8.68-2.75,8.6-8.11-.08-5.32-1.83-9.95-6.25-13.54-7.9-6.43-17.32-10.53-25.2-17.01-15.4-12.67-17.87-39.02-4.59-53.91,4.45-4.99,10.34-7.87,16.97-8.73,13.43-1.74,26.44-1.03,36.7,9.34,7.66,7.73,8.81,17.78,9.25,28.7-8.72.67-16.88.64-24.48.1-2.05-2.21-1.87-4.29-2.16-6.25-.45-2.99-1.03-6.01-3.53-8.03-3.48-2.81-7.32-3.1-11.12-.73-3.24,2.02-4.23,7.5-2.35,11.82,1.75,4.02,5.17,6.42,8.6,8.79,6.69,4.64,13.68,8.83,20.27,13.65,10.31,7.54,14.65,17.9,14.93,30.12.14,5.94-.68,11.94-2.26,17.77-2.72,10.04-9.25,15.97-19.29,17.98-9.9,1.98-19.75,1.71-29.63-.77-17.76-4.46-24.55-26.07-21.58-40.73Z" style="fill: #fff; stroke-width: 0px;"/>
      <path d="m276.39,74.06c-9.09.52-17.73.4-26.25.08-1.82-12.49,5.85-25.38,17.33-29.16,12.14-4,24.62-3.95,36.86-.6,10.18,2.79,15.59,10.45,15.8,21.1.18,8.99.06,17.98.07,26.97.02,14.44-.42,28.89,1.84,43.77-8.38.44-16.42.51-24.41-.07-1.26-1.71-2.33-3.17-3.53-4.81-3,.24-5,2.44-7.24,3.98-8.65,5.96-17.47,4.53-26,.27-8.36-4.17-12.32-11.34-11.73-20.83.16-2.49.04-5.02.42-7.47,1.78-11.32,7.67-19.16,18.87-22.88,6.77-2.25,13.66-4.3,19.97-7.72,4.8-2.6,5.96-6.48,3.71-11.35-1.26-2.74-3.04-4.88-6.43-4.47-3.5.41-6.48,1.64-7.42,5.55-.54,2.25-1.1,4.49-1.86,7.64Zm17.24,19.63c-5.8,2.1-10.89,4.07-14.78,8.05-3.52,3.6-3.7,8.24-1.74,12.57,1.55,3.42,4.81,5.14,8.67,4.53,4.84-.76,6.77-4.37,7.64-8.74,1.04-5.23.81-10.45.21-16.4Z" style="fill: #fff; stroke-width: 0px;"/>
      <path d="m574,146.58c3.33-1.93,6.46-.38,9.16-2.14,2.43-2.99,1.58-6.47.83-9.86-5.83-26.5-11.73-52.99-17.57-79.5-.6-2.73-1.58-5.42-1.12-9.27,8.39-.9,16.86-.29,25.95-.33,3.3,16.88,4.52,33.57,8.2,50.01,2.68-16.43,5.36-32.87,8.1-49.6,9.01-.87,17.37-.59,25.67-.25,1.37,3.14-.09,5.64-.63,8.13-5.89,26.83-11.89,53.64-17.87,80.45-1.2,5.38-2.73,10.66-5.05,15.66-4.65,10.01-11.63,16.56-23.56,15.63-3.77-.29-7.63.47-11.79-1.06-1.22-5.93-.73-11.94-.3-17.88Z" style="fill: #fff; stroke-width: 0px;"/>
    </g>
  </g>
</svg>