<?xml version="1.0" encoding="UTF-8"?>
<svg id="Calque_2" data-name="Calque 2" xmlns="http://www.w3.org/2000/svg" viewBox="0 0 634.93 193.93">
  <g id="Calque_1-2" data-name="Calque 1">
    <g>
      <path d="m498.23,52.76c8.32-15.84,20.26-24.56,38.27-23.71,8.83.42,15.22,3.73,19.19,10.77-14.15,12.08-28.43,24.28-42.66,36.42,3.65,5.05,9.8,6.79,16.54,5.11,4.29-1.07,8.07-3.18,11.34-6.08,3.44-3.06,6.5-2.49,9.51.2.44,2.5-1.26,3.51-2.61,4.68-8.91,7.71-19.39,10.03-30.79,8.33-11.53-1.71-19.15-10.86-19.21-22.48-.01-2.64,0-5.27-.38-8.1-2.52,13.06-9.99,22.56-21.77,27.82-11.89,5.31-23.98,5.08-35.64-4.13-1.69,8.67-3.27,16.8-4.82,24.8-2.65,1.62-4.96,1.41-8.25-.03,4.16-23.85,8.32-47.71,12.39-71.04,3.94-2.14,6.92-1.24,10.16.2,8.94-6.59,19.14-7.93,29.82-5.53,11.87,2.67,16.67,11.61,18.91,22.77Zm-36.96,29.12c11.74.05,24.32-10.72,26.63-22.33,1.71-8.6-.8-15.51-7.78-20.44-7.02-4.95-14.61-3.91-21.67.06-8.52,4.78-13.89,11.71-15.03,21.94-1.26,11.33,6.37,20.71,17.86,20.76Zm82.36-41.89c-8.76-7.21-21.34-4-30.67,6.13-6.89,7.48-9.11,18.11-4.36,23.47,11.56-9.77,23.12-19.54,35.03-29.6Z" style="fill: #fff; stroke-width: 0px;"/>
      <path d="m381.76,115.21c4.43-2.37,8.61-1.67,12.53-.86,2.25,2.18,1.69,4.62,1.7,6.88.05,14.26,0,28.52.05,42.78,0,2.43-.36,4.99,1.88,7.63,3.7-4.19,6.38-8.85,9.09-13.47,6.78-11.58,13.89-22.97,21.55-33.99,5.08-7.3,12.1-11.14,21.27-10.64,2.82.15,5.66-.05,8.48-.22,1.95-.12,3.65.16,4.95,1.95.96,2.47-.35,4.72-.81,6.88-2.79,2.55-5.97,2.63-9.15,2.59-5.05-.07-8.55,1.79-11.53,6.24-12.26,18.35-24.51,36.69-36.03,55.51-2.09,3.42-4.73,5.33-8.97,4.92-2.97-.28-5.99-.01-8.99-.07-5.59-.1-6.78-1.17-6.8-6.74-.07-17.41-.11-34.82.01-52.23.04-5.72-.87-11.54.77-17.17Z" style="fill: #fff; stroke-width: 0px;"/>
      <path d="m82.48,178.67c1.72,12.11-3.3,16.96-14.61,14.72-12.68-2.51-21.72-9.25-26.46-21.59-3.3-8.59-.52-16.1,3.63-23.18,8-13.65,23.74-20.02,39.38-17.11,12.88,2.4,26.95,16.44,23.64,33.97-1.48,7.83-3.66,15.46-5.82,23.11-.26.93-.84,1.77-1.41,2.94-4.45,1.33-8.94,1.08-13.93.12-.42-6.75,2.7-12.46,3.74-18.54.47-2.76,1.52-5.42,2.04-8.18,1.24-6.59.42-12.83-5.41-16.96-6.11-4.32-13.11-4.96-19.94-1.82-8.54,3.92-12.53,13.64-9.78,22.63,1.93,6.32,7.29,10.24,14.79,10.47,3.28.1,6.57-.36,10.15-.59Z" style="fill: #fff; stroke-width: 0px;"/>
      <path d="m235.98,153.32c-14.16,8.2-30.08,12.69-44.74,20.82,3.21,3.56,6.91,3.67,10.4,3.95,3.44.27,6.59-2.13,10.44-1.65.39,4.54-1,8.57-2.41,12.57-.75,2.13-2.7,2.77-4.75,3.13-12.66,2.19-27.4-4.79-33.57-15.89-7.05-12.69-3.56-28.11,8.67-38.3,14.92-12.43,36.89-11.15,49.6,2.84,3.1,3.41,4.62,7.54,6.34,12.53Zm-50.96,9.9c11.01-3.98,21.19-8.65,31.54-13.52-4.59-6.13-13.95-8.07-20.87-5.03-7.1,3.12-12.22,11.29-10.67,18.55Z" style="fill: #fff; stroke-width: 0px;"/>
      <path d="m363.99,152.38c-14.8,7.1-29.27,14.03-44.47,21.32,6.88,7.21,14.17,3.59,20.87,2.71,2.52,8.97-1.77,14.57-10.41,14.97-10.41.48-19.06-3.16-25.91-10.6-8.15-8.85-9.59-19.55-4.69-30.09,10.18-21.9,35.68-29.31,54.26-15.46,5.31,3.96,9.75,8.99,10.37,17.16Zm-20.77-3.82c-2.86-4.73-10.93-6.65-17.77-4.23-8.04,2.86-12.84,10.01-11.59,17.29,4.79-.02,25.95-9.44,29.35-13.07Z" style="fill: #fff; stroke-width: 0px;"/>
      <path d="m539.74,192.41c-15.18,1.63-29.01-10.37-31.4-23.84-1.35-7.58.54-14.42,4.87-20.23,12.72-17.08,31.88-23.78,51.5-10.63,11.9,7.98,16.67,22.66,7.5,37.69-7.3,11.96-18.16,17.55-32.48,17Zm1.11-12.01c11.05.02,20.02-8.19,20.1-18.39.07-9.79-7.48-16.58-18.41-16.55-10.49.03-19.34,8.83-19.41,19.31-.07,8.77,7.7,15.62,17.73,15.63Z" style="fill: #fff; stroke-width: 0px;"/>
      <path d="m608.77,190.13c1.89-14.28,8.11-27.7,9.9-42.24-5.09-3.09-10.13-2.76-15.17-1.45-2.17.57-2.68,2.76-3.22,4.71-3.25,11.81-6.5,23.61-9.77,35.41-.45,1.61-1.09,3.14-2.86,4.35-3.63.65-7.54.85-11.28-.18-2.16-2.43-1.33-4.86-.67-7.25,4.01-14.5,8.14-28.97,12.01-43.5,1.34-5.05,3.85-7.62,9.43-7.39,7.65.32,15.32-.04,22.98.08,11.11.17,16.45,6.33,14.36,16.99-2.53,12.84-6.13,25.42-9.79,37.98-.56,1.91-1.7,3.39-3.75,3.51-3.76.22-7.59.87-12.17-1.02Z" style="fill: #fff; stroke-width: 0px;"/>
      <path d="m60.36,115.1c.02,4.1-.57,8.09-3.24,11.47-3.25,1.73-6.65.93-9.93,1.13-8.34.49-16.1,2.5-22.43,8.34-7.8,7.2-10.21,16.03-7.81,26.2,2.2,9.35,9.4,13.08,17.83,15.33,1.74.46,3.47.97,5.67,1.58-.38,5.55-.88,10.64-4.62,14.63C16.67,193.05,1.06,179.79.04,158.51c-.91-19.13,12.64-37.32,31.74-42.76,7.38-2.1,14.99-3.14,22.71-3,1.99.04,4.05-.05,5.87,2.35Z" style="fill: #fff; stroke-width: 0px;"/>
      <path d="m249.22,175.68c1.36,2.75,4.33,2.16,5.62,3.91-1.33,6.99-5.59,11.37-10.25,10.6-6.68-1.11-12.53-9.27-11.39-16.51,2.16-13.76,6-27.16,9.47-40.63,1.11-4.33,2.45-8.6,3.53-12.94,2.13-8.55,7.25-10.85,16.2-6.93,1.25,5.38-1.89,10.44-2.02,15.57,2,2.9,5.34,1.02,8.02,3.11,1.14,4,1.02,8.17-1.86,11.71-3.13,1.81-6.38.37-10.29,2.24-3.31,9.11-4.79,19.52-7.02,29.88Z" style="fill: #fff; stroke-width: 0px;"/>
      <path d="m281.31,175.7c2.16,1.58,3.74,2.73,5.73,4.19-2.01,4.19-2.97,9.04-8.31,10.25-3.91.89-9.44-3.26-11.72-7.84-3.55-7.13-.57-14,.76-20.86,2.87-14.79,7.4-29.17,11.13-43.75,1-3.91,3.02-6.21,7.28-5.93,2.93.19,6-.73,8.89,1.15,1.37,5.69-3.21,11.01-1.73,16.38,2.58,2.16,5.92.32,7.78,2.83.88,8.11-1.54,11.34-9.44,12.45-1.97.28-3.82.92-4.26,2.89-2.08,9.32-5.1,18.46-6.11,28.24Z" style="fill: #fff; stroke-width: 0px;"/>
      <path d="m325.73,66.16c1.64-1.56,3.63-2.06,5.71-1.87,2.04,1.46,2.07,3.55,2.53,5.44,2.22,9.23,10.84,14.09,19.94,11.25,9.88-3.09,17-12.42,17.08-22.14.08-9.46-6.16-14.1-13.52-17.91-2.65-1.37-5.54-2.33-8.07-3.89-8.58-5.29-10.93-11.29-8.56-21.11,1.92-7.96,9.53-14.96,17.57-15.52,4.74-.33,9.69-1.2,14.2,1.36,3.99,2.26,6.68,5.41,6.7,10.37-1.65,2.15-3.77,3.01-6.68,2.44-.45-.57-1.01-1.17-1.44-1.85-2.45-3.81-5.44-7.2-10.42-6.18-5.53,1.13-9.67,4.61-11.36,10.11-1.53,4.98-.42,9.55,3.79,13,2.72,2.23,5.88,3.71,9.08,5.14,12.56,5.61,18.71,14.53,17.38,25.03-1.79,14.01-11.96,25.53-24.52,27.92-5.31,1.01-10.54,1.2-15.8-.31-9.49-2.73-15.82-12.53-13.6-21.27Z" style="fill: #fff; stroke-width: 0px;"/>
      <path d="m131.1,191.37c.03-5.92.07-11.4,5.28-15.37,3.5-2.67,4.54-6.73,5.65-10.77,2.22-8.08,2.68-16.79,8.46-23.61,4.26-5.02,8.88-9.47,15.92-10.25,1.84-.2,3.66-.62,5.58,1.58-.6,5.2-.75,10.98-5.83,15.01-2.32,1.84-3.72,4.1-4.43,6.97-1.54,6.26-3.12,12.53-4.97,18.71-2.7,9.04-8.56,15.18-17.68,18.05-2.4.76-4.85,1.01-8-.32Z" style="fill: #fff; stroke-width: 0px;"/>
      <path d="m106.38,191.17c-.36-4.93-.25-9.95,3.76-13.53,4.28-3.82,5.64-8.59,6.96-13.84,2.36-9.37,3.66-19.29,11.43-26.45,3.68-3.39,7.94-5.33,12.76-6.34,2.16-.45,3.97-.11,5.28,2.47-1.34,5.27-.95,11.5-7.02,15.21-2.36,1.44-2.67,4.47-3.42,7-2.18,7.28-3.05,14.95-6.22,21.93-3.16,6.96-8.34,11.87-15.86,14.04-2.26.65-4.54,1.09-7.67-.51Z" style="fill: #fff; stroke-width: 0px;"/>
      <path d="m386.35,34.78c2.92-.91,5-1.17,7.09-.16,1.02,1.97.44,3.94.1,5.85-1.36,7.64-2.89,15.25-4.18,22.9-.41,2.43-.57,4.96-.38,7.41.57,7.21,8.37,12.46,15.21,10.1,7.56-2.61,12.41-7.44,14.03-15.79,1.94-10,3.64-20.06,5.47-29.88,2.71-1.57,5.04-1.59,7.58-.26,1.12,3.46-.16,6.89-.66,10.18-1.29,8.5-2.85,16.98-4.96,25.31-2.05,8.1-7.71,13.48-15.53,16.22-5.92,2.07-12.19,1.88-18.24.54-7.18-1.59-12.06-7.81-11.69-15.88.57-12.39,3.59-24.43,6.17-36.55Z" style="fill: #fff; stroke-width: 0px;"/>
      <path d="m450.31,190.63c.33-5.68.71-11.07,6.1-14.91,2.86-2.04,3.67-5.7,4.48-9.18,1.75-7.57,3.35-15.21,7.2-22.12,3.68-6.61,9.23-10.8,16.59-12.49,2.23-.51,4.65-.9,6.96,1.73-1.43,4.74-1.39,10.3-6.23,14.08-2.83,2.22-4.35,5.35-5.28,8.82-1.54,5.76-3.02,11.54-4.88,17.2-3.12,9.49-9.26,15.95-19.39,18.12-1.83.39-3.62.76-5.56-1.24Z" style="fill: #fff; stroke-width: 0px;"/>
      <path d="m482.31,190.18c.04-6.31,2.24-11.75,3.47-17.33,2.32-10.49,4.99-20.9,7.66-31.3,2.24-8.72,6.15-10.64,16.15-8.14,1.96,2.09,1.42,4.57.78,6.97-4.11,15.46-8.33,30.89-12.38,46.37-.86,3.3-2.72,4.77-6.01,4.64-3.09-.12-6.3.55-9.68-1.21Z" style="fill: #fff; stroke-width: 0px;"/>
      <path d="m444.5,190.69c-5.2.86-9.27,1.11-13.19.02-2.2-2.71-1.03-5.36-.26-7.77,4.58-14.38,7.39-29.19,10.83-43.84.5-2.13,1.02-4.17,3.05-6.13,3.99-.27,8.33-1.65,13.86.56-3.65,19.32-9.22,38.12-14.28,57.16Z" style="fill: #fff; stroke-width: 0px;"/>
      <path d="m563.11,34.94c2.95-1.17,4.91-1.06,6.35-.81,2.08.54,1.13,2.74,3,3.21,4.31-2.59,8.81-5.38,14.15-4.79,1.67,2.05,1.33,3.76.42,5.96-9.02,3.83-16.48,9.63-19.35,19.98-1.82,6.57-2.48,13.32-3.89,19.94-.61,2.86-.45,5.98-2.39,8.49-2.27,1.01-4.46,1.24-7.33-.49,2.41-17.18,5.86-34.4,9.04-51.49Z" style="fill: #fff; stroke-width: 0px;"/>
      <path d="m500.75,124.17c-2.49-8.57,2.61-11.03,14.12-9.14,1.77,2.99.9,6.16-1.32,8.03-3.77,3.19-8.39,1.6-12.81,1.11Z" style="fill: #fff; stroke-width: 0px;"/>
    </g>
  </g>
</svg>