<?xml version="1.0" encoding="UTF-8"?>
<svg id="Calque_2" data-name="Calque 2" xmlns="http://www.w3.org/2000/svg" viewBox="0 0 375.64 212.5">
  <g id="Calque_1-2" data-name="Calque 1">
    <g>
      <path d="m267.68,123.83c0-24.15-.01-48.3,0-72.46,0-6.94.46-7.38,7.35-7.4,8.48-.03,16.96-.03,25.44,0,6.81.03,7.26.49,7.26,7.5.01,43.47,0,86.95.03,130.42,0,2.15.03,4.36.51,6.43.43,1.85,1.85,3.32,3.95,3.2,2.2-.13,3.04-1.86,3.21-3.83.16-1.82.14-3.66.14-5.49,0-43.31,0-86.61,0-129.92,0-8.15.18-8.31,8.45-8.32,8.15,0,16.3-.03,24.45,0,6.63.03,7.17.54,7.17,7.09.02,27.48,0,54.97.01,82.45q0,7.51,7.43,7.53c13.91.04,12.41-1.17,12.45,12.75.04,17.32-.11,34.65.09,51.97.05,4.72-1.43,6.73-6.28,6.38-4.3-.31-9.29,1.25-12.81-.44-5.4-2.6-9.76-.12-14.65.03-20.43.64-40.9.47-61.35.18-7.51-.11-12.81-6.8-12.84-15.12-.06-24.32-.02-48.64-.02-72.96Z" style="fill: #fff; stroke-width: 0px;"/>
      <path d="m.06,92.27c0-11.33-.04-22.66.02-33.98.04-6.83,4.06-12,10.66-13.95,2.72-.8,5.51-1.22,8.36-1.22,16.63.02,33.27.02,49.9,0,3.03,0,5.98.43,8.82,1.46,6.24,2.27,10.1,7.37,10.16,14,.13,13.49-.01,26.99.09,40.48.03,3.95-1.53,5.91-5.55,5.9-9.65-.04-19.29-.04-28.94,0-3.94.02-5.73-1.75-5.67-5.78.13-7.83.05-15.66.01-23.49,0-1.49-.03-3.02-.37-4.46-.46-2.01-1.9-3.14-4.01-3.02-1.97.11-2.88,1.48-3.21,3.27-.15.81-.21,1.66-.22,2.48-.01,12.33-.08,24.66.02,36.98.04,5.38,1.53,6.86,6.87,6.93,8.48.12,16.97-.03,25.45.08,9.54.13,15.5,6.11,15.54,15.73.08,20.99.09,41.98,0,62.97-.04,9.36-6.04,15.35-15.3,15.39-19.13.08-38.26.08-57.38,0-9.42-.04-15.22-5.91-15.25-15.25-.04-11.83.12-23.66-.07-35.48-.08-4.6,1.88-6.27,6.23-6.22,9.15.1,18.3.12,27.44,0,4.77-.07,6.49,2.19,6.39,6.76-.16,7.33-.05,14.66-.03,21.99,0,1.5,0,3.01.24,4.48.33,2,1.51,3.43,3.67,3.37,2.36-.06,3.04-1.86,3.05-3.82.05-14.16.05-28.32.02-42.48,0-3.58-2.38-4.35-5.39-4.34-7.82.02-15.64.03-23.45-.02-12.82-.07-18.11-5.42-18.12-18.28,0-10.16,0-20.32,0-30.49Z" style="fill: #fff; stroke-width: 0px;"/>
      <path d="m152.92,146.39c0-19.33-.01-38.65,0-57.98,0-7.18.97-8.23,7.93-8.27,11.15-.06,22.29-.07,33.44.01,6.04.04,7.38,1.36,7.39,7.41.05,39.32,0,78.64.06,117.96,0,4.5-1.44,6.72-6.36,6.63-12.14-.22-24.29-.2-36.43-.01-4.62.07-6.11-1.85-6.08-6.27.13-19.83.05-39.65.05-59.48Z" style="fill: #fff; stroke-width: 0px;"/>
      <path d="m94.87,146.85c0-16.16-.05-32.32.02-48.47.04-10.9,6.56-17.37,17.39-17.43,6.65-.04,13.31-.11,19.96.03,8.67.18,15.61,6.85,15.66,15.58.16,29.98.04,59.97.12,89.95.01,4.15-1.89,5.69-5.79,5.52-2.66-.11-5.36-.29-7.97.06-2.88.39-7.87-2.02-7.85,3.09.02,4.78,4.85,2.39,7.61,2.86,1.94.33,3.99-.01,5.97.14,5.12.39,8.18,3.46,7.91,7.78-.25,4.08-2.77,6.05-8.08,6.08-9.81.06-19.63.08-29.44,0-9.54-.08-15.43-6.03-15.48-15.73-.08-16.49-.02-32.98-.02-49.47Zm22.08-11.61c0,8.16,0,16.32,0,24.48,0,2.87.51,5.67,4.1,5.62,3.24-.04,3.88-2.63,3.88-5.34.01-16.32.02-32.63,0-48.95,0-2.81-.49-5.75-4.09-5.65-3.56.1-3.87,3.09-3.88,5.87-.03,7.99-.01,15.98-.01,23.98Z" style="fill: #fff; stroke-width: 0px;"/>
      <path d="m207.83,146.07c0-19.16-.01-38.33,0-57.49,0-7.81.66-8.44,8.63-8.45,5.32-.01,10.65.03,15.97.04,3.68,0,5.47,1.7,5.41,5.51-.1,6.83.14,13.67-.06,20.5-.13,4.35,1.67,6.15,5.92,5.81,1.49-.12,3-.05,4.49.05,7.33.53,13.37,6.28,13.42,13.63.18,24.16.18,48.33.02,72.49-.05,7.87-6.23,13.77-14.15,13.87-11.15.15-22.3-.12-33.44.12-4.92.11-6.31-2.01-6.28-6.59.14-19.83.06-39.66.06-59.49Zm23.9,15.13c0,8.14-.03,16.28.02,24.43.01,2.52-.01,5.62,3.28,5.76,3.74.16,3.71-3.13,3.72-5.8.04-16.28.03-32.57,0-48.85,0-2.54,0-5.46-3.53-5.44-3.52.02-3.48,2.95-3.49,5.48-.04,8.14-.01,16.28-.01,24.43Z" style="fill: #fff; stroke-width: 0px;"/>
      <path d="m177.68,0c20.79-.04,37.91,16.8,37.78,37.14-.14,20.61-16.95,37.53-37.48,37.72-20.48.19-37.19-16.75-37.18-37.69C140.8,16.37,157.01.04,177.68,0Z" style="fill: #fff; stroke-width: 0px;"/>
    </g>
  </g>
</svg>