<?xml version="1.0" encoding="UTF-8"?>
<svg id="Calque_2" data-name="Calque 2" xmlns="http://www.w3.org/2000/svg" viewBox="0 0 577.56 215">
  <g id="Calque_1-2" data-name="Calque 1">
    <g>
      <path d="m103.16,0c40.27,0,80.54,0,120.81,0,8.71,3.1,16.99,6.95,22.65,14.69,8.53,11.65,9.73,24.28,3.71,37.26-6.24,13.47-17.59,19.62-32.03,19.89-16.61.31-33.24.07-49.85.11-1.68,0-3.5-.4-5.22.58.34.41.41.6.55.66,1.21.55,2.43,1.06,3.64,1.62,26.44,12.33,41.02,33.78,44.14,62.09,2.95,26.77-10.59,46.88-30.63,63.17-9.65,7.84-20.98,11.97-32.84,14.93H30.28c-6.02-2.43-11.81-5.18-17.05-9.18-12.97-9.88-15.75-26.63-11.17-41.65,4.49-14.72,16.02-22.26,32.36-22.31,16.79-.06,33.58,0,50.37-.05,1.73,0,3.61.58,5.8-1.04-2.07-.98-3.8-1.8-5.54-2.62-7.41-3.49-14.48-7.54-20.4-13.27-20.99-20.33-27.2-45.29-19.65-72.79C52.31,25.51,70.76,8.89,97.44,1.67,99.36,1.15,101.26.56,103.16,0Z" style="fill: #fff; stroke-width: 0px;"/>
      <path d="m324.82,0c51.59,0,103.17,0,154.76,0,.76.32,1.51.69,2.3.96,19.17,6.46,27.05,17.55,26.69,37.6-.35,19.32-14.9,34.1-34.19,34.51-8.97.19-17.95.05-26.92.07-8.46.02-8.62.17-8.63,8.69-.01,32.46-.08,64.92.03,97.38.04,11.18-4.58,19.82-13.06,26.78-5.11,4.2-10.94,6.88-17.1,9h-10.98c-7.88-2.67-14.58-7.19-20.36-13.13-8.55-8.76-10.46-19.73-10.45-31.36.02-30.16,0-60.32.02-90.49,0-6.73-.04-6.85-6.49-6.88-9.48-.04-18.97.05-28.45-.04-14.65-.14-27.59-9.04-33.03-23.24-5.43-14.19-3.16-26.99,7.5-38.31,5.22-5.55,11.59-8.78,18.39-11.56Z" style="fill: #fff; stroke-width: 0px;"/>
      <path d="m336.8,215h-88.86c-1.03-.54-2.06-1.09-3.1-1.61-12.36-6.17-19.35-15.42-19.08-30.01.43-23.15.05-46.32.15-69.48.06-15.26,12.25-27.76,27.47-27.87,25.95-.18,51.91.28,77.86-.21,10.57-.2,22.33,12.16,22.33,21.67,0,9.58-11.99,22.7-22.32,21.64-2.09-.21-4.46-.65-6.93.9,7.25,5.2,12.14,11.44,11.86,20.19-.27,8.48-5.57,14.48-12.4,19.7,3.32,1.29,5.68,1.01,7.97.92,9.92-.37,15.86,5.34,19.74,13.45,4.03,8.41,2.01,16.39-4.67,23.33-2.95,3.06-6.56,5.07-10.01,7.37Z" style="fill: #fff; stroke-width: 0px;"/>
      <path d="m472.59,215c-2.77-1.5-5.73-2.75-8.28-4.56-6.54-4.64-11.17-10.82-11.32-19.05-.32-17.13-1.5-34.33.71-51.39,3.61-27.83,26.31-49.87,54.65-53.64,27.04-3.6,53.94,12.05,64.62,37.67,2.97,7.14,4.48,14.63,4.49,22.39.01,13.99-.29,27.98.1,41.96.35,12.47-5.24,20.56-16.44,25.23-.91.38-1.76.92-2.64,1.38h-11.98c-9.71-3.51-16.42-9.77-18.58-20.23-.58-2.82-2.43-3.77-5.13-3.39-4.62.64-9.25.71-13.87.07-2.47-.34-4.35.46-4.87,3.06-2.2,10.94-9.16,17.29-19.45,20.5h-11.98Zm42.64-53.21c3.51.1,6.96-.41,10.33-1.37,2.35-.67,4.13-1.93,4.72-4.58,2.51-11.24-5.92-20.94-17.3-19.82-7.45.73-13.37,7.98-13.25,16.21.1,6.45,3.26,8.87,12.52,9.54.99.07,1.99,0,2.99,0Z" style="fill: #fff; stroke-width: 0px;"/>
    </g>
  </g>
</svg>