<?xml version="1.0" encoding="UTF-8"?>
<svg id="Calque_2" data-name="Calque 2" xmlns="http://www.w3.org/2000/svg" viewBox="0 0 636.16 116.99">
  <g id="Calque_1-2" data-name="Calque 1">
    <g>
      <path d="m142.77,92.16c-1.73-.53-2.94-1.04-4.37-2.24-1.05-7.6-4.1-14.51-10.2-20.27-5.96-5.63-13.57-7.08-20.79-9.53-1.33-7.47,1.79-13.19,6.06-18.37,4.31-5.23,9.93-8.93,16.52-10.45,6.66-1.54,13.47-1.32,20,1.26,8.3,3.28,14.14,9.13,17.69,17.14,2.37,5.34,3,10.94,1.91,16.79-2.12,11.33-9.03,18.61-19.11,23.59-2.65,1.31-5.65.44-7.7,2.1Z" style="fill: #fff; stroke-width: 0px;"/>
      <path d="m75.45,59.76c-1.29-3.81-1.46-7.74-3.28-11.37-4.8-9.59-12.54-14.95-22.97-16.78-1.7-.3-3.15-.91-4.6-2.05-1.71-4.54.02-8.92,2.12-12.61C53.05,5.84,62.98-.34,75.93.01c9.88.27,18.4,4.05,24.69,12.4,4.85,6.43,6.8,13.38,6.45,21.13-.26,5.75-2.67,10.89-6.08,15.35-2.68,3.51-6.04,6.53-9.88,8.94-3,1.89-6.34,2.79-9.74,3.44-1.97.38-3.99.16-5.93-1.52Z" style="fill: #fff; stroke-width: 0px;"/>
      <path d="m133.89,96.7c1.28,7.49-2.9,11.52-8.2,14.29-6.91,3.61-14.35,5.89-22.31,5.91-4,.01-8.01.24-11.99-.05-7.99-.59-15.58-2.68-22.45-6.96-.28-.18-.6-.31-.84-.53-8.43-7.59-7.5-12.57.14-19,4.22-3.56,9.36-4.79,14.45-6.08,3.97-1.01,8.08-1.6,12.17-1.99,3.28-.31,6.57.32,9.86.65,4.83.48,9.39,1.6,14.01,2.9,6.51,1.83,11.65,5.2,15.15,10.86Z" style="fill: #fff; stroke-width: 0px;"/>
      <path d="m71.97,72.56c-3.71,5.8-8.71,9.28-15.34,11.02-5.14,1.35-10.15,3.02-15.55,2.59-1.73-.14-3.22.68-4.63,1-2.2-.21-3.99-1.23-6.07-1.02-6.1.61-11.76-1.54-17.45-3.19-3.18-.92-5.91-2.95-8.54-4.97-4.01-3.08-5.06-7.15-4.01-11.98,5.33-7.98,13.76-10.64,22.65-12.6,6.74-1.49,13.61-1.47,20.32-.8,7.67.77,15.38,2.27,21.98,6.85,1.94,1.34,3.53,3.03,5.05,4.76,2.03,2.32,1.89,5.16,1.59,8.35Z" style="fill: #fff; stroke-width: 0px;"/>
      <path d="m490.16,69.09v-19.26c-.67-1.72-1.62-2.38-2.61-3.18-1.92-.24-3.87-.32-6.23.15v21.66c-3.06,1.46-5.81.71-9.05.68-.48-7.49.1-14.85-.33-22.32-2.6-.56-4.85-.42-7.61-.09-.55,7.37.11,14.73-.37,22.2-2.91.69-5.52.22-8.03.35-1.02-3.73-1.21-23.61-.31-29.48,6.36-.57,12.81-.33,19.24-.21,6.41.12,12.96-1.15,19.42,1.48,1.06,1.05,2.23,2.22,3.17,3.17,1.91,5.58,2.32,13.32,1.35,24.49-2.63,1.11-5.36.51-8.65.36Z" style="fill: #fff; stroke-width: 0px;"/>
      <path d="m617.93,70.04c-3.09.35-5.56.33-8.28.06-1.14-3.87-.42-7.81-.54-11.69-.12-3.76-.03-7.53-.03-11.39-2.64-.83-4.92-.47-7.42-.35-1.09,3.92-.41,7.86-.53,11.74-.12,3.76-.03,7.52-.03,11.47-3.02.63-5.62.44-8.19.23-1.03-3.42-1.28-22.77-.4-28.99.95-.92,2.18-.58,3.3-.59,9.65-.03,19.32.29,28.96-.12,6.47-.28,10.75,5.09,11.15,9.83.51,6.05.03,12.19-.05,18.29,0,.28-.31.56-.64,1.11-2.3,1.25-4.9.57-7.94.46-.53-6.69,0-13.25-.3-19.74-1.79-3.34-4.89-3.59-8.67-3.76-.59,7.77.08,15.47-.4,23.46Z" style="fill: #fff; stroke-width: 0px;"/>
      <path d="m364.03,69.07h-9.51c-3.19-2.97-5.25-6.96-8.23-10.55-2.45-.22-5.04-.32-8.07.17v9.95c-3.12,1.08-5.84.63-8.86.43v-28.78c.89-1.08,2.13-.76,3.25-.77,6.16-.03,12.34.27,18.47-.1,5.24-.32,9.03,1.46,11.78,5.75,1.15,5.87-.23,10.5-6.96,12.73,2.76,3.8,5.31,7.3,8.12,11.17Zm-26.03-23.54c.31,2.69-.26,4.65.71,6.88,3.51,0,6.98.11,10.44-.04,2.29-.1,4.16-1.06,4.51-3.63-1.88-2.58-2.31-3.11-4.1-3.18-3.62-.13-7.25-.04-11.55-.04Z" style="fill: #fff; stroke-width: 0px;"/>
      <path d="m417.43,64.86c-.4-1.23-.9-2.78-1.27-3.94-.09-2.01.86-3.24,1.46-4.57,1.52-3.37,4.13-4.98,7.87-4.93,3.99.05,7.98.03,11.98,0,1.12-.01,2.34.33,3.3-.62-1.48-4.21-2.56-5.17-6.53-5.26-4.8-.1-9.6-.02-14.42-.02-1.02-1.98-.77-3.68-.39-5.71,6.76-.55,13.41-.58,19.96-.09,4.98.37,11.45,5.92,10.87,12.18-.51,5.51-.48,11.12.77,16.39-1.09,1.31-2.33,1.02-3.45,1.02-6.82.02-13.64-.13-20.46.07-3.98.12-7.19-.93-9.68-4.51Zm23.32-1.67c.36-2.24.81-3.98-.44-5.68h-12.53c-.54,1.01-1.43,1.78-1.46,3.07.49,1.27,1.45,2.1,2.58,2.61h11.85Z" style="fill: #fff; stroke-width: 0px;"/>
      <path d="m217,63.54c-.79,1.13-1.54,2.2-2.27,3.25-2.64,2.06-5.59,2.63-8.89,2.55-6.97-.16-13.96-.05-20.77-.05-1.61-1.86-.73-3.63-.89-5.73h19.44c2.04-1.1,3.2-1.98,3.44-3.62-.28-2.16-1.77-2.58-3.6-2.57-2.83.01-5.66-.04-8.49.01-3.01.06-5.98.01-9.2-1.82-2.96-2.32-4.75-5.64-3.17-10,1.5-4.13,4.85-6.02,10.33-6.03,7.14-.01,14.28,0,21.42,0,1.11,1.94.8,3.65.44,5.76h-19.12c-1.92.88-2.73,1.67-3.28,2.67-.37,1.4.87,2.06,1.12,3.47,4.49,0,8.81.29,13.08-.06,7.17-.6,11.4,3.31,10.51,10.72-.04.33-.05.66-.11,1.45Z" style="fill: #fff; stroke-width: 0px;"/>
      <path d="m569.58,39.53c3.76-.43,7.45.85,11.03,2.73,7.81,4.09,10.33,15.25,3.67,22.36-5.23,5.59-11.73,7.53-19.31,5.79-3.03-.69-6.07-1.1-8.77-2.99-5.45-3.82-7.8-11.85-5.17-17.94,2.79-6.45,7.9-9.37,14.67-9.93,1.16-.1,2.33-.01,3.86-.01Zm6.67,23.09c4.68-8.06,3.78-12.66-3.44-17.14-1.99,0-4.16-.12-6.3.02-4.18.27-7.12,3.12-7.34,7.25-.13,2.44-.35,4.92.24,7.22,1.42,1.62,2.69,3.15,4.63,4.28,4.03-.25,8.45,1.25,12.21-1.64Z" style="fill: #fff; stroke-width: 0px;"/>
      <path d="m323.84,45.35h-15.57c-2.15,1.5-3.91,2.93-5.25,5.4,3.6,1.29,7.05.51,10.4.64,3.31.14,6.63.03,9.94.03,1.09,1.94.8,3.65.38,5.96h-20.23c-.23,2.03.68,3.04,1.47,4.31,5.78,3.04,12.3.82,18.59,1.92.81,1.72.6,3.42.21,5.44-6.62.44-13.26,1.15-19.48-.08-8.43-1.68-12.13-9.09-11.02-16.38,1.39-9.19,7.41-14,16.86-14.02,4.46-.01,8.92,0,13.51,0,.67,2.33.54,4.24.19,6.78Z" style="fill: #fff; stroke-width: 0px;"/>
      <path d="m252.61,69.14h-25.7c-1.91-1.03-3.26-2.74-4.74-4.28-1.16-1.2-2.01-2.68-2.02-4.4-.05-6.74-.02-13.47-.02-20.36,3-.96,5.72-.57,8.81-.33v19.51c4.01,5.76,9.47,3.62,14.59,3.99,1.05-4.07.42-8.01.53-11.89.11-3.75.02-7.51.02-11.39,3.02-.84,5.63-.28,8.14-.47,1.05,3.59,1.3,22.78.39,29.61Z" style="fill: #fff; stroke-width: 0px;"/>
      <path d="m291.27,49.41c-.62,1.88-1.13,3.43-1.69,5.1-1.11,1.11-2.28,2.29-3.15,3.16-6.56,3.09-13.21.88-19.75,2.01-1.25,2.87.1,6.12-.98,9.31-2.61.49-5.16.41-7.55,0-1.21-3.69-1.51-21.88-.6-28.82.93-.96,2.16-.63,3.28-.63,6.66-.03,13.31-.04,19.97,0,5.58.03,7.56,1.5,9.41,6.88.32.93.65,1.85,1.06,3.01Zm-11.72-3.62h-12.21c-.24,2.67-.67,5.03.37,7.43h10.75c1.88-1.19,2.9-2.6,3.19-4.45-.49-1.1-.81-2.24-2.1-2.98Z" style="fill: #fff; stroke-width: 0px;"/>
      <path d="m392.98,57.42c-1.51,4.15-.36,7.67-1.12,11.24-2.58,1.25-5.33.5-8.33.46-.86-5.21-.18-10.29-.42-15.33-.1-2.01.28-3.89.96-5.78,1.89-5.26,5.98-8.38,11.55-8.46,5.95-.08,11.9-.02,17.68-.02,1.24,1.9.8,3.53.64,5.06-.91,1.17-2.15.86-3.27.87-3.66.04-7.32-.09-10.97.05-3.9.14-5.71,1.77-6.38,5.84h20.2c.81,2.11.66,3.7.29,5.55-3.34,1.03-6.82.37-10.23.48-3.46.11-6.93.03-10.6.03Z" style="fill: #fff; stroke-width: 0px;"/>
      <path d="m522.12,43.26c3.54-3.09,7.77-3.97,12.43-3.75,4.29.2,8.6.04,12.99.04.86,2.25.58,4.18.36,6.66-5.56.62-11.19,0-16.72.35-5.66,4.35-5.87,11.42-.07,16.9h15.72q1.16,2.66.64,5.8c-6.54,0-13.18.26-19.78-.09-4.35-.23-9.35-6.3-9.59-10.72-.04-.82.05-1.66-.03-2.48-.45-4.8.35-9.2,4.05-12.7Z" style="fill: #fff; stroke-width: 0px;"/>
      <path d="m355.54,97.06c-.55-2.28-.58-3.73-.12-5.45,3.28-1.07,6.78-.37,10.2-.49,3.29-.12,6.59-.03,10.09-.03.62-2.99.44-5.57.17-8.66-6.75-.59-13.53.08-20.03-.37-1.03-1.57-.77-2.84-.46-4.08,1.1-1.08,19.08-1.25,25.14-.28.88,4.81.79,14.88-.32,19.04-8.05.64-16.27.13-24.67.31Z" style="fill: #fff; stroke-width: 0px;"/>
      <path d="m183.53,82c-.6-2.03-.53-3.48-.21-4.94,3.28-1,13.42-1.23,20.39-.42.92,3.98.56,7.96-.72,11.94,1.32,2.7,3.04,5.05,5.34,7.32-1.84,1.68-3.66.91-5.29,1.06-1.05-1.21-2.01-2.31-3.2-3.67-5.29,2.95-10.84,4.76-17.14,3.37-1.15-1.56-.44-3.29-.43-5.59,2.9,0,5.52.2,8.11-.04,4.38-.41,7.94-2.24,9.54-6.66.15-.43.02-.96.02-1.95-5.41-.61-10.85.08-16.4-.43Z" style="fill: #fff; stroke-width: 0px;"/>
      <path d="m514.11,69.05c-3.62.35-6.43.36-9.19.08-1.01-3.47-1.21-23.35-.28-29.36,2.83-.23,5.72-.61,9.13.51.69,9.45.16,18.92.34,28.76Z" style="fill: #fff; stroke-width: 0px;"/>
      <path d="m280.03,96.58c-1.24-1.95-.88-3.38-.66-5.35,3.68-.05,7.27-.03,10.86-.16,5.05-.18,7.54-2.94,7.55-8.76h-18.72c-1.3-1.75-.95-3.04-.74-4.31,3.35-1,16.1-1.24,23.37-.41.89,3.79.26,7.71.4,11.63-1.42,1.62-2.09,3.76-3.84,5.12-5.82,2.9-11.91,3.37-18.23,2.24Z" style="fill: #fff; stroke-width: 0px;"/>
      <path d="m305.79,96.29c-.87-1.71-.96-3.09.16-4.44,1.91-1.42,4.24-.26,6.48-1.03.38-.68.84-1.52,1.26-2.29,2.53-1.25,5.73.8,8.59-2.25h-17.12c-1.42-1.73-1.16-3.11-.53-4.8h20.9c1.11,2.19.34,4.51.54,6.66-2.02,3.73-5.45,4.13-8.95,4.06-4.24,5.04-5.5,5.51-11.32,4.11Z" style="fill: #fff; stroke-width: 0px;"/>
      <path d="m384.03,96.86c-1.09-2.34-1.09-3.76-.26-5.74,4.42-.01,9.03.08,13.64-.06,4.55-.14,7.38-2.99,7.66-7.45.07-1.15-.01-2.31.03-3.47.03-.8-.14-1.66.46-2.34.3-.17.57-.42.86-.45.64-.07,1.3-.02,2.14-.02,1.09,3.66,1.01,7.37.3,10.8-.77,3.73-2.93,6.87-7.24,8.02-5.91,1.58-11.76.75-17.58.72Z" style="fill: #fff; stroke-width: 0px;"/>
      <path d="m327.5,80.61c-.61-1.67-.56-3.15,1.47-4.29,7.66,1.77,15.87.97,23.67,3.17.18.67.39,1.13.41,1.59.02.8-.08,1.61-.13,2.36-2.56.5-17.87-1.24-25.42-2.83Z" style="fill: #fff; stroke-width: 0px;"/>
      <path d="m251.87,95.57c-8.22,1.18-11.57-1.42-12.63-9.95-.34-2.72-.48-5.56.23-8.08,1.32-1.58,2.7-1.37,4.24-.96,1.28,4.2-.98,8.8,2.14,12.66,1.46,1.48,3.61,1.79,5.6,2.12,1.01,1.34.64,2.64.42,4.22Z" style="fill: #fff; stroke-width: 0px;"/>
      <path d="m328.43,86.68c-.43-1.39-.5-2.5-.07-3.76,8.15.05,16.12,1.85,24.08,2.49.95,1.45.7,2.72.38,3.96-1.47,1.42-17.49-.32-24.39-2.69Z" style="fill: #fff; stroke-width: 0px;"/>
      <path d="m225.35,95.61c-.09-.82-.23-1.46-.22-2.09,0-.63.16-1.25.29-2.14,2.03-.22,3.95-.65,5.58-1.79,3.49-3.34,1.4-7.81,2.37-11.67,1.35-1.08,2.74-.83,4.47-.2.52,5.32.85,10.62-2.51,15.6-2.83,1.69-5.74,3.62-9.97,2.29Z" style="fill: #fff; stroke-width: 0px;"/>
      <path d="m352.87,92.41c.2,1.81.6,3.13-.58,4.52-7.75-1.49-15.83-1.47-23.7-3.22-.65-1.52-.83-2.89.27-4.48,7.78,1.66,15.95,1.01,24.01,3.19Z" style="fill: #fff; stroke-width: 0px;"/>
      <path d="m252.41,88.66q-.18-3.08,1.29-5.38c5.39,1.09,10.92,1.45,16.35-.04q1.91,1.96,1.78,5.09c-3.32.98-13.05,1.17-19.42.33Z" style="fill: #fff; stroke-width: 0px;"/>
      <path d="m206.39,84.38h18.95c1.09,1.36.71,2.66.53,3.92-1.14,1.11-12.34,1.33-19.2.4-.92-1.15-.52-2.46-.28-4.32Z" style="fill: #fff; stroke-width: 0px;"/>
      <path d="m398.46,77.2c.78,1.91.84,3.16.06,4.73-4.77.59-9.7.14-14.37.26-1.51-1.56-.88-2.98-.79-4.66,5.13-.63,10.05-.18,15.1-.32Z" style="fill: #fff; stroke-width: 0px;"/>
      <path d="m247.34,76.63c1.31-.47,2.28-.48,3.28-.07,1.39.79,1.78,2.24,2.34,3.71-.76,1.68-2.08,2.84-3.58,3.69-2.2-.26-3.37-1.52-4.06-3.49.16-1.38.76-2.69,2.02-3.84Z" style="fill: #fff; stroke-width: 0px;"/>
    </g>
  </g>
</svg>