<?xml version="1.0" encoding="UTF-8"?>
<svg id="Calque_2" data-name="Calque 2" xmlns="http://www.w3.org/2000/svg" viewBox="0 0 635.13 160.56">
  <g id="Calque_1-2" data-name="Calque 1">
    <g>
      <path d="m447.69,108.03c-3.43-9.51-6.78-19.01-10.28-28.44-3.66-9.86-10.7-13.6-20.38-10.43v38.78h-49.87c-2.57-6.69-5.21-13.57-7.97-20.75h-39.45c-2.78,6.93-5.54,13.78-8.41,20.94h-80.03V8.98c7.53-1.17,14.82-.95,23.11-.12v81.18h39.68c5.87-15.04,11.81-30.28,17.76-45.51,4.04-10.34,8.18-20.64,12.06-31.04,1.43-3.83,3.75-5.41,7.86-5.29,7.1.22,14.22.06,21.82.06,12.94,32.6,25.68,64.67,38.41,96.74.43-.06.86-.11,1.29-.17V8.49c13.19,0,25.58-.29,37.95.12,6.25.21,12.59.4,18.72,2.48,11.49,3.89,17.6,11.29,18.24,22.82.59,10.71-5.11,19.44-15.73,24.09-.58.26-1.12.63-1.67.95,11.94,14.21,14.94,32.13,22.64,49.07h-25.74Zm-30.65-80.75c-.77,7.58-.84,15.02,0,22.23,8.08,2.88,20.66.69,24.22-4.18,3.27-4.49,2.96-9.39.12-13.93-3.06-4.89-15.1-6.95-24.35-4.12Zm-64.18,41.22c-4.41-13.15-8.44-25.18-13.14-39.21-4.84,14.09-8.98,26.12-13.36,38.86,9.02,1.19,16.98.76,26.49.34Z" style="fill: #fff; stroke-width: 0px;"/>
      <path d="m135.9,107.87c10.8-10.47,21.33-20.67,31.56-30.59-2.33-7.09-.99-11.7,4.11-15.13,5.67,2.91,6.41,6.63,2.59,11.37,1.75,3.88,5.07,6.03,8.5,9.2,5.89-12.33,3.14-21.91-7.66-29.78,5.29-5.33,8.15-11.65,16.19-12.38,4.73-.43,7.8-3.8,7.43-8.96-.33-4.52-3.03-7.49-7.53-7.95-4.8-.5-8.62,2.12-8.94,6.74-.58,8.28-7.46,11.11-11.7,16.12-21.46-10.84-22.84-11.17-30.22-7.22,1.39,3.41,3.64,5.84,8.27,8.86,4.58-3.91,8.5-3.35,11.54,2.27-3.05,5.5-7.85,6.13-14.53,4.69-7.45,7.65-15.25,15.76-23.17,23.75-8.88,8.96-17.92,17.76-26.78,26.73-4.31,4.37-7.27,3.45-9.88-1.74-13.64-27.12-9.02-59.22,11.86-81.74C116.55,1.61,149.72-5.75,175.72,4.77c28.81,11.65,46.98,38.91,45.91,69.25-.37,10.54-3.05,20.61-7.81,30.07-1.24,2.46-2.75,4.49-5.96,4.49-23.29-.04-46.58-.03-69.86-.06-.59,0-1.18-.36-2.08-.65Z" style="fill: #fff; stroke-width: 0px;"/>
      <path d="m473.7,9.13c7.82-1.5,15-.81,21.65-.56,2.4,2.51,1.86,4.94,1.87,7.19.05,18.37-.14,36.74.12,55.11.2,14.35,7.29,21.24,20.67,20.85,8.85-.26,14.48-5.1,16.07-15.23,2.56-16.26.64-32.7,1.1-49.06.17-5.91.03-11.83.03-18.19,8.08-1.6,15.38-1.08,22.24-.56,2.23,2.53,1.69,4.94,1.7,7.19.04,17.54-.14,35.09.06,52.63.38,33.06-20.76,43.9-47.69,41.56-28.28-2.46-38.25-14.41-38.26-42.81,0-17.05-.01-34.09.02-51.14,0-2.12.25-4.23.42-6.99Z" style="fill: #fff; stroke-width: 0px;"/>
      <path d="m65.8,11.2c-.52,5.96-1.01,11.56-1.54,17.55-5.75-1.21-10.54-2.36-15.39-3.2-5.12-.88-10.27-.87-15.32.65-4.16,1.25-6.92,3.79-7.52,8.3-.61,4.62,1.58,7.84,5.55,9.56,5.94,2.57,12.07,4.68,18.13,6.96,17.53,6.59,24.14,17.54,21.25,34.89-1.36,8.16-5.99,14.13-12.89,17.96-17.95,9.97-36.47,7.09-55.84,1.91.66-6.63,1.27-12.75,1.96-19.68,7.7,2.87,14.7,5.2,22.14,6.03,4.63.52,8.93-.02,13.21-1.53,3.85-1.36,6.83-3.73,7.23-8.02.42-4.55-1.63-8.24-5.72-10.18-5.69-2.7-11.6-4.95-17.45-7.3C6.78,58.33-1.33,47.79.18,34.56,1.81,20.35,12.43,10.41,30.06,7.8c11.86-1.75,23.78-1.36,35.74,3.39Z" style="fill: #fff; stroke-width: 0px;"/>
      <path d="m566.05,105.87c-.21-6.83.45-12.97,1.88-19.85,7.58,3.16,14.9,5.77,22.76,6.07.83.03,1.67.37,2.47.29,6.81-.69,14.52-.79,16.53-9.05,2.01-8.27-4.72-11.08-10.84-13.68-6.57-2.8-13.37-5.13-19.72-8.34-17.48-8.83-20.33-31.69-5.83-44.91,11.19-10.2,42.08-12.96,55.29-4.69,1.09,5.53-.87,11-.98,17.18-8.18-1.76-15.29-4.42-22.84-3.8-2.79.23-5.63.61-8.29,1.43-4.05,1.25-7.03,3.72-7.31,8.4-.28,4.65,2.22,7.6,6.16,9.28,5.81,2.47,11.76,4.59,17.66,6.84,18.09,6.92,25.37,19.93,20.84,36.83-1.83,6.82-5.89,12.07-11.72,15.49-18.15,10.63-36.99,7.47-56.05,2.49Z" style="fill: #fff; stroke-width: 0px;"/>
      <path d="m378.58,158.78v-24.19c-.39-.08-.77-.17-1.16-.25-2.94,8.08-5.88,16.16-8.65,23.77-2.89,1.43-5.13,1.16-8.29.34-2.55-7.44-5.21-15.21-7.87-22.99-.41.01-.82.02-1.22.03v22.9c-3.12,2.16-5.32,1.81-8.34.77-1.09-11.8-.59-23.71-.26-35.64,4.59-1.77,8.64-1.22,13.63-.51,2.56,7.46,5.21,15.16,8.42,24.49,3.19-9.29,5.8-16.89,8.31-24.23,4.82-1.25,8.88-1.17,13.69-.14.92,11.93.68,23.85.16,35.45-2.91,1.9-5.22,1.9-8.42.2Z" style="fill: #fff; stroke-width: 0px;"/>
      <path d="m578.07,136.83v21.3c-2.85,2.44-5.16,2.27-8.19.83v-35.55c6.64-1.98,11.63-1.89,14.52,5.36,2.31,5.8,5.54,11.23,9.69,16.71v-21.49c3.13-1.96,5.34-1.8,8.39-.62,1.03,11.64.57,23.54.2,36.32-18.39,2.43-14.87-16.41-24.61-22.86Z" style="fill: #fff; stroke-width: 0px;"/>
      <path d="m52.71,136.05v22.66c-2.75,1.84-4.94,1.61-7.9.38v-36.17c18.99-3.26,14.65,16.27,24.15,22.37v-21.18c3.05-2.18,5.36-1.97,8.29-.45v36.15c-18.18,1.88-14.9-16.91-24.53-23.76Z" style="fill: #fff; stroke-width: 0px;"/>
      <path d="m483.99,123.2c4.05,7.67,7.97,15.11,13.15,24.95v-24.01c2.92-2.13,4.96-1.78,7.61-.89v36.48c-17.91,2.34-13.51-16.78-23.4-21.97v20.33c-3.18,2.48-5.48,2.33-8.42.77v-35.49c3.84-1.43,7.21-1.25,11.06-.17Z" style="fill: #fff; stroke-width: 0px;"/>
      <path d="m237.99,124.02c.68,2.21.18,3.86-1.1,5.78-8.2-1.41-16.85-3.15-21.66,6.34-2.39,4.71-1.49,9.53,2.25,13.29,3.31,3.32,7.37,4.97,12.06,2.87,1.52-2.35,1.17-4.54.55-6.91-1.88-.61-3.58-1.15-5.19-1.67-1.33-1.77-1.28-3.43.18-5.58h13.69c1.57,6.48.86,12.8.52,18.87-7.61,5.51-23.25,4.07-29.49-2.43-5.97-6.22-6.83-18.24-1.79-24.84,6.12-8,20.97-10.89,29.96-5.71Z" style="fill: #fff; stroke-width: 0px;"/>
      <path d="m295.1,157.42c-10.14,5.27-24.85,3.13-30.56-4.03-5.31-6.65-5.28-18.36.06-24.49,6.65-7.62,20.66-10,29.16-4.9.73,1.81.21,3.5-.72,5.29-2.79,1.1-5.44-.62-8.19-.62-5.58,0-10.68,1.31-13.51,6.63-2.71,5.08-1.94,10.01,2.01,14.18,3.34,3.52,7.43,4.7,12.02,2.89,1.5-2.39,1.46-4.55.16-6.98-1.55-.56-3.23-1.16-4.82-1.74-1.24-1.83-1.21-3.49.3-5.51h13.69c1.41,6.58.92,12.9.39,19.28Z" style="fill: #fff; stroke-width: 0px;"/>
      <path d="m531.67,138.11h13.7c1.38,6.64.91,12.96.4,19.05-8.59,5.72-22.67,3.95-29.73-3.45-5.88-6.16-6.37-17.21-1.07-24.34,5.58-7.51,19.59-10.28,29.23-5.7,1.17,1.97,1.27,3.92-.62,6.13-8.01-1.29-16.7-3.46-21.8,5.93-2.45,4.51-1.59,9.18,1.64,13.01,3.2,3.79,7.39,5.47,12.4,3.77,1.8-2.35,1.69-4.67.5-7.29-1.64-.5-3.34-1.02-4.88-1.49-1.34-1.92-1.28-3.58.23-5.63Z" style="fill: #fff; stroke-width: 0px;"/>
      <path d="m140.23,122.87c7.32-.68,13.76-.95,20.15.09,3.87.64,6.7,3.07,7.64,6.98,1.19,4.99-1.37,8.54-5.42,11.23,2.94,5.84,5.56,11.46,7.05,17.39-2.87,2.23-5.42,1.64-7.79,1.01-5.02-4.08-2.34-13.79-11.34-14.88-3.16,4.58-.27,9.77-2.33,14.24-2.21,1.68-4.55,1.41-7.73.04-1.08-11.61-.58-23.5-.23-36.11Zm9.79,14.01c2.86.68,5.61,1.16,7.76-1.37,1.21-1.42,1.14-3.18-.18-4.46-2.28-2.22-4.95-2.09-7.65-.86-1.27,2.11-1.22,4.11.07,6.7Z" style="fill: #fff; stroke-width: 0px;"/>
      <path d="m15.09,123.17c4.12-1.02,7.21-1.06,11.22.1,4.52,11.4,9.22,23.27,13.88,35.02-3.27,2.57-5.97,1.9-9.07,1.12-1.14-2.34-2.36-4.82-3.66-7.48-4.67-1-9.21-.68-14.02-.13-2.11,5.58-4.6,10.56-12.47,7.32,4.72-12.03,9.44-24.05,14.12-35.96Zm5.63,8.52c-2.25,4.42-3.7,7.81-3.9,12.02,2.53.79,4.82,1.18,7.34-.26-.05-3.89-1.62-7.25-3.44-11.76Z" style="fill: #fff; stroke-width: 0px;"/>
      <path d="m105.75,159.41c-2.82.82-5.22,1.22-8.39-.7,4.57-11.81,9.17-23.71,13.63-35.23,3.92-1.55,7.14-1.28,11.37-.25,4.53,11.45,9.24,23.34,13.95,35.25-3.14,2.46-5.96,1.74-9.09.86-1.09-2.29-2.22-4.64-3.45-7.23-4.53-1.25-9.05-.97-13.91-.19-1.35,2.45-2.68,4.88-4.11,7.48Zm14.48-16.04c-.13-3.91-1.26-7.42-3.97-11.49-1.5,4.36-2.7,7.84-4.02,11.7,3.08.96,5.39,1.24,7.99-.21Z" style="fill: #fff; stroke-width: 0px;"/>
      <path d="m307.75,159.27c-2.82.99-5.04,1.27-8.31-.6,4.52-11.73,9.09-23.6,13.49-35.02,3.91-1.86,7.17-1.2,11.2-.87,4.71,11.82,9.45,23.72,14.28,35.83-8.09,4.31-10.62-1.15-12.85-6.54-4.76-1.09-9.16-.98-13.91-.11-1.28,2.4-2.58,4.84-3.9,7.31Zm10.52-27.95c-1.14,5.19-3.95,8.48-3.34,12.99,2.85-.1,5.14.69,7.49-.8-.26-3.93-1.62-7.47-4.16-12.19Z" style="fill: #fff; stroke-width: 0px;"/>
      <path d="m610.54,159.71v-36.7c7.9-1.06,15.53-.75,22.67-.25,1.76,2.06,1.81,3.59.77,5.48-4.16,2.56-9.36-.15-13.75,1.85-1.47,2.09-1.42,4.08-.02,6.7,3.75.31,7.8.64,11.5.94,1.63,2.05,1.65,3.71.46,5.66-3.78,1.85-8.59-1.71-12.38,1.95-.96,1.87-1.01,3.9.49,6.59,4.32.3,9,.62,13.23.91,1.72,2.47,1.69,4.3.04,6.86-7.22.77-14.87.65-23.02,0Z" style="fill: #fff; stroke-width: 0px;"/>
      <path d="m417.83,122.85c1.48,2.32,1.56,3.85.27,5.58-4.13,2.11-9.07-.16-13.4,1.57-1.68,2.01-1.3,4.04-.71,6.08,3.95,2.46,8.46.07,12.28,1.96,1.46,1.57,1.4,3.25.39,5.22-3.76,2.06-8.14-1.26-12.2,1.09-1.56,2.06-1.21,4.4-.25,6.94,4.35,2.54,9.58-.28,13.92,2,1.49,1.88,1.38,3.72-.09,6.31-7.25.99-14.9.63-23.11.15v-36.76c7.99-.97,15.5-.85,22.9-.15Z" style="fill: #fff; stroke-width: 0px;"/>
      <path d="m463.36,138.18c1.22,1.63,1.12,3.16.07,4.96-3.65,2.24-8.09-1.19-12.17,1.3-1.51,2.02-.88,4.37-.39,6.72,4.63,2.65,9.85-.15,14.18,2.13,1.48,1.9,1.39,3.74-.11,6.33-7.24.96-14.88.62-23.08.13v-36.74c7.95-1.03,15.46-.82,22.6-.22,1.86,1.96,1.92,3.61.69,5.56-4.17,2.25-9.11-.12-13.5,1.66-1.68,1.86-1.49,3.88-.59,6.11,3.76,2.6,8.55-.22,12.31,2.04Z" style="fill: #fff; stroke-width: 0px;"/>
      <path d="m184.15,147.11c-.32,4.14-.6,7.88-.87,11.34-2.54,2.15-4.9,1.9-7.97.75v-36.08c7.05-.97,13.95-1.86,20.57,1.11,4.44,1.99,6.01,6.03,5.71,10.69-.32,4.95-2.94,8.45-7.66,10.01-2.96.98-6.1,1.39-9.78,2.19Zm.51-8.49c3.38,1.02,5.6,0,7.11-2.59.91-1.57.82-3.27-.42-4.62-1.89-2.06-4.15-2.55-6.79-1.06-1.18,2.68-1.2,5.35.1,8.27Z" style="fill: #fff; stroke-width: 0px;"/>
      <path d="m561.11,122.93c1.37,4.64,1.5,31.06.34,36.02-2.19,1.69-4.53,1.36-7.6.07v-35.4c2.35-1.79,4.72-1.18,7.26-.69Z" style="fill: #fff; stroke-width: 0px;"/>
    </g>
  </g>
</svg>