<?xml version="1.0" encoding="utf-8"?>
<!-- Generator: Adobe Illustrator 27.8.0, SVG Export Plug-In . SVG Version: 6.00 Build 0)  -->
<svg version="1.1" id="Calque_1" xmlns="http://www.w3.org/2000/svg" xmlns:xlink="http://www.w3.org/1999/xlink" x="0px" y="0px"
	 viewBox="0 0 282.7 50.1" style="enable-background:new 0 0 282.7 50.1;" xml:space="preserve">
<style type="text/css">
	.st0{fill:#C23334;}
	.st1{font-family:'ArialMT';}
	.st2{font-size:1px;}
	.st3{fill:#FFFFFF;}
</style>
<text transform="matrix(1 0 0 1 251.129 34.972)" class="st0 st1 st2">I don’t like bugs!</text>
<path class="st3" d="M251.4,46.2H32l3.2,3.9l212.6,0L251.4,46.2z"/>
<path class="st3" d="M256.5,40l-114.8,0L26.9,40l3.7,4.5l111,0l111.1,0L256.5,40C256.5,40,256.5,40,256.5,40z"/>
<path class="st3" d="M261.6,34H21.8l3.7,4.5l116.1,0l116.2,0L261.6,34L261.6,34z"/>
<g>
	<path class="st3" d="M35.7,22.2c0,0-3.3-5.6-3.3-5.5c-2.6-3.9-5.3-5.6-9.8-5.6H11.9l-3.7-5h17.2l-3-5.6c0,0-12.5-0.2-18.4,0
		c-3.5,0-4.7,3.4-3.6,5.5c0,0,5.2,7.2,5.2,7.2c2.3,2.5,3.9,3.2,9.3,3.4l10.3,0l3.6,5.6H12.1l5.6,6.7c0,0,14.5,0,14.5-0.1
		C36.5,28.9,36.6,23.8,35.7,22.2C35.7,22.2,35.7,22.2,35.7,22.2z M26.3,0.5l16.2,28.4H49l-6.5-12.3c0,0,5.5,0.1,8.2-0.1
		c4.8,0.1,6.5-1.3,5.1-5.4l-2.2-5c-2.1-4.2-3-5.3-9.3-5.6L26.3,0.5L26.3,0.5z M37,6.1h9.3l2.2,5h-9.3C39.2,11.1,37,6.1,37,6.1z
		 M84.2,28.9l-2-6.6c0,0-7.8-0.1-11.8-0.1c-0.6-1.4-2.2-5.6-2.2-5.6h11.8l-1.5-5.5H66.2l-2.3-5h12.6L75,0.5l-13.8,0
		c-3.4,0-5.4,3.5-4.8,5.6l7,16.2c2.2,4.2,4.3,5.9,8.3,6.4C76.4,29.3,84.2,28.9,84.2,28.9z M93.3,0.5c0,0-5.4-0.1-9,0.1
		c-3.4,0.1-5.8,2.6-5.2,5.6c0,0,4.7,16.1,4.6,16c1.5,3.6,4.4,6.7,8.6,6.7l7.3,0l-1.2-6.7h-7.8L85.8,6.1h8.5L93.3,0.5z M95.8,6.1h5.4
		l4.6,22.8h5.5l-3.7-22.8h4.2l-0.7-5.6l-16.2,0C94.7,0.5,95.8,6.1,95.8,6.1z M132.6,16.7c2.5,0,5.5-2.9,5.5-5.3
		c-0.1-1.7-0.1-3.6-0.3-5.2c-0.6-3.6-4.4-5.5-7.2-5.6c-5.8,0.1-17.6,0-17.6,0l3.7,28.4h6.1l-2.4-22.8H131l0.1,5h-2.7
		c-3.8,0-4.1,2.8-2.5,5.5c2.9,4.4,9,12.4,9,12.4l7.5,0C142.4,29,136.8,22.2,132.6,16.7L132.6,16.7z"/>
	<path class="st3" d="M142.5,0l-1.2,28.9l6.2,0.1l0-6.7h8.6l-0.3,6.7l5.7,0c0,0,2.1-10.9,2.1-17.8c0.2-6.1-4.3-10.6-10.6-11.1
		C149.5,0,142.5,0,142.5,0L142.5,0z M156.8,11.1l0.1,5l-8.7-0.1L148,6.1C154.2,6.1,156.6,7.5,156.8,11.1L156.8,11.1z M174.7,28.4
		c3.5-0.8,5.8-3.6,8.1-8.6c6-12.7,9.1-19.3,9.1-19.3h-6.8l-9.4,19.9c-0.9,1.4-2.3,1.9-3.9,1.8c1.2-7.6,3.9-21.7,3.9-21.7H169
		c0,0-4.5,27-4.5,28.4C164.5,29,171.8,29.1,174.7,28.4L174.7,28.4z M201.6,0.5l-7.7,0L185.7,29l7.2,0L201.6,0.5L201.6,0.5z
		 M205.6,0.6l-9,28.4h15.1c4.5,0,9.8-6.8,9.8-6.8L229.3,6c1.8-4-1-5.5-5.4-5.4C217.6,0.5,205.6,0.6,205.6,0.6L205.6,0.6L205.6,0.6z
		 M221.3,6.1L215,22.2c0,0-5.9-0.1-8.9,0l5.1-16.1L221.3,6.1L221.3,6.1z M244.2,22.2h-12.3l2.7-5.6h13.3l2.7-5.6h-13.1l2.6-5l14,0
		l2.8-5.6c0,0-9.9-0.2-15.7,0.2c-4.6,0.4-7.7,2.9-8.8,5.5L225,22.3c-2.1,4.3,0.7,6.5,3.1,6.6c4.4,0.1,12.8,0.1,12.8,0.1L244.2,22.2
		L244.2,22.2z M267,0.7c-4.8,0.2-7.5,2.1-9.9,5.4c-3.2,4.3-10.1,16.3-10.1,16.3c-2.9,5.5,1.2,6.4,4.4,6.5c0.2,0.1,8,0.1,8.1,0
		c3.6-0.1,4.4-0.4,6.1-1.4c0.9-0.5,2.8-2.6,5.1-5.3l11.7-16.1c1.6-2.2-1.4-5.6-4.5-5.5C277.8,0.6,267.2,0.5,267,0.7L267,0.7z
		 M264.6,6.1h10.6l-11.4,16.1H254C254,22.2,264.6,6.1,264.6,6.1z"/>
</g>
<path class="st3" d="M271.4,23.8v0.7h1.4v3.8h0.8v-3.8h1.5v-0.7C275.1,23.8,271.4,23.8,271.4,23.8z M276.6,23.8l-0.4,4.5h0.8l0.4-3
	l1.1,3h0.6l1.1-2.9l0.4,2.9h0.8l-0.4-4.5h-1l-1.2,3.3l-1.2-3.3L276.6,23.8L276.6,23.8z"/>
</svg>
