<?xml version="1.0" encoding="utf-8"?>
<!-- Generator: Adobe Illustrator 27.8.0, SVG Export Plug-In . SVG Version: 6.00 Build 0)  -->
<svg version="1.1" id="Calque_1" xmlns="http://www.w3.org/2000/svg" xmlns:xlink="http://www.w3.org/1999/xlink" x="0px" y="0px"
	 viewBox="0 0 250.9 57.3" style="enable-background:new 0 0 250.9 57.3;" xml:space="preserve">
<style type="text/css">
	.st0{fill:#EAEAEA;}
	.st1{fill:#FFFFFF;}
</style>
<g>
	<path class="st0" d="M93.4,19.3v-1.8h3.3c2.8,0,3.4,0,3.6-0.1l0.4-0.1c0.1,0,0.5-0.2,0.8-0.3c0.8-0.4,2.5-2.1,2.5-2.5l0.2-0.8
		c0.1-0.3,0.2-0.7,0.2-1l0-0.5l-5.1,0c-4.7,0-5.1,0-5.3-0.2C94,11.8,94,11.3,94,10.2c0-1.3,0-1.6,0.2-1.7c0.1-0.1,0.9-0.2,6.7-0.2
		c5.5,0,6.5,0,6.6,0.1c0.1,0.1,0.1,0.9,0.1,2.9c0,2.5-0.1,2.8-0.2,3.1l-0.2,0.4l-0.2,0.7l-0.2,0.7c0,0.1,0.4,0.6,0.8,1.1
		c1.5,1.6,2.1,2.4,2.1,2.5l0.1,0.2l0.4,0.3l0.1,0.5l-0.1,0.2h-3.3l-0.7-0.7c-0.4-0.4-0.8-0.9-0.8-1c-0.1-0.3-0.4-0.4-0.7-0.1
		l-0.3,0.2l-0.3,0.1l-1.6,0.8l-0.5,0.2l-0.7,0.3l-0.4,0.1c0,0-1.7,0.1-3.7,0.1h-3.6C93.4,21.2,93.4,19.3,93.4,19.3z"/>
	<path class="st0" d="M109.5,16.3c-0.4-0.1-0.4-0.2-0.3-2l0-1.5l5.9,0c4.2,0,5.9,0,6,0.1c0.1,0.1,0.1,0.5,0.1,1.6
		c0,1.3,0,1.5-0.2,1.6c-0.1,0.1-1.2,0.1-5.7,0.1C112.2,16.3,109.6,16.3,109.5,16.3z M191.2,16.3l-0.3-0.3l0-3.1
		c0.1-0.1,1.4-0.1,5.9-0.1c5.7,0,5.9,0,6,0.2l0,3.1c-0.1,0.2-0.3,0.2-5.8,0.2C194,16.3,191.3,16.3,191.2,16.3z M123,21
		c-0.1-0.3-0.1-3.6,0.1-3.7c0.1-0.1,1.1-0.1,4-0.1c3.2,0,3.9,0,4.2-0.1c0.2-0.1,0.6-0.2,1-0.4c0.9-0.3,1.5-0.7,2-1.3l0.3-0.5l0-1.5
		l0-1.5l-6.2,0l-6.2,0l-0.1-0.3c-0.1-0.1-0.1-0.8-0.1-1.5c0-1.1,0-1.3,0.2-1.5c0.2-0.2,0.3-0.2,7.6-0.2c6.6,0,7.5,0,7.6,0.2
		c0.1,0.1,0.2,0.6,0.2,3.5c0,3.2,0,3.4-0.2,4c-0.2,0.6-0.5,1.3-0.8,1.9c-0.2,0.4-1.8,2-2,2l-0.2,0.1c0,0.2-1,0.7-1.9,0.9l-0.5,0.2
		c-0.1,0.1-1.9,0.1-4.5,0.1C123.6,21.2,123.1,21.2,123,21L123,21z M139.6,21c-0.1-0.1-0.1-0.6-0.1-1.6l0-1.4l0.2-0.1
		c0.1,0,1-0.1,2-0.1l1.7,0l0.3-0.4c0.3-0.3,0.3-0.4,0.3-1c0-1-0.1-1,2.6-1c2.2,0,2.4,0,2.6-0.2l0.3-0.9c-0.1-0.2-0.3-0.2-5.3-0.2
		c-2.9,0-5.3,0-5.4-0.1v-2.8c0.1,0,3.1-0.1,6.6-0.1c4.9,0,6.5,0,6.6,0.1c0.2,0.2,0.2,4,0,4.6c-0.3,1-0.7,1.6-1.7,2.1l-0.6,0.3
		l-1.9,0l-1.9,0V19c0,0.9-0.4,1.5-1.2,2c-0.3,0.2-0.6,0.2-2.8,0.2C140.2,21.2,139.7,21.1,139.6,21L139.6,21z M169.3,12.8l-15.2-1.3
		l-0.5-0.5V8.7l0.5-0.4l15.2,1.3l0.5,0.5v2.2L169.3,12.8z M169.3,17l-15.2-1.3l-0.5-0.5v-2.2l0.5-0.4l15.2,1.3l0.5,0.5v2.2L169.3,17
		z M169.3,21.2l-15.2-1.3l-0.5-0.5v-2.2l0.5-0.4l15.2,1.3l0.5,0.5v2.2L169.3,21.2z M185.8,8.9h-11.5c0,0.3-0.2,1.1-0.8,1.9
		c-0.3,0.5-0.8,0.9-1.3,1.1v3.6c0.3,0,2.4-0.1,3.7-1.8c0.9-1.2,0.9-2.6,0.9-3h8.8c0,0.3,0,0.7,0,1.1c0,0.4,0,0.7,0,1
		c0,0.7-8.8,0.6-8.8,0.6l0,2.3c0,0,8.1-0.1,8.3,0.2c0.1,0.2-0.2,0.7-0.4,0.9c-0.8,0.8-1.1,0.7-1.7,0.9c-0.8,0.2-1.7,0.2-5.2,0.2
		c-3.8,0-4.4,0-4.5,0.2l0,3.4c0.1,0,2.3,0,5,0c5.5,0,5,0,6.6-0.8c0.6-0.3,0.9-0.5,1.6-1.2c0.8-0.8,1.1-1.5,1.4-2.2
		c0.2-0.6,0.2-0.5,0.2-4.2c0-3.3,0-4.1-0.1-4.1L185.8,8.9z M215,13.1h6.3c0.2,0,0.3-0.2,0.3-0.3v-2.4c0-0.2-0.2-0.3-0.3-0.3H215V8.3
		c0-0.2-0.2-0.4-0.4-0.4H211c-0.2,0-0.4,0.2-0.4,0.4V10h-6.1c-0.2,0-0.3,0.2-0.3,0.3v2.4c0,0.2,0.2,0.3,0.3,0.3h6.1v8.4
		c0,0.2,0.2,0.4,0.4,0.4h3.6c0.2,0,0.4-0.2,0.4-0.4V13.1z"/>
	<path class="st0" d="M206.1,14.1c0,0,2.8,0.1,2.8,0l-0.1,4c0,2-2.2,3.7-5.2,3.7c0,0-0.6-2.2-0.4-3.6c0,0,1.5,0.1,2.2-0.4
		C206.3,17,206.1,14.1,206.1,14.1z M219.8,14.1c0,0-2.8,0.1-2.8,0l0.1,4c0,2,2.2,3.7,5.2,3.7c0,0,0.6-2.2,0.4-3.6
		c0,0-1.5,0.1-2.2-0.4C219.5,17,219.8,14.1,219.8,14.1z M217.6,9.4h-0.8c-0.6,0-1-0.4-1-1c0-0.6,0.5-1,1-1h0.8c0.6,0,1,0.5,1,1
		C218.6,9,218.2,9.4,217.6,9.4z M221,9.4h-0.8c-0.6,0-1-0.4-1-1c0-0.6,0.5-1,1-1h0.8c0.6,0,1,0.5,1,1C222,9,221.5,9.4,221,9.4z"/>
</g>
<g>
	<path class="st1" d="M92.9,18.5v-1.8h3.3c2.8,0,3.4,0,3.6-0.1l0.4-0.1c0.1,0,0.5-0.2,0.8-0.3c0.8-0.4,2.5-2.1,2.5-2.5l0.2-0.8
		c0.1-0.3,0.2-0.7,0.2-1l0-0.5l-5.1,0c-4.7,0-5.1,0-5.3-0.2c-0.1-0.1-0.1-0.6-0.1-1.7c0-1.3,0-1.6,0.2-1.7c0.1-0.1,0.9-0.2,6.7-0.2
		c5.5,0,6.5,0,6.6,0.1c0.1,0.1,0.1,0.9,0.1,2.9c0,2.5-0.1,2.8-0.2,3.1l-0.2,0.4l-0.2,0.7l-0.2,0.7c0,0.1,0.4,0.6,0.8,1.1
		c1.5,1.6,2.1,2.4,2.1,2.5l0.1,0.2l0.4,0.3l0.1,0.5l-0.1,0.2h-3.3l-0.7-0.7c-0.4-0.4-0.8-0.9-0.8-1c-0.1-0.3-0.4-0.4-0.7-0.1
		l-0.3,0.2l-0.3,0.1l-1.6,0.8l-0.5,0.2l-0.7,0.3l-0.4,0.1c0,0-1.7,0.1-3.7,0.1h-3.6C92.9,20.4,92.9,18.5,92.9,18.5z"/>
	<path class="st1" d="M109,15.5c-0.4-0.1-0.4-0.2-0.3-2l0-1.5l5.9,0c4.2,0,5.9,0,6,0.1c0.1,0.1,0.1,0.5,0.1,1.6c0,1.3,0,1.5-0.2,1.6
		c-0.1,0.1-1.2,0.1-5.7,0.1C111.8,15.5,109.1,15.5,109,15.5z M190.7,15.5l-0.3-0.3l0-3.1c0.1-0.1,1.4-0.1,5.9-0.1c5.7,0,5.9,0,6,0.2
		l0,3.1c-0.1,0.2-0.3,0.2-5.8,0.2C193.5,15.5,190.8,15.5,190.7,15.5z M122.6,20.2c-0.1-0.3-0.1-3.6,0.1-3.7c0.1-0.1,1.1-0.1,4-0.1
		c3.2,0,3.9,0,4.2-0.1c0.2-0.1,0.6-0.2,1-0.4c0.9-0.3,1.5-0.7,2-1.3l0.3-0.5l0-1.5l0-1.5l-6.2,0l-6.2,0l-0.1-0.3
		c-0.1-0.1-0.1-0.8-0.1-1.5c0-1.1,0-1.3,0.2-1.5c0.2-0.2,0.3-0.2,7.6-0.2c6.6,0,7.5,0,7.6,0.2c0.1,0.1,0.2,0.6,0.2,3.5
		c0,3.2,0,3.4-0.2,4c-0.2,0.6-0.5,1.3-0.8,1.9c-0.2,0.4-1.8,2-2,2l-0.2,0.1c0,0.2-1,0.7-1.9,0.9l-0.5,0.2c-0.1,0.1-1.9,0.1-4.5,0.1
		C123.1,20.4,122.6,20.3,122.6,20.2L122.6,20.2z M139.1,20.2c-0.1-0.1-0.1-0.6-0.1-1.6l0-1.4l0.2-0.1c0.1,0,1-0.1,2-0.1l1.7,0
		l0.3-0.4c0.3-0.3,0.3-0.4,0.3-1c0-1-0.1-1,2.6-1c2.2,0,2.4,0,2.6-0.2l0.3-0.9c-0.1-0.2-0.3-0.2-5.3-0.2c-2.9,0-5.3,0-5.4-0.1v-2.8
		c0.1,0,3.1-0.1,6.6-0.1c4.9,0,6.5,0,6.6,0.1c0.2,0.2,0.2,4,0,4.6c-0.3,1-0.7,1.6-1.7,2.1l-0.6,0.3l-1.9,0l-1.9,0v0.5
		c0,0.9-0.4,1.5-1.2,2c-0.3,0.2-0.6,0.2-2.8,0.2C139.7,20.4,139.2,20.3,139.1,20.2L139.1,20.2z M168.8,12l-15.2-1.3l-0.5-0.5V7.9
		l0.5-0.4l15.2,1.3l0.5,0.5v2.2L168.8,12z M168.8,16.2l-15.2-1.3l-0.5-0.5v-2.2l0.5-0.4l15.2,1.3l0.5,0.5v2.2L168.8,16.2z
		 M168.8,20.4l-15.2-1.3l-0.5-0.5v-2.2l0.5-0.4l15.2,1.3l0.5,0.5v2.2L168.8,20.4z M185.3,8.1h-11.5c0,0.3-0.2,1.1-0.8,1.9
		c-0.3,0.5-0.8,0.9-1.3,1.1v3.6c0.3,0,2.4-0.1,3.7-1.8c0.9-1.2,0.9-2.6,0.9-3h8.8c0,0.3,0,0.7,0,1.1c0,0.4,0,0.7,0,1
		c0,0.7-8.8,0.6-8.8,0.6l0,2.3c0,0,8.1-0.1,8.3,0.2c0.1,0.2-0.2,0.7-0.4,0.9c-0.8,0.8-1.1,0.7-1.7,0.9c-0.8,0.2-1.7,0.2-5.2,0.2
		c-3.8,0-4.4,0-4.5,0.2l0,3.4c0.1,0,2.3,0,5,0c5.5,0,5,0,6.6-0.8c0.6-0.3,0.9-0.5,1.6-1.2c0.8-0.8,1.1-1.5,1.4-2.2
		c0.2-0.6,0.2-0.5,0.2-4.2c0-3.3,0-4.1-0.1-4.1L185.3,8.1z M214.5,12.3h6.3c0.2,0,0.3-0.2,0.3-0.3V9.6c0-0.2-0.2-0.3-0.3-0.3h-6.3
		V7.5c0-0.2-0.2-0.4-0.4-0.4h-3.6c-0.2,0-0.4,0.2-0.4,0.4v1.7H204c-0.2,0-0.3,0.2-0.3,0.3V12c0,0.2,0.2,0.3,0.3,0.3h6.1v8.4
		c0,0.2,0.2,0.4,0.4,0.4h3.6c0.2,0,0.4-0.2,0.4-0.4V12.3z"/>
	<path class="st1" d="M205.6,13.3c0,0,2.8,0.1,2.8,0l-0.1,4c0,2-2.2,3.7-5.2,3.7c0,0-0.6-2.2-0.4-3.6c0,0,1.5,0.1,2.2-0.4
		C205.8,16.2,205.6,13.3,205.6,13.3z M219.3,13.3c0,0-2.8,0.1-2.8,0l0.1,4c0,2,2.2,3.7,5.2,3.7c0,0,0.6-2.2,0.4-3.6
		c0,0-1.5,0.1-2.2-0.4C219.1,16.2,219.3,13.3,219.3,13.3z M217.1,8.6h-0.8c-0.6,0-1-0.4-1-1c0-0.6,0.5-1,1-1h0.8c0.6,0,1,0.5,1,1
		C218.1,8.2,217.7,8.6,217.1,8.6z M220.5,8.6h-0.8c-0.6,0-1-0.4-1-1c0-0.6,0.5-1,1-1h0.8c0.6,0,1,0.5,1,1
		C221.5,8.2,221,8.6,220.5,8.6z"/>
</g>
<g>
	<path class="st1" d="M98.4,40.6c-1.6,6.7-4.8,10.1-9.5,10.1c-4.5,0-6-3.2-4.4-9.7L88,26.3H91l-3.3,13.8c-1.1,4.7-0.3,7.1,2.4,7.1
		c2.6,0,4.4-2.3,5.5-6.8l3.4-14.1h2.9C101.8,26.3,98.4,40.6,98.4,40.6z M114.8,29.7h-6.6l-1.7,7.2h6.1l-0.8,3.4h-6.1l-2.4,10h-2.9
		l5.7-24h9.6C115.6,26.3,114.8,29.7,114.8,29.7z M126.5,50.3h-3.2l-0.1-6.1h-7l-3,6.1H110l12.4-24h3.3L126.5,50.3z M123.1,40.9
		l-0.2-9.6c0-0.3,0-0.8,0.1-1.5h-0.1c-0.2,0.5-0.4,1-0.6,1.5l-4.7,9.6C117.7,40.9,123.1,40.9,123.1,40.9z M148,50.3H145l3.7-15.5
		c0.4-1.6,0.8-3.1,1.3-4.7h0c-0.4,1-0.8,1.8-1,2.3l-9.6,17.9h-2l-1-17.8c0-0.5,0-1.3,0.1-2.4h0c-0.2,1-0.5,2.5-1,4.7l-3.7,15.5h-2.7
		l5.7-24h4.1l0.8,16c0.1,1.2,0.1,2.1,0,2.7h0.1c0.4-0.9,0.9-1.9,1.4-2.8l8.5-15.9h4L148,50.3L148,50.3z M155.3,50.3h-3l5.7-24h3
		L155.3,50.3z M184.8,29.7h-5.1l-4.9,20.6h-2.9l4.9-20.6h-5.1l0.8-3.4h13.1L184.8,29.7L184.8,29.7z M198.4,40.6
		c-1.6,6.7-4.8,10.1-9.5,10.1c-4.5,0-6-3.2-4.4-9.7l3.5-14.7h2.9l-3.3,13.8c-1.1,4.7-0.3,7.1,2.4,7.1c2.6,0,4.4-2.3,5.5-6.8
		l3.4-14.1h2.9L198.4,40.6L198.4,40.6z M214,50.3h-3.4l-1.3-6.4c-0.1-0.5-0.2-1-0.4-1.5c-0.1-0.4-0.3-0.7-0.5-1
		c-0.2-0.3-0.4-0.5-0.7-0.6c-0.3-0.1-0.6-0.2-1-0.2h-1.2l-2.3,9.7h-2.9l5.7-24h5.8c0.8,0,1.6,0.1,2.2,0.4c0.6,0.3,1.1,0.7,1.5,1.2
		c0.4,0.5,0.6,1.2,0.7,2c0.1,0.8,0,1.8-0.2,2.8c-0.2,0.8-0.5,1.6-0.8,2.3c-0.3,0.7-0.8,1.3-1.2,1.9c-0.5,0.5-1,1-1.6,1.4
		c-0.6,0.4-1.2,0.7-1.8,0.9l0,0.1c0.3,0.2,0.5,0.5,0.6,0.8c0.2,0.3,0.3,0.6,0.5,0.9c0.1,0.3,0.3,0.7,0.4,1.1
		c0.1,0.4,0.2,0.9,0.4,1.4L214,50.3L214,50.3z M208.2,29.5l-1.9,7.8h2.4c0.5,0,0.9-0.1,1.3-0.3c0.4-0.2,0.8-0.5,1.2-0.8
		c0.4-0.4,0.7-0.8,1-1.3c0.3-0.5,0.5-1.1,0.6-1.7c0.3-1.1,0.2-2-0.2-2.7c-0.4-0.6-1.1-1-2.1-1L208.2,29.5L208.2,29.5z M216,50.3
		l5.7-24h5.6c1.7,0,2.9,0.5,3.7,1.5c0.8,1,0.9,2.3,0.6,4c-0.3,1.4-0.9,2.5-1.7,3.5s-1.8,1.7-2.9,2.1l0,0.1c1.2,0.2,2,0.8,2.5,1.8
		c0.5,1,0.5,2.4,0.1,4c-0.5,2-1.5,3.7-3,5c-1.5,1.3-3.2,1.9-5,1.9L216,50.3L216,50.3z M223.9,29.5l-1.6,6.8h1.9c1,0,1.9-0.3,2.6-1
		c0.7-0.7,1.2-1.6,1.5-2.8c0.5-2-0.3-3.1-2.3-3.1L223.9,29.5L223.9,29.5z M221.5,39.5l-1.8,7.6h2.5c1.1,0,2-0.3,2.8-1
		c0.8-0.7,1.3-1.6,1.6-2.8c0.6-2.5-0.4-3.7-2.9-3.7L221.5,39.5L221.5,39.5z M238.5,50.7c-2.6,0-4.3-1.1-5.3-3.4
		c-1-2.2-1.1-5.2-0.2-8.7c0.9-3.9,2.4-6.9,4.6-9.2s4.5-3.4,7.2-3.4c2.5,0,4.2,1.1,5.2,3.3c1,2.2,1.1,5.1,0.2,8.7
		c-0.9,3.9-2.5,7-4.6,9.3C243.5,49.5,241.1,50.7,238.5,50.7z M243.8,29.4c-1.6,0-3.1,0.8-4.6,2.5c-1.4,1.6-2.4,3.8-3.1,6.5
		c-0.6,2.7-0.7,4.8-0.1,6.4c0.6,1.6,1.7,2.4,3.3,2.4c1.7,0,3.2-0.8,4.6-2.3c1.4-1.5,2.4-3.7,3-6.5c0.7-2.9,0.7-5.1,0.2-6.6
		C246.6,30.2,245.4,29.4,243.8,29.4L243.8,29.4z M84.9,28.4c0,0.1,0,0.2-0.1,0.3c0,0.1-0.1,0.3-0.1,0.4c-0.1,0.1-0.1,0.3-0.2,0.4
		c-0.1,0.1-0.1,0.3-0.2,0.4c-0.1,0.1-0.2,0.2-0.3,0.3c-0.1,0.1-0.2,0.1-0.3,0.1c-0.1,0-0.3-0.1-0.5-0.2c-0.3-0.2-0.5-0.4-0.8-0.5
		c-0.4-0.2-0.8-0.4-1.2-0.5c-0.5-0.2-1-0.2-1.7-0.2c-0.7,0-1.4,0.1-2,0.3c-0.6,0.2-1.1,0.5-1.6,0.9c-0.8,0.7-1.4,1.7-1.6,2.8
		c-0.1,0.5-0.1,1,0.1,1.4c0.2,0.4,0.4,0.8,0.7,1.1c0.3,0.3,0.7,0.6,1.1,0.9c0.4,0.3,0.9,0.6,1.3,0.9c0.4,0.3,0.9,0.6,1.3,1
		c0.4,0.3,0.8,0.8,1.1,1.2c0.3,0.5,0.5,1,0.6,1.6c0.1,0.6,0.1,1.3,0,2.1c-0.2,1-0.6,2-1.2,2.9c-0.6,0.9-1.3,1.7-2.2,2.4
		c-0.9,0.7-1.9,1.2-3.1,1.6c-1.2,0.4-2.4,0.6-3.8,0.6c-1.2,0-2.5-0.2-3.6-0.7c-0.4-0.2-0.8-0.4-1.2-0.6c-0.3-0.2-0.5-0.4-0.7-0.5
		c-0.1-0.2-0.2-0.4-0.1-0.7c0-0.1,0-0.2,0.1-0.3c0-0.1,0.1-0.3,0.2-0.4c0.1-0.2,0.1-0.3,0.2-0.5c0.1-0.2,0.2-0.3,0.2-0.4
		s0.2-0.2,0.3-0.3c0.1-0.1,0.2-0.1,0.3-0.1c0.2,0,0.4,0.1,0.7,0.3c0.3,0.2,0.6,0.4,1,0.6c0.4,0.3,0.9,0.5,1.4,0.6
		c0.6,0.2,1.2,0.3,2,0.3c0.8,0,1.6-0.1,2.3-0.4c0.7-0.2,1.3-0.5,1.8-1c0.5-0.4,1-0.9,1.3-1.4c0.3-0.5,0.6-1.1,0.7-1.8
		c0.1-0.5,0.1-1-0.1-1.4c-0.2-0.4-0.4-0.8-0.7-1.1c-0.3-0.3-0.7-0.7-1.1-0.9c-0.4-0.3-0.9-0.6-1.3-0.9c-0.4-0.3-0.9-0.6-1.3-1
		c-0.4-0.3-0.8-0.8-1.1-1.2c-0.3-0.5-0.5-1-0.6-1.6c-0.1-0.6-0.1-1.3,0-2.1c0.2-1,0.5-1.9,1.1-2.7c0.5-0.8,1.2-1.6,2-2.2
		c0.8-0.6,1.8-1.2,2.8-1.5c1-0.4,2.2-0.5,3.4-0.5c0.6,0,1.1,0,1.6,0.1c0.5,0.1,1,0.2,1.3,0.4c0.4,0.1,0.7,0.3,1,0.5
		c0.3,0.2,0.5,0.3,0.5,0.4c0.1,0.1,0.1,0.2,0.2,0.3C84.9,28.1,84.9,28.3,84.9,28.4L84.9,28.4z"/>
</g>
<g>
	<path class="st1" d="M14.6,19.4h-3.1v-2.6h3.1c2.1,0,2-4.1,0-4.1H9V24h5.6C16.6,24,16.6,19.4,14.6,19.4z"/>
	<path class="st1" d="M13.6,33.6H9.1v11.4h4.5C18.7,45.1,18.7,33.6,13.6,33.6z"/>
	<path class="st1" d="M52.6,0H4.7C2.1,0,0,2.1,0,4.7v47.9c0,0,0,0,0,0c0,2.6,2.1,4.7,4.7,4.7h47.9c2.6,0,4.7-2.1,4.7-4.7V4.7
		c0,0,0,0,0,0C57.3,2.1,55.2,0,52.6,0z M5.7,9.4L5.7,9.4l9.3,0c1.5,0,2.8,0.8,3.5,1.8s1,2.2,1,3.4c0,1.2-0.3,2.4-1,3.4l-0.2,0.2
		c2.3,3,1.3,9.1-3.3,9.1H5.7V9.4z M13.6,48.3H5.8V30.4h7.7C23,30.4,23.1,48.3,13.6,48.3z M32.8,48.3L28,36l-3.6,9.3h4.9v3.1h-9.5
		l7.1-17.9h2.6l7,17.9H32.8z M33,27.3l-4.9-12.3l-3.6,9.3h4.9v3.1h-9.5l7.1-17.9h2.6l7,17.9H33z M40.8,48.3h-3.3V30.4h3.3V48.3z
		 M51.3,27.3H48l-7.3-10.9v10.9h-3.3V9.4h3.3L48,19.7V9.4h3.3V27.3z"/>
</g>
</svg>
