<?xml version="1.0" encoding="UTF-8"?>
<svg id="Calque_2" data-name="Calque 2" xmlns="http://www.w3.org/2000/svg" viewBox="0 0 636.4 87">
  <g id="Calque_1-2" data-name="Calque 1">
    <g>
      <path d="m636.4,84c-1,.04-2.02-.05-2.99.13-7.24,1.33-11.61-2.32-15.64-7.92-7.58-10.53-15.72-20.66-23.69-30.91-3.67-4.71-7.48-9.31-12.47-13.86v50.86c-6.08,1.01-11.09.97-15.78.25-1.65-2.01-1.31-3.91-1.31-5.7-.03-23.5-.02-47-.01-70.49,0-2.16-.1-4.35,1-6.34C569.17,0,572.83,0,576.49,0c14.27,18.23,28.54,36.46,42.81,54.68.36-.09.72-.18,1.07-.26V2.59c6.11-1.06,11.07-.55,16.02-.59v82Z" style="fill: #fff; stroke-width: 0px;"/>
      <path d="m82.27,87c-3.08-1.22-6.18-2.4-9.24-3.67-10.06-4.17-14.8-11.16-14.82-21.97-.03-17.48-.02-34.96,0-52.44,0-1.97-.34-4.01,1.08-6.34,4.35-1.21,9.05-.68,13.46-.33,2.09,2.11,1.56,4.39,1.57,6.48.05,16.15-.03,32.3.08,48.44.04,6.4,2.97,11.24,8.97,13.76,5.67,2.38,10.77.81,15.24-3.05,3.35-2.9,4.63-6.72,4.61-11.14-.06-15.81-.03-31.63,0-47.44,0-2.12-.43-4.34,1.12-6.77,4.39-1.12,9.08-.57,13.36-.33,2.04,2.37,1.52,4.62,1.52,6.73.04,17.48.04,34.96.02,52.44-.01,10.74-4.75,17.77-14.78,21.97-3.06,1.28-6.16,2.44-9.24,3.66h-12.98Z" style="fill: #fff; stroke-width: 0px;"/>
      <path d="m527.57,0c10.85,3.94,19.71,10.51,25.09,20.83,7.77,14.91,7.27,30.04-.15,45.01-.64,1.28-1.25,2.75-3.74,3.5-2.94-8.55-10.26-14.94-8.75-25.84,2.05-14.75-9.68-29.05-24.63-27.67-10.73.99-19.67,10.41-20.7,23.2-.12,1.49-.12,3-.03,4.49.54,9.83-2.07,17.43-8.93,25.74-2.02-.19-2.44-2.01-3.2-3.38-13.97-25.08-2.03-55.72,21.46-64.48.92-.34,1.75-.92,2.63-1.4,6.99,0,13.98,0,20.97,0Z" style="fill: #fff; stroke-width: 0px;"/>
      <path d="m30.35,0c5.83,2.53,12.45,3.65,16.82,9.21-1.73,3.85-4.11,6.91-7.24,9.25-2.35-.08-3.79-1.66-5.55-2.52-2.44-1.18-4.89-1.98-7.65-1.89-4.38.15-7.24,2.49-8.66,6.37-1.34,3.66.93,6.4,3.36,8.76,2.19,2.12,5.07,3.15,7.87,4.2,4.38,1.64,8.47,3.79,12.34,6.44,8.47,5.8,10.35,14.29,9.43,23.7-.99,10.11-5.94,17.61-15.86,20.95-12.41,4.18-27.54-1.75-35.21-13.71,2.14-3.66,5.45-6.35,8.53-9.12,2.36.2,3.03,2.2,4.32,3.38,3.93,3.58,8.23,6.04,13.77,6.06,4.41.01,7.33-2.02,8.91-5.91,1.67-4.12.77-7.85-2.55-10.88-3.15-2.87-7.2-4.07-10.94-5.84-2.55-1.21-5.21-2.21-7.68-3.57C4.93,39.64.46,31.7,1.63,22.54,3.12,10.87,8.6,4.45,19.64,1.36,20.91,1,22.12.46,23.36,0h6.99Z" style="fill: #fff; stroke-width: 0px;"/>
      <path d="m422.73,0c5.99,2.55,12.74,3.74,17.35,9.2-2.03,3.82-4.5,6.85-7.69,9.6-2.41-1.28-4.63-2.73-7.04-3.69-5.87-2.32-11.87-.48-13.92,4.03-1.96,4.31.64,9.48,6.47,12.4,4.31,2.16,8.77,3.99,13.09,6.11,13.16,6.47,15.95,21.1,10.85,33.95-4.52,11.37-16.93,16.7-29.89,13.2-7.96-2.15-14.98-7.38-18.74-14.1,2.23-3.35,4.73-6.57,8.14-9.36,2.7,2.24,5.18,4.38,7.75,6.42,3.28,2.6,7.05,3.55,11.21,3.28,3.43-.22,6.26-1.5,7.55-4.78,1.39-3.51,1.68-7.15-.84-10.42-1.98-2.57-4.7-4.17-7.61-5.48-3.79-1.7-7.62-3.31-11.33-5.18-11.95-6-16.17-16.32-12.23-29.09,2.21-7.14,7-11.49,13.83-13.92,2.03-.72,4.05-1.45,6.07-2.17,2.33,0,4.66,0,6.99,0Z" style="fill: #fff; stroke-width: 0px;"/>
      <path d="m256.3,53.88v28.08c-5.74,1.6-10.55,1.19-15.87.43V3.35c1.84-1.74,3.74-1.39,5.53-1.4,6.48-.04,12.96-.05,19.44-.01,11.5.06,20.35,6.74,23.62,17.78,3.23,10.93-.86,23.45-9.58,29.32-1.36.91-2.71,1.82-4.48,3.01,5.93,10.65,14.21,19.39,20.74,30.34h-19.52c-7.29-8.53-10.96-19.94-18.4-28.79-.49.1-.99.19-1.48.29Zm.08-38.01c-.39,7.92-.82,15.11.25,22.32,6.05,1.75,11.1.79,14.81-3.82,3.07-3.81,4.35-8.22,1.59-12.98-3.77-6.53-9.97-5.35-16.65-5.52Z" style="fill: #fff; stroke-width: 0px;"/>
      <path d="m146.91,54.07c-1.53,9.09,0,18.56-.88,28.3-4.98,1.1-9.83.7-15.3.2V2.55c8.01-1.24,15.8-.22,23.52-.67,7.05-.41,12.97,1.95,18.32,6.39,7.17,5.95,9.89,18.13,6.27,29.02-2.97,8.94-11.57,15.27-21.06,15.65-3.43.14-6.97-.69-10.87,1.12Zm-.49-38.01c.12,7.75-.94,14.92.6,21.87,6.49,1.94,11.99.58,15.14-3.8,2.77-3.85,3.82-7.99,1.29-12.53-3.78-6.78-10.01-5.76-17.02-5.54Z" style="fill: #fff; stroke-width: 0px;"/>
      <path d="m346.51,2.32c6.14-.44,11.36-.83,17.64.38-10.58,27.48-20.92,54.33-31.01,80.53-4.01,1.12-6.77,1.12-10.51.06-10.21-26.4-20.61-53.3-31.29-80.92,6.26-.68,11.63-.59,17.82,0,6,16.84,12.03,33.78,18.06,50.72.43-.02.85-.05,1.28-.07,5.97-16.81,11.95-33.62,18.02-50.69Z" style="fill: #fff; stroke-width: 0px;"/>
      <path d="m229.16,82.57h-41.59V2.53h39.71c1.32,4.33,1.2,8.33.11,12.72-7.72,1.69-15.61-.32-23.52,1.28-1.15,5.63-.81,10.95-.21,16.58,8,1.71,15.7-.02,23.45,1.22,1.62,3.97,1.26,7.79.32,12.06-7.66,1.76-15.56-.37-23.49,1.38-1.29,6.91-.92,13.57-.24,20.62,8.61,1.64,17.13-.26,25.49,1.21,1.22,4.43,1.21,8.43-.03,12.97Z" style="fill: #fff; stroke-width: 0px;"/>
      <path d="m518.84,26.98c9.58,18.12,19.15,36.24,29.29,55.43h-60.16c9.16-19.57,19.33-37.58,29.18-55.77.56.11,1.12.22,1.68.33Z" style="fill: #fff; stroke-width: 0px;"/>
      <path d="m468.21,82.36c-5.3,1.01-10.04.75-15.29.28V2.44c4.83-.84,9.81-.77,15.29.11v79.81Z" style="fill: #fff; stroke-width: 0px;"/>
      <path d="m383.27,82.35c-5.13.99-9.69.81-14.91.15V2.62c4.98-1.08,9.67-.89,14.91-.14v79.87Z" style="fill: #fff; stroke-width: 0px;"/>
    </g>
  </g>
</svg>