<svg width="800" height="600" xmlns="http://www.w3.org/2000/svg">
 <g id="Layer_1">
  <title>Layer 1</title>
  <g stroke="null">
   <g stroke="null" id="svg_1">
    <title stroke="null">Layer 1</title>
    <g stroke="null">
     <g stroke="null" fill="#78776e">
      <path stroke="null" d="m424.27027,335.65991l-60.65623,0l42.01258,70.8388l60.77739,0l0,-15.03911c-4.06394,-1.27219 -7.19898,-2.87757 -9.43541,-4.79596a35.80308,35.80308 0 0 1 -6.24484,-7.03239a38.92297,38.92297 0 0 1 -1.77198,-2.55953a47.62133,47.62133 0 0 1 -1.74674,-3.20067c-0.00505,0.00505 -22.93477,-38.21115 -22.93477,-38.21115zm-90.29019,0l-53.7551,0l0,38.85735c0,4.89692 -1.00463,8.84475 -3.03407,11.82834c-2.02945,2.99369 -5.47749,4.58897 -10.38451,4.80605l0,15.34706l80.59731,0l0,-15.03911c-5.32099,-0.42406 -8.89524,-2.06983 -10.72275,-4.94741c-1.79722,-2.87757 -2.70088,-6.9819 -2.70088,-12.31299l0,-38.5393zm-265.5193,0a99.23087,99.23087 0 0 0 9.1527,18.69918c10.12704,16.21033 26.17078,24.30793 48.12616,24.30793c19.61799,0 34.5006,-7.35043 44.63269,-22.0715a98.74622,98.74622 0 0 0 11.05089,-20.94066l56.40045,-0.08582c-5.49263,17.32602 -15.236,32.3298 -29.22,45.01131c-23.03574,20.90027 -50.85229,31.35041 -83.50013,31.35041c-32.82959,0 -60.72186,-10.02607 -83.63139,-30.06812c-14.41311,-12.58055 -24.29278,-27.95285 -29.64911,-46.10176l56.63772,-0.10097zm426.40093,-0.09592l53.72986,0l0,38.63522c0,5.33613 0.89861,9.43541 2.72612,12.31299c1.79722,2.87757 5.37147,4.52334 10.72275,4.94741l0,15.03911l-80.62255,0l0,-15.34706c4.91207,-0.21708 8.3803,-1.81237 10.40975,-4.80605c2.00421,-2.98359 3.03407,-6.92637 3.03407,-11.82834l0,-38.95326zm162.43148,0l-63.26119,0c0.84308,2.0143 1.74674,4.01851 2.71603,6.00757a113.7399,113.7399 0 0 0 30.54267,38.70589a122.85222,122.85222 0 0 0 44.94064,23.18719a231.41753,231.41753 0 0 0 50.38783,8.14808c2.3374,0.20698 4.67984,0.3231 7.01724,0.3231l7.04248,0a314.71572,314.71572 0 0 0 20.15311,-0.64619c5.114,-0.42406 10.18257,-1.01472 15.19561,-1.76188s9.95035,-1.74674 14.85737,-3.03407l0,-52.12952l-17.27554,0.3231c-2.3374,7.46655 -6.65881,12.90365 -12.93394,16.3113a56.3954,56.3954 0 0 1 -20.30961,6.40134a107.51525,107.51525 0 0 1 -11.21244,0.63105c-23.88386,0 -43.18885,-9.21833 -57.89477,-27.66005a109.75168,109.75168 0 0 1 -9.96549,-14.80689z" fill="#ffffff"/>
     </g>
     <g stroke="null" fill="#bab6b1">
      <path stroke="null" d="m68.67281,264.62422a100.39704,100.39704 0 0 1 8.93562,-18.20949c10.12704,-16.3113 26.27175,-24.47452 48.45936,-24.47452c19.61799,0 34.37439,7.24947 44.29445,21.7484a100.60402,100.60402 0 0 1 11.0307,20.94571s56.68821,0 56.68821,-0.0101c-5.50778,-17.33612 -15.50356,-32.42067 -29.97725,-45.24859c-23.33864,-20.67815 -50.69074,-31.02732 -82.03105,-31.02732c-32.21368,0 -60.08072,10.39965 -83.65663,31.18381c-14.41816,12.732 -24.43414,27.76102 -30.03279,45.09209l56.28939,0zm479.92381,0l-53.73491,0l0,-38.8422c0,-5.55321 -0.89861,-9.55153 -2.72612,-12.00504c-1.79722,-2.44341 -5.37147,-4.09928 -10.72275,-4.94741l0,-15.6853l80.62255,0l0,15.36221l-3.85696,0.64114c-3.39251,0.63105 -5.7602,2.23643 -7.01724,4.79596a27.05929,27.05929 0 0 0 -2.56962,8.31467l0,3.82667l0.00505,38.5393zm100.15977,-2.18595a73.38823,73.38823 0 0 1 10.66722,-22.10684c9.4859,-13.32771 24.47452,-19.98652 44.94064,-19.98652c10.02607,0 19.10305,2.66049 27.20065,7.99663s12.16154,13.43373 12.16154,24.30793a21.22337,21.22337 0 0 1 -1.43879,5.5936a25.33275,25.33275 0 0 1 -2.72612,4.96255l2.29196,1.42869l19.28984,0l32.7892,-34.37439c-11.51534,-14.49893 -24.93897,-25.10557 -40.31128,-31.82496c-15.34706,-6.72948 -32.18844,-10.08665 -50.51909,-10.08665c-30.07822,0 -57.15266,9.50104 -81.2637,28.47284c-16.35674,12.89355 -27.16531,28.82118 -32.40552,47.80307l58.73785,0l0.58561,-2.18595zm-314.7763,2.18595l0,-41.09378l27.81655,0c10.66722,0 19.71895,2.25158 27.20065,6.72444c7.45645,4.47286 11.18215,12.68657 11.18215,24.63102c0,3.60454 -0.37863,6.86074 -1.14093,9.75346l54.997,-0.00505c0.99453,-4.48801 1.49432,-9.22843 1.49432,-14.22127c-1.08035,-20.04205 -9.02145,-34.5006 -23.83338,-43.34535c-14.83213,-8.84475 -31.08285,-13.38324 -48.79255,-13.60032l-0.79764,0a2.41817,2.41817 0 0 1 -1.10559,-0.3231l-114.1993,0l0,15.68025c5.32099,0.84813 8.89524,2.50904 10.72275,4.94741c1.79722,2.45351 2.70088,6.45182 2.70088,12.00504l0,38.84725l53.7551,0z" fill="#ffffff"/>
     </g>
     <g stroke="null" fill="#9f9d90">
      <path stroke="null" d="m761.14331,264.62422l-19.28984,0l12.10096,7.53218l7.18889,-7.53218zm-692.68254,71.13666l-56.63772,0c-3.17038,-10.74294 -4.75557,-22.45517 -4.75557,-35.14174l0,-0.30795c0,-12.81783 1.77198,-24.7118 5.32099,-35.68192c0,0 56.29948,0 56.28939,-0.00505c-4.16996,11.27807 -6.25494,23.27806 -6.25494,35.99492l0,-0.30795c-0.00505,12.49978 6.03786,35.44969 6.03786,35.44969zm112.96245,-0.10097a97.0954,97.0954 0 0 0 6.06815,-27.67519a24.08075,24.08075 0 0 0 0.30795,-3.84181l0,-3.83172c0,-1.48927 -0.05048,-2.99369 -0.1565,-4.48801c-0.10097,-1.48927 -0.1565,-2.98359 -0.1565,-4.47286a99.4429,99.4429 0 0 0 -6.0732,-26.7261l56.67306,0c3.37231,10.62178 5.06352,22.08664 5.06352,34.39963c0,13.15607 -1.77703,25.3378 -5.33108,36.55024l-56.3954,0.08582zm367.17339,-71.03569l0,70.93977l-53.73491,0l0,-70.93977l53.73491,0zm99.55901,0l-58.73785,0c-2.4838,8.97096 -3.7257,18.62851 -3.7257,28.96253c0,14.64029 2.77661,28.62934 8.33992,41.97724l0,0.09087l63.26119,0l0,-0.09087c-8.05721,-14.4535 -12.08581,-30.04793 -12.08581,-46.7732c0,-8.64282 0.97938,-16.70003 2.94825,-24.16657zm-194.14032,0a53.91665,53.91665 0 0 1 -11.44467,23.35378c-8.63777,10.34917 -19.9007,17.64912 -33.75344,21.915l15.45308,25.76186l-60.65623,0l-12.05047,-20.31971l-17.58349,0l0,20.32476l-53.76015,0l0,-71.03064l53.7551,0l0,20.32476l26.22126,0c10.02607,0.21708 19.17878,-1.76188 27.5086,-5.91165c5.79553,-2.90786 9.57677,-7.70382 11.32855,-14.39797l54.98186,-0.02019z" fill="#ffffff"/>
     </g>
    </g>
   </g>
  </g>
 </g>

</svg>