<?xml version="1.0" encoding="UTF-8"?>
<svg id="Calque_2" data-name="Calque 2" xmlns="http://www.w3.org/2000/svg" viewBox="0 0 599.15 164.69">
  <g id="Calque_1-2" data-name="Calque 1">
    <g>
      <path d="m309.29,43.35c.95,1.98,1.65,3.44,2.6,5.43,8.3.76,16.73.79,25.13,0,2.9-.27,3.39-2.1,2.51-6.59-3.67-1.57-7.82-1.68-11.91-1.78-6.65-.17-13.31.02-19.96-.12-8.61-.17-12.79-3.85-14.43-12.13-.89-4.49-.58-8.88.3-13.31,1.2-6,4.66-9.75,10.7-11.05,3.41-.73,6.82-1.42,10.36-1.39,8.32.08,16.64-.12,24.95.1,9.84.26,17.27,5.13,15.99,19-4.95,1.81-10.2.66-15.87.81-1.9-5.46-6.53-5.23-11.11-5.01-5.59.27-11.26-.61-16.38.64-1.85,1.98-1.83,3.66-.97,5.45,1.73,2.14,4.16,1.87,6.46,1.88,7.49.06,14.98-.09,22.46.12,11.13.3,14.27,2.81,17.99,14.3.88-7.31-.37-14.04.89-20.66,2.1-11.03,7.27-16.05,18.49-16.46,11.46-.42,22.96-.33,34.43-.02,9.13.25,14.95,5.44,16.43,14.44,1.81,11.02,1.68,22.13-.3,33.12-1.49,8.24-7.49,13.46-16.58,13.8-11.63.43-23.3.48-34.93.02-10.65-.42-15.29-5.08-17.25-15.71-.14-.78-.09-1.66-1-2.09-.21.21-.56.39-.59.62-1.93,13.15-4.74,16.16-18.59,17.04-10.27.65-20.64.59-30.92.04-12.01-.64-16.79-7.43-14.67-20.08,5.04-1.23,10.27-.57,15.77-.4Zm67.14-10.05c0,1.98-.07,3.97.01,5.95.26,5.87,1.86,7.07,7.74,8.11,7.01,1.24,13.88.13,20.82-.17,3.55-.15,5.51-2.05,6.17-5.35,1.16-5.89,1.24-11.8.08-17.71-.53-2.72-2-4.28-4.84-4.9-5.11-1.12-10.25-.76-15.38-.74-13.5.06-14.64,1.28-14.6,14.81Z" style="fill: #fff; stroke-width: 0px;"/>
      <path d="m503.17,164.69c-11.37-.52-22.52.5-33.62-1.14-10.19-1.51-16.37-6.93-17.9-17.11-2.15-14.32-2.12-28.72-.06-43.06,1.49-10.39,7.21-15.76,17.68-17.28,5.27-.77,10.55-1.27,15.9-1.14,16.78.42,33.59-.99,50.34.96,12.64,1.47,18.28,6.92,19.77,19.64,1.57,13.36,1.49,26.76-.16,40.12-1.26,10.18-7.68,16.32-17.83,17.84-11.43,1.72-22.92.63-34.13,1.17Zm-.05-22.22c6.29.55,12.72-.36,19.17-.87,4.63-.37,7.55-2.8,7.72-7.48.22-5.94.32-11.93-.15-17.84-.51-6.46-2.81-8.36-9.34-8.43-11.46-.12-22.92-.09-34.39-.02-6.61.04-8.99,2.03-9.55,8.75-.46,5.59-.36,11.24-.16,16.85.2,5.34,2.65,7.56,8.09,8.2,6.11.72,12.23,1.21,18.6.84Z" style="fill: #fff; stroke-width: 0px;"/>
      <path d="m.69,18.53c-.94-5.18-.89-9.88-.02-15.31h77.85c2.9,6.36.03,13.4,2.11,20.49h30.46c1.97-6.68-.27-13.44,1.6-20.25,5.31-1.66,10.61-1.13,16.53-.29v59.89c-5.52,1.62-10.81,1.22-16.38.31-2.08-7.06.09-14.14-1.62-21.52h-30.52c-2.24,7.06.61,14.42-2.05,21.52-5.33,1.01-10.48,1.13-16.55-.28V20.24c-7.56-1.43-14.23-.89-22.01-.46v43.18c-6.06,1.53-11.04,1.4-16.96.18V20.45c-7.71-2.27-15.01.1-22.44-1.92Z" style="fill: #fff; stroke-width: 0px;"/>
      <path d="m220.55,25.16v37.71c-5.52,1.84-10.5,1.32-16.15.54V2.96c8.62-.81,16.81-.54,25.13-.19,6.88,11.66,11.29,24.17,18.33,37.01,6.16-12.94,11.79-24.78,17.58-36.95,8.48-.52,16.66-.6,25.48.1v60.08c-5.23,1.65-10.32,1.4-16.02.09V25.34c-.47-.14-.95-.29-1.42-.43-6.32,12.85-12.64,25.7-18.92,38.45-4.76,1.09-9,.73-13.77.3-6.3-12.88-12.6-25.78-18.9-38.67-.44.06-.89.12-1.33.17Z" style="fill: #fff; stroke-width: 0px;"/>
      <path d="m414.58,162.93c-9.6,1.04-17.75.67-26.62.36-1.28-18.62.16-36.57-.87-54.74-10.72-1.57-21.04.25-31.6-1.18-1.85-6.8-1.07-13.42-.51-20.73h92.45c1.36,6.91,1.18,13.5.11,20.65-10.79,1.54-21.43-.14-32.96,1.12v54.54Z" style="fill: #fff; stroke-width: 0px;"/>
      <path d="m447.56,24.78c-.63,12.57.19,25.18.44,37.8-5.8,2.17-10.74,1.75-16.23.59V2.99c8.45-.94,16.66-.45,25.15-.32,9.31,13.61,18.52,27.09,27.73,40.56.47-13.41.66-26.45.79-39.58,5.6-1.86,10.46-1.18,16.06-.65v60.5c-8.21.9-16.27.88-24.3.07-2.29-.23-3.31-2.61-4.5-4.39-6.59-9.75-13.14-19.53-19.74-29.27-1.28-1.89-2.72-3.67-4.08-5.5-.43.13-.87.25-1.3.38Z" style="fill: #fff; stroke-width: 0px;"/>
      <path d="m166.77,64.11c-5.32,0-10.65.14-15.97-.02-12.04-.35-18.22-6.04-18.85-17.98-.44-8.42-.42-16.9-.03-25.33.52-11.38,6.97-17.85,18.33-18.22,11.47-.37,22.96-.38,34.43.02,10.55.37,16.5,7.03,17.15,17.59.52,8.43.51,16.82-.01,25.25-.71,11.52-7.42,18.33-19.08,18.66-5.32.15-10.65.03-15.97.03Zm17.97-31.04c0-1.32.01-2.65,0-3.97-.08-7.94-2.02-10.24-9.84-10.53-6.63-.25-13.28-.5-19.89.72-2.86.53-4.46,1.88-5.05,4.65-1.32,6.25-.96,12.5.06,18.73.46,2.85,2.47,4.13,5.24,4.46,5.61.68,11.16,1.22,16.87.41,12.59-1.79,12.61-1.62,12.61-14.48Z" style="fill: #fff; stroke-width: 0px;"/>
      <path d="m29.58,84.95c8.09,0,15.47.75,22.62-.18,10.44-1.36,16.51,2.37,20.79,11.95,4.65,10.4,10.87,20.1,16.42,30.1.62,1.12,1.01,2.46,2.68,3.09,2.61-2.82,4.12-6.3,5.94-9.57,5.63-10.14,11.29-20.27,16.72-30.52,1.86-3.52,4.27-5.04,8.29-4.94,8.31.21,16.63.05,24.95.08,1.64,0,3.35-.21,5.35,1.29v72.67c-7.57,1.26-14.91.76-23.23.29-.69-16.41,1.83-32.51.32-49.89-10.01,17.29-19.41,33.54-28.86,49.85-6.13.79-11.93.54-17.71.25-2.72-.14-3.65-2.56-4.8-4.58-7.28-12.83-14.56-25.65-21.86-38.47-.97-1.71-2.07-3.34-4.23-4.89v47.44c-8.19,1.13-15.51.89-23.38.19v-74.17Zm60.54,51.37c-9.83-14.84-17.05-31.81-26.84-46.84h-29.76v65.75c5.26.26,10.06,1.1,15.67-.79v-52.56c3.93-1.78,5.04.5,6.19,2.5,3.81,6.6,7.57,13.23,11.35,19.86,5.89,10.34,11.77,20.69,17.73,31.17,5.04.03,9.62.79,14.19-.49.65-.92,1.29-1.69,1.78-2.54,9.12-15.79,18.22-31.58,27.31-47.38,1.42-2.46,2.62-5.23,6.59-3.16,2.24,17.66-1.75,35.44.16,53.34,5.29.49,9.84.85,14.66-.3v-65.56h-28.06c-2.39,1.67-3.25,3.86-4.35,5.89-6.6,12.07-13.14,24.17-19.83,36.18-1.28,2.3-2.13,5.5-6.8,4.93Z" style="fill: #fff; stroke-width: 0px;"/>
      <path d="m524.83,35.67c2.02.33,3.62.59,5.41.88,1.43-3.57,1.11-6.89.32-10.08-2.22-1.46-4,.91-6.6-.08-1.19-4.13-.88-8.59-.03-13.38,6.53-3.79,14.1-5.09,20.62-8.6,10.97-5.91,21.42-5.82,32.5-.04,6.7,3.49,14.17,5.5,21.39,8.21.89,4.96.94,9.43.12,13.6-2.53,1.45-4.4-.62-6.69.25-1.35,3.11-1.01,6.4-.21,9.61,2.23,1.08,4.03-1.27,6.01-.2,1.66,3.48,1.86,7.26.67,12.92-1.16,1.76-3.12,2.36-4.96,3.07-9.44,3.67-18.96,7.18-28.34,10.99-3.18,1.29-6.01,1.29-9.12.02-8.62-3.51-17.3-6.86-25.94-10.31-7.14-2.85-9.18-9.41-5.17-16.86Zm48.83-15.9c-9.97-6.46-15.93-6.5-25.3-.18-.18,7.77-.67,15.93.28,24.06,3.95,2.53,7.97,3.96,12.38,5.4,3.91-2.07,8.72-2.49,12.78-5.78.24-7.76.51-15.62-.15-23.5Zm-45.72,19.56c-2.43,3.09-1.65,5.9-.73,9.47,9.52,3.54,19.29,7.18,29.24,10.88,1.05-3.69,1.07-6.25-.24-9.52-8.98-3.44-18.39-7.05-28.28-10.84Zm67.25-24.97c-9.55-3.59-19.2-7.22-28.94-10.88-1.39,3.53-1.29,6.08-.13,9.21,9.33,3.58,18.76,7.78,28.64,10.6,1.68-3.13,1.38-5.53.43-8.93Z" style="fill: #fff; stroke-width: 0px;"/>
      <path d="m313.67,85.33h22.08c-12.77,26.16-25.13,51.47-37.48,76.77-7.31.82-14.02.45-22.39.26,12.95-26.41,25.35-51.68,37.79-77.03Z" style="fill: #fff; stroke-width: 0px;"/>
      <path d="m219.41,84.03c7.22-.28,16.16.2,25.11.95,13.45,1.14,21.41,7.86,22.66,21.34,1.04,11.14,1.43,22.48-.55,33.64-2.25,12.66-9.64,18.95-22.52,19.65-18.08.99-36.13,1.47-54.23.06-13.87-1.08-20.77-6.63-22.58-20.45-1.4-10.66-1.29-21.52-.16-32.19,1.52-14.27,9-20.76,23.66-22,4.46-.38,8.93-.8,13.4-.96,4.48-.17,8.97-.04,15.21-.04Zm-3.6,72.44c4.66,0,9.32.12,13.97-.03,4.81-.16,9.62-.56,14.42-.93,10.73-.82,16.94-6.94,18.49-17.45,1.34-9.09,1.12-18.2.71-27.26-.64-14.3-6.78-20.78-20.23-21.64-16.91-1.08-33.84-1.75-50.78-.09-13.4,1.31-19.75,6.36-21.15,18.71-1.14,10.02-1.16,20.22.07,30.24,1.44,11.79,6.69,16.12,18.63,17.56,8.62,1.04,17.25.91,25.89.9Z" style="fill: #fff; stroke-width: 0px;"/>
      <path d="m187.72,122.34c0-3.14-.19-6.3.04-9.42.53-7.28,3.36-10.41,10.55-11.61,6.09-1.02,12.27-.41,18.4-.49,5.81-.08,11.63-.15,17.44.1,7.75.33,11.24,3.27,12.67,10.74,1.45,7.54,1.28,15.16-.39,22.66-1.27,5.68-4.95,8.78-10.87,9.26-12.25.99-24.51,1.58-36.77.08-6.43-.78-10.15-4.22-10.89-10.9-.38-3.43-.07-6.93-.07-10.41-.04,0-.08,0-.12,0Zm37.49-17.6c-7.1-.8-14.73.05-22.36.26-7.7.21-10.02,2.56-11.4,9.81-1.01,5.3-.61,10.53.25,15.8,1.01,6.2,3.45,8.28,9.83,9.14,9.97,1.35,19.89.54,29.84,0,8.03-.44,10.61-2.46,11.81-10.42.32-2.12.38-4.29.39-6.43.12-16.13-1.57-17.84-18.35-18.16Z" style="fill: #fff; stroke-width: 0px;"/>
    </g>
  </g>
</svg>