<?xml version="1.0" encoding="UTF-8"?>
<svg id="Calque_2" data-name="Calque 2" xmlns="http://www.w3.org/2000/svg" viewBox="0 0 621.25 145.23">
  <g id="Calque_1-2" data-name="Calque 1">
    <g>
      <path d="m547.19,121.85c-2.02-.66-3.96-.74-5.85.04-1.93,1.85-.26,4.65-2.22,6.95h-38.56c-2.09-2.01-.43-4.81-2.15-6.85-1.72-1.23-4.16-.1-6.06-1.28-1.3-3.67-1.54-106.74-.23-111.84,1.79-1.47,4.25-.25,6.3-1.51,1.78-1.68.17-4.46,1.66-6.36,3.66-1.12,90.35-1.41,96.05-.32,1.93,1.77.29,4.57,1.98,6.69,1.64,1.28,4.09.14,6.57,1.63,1.41,7.3-.28,15.26.96,23.04,4.98,1.67,9.94-.15,14.49,1.27,1.33,3.78,1.55,33.33.31,38.55-1.76,1.46-4.22.3-6.31,1.5-1.99,1.95-.04,5.09-1.62,7.21-1.95,1.57-4.43.33-6.82,1.91-1.11,4.61-.27,9.73-.5,14.78-.23,5.07.41,10.19-.38,14.91-2.19,1.87-4.67.62-6.66,1.85-1.84,1.72-.21,4.51-1.8,6.53-1.7,1.49-4.18.22-6.18,1.44-1.88,1.69-.22,4.49-2.12,6.83h-38.61c-2.09-1.91-.44-4.7-2.23-6.96Zm42-105.85c-.27-2.08.48-4.31-.85-6.2-5.22-1.25-75.74-1.02-79.46.26-.73,1.73-.88,3.45.73,5.91h79.61c0,29.81,0,59.63,0,89.44-29.38.04-58.76.08-88.18.13-.76,2.66-1.14,4.51.14,6.14,2.07,1.25,4.6.05,6.15,1.68,1.6,1.91.27,4.47,2.38,6.8,6.98.03,14.48.74,21.54-.32,1.52-2.51.24-4.99,2.41-7.3,7.02-.07,14.54-.63,21.57.24,1.6,2.55.34,5.01,2.25,7.24,7.18.36,14.68.8,21.77-.21,1.42-2.51.28-4.94,1.63-6.58,2.5-1.72,5.61.16,7.73-1.93.81-1.96.39-3.98.56-5.94,2.1-.15,4.31.54,6.65-1.06,1.04-10.15-.46-20.67.74-30.62,2.84-1.92,5.93-.06,8.16-2.24.67-2.19.3-4.52.44-6.8,2.42-.16,4.94.49,7.65-.89.43-7.4.7-14.83-.15-22.23-2.74-.75-4.94-1.15-7.46.75v22.41c-2.75-.11-5.58.54-8.3-.63-1.02-1.95-.72-3.95-.73-5.89-.02-12,.01-24-.04-36,0-1.9.57-3.98-1.03-5.59-1.94-.83-3.96-.39-5.92-.56Zm-9.87,9.38h-70.1c-1.13,2.3-1.29,4.14.21,6.06h70c.84-2.12.98-3.84-.11-6.06Zm-54.84,16.52c-.18,7.43-.6,14.75.26,22.04,2.7.84,4.89,1.2,7-.33v-21.93c-2.52-1.04-4.56-1.09-7.26.23Zm39.49-.6c-2.94-.4-5.02-.82-7.42.55-.33,7.39-.76,14.83.27,22.43,2.6.32,4.67.78,7.08-.61.49-7.25.37-14.57.07-22.36Zm-30.83,54.86c7.59.34,15.07.78,22.43-.23.73-2.64.99-4.7-.37-7.08-7.42-.28-14.9-.75-22.18.23-.93,2.49-.94,4.41.11,7.07Z" style="fill: #fff; stroke-width: 0px;"/>
      <path d="m330.48,63.78c13.38-.09,26.57-.21,39.85.11,2.41,5.29.21,10.62,1.71,15.62,3.6,2.17,7.89-.05,12.03,1.78.98,4.67.67,9.48.17,14.33-3.96,1.79-7.97.09-12.1,1.56-1.17,4.61-.63,9.42-.29,14.22,3.95,1.93,7.97.12,12.18,1.69,1.05,4.87.66,10.01.25,15.14-4.02,2.04-8.28-.02-12.12,1.75-1.51,4.64.09,9.55-1.06,14.05-3.97,1.44-35.86,1.61-40.89.24-1.49-4.49.24-9.41-1.15-14.15-3.85-2.07-8.28.14-12.65-1.81-1.35-4.73-.78-9.72-.37-14.63,4.12-2.58,8.55-.34,12.97-2.06,1.14-4.55.57-9.37.29-14.23-4.29-1.84-8.62-.04-13.02-1.57-1.14-4.68-.62-9.51-.28-14.38,4.24-1.98,8.58-.09,12.87-1.57,1.77-4.73-.15-10.01,1.61-16.07Zm13.43,65.17c9.07.22,17.54.4,26.35-.12.4-5.68.72-10.66-.24-16.23-8.81-.24-17.27-.34-26.06.06-.5,5.6-.43,10.47-.05,16.28Zm.14-47.98c-.56,5.23-.81,10.04.22,15.33,8.75,0,17.13.5,25.87-.31.6-5.22.9-10.02-.25-15.31-8.72-.05-17.1-.5-25.84.29Z" style="fill: #fff; stroke-width: 0px;"/>
      <path d="m82.4,144.13c-.51-5.68-.67-10.38.06-15.18,4.21-1.73,8.54.02,12.42-1.33,1.28-3.51,1.69-40.08.53-47.13-3.86-2.21-8.47.19-12.92-1.78-.83-4.85-.66-9.85-.07-14.68,4.21-1.65,49.45-1.87,54.79-.29,1.2,4.82.67,9.82.34,14.86-4.24,2-8.59.09-13.32,1.74-.59,15.48-.34,31.21-.13,46.99,4.46,1.49,8.44.46,12.91.53,1.5,5.15.88,10.26.43,16.25-18.37.08-36.38.05-55.04.02Z" style="fill: #fff; stroke-width: 0px;"/>
      <path d="m205.85,128.27c0,4.94.28,9.89-.19,14.66-3.82,1.46-34.09,1.8-40.06.52-1.94-4.56.27-9.72-1.43-14.51-4.03-1.63-8.36.14-12.23-1.25-1.36-3.9-1.52-42.56-.18-47.58,3.82-1.5,8.13.15,12.28-1.17,1.84-4.94-.12-10.2,1.26-15.08,3.61-1.39,34.02-1.71,39.82-.38,2.01,4.71-.39,10.06,1.5,14.99,3.84,2.21,8.26.05,12.62,1.75,1.07,4.66.59,9.49.25,14.46-4.39,1.35-8.46.84-12.75.51-2.15-4.8.1-9.97-1.48-14.59-4.02-1.36-21.03-1.46-26.02-.08v47.12c9,1.11,17.78.16,26.51.57l.07.07Z" style="fill: #fff; stroke-width: 0px;"/>
      <path d="m41.27,143.77c-9.76.61-18.46.54-26.85.11-1.74-2.15-1.25-4.22-1.25-6.15-.04-17.2,0-34.4-.04-51.6,0-1.93.45-3.98-.94-6-3.45-1.42-7.44.21-11-1.1-1.48-3.8-1.6-10.86-.17-15.89h53.17c1.64,5.29.59,10.32.78,15.22-4.4,2.46-9.01.07-13.69,2.18v63.22Z" style="fill: #fff; stroke-width: 0px;"/>
      <path d="m453.44,129.24v14.6c-4,1.54-34.28,1.88-40.24.59-1.95-4.56.28-9.73-1.44-14.51-4.04-1.63-8.37.15-12.23-1.25-1.37-3.95-1.51-42.66-.16-47.57,3.83-1.55,8.15.21,12.29-1.25,1.84-4.9-.17-10.17,1.26-15.03,3.69-1.39,34.25-1.66,40.05-.28,1.08,5.19.32,10.62.45,16h0c-8.74.23-17.5-.47-26.08.42-1.47,5.69-1.19,44.09.49,48.23h25.57l.04.04Z" style="fill: #fff; stroke-width: 0px;"/>
      <path d="m453.42,80.55c4.4.11,8.86-.65,13.6.65v47.26c-4.71,1.36-9.18.46-13.58.77l-.04-.04c0-16.22.01-32.44.02-48.66h0Z" style="fill: #fff; stroke-width: 0px;"/>
      <path d="m247.4,111.18c-1.16-4.69-.56-9.69-.34-14.55,3.92-1.47,35.41-1.74,41.18-.38.82,4.68.66,9.49,0,14.93h-40.84Z" style="fill: #fff; stroke-width: 0px;"/>
      <path d="m205.78,128.2v-15.92c4.68-1.52,8.86-.83,13.45-.63.97,5.47.77,10.58.21,15.82-4.71,1.38-9.19.45-13.58.8l-.07-.07Z" style="fill: #fff; stroke-width: 0px;"/>
    </g>
  </g>
</svg>