<?xml version="1.0" encoding="UTF-8" standalone="no"?>
<svg
   enable-background="new 0 0 1894 384"
   height="93.929741"
   viewBox="0 0 801.69653 93.929742"
   width="801.69653"
   version="1.1"
   id="svg36"
   sodipodi:docname="trs80coco - whlogo.svg"
   xmlns:inkscape="http://www.inkscape.org/namespaces/inkscape"
   xmlns:sodipodi="http://sodipodi.sourceforge.net/DTD/sodipodi-0.dtd"
   xmlns="http://www.w3.org/2000/svg"
   xmlns:svg="http://www.w3.org/2000/svg">
  <defs
     id="defs36" />
  <sodipodi:namedview
     id="namedview36"
     pagecolor="#ffffff"
     bordercolor="#000000"
     borderopacity="0.25"
     inkscape:showpageshadow="2"
     inkscape:pageopacity="0.0"
     inkscape:pagecheckerboard="0"
     inkscape:deskcolor="#d1d1d1" />
  <linearGradient
     id="a"
     gradientUnits="userSpaceOnUse"
     x1="948.80573"
     x2="948.80573"
     y1="43.097698"
     y2="337.08301">
    <stop
       offset=".0045"
       stop-color="#e2e3e4"
       id="stop1" />
    <stop
       offset="1"
       stop-color="#b3b5b8"
       id="stop2" />
  </linearGradient>
  <g
     transform="matrix(2.629907,0,0,2.629907,1.8409349e-7,-1.0256638e-6)"
     id="g36">
    <g
       transform="matrix(0.16579854,0,0,0.11203998,-4.891057,-3.417219)"
       id="g3"
       style="fill:#ffffff">
      <path
         d="M 29.5,349.279 V 30.5 h 1838.607 v 311.372 7.407 z m 1831.203,-7.407 v -7.405 z M 44.312,334.467 H 1853.296 V 45.313 H 44.312 Z"
         id="path3"
         style="fill:#ffffff" />
    </g>
    <g
       fill="#807f7f"
       id="g14">
      <path
         d="m 697.277,190.185 c -7.363,0 -13.332,5.969 -13.332,13.333 0,7.362 5.969,13.332 13.332,13.332 7.361,0 13.332,-5.97 13.332,-13.332 0,-7.364 -5.969,-13.333 -13.332,-13.333 z m -463.948,0 c -7.362,0 -13.332,5.969 -13.332,13.333 0,7.362 5.97,13.332 13.332,13.332 7.363,0 13.333,-5.97 13.333,-13.332 0,-7.364 -5.97,-13.333 -13.333,-13.333 z m 77.325,13.333 c 0,7.362 5.969,13.332 13.332,13.332 7.362,0 13.332,-5.97 13.332,-13.332 0,-7.363 -5.97,-13.333 -13.332,-13.333 -7.363,0 -13.332,5.969 -13.332,13.333 z m 135.985,-13.333 c -7.362,0 -13.332,5.969 -13.332,13.333 0,7.362 5.97,13.332 13.332,13.332 7.363,0 13.332,-5.97 13.332,-13.332 0,-7.364 -5.97,-13.333 -13.332,-13.333 z M 914.438,62.199 H 85.493 c -14.071,0 -25.479,11.407 -25.479,25.479 V 287.36 c 0,14.07 11.408,25.479 25.479,25.479 h 828.944 c 14.071,0 25.479,-11.406 25.479,-25.479 V 87.678 C 939.917,73.606 928.51,62.199 914.438,62.199 Z M 172.002,232.848 156.003,206.184 v 26.664 H 124.006 V 131.524 h 47.995 c 15.998,0 31.997,10.666 31.997,31.997 0,21.331 -15.999,26.664 -21.331,26.664 l 26.664,42.663 z m 53.328,0 c -10.665,0 -21.331,-10.666 -21.331,-26.664 0,-18.175 15.998,-21.332 21.331,-21.263 1.944,0.026 9.087,-0.069 10.666,-0.069 10.666,0 5.333,-10.666 0,-10.666 -5.333,0 -21.331,0 -21.331,0 v -21.331 h 42.662 c 10.666,0 14.665,10.666 14.665,21.331 0,10.666 1.333,58.66 1.333,58.66 H 225.33 Z m 138.65,0 c 0,0 -21.33,0 -42.661,0 -31.997,0 -37.329,-26.664 -37.329,-42.663 0,-9.809 5.332,-37.329 37.329,-37.329 h 10.666 v -21.332 h 31.997 v 101.324 z m 37.331,0 h -26.664 v -79.992 h 26.664 z m 45.328,0 c -22.089,0 -39.996,-17.906 -39.996,-39.996 0,-22.088 17.906,-39.996 39.996,-39.996 22.09,0 39.995,17.906 39.995,39.996 0,22.087 -17.905,39.996 -39.995,39.996 z m 135.984,-69.327 c -10.665,0 -15.998,5.333 -15.998,15.998 v 21.331 c 0,21.332 -5.333,31.998 -47.995,31.998 0,-21.332 0,-31.998 0,-31.998 10.666,0 21.331,0 21.331,-15.998 0,-15.998 0,-15.998 0,-26.664 0,-10.666 5.333,-26.664 42.662,-26.664 z m 79.991,69.327 h -31.996 v -47.996 c 0,-5.333 -10.666,-5.333 -10.666,0 v 47.996 H 593.288 V 131.524 h 26.664 v 26.664 c 10.666,-10.666 42.662,-5.333 42.662,15.998 z m 26.664,0 c -10.666,0 -21.331,-10.666 -21.331,-26.664 0,-18.175 15.998,-21.332 21.331,-21.263 1.942,0.026 9.087,-0.069 10.666,-0.069 10.666,0 5.333,-10.666 0,-10.666 -5.333,0 -21.332,0 -21.332,0 v -21.331 h 42.662 c 10.666,0 14.665,10.666 14.665,21.331 0,10.666 1.332,58.66 1.332,58.66 h -47.993 z m 133.086,-35.66 -28.041,-0.027 c -2.259,-4.155 -6.661,-6.976 -11.722,-6.976 -7.362,0 -13.332,5.968 -13.332,13.332 0,7.364 5.969,13.332 13.332,13.332 5.137,0 9.596,-2.906 11.821,-7.164 l 24.47,-0.002 c -6.354,13.68 -20.216,23.164 -36.291,23.164 -22.09,0 -39.996,-17.906 -39.996,-39.994 0,-22.089 17.906,-39.997 39.996,-39.997 22.088,0 39.995,17.906 39.995,39.997 10e-4,1.463 -0.078,2.911 -0.232,4.335 z m 42.895,35.66 -10.666,-31.998 h -5.333 v 31.998 H 827.929 V 131.524 h 21.331 v 42.663 h 5.333 l 10.666,-15.998 h 26.664 l -15.999,26.664 21.332,47.995 z M 158.67,168.854 c -7.363,0 -13.332,5.969 -13.332,13.332 0,7.362 5.969,13.332 13.332,13.332 7.363,0 13.332,-5.969 13.332,-13.332 0,-7.363 -5.968,-13.332 -13.332,-13.332 z"
         transform="matrix(0.11203998,0,0,0.11203998,-3.30518,-3.417219)"
         id="path4" />
      <path
         d="m 109.39987,20.604152 h 26.88691 v 5.974868 h -26.88691 z"
         stroke-width="0.11204"
         id="path5" />
      <path
         d="m 138.67636,20.604152 h 26.88669 v 5.974868 h -26.88669 z"
         stroke-width="0.11204"
         id="path6" />
      <path
         d="m 167.95297,20.604152 h 26.8868 v 5.974868 h -26.8868 z"
         stroke-width="0.11204"
         id="path7" />
      <g
         transform="matrix(0.11203998,0,0,0.11203998,-3.30518,-3.417219)"
         id="g13">
        <path
           d="m 1138.662,110.022 h 78.117 v 15.623 h -31.247 v 54.681 h -15.623 v -54.681 h -31.247 z"
           id="path8" />
        <path
           d="m 1251.73,152.986 v 27.34 h -15.623 v -70.304 h 54.683 c 15.624,0 23.435,7.135 23.435,21.403 0,6.771 -1.119,11.745 -3.357,14.92 2.238,3.698 3.357,8.515 3.357,14.452 v 19.529 h -15.621 v -19.529 c 0,-5.207 -2.605,-7.812 -7.813,-7.812 z m 0,-15.623 h 46.871 v -11.718 h -46.871 z"
           id="path9" />
        <path
           d="m 1429.225,152.986 v -11.718 h 26.99 v 11.718 z"
           id="path10" />
        <path
           d="m 1551.415,125.646 h -62.024 v 11.718 h 39.06 c 15.623,0 23.434,7.161 23.434,21.48 0,14.322 -7.812,21.482 -23.434,21.482 h -31.246 c -13.229,0 -20.857,-5.207 -22.89,-15.623 h 61.946 v -11.718 h -39.058 c -15.625,0 -23.436,-7.056 -23.436,-21.17 0,-14.529 7.811,-21.794 23.436,-21.794 h 31.246 c 13.332,0.001 20.987,5.21 22.966,15.625 z m -77.101,39.058 c -0.366,-1.875 -0.547,-3.932 -0.547,-6.171 0,-5.52 1.196,-9.973 3.592,-13.358 3.75,5.209 10.363,7.812 19.844,7.812 h -7.813 v 11.718 z m 73.899,-19.53 c 2.446,-3.437 3.67,-7.993 3.67,-13.67 0,-2.083 -0.154,-4.036 -0.468,-5.859 h -15.154 v 11.718 h -7.812 c 9.425,0 16.014,2.605 19.764,7.811 z"
           id="path11" />
        <path
           d="m 1564.496,156.892 v -23.435 c 0,-15.623 7.813,-23.435 23.436,-23.435 h 23.436 c 15.624,0 23.436,7.812 23.436,23.435 v 23.435 c 0,15.624 -7.812,23.435 -23.436,23.435 h -23.436 c -15.623,0 -23.436,-7.811 -23.436,-23.435 z m 46.87,7.812 c 5.207,0 7.813,-2.604 7.813,-7.812 v -23.435 c 0,-5.207 -2.604,-7.812 -7.813,-7.812 h -23.436 c -5.209,0 -7.812,2.604 -7.812,7.812 v 23.435 c 0,5.208 2.603,7.812 7.812,7.812 z"
           id="path12" />
        <path
           d="m 1330.756,156.989 h 20.17 c 0,5.042 2.836,8.51 6.776,8.51 h 36.323 c 2.839,0 3.783,-2.049 3.783,-4.886 0,-2.836 1.26,-8.982 -4.412,-8.982 -5.673,0 -38.847,0 -44.362,0 -5.515,0 -18.438,-4.57 -18.438,-20.013 0,-15.443 10.084,-21.116 17.177,-21.116 h 53.576 c 6.461,0 12.449,2.994 12.449,19.541 -4.729,0 -19.066,0 -19.066,0 0,-3.625 -1.892,-6.184 -8.509,-6.184 -6.619,0 -23.721,0 -28.446,0 -4.729,0 -6.462,0.353 -6.462,7.759 0,7.406 4.255,6.814 7.406,6.814 h 44.992 c 7.721,0 14.969,7.841 14.969,19.975 0,12.133 -5.829,22.458 -18.276,22.458 -12.449,0 -47.117,0 -53.421,0 -6.304,0 -16.229,-3.075 -16.229,-23.876 z"
           id="path13" />
      </g>
    </g>
    <path
       d="m 314.505,207.665 c 0,7.362 5.969,13.332 13.332,13.332 7.363,0 13.332,-5.97 13.332,-13.332 0,-7.363 -5.969,-13.332 -13.332,-13.332 -7.363,0 -13.332,5.969 -13.332,13.332 z M 450.49,194.333 c -7.363,0 -13.332,5.969 -13.332,13.332 0,7.362 5.969,13.332 13.332,13.332 7.363,0 13.332,-5.97 13.332,-13.332 0,-7.363 -5.968,-13.332 -13.332,-13.332 z m 250.638,0 c -7.363,0 -13.332,5.969 -13.332,13.332 0,7.362 5.969,13.332 13.332,13.332 7.363,0 13.332,-5.97 13.332,-13.332 0,-7.363 -5.969,-13.332 -13.332,-13.332 z M 162.522,173.002 c -7.363,0 -13.332,5.969 -13.332,13.332 0,7.361 5.969,13.332 13.332,13.332 7.363,0 13.332,-5.969 13.332,-13.332 0,-7.363 -5.969,-13.332 -13.332,-13.332 z m 74.658,21.331 c -7.363,0 -13.332,5.969 -13.332,13.332 0,7.362 5.969,13.332 13.332,13.332 7.363,0 13.332,-5.97 13.332,-13.332 0,-7.363 -5.969,-13.332 -13.332,-13.332 z M 918.29,66.347 H 89.345 c -14.071,0 -25.479,11.408 -25.479,25.479 v 199.681 c 0,14.071 11.407,25.479 25.479,25.479 H 918.29 c 14.071,0 25.479,-11.407 25.479,-25.479 V 91.826 C 943.77,77.754 932.361,66.347 918.29,66.347 Z M 175.854,236.994 159.856,210.331 v 26.663 H 127.859 V 135.672 h 47.994 c 15.999,0 31.997,10.666 31.997,31.997 0,21.331 -15.998,26.664 -21.331,26.664 l 26.664,42.662 z m 53.327,0 c -10.665,0 -21.331,-10.665 -21.331,-26.663 0,-18.174 15.999,-21.332 21.331,-21.262 1.944,0.025 9.087,-0.069 10.666,-0.069 10.666,0 5.333,-10.665 0,-10.665 -5.333,0 -21.331,0 -21.331,0 v -21.331 h 42.662 c 10.665,0 14.665,10.666 14.665,21.331 0,10.665 1.333,58.66 1.333,58.66 z m 138.651,0 c 0,0 -21.331,0 -42.661,0 -31.997,0 -37.33,-26.663 -37.33,-42.662 0,-9.808 5.333,-37.329 37.33,-37.329 h 10.665 v -21.331 h 31.996 z m 37.33,0 h -26.664 v -79.991 h 26.664 z m 45.328,0 c -22.089,0 -39.996,-17.906 -39.996,-39.995 0,-22.089 17.907,-39.996 39.996,-39.996 22.089,0 39.996,17.907 39.996,39.996 0,22.089 -17.907,39.995 -39.996,39.995 z m 135.985,-69.325 c -10.666,0 -15.999,5.333 -15.999,15.998 v 21.331 c 0,21.331 -5.333,31.996 -47.995,31.996 0,-21.331 0,-31.996 0,-31.996 10.666,0 21.332,0 21.332,-15.999 0,-15.998 0,-15.998 0,-26.664 0,-10.665 5.334,-26.664 42.662,-26.664 z m 79.991,69.325 H 634.469 V 189 c 0,-5.333 -10.666,-5.333 -10.666,0 v 47.995 H 597.14 V 135.672 h 26.664 v 26.664 c 10.666,-10.665 42.662,-5.333 42.662,15.999 z m 26.663,0 c -10.665,0 -21.331,-10.665 -21.331,-26.663 0,-18.174 15.999,-21.332 21.331,-21.262 1.943,0.025 9.087,-0.069 10.666,-0.069 10.666,0 5.333,-10.665 0,-10.665 -5.333,0 -21.331,0 -21.331,0 v -21.331 h 42.662 c 10.666,0 14.665,10.666 14.665,21.331 0,10.665 1.333,58.66 1.333,58.66 z m 133.086,-35.658 -28.041,-0.027 c -2.258,-4.156 -6.661,-6.977 -11.723,-6.977 -7.362,0 -13.332,5.969 -13.332,13.332 0,7.361 5.969,13.332 13.332,13.332 5.137,0 9.596,-2.906 11.822,-7.164 l 24.47,-0.002 c -6.355,13.679 -20.216,23.164 -36.292,23.164 -22.088,0 -39.995,-17.906 -39.995,-39.995 0,-22.089 17.907,-39.996 39.995,-39.996 22.089,0 39.996,17.907 39.996,39.996 10e-4,1.466 -0.077,2.913 -0.232,4.337 z m 42.895,35.658 -10.666,-31.996 h -5.333 v 31.996 H 831.78 V 135.672 h 21.331 v 42.663 h 5.333 l 10.666,-15.999 h 26.663 L 879.775,189 l 21.33,47.995 z"
       fill="#e5e5e5"
       transform="matrix(0.11203998,0,0,0.11203998,-3.30518,-3.417219)"
       id="path14" />
    <path
       d="m 109.83134,21.068895 h 26.88679 v 5.974867 h -26.88679 z"
       fill="#e5e5e5"
       stroke-width="0.11204"
       id="path15" />
    <path
       d="m 139.10794,21.068895 h 26.8868 v 5.974867 h -26.8868 z"
       fill="#e5e5e5"
       stroke-width="0.11204"
       id="path16" />
    <path
       d="m 168.38444,21.068895 h 26.88657 v 5.974867 h -26.88657 z"
       fill="#e5e5e5"
       stroke-width="0.11204"
       id="path17" />
    <g
       fill="#e5e5e5"
       transform="matrix(0.11203998,0,0,0.11203998,-3.30518,-3.417219)"
       id="g23">
      <path
         d="m 1142.514,114.17 h 78.116 v 15.623 h -31.246 v 54.682 h -15.624 v -54.682 h -31.246 z"
         id="path18" />
      <path
         d="m 1255.583,157.134 v 27.341 h -15.622 V 114.17 h 54.68 c 15.625,0 23.437,7.135 23.437,21.403 0,6.771 -1.12,11.744 -3.357,14.92 2.237,3.698 3.357,8.515 3.357,14.451 v 19.529 h -15.623 v -19.529 c 0,-5.207 -2.604,-7.812 -7.813,-7.812 h -39.058 v 0.002 z m 0,-15.623 h 46.87 v -11.718 h -46.87 z"
         id="path19" />
      <path
         d="m 1433.076,157.134 v -11.717 h 26.988 v 11.717 z"
         id="path20" />
      <path
         d="m 1555.266,129.793 h -62.023 v 11.718 h 39.06 c 15.623,0 23.436,7.161 23.436,21.482 0,14.322 -7.813,21.482 -23.436,21.482 h -31.247 c -13.229,0 -20.855,-5.207 -22.888,-15.624 h 61.944 v -11.717 h -39.058 c -15.624,0 -23.435,-7.056 -23.435,-21.169 0,-14.53 7.811,-21.794 23.435,-21.794 h 31.247 c 13.331,-0.001 20.986,5.207 22.965,15.622 z m -77.1,39.058 c -0.366,-1.875 -0.547,-3.931 -0.547,-6.17 0,-5.52 1.195,-9.973 3.593,-13.358 3.75,5.208 10.363,7.812 19.843,7.812 h -7.813 v 11.717 z m 73.898,-19.529 c 2.445,-3.438 3.67,-7.994 3.67,-13.67 0,-2.083 -0.155,-4.035 -0.469,-5.859 h -15.154 v 11.718 h -7.812 c 9.428,0 16.015,2.604 19.765,7.811 z"
         id="path21" />
      <path
         d="m 1568.348,161.04 v -23.435 c 0,-15.624 7.813,-23.435 23.437,-23.435 h 23.437 c 15.623,0 23.434,7.811 23.434,23.435 v 23.435 c 0,15.623 -7.812,23.435 -23.434,23.435 h -23.437 c -15.625,0 -23.437,-7.812 -23.437,-23.435 z m 46.871,7.811 c 5.206,0 7.812,-2.603 7.812,-7.811 v -23.435 c 0,-5.208 -2.604,-7.812 -7.812,-7.812 h -23.436 c -5.209,0 -7.813,2.604 -7.813,7.812 v 23.435 c 0,5.208 2.604,7.811 7.813,7.811 z"
         id="path22" />
      <path
         d="m 1334.605,161.137 h 20.172 c 0,5.042 2.836,8.509 6.774,8.509 h 36.325 c 2.837,0 3.782,-2.049 3.782,-4.886 0,-2.836 1.261,-8.981 -4.412,-8.981 -5.672,0 -38.846,0 -44.362,0 -5.516,0 -18.437,-4.57 -18.437,-20.013 0,-15.443 10.084,-21.116 17.177,-21.116 h 53.576 c 6.461,0 12.447,2.994 12.447,19.54 -4.727,0 -19.065,0 -19.065,0 0,-3.625 -1.892,-6.183 -8.509,-6.183 -6.618,0 -23.721,0 -28.447,0 -4.726,0 -6.46,0.353 -6.46,7.759 0,7.406 4.255,6.813 7.405,6.813 h 44.992 c 7.721,0 14.97,7.841 14.97,19.975 0,12.133 -5.83,22.458 -18.278,22.458 -12.449,0 -47.115,0 -53.42,0 -6.303,0 -16.23,-3.074 -16.23,-23.875 z"
         id="path23" />
    </g>
    <path
       d="m 313.024,205.889 c 0,7.362 5.969,13.331 13.331,13.331 7.363,0 13.332,-5.969 13.332,-13.331 0,-7.363 -5.969,-13.332 -13.332,-13.332 -7.362,0 -13.331,5.968 -13.331,13.332 z m 386.622,-13.332 c -7.361,0 -13.332,5.969 -13.332,13.332 0,7.362 5.97,13.331 13.332,13.331 7.363,0 13.332,-5.969 13.332,-13.331 0.001,-7.364 -5.968,-13.332 -13.332,-13.332 z m -463.947,0 c -7.363,0 -13.332,5.969 -13.332,13.332 0,7.362 5.969,13.331 13.332,13.331 7.363,0 13.332,-5.969 13.332,-13.331 0,-7.364 -5.969,-13.332 -13.332,-13.332 z M 916.809,64.57 H 87.864 c -14.071,0 -25.479,11.408 -25.479,25.479 V 289.73 c 0,14.071 11.407,25.479 25.479,25.479 h 828.944 c 14.071,0 25.479,-11.406 25.479,-25.479 V 90.049 C 942.287,75.978 930.88,64.57 916.809,64.57 Z M 174.373,235.219 158.374,208.555 v 26.664 H 126.377 V 133.896 h 47.995 c 15.998,0 31.996,10.666 31.996,31.997 0,21.331 -15.998,26.664 -21.331,26.664 l 26.664,42.663 z m 53.327,0 c -10.666,0 -21.331,-10.666 -21.331,-26.664 0,-18.174 15.998,-21.331 21.331,-21.262 1.943,0.025 9.087,-0.069 10.666,-0.069 10.665,0 5.333,-10.666 0,-10.666 -5.333,0 -21.331,0 -21.331,0 v -21.332 h 42.662 c 10.666,0 14.665,10.666 14.665,21.332 0,10.666 1.333,58.661 1.333,58.661 z m 138.652,0 c 0,0 -21.332,0 -42.661,0 -31.998,0 -37.33,-26.664 -37.33,-42.662 0,-9.81 5.333,-37.331 37.33,-37.331 h 10.666 v -21.331 h 31.997 v 101.324 z m 37.329,0 h -26.664 v -79.992 h 26.664 z m 45.328,0 c -22.089,0 -39.996,-17.906 -39.996,-39.996 0,-22.089 17.907,-39.996 39.996,-39.996 22.089,0 39.996,17.907 39.996,39.996 0,22.09 -17.907,39.996 -39.996,39.996 z m 135.985,-69.326 c -10.666,0 -15.999,5.333 -15.999,15.999 v 21.331 c 0,21.331 -5.332,31.997 -47.994,31.997 0,-21.331 0,-31.997 0,-31.997 10.666,0 21.331,0 21.331,-15.998 0,-15.999 0,-15.999 0,-26.664 0,-10.665 5.333,-26.664 42.662,-26.664 z m 79.99,69.326 h -31.996 v -47.995 c 0,-5.333 -10.666,-5.333 -10.666,0 v 47.995 H 595.658 V 133.896 h 26.664 v 26.664 c 10.666,-10.665 42.662,-5.333 42.662,15.999 z m 26.664,0 c -10.666,0 -21.331,-10.666 -21.331,-26.664 0,-18.174 15.999,-21.331 21.331,-21.262 1.942,0.025 9.087,-0.069 10.666,-0.069 10.666,0 5.332,-10.666 0,-10.666 -5.334,0 -21.331,0 -21.331,0 v -21.332 h 42.661 c 10.666,0 14.666,10.666 14.666,21.332 0,10.666 1.332,58.661 1.332,58.661 z m 133.086,-35.658 -28.041,-0.028 c -2.258,-4.155 -6.661,-6.976 -11.723,-6.976 -7.362,0 -13.332,5.969 -13.332,13.332 0,7.362 5.97,13.331 13.332,13.331 5.138,0 9.597,-2.905 11.822,-7.163 l 24.47,-0.002 c -6.354,13.678 -20.216,23.164 -36.292,23.164 -22.089,0 -39.996,-17.906 -39.996,-39.996 0,-22.089 17.906,-39.996 39.996,-39.996 22.088,0 39.996,17.907 39.996,39.996 10e-4,1.465 -0.078,2.912 -0.232,4.338 z m 42.895,35.658 -10.666,-31.996 h -5.333 v 31.996 H 830.3 V 133.896 h 21.331 v 42.663 h 5.333 L 867.63,160.56 h 26.664 l -15.999,26.664 21.331,47.995 z M 161.041,171.225 c -7.363,0 -13.332,5.969 -13.332,13.332 0,7.363 5.969,13.332 13.332,13.332 7.362,0 13.332,-5.969 13.332,-13.332 0,-7.363 -5.97,-13.332 -13.332,-13.332 z m 287.968,21.332 c -7.362,0 -13.332,5.969 -13.332,13.332 0,7.362 5.97,13.331 13.332,13.331 7.363,0 13.332,-5.969 13.332,-13.331 0,-7.364 -5.969,-13.332 -13.332,-13.332 z"
       transform="matrix(0.11203998,0,0,0.11203998,-3.30518,-3.417219)"
       id="path24"
       style="fill:#ffffff" />
    <path
       d="m 109.66552,20.869799 h 26.88679 v 5.974868 h -26.88679 z"
       fill="#ce2027"
       stroke-width="0.11204"
       id="path25"
       style="fill:#ffffff" />
    <path
       d="m 138.94189,20.869799 h 26.88668 v 5.974868 h -26.88668 z"
       fill="#0f7c3e"
       stroke-width="0.11204"
       id="path26"
       style="fill:#ececec" />
    <path
       d="m 168.21851,20.869799 h 26.88668 v 5.974868 h -26.88668 z"
       fill="#233d98"
       stroke-width="0.11204"
       id="path27"
       style="fill:#b3b3b3" />
    <g
       transform="matrix(0.11203998,0,0,0.11203998,-3.30518,-3.417219)"
       id="g33"
       style="fill:#ffffff">
      <path
         d="m 1141.032,112.394 h 78.116 v 15.623 h -31.246 v 54.682 h -15.624 v -54.682 h -31.246 z"
         id="path28"
         style="fill:#ffffff" />
      <path
         d="m 1254.104,155.357 v 27.341 h -15.623 v -70.305 h 54.681 c 15.624,0 23.436,7.135 23.436,21.404 0,6.771 -1.12,11.744 -3.358,14.92 2.238,3.698 3.358,8.515 3.358,14.452 v 19.529 h -15.623 v -19.529 c 0,-5.208 -2.604,-7.812 -7.813,-7.812 z m 0,-15.623 h 46.869 v -11.718 h -46.869 z"
         id="path29"
         style="fill:#ffffff" />
      <path
         d="M 1431.596,155.357 V 143.64 h 26.988 v 11.717 z"
         id="path30"
         style="fill:#ffffff" />
      <path
         d="m 1553.785,128.017 h -62.025 v 11.718 h 39.061 c 15.623,0 23.435,7.161 23.435,21.482 0,14.322 -7.812,21.482 -23.435,21.482 h -31.247 c -13.228,0 -20.856,-5.207 -22.888,-15.624 h 61.945 v -11.717 h -39.059 c -15.623,0 -23.436,-7.056 -23.436,-21.169 0,-14.53 7.813,-21.794 23.436,-21.794 h 31.247 c 13.331,-10e-4 20.988,5.207 22.966,15.622 z m -77.099,39.058 c -0.366,-1.875 -0.547,-3.931 -0.547,-6.171 0,-5.52 1.196,-9.972 3.592,-13.358 3.75,5.208 10.363,7.812 19.843,7.812 h -7.813 v 11.717 z m 73.897,-19.529 c 2.446,-3.437 3.671,-7.993 3.671,-13.67 0,-2.083 -0.156,-4.036 -0.469,-5.859 h -15.154 v 11.718 h -7.813 c 9.427,-0.001 16.015,2.603 19.765,7.811 z"
         id="path31"
         style="fill:#ffffff" />
      <path
         d="m 1566.867,159.264 v -23.435 c 0,-15.624 7.812,-23.435 23.435,-23.435 h 23.437 c 15.623,0 23.435,7.812 23.435,23.435 v 23.435 c 0,15.623 -7.812,23.435 -23.435,23.435 h -23.437 c -15.623,-0.001 -23.435,-7.812 -23.435,-23.435 z m 46.87,7.811 c 5.204,0 7.811,-2.603 7.811,-7.811 v -23.435 c 0,-5.208 -2.604,-7.812 -7.811,-7.812 H 1590.3 c -5.209,0 -7.812,2.604 -7.812,7.812 v 23.435 c 0,5.208 2.603,7.811 7.812,7.811 z"
         id="path32"
         style="fill:#ffffff" />
      <path
         d="m 1333.125,159.36 h 20.171 c 0,5.042 2.837,8.51 6.775,8.51 h 36.327 c 2.836,0 3.781,-2.049 3.781,-4.886 0,-2.836 1.26,-8.981 -4.412,-8.981 -5.674,0 -38.848,0 -44.363,0 -5.515,0 -18.437,-4.57 -18.437,-20.013 0,-15.443 10.085,-21.116 17.177,-21.116 h 53.576 c 6.461,0 12.447,2.994 12.447,19.54 -4.727,0 -19.064,0 -19.064,0 0,-3.624 -1.893,-6.183 -8.511,-6.183 -6.616,0 -23.719,0 -28.445,0 -4.728,0 -6.46,0.353 -6.46,7.759 0,7.406 4.254,6.813 7.404,6.813 h 44.992 c 7.721,0 14.971,7.841 14.971,19.975 0,12.133 -5.832,22.458 -18.278,22.458 -12.449,0 -47.116,0 -53.421,0 -6.301,0.001 -16.23,-3.075 -16.23,-23.876 z"
         id="path33"
         style="fill:#ffffff" />
    </g>
    <path
       d="m 313.024,205.889 c 0,7.362 5.969,13.331 13.331,13.331 7.363,0 13.332,-5.969 13.332,-13.331 0,-7.363 -5.969,-13.332 -13.332,-13.332 -7.362,0 -13.331,5.968 -13.331,13.332 z m 386.622,-13.332 c -7.361,0 -13.332,5.969 -13.332,13.332 0,7.362 5.97,13.331 13.332,13.331 7.363,0 13.332,-5.969 13.332,-13.331 0.001,-7.364 -5.968,-13.332 -13.332,-13.332 z m -463.947,0 c -7.363,0 -13.332,5.969 -13.332,13.332 0,7.362 5.969,13.331 13.332,13.331 7.363,0 13.332,-5.969 13.332,-13.331 0,-7.364 -5.969,-13.332 -13.332,-13.332 z M 916.809,64.57 H 87.864 c -14.071,0 -25.479,11.408 -25.479,25.479 V 289.73 c 0,14.071 11.407,25.479 25.479,25.479 h 828.944 c 14.071,0 25.479,-11.406 25.479,-25.479 V 90.049 C 942.287,75.978 930.88,64.57 916.809,64.57 Z M 174.373,235.219 158.374,208.555 v 26.664 H 126.377 V 133.896 h 47.995 c 15.998,0 31.996,10.666 31.996,31.997 0,21.331 -15.998,26.664 -21.331,26.664 l 26.664,42.663 z m 53.327,0 c -10.666,0 -21.331,-10.666 -21.331,-26.664 0,-18.174 15.998,-21.331 21.331,-21.262 1.943,0.025 9.087,-0.069 10.666,-0.069 10.665,0 5.333,-10.666 0,-10.666 -5.333,0 -21.331,0 -21.331,0 v -21.332 h 42.662 c 10.666,0 14.665,10.666 14.665,21.332 0,10.666 1.333,58.661 1.333,58.661 z m 138.652,0 c 0,0 -21.332,0 -42.661,0 -31.998,0 -37.33,-26.664 -37.33,-42.662 0,-9.81 5.333,-37.331 37.33,-37.331 h 10.666 v -21.331 h 31.997 v 101.324 z m 37.329,0 h -26.664 v -79.992 h 26.664 z m 45.328,0 c -22.089,0 -39.996,-17.906 -39.996,-39.996 0,-22.089 17.907,-39.996 39.996,-39.996 22.089,0 39.996,17.907 39.996,39.996 0,22.09 -17.907,39.996 -39.996,39.996 z m 135.985,-69.326 c -10.666,0 -15.999,5.333 -15.999,15.999 v 21.331 c 0,21.331 -5.332,31.997 -47.994,31.997 0,-21.331 0,-31.997 0,-31.997 10.666,0 21.331,0 21.331,-15.998 0,-15.999 0,-15.999 0,-26.664 0,-10.665 5.333,-26.664 42.662,-26.664 z m 79.99,69.326 h -31.996 v -47.995 c 0,-5.333 -10.666,-5.333 -10.666,0 v 47.995 H 595.658 V 133.896 h 26.664 v 26.664 c 10.666,-10.665 42.662,-5.333 42.662,15.999 z m 26.664,0 c -10.666,0 -21.331,-10.666 -21.331,-26.664 0,-18.174 15.999,-21.331 21.331,-21.262 1.942,0.025 9.087,-0.069 10.666,-0.069 10.666,0 5.332,-10.666 0,-10.666 -5.334,0 -21.331,0 -21.331,0 v -21.332 h 42.661 c 10.666,0 14.666,10.666 14.666,21.332 0,10.666 1.332,58.661 1.332,58.661 z m 133.086,-35.658 -28.041,-0.028 c -2.258,-4.155 -6.661,-6.976 -11.723,-6.976 -7.362,0 -13.332,5.969 -13.332,13.332 0,7.362 5.97,13.331 13.332,13.331 5.138,0 9.597,-2.905 11.822,-7.163 l 24.47,-0.002 c -6.354,13.678 -20.216,23.164 -36.292,23.164 -22.089,0 -39.996,-17.906 -39.996,-39.996 0,-22.089 17.906,-39.996 39.996,-39.996 22.088,0 39.996,17.907 39.996,39.996 10e-4,1.465 -0.078,2.912 -0.232,4.338 z m 42.895,35.658 -10.666,-31.996 h -5.333 v 31.996 H 830.3 V 133.896 h 21.331 v 42.663 h 5.333 L 867.63,160.56 h 26.664 l -15.999,26.664 21.331,47.995 z M 161.041,171.225 c -7.363,0 -13.332,5.969 -13.332,13.332 0,7.363 5.969,13.332 13.332,13.332 7.362,0 13.332,-5.969 13.332,-13.332 0,-7.363 -5.97,-13.332 -13.332,-13.332 z m 287.968,21.332 c -7.362,0 -13.332,5.969 -13.332,13.332 0,7.362 5.97,13.331 13.332,13.331 7.363,0 13.332,-5.969 13.332,-13.331 0,-7.364 -5.969,-13.332 -13.332,-13.332 z"
       transform="matrix(0.11203998,0,0,0.11203998,195.66345,-3.574773)"
       id="path34"
       style="fill:#ffffff" />
    <path
       d="m 203.62372,7.32922 h 95.96226 v 21.057552 h -95.96226 z"
       fill-rule="evenodd"
       id="path35"
       style="fill:#ffffff" />
    <path
       d="m 252.24986,25.874089 v -4.189004 h 0.89765 c 0.4937,0 0.89764,0.131768 0.89764,0.2928 0,0.180591 0.27793,0.166173 0.72515,-0.03755 0.96515,-0.439746 2.78088,-0.0746 3.16101,0.635649 0.16656,0.311242 0.30285,1.361742 0.30285,2.334461 0,1.328723 -0.13512,1.890875 -0.54326,2.26024 -0.7423,0.67176 -2.24171,0.929897 -3.01076,0.518311 -0.60379,-0.323144 -0.63499,-0.273156 -0.63499,1.017161 0,1.308281 -0.0322,1.356993 -0.89764,1.356993 h -0.89765 z m 4.12916,0.239376 c 0.80935,-0.809332 0.15061,-3.231523 -0.87884,-3.231523 -0.94896,0 -1.45503,0.662766 -1.45503,1.905561 0,0.707331 0.0897,1.375828 0.19949,1.485546 0.33058,0.33058 1.75037,0.224432 2.13438,-0.159584 z m -30.93322,1.533448 c -1.68369,-0.488863 -2.07016,-1.238795 -2.07016,-4.016928 0,-2.881877 0.37923,-3.537244 2.35461,-4.069162 1.42294,-0.383157 3.17111,0.02 4.09565,0.944547 1.31086,1.310858 0.0789,2.068618 -1.43157,0.880498 -0.94946,-0.74684 -2.22771,-0.769601 -2.87782,-0.05117 -0.72457,0.800645 -0.68905,3.972069 0.052,4.642701 0.75262,0.681122 2.23171,0.628361 2.89379,-0.103191 0.6495,-0.717699 1.94489,-0.807835 1.94489,-0.135327 0,0.682693 -1.36727,1.83004 -2.43537,2.043674 -1.11411,0.222811 -1.33219,0.211118 -2.52601,-0.135523 z m 8.07311,-0.08994 c -1.10387,-0.499133 -1.31644,-0.962732 -1.31644,-2.871042 0,-2.190521 0.67996,-2.851226 2.93429,-2.851226 2.5192,0 3.05,0.527612 3.05,3.03162 0,1.679756 -0.0824,1.945685 -0.73663,2.374302 -1.02337,0.670533 -2.82697,0.815675 -3.93122,0.316346 z m 2.81272,-1.443497 c 0.6576,-0.6576 0.43431,-2.270767 -0.38897,-2.810207 -0.69295,-0.45404 -0.80314,-0.45404 -1.49609,0 -0.80182,0.525367 -0.97998,1.578345 -0.43828,2.5905 0.35104,0.655944 1.75441,0.788657 2.32334,0.219707 z m 25.16232,1.532872 c -1.07508,-0.409856 -1.4645,-1.441828 -1.4645,-3.880829 v -2.080422 h 0.88453 0.88454 l 0.0879,2.137968 c 0.0976,2.371308 0.46711,2.882011 1.83689,2.538229 0.77109,-0.193535 0.79435,-0.264897 0.79435,-2.437786 v -2.238411 h 0.89765 0.89764 v 3.00427 3.00427 l -1.12206,-0.04331 c -0.61712,-0.02393 -1.526,0.03239 -2.0197,0.124983 -0.4937,0.09252 -1.24848,0.03448 -1.67725,-0.128946 z m 12.97857,0.124455 c -1.11076,-0.235474 -1.87605,-1.503055 -1.87605,-3.107314 0,-1.228513 0.12923,-1.537865 0.92061,-2.20376 1.74298,-1.466626 4.4826,-0.790669 5.04809,1.245544 0.17131,0.616876 0.31222,1.217126 0.31314,1.333888 6.9e-4,0.116811 -1.10024,0.251425 -2.44701,0.299217 -2.38567,0.08466 -2.43435,0.101228 -1.89199,0.642054 0.44915,0.44793 0.82756,0.519219 1.95914,0.36912 1.03616,-0.137449 1.4963,-0.07301 1.76171,0.246824 0.28846,0.347561 0.24491,0.494041 -0.22103,0.743405 -0.71819,0.384359 -2.67256,0.620545 -3.56661,0.431022 z m 2.42553,-4.129408 c -0.23753,-0.618999 -1.17879,-0.8504 -1.89655,-0.466274 -0.99675,0.533428 -0.69875,0.903701 0.72733,0.903701 1.0501,0 1.30105,-0.09387 1.16922,-0.437427 z m -36.91599,1.035849 v -2.992147 h 0.89763 c 0.49371,0 0.89766,0.139387 0.89766,0.309745 0,0.21351 0.1798,0.21351 0.57875,0 0.78934,-0.422446 1.81151,-0.38593 2.73855,0.09779 0.6502,0.339291 0.86273,0.338996 1.32886,-0.0012 0.90062,-0.658546 2.4654,-0.50252 3.29663,0.328702 0.64999,0.650005 0.73444,0.994032 0.73444,2.992159 v 2.257724 h -0.88454 -0.88454 l -0.0879,-2.136066 c -0.0785,-1.90874 -0.16032,-2.16273 -0.76819,-2.38667 -1.16658,-0.429795 -1.86306,0.589833 -1.86306,2.727446 0,1.715498 -0.0333,1.79529 -0.74803,1.79529 -0.71764,0 -0.74823,-0.07607 -0.75262,-1.870101 -0.006,-2.473934 -0.52612,-3.14194 -2.01512,-2.588451 -0.61062,0.226972 -0.67323,0.445943 -0.67323,2.3544 v 2.104152 h -0.89766 -0.89764 z m 28.78445,2.633089 c -0.20326,-0.203278 -0.35904,-1.176905 -0.35904,-2.244104 0,-1.476123 -0.0974,-1.885059 -0.44883,-1.885059 -0.27927,0 -0.44881,-0.282579 -0.44881,-0.74803 0,-0.465452 0.16954,-0.748043 0.44881,-0.748043 0.27927,0 0.44883,-0.282592 0.44883,-0.748031 0,-0.631686 0.13963,-0.748043 0.89764,-0.748043 0.758,0 0.89763,0.11632 0.89763,0.748043 0,0.465439 0.16958,0.748031 0.44883,0.748031 0.27927,0 0.44883,0.282591 0.44883,0.748043 0,0.465451 -0.16956,0.74803 -0.44883,0.74803 -0.34455,0 -0.44883,0.382322 -0.44883,1.645682 0,1.263348 0.1043,1.645683 0.44883,1.645683 0.24934,0 0.44883,0.265965 0.44883,0.598422 0,0.477537 -0.19949,0.598434 -0.98741,0.598434 -0.54307,0 -1.14899,-0.161572 -1.34648,-0.359058 z m 11.60954,-2.633089 v -2.992147 h 0.89764 c 0.49371,0 0.89766,0.122945 0.89766,0.273229 0,0.154038 0.36855,0.134099 0.84487,-0.04577 0.98148,-0.370457 2.44649,-0.09117 2.44649,0.466359 0,0.674582 -0.63609,1.072119 -1.30965,0.818522 -0.34939,-0.131547 -0.93821,-0.12605 -1.30848,0.01227 -0.61052,0.227965 -0.67323,0.447415 -0.67323,2.355529 v 2.104152 h -0.89766 -0.89764 z M 239.80812,13.883046 c -1.6837,-0.488875 -2.07017,-1.238795 -2.07017,-4.0169289 0,-2.8818764 0.37922,-3.5372437 2.3546,-4.0691563 1.42295,-0.383154 3.17113,0.019988 4.09566,0.9445491 1.31086,1.31085 0.0788,2.0685985 -1.43157,0.8804907 -0.94945,-0.7468405 -2.22771,-0.7696014 -2.87781,-0.051289 -0.72457,0.8006446 -0.68906,3.9720694 0.052,4.6426884 0.75262,0.681123 2.23171,0.628374 2.89379,-0.103191 0.64949,-0.717686 1.94489,-0.807822 1.94489,-0.135314 0,0.682693 -1.36726,1.83004 -2.43537,2.043674 -1.11411,0.222811 -1.33218,0.211118 -2.52601,-0.135523 z m 7.77389,-0.08994 c -1.10388,-0.499146 -1.31644,-0.962732 -1.31644,-2.871055 0,-2.1905086 0.67995,-2.8512134 2.9343,-2.8512134 2.51919,0 3.04999,0.5276117 3.04999,3.0316204 0,1.679744 -0.0824,1.945684 -0.73663,2.374289 -1.02337,0.670546 -2.82697,0.815688 -3.93122,0.316359 z m 2.81273,-1.443509 c 0.65759,-0.657588 0.4343,-2.270755 -0.389,-2.8102075 -0.69293,-0.4540283 -0.80312,-0.4540283 -1.49607,0 -0.80182,0.5253785 -0.97998,1.5783565 -0.43828,2.5905245 0.35104,0.655944 1.75439,0.788632 2.32335,0.219683 z m 9.45507,1.443509 c -1.10387,-0.499146 -1.31644,-0.962732 -1.31644,-2.871055 0,-2.1905086 0.67996,-2.8512134 2.9343,-2.8512134 2.5192,0 3.05,0.5276117 3.05,3.0316204 0,1.679744 -0.0825,1.945684 -0.73663,2.374289 -1.02337,0.670546 -2.82696,0.815688 -3.93123,0.316359 z m 2.81273,-1.443509 c 0.6576,-0.657588 0.43432,-2.270755 -0.38898,-2.8102075 -0.69294,-0.4540283 -0.80313,-0.4540283 -1.49607,0 -0.80184,0.5253785 -0.98,1.5783565 -0.4383,2.5905245 0.35105,0.655944 1.7544,0.788632 2.32335,0.219683 z m -8.00844,0.977161 c -0.17036,-0.318309 -0.30973,-2.136042 -0.30973,-4.0393951 v -3.460636 h 0.89764 0.89764 v 3.4409794 c 0,3.2414747 0.0347,3.4409607 0.59843,3.4409607 0.39896,0 0.59842,0.199474 0.59842,0.598435 0,0.497807 -0.19946,0.598422 -1.18632,0.598422 -0.86666,0 -1.26979,-0.155952 -1.49608,-0.578766 z m 11.65886,-2.413381 V 7.92123 h 0.89765 c 0.4937,0 0.89764,0.1229458 0.89764,0.2732292 0,0.1540381 0.36855,0.1341116 0.84488,-0.045767 0.98148,-0.370457 2.44647,-0.091166 2.44647,0.4663596 0,0.6745822 -0.63607,1.0721315 -1.30964,0.8185221 -0.34938,-0.1315471 -0.93819,-0.1260501 -1.30848,0.01227 -0.61052,0.2279651 -0.67323,0.4474147 -0.67323,2.3555291 v 2.104152 h -0.89764 -0.89765 z"
       fill="#d4d5d7"
       stroke-width="0.299216"
       id="path36" />
  </g>
</svg>
