<svg enable-background="new 0 0 1894 384" height="93.929741" viewBox="0 0 801.69653 93.929742" width="801.69653" xmlns="http://www.w3.org/2000/svg" xmlns:xlink="http://www.w3.org/1999/xlink"><linearGradient id="a" gradientUnits="userSpaceOnUse" x1="948.80573" x2="948.80573" y1="43.097698" y2="337.08301"><stop offset=".0045" stop-color="#e2e3e4"/><stop offset="1" stop-color="#b3b5b8"/></linearGradient><g transform="scale(2.629907)"><g transform="matrix(.16579854 0 0 .11203998 -4.891057 -3.417219)"><path d="m36.907001 37.907001h1823.796v303.966h-1823.796z" fill="url(#a)"/><path d="m29.5 349.279v-318.779h1838.607v311.372 7.407zm1831.203-7.407v-7.405zm-1816.391-7.405h1808.984v-289.154h-1808.984z"/></g><g fill="#807f7f"><path d="m697.277 190.185c-7.363 0-13.332 5.969-13.332 13.333 0 7.362 5.969 13.332 13.332 13.332 7.361 0 13.332-5.97 13.332-13.332 0-7.364-5.969-13.333-13.332-13.333zm-463.948 0c-7.362 0-13.332 5.969-13.332 13.333 0 7.362 5.97 13.332 13.332 13.332 7.363 0 13.333-5.97 13.333-13.332 0-7.364-5.97-13.333-13.333-13.333zm77.325 13.333c0 7.362 5.969 13.332 13.332 13.332 7.362 0 13.332-5.97 13.332-13.332 0-7.363-5.97-13.333-13.332-13.333-7.363 0-13.332 5.969-13.332 13.333zm135.985-13.333c-7.362 0-13.332 5.969-13.332 13.333 0 7.362 5.97 13.332 13.332 13.332 7.363 0 13.332-5.97 13.332-13.332 0-7.364-5.97-13.333-13.332-13.333zm467.799-127.986h-828.945c-14.071 0-25.479 11.407-25.479 25.479v199.682c0 14.07 11.408 25.479 25.479 25.479h828.944c14.071 0 25.479-11.406 25.479-25.479v-199.682c.001-14.072-11.406-25.479-25.478-25.479zm-742.436 170.649-15.999-26.664v26.664h-31.997v-101.324h47.995c15.998 0 31.997 10.666 31.997 31.997s-15.999 26.664-21.331 26.664l26.664 42.663zm53.328 0c-10.665 0-21.331-10.666-21.331-26.664 0-18.175 15.998-21.332 21.331-21.263 1.944.026 9.087-.069 10.666-.069 10.666 0 5.333-10.666 0-10.666s-21.331 0-21.331 0v-21.331h42.662c10.666 0 14.665 10.666 14.665 21.331 0 10.666 1.333 58.66 1.333 58.66h-47.995zm138.65 0s-21.33 0-42.661 0c-31.997 0-37.329-26.664-37.329-42.663 0-9.809 5.332-37.329 37.329-37.329h10.666v-21.332h31.997v101.324zm37.331 0h-26.664v-79.992h26.664zm45.328 0c-22.089 0-39.996-17.906-39.996-39.996 0-22.088 17.906-39.996 39.996-39.996s39.995 17.906 39.995 39.996c0 22.087-17.905 39.996-39.995 39.996zm135.984-69.327c-10.665 0-15.998 5.333-15.998 15.998v21.331c0 21.332-5.333 31.998-47.995 31.998 0-21.332 0-31.998 0-31.998 10.666 0 21.331 0 21.331-15.998s0-15.998 0-26.664 5.333-26.664 42.662-26.664zm79.991 69.327h-31.996v-47.996c0-5.333-10.666-5.333-10.666 0v47.996h-26.664v-101.324h26.664v26.664c10.666-10.666 42.662-5.333 42.662 15.998zm26.664 0c-10.666 0-21.331-10.666-21.331-26.664 0-18.175 15.998-21.332 21.331-21.263 1.942.026 9.087-.069 10.666-.069 10.666 0 5.333-10.666 0-10.666s-21.332 0-21.332 0v-21.331h42.662c10.666 0 14.665 10.666 14.665 21.331 0 10.666 1.332 58.66 1.332 58.66h-47.993zm133.086-35.66-28.041-.027c-2.259-4.155-6.661-6.976-11.722-6.976-7.362 0-13.332 5.968-13.332 13.332s5.969 13.332 13.332 13.332c5.137 0 9.596-2.906 11.821-7.164l24.47-.002c-6.354 13.68-20.216 23.164-36.291 23.164-22.09 0-39.996-17.906-39.996-39.994 0-22.089 17.906-39.997 39.996-39.997 22.088 0 39.995 17.906 39.995 39.997.001 1.463-.078 2.911-.232 4.335zm42.895 35.66-10.666-31.998h-5.333v31.998h-21.331v-101.324h21.331v42.663h5.333l10.666-15.998h26.664l-15.999 26.664 21.332 47.995zm-706.589-63.994c-7.363 0-13.332 5.969-13.332 13.332 0 7.362 5.969 13.332 13.332 13.332s13.332-5.969 13.332-13.332-5.968-13.332-13.332-13.332z" transform="matrix(.11203998 0 0 .11203998 -3.30518 -3.417219)"/><path d="m109.39986932128 20.6041515916h26.88690624048v5.9748679414h-26.88690624048z" stroke-width=".11203998"/><path d="m138.6763642552 20.6041515916h26.88668216052v5.9748679414h-26.88668216052z" stroke-width=".11203998"/><path d="m167.9529712291 20.6041515916h26.8867953209v5.9748679414h-26.8867953209z" stroke-width=".11203998"/><g transform="matrix(.11203998 0 0 .11203998 -3.30518 -3.417219)"><path d="m1138.662 110.022h78.117v15.623h-31.247v54.681h-15.623v-54.681h-31.247z"/><path d="m1251.73 152.986v27.34h-15.623v-70.304h54.683c15.624 0 23.435 7.135 23.435 21.403 0 6.771-1.119 11.745-3.357 14.92 2.238 3.698 3.357 8.515 3.357 14.452v19.529h-15.621v-19.529c0-5.207-2.605-7.812-7.813-7.812zm0-15.623h46.871v-11.718h-46.871z"/><path d="m1429.225 152.986v-11.718h26.99v11.718z"/><path d="m1551.415 125.646h-62.024v11.718h39.06c15.623 0 23.434 7.161 23.434 21.48 0 14.322-7.812 21.482-23.434 21.482h-31.246c-13.229 0-20.857-5.207-22.89-15.623h61.946v-11.718h-39.058c-15.625 0-23.436-7.056-23.436-21.17 0-14.529 7.811-21.794 23.436-21.794h31.246c13.332.001 20.987 5.21 22.966 15.625zm-77.101 39.058c-.366-1.875-.547-3.932-.547-6.171 0-5.52 1.196-9.973 3.592-13.358 3.75 5.209 10.363 7.812 19.844 7.812h-7.813v11.718zm73.899-19.53c2.446-3.437 3.67-7.993 3.67-13.67 0-2.083-.154-4.036-.468-5.859h-15.154v11.718h-7.812c9.425 0 16.014 2.605 19.764 7.811z"/><path d="m1564.496 156.892v-23.435c0-15.623 7.813-23.435 23.436-23.435h23.436c15.624 0 23.436 7.812 23.436 23.435v23.435c0 15.624-7.812 23.435-23.436 23.435h-23.436c-15.623 0-23.436-7.811-23.436-23.435zm46.87 7.812c5.207 0 7.813-2.604 7.813-7.812v-23.435c0-5.207-2.604-7.812-7.813-7.812h-23.436c-5.209 0-7.812 2.604-7.812 7.812v23.435c0 5.208 2.603 7.812 7.812 7.812z"/><path d="m1330.756 156.989h20.17c0 5.042 2.836 8.51 6.776 8.51h36.323c2.839 0 3.783-2.049 3.783-4.886 0-2.836 1.26-8.982-4.412-8.982-5.673 0-38.847 0-44.362 0s-18.438-4.57-18.438-20.013 10.084-21.116 17.177-21.116h53.576c6.461 0 12.449 2.994 12.449 19.541-4.729 0-19.066 0-19.066 0 0-3.625-1.892-6.184-8.509-6.184-6.619 0-23.721 0-28.446 0-4.729 0-6.462.353-6.462 7.759s4.255 6.814 7.406 6.814h44.992c7.721 0 14.969 7.841 14.969 19.975 0 12.133-5.829 22.458-18.276 22.458-12.449 0-47.117 0-53.421 0s-16.229-3.075-16.229-23.876z"/></g></g><path d="m314.505 207.665c0 7.362 5.969 13.332 13.332 13.332s13.332-5.97 13.332-13.332c0-7.363-5.969-13.332-13.332-13.332s-13.332 5.969-13.332 13.332zm135.985-13.332c-7.363 0-13.332 5.969-13.332 13.332 0 7.362 5.969 13.332 13.332 13.332s13.332-5.97 13.332-13.332c0-7.363-5.968-13.332-13.332-13.332zm250.638 0c-7.363 0-13.332 5.969-13.332 13.332 0 7.362 5.969 13.332 13.332 13.332s13.332-5.97 13.332-13.332c0-7.363-5.969-13.332-13.332-13.332zm-538.606-21.331c-7.363 0-13.332 5.969-13.332 13.332 0 7.361 5.969 13.332 13.332 13.332s13.332-5.969 13.332-13.332-5.969-13.332-13.332-13.332zm74.658 21.331c-7.363 0-13.332 5.969-13.332 13.332 0 7.362 5.969 13.332 13.332 13.332s13.332-5.97 13.332-13.332c0-7.363-5.969-13.332-13.332-13.332zm681.11-127.986h-828.945c-14.071 0-25.479 11.408-25.479 25.479v199.681c0 14.071 11.407 25.479 25.479 25.479h828.945c14.071 0 25.479-11.407 25.479-25.479v-199.681c.001-14.072-11.408-25.479-25.479-25.479zm-742.436 170.647-15.998-26.663v26.663h-31.997v-101.322h47.994c15.999 0 31.997 10.666 31.997 31.997s-15.998 26.664-21.331 26.664l26.664 42.662zm53.327 0c-10.665 0-21.331-10.665-21.331-26.663 0-18.174 15.999-21.332 21.331-21.262 1.944.025 9.087-.069 10.666-.069 10.666 0 5.333-10.665 0-10.665s-21.331 0-21.331 0v-21.331h42.662c10.665 0 14.665 10.666 14.665 21.331s1.333 58.66 1.333 58.66zm138.651 0s-21.331 0-42.661 0c-31.997 0-37.33-26.663-37.33-42.662 0-9.808 5.333-37.329 37.33-37.329h10.665v-21.331h31.996zm37.33 0h-26.664v-79.991h26.664zm45.328 0c-22.089 0-39.996-17.906-39.996-39.995s17.907-39.996 39.996-39.996 39.996 17.907 39.996 39.996-17.907 39.995-39.996 39.995zm135.985-69.325c-10.666 0-15.999 5.333-15.999 15.998v21.331c0 21.331-5.333 31.996-47.995 31.996 0-21.331 0-31.996 0-31.996 10.666 0 21.332 0 21.332-15.999 0-15.998 0-15.998 0-26.664 0-10.665 5.334-26.664 42.662-26.664zm79.991 69.325h-31.997v-47.994c0-5.333-10.666-5.333-10.666 0v47.995h-26.663v-101.323h26.664v26.664c10.666-10.665 42.662-5.333 42.662 15.999zm26.663 0c-10.665 0-21.331-10.665-21.331-26.663 0-18.174 15.999-21.332 21.331-21.262 1.943.025 9.087-.069 10.666-.069 10.666 0 5.333-10.665 0-10.665s-21.331 0-21.331 0v-21.331h42.662c10.666 0 14.665 10.666 14.665 21.331s1.333 58.66 1.333 58.66zm133.086-35.658-28.041-.027c-2.258-4.156-6.661-6.977-11.723-6.977-7.362 0-13.332 5.969-13.332 13.332 0 7.361 5.969 13.332 13.332 13.332 5.137 0 9.596-2.906 11.822-7.164l24.47-.002c-6.355 13.679-20.216 23.164-36.292 23.164-22.088 0-39.995-17.906-39.995-39.995s17.907-39.996 39.995-39.996c22.089 0 39.996 17.907 39.996 39.996.001 1.466-.077 2.913-.232 4.337zm42.895 35.658-10.666-31.996h-5.333v31.996h-21.331v-101.322h21.331v42.663h5.333l10.666-15.999h26.663l-15.998 26.664 21.33 47.995z" fill="#e5e5e5" transform="matrix(.11203998 0 0 .11203998 -3.30518 -3.417219)"/><path d="m109.83133528426 21.06889454904h26.8867953209v5.9748679414h-26.8867953209z" fill="#e5e5e5" stroke-width=".11203998"/><path d="m139.10794225816 21.06889454904h26.8867953209v5.9748679414h-26.8867953209z" fill="#e5e5e5" stroke-width=".11203998"/><path d="m168.38443719208 21.06889454904h26.88657124094v5.9748679414h-26.88657124094z" fill="#e5e5e5" stroke-width=".11203998"/><g fill="#e5e5e5" transform="matrix(.11203998 0 0 .11203998 -3.30518 -3.417219)"><path d="m1142.514 114.17h78.116v15.623h-31.246v54.682h-15.624v-54.682h-31.246z"/><path d="m1255.583 157.134v27.341h-15.622v-70.305h54.68c15.625 0 23.437 7.135 23.437 21.403 0 6.771-1.12 11.744-3.357 14.92 2.237 3.698 3.357 8.515 3.357 14.451v19.529h-15.623v-19.529c0-5.207-2.604-7.812-7.813-7.812h-39.058v.002zm0-15.623h46.87v-11.718h-46.87z"/><path d="m1433.076 157.134v-11.717h26.988v11.717z"/><path d="m1555.266 129.793h-62.023v11.718h39.06c15.623 0 23.436 7.161 23.436 21.482 0 14.322-7.813 21.482-23.436 21.482h-31.247c-13.229 0-20.855-5.207-22.888-15.624h61.944v-11.717h-39.058c-15.624 0-23.435-7.056-23.435-21.169 0-14.53 7.811-21.794 23.435-21.794h31.247c13.331-.001 20.986 5.207 22.965 15.622zm-77.1 39.058c-.366-1.875-.547-3.931-.547-6.17 0-5.52 1.195-9.973 3.593-13.358 3.75 5.208 10.363 7.812 19.843 7.812h-7.813v11.717zm73.898-19.529c2.445-3.438 3.67-7.994 3.67-13.67 0-2.083-.155-4.035-.469-5.859h-15.154v11.718h-7.812c9.428 0 16.015 2.604 19.765 7.811z"/><path d="m1568.348 161.04v-23.435c0-15.624 7.813-23.435 23.437-23.435h23.437c15.623 0 23.434 7.811 23.434 23.435v23.435c0 15.623-7.812 23.435-23.434 23.435h-23.437c-15.625 0-23.437-7.812-23.437-23.435zm46.871 7.811c5.206 0 7.812-2.603 7.812-7.811v-23.435c0-5.208-2.604-7.812-7.812-7.812h-23.436c-5.209 0-7.813 2.604-7.813 7.812v23.435c0 5.208 2.604 7.811 7.813 7.811z"/><path d="m1334.605 161.137h20.172c0 5.042 2.836 8.509 6.774 8.509h36.325c2.837 0 3.782-2.049 3.782-4.886 0-2.836 1.261-8.981-4.412-8.981-5.672 0-38.846 0-44.362 0s-18.437-4.57-18.437-20.013 10.084-21.116 17.177-21.116h53.576c6.461 0 12.447 2.994 12.447 19.54-4.727 0-19.065 0-19.065 0 0-3.625-1.892-6.183-8.509-6.183-6.618 0-23.721 0-28.447 0s-6.46.353-6.46 7.759 4.255 6.813 7.405 6.813h44.992c7.721 0 14.97 7.841 14.97 19.975 0 12.133-5.83 22.458-18.278 22.458-12.449 0-47.115 0-53.42 0-6.303 0-16.23-3.074-16.23-23.875z"/></g><path d="m313.024 205.889c0 7.362 5.969 13.331 13.331 13.331 7.363 0 13.332-5.969 13.332-13.331 0-7.363-5.969-13.332-13.332-13.332-7.362 0-13.331 5.968-13.331 13.332zm386.622-13.332c-7.361 0-13.332 5.969-13.332 13.332 0 7.362 5.97 13.331 13.332 13.331 7.363 0 13.332-5.969 13.332-13.331.001-7.364-5.968-13.332-13.332-13.332zm-463.947 0c-7.363 0-13.332 5.969-13.332 13.332 0 7.362 5.969 13.331 13.332 13.331s13.332-5.969 13.332-13.331c0-7.364-5.969-13.332-13.332-13.332zm681.11-127.987h-828.945c-14.071 0-25.479 11.408-25.479 25.479v199.681c0 14.071 11.407 25.479 25.479 25.479h828.944c14.071 0 25.479-11.406 25.479-25.479v-199.681c0-14.071-11.407-25.479-25.478-25.479zm-742.436 170.649-15.999-26.664v26.664h-31.997v-101.323h47.995c15.998 0 31.996 10.666 31.996 31.997s-15.998 26.664-21.331 26.664l26.664 42.663zm53.327 0c-10.666 0-21.331-10.666-21.331-26.664 0-18.174 15.998-21.331 21.331-21.262 1.943.025 9.087-.069 10.666-.069 10.665 0 5.333-10.666 0-10.666s-21.331 0-21.331 0v-21.332h42.662c10.666 0 14.665 10.666 14.665 21.332s1.333 58.661 1.333 58.661zm138.652 0s-21.332 0-42.661 0c-31.998 0-37.33-26.664-37.33-42.662 0-9.81 5.333-37.331 37.33-37.331h10.666v-21.331h31.997v101.324zm37.329 0h-26.664v-79.992h26.664zm45.328 0c-22.089 0-39.996-17.906-39.996-39.996 0-22.089 17.907-39.996 39.996-39.996s39.996 17.907 39.996 39.996c0 22.09-17.907 39.996-39.996 39.996zm135.985-69.326c-10.666 0-15.999 5.333-15.999 15.999v21.331c0 21.331-5.332 31.997-47.994 31.997 0-21.331 0-31.997 0-31.997 10.666 0 21.331 0 21.331-15.998 0-15.999 0-15.999 0-26.664s5.333-26.664 42.662-26.664zm79.99 69.326h-31.996v-47.995c0-5.333-10.666-5.333-10.666 0v47.995h-26.664v-101.323h26.664v26.664c10.666-10.665 42.662-5.333 42.662 15.999zm26.664 0c-10.666 0-21.331-10.666-21.331-26.664 0-18.174 15.999-21.331 21.331-21.262 1.942.025 9.087-.069 10.666-.069 10.666 0 5.332-10.666 0-10.666-5.334 0-21.331 0-21.331 0v-21.332h42.661c10.666 0 14.666 10.666 14.666 21.332s1.332 58.661 1.332 58.661zm133.086-35.658-28.041-.028c-2.258-4.155-6.661-6.976-11.723-6.976-7.362 0-13.332 5.969-13.332 13.332 0 7.362 5.97 13.331 13.332 13.331 5.138 0 9.597-2.905 11.822-7.163l24.47-.002c-6.354 13.678-20.216 23.164-36.292 23.164-22.089 0-39.996-17.906-39.996-39.996 0-22.089 17.906-39.996 39.996-39.996 22.088 0 39.996 17.907 39.996 39.996.001 1.465-.078 2.912-.232 4.338zm42.895 35.658-10.666-31.996h-5.333v31.996h-21.33v-101.323h21.331v42.663h5.333l10.666-15.999h26.664l-15.999 26.664 21.331 47.995zm-706.588-63.994c-7.363 0-13.332 5.969-13.332 13.332s5.969 13.332 13.332 13.332c7.362 0 13.332-5.969 13.332-13.332s-5.97-13.332-13.332-13.332zm287.968 21.332c-7.362 0-13.332 5.969-13.332 13.332 0 7.362 5.97 13.331 13.332 13.331 7.363 0 13.332-5.969 13.332-13.331 0-7.364-5.969-13.332-13.332-13.332z" transform="matrix(.11203998 0 0 .11203998 -3.30518 -3.417219)"/><path d="m109.66552 20.869799h26.886795v5.974868h-26.886795z" fill="#ce2027" stroke-width=".11204"/><path d="m138.94189 20.869799h26.886683v5.974868h-26.886683z" fill="#0f7c3e" stroke-width=".11204"/><path d="m168.21851 20.869799h26.886683v5.974868h-26.886683z" fill="#233d98" stroke-width=".11204"/><g transform="matrix(.11203998 0 0 .11203998 -3.30518 -3.417219)"><path d="m1141.032 112.394h78.116v15.623h-31.246v54.682h-15.624v-54.682h-31.246z"/><path d="m1254.104 155.357v27.341h-15.623v-70.305h54.681c15.624 0 23.436 7.135 23.436 21.404 0 6.771-1.12 11.744-3.358 14.92 2.238 3.698 3.358 8.515 3.358 14.452v19.529h-15.623v-19.529c0-5.208-2.604-7.812-7.813-7.812zm0-15.623h46.869v-11.718h-46.869z"/><path d="m1431.596 155.357v-11.717h26.988v11.717z"/><path d="m1553.785 128.017h-62.025v11.718h39.061c15.623 0 23.435 7.161 23.435 21.482 0 14.322-7.812 21.482-23.435 21.482h-31.247c-13.228 0-20.856-5.207-22.888-15.624h61.945v-11.717h-39.059c-15.623 0-23.436-7.056-23.436-21.169 0-14.53 7.813-21.794 23.436-21.794h31.247c13.331-.001 20.988 5.207 22.966 15.622zm-77.099 39.058c-.366-1.875-.547-3.931-.547-6.171 0-5.52 1.196-9.972 3.592-13.358 3.75 5.208 10.363 7.812 19.843 7.812h-7.813v11.717zm73.897-19.529c2.446-3.437 3.671-7.993 3.671-13.67 0-2.083-.156-4.036-.469-5.859h-15.154v11.718h-7.813c9.427-.001 16.015 2.603 19.765 7.811z"/><path d="m1566.867 159.264v-23.435c0-15.624 7.812-23.435 23.435-23.435h23.437c15.623 0 23.435 7.812 23.435 23.435v23.435c0 15.623-7.812 23.435-23.435 23.435h-23.437c-15.623-.001-23.435-7.812-23.435-23.435zm46.87 7.811c5.204 0 7.811-2.603 7.811-7.811v-23.435c0-5.208-2.604-7.812-7.811-7.812h-23.437c-5.209 0-7.812 2.604-7.812 7.812v23.435c0 5.208 2.603 7.811 7.812 7.811z"/><path d="m1333.125 159.36h20.171c0 5.042 2.837 8.51 6.775 8.51h36.327c2.836 0 3.781-2.049 3.781-4.886 0-2.836 1.26-8.981-4.412-8.981-5.674 0-38.848 0-44.363 0s-18.437-4.57-18.437-20.013 10.085-21.116 17.177-21.116h53.576c6.461 0 12.447 2.994 12.447 19.54-4.727 0-19.064 0-19.064 0 0-3.624-1.893-6.183-8.511-6.183-6.616 0-23.719 0-28.445 0-4.728 0-6.46.353-6.46 7.759s4.254 6.813 7.404 6.813h44.992c7.721 0 14.971 7.841 14.971 19.975 0 12.133-5.832 22.458-18.278 22.458-12.449 0-47.116 0-53.421 0-6.301.001-16.23-3.075-16.23-23.876z"/></g><path d="m313.024 205.889c0 7.362 5.969 13.331 13.331 13.331 7.363 0 13.332-5.969 13.332-13.331 0-7.363-5.969-13.332-13.332-13.332-7.362 0-13.331 5.968-13.331 13.332zm386.622-13.332c-7.361 0-13.332 5.969-13.332 13.332 0 7.362 5.97 13.331 13.332 13.331 7.363 0 13.332-5.969 13.332-13.331.001-7.364-5.968-13.332-13.332-13.332zm-463.947 0c-7.363 0-13.332 5.969-13.332 13.332 0 7.362 5.969 13.331 13.332 13.331s13.332-5.969 13.332-13.331c0-7.364-5.969-13.332-13.332-13.332zm681.11-127.987h-828.945c-14.071 0-25.479 11.408-25.479 25.479v199.681c0 14.071 11.407 25.479 25.479 25.479h828.944c14.071 0 25.479-11.406 25.479-25.479v-199.681c0-14.071-11.407-25.479-25.478-25.479zm-742.436 170.649-15.999-26.664v26.664h-31.997v-101.323h47.995c15.998 0 31.996 10.666 31.996 31.997s-15.998 26.664-21.331 26.664l26.664 42.663zm53.327 0c-10.666 0-21.331-10.666-21.331-26.664 0-18.174 15.998-21.331 21.331-21.262 1.943.025 9.087-.069 10.666-.069 10.665 0 5.333-10.666 0-10.666s-21.331 0-21.331 0v-21.332h42.662c10.666 0 14.665 10.666 14.665 21.332s1.333 58.661 1.333 58.661zm138.652 0s-21.332 0-42.661 0c-31.998 0-37.33-26.664-37.33-42.662 0-9.81 5.333-37.331 37.33-37.331h10.666v-21.331h31.997v101.324zm37.329 0h-26.664v-79.992h26.664zm45.328 0c-22.089 0-39.996-17.906-39.996-39.996 0-22.089 17.907-39.996 39.996-39.996s39.996 17.907 39.996 39.996c0 22.09-17.907 39.996-39.996 39.996zm135.985-69.326c-10.666 0-15.999 5.333-15.999 15.999v21.331c0 21.331-5.332 31.997-47.994 31.997 0-21.331 0-31.997 0-31.997 10.666 0 21.331 0 21.331-15.998 0-15.999 0-15.999 0-26.664s5.333-26.664 42.662-26.664zm79.99 69.326h-31.996v-47.995c0-5.333-10.666-5.333-10.666 0v47.995h-26.664v-101.323h26.664v26.664c10.666-10.665 42.662-5.333 42.662 15.999zm26.664 0c-10.666 0-21.331-10.666-21.331-26.664 0-18.174 15.999-21.331 21.331-21.262 1.942.025 9.087-.069 10.666-.069 10.666 0 5.332-10.666 0-10.666-5.334 0-21.331 0-21.331 0v-21.332h42.661c10.666 0 14.666 10.666 14.666 21.332s1.332 58.661 1.332 58.661zm133.086-35.658-28.041-.028c-2.258-4.155-6.661-6.976-11.723-6.976-7.362 0-13.332 5.969-13.332 13.332 0 7.362 5.97 13.331 13.332 13.331 5.138 0 9.597-2.905 11.822-7.163l24.47-.002c-6.354 13.678-20.216 23.164-36.292 23.164-22.089 0-39.996-17.906-39.996-39.996 0-22.089 17.906-39.996 39.996-39.996 22.088 0 39.996 17.907 39.996 39.996.001 1.465-.078 2.912-.232 4.338zm42.895 35.658-10.666-31.996h-5.333v31.996h-21.33v-101.323h21.331v42.663h5.333l10.666-15.999h26.664l-15.999 26.664 21.331 47.995zm-706.588-63.994c-7.363 0-13.332 5.969-13.332 13.332s5.969 13.332 13.332 13.332c7.362 0 13.332-5.969 13.332-13.332s-5.97-13.332-13.332-13.332zm287.968 21.332c-7.362 0-13.332 5.969-13.332 13.332 0 7.362 5.97 13.331 13.332 13.331 7.363 0 13.332-5.969 13.332-13.331 0-7.364-5.969-13.332-13.332-13.332z" transform="matrix(.11203998 0 0 .11203998 195.66345 -3.574773)"/><path d="m203.62372 7.32922h95.962265v21.057552h-95.962265z" fill-rule="evenodd"/><path d="m252.24986 25.874089v-4.189004h.89765c.4937 0 .89764.131768.89764.2928 0 .180591.27793.166173.72515-.03755.96515-.439746 2.78088-.0746 3.16101.635649.16656.311242.30285 1.361742.30285 2.334461 0 1.328723-.13512 1.890875-.54326 2.26024-.7423.67176-2.24171.929897-3.01076.518311-.60379-.323144-.63499-.273156-.63499 1.017161 0 1.308281-.0322 1.356993-.89764 1.356993h-.89765zm4.12916.239376c.80935-.809332.15061-3.231523-.87884-3.231523-.94896 0-1.45503.662766-1.45503 1.905561 0 .707331.0897 1.375828.19949 1.485546.33058.33058 1.75037.224432 2.13438-.159584zm-30.93322 1.533448c-1.68369-.488863-2.07016-1.238795-2.07016-4.016928 0-2.881877.37923-3.537244 2.35461-4.069162 1.42294-.383157 3.17111.02 4.09565.944547 1.31086 1.310858.0789 2.068618-1.43157.880498-.94946-.74684-2.22771-.769601-2.87782-.05117-.72457.800645-.68905 3.972069.052 4.642701.75262.681122 2.23171.628361 2.89379-.103191.6495-.717699 1.94489-.807835 1.94489-.135327 0 .682693-1.36727 1.83004-2.43537 2.043674-1.11411.222811-1.33219.211118-2.52601-.135523zm8.07311-.08994c-1.10387-.499133-1.31644-.962732-1.31644-2.871042 0-2.190521.67996-2.851226 2.93429-2.851226 2.5192 0 3.05.527612 3.05 3.03162 0 1.679756-.0824 1.945685-.73663 2.374302-1.02337.670533-2.82697.815675-3.93122.316346zm2.81272-1.443497c.6576-.6576.43431-2.270767-.38897-2.810207-.69295-.45404-.80314-.45404-1.49609 0-.80182.525367-.97998 1.578345-.43828 2.5905.35104.655944 1.75441.788657 2.32334.219707zm25.16232 1.532872c-1.07508-.409856-1.4645-1.441828-1.4645-3.880829v-2.080422h.88453.88454l.0879 2.137968c.0976 2.371308.46711 2.882011 1.83689 2.538229.77109-.193535.79435-.264897.79435-2.437786v-2.238411h.89765.89764v3.00427 3.00427l-1.12206-.04331c-.61712-.02393-1.526.03239-2.0197.124983-.4937.09252-1.24848.03448-1.67725-.128946zm12.97857.124455c-1.11076-.235474-1.87605-1.503055-1.87605-3.107314 0-1.228513.12923-1.537865.92061-2.20376 1.74298-1.466626 4.4826-.790669 5.04809 1.245544.17131.616876.31222 1.217126.31314 1.333888.00069.116811-1.10024.251425-2.44701.299217-2.38567.08466-2.43435.101228-1.89199.642054.44915.44793.82756.519219 1.95914.36912 1.03616-.137449 1.4963-.07301 1.76171.246824.28846.347561.24491.494041-.22103.743405-.71819.384359-2.67256.620545-3.56661.431022zm2.42553-4.129408c-.23753-.618999-1.17879-.8504-1.89655-.466274-.99675.533428-.69875.903701.72733.903701 1.0501 0 1.30105-.09387 1.16922-.437427zm-36.91599 1.035849v-2.992147h.89763c.49371 0 .89766.139387.89766.309745 0 .21351.1798.21351.57875 0 .78934-.422446 1.81151-.38593 2.73855.09779.6502.339291.86273.338996 1.32886-.0012.90062-.658546 2.4654-.50252 3.29663.328702.64999.650005.73444.994032.73444 2.992159v2.257724h-.88454-.88454l-.0879-2.136066c-.0785-1.90874-.16032-2.16273-.76819-2.38667-1.16658-.429795-1.86306.589833-1.86306 2.727446 0 1.715498-.0333 1.79529-.74803 1.79529-.71764 0-.74823-.07607-.75262-1.870101-.006-2.473934-.52612-3.14194-2.01512-2.588451-.61062.226972-.67323.445943-.67323 2.3544v2.104152h-.89766-.89764zm28.78445 2.633089c-.20326-.203278-.35904-1.176905-.35904-2.244104 0-1.476123-.0974-1.885059-.44883-1.885059-.27927 0-.44881-.282579-.44881-.74803 0-.465452.16954-.748043.44881-.748043s.44883-.282592.44883-.748031c0-.631686.13963-.748043.89764-.748043.758 0 .89763.11632.89763.748043 0 .465439.16958.748031.44883.748031.27927 0 .44883.282591.44883.748043 0 .465451-.16956.74803-.44883.74803-.34455 0-.44883.382322-.44883 1.645682 0 1.263348.1043 1.645683.44883 1.645683.24934 0 .44883.265965.44883.598422 0 .477537-.19949.598434-.98741.598434-.54307 0-1.14899-.161572-1.34648-.359058zm11.60954-2.633089v-2.992147h.89764c.49371 0 .89766.122945.89766.273229 0 .154038.36855.134099.84487-.04577.98148-.370457 2.44649-.09117 2.44649.466359 0 .674582-.63609 1.072119-1.30965.818522-.34939-.131547-.93821-.12605-1.30848.01227-.61052.227965-.67323.447415-.67323 2.355529v2.104152h-.89766-.89764zm-40.56793-10.794198c-1.6837-.488875-2.07017-1.238795-2.07017-4.0169289 0-2.8818764.37922-3.5372437 2.3546-4.0691563 1.42295-.383154 3.17113.019988 4.09566.9445491 1.31086 1.31085.0788 2.0685985-1.43157.8804907-.94945-.7468405-2.22771-.7696014-2.87781-.051289-.72457.8006446-.68906 3.9720694.052 4.6426884.75262.681123 2.23171.628374 2.89379-.103191.64949-.717686 1.94489-.807822 1.94489-.135314 0 .682693-1.36726 1.83004-2.43537 2.043674-1.11411.222811-1.33218.211118-2.52601-.135523zm7.77389-.08994c-1.10388-.499146-1.31644-.962732-1.31644-2.871055 0-2.1905086.67995-2.8512134 2.9343-2.8512134 2.51919 0 3.04999.5276117 3.04999 3.0316204 0 1.679744-.0824 1.945684-.73663 2.374289-1.02337.670546-2.82697.815688-3.93122.316359zm2.81273-1.443509c.65759-.657588.4343-2.270755-.389-2.8102075-.69293-.4540283-.80312-.4540283-1.49607 0-.80182.5253785-.97998 1.5783565-.43828 2.5905245.35104.655944 1.75439.788632 2.32335.219683zm9.45507 1.443509c-1.10387-.499146-1.31644-.962732-1.31644-2.871055 0-2.1905086.67996-2.8512134 2.9343-2.8512134 2.5192 0 3.05.5276117 3.05 3.0316204 0 1.679744-.0825 1.945684-.73663 2.374289-1.02337.670546-2.82696.815688-3.93123.316359zm2.81273-1.443509c.6576-.657588.43432-2.270755-.38898-2.8102075-.69294-.4540283-.80313-.4540283-1.49607 0-.80184.5253785-.98 1.5783565-.4383 2.5905245.35105.655944 1.7544.788632 2.32335.219683zm-8.00844.977161c-.17036-.318309-.30973-2.136042-.30973-4.0393951v-3.460636h.89764.89764v3.4409794c0 3.2414747.0347 3.4409607.59843 3.4409607.39896 0 .59842.199474.59842.598435 0 .497807-.19946.598422-1.18632.598422-.86666 0-1.26979-.155952-1.49608-.578766zm11.65886-2.413381v-2.992147h.89765c.4937 0 .89764.1229458.89764.2732292 0 .1540381.36855.1341116.84488-.045767.98148-.370457 2.44647-.091166 2.44647.4663596 0 .6745822-.63607 1.0721315-1.30964.8185221-.34938-.1315471-.93819-.1260501-1.30848.01227-.61052.2279651-.67323.4474147-.67323 2.3555291v2.104152h-.89764-.89765z" fill="#d4d5d7" stroke-width=".299216"/></g></svg>