<?xml version="1.0" encoding="UTF-8"?>
<svg id="Calque_2" data-name="Calque 2" xmlns="http://www.w3.org/2000/svg" viewBox="0 0 637.08 200.09">
  <g id="Calque_1-2" data-name="Calque 1">
    <g>
      <path d="m637.08,59.09c-.29.49-1.93,5.73-2,6.37-.05.47-.1.93-.16,1.55-2.83,1.12-4.67,3.45-6.73,5.5-4.6,4.57-8.92,9.48-13.83,13.69-5,4.28-9.6,8.9-14.38,13.52,6.66,11.01,13.26,21.93,20.13,33.29.58,3.4-1.78,6.81-2.05,10.74-2.83,1.38-5.4-1.2-8.32-.76-2.92.45-5.97.1-8.96.1h-9.17c-5.39-6.78-9.68-14.39-14.2-22.31-2.24,2.61-4.42,5.15-7.31,7.1-2.84,1.92-5.02,4.83-7.49,7.3-2.59,2.59-5.17,5.18-8.1,8.11-7.09,0-14.53-.01-21.97.04-.37,0-.73.55-1.14.88-1.21-.97-2.61-1.14-4.05-1.37,1.3-1.41.79-2.97.94-4.63-1.38-.08-2.5-.14-3.62-.2-.14-.28-.34-.54-.4-.83-.6-2.64,1.27-4.94,1.13-7.58-.02-.44.6-1.75,1.28-2.39,2.15-2.03,3.86-4.61,6.49-6.02,1.08-.58,1.78-1.39,2.59-2.14,1.94-1.82,3.83-3.7,5.65-5.64,6.23-6.59,13.02-12.59,19.82-18.56-6.97-11.45-13.83-22.73-20.72-34.04.76-3.07,2.14-6.08,1.71-9.19.58-.58.93-.93,1.4-1.4h25.28c5.72,6.74,9.59,15.2,14.73,23.04,7.41-8.4,16.59-14.75,23.73-23.04h26.38c1.36,1.78-.73,3-.7,4.53,1.43.7,2.77.17,4.05.36v4Z" style="fill: #fff; stroke-width: 0px;"/>
      <path d="m222.73,129.09c-1.88-.36-3.38.61-4.9,1.43-6.24,3.36-12.82,6.04-19.23,9.04-6.95,3.26-14.05,6.25-21.01,9.52-7.52,3.52-15.1,6.94-22.65,10.4-7.69,3.53-15.32,7.2-23.08,10.58-8.32,3.63-16.54,7.48-24.77,11.31-7.25,3.38-14.47,6.84-21.88,9.84-5.29,2.14-9.98,5.57-15.61,6.92-1.19.28-1.52,2.22-3.18,1.94-.73-.73-.58-1.38.12-2.06,1.67-1.63,3.29-3.3,4.95-4.94.54-.53.63-1.08.16-1.82-3.1,1.56-6.19,3.12-9.34,4.7-.36-.36-.83-.83-1.08-1.08,30.06-37.37,58.53-75.95,88.42-113.46-.57-.57-1.11-.18-1.92.23-9.9,4.99-20.14,9.23-30.14,14.02-5.52,2.64-11.05,5.41-16.86,7.47-.58.2-1.04.73-1.48,1.06-1.05,4.35-1.29,8.78-3.39,13.12-.08.43.59.76,1,1.24-1.87,8.07-4,16.08-5.23,24.37-.84,1.63-2.81,1.71-3.82,1.08-2.05-1.29-4.11-.85-6.15-.85-24.12-.05-48.24-.03-72.37-.03h-4.73c-1.84-1.91,1.04-3.02.37-4.7-1.42-.88-3.2.27-4.67-.61-.85-1.85.57-3.34.76-5.01.42-3.78,1.34-7.51,2.27-11.1.89-3.42.61-7.23,2.77-10.31.05-5.92,2.73-11.34,3.13-17.24.17-2.52,1.49-5.01,2.11-7.6.61-2.57,1.13-5.17,1.73-7.75.92-3.95,1.52-7.99,2.77-11.86.59-1.81-.61-4,1.24-5.48-.36-3.91,1.58-7.36,2.19-11.2h25.39c1.35,1.92-.35,3.56-.75,5.43,1.41.27,2.57-1.44,3.89-.31,1.2,2.97-.4,5.75-1.11,8.37-1.11,4.1-1.72,8.26-2.67,12.37-1.13,4.88-2.13,9.79-3.32,14.64-.3,1.24-.68,2.47-.6,3.7.09,1.4-.98,2.24-1.16,3.57-.63,4.62-1.58,9.2-3.09,13.91h30.86c.24-.26.68-.75,1.06-1.17,1.52-10.31,4.27-20.32,6.24-30.48,1.95-10.1,5.05-19.93,6.91-30.07h24.85v5.22c1.13,1.26,1.28-.7,2.04-.32,1.05-.11,1.3.92,2,1.36-1.25,5.41-2.5,10.82-3.77,16.27.74.7,1.27.16,2.05-.2,2.93-1.35,5.69-3.07,8.84-3.98,2.95-.86,5.36-2.91,8.5-3.64,2.61-.61,4.88-2.61,7.39-3.78,7.67-3.58,15.23-7.45,23.14-10.41,4.5-1.68,8.25-5.01,13.16-5.62,3.16-3.29,7.81-3.67,11.55-5.91,3.94-2.36,8.32-4.18,12.58-5.71,4.38-1.57,8.03-4.8,12.76-5.38,2.35-2.2,5.61-2.57,8.3-4.07,7.95-4.44,16.76-7.04,24.64-11.64,4.51-.81,8.18-3.57,12.23-5.42,4.61-2.11,9.46-3.78,13.76-6.57.82-.53,1.82-.58,2.8.19-2.85,2.25-4,5.92-7.09,7.94.77.81,1.36.63,2.13.03,1.98-1.52,4.89-1.23,6.62-3.41.25-.32,1.58-.33,2.22.31-5.12,5.76-9.63,11.9-14.13,18.1-2.61,3.6-5.54,7.07-8.28,10.62-4.94,6.4-9.89,12.81-14.65,19.36-2.61,3.6-5.5,7.09-8.32,10.59-2.61,3.24-5.45,6.34-7.69,9.82-2.14,3.32-4.63,6.39-6.93,9.55-2.43,3.34-5.17,6.51-7.64,9.87-5.09,6.91-10.69,13.43-15.58,20.51-1.71,2.47-3.69,4.81-5.56,7.21-.48-.08-.78.14-.89.59-.02.08.22.31.29.29.46-.1.68-.41.59-.89,1.06.18,1.74-.53,2.61-.94,5.83-2.78,11.9-5.09,17.56-8.16,4.62-2.51,9.06-5.47,13.92-7.38,4.18-1.64,8.01-3.94,12.18-5.55.57-.22,1-.83,1.46-1.23.49-5.23,2.1-10.17,3.17-15.22,1.1-5.23,2.07-10.48,3-15.75.91-5.1,2.83-10,3.15-15.43.31-.29.8-.75,1.32-1.23h87.16c.45,1.67.44,3.16-.65,4.53,1.06.74,2.24.2,3.47.38,1.07,2.19-.21,4.2-.46,6.34-.26,2.22-1.73,4.23-1.12,6.57-1.84,1.47-.84,3.85-1.77,5.78-.86,1.77-.28,4.36-1.9,6.44h-62.13v1.69h38.27c1.14,1.61.14,3.36.84,5.05h3.3c-1.06,8.17-3.53,15.87-4.95,23.99h-43.81c-.74.49-.76.97-.73,1.47.21.22.41.64.62.64,19.28.03,38.57.03,57.83.03.89,1.01-.81,1.12-.59,1.98.2.78.04,1.65.04,2.52,1.04,1.14,2.53.03,3.68.68-1.68,7.73-3.37,15.47-5.19,23.82.06-.05-.43.39-1.32,1.2-27.94,0-56.34,0-84.73.03-.24,0-.47.44-.76.74-.45-.43-.91-.85-1.38-1.3.95-1.37,1.16-2.84.57-4.57-1.06-.06-2.18-.12-3.5-.2-.99-3.06,1.75-5.86.79-8.91.48.08.78-.14.89-.59.02-.08-.22-.31-.29-.29-.46.1-.68.41-.59.89Z" style="fill: #fff; stroke-width: 0px;"/>
      <path d="m329,144.03c-.46-.46-.93-.93-1.4-1.4-.41-1.52,1.98-2.39.3-4.56-.8-.55-2.56.46-4.36-.34,1.88-6.04,2.79-12.34,4.06-18.57.46-2.26,1.52-4.36,2.1-6.64.83-3.21.8-6.55,1.83-9.71.58-1.77.35-4.03,1.39-5.38,1.4-1.81-.3-3.89,1.24-5.55,1.34-1.44-.65-3.98,1.4-5.39-.52-4.25,1.52-8.08,2.22-12.12.62-3.58.61-7.53,2.76-10.79-.67-2.5,1.04-4.65,1.04-7.07,0-2.24.91-4.24,2.07-6.27h73.41c3.57,3.6,7.32,7.38,11.22,11.31.06.56.16,1.34.25,2.13,1.29,1.3,2.59,2.59,3.88,3.89-1.9,1.45-.21,4.17-2,5.66.35,4.06-2.02,7.61-2.13,11.66-.06,2.09-1.62,3.99-3.71,5.21-4.04,2.34-7.98,4.84-11.94,7.31-.41.26-.71.69-1.06,1.04,1.91,3.26,5.69,4.56,7.78,7.02.22,1.35-.55,1.59-.9,2.11,1.29,1.29,2.58,2.58,4.12,4.13-1.37,1.82-.6,4.26-1.28,6.23-.77,2.22-1.15,4.53-1.7,6.75-.52,2.1-2.05,4.16-1.02,6.41-3.08,3.43-12.26,9.35-20.09,12.99-1.07-.64-2.15-1.07-3.54-1.07-20.28.07-40.56.11-60.84-.05-1.89-.01-3.15,1.88-5.07,1.04Zm70.35-63.77h-32.76v1.66h32.76v-1.66Zm-6.99,31h-32.76v1.66h32.76v-1.66Z" style="fill: #fff; stroke-width: 0px;"/>
      <path d="m445.72,50.25h87.26c.92,1.73-.56,2.82-.76,4.08.31.93,1.02.75,1.65.76.65,0,1.31,0,1.92,0,.18.37.4.63.44.92.41,2.79-.99,5.27-1.36,7.93-.39,2.8-1.25,5.51-1.75,8.3-.49,2.73-1.25,5.49-2,8.16-1.87,6.62-2.21,13.58-4.7,20.03.21,4.2-1.63,8.03-2.34,12.07-.63,3.62-1.07,7.37-2.48,10.93-.77,1.95-1.04,4.3-1.24,6.46-.36,3.97-2.07,7.65-2.16,11.66-.01.45-.92.89-1.66,1.54h-48.03c-8.32,0-16.64-.04-24.96.02-4.21.03-8.48-.61-12.56,1.18-.52-.63-.94-1.14-1.37-1.67.88-1.26,1.08-2.73.49-4.48h-4.12c-.95-.77.04-.88.08-1.24.35-3.12,1.53-6.06,2.13-9.08.39-1.98,1.07-3.97,1.28-6.04.19-1.86.37-4.09,1.13-5.48,1.05-1.92-.18-4.35,1.79-5.79-.03-4.01,1.73-7.68,2.11-11.66.35-3.69,1.67-7.28,2.51-10.92.53-2.29.67-4.65,1.32-6.95,1.52-5.4,1.98-11.03,3.82-16.41.67-1.95,1.15-4.34,1.12-6.5-.04-2.33,1.66-4.21,1.24-6.58-.07-.37.87-.93,1.2-1.26Zm48.56,60.37c-.5-4.87,2.33-9.33,3.08-14.29.77-5.04,2.72-9.88,2.96-15.23-10.65,0-20.92,0-31.2,0-.14,0-.3.08-.43.15-.14.09-.25.22-.07.05-1.52,10.52-4.99,20.33-6.4,30.69h30.68c.39-.39.74-.74,1.38-1.38Z" style="fill: #fff; stroke-width: 0px;"/>
    </g>
  </g>
</svg>