<?xml version="1.0" encoding="UTF-8"?>
<svg id="Calque_2" data-name="Calque 2" xmlns="http://www.w3.org/2000/svg" viewBox="0 0 807.46 298.18">
  <g id="Calque_1-2" data-name="Calque 1">
    <g>
      <line x1="1.28" y1="121.01" x2="805.04" y2="121.01" style="fill: none; stroke: #fff; stroke-miterlimit: 10; stroke-width: 6px;"/>
      <path d="m376.01,297.97c-26.42,0-43.74-11.63-46.62-22.57l8.7-2.29c1.46,5.53,14.07,15.86,37.92,15.86,14.52,0,28.25-5.51,37.66-15.1,7.96-7.98,12.3-18.87,12-30.14-.6-31.18-25.73-45.39-48.83-45.41h-.09c-13.72,0-18,1.91-21.1,3.31l-1.47.64-2.16.89-2-1.26c-.93-.59-3.77-2.4-2.68-5.75l20.15-59h64v9h-57.5l-15.33,44.91c3.83-1,9.35-1.71,18.14-1.71h.09c27.34,0,57.1,17,57.81,54.24.29,13.68-4.98,26.89-14.6,36.61-11.1,11.28-27.17,17.77-44.09,17.77h0Z" style="fill: #fff; stroke-width: 0px;"/>
      <path d="m805.04,153.84c3-.59-11,3.88-8.16-14.49.24-1.57-.64-4.77-.87-2.72,0,20.53-3.34,22.34-6.67,22.57-5.15.35-8.28-5.14-9-21.74,0-.16-.23-.17-.3,0-2.75,6.3,6.75,15-1.59,28.62,0,0-2.91,3.13-1.56,1.56" style="fill: #fff; stroke: #fff; stroke-miterlimit: 10; stroke-width: 4px;"/>
      <g id="svg_3" data-name="svg 3">
        <path id="svg_12" data-name="svg 12" d="m474.33,36.41c16.91,4.55,38,13.62,37.68,33.72-.6,37.27-48.21,33.9-65.06,29.84v-24.26c35.35,10.13,58.86-6.58,14.68-17.64-12.39-4.46-17.17-16.23-16.65-26.71,3.39-32.78,30.68-33.61,57.29-29.79v24c-27.14-13.12-37.75,7-27.94,10.77" style="fill: #fff; stroke-width: 0px;"/>
        <polyline id="svg_11" data-name="svg 11" points="116.44 38.41 143.89 38.41 143.88 1.94 169.38 1.94 169.38 99.99 143.89 99.99 143.89 60.63 116.44 60.63 116.43 99.99 90.91 99.99 90.91 1.94 116.43 1.94 116.44 38.41" style="fill: #fff; stroke-width: 0px;"/>
        <rect id="svg_10" data-name="svg 10" x="193.4" y="1.94" width="25.52" height="98.06" style="fill: #fff; stroke-width: 0px;"/>
        <rect id="svg_9" data-name="svg 9" x="307.41" y="1.94" width="25.52" height="98.06" style="fill: #fff; stroke-width: 0px;"/>
        <polyline id="svg_8" data-name="svg 8" points="268.45 77.73 294.76 77.73 294.76 99.99 242.93 99.99 242.93 1.94 268.45 1.94 268.45 77.73" style="fill: #fff; stroke-width: 0px;"/>
        <path id="svg_7" data-name="svg 7" d="m3.72,23.52V1.84c38.39,0,76.59-6.07,76.59,38.6,0,25.23-16.79,40.53-56.64,38.57l5.57-22.24c34.06,5.45,32.53-40.47,0-33.09l-25.51-.16" style="fill: #fff; stroke-width: 0px;"/>
        <polyline id="svg_6" data-name="svg 6" points="29.26 99.98 3.72 99.97 3.72 20.59 29.23 20.75 29.26 99.98" style="fill: #fff; stroke-width: 0px;"/>
        <path id="svg_5" data-name="svg 5" d="m357.19,23.52V1.84c38.39,0,76.6-6.07,76.6,38.6,0,26.33-16.79,40.53-56.65,38.57l5.57-22.24c34.06,5.45,32.53-40.47,0-33.09l-25.51-.16" style="fill: #fff; stroke-width: 0px;"/>
        <polyline id="svg_4" data-name="svg 4" points="382.73 99.98 357.19 99.97 357.19 20.59 382.7 20.75 382.73 99.98" style="fill: #fff; stroke-width: 0px;"/>
      </g>
      <path d="m189.06,297.97c-44.42,0-80.43-36.02-80.42-80.44,0-44.42,36.02-80.43,80.44-80.42,26.74,0,51.73,13.29,66.68,35.46l-7.45,5c-22.05-32.72-66.45-41.37-99.17-19.32-32.72,22.05-41.37,66.45-19.32,99.17,22.05,32.72,66.45,41.37,99.17,19.32,16.71-11.26,27.89-29.06,30.78-49h-64.19v-9h74.09l-.37,4.84c-3.17,41.94-38.14,74.35-80.2,74.35l-.03.04h0Z" style="fill: #fff; stroke-width: 0px;"/>
      <polygon points="55.35 298.18 0 135.6 11.85 135.6 59.26 274.65 107.63 135.6 119.61 135.6 63.34 298.18 55.35 298.18" style="fill: #fff; stroke-width: 0px;"/>
      <path d="m491.67,297.77c-13.93,0-26.85-8.67-36.39-24.4-9.11-15-14.13-34.93-14.13-56s5-41,14.13-56c9.54-15.74,22.46-24.41,36.39-24.41s26.85,8.67,36.39,24.41c9.11,15,14.13,34.92,14.13,56s-5,41-14.13,56c-9.49,15.73-22.49,24.4-36.39,24.4Zm0-151.84c-10.66,0-20.85,7.13-28.69,20.07-8.28,13.65-12.83,31.88-12.83,51.35s4.55,37.7,12.83,51.35c7.84,12.94,18,20.07,28.69,20.07s20.85-7.13,28.69-20.07c8.28-13.65,12.83-31.88,12.83-51.35s-4.55-37.7-12.83-51.35c-7.79-12.94-18.03-20.07-28.69-20.07Z" style="fill: #fff; stroke-width: 0px;"/>
      <path d="m600.67,297.77c-13.93,0-26.85-8.67-36.39-24.4-9.12-15-14.14-34.93-14.14-56s5-41,14.14-56c9.54-15.74,22.46-24.41,36.39-24.41s26.85,8.67,36.39,24.41c9.11,15,14.13,34.92,14.13,56s-5,41-14.13,56c-9.49,15.73-22.49,24.4-36.39,24.4Zm0-151.84c-10.66,0-20.85,7.13-28.7,20.07-8.27,13.65-12.83,31.88-12.83,51.35s4.56,37.7,12.83,51.35c7.85,12.94,18,20.07,28.7,20.07s20.84-7.13,28.69-20.07c8.27-13.65,12.83-31.88,12.83-51.35s-4.56-37.7-12.83-51.35c-7.85-12.94-18.04-20.07-28.69-20.07Z" style="fill: #fff; stroke-width: 0px;"/>
      <path d="m710.03,297.77c-13.93,0-26.85-8.67-36.39-24.4-9.11-15-14.13-34.93-14.13-56s5-41,14.13-56c9.54-15.74,22.46-24.41,36.39-24.41s26.85,8.67,36.39,24.41c9.11,15,14.13,34.92,14.13,56s-5,41-14.13,56c-9.54,15.73-22.46,24.4-36.39,24.4Zm0-151.84c-10.66,0-20.85,7.13-28.69,20.07-8.27,13.65-12.83,31.88-12.83,51.35s4.56,37.7,12.83,51.35c7.84,12.94,18,20.07,28.69,20.07s20.85-7.13,28.69-20.07c8.28-13.65,12.83-31.88,12.83-51.35s-4.55-37.7-12.83-51.35c-7.84-12.94-18.03-20.07-28.69-20.07Z" style="fill: #fff; stroke-width: 0px;"/>
    </g>
  </g>
</svg>