<svg enable-background="new 0 0 430.1 42.8" viewBox="0 0 430.1 42.8" xmlns="http://www.w3.org/2000/svg"><path d="m279.4 0h129.6c11.7 0 21.1 9.5 21.1 21.4s-9.4 21.4-21.1 21.4h-129.5z" fill="#b1bcbf"/><text fill="#e2173a" font-family="'ArialMT'" font-size="1" transform="translate(338.0203 25.9194)">I don’t like bugs!</text><path d="m279.4 42.8h-258c-11.9 0-21.4-9.5-21.4-21.4s9.5-21.4 21.4-21.4h258z"/><g fill="#b1bcbe"><path d="m64.5 14.9h12.4l-5.4 5.2h-7.1v-5.2zm-.1 6.9h7.1l5.4 5.2h-12.5zm-3.9-14.6c1.2 0 2.4.1 3.6.4v6.2c-1.1-.5-2.4-.8-3.6-.8-4.5 0-8.4 3.4-8.5 7.9.1 2.3 1.3 4.2 2.9 5.6s3.7 2.2 5.6 2.2c1.3 0 2.5-.3 3.6-.7v6.2c-1.2.3-2.4.4-3.6.4-7.9-.2-14.9-6.1-15-13.7.3-8.1 7.5-13.6 15-13.7z"/><path d="m100.5 22c0 5.5-5.8 5.3-8.7 5.3-5.8 0-8.1-2.1-8.2-6.6-.1-6.5 4.2-6.5 8.4-6.5 5-.2 8.4.9 8.4 5.4h-4.7c-.2-1.4-1.1-1.9-3.8-1.9-3.2 0-3.8.5-3.8 3.1 0 2.7 1.3 3 3.8 3 2.7 0 3.5-.4 3.7-1.8zm113 5h-4.2v-1.6h-.2c-.9 1.5-2 2-5.3 2-6 0-7.1-2.6-7.1-6.6 0-5.9 2.9-6.5 7.1-6.5 3.1 0 4.2.4 5 2h.2v-6.9h4.5zm-12.3-6.4c0 2.7.5 3.2 3.9 3.2 1.6 0 2.8-.2 3.4-.6.5-.3.7-1 .7-2.5 0-2.6-.6-3.1-3.8-3.1-3.6.1-4.2.5-4.2 3m37.5-6.1v1.9h.2c.8-1.6 2.1-2.2 4.6-2.2 3.6 0 4.8 1.3 4.8 5v.8h-4.2c0-1.8-.5-2.3-2.4-2.3-1 0-1.9.3-2.3.9s-.6 1.3-.6 3.2v5.2h-4.5v-12.5zm27.6 8.5c-.3 3.5-2 4.3-8.6 4.3-5.7 0-7.9-2.2-7.9-6.5-.1-6.7 4.1-6.6 8.4-6.6 7.1 0 8.4 1.8 8.2 7.6h-12.1c0 2.5 1.3 2.5 3.7 2.6 2.9 0 3.5-.2 3.7-1.3zm-4.6-3.8c0-2-1.1-2.1-3.5-2.1s-4 .1-3.9 2.1z" stroke="#b1bcbe" stroke-width=".2595"/><path d="m125.2 14.5v1.9h.2c.7-1.5 2.2-2.2 4.8-2.2 2.9 0 4.5.8 5.4 2.6.8-1.9 2.2-2.6 5.2-2.6 2.5 0 3.9.5 5 1.6 1 1.1 1.3 2.1 1.3 5.3v5.9h-4.5v-5.8c0-1.6-.1-2.5-.5-2.8-1.3-1-4-1.2-5.2.1-.5.6-.7 1.6-.7 3.3v5.2h-4.5v-5.1c-.1-1.1.1-2.9-.5-3.5-.9-.9-4.2-.9-5.2.1-.8.8-.7 1.6-.7 3.4v5.1h-4.3v-12.5z" stroke="#b1bcbe" stroke-width=".2595"/><path d="m153.7 14.5v1.9h.2c.7-1.5 2.2-2.2 4.8-2.2 2.9 0 4.5.8 5.4 2.6.8-1.9 2.2-2.6 5.2-2.6 2.5 0 3.9.5 5 1.6 1 1.1 1.3 2.1 1.3 5.3v5.9h-4.5v-5.8c0-1.6-.1-2.5-.5-2.8-1.3-1-4-1.2-5.2.1-.5.6-.7 1.6-.7 3.3v5.2h-4.5v-5.1c-.1-1.1.1-2.9-.5-3.5-.9-.9-4.2-.9-5.2.1-.8.8-.7 1.6-.7 3.4v5.1h-4.5v-12.5z" stroke="#b1bcbe" stroke-width=".2595"/><path d="m118.8 20.5c.1 6.2-2.8 6.7-8.5 6.8s-8.5-1.1-8.5-7c-.1-5.9 3.4-6.1 8.5-6.1s8.5.2 8.5 6.3zm-12.5.4c.1 2.9 1.3 2.9 4 2.9s4-.4 4-3.1-.9-3-4-3-4 .5-4 3.2" stroke="#b1bcbe" stroke-width=".2595"/><path d="m194.8 20.5c.1 6.2-2.8 6.7-8.5 6.8s-8.5-1.1-8.5-7 3.4-6.1 8.5-6.1 8.4.2 8.5 6.3zm-12.6.4c.1 2.9 1.3 2.9 4 2.9s4-.4 4-3.1-.9-3-4-3-4 .5-4 3.2" stroke="#b1bcbe" stroke-width=".2595"/><path d="m232.7 20.5c.1 6.2-2.8 6.7-8.5 6.8s-8.5-1.1-8.5-7c-.1-5.9 3.4-6.1 8.5-6.1s8.4.2 8.5 6.3zm-12.5.4c.1 2.9 1.3 2.9 4 2.9s4-.4 4-3.1-.9-3-4-3-4 .5-4 3.2" stroke="#b1bcbe" stroke-width=".2595"/></g><path d="m352.9 19.2c.1 8.8-2.5 9.1-11.9 9-11.1-.1-11.2-1-11.2-12.5 0-12.2 1.5-12.2 11.5-12.2 9.9.3 11.4 0 11.6 9h-5.8c-.2-2.7-.9-3.4-6.4-3.4-5.4 0-5.6 1.2-5.6 6.8s.5 6.8 5.7 6.8 6.3-.5 6.2-3.6h5.9z" stroke="#000" stroke-width=".6688"/><path d="m398.1 3.4c-11.7.1-12.3 1.1-12.3 12.3-.1 10.8.1 12.5 12.3 12.6 12.2-.1 12.3-2.3 12.3-12.6 0-11.2-1.3-12.4-12.3-12.3zm0 5.8c5.8 0 6.1 1.7 6 6.7s-.5 6.5-6 6.6c-5.5 0-6-1.5-6-6.6-.1-5 .2-6.7 6-6.7zm-25.9 4.7c-6.7-.1-11.8.5-11.9 9v5.1h23.4v-5.1h-17.7c0-2.7.1-4 6.1-3.9 6 0 11.5 0 11.5-7.7-.2-7.5-3.5-8-11.7-8-10.1.3-11.7 1.2-11.9 9.1h5.9c-.1-3.3.6-4.1 6-4 5.3 0 6 .5 6.1 2.8s-.2 2.7-5.8 2.7z" fill="none" stroke="#000" stroke-width=".6688"/><path d="m322 4.2h5.3v23.8h-5.3zm-27.3 0 8.8 23.8h7.7l8.8-23.8h-5.3l-6.7 18.3h-1.2l-6.8-18.3z" stroke="#000" stroke-linecap="round" stroke-linejoin="round" stroke-width=".6688"/><path d="m322.5 34.6c0-1.3.4-2.3 1.1-3 .6-.6 1.3-.8 2.2-.8s1.6.2 2.2.7.8 1.2.9 2h-1.1c-.1-.6-.3-1.1-.6-1.4-.4-.4-.8-.5-1.3-.5-.6 0-1 .2-1.5.6-.6.5-.8 1.3-.8 2.4s.3 1.9.8 2.4c.4.4.9.6 1.5.6s1.1-.2 1.4-.5c.4-.4.6-1 .6-1.8h1.1c0 1-.3 1.8-.9 2.3-.5.5-1.3.7-2.2.7s-1.7-.3-2.2-.8c-.8-.6-1.2-1.6-1.2-2.9zm7.9 0c0-1.2.4-2.2 1.1-2.9.6-.6 1.4-.9 2.3-.9s1.7.3 2.3.9c.7.7 1.1 1.7 1.1 2.9s-.4 2.2-1.1 2.9c-.6.6-1.4.9-2.3.9s-1.7-.3-2.3-.9c-.8-.7-1.1-1.7-1.1-2.9zm3.4-3c-.6 0-1.1.2-1.6.7s-.8 1.3-.8 2.3.3 1.8.8 2.3c.5.4 1 .7 1.6.7s1.1-.2 1.6-.7.8-1.3.8-2.3-.3-1.8-.8-2.3-1-.7-1.6-.7zm5-.7h1.4l2.1 5.8 2.1-5.8h1.4v7.5h-1.1v-5.7l-2.1 5.7h-.6l-2.1-5.7v5.7h-1.1zm8.7 0h3.7c.7 0 1.2.2 1.7.6.4.4.6 1 .6 1.7s-.2 1.3-.6 1.7-1 .6-1.7.6h-2.6v2.9h-1.1zm1 .8v2.9h2.4c.4 0 .8-.1 1-.4.3-.3.4-.6.4-1.1s-.1-.9-.4-1.1c-.3-.3-.6-.4-1.1-.4zm6.3-.8h1.1v5.3c0 .4.1.7.4 1s.8.5 1.5.5c.6 0 1.1-.2 1.5-.5.3-.3.4-.6.4-1v-5.3h1.1v5.3c0 .6-.2 1.2-.6 1.6-.5.5-1.3.7-2.3.7s-1.8-.2-2.3-.7c-.4-.4-.6-.9-.6-1.6zm7 0h6.3v.8h-2.6v6.7h-1.1v-6.7h-2.6zm7.4 0h5.1v.8h-4v2.3h3.7v.8h-3.7v2.7h4.2v.8h-5.3zm6.9-.1h3.9c.6 0 1.1.2 1.5.6s.6.9.6 1.6-.2 1.2-.6 1.6c-.2.2-.5.3-.9.4l1.8 3.4h-1.1l-1.7-3.2h-2.4v3.2h-1.1zm1 .9v2.6h2.7c.3 0 .6-.1.8-.3s.3-.5.3-1c0-.4-.1-.7-.4-1s-.5-.4-.9-.4h-2.5z"/></svg>