<?xml version="1.0" encoding="UTF-8" standalone="no"?>
<svg
   enable-background="new 0 0 430.1 42.8"
   viewBox="0 0 430.1 42.8"
   version="1.1"
   id="svg13"
   sodipodi:docname="vic20 - whlogo.svg"
   inkscape:version="1.3 (0e150ed6c4, 2023-07-21)"
   xmlns:inkscape="http://www.inkscape.org/namespaces/inkscape"
   xmlns:sodipodi="http://sodipodi.sourceforge.net/DTD/sodipodi-0.dtd"
   xmlns="http://www.w3.org/2000/svg"
   xmlns:svg="http://www.w3.org/2000/svg">
  <defs
     id="defs13" />
  <sodipodi:namedview
     id="namedview13"
     pagecolor="#ffffff"
     bordercolor="#000000"
     borderopacity="0.25"
     inkscape:showpageshadow="2"
     inkscape:pageopacity="0.0"
     inkscape:pagecheckerboard="0"
     inkscape:deskcolor="#d1d1d1"
     inkscape:zoom="9.893048"
     inkscape:cx="215.05"
     inkscape:cy="21.378649"
     inkscape:window-width="5104"
     inkscape:window-height="1353"
     inkscape:window-x="1433"
     inkscape:window-y="0"
     inkscape:window-maximized="0"
     inkscape:current-layer="svg13" />
  <path
     id="path1"
     d="M 279.40039 0 L 279.5 42.800781 L 409 42.800781 C 420.69999 42.800781 430.09961 33.300379 430.09961 21.400391 C 430.09961 9.5004025 420.69999 0 409 0 L 279.40039 0 z M 371.90039 3.3007812 C 380.10038 3.3007812 383.39961 3.8007887 383.59961 11.300781 C 383.59961 19.000774 378.0996 19 372.09961 19 C 366.09962 18.9 366 20.200393 366 22.900391 L 383.69922 22.900391 L 383.69922 28 L 360.30078 28 L 360.30078 22.900391 C 360.40078 14.400399 365.49923 13.800391 372.19922 13.900391 C 377.79921 13.900391 378.1 13.499216 378 11.199219 C 377.9 8.8992211 377.20039 8.4003906 371.90039 8.4003906 C 366.5004 8.3003907 365.80039 9.1003939 365.90039 12.400391 L 360 12.400391 C 360.2 4.5003985 361.8004 3.6007809 371.90039 3.3007812 z M 400.05078 3.3984375 C 409.25732 3.4888915 410.40039 5.1992293 410.40039 15.699219 C 410.40039 25.999208 410.2996 28.200781 398.09961 28.300781 C 385.89962 28.200781 385.70078 26.499208 385.80078 15.699219 C 385.80078 4.49923 386.39962 3.5003905 398.09961 3.4003906 C 398.78711 3.3941406 399.43701 3.3924072 400.05078 3.3984375 z M 341.30078 3.5 C 351.20077 3.7999997 352.70039 3.500009 352.90039 12.5 L 347.09961 12.5 C 346.89961 9.8000027 346.19921 9.0996094 340.69922 9.0996094 C 335.29922 9.0996094 335.09961 10.300396 335.09961 15.900391 C 335.09961 21.500385 335.60079 22.699219 340.80078 22.699219 C 346.00078 22.699219 347.1 22.199606 347 19.099609 L 352.90039 19.099609 L 352.90039 19.199219 C 353.00039 27.99921 350.39999 28.299219 341 28.199219 C 329.90001 28.099219 329.80078 27.199207 329.80078 15.699219 C 329.80078 3.499231 331.30079 3.5 341.30078 3.5 z M 294.69922 4.1992188 L 300 4.1992188 L 306.80078 22.5 L 308 22.5 L 314.69922 4.1992188 L 320 4.1992188 L 311.19922 28 L 303.5 28 L 294.69922 4.1992188 z M 322 4.1992188 L 327.30078 4.1992188 L 327.30078 28 L 322 28 L 322 4.1992188 z M 398.09961 9.1992188 C 392.29962 9.1992188 391.99961 10.900396 392.09961 15.900391 C 392.09961 21.000386 392.59961 22.5 398.09961 22.5 C 403.5996 22.4 403.99961 20.900386 404.09961 15.900391 C 404.19961 10.900396 403.8996 9.1992188 398.09961 9.1992188 z M 325.80078 30.800781 C 326.70078 30.800781 327.4 31.000001 328 31.5 C 328.6 32 328.80039 32.700001 328.90039 33.5 L 327.80078 33.5 C 327.70078 32.900001 327.49922 32.399609 327.19922 32.099609 C 326.79922 31.69961 326.40039 31.599609 325.90039 31.599609 C 325.30039 31.599609 324.90039 31.799219 324.40039 32.199219 C 323.80039 32.699218 323.59961 33.49961 323.59961 34.599609 C 323.59961 35.699608 323.90039 36.500001 324.40039 37 C 324.80039 37.4 325.30039 37.599609 325.90039 37.599609 C 326.50039 37.599609 327.00078 37.399609 327.30078 37.099609 C 327.70078 36.69961 327.90039 36.10078 327.90039 35.300781 L 329 35.300781 C 329 36.30078 328.69961 37.09961 328.09961 37.599609 C 327.59961 38.099609 326.80039 38.300781 325.90039 38.300781 C 325.00039 38.300781 324.19922 37.999999 323.69922 37.5 C 322.89922 36.900001 322.5 35.899608 322.5 34.599609 C 322.5 33.299611 322.89961 32.299609 323.59961 31.599609 C 324.19961 30.99961 324.90078 30.800781 325.80078 30.800781 z M 333.80078 30.800781 C 334.70078 30.800781 335.49961 31.099219 336.09961 31.699219 C 336.79961 32.399218 337.19922 33.399611 337.19922 34.599609 C 337.19922 35.799608 336.79961 36.800001 336.09961 37.5 C 335.49961 38.099999 334.70078 38.400391 333.80078 38.400391 C 332.90078 38.400391 332.1 38.099999 331.5 37.5 C 330.7 36.800001 330.40039 35.799608 330.40039 34.599609 C 330.40039 33.399611 330.8 32.399218 331.5 31.699219 C 332.1 31.099219 332.90078 30.800781 333.80078 30.800781 z M 376.09961 30.800781 L 380 30.800781 C 380.6 30.800781 381.1 31.000391 381.5 31.400391 C 381.9 31.80039 382.09961 32.300001 382.09961 33 C 382.09961 33.699999 381.9 34.19961 381.5 34.599609 C 381.3 34.799609 380.99961 34.9 380.59961 35 L 382.40039 38.400391 L 381.30078 38.400391 L 379.59961 35.199219 L 377.19922 35.199219 L 377.19922 38.400391 L 376.09961 38.400391 L 376.09961 30.800781 z M 338.80078 30.900391 L 340.19922 30.900391 L 342.30078 36.699219 L 344.40039 30.900391 L 345.80078 30.900391 L 345.80078 38.400391 L 344.69922 38.400391 L 344.69922 32.699219 L 342.59961 38.400391 L 342 38.400391 L 339.90039 32.699219 L 339.90039 38.400391 L 338.80078 38.400391 L 338.80078 30.900391 z M 347.5 30.900391 L 351.19922 30.900391 C 351.89922 30.900391 352.40039 31.1 352.90039 31.5 C 353.30039 31.9 353.5 32.499219 353.5 33.199219 C 353.5 33.899218 353.30039 34.500391 352.90039 34.900391 C 352.50039 35.30039 351.89922 35.5 351.19922 35.5 L 348.59961 35.5 L 348.59961 38.400391 L 347.5 38.400391 L 347.5 30.900391 z M 354.80078 30.900391 L 355.90039 30.900391 L 355.90039 36.199219 C 355.90039 36.599218 356.00078 36.899219 356.30078 37.199219 C 356.60078 37.499218 357.10078 37.699219 357.80078 37.699219 C 358.40078 37.699219 358.90078 37.499218 359.30078 37.199219 C 359.60078 36.899219 359.69922 36.599218 359.69922 36.199219 L 359.69922 30.900391 L 360.80078 30.900391 L 360.80078 36.199219 C 360.80078 36.799218 360.59922 37.400782 360.19922 37.800781 C 359.69922 38.300781 358.90039 38.5 357.90039 38.5 C 356.90039 38.5 356.09961 38.300781 355.59961 37.800781 C 355.19961 37.400782 355 36.899218 355 36.199219 L 354.80078 30.900391 z M 361.80078 30.900391 L 368.09961 30.900391 L 368.09961 31.699219 L 365.5 31.699219 L 365.5 38.400391 L 364.40039 38.400391 L 364.40039 31.699219 L 361.80078 31.699219 L 361.80078 30.900391 z M 369.19922 30.900391 L 374.30078 30.900391 L 374.30078 31.699219 L 370.30078 31.699219 L 370.30078 34 L 374 34 L 374 34.800781 L 370.30078 34.800781 L 370.30078 37.5 L 374.5 37.5 L 374.5 38.300781 L 369.19922 38.300781 L 369.19922 30.900391 z M 333.80078 31.599609 C 333.20078 31.599609 332.69922 31.800782 332.19922 32.300781 C 331.69922 32.800781 331.40039 33.59961 331.40039 34.599609 C 331.40039 35.599608 331.69922 36.400391 332.19922 36.900391 C 332.69922 37.30039 333.20078 37.599609 333.80078 37.599609 C 334.40078 37.599609 334.90039 37.40039 335.40039 36.900391 C 335.90039 36.400391 336.19922 35.599608 336.19922 34.599609 C 336.19922 33.59961 335.90039 32.800781 335.40039 32.300781 C 334.90039 31.800782 334.40078 31.599609 333.80078 31.599609 z M 350.80078 31.599609 L 348.5 31.699219 L 348.5 34.599609 L 350.90039 34.599609 C 351.30039 34.599609 351.70039 34.499218 351.90039 34.199219 C 352.20039 33.899219 352.30078 33.599609 352.30078 33.099609 C 352.30078 32.59961 352.20039 32.2 351.90039 32 C 351.60039 31.7 351.30078 31.599609 350.80078 31.599609 z M 377.09961 31.599609 L 377.09961 31.699219 L 377.09961 34.300781 L 379.80078 34.300781 C 380.10078 34.300781 380.39961 34.2 380.59961 34 C 380.79961 33.8 380.90039 33.5 380.90039 33 C 380.90039 32.6 380.8 32.3 380.5 32 C 380.2 31.7 379.99961 31.599609 379.59961 31.599609 L 377.09961 31.599609 z "
     style="fill:#cccccc" />
  <path
     id="path2"
     d="M 21.400391,0 C 9.500402,0 0,9.5004025 0,21.400391 0,33.300379 9.500402,42.800781 21.400391,42.800781 H 279.40039 V 0 Z M 60.5,7.1992188 c 1.199999,0 2.399611,0.1003909 3.599609,0.4003906 V 13.800781 C 62.99961,13.300782 61.699999,13 60.5,13 c -4.499995,0 -8.4,3.400395 -8.5,7.900391 0.1,2.299997 1.300392,4.19961 2.900391,5.599609 1.599998,1.399999 3.699611,2.199219 5.599609,2.199219 1.299999,0 2.49961,-0.299219 3.599609,-0.699219 v 6.199219 C 62.899611,34.499218 61.699999,34.599609 60.5,34.599609 52.600008,34.39961 45.6,28.500383 45.5,20.900391 45.8,12.800399 53.000008,7.2992187 60.5,7.1992188 Z M 209,9.4003906 h 4.5 V 27 h -4.19922 v -1.599609 h -0.20117 c -0.9,1.499998 -1.99883,2 -5.29883,2 -5.99999,0 -7.10156,-2.599614 -7.10156,-6.59961 0,-5.899994 2.90157,-6.5 7.10156,-6.5 3.1,0 4.2,0.400002 5,2 H 209 Z M 93.796875,14.189453 c 4.000387,0.138086 6.603515,1.47266 6.603515,5.410156 h -4.701171 c -0.2,-1.399998 -1.098831,-1.90039 -3.798828,-1.90039 -3.199997,0 -3.800782,0.501565 -3.800782,3.101562 0,2.699998 1.300784,3 3.800782,3 2.699997,0 3.499219,-0.400782 3.699218,-1.800781 H 100.5 c 0,5.499994 -5.799222,5.300781 -8.699219,5.300781 -5.799994,0 -8.101172,-2.101567 -8.201172,-6.601562 -0.1,-6.499994 4.200395,-6.5 8.400391,-6.5 0.624999,-0.025 1.225391,-0.02949 1.796875,-0.0098 z m 16.503905,0.0098 c 5.1,0 8.5,0.200787 8.5,6.300781 0.1,6.199994 -2.8,6.700781 -8.5,6.800781 -5.69999,0.1 -8.5,-1.100006 -8.5,-7 -0.1,-5.899994 3.40001,-6.101562 8.5,-6.101562 z m 19.89844,0 c 2.9,0 4.50039,0.801564 5.40039,2.601562 0.8,-1.899998 2.20117,-2.601562 5.20117,-2.601562 2.5,0 3.9,0.501563 5,1.601562 1,1.099999 1.29883,2.098832 1.29883,5.298828 V 27 h -4.5 v -5.800781 c 0,-1.599999 -0.1,-2.498829 -0.5,-2.798828 -1.3,-0.999999 -3.99922,-1.20039 -5.19922,0.09961 -0.5,0.599999 -0.70117,1.600783 -0.70117,3.300781 V 27 h -4.5 v -5.099609 c -0.1,-1.099999 0.1,-2.900001 -0.5,-3.5 C 130.29922,17.500392 127,17.500001 126,18.5 c -0.8,0.799999 -0.69922,1.600392 -0.69922,3.400391 V 27 H 121 V 14.5 h 4.19922 v 1.900391 h 0.20117 c 0.7,-1.499999 2.19883,-2.201172 4.79883,-2.201172 z m 28.5,0 c 2.9,0 4.50039,0.801564 5.40039,2.601562 0.8,-1.899998 2.20117,-2.601562 5.20117,-2.601562 2.5,0 3.9,0.501563 5,1.601562 1,1.099999 1.29883,2.098832 1.29883,5.298828 V 27 h -4.5 v -5.800781 c 0,-1.599999 -0.1,-2.498829 -0.5,-2.798828 -1.3,-0.999999 -3.99922,-1.20039 -5.19922,0.09961 -0.5,0.599999 -0.70117,1.600783 -0.70117,3.300781 V 27 h -4.5 v -5.099609 c -0.1,-1.099999 0.1,-2.900001 -0.5,-3.5 -0.9,-0.899999 -4.19922,-0.90039 -5.19922,0.09961 -0.8,0.799999 -0.69922,1.600392 -0.69922,3.400391 V 27 h -4.5 V 14.5 h 4.39844 v 1.900391 h 0.20117 c 0.7,-1.499999 2.19883,-2.201172 4.79883,-2.201172 z m 27.60156,0 c 5.1,0 8.4,0.200787 8.5,6.300781 0.1,6.199994 -2.8,6.700781 -8.5,6.800781 -5.69999,0.1 -8.5,-1.100006 -8.5,-7 0,-5.899994 3.40001,-6.101562 8.5,-6.101562 z m 37.89844,0 c 5.09999,0 8.4,0.200787 8.5,6.300781 0.1,6.199994 -2.80001,6.700781 -8.5,6.800781 -5.7,0.1 -8.5,-1.100006 -8.5,-7 -0.1,-5.899994 3.4,-6.101562 8.5,-6.101562 z m 19.30078,0 c 3.6,0 4.80078,1.300003 4.80078,5 V 20 h -4.20117 c 0,-1.799998 -0.50039,-2.300781 -2.40039,-2.300781 -1,0 -1.89883,0.300391 -2.29883,0.90039 -0.4,0.6 -0.59961,1.301174 -0.59961,3.201172 V 27 h -4.5 V 14.5 h 4.39844 v 1.900391 h 0.20117 c 0.8,-1.599999 2.09961,-2.201172 4.59961,-2.201172 z m 14.69922,0 c 7.09999,0 8.40117,1.801568 8.20117,7.601562 h -12.09961 c 0,2.499998 1.29922,2.49961 3.69922,2.59961 2.9,0 3.49922,-0.200783 3.69922,-1.300782 L 266.30078,23 c -0.3,3.499997 -2.00157,4.300781 -8.60156,4.300781 -5.7,0 -7.89844,-2.200004 -7.89844,-6.5 -0.1,-6.699993 4.09844,-6.601562 8.39844,-6.601562 z M 64.400391,14.900391 H 64.5 76.900391 L 71.5,20.099609 h -7.099609 z m 193.798829,2.199218 c -2.4,0 -3.99844,0.09961 -3.89844,2.09961 h 7.39844 c 0,-1.999998 -1.1,-2.09961 -3.5,-2.09961 z m -52.79883,0.5 c -3.6,0.1 -4.20117,0.500003 -4.20117,3 0,2.699998 0.50039,3.201172 3.90039,3.201172 1.6,0 2.80039,-0.201563 3.40039,-0.601562 0.5,-0.3 0.69922,-1.000002 0.69922,-2.5 0,-2.599998 -0.59883,-3.09961 -3.79883,-3.09961 z m -95.09961,0.09961 c -3.1,0 -4,0.501174 -4,3.201172 0.1,2.899997 1.3,2.90039 4,2.90039 2.7,0 4,-0.401565 4,-3.101562 0,-2.699998 -0.9,-3 -4,-3 z m 75.89844,0 c -3.1,0 -4,0.501174 -4,3.201172 0.1,2.899997 1.3,2.90039 4,2.90039 2.7,0 4,-0.401565 4,-3.101562 0,-2.699998 -0.9,-3 -4,-3 z m 38,0 c -3.1,0 -4,0.501174 -4,3.201172 0.1,2.899997 1.3,2.90039 4,2.90039 2.7,0 4,-0.401565 4,-3.101562 0,-2.699998 -0.9,-3 -4,-3 z M 64.400391,21.800781 H 71.5 L 76.900391,27 h -12.5 z"
     style="fill:#ffffff" />
  <g
     fill="#b1bcbe"
     id="g9" />
</svg>
