<?xml version="1.0" encoding="UTF-8"?>
<svg id="Calque_1" data-name="Calque 1" xmlns="http://www.w3.org/2000/svg" viewBox="0 0 540.75 60.78">
  <g>
    <path d="m40.66,44.81l-8.56,15.97L0,.86h17.12l23.54,43.95Z" style="fill: #fff; stroke-width: 0px;"/>
    <path d="m34.24,24.82L47.08.85h17.12l-21.4,39.93-8.56-15.96Z" style="fill: #fff; stroke-width: 0px;"/>
    <path d="m68.56.86h15.02l-.04,59.92h-14.98V.86Z" style="fill: #fff; stroke-width: 0px;"/>
    <path d="m89.96.86h15.02l-.04,59.92h-14.98V.86Z" style="fill: #fff; stroke-width: 0px;"/>
    <path d="m109.22,15.83V.86h6.42c8.27,0,15.34,2.93,21.19,8.77s8.77,12.91,8.77,21.19-2.93,15.34-8.77,21.19c-5.85,5.85-12.91,8.77-21.19,8.77h-6.42v-14.98h6.42c4.14,0,7.67-1.46,10.59-4.39,2.92-2.92,4.39-6.46,4.39-10.59s-1.46-7.67-4.39-10.59c-2.93-2.92-6.46-4.39-10.59-4.39h-6.42,0Z" style="fill: #fff; stroke-width: 0px;"/>
    <path d="m152.11.86h15.02l-.04,59.92h-14.98V.86Z" style="fill: #fff; stroke-width: 0px;"/>
    <path d="m171.37.86h23.54v14.98h-23.54V.86Z" style="fill: #fff; stroke-width: 0px;"/>
    <path d="m171.37,45.79h23.54v14.98h-23.54v-14.98Z" style="fill: #fff; stroke-width: 0px;"/>
    <path d="m171.37,23.32h23.54v14.98h-23.54v-14.98Z" style="fill: #fff; stroke-width: 0px;"/>
    <path d="m246.22,32.95h15.07c-.46,7.36-3.37,13.71-8.73,19.05-5.85,5.85-12.91,8.77-21.19,8.77s-15.34-2.92-21.19-8.77c-5.34-5.34-8.23-11.68-8.69-19.05h15.07c.43,3.22,1.84,6.03,4.24,8.43,2.91,2.94,6.43,4.41,10.57,4.41s7.68-1.47,10.61-4.41c2.4-2.4,3.81-5.21,4.24-8.43Z" style="fill: #fff; stroke-width: 0px;"/>
    <path d="m216.56,28.67h-15.07c.46-7.36,3.35-13.71,8.69-19.05,5.85-5.85,12.91-8.77,21.19-8.77s15.34,2.93,21.19,8.77c5.36,5.34,8.28,11.68,8.73,19.05h-15.07c-.43-3.22-1.84-6.05-4.24-8.47-2.94-2.91-6.48-4.37-10.61-4.37s-7.66,1.45-10.57,4.37c-2.4,2.42-3.81,5.25-4.24,8.47h0Z" style="fill: #fff; stroke-width: 0px;"/>
    <path d="m267.83.86h14.98v59.92h-14.98V.86Z" style="fill: #fff; stroke-width: 0px;"/>
    <path d="m287.09,15.83V.86h8.05c5.16,0,9.57,1.83,13.23,5.48,3.65,3.65,5.48,8.06,5.48,13.23s-1.83,9.62-5.48,13.27c-3.65,3.65-8.06,5.48-13.23,5.48h-8.05v-14.98h8.05c1.03,0,1.9-.36,2.63-1.09.73-.73,1.09-1.62,1.09-2.67s-.36-1.9-1.09-2.63c-.73-.73-1.61-1.09-2.63-1.09h-8.05Z" style="fill: #fff; stroke-width: 0px;"/>
    <path d="m347.01,36.81l-12.84,23.97h-17.12l21.4-39.93,8.56,15.96Z" style="fill: #fff; stroke-width: 0px;"/>
    <path d="m353.26,40.44l-12.67-23.62,8.56-15.97,32.1,59.92h-17.12l-2.87-5.35h-19.94l8-14.98h3.93Z" style="fill: #fff; stroke-width: 0px;"/>
    <path d="m413.44,45.67v15.02c-7.36-.46-13.71-3.35-19.05-8.69-5.85-5.85-8.77-12.91-8.77-21.19s2.92-15.34,8.77-21.19c5.34-5.34,11.68-8.23,19.05-8.69v15.02c-3.22.43-6.04,1.84-8.43,4.24-2.94,2.94-4.41,6.48-4.41,10.61s1.47,7.66,4.41,10.57c2.4,2.43,5.21,3.85,8.43,4.28Z" style="fill: #fff; stroke-width: 0px;"/>
    <path d="m428.07,22.47c-.54-.8-1.17-1.56-1.88-2.27-2.42-2.4-5.25-3.81-8.47-4.24V.94c7.36.46,13.71,3.35,19.05,8.69,1.43,1.43,2.68,2.94,3.77,4.54l-12.46,8.3Z" style="fill: #fff; stroke-width: 0px;"/>
    <path d="m440.53,47.46c-1.08,1.6-2.34,3.11-3.77,4.54-5.34,5.34-11.68,8.23-19.05,8.69v-15.02c3.23-.43,6.05-1.85,8.47-4.28.71-.71,1.34-1.46,1.88-2.23l12.46,8.3Z" style="fill: #fff; stroke-width: 0px;"/>
  </g>
  <text transform="translate(522.53 31.03)" style="fill: #d02027; font-family: ArialMT, Arial; font-size: 1px; isolation: isolate;"><tspan x="0" y="0">I hate bugs!</tspan></text>
  <path d="m540.75,22.09h-22.09V0h-16.5v22.09h-22.09v16.5h22.09v22.09h16.5v-22.09h22.09v-16.5Z" style="fill: #9b9b9b; stroke-width: 0px;"/>
  <path d="m530.59,22.09h-22.09V0h-16.5v22.09h-22.09v16.5h22.09v22.09h16.5v-22.09h22.09v-16.5Z" style="fill: #b2b2b2; stroke-width: 0px;"/>
  <path d="m520.42,22.09h-22.09V0h-16.5v22.09h-22.09v16.5h22.09v22.09h16.5v-22.09h22.09v-16.5Z" style="fill: #e5e5e5; stroke-width: 0px;"/>
  <path d="m510.25,22.09h-22.09V0h-16.5v22.09h-22.1v16.5h22.1v22.09h16.5v-22.09h22.09v-16.5Z" style="fill: #fff; stroke-width: 0px;"/>
  <path d="m498.32,2.1h1.48v1.48h-1.48v-1.48Z" style="fill: #9b9b9b; stroke-width: 0px;"/>
  <path d="m501.22.62h1.48v1.48h-1.48V.62Z" style="fill: #9b9b9b; stroke-width: 0px;"/>
  <path d="m504.12.62h1.48v1.48h-1.48V.62Z" style="fill: #9b9b9b; stroke-width: 0px;"/>
  <path d="m507.01,2.1h1.48v1.48h-1.48v-1.48Z" style="fill: #9b9b9b; stroke-width: 0px;"/>
  <path d="m498.32,5.06h1.48v1.48h-1.48v-1.48Z" style="fill: #9b9b9b; stroke-width: 0px;"/>
  <path d="m501.22,3.58h1.48v1.48h-1.48v-1.48Z" style="fill: #9b9b9b; stroke-width: 0px;"/>
  <path d="m504.12,3.58h1.48v1.48h-1.48v-1.48Z" style="fill: #9b9b9b; stroke-width: 0px;"/>
  <path d="m507.01,5.06h1.48v1.48h-1.48v-1.48Z" style="fill: #9b9b9b; stroke-width: 0px;"/>
  <path d="m498.32,8.01h1.48v1.48h-1.48v-1.48Z" style="fill: #9b9b9b; stroke-width: 0px;"/>
  <path d="m501.22,6.53h1.48v1.48h-1.48v-1.48Z" style="fill: #9b9b9b; stroke-width: 0px;"/>
  <path d="m504.12,6.53h1.48v1.48h-1.48v-1.48Z" style="fill: #9b9b9b; stroke-width: 0px;"/>
  <path d="m507.01,8.01h1.48v1.48h-1.48v-1.48Z" style="fill: #9b9b9b; stroke-width: 0px;"/>
  <path d="m498.32,10.97h1.48v1.48h-1.48v-1.48Z" style="fill: #9b9b9b; stroke-width: 0px;"/>
  <path d="m501.22,9.49h1.48v1.48h-1.48v-1.48Z" style="fill: #9b9b9b; stroke-width: 0px;"/>
  <path d="m504.12,9.49h1.48v1.48h-1.48v-1.48Z" style="fill: #9b9b9b; stroke-width: 0px;"/>
  <path d="m507.01,10.97h1.48v1.48h-1.48v-1.48Z" style="fill: #9b9b9b; stroke-width: 0px;"/>
  <path d="m498.32,13.93h1.48v1.48h-1.48v-1.48Z" style="fill: #9b9b9b; stroke-width: 0px;"/>
  <path d="m501.22,12.45h1.48v1.48h-1.48v-1.48Z" style="fill: #9b9b9b; stroke-width: 0px;"/>
  <path d="m504.12,12.45h1.48v1.48h-1.48v-1.48Z" style="fill: #9b9b9b; stroke-width: 0px;"/>
  <path d="m507.01,13.93h1.48v1.48h-1.48v-1.48Z" style="fill: #9b9b9b; stroke-width: 0px;"/>
  <path d="m498.32,16.88h1.48v1.48h-1.48v-1.48Z" style="fill: #9b9b9b; stroke-width: 0px;"/>
  <path d="m501.22,15.41h1.48v1.48h-1.48v-1.48Z" style="fill: #9b9b9b; stroke-width: 0px;"/>
  <path d="m504.12,15.41h1.48v1.48h-1.48v-1.48Z" style="fill: #9b9b9b; stroke-width: 0px;"/>
  <path d="m507.01,16.88h1.48v1.48h-1.48v-1.48Z" style="fill: #9b9b9b; stroke-width: 0px;"/>
  <path d="m498.32,19.84h1.48v1.48h-1.48v-1.48Z" style="fill: #9b9b9b; stroke-width: 0px;"/>
  <path d="m501.22,18.36h1.48v1.48h-1.48v-1.48Z" style="fill: #9b9b9b; stroke-width: 0px;"/>
  <path d="m504.12,18.36h1.48v1.48h-1.48v-1.48Z" style="fill: #9b9b9b; stroke-width: 0px;"/>
  <path d="m507.01,19.84h1.48v1.48h-1.48v-1.48Z" style="fill: #9b9b9b; stroke-width: 0px;"/>
  <path d="m520.42,24.38h1.48v1.48h-1.48v-1.48Z" style="fill: #9b9b9b; stroke-width: 0px;"/>
  <path d="m523.31,22.9h1.48v1.48h-1.48v-1.48Z" style="fill: #9b9b9b; stroke-width: 0px;"/>
  <path d="m526.21,22.9h1.48v1.48h-1.48v-1.48Z" style="fill: #9b9b9b; stroke-width: 0px;"/>
  <path d="m529.11,24.38h1.48v1.48h-1.48v-1.48Z" style="fill: #9b9b9b; stroke-width: 0px;"/>
  <path d="m520.42,27.33h1.48v1.48h-1.48v-1.48Z" style="fill: #9b9b9b; stroke-width: 0px;"/>
  <path d="m523.31,25.85h1.48v1.48h-1.48v-1.48Z" style="fill: #9b9b9b; stroke-width: 0px;"/>
  <path d="m526.21,25.85h1.48v1.48h-1.48v-1.48Z" style="fill: #9b9b9b; stroke-width: 0px;"/>
  <path d="m529.11,27.33h1.48v1.48h-1.48v-1.48Z" style="fill: #9b9b9b; stroke-width: 0px;"/>
  <path d="m520.42,30.29h1.48v1.48h-1.48v-1.48Z" style="fill: #9b9b9b; stroke-width: 0px;"/>
  <path d="m523.31,28.81h1.48v1.48h-1.48v-1.48Z" style="fill: #9b9b9b; stroke-width: 0px;"/>
  <path d="m526.21,28.81h1.48v1.48h-1.48v-1.48Z" style="fill: #9b9b9b; stroke-width: 0px;"/>
  <path d="m529.11,30.29h1.48v1.48h-1.48v-1.48Z" style="fill: #9b9b9b; stroke-width: 0px;"/>
  <path d="m520.42,33.25h1.48v1.48h-1.48v-1.48Z" style="fill: #9b9b9b; stroke-width: 0px;"/>
  <path d="m523.31,31.77h1.48v1.48h-1.48v-1.48Z" style="fill: #9b9b9b; stroke-width: 0px;"/>
  <path d="m526.21,31.77h1.48v1.48h-1.48v-1.48Z" style="fill: #9b9b9b; stroke-width: 0px;"/>
  <path d="m529.11,33.25h1.48v1.48h-1.48v-1.48Z" style="fill: #9b9b9b; stroke-width: 0px;"/>
  <path d="m520.42,36.2h1.48v1.48h-1.48v-1.48Z" style="fill: #9b9b9b; stroke-width: 0px;"/>
  <path d="m523.31,34.72h1.48v1.48h-1.48v-1.48Z" style="fill: #9b9b9b; stroke-width: 0px;"/>
  <path d="m526.21,34.72h1.48v1.48h-1.48v-1.48Z" style="fill: #9b9b9b; stroke-width: 0px;"/>
  <path d="m529.11,36.2h1.48v1.48h-1.48v-1.48Z" style="fill: #9b9b9b; stroke-width: 0px;"/>
  <path d="m498.32,40.64h1.48v1.48h-1.48v-1.48Z" style="fill: #9b9b9b; stroke-width: 0px;"/>
  <path d="m501.22,39.16h1.48v1.48h-1.48v-1.48Z" style="fill: #9b9b9b; stroke-width: 0px;"/>
  <path d="m504.12,39.16h1.48v1.48h-1.48v-1.48Z" style="fill: #9b9b9b; stroke-width: 0px;"/>
  <path d="m507.01,40.64h1.48v1.48h-1.48v-1.48Z" style="fill: #9b9b9b; stroke-width: 0px;"/>
  <path d="m498.32,43.6h1.48v1.48h-1.48v-1.48Z" style="fill: #9b9b9b; stroke-width: 0px;"/>
  <path d="m501.22,42.12h1.48v1.48h-1.48v-1.48Z" style="fill: #9b9b9b; stroke-width: 0px;"/>
  <path d="m504.12,42.12h1.48v1.48h-1.48v-1.48Z" style="fill: #9b9b9b; stroke-width: 0px;"/>
  <path d="m507.01,43.6h1.48v1.48h-1.48v-1.48Z" style="fill: #9b9b9b; stroke-width: 0px;"/>
  <path d="m498.32,46.55h1.48v1.48h-1.48v-1.48Z" style="fill: #9b9b9b; stroke-width: 0px;"/>
  <path d="m501.22,45.08h1.48v1.48h-1.48v-1.48Z" style="fill: #9b9b9b; stroke-width: 0px;"/>
  <path d="m504.12,45.08h1.48v1.48h-1.48v-1.48Z" style="fill: #9b9b9b; stroke-width: 0px;"/>
  <path d="m507.01,46.55h1.48v1.48h-1.48v-1.48Z" style="fill: #9b9b9b; stroke-width: 0px;"/>
  <path d="m498.32,49.51h1.48v1.48h-1.48v-1.48Z" style="fill: #9b9b9b; stroke-width: 0px;"/>
  <path d="m501.22,48.03h1.48v1.48h-1.48v-1.48Z" style="fill: #9b9b9b; stroke-width: 0px;"/>
  <path d="m504.12,48.03h1.48v1.48h-1.48v-1.48Z" style="fill: #9b9b9b; stroke-width: 0px;"/>
  <path d="m507.01,49.51h1.48v1.48h-1.48v-1.48Z" style="fill: #9b9b9b; stroke-width: 0px;"/>
  <path d="m498.32,52.47h1.48v1.48h-1.48v-1.48Z" style="fill: #9b9b9b; stroke-width: 0px;"/>
  <path d="m501.22,50.99h1.48v1.48h-1.48v-1.48Z" style="fill: #9b9b9b; stroke-width: 0px;"/>
  <path d="m504.12,50.99h1.48v1.48h-1.48v-1.48Z" style="fill: #9b9b9b; stroke-width: 0px;"/>
  <path d="m507.01,52.47h1.48v1.48h-1.48v-1.48Z" style="fill: #9b9b9b; stroke-width: 0px;"/>
  <path d="m498.32,55.42h1.48v1.48h-1.48v-1.48Z" style="fill: #9b9b9b; stroke-width: 0px;"/>
  <path d="m501.22,53.95h1.48v1.48h-1.48v-1.48Z" style="fill: #9b9b9b; stroke-width: 0px;"/>
  <path d="m504.12,53.95h1.48v1.48h-1.48v-1.48Z" style="fill: #9b9b9b; stroke-width: 0px;"/>
  <path d="m507.01,55.42h1.48v1.48h-1.48v-1.48Z" style="fill: #9b9b9b; stroke-width: 0px;"/>
  <path d="m498.32,58.38h1.48v1.48h-1.48v-1.48Z" style="fill: #9b9b9b; stroke-width: 0px;"/>
  <path d="m501.22,56.9h1.48v1.48h-1.48v-1.48Z" style="fill: #9b9b9b; stroke-width: 0px;"/>
  <path d="m504.12,56.9h1.48v1.48h-1.48v-1.48Z" style="fill: #9b9b9b; stroke-width: 0px;"/>
  <path d="m507.01,58.38h1.48v1.48h-1.48v-1.48Z" style="fill: #9b9b9b; stroke-width: 0px;"/>
</svg>