<svg enable-background="new 0 0 541.422 61.554" viewBox="0 0 541.422 61.554" xmlns="http://www.w3.org/2000/svg"><g fill="#fff"><path d="m41.076 45.06-8.56 15.965-32.098-59.92h17.119z" stroke="#555554" stroke-miterlimit="10" stroke-width=".5"/><path d="m34.656 25.073 12.84-23.968h17.119l-21.399 39.931z" stroke="#555554" stroke-miterlimit="10" stroke-width=".5"/><path d="m68.981 1.105h15.022l-.043 59.919h-14.979z" stroke="#555554" stroke-miterlimit="10" stroke-width=".5"/><path d="m90.38 1.105h15.022l-.043 59.919h-14.979z" stroke="#555554" stroke-miterlimit="10" stroke-width=".5"/><path d="m109.64 16.085v-14.979h6.42c8.274 0 15.336 2.925 21.186 8.774s8.773 12.911 8.773 21.186-2.925 15.336-8.773 21.186c-5.849 5.849-12.911 8.774-21.186 8.774h-6.42v-14.981h6.42c4.137 0 7.668-1.462 10.592-4.387 2.925-2.924 4.386-6.456 4.386-10.592s-1.462-7.668-4.386-10.593c-2.925-2.924-6.456-4.386-10.592-4.386h-6.42z" stroke="#555554" stroke-miterlimit="10" stroke-width=".5"/><path d="m152.524 1.105h15.022l-.043 59.919h-14.979z" stroke="#555554" stroke-miterlimit="10" stroke-width=".5"/><path d="m171.784 1.105h23.539v14.979h-23.539z" stroke="#555554" stroke-miterlimit="10" stroke-width=".5"/><path d="m171.784 46.045h23.539v14.979h-23.539z" stroke="#555554" stroke-miterlimit="10" stroke-width=".5"/><path d="m171.784 23.574h23.539v14.979h-23.539z" stroke="#555554" stroke-miterlimit="10" stroke-width=".5"/><path d="m246.639 33.204h15.066c-.457 7.361-3.367 13.71-8.731 19.046-5.849 5.849-12.911 8.774-21.186 8.774-8.274 0-15.336-2.925-21.186-8.774-5.336-5.336-8.231-11.684-8.688-19.046h15.065c.428 3.224 1.84 6.035 4.238 8.432 2.91 2.938 6.433 4.408 10.571 4.408s7.675-1.47 10.614-4.408c2.397-2.397 3.809-5.208 4.237-8.432z" stroke="#555554" stroke-miterlimit="10" stroke-width=".5"/><path d="m216.98 28.925h-15.066c.456-7.361 3.353-13.71 8.688-19.046 5.849-5.849 12.911-8.774 21.186-8.774s15.336 2.925 21.186 8.774c5.364 5.336 8.275 11.684 8.731 19.046h-15.066c-.428-3.224-1.84-6.048-4.237-8.474-2.938-2.911-6.476-4.366-10.614-4.366-4.137 0-7.661 1.455-10.571 4.366-2.397 2.425-3.81 5.25-4.237 8.474z" stroke="#555554" stroke-miterlimit="10" stroke-width=".5"/><path d="m268.253 1.105h14.979v59.919h-14.979z" stroke="#555554" stroke-miterlimit="10" stroke-width=".5"/><path d="m287.512 16.085v-14.979h8.046c5.164 0 9.573 1.827 13.225 5.478 3.653 3.653 5.478 8.06 5.478 13.225 0 5.193-1.826 9.616-5.478 13.267-3.653 3.653-8.06 5.478-13.225 5.478h-8.046v-14.98h8.046c1.027 0 1.904-.364 2.632-1.091.727-.727 1.091-1.619 1.091-2.675 0-1.027-.364-1.904-1.091-2.632-.728-.727-1.605-1.092-2.632-1.092z" stroke="#555554" stroke-miterlimit="10" stroke-width=".5"/><path d="m347.43 37.056-12.84 23.968h-17.119l21.4-39.932z" stroke="#555554" stroke-miterlimit="10" stroke-width=".5"/><path d="m353.679 40.694-12.668-23.624 8.56-15.965 32.1 59.919h-17.119l-2.867-5.35h-19.944l8.003-14.979z" stroke="#555554" stroke-miterlimit="10" stroke-width=".5"/><path d="m413.854 45.916v15.022c-7.361-.457-13.71-3.353-19.046-8.688-5.849-5.849-8.773-12.911-8.773-21.186s2.924-15.336 8.773-21.186c5.336-5.336 11.684-8.232 19.046-8.688v15.022c-3.224.428-6.035 1.84-8.432 4.237-2.938 2.938-4.408 6.476-4.408 10.614 0 4.137 1.47 7.661 4.408 10.572 2.398 2.426 5.208 3.853 8.432 4.281z" stroke="#555554" stroke-miterlimit="10" stroke-width=".5"/><path d="m428.492 22.719c-.542-.799-1.17-1.555-1.883-2.269-2.425-2.397-5.249-3.81-8.474-4.237v-15.022c7.361.456 13.71 3.353 19.046 8.688 1.426 1.426 2.682 2.939 3.767 4.537z" stroke="#555554" stroke-miterlimit="10" stroke-width=".5"/><path d="m440.946 47.713c-1.085 1.598-2.341 3.111-3.767 4.537-5.336 5.336-11.684 8.231-19.046 8.688v-15.022c3.225-.428 6.049-1.855 8.474-4.28.714-.714 1.341-1.455 1.883-2.226z" stroke="#555554" stroke-miterlimit="10" stroke-width=".5"/></g><text fill="#d02027" font-family="ArialMT" font-size="1" transform="translate(522.947 31.2787)">I hate bugs!</text><path d="m541.172 22.344h-22.094v-22.094h-16.5v22.094h-22.094v16.5h22.094v22.094h16.5v-22.094h22.094z" fill="#e0286b" stroke="#555554" stroke-miterlimit="10" stroke-width=".5"/><path d="m531.004 22.344h-22.094v-22.094h-16.5v22.094h-22.094v16.5h22.094v22.094h16.5v-22.094h22.094z" fill="#f6c514" stroke="#555554" stroke-miterlimit="10" stroke-width=".5"/><path d="m520.836 22.344h-22.094v-22.094h-16.5v22.094h-22.094v16.5h22.094v22.094h16.5v-22.094h22.094z" fill="#f6c514" stroke="#555554" stroke-miterlimit="10" stroke-width=".5"/><path d="m510.67 22.344h-22.094v-22.094h-16.5v22.094h-22.095v16.5h22.095v22.094h16.5v-22.094h22.094z" fill="#f7f6f4" stroke="#555554" stroke-miterlimit="10" stroke-width=".5"/><path d="m498.742 2.349h1.479v1.479h-1.479z" fill="#ec5c26"/><path d="m501.639.871h1.479v1.479h-1.479z" fill="#ec5c26"/><path d="m504.534.871h1.479v1.479h-1.479z" fill="#ec5c26"/><path d="m507.432 2.349h1.479v1.479h-1.479z" fill="#ef6f4e"/><path d="m498.742 5.306h1.479v1.479h-1.479z" fill="#ec5c26"/><path d="m501.639 3.828h1.479v1.479h-1.479z" fill="#ec5c26"/><path d="m504.534 3.828h1.479v1.479h-1.479z" fill="#ec5c26"/><path d="m507.432 5.306h1.479v1.479h-1.479z" fill="#ef6f4e"/><path d="m498.742 8.263h1.479v1.479h-1.479z" fill="#ec5c26"/><path d="m501.639 6.785h1.479v1.479h-1.479z" fill="#ec5c26"/><path d="m504.534 6.785h1.479v1.479h-1.479z" fill="#ec5c26"/><path d="m507.432 8.263h1.479v1.479h-1.479z" fill="#ef6f4e"/><path d="m498.742 11.22h1.479v1.479h-1.479z" fill="#ec5c26"/><path d="m501.639 9.742h1.479v1.479h-1.479z" fill="#ec5c26"/><path d="m504.534 9.742h1.479v1.479h-1.479z" fill="#ec5c26"/><path d="m507.432 11.22h1.479v1.479h-1.479z" fill="#ef6f4e"/><path d="m498.742 14.177h1.479v1.479h-1.479z" fill="#ec5c26"/><path d="m501.639 12.699h1.479v1.479h-1.479z" fill="#ec5c26"/><path d="m504.534 12.699h1.479v1.479h-1.479z" fill="#ec5c26"/><path d="m507.432 14.177h1.479v1.479h-1.479z" fill="#ef6f4e"/><path d="m498.742 17.134h1.479v1.479h-1.479z" fill="#ec5c26"/><path d="m501.639 15.656h1.479v1.479h-1.479z" fill="#ec5c26"/><path d="m504.534 15.656h1.479v1.479h-1.479z" fill="#ec5c26"/><path d="m507.432 17.134h1.479v1.479h-1.479z" fill="#ef6f4e"/><path d="m498.742 20.091h1.479v1.479h-1.479z" fill="#ec5c26"/><path d="m501.639 18.613h1.479v1.479h-1.479z" fill="#ec5c26"/><path d="m504.534 18.613h1.479v1.479h-1.479z" fill="#ec5c26"/><path d="m507.432 20.091h1.479v1.479h-1.479z" fill="#ef6f4e"/><path d="m520.836 24.625h1.479v1.479h-1.479z" fill="#ec5c26"/><path d="m523.733 23.147h1.479v1.479h-1.479z" fill="#ec5c26"/><path d="m526.629 23.147h1.479v1.479h-1.479z" fill="#ec5c26"/><path d="m529.526 24.625h1.479v1.479h-1.479z" fill="#ef6f4e"/><path d="m520.836 27.582h1.479v1.479h-1.479z" fill="#ec5c26"/><path d="m523.733 26.104h1.479v1.479h-1.479z" fill="#ec5c26"/><path d="m526.629 26.104h1.479v1.479h-1.479z" fill="#ec5c26"/><path d="m529.526 27.582h1.479v1.479h-1.479z" fill="#ef6f4e"/><path d="m520.836 30.539h1.479v1.479h-1.479z" fill="#ec5c26"/><path d="m523.733 29.061h1.479v1.479h-1.479z" fill="#ec5c26"/><path d="m526.629 29.061h1.479v1.479h-1.479z" fill="#ec5c26"/><path d="m529.526 30.539h1.479v1.479h-1.479z" fill="#ef6f4e"/><path d="m520.836 33.496h1.479v1.479h-1.479z" fill="#ec5c26"/><path d="m523.733 32.018h1.479v1.479h-1.479z" fill="#ec5c26"/><path d="m526.629 32.018h1.479v1.479h-1.479z" fill="#ec5c26"/><path d="m529.526 33.496h1.479v1.479h-1.479z" fill="#ef6f4e"/><path d="m520.836 36.453h1.479v1.479h-1.479z" fill="#ec5c26"/><path d="m523.733 34.975h1.479v1.479h-1.479z" fill="#ec5c26"/><path d="m526.629 34.975h1.479v1.479h-1.479z" fill="#ec5c26"/><path d="m529.526 36.453h1.479v1.479h-1.479z" fill="#ef6f4e"/><path d="m498.742 40.889h1.479v1.479h-1.479z" fill="#ec5c26"/><path d="m501.639 39.411h1.479v1.479h-1.479z" fill="#ec5c26"/><path d="m504.534 39.411h1.479v1.479h-1.479z" fill="#ec5c26"/><path d="m507.432 40.889h1.479v1.479h-1.479z" fill="#ef6f4e"/><path d="m498.742 43.846h1.479v1.479h-1.479z" fill="#ec5c26"/><path d="m501.639 42.368h1.479v1.479h-1.479z" fill="#ec5c26"/><path d="m504.534 42.368h1.479v1.479h-1.479z" fill="#ec5c26"/><path d="m507.432 43.846h1.479v1.479h-1.479z" fill="#ef6f4e"/><path d="m498.742 46.803h1.479v1.479h-1.479z" fill="#ec5c26"/><path d="m501.639 45.325h1.479v1.479h-1.479z" fill="#ec5c26"/><path d="m504.534 45.325h1.479v1.479h-1.479z" fill="#ec5c26"/><path d="m507.432 46.803h1.479v1.479h-1.479z" fill="#ef6f4e"/><path d="m498.742 49.76h1.479v1.479h-1.479z" fill="#ec5c26"/><path d="m501.639 48.282h1.479v1.479h-1.479z" fill="#ec5c26"/><path d="m504.534 48.282h1.479v1.479h-1.479z" fill="#ec5c26"/><path d="m507.432 49.76h1.479v1.479h-1.479z" fill="#ef6f4e"/><path d="m498.742 52.717h1.479v1.479h-1.479z" fill="#ec5c26"/><path d="m501.639 51.239h1.479v1.479h-1.479z" fill="#ec5c26"/><path d="m504.534 51.239h1.479v1.479h-1.479z" fill="#ec5c26"/><path d="m507.432 52.717h1.479v1.479h-1.479z" fill="#ef6f4e"/><path d="m498.742 55.674h1.479v1.479h-1.479z" fill="#ec5c26"/><path d="m501.639 54.196h1.479v1.479h-1.479z" fill="#ec5c26"/><path d="m504.534 54.196h1.479v1.479h-1.479z" fill="#ec5c26"/><path d="m507.432 55.674h1.479v1.479h-1.479z" fill="#ef6f4e"/><path d="m498.742 58.631h1.479v1.479h-1.479z" fill="#ec5c26"/><path d="m501.639 57.153h1.479v1.479h-1.479z" fill="#ec5c26"/><path d="m504.534 57.153h1.479v1.479h-1.479z" fill="#ec5c26"/><path d="m507.432 58.631h1.479v1.479h-1.479z" fill="#ef6f4e"/></svg>