<?xml version="1.0" encoding="UTF-8"?>
<svg id="Calque_2" data-name="Calque 2" xmlns="http://www.w3.org/2000/svg" viewBox="0 0 752.2 329.4">
  <g id="Calque_1-2" data-name="Calque 1">
    <g id="Layer_1" data-name="Layer 1">
      <path d="m6,323.4C14,309.1,169.2,30.5,280.3,32.7c131.5,2.7,28.4,276.4,133.3,288C511.5,331.5,719.4,6,719.4,6" style="fill: none; stroke: #fff; stroke-linecap: round; stroke-miterlimit: 10; stroke-width: 12px;"/>
      <polygon points="752.2 222.4 34.9 283.8 31.8 100.6 748.9 35.3 752.2 222.4" style="fill: #fff; stroke-width: 0px;"/>
      <polygon points="746.5 237.7 30 298 26.8 111.5 743.4 49 746.5 237.7" style="fill: #fff; stroke-width: 0px;"/>
      <g style="opacity: .25;">
        <polygon points="97 152.4 100.6 264.4 133.4 260.9 162.3 187.9 160.6 257.8 197 254.7 245.9 138.2 215.7 140.5 183.9 225.9 183.7 144.9 157.4 146.7 124.6 231.6 125.4 149.3 97 152.4" style="stroke-width: 0px;"/>
        <path d="m311,132.8l-38.9,3.2-56.8,117.8,31.4-2.1,9.9-22.5,33.8-2.8.4,20.6,28.9-2.1-8.7-112.1h0Zm-44,71.6l20.9-49.5,1.1,47.5-22,2Z" style="stroke-width: 0px;"/>
        <path d="m402.1,154.7l10.5-23.7s-10.2-6.2-34.2-5.5-39.3,22.8-38.7,38.2,5.4,21.3,10.5,24.9,20,12.6,19.1,20-7.7,10.8-19.4,9.2-16.9-5.3-21.8-6.7c-.1,2.7,0,27,0,27,0,0,7.3,5.6,26.6,5s43.7-10.5,44.7-38.3c.7-19.4-11.1-27.2-16-30.1-13.8-8-14.7-13-12.1-19s13.2-8.7,30.8-1Z" style="stroke-width: 0px;"/>
        <path d="m430.5,122.7l-23.5,114.2s27.1-1.2,26.9-1.8,15.4-82.2,15.4-82.2v79.9l28.9-2.2,37.2-83.8-17.9,82.3s26.6-1.8,26.6-2.3,24.2-114.5,24.2-114.5l-40.6,3.7-36.7,82.7-.3-79.5-40.2,3.5h0Z" style="stroke-width: 0px;"/>
        <polygon points="551.8 170.1 594.2 166.7 589.9 190.6 547.3 194.7 551.8 170.1" style="stroke-width: 0px;"/>
        <path d="m689.5,100.3l-27.7,2-59.3,75.7-3.5,20.8,41.6-4.1-4.5,22.2,29.5-2.5,3.6-22.7,12.3-.6,4.6-22.6-11.2.7,14.6-68.9h0Zm-43.4,70.9l-16.2,1.4,24-32.3-7.8,30.9Z" style="stroke-width: 0px;"/>
      </g>
      <polygon points="82 138.4 85.6 250.4 118.4 246.9 147.3 173.9 145.6 243.8 182 240.7 230.9 124.2 200.7 126.5 168.9 211.9 168.7 130.9 142.4 132.7 109.6 217.6 110.4 135.3 82 138.4" style="stroke-width: 0px;"/>
      <path d="m297,118.8l-38.9,3.2-56.8,117.8,31.4-2.1,9.9-22.5,33.8-2.8.4,20.6,28.9-2.1-8.7-112.1h0Zm-44,71.6l20.9-49.5,1.1,47.5-22,2Z" style="stroke-width: 0px;"/>
      <path d="m387.1,140.7l10.5-23.7s-10.2-6.2-34.2-5.5-39.3,22.8-38.7,38.2,5.2,20.6,10.5,24.9,20,12.6,19.1,20-7.7,10.8-19.4,9.2-16.9-5.3-21.8-6.7c-.1,2.7,0,27,0,27,0,0,7.3,5.6,26.6,5s43.7-10.5,44.7-38.3c.7-19.4-11.1-27.2-16-30.1-13.8-8-14.7-13-12.1-19s13.2-8.7,30.8-1Z" style="stroke-width: 0px;"/>
      <path d="m415.5,108.7l-23.5,114.2s27.1-1.2,26.9-1.8,15.4-82.2,15.4-82.2v79.9l28.9-2.2,37.2-83.8-17.9,82.3s26.6-1.8,26.6-2.3,24.2-114.5,24.2-114.5l-40.6,3.7-36.7,82.7-.3-79.5-40.2,3.5h0Z" style="stroke-width: 0px;"/>
      <polygon points="536.8 156.1 579.2 152.7 574.9 176.6 532.3 180.7 536.8 156.1" style="stroke-width: 0px;"/>
      <path d="m674.5,86.3l-27.7,2-59.3,75.7-3.5,20.8,41.6-4.1-4.5,22.2,29.5-2.5,3.6-22.7,12.3-.6,4.6-22.6-11.2.7,14.6-68.9h0Zm-43.4,70.9l-16.2,1.4,24-32.3-7.8,30.9Z" style="stroke-width: 0px;"/>
    </g>
  </g>
</svg>