<svg id="Calque_1" data-name="Calque 1" xmlns="http://www.w3.org/2000/svg" width="752.2" height="333.3" viewBox="0 0 752.2 333.3"><defs><style>.cls-1,.cls-2{fill:none;stroke-linecap:round;stroke-miterlimit:10;stroke-width:12px;}.cls-1{stroke:#000;}.cls-2{stroke:#feca2a;}.cls-3{fill:#6ebc87;}.cls-4{fill:#2a252e;}.cls-5{fill:#3c3342;}.cls-6{opacity:0.25;}.cls-7{fill:#e94f96;}.cls-8{fill:#ffcd21;}</style></defs><path class="cls-1" d="M26.3,334.7C34.3,320.4,189.5,41.8,300.6,44,432.1,46.7,329,320.4,433.9,332,531.8,342.8,739.7,17.3,739.7,17.3" transform="translate(-15.3 -7.3)"/><path class="cls-2" d="M21.3,330.7C29.3,316.4,184.5,37.8,295.6,40,427.1,42.7,324,316.4,428.9,328,526.8,338.8,734.7,13.3,734.7,13.3" transform="translate(-15.3 -7.3)"/><polygon class="cls-3" points="752.2 222.4 34.9 283.8 31.8 100.6 748.9 35.3 752.2 222.4"/><polygon points="735.9 227.7 22 292.7 18.8 105.6 735.9 40.3 735.9 227.7"/><polygon class="cls-4" points="745.5 237.7 29 298 25.8 111.5 742.4 49 745.5 237.7"/><polygon class="cls-5" points="743.4 112.1 743.3 106.6 26.8 167.3 26.9 172.8 743.4 112.1"/><polygon class="cls-5" points="743.6 122.9 743.5 117.4 27 178.1 27.1 183.6 743.6 122.9"/><polygon class="cls-5" points="743.2 101.2 743.2 95.7 26.6 156.4 26.7 161.9 743.2 101.2"/><polygon class="cls-5" points="743.8 133.8 743.7 128.3 27.2 188.9 27.3 194.4 743.8 133.8"/><polygon class="cls-5" points="745.3 225.8 28.9 286.5 29 292 745.4 231.3 745.3 225.8"/><polygon class="cls-5" points="743.1 90.4 743 84.9 26.4 145.6 26.5 151.1 743.1 90.4"/><polygon class="cls-5" points="744 144.6 743.9 139.1 27.4 199.8 27.5 205.3 744 144.6"/><polygon class="cls-5" points="742.9 79.6 742.8 74.1 26.3 134.8 26.4 140.2 742.9 79.6"/><polygon class="cls-5" points="26.1 123.9 26.2 129.4 742.7 68.7 742.6 63.2 26.1 123.9"/><polygon class="cls-5" points="742.5 57.9 742.4 49 25.8 111.5 26 118.6 742.5 57.9"/><polygon class="cls-5" points="745.2 220.5 745.2 215 28.7 275.6 28.8 281.1 745.2 220.5"/><polygon class="cls-5" points="744.2 155.4 744.1 149.9 27.6 210.6 27.7 216.1 744.2 155.4"/><polygon class="cls-5" points="745.1 209.6 745 204.1 28.5 264.8 28.6 270.3 745.1 209.6"/><polygon class="cls-5" points="744.3 166.3 744.2 160.8 27.8 221.4 27.9 226.9 744.3 166.3"/><polygon class="cls-5" points="744.5 177.1 744.4 171.6 28 232.3 28.1 237.8 744.5 177.1"/><polygon class="cls-5" points="744.9 198.8 744.8 193.3 28.3 254 28.4 259.5 744.9 198.8"/><polygon class="cls-5" points="744.7 187.9 744.6 182.5 28.2 243.1 28.3 248.6 744.7 187.9"/><g class="cls-6"><polygon points="97 152.4 100.6 264.4 133.4 260.9 162.3 187.9 160.6 257.8 197 254.7 245.9 138.2 215.7 140.5 183.9 225.9 183.7 144.9 157.4 146.7 124.6 231.6 125.4 149.3 97 152.4"/><path d="M326.3,140.1l-38.9,3.2L230.6,261.1,262,259l9.9-22.5,33.8-2.8.4,20.6,28.9-2.1Zm-44,71.6,20.9-49.5,1.1,47.5Z" transform="translate(-15.3 -7.3)"/><path d="M417.4,162l10.5-23.7s-10.2-6.2-34.2-5.5S354.4,155.6,355,171s5.4,21.3,10.5,24.9,20,12.6,19.1,20-7.7,10.8-19.4,9.2-16.9-5.3-21.8-6.7c-.1,2.7,0,27,0,27s7.3,5.6,26.6,5,43.7-10.5,44.7-38.3c.7-19.4-11.1-27.2-16-30.1-13.8-8-14.7-13-12.1-19S399.8,154.3,417.4,162Z" transform="translate(-15.3 -7.3)"/><path d="M445.8,130,422.3,244.2s27.1-1.2,26.9-1.8,15.4-82.2,15.4-82.2v79.9l28.9-2.2,37.2-83.8-17.9,82.3s26.6-1.8,26.6-2.3,24.2-114.5,24.2-114.5L523,123.3,486.3,206l-.3-79.5Z" transform="translate(-15.3 -7.3)"/><polygon points="551.8 170.1 594.2 166.7 589.9 190.6 547.3 194.7 551.8 170.1"/><path d="M704.8,107.6l-27.7,2-59.3,75.7-3.5,20.8,41.6-4.1-4.5,22.2,29.5-2.5,3.6-22.7,12.3-.6,4.6-22.6-11.2.7Zm-43.4,70.9-16.2,1.4,24-32.3Z" transform="translate(-15.3 -7.3)"/></g><polygon class="cls-7" points="88 144.4 91.6 256.4 124.4 252.9 153.3 179.9 151.6 249.8 188 246.7 236.9 130.2 206.7 132.5 174.9 217.9 174.7 136.9 148.4 138.7 115.6 223.6 116.4 141.3 88 144.4"/><path class="cls-7" d="M317.3,132.1l-38.9,3.2L221.6,253.1,253,251l9.9-22.5,33.8-2.8.4,20.6,28.9-2.1Zm-44,71.6,20.9-49.5,1.1,47.5Z" transform="translate(-15.3 -7.3)"/><path class="cls-7" d="M408.4,154l10.5-23.7s-10.2-6.2-34.2-5.5S345.4,147.6,346,163s5.4,21.3,10.5,24.9,20,12.6,19.1,20-7.7,10.8-19.4,9.2-16.9-5.3-21.8-6.7c-.1,2.7,0,27,0,27s7.3,5.6,26.6,5,43.7-10.5,44.7-38.3c.7-19.4-11.1-27.2-16-30.1-13.8-8-14.7-13-12.1-19S390.8,146.3,408.4,154Z" transform="translate(-15.3 -7.3)"/><path class="cls-7" d="M436.8,122,413.3,236.2s27.1-1.2,26.9-1.8,15.4-82.2,15.4-82.2v79.9l28.9-2.2,37.2-83.8-17.9,82.3s26.6-1.8,26.6-2.3,24.2-114.5,24.2-114.5L514,115.3,477.3,198l-.3-79.5Z" transform="translate(-15.3 -7.3)"/><polygon class="cls-7" points="542.8 162.1 585.2 158.7 580.9 182.6 538.3 186.7 542.8 162.1"/><path class="cls-7" d="M695.8,99.6l-27.7,2-59.3,75.7-3.5,20.8,41.6-4.1-4.5,22.2,29.5-2.5,3.6-22.7,12.3-.6,4.6-22.6-11.2.7Zm-43.4,70.9-16.2,1.4,24-32.3Z" transform="translate(-15.3 -7.3)"/><polygon class="cls-8" points="82 138.4 85.6 250.4 118.4 246.9 147.3 173.9 145.6 243.8 182 240.7 230.9 124.2 200.7 126.5 168.9 211.9 168.7 130.9 142.4 132.7 109.6 217.6 110.4 135.3 82 138.4"/><path class="cls-8" d="M311.3,126.1l-38.9,3.2L215.6,247.1,247,245l9.9-22.5,33.8-2.8.4,20.6,28.9-2.1Zm-44,71.6,20.9-49.5,1.1,47.5Z" transform="translate(-15.3 -7.3)"/><path class="cls-8" d="M402.4,148l10.5-23.7s-10.2-6.2-34.2-5.5S339.4,141.6,340,157s5.2,20.6,10.5,24.9,20,12.6,19.1,20-7.7,10.8-19.4,9.2-16.9-5.3-21.8-6.7c-.1,2.7,0,27,0,27s7.3,5.6,26.6,5,43.7-10.5,44.7-38.3c.7-19.4-11.1-27.2-16-30.1-13.8-8-14.7-13-12.1-19S384.8,140.3,402.4,148Z" transform="translate(-15.3 -7.3)"/><path class="cls-8" d="M430.8,116,407.3,230.2s27.1-1.2,26.9-1.8,15.4-82.2,15.4-82.2v79.9l28.9-2.2,37.2-83.8-17.9,82.3s26.6-1.8,26.6-2.3,24.2-114.5,24.2-114.5L508,109.3,471.3,192l-.3-79.5Z" transform="translate(-15.3 -7.3)"/><polygon class="cls-8" points="536.8 156.1 579.2 152.7 574.9 176.6 532.3 180.7 536.8 156.1"/><path class="cls-8" d="M689.8,93.6l-27.7,2-59.3,75.7-3.5,20.8,41.6-4.1-4.5,22.2,29.5-2.5,3.6-22.7,12.3-.6,4.6-22.6-11.2.7Zm-43.4,70.9-16.2,1.4,24-32.3Z" transform="translate(-15.3 -7.3)"/></svg>