<?xml version="1.0" encoding="UTF-8"?>
<svg id="Calque_1" data-name="Calque 1" xmlns="http://www.w3.org/2000/svg" viewBox="0 0 249.54 66.71">
  <path d="m1.14,18L13.89,0s6.69,5.12,21.07,5.38,19.31-.12,25.5-1.39c-4,4.93-40.06,45.28-40.06,45.28,0,0,9.52,0,15.7,1.68,3.81.9,7.5,2.25,11,4,4.17-2,12.62-6.18,12.62-6.18l-12.9,17.94s-4.74-4.89-22.46-5.54c-19.31-.71-24.36,1.39-24.36,1.39L40.33,17.33c-4.81-.21-9.59-.75-14.33-1.6-4.45-.79-8.74-2.3-12.7-4.46-2.02,1.51-12.16,6.73-12.16,6.73Z" style="fill: #fff; stroke-width: 0px;"/>
  <rect x="11.23" y="30.75" width="40.89" height="6.44" rx="2.3" ry="2.3" style="fill: #fff; stroke-width: 0px;"/>
  <g id="layer1">
    <path id="rect4734" d="m107.64,4.33h0c1.76.13,3.1,1.65,3,3.41v13.54c.1,1.76-1.24,3.28-3,3.41h0c-1.76-.13-3.1-1.65-3-3.41V7.74c-.1-1.76,1.24-3.28,3-3.41Z" style="fill: #fff; stroke-width: 0px;"/>
    <path id="rect4736" d="m114.91,4.33c-.66,0-1.29.23-1.79.66-.81.53-1.31,1.43-1.32,2.4,0,.22.03.43.08.64v13.25c-.22,1.68.97,3.21,2.64,3.43,1.68.22,3.21-.97,3.43-2.64.03-.26.03-.52,0-.78v-10.84h7.81v10.84c-.22,1.68.97,3.21,2.64,3.43,1.68.22,3.21-.97,3.43-2.64.03-.26.03-.52,0-.78V7.74c.1-1.77-1.23-3.29-3-3.41-.12-.01-.25-.01-.37,0h-13.24c-.1-.01-.21-.01-.31,0Z" style="fill: #fff; stroke-width: 0px;"/>
    <path id="rect4740" d="m136,4.33c-1.77.12-3.1,1.64-3,3.41v13.54c-.22,1.68.97,3.21,2.64,3.43,1.68.22,3.21-.97,3.43-2.64.03-.26.03-.52,0-.78v-3.16h10.43c1.75.08,3.25-1.25,3.38-3-.13-1.76-1.65-3.1-3.41-3h-10.43v-1.68h10.43c1.78.1,3.31-1.27,3.41-3.05-.13-1.76-1.65-3.1-3.41-3h-13.12l-.35-.06Z" style="fill: #fff; stroke-width: 0px;"/>
    <path id="rect4742" d="m161.08,4.33c-4.08-.01-7.4,3.29-7.41,7.37,0,.01,0,.02,0,.03v5.27c0,4.08,3.3,7.39,7.38,7.4.01,0,.02,0,.03,0h5.39c4.08.01,7.4-3.29,7.41-7.37,0-.01,0-.02,0-.03v-5.27c0-4.08-3.3-7.39-7.38-7.4-.01,0-.02,0-.03,0h-5.39Zm.38,6.29h4.3c1.1,0,2,.9,2,2v4.21c0,1.1-.9,2-2,2h-4.3c-1.1,0-2-.9-2-2v-4.25c.02-1.09.91-1.96,2-1.96h0Z" style="fill: #fff; stroke-width: 0px;"/>
    <path id="rect4762" d="m219.87,4.35c-1.76-.1-3.28,1.24-3.41,3,0,.11,0,.22,0,.33,0,.15,0,.3,0,.45v12.99c-.17,1.68,1.06,3.18,2.74,3.35,1.68.17,3.18-1.06,3.35-2.74.02-.2.02-.4,0-.61v-10.68h1.5v10.68c-.17,1.68,1.06,3.18,2.74,3.35,1.68.17,3.18-1.06,3.35-2.74.02-.2.02-.4,0-.61v-10.68h.71l4.07,12.21c.34,1.66,1.96,2.74,3.62,2.4s2.74-1.96,2.4-3.62c-.05-.25-.13-.49-.24-.71l-4.11-12.32c-.14-.39-.21-.63-.32-1-.25-1.7-1.69-2.97-3.41-3l-12.99-.05Z" style="fill: #fff; stroke-width: 0px;"/>
    <path id="rect4752" d="m182.34,4.33c-4.08-.01-7.39,3.28-7.4,7.36,0,.01,0,.03,0,.04v5.27c0,3.97,3.13,7.24,7.1,7.4h9.4c1.76.1,3.28-1.24,3.41-3-.13-1.76-1.65-3.1-3.41-3h-9.4c-.7-.32-1.15-1.02-1.16-1.79v-4.24c.01-.94.67-1.74,1.59-1.93h9c1.78.1,3.31-1.27,3.41-3.05-.13-1.76-1.65-3.1-3.41-3h-7.11l-2.02-.06Z" style="fill: #fff; stroke-width: 0px;"/>
    <path id="path4785" d="m202.85,4.33c-4.08-.01-7.39,3.28-7.4,7.36,0,.01,0,.03,0,.04v5.27c-.01,4.08,3.28,7.39,7.36,7.4.01,0,.03,0,.04,0h5.4c4.08.01,7.39-3.28,7.4-7.36,0-.01,0-.03,0-.04v-5.27c.01-4.08-3.28-7.39-7.36-7.4-.01,0-.03,0-.04,0h-5.4Zm.39,6.29h4.26c1.1,0,2,.9,2,2v4.21c0,1.1-.9,2-2,2h-4.26c-1.1,0-2-.9-2-2v-4.25c.02-1.09.91-1.96,2-1.96Z" style="fill: #fff; stroke-width: 0px;"/>
    <path id="path4792" d="m247.26,10.64h-.7v-3.09h0l-1.41,3.09h-.39l-1.38-3.09h0v3.09h-.66v-4.27h.82l1.46,3.2h0l1.47-3.2h.82v4.27h-.03Zm-5.13-3.64h-1.37v3.64h-.72v-3.64h-1.28v-.63h3.4l-.03.63Z" style="fill: #fff; stroke-width: 0px;"/>
  </g>
  <path d="m73.27,52.12h-11.21v-3.6h11.21v3.6Z" style="fill: #fff; stroke-width: 0px;"/>
  <path d="m107.14,62.79h-11.79v-1.67c1.26-.06,3.39-.14,3.88-1.54.2-.45.3-.93.28-1.42v-23.64h-.28l-9.11,27.75h-.94l-8.67-28.33h-.25c.12,3.12-.29,21.14.3,23.74.2,2.44,2.38,3.14,4.29,3.44v1.63h-10.77v-1.63c4.51-.22,4.34-3.23,4.36-7.52-.11-1.56.29-18-.28-19-.55-1.68-2.14-2.8-3.91-2.75v-1.62h9.1l7.64,24.44c.79-2.89,7.36-21.9,7.41-24.44h8.71v1.63c-1.09.16-3,.23-3.41,1.46-.15.45-.23.92-.22,1.4v23.48c-.26,2.13,1.92,2.91,3.66,3v1.59Z" style="fill: #fff; stroke-width: 0px;"/>
  <path d="m133.93,62.79h-11.1v-1.67c1.25-.17,3.09-.21,3.41-1.3.17-.45-2.23-7.71-2.36-8.33h-9.37c-.72,2.17-1.31,4.38-1.75,6.63-.75,2.3,1.89,2.9,3.76,3v1.63h-10v-1.63c2.31-.16,3.79-1.79,4.4-4,2.57-7.81,6.28-19.6,8.76-27.38h1.51l8.9,28.09c.14.51.36,1,.64,1.45.73,1.07,1.91,1.75,3.2,1.84v1.67Zm-10.74-13.31l-4-12.64-4,12.64h8Z" style="fill: #fff; stroke-width: 0px;"/>
  <path d="m144.94,63.57c-11.09-.42-13.93-15-11.15-23.82,2.16-8.29,11-13.52,18.34-8l.78-1.56h1.5l.17,11.61h-1.54c-.65-3.23-1.68-7.51-4.46-9.49-3.15-2.14-7.2-.18-8.94,3s-2.32,7.18-2.33,11.14c0,5,1.25,10.46,5.35,13.37,5,3.27,10.27-1,11.51-6.13l1.41.83c-1.93,5.78-4.95,8.95-10.64,9.05Z" style="fill: #fff; stroke-width: 0px;"/>
  <path d="m183.86,62.79h-11.1v-1.67c1-.13,2.86-.06,3.31-1.25.53-.46.15-12.17.26-13h-12.52c.08.79-.21,12.32.22,12.69.37,1.13,2.22,1.51,3.28,1.6v1.63h-11.08v-1.67c1.84-.08,3.74-.33,3.58-2.7v-23.47c.2-2-1.89-2.92-3.58-3.09v-1.63h11.08v1.63c-1.07.15-2.89.27-3.28,1.46-.43.57-.14,10.62-.22,11.5h12.55c-.09-.89.24-10.66-.24-11.21-.49-1.18-2.21-1.58-3.33-1.75v-1.63h12.78v1.63h-1.71c-1.06.16-2.89.26-3.28,1.46-.14.45-.21.93-.21,1.4v23.48c-.26,2.06,1.78,2.88,3.49,3h1.71v1.63l-1.71-.04Z" style="fill: #fff; stroke-width: 0px;"/>
  <path d="m197.59,62.79h-12.23v-1.67c2.07,0,4.44-.18,4.22-2.66v-23.55c.01-.46-.06-.91-.21-1.34-.52-1.15-2.64-1.66-4-1.73l.07-1.61h12.42v1.63h-.27c-1.75.09-4.28.5-4,2.82v23.57c0,.46.08.92.27,1.34.53,1.22,2.54,1.44,3.73,1.57h.72v1.63h-.72Z" style="fill: #fff; stroke-width: 0px;"/>
  <path d="m226.63,31.86c-1.88.29-4,.78-4.09,3.28-.47,2.26-.14,25.12-.23,28h-1.64l-16.17-26.67c.11,3.13-.29,18.47.29,21.14.2,2.55,2.49,3.22,4.46,3.55v1.63h-11.35v-1.67c5-.23,4.7-3.05,4.77-7.64-.1-1.29.28-17.42-.3-18.15-.52-2.1-2.45-3.55-4.61-3.47v-1.63h7.73l15,24.82c-.11-3.12.29-17.18-.3-19.86-.19-2.5-2.51-3-4.4-3.33v-1.63h11.1v1.63h-.26Z" style="fill: #fff; stroke-width: 0px;"/>
  <path d="m249.54,53.2l-.5,9.59h-22.16v-1.67c1.87-.14,4-.37,3.8-2.8v-23.37c0-.46-.06-.91-.21-1.34-.44-1.23-2.53-1.77-3.7-1.75v-1.63h20.76v7.89h-1.41c-.33-1.7-2.21-5.55-4-5.86-2.47-.19-4.95-.25-7.43-.18v12.9c5,.15,6.74.25,7.4-5.32h1.41v12.76h-1.41c-.6-5.74-2.25-5.71-7.4-5.55v9.76c0,2,0,3.87,2.17,4.16,8.33.49,8.62.34,11.34-7.59h1.34Z" style="fill: #fff; stroke-width: 0px;"/>
</svg>