<?xml version="1.0" encoding="UTF-8"?>
<svg id="Calque_2" data-name="Calque 2" xmlns="http://www.w3.org/2000/svg" viewBox="0 0 222.04 325.94">
  <g id="Calque_1-2" data-name="Calque 1">
    <g>
      <path d="m26.94,3.96c.15-1.7,1.07-2.81,2.63-3.44.91-.01,1.83-.04,2.74-.04,50.6-.02,101.19-.03,151.79-.04.77,0,1.54.08,2.31.13,1.19.68,2.05,1.59,2.25,3.01-.08,4.45-.31,8.91.09,13.36-.57,2.51-1.43,3.22-4.34,3.22-7.94.01-15.88-.07-23.82-.06-43,.03-86,.06-129,.12-2.19,0-3.86-.55-4.61-2.79-.01-4.49-.02-8.98-.03-13.48Zm158.55-.12c-.12-.11-.23-.22-.35-.33-.75-.98-1.82-.54-2.74-.54-49.68-.02-99.35-.02-149.03-.02-.63,0-1.26,0-1.9,0-.56,0-.94.22-1.07.8-.52,1.28-.42,2.59-.16,3.91-.06,2.17-.15,4.35-.17,6.52-.02,2.75,0,2.74,2.78,2.74,46.28,0,92.55,0,138.83-.01,4,0,8.01-.04,12.01.03,1.36.02,1.89-.44,1.85-1.81-.09-2.52-.07-5.05-.09-7.58.08-.27.15-.54.23-.81.5-1,.73-1.99-.17-2.9Z" style="fill: #130c4d; stroke-width: 0px;"/>
      <path d="m35.68,324.39c-.21-.03-.43-.07-.64-.1-.23-.29-.54-.37-.9-.32,0,0,.05.02.05.02-.35-.58-.91-.49-1.45-.44l-.12.03s-.1-.07-.1-.07c-.27-.36-.66-.41-1.07-.37-2.25-.34-4.05-1.78-6.15-2.52-8.07-4.66-14.62-10.85-19.06-19.12-.36-.68-.68-1.38-1.01-2.07.54-.85.16-1.32-.67-1.61,0,0,.04.04.04.04.17-1,0-1.93-.43-2.86-1.87-3.99-2.69-8.38-2.73-12.61-.12-12.8-.78-25.63.69-38.41.13-1.15.37-1.93,1.71-1.79.04,1.12.11,2.23.11,3.35,0,11.42-.06,22.83,0,34.25.03,5.49.96,10.84,3.36,15.85,1.68,4.22,3.74,8.2,7.05,11.41-.12.59.32.9.64,1.25,8.38,9.15,18.68,14.29,31.18,14.31,42.01.07,84.03.04,126.04.03,5.43,0,10.91.34,16.12-1.75.41.03.79,0,1.04-.39h-.02c.36.01.67-.09.86-.43l-.02.02c.15-.1.29-.2.44-.3.27-.04.54-.08.81-.12.15-.11.31-.22.46-.32.13-.03.27-.06.4-.1.48.01.97.04,1.29-.44,1.09-.57,2.18-1.14,3.27-1.71,2.01.46,1.72,1.66.97,3.01,0,0-.02.01-.02.01-.34.01-.63.13-.81.44,0,0,0,0,0,0-.35,0-.66.1-.85.42,0,0,0,0,0,0-.35,0-.65.1-.85.42,0,0,0,0,0,0-.28.13-.57.26-.85.39l-.11.08s-.13,0-.13,0c-.41-.04-.78.02-1.01.43,0,0,.03-.02.03-.02-.36-.03-.68.06-.9.37l-.1.08s-.12-.01-.13-.01c-1.52-.18-2.8.36-3.94,1.32,0,0,.01-.03.01-.03-.5-.09-.99-.12-1.31.38,0,0,.02-.02.02-.02-2.2.01-4.38.11-6.36,1.22-1.08.45-2.21.34-3.33.34-43.81,0-87.61,0-131.42-.03-.9,0-1.81-.16-2.71-.25-.97-.86-2.13-.34-3.2-.42l-.07.08s-.09-.06-.09-.06c-1.25-.75-2.62-.9-4.04-.86Z" style="fill: #0c0b49; stroke-width: 0px;"/>
      <path d="m3.84,242.18c-1.35-.14-1.58.64-1.71,1.79-1.47,12.78-.81,25.61-.69,38.41.04,4.24.86,8.62,2.73,12.61.44.93.61,1.86.43,2.86-1.27-1.84-1.5-4.09-2.43-6.07-.03-.52.05-1.06-.38-1.48l.06-.11s-.1-.08-.1-.08c-.02-.46.06-.95-.28-1.35,0,0,.08.03.08.03-.31-.88-.03-1.89-.62-2.7,0,0,.06-.14.06-.14-.09-3.02-.26-6.04-.26-9.06-.04-84.53-.06-169.06-.07-253.6,0-.95-.2-1.98.58-2.78.02,3.7.1,7.4.05,11.09-.03,1.93.95,3.05,2.55,3.82.03.63.09,1.26.09,1.89,0,66.32.01,132.64,0,198.96,0,1.96-.06,3.93-.09,5.89Z" style="fill: #09043c; stroke-width: 0px;"/>
      <path d="m189.62,3.51c.56-2.18,2.05-2.99,4.2-2.99,6.52,0,13.04-.06,19.56-.04,4.96.02,8.57,3.51,8.48,8.46-.06,3.6.69,7.25-.46,10.82-.12.37.26.9.4,1.36-.58.74-.34,1.62-.34,2.43-.02,7.9-.02,15.8-.02,23.7-1.26.2-.82,2.46-2.54,2.11-.03-7.83-.07-15.66-.1-23.49q-.02-5.71-5.77-5.62c-6.36,0-12.72-.01-19.08-.02-2.74,0-3.72-.76-4.42-3.41.4-4.43.21-8.87.09-13.31Zm25.08-.04c-.38-.55-.96-.51-1.52-.51-6.11,0-12.22,0-18.33,0-.63,0-1.3-.07-1.61.69-.83,1.28-.42,2.67-.38,4.03-.03,2.58-.01,5.17-.11,7.75-.05,1.24.5,1.55,1.61,1.54,6.21-.06,12.43-.07,18.64-.1,1.39.02,2.78,0,4.17.07,1.15.06,1.66-.4,1.62-1.57-.07-2.15-.1-4.31-.11-6.47-.01-2.8-1.39-4.56-4-5.43Z" style="fill: #130c4d; stroke-width: 0px;"/>
      <path d="m3.84,35.44c-1.6-.77-2.58-1.89-2.55-3.82.05-3.7-.02-7.39-.05-11.09.25-.85-.24-1.46-.67-2.08,0,0,.07.07.06.07.16-4.05-.11-8.12.35-12.16,0,0-.04.07-.04.07.33-.22.34-.57.35-.91,0,0,.02-.04.02-.04.13-.26.26-.52.39-.78,0,0,.05-.09.04-.09.16-.24.32-.48.47-.72C4.45,1.29,7.3.38,10.64.46c3.71.09,7.42.05,11.13,0,2.07-.04,3.54.66,4.11,2.77,0,0,0,.02,0,.02.09.3.17.59.26.88-.4,4.43-.28,8.88-.25,13.33-.48,2.11-2.01,2.71-3.94,2.73-4.36.04-8.71.08-13.07.11-.98-.02-1.96.03-2.93-.09-1.62-.21-2.12.39-2.09,2.04.09,4.4-.01,8.8-.04,13.2ZM22.76,3.7c-.26-.78-.91-.74-1.54-.74-3.75,0-7.5,0-11.25,0-.56,0-1.13-.02-1.45.58-3.56.99-4.63,2.42-4.65,6.17,0,.98,0,1.96.02,2.95q.06,4.56,4.67,4.18c4.25.03,8.51.04,12.76.1,1.07.02,1.5-.39,1.48-1.47-.06-2.72-.06-5.44-.08-8.16l.05-3.6Z" style="fill: #130c4d; stroke-width: 0px;"/>
      <path d="m.57,18.45c.43.63.92,1.24.67,2.08-.78.8-.58,1.83-.58,2.78.01,84.53.03,169.06.07,253.6,0,3.02.17,6.04.26,9.06-.79-1.82-.92-3.74-.92-5.69,0-30.14-.02-60.27-.02-90.41,0-54.7.01-109.39-.02-164.09,0-2.47.34-4.89.55-7.32Z" style="fill: #f5d9cd; stroke-width: 0px;"/>
      <path d="m197.85,320.1c.74-1.35,1.04-2.55-.97-3.01,5.61-3.47,10.47-7.74,14.17-13.25,5.28-7.85,7.81-16.51,7.76-25.96-.04-7.01.04-14.02.07-21.04,1.38.45,1.08,1.69,1.33,2.7.35,1.37-.24,3.03,1.24,4.05,0,5.58,0,11.16.02,16.75,0,.75-.2,1.55.35,2.22-.21,7.56-2.79,14.37-6.57,20.8-.99,1.69-2.12,3.3-3.19,4.94-3.6,4.1-7.42,7.96-12.17,10.76-.66.39-1.35.7-2.03,1.04Z" style="fill: #130c4d; stroke-width: 0px;"/>
      <path d="m221.81,282.56c-.55-.67-.35-1.47-.35-2.22-.02-5.58-.01-11.16-.02-16.75,0-72.12,0-144.24,0-216.36,0-7.9,0-15.8.02-23.7,0-.82-.24-1.69.34-2.43.04,1.75.1,3.51.11,5.26,0,84.13,0,168.27,0,252.4,0,1.26-.07,2.53-.1,3.79Z" style="fill: #09043c; stroke-width: 0px;"/>
      <path d="m186.4.57c-.77-.04-1.54-.13-2.31-.13-50.6,0-101.19.02-151.79.04-.91,0-1.83.02-2.74.04.6-.7,1.43-.47,2.17-.47,50.85-.01,101.69-.01,152.54,0,.73,0,1.58-.28,2.13.52Z" style="fill: #f5d9cd; stroke-width: 0px;"/>
      <path d="m189.62,3.51c.12,4.44.31,8.88-.09,13.31-.26.04-.53.08-.79.12-.4-4.45-.17-8.91-.09-13.36.32-.02.65-.05.97-.07Z" style="fill: #d22d4e; stroke-width: 0px;"/>
      <path d="m25.89,17.45c-.03-4.45-.15-8.89.25-13.33.27-.05.53-.11.8-.16.01,4.49.02,8.99.03,13.48-.36-.44-.72-.29-1.08,0Z" style="fill: #d22d4e; stroke-width: 0px;"/>
      <path d="m.99,6.36c-.46,4.04-.2,8.11-.35,12.16-.15-.14-.42-.28-.43-.43-.14-3.77-.54-7.55.37-11.28.04-.17.27-.3.41-.46Z" style="fill: #f5d9cd; stroke-width: 0px;"/>
      <path d="m.93,286.1c.59.81.31,1.82.62,2.7-1.14-.69-.46-1.79-.62-2.7Z" style="fill: #f5d9cd; stroke-width: 0px;"/>
      <path d="m4.56,297.81c.83.28,1.2.76.67,1.61-.5-.42-.58-1.02-.67-1.61Z" style="fill: #09043c; stroke-width: 0px;"/>
      <path d="m1.47,288.77c.34.4.26.88.28,1.35-.52-.36-.41-.85-.28-1.35Z" style="fill: #f5d9cd; stroke-width: 0px;"/>
      <path d="m1.79,290.31c.43.41.36.96.38,1.48-.53-.39-.38-.95-.38-1.48Z" style="fill: #f5d9cd; stroke-width: 0px;"/>
      <path d="m2.23,3.88c-.16.24-.32.48-.47.72.04-.32.13-.6.47-.72Z" style="fill: #f5d9cd; stroke-width: 0px;"/>
      <path d="m1.71,4.69c-.13.26-.26.52-.39.78.13-.26.26-.52.39-.78Z" style="fill: #f5d9cd; stroke-width: 0px;"/>
      <path d="m1.3,5.51c-.01.34-.02.69-.35.91-.03-.36,0-.7.35-.91Z" style="fill: #f5d9cd; stroke-width: 0px;"/>
      <path d="m25.88,3.24s0-.02,0-.02c0,0,0,.02,0,.02Z" style="fill: #d22d4e; stroke-width: 0px;"/>
      <path d="m180.55,325.59c1.99-1.11,4.17-1.21,6.36-1.22-2.02.91-4.17,1.2-6.36,1.22Z" style="fill: #130c4d; stroke-width: 0px;"/>
      <path d="m188.19,324.03c1.14-.96,2.42-1.49,3.94-1.32-1.19.8-2.54,1.16-3.94,1.32Z" style="fill: #130c4d; stroke-width: 0px;"/>
      <path d="m35.68,324.39c1.42-.04,2.79.1,4.04.86-1.4-.04-2.79-.13-4.04-.86Z" style="fill: #130c4d; stroke-width: 0px;"/>
      <path d="m39.88,325.23c1.07.08,2.23-.44,3.2.42-1.09.05-2.19.13-3.2-.42Z" style="fill: #130c4d; stroke-width: 0px;"/>
      <path d="m32.73,323.55c.54-.04,1.1-.13,1.45.44-.52-.02-1.05-.03-1.45-.44Z" style="fill: #130c4d; stroke-width: 0px;"/>
      <path d="m186.89,324.38c.33-.5.81-.48,1.31-.38-.35.44-.84.37-1.31.38Z" style="fill: #130c4d; stroke-width: 0px;"/>
      <path d="m197.01,320.56c.18-.32.47-.43.81-.44-.27.15-.54.3-.81.44Z" style="fill: #130c4d; stroke-width: 0px;"/>
      <path d="m196.17,320.98c.19-.32.5-.43.85-.42-.19.33-.51.4-.85.42Z" style="fill: #130c4d; stroke-width: 0px;"/>
      <path d="m195.32,321.4c.19-.32.49-.42.85-.42-.19.32-.5.41-.85.42Z" style="fill: #130c4d; stroke-width: 0px;"/>
      <path d="m194.47,321.79c.28-.13.57-.26.85-.39-.21.3-.51.39-.85.39Z" style="fill: #130c4d; stroke-width: 0px;"/>
      <path d="m193.22,322.29c.22-.41.6-.46,1.01-.43-.34.14-.67.28-1.01.43Z" style="fill: #130c4d; stroke-width: 0px;"/>
      <path d="m192.36,322.65c.22-.31.53-.4.9-.37-.21.34-.55.37-.9.37Z" style="fill: #130c4d; stroke-width: 0px;"/>
      <path d="m31.45,323.13c.41-.04.8,0,1.07.37-.4,0-.79-.03-1.07-.37Z" style="fill: #130c4d; stroke-width: 0px;"/>
      <path d="m34.14,323.97c.35-.05.66.03.9.32-.35.04-.68,0-.9-.32Z" style="fill: #130c4d; stroke-width: 0px;"/>
      <path d="m25.89,17.45c.36-.3.72-.45,1.08,0,.75,2.23,2.43,2.79,4.61,2.78,43-.06,86-.1,129-.12,7.94,0,15.88.07,23.82.06,2.91,0,3.76-.72,4.34-3.22.26-.04.53-.08.79-.12.7,2.65,1.68,3.4,4.42,3.4,6.36,0,12.72.01,19.08.02.03.56.09,1.12.09,1.67.02,85.45.03,170.91.03,256.36,0,1.96.04,3.97-.3,5.88-2.01,11.24-7.54,20.3-17.14,26.62-5.65,3.72-11.94,5.75-18.74,5.86-6.32.1-12.64.02-18.95.02-37.1,0-74.21.03-111.31-.03-10.35-.02-19.33-3.75-26.85-10.88-2.32-2.19-4.14-1.8-5.48,1.3-3.32-3.2-5.38-7.19-7.05-11.41.4-.69.93-1.2,1.67-1.54,1.55-.7,2.1-1.64,1.47-3.49-1.14-3.32-1.58-6.78-1.58-10.34.03-86.66.02-173.31.02-259.97,4.36-.04,8.71-.07,13.07-.11,1.92-.02,3.46-.63,3.94-2.73Zm111.5,247.24c.39-.08.55-.32.52-.71.97-2.56.93-5-1.22-6.97-2.21-2.02-4.56-1.5-7-.24-5.22,2.69-10.49,5.3-15.77,7.9-4.81,2.37-5.42,5.9-1.65,9.84,1.03,1.9,3.09,2.78,5.09,1.8,6.17-3,12.4-5.89,18.34-9.32.83-.48,1.71-1.03,1.63-2.23l.04-.06ZM20.91,35.86c-.76.33-.62,1.02-.63,1.64-.08,7.09.06,14.17-.35,21.26-.32,5.45.23,10.94.27,16.4.17,27.83.08,55.67.11,83.5,0,.83-.48,1.87.63,2.45.18.36.37.72.55,1.08.3.48.6.97.9,1.45.5,2.78,1.72,3.8,4.58,3.8,42.28,0,84.57-.04,126.85.02,8.42.01,16.34-1.76,23.53-6.09,13.57-8.18,22.13-19.92,22.36-36.07.42-28.3.12-56.61.1-84.92,0-1.23.01-2.57-1.35-3.29-.31-1.98-1.06-3.62-3.22-4.17-.08-.11-.17-.12-.27-.03-.87-.36-1.79-.29-2.7-.29-38.89.03-77.78.06-116.66.09-10.88,0-21.76.04-32.63.06-5.94-.34-11.88-.16-17.82-.16-1.51,0-2.85.5-3.63,1.96-.62.25-.29.94-.63,1.32Zm177.36,186.38c.33-.53.62-1.08.99-1.58,2.88-3.95,4.26-8.33,3.59-13.2-.23-1.66-.37-3.48-1.9-4.66-.23-.58-.45-1.18-.71-1.75-2.99-6.48-8.89-9.99-16.05-9.56-6.06.37-11.74,4.74-13.64,10.56-1.66,5.07-.69,9.8,2.04,14.26.11.47.13.98.33,1.41,2.75,6.09,10.13,9.81,16.69,8.62,2.66-.48,4.91-1.83,7.35-2.78.08,1.7-.56,3.28-.92,4.9-.17.77-.56,1.63.31,2.04.95.45,1.23-.39,1.53-1.14.31-.77,3.33-1.91,3.71-1.48.45.51.63,1.63,1.65.66.88-.84.25-1.56-.29-2.17-1.39-1.55-2.78-3.14-4.68-4.12Zm-63.25,10.53l.02.02c.06.41,0,.88.19,1.21,2.71,4.75,6.55,7.92,12.16,8.52,4.46.48,8.56-.59,12.35-2.96-.49,2.1-.65,4.27-1.42,6.31-.22.59-.07,1.13.6,1.36.44.15.86.06,1-.44.51-1.81,2.38-1.99,3.32-2.87,1.12-.08.58,1.97,1.89,1.18,1.19-.72.78-1.78.04-2.69-1.23-1.52-2.48-3.03-4.42-3.72.23-.42.41-.89.71-1.25,3.08-3.75,4.31-8.08,3.85-12.85-.2-2.08-.37-4.32-2.36-5.73-.31-.71-.58-1.43-.93-2.11-4.9-9.64-16.59-12.13-24.65-5.25-5.99,5.1-7.01,13.16-2.65,20.8.11.16.21.33.32.49Zm-62.05,43.1c1.07,1.8,2.67,2.51,4.53,1.67,6.74-3.06,13.48-6.16,19.85-9.96,1.02-.61,2.19-1.35,1.93-2.92,1.01-2.6.78-5.03-1.37-6.92-2.22-1.96-4.57-1.4-7.01-.14-5.4,2.79-10.88,5.45-16.34,8.14-4.99,2.45-5.59,6.2-1.6,10.13Zm-29.94-69.14c-4.21,0-8.41.01-12.62.02-1.35.03-2.47.44-3.02,1.81-.6.6-.64,1.39-.64,2.15-.01,4.56.01,9.11.02,13.67-.37,1.37.79,2.2,1.14,3.32.45,2.87,1.6,3.89,4.43,3.91,1.61.01,3.22-.06,4.83.03,2.07.13,4.19-.45,6.23.36.01,2.65.09,5.3,0,7.95-.06,1.62.27,3.02,1.35,4.24.23,2.43,1.64,3.8,4.08,3.82,4.42.03,8.84,0,13.26,0,3.17,0,4.56-1.41,4.6-4.65.04-3.23.07-6.45.01-9.68-.03-1.38.48-1.83,1.84-1.81,3.37.07,6.73.05,10.1,0,3.03-.04,4.78-1.7,4.82-4.65.05-4.21.05-8.42-.06-12.62-.05-1.82-.32-3.67-2.28-4.61-.51-2.39-1.55-3.3-3.98-3.33-3.48-.04-6.96-.02-10.44-.03,0-3.12-.04-6.25,0-9.37.02-1.87-.62-3.38-2.12-4.51-.68-1.64-1.65-2.97-3.64-2.97-4.69.01-9.38.06-14.07.1-1.67.06-2.65,1.01-3.25,2.47-.44,4.62-.14,9.25-.1,13.88-.16.17-.31.34-.47.5Zm131.14,67.58c-.09.42.28.98.57,1.52,5.22,9.47,10.45,18.93,15.71,28.38,1.28,2.3,2.58,2.81,4.14,1.9,1.47-.86,1.64-2.37.5-4.6-.1-.19-.19-.38-.29-.56-4.16-7.53-8.32-15.06-12.48-22.59-1.04-1.89-2.05-3.8-3.13-5.66-.76-1.31-2.04-1.45-3.32-1.05-1.1.34-1.64,1.24-1.71,2.67Zm-6.73,1.97c-1.47-.04-2.76,1.19-2.62,2.65.06.67.32,1.37.64,1.97,3.88,7.23,7.79,14.45,11.7,21.67,1.3,2.4,2.55,4.82,3.94,7.17.97,1.64,2.57,2.01,4.05,1.07,1.53-.97,1.52-2.34.82-3.82-.15-.32-.33-.62-.5-.93-5.01-9.06-10.02-18.12-15.03-27.19-.69-1.25-1.35-2.49-3.01-2.58Zm18.18-9.68c-.89.1-1.81.82-1.8,2.49.01.96.43,1.75.86,2.56,2.95,5.49,5.81,11.04,8.9,16.45,1.87,3.27,3.4,6.74,5.62,9.8.93,1.29,2.12,1.66,3.46.86,1.28-.76,1.77-1.96,1.1-3.42-.32-.7-.67-1.38-1-2.07-2.03-4.24-4.54-8.21-6.82-12.31-2.28-4.1-4.53-8.21-6.8-12.31-.63-1.13-1.34-2.18-3.52-2.04Zm-27.55,14.67c-2.41.05-3.31,2.04-1.97,4.51,4.86,9,9.79,17.96,14.71,26.93.83,1.52,1.99,2.42,3.78,1.6,1.46-.67,1.88-2.39.93-4.13-4.94-9.08-9.92-18.15-14.9-27.21-.57-1.04-1.37-1.79-2.54-1.7Zm-9.31,4.62c-2.45,0-3.45,1.98-2.18,4.35,4.05,7.58,8.14,15.14,12.25,22.68,1.03,1.9,2.44,2.42,3.93,1.62,1.46-.77,1.8-2.26.75-4.2-4.11-7.63-8.27-15.24-12.41-22.86-.54-.99-1.25-1.69-2.35-1.6Zm47.01-24.48c-2.47-.04-3.49,1.93-2.18,4.34,3.4,6.27,6.88,12.49,10.36,18.71.83,1.48,2.02,2.49,3.78,1.44,1.6-.96,1.76-2.38.88-3.98-3.45-6.24-6.87-12.49-10.32-18.73-.56-1.02-1.32-1.82-2.51-1.77Zm-170.52-8.68c-.06-.67-.38-1.05-.83-1.27-.64-.32-1.24-.09-1.74.35-3.59,3.13-7.17,6.27-10.75,9.42-.62.55-1.07,1.22-.37,1.98.66.72,1.4.46,2.04-.09,3.61-3.11,7.22-6.22,10.81-9.35.35-.31.6-.74.84-1.05Zm-12.75,1.04c.16-.07.38-.1.53-.23,2.83-2.42,5.65-4.83,8.45-7.28.48-.42.52-.97.05-1.49-.56-.62-1.19-.75-1.84-.19-1.12.96-2.21,1.95-3.32,2.92-1.47,1.3-2.96,2.59-4.43,3.89-.52.46-.72,1.04-.48,1.71.16.44.54.61,1.04.66Zm126.05,17.31c.01-.07.02-.14.04-.22.69-.04,1.4.01,2.07-.14.72-.16.86-.68.34-1.24-.81-.88-4.74-.15-5.13.97-.38,1.07.39,1.49,1.17,1.89.57.29,1.46-.14,1.77.83-.49.11-.98.17-1.43.33-.52.18-1.42-.04-1.2,1.01.17.79.78.87,1.45.9,1.71.1,2.41-.93,2.58-2.55.57.28.92.48,1.03.94.14.58.48.89,1.05.61.46-.22.73-.63.69-1.19-.06-1.06-.84-1.37-1.68-1.58-.91-.22-1.84-.38-2.76-.57Zm-38.47.1c.36.04,1.04.47,1.26-.34.14-.52-.32-.86-.79-1.11-1.35-.72-3.43-.1-4.45,1.35-1.01,1.43-.81,3.29.47,4.36,1.3,1.1,3.21,1.07,4.42-.09.52-.5,1.09-1.15.46-1.8-.61-.64-1.11-.25-1.63.45-.78,1.06-1.78.69-2.47-.18-.7-.89-.37-1.69.56-2.28.63-.4,1.29-.52,2.16-.35Zm-82.89-31.78c-.44-.89-1.06-1.51-2.08-.71-1.21.95-2.34,1.99-3.5,3-.66.58-.9,1.28-.28,2.01.62.73,1.3.36,1.85-.1,1.18-.99,2.31-2.03,3.44-3.07.3-.28.59-.6.57-1.14Z" style="fill: #dcfadd; stroke-width: 0px;"/>
      <path d="m185.43,7.56c.03,2.53,0,5.05.09,7.58.05,1.37-.48,1.83-1.85,1.81-4-.07-8-.03-12.01-.03-46.28,0-92.55,0-138.83.01-2.78,0-2.8,0-2.78-2.74.02-2.17.11-4.35.17-6.52,1.96-.04,3.93-.13,5.89-.13,45.77-.02,91.54-.03,137.31-.04,4,0,8,.04,12,.06Z" style="fill: #fb3f59; stroke-width: 0px;"/>
      <path d="m185.43,7.56c-4-.02-8-.06-12-.06-45.77,0-91.54.02-137.31.04-1.96,0-3.93.08-5.89.13-.26-1.32-.36-2.62.16-3.91,4.05-.43,8.12-.23,12.18-.25,5.97-.03,11.93-.02,17.9-.02,41.56,0,83.11.02,124.67.03.12.11.23.22.35.33.06.97.12,1.94.17,2.9-.08.27-.15.54-.23.81Z" style="fill: #f5d9cd; stroke-width: 0px;"/>
      <path d="m185.14,3.52c-41.56,0-83.11-.02-124.67-.03-5.97,0-11.93,0-17.9.02-4.06.02-8.12-.18-12.18.25.13-.57.52-.8,1.07-.8.63,0,1.26,0,1.9,0,49.68,0,99.35,0,149.03.02.92,0,1.99-.44,2.74.54Z" style="fill: #09043c; stroke-width: 0px;"/>
      <path d="m185.66,6.75c-.06-.97-.12-1.94-.17-2.9.9.92.68,1.9.17,2.9Z" style="fill: #09043c; stroke-width: 0px;"/>
      <path d="m14.37,307.04c1.34-3.09,3.16-3.49,5.48-1.3,7.52,7.13,16.5,10.86,26.85,10.88,37.1.07,74.21.03,111.31.03,6.32,0,12.64.08,18.95-.02,6.8-.11,13.09-2.14,18.74-5.86,9.6-6.32,15.13-15.39,17.14-26.62.34-1.92.3-3.92.3-5.88,0-85.45-.01-170.91-.03-256.36,0-.56-.06-1.12-.09-1.67q5.74-.09,5.77,5.62c.03,7.83.07,15.66.1,23.49-.03.91-.07,1.82-.07,2.73-.02,54.14-.05,108.28-.06,162.43,0,14.11.07,28.23.11,42.34-.03,7.01-.11,14.02-.07,21.04.05,9.46-2.48,18.12-7.76,25.96-3.7,5.51-8.56,9.78-14.17,13.25-1.09.57-2.18,1.14-3.27,1.71-.44.12-.99-.1-1.29.44-.13.03-.27.06-.4.1-.15.11-.31.22-.46.32-.27.04-.54.08-.81.12-.27-.09-.37.08-.44.3,0,0,.02-.02.02-.02-.29.15-.57.29-.86.43,0,0,.02,0,.02,0-.35.13-.7.26-1.04.39-5.21,2.09-10.68,1.75-16.12,1.75-42.01,0-84.03.04-126.04-.03-12.5-.02-22.8-5.16-31.18-14.31-.32-.35-.76-.66-.64-1.25Z" style="fill: #788c9b; stroke-width: 0px;"/>
      <path d="m8.89,20.3c0,86.66.01,173.31-.02,259.97,0,3.55.44,7.02,1.58,10.34.63,1.85.08,2.79-1.47,3.49-.74.33-1.27.85-1.67,1.54-2.4-5.01-3.33-10.36-3.36-15.85-.06-11.42,0-22.83,0-34.25,0-1.12-.07-2.23-.11-3.35.03-1.96.09-3.93.09-5.89,0-66.32,0-132.64,0-198.96,0-.63-.06-1.26-.09-1.89.03-4.4.13-8.8.04-13.2-.03-1.65.46-2.24,2.09-2.04.96.12,1.95.07,2.93.09Z" style="fill: #f3f6f6; stroke-width: 0px;"/>
      <path d="m192.32,319.25c.29-.55.85-.32,1.29-.44-.31.49-.8.45-1.29.44Z" style="fill: #130c4d; stroke-width: 0px;"/>
      <path d="m189.37,320.51c.29-.14.57-.29.86-.43-.19.33-.5.44-.86.43Z" style="fill: #130c4d; stroke-width: 0px;"/>
      <path d="m188.35,320.89c.35-.13.7-.26,1.04-.39-.25.38-.63.43-1.04.39Z" style="fill: #130c4d; stroke-width: 0px;"/>
      <path d="m190.21,320.09c.07-.21.17-.39.44-.3-.15.1-.29.2-.44.3Z" style="fill: #130c4d; stroke-width: 0px;"/>
      <path d="m191.46,319.67c.15-.11.31-.22.46-.32-.15.11-.31.22-.46.32Z" style="fill: #130c4d; stroke-width: 0px;"/>
      <path d="m218.87,256.85c-.04-14.11-.11-28.23-.11-42.34,0-54.14.03-108.28.06-162.43,0-.91.05-1.82.07-2.73,1.72.35,1.28-1.91,2.54-2.11,0,72.12,0,144.24,0,216.36-1.48-1.02-.89-2.68-1.24-4.05-.26-1.01.04-2.26-1.33-2.7Z" style="fill: #0c0b49; stroke-width: 0px;"/>
      <path d="m213.01,16.87c-6.21.03-12.43.04-18.64.1-1.12,0-1.66-.3-1.61-1.54.09-2.58.08-5.16.11-7.75.76-.04,1.53-.11,2.29-.12,5.91-.07,11.83-.13,17.74-.19.04,3.17.08,6.34.12,9.5Z" style="fill: #fb3f59; stroke-width: 0px;"/>
      <path d="m212.89,7.36c-5.91.06-11.83.12-17.74.19-.76,0-1.53.08-2.29.12-.04-1.36-.45-2.75.38-4.03,6-.27,12.01-.27,18.01-.03.05,1.46,2.37,1.94,1.63,3.75Z" style="fill: #f5d9cd; stroke-width: 0px;"/>
      <path d="m212.89,7.36c.74-1.81-1.58-2.28-1.63-3.75,1.15-.05,2.29-.1,3.44-.15,2.6.88,3.99,2.64,4,5.43,0,2.16.04,4.31.11,6.47.04,1.17-.47,1.63-1.62,1.57-1.39-.07-2.78-.05-4.17-.07-.04-3.17-.08-6.34-.12-9.5Z" style="fill: #d22d4e; stroke-width: 0px;"/>
      <path d="m214.7,3.46c-1.15.05-2.29.1-3.44.15-6.01-.24-12.01-.24-18.01.03.31-.76.98-.69,1.61-.69,6.11,0,12.22,0,18.33,0,.56,0,1.14-.04,1.52.51Z" style="fill: #09043c; stroke-width: 0px;"/>
      <path d="m22.71,7.3c.02,2.72.02,5.44.08,8.16.02,1.08-.41,1.49-1.48,1.47-4.25-.06-8.51-.07-12.76-.1,0-1.81-.03-3.62-.01-5.43.03-3.11.88-4.05,3.93-4.1,3.41-.06,6.82,0,10.24,0Z" style="fill: #fb3f59; stroke-width: 0px;"/>
      <path d="m22.71,7.3c-3.41,0-6.82-.06-10.24,0-3.05.05-3.9.99-3.93,4.1-.02,1.81,0,3.62.01,5.43q-4.61.38-4.67-4.18c-.01-.98-.03-1.96-.02-2.95.02-3.75,1.09-5.17,4.65-6.17,4.75.03,9.5-.28,14.24.16l-.05,3.6Z" style="fill: #f5d9cd; stroke-width: 0px;"/>
      <path d="m22.76,3.7c-4.74-.44-9.49-.13-14.24-.16.32-.6.89-.58,1.45-.58,3.75,0,7.5,0,11.25,0,.63,0,1.28-.04,1.54.74Z" style="fill: #09043c; stroke-width: 0px;"/>
      <path d="m21.54,34.54c.78-1.45,2.12-1.95,3.63-1.96,5.94,0,11.89-.17,17.82.16-.11.39-.12,1.04-.35,1.13-1.39.56-2.54,1.6-4.25,1.53-3.77-.15-7.55-.05-11.32-.03-.74,0-1.56-.22-2.18.44-.06.08-.13.09-.21.03-.2.22-.39.44-.59.66l.06.09-.06.09c-.63.43-.62.85,0,1.27.39.38.88.37,1.37.35,5.84-.14,11.68.18,17.52-.27.86.44,1.79.24,2.69.24,42.07.02,84.14.02,126.21.02.77,0,1.53-.1,2.3-.15,3.94.17,7.88.18,11.81-.01.45.2.91.19,1.37.01,2.28.15,4.55.29,6.82-.07.36-.04.72-.08,1.08-.12,0,0,.13.02.13.02-.03,1.47-.08,2.95-.1,4.42-.25,27.25.54,54.51-.42,81.75-.31,8.7-4.1,16.13-9.83,22.49-8.97,9.95-20.46,14.73-33.68,14.78-41.67.17-83.33.06-125,.09-1.76,0-2.33-.61-2.31-2.34.07-4.42,0-8.85-.02-13.28.01-.91.04-1.82.04-2.74,0-32.21-.09-64.42.13-96.63.03-3.85-1.89-6.48-3.26-9.56-.14-.24-.11-.45.09-.64.81-.42.6-1.13.51-1.81Zm40.08,111.37c23.48,0,46.96,0,70.44,0,5.41.01,10.82-.06,16.23.06,5.71.13,10.41-2.11,14.33-6.02,4.11-4.1,6.07-9.24,6.08-15.02.05-23.26.02-46.52.02-69.78,0-3.61-.54-4.15-4.13-4.15-37.73,0-75.47,0-113.2,0-3.47,0-4.06.57-4.06,4,0,27.05,0,54.11,0,81.16,0,2.25-.05,4.5,0,6.75.06,2.21.9,3.01,3.12,3.01,3.72.01,7.45-.02,11.17-.03Zm-27.43-51.42c3.86.01,6.7-2.62,6.76-6.28.05-3.36-3.18-6.41-6.76-6.39-3.26.02-6.64,3.16-6.63,6.15.01,3.52,3.05,6.5,6.64,6.52Z" style="fill: #3b3f65; stroke-width: 0px;"/>
      <path d="m24.03,145.93c.02,4.43.09,8.85.02,13.28-.03,1.73.55,2.34,2.31,2.34,41.67-.04,83.33.07,125-.09,13.21-.05,24.71-4.84,33.68-14.78,5.74-6.36,9.53-13.8,9.83-22.49.96-27.24.17-54.5.42-81.75.01-1.47.06-2.95.1-4.42,2.19-.03,2.41,1.55,2.44,3.13.06,3.27-.02,6.55.04,9.82.02,1.15-.37,2.37.36,3.46.02.42.06.84.06,1.26,0,22.06,0,44.11,0,66.17,0,2.26-.22,4.49-.64,6.69-4.25,21.95-24.99,35.82-43.73,35.9-42.64.19-85.27.07-127.91.1-1.3,0-2.5-.2-3.61-.88-.3-.48-.6-.97-.9-1.45.02-4.59.12-9.18.02-13.77-.04-1.92.59-2.76,2.51-2.5Z" style="fill: #0c0b49; stroke-width: 0px;"/>
      <path d="m22.39,163.65c1.11.68,2.31.88,3.61.88,42.64-.02,85.27.1,127.91-.1,18.74-.09,39.48-13.95,43.73-35.9.43-2.2.64-4.44.64-6.69-.02-22.06,0-44.11,0-66.17,0-.42-.04-.84-.06-1.26.09-5.77.17-11.54.26-17.31,1.36.72,1.35,2.06,1.35,3.29.02,28.31.32,56.62-.1,84.92-.24,16.15-8.8,27.89-22.36,36.07-7.19,4.33-15.11,6.1-23.53,6.09-42.28-.06-84.57-.02-126.85-.02-2.87,0-4.09-1.02-4.58-3.8Z" style="fill: #8ea1a6; stroke-width: 0px;"/>
      <path d="m198.48,37.1c-.09,5.77-.17,11.54-.26,17.31-.72-1.09-.34-2.31-.36-3.46-.06-3.27.02-6.55-.04-9.82-.03-1.58-.24-3.17-2.44-3.13,0,0-.13-.02-.13-.02.24-1.52-.39-2.25-1.94-2.23-6.92.07-13.85.12-20.77.18-.49-.02-.98-.05-1.47-.05-48.73-.02-97.46-.03-146.19-.05.62-.66,1.44-.43,2.18-.44,3.77-.02,7.55-.12,11.32.03,1.71.07,2.86-.97,4.25-1.53.23-.09.24-.74.35-1.13,10.88-.02,21.76-.05,32.63-.06,38.89-.03,77.78-.06,116.66-.09.91,0,1.83-.07,2.7.29,0,0,.13.08.13.08l.14-.05c2.16.55,2.91,2.19,3.22,4.17Z" style="fill: #130c4d; stroke-width: 0px;"/>
      <path d="m24.03,145.93c-1.93-.26-2.55.58-2.51,2.5.1,4.59,0,9.18-.02,13.77-.18-.36-.37-.72-.55-1.08,0-1.54-.02-3.09-.03-4.63-.02-28.45-.04-56.9-.04-85.35,0-11.38.04-22.76.06-34.13,1.37,3.08,3.29,5.72,3.26,9.56-.22,32.21-.13,64.42-.13,96.63,0,.91-.03,1.82-.04,2.74Z" style="fill: #09043c; stroke-width: 0px;"/>
      <path d="m172.6,216.3c-2.73-4.46-3.7-9.18-2.04-14.26,1.9-5.82,7.58-10.19,13.64-10.56,7.16-.43,13.07,3.08,16.05,9.56.26.57.47,1.17.71,1.75-.3.7-.03,1.37.06,2.06,1.37,10.08-7.65,18.98-17.72,17.5-4.36-.64-7.81-2.84-10.7-6.06Zm20.96-18.91c-3.54-3.61-7.86-3.87-12.29-2.44-4.86,1.57-7.78,5.2-8.56,10.19-.66,4.23.53,8.02,4.04,10.81,1.31,1.44,2.96,2.27,4.85,2.67,5.63,1.95,11.55-.35,14.75-5.75,3.04-5.12,1.93-11.28-2.78-15.49Z" style="fill: #130c4d; stroke-width: 0px;"/>
      <path d="m134.7,232.28c-4.36-7.64-3.33-15.7,2.65-20.8,8.07-6.88,19.75-4.39,24.65,5.25.35.68.62,1.41.93,2.11-.19.63.02,1.24.11,1.86,1.67,11.13-8.34,20.26-19.26,17.58-3.52-.87-6.23-3.02-8.75-5.48,0,0-.02-.02-.02-.02-.11-.16-.21-.33-.32-.49Zm4.44.04c.06.14.17.21.32.23l-.07-.03c1.44,1.19,3,2.13,4.88,2.4.32.14.62.34.95.41,5.42,1.13,11.07-1.62,13.57-6.6,2.5-4.96,1.33-11.18-2.8-14.99-5.17-4.79-13.04-4.35-17.98,1.01-4.6,4.99-4.25,12.72.78,17.25l-.03-.04c.13.12.25.24.38.37Z" style="fill: #130c4d; stroke-width: 0px;"/>
      <path d="m66.7,206.62c3.48,0,6.96,0,10.44.03,2.43.03,3.48.94,3.98,3.33-.02,4.69-.02,9.38-.07,14.07-.03,2.92-1.17,4.08-4.07,4.12-3.64.05-7.29.08-10.93.02-1.18-.02-1.57.32-1.55,1.53.07,3.5.02,7.01.02,10.51,0,.98.04,1.97-.68,2.78-.08-.88-.11-1.78-.26-2.65-.08-.49-.46-.95-.95-.97-.71-.02-.53.64-.6,1.08-.08.47.14,1.25-.83.83.02-4.35.03-8.71.05-13.06.01-2.51.58-3.11,3.09-3.13,3.86-.02,7.73-.04,11.59.01,1.52.02,2.14-.59,2.11-2.13-.07-3.86-.04-7.72-.06-11.59.32-.94.1-1.7-.77-2.22-.31-.13-.63-.37-.94-.38-3.92-.03-7.85-.02-11.77-.03-.67,0-1.25.15-1.62.76-1.54-.15-1.64-1.25-1.64-2.45.01-4.07.01-8.15.02-12.22.47-1.43.07-2.37-1.54-2.35-4.3.04-8.61.15-12.91.23-.49-.54-.42-.95.26-1.25,1.81-.79.4-1.15-.22-1.61,4.69-.04,9.38-.09,14.07-.1,1.99,0,2.96,1.32,3.64,2.97,0,3.96.06,7.92-.07,11.87-.05,1.73.39,2.5,2.19,2.01Zm-17.57-16.24c2.48,1.61,8.23,1.47,9.76,0h-9.76Z" style="fill: #0c0b49; stroke-width: 0px;"/>
      <path d="m46.87,189.88c.62.46,2.03.82.22,1.61-.68.3-.76.71-.26,1.25-.26.42-.52.84-.78,1.27-.66.62-.44,1.43-.44,2.18-.02,3.21,0,6.43,0,9.65,0,2.89-1.94,3.96-4.56,2.51-.3-.17-.53-.48-.84-.62-.66-.29-1.55-.48-1.94.14-.74,1.17-1.8.78-2.79.92-1.67.25-3.47-.66-5.03.56,0,0,.1-.08.1-.08-.18.13-.37.25-.55.38h.01c-.13.16-.26.33-.4.51l.07-.09c-.78.55-.52,1.38-.52,2.11-.03,2.92-.05,5.84.01,8.76.02,1.15-.37,2.37.37,3.45.58.78,1.27.99,2.12.44,3.79.04,7.57.09,11.36.13,2.8.03,3.16.35,3.4,3.06-.52,4.04-.23,8.09-.28,12.14-.02,1.36.81,1.66,1.99,1.12,4.36.18,8.72.42,13.09.04.97.42.75-.36.83-.83.07-.44-.1-1.1.6-1.08.49.02.87.48.95.97.14.87.18,1.77.26,2.65,0,0-.04-.04-.04-.04-.16.14-.33.29-.49.43l.03-.03c-.14.17-.28.33-.42.5l.05-.03c-.17.11-.34.23-.51.34-.61.45-1.32.42-2.02.42-4.41.02-8.83.03-13.24.06-.85,0-1.67-.1-2.45-.47-1.07-1.22-1.4-2.62-1.35-4.24.09-2.65,0-5.3,0-7.95.02-.49-.02-.98.06-1.46.34-1.97-.54-2.64-2.41-2.37-.62.09-1.26.05-1.88.02-3.75-.19-7.53.51-11.25-.49-.35-1.12-1.51-1.96-1.14-3.32.8-.28.66-.97.66-1.58,0-4.74-.03-9.49-.05-14.23.55-1.37,1.67-1.78,3.02-1.81,4.21.55,8.41.58,12.62-.02.16-.17.31-.34.47-.5.72-4.62.51-9.25.1-13.88.6-1.46,1.59-2.41,3.25-2.47Z" style="fill: #130c4d; stroke-width: 0px;"/>
      <path d="m174.18,274.31c.07-1.43.61-2.33,1.71-2.67,1.29-.4,2.56-.26,3.32,1.05,1.08,1.86,2.09,3.77,3.13,5.66,4.16,7.53,8.32,15.06,12.48,22.59.1.18.19.37.29.56,1.14,2.23.97,3.75-.5,4.6-1.57.91-2.86.4-4.14-1.9-5.27-9.44-10.49-18.91-15.71-28.38-.3-.54-.67-1.09-.57-1.52Z" style="fill: #0c0b49; stroke-width: 0px;"/>
      <path d="m167.45,276.28c1.67.09,2.33,1.33,3.01,2.58,5,9.07,10.02,18.13,15.03,27.19.17.31.35.61.5.93.7,1.48.71,2.86-.82,3.82-1.49.94-3.08.57-4.05-1.07-1.39-2.34-2.64-4.77-3.94-7.17-3.91-7.22-7.82-14.44-11.7-21.67-.32-.6-.58-1.3-.64-1.97-.13-1.46,1.15-2.69,2.62-2.65Z" style="fill: #0c0b49; stroke-width: 0px;"/>
      <path d="m44.76,244.19c.77.37,1.59.47,2.45.47,4.41-.03,8.83-.04,13.24-.06.7,0,1.41.03,2.02-.42.17-.11.34-.23.51-.34,0,0-.05.03-.05.03.14-.17.28-.33.42-.5,0,0-.03.03-.03.03.16-.14.33-.29.49-.43,0,0,.04.04.04.04.71-.81.67-1.8.68-2.78,0-3.5.05-7.01-.02-10.51-.02-1.21.37-1.55,1.55-1.53,3.64.06,7.29.03,10.93-.02,2.9-.04,4.04-1.2,4.07-4.12.05-4.69.05-9.38.07-14.07,1.96.94,2.24,2.79,2.28,4.61.11,4.21.11,8.42.06,12.62-.04,2.96-1.78,4.61-4.82,4.65-3.37.05-6.73.07-10.1,0-1.36-.03-1.87.42-1.84,1.81.06,3.23.02,6.45-.01,9.68-.04,3.24-1.43,4.64-4.6,4.65-4.42.01-8.84.04-13.26,0-2.44-.02-3.85-1.38-4.08-3.82Z" style="fill: #8ea1a6; stroke-width: 0px;"/>
      <path d="m72.98,275.87c-3.99-3.93-3.39-7.68,1.6-10.13,5.46-2.68,10.93-5.34,16.34-8.14,2.44-1.26,4.79-1.82,7.01.14,2.15,1.89,2.38,4.32,1.37,6.92-1.28,1.21-2.77,2.1-4.36,2.87-4.73,2.3-9.47,4.58-14.14,6.99-2.5,1.3-4.98,2.23-7.82,1.34Zm1.3-3.79c1.18,1.63,2.6.68,3.74.14,4.6-2.17,9.12-4.49,13.68-6.76,1.24-.62,2.52-1.19,3.73-1.87,1.19-.67,1.67-1.64.88-2.95-.89-1.39-1.96-1.44-3.39-.72-5.99,3-12.02,5.91-18.03,8.88-1.63.8-1.76,1.67-.6,3.29Z" style="fill: #130c4d; stroke-width: 0px;"/>
      <path d="m185.63,266.6c2.18-.15,2.89.91,3.52,2.04,2.27,4.1,4.52,8.22,6.8,12.31,2.28,4.1,4.79,8.07,6.82,12.31.33.69.68,1.37,1,2.07.67,1.47.18,2.66-1.1,3.42-1.34.8-2.52.42-3.46-.86-2.23-3.06-3.76-6.53-5.62-9.8-3.09-5.41-5.95-10.96-8.9-16.45-.43-.8-.85-1.6-.86-2.56-.02-1.67.91-2.39,1.8-2.49Z" style="fill: #0c0b49; stroke-width: 0px;"/>
      <path d="m158.08,281.27c1.17-.09,1.97.66,2.54,1.7,4.98,9.06,9.96,18.12,14.9,27.21.95,1.74.53,3.47-.93,4.13-1.78.81-2.95-.09-3.78-1.6-4.91-8.97-9.85-17.93-14.71-26.93-1.34-2.47-.44-4.46,1.97-4.51Z" style="fill: #0c0b49; stroke-width: 0px;"/>
      <path d="m112.28,274.5c-3.77-3.93-3.17-7.47,1.65-9.84,5.27-2.6,10.54-5.2,15.77-7.9,2.44-1.26,4.79-1.77,7,.24,2.15,1.96,2.19,4.4,1.22,6.97-.31.14-.5.36-.52.71,0,0-.04.06-.04.06-6.16,3.11-12.34,6.19-18.48,9.36-2.19,1.14-4.33,1.44-6.6.39Zm22.66-14.33c-.55-1.93-1.85-1.84-3.27-1.14-5.84,2.9-11.66,5.83-17.48,8.78-1.4.71-1.73,1.75-.75,3.08.57,1.73,1.78,1.25,2.9.78,6.06-2.58,11.84-5.76,17.77-8.63,1.35-.65,1.72-1.57.84-2.87Z" style="fill: #0c0b49; stroke-width: 0px;"/>
      <path d="m148.77,285.89c1.1-.09,1.81.61,2.35,1.6,4.14,7.62,8.3,15.22,12.41,22.86,1.04,1.94.7,3.43-.75,4.2-1.49.79-2.89.28-3.93-1.62-4.11-7.54-8.21-15.1-12.25-22.68-1.27-2.38-.27-4.36,2.18-4.35Z" style="fill: #0c0b49; stroke-width: 0px;"/>
      <path d="m195.78,261.41c1.19-.05,1.95.75,2.51,1.77,3.45,6.24,6.88,12.49,10.32,18.73.89,1.6.72,3.03-.88,3.98-1.75,1.05-2.95.04-3.78-1.44-3.48-6.22-6.96-12.44-10.36-18.71-1.31-2.41-.29-4.38,2.18-4.34Z" style="fill: #0c0b49; stroke-width: 0px;"/>
      <path d="m135.04,232.79c2.52,2.46,5.23,4.62,8.75,5.48,10.92,2.68,20.93-6.45,19.26-17.58-.09-.62-.3-1.23-.11-1.86,1.98,1.41,2.16,3.65,2.36,5.73.46,4.77-.76,9.1-3.85,12.85-.3.36-.47.83-.71,1.25-.34.3-.67.59-1.01.89-3.78,2.37-7.89,3.45-12.35,2.96-5.61-.61-9.45-3.77-12.16-8.52-.19-.33-.13-.8-.19-1.21Z" style="fill: #8ea1a6; stroke-width: 0px;"/>
      <path d="m172.6,216.3c2.88,3.22,6.34,5.42,10.7,6.06,10.07,1.47,19.09-7.43,17.72-17.5-.09-.69-.36-1.36-.06-2.06,1.53,1.19,1.67,3,1.9,4.66.66,4.88-.71,9.26-3.59,13.2-.37.5-.66,1.05-.99,1.58-.63.24-1.1.65-1.31,1.31-2.44.96-4.7,2.3-7.35,2.78-6.56,1.19-13.93-2.53-16.69-8.62-.19-.43-.22-.94-.33-1.41Z" style="fill: #8ea1a6; stroke-width: 0px;"/>
      <path d="m20.94,36.99c-.02,11.38-.06,22.76-.06,34.13,0,28.45.02,56.9.04,85.35,0,1.54.02,3.09.03,4.63-1.11-.58-.63-1.62-.63-2.45-.03-27.83.06-55.67-.11-83.5-.03-5.46-.58-10.95-.27-16.4.41-7.09.26-14.17.35-21.26,0-.61-.14-1.3.63-1.64.04.16.08.33.11.49-.2.19-.22.4-.09.64Z" style="fill: #f3f6f6; stroke-width: 0px;"/>
      <path d="m27.93,227.69c3.71,1,7.5.31,11.25.49.63.03,1.27.07,1.88-.02,1.88-.27,2.75.4,2.41,2.37-.08.48-.04.97-.06,1.46-2.03-.81-4.15-.23-6.23-.36-1.6-.1-3.22-.02-4.83-.03-2.83-.02-3.97-1.04-4.43-3.91Z" style="fill: #8ea1a6; stroke-width: 0px;"/>
      <path d="m25.26,252.73c-.24.3-.49.74-.84,1.05-3.59,3.13-7.2,6.24-10.81,9.35-.64.55-1.39.81-2.04.09-.7-.76-.24-1.44.37-1.98,3.57-3.15,7.16-6.28,10.75-9.42.5-.44,1.1-.67,1.74-.35.45.22.77.6.83,1.27Z" style="fill: #788c9b; stroke-width: 0px;"/>
      <path d="m72.98,275.87c2.84.89,5.31-.04,7.82-1.34,4.67-2.42,9.41-4.7,14.14-6.99,1.59-.77,3.08-1.66,4.36-2.87.27,1.57-.9,2.31-1.93,2.92-6.38,3.79-13.11,6.89-19.85,9.96-1.87.85-3.46.13-4.53-1.67Z" style="fill: #8ea1a6; stroke-width: 0px;"/>
      <path d="m112.28,274.5c2.27,1.04,4.4.74,6.6-.39,6.13-3.17,12.31-6.25,18.48-9.36.08,1.2-.81,1.75-1.63,2.23-5.94,3.44-12.18,6.32-18.34,9.32-2.01.98-4.07.1-5.09-1.8Z" style="fill: #8ea1a6; stroke-width: 0px;"/>
      <path d="m196.97,223.55c.21-.66.68-1.07,1.31-1.31,1.9.98,3.29,2.56,4.68,4.12.54.6,1.18,1.33.29,2.17-1.02.97-1.2-.15-1.65-.66-.38-.42-3.39.71-3.71,1.48-.31.76-.59,1.59-1.53,1.14-.87-.41-.48-1.28-.31-2.04.36-1.62,1-3.19.92-4.9Zm1.65.95q-.51,2.61,1.84,2.11c-.59-.67-1.11-1.27-1.84-2.11Z" style="fill: #130c4d; stroke-width: 0px;"/>
      <path d="m159.74,239.56c.34-.3.67-.59,1.01-.89,1.94.69,3.18,2.19,4.42,3.72.74.91,1.15,1.97-.04,2.69-1.31.79-.78-1.25-1.89-1.18-.94.89-2.81,1.06-3.32,2.87-.14.5-.56.59-1,.44-.66-.23-.82-.77-.6-1.36.77-2.04.93-4.21,1.42-6.31Zm1.08,4.24c.72-.27,1.38-.51,2.1-.78-.54-.84-.98-1.51-1.72-1.99-.34.91-.6,1.75-.38,2.78Z" style="fill: #130c4d; stroke-width: 0px;"/>
      <path d="m12.51,253.77c-.49-.05-.88-.22-1.04-.66-.24-.67-.04-1.25.48-1.71,1.47-1.3,2.95-2.59,4.43-3.89,1.11-.97,2.2-1.97,3.32-2.92.65-.56,1.28-.43,1.84.19.47.52.43,1.07-.05,1.49-2.8,2.44-5.63,4.86-8.45,7.28-.15.13-.38.17-.53.23Z" style="fill: #788c9b; stroke-width: 0px;"/>
      <path d="m138.56,271.08c.92.19,1.85.35,2.76.57.84.2,1.61.51,1.68,1.58.03.56-.24.97-.69,1.19-.57.27-.92-.03-1.05-.61-.11-.46-.46-.66-1.03-.94-.17,1.62-.87,2.64-2.58,2.55-.67-.04-1.28-.12-1.45-.9-.22-1.05.68-.83,1.2-1.01.46-.16.94-.22,1.43-.33-.31-.96-1.2-.54-1.77-.83-.79-.4-1.55-.82-1.17-1.89.39-1.12,4.32-1.85,5.13-.97.52.56.38,1.08-.34,1.24-.67.15-1.38.1-2.07.14-.01.07-.02.14-.04.22Z" style="fill: #130c4d; stroke-width: 0px;"/>
      <path d="m66.7,206.62c-1.8.49-2.24-.27-2.19-2.01.12-3.95.06-7.91.07-11.87,1.5,1.13,2.14,2.63,2.12,4.51-.04,3.12,0,6.25,0,9.37Z" style="fill: #8ea1a6; stroke-width: 0px;"/>
      <path d="m100.09,271.18c-.87-.17-1.53-.05-2.16.35-.93.59-1.27,1.39-.56,2.28.69.87,1.69,1.24,2.47.18.52-.7,1.02-1.09,1.63-.45.63.65.05,1.31-.46,1.8-1.21,1.16-3.12,1.19-4.42.09-1.27-1.08-1.47-2.93-.47-4.36,1.02-1.45,3.1-2.07,4.45-1.35.46.25.93.59.79,1.11-.22.81-.9.38-1.26.34Z" style="fill: #130c4d; stroke-width: 0px;"/>
      <path d="m17.2,239.4c.02.53-.27.86-.57,1.14-1.13,1.04-2.26,2.09-3.44,3.07-.55.46-1.23.83-1.85.1-.62-.73-.38-1.43.28-2.01,1.15-1.01,2.29-2.06,3.5-3,1.02-.8,1.64-.18,2.08.71Z" style="fill: #788c9b; stroke-width: 0px;"/>
      <path d="m27.4,208.55c.02,4.74.04,9.49.05,14.23,0,.61.14,1.3-.66,1.58-.01-4.56-.03-9.11-.02-13.67,0-.76.04-1.55.64-2.15Z" style="fill: #09043c; stroke-width: 0px;"/>
      <path d="m43.61,192.35c.4,4.63.62,9.26-.1,13.88-.04-4.63-.34-9.26.1-13.88Z" style="fill: #09043c; stroke-width: 0px;"/>
      <path d="m43.04,206.73c-4.2.6-8.41.57-12.62.02,4.21,0,8.41-.01,12.62-.02Z" style="fill: #09043c; stroke-width: 0px;"/>
      <path d="m21.02,36.35c-.04-.16-.08-.33-.11-.49.34-.38,0-1.07.63-1.32.09.68.3,1.39-.51,1.81Z" style="fill: #09043c; stroke-width: 0px;"/>
      <path d="m137.39,264.68c.01-.35.21-.57.52-.71.03.39-.13.63-.52.71Z" style="fill: #8ea1a6; stroke-width: 0px;"/>
      <path d="m134.7,232.28c.11.16.21.33.32.49-.11-.16-.21-.33-.32-.49Z" style="fill: #8ea1a6; stroke-width: 0px;"/>
      <path d="m195.25,32.93l-.14.05s-.13-.08-.13-.08c.1-.09.19-.08.27.03Z" style="fill: #3b3f65; stroke-width: 0px;"/>
      <path d="m61.61,145.91c-3.72.01-7.45.04-11.17.03-2.21,0-3.06-.8-3.12-3.01-.06-2.25,0-4.5,0-6.75,0-27.05,0-54.11,0-81.16,0-3.43.59-4,4.06-4,37.73,0,75.47,0,113.2,0,3.59,0,4.13.53,4.13,4.15,0,23.26.03,46.52-.02,69.78-.01,5.78-1.97,10.92-6.08,15.02-3.92,3.91-8.62,6.14-14.33,6.02-5.41-.12-10.82-.05-16.23-.06.09-.59.51-.71,1.04-.84,2.33-.55,4.65-1,7.06-.85.97.06,2.02.23,2.91-.61H59.66c.5,1.11,1.99,1.04,1.96,2.3Zm103.7-88.52q.26-3.38-3.13-3.38c-36.38,0-72.75,0-109.13-.06-1.88,0-2.44.42-2.44,2.38.07,28.09.07,56.18,0,84.27,0,2.14.66,2.75,2.61,2.29.77.02,1.54.05,2.32.05,30.64.01,61.28-.14,91.92.12,11.15.1,18.17-9.97,18.08-18.22-.23-21.78-.1-43.57-.12-65.36,0-.7-.07-1.4-.11-2.1Z" style="fill: #0c0b49; stroke-width: 0px;"/>
      <path d="m24.88,35.82c48.73.02,97.46.03,146.19.05.49,0,.98.03,1.47.05,1.69.7,3.46.25,5.19.32,2.17.09,4.36-.08,6.53.09.86.06,2.63-.16,1.73,1.82-3.94.2-7.88.19-11.81.02-.88-.38-1.8-.21-2.7-.21-41.99-.01-83.98-.01-125.97,0-.84,0-1.68.07-2.52.1-5.83.45-11.68.13-17.52.27-.49.01-.98.02-1.37-.35,0-.42,0-.85,0-1.27,0,0,.06-.09.06-.09,0,0-.06-.09-.06-.09.2-.22.39-.44.59-.66.08.06.15.04.21-.03Z" style="fill: #fb3f59; stroke-width: 0px;"/>
      <path d="m61.61,145.91c.03-1.26-1.46-1.19-1.96-2.3h83.4c-.89.84-1.94.67-2.91.61-2.42-.15-4.74.3-7.06.85-.53.13-.94.24-1.04.84-23.48,0-46.96,0-70.44,0Z" style="fill: #130c4d; stroke-width: 0px;"/>
      <path d="m34.18,94.5c-3.58-.01-6.63-3-6.64-6.52,0-3,3.37-6.14,6.63-6.15,3.58-.02,6.82,3.04,6.76,6.39-.06,3.65-2.89,6.29-6.76,6.28Zm4.75-6.33c-.03-2.5-2.07-4.5-4.58-4.5-2.49,0-4.79,2.26-4.74,4.66.05,2.44,2.22,4.52,4.64,4.44,2.76-.08,4.71-2,4.68-4.6Z" style="fill: #130c4d; stroke-width: 0px;"/>
      <path d="m42.97,38.05c.84-.04,1.68-.1,2.52-.1,41.99,0,83.98,0,125.97,0,.9,0,1.83-.18,2.7.21-.77.05-1.53.15-2.3.15-42.07,0-84.14,0-126.21-.02-.9,0-1.83.2-2.69-.24Z" style="fill: #d22d4e; stroke-width: 0px;"/>
      <path d="m185.98,38.15c.9-1.98-.87-1.76-1.73-1.82-2.16-.16-4.35,0-6.53-.09-1.73-.07-3.5.38-5.19-.32,6.92-.06,13.85-.11,20.77-.18,1.55-.02,2.18.71,1.94,2.23-.36.04-.72.08-1.08.12-2.29-1.77-4.56-1.09-6.82.07-.46.18-.91.19-1.37-.01Z" style="fill: #d22d4e; stroke-width: 0px;"/>
      <path d="m187.35,38.16c2.26-1.16,4.53-1.84,6.82-.07-2.27.36-4.55.22-6.82.07Z" style="fill: #fb3f59; stroke-width: 0px;"/>
      <path d="m24.08,36.7c0,.42,0,.85,0,1.27-.63-.42-.63-.85,0-1.27Z" style="fill: #130c4d; stroke-width: 0px;"/>
      <path d="m24.67,35.86c-.2.22-.39.44-.59.66.2-.22.39-.44.59-.66Z" style="fill: #130c4d; stroke-width: 0px;"/>
      <path d="m181.59,218.62c-1.88-.4-3.53-1.22-4.84-2.67-.5-1.46-1.05-2.9-1.48-4.37-1.41-4.87-.65-9.28,3.39-12.6,3.88-3.19,8.31-3.36,12.88-1.54.58.79,1.17,1.57,1.75,2.36,3.08,4.12,2.49,10.5-.94,14.37-2.94,3.32-6.75,4-10.76,4.45Z" style="fill: #fb3f59; stroke-width: 0px;"/>
      <path d="m191.53,197.44c-4.57-1.81-9-1.64-12.88,1.54-4.04,3.32-4.8,7.73-3.39,12.6.43,1.48.98,2.92,1.48,4.37-3.51-2.8-4.7-6.59-4.04-10.81.78-5,3.71-8.62,8.56-10.19,4.43-1.43,8.75-1.18,12.29,2.44-.66.6-1.36-.27-2.03.06Z" style="fill: #f5d9cd; stroke-width: 0px;"/>
      <path d="m191.53,197.44c.67-.32,1.37.55,2.03-.06,4.71,4.2,5.82,10.36,2.78,15.49-3.2,5.39-9.12,7.7-14.75,5.75,4.01-.45,7.81-1.14,10.76-4.45,3.43-3.86,4.02-10.24.94-14.37-.59-.78-1.17-1.57-1.75-2.36Z" style="fill: #d22d4e; stroke-width: 0px;"/>
      <path d="m144.27,234.91c-1.89-.27-3.45-1.21-4.88-2.4,0,0,.07.03.07.03-.15-.01-.25-.09-.31-.23-.13-.12-.25-.24-.38-.37,0,0,.03.04.03.04.17-1.06-.49-1.87-.85-2.76-2.39-5.81-.84-11.76,4.04-14.9,3.99-2.57,8.21-2.35,12.48-.7-.13.83.22,1.45.75,2.08,5.62,6.74.62,16.12-5.86,18.24-1.69.55-3.49.15-5.07.96Z" style="fill: #fb3f59; stroke-width: 0px;"/>
      <path d="m154.46,213.63c-4.27-1.65-8.49-1.86-12.48.7-4.88,3.14-6.43,9.09-4.04,14.9.37.89,1.03,1.7.85,2.76-5.03-4.53-5.38-12.27-.78-17.25,4.94-5.36,12.81-5.8,17.98-1.01-.51-.03-1.02-.06-1.54-.09Z" style="fill: #f5d9cd; stroke-width: 0px;"/>
      <path d="m154.46,213.63c.51.03,1.02.06,1.54.09,4.14,3.81,5.3,10.03,2.8,14.99-2.5,4.98-8.15,7.73-13.57,6.6-.33-.07-.64-.27-.95-.41,1.59-.82,3.38-.41,5.07-.96,6.48-2.12,11.48-11.5,5.86-18.24-.53-.63-.88-1.25-.75-2.08Z" style="fill: #d22d4e; stroke-width: 0px;"/>
      <path d="m139.46,232.55s-.07-.03-.07-.03c0,0,.07.03.07.03Z" style="fill: #f5d9cd; stroke-width: 0px;"/>
      <path d="m138.77,231.95c.13.12.25.24.38.37-.13-.12-.25-.24-.38-.37Z" style="fill: #f5d9cd; stroke-width: 0px;"/>
      <path d="m61.21,241.29c-4.36.38-8.73.14-13.09-.04.01-3.77-.03-7.55.06-11.32.03-1.37-.5-1.91-1.77-1.94-.24-2.7-.59-3.02-3.4-3.06-3.79-.04-7.57-.09-11.36-.13.02-3.86.13-7.73.02-11.59-.05-1.68.57-1.97,2.07-1.93,3.58.1,7.17.05,10.75.03,3.28-.02,3.93-.69,3.91-3.98-.02-3.65-.02-7.3-.1-10.95-.02-1.18.37-1.59,1.57-1.57,3.79.07,7.59.04,11.38.04,0,4.07,0,8.15-.02,12.22,0,1.2.1,2.3,1.64,2.45.14.07.28.13.42.2-.15,1.38.64,1.55,1.78,1.55,4.3-.04,8.6-.21,12.9.12.01,3.86-.01,7.73.06,11.59.03,1.54-.59,2.15-2.11,2.13-3.86-.05-7.73-.03-11.59-.01-2.51.01-3.08.62-3.09,3.13-.02,4.35-.04,8.71-.05,13.06Zm-.93-24c-.05-3.52-2.84-6.15-6.44-6.07-3.33.08-5.97,2.78-5.96,6.11,0,3.4,2.98,6.22,6.46,6.13,3.26-.08,5.99-2.92,5.95-6.17Z" style="fill: #fb3f59; stroke-width: 0px;"/>
      <path d="m61.27,194.86c-3.79,0-7.59.02-11.38-.04-1.2-.02-1.6.39-1.57,1.57.08,3.65.08,7.3.1,10.95.02,3.29-.63,3.96-3.91,3.98-3.58.02-7.17.08-10.75-.03-1.5-.04-2.12.25-2.07,1.93.11,3.86,0,7.73-.02,11.59-.85.55-1.55.33-2.12-.44.05-4.77.1-9.54.14-14.31,0,0-.07.09-.07.09.13-.17.26-.35.4-.52,0,0-.01.01-.01.01.18-.13.36-.25.55-.38,0,0-.1.08-.1.08,4.48-.02,8.97-.11,13.45,0,1.78.04,2.28-.6,2.24-2.29-.11-4.34-.07-8.69-.09-13.03.26-.42.52-.84.78-1.27,4.3-.08,8.61-.19,12.91-.23,1.6-.01,2.01.93,1.54,2.35Z" style="fill: #f5d9cd; stroke-width: 0px;"/>
      <path d="m77.99,211.39c-4.3-.33-8.6-.15-12.9-.12-1.15,0-1.93-.16-1.78-1.55.99-.35,2.02-.44,3.07-.44,3.61-.03,7.23-.08,10.84-.12.88.53,1.1,1.28.77,2.22Z" style="fill: #f5d9cd; stroke-width: 0px;"/>
      <path d="m49.13,190.39h9.76c-1.53,1.47-7.27,1.61-9.76,0Z" style="fill: #130c4d; stroke-width: 0px;"/>
      <path d="m77.22,209.17c-3.61.04-7.23.09-10.84.12-1.05,0-2.08.09-3.07.44-.14-.07-.28-.13-.42-.2.37-.61.95-.77,1.62-.76,3.92,0,7.85,0,11.77.03.32,0,.63.25.94.38Z" style="fill: #09043c; stroke-width: 0px;"/>
      <path d="m46.41,228c1.27.03,1.81.57,1.77,1.94-.09,3.77-.05,7.55-.06,11.32-1.18.55-2.01.24-1.99-1.12.05-4.05-.24-8.1.28-12.14Z" style="fill: #f5d9cd; stroke-width: 0px;"/>
      <path d="m46.04,194c.02,4.34-.02,8.69.09,13.03.04,1.7-.46,2.33-2.24,2.29-4.48-.1-8.97,0-13.45,0,1.56-1.22,3.36-.31,5.03-.56.99-.15,2.05.25,2.79-.92.39-.62,1.28-.43,1.94-.14.31.13.54.45.84.62,2.61,1.46,4.56.38,4.56-2.51,0-3.22-.01-6.43,0-9.65,0-.74-.22-1.56.44-2.18Zm-6.47,14.54l.16.1.02-.16-.18.06Z" style="fill: #09043c; stroke-width: 0px;"/>
      <path d="m29.67,210.05c-.05,4.77-.1,9.54-.14,14.31-.74-1.08-.34-2.3-.37-3.45-.06-2.92-.04-5.84-.01-8.76,0-.73-.26-1.56.52-2.11Z" style="fill: #09043c; stroke-width: 0px;"/>
      <path d="m30,209.62c-.13.17-.26.35-.4.52.13-.17.26-.35.4-.52Z" style="fill: #09043c; stroke-width: 0px;"/>
      <path d="m30.54,209.26c-.18.13-.36.25-.55.38.18-.13.36-.25.55-.38Z" style="fill: #09043c; stroke-width: 0px;"/>
      <path d="m63.81,242.97c-.16.14-.33.29-.49.43.16-.14.33-.29.49-.43Z" style="fill: #0c0b49; stroke-width: 0px;"/>
      <path d="m63.35,243.37c-.14.17-.28.33-.42.5.14-.17.28-.33.42-.5Z" style="fill: #0c0b49; stroke-width: 0px;"/>
      <path d="m62.98,243.84c-.17.11-.34.23-.51.34.17-.11.34-.23.51-.34Z" style="fill: #0c0b49; stroke-width: 0px;"/>
      <path d="m74.27,272.07c-1.16-1.62-1.03-2.48.6-3.29,6.01-2.97,12.04-5.87,18.03-8.88,1.43-.72,2.51-.67,3.39.72-1.49,1.45-3.48,2.01-5.26,2.92-5.58,2.86-11.17,5.68-16.76,8.52Z" style="fill: #8ea1a6; stroke-width: 0px;"/>
      <path d="m74.27,272.07c5.59-2.84,11.18-5.66,16.76-8.52,1.79-.91,3.78-1.47,5.26-2.92.79,1.3.3,2.28-.88,2.95-1.21.68-2.48,1.25-3.73,1.87-4.55,2.27-9.08,4.59-13.68,6.76-1.14.54-2.56,1.5-3.74-.14Z" style="fill: #3b3f65; stroke-width: 0px;"/>
      <path d="m113.44,270.89c-.99-1.33-.65-2.37.75-3.08,5.82-2.94,11.64-5.88,17.48-8.78,1.41-.7,2.72-.79,3.27,1.14-7.17,3.57-14.33,7.14-21.5,10.72Z" style="fill: #8ea1a6; stroke-width: 0px;"/>
      <path d="m113.44,270.89c7.17-3.57,14.33-7.14,21.5-10.72.88,1.29.51,2.22-.84,2.87-5.93,2.87-11.7,6.04-17.77,8.63-1.12.48-2.33.95-2.9-.78Z" style="fill: #3b3f65; stroke-width: 0px;"/>
      <path d="m198.62,224.5c.73.84,1.25,1.44,1.84,2.11q-2.36.5-1.84-2.11Z" style="fill: #dcfadd; stroke-width: 0px;"/>
      <path d="m160.82,243.79c-.22-1.02.04-1.87.38-2.78.75.48,1.18,1.15,1.72,1.99-.72.27-1.38.51-2.1.78Z" style="fill: #dcfadd; stroke-width: 0px;"/>
      <path d="m165.31,57.39c.04.7.11,1.4.11,2.1.02,21.79-.11,43.57.12,65.36.09,8.25-6.94,18.31-18.08,18.22-30.64-.26-61.28-.11-91.92-.12-.77,0-1.54-.03-2.32-.05-.02-.7-.05-1.41-.05-2.11,0-26.64,0-53.28,0-79.92q0-3.09,3.19-3.09c35.35,0,70.71,0,106.06,0,.97,0,1.98.17,2.88-.38Zm-80.55,45.07h0c6.18.01,12.35.02,18.53,0,1.09,0,2.53.17,2.55-1.44.02-1.61-1.41-1.42-2.51-1.49-.14,0-.28,0-.42,0-12.14,0-24.28,0-36.42,0-.49,0-.98,0-1.47.04-.92.07-1.41.7-1.5,1.51-.09.83.71.9,1.28,1.13.74.3,1.51.26,2.28.26,5.9,0,11.79,0,17.69,0Zm47.68,9.71c3.65,0,7.31,0,10.96,0,1.83,0,3.66.04,5.48-.03.92-.03,1.66-.53,1.67-1.55,0-1-.82-1.2-1.61-1.32-.34-.05-.7-.03-1.05-.03-10.4,0-20.8,0-31.21,0-1.15,0-2.58-.04-2.61,1.42-.03,1.47,1.44,1.43,2.56,1.51.42.03.84,0,1.26,0,4.85,0,9.7,0,14.55,0Zm-57.38,0c3.09,0,6.18.02,9.27,0,1.18-.01,2.78.09,2.83-1.45.04-1.62-1.54-1.47-2.74-1.47-5.34,0-10.68,0-16.02,0-1.19,0-2.39-.02-3.58.03-.95.04-1.91.24-1.9,1.48,0,1.18,1.06,1.16,1.83,1.35.53.13,1.12.07,1.68.07,2.88,0,5.76,0,8.64,0Zm64.58-23.59h0c3.01,0,6.03,0,9.04.01,1.06,0,2.17-.18,2.21-1.39.05-1.39-1.14-1.56-2.26-1.56-6.03,0-12.05,0-18.08.02-1.17,0-2.54.19-2.46,1.62.07,1.26,1.45,1.29,2.51,1.3,3.01.02,6.03,0,9.04,0Z" style="fill: #60d2f6; stroke-width: 0px;"/>
      <path d="m165.31,57.39c-.91.54-1.91.38-2.88.38-35.35,0-70.71,0-106.06,0q-3.18,0-3.19,3.09c0,26.64,0,53.28,0,79.92,0,.7.03,1.41.05,2.11-1.95.47-2.62-.14-2.61-2.29.07-28.09.07-56.18,0-84.27,0-1.96.55-2.38,2.44-2.38,36.38.06,72.75.05,109.13.06q3.38,0,3.13,3.38Z" style="fill: #5c9dc5; stroke-width: 0px;"/>
      <path d="m38.93,88.17c.03,2.6-1.91,4.51-4.68,4.6-2.42.07-4.59-2-4.64-4.44-.05-2.39,2.25-4.66,4.74-4.66,2.51,0,4.55,2,4.58,4.5Z" style="fill: #fb3f59; stroke-width: 0px;"/>
      <path d="m60.28,217.29c.05,3.26-2.68,6.09-5.95,6.17-3.48.09-6.45-2.74-6.46-6.13,0-3.33,2.63-6.03,5.96-6.11,3.6-.08,6.39,2.55,6.44,6.07Zm-4.05-3.06c-1.43-1.35-2.97-1.13-4.37-.09-1.37,1.01-2.19,2.36-1.23,4.14.35,1.97,1.62,2.75,3.51,2.78,1.85.03,3.19-.82,3.56-2.58.34-1.58.58-3.38-1.48-4.25Z" style="fill: #130c4d; stroke-width: 0px;"/>
      <polygon points="39.57 208.54 39.75 208.48 39.73 208.64 39.57 208.54" style="fill: #130c4d; stroke-width: 0px;"/>
      <path d="m84.76,102.47c-5.9,0-11.79,0-17.69,0-.77,0-1.54.04-2.28-.26-.57-.23-1.37-.3-1.28-1.13.09-.81.58-1.43,1.5-1.51.49-.04.98-.04,1.47-.04,12.14,0,24.28,0,36.42,0,.14,0,.28,0,.42,0,1.1.07,2.53-.12,2.51,1.49-.02,1.61-1.45,1.44-2.55,1.44-6.18.02-12.35.01-18.53.01h0Z" style="fill: #9cf3fd; stroke-width: 0px;"/>
      <path d="m132.44,112.17c-4.85,0-9.7,0-14.55,0-.42,0-.85.03-1.26,0-1.11-.08-2.59-.03-2.56-1.51.03-1.46,1.46-1.42,2.61-1.42,10.4,0,20.8,0,31.21,0,.35,0,.71-.02,1.05.03.79.12,1.62.32,1.61,1.32,0,1.02-.75,1.52-1.67,1.55-1.82.07-3.65.03-5.48.03-3.65,0-7.31,0-10.96,0Z" style="fill: #9cf3fd; stroke-width: 0px;"/>
      <path d="m75.06,112.16c-2.88,0-5.76,0-8.64,0-.56,0-1.15.06-1.68-.07-.77-.19-1.82-.17-1.83-1.35,0-1.24.95-1.44,1.9-1.48,1.19-.05,2.39-.03,3.58-.03,5.34,0,10.68,0,16.02,0,1.2,0,2.78-.14,2.74,1.47-.04,1.54-1.65,1.43-2.83,1.45-3.09.03-6.18,0-9.27.01Z" style="fill: #9cf3fd; stroke-width: 0px;"/>
      <path d="m139.64,88.57c-3.01,0-6.03.01-9.04,0-1.06,0-2.43-.04-2.51-1.3-.08-1.43,1.29-1.62,2.46-1.62,6.03-.01,12.05-.01,18.08-.02,1.12,0,2.31.17,2.26,1.56-.04,1.22-1.16,1.4-2.21,1.39-3.01-.01-6.03,0-9.04,0h0Z" style="fill: #9cf3fd; stroke-width: 0px;"/>
      <path d="m56.23,214.22c2.05.87,1.81,2.67,1.48,4.25-.37,1.76-1.72,2.61-3.56,2.58-1.9-.03-3.16-.82-3.51-2.78,2.84,0,4.94-1.02,5.6-4.04Z" style="fill: #3b3f65; stroke-width: 0px;"/>
      <path d="m56.23,214.22c-.66,3.02-2.76,4.04-5.6,4.04-.96-1.78-.14-3.13,1.23-4.14,1.4-1.04,2.94-1.25,4.37.09Z" style="fill: #8ea1a6; stroke-width: 0px;"/>
    </g>
  </g>
</svg>