<?xml version="1.0" encoding="utf-8"?>
<!-- Generator: Adobe Illustrator 27.8.0, SVG Export Plug-In . SVG Version: 6.00 Build 0)  -->
<svg version="1.1" id="Calque_1" xmlns="http://www.w3.org/2000/svg" xmlns:xlink="http://www.w3.org/1999/xlink" x="0px" y="0px"
	 viewBox="0 0 21.8 20.8" style="enable-background:new 0 0 21.8 20.8;" xml:space="preserve">
<style type="text/css">
	.st0{fill:none;}
	.st1{fill:#4137D2;stroke:#FFFFFF;stroke-width:0.5;}
</style>
<rect id="backgroundrect" y="0" class="st0" width="21.8" height="20.8"/>
<g>
	<path id="svg_1" class="st1" d="M8.7,2.1c-0.2,0-0.4,0.1-0.5,0.4L6.3,6.3C6,6.9,5.3,7.4,4.7,7.5L0.6,8C0,8.1-0.2,8.6,0.3,9l3,2.9
		c0.4,0.4,0.7,1.3,0.6,1.9L3.2,18c-0.1,0.4,0.1,0.7,0.4,0.7c0.1,0,0.3,0,0.4-0.1l3.7-2c0.3-0.1,0.6-0.2,1-0.2s0.7,0.1,1,0.2l3.7,2
		c0.1,0.1,0.3,0.1,0.4,0.1c0.3,0,0.5-0.3,0.4-0.7l-0.7-4.1c-0.1-0.6,0.2-1.5,0.6-1.9l3-2.9c0.4-0.4,0.3-0.9-0.3-1l-4.2-0.6
		C12,7.4,11.3,6.9,11,6.3L9.2,2.5C9.1,2.2,8.9,2.1,8.7,2.1L8.7,2.1z"/>
</g>
</svg>
