<?xml version="1.0" encoding="utf-8"?>
<!-- Generator: Adobe Illustrator 27.8.0, SVG Export Plug-In . SVG Version: 6.00 Build 0)  -->
<svg version="1.1" id="Calque_1" xmlns="http://www.w3.org/2000/svg" xmlns:xlink="http://www.w3.org/1999/xlink" x="0px" y="0px"
	 viewBox="0 0 21.8 20.8" style="enable-background:new 0 0 21.8 20.8;" xml:space="preserve">
<style type="text/css">
	.st0{fill:none;}
	.st1{fill:#252766;stroke:url(#svg_1_00000098907195559818475530000009764085413611021194_);stroke-width:0.5;}
</style>
<rect id="backgroundrect" y="0" class="st0" width="21.8" height="20.8"/>
<g>
	
		<linearGradient id="svg_1_00000070813762343150259100000003245984051134719658_" gradientUnits="userSpaceOnUse" x1="-0.2411" y1="10.3815" x2="17.663" y2="10.3815">
		<stop  offset="0" style="stop-color:#FFFFFF"/>
		<stop  offset="1" style="stop-color:#FFFFFF"/>
	</linearGradient>
	
		<path id="svg_1" style="fill:#252766;stroke:url(#svg_1_00000070813762343150259100000003245984051134719658_);stroke-width:0.5;" d="
		M17.2,9c0.4-0.4,0.3-0.8-0.1-0.9c0,0,0,0,0,0c-0.1,0-0.2-0.1-0.3-0.1l-4.1-0.6c-0.3,0-0.6-0.2-0.9-0.4c-0.1-0.1-0.3-0.2-0.4-0.3
		c-0.1-0.1-0.2-0.2-0.3-0.4L9.3,2.6c0,0,0-0.1-0.1-0.1l0,0c0,0,0,0,0,0c0,0,0,0,0,0C9,2.2,8.9,2.1,8.7,2.1c-0.1,0-0.3,0.1-0.4,0.3
		c0,0,0,0,0,0c0,0,0,0-0.1,0.1l0,0.1c0,0,0,0.1-0.1,0.1L6.3,6.3C6.2,6.4,6.2,6.6,6.1,6.7C5.9,6.8,5.8,6.9,5.7,7
		C5.4,7.2,5.1,7.4,4.8,7.4L0.8,8C0.7,8,0.6,8,0.6,8l0,0c0,0,0,0,0,0c-0.1,0-0.1,0-0.1,0C0,8.2-0.1,8.6,0.3,9l3,2.9
		c0.4,0.4,0.7,1.2,0.6,1.8l-0.7,4c0,0,0,0,0,0.1l0,0.1c-0.1,0.4,0.1,0.7,0.4,0.7c0.1,0,0.3,0,0.4-0.1l3.7-2c0.3-0.1,0.6-0.2,1-0.2
		c0.4,0,0.7,0.1,1,0.2l3.7,2c0.1,0.1,0.3,0.1,0.4,0.1c0.3,0,0.5-0.3,0.4-0.7l0-0.2c0,0,0,0,0,0l-0.7-4c-0.1-0.6,0.2-1.5,0.6-1.9
		L17.2,9z M12.7,14.1l0.6,3.5l-3.1-1.7c-0.4-0.2-0.9-0.3-1.5-0.3c-0.5,0-1.1,0.1-1.5,0.3l-3.1,1.6l0.6-3.5c0.2-0.9-0.2-2.1-0.9-2.8
		L1.3,8.8l3.5-0.5c0.9-0.1,1.9-0.9,2.4-1.7l1.6-3.2l1.6,3.2c0.4,0.8,1.4,1.6,2.4,1.7l3.5,0.5l-2.5,2.5
		C12.9,11.9,12.6,13.1,12.7,14.1z"/>
</g>
</svg>
